# Blender 4.1.1
# www.blender.org
mtllib tree.057.mtl
o tree.057
v -11.349238 -4.675250 5.942253
v -11.176192 -4.675250 6.025612
v -11.394081 -4.675250 5.814050
v -11.047990 -4.675250 5.980769
v -11.310721 -4.675250 5.641005
v -10.964630 -4.675250 5.807724
v -11.182519 -4.675250 5.596161
v -11.009473 -4.675250 5.679521
v -11.177773 -4.327483 5.918250
v -11.264297 -4.327483 5.876570
v -11.286718 -4.327483 5.812469
v -11.113673 -4.327483 5.895828
v -11.071993 -4.327483 5.809305
v -11.094415 -4.327483 5.745204
v -11.180938 -4.327483 5.703524
v -11.245039 -4.327483 5.725945
v -11.073179 -3.805793 5.728783
v -11.181333 -3.805793 5.676683
v -11.261459 -3.805793 5.704710
v -11.177379 -3.805793 5.945090
v -11.285532 -3.805793 5.892991
v -11.045152 -3.805793 5.808910
v -11.097252 -3.805793 5.917063
v -11.313560 -3.805793 5.812864
v -11.205956 -4.203316 5.974273
v -11.256166 -4.203316 5.918074
v -11.130713 -4.203316 5.978508
v -11.074513 -4.203316 5.928297
v -11.251932 -4.203316 5.842831
v -11.070279 -4.203316 5.853054
v -11.195733 -4.203316 5.792620
v -11.120489 -4.203316 5.796855
v -11.230161 -4.329511 6.024520
v -11.112299 -4.329511 6.031153
v -11.308811 -4.329511 5.936489
v -11.302178 -4.329511 5.818626
v -11.024267 -4.329511 5.952502
v -11.214147 -4.329511 5.739976
v -11.017634 -4.329511 5.834640
v -11.096285 -4.329511 5.746609
v -11.652320 -3.805793 5.838188
v -11.444726 -3.805793 5.407243
v -11.456750 -3.230796 5.823555
v -11.334269 -3.230796 5.569296
v -10.905903 -3.805793 6.197752
v -11.382909 -3.805793 6.233442
v -11.016360 -3.230796 6.035699
v -11.297796 -3.230796 6.056756
v -10.698308 -3.805793 5.766808
v -10.893879 -3.230796 5.781440
v -11.052833 -3.230796 5.548239
v -10.967719 -3.805793 5.371553
v -11.295013 -2.613048 6.050981
v -11.450357 -2.613048 5.823077
v -11.202826 -1.965096 5.859611
v -11.238532 -1.965096 5.807228
v -11.147802 -1.965096 5.745385
v -11.211020 -1.965096 5.750114
v -11.055614 -2.613048 5.554015
v -11.330657 -2.613048 5.574593
v -10.900271 -2.613048 5.781919
v -11.019971 -2.613048 6.030402
v -11.112097 -1.965096 5.797768
v -11.139608 -1.965096 5.854881
v -11.146298 -3.230796 6.190307
v -11.496659 -3.230796 6.021531
v -11.162019 -2.613048 5.980196
v -11.322558 -2.613048 5.902862
v -10.824953 -3.230796 5.971274
v -11.014774 -2.613048 5.879833
v -11.525676 -3.230796 5.633721
v -11.335854 -2.613048 5.725163
v -11.204330 -3.230796 5.414688
v -11.188610 -2.613048 5.624799
v -10.853969 -3.230796 5.583464
v -11.028070 -2.613048 5.702134
v -11.630630 -3.985170 5.583163
v -11.474361 -3.895481 5.363765
v -11.704791 -3.895481 5.842113
v -10.645838 -3.895482 5.762882
v -10.757708 -3.985170 5.517850
v -10.944884 -3.895481 5.324149
v -11.213023 -3.985170 5.298516
v -11.405745 -3.895481 6.280846
v -11.592920 -3.985170 6.087144
v -10.719999 -3.985170 6.021832
v -10.876267 -3.895482 6.241230
v -11.137607 -3.985170 6.306479
v -10.765574 -3.376631 5.771841
v -10.786413 -3.303713 5.989839
v -10.818622 -3.303713 5.559371
v -11.143106 -3.303713 6.232967
v -11.353635 -3.376631 6.172672
v -11.532007 -3.303713 6.045625
v -11.406734 -3.376631 5.462980
v -11.207522 -3.303713 5.372029
v -11.564215 -3.303713 5.615156
v -10.996994 -3.376631 5.432323
v -11.585055 -3.376631 5.833155
v -10.943894 -3.376631 6.142015
v -10.870017 -2.664763 5.779655
v -10.934522 -2.716478 5.638370
v -11.042448 -2.664763 5.526681
v -11.197057 -2.716478 5.511901
v -11.347745 -2.664763 5.549524
v -11.002883 -2.664763 6.055471
v -11.153572 -2.716478 6.093094
v -11.308181 -2.664763 6.078314
v -11.437850 -2.716478 5.676029
v -11.480612 -2.664763 5.825340
v -10.912780 -2.716478 5.928966
v -11.416106 -2.716478 5.966626
vn -0.0000 -1.0000 -0.0000
vn -0.0592 0.2942 0.9539
vn -0.7156 0.2944 0.6335
vn -0.0493 0.2944 0.9544
vn -0.7090 0.2942 0.6409
vn -0.9539 0.2942 -0.0591
vn -0.7156 0.2944 0.6334
vn -0.7091 0.2942 0.6408
vn -0.9539 0.2943 -0.0591
vn -0.9544 0.2944 -0.0493
vn 0.6408 0.2942 0.7091
vn 0.6334 0.2944 0.7156
vn -0.0591 0.2942 0.9539
vn 0.9539 0.2942 0.0592
vn 0.6335 0.2944 0.7156
vn 0.9544 0.2944 0.0493
vn 0.6409 0.2942 0.7090
vn 0.0493 0.2944 -0.9544
vn 0.7090 0.2942 -0.6409
vn 0.7156 0.2944 -0.6335
vn 0.0592 0.2942 -0.9539
vn -0.9539 0.2942 -0.0592
vn -0.6335 0.2944 -0.7156
vn -0.6409 0.2942 -0.7090
vn 0.7156 0.2944 -0.6334
vn 0.9539 0.2943 0.0591
vn 0.9539 0.2942 0.0591
vn 0.7091 0.2942 -0.6408
vn -0.6408 0.2942 -0.7091
vn 0.0591 0.2942 -0.9539
vn -0.6334 0.2944 -0.7156
vn 0.7441 -0.0513 -0.6661
vn 0.0553 -0.0512 -0.9972
vn 0.7453 -0.0513 -0.6648
vn 0.0553 -0.0513 -0.9972
vn 0.0571 -0.0513 -0.9971
vn -0.6660 -0.0512 -0.7442
vn 0.0552 -0.0513 -0.9972
vn 0.0570 -0.0512 -0.9971
vn -0.6660 -0.0513 -0.7441
vn -0.6647 -0.0512 -0.7453
vn -0.7453 -0.0512 0.6648
vn -0.0571 -0.0513 0.9971
vn -0.0553 -0.0513 0.9972
vn -0.7441 -0.0513 0.6661
vn 0.9972 -0.0513 0.0553
vn 0.6661 -0.0513 0.7441
vn 0.9971 -0.0513 0.0571
vn 0.9972 -0.0512 0.0553
vn 0.6648 -0.0513 0.7453
vn -0.7453 -0.0513 0.6647
vn -0.9971 -0.0513 -0.0570
vn -0.7442 -0.0512 0.6660
vn -0.7453 -0.0512 0.6647
vn -0.9972 -0.0513 -0.0552
vn 0.9971 -0.0513 0.0570
vn 0.7453 -0.0512 -0.6647
vn 0.9972 -0.0513 0.0552
vn 0.7453 -0.0513 -0.6647
vn 0.7441 -0.0512 -0.6661
vn -0.0552 -0.0513 0.9972
vn 0.6660 -0.0513 0.7441
vn 0.6647 -0.0512 0.7453
vn 0.6661 -0.0512 0.7441
vn -0.0570 -0.0512 0.9971
vn -0.9972 -0.0513 -0.0553
vn -0.6661 -0.0513 -0.7441
vn -0.9971 -0.0513 -0.0571
vn -0.9972 -0.0512 -0.0553
vn -0.6648 -0.0513 -0.7453
vn -0.0000 1.0000 -0.0000
vn 0.3020 0.4042 0.8634
vn -0.3969 0.4042 0.8241
vn -0.3969 0.4042 0.8240
vn -0.3969 0.4043 0.8240
vn -0.8240 0.4042 -0.3970
vn -0.3020 0.4042 -0.8634
vn 0.3969 0.4042 -0.8240
vn 0.3969 0.4043 -0.8240
vn 0.8240 0.4042 0.3970
vn 0.3020 0.4043 0.8633
vn -0.8634 0.4042 0.3020
vn -0.8240 0.4042 -0.3969
vn -0.8241 0.4042 -0.3969
vn -0.8240 0.4043 -0.3969
vn 0.8634 0.4042 -0.3020
vn 0.8634 0.4042 -0.3019
vn 0.8241 0.4042 0.3969
vn 0.8240 0.4043 0.3969
vn -0.3970 0.4043 0.8240
vn -0.3970 0.4042 0.8240
vn 0.3970 0.4042 -0.8240
vn 0.3970 0.4043 -0.8240
vn -0.9438 0.3228 0.0706
vn -0.5331 0.3228 -0.7821
vn 0.5331 0.3228 0.7821
vn -0.4107 0.3228 0.8527
vn -0.4108 0.3228 0.8527
vn 0.9438 0.3228 -0.0706
vn 0.4107 0.3228 -0.8527
vn 0.4108 0.3228 -0.8527
vn -0.2984 0.7260 0.6196
vn -0.9476 0.3115 0.0709
vn -0.4124 0.3115 0.8561
vn -0.6858 0.7260 0.0513
vn 0.4124 0.3115 -0.8561
vn -0.3874 0.7260 -0.5682
vn 0.2985 0.7260 -0.6196
vn -0.3874 0.7260 -0.5683
vn -0.5352 0.3115 -0.7852
vn 0.6858 0.7260 -0.0513
vn 0.5352 0.3115 0.7852
vn 0.9476 0.3115 -0.0709
vn 0.6858 0.7260 -0.0514
vn 0.3873 0.7260 0.5683
vn 0.3874 0.7260 0.5682
vn 0.3874 0.7260 0.5683
vn -0.2985 0.7260 0.6196
vn 0.3873 0.7259 0.5683
vn -0.6858 0.7260 0.0514
vn -0.2985 0.7259 0.6196
vn -0.6858 0.7259 0.0513
vn -0.3873 0.7259 -0.5683
vn 0.6858 0.7259 -0.0513
vn 0.2985 0.7259 -0.6196
vn 0.4124 0.3116 -0.8561
vn -0.3873 0.7260 -0.5683
vn 0.0706 0.3228 0.9438
vn -0.7821 0.3228 0.5331
vn 0.8527 0.3228 0.4108
vn -0.8527 0.3228 -0.4107
vn -0.8527 0.3228 -0.4108
vn -0.0706 0.3228 -0.9438
vn 0.7821 0.3228 -0.5331
vn 0.8527 0.3228 0.4107
vn -0.8601 0.5060 0.0644
vn -0.4858 0.5060 -0.7127
vn -0.8032 0.4530 -0.3869
vn 0.8032 -0.4530 0.3869
vn 0.4858 -0.5060 0.7127
vn 0.8601 -0.5060 -0.0644
vn 0.7367 0.4530 -0.5021
vn 0.8601 0.5060 -0.0644
vn 0.8601 0.5060 -0.0643
vn 0.3743 0.5060 -0.7771
vn -0.8601 -0.5060 0.0644
vn -0.7367 -0.4530 0.5021
vn -0.3743 -0.5060 0.7771
vn -0.3743 -0.5060 0.7770
vn -0.0665 0.4530 -0.8890
vn 0.0665 -0.4530 0.8890
vn -0.3743 0.5060 0.7771
vn -0.7367 0.4530 0.5021
vn -0.8601 0.5060 0.0643
vn 0.3743 -0.5060 -0.7771
vn 0.7367 -0.4530 -0.5021
vn 0.4858 0.5060 0.7127
vn 0.8032 0.4530 0.3869
vn -0.8032 -0.4530 -0.3869
vn -0.4858 -0.5060 -0.7127
vn 0.0665 0.4530 0.8890
vn -0.3743 0.5060 0.7770
vn -0.0665 -0.4530 -0.8890
vn -0.0665 -0.4529 -0.8891
vn 0.7127 0.5060 -0.4858
vn 0.7771 0.5060 0.3743
vn 0.8890 0.4530 -0.0665
vn -0.8890 -0.4530 0.0665
vn -0.7771 -0.5060 -0.3743
vn -0.7127 -0.5060 0.4858
vn 0.0643 0.5060 0.8601
vn -0.3869 0.4530 0.8032
vn 0.0644 0.5060 0.8601
vn -0.7127 0.5061 0.4858
vn -0.7127 0.5060 0.4858
vn -0.0643 -0.5060 -0.8601
vn 0.3869 -0.4530 -0.8032
vn 0.7127 -0.5060 -0.4858
vn -0.0644 -0.5060 -0.8601
vn -0.7771 0.5060 -0.3743
vn -0.0644 0.5060 -0.8601
vn -0.5021 0.4530 -0.7367
vn 0.5021 -0.4530 0.7367
vn 0.0644 -0.5060 0.8601
vn 0.7771 -0.5060 0.3743
vn 0.3869 0.4529 -0.8032
vn 0.3869 0.4530 -0.8032
vn -0.3869 -0.4530 0.8032
vn -0.7770 0.5060 -0.3743
vn -0.8890 0.4530 0.0665
vn 0.8890 -0.4530 -0.0665
vn 0.5021 0.4530 0.7367
vn -0.5021 -0.4530 -0.7367
vn 0.7367 0.4529 -0.5021
vn 0.7367 0.4529 -0.5022
vn -0.7367 -0.4529 0.5021
vn -0.7367 -0.4529 0.5022
vn 0.0665 0.4529 0.8891
vn 0.8032 0.4529 0.3869
vn -0.8032 -0.4529 -0.3869
vn -0.7367 0.4529 0.5021
vn 0.3743 -0.5060 -0.7770
vn 0.7367 -0.4529 -0.5021
vt 0.593750 0.025000
vt 0.593750 0.104996
vt 0.593750 0.225000
vt 0.093750 0.475000
vt 0.093750 0.275000
vt 0.093750 0.425000
vt 0.093750 0.348778
vt 0.093750 0.338765
vt 0.093750 0.344099
vt 0.093750 0.375000
vt 0.093750 0.325000
s 0
usemtl colormap.002
f 3/1/1 2/1/1 1/1/1
f 2/1/1 3/1/1 4/1/1
f 4/1/1 3/1/1 5/1/1
f 4/1/1 5/1/1 6/1/1
f 6/1/1 5/1/1 7/1/1
f 6/1/1 7/1/1 8/1/1
f 9/2/2 1/1/3 2/1/4
f 1/1/3 9/2/2 10/2/5
f 11/2/6 1/1/7 10/2/8
f 1/1/7 11/2/9 3/1/10
f 12/2/11 2/1/4 4/1/12
f 2/1/4 12/2/11 9/2/13
f 13/2/14 4/1/15 6/1/16
f 4/1/15 13/2/14 12/2/17
f 7/1/18 14/2/19 8/1/20
f 14/2/19 7/1/18 15/2/21
f 11/2/22 5/1/23 3/1/10
f 5/1/23 11/2/22 16/2/24
f 8/1/25 13/2/26 6/1/16
f 13/2/27 8/1/25 14/2/28
f 7/1/18 16/2/29 15/2/30
f 16/2/29 7/1/18 5/1/31
f 14/2/32 18/3/33 17/3/34
f 18/3/35 14/2/32 15/2/36
f 16/2/37 18/3/38 15/2/39
f 18/3/38 16/2/40 19/3/41
f 21/3/42 9/2/43 20/3/44
f 9/2/43 21/3/42 10/2/45
f 22/3/46 12/2/47 13/2/48
f 12/2/47 22/3/49 23/3/50
f 21/3/51 11/2/52 10/2/53
f 11/2/52 21/3/54 24/3/55
f 13/2/56 17/3/57 22/3/58
f 17/3/59 13/2/56 14/2/60
f 20/3/61 12/2/62 23/3/63
f 12/2/64 20/3/61 9/2/65
f 24/3/66 16/2/67 11/2/68
f 16/2/67 24/3/69 19/3/70
f 27/4/71 26/4/71 25/4/71
f 26/4/71 27/4/71 28/4/71
f 26/4/71 28/4/71 29/4/71
f 29/4/71 28/4/71 30/4/71
f 29/4/71 30/4/71 31/4/71
f 31/4/71 30/4/71 32/4/71
f 35/5/1 34/5/1 33/5/1
f 34/5/1 35/5/1 36/5/1
f 34/5/1 36/5/1 37/5/1
f 37/5/1 36/5/1 38/5/1
f 37/5/1 38/5/1 39/5/1
f 39/5/1 38/5/1 40/5/1
f 27/4/72 33/5/73 34/5/72
f 33/5/74 27/4/72 25/4/75
f 29/4/76 38/5/77 36/5/76
f 38/5/77 29/4/76 31/4/77
f 40/5/78 31/4/77 32/4/79
f 31/4/77 40/5/78 38/5/77
f 28/4/80 34/5/72 37/5/80
f 34/5/72 28/4/80 27/4/81
f 26/4/82 36/5/83 35/5/82
f 36/5/84 26/4/82 29/4/85
f 30/4/86 37/5/80 39/5/87
f 37/5/88 30/4/86 28/4/89
f 26/4/82 33/5/90 25/4/91
f 33/5/91 26/4/82 35/5/82
f 40/5/92 30/4/86 39/5/86
f 30/4/86 40/5/93 32/4/92
f 43/6/94 42/7/95 41/7/94
f 42/7/95 43/6/94 44/6/95
f 47/6/96 46/7/97 45/7/96
f 46/7/98 47/6/96 48/6/97
f 50/6/99 45/7/96 49/7/99
f 45/7/96 50/6/99 47/6/96
f 48/6/98 41/7/94 46/7/98
f 41/7/94 48/6/98 43/6/94
f 52/7/100 44/6/95 51/6/100
f 44/6/95 52/7/101 42/7/95
f 52/7/101 50/6/99 49/7/99
f 50/6/99 52/7/101 51/6/101
f 41/7/1 45/7/1 46/7/1
f 45/7/1 41/7/1 42/7/1
f 45/7/1 42/7/1 49/7/1
f 49/7/1 42/7/1 52/7/1
f 55/6/102 54/8/103 53/8/104
f 54/8/103 55/6/102 56/6/105
f 59/8/106 58/6/107 57/6/108
f 58/6/109 59/8/106 60/8/110
f 63/6/111 62/8/112 61/8/113
f 62/8/112 63/6/114 64/6/115
f 64/6/116 53/8/104 62/8/112
f 53/8/104 64/6/117 55/6/118
f 64/6/119 56/6/120 55/6/121
f 56/6/122 64/6/115 58/6/123
f 58/6/123 64/6/119 63/6/124
f 58/6/123 63/6/124 57/6/125
f 59/8/126 63/6/111 61/8/113
f 63/6/111 59/8/106 57/6/108
f 54/8/1 62/8/1 53/8/1
f 62/8/1 54/8/1 60/8/1
f 62/8/1 60/8/1 61/8/1
f 61/8/1 60/8/1 59/8/1
f 56/6/105 60/8/110 54/8/103
f 60/8/110 56/6/105 58/6/127
f 67/6/128 66/9/129 65/9/128
f 66/9/129 67/6/128 68/6/129
f 70/6/130 65/9/128 69/9/130
f 65/9/128 70/6/130 67/6/128
f 68/6/129 71/9/131 66/9/129
f 71/9/131 68/6/129 72/6/131
f 72/6/132 73/9/133 71/9/132
f 73/9/133 72/6/132 74/6/133
f 71/9/1 65/9/1 66/9/1
f 65/9/1 71/9/1 69/9/1
f 69/9/1 71/9/1 73/9/1
f 69/9/1 73/9/1 75/9/1
f 76/6/134 69/9/135 75/9/134
f 69/9/135 76/6/134 70/6/135
f 73/9/133 76/6/134 75/9/134
f 76/6/134 73/9/133 74/6/133
f 79/10/136 78/10/137 77/11/138
f 78/10/137 79/10/136 41/6/136
f 78/10/137 41/6/136 42/6/137
f 77/11/139 78/10/140 79/10/141
f 41/6/141 79/10/141 78/10/140
f 42/6/140 41/6/141 78/10/140
f 81/11/142 49/6/143 80/10/143
f 49/6/144 81/11/142 52/6/145
f 52/6/145 81/11/142 82/10/145
f 80/10/146 49/6/146 81/11/147
f 52/6/148 81/11/147 49/6/146
f 82/10/148 81/11/147 52/6/149
f 82/10/145 42/6/137 52/6/145
f 42/6/137 82/10/145 83/11/150
f 42/6/137 83/11/150 78/10/137
f 52/6/148 42/6/140 82/10/148
f 83/11/151 82/10/148 42/6/140
f 78/10/140 83/11/151 42/6/140
f 46/6/152 85/11/153 84/10/152
f 85/11/153 46/6/152 41/6/154
f 85/11/153 41/6/136 79/10/136
f 84/10/155 85/11/156 46/6/155
f 41/6/141 46/6/155 85/11/156
f 79/10/141 41/6/141 85/11/156
f 80/10/143 87/10/157 86/11/158
f 87/10/157 80/10/143 49/6/143
f 87/10/157 49/6/143 45/6/157
f 86/11/159 87/10/160 80/10/146
f 49/6/146 80/10/146 87/10/160
f 45/6/160 49/6/146 87/10/160
f 45/6/157 88/11/161 87/10/157
f 88/11/161 45/6/157 46/6/162
f 88/11/161 46/6/152 84/10/152
f 87/10/160 88/11/163 45/6/160
f 46/6/155 45/6/160 88/11/163
f 84/10/155 46/6/155 88/11/164
f 91/10/165 90/10/166 89/11/167
f 90/10/166 91/10/165 75/6/165
f 90/10/166 75/6/165 69/6/166
f 89/11/168 90/10/169 91/10/170
f 75/6/170 91/10/170 90/10/169
f 69/6/169 75/6/170 90/10/169
f 65/6/171 93/11/172 92/10/171
f 93/11/172 65/6/173 66/6/174
f 93/11/172 66/6/175 94/10/175
f 92/10/176 93/11/177 65/6/176
f 66/6/178 65/6/179 93/11/177
f 94/10/178 66/6/178 93/11/177
f 97/10/180 96/10/181 95/11/182
f 96/10/181 97/10/180 71/6/180
f 96/10/181 71/6/180 73/6/181
f 95/11/183 96/10/184 97/10/185
f 71/6/185 97/10/185 96/10/184
f 73/6/184 71/6/185 96/10/184
f 98/11/186 75/6/165 91/10/165
f 75/6/165 98/11/187 73/6/181
f 73/6/181 98/11/187 96/10/181
f 91/10/170 75/6/170 98/11/188
f 73/6/184 98/11/188 75/6/170
f 96/10/184 98/11/188 73/6/184
f 94/10/175 97/10/189 99/11/190
f 97/10/180 94/10/175 66/6/175
f 97/10/180 66/6/175 71/6/180
f 99/11/191 97/10/185 94/10/178
f 66/6/178 94/10/178 97/10/185
f 71/6/185 66/6/178 97/10/185
f 90/10/166 92/10/173 100/11/192
f 92/10/173 90/10/166 69/6/166
f 92/10/173 69/6/166 65/6/173
f 100/11/193 92/10/179 90/10/169
f 69/6/169 90/10/169 92/10/179
f 65/6/179 69/6/169 92/10/179
f 102/11/194 61/6/143 101/10/143
f 61/6/144 102/11/142 59/6/145
f 59/6/145 102/11/195 103/10/145
f 101/10/146 61/6/146 102/11/196
f 59/6/148 102/11/147 61/6/146
f 103/10/148 102/11/197 59/6/148
f 103/10/145 60/6/137 59/6/145
f 60/6/137 103/10/145 104/11/150
f 60/6/137 104/11/150 105/10/137
f 59/6/148 60/6/140 103/10/148
f 104/11/151 103/10/148 60/6/140
f 105/10/140 104/11/151 60/6/140
f 62/6/157 107/11/198 106/10/157
f 107/11/161 62/6/157 53/6/162
f 107/11/198 53/6/152 108/10/152
f 106/10/160 107/11/163 62/6/160
f 53/6/155 62/6/160 107/11/163
f 108/10/155 53/6/155 107/11/164
f 110/10/136 105/10/137 109/11/138
f 105/10/137 110/10/136 54/6/136
f 105/10/137 54/6/136 60/6/137
f 109/11/139 105/10/140 110/10/141
f 54/6/141 110/10/141 105/10/140
f 60/6/140 54/6/141 105/10/140
f 101/10/143 106/10/157 111/11/199
f 106/10/157 101/10/144 61/6/144
f 106/10/157 61/6/143 62/6/157
f 111/11/200 106/10/160 101/10/146
f 61/6/146 101/10/146 106/10/160
f 62/6/160 61/6/146 106/10/160
f 53/6/152 112/11/201 108/10/152
f 112/11/153 53/6/152 54/6/136
f 112/11/201 54/6/136 110/10/136
f 108/10/155 112/11/156 53/6/202
f 54/6/141 53/6/155 112/11/156
f 110/10/141 54/6/141 112/11/203
f 3/1/1 2/1/1 1/1/1
f 2/1/1 3/1/1 4/1/1
f 4/1/1 3/1/1 5/1/1
f 4/1/1 5/1/1 6/1/1
f 6/1/1 5/1/1 7/1/1
f 6/1/1 7/1/1 8/1/1
f 9/2/2 1/1/3 2/1/4
f 1/1/3 9/2/2 10/2/5
f 11/2/6 1/1/7 10/2/8
f 1/1/7 11/2/9 3/1/10
f 12/2/11 2/1/4 4/1/12
f 2/1/4 12/2/11 9/2/13
f 13/2/14 4/1/15 6/1/16
f 4/1/15 13/2/14 12/2/17
f 7/1/18 14/2/19 8/1/20
f 14/2/19 7/1/18 15/2/21
f 11/2/22 5/1/23 3/1/10
f 5/1/23 11/2/22 16/2/24
f 8/1/25 13/2/26 6/1/16
f 13/2/27 8/1/25 14/2/28
f 7/1/18 16/2/29 15/2/30
f 16/2/29 7/1/18 5/1/31
f 14/2/32 18/3/33 17/3/34
f 18/3/35 14/2/32 15/2/36
f 16/2/37 18/3/38 15/2/39
f 18/3/38 16/2/40 19/3/41
f 21/3/42 9/2/43 20/3/44
f 9/2/43 21/3/42 10/2/45
f 22/3/46 12/2/47 13/2/48
f 12/2/47 22/3/49 23/3/50
f 21/3/51 11/2/52 10/2/53
f 11/2/52 21/3/54 24/3/55
f 13/2/56 17/3/57 22/3/58
f 17/3/59 13/2/56 14/2/60
f 20/3/61 12/2/62 23/3/63
f 12/2/64 20/3/61 9/2/65
f 24/3/66 16/2/67 11/2/68
f 16/2/67 24/3/69 19/3/70
f 27/4/71 26/4/71 25/4/71
f 26/4/71 27/4/71 28/4/71
f 26/4/71 28/4/71 29/4/71
f 29/4/71 28/4/71 30/4/71
f 29/4/71 30/4/71 31/4/71
f 31/4/71 30/4/71 32/4/71
f 35/5/1 34/5/1 33/5/1
f 34/5/1 35/5/1 36/5/1
f 34/5/1 36/5/1 37/5/1
f 37/5/1 36/5/1 38/5/1
f 37/5/1 38/5/1 39/5/1
f 39/5/1 38/5/1 40/5/1
f 27/4/72 33/5/73 34/5/72
f 33/5/74 27/4/72 25/4/75
f 29/4/76 38/5/77 36/5/76
f 38/5/77 29/4/76 31/4/77
f 40/5/78 31/4/77 32/4/79
f 31/4/77 40/5/78 38/5/77
f 28/4/80 34/5/72 37/5/80
f 34/5/72 28/4/80 27/4/81
f 26/4/82 36/5/83 35/5/82
f 36/5/84 26/4/82 29/4/85
f 30/4/86 37/5/80 39/5/87
f 37/5/88 30/4/86 28/4/89
f 26/4/82 33/5/90 25/4/91
f 33/5/91 26/4/82 35/5/82
f 40/5/92 30/4/86 39/5/86
f 30/4/86 40/5/93 32/4/92
f 43/6/94 42/7/95 41/7/94
f 42/7/95 43/6/94 44/6/95
f 47/6/96 46/7/97 45/7/96
f 46/7/98 47/6/96 48/6/97
f 50/6/99 45/7/96 49/7/99
f 45/7/96 50/6/99 47/6/96
f 48/6/98 41/7/94 46/7/98
f 41/7/94 48/6/98 43/6/94
f 52/7/100 44/6/95 51/6/100
f 44/6/95 52/7/101 42/7/95
f 52/7/101 50/6/99 49/7/99
f 50/6/99 52/7/101 51/6/101
f 41/7/1 45/7/1 46/7/1
f 45/7/1 41/7/1 42/7/1
f 45/7/1 42/7/1 49/7/1
f 49/7/1 42/7/1 52/7/1
f 55/6/102 54/8/103 53/8/104
f 54/8/103 55/6/102 56/6/105
f 59/8/106 58/6/107 57/6/108
f 58/6/109 59/8/106 60/8/110
f 63/6/111 62/8/112 61/8/113
f 62/8/112 63/6/114 64/6/115
f 64/6/116 53/8/104 62/8/112
f 53/8/104 64/6/117 55/6/118
f 64/6/119 56/6/120 55/6/121
f 56/6/122 64/6/115 58/6/123
f 58/6/123 64/6/119 63/6/124
f 58/6/123 63/6/124 57/6/125
f 59/8/126 63/6/111 61/8/113
f 63/6/111 59/8/106 57/6/108
f 54/8/1 62/8/1 53/8/1
f 62/8/1 54/8/1 60/8/1
f 62/8/1 60/8/1 61/8/1
f 61/8/1 60/8/1 59/8/1
f 56/6/105 60/8/110 54/8/103
f 60/8/110 56/6/105 58/6/127
f 67/6/128 66/9/129 65/9/128
f 66/9/129 67/6/128 68/6/129
f 70/6/130 65/9/128 69/9/130
f 65/9/128 70/6/130 67/6/128
f 68/6/129 71/9/131 66/9/129
f 71/9/131 68/6/129 72/6/131
f 72/6/132 73/9/133 71/9/132
f 73/9/133 72/6/132 74/6/133
f 71/9/1 65/9/1 66/9/1
f 65/9/1 71/9/1 69/9/1
f 69/9/1 71/9/1 73/9/1
f 69/9/1 73/9/1 75/9/1
f 76/6/134 69/9/135 75/9/134
f 69/9/135 76/6/134 70/6/135
f 73/9/133 76/6/134 75/9/134
f 76/6/134 73/9/133 74/6/133
f 79/10/136 78/10/137 77/11/138
f 78/10/137 79/10/136 41/6/136
f 78/10/137 41/6/136 42/6/137
f 77/11/139 78/10/140 79/10/141
f 41/6/141 79/10/141 78/10/140
f 42/6/140 41/6/141 78/10/140
f 81/11/142 49/6/143 80/10/143
f 49/6/144 81/11/142 52/6/145
f 52/6/145 81/11/142 82/10/145
f 80/10/146 49/6/146 81/11/147
f 52/6/148 81/11/147 49/6/146
f 82/10/148 81/11/147 52/6/149
f 82/10/145 42/6/137 52/6/145
f 42/6/137 82/10/145 83/11/150
f 42/6/137 83/11/150 78/10/137
f 52/6/148 42/6/140 82/10/148
f 83/11/151 82/10/148 42/6/140
f 78/10/140 83/11/151 42/6/140
f 46/6/152 85/11/153 84/10/152
f 85/11/153 46/6/152 41/6/154
f 85/11/153 41/6/136 79/10/136
f 84/10/155 85/11/156 46/6/155
f 41/6/141 46/6/155 85/11/156
f 79/10/141 41/6/141 85/11/156
f 80/10/143 87/10/157 86/11/158
f 87/10/157 80/10/143 49/6/143
f 87/10/157 49/6/143 45/6/157
f 86/11/159 87/10/160 80/10/146
f 49/6/146 80/10/146 87/10/160
f 45/6/160 49/6/146 87/10/160
f 45/6/157 88/11/161 87/10/157
f 88/11/161 45/6/157 46/6/162
f 88/11/161 46/6/152 84/10/152
f 87/10/160 88/11/163 45/6/160
f 46/6/155 45/6/160 88/11/163
f 84/10/155 46/6/155 88/11/164
f 91/10/165 90/10/166 89/11/167
f 90/10/166 91/10/165 75/6/165
f 90/10/166 75/6/165 69/6/166
f 89/11/168 90/10/169 91/10/170
f 75/6/170 91/10/170 90/10/169
f 69/6/169 75/6/170 90/10/169
f 65/6/171 93/11/172 92/10/171
f 93/11/172 65/6/173 66/6/174
f 93/11/172 66/6/175 94/10/175
f 92/10/176 93/11/177 65/6/176
f 66/6/178 65/6/179 93/11/177
f 94/10/178 66/6/178 93/11/177
f 97/10/180 96/10/181 95/11/182
f 96/10/181 97/10/180 71/6/180
f 96/10/181 71/6/180 73/6/181
f 95/11/183 96/10/184 97/10/185
f 71/6/185 97/10/185 96/10/184
f 73/6/184 71/6/185 96/10/184
f 98/11/186 75/6/165 91/10/165
f 75/6/165 98/11/187 73/6/181
f 73/6/181 98/11/187 96/10/181
f 91/10/170 75/6/170 98/11/188
f 73/6/184 98/11/188 75/6/170
f 96/10/184 98/11/188 73/6/184
f 94/10/175 97/10/189 99/11/190
f 97/10/180 94/10/175 66/6/175
f 97/10/180 66/6/175 71/6/180
f 99/11/191 97/10/185 94/10/178
f 66/6/178 94/10/178 97/10/185
f 71/6/185 66/6/178 97/10/185
f 90/10/166 92/10/173 100/11/192
f 92/10/173 90/10/166 69/6/166
f 92/10/173 69/6/166 65/6/173
f 100/11/193 92/10/179 90/10/169
f 69/6/169 90/10/169 92/10/179
f 65/6/179 69/6/169 92/10/179
f 102/11/194 61/6/143 101/10/143
f 61/6/144 102/11/142 59/6/145
f 59/6/145 102/11/195 103/10/145
f 101/10/146 61/6/146 102/11/196
f 59/6/148 102/11/147 61/6/146
f 103/10/148 102/11/197 59/6/148
f 103/10/145 60/6/137 59/6/145
f 60/6/137 103/10/145 104/11/150
f 60/6/137 104/11/150 105/10/137
f 59/6/148 60/6/140 103/10/148
f 104/11/151 103/10/148 60/6/140
f 105/10/140 104/11/151 60/6/140
f 62/6/157 107/11/198 106/10/157
f 107/11/161 62/6/157 53/6/162
f 107/11/198 53/6/152 108/10/152
f 106/10/160 107/11/163 62/6/160
f 53/6/155 62/6/160 107/11/163
f 108/10/155 53/6/155 107/11/164
f 110/10/136 105/10/137 109/11/138
f 105/10/137 110/10/136 54/6/136
f 105/10/137 54/6/136 60/6/137
f 109/11/139 105/10/140 110/10/141
f 54/6/141 110/10/141 105/10/140
f 60/6/140 54/6/141 105/10/140
f 101/10/143 106/10/157 111/11/199
f 106/10/157 101/10/144 61/6/144
f 106/10/157 61/6/143 62/6/157
f 111/11/200 106/10/160 101/10/146
f 61/6/146 101/10/146 106/10/160
f 62/6/160 61/6/146 106/10/160
f 53/6/152 112/11/201 108/10/152
f 112/11/153 53/6/152 54/6/136
f 112/11/201 54/6/136 110/10/136
f 108/10/155 112/11/156 53/6/202
f 54/6/141 53/6/155 112/11/156
f 110/10/141 54/6/141 112/11/203
