# Blender 4.1.1
# www.blender.org
mtllib tree.009.mtl
o tree.009
v -17.075199 -0.282319 -6.380471
v -17.075199 -0.282319 -6.562029
v -17.165979 -0.282319 -6.289692
v -17.165979 -0.282319 -6.652808
v -17.347536 -0.282319 -6.289692
v -17.347536 -0.282319 -6.652808
v -17.438316 -0.282319 -6.380471
v -17.438316 -0.282319 -6.562029
v -17.165979 0.046402 -6.516639
v -17.165979 0.046402 -6.425861
v -17.211369 0.046402 -6.380471
v -17.211369 0.046402 -6.562029
v -17.302147 0.046402 -6.562029
v -17.347536 0.046402 -6.516639
v -17.347536 0.046402 -6.425861
v -17.302147 0.046402 -6.380471
v -17.370232 0.539521 -6.527987
v -17.370232 0.539521 -6.414513
v -17.313494 0.539521 -6.357776
v -17.143284 0.539521 -6.527987
v -17.143284 0.539521 -6.414513
v -17.313494 0.539521 -6.584723
v -17.200020 0.539521 -6.584723
v -17.200020 0.539521 -6.357776
v -17.106709 0.163768 -6.515623
v -17.133968 0.163768 -6.449810
v -17.133968 0.163768 -6.581435
v -17.199781 0.163768 -6.608696
v -17.199781 0.163768 -6.422550
v -17.265594 0.163768 -6.581435
v -17.265594 0.163768 -6.449810
v -17.292856 0.163768 -6.515623
v -17.053991 0.044485 -6.515623
v -17.096693 0.044485 -6.618712
v -17.096693 0.044485 -6.412533
v -17.199781 0.044485 -6.369832
v -17.199781 0.044485 -6.661413
v -17.302872 0.044485 -6.412533
v -17.302872 0.044485 -6.618712
v -17.345573 0.044485 -6.515623
v -17.039488 0.539521 -6.079683
v -17.491631 0.539521 -6.079683
v -17.132177 1.083027 -6.240224
v -17.398943 1.083027 -6.240224
v -17.039488 0.539521 -6.862817
v -16.813417 0.539521 -6.471250
v -17.132177 1.083027 -6.702276
v -16.998793 1.083027 -6.471250
v -17.491631 0.539521 -6.862817
v -17.398943 1.083027 -6.702276
v -17.532326 1.083027 -6.471250
v -17.717703 0.539521 -6.471250
v -17.004852 1.666943 -6.471250
v -17.135206 1.666943 -6.245471
v -17.205637 2.279410 -6.471250
v -17.235598 2.279410 -6.419355
v -17.325481 2.279410 -6.471250
v -17.295521 2.279410 -6.419355
v -17.526264 1.666943 -6.471250
v -17.395912 1.666943 -6.245471
v -17.395912 1.666943 -6.697028
v -17.135206 1.666943 -6.697028
v -17.295521 2.279410 -6.523144
v -17.235598 2.279410 -6.523144
v -16.947212 1.083027 -6.655048
v -16.947212 1.083027 -6.287453
v -17.119690 1.666943 -6.555468
v -17.119690 1.666943 -6.387032
v -17.265558 1.083027 -6.838845
v -17.265558 1.666943 -6.639687
v -17.265558 1.083027 -6.103654
v -17.265558 1.666943 -6.302814
v -17.583906 1.083027 -6.287453
v -17.411430 1.666943 -6.387032
v -17.583906 1.083027 -6.655048
v -17.411430 1.666943 -6.555468
v -17.265558 0.369968 -5.993538
v -17.516499 0.454744 -6.036611
v -17.014620 0.454744 -6.036611
v -17.516499 0.454744 -6.905889
v -17.679270 0.369968 -6.710106
v -17.767437 0.454744 -6.471250
v -17.679270 0.369968 -6.232394
v -16.763681 0.454744 -6.471250
v -16.851849 0.369968 -6.232394
v -17.265558 0.369968 -6.948961
v -17.014620 0.454744 -6.905889
v -16.851849 0.369968 -6.710106
v -17.459751 0.945179 -6.807600
v -17.265558 1.014103 -6.879281
v -17.618925 1.014103 -6.675265
v -16.912193 1.014103 -6.675265
v -16.877176 0.945179 -6.471250
v -16.912193 1.014103 -6.267234
v -17.459751 0.945179 -6.134900
v -17.618925 1.014103 -6.267234
v -17.265558 1.014103 -6.063219
v -17.653944 0.945179 -6.471250
v -17.071367 0.945179 -6.134900
v -17.071367 0.945179 -6.807600
v -17.410252 1.618061 -6.721864
v -17.504107 1.569178 -6.608974
v -17.554943 1.618061 -6.471250
v -17.504107 1.569178 -6.333525
v -17.410252 1.618061 -6.220636
v -17.120867 1.618061 -6.721864
v -17.027014 1.569178 -6.608974
v -16.976175 1.618061 -6.471250
v -17.265558 1.569178 -6.195801
v -17.120867 1.618061 -6.220636
v -17.265558 1.569178 -6.746699
v -17.027014 1.569178 -6.333525
vn -0.0000 -1.0000 -0.0000
vn 0.8851 0.2942 -0.3607
vn 0.8812 0.2944 0.3698
vn 0.8812 0.2944 -0.3698
vn 0.8851 0.2942 0.3607
vn 0.3608 0.2943 0.8850
vn 0.3607 0.2942 0.8850
vn 0.3698 0.2944 0.8812
vn 0.3607 0.2942 -0.8850
vn 0.3698 0.2944 -0.8812
vn 0.3608 0.2942 -0.8850
vn -0.3607 0.2942 -0.8851
vn 0.3698 0.2944 -0.8813
vn -0.3698 0.2944 -0.8812
vn 0.3607 0.2942 -0.8851
vn -0.8813 0.2944 0.3698
vn -0.8851 0.2942 -0.3607
vn -0.8812 0.2944 -0.3698
vn -0.8851 0.2942 0.3607
vn 0.3607 0.2942 0.8851
vn -0.3698 0.2944 0.8813
vn -0.3698 0.2944 0.8812
vn -0.3607 0.2942 0.8851
vn -0.3607 0.2942 -0.8850
vn -0.3608 0.2943 -0.8850
vn -0.8812 0.2945 0.3698
vn -0.3608 0.2943 0.8850
vn -0.3607 0.2942 0.8850
vn -0.8812 0.2944 0.3698
vn -0.9230 -0.0513 -0.3813
vn -0.9223 -0.0512 0.3829
vn -0.9223 -0.0513 -0.3829
vn -0.9223 -0.0513 0.3829
vn -0.9230 -0.0513 0.3813
vn -0.3814 -0.0512 0.9230
vn -0.9223 -0.0513 0.3830
vn -0.9230 -0.0512 0.3813
vn -0.3813 -0.0513 0.9230
vn -0.3830 -0.0512 0.9223
vn 0.9223 -0.0512 0.3829
vn 0.9230 -0.0513 -0.3813
vn 0.9223 -0.0513 -0.3829
vn 0.9230 -0.0513 0.3813
vn -0.3829 -0.0513 -0.9223
vn 0.3813 -0.0513 -0.9230
vn -0.3813 -0.0513 -0.9230
vn -0.3829 -0.0512 -0.9223
vn 0.3829 -0.0513 -0.9223
vn 0.9223 -0.0513 0.3830
vn 0.3814 -0.0513 0.9230
vn 0.3813 -0.0513 0.9230
vn 0.9223 -0.0512 0.3830
vn 0.3830 -0.0513 0.9223
vn -0.9223 -0.0512 -0.3830
vn -0.3830 -0.0513 -0.9223
vn -0.9223 -0.0513 -0.3830
vn -0.3814 -0.0513 -0.9230
vn 0.9223 -0.0513 -0.3830
vn 0.3830 -0.0512 -0.9223
vn 0.3814 -0.0512 -0.9230
vn 0.9230 -0.0512 -0.3813
vn 0.3829 -0.0513 0.9223
vn 0.3829 -0.0512 0.9223
vn -0.3829 -0.0513 0.9223
vn -0.0000 1.0000 -0.0000
vn 0.6468 0.4042 -0.6467
vn 0.9147 0.4042 -0.0000
vn 0.9147 0.4042 -0.0001
vn 0.6468 0.4042 -0.6468
vn -0.0000 0.4042 0.9147
vn -0.6467 0.4042 0.6468
vn -0.6467 0.4043 0.6468
vn -0.9147 0.4042 -0.0000
vn -0.6468 0.4042 0.6467
vn -0.9146 0.4042 -0.0000
vn -0.6468 0.4042 0.6468
vn -0.0000 0.4042 -0.9147
vn 0.6467 0.4042 -0.6468
vn 0.6468 0.4042 0.6468
vn 0.6467 0.4042 0.6468
vn -0.0000 0.4043 0.9146
vn -0.6468 0.4042 -0.6468
vn -0.6467 0.4042 -0.6468
vn -0.0000 0.4042 -0.9146
vn 0.9146 0.4043 0.0001
vn 0.9147 0.4042 0.0001
vn 0.6468 0.4042 0.6467
vn -0.9147 0.4042 -0.0001
vn -0.6468 0.4042 -0.6467
vn -0.9146 0.4043 -0.0000
vn 0.4732 0.3228 0.8197
vn -0.4732 0.3228 0.8197
vn 0.4732 0.3228 -0.8197
vn 0.9465 0.3228 -0.0000
vn 0.4732 0.3228 -0.8196
vn -0.4732 0.3228 -0.8197
vn -0.9465 0.3228 -0.0000
vn 0.6877 0.7260 -0.0000
vn 0.4751 0.3115 0.8229
vn 0.9503 0.3115 -0.0000
vn 0.4752 0.3115 0.8229
vn 0.6877 0.7260 -0.0001
vn 0.3439 0.7260 0.5956
vn -0.9502 0.3115 -0.0000
vn -0.3439 0.7260 0.5956
vn -0.6877 0.7260 -0.0001
vn -0.3438 0.7260 0.5956
vn -0.4751 0.3115 0.8229
vn -0.3439 0.7260 -0.5956
vn 0.4751 0.3115 -0.8229
vn -0.4751 0.3115 -0.8229
vn 0.3439 0.7260 -0.5956
vn 0.3438 0.7260 -0.5956
vn 0.9502 0.3115 -0.0000
vn 0.3439 0.7259 -0.5956
vn 0.3439 0.7259 0.5956
vn 0.6877 0.7259 -0.0000
vn -0.3439 0.7259 0.5956
vn -0.3439 0.7259 -0.5956
vn -0.6877 0.7259 -0.0000
vn -0.3438 0.7260 -0.5956
vn -0.3439 0.7260 -0.5955
vn -0.6877 0.7260 -0.0000
vn 0.8197 0.3228 -0.4732
vn 0.8197 0.3228 0.4732
vn -0.0000 0.3228 -0.9465
vn 0.8196 0.3228 -0.4732
vn -0.0000 0.3228 0.9465
vn 0.8197 0.3228 0.4733
vn -0.8197 0.3228 0.4732
vn -0.8196 0.3228 0.4733
vn -0.8197 0.3228 0.4733
vn -0.8196 0.3228 -0.4732
vn -0.8197 0.3228 -0.4732
vn 0.4313 0.5060 0.7470
vn -0.4313 0.5060 0.7470
vn -0.0000 0.4530 0.8915
vn -0.0000 -0.4530 -0.8915
vn 0.4313 -0.5060 -0.7470
vn -0.4313 -0.5060 -0.7470
vn -0.7721 0.4530 -0.4458
vn -0.4313 0.5060 -0.7469
vn -0.4313 0.5060 -0.7470
vn -0.8625 0.5060 -0.0000
vn -0.7721 0.4529 -0.4458
vn 0.4313 -0.5060 0.7470
vn 0.7721 -0.4530 0.4458
vn 0.8625 -0.5060 -0.0000
vn 0.7721 -0.4529 0.4458
vn -0.8626 0.5060 -0.0000
vn -0.7721 0.4530 0.4458
vn 0.7721 -0.4530 -0.4458
vn 0.8625 0.5060 -0.0000
vn 0.7721 0.4530 0.4458
vn 0.4313 0.5061 0.7469
vn 0.7721 0.4529 0.4458
vn 0.4312 0.5060 0.7470
vn -0.8625 -0.5060 -0.0000
vn -0.7721 -0.4530 -0.4458
vn -0.4312 -0.5060 -0.7470
vn -0.7721 -0.4529 -0.4458
vn 0.4313 0.5060 -0.7470
vn -0.0000 0.4530 -0.8915
vn -0.0000 -0.4530 0.8915
vn -0.4313 -0.5060 0.7470
vn 0.4312 0.5060 -0.7470
vn 0.7721 0.4530 -0.4458
vn -0.4312 -0.5060 0.7470
vn -0.7721 -0.4530 0.4458
vn -0.7470 0.5060 -0.4313
vn -0.0000 0.5060 -0.8625
vn -0.4458 0.4530 -0.7721
vn 0.4458 -0.4530 0.7721
vn -0.0000 -0.5060 0.8625
vn 0.7470 -0.5060 0.4313
vn 0.7470 0.5060 -0.4313
vn 0.8915 0.4530 -0.0000
vn 0.7470 0.5060 0.4313
vn 0.7469 0.5060 0.4313
vn -0.7470 -0.5060 0.4313
vn -0.8915 -0.4530 -0.0000
vn -0.7470 -0.5060 -0.4313
vn -0.0000 0.5060 0.8625
vn -0.7470 0.5060 0.4313
vn -0.4458 0.4530 0.7721
vn 0.4458 -0.4530 -0.7721
vn 0.7470 -0.5060 -0.4313
vn -0.0000 -0.5060 -0.8625
vn -0.8915 0.4530 -0.0000
vn -0.7469 0.5061 -0.4313
vn 0.8915 -0.4530 -0.0000
vn 0.4458 0.4530 0.7721
vn 0.7470 0.5060 0.4312
vn -0.4458 -0.4530 -0.7721
vn -0.7470 -0.5060 -0.4312
vn 0.4458 0.4529 -0.7721
vn -0.4458 -0.4529 0.7721
vn -0.7721 0.4530 -0.4457
vn -0.4313 0.5061 -0.7469
vn -0.4312 0.5061 -0.7470
vn 0.4313 -0.5060 0.7469
vn 0.7721 -0.4530 0.4457
vn 0.8625 -0.5061 -0.0000
vn -0.4313 0.5060 0.7469
vn -0.7721 0.4530 0.4457
vn 0.4312 -0.5061 -0.7470
vn 0.7721 -0.4530 -0.4457
vn 0.4313 -0.5060 -0.7469
vn 0.7721 0.4529 -0.4458
vn -0.7721 -0.4529 0.4458
vt 0.593750 0.025000
vt 0.593750 0.104996
vt 0.593750 0.225000
vt 0.093750 0.475000
vt 0.093750 0.275000
vt 0.093750 0.425000
vt 0.093750 0.348778
vt 0.093750 0.338765
vt 0.093750 0.344099
vt 0.093750 0.375000
vt 0.093750 0.325000
s 0
usemtl colormap.002
f 3/1/1 2/1/1 1/1/1
f 2/1/1 3/1/1 4/1/1
f 4/1/1 3/1/1 5/1/1
f 4/1/1 5/1/1 6/1/1
f 6/1/1 5/1/1 7/1/1
f 6/1/1 7/1/1 8/1/1
f 9/2/2 1/1/3 2/1/4
f 1/1/3 9/2/2 10/2/5
f 11/2/6 1/1/3 10/2/5
f 1/1/3 11/2/7 3/1/8
f 12/2/9 2/1/4 4/1/10
f 2/1/4 12/2/11 9/2/2
f 13/2/12 4/1/13 6/1/14
f 4/1/10 13/2/12 12/2/15
f 7/1/16 14/2/17 8/1/18
f 14/2/17 7/1/16 15/2/19
f 11/2/20 5/1/21 3/1/8
f 5/1/22 11/2/20 16/2/23
f 8/1/18 13/2/24 6/1/14
f 13/2/25 8/1/18 14/2/17
f 7/1/26 16/2/27 15/2/19
f 16/2/28 7/1/29 5/1/22
f 14/2/30 18/3/31 17/3/32
f 18/3/33 14/2/30 15/2/34
f 16/2/35 18/3/36 15/2/37
f 18/3/36 16/2/38 19/3/39
f 21/3/40 9/2/41 20/3/42
f 9/2/41 21/3/40 10/2/43
f 22/3/44 12/2/45 13/2/46
f 12/2/45 22/3/47 23/3/48
f 21/3/49 11/2/50 10/2/43
f 11/2/51 21/3/52 24/3/53
f 13/2/46 17/3/54 22/3/55
f 17/3/56 13/2/57 14/2/30
f 20/3/58 12/2/45 23/3/59
f 12/2/60 20/3/58 9/2/61
f 24/3/62 16/2/38 11/2/51
f 16/2/38 24/3/63 19/3/64
f 27/4/65 26/4/65 25/4/65
f 26/4/65 27/4/65 28/4/65
f 26/4/65 28/4/65 29/4/65
f 29/4/65 28/4/65 30/4/65
f 29/4/65 30/4/65 31/4/65
f 31/4/65 30/4/65 32/4/65
f 35/5/1 34/5/1 33/5/1
f 34/5/1 35/5/1 36/5/1
f 34/5/1 36/5/1 37/5/1
f 37/5/1 36/5/1 38/5/1
f 37/5/1 38/5/1 39/5/1
f 39/5/1 38/5/1 40/5/1
f 27/4/66 33/5/67 34/5/66
f 33/5/68 27/4/69 25/4/68
f 29/4/70 38/5/71 36/5/70
f 38/5/71 29/4/70 31/4/72
f 40/5/73 31/4/74 32/4/75
f 31/4/76 40/5/73 38/5/74
f 28/4/77 34/5/78 37/5/77
f 34/5/78 28/4/77 27/4/78
f 26/4/79 36/5/70 35/5/79
f 36/5/70 26/4/80 29/4/81
f 30/4/82 37/5/77 39/5/83
f 37/5/77 30/4/83 28/4/84
f 26/4/79 33/5/85 25/4/86
f 33/5/67 26/4/87 35/5/87
f 40/5/88 30/4/82 39/5/82
f 30/4/89 40/5/90 32/4/73
f 43/6/91 42/7/92 41/7/91
f 42/7/92 43/6/91 44/6/92
f 47/6/93 46/7/94 45/7/95
f 46/7/94 47/6/93 48/6/94
f 50/6/96 45/7/93 49/7/96
f 45/7/93 50/6/96 47/6/93
f 48/6/94 41/7/91 46/7/94
f 41/7/91 48/6/94 43/6/91
f 52/7/97 44/6/92 51/6/97
f 44/6/92 52/7/97 42/7/92
f 52/7/97 50/6/96 49/7/96
f 50/6/96 52/7/97 51/6/97
f 41/7/1 45/7/1 46/7/1
f 45/7/1 41/7/1 42/7/1
f 45/7/1 42/7/1 49/7/1
f 49/7/1 42/7/1 52/7/1
f 55/6/98 54/8/99 53/8/100
f 54/8/101 55/6/102 56/6/103
f 59/8/104 58/6/105 57/6/106
f 58/6/107 59/8/104 60/8/108
f 63/6/109 62/8/110 61/8/111
f 62/8/110 63/6/109 64/6/112
f 64/6/113 53/8/114 62/8/110
f 53/8/114 64/6/113 55/6/98
f 64/6/115 56/6/116 55/6/117
f 56/6/116 64/6/115 58/6/118
f 58/6/118 64/6/115 63/6/119
f 58/6/118 63/6/119 57/6/120
f 59/8/104 63/6/121 61/8/111
f 63/6/122 59/8/104 57/6/123
f 54/8/1 62/8/1 53/8/1
f 62/8/1 54/8/1 60/8/1
f 62/8/1 60/8/1 61/8/1
f 61/8/1 60/8/1 59/8/1
f 56/6/103 60/8/108 54/8/99
f 60/8/108 56/6/103 58/6/105
f 67/6/124 66/9/125 65/9/124
f 66/9/125 67/6/124 68/6/125
f 70/6/126 65/9/127 69/9/126
f 65/9/124 70/6/126 67/6/124
f 68/6/125 71/9/128 66/9/125
f 71/9/128 68/6/129 72/6/128
f 72/6/128 73/9/130 71/9/128
f 73/9/131 72/6/128 74/6/132
f 71/9/1 65/9/1 66/9/1
f 65/9/1 71/9/1 69/9/1
f 69/9/1 71/9/1 73/9/1
f 69/9/1 73/9/1 75/9/1
f 76/6/133 69/9/126 75/9/133
f 69/9/126 76/6/134 70/6/126
f 73/9/130 76/6/134 75/9/134
f 76/6/134 73/9/130 74/6/130
f 79/10/135 78/10/136 77/11/137
f 78/10/136 79/10/135 41/6/135
f 78/10/136 41/6/135 42/6/136
f 77/11/138 78/10/139 79/10/140
f 41/6/140 79/10/140 78/10/139
f 42/6/139 41/6/140 78/10/139
f 81/11/141 49/6/142 80/10/143
f 49/6/143 81/11/141 52/6/144
f 52/6/144 81/11/145 82/10/144
f 80/10/146 49/6/146 81/11/147
f 52/6/148 81/11/147 49/6/146
f 82/10/148 81/11/149 52/6/148
f 82/10/150 42/6/136 52/6/144
f 42/6/136 82/10/144 83/11/151
f 42/6/136 83/11/151 78/10/136
f 52/6/148 42/6/139 82/10/148
f 83/11/152 82/10/148 42/6/139
f 78/10/139 83/11/152 42/6/139
f 46/6/153 85/11/154 84/10/153
f 85/11/154 46/6/153 41/6/155
f 85/11/156 41/6/157 79/10/157
f 84/10/158 85/11/159 46/6/158
f 41/6/140 46/6/158 85/11/159
f 79/10/140 41/6/160 85/11/161
f 80/10/143 87/10/162 86/11/163
f 87/10/162 80/10/143 49/6/143
f 87/10/162 49/6/143 45/6/162
f 86/11/164 87/10/165 80/10/146
f 49/6/146 80/10/146 87/10/165
f 45/6/165 49/6/146 87/10/165
f 45/6/166 88/11/167 87/10/162
f 88/11/167 45/6/162 46/6/153
f 88/11/167 46/6/153 84/10/153
f 87/10/168 88/11/169 45/6/168
f 46/6/158 45/6/165 88/11/169
f 84/10/158 46/6/158 88/11/169
f 91/10/170 90/10/171 89/11/172
f 90/10/171 91/10/170 75/6/170
f 90/10/171 75/6/170 69/6/171
f 89/11/173 90/10/174 91/10/175
f 75/6/175 91/10/175 90/10/174
f 69/6/174 75/6/175 90/10/174
f 65/6/176 93/11/177 92/10/176
f 93/11/177 65/6/176 66/6/178
f 93/11/177 66/6/179 94/10/178
f 92/10/180 93/11/181 65/6/180
f 66/6/182 65/6/180 93/11/181
f 94/10/182 66/6/182 93/11/181
f 97/10/183 96/10/184 95/11/185
f 96/10/184 97/10/183 71/6/183
f 96/10/184 71/6/183 73/6/184
f 95/11/186 96/10/187 97/10/188
f 71/6/188 97/10/188 96/10/187
f 73/6/187 71/6/188 96/10/187
f 98/11/189 75/6/170 91/10/170
f 75/6/190 98/11/189 73/6/184
f 73/6/184 98/11/189 96/10/184
f 91/10/175 75/6/175 98/11/191
f 73/6/187 98/11/191 75/6/175
f 96/10/187 98/11/191 73/6/187
f 94/10/178 97/10/183 99/11/192
f 97/10/183 94/10/193 66/6/193
f 97/10/183 66/6/178 71/6/183
f 99/11/194 97/10/188 94/10/182
f 66/6/195 94/10/195 97/10/188
f 71/6/188 66/6/182 97/10/188
f 90/10/171 92/10/176 100/11/196
f 92/10/176 90/10/171 69/6/171
f 92/10/176 69/6/171 65/6/176
f 100/11/197 92/10/180 90/10/174
f 69/6/174 90/10/174 92/10/180
f 65/6/180 69/6/174 92/10/180
f 102/11/198 61/6/199 101/10/143
f 61/6/200 102/11/141 59/6/144
f 59/6/144 102/11/141 103/10/144
f 101/10/146 61/6/201 102/11/202
f 59/6/148 102/11/147 61/6/146
f 103/10/148 102/11/147 59/6/203
f 103/10/144 60/6/136 59/6/144
f 60/6/136 103/10/144 104/11/151
f 60/6/204 104/11/205 105/10/136
f 59/6/148 60/6/206 103/10/148
f 104/11/152 103/10/148 60/6/139
f 105/10/139 104/11/207 60/6/208
f 62/6/162 107/11/167 106/10/162
f 107/11/167 62/6/162 53/6/153
f 107/11/209 53/6/153 108/10/153
f 106/10/165 107/11/169 62/6/165
f 53/6/158 62/6/165 107/11/169
f 108/10/158 53/6/158 107/11/210
f 110/10/135 105/10/136 109/11/137
f 105/10/136 110/10/135 54/6/135
f 105/10/136 54/6/135 60/6/136
f 109/11/138 105/10/139 110/10/140
f 54/6/140 110/10/140 105/10/139
f 60/6/139 54/6/140 105/10/139
f 101/10/143 106/10/162 111/11/163
f 106/10/162 101/10/143 61/6/143
f 106/10/162 61/6/143 62/6/162
f 111/11/164 106/10/165 101/10/146
f 61/6/146 101/10/146 106/10/165
f 62/6/165 61/6/146 106/10/165
f 53/6/153 112/11/156 108/10/153
f 112/11/154 53/6/153 54/6/135
f 112/11/154 54/6/135 110/10/135
f 108/10/158 112/11/161 53/6/158
f 54/6/140 53/6/158 112/11/159
f 110/10/140 54/6/140 112/11/159
f 3/1/1 2/1/1 1/1/1
f 2/1/1 3/1/1 4/1/1
f 4/1/1 3/1/1 5/1/1
f 4/1/1 5/1/1 6/1/1
f 6/1/1 5/1/1 7/1/1
f 6/1/1 7/1/1 8/1/1
f 9/2/2 1/1/3 2/1/4
f 1/1/3 9/2/2 10/2/5
f 11/2/6 1/1/3 10/2/5
f 1/1/3 11/2/7 3/1/8
f 12/2/9 2/1/4 4/1/10
f 2/1/4 12/2/11 9/2/2
f 13/2/12 4/1/13 6/1/14
f 4/1/10 13/2/12 12/2/15
f 7/1/16 14/2/17 8/1/18
f 14/2/17 7/1/16 15/2/19
f 11/2/20 5/1/21 3/1/8
f 5/1/22 11/2/20 16/2/23
f 8/1/18 13/2/24 6/1/14
f 13/2/25 8/1/18 14/2/17
f 7/1/26 16/2/27 15/2/19
f 16/2/28 7/1/29 5/1/22
f 14/2/30 18/3/31 17/3/32
f 18/3/33 14/2/30 15/2/34
f 16/2/35 18/3/36 15/2/37
f 18/3/36 16/2/38 19/3/39
f 21/3/40 9/2/41 20/3/42
f 9/2/41 21/3/40 10/2/43
f 22/3/44 12/2/45 13/2/46
f 12/2/45 22/3/47 23/3/48
f 21/3/49 11/2/50 10/2/43
f 11/2/51 21/3/52 24/3/53
f 13/2/46 17/3/54 22/3/55
f 17/3/56 13/2/57 14/2/30
f 20/3/58 12/2/45 23/3/59
f 12/2/60 20/3/58 9/2/61
f 24/3/62 16/2/38 11/2/51
f 16/2/38 24/3/63 19/3/64
f 27/4/65 26/4/65 25/4/65
f 26/4/65 27/4/65 28/4/65
f 26/4/65 28/4/65 29/4/65
f 29/4/65 28/4/65 30/4/65
f 29/4/65 30/4/65 31/4/65
f 31/4/65 30/4/65 32/4/65
f 35/5/1 34/5/1 33/5/1
f 34/5/1 35/5/1 36/5/1
f 34/5/1 36/5/1 37/5/1
f 37/5/1 36/5/1 38/5/1
f 37/5/1 38/5/1 39/5/1
f 39/5/1 38/5/1 40/5/1
f 27/4/66 33/5/67 34/5/66
f 33/5/68 27/4/69 25/4/68
f 29/4/70 38/5/71 36/5/70
f 38/5/71 29/4/70 31/4/72
f 40/5/73 31/4/74 32/4/75
f 31/4/76 40/5/73 38/5/74
f 28/4/77 34/5/78 37/5/77
f 34/5/78 28/4/77 27/4/78
f 26/4/79 36/5/70 35/5/79
f 36/5/70 26/4/80 29/4/81
f 30/4/82 37/5/77 39/5/83
f 37/5/77 30/4/83 28/4/84
f 26/4/79 33/5/85 25/4/86
f 33/5/67 26/4/87 35/5/87
f 40/5/88 30/4/82 39/5/82
f 30/4/89 40/5/90 32/4/73
f 43/6/91 42/7/92 41/7/91
f 42/7/92 43/6/91 44/6/92
f 47/6/93 46/7/94 45/7/95
f 46/7/94 47/6/93 48/6/94
f 50/6/96 45/7/93 49/7/96
f 45/7/93 50/6/96 47/6/93
f 48/6/94 41/7/91 46/7/94
f 41/7/91 48/6/94 43/6/91
f 52/7/97 44/6/92 51/6/97
f 44/6/92 52/7/97 42/7/92
f 52/7/97 50/6/96 49/7/96
f 50/6/96 52/7/97 51/6/97
f 41/7/1 45/7/1 46/7/1
f 45/7/1 41/7/1 42/7/1
f 45/7/1 42/7/1 49/7/1
f 49/7/1 42/7/1 52/7/1
f 55/6/98 54/8/99 53/8/100
f 54/8/101 55/6/102 56/6/103
f 59/8/104 58/6/105 57/6/106
f 58/6/107 59/8/104 60/8/108
f 63/6/109 62/8/110 61/8/111
f 62/8/110 63/6/109 64/6/112
f 64/6/113 53/8/114 62/8/110
f 53/8/114 64/6/113 55/6/98
f 64/6/115 56/6/116 55/6/117
f 56/6/116 64/6/115 58/6/118
f 58/6/118 64/6/115 63/6/119
f 58/6/118 63/6/119 57/6/120
f 59/8/104 63/6/121 61/8/111
f 63/6/122 59/8/104 57/6/123
f 54/8/1 62/8/1 53/8/1
f 62/8/1 54/8/1 60/8/1
f 62/8/1 60/8/1 61/8/1
f 61/8/1 60/8/1 59/8/1
f 56/6/103 60/8/108 54/8/99
f 60/8/108 56/6/103 58/6/105
f 67/6/124 66/9/125 65/9/124
f 66/9/125 67/6/124 68/6/125
f 70/6/126 65/9/127 69/9/126
f 65/9/124 70/6/126 67/6/124
f 68/6/125 71/9/128 66/9/125
f 71/9/128 68/6/129 72/6/128
f 72/6/128 73/9/130 71/9/128
f 73/9/131 72/6/128 74/6/132
f 71/9/1 65/9/1 66/9/1
f 65/9/1 71/9/1 69/9/1
f 69/9/1 71/9/1 73/9/1
f 69/9/1 73/9/1 75/9/1
f 76/6/133 69/9/126 75/9/133
f 69/9/126 76/6/134 70/6/126
f 73/9/130 76/6/134 75/9/134
f 76/6/134 73/9/130 74/6/130
f 79/10/135 78/10/136 77/11/137
f 78/10/136 79/10/135 41/6/135
f 78/10/136 41/6/135 42/6/136
f 77/11/138 78/10/139 79/10/140
f 41/6/140 79/10/140 78/10/139
f 42/6/139 41/6/140 78/10/139
f 81/11/141 49/6/142 80/10/143
f 49/6/143 81/11/141 52/6/144
f 52/6/144 81/11/145 82/10/144
f 80/10/146 49/6/146 81/11/147
f 52/6/148 81/11/147 49/6/146
f 82/10/148 81/11/149 52/6/148
f 82/10/150 42/6/136 52/6/144
f 42/6/136 82/10/144 83/11/151
f 42/6/136 83/11/151 78/10/136
f 52/6/148 42/6/139 82/10/148
f 83/11/152 82/10/148 42/6/139
f 78/10/139 83/11/152 42/6/139
f 46/6/153 85/11/154 84/10/153
f 85/11/154 46/6/153 41/6/155
f 85/11/156 41/6/157 79/10/157
f 84/10/158 85/11/159 46/6/158
f 41/6/140 46/6/158 85/11/159
f 79/10/140 41/6/160 85/11/161
f 80/10/143 87/10/162 86/11/163
f 87/10/162 80/10/143 49/6/143
f 87/10/162 49/6/143 45/6/162
f 86/11/164 87/10/165 80/10/146
f 49/6/146 80/10/146 87/10/165
f 45/6/165 49/6/146 87/10/165
f 45/6/166 88/11/167 87/10/162
f 88/11/167 45/6/162 46/6/153
f 88/11/167 46/6/153 84/10/153
f 87/10/168 88/11/169 45/6/168
f 46/6/158 45/6/165 88/11/169
f 84/10/158 46/6/158 88/11/169
f 91/10/170 90/10/171 89/11/172
f 90/10/171 91/10/170 75/6/170
f 90/10/171 75/6/170 69/6/171
f 89/11/173 90/10/174 91/10/175
f 75/6/175 91/10/175 90/10/174
f 69/6/174 75/6/175 90/10/174
f 65/6/176 93/11/177 92/10/176
f 93/11/177 65/6/176 66/6/178
f 93/11/177 66/6/179 94/10/178
f 92/10/180 93/11/181 65/6/180
f 66/6/182 65/6/180 93/11/181
f 94/10/182 66/6/182 93/11/181
f 97/10/183 96/10/184 95/11/185
f 96/10/184 97/10/183 71/6/183
f 96/10/184 71/6/183 73/6/184
f 95/11/186 96/10/187 97/10/188
f 71/6/188 97/10/188 96/10/187
f 73/6/187 71/6/188 96/10/187
f 98/11/189 75/6/170 91/10/170
f 75/6/190 98/11/189 73/6/184
f 73/6/184 98/11/189 96/10/184
f 91/10/175 75/6/175 98/11/191
f 73/6/187 98/11/191 75/6/175
f 96/10/187 98/11/191 73/6/187
f 94/10/178 97/10/183 99/11/192
f 97/10/183 94/10/193 66/6/193
f 97/10/183 66/6/178 71/6/183
f 99/11/194 97/10/188 94/10/182
f 66/6/195 94/10/195 97/10/188
f 71/6/188 66/6/182 97/10/188
f 90/10/171 92/10/176 100/11/196
f 92/10/176 90/10/171 69/6/171
f 92/10/176 69/6/171 65/6/176
f 100/11/197 92/10/180 90/10/174
f 69/6/174 90/10/174 92/10/180
f 65/6/180 69/6/174 92/10/180
f 102/11/198 61/6/199 101/10/143
f 61/6/200 102/11/141 59/6/144
f 59/6/144 102/11/141 103/10/144
f 101/10/146 61/6/201 102/11/202
f 59/6/148 102/11/147 61/6/146
f 103/10/148 102/11/147 59/6/203
f 103/10/144 60/6/136 59/6/144
f 60/6/136 103/10/144 104/11/151
f 60/6/204 104/11/205 105/10/136
f 59/6/148 60/6/206 103/10/148
f 104/11/152 103/10/148 60/6/139
f 105/10/139 104/11/207 60/6/208
f 62/6/162 107/11/167 106/10/162
f 107/11/167 62/6/162 53/6/153
f 107/11/209 53/6/153 108/10/153
f 106/10/165 107/11/169 62/6/165
f 53/6/158 62/6/165 107/11/169
f 108/10/158 53/6/158 107/11/210
f 110/10/135 105/10/136 109/11/137
f 105/10/136 110/10/135 54/6/135
f 105/10/136 54/6/135 60/6/136
f 109/11/138 105/10/139 110/10/140
f 54/6/140 110/10/140 105/10/139
f 60/6/139 54/6/140 105/10/139
f 101/10/143 106/10/162 111/11/163
f 106/10/162 101/10/143 61/6/143
f 106/10/162 61/6/143 62/6/162
f 111/11/164 106/10/165 101/10/146
f 61/6/146 101/10/146 106/10/165
f 62/6/165 61/6/146 106/10/165
f 53/6/153 112/11/156 108/10/153
f 112/11/154 53/6/153 54/6/135
f 112/11/154 54/6/135 110/10/135
f 108/10/158 112/11/161 53/6/158
f 54/6/140 53/6/158 112/11/159
f 110/10/140 54/6/140 112/11/159
