# Blender 4.1.1
# www.blender.org
mtllib tree.060.mtl
o tree.060
v -21.201035 -0.295190 4.625421
v -20.967270 -0.295190 4.702610
v -21.279324 -0.295190 4.469944
v -20.811792 -0.295190 4.624321
v -21.202135 -0.295190 4.236179
v -20.734604 -0.295190 4.390556
v -21.046658 -0.295190 4.157891
v -20.812893 -0.295190 4.235079
v -20.987116 0.150532 4.566430
v -21.104000 0.150532 4.527836
v -21.143143 0.150532 4.450097
v -20.909378 0.150532 4.527286
v -20.870785 0.150532 4.410403
v -20.909927 0.150532 4.332665
v -21.026810 0.150532 4.294071
v -21.104549 0.150532 4.333215
v -20.885670 0.819166 4.308269
v -21.031773 0.819166 4.260026
v -21.128944 0.819166 4.308956
v -20.982155 0.819166 4.600475
v -21.128258 0.819166 4.552232
v -20.836739 0.819166 4.405442
v -20.884981 0.819166 4.551545
v -21.177189 0.819166 4.455059
v -21.013624 0.309673 4.642310
v -21.086771 0.309673 4.579231
v -20.917297 0.309672 4.635191
v -20.854218 0.309672 4.562044
v -21.093891 0.309673 4.482904
v -20.861338 0.309672 4.465717
v -21.030811 0.309673 4.409757
v -20.934484 0.309673 4.402638
v -21.036037 0.147933 4.710187
v -20.885149 0.147933 4.699036
v -21.150616 0.147933 4.611379
v -21.161768 0.147933 4.460492
v -20.786341 0.147933 4.584456
v -21.062960 0.147933 4.345912
v -20.797493 0.147933 4.433568
v -20.912071 0.147933 4.334761
v -21.603497 0.819166 4.543523
v -21.411270 0.819166 3.961366
v -21.357386 1.556122 4.492435
v -21.243973 1.556122 4.148960
v -20.595171 0.819166 4.876469
v -21.195448 0.819166 5.001075
v -20.762470 1.556121 4.688875
v -21.116636 1.556122 4.762393
v -20.402945 0.819166 4.294312
v -20.649055 1.556121 4.345400
v -20.889807 1.556122 4.075442
v -20.810995 0.819166 3.836760
v -21.114059 2.347869 4.754591
v -21.349340 2.347869 4.490765
v -21.028696 3.178330 4.496071
v -21.082775 3.178330 4.435431
v -20.977745 3.178330 4.341764
v -21.057299 3.178330 4.358278
v -20.892384 2.347869 4.083245
v -21.238503 2.347869 4.155093
v -20.657101 2.347869 4.347070
v -20.767939 2.347869 4.682743
v -20.923666 3.178330 4.402404
v -20.949142 3.178330 4.479557
v -20.901917 1.556121 4.906947
v -21.375214 1.556122 4.750665
v -20.956802 2.347869 4.642538
v -21.173672 2.347869 4.570928
v -20.529922 1.556121 4.575199
v -20.786350 2.347869 4.490528
v -21.476521 1.556122 4.262636
v -21.220091 2.347869 4.347308
v -21.104527 1.556122 3.930888
v -21.049641 2.347869 4.195297
v -20.631227 1.556121 4.087170
v -20.832769 2.347869 4.266907
v -21.618299 0.589264 4.215820
v -21.456156 0.704215 3.911035
v -21.669527 0.704215 4.557230
v -20.336914 0.704215 4.280605
v -20.519794 0.589264 3.987792
v -20.789850 0.704215 3.772723
v -21.134874 0.589264 3.784695
v -21.216593 0.704215 5.065112
v -21.486649 0.589264 4.850043
v -20.388142 0.589264 4.622015
v -20.550285 0.704215 4.926800
v -20.871569 0.589264 5.053140
v -20.487593 1.369209 4.311883
v -20.477859 1.462665 4.592390
v -20.590309 1.462665 4.050677
v -20.890772 1.462665 4.960630
v -21.168341 1.369209 4.918982
v -21.416134 1.462665 4.787158
v -21.353729 1.369209 4.025887
v -21.115669 1.462665 3.877205
v -21.528584 1.462665 4.245445
v -20.838102 1.369209 3.918853
v -21.518848 1.369209 4.525952
v -20.652712 1.369209 4.811947
v -20.619028 2.281588 4.339167
v -20.724476 2.215307 4.170330
v -20.880190 2.281588 4.046321
v -21.079132 2.215307 4.053224
v -21.264383 2.281588 4.126072
v -20.742058 2.281588 4.711763
v -20.927311 2.215307 4.784611
v -21.126251 2.281588 4.791514
v -21.357876 2.215307 4.301812
v -21.387415 2.281588 4.498669
v -20.648565 2.215307 4.536024
v -21.281965 2.215307 4.667505
vn -0.0000 -1.0000 -0.0000
vn 0.0650 0.2942 0.9535
vn -0.6274 0.2944 0.7209
vn 0.0748 0.2944 0.9527
vn -0.6200 0.2942 0.7274
vn -0.9535 0.2942 0.0650
vn -0.6275 0.2944 0.7208
vn -0.6201 0.2942 0.7273
vn -0.9535 0.2943 0.0651
vn -0.9527 0.2944 0.0749
vn 0.7273 0.2942 0.6201
vn 0.7208 0.2944 0.6275
vn 0.0749 0.2944 0.9527
vn 0.7273 0.2942 0.6200
vn 0.0651 0.2942 0.9535
vn 0.9535 0.2942 -0.0650
vn 0.7209 0.2944 0.6274
vn 0.9527 0.2944 -0.0748
vn 0.7274 0.2942 0.6199
vn -0.0748 0.2944 -0.9528
vn 0.6200 0.2942 -0.7274
vn 0.6274 0.2944 -0.7209
vn -0.0650 0.2942 -0.9535
vn -0.7209 0.2944 -0.6274
vn -0.9527 0.2944 0.0748
vn -0.7274 0.2942 -0.6200
vn 0.6275 0.2944 -0.7208
vn 0.9535 0.2943 -0.0651
vn 0.9527 0.2944 -0.0749
vn 0.6201 0.2942 -0.7273
vn -0.0748 0.2944 -0.9527
vn -0.7273 0.2942 -0.6201
vn -0.7208 0.2944 -0.6275
vn 0.6515 -0.0513 -0.7569
vn -0.0744 -0.0512 -0.9959
vn 0.6528 -0.0513 -0.7558
vn -0.0744 -0.0513 -0.9959
vn -0.0727 -0.0513 -0.9960
vn -0.7569 -0.0512 -0.6515
vn -0.0745 -0.0513 -0.9959
vn -0.0727 -0.0512 -0.9960
vn -0.7569 -0.0513 -0.6515
vn -0.7557 -0.0512 -0.6529
vn -0.6528 -0.0512 0.7558
vn 0.0727 -0.0513 0.9960
vn 0.0744 -0.0513 0.9959
vn -0.6515 -0.0513 0.7569
vn 0.9959 -0.0513 -0.0744
vn 0.7569 -0.0513 0.6515
vn 0.9960 -0.0513 -0.0727
vn 0.9959 -0.0512 -0.0745
vn 0.7558 -0.0513 0.6528
vn -0.6529 -0.0513 0.7557
vn -0.9960 -0.0513 0.0727
vn -0.6516 -0.0512 0.7569
vn -0.9960 -0.0513 0.0728
vn -0.6529 -0.0512 0.7557
vn -0.9959 -0.0513 0.0745
vn 0.6529 -0.0512 -0.7557
vn 0.9959 -0.0513 -0.0745
vn 0.6529 -0.0513 -0.7557
vn 0.6515 -0.0512 -0.7569
vn 0.0745 -0.0513 0.9959
vn 0.7557 -0.0512 0.6529
vn 0.7569 -0.0512 0.6515
vn 0.0727 -0.0512 0.9960
vn -0.9959 -0.0513 0.0744
vn -0.9959 -0.0512 0.0744
vn -0.7558 -0.0513 -0.6528
vn -0.0000 1.0000 -0.0000
vn 0.4113 0.4042 0.8170
vn -0.2868 0.4042 0.8685
vn 0.4113 0.4042 0.8169
vn -0.2868 0.4043 0.8685
vn -0.8685 0.4042 -0.2868
vn -0.4114 0.4042 -0.8169
vn -0.4114 0.4043 -0.8169
vn 0.2868 0.4042 -0.8686
vn -0.4113 0.4042 -0.8170
vn 0.2868 0.4043 -0.8685
vn 0.8685 0.4042 0.2868
vn 0.4114 0.4042 0.8169
vn -0.8170 0.4042 0.4113
vn -0.8686 0.4042 -0.2867
vn -0.8169 0.4042 0.4114
vn -0.8685 0.4043 -0.2867
vn 0.8170 0.4042 -0.4113
vn 0.8686 0.4042 0.2867
vn 0.8169 0.4042 -0.4114
vn 0.8685 0.4043 0.2867
vn 0.2868 0.4042 -0.8685
vn -0.9267 0.3228 0.1923
vn -0.6300 0.3228 -0.7064
vn -0.9267 0.3228 0.1924
vn 0.6299 0.3228 0.7064
vn -0.2967 0.3228 0.8988
vn -0.2968 0.3228 0.8988
vn -0.2968 0.3228 0.8987
vn 0.9267 0.3228 -0.1924
vn 0.6300 0.3228 0.7064
vn 0.9267 0.3228 -0.1923
vn 0.2968 0.3228 -0.8988
vn -0.6299 0.3228 -0.7064
vn 0.2968 0.3228 -0.8987
vn -0.2156 0.7260 0.6531
vn -0.9304 0.3115 0.1931
vn -0.2980 0.3115 0.9023
vn -0.6734 0.7260 0.1397
vn 0.2979 0.3115 -0.9023
vn -0.4578 0.7260 -0.5132
vn 0.2157 0.7260 -0.6530
vn -0.6325 0.3115 -0.7092
vn 0.6734 0.7260 -0.1398
vn 0.6325 0.3115 0.7092
vn 0.9304 0.3115 -0.1931
vn 0.4577 0.7260 0.5133
vn 0.4578 0.7260 0.5132
vn -0.2979 0.3115 0.9023
vn -0.2157 0.7260 0.6530
vn 0.4577 0.7259 0.5133
vn -0.6734 0.7259 0.1398
vn -0.2157 0.7259 0.6531
vn -0.4577 0.7259 -0.5133
vn 0.6734 0.7259 -0.1398
vn 0.2157 0.7259 -0.6531
vn 0.2980 0.3116 -0.9023
vn 0.9304 0.3115 -0.1932
vn 0.6733 0.7260 -0.1398
vn 0.2156 0.7260 -0.6530
vn -0.6734 0.7260 0.1398
vn -0.6324 0.3115 -0.7092
vn -0.4577 0.7260 -0.5133
vn 0.1924 0.3228 0.9267
vn -0.7064 0.3228 0.6300
vn 0.8987 0.3228 0.2968
vn -0.7064 0.3228 0.6299
vn -0.8987 0.3228 -0.2967
vn -0.8987 0.3228 -0.2968
vn -0.1924 0.3228 -0.9267
vn 0.7064 0.3228 -0.6299
vn 0.8987 0.3228 0.2967
vn 0.7064 0.3228 -0.6300
vn 0.8988 0.3228 0.2967
vn -0.8445 0.5060 0.1753
vn -0.5741 0.5060 -0.6437
vn -0.8466 0.4530 -0.2795
vn 0.8466 -0.4530 0.2795
vn 0.5741 -0.5060 0.6437
vn 0.8445 -0.5060 -0.1753
vn 0.6654 0.4530 -0.5934
vn 0.8445 0.5060 -0.1753
vn 0.2704 0.5060 -0.8190
vn 0.2704 0.5060 -0.8191
vn -0.8445 -0.5060 0.1753
vn -0.6654 -0.4530 0.5934
vn -0.2704 -0.5060 0.8190
vn -0.1812 0.4530 -0.8729
vn 0.1812 -0.4530 0.8729
vn -0.2704 0.5060 0.8190
vn -0.6654 0.4530 0.5934
vn 0.2704 -0.5060 -0.8190
vn 0.6654 -0.4530 -0.5934
vn 0.5741 0.5060 0.6437
vn 0.8466 0.4530 0.2795
vn -0.8466 -0.4530 -0.2795
vn -0.5741 -0.5060 -0.6437
vn 0.1812 0.4530 0.8729
vn -0.1812 -0.4530 -0.8729
vn 0.6437 0.5060 -0.5741
vn 0.8190 0.5060 0.2704
vn 0.8729 0.4530 -0.1812
vn -0.8729 -0.4530 0.1812
vn -0.8190 -0.5060 -0.2704
vn -0.6437 -0.5060 0.5741
vn 0.1753 0.5060 0.8445
vn -0.2795 0.4530 0.8466
vn -0.6437 0.5060 0.5741
vn -0.1753 -0.5060 -0.8445
vn 0.2795 -0.4529 -0.8466
vn 0.6437 -0.5060 -0.5741
vn 0.2795 -0.4530 -0.8466
vn -0.8190 0.5060 -0.2704
vn -0.1753 0.5060 -0.8445
vn -0.5934 0.4530 -0.6654
vn 0.5934 -0.4530 0.6654
vn 0.1753 -0.5060 0.8445
vn 0.8190 -0.5060 0.2704
vn 0.2795 0.4530 -0.8466
vn -0.2795 -0.4530 0.8466
vn -0.8729 0.4529 0.1812
vn 0.8729 -0.4529 -0.1812
vn 0.5934 0.4530 0.6654
vn -0.5934 -0.4530 -0.6654
vn -0.6654 -0.4529 0.5934
vn 0.1812 0.4529 0.8729
vn -0.1812 -0.4529 -0.8729
vn -0.6654 0.4529 0.5934
vn -0.2704 0.5060 0.8191
vn -0.8445 0.5061 0.1753
vn 0.6654 -0.4529 -0.5934
vt 0.593750 0.025000
vt 0.593750 0.104996
vt 0.593750 0.225000
vt 0.093750 0.475000
vt 0.093750 0.275000
vt 0.093750 0.425000
vt 0.093750 0.348778
vt 0.093750 0.338765
vt 0.093750 0.344099
vt 0.093750 0.375000
vt 0.093750 0.325000
s 0
usemtl colormap.063
f 3/1/1 2/1/1 1/1/1
f 2/1/1 3/1/1 4/1/1
f 4/1/1 3/1/1 5/1/1
f 4/1/1 5/1/1 6/1/1
f 6/1/1 5/1/1 7/1/1
f 6/1/1 7/1/1 8/1/1
f 9/2/2 1/1/3 2/1/4
f 1/1/3 9/2/2 10/2/5
f 11/2/6 1/1/7 10/2/8
f 1/1/3 11/2/9 3/1/10
f 12/2/11 2/1/4 4/1/12
f 2/1/13 12/2/14 9/2/15
f 13/2/16 4/1/17 6/1/18
f 4/1/17 13/2/16 12/2/19
f 7/1/20 14/2/21 8/1/22
f 14/2/21 7/1/20 15/2/23
f 11/2/6 5/1/24 3/1/25
f 5/1/24 11/2/6 16/2/26
f 8/1/27 13/2/28 6/1/29
f 13/2/16 8/1/27 14/2/30
f 7/1/31 16/2/32 15/2/23
f 16/2/32 7/1/31 5/1/33
f 14/2/34 18/3/35 17/3/36
f 18/3/37 14/2/34 15/2/38
f 16/2/39 18/3/40 15/2/41
f 18/3/40 16/2/42 19/3/43
f 21/3/44 9/2/45 20/3/46
f 9/2/45 21/3/44 10/2/47
f 22/3/48 12/2/49 13/2/50
f 12/2/49 22/3/51 23/3/52
f 21/3/53 11/2/54 10/2/55
f 11/2/56 21/3/57 24/3/58
f 13/2/50 17/3/59 22/3/60
f 17/3/61 13/2/50 14/2/62
f 20/3/63 12/2/49 23/3/64
f 12/2/65 20/3/63 9/2/66
f 24/3/67 16/2/42 11/2/54
f 16/2/42 24/3/68 19/3/69
f 27/4/70 26/4/70 25/4/70
f 26/4/70 27/4/70 28/4/70
f 26/4/70 28/4/70 29/4/70
f 29/4/70 28/4/70 30/4/70
f 29/4/70 30/4/70 31/4/70
f 31/4/70 30/4/70 32/4/70
f 35/5/1 34/5/1 33/5/1
f 34/5/1 35/5/1 36/5/1
f 34/5/1 36/5/1 37/5/1
f 37/5/1 36/5/1 38/5/1
f 37/5/1 38/5/1 39/5/1
f 39/5/1 38/5/1 40/5/1
f 27/4/71 33/5/72 34/5/73
f 33/5/72 27/4/73 25/4/74
f 29/4/75 38/5/76 36/5/75
f 38/5/76 29/4/75 31/4/77
f 40/5/78 31/4/79 32/4/80
f 31/4/79 40/5/78 38/5/79
f 28/4/81 34/5/82 37/5/81
f 34/5/82 28/4/81 27/4/82
f 26/4/83 36/5/75 35/5/83
f 36/5/84 26/4/85 29/4/86
f 30/4/87 37/5/81 39/5/87
f 37/5/88 30/4/89 28/4/90
f 26/4/85 33/5/74 25/4/72
f 33/5/72 26/4/85 35/5/85
f 40/5/91 30/4/89 39/5/89
f 30/4/89 40/5/80 32/4/91
f 43/6/92 42/7/93 41/7/92
f 42/7/93 43/6/94 44/6/93
f 47/6/95 46/7/96 45/7/95
f 46/7/97 47/6/95 48/6/98
f 50/6/99 45/7/100 49/7/99
f 45/7/100 50/6/101 47/6/100
f 48/6/98 41/7/94 46/7/98
f 41/7/94 48/6/98 43/6/94
f 52/7/102 44/6/103 51/6/104
f 44/6/103 52/7/102 42/7/103
f 52/7/104 50/6/99 49/7/99
f 50/6/99 52/7/104 51/6/104
f 41/7/1 45/7/1 46/7/1
f 45/7/1 41/7/1 42/7/1
f 45/7/1 42/7/1 49/7/1
f 49/7/1 42/7/1 52/7/1
f 55/6/105 54/8/106 53/8/107
f 54/8/106 55/6/105 56/6/108
f 59/8/109 58/6/110 57/6/111
f 58/6/110 59/8/109 60/8/112
f 63/6/113 62/8/114 61/8/115
f 62/8/114 63/6/113 64/6/116
f 64/6/117 53/8/118 62/8/114
f 53/8/118 64/6/117 55/6/119
f 64/6/120 56/6/121 55/6/122
f 56/6/121 64/6/120 58/6/123
f 58/6/123 64/6/120 63/6/124
f 58/6/123 63/6/124 57/6/125
f 59/8/126 63/6/113 61/8/127
f 63/6/128 59/8/109 57/6/129
f 54/8/1 62/8/1 53/8/1
f 62/8/1 54/8/1 60/8/1
f 62/8/1 60/8/1 61/8/1
f 61/8/1 60/8/1 59/8/1
f 56/6/130 60/8/112 54/8/106
f 60/8/131 56/6/130 58/6/132
f 67/6/133 66/9/134 65/9/133
f 66/9/134 67/6/133 68/6/134
f 70/6/135 65/9/133 69/9/135
f 65/9/133 70/6/135 67/6/133
f 68/6/136 71/9/137 66/9/136
f 71/9/138 68/6/136 72/6/138
f 72/6/138 73/9/139 71/9/138
f 73/9/139 72/6/138 74/6/139
f 71/9/1 65/9/1 66/9/1
f 65/9/1 71/9/1 69/9/1
f 69/9/1 71/9/1 73/9/1
f 69/9/1 73/9/1 75/9/1
f 76/6/140 69/9/135 75/9/140
f 69/9/141 76/6/142 70/6/143
f 73/9/139 76/6/142 75/9/142
f 76/6/142 73/9/139 74/6/139
f 79/10/144 78/10/145 77/11/146
f 78/10/145 79/10/144 41/6/144
f 78/10/145 41/6/144 42/6/145
f 77/11/147 78/10/148 79/10/149
f 41/6/149 79/10/149 78/10/148
f 42/6/148 41/6/149 78/10/148
f 81/11/150 49/6/151 80/10/151
f 49/6/151 81/11/150 52/6/152
f 52/6/152 81/11/150 82/10/153
f 80/10/154 49/6/154 81/11/155
f 52/6/156 81/11/155 49/6/154
f 82/10/156 81/11/155 52/6/156
f 82/10/153 42/6/145 52/6/152
f 42/6/145 82/10/152 83/11/157
f 42/6/145 83/11/157 78/10/145
f 52/6/156 42/6/148 82/10/156
f 83/11/158 82/10/156 42/6/148
f 78/10/148 83/11/158 42/6/148
f 46/6/159 85/11/160 84/10/159
f 85/11/160 46/6/159 41/6/144
f 85/11/160 41/6/144 79/10/144
f 84/10/161 85/11/162 46/6/161
f 41/6/149 46/6/161 85/11/162
f 79/10/149 41/6/149 85/11/162
f 80/10/151 87/10/163 86/11/164
f 87/10/163 80/10/151 49/6/151
f 87/10/163 49/6/151 45/6/163
f 86/11/165 87/10/166 80/10/154
f 49/6/154 80/10/154 87/10/166
f 45/6/166 49/6/154 87/10/166
f 45/6/163 88/11/167 87/10/163
f 88/11/167 45/6/163 46/6/159
f 88/11/167 46/6/159 84/10/159
f 87/10/166 88/11/168 45/6/166
f 46/6/161 45/6/166 88/11/168
f 84/10/161 46/6/161 88/11/168
f 91/10/169 90/10/170 89/11/171
f 90/10/170 91/10/169 75/6/169
f 90/10/170 75/6/169 69/6/170
f 89/11/172 90/10/173 91/10/174
f 75/6/174 91/10/174 90/10/173
f 69/6/173 75/6/174 90/10/173
f 65/6/175 93/11/176 92/10/175
f 93/11/176 65/6/175 66/6/177
f 93/11/176 66/6/177 94/10/177
f 92/10/178 93/11/179 65/6/178
f 66/6/180 65/6/178 93/11/181
f 94/10/180 66/6/180 93/11/181
f 97/10/182 96/10/183 95/11/184
f 96/10/183 97/10/182 71/6/182
f 96/10/183 71/6/182 73/6/183
f 95/11/185 96/10/186 97/10/187
f 71/6/187 97/10/187 96/10/186
f 73/6/186 71/6/187 96/10/186
f 98/11/188 75/6/169 91/10/169
f 75/6/169 98/11/188 73/6/183
f 73/6/183 98/11/188 96/10/183
f 91/10/174 75/6/174 98/11/189
f 73/6/186 98/11/189 75/6/174
f 96/10/186 98/11/189 73/6/186
f 94/10/177 97/10/182 99/11/190
f 97/10/182 94/10/177 66/6/177
f 97/10/182 66/6/177 71/6/182
f 99/11/191 97/10/187 94/10/180
f 66/6/180 94/10/180 97/10/187
f 71/6/187 66/6/180 97/10/187
f 90/10/170 92/10/175 100/11/192
f 92/10/175 90/10/170 69/6/170
f 92/10/175 69/6/170 65/6/175
f 100/11/193 92/10/178 90/10/173
f 69/6/173 90/10/173 92/10/178
f 65/6/178 69/6/173 92/10/178
f 102/11/150 61/6/151 101/10/151
f 61/6/151 102/11/150 59/6/152
f 59/6/152 102/11/150 103/10/153
f 101/10/154 61/6/154 102/11/194
f 59/6/156 102/11/155 61/6/154
f 103/10/156 102/11/155 59/6/156
f 103/10/153 60/6/145 59/6/152
f 60/6/145 103/10/152 104/11/157
f 60/6/145 104/11/157 105/10/145
f 59/6/156 60/6/148 103/10/156
f 104/11/158 103/10/156 60/6/148
f 105/10/148 104/11/158 60/6/148
f 62/6/163 107/11/195 106/10/163
f 107/11/167 62/6/163 53/6/159
f 107/11/167 53/6/159 108/10/159
f 106/10/166 107/11/196 62/6/166
f 53/6/161 62/6/166 107/11/168
f 108/10/161 53/6/161 107/11/168
f 110/10/144 105/10/145 109/11/146
f 105/10/145 110/10/144 54/6/144
f 105/10/145 54/6/144 60/6/145
f 109/11/147 105/10/148 110/10/149
f 54/6/149 110/10/149 105/10/148
f 60/6/148 54/6/149 105/10/148
f 101/10/151 106/10/163 111/11/164
f 106/10/163 101/10/151 61/6/151
f 106/10/163 61/6/151 62/6/163
f 111/11/165 106/10/166 101/10/154
f 61/6/154 101/10/154 106/10/166
f 62/6/166 61/6/154 106/10/166
f 53/6/159 112/11/197 108/10/198
f 112/11/160 53/6/159 54/6/144
f 112/11/160 54/6/199 110/10/144
f 108/10/161 112/11/200 53/6/161
f 54/6/149 53/6/161 112/11/162
f 110/10/149 54/6/149 112/11/162
f 3/1/1 2/1/1 1/1/1
f 2/1/1 3/1/1 4/1/1
f 4/1/1 3/1/1 5/1/1
f 4/1/1 5/1/1 6/1/1
f 6/1/1 5/1/1 7/1/1
f 6/1/1 7/1/1 8/1/1
f 9/2/2 1/1/3 2/1/4
f 1/1/3 9/2/2 10/2/5
f 11/2/6 1/1/7 10/2/8
f 1/1/3 11/2/9 3/1/10
f 12/2/11 2/1/4 4/1/12
f 2/1/13 12/2/14 9/2/15
f 13/2/16 4/1/17 6/1/18
f 4/1/17 13/2/16 12/2/19
f 7/1/20 14/2/21 8/1/22
f 14/2/21 7/1/20 15/2/23
f 11/2/6 5/1/24 3/1/25
f 5/1/24 11/2/6 16/2/26
f 8/1/27 13/2/28 6/1/29
f 13/2/16 8/1/27 14/2/30
f 7/1/31 16/2/32 15/2/23
f 16/2/32 7/1/31 5/1/33
f 14/2/34 18/3/35 17/3/36
f 18/3/37 14/2/34 15/2/38
f 16/2/39 18/3/40 15/2/41
f 18/3/40 16/2/42 19/3/43
f 21/3/44 9/2/45 20/3/46
f 9/2/45 21/3/44 10/2/47
f 22/3/48 12/2/49 13/2/50
f 12/2/49 22/3/51 23/3/52
f 21/3/53 11/2/54 10/2/55
f 11/2/56 21/3/57 24/3/58
f 13/2/50 17/3/59 22/3/60
f 17/3/61 13/2/50 14/2/62
f 20/3/63 12/2/49 23/3/64
f 12/2/65 20/3/63 9/2/66
f 24/3/67 16/2/42 11/2/54
f 16/2/42 24/3/68 19/3/69
f 27/4/70 26/4/70 25/4/70
f 26/4/70 27/4/70 28/4/70
f 26/4/70 28/4/70 29/4/70
f 29/4/70 28/4/70 30/4/70
f 29/4/70 30/4/70 31/4/70
f 31/4/70 30/4/70 32/4/70
f 35/5/1 34/5/1 33/5/1
f 34/5/1 35/5/1 36/5/1
f 34/5/1 36/5/1 37/5/1
f 37/5/1 36/5/1 38/5/1
f 37/5/1 38/5/1 39/5/1
f 39/5/1 38/5/1 40/5/1
f 27/4/71 33/5/72 34/5/73
f 33/5/72 27/4/73 25/4/74
f 29/4/75 38/5/76 36/5/75
f 38/5/76 29/4/75 31/4/77
f 40/5/78 31/4/79 32/4/80
f 31/4/79 40/5/78 38/5/79
f 28/4/81 34/5/82 37/5/81
f 34/5/82 28/4/81 27/4/82
f 26/4/83 36/5/75 35/5/83
f 36/5/84 26/4/85 29/4/86
f 30/4/87 37/5/81 39/5/87
f 37/5/88 30/4/89 28/4/90
f 26/4/85 33/5/74 25/4/72
f 33/5/72 26/4/85 35/5/85
f 40/5/91 30/4/89 39/5/89
f 30/4/89 40/5/80 32/4/91
f 43/6/92 42/7/93 41/7/92
f 42/7/93 43/6/94 44/6/93
f 47/6/95 46/7/96 45/7/95
f 46/7/97 47/6/95 48/6/98
f 50/6/99 45/7/100 49/7/99
f 45/7/100 50/6/101 47/6/100
f 48/6/98 41/7/94 46/7/98
f 41/7/94 48/6/98 43/6/94
f 52/7/102 44/6/103 51/6/104
f 44/6/103 52/7/102 42/7/103
f 52/7/104 50/6/99 49/7/99
f 50/6/99 52/7/104 51/6/104
f 41/7/1 45/7/1 46/7/1
f 45/7/1 41/7/1 42/7/1
f 45/7/1 42/7/1 49/7/1
f 49/7/1 42/7/1 52/7/1
f 55/6/105 54/8/106 53/8/107
f 54/8/106 55/6/105 56/6/108
f 59/8/109 58/6/110 57/6/111
f 58/6/110 59/8/109 60/8/112
f 63/6/113 62/8/114 61/8/115
f 62/8/114 63/6/113 64/6/116
f 64/6/117 53/8/118 62/8/114
f 53/8/118 64/6/117 55/6/119
f 64/6/120 56/6/121 55/6/122
f 56/6/121 64/6/120 58/6/123
f 58/6/123 64/6/120 63/6/124
f 58/6/123 63/6/124 57/6/125
f 59/8/126 63/6/113 61/8/127
f 63/6/128 59/8/109 57/6/129
f 54/8/1 62/8/1 53/8/1
f 62/8/1 54/8/1 60/8/1
f 62/8/1 60/8/1 61/8/1
f 61/8/1 60/8/1 59/8/1
f 56/6/130 60/8/112 54/8/106
f 60/8/131 56/6/130 58/6/132
f 67/6/133 66/9/134 65/9/133
f 66/9/134 67/6/133 68/6/134
f 70/6/135 65/9/133 69/9/135
f 65/9/133 70/6/135 67/6/133
f 68/6/136 71/9/137 66/9/136
f 71/9/138 68/6/136 72/6/138
f 72/6/138 73/9/139 71/9/138
f 73/9/139 72/6/138 74/6/139
f 71/9/1 65/9/1 66/9/1
f 65/9/1 71/9/1 69/9/1
f 69/9/1 71/9/1 73/9/1
f 69/9/1 73/9/1 75/9/1
f 76/6/140 69/9/135 75/9/140
f 69/9/141 76/6/142 70/6/143
f 73/9/139 76/6/142 75/9/142
f 76/6/142 73/9/139 74/6/139
f 79/10/144 78/10/145 77/11/146
f 78/10/145 79/10/144 41/6/144
f 78/10/145 41/6/144 42/6/145
f 77/11/147 78/10/148 79/10/149
f 41/6/149 79/10/149 78/10/148
f 42/6/148 41/6/149 78/10/148
f 81/11/150 49/6/151 80/10/151
f 49/6/151 81/11/150 52/6/152
f 52/6/152 81/11/150 82/10/153
f 80/10/154 49/6/154 81/11/155
f 52/6/156 81/11/155 49/6/154
f 82/10/156 81/11/155 52/6/156
f 82/10/153 42/6/145 52/6/152
f 42/6/145 82/10/152 83/11/157
f 42/6/145 83/11/157 78/10/145
f 52/6/156 42/6/148 82/10/156
f 83/11/158 82/10/156 42/6/148
f 78/10/148 83/11/158 42/6/148
f 46/6/159 85/11/160 84/10/159
f 85/11/160 46/6/159 41/6/144
f 85/11/160 41/6/144 79/10/144
f 84/10/161 85/11/162 46/6/161
f 41/6/149 46/6/161 85/11/162
f 79/10/149 41/6/149 85/11/162
f 80/10/151 87/10/163 86/11/164
f 87/10/163 80/10/151 49/6/151
f 87/10/163 49/6/151 45/6/163
f 86/11/165 87/10/166 80/10/154
f 49/6/154 80/10/154 87/10/166
f 45/6/166 49/6/154 87/10/166
f 45/6/163 88/11/167 87/10/163
f 88/11/167 45/6/163 46/6/159
f 88/11/167 46/6/159 84/10/159
f 87/10/166 88/11/168 45/6/166
f 46/6/161 45/6/166 88/11/168
f 84/10/161 46/6/161 88/11/168
f 91/10/169 90/10/170 89/11/171
f 90/10/170 91/10/169 75/6/169
f 90/10/170 75/6/169 69/6/170
f 89/11/172 90/10/173 91/10/174
f 75/6/174 91/10/174 90/10/173
f 69/6/173 75/6/174 90/10/173
f 65/6/175 93/11/176 92/10/175
f 93/11/176 65/6/175 66/6/177
f 93/11/176 66/6/177 94/10/177
f 92/10/178 93/11/179 65/6/178
f 66/6/180 65/6/178 93/11/181
f 94/10/180 66/6/180 93/11/181
f 97/10/182 96/10/183 95/11/184
f 96/10/183 97/10/182 71/6/182
f 96/10/183 71/6/182 73/6/183
f 95/11/185 96/10/186 97/10/187
f 71/6/187 97/10/187 96/10/186
f 73/6/186 71/6/187 96/10/186
f 98/11/188 75/6/169 91/10/169
f 75/6/169 98/11/188 73/6/183
f 73/6/183 98/11/188 96/10/183
f 91/10/174 75/6/174 98/11/189
f 73/6/186 98/11/189 75/6/174
f 96/10/186 98/11/189 73/6/186
f 94/10/177 97/10/182 99/11/190
f 97/10/182 94/10/177 66/6/177
f 97/10/182 66/6/177 71/6/182
f 99/11/191 97/10/187 94/10/180
f 66/6/180 94/10/180 97/10/187
f 71/6/187 66/6/180 97/10/187
f 90/10/170 92/10/175 100/11/192
f 92/10/175 90/10/170 69/6/170
f 92/10/175 69/6/170 65/6/175
f 100/11/193 92/10/178 90/10/173
f 69/6/173 90/10/173 92/10/178
f 65/6/178 69/6/173 92/10/178
f 102/11/150 61/6/151 101/10/151
f 61/6/151 102/11/150 59/6/152
f 59/6/152 102/11/150 103/10/153
f 101/10/154 61/6/154 102/11/194
f 59/6/156 102/11/155 61/6/154
f 103/10/156 102/11/155 59/6/156
f 103/10/153 60/6/145 59/6/152
f 60/6/145 103/10/152 104/11/157
f 60/6/145 104/11/157 105/10/145
f 59/6/156 60/6/148 103/10/156
f 104/11/158 103/10/156 60/6/148
f 105/10/148 104/11/158 60/6/148
f 62/6/163 107/11/195 106/10/163
f 107/11/167 62/6/163 53/6/159
f 107/11/167 53/6/159 108/10/159
f 106/10/166 107/11/196 62/6/166
f 53/6/161 62/6/166 107/11/168
f 108/10/161 53/6/161 107/11/168
f 110/10/144 105/10/145 109/11/146
f 105/10/145 110/10/144 54/6/144
f 105/10/145 54/6/144 60/6/145
f 109/11/147 105/10/148 110/10/149
f 54/6/149 110/10/149 105/10/148
f 60/6/148 54/6/149 105/10/148
f 101/10/151 106/10/163 111/11/164
f 106/10/163 101/10/151 61/6/151
f 106/10/163 61/6/151 62/6/163
f 111/11/165 106/10/166 101/10/154
f 61/6/154 101/10/154 106/10/166
f 62/6/166 61/6/154 106/10/166
f 53/6/159 112/11/197 108/10/198
f 112/11/160 53/6/159 54/6/144
f 112/11/160 54/6/199 110/10/144
f 108/10/161 112/11/200 53/6/161
f 54/6/149 53/6/161 112/11/162
f 110/10/149 54/6/149 112/11/162
