# Blender 4.1.1
# www.blender.org
mtllib tree.068.mtl
o tree.068
v 0.615627 -4.675250 4.617279
v 0.801599 -4.675250 4.665323
v 0.546663 -4.675250 4.500271
v 0.918606 -4.675250 4.596359
v 0.594707 -4.675250 4.314300
v 0.966650 -4.675250 4.410388
v 0.711715 -4.675250 4.245336
v 0.897687 -4.675250 4.293379
v 0.779128 -4.327482 4.560326
v 0.686142 -4.327482 4.536304
v 0.651660 -4.327482 4.477800
v 0.837632 -4.327482 4.525844
v 0.861654 -4.327482 4.432858
v 0.827172 -4.327482 4.374354
v 0.734186 -4.327482 4.350332
v 0.675682 -4.327482 4.384814
v 0.844800 -3.805792 4.354111
v 0.728568 -3.805792 4.324083
v 0.655438 -3.805792 4.367186
v 0.784745 -3.805792 4.586575
v 0.668513 -3.805792 4.556547
v 0.887903 -3.805792 4.427240
v 0.857875 -3.805792 4.543473
v 0.625411 -3.805792 4.483418
v 0.762402 -4.203316 4.620767
v 0.702204 -4.203316 4.575428
v 0.837028 -4.203316 4.610260
v 0.882367 -4.203316 4.550061
v 0.691696 -4.203316 4.500803
v 0.871859 -4.203316 4.475435
v 0.737034 -4.203316 4.440604
v 0.811660 -4.203316 4.430096
v 0.748452 -4.329511 4.674767
v 0.865348 -4.329511 4.658308
v 0.654156 -4.329511 4.603748
v 0.637696 -4.329511 4.486853
v 0.936366 -4.329511 4.564011
v 0.708715 -4.329511 4.392556
v 0.919907 -4.329511 4.447115
v 0.825611 -4.329511 4.376096
v 0.298077 -3.805792 4.574264
v 0.417723 -3.805792 4.111129
v 0.487048 -3.230796 4.521804
v 0.557640 -3.230796 4.248553
v 1.100249 -3.805792 4.781497
v 0.639340 -3.805792 4.909448
v 0.960332 -3.230796 4.644073
v 0.688394 -3.230796 4.719564
v 1.219895 -3.805792 4.318363
v 1.030924 -3.230796 4.370822
v 0.829578 -3.230796 4.173062
v 0.878632 -3.805792 3.983179
v 0.689998 -2.613048 4.713357
v 0.493225 -2.613048 4.520089
v 0.743129 -1.965095 4.507692
v 0.697901 -1.965095 4.463270
v 0.774843 -1.965095 4.384934
v 0.713758 -1.965095 4.401891
v 0.827974 -2.613048 4.179269
v 0.562213 -2.613048 4.253046
v 1.024747 -2.613048 4.372537
v 0.955759 -2.613048 4.639581
v 0.820070 -1.965095 4.429356
v 0.804214 -1.965095 4.490735
v 0.863011 -3.230796 4.821036
v 0.486479 -3.230796 4.723763
v 0.806651 -2.613048 4.618015
v 0.634120 -2.613048 4.573443
v 1.135518 -3.230796 4.543587
v 0.931517 -2.613048 4.490885
v 0.382454 -3.230796 4.349040
v 0.586455 -2.613048 4.401742
v 0.654961 -3.230796 4.071590
v 0.711321 -2.613048 4.274611
v 1.031493 -3.230796 4.168864
v 0.883852 -2.613048 4.319182
v 0.269661 -3.985170 4.319901
v 0.380184 -3.895481 4.074259
v 0.247377 -3.895481 4.588338
v 1.270595 -3.895481 4.304288
v 1.113125 -3.985170 4.085752
v 0.891793 -3.895481 3.932234
v 0.623800 -3.985170 3.959339
v 0.626178 -3.895481 4.960392
v 0.404847 -3.985170 4.806875
v 1.248311 -3.985170 4.572726
v 1.137788 -3.895481 4.818367
v 0.894172 -3.985170 4.933287
v 1.154900 -3.376631 4.336406
v 1.176936 -3.303713 4.554287
v 1.061469 -3.303713 4.138344
v 0.874453 -3.303713 4.862256
v 0.656211 -3.376631 4.844139
v 0.456503 -3.303713 4.754282
v 0.465847 -3.376631 4.158395
v 0.643519 -3.303713 4.030371
v 0.341036 -3.303713 4.338339
v 0.861760 -3.376631 4.048488
v 0.363072 -3.376631 4.556221
v 1.052125 -3.376631 4.734231
v 1.053981 -2.664763 4.364421
v 0.963183 -2.716478 4.238412
v 0.835563 -2.664763 4.149894
v 0.681037 -2.716478 4.165523
v 0.540568 -2.664763 4.231786
v 0.977404 -2.664763 4.660840
v 0.836934 -2.716478 4.727103
v 0.682409 -2.664763 4.742732
v 0.476840 -2.716478 4.373424
v 0.463991 -2.664763 4.528205
v 1.041131 -2.716478 4.519203
v 0.554789 -2.716478 4.654213
vn -0.0000 -1.0000 -0.0000
vn 0.1278 0.2942 0.9472
vn -0.5784 0.2944 0.7607
vn 0.1376 0.2944 0.9457
vn -0.5706 0.2942 0.7667
vn -0.9471 0.2942 0.1279
vn -0.5785 0.2944 0.7607
vn -0.5707 0.2942 0.7667
vn -0.9471 0.2943 0.1279
vn -0.9457 0.2944 0.1376
vn 0.7667 0.2942 0.5707
vn 0.7607 0.2944 0.5785
vn 0.1279 0.2942 0.9471
vn 0.9472 0.2942 -0.1278
vn 0.7608 0.2944 0.5784
vn 0.9457 0.2944 -0.1376
vn 0.7607 0.2944 0.5784
vn 0.7667 0.2942 0.5706
vn -0.1376 0.2944 -0.9457
vn 0.5706 0.2942 -0.7667
vn 0.5784 0.2944 -0.7607
vn -0.1278 0.2942 -0.9472
vn -0.9472 0.2942 0.1278
vn -0.7608 0.2944 -0.5784
vn -0.7607 0.2944 -0.5784
vn -0.7667 0.2942 -0.5706
vn 0.5785 0.2944 -0.7607
vn 0.9471 0.2943 -0.1279
vn 0.9471 0.2942 -0.1279
vn 0.5707 0.2942 -0.7667
vn -0.7667 0.2942 -0.5707
vn -0.1279 0.2942 -0.9471
vn -0.7607 0.2944 -0.5785
vn 0.6001 -0.0513 -0.7983
vn -0.1401 -0.0512 -0.9888
vn 0.6015 -0.0513 -0.7972
vn -0.1401 -0.0513 -0.9888
vn -0.1383 -0.0513 -0.9891
vn -0.7983 -0.0512 -0.6001
vn -0.1384 -0.0512 -0.9891
vn -0.7983 -0.0513 -0.6001
vn -0.7972 -0.0512 -0.6015
vn -0.6015 -0.0512 0.7972
vn 0.1383 -0.0513 0.9891
vn 0.1401 -0.0513 0.9888
vn -0.6001 -0.0513 0.7983
vn 0.9888 -0.0513 -0.1401
vn 0.7983 -0.0513 0.6001
vn 0.9891 -0.0513 -0.1383
vn 0.9888 -0.0512 -0.1401
vn 0.7972 -0.0513 0.6015
vn -0.6015 -0.0513 0.7972
vn -0.9891 -0.0513 0.1384
vn -0.9888 -0.0513 0.1401
vn 0.9891 -0.0513 -0.1384
vn 0.6015 -0.0512 -0.7972
vn 0.7972 -0.0512 0.6015
vn 0.7983 -0.0512 0.6001
vn 0.1384 -0.0512 0.9891
vn -0.9891 -0.0513 0.1383
vn -0.9888 -0.0512 0.1401
vn -0.7972 -0.0513 -0.6015
vn -0.0000 1.0000 -0.0000
vn 0.4644 0.4042 0.7880
vn -0.2288 0.4042 0.8856
vn -0.2288 0.4043 0.8856
vn -0.8856 0.4042 -0.2288
vn -0.4645 0.4042 -0.7880
vn -0.4644 0.4043 -0.7880
vn 0.2288 0.4042 -0.8856
vn -0.4644 0.4042 -0.7880
vn 0.2288 0.4043 -0.8856
vn 0.8856 0.4042 0.2288
vn 0.4645 0.4042 0.7880
vn 0.4644 0.4043 0.7880
vn -0.7880 0.4042 0.4644
vn -0.8856 0.4043 -0.2288
vn 0.7880 0.4042 -0.4644
vn 0.8856 0.4043 0.2288
vn -0.7880 0.4042 0.4645
vn 0.7880 0.4042 -0.4645
vn -0.9120 0.3228 0.2532
vn -0.6753 0.3228 -0.6632
vn 0.6752 0.3228 0.6632
vn -0.2367 0.3228 0.9164
vn 0.9120 0.3228 -0.2532
vn 0.6753 0.3228 0.6632
vn -0.2368 0.3228 0.9164
vn 0.2367 0.3228 -0.9164
vn -0.6752 0.3228 -0.6632
vn 0.2368 0.3228 -0.9164
vn -0.1720 0.7260 0.6659
vn -0.9156 0.3115 0.2542
vn -0.2377 0.3115 0.9200
vn -0.6627 0.7260 0.1839
vn 0.2377 0.3115 -0.9200
vn -0.4907 0.7260 -0.4819
vn 0.1721 0.7260 -0.6659
vn -0.6779 0.3115 -0.6659
vn 0.6627 0.7260 -0.1840
vn 0.6779 0.3115 0.6659
vn 0.9156 0.3115 -0.2542
vn 0.6779 0.3115 0.6658
vn 0.4906 0.7260 0.4819
vn 0.4907 0.7260 0.4819
vn -0.1721 0.7260 0.6659
vn 0.4906 0.7259 0.4819
vn -0.6627 0.7259 0.1840
vn -0.1721 0.7259 0.6659
vn 0.4907 0.7259 0.4819
vn -0.4906 0.7259 -0.4819
vn -0.4907 0.7259 -0.4819
vn 0.6627 0.7259 -0.1840
vn 0.1721 0.7259 -0.6659
vn 0.2377 0.3116 -0.9200
vn 0.6627 0.7260 -0.1839
vn 0.6626 0.7260 -0.1840
vn 0.1720 0.7260 -0.6658
vn -0.6627 0.7260 0.1840
vn -0.6779 0.3115 -0.6658
vn -0.4906 0.7260 -0.4819
vn 0.2532 0.3228 0.9120
vn -0.6632 0.3228 0.6752
vn -0.6632 0.3228 0.6753
vn 0.9164 0.3228 0.2367
vn 0.9164 0.3228 0.2368
vn -0.9164 0.3228 -0.2367
vn -0.2532 0.3228 -0.9120
vn -0.9164 0.3228 -0.2368
vn 0.6632 0.3228 -0.6752
vn -0.8311 0.5060 0.2307
vn -0.6153 0.5060 -0.6044
vn -0.8632 0.4530 -0.2230
vn -0.6154 0.5060 -0.6044
vn 0.8632 -0.4530 0.2230
vn 0.6154 -0.5060 0.6044
vn 0.8311 -0.5060 -0.2307
vn 0.6247 0.4530 -0.6360
vn 0.8311 0.5060 -0.2307
vn 0.2157 0.5060 -0.8351
vn -0.8311 -0.5060 0.2307
vn -0.6247 -0.4530 0.6360
vn -0.2157 -0.5060 0.8351
vn -0.2385 0.4530 -0.8590
vn 0.6153 -0.5060 0.6044
vn 0.2385 -0.4530 0.8590
vn -0.2157 0.5060 0.8351
vn -0.6247 0.4530 0.6360
vn 0.2157 -0.5060 -0.8351
vn 0.6247 -0.4530 -0.6360
vn 0.6153 0.5060 0.6044
vn 0.8632 0.4530 0.2230
vn 0.6154 0.5060 0.6044
vn -0.8632 -0.4530 -0.2230
vn -0.6154 -0.5060 -0.6044
vn 0.2385 0.4530 0.8590
vn 0.2385 0.4529 0.8591
vn -0.6153 -0.5060 -0.6044
vn -0.2385 -0.4530 -0.8590
vn 0.6044 0.5060 -0.6153
vn 0.8351 0.5060 0.2157
vn 0.8590 0.4530 -0.2385
vn 0.6044 0.5060 -0.6154
vn -0.8590 -0.4530 0.2385
vn -0.8351 -0.5060 -0.2157
vn -0.6044 -0.5060 0.6153
vn -0.6044 -0.5060 0.6154
vn 0.2307 0.5060 0.8311
vn -0.2230 0.4530 0.8632
vn -0.6044 0.5061 0.6153
vn -0.6044 0.5060 0.6153
vn -0.6044 0.5060 0.6154
vn -0.2307 -0.5060 -0.8311
vn 0.2230 -0.4530 -0.8632
vn 0.6044 -0.5060 -0.6154
vn 0.6044 -0.5060 -0.6153
vn -0.8351 0.5060 -0.2157
vn -0.2307 0.5060 -0.8311
vn -0.6361 0.4530 -0.6247
vn 0.6361 -0.4530 0.6247
vn 0.2307 -0.5060 0.8311
vn 0.8351 -0.5060 0.2157
vn 0.2230 0.4530 -0.8632
vn -0.2230 -0.4530 0.8632
vn -0.8590 0.4530 0.2385
vn 0.8590 -0.4530 -0.2385
vn 0.6360 0.4530 0.6247
vn -0.6360 -0.4530 -0.6247
vn 0.6247 0.4529 -0.6360
vn -0.6247 -0.4529 0.6361
vt 0.593750 0.025000
vt 0.593750 0.104996
vt 0.593750 0.225000
vt 0.093750 0.475000
vt 0.093750 0.275000
vt 0.093750 0.425000
vt 0.093750 0.348778
vt 0.093750 0.338765
vt 0.093750 0.344099
vt 0.093750 0.375000
vt 0.093750 0.325000
s 0
usemtl colormap.002
f 3/1/1 2/1/1 1/1/1
f 2/1/1 3/1/1 4/1/1
f 4/1/1 3/1/1 5/1/1
f 4/1/1 5/1/1 6/1/1
f 6/1/1 5/1/1 7/1/1
f 6/1/1 7/1/1 8/1/1
f 9/2/2 1/1/3 2/1/4
f 1/1/3 9/2/2 10/2/5
f 11/2/6 1/1/7 10/2/8
f 1/1/7 11/2/9 3/1/10
f 12/2/11 2/1/4 4/1/12
f 2/1/4 12/2/11 9/2/13
f 13/2/14 4/1/15 6/1/16
f 4/1/17 13/2/14 12/2/18
f 7/1/19 14/2/20 8/1/21
f 14/2/20 7/1/19 15/2/22
f 11/2/23 5/1/24 3/1/10
f 5/1/25 11/2/23 16/2/26
f 8/1/27 13/2/28 6/1/16
f 13/2/29 8/1/27 14/2/30
f 7/1/19 16/2/31 15/2/32
f 16/2/31 7/1/19 5/1/33
f 14/2/34 18/3/35 17/3/36
f 18/3/37 14/2/34 15/2/38
f 16/2/39 18/3/37 15/2/40
f 18/3/37 16/2/41 19/3/42
f 21/3/43 9/2/44 20/3/45
f 9/2/44 21/3/43 10/2/46
f 22/3/47 12/2/48 13/2/49
f 12/2/48 22/3/50 23/3/51
f 21/3/52 11/2/53 10/2/46
f 11/2/53 21/3/43 24/3/54
f 13/2/55 17/3/56 22/3/47
f 17/3/36 13/2/55 14/2/34
f 20/3/45 12/2/48 23/3/57
f 12/2/58 20/3/45 9/2/59
f 24/3/54 16/2/41 11/2/60
f 16/2/41 24/3/61 19/3/62
f 27/4/63 26/4/63 25/4/63
f 26/4/63 27/4/63 28/4/63
f 26/4/63 28/4/63 29/4/63
f 29/4/63 28/4/63 30/4/63
f 29/4/63 30/4/63 31/4/63
f 31/4/63 30/4/63 32/4/63
f 35/5/1 34/5/1 33/5/1
f 34/5/1 35/5/1 36/5/1
f 34/5/1 36/5/1 37/5/1
f 37/5/1 36/5/1 38/5/1
f 37/5/1 38/5/1 39/5/1
f 39/5/1 38/5/1 40/5/1
f 27/4/64 33/5/65 34/5/64
f 33/5/65 27/4/64 25/4/66
f 29/4/67 38/5/68 36/5/67
f 38/5/68 29/4/67 31/4/69
f 40/5/70 31/4/71 32/4/72
f 31/4/71 40/5/70 38/5/71
f 28/4/73 34/5/74 37/5/73
f 34/5/74 28/4/73 27/4/75
f 26/4/76 36/5/67 35/5/76
f 36/5/67 26/4/76 29/4/77
f 30/4/78 37/5/73 39/5/78
f 37/5/73 30/4/78 28/4/79
f 26/4/80 33/5/66 25/4/65
f 33/5/65 26/4/80 35/5/80
f 40/5/70 30/4/78 39/5/81
f 30/4/81 40/5/72 32/4/70
f 43/6/82 42/7/83 41/7/82
f 42/7/83 43/6/82 44/6/83
f 47/6/84 46/7/85 45/7/84
f 46/7/85 47/6/84 48/6/85
f 50/6/86 45/7/87 49/7/86
f 45/7/87 50/6/86 47/6/87
f 48/6/88 41/7/82 46/7/85
f 41/7/82 48/6/88 43/6/82
f 52/7/89 44/6/90 51/6/89
f 44/6/90 52/7/89 42/7/90
f 52/7/91 50/6/86 49/7/86
f 50/6/86 52/7/89 51/6/91
f 41/7/1 45/7/1 46/7/1
f 45/7/1 41/7/1 42/7/1
f 45/7/1 42/7/1 49/7/1
f 49/7/1 42/7/1 52/7/1
f 55/6/92 54/8/93 53/8/94
f 54/8/93 55/6/92 56/6/95
f 59/8/96 58/6/97 57/6/98
f 58/6/97 59/8/96 60/8/99
f 63/6/100 62/8/101 61/8/102
f 62/8/103 63/6/100 64/6/104
f 64/6/105 53/8/94 62/8/101
f 53/8/94 64/6/105 55/6/106
f 64/6/107 56/6/108 55/6/109
f 56/6/108 64/6/110 58/6/111
f 58/6/112 64/6/107 63/6/113
f 58/6/111 63/6/113 57/6/114
f 59/8/115 63/6/116 61/8/102
f 63/6/117 59/8/96 57/6/118
f 54/8/1 62/8/1 53/8/1
f 62/8/1 54/8/1 60/8/1
f 62/8/1 60/8/1 61/8/1
f 61/8/1 60/8/1 59/8/1
f 56/6/119 60/8/99 54/8/93
f 60/8/120 56/6/119 58/6/121
f 67/6/122 66/9/123 65/9/122
f 66/9/123 67/6/122 68/6/124
f 70/6/125 65/9/122 69/9/125
f 65/9/122 70/6/126 67/6/122
f 68/6/123 71/9/127 66/9/123
f 71/9/127 68/6/123 72/6/127
f 72/6/127 73/9/128 71/9/129
f 73/9/128 72/6/129 74/6/128
f 71/9/1 65/9/1 66/9/1
f 65/9/1 71/9/1 69/9/1
f 69/9/1 71/9/1 73/9/1
f 69/9/1 73/9/1 75/9/1
f 76/6/130 69/9/125 75/9/130
f 69/9/125 76/6/130 70/6/125
f 73/9/128 76/6/130 75/9/130
f 76/6/130 73/9/128 74/6/128
f 79/10/131 78/10/132 77/11/133
f 78/10/134 79/10/131 41/6/131
f 78/10/134 41/6/131 42/6/134
f 77/11/135 78/10/136 79/10/137
f 41/6/137 79/10/137 78/10/136
f 42/6/136 41/6/137 78/10/136
f 81/11/138 49/6/139 80/10/139
f 49/6/139 81/11/138 52/6/140
f 52/6/140 81/11/138 82/10/140
f 80/10/141 49/6/141 81/11/142
f 52/6/143 81/11/142 49/6/141
f 82/10/143 81/11/142 52/6/143
f 82/10/140 42/6/134 52/6/140
f 42/6/134 82/10/140 83/11/144
f 42/6/132 83/11/144 78/10/134
f 52/6/143 42/6/145 82/10/143
f 83/11/146 82/10/143 42/6/145
f 78/10/145 83/11/146 42/6/145
f 46/6/147 85/11/148 84/10/147
f 85/11/148 46/6/147 41/6/131
f 85/11/148 41/6/131 79/10/131
f 84/10/149 85/11/150 46/6/149
f 41/6/137 46/6/149 85/11/150
f 79/10/137 41/6/137 85/11/150
f 80/10/139 87/10/151 86/11/152
f 87/10/153 80/10/139 49/6/139
f 87/10/153 49/6/139 45/6/153
f 86/11/154 87/10/155 80/10/141
f 49/6/141 80/10/141 87/10/155
f 45/6/155 49/6/141 87/10/155
f 45/6/151 88/11/156 87/10/153
f 88/11/156 45/6/153 46/6/147
f 88/11/157 46/6/147 84/10/147
f 87/10/158 88/11/159 45/6/158
f 46/6/149 45/6/155 88/11/159
f 84/10/149 46/6/149 88/11/159
f 91/10/160 90/10/161 89/11/162
f 90/10/161 91/10/163 75/6/163
f 90/10/161 75/6/163 69/6/161
f 89/11/164 90/10/165 91/10/166
f 75/6/167 91/10/167 90/10/165
f 69/6/165 75/6/166 90/10/165
f 65/6/168 93/11/169 92/10/168
f 93/11/169 65/6/168 66/6/170
f 93/11/169 66/6/171 94/10/172
f 92/10/173 93/11/174 65/6/173
f 66/6/175 65/6/173 93/11/174
f 94/10/175 66/6/176 93/11/174
f 97/10/177 96/10/178 95/11/179
f 96/10/178 97/10/177 71/6/177
f 96/10/178 71/6/177 73/6/178
f 95/11/180 96/10/181 97/10/182
f 71/6/182 97/10/182 96/10/181
f 73/6/181 71/6/182 96/10/181
f 98/11/183 75/6/160 91/10/163
f 75/6/160 98/11/183 73/6/178
f 73/6/178 98/11/183 96/10/178
f 91/10/167 75/6/166 98/11/184
f 73/6/181 98/11/184 75/6/167
f 96/10/181 98/11/184 73/6/181
f 94/10/171 97/10/177 99/11/185
f 97/10/177 94/10/172 66/6/172
f 97/10/177 66/6/172 71/6/177
f 99/11/186 97/10/182 94/10/176
f 66/6/175 94/10/175 97/10/182
f 71/6/182 66/6/176 97/10/182
f 90/10/161 92/10/168 100/11/187
f 92/10/168 90/10/161 69/6/161
f 92/10/168 69/6/161 65/6/168
f 100/11/188 92/10/173 90/10/165
f 69/6/165 90/10/165 92/10/173
f 65/6/173 69/6/165 92/10/173
f 102/11/189 61/6/139 101/10/139
f 61/6/139 102/11/138 59/6/140
f 59/6/140 102/11/138 103/10/140
f 101/10/141 61/6/141 102/11/190
f 59/6/143 102/11/142 61/6/141
f 103/10/143 102/11/142 59/6/143
f 103/10/140 60/6/134 59/6/140
f 60/6/134 103/10/140 104/11/144
f 60/6/134 104/11/144 105/10/134
f 59/6/143 60/6/145 103/10/143
f 104/11/146 103/10/143 60/6/145
f 105/10/136 104/11/146 60/6/145
f 62/6/153 107/11/156 106/10/153
f 107/11/156 62/6/153 53/6/147
f 107/11/156 53/6/147 108/10/147
f 106/10/155 107/11/159 62/6/158
f 53/6/149 62/6/155 107/11/159
f 108/10/149 53/6/149 107/11/159
f 110/10/131 105/10/132 109/11/133
f 105/10/134 110/10/131 54/6/131
f 105/10/134 54/6/131 60/6/134
f 109/11/135 105/10/136 110/10/137
f 54/6/137 110/10/137 105/10/136
f 60/6/136 54/6/137 105/10/136
f 101/10/139 106/10/151 111/11/152
f 106/10/153 101/10/139 61/6/139
f 106/10/153 61/6/139 62/6/153
f 111/11/154 106/10/155 101/10/141
f 61/6/141 101/10/141 106/10/155
f 62/6/155 61/6/141 106/10/155
f 53/6/147 112/11/148 108/10/147
f 112/11/148 53/6/147 54/6/131
f 112/11/148 54/6/131 110/10/131
f 108/10/149 112/11/150 53/6/149
f 54/6/137 53/6/149 112/11/150
f 110/10/137 54/6/137 112/11/150
f 3/1/1 2/1/1 1/1/1
f 2/1/1 3/1/1 4/1/1
f 4/1/1 3/1/1 5/1/1
f 4/1/1 5/1/1 6/1/1
f 6/1/1 5/1/1 7/1/1
f 6/1/1 7/1/1 8/1/1
f 9/2/2 1/1/3 2/1/4
f 1/1/3 9/2/2 10/2/5
f 11/2/6 1/1/7 10/2/8
f 1/1/7 11/2/9 3/1/10
f 12/2/11 2/1/4 4/1/12
f 2/1/4 12/2/11 9/2/13
f 13/2/14 4/1/15 6/1/16
f 4/1/17 13/2/14 12/2/18
f 7/1/19 14/2/20 8/1/21
f 14/2/20 7/1/19 15/2/22
f 11/2/23 5/1/24 3/1/10
f 5/1/25 11/2/23 16/2/26
f 8/1/27 13/2/28 6/1/16
f 13/2/29 8/1/27 14/2/30
f 7/1/19 16/2/31 15/2/32
f 16/2/31 7/1/19 5/1/33
f 14/2/34 18/3/35 17/3/36
f 18/3/37 14/2/34 15/2/38
f 16/2/39 18/3/37 15/2/40
f 18/3/37 16/2/41 19/3/42
f 21/3/43 9/2/44 20/3/45
f 9/2/44 21/3/43 10/2/46
f 22/3/47 12/2/48 13/2/49
f 12/2/48 22/3/50 23/3/51
f 21/3/52 11/2/53 10/2/46
f 11/2/53 21/3/43 24/3/54
f 13/2/55 17/3/56 22/3/47
f 17/3/36 13/2/55 14/2/34
f 20/3/45 12/2/48 23/3/57
f 12/2/58 20/3/45 9/2/59
f 24/3/54 16/2/41 11/2/60
f 16/2/41 24/3/61 19/3/62
f 27/4/63 26/4/63 25/4/63
f 26/4/63 27/4/63 28/4/63
f 26/4/63 28/4/63 29/4/63
f 29/4/63 28/4/63 30/4/63
f 29/4/63 30/4/63 31/4/63
f 31/4/63 30/4/63 32/4/63
f 35/5/1 34/5/1 33/5/1
f 34/5/1 35/5/1 36/5/1
f 34/5/1 36/5/1 37/5/1
f 37/5/1 36/5/1 38/5/1
f 37/5/1 38/5/1 39/5/1
f 39/5/1 38/5/1 40/5/1
f 27/4/64 33/5/65 34/5/64
f 33/5/65 27/4/64 25/4/66
f 29/4/67 38/5/68 36/5/67
f 38/5/68 29/4/67 31/4/69
f 40/5/70 31/4/71 32/4/72
f 31/4/71 40/5/70 38/5/71
f 28/4/73 34/5/74 37/5/73
f 34/5/74 28/4/73 27/4/75
f 26/4/76 36/5/67 35/5/76
f 36/5/67 26/4/76 29/4/77
f 30/4/78 37/5/73 39/5/78
f 37/5/73 30/4/78 28/4/79
f 26/4/80 33/5/66 25/4/65
f 33/5/65 26/4/80 35/5/80
f 40/5/70 30/4/78 39/5/81
f 30/4/81 40/5/72 32/4/70
f 43/6/82 42/7/83 41/7/82
f 42/7/83 43/6/82 44/6/83
f 47/6/84 46/7/85 45/7/84
f 46/7/85 47/6/84 48/6/85
f 50/6/86 45/7/87 49/7/86
f 45/7/87 50/6/86 47/6/87
f 48/6/88 41/7/82 46/7/85
f 41/7/82 48/6/88 43/6/82
f 52/7/89 44/6/90 51/6/89
f 44/6/90 52/7/89 42/7/90
f 52/7/91 50/6/86 49/7/86
f 50/6/86 52/7/89 51/6/91
f 41/7/1 45/7/1 46/7/1
f 45/7/1 41/7/1 42/7/1
f 45/7/1 42/7/1 49/7/1
f 49/7/1 42/7/1 52/7/1
f 55/6/92 54/8/93 53/8/94
f 54/8/93 55/6/92 56/6/95
f 59/8/96 58/6/97 57/6/98
f 58/6/97 59/8/96 60/8/99
f 63/6/100 62/8/101 61/8/102
f 62/8/103 63/6/100 64/6/104
f 64/6/105 53/8/94 62/8/101
f 53/8/94 64/6/105 55/6/106
f 64/6/107 56/6/108 55/6/109
f 56/6/108 64/6/110 58/6/111
f 58/6/112 64/6/107 63/6/113
f 58/6/111 63/6/113 57/6/114
f 59/8/115 63/6/116 61/8/102
f 63/6/117 59/8/96 57/6/118
f 54/8/1 62/8/1 53/8/1
f 62/8/1 54/8/1 60/8/1
f 62/8/1 60/8/1 61/8/1
f 61/8/1 60/8/1 59/8/1
f 56/6/119 60/8/99 54/8/93
f 60/8/120 56/6/119 58/6/121
f 67/6/122 66/9/123 65/9/122
f 66/9/123 67/6/122 68/6/124
f 70/6/125 65/9/122 69/9/125
f 65/9/122 70/6/126 67/6/122
f 68/6/123 71/9/127 66/9/123
f 71/9/127 68/6/123 72/6/127
f 72/6/127 73/9/128 71/9/129
f 73/9/128 72/6/129 74/6/128
f 71/9/1 65/9/1 66/9/1
f 65/9/1 71/9/1 69/9/1
f 69/9/1 71/9/1 73/9/1
f 69/9/1 73/9/1 75/9/1
f 76/6/130 69/9/125 75/9/130
f 69/9/125 76/6/130 70/6/125
f 73/9/128 76/6/130 75/9/130
f 76/6/130 73/9/128 74/6/128
f 79/10/131 78/10/132 77/11/133
f 78/10/134 79/10/131 41/6/131
f 78/10/134 41/6/131 42/6/134
f 77/11/135 78/10/136 79/10/137
f 41/6/137 79/10/137 78/10/136
f 42/6/136 41/6/137 78/10/136
f 81/11/138 49/6/139 80/10/139
f 49/6/139 81/11/138 52/6/140
f 52/6/140 81/11/138 82/10/140
f 80/10/141 49/6/141 81/11/142
f 52/6/143 81/11/142 49/6/141
f 82/10/143 81/11/142 52/6/143
f 82/10/140 42/6/134 52/6/140
f 42/6/134 82/10/140 83/11/144
f 42/6/132 83/11/144 78/10/134
f 52/6/143 42/6/145 82/10/143
f 83/11/146 82/10/143 42/6/145
f 78/10/145 83/11/146 42/6/145
f 46/6/147 85/11/148 84/10/147
f 85/11/148 46/6/147 41/6/131
f 85/11/148 41/6/131 79/10/131
f 84/10/149 85/11/150 46/6/149
f 41/6/137 46/6/149 85/11/150
f 79/10/137 41/6/137 85/11/150
f 80/10/139 87/10/151 86/11/152
f 87/10/153 80/10/139 49/6/139
f 87/10/153 49/6/139 45/6/153
f 86/11/154 87/10/155 80/10/141
f 49/6/141 80/10/141 87/10/155
f 45/6/155 49/6/141 87/10/155
f 45/6/151 88/11/156 87/10/153
f 88/11/156 45/6/153 46/6/147
f 88/11/157 46/6/147 84/10/147
f 87/10/158 88/11/159 45/6/158
f 46/6/149 45/6/155 88/11/159
f 84/10/149 46/6/149 88/11/159
f 91/10/160 90/10/161 89/11/162
f 90/10/161 91/10/163 75/6/163
f 90/10/161 75/6/163 69/6/161
f 89/11/164 90/10/165 91/10/166
f 75/6/167 91/10/167 90/10/165
f 69/6/165 75/6/166 90/10/165
f 65/6/168 93/11/169 92/10/168
f 93/11/169 65/6/168 66/6/170
f 93/11/169 66/6/171 94/10/172
f 92/10/173 93/11/174 65/6/173
f 66/6/175 65/6/173 93/11/174
f 94/10/175 66/6/176 93/11/174
f 97/10/177 96/10/178 95/11/179
f 96/10/178 97/10/177 71/6/177
f 96/10/178 71/6/177 73/6/178
f 95/11/180 96/10/181 97/10/182
f 71/6/182 97/10/182 96/10/181
f 73/6/181 71/6/182 96/10/181
f 98/11/183 75/6/160 91/10/163
f 75/6/160 98/11/183 73/6/178
f 73/6/178 98/11/183 96/10/178
f 91/10/167 75/6/166 98/11/184
f 73/6/181 98/11/184 75/6/167
f 96/10/181 98/11/184 73/6/181
f 94/10/171 97/10/177 99/11/185
f 97/10/177 94/10/172 66/6/172
f 97/10/177 66/6/172 71/6/177
f 99/11/186 97/10/182 94/10/176
f 66/6/175 94/10/175 97/10/182
f 71/6/182 66/6/176 97/10/182
f 90/10/161 92/10/168 100/11/187
f 92/10/168 90/10/161 69/6/161
f 92/10/168 69/6/161 65/6/168
f 100/11/188 92/10/173 90/10/165
f 69/6/165 90/10/165 92/10/173
f 65/6/173 69/6/165 92/10/173
f 102/11/189 61/6/139 101/10/139
f 61/6/139 102/11/138 59/6/140
f 59/6/140 102/11/138 103/10/140
f 101/10/141 61/6/141 102/11/190
f 59/6/143 102/11/142 61/6/141
f 103/10/143 102/11/142 59/6/143
f 103/10/140 60/6/134 59/6/140
f 60/6/134 103/10/140 104/11/144
f 60/6/134 104/11/144 105/10/134
f 59/6/143 60/6/145 103/10/143
f 104/11/146 103/10/143 60/6/145
f 105/10/136 104/11/146 60/6/145
f 62/6/153 107/11/156 106/10/153
f 107/11/156 62/6/153 53/6/147
f 107/11/156 53/6/147 108/10/147
f 106/10/155 107/11/159 62/6/158
f 53/6/149 62/6/155 107/11/159
f 108/10/149 53/6/149 107/11/159
f 110/10/131 105/10/132 109/11/133
f 105/10/134 110/10/131 54/6/131
f 105/10/134 54/6/131 60/6/134
f 109/11/135 105/10/136 110/10/137
f 54/6/137 110/10/137 105/10/136
f 60/6/136 54/6/137 105/10/136
f 101/10/139 106/10/151 111/11/152
f 106/10/153 101/10/139 61/6/139
f 106/10/153 61/6/139 62/6/153
f 111/11/154 106/10/155 101/10/141
f 61/6/141 101/10/141 106/10/155
f 62/6/155 61/6/141 106/10/155
f 53/6/147 112/11/148 108/10/147
f 112/11/148 53/6/147 54/6/131
f 112/11/148 54/6/131 110/10/131
f 108/10/149 112/11/150 53/6/149
f 54/6/137 53/6/149 112/11/150
f 110/10/137 54/6/137 112/11/150
