# Blender 4.1.1
# www.blender.org
mtllib tree.075.mtl
o tree.074
v 11.345911 -0.295190 -21.270039
v 11.544071 -0.295190 -21.416111
v 11.173796 -0.295190 -21.296083
v 11.570115 -0.295190 -21.588226
v 11.027724 -0.295190 -21.494244
v 11.424044 -0.295190 -21.786386
v 11.053768 -0.295190 -21.666359
v 11.251928 -0.295190 -21.812431
v 11.421495 0.150532 -21.478674
v 11.322415 0.150532 -21.405638
v 11.236358 0.150532 -21.418659
v 11.434518 0.150532 -21.564732
v 11.361482 0.150532 -21.663811
v 11.275424 0.150532 -21.676832
v 11.176344 0.150532 -21.603796
v 11.163321 0.150532 -21.517738
v 11.269549 0.819166 -21.710732
v 11.145700 0.819166 -21.619438
v 11.129422 0.819166 -21.511866
v 11.452139 0.819166 -21.463032
v 11.328289 0.819166 -21.371738
v 11.377122 0.819166 -21.694454
v 11.468417 0.819166 -21.570604
v 11.220717 0.819166 -21.388016
v 11.468071 0.309673 -21.413166
v 11.374308 0.309673 -21.389971
v 11.517969 0.309673 -21.495869
v 11.494773 0.309673 -21.589630
v 11.291606 0.309673 -21.439869
v 11.412070 0.309673 -21.639530
v 11.268410 0.309673 -21.533630
v 11.318308 0.309673 -21.616333
v 11.510485 0.147933 -21.355627
v 11.588646 0.147933 -21.485174
v 11.363613 0.147933 -21.319292
v 11.234067 0.147933 -21.397453
v 11.552312 0.147933 -21.632046
v 11.197732 0.147933 -21.544325
v 11.422766 0.147933 -21.710207
v 11.275894 0.147933 -21.673872
v 11.046350 0.819166 -20.989065
v 10.682581 0.819166 -21.482552
v 11.146999 1.556122 -21.219391
v 10.932374 1.556122 -21.510550
v 11.901095 0.819166 -21.619131
v 11.655608 0.819166 -21.057354
v 11.651302 1.556122 -21.591133
v 11.506464 1.556122 -21.259682
v 11.537326 0.819166 -22.112619
v 11.436677 1.556122 -21.882294
v 11.077212 1.556122 -21.842001
v 10.928068 0.819166 -22.044329
v 11.501588 2.347869 -21.266296
v 11.150290 2.347869 -21.226919
v 11.340049 3.178330 -21.485439
v 11.259303 3.178330 -21.476389
v 11.243628 3.178330 -21.616243
v 11.211093 3.178330 -21.541792
v 11.082088 2.347869 -21.835388
v 10.940539 2.347869 -21.511465
v 11.433387 2.347869 -21.874763
v 11.643137 2.347869 -21.590218
v 11.324372 3.178330 -21.625294
v 11.372582 3.178330 -21.559893
v 11.748568 1.556122 -21.351259
v 11.347359 1.556122 -21.055511
v 11.501117 2.347869 -21.459391
v 11.317278 2.347869 -21.323875
v 11.693048 1.556122 -21.846590
v 11.475677 2.347869 -21.686357
v 10.890629 1.556122 -21.255095
v 11.108000 2.347869 -21.415327
v 10.835108 1.556122 -21.750425
v 11.082560 2.347869 -21.642294
v 11.236318 1.556122 -22.046173
v 11.266397 2.347869 -21.777807
v 10.770444 0.589264 -21.166500
v 10.615562 0.704215 -21.475040
v 11.019346 0.704215 -20.927269
v 11.564329 0.704215 -22.174416
v 11.219686 0.589264 -22.194553
v 10.888054 0.704215 -22.098614
v 10.698292 0.589264 -21.810213
v 11.695622 0.704215 -21.003071
v 11.363990 0.589264 -20.907131
v 11.813232 0.589264 -21.935183
v 11.968114 0.704215 -21.626644
v 11.885385 0.589264 -21.291471
v 11.502708 1.369209 -22.033400
v 11.737181 1.462665 -21.879122
v 11.230210 1.462665 -22.100660
v 11.798808 1.462665 -21.329304
v 11.604311 1.369209 -21.126944
v 11.353466 1.462665 -21.001024
v 10.768496 1.369209 -21.492182
v 10.784868 1.462665 -21.772379
v 10.846496 1.462665 -21.222561
v 10.979365 1.369209 -21.974739
v 11.080968 1.369209 -21.068283
v 11.815181 1.369209 -21.609503
v 11.448957 2.281588 -21.910395
v 11.250235 2.215307 -21.922007
v 11.059015 2.281588 -21.866688
v 10.949598 2.215307 -21.700396
v 10.901896 2.281588 -21.507133
v 11.681780 2.281588 -21.594549
v 11.634078 2.215307 -21.401289
v 11.524661 2.281588 -21.234997
v 10.991201 2.215307 -21.329229
v 11.134719 2.281588 -21.191288
v 11.592475 2.215307 -21.772453
v 11.333441 2.215307 -21.179676
vn -0.0000 -1.0000 -0.0000
vn 0.8155 0.2942 0.4984
vn 0.2253 0.2944 0.9288
vn 0.8205 0.2944 0.4900
vn 0.2253 0.2944 0.9287
vn 0.2349 0.2942 0.9264
vn -0.4983 0.2942 0.8155
vn 0.2252 0.2944 0.9288
vn 0.2348 0.2942 0.9265
vn -0.4899 0.2944 0.8206
vn 0.9265 0.2942 -0.2348
vn 0.8206 0.2944 0.4899
vn 0.9288 0.2944 -0.2252
vn 0.8206 0.2945 0.4899
vn 0.9264 0.2942 -0.2348
vn 0.8155 0.2942 0.4983
vn 0.4984 0.2942 -0.8155
vn 0.9288 0.2944 -0.2253
vn 0.4900 0.2944 -0.8205
vn 0.9287 0.2944 -0.2253
vn 0.9264 0.2942 -0.2349
vn -0.8205 0.2944 -0.4900
vn -0.2349 0.2942 -0.9264
vn -0.2253 0.2944 -0.9288
vn -0.8155 0.2942 -0.4984
vn -0.4984 0.2942 0.8155
vn -0.9288 0.2944 0.2253
vn -0.4900 0.2944 0.8205
vn -0.9264 0.2942 0.2349
vn -0.2252 0.2944 -0.9288
vn 0.4984 0.2943 -0.8155
vn 0.4899 0.2944 -0.8206
vn 0.4983 0.2942 -0.8155
vn -0.2348 0.2942 -0.9265
vn -0.8206 0.2945 -0.4899
vn -0.9264 0.2942 0.2348
vn -0.8155 0.2942 -0.4983
vn -0.9265 0.2942 0.2348
vn -0.8205 0.2944 -0.4899
vn -0.9288 0.2944 0.2252
vn -0.2407 -0.0513 -0.9692
vn -0.8555 -0.0512 -0.5152
vn -0.2390 -0.0513 -0.9697
vn -0.8555 -0.0513 -0.5152
vn -0.2408 -0.0513 -0.9692
vn -0.8546 -0.0513 -0.5167
vn -0.9692 -0.0512 0.2407
vn -0.8556 -0.0513 -0.5152
vn -0.8546 -0.0512 -0.5167
vn -0.9692 -0.0513 0.2407
vn -0.9697 -0.0512 0.2390
vn 0.2390 -0.0512 0.9697
vn 0.8546 -0.0513 0.5167
vn 0.8555 -0.0513 0.5152
vn 0.2407 -0.0513 0.9692
vn 0.5152 -0.0513 -0.8555
vn 0.9692 -0.0513 -0.2407
vn 0.5167 -0.0513 -0.8546
vn 0.9692 -0.0513 -0.2408
vn 0.5152 -0.0512 -0.8555
vn 0.9697 -0.0513 -0.2390
vn 0.2390 -0.0513 0.9697
vn -0.5167 -0.0513 0.8546
vn 0.2407 -0.0512 0.9692
vn -0.5152 -0.0513 0.8556
vn -0.2390 -0.0512 -0.9697
vn 0.5152 -0.0513 -0.8556
vn -0.2407 -0.0512 -0.9692
vn 0.8556 -0.0513 0.5152
vn 0.9697 -0.0512 -0.2390
vn 0.9692 -0.0512 -0.2407
vn 0.8546 -0.0512 0.5167
vn -0.5152 -0.0513 0.8555
vn -0.9692 -0.0513 0.2408
vn -0.5152 -0.0512 0.8555
vn -0.9697 -0.0513 0.2390
vn -0.0000 1.0000 -0.0000
vn 0.9044 0.4042 0.1369
vn 0.5427 0.4042 0.7362
vn 0.5427 0.4043 0.7362
vn -0.7363 0.4042 0.5427
vn -0.9044 0.4042 -0.1368
vn -0.7362 0.4042 0.5427
vn -0.9043 0.4043 -0.1368
vn -0.5427 0.4042 -0.7362
vn -0.9044 0.4042 -0.1369
vn -0.5427 0.4043 -0.7362
vn 0.7363 0.4042 -0.5427
vn 0.9044 0.4042 0.1368
vn 0.9043 0.4043 0.1368
vn -0.1369 0.4042 0.9044
vn -0.1369 0.4043 0.9043
vn -0.7362 0.4043 0.5427
vn 0.1369 0.4042 -0.9044
vn 0.7362 0.4042 -0.5427
vn 0.7362 0.4043 -0.5427
vn -0.1368 0.4042 0.9044
vn 0.5427 0.4043 0.7363
vn 0.5427 0.4042 0.7363
vn -0.1368 0.4043 0.9044
vn -0.5427 0.4042 -0.7363
vn 0.1368 0.4043 -0.9044
vn 0.1368 0.4042 -0.9044
vn -0.3790 0.3228 0.8673
vn -0.9406 0.3228 0.1054
vn 0.9406 0.3228 -0.1054
vn 0.5616 0.3228 0.7618
vn 0.5616 0.3228 0.7619
vn 0.3790 0.3228 -0.8673
vn -0.5616 0.3228 -0.7618
vn -0.5616 0.3228 -0.7619
vn 0.4081 0.7260 0.5536
vn -0.3805 0.3115 0.8708
vn 0.5638 0.3115 0.7649
vn -0.3805 0.3115 0.8707
vn -0.2754 0.7260 0.6302
vn -0.5638 0.3115 -0.7649
vn -0.6835 0.7260 0.0766
vn -0.4080 0.7260 -0.5536
vn -0.6834 0.7260 0.0766
vn -0.9443 0.3115 0.1058
vn 0.2753 0.7260 -0.6302
vn 0.9443 0.3115 -0.1059
vn 0.3805 0.3115 -0.8707
vn 0.6835 0.7260 -0.0766
vn 0.6834 0.7260 -0.0766
vn 0.9443 0.3115 -0.1058
vn 0.5639 0.3115 0.7649
vn 0.6835 0.7260 -0.0767
vn 0.4080 0.7260 0.5536
vn 0.6835 0.7259 -0.0766
vn 0.4081 0.7259 0.5536
vn -0.2754 0.7259 0.6302
vn -0.6835 0.7259 0.0766
vn 0.2754 0.7259 -0.6302
vn -0.4080 0.7259 -0.5536
vn -0.5638 0.3116 -0.7649
vn 0.2754 0.7260 -0.6302
vn 0.3805 0.3115 -0.8708
vn 0.2753 0.7260 -0.6301
vn -0.4080 0.7260 -0.5535
vn -0.2753 0.7260 0.6302
vn -0.9443 0.3115 0.1059
vn 0.8673 0.3228 0.3790
vn 0.1054 0.3228 0.9406
vn 0.7618 0.3228 -0.5616
vn 0.7619 0.3228 -0.5616
vn -0.7618 0.3228 0.5616
vn -0.8673 0.3228 -0.3790
vn -0.7619 0.3228 0.5616
vn -0.1054 0.3228 -0.9406
vn -0.3454 0.5060 0.7904
vn -0.8571 0.5060 0.0961
vn -0.7176 0.4530 0.5290
vn -0.8572 0.5060 0.0961
vn 0.7176 -0.4530 -0.5290
vn 0.8572 -0.5060 -0.0961
vn 0.3454 -0.5060 -0.7903
vn 0.3454 -0.5060 -0.7904
vn -0.0993 0.4529 -0.8860
vn 0.3454 0.5060 -0.7904
vn 0.3454 0.5061 -0.7903
vn -0.0993 0.4530 -0.8860
vn -0.5118 0.5060 -0.6943
vn -0.3454 -0.5060 0.7904
vn 0.0993 -0.4530 0.8860
vn 0.5118 -0.5060 0.6943
vn 0.0993 -0.4529 0.8860
vn -0.8169 0.4530 -0.3570
vn 0.8571 -0.5060 -0.0961
vn 0.8169 -0.4530 0.3570
vn 0.5118 0.5060 0.6943
vn 0.0993 0.4530 0.8860
vn -0.3454 0.5060 0.7903
vn -0.5118 -0.5060 -0.6943
vn -0.0993 -0.4530 -0.8860
vn 0.8571 0.5060 -0.0961
vn 0.7176 0.4530 -0.5290
vn 0.8572 0.5060 -0.0961
vn -0.7176 -0.4530 0.5290
vn -0.8572 -0.5060 0.0961
vn -0.3454 -0.5060 0.7903
vn 0.8169 0.4530 0.3570
vn -0.8169 -0.4530 -0.3570
vn -0.8571 -0.5060 0.0961
vn -0.0961 0.5060 -0.8572
vn 0.6943 0.5060 -0.5118
vn 0.3570 0.4530 -0.8169
vn -0.0961 0.5060 -0.8571
vn -0.3570 -0.4530 0.8169
vn -0.6943 -0.5060 0.5118
vn 0.0961 -0.5060 0.8572
vn 0.0961 -0.5060 0.8571
vn 0.7903 0.5060 0.3454
vn 0.5290 0.4530 0.7176
vn 0.7904 0.5060 0.3454
vn 0.5290 0.4529 0.7176
vn 0.0961 0.5060 0.8571
vn 0.0961 0.5061 0.8571
vn -0.7903 -0.5060 -0.3454
vn -0.5290 -0.4530 -0.7176
vn -0.7903 -0.5061 -0.3454
vn -0.0961 -0.5060 -0.8572
vn -0.7904 -0.5060 -0.3454
vn -0.5290 -0.4529 -0.7176
vn -0.0961 -0.5060 -0.8571
vn -0.6943 0.5060 0.5118
vn -0.7903 0.5060 -0.3454
vn -0.8860 0.4530 0.0993
vn -0.7904 0.5060 -0.3454
vn 0.8860 -0.4530 -0.0993
vn 0.7904 -0.5060 0.3454
vn 0.6943 -0.5060 -0.5118
vn -0.5290 0.4530 -0.7176
vn -0.0961 0.5061 -0.8571
vn -0.5290 0.4529 -0.7176
vn 0.5290 -0.4530 0.7176
vn -0.6943 0.5061 0.5118
vn -0.3570 0.4530 0.8169
vn 0.0961 0.5060 0.8572
vn 0.3570 -0.4530 -0.8169
vn -0.0961 -0.5061 -0.8571
vn 0.8860 0.4530 -0.0993
vn -0.8860 -0.4530 0.0993
vn 0.3454 0.5060 -0.7903
vn -0.5118 0.5061 -0.6942
vn 0.5118 -0.5061 0.6943
vn -0.8169 0.4529 -0.3570
vn 0.8169 -0.4529 0.3570
vn 0.5118 0.5061 0.6943
vn 0.7176 -0.4529 -0.5290
vn -0.7176 -0.4529 0.5290
vn 0.0993 0.4529 0.8860
vn -0.3454 0.5061 0.7903
vn -0.0993 -0.4529 -0.8860
vt 0.593750 0.025000
vt 0.593750 0.104996
vt 0.593750 0.225000
vt 0.093750 0.475000
vt 0.093750 0.275000
vt 0.093750 0.425000
vt 0.093750 0.348778
vt 0.093750 0.338765
vt 0.093750 0.344099
vt 0.093750 0.375000
vt 0.093750 0.325000
s 0
usemtl colormap.091
f 3/1/1 2/1/1 1/1/1
f 2/1/1 3/1/1 4/1/1
f 4/1/1 3/1/1 5/1/1
f 4/1/1 5/1/1 6/1/1
f 6/1/1 5/1/1 7/1/1
f 6/1/1 7/1/1 8/1/1
f 9/2/2 1/1/3 2/1/4
f 1/1/5 9/2/2 10/2/6
f 11/2/7 1/1/8 10/2/9
f 1/1/8 11/2/7 3/1/10
f 12/2/11 2/1/12 4/1/13
f 2/1/14 12/2/15 9/2/16
f 13/2/17 4/1/18 6/1/19
f 4/1/20 13/2/17 12/2/21
f 7/1/22 14/2/23 8/1/24
f 14/2/23 7/1/22 15/2/25
f 11/2/26 5/1/27 3/1/28
f 5/1/27 11/2/26 16/2/29
f 8/1/30 13/2/31 6/1/32
f 13/2/33 8/1/30 14/2/34
f 7/1/35 16/2/36 15/2/37
f 16/2/38 7/1/39 5/1/40
f 14/2/41 18/3/42 17/3/43
f 18/3/44 14/2/45 15/2/46
f 16/2/47 18/3/48 15/2/49
f 18/3/48 16/2/50 19/3/51
f 21/3/52 9/2/53 20/3/54
f 9/2/53 21/3/52 10/2/55
f 22/3/56 12/2/57 13/2/58
f 12/2/59 22/3/60 23/3/61
f 21/3/62 11/2/63 10/2/64
f 11/2/63 21/3/52 24/3/65
f 13/2/58 17/3/66 22/3/67
f 17/3/43 13/2/58 14/2/68
f 20/3/69 12/2/57 23/3/70
f 12/2/71 20/3/69 9/2/72
f 24/3/73 16/2/50 11/2/63
f 16/2/74 24/3/75 19/3/76
f 27/4/77 26/4/77 25/4/77
f 26/4/77 27/4/77 28/4/77
f 26/4/77 28/4/77 29/4/77
f 29/4/77 28/4/77 30/4/77
f 29/4/77 30/4/77 31/4/77
f 31/4/77 30/4/77 32/4/77
f 35/5/1 34/5/1 33/5/1
f 34/5/1 35/5/1 36/5/1
f 34/5/1 36/5/1 37/5/1
f 37/5/1 36/5/1 38/5/1
f 37/5/1 38/5/1 39/5/1
f 39/5/1 38/5/1 40/5/1
f 27/4/78 33/5/79 34/5/78
f 33/5/79 27/4/78 25/4/80
f 29/4/81 38/5/82 36/5/81
f 38/5/82 29/4/83 31/4/84
f 40/5/85 31/4/86 32/4/87
f 31/4/86 40/5/85 38/5/86
f 28/4/88 34/5/89 37/5/88
f 34/5/89 28/4/88 27/4/90
f 26/4/91 36/5/83 35/5/92
f 36/5/83 26/4/91 29/4/93
f 30/4/94 37/5/95 39/5/94
f 37/5/95 30/4/94 28/4/96
f 26/4/97 33/5/98 25/4/99
f 33/5/99 26/4/100 35/5/97
f 40/5/101 30/4/102 39/5/103
f 30/4/103 40/5/101 32/4/101
f 43/6/104 42/7/105 41/7/104
f 42/7/105 43/6/104 44/6/105
f 47/6/106 46/7/107 45/7/106
f 46/7/108 47/6/106 48/6/107
f 50/6/109 45/7/106 49/7/109
f 45/7/106 50/6/109 47/6/106
f 48/6/108 41/7/104 46/7/108
f 41/7/104 48/6/108 43/6/104
f 52/7/110 44/6/105 51/6/110
f 44/6/105 52/7/110 42/7/105
f 52/7/111 50/6/109 49/7/109
f 50/6/109 52/7/110 51/6/111
f 41/7/1 45/7/1 46/7/1
f 45/7/1 41/7/1 42/7/1
f 45/7/1 42/7/1 49/7/1
f 49/7/1 42/7/1 52/7/1
f 55/6/112 54/8/113 53/8/114
f 54/8/115 55/6/112 56/6/116
f 59/8/117 58/6/118 57/6/119
f 58/6/120 59/8/117 60/8/121
f 63/6/122 62/8/123 61/8/124
f 62/8/123 63/6/122 64/6/125
f 64/6/126 53/8/114 62/8/127
f 53/8/128 64/6/129 55/6/130
f 64/6/131 56/6/116 55/6/132
f 56/6/133 64/6/131 58/6/134
f 58/6/134 64/6/125 63/6/135
f 58/6/118 63/6/135 57/6/136
f 59/8/137 63/6/138 61/8/139
f 63/6/140 59/8/117 57/6/141
f 54/8/1 62/8/1 53/8/1
f 62/8/1 54/8/1 60/8/1
f 62/8/1 60/8/1 61/8/1
f 61/8/1 60/8/1 59/8/1
f 56/6/142 60/8/143 54/8/115
f 60/8/143 56/6/142 58/6/118
f 67/6/144 66/9/145 65/9/144
f 66/9/145 67/6/144 68/6/145
f 70/6/146 65/9/144 69/9/147
f 65/9/144 70/6/147 67/6/144
f 68/6/145 71/9/148 66/9/145
f 71/9/148 68/6/145 72/6/148
f 72/6/148 73/9/149 71/9/150
f 73/9/149 72/6/150 74/6/149
f 71/9/1 65/9/1 66/9/1
f 65/9/1 71/9/1 69/9/1
f 69/9/1 71/9/1 73/9/1
f 69/9/1 73/9/1 75/9/1
f 76/6/151 69/9/146 75/9/151
f 69/9/146 76/6/151 70/6/146
f 73/9/149 76/6/151 75/9/151
f 76/6/151 73/9/149 74/6/149
f 79/10/152 78/10/153 77/11/154
f 78/10/155 79/10/152 41/6/152
f 78/10/155 41/6/152 42/6/155
f 77/11/156 78/10/157 79/10/158
f 41/6/159 79/10/159 78/10/157
f 42/6/157 41/6/158 78/10/157
f 81/11/160 49/6/161 80/10/161
f 49/6/162 81/11/163 52/6/164
f 52/6/164 81/11/160 82/10/164
f 80/10/165 49/6/165 81/11/166
f 52/6/167 81/11/166 49/6/165
f 82/10/167 81/11/168 52/6/167
f 82/10/164 42/6/155 52/6/164
f 42/6/155 82/10/164 83/11/169
f 42/6/153 83/11/169 78/10/155
f 52/6/167 42/6/170 82/10/167
f 83/11/171 82/10/167 42/6/170
f 78/10/170 83/11/171 42/6/170
f 46/6/172 85/11/173 84/10/172
f 85/11/173 46/6/172 41/6/174
f 85/11/173 41/6/174 79/10/152
f 84/10/175 85/11/176 46/6/175
f 41/6/159 46/6/175 85/11/176
f 79/10/159 41/6/159 85/11/176
f 80/10/161 87/10/177 86/11/178
f 87/10/179 80/10/161 49/6/161
f 87/10/179 49/6/161 45/6/179
f 86/11/180 87/10/181 80/10/182
f 49/6/165 80/10/165 87/10/181
f 45/6/181 49/6/182 87/10/181
f 45/6/177 88/11/183 87/10/179
f 88/11/183 45/6/179 46/6/172
f 88/11/183 46/6/172 84/10/172
f 87/10/181 88/11/184 45/6/185
f 46/6/175 45/6/181 88/11/184
f 84/10/175 46/6/175 88/11/184
f 91/10/186 90/10/187 89/11/188
f 90/10/187 91/10/189 75/6/189
f 90/10/187 75/6/186 69/6/187
f 89/11/190 90/10/191 91/10/192
f 75/6/193 91/10/193 90/10/191
f 69/6/191 75/6/193 90/10/191
f 65/6/194 93/11/195 92/10/196
f 93/11/197 65/6/196 66/6/198
f 93/11/195 66/6/199 94/10/198
f 92/10/200 93/11/201 65/6/202
f 66/6/203 65/6/204 93/11/205
f 94/10/203 66/6/206 93/11/201
f 97/10/207 96/10/208 95/11/209
f 96/10/210 97/10/207 71/6/207
f 96/10/210 71/6/207 73/6/210
f 95/11/211 96/10/212 97/10/213
f 71/6/213 97/10/213 96/10/212
f 73/6/212 71/6/213 96/10/212
f 98/11/214 75/6/215 91/10/189
f 75/6/189 98/11/214 73/6/210
f 73/6/210 98/11/216 96/10/210
f 91/10/192 75/6/193 98/11/217
f 73/6/212 98/11/217 75/6/192
f 96/10/212 98/11/217 73/6/212
f 94/10/198 97/10/218 99/11/219
f 97/10/207 94/10/220 66/6/220
f 97/10/207 66/6/198 71/6/207
f 99/11/221 97/10/213 94/10/206
f 66/6/203 94/10/203 97/10/213
f 71/6/213 66/6/222 97/10/213
f 90/10/187 92/10/194 100/11/223
f 92/10/196 90/10/187 69/6/187
f 92/10/196 69/6/187 65/6/196
f 100/11/224 92/10/204 90/10/191
f 69/6/191 90/10/191 92/10/204
f 65/6/204 69/6/191 92/10/204
f 102/11/160 61/6/161 101/10/161
f 61/6/225 102/11/163 59/6/164
f 59/6/226 102/11/163 103/10/164
f 101/10/165 61/6/165 102/11/168
f 59/6/167 102/11/166 61/6/165
f 103/10/227 102/11/166 59/6/227
f 103/10/164 60/6/155 59/6/164
f 60/6/155 103/10/164 104/11/169
f 60/6/155 104/11/228 105/10/155
f 59/6/167 60/6/157 103/10/167
f 104/11/171 103/10/167 60/6/170
f 105/10/157 104/11/229 60/6/157
f 62/6/177 107/11/183 106/10/179
f 107/11/183 62/6/179 53/6/172
f 107/11/183 53/6/230 108/10/172
f 106/10/185 107/11/184 62/6/185
f 53/6/175 62/6/181 107/11/184
f 108/10/175 53/6/175 107/11/184
f 110/10/152 105/10/153 109/11/154
f 105/10/155 110/10/152 54/6/152
f 105/10/155 54/6/152 60/6/155
f 109/11/231 105/10/157 110/10/159
f 54/6/159 110/10/159 105/10/157
f 60/6/157 54/6/159 105/10/157
f 101/10/161 106/10/177 111/11/178
f 106/10/179 101/10/161 61/6/161
f 106/10/179 61/6/161 62/6/179
f 111/11/232 106/10/181 101/10/165
f 61/6/165 101/10/165 106/10/181
f 62/6/181 61/6/182 106/10/181
f 53/6/172 112/11/233 108/10/172
f 112/11/173 53/6/172 54/6/234
f 112/11/233 54/6/152 110/10/152
f 108/10/175 112/11/235 53/6/175
f 54/6/159 53/6/175 112/11/176
f 110/10/159 54/6/159 112/11/235
f 3/1/1 2/1/1 1/1/1
f 2/1/1 3/1/1 4/1/1
f 4/1/1 3/1/1 5/1/1
f 4/1/1 5/1/1 6/1/1
f 6/1/1 5/1/1 7/1/1
f 6/1/1 7/1/1 8/1/1
f 9/2/2 1/1/3 2/1/4
f 1/1/5 9/2/2 10/2/6
f 11/2/7 1/1/8 10/2/9
f 1/1/8 11/2/7 3/1/10
f 12/2/11 2/1/12 4/1/13
f 2/1/14 12/2/15 9/2/16
f 13/2/17 4/1/18 6/1/19
f 4/1/20 13/2/17 12/2/21
f 7/1/22 14/2/23 8/1/24
f 14/2/23 7/1/22 15/2/25
f 11/2/26 5/1/27 3/1/28
f 5/1/27 11/2/26 16/2/29
f 8/1/30 13/2/31 6/1/32
f 13/2/33 8/1/30 14/2/34
f 7/1/35 16/2/36 15/2/37
f 16/2/38 7/1/39 5/1/40
f 14/2/41 18/3/42 17/3/43
f 18/3/44 14/2/45 15/2/46
f 16/2/47 18/3/48 15/2/49
f 18/3/48 16/2/50 19/3/51
f 21/3/52 9/2/53 20/3/54
f 9/2/53 21/3/52 10/2/55
f 22/3/56 12/2/57 13/2/58
f 12/2/59 22/3/60 23/3/61
f 21/3/62 11/2/63 10/2/64
f 11/2/63 21/3/52 24/3/65
f 13/2/58 17/3/66 22/3/67
f 17/3/43 13/2/58 14/2/68
f 20/3/69 12/2/57 23/3/70
f 12/2/71 20/3/69 9/2/72
f 24/3/73 16/2/50 11/2/63
f 16/2/74 24/3/75 19/3/76
f 27/4/77 26/4/77 25/4/77
f 26/4/77 27/4/77 28/4/77
f 26/4/77 28/4/77 29/4/77
f 29/4/77 28/4/77 30/4/77
f 29/4/77 30/4/77 31/4/77
f 31/4/77 30/4/77 32/4/77
f 35/5/1 34/5/1 33/5/1
f 34/5/1 35/5/1 36/5/1
f 34/5/1 36/5/1 37/5/1
f 37/5/1 36/5/1 38/5/1
f 37/5/1 38/5/1 39/5/1
f 39/5/1 38/5/1 40/5/1
f 27/4/78 33/5/79 34/5/78
f 33/5/79 27/4/78 25/4/80
f 29/4/81 38/5/82 36/5/81
f 38/5/82 29/4/83 31/4/84
f 40/5/85 31/4/86 32/4/87
f 31/4/86 40/5/85 38/5/86
f 28/4/88 34/5/89 37/5/88
f 34/5/89 28/4/88 27/4/90
f 26/4/91 36/5/83 35/5/92
f 36/5/83 26/4/91 29/4/93
f 30/4/94 37/5/95 39/5/94
f 37/5/95 30/4/94 28/4/96
f 26/4/97 33/5/98 25/4/99
f 33/5/99 26/4/100 35/5/97
f 40/5/101 30/4/102 39/5/103
f 30/4/103 40/5/101 32/4/101
f 43/6/104 42/7/105 41/7/104
f 42/7/105 43/6/104 44/6/105
f 47/6/106 46/7/107 45/7/106
f 46/7/108 47/6/106 48/6/107
f 50/6/109 45/7/106 49/7/109
f 45/7/106 50/6/109 47/6/106
f 48/6/108 41/7/104 46/7/108
f 41/7/104 48/6/108 43/6/104
f 52/7/110 44/6/105 51/6/110
f 44/6/105 52/7/110 42/7/105
f 52/7/111 50/6/109 49/7/109
f 50/6/109 52/7/110 51/6/111
f 41/7/1 45/7/1 46/7/1
f 45/7/1 41/7/1 42/7/1
f 45/7/1 42/7/1 49/7/1
f 49/7/1 42/7/1 52/7/1
f 55/6/112 54/8/113 53/8/114
f 54/8/115 55/6/112 56/6/116
f 59/8/117 58/6/118 57/6/119
f 58/6/120 59/8/117 60/8/121
f 63/6/122 62/8/123 61/8/124
f 62/8/123 63/6/122 64/6/125
f 64/6/126 53/8/114 62/8/127
f 53/8/128 64/6/129 55/6/130
f 64/6/131 56/6/116 55/6/132
f 56/6/133 64/6/131 58/6/134
f 58/6/134 64/6/125 63/6/135
f 58/6/118 63/6/135 57/6/136
f 59/8/137 63/6/138 61/8/139
f 63/6/140 59/8/117 57/6/141
f 54/8/1 62/8/1 53/8/1
f 62/8/1 54/8/1 60/8/1
f 62/8/1 60/8/1 61/8/1
f 61/8/1 60/8/1 59/8/1
f 56/6/142 60/8/143 54/8/115
f 60/8/143 56/6/142 58/6/118
f 67/6/144 66/9/145 65/9/144
f 66/9/145 67/6/144 68/6/145
f 70/6/146 65/9/144 69/9/147
f 65/9/144 70/6/147 67/6/144
f 68/6/145 71/9/148 66/9/145
f 71/9/148 68/6/145 72/6/148
f 72/6/148 73/9/149 71/9/150
f 73/9/149 72/6/150 74/6/149
f 71/9/1 65/9/1 66/9/1
f 65/9/1 71/9/1 69/9/1
f 69/9/1 71/9/1 73/9/1
f 69/9/1 73/9/1 75/9/1
f 76/6/151 69/9/146 75/9/151
f 69/9/146 76/6/151 70/6/146
f 73/9/149 76/6/151 75/9/151
f 76/6/151 73/9/149 74/6/149
f 79/10/152 78/10/153 77/11/154
f 78/10/155 79/10/152 41/6/152
f 78/10/155 41/6/152 42/6/155
f 77/11/156 78/10/157 79/10/158
f 41/6/159 79/10/159 78/10/157
f 42/6/157 41/6/158 78/10/157
f 81/11/160 49/6/161 80/10/161
f 49/6/162 81/11/163 52/6/164
f 52/6/164 81/11/160 82/10/164
f 80/10/165 49/6/165 81/11/166
f 52/6/167 81/11/166 49/6/165
f 82/10/167 81/11/168 52/6/167
f 82/10/164 42/6/155 52/6/164
f 42/6/155 82/10/164 83/11/169
f 42/6/153 83/11/169 78/10/155
f 52/6/167 42/6/170 82/10/167
f 83/11/171 82/10/167 42/6/170
f 78/10/170 83/11/171 42/6/170
f 46/6/172 85/11/173 84/10/172
f 85/11/173 46/6/172 41/6/174
f 85/11/173 41/6/174 79/10/152
f 84/10/175 85/11/176 46/6/175
f 41/6/159 46/6/175 85/11/176
f 79/10/159 41/6/159 85/11/176
f 80/10/161 87/10/177 86/11/178
f 87/10/179 80/10/161 49/6/161
f 87/10/179 49/6/161 45/6/179
f 86/11/180 87/10/181 80/10/182
f 49/6/165 80/10/165 87/10/181
f 45/6/181 49/6/182 87/10/181
f 45/6/177 88/11/183 87/10/179
f 88/11/183 45/6/179 46/6/172
f 88/11/183 46/6/172 84/10/172
f 87/10/181 88/11/184 45/6/185
f 46/6/175 45/6/181 88/11/184
f 84/10/175 46/6/175 88/11/184
f 91/10/186 90/10/187 89/11/188
f 90/10/187 91/10/189 75/6/189
f 90/10/187 75/6/186 69/6/187
f 89/11/190 90/10/191 91/10/192
f 75/6/193 91/10/193 90/10/191
f 69/6/191 75/6/193 90/10/191
f 65/6/194 93/11/195 92/10/196
f 93/11/197 65/6/196 66/6/198
f 93/11/195 66/6/199 94/10/198
f 92/10/200 93/11/201 65/6/202
f 66/6/203 65/6/204 93/11/205
f 94/10/203 66/6/206 93/11/201
f 97/10/207 96/10/208 95/11/209
f 96/10/210 97/10/207 71/6/207
f 96/10/210 71/6/207 73/6/210
f 95/11/211 96/10/212 97/10/213
f 71/6/213 97/10/213 96/10/212
f 73/6/212 71/6/213 96/10/212
f 98/11/214 75/6/215 91/10/189
f 75/6/189 98/11/214 73/6/210
f 73/6/210 98/11/216 96/10/210
f 91/10/192 75/6/193 98/11/217
f 73/6/212 98/11/217 75/6/192
f 96/10/212 98/11/217 73/6/212
f 94/10/198 97/10/218 99/11/219
f 97/10/207 94/10/220 66/6/220
f 97/10/207 66/6/198 71/6/207
f 99/11/221 97/10/213 94/10/206
f 66/6/203 94/10/203 97/10/213
f 71/6/213 66/6/222 97/10/213
f 90/10/187 92/10/194 100/11/223
f 92/10/196 90/10/187 69/6/187
f 92/10/196 69/6/187 65/6/196
f 100/11/224 92/10/204 90/10/191
f 69/6/191 90/10/191 92/10/204
f 65/6/204 69/6/191 92/10/204
f 102/11/160 61/6/161 101/10/161
f 61/6/225 102/11/163 59/6/164
f 59/6/226 102/11/163 103/10/164
f 101/10/165 61/6/165 102/11/168
f 59/6/167 102/11/166 61/6/165
f 103/10/227 102/11/166 59/6/227
f 103/10/164 60/6/155 59/6/164
f 60/6/155 103/10/164 104/11/169
f 60/6/155 104/11/228 105/10/155
f 59/6/167 60/6/157 103/10/167
f 104/11/171 103/10/167 60/6/170
f 105/10/157 104/11/229 60/6/157
f 62/6/177 107/11/183 106/10/179
f 107/11/183 62/6/179 53/6/172
f 107/11/183 53/6/230 108/10/172
f 106/10/185 107/11/184 62/6/185
f 53/6/175 62/6/181 107/11/184
f 108/10/175 53/6/175 107/11/184
f 110/10/152 105/10/153 109/11/154
f 105/10/155 110/10/152 54/6/152
f 105/10/155 54/6/152 60/6/155
f 109/11/231 105/10/157 110/10/159
f 54/6/159 110/10/159 105/10/157
f 60/6/157 54/6/159 105/10/157
f 101/10/161 106/10/177 111/11/178
f 106/10/179 101/10/161 61/6/161
f 106/10/179 61/6/161 62/6/179
f 111/11/232 106/10/181 101/10/165
f 61/6/165 101/10/165 106/10/181
f 62/6/181 61/6/182 106/10/181
f 53/6/172 112/11/233 108/10/172
f 112/11/173 53/6/172 54/6/234
f 112/11/233 54/6/152 110/10/152
f 108/10/175 112/11/235 53/6/175
f 54/6/159 53/6/175 112/11/176
f 110/10/159 54/6/159 112/11/235
