# Blender 4.1.1
# www.blender.org
mtllib tree.004.mtl
o tree.004
v -18.064489 -4.675250 2.569982
v -18.064489 -4.675250 2.377905
v -18.160528 -4.675250 2.666021
v -18.160528 -4.675250 2.281866
v -18.352604 -4.675250 2.666021
v -18.352604 -4.675250 2.281866
v -18.448645 -4.675250 2.569982
v -18.448645 -4.675250 2.377905
v -18.160528 -4.327483 2.425924
v -18.160528 -4.327483 2.521963
v -18.208548 -4.327483 2.569982
v -18.208548 -4.327483 2.377905
v -18.304586 -4.327483 2.377905
v -18.352604 -4.327483 2.425924
v -18.352604 -4.327483 2.521963
v -18.304586 -4.327483 2.569982
v -18.376616 -3.805793 2.413919
v -18.376616 -3.805793 2.533968
v -18.316591 -3.805793 2.593992
v -18.136518 -3.805793 2.413919
v -18.136518 -3.805793 2.533968
v -18.316591 -3.805793 2.353895
v -18.196543 -3.805793 2.353895
v -18.196543 -3.805793 2.593992
v -18.097824 -4.203316 2.427000
v -18.126663 -4.203316 2.496625
v -18.126663 -4.203316 2.357374
v -18.196289 -4.203316 2.328534
v -18.196289 -4.203316 2.525465
v -18.265915 -4.203316 2.357374
v -18.265915 -4.203316 2.496625
v -18.294756 -4.203316 2.427000
v -18.042051 -4.329511 2.427000
v -18.087227 -4.329511 2.317937
v -18.087227 -4.329511 2.536062
v -18.196289 -4.329511 2.581238
v -18.196289 -4.329511 2.272762
v -18.305351 -4.329511 2.536062
v -18.305351 -4.329511 2.317937
v -18.350529 -4.329511 2.427000
v -18.026709 -3.805793 2.888198
v -18.505049 -3.805793 2.888198
v -18.124767 -3.230796 2.718355
v -18.406990 -3.230796 2.718355
v -18.026709 -3.805793 2.059689
v -17.787540 -3.805793 2.473943
v -18.124767 -3.230796 2.229532
v -17.983656 -3.230796 2.473943
v -18.505049 -3.805793 2.059689
v -18.406990 -3.230796 2.229532
v -18.548100 -3.230796 2.473943
v -18.744219 -3.805793 2.473943
v -17.990067 -2.613048 2.473943
v -18.127974 -2.613048 2.712803
v -18.202484 -1.965096 2.473943
v -18.234182 -1.965096 2.528845
v -18.329273 -1.965096 2.473943
v -18.297577 -1.965096 2.528845
v -18.541689 -2.613048 2.473943
v -18.403784 -2.613048 2.712803
v -18.403784 -2.613048 2.235084
v -18.127974 -2.613048 2.235084
v -18.297577 -1.965096 2.419042
v -18.234182 -1.965096 2.419042
v -17.929087 -3.230796 2.279496
v -17.929087 -3.230796 2.668391
v -18.111557 -2.613048 2.384846
v -18.111557 -2.613048 2.563041
v -18.265879 -3.230796 2.085050
v -18.265879 -2.613048 2.295748
v -18.265879 -3.230796 2.862837
v -18.265879 -2.613048 2.652139
v -18.602671 -3.230796 2.668391
v -18.420200 -2.613048 2.563041
v -18.602671 -3.230796 2.279496
v -18.420200 -2.613048 2.384846
v -18.265879 -3.985170 2.979333
v -18.531357 -3.895481 2.933765
v -18.000399 -3.895481 2.933765
v -18.531357 -3.895482 2.014121
v -18.703560 -3.985170 2.221249
v -18.796835 -3.895481 2.473943
v -18.703560 -3.985170 2.726638
v -17.734922 -3.895481 2.473943
v -17.828197 -3.985170 2.726638
v -18.265879 -3.985170 1.968554
v -18.000399 -3.895482 2.014121
v -17.828197 -3.985170 2.221249
v -18.471323 -3.376631 2.118106
v -18.265879 -3.303713 2.042271
v -18.639719 -3.303713 2.258107
v -17.892040 -3.303713 2.258107
v -17.854992 -3.376631 2.473943
v -17.892040 -3.303713 2.689780
v -18.471323 -3.376631 2.829781
v -18.639719 -3.303713 2.689780
v -18.265879 -3.303713 2.905616
v -18.676765 -3.376631 2.473943
v -18.060436 -3.376631 2.829781
v -18.060436 -3.376631 2.118106
v -18.418953 -2.664763 2.208809
v -18.518246 -2.716478 2.328239
v -18.572029 -2.664763 2.473943
v -18.518246 -2.716478 2.619648
v -18.418953 -2.664763 2.739078
v -18.112803 -2.664763 2.208809
v -18.013512 -2.716478 2.328239
v -17.959728 -2.664763 2.473943
v -18.265879 -2.716478 2.765352
v -18.112803 -2.664763 2.739078
v -18.265879 -2.716478 2.182535
v -18.013512 -2.716478 2.619648
vn -0.0000 -1.0000 -0.0000
vn 0.8851 0.2942 -0.3607
vn 0.8813 0.2944 0.3698
vn 0.8812 0.2944 -0.3698
vn 0.8812 0.2944 0.3698
vn 0.8851 0.2942 0.3607
vn 0.3607 0.2942 0.8850
vn 0.8850 0.2942 0.3608
vn 0.3608 0.2943 0.8850
vn 0.3698 0.2944 0.8812
vn 0.3608 0.2942 -0.8850
vn 0.3698 0.2944 -0.8812
vn 0.3607 0.2942 -0.8850
vn 0.8850 0.2942 -0.3608
vn -0.3607 0.2942 -0.8851
vn -0.3698 0.2944 -0.8812
vn 0.3607 0.2942 -0.8851
vn -0.8813 0.2944 0.3698
vn -0.8851 0.2942 -0.3607
vn -0.8812 0.2944 -0.3698
vn -0.8851 0.2942 0.3607
vn 0.3607 0.2942 0.8851
vn -0.3698 0.2944 0.8813
vn -0.3698 0.2944 0.8812
vn -0.3607 0.2942 0.8851
vn -0.3607 0.2942 -0.8850
vn -0.3608 0.2942 -0.8850
vn -0.8812 0.2944 0.3698
vn -0.3608 0.2942 0.8850
vn -0.8850 0.2942 0.3607
vn -0.3607 0.2942 0.8850
vn -0.9230 -0.0513 -0.3813
vn -0.9223 -0.0512 0.3829
vn -0.9223 -0.0513 -0.3829
vn -0.9223 -0.0513 0.3829
vn -0.9230 -0.0513 0.3813
vn -0.3814 -0.0512 0.9230
vn -0.9223 -0.0513 0.3830
vn -0.9230 -0.0512 0.3813
vn -0.3814 -0.0513 0.9230
vn -0.3830 -0.0512 0.9223
vn 0.9223 -0.0512 0.3829
vn 0.9230 -0.0513 -0.3813
vn 0.9223 -0.0513 -0.3829
vn 0.9230 -0.0513 0.3813
vn -0.3829 -0.0513 -0.9223
vn 0.3813 -0.0513 -0.9230
vn -0.3813 -0.0513 -0.9230
vn -0.3829 -0.0512 -0.9223
vn 0.3829 -0.0513 -0.9223
vn 0.9223 -0.0513 0.3830
vn 0.3814 -0.0513 0.9230
vn 0.9230 -0.0513 0.3814
vn 0.3813 -0.0513 0.9230
vn 0.9223 -0.0512 0.3830
vn 0.3830 -0.0513 0.9223
vn -0.3814 -0.0513 -0.9230
vn -0.9223 -0.0512 -0.3830
vn -0.3830 -0.0513 -0.9223
vn -0.9223 -0.0513 -0.3830
vn 0.9223 -0.0513 -0.3830
vn 0.3830 -0.0512 -0.9223
vn 0.3814 -0.0512 -0.9230
vn 0.9230 -0.0512 -0.3814
vn 0.3829 -0.0513 0.9223
vn -0.3813 -0.0513 0.9230
vn 0.3829 -0.0512 0.9223
vn -0.3829 -0.0513 0.9223
vn -0.0000 1.0000 -0.0000
vn 0.6468 0.4042 -0.6467
vn 0.9147 0.4042 -0.0000
vn 0.9147 0.4042 -0.0001
vn 0.6468 0.4042 -0.6468
vn 0.9146 0.4043 -0.0001
vn -0.0000 0.4042 0.9147
vn -0.6467 0.4042 0.6468
vn -0.6468 0.4042 0.6468
vn -0.6467 0.4043 0.6468
vn -0.9147 0.4042 -0.0000
vn -0.9146 0.4043 0.0001
vn -0.6468 0.4042 0.6467
vn -0.0000 0.4042 -0.9147
vn 0.6467 0.4042 -0.6468
vn 0.6467 0.4043 -0.6468
vn 0.6468 0.4042 0.6468
vn 0.6467 0.4042 0.6468
vn -0.0000 0.4043 0.9146
vn -0.6468 0.4042 -0.6468
vn -0.6467 0.4042 -0.6468
vn -0.0000 0.4042 -0.9146
vn 0.9146 0.4043 0.0001
vn 0.9147 0.4042 0.0001
vn 0.6468 0.4042 0.6467
vn -0.6468 0.4042 -0.6467
vn -0.9146 0.4043 -0.0000
vn -0.9147 0.4042 -0.0001
vn 0.4732 0.3228 0.8197
vn -0.4732 0.3228 0.8197
vn 0.4732 0.3228 -0.8197
vn 0.9465 0.3228 -0.0000
vn 0.4732 0.3228 -0.8196
vn -0.4732 0.3228 -0.8197
vn 0.4733 0.3228 0.8197
vn -0.9465 0.3228 -0.0000
vn -0.4732 0.3228 0.8196
vn -0.4733 0.3228 -0.8197
vn 0.6877 0.7260 -0.0000
vn 0.4751 0.3115 0.8229
vn 0.9503 0.3115 -0.0000
vn 0.4752 0.3116 0.8229
vn 0.6877 0.7260 -0.0001
vn 0.3439 0.7260 0.5956
vn -0.9502 0.3115 0.0001
vn -0.3438 0.7260 0.5956
vn -0.6877 0.7260 -0.0000
vn -0.9503 0.3115 -0.0000
vn -0.4752 0.3115 0.8229
vn -0.3439 0.7260 -0.5956
vn 0.4751 0.3115 -0.8229
vn -0.4751 0.3115 -0.8229
vn 0.3439 0.7260 -0.5956
vn 0.3438 0.7260 -0.5956
vn 0.9502 0.3115 -0.0000
vn 0.9502 0.3115 -0.0001
vn 0.3439 0.7259 -0.5956
vn 0.3439 0.7259 0.5956
vn -0.3439 0.7259 0.5956
vn -0.3439 0.7259 -0.5956
vn -0.9502 0.3115 -0.0000
vn -0.4752 0.3115 -0.8229
vn -0.3438 0.7260 -0.5956
vn -0.9502 0.3115 -0.0001
vn -0.4751 0.3115 0.8229
vn -0.3439 0.7260 0.5956
vn 0.8197 0.3228 -0.4732
vn 0.8197 0.3228 0.4732
vn -0.0000 0.3228 -0.9465
vn 0.8197 0.3228 -0.4733
vn 0.8196 0.3228 0.4732
vn -0.0000 0.3228 0.9465
vn 0.8197 0.3228 0.4733
vn -0.8196 0.3228 0.4732
vn -0.8197 0.3228 0.4732
vn -0.8197 0.3228 0.4733
vn -0.8196 0.3228 -0.4732
vn -0.8197 0.3228 -0.4732
vn -0.8197 0.3228 -0.4733
vn 0.4313 0.5060 0.7470
vn -0.4313 0.5060 0.7470
vn -0.0000 0.4530 0.8915
vn -0.0000 -0.4530 -0.8915
vn 0.4313 -0.5060 -0.7470
vn -0.4313 -0.5060 -0.7470
vn -0.7721 0.4530 -0.4458
vn -0.4313 0.5060 -0.7470
vn -0.4313 0.5060 -0.7469
vn -0.8625 0.5060 -0.0000
vn -0.7721 0.4529 -0.4458
vn 0.4313 -0.5060 0.7470
vn 0.7721 -0.4530 0.4458
vn 0.8625 -0.5060 -0.0000
vn 0.7721 -0.4529 0.4458
vn -0.7721 0.4530 0.4458
vn 0.7721 -0.4530 -0.4458
vn 0.4312 -0.5060 -0.7470
vn 0.8625 0.5060 -0.0000
vn 0.7721 0.4530 0.4458
vn 0.4313 0.5060 0.7469
vn 0.4312 0.5060 0.7470
vn -0.8625 -0.5060 -0.0000
vn -0.7721 -0.4530 -0.4458
vn -0.4312 -0.5060 -0.7470
vn 0.4313 0.5060 -0.7470
vn -0.0000 0.4530 -0.8915
vn -0.0000 -0.4530 0.8915
vn -0.4313 -0.5060 0.7470
vn 0.7721 0.4530 -0.4458
vn -0.7721 -0.4530 0.4458
vn -0.4312 -0.5060 0.7470
vn -0.7470 0.5060 -0.4313
vn -0.0000 0.5060 -0.8625
vn -0.4458 0.4530 -0.7721
vn 0.4458 -0.4530 0.7721
vn -0.0000 -0.5060 0.8625
vn 0.7470 -0.5060 0.4313
vn 0.7470 0.5060 -0.4313
vn 0.8915 0.4530 -0.0000
vn 0.7470 0.5060 0.4313
vn -0.7470 -0.5060 0.4313
vn -0.8915 -0.4530 -0.0000
vn -0.7470 -0.5060 -0.4313
vn -0.0000 0.5060 0.8625
vn -0.7470 0.5060 0.4313
vn -0.4458 0.4530 0.7721
vn 0.4458 -0.4530 -0.7721
vn 0.7470 -0.5060 -0.4313
vn -0.0000 -0.5060 -0.8625
vn -0.8915 0.4530 -0.0000
vn -0.7470 0.5061 -0.4312
vn -0.7470 0.5060 0.4312
vn 0.7470 -0.5060 0.4312
vn 0.8915 -0.4530 -0.0000
vn 0.7470 -0.5060 -0.4312
vn 0.7470 -0.5061 -0.4312
vn 0.4458 0.4530 0.7721
vn -0.4458 -0.4530 -0.7721
vn 0.4458 0.4530 -0.7721
vn -0.4458 -0.4530 0.7721
vn -0.7721 0.4530 -0.4457
vn -0.4313 0.5061 -0.7469
vn -0.4312 0.5060 -0.7470
vn -0.4313 0.5060 0.7469
vn -0.7721 0.4530 0.4457
vn 0.4313 -0.5060 -0.7469
vn 0.4313 0.5060 -0.7469
vn 0.7721 0.4530 -0.4457
vn 0.7721 0.4529 -0.4458
vn -0.4313 -0.5060 0.7469
vn -0.7721 -0.4530 0.4457
vn -0.4313 -0.5061 0.7469
vn -0.7721 -0.4529 0.4458
vn 0.7721 0.4529 0.4458
vn 0.7721 0.4530 0.4457
vn 0.4313 0.5061 0.7469
vn -0.7721 -0.4529 -0.4458
vn -0.4313 -0.5060 -0.7469
vn -0.7721 -0.4530 -0.4457
vt 0.593750 0.025000
vt 0.593750 0.104996
vt 0.593750 0.225000
vt 0.093750 0.475000
vt 0.093750 0.275000
vt 0.093750 0.425000
vt 0.093750 0.348778
vt 0.093750 0.338765
vt 0.093750 0.344099
vt 0.093750 0.375000
vt 0.093750 0.325000
s 0
usemtl colormap.002
f 3/1/1 2/1/1 1/1/1
f 2/1/1 3/1/1 4/1/1
f 4/1/1 3/1/1 5/1/1
f 4/1/1 5/1/1 6/1/1
f 6/1/1 5/1/1 7/1/1
f 6/1/1 7/1/1 8/1/1
f 9/2/2 1/1/3 2/1/4
f 1/1/5 9/2/2 10/2/6
f 11/2/7 1/1/5 10/2/8
f 1/1/5 11/2/9 3/1/10
f 12/2/11 2/1/4 4/1/12
f 2/1/4 12/2/13 9/2/14
f 13/2/15 4/1/12 6/1/16
f 4/1/12 13/2/15 12/2/17
f 7/1/18 14/2/19 8/1/20
f 14/2/19 7/1/18 15/2/21
f 11/2/22 5/1/23 3/1/10
f 5/1/24 11/2/22 16/2/25
f 8/1/20 13/2/26 6/1/16
f 13/2/27 8/1/20 14/2/19
f 7/1/28 16/2/29 15/2/30
f 16/2/31 7/1/28 5/1/24
f 14/2/32 18/3/33 17/3/34
f 18/3/35 14/2/32 15/2/36
f 16/2/37 18/3/38 15/2/39
f 18/3/38 16/2/40 19/3/41
f 21/3/42 9/2/43 20/3/44
f 9/2/43 21/3/42 10/2/45
f 22/3/46 12/2/47 13/2/48
f 12/2/47 22/3/49 23/3/50
f 21/3/51 11/2/52 10/2/53
f 11/2/54 21/3/55 24/3/56
f 13/2/57 17/3/58 22/3/59
f 17/3/60 13/2/57 14/2/32
f 20/3/61 12/2/47 23/3/62
f 12/2/63 20/3/61 9/2/64
f 24/3/65 16/2/66 11/2/54
f 16/2/66 24/3/67 19/3/68
f 27/4/69 26/4/69 25/4/69
f 26/4/69 27/4/69 28/4/69
f 26/4/69 28/4/69 29/4/69
f 29/4/69 28/4/69 30/4/69
f 29/4/69 30/4/69 31/4/69
f 31/4/69 30/4/69 32/4/69
f 35/5/1 34/5/1 33/5/1
f 34/5/1 35/5/1 36/5/1
f 34/5/1 36/5/1 37/5/1
f 37/5/1 36/5/1 38/5/1
f 37/5/1 38/5/1 39/5/1
f 39/5/1 38/5/1 40/5/1
f 27/4/70 33/5/71 34/5/70
f 33/5/72 27/4/73 25/4/74
f 29/4/75 38/5/76 36/5/75
f 38/5/77 29/4/75 31/4/78
f 40/5/79 31/4/77 32/4/80
f 31/4/77 40/5/79 38/5/81
f 28/4/82 34/5/83 37/5/82
f 34/5/73 28/4/82 27/4/84
f 26/4/85 36/5/75 35/5/86
f 36/5/75 26/4/86 29/4/87
f 30/4/88 37/5/82 39/5/89
f 37/5/82 30/4/89 28/4/90
f 26/4/85 33/5/91 25/4/92
f 33/5/71 26/4/93 35/5/93
f 40/5/79 30/4/94 39/5/88
f 30/4/88 40/5/95 32/4/96
f 43/6/97 42/7/98 41/7/97
f 42/7/98 43/6/97 44/6/98
f 47/6/99 46/7/100 45/7/101
f 46/7/100 47/6/99 48/6/100
f 50/6/102 45/7/99 49/7/102
f 45/7/99 50/6/102 47/6/99
f 48/6/100 41/7/97 46/7/100
f 41/7/103 48/6/100 43/6/103
f 52/7/104 44/6/98 51/6/104
f 44/6/98 52/7/104 42/7/105
f 52/7/104 50/6/106 49/7/102
f 50/6/102 52/7/104 51/6/104
f 41/7/1 45/7/1 46/7/1
f 45/7/1 41/7/1 42/7/1
f 45/7/1 42/7/1 49/7/1
f 49/7/1 42/7/1 52/7/1
f 55/6/107 54/8/108 53/8/109
f 54/8/110 55/6/111 56/6/112
f 59/8/113 58/6/114 57/6/115
f 58/6/114 59/8/116 60/8/117
f 63/6/118 62/8/119 61/8/120
f 62/8/119 63/6/118 64/6/121
f 64/6/122 53/8/123 62/8/119
f 53/8/124 64/6/122 55/6/107
f 64/6/125 56/6/126 55/6/107
f 56/6/126 64/6/125 58/6/127
f 58/6/127 64/6/125 63/6/128
f 58/6/127 63/6/128 57/6/115
f 59/8/129 63/6/118 61/8/130
f 63/6/131 59/8/132 57/6/115
f 54/8/1 62/8/1 53/8/1
f 62/8/1 54/8/1 60/8/1
f 62/8/1 60/8/1 61/8/1
f 61/8/1 60/8/1 59/8/1
f 56/6/112 60/8/133 54/8/108
f 60/8/133 56/6/112 58/6/134
f 67/6/135 66/9/136 65/9/135
f 66/9/136 67/6/135 68/6/136
f 70/6/137 65/9/135 69/9/137
f 65/9/135 70/6/137 67/6/138
f 68/6/139 71/9/140 66/9/136
f 71/9/140 68/6/141 72/6/140
f 72/6/140 73/9/142 71/9/140
f 73/9/143 72/6/140 74/6/144
f 71/9/1 65/9/1 66/9/1
f 65/9/1 71/9/1 69/9/1
f 69/9/1 71/9/1 73/9/1
f 69/9/1 73/9/1 75/9/1
f 76/6/145 69/9/137 75/9/146
f 69/9/137 76/6/147 70/6/137
f 73/9/143 76/6/146 75/9/146
f 76/6/146 73/9/143 74/6/143
f 79/10/148 78/10/149 77/11/150
f 78/10/149 79/10/148 41/6/148
f 78/10/149 41/6/148 42/6/149
f 77/11/151 78/10/152 79/10/153
f 41/6/153 79/10/153 78/10/152
f 42/6/152 41/6/153 78/10/152
f 81/11/154 49/6/155 80/10/155
f 49/6/156 81/11/154 52/6/157
f 52/6/157 81/11/158 82/10/157
f 80/10/159 49/6/159 81/11/160
f 52/6/161 81/11/160 49/6/159
f 82/10/161 81/11/162 52/6/161
f 82/10/157 42/6/149 52/6/157
f 42/6/149 82/10/157 83/11/163
f 42/6/149 83/11/163 78/10/149
f 52/6/161 42/6/152 82/10/161
f 83/11/164 82/10/161 42/6/152
f 78/10/152 83/11/164 42/6/165
f 46/6/166 85/11/167 84/10/166
f 85/11/167 46/6/166 41/6/168
f 85/11/167 41/6/169 79/10/148
f 84/10/170 85/11/171 46/6/170
f 41/6/153 46/6/170 85/11/171
f 79/10/153 41/6/172 85/11/171
f 80/10/155 87/10/173 86/11/174
f 87/10/173 80/10/155 49/6/155
f 87/10/173 49/6/155 45/6/173
f 86/11/175 87/10/176 80/10/159
f 49/6/159 80/10/159 87/10/176
f 45/6/176 49/6/159 87/10/176
f 45/6/173 88/11/177 87/10/173
f 88/11/177 45/6/173 46/6/166
f 88/11/177 46/6/166 84/10/166
f 87/10/176 88/11/178 45/6/179
f 46/6/170 45/6/176 88/11/178
f 84/10/170 46/6/170 88/11/178
f 91/10/180 90/10/181 89/11/182
f 90/10/181 91/10/180 75/6/180
f 90/10/181 75/6/180 69/6/181
f 89/11/183 90/10/184 91/10/185
f 75/6/185 91/10/185 90/10/184
f 69/6/184 75/6/185 90/10/184
f 65/6/186 93/11/187 92/10/186
f 93/11/187 65/6/186 66/6/188
f 93/11/187 66/6/188 94/10/188
f 92/10/189 93/11/190 65/6/189
f 66/6/191 65/6/189 93/11/190
f 94/10/191 66/6/191 93/11/190
f 97/10/192 96/10/193 95/11/194
f 96/10/193 97/10/192 71/6/192
f 96/10/193 71/6/192 73/6/193
f 95/11/195 96/10/196 97/10/197
f 71/6/197 97/10/197 96/10/196
f 73/6/196 71/6/197 96/10/196
f 98/11/198 75/6/199 91/10/180
f 75/6/180 98/11/198 73/6/193
f 73/6/200 98/11/198 96/10/193
f 91/10/201 75/6/201 98/11/202
f 73/6/196 98/11/202 75/6/185
f 96/10/203 98/11/202 73/6/204
f 94/10/188 97/10/192 99/11/205
f 97/10/192 94/10/188 66/6/188
f 97/10/192 66/6/188 71/6/192
f 99/11/206 97/10/197 94/10/191
f 66/6/191 94/10/191 97/10/197
f 71/6/197 66/6/191 97/10/197
f 90/10/181 92/10/186 100/11/207
f 92/10/186 90/10/181 69/6/181
f 92/10/186 69/6/181 65/6/186
f 100/11/208 92/10/189 90/10/184
f 69/6/184 90/10/184 92/10/189
f 65/6/189 69/6/184 92/10/189
f 102/11/209 61/6/210 101/10/155
f 61/6/211 102/11/154 59/6/157
f 59/6/157 102/11/154 103/10/157
f 101/10/159 61/6/159 102/11/160
f 59/6/161 102/11/160 61/6/159
f 103/10/161 102/11/160 59/6/161
f 103/10/157 60/6/149 59/6/157
f 60/6/149 103/10/157 104/11/163
f 60/6/212 104/11/213 105/10/149
f 59/6/161 60/6/152 103/10/161
f 104/11/164 103/10/161 60/6/152
f 105/10/152 104/11/164 60/6/214
f 62/6/215 107/11/216 106/10/173
f 107/11/177 62/6/173 53/6/166
f 107/11/217 53/6/166 108/10/166
f 106/10/218 107/11/219 62/6/220
f 53/6/170 62/6/176 107/11/178
f 108/10/170 53/6/170 107/11/221
f 110/10/148 105/10/149 109/11/150
f 105/10/149 110/10/148 54/6/148
f 105/10/149 54/6/148 60/6/149
f 109/11/151 105/10/152 110/10/153
f 54/6/153 110/10/153 105/10/152
f 60/6/152 54/6/153 105/10/152
f 101/10/155 106/10/173 111/11/174
f 106/10/173 101/10/155 61/6/155
f 106/10/173 61/6/155 62/6/173
f 111/11/175 106/10/176 101/10/159
f 61/6/159 101/10/159 106/10/176
f 62/6/176 61/6/159 106/10/176
f 53/6/166 112/11/222 108/10/166
f 112/11/167 53/6/166 54/6/169
f 112/11/223 54/6/224 110/10/148
f 108/10/170 112/11/225 53/6/170
f 54/6/153 53/6/170 112/11/171
f 110/10/226 54/6/226 112/11/227
f 3/1/1 2/1/1 1/1/1
f 2/1/1 3/1/1 4/1/1
f 4/1/1 3/1/1 5/1/1
f 4/1/1 5/1/1 6/1/1
f 6/1/1 5/1/1 7/1/1
f 6/1/1 7/1/1 8/1/1
f 9/2/2 1/1/3 2/1/4
f 1/1/5 9/2/2 10/2/6
f 11/2/7 1/1/5 10/2/8
f 1/1/5 11/2/9 3/1/10
f 12/2/11 2/1/4 4/1/12
f 2/1/4 12/2/13 9/2/14
f 13/2/15 4/1/12 6/1/16
f 4/1/12 13/2/15 12/2/17
f 7/1/18 14/2/19 8/1/20
f 14/2/19 7/1/18 15/2/21
f 11/2/22 5/1/23 3/1/10
f 5/1/24 11/2/22 16/2/25
f 8/1/20 13/2/26 6/1/16
f 13/2/27 8/1/20 14/2/19
f 7/1/28 16/2/29 15/2/30
f 16/2/31 7/1/28 5/1/24
f 14/2/32 18/3/33 17/3/34
f 18/3/35 14/2/32 15/2/36
f 16/2/37 18/3/38 15/2/39
f 18/3/38 16/2/40 19/3/41
f 21/3/42 9/2/43 20/3/44
f 9/2/43 21/3/42 10/2/45
f 22/3/46 12/2/47 13/2/48
f 12/2/47 22/3/49 23/3/50
f 21/3/51 11/2/52 10/2/53
f 11/2/54 21/3/55 24/3/56
f 13/2/57 17/3/58 22/3/59
f 17/3/60 13/2/57 14/2/32
f 20/3/61 12/2/47 23/3/62
f 12/2/63 20/3/61 9/2/64
f 24/3/65 16/2/66 11/2/54
f 16/2/66 24/3/67 19/3/68
f 27/4/69 26/4/69 25/4/69
f 26/4/69 27/4/69 28/4/69
f 26/4/69 28/4/69 29/4/69
f 29/4/69 28/4/69 30/4/69
f 29/4/69 30/4/69 31/4/69
f 31/4/69 30/4/69 32/4/69
f 35/5/1 34/5/1 33/5/1
f 34/5/1 35/5/1 36/5/1
f 34/5/1 36/5/1 37/5/1
f 37/5/1 36/5/1 38/5/1
f 37/5/1 38/5/1 39/5/1
f 39/5/1 38/5/1 40/5/1
f 27/4/70 33/5/71 34/5/70
f 33/5/72 27/4/73 25/4/74
f 29/4/75 38/5/76 36/5/75
f 38/5/77 29/4/75 31/4/78
f 40/5/79 31/4/77 32/4/80
f 31/4/77 40/5/79 38/5/81
f 28/4/82 34/5/83 37/5/82
f 34/5/73 28/4/82 27/4/84
f 26/4/85 36/5/75 35/5/86
f 36/5/75 26/4/86 29/4/87
f 30/4/88 37/5/82 39/5/89
f 37/5/82 30/4/89 28/4/90
f 26/4/85 33/5/91 25/4/92
f 33/5/71 26/4/93 35/5/93
f 40/5/79 30/4/94 39/5/88
f 30/4/88 40/5/95 32/4/96
f 43/6/97 42/7/98 41/7/97
f 42/7/98 43/6/97 44/6/98
f 47/6/99 46/7/100 45/7/101
f 46/7/100 47/6/99 48/6/100
f 50/6/102 45/7/99 49/7/102
f 45/7/99 50/6/102 47/6/99
f 48/6/100 41/7/97 46/7/100
f 41/7/103 48/6/100 43/6/103
f 52/7/104 44/6/98 51/6/104
f 44/6/98 52/7/104 42/7/105
f 52/7/104 50/6/106 49/7/102
f 50/6/102 52/7/104 51/6/104
f 41/7/1 45/7/1 46/7/1
f 45/7/1 41/7/1 42/7/1
f 45/7/1 42/7/1 49/7/1
f 49/7/1 42/7/1 52/7/1
f 55/6/107 54/8/108 53/8/109
f 54/8/110 55/6/111 56/6/112
f 59/8/113 58/6/114 57/6/115
f 58/6/114 59/8/116 60/8/117
f 63/6/118 62/8/119 61/8/120
f 62/8/119 63/6/118 64/6/121
f 64/6/122 53/8/123 62/8/119
f 53/8/124 64/6/122 55/6/107
f 64/6/125 56/6/126 55/6/107
f 56/6/126 64/6/125 58/6/127
f 58/6/127 64/6/125 63/6/128
f 58/6/127 63/6/128 57/6/115
f 59/8/129 63/6/118 61/8/130
f 63/6/131 59/8/132 57/6/115
f 54/8/1 62/8/1 53/8/1
f 62/8/1 54/8/1 60/8/1
f 62/8/1 60/8/1 61/8/1
f 61/8/1 60/8/1 59/8/1
f 56/6/112 60/8/133 54/8/108
f 60/8/133 56/6/112 58/6/134
f 67/6/135 66/9/136 65/9/135
f 66/9/136 67/6/135 68/6/136
f 70/6/137 65/9/135 69/9/137
f 65/9/135 70/6/137 67/6/138
f 68/6/139 71/9/140 66/9/136
f 71/9/140 68/6/141 72/6/140
f 72/6/140 73/9/142 71/9/140
f 73/9/143 72/6/140 74/6/144
f 71/9/1 65/9/1 66/9/1
f 65/9/1 71/9/1 69/9/1
f 69/9/1 71/9/1 73/9/1
f 69/9/1 73/9/1 75/9/1
f 76/6/145 69/9/137 75/9/146
f 69/9/137 76/6/147 70/6/137
f 73/9/143 76/6/146 75/9/146
f 76/6/146 73/9/143 74/6/143
f 79/10/148 78/10/149 77/11/150
f 78/10/149 79/10/148 41/6/148
f 78/10/149 41/6/148 42/6/149
f 77/11/151 78/10/152 79/10/153
f 41/6/153 79/10/153 78/10/152
f 42/6/152 41/6/153 78/10/152
f 81/11/154 49/6/155 80/10/155
f 49/6/156 81/11/154 52/6/157
f 52/6/157 81/11/158 82/10/157
f 80/10/159 49/6/159 81/11/160
f 52/6/161 81/11/160 49/6/159
f 82/10/161 81/11/162 52/6/161
f 82/10/157 42/6/149 52/6/157
f 42/6/149 82/10/157 83/11/163
f 42/6/149 83/11/163 78/10/149
f 52/6/161 42/6/152 82/10/161
f 83/11/164 82/10/161 42/6/152
f 78/10/152 83/11/164 42/6/165
f 46/6/166 85/11/167 84/10/166
f 85/11/167 46/6/166 41/6/168
f 85/11/167 41/6/169 79/10/148
f 84/10/170 85/11/171 46/6/170
f 41/6/153 46/6/170 85/11/171
f 79/10/153 41/6/172 85/11/171
f 80/10/155 87/10/173 86/11/174
f 87/10/173 80/10/155 49/6/155
f 87/10/173 49/6/155 45/6/173
f 86/11/175 87/10/176 80/10/159
f 49/6/159 80/10/159 87/10/176
f 45/6/176 49/6/159 87/10/176
f 45/6/173 88/11/177 87/10/173
f 88/11/177 45/6/173 46/6/166
f 88/11/177 46/6/166 84/10/166
f 87/10/176 88/11/178 45/6/179
f 46/6/170 45/6/176 88/11/178
f 84/10/170 46/6/170 88/11/178
f 91/10/180 90/10/181 89/11/182
f 90/10/181 91/10/180 75/6/180
f 90/10/181 75/6/180 69/6/181
f 89/11/183 90/10/184 91/10/185
f 75/6/185 91/10/185 90/10/184
f 69/6/184 75/6/185 90/10/184
f 65/6/186 93/11/187 92/10/186
f 93/11/187 65/6/186 66/6/188
f 93/11/187 66/6/188 94/10/188
f 92/10/189 93/11/190 65/6/189
f 66/6/191 65/6/189 93/11/190
f 94/10/191 66/6/191 93/11/190
f 97/10/192 96/10/193 95/11/194
f 96/10/193 97/10/192 71/6/192
f 96/10/193 71/6/192 73/6/193
f 95/11/195 96/10/196 97/10/197
f 71/6/197 97/10/197 96/10/196
f 73/6/196 71/6/197 96/10/196
f 98/11/198 75/6/199 91/10/180
f 75/6/180 98/11/198 73/6/193
f 73/6/200 98/11/198 96/10/193
f 91/10/201 75/6/201 98/11/202
f 73/6/196 98/11/202 75/6/185
f 96/10/203 98/11/202 73/6/204
f 94/10/188 97/10/192 99/11/205
f 97/10/192 94/10/188 66/6/188
f 97/10/192 66/6/188 71/6/192
f 99/11/206 97/10/197 94/10/191
f 66/6/191 94/10/191 97/10/197
f 71/6/197 66/6/191 97/10/197
f 90/10/181 92/10/186 100/11/207
f 92/10/186 90/10/181 69/6/181
f 92/10/186 69/6/181 65/6/186
f 100/11/208 92/10/189 90/10/184
f 69/6/184 90/10/184 92/10/189
f 65/6/189 69/6/184 92/10/189
f 102/11/209 61/6/210 101/10/155
f 61/6/211 102/11/154 59/6/157
f 59/6/157 102/11/154 103/10/157
f 101/10/159 61/6/159 102/11/160
f 59/6/161 102/11/160 61/6/159
f 103/10/161 102/11/160 59/6/161
f 103/10/157 60/6/149 59/6/157
f 60/6/149 103/10/157 104/11/163
f 60/6/212 104/11/213 105/10/149
f 59/6/161 60/6/152 103/10/161
f 104/11/164 103/10/161 60/6/152
f 105/10/152 104/11/164 60/6/214
f 62/6/215 107/11/216 106/10/173
f 107/11/177 62/6/173 53/6/166
f 107/11/217 53/6/166 108/10/166
f 106/10/218 107/11/219 62/6/220
f 53/6/170 62/6/176 107/11/178
f 108/10/170 53/6/170 107/11/221
f 110/10/148 105/10/149 109/11/150
f 105/10/149 110/10/148 54/6/148
f 105/10/149 54/6/148 60/6/149
f 109/11/151 105/10/152 110/10/153
f 54/6/153 110/10/153 105/10/152
f 60/6/152 54/6/153 105/10/152
f 101/10/155 106/10/173 111/11/174
f 106/10/173 101/10/155 61/6/155
f 106/10/173 61/6/155 62/6/173
f 111/11/175 106/10/176 101/10/159
f 61/6/159 101/10/159 106/10/176
f 62/6/176 61/6/159 106/10/176
f 53/6/166 112/11/222 108/10/166
f 112/11/167 53/6/166 54/6/169
f 112/11/223 54/6/224 110/10/148
f 108/10/170 112/11/225 53/6/170
f 54/6/153 53/6/170 112/11/171
f 110/10/226 54/6/226 112/11/227
