# Blender 4.1.1
# www.blender.org
mtllib tree.012.mtl
o tree.012
v -18.064489 -4.675250 -8.658587
v -18.064489 -4.675250 -8.850664
v -18.160528 -4.675250 -8.562548
v -18.160528 -4.675250 -8.946702
v -18.352604 -4.675250 -8.562548
v -18.352604 -4.675250 -8.946702
v -18.448645 -4.675250 -8.658587
v -18.448645 -4.675250 -8.850664
v -18.160528 -4.327483 -8.802644
v -18.160528 -4.327483 -8.706606
v -18.208548 -4.327483 -8.658587
v -18.208548 -4.327483 -8.850664
v -18.304586 -4.327483 -8.850664
v -18.352604 -4.327483 -8.802644
v -18.352604 -4.327483 -8.706606
v -18.304586 -4.327483 -8.658587
v -18.376616 -3.805793 -8.814650
v -18.376616 -3.805793 -8.694601
v -18.316591 -3.805793 -8.634577
v -18.136518 -3.805793 -8.814650
v -18.136518 -3.805793 -8.694601
v -18.316591 -3.805793 -8.874673
v -18.196543 -3.805793 -8.874673
v -18.196543 -3.805793 -8.634577
v -18.097824 -4.203316 -8.801569
v -18.126663 -4.203316 -8.731943
v -18.126663 -4.203316 -8.871195
v -18.196289 -4.203316 -8.900034
v -18.196289 -4.203316 -8.703104
v -18.265915 -4.203316 -8.871195
v -18.265915 -4.203316 -8.731943
v -18.294756 -4.203316 -8.801569
v -18.042051 -4.329511 -8.801569
v -18.087227 -4.329511 -8.910631
v -18.087227 -4.329511 -8.692507
v -18.196289 -4.329511 -8.647330
v -18.196289 -4.329511 -8.955807
v -18.305351 -4.329511 -8.692507
v -18.305351 -4.329511 -8.910631
v -18.350529 -4.329511 -8.801569
v -18.026709 -3.805793 -8.340371
v -18.505049 -3.805793 -8.340371
v -18.124767 -3.230796 -8.510214
v -18.406990 -3.230796 -8.510214
v -18.026709 -3.805793 -9.168879
v -17.787540 -3.805793 -8.754625
v -18.124767 -3.230796 -8.999037
v -17.983656 -3.230796 -8.754625
v -18.505049 -3.805793 -9.168879
v -18.406990 -3.230796 -8.999037
v -18.548100 -3.230796 -8.754625
v -18.744219 -3.805793 -8.754625
v -17.990067 -2.613048 -8.754625
v -18.127974 -2.613048 -8.515765
v -18.202484 -1.965096 -8.754625
v -18.234182 -1.965096 -8.699724
v -18.329273 -1.965096 -8.754625
v -18.297577 -1.965096 -8.699724
v -18.541689 -2.613048 -8.754625
v -18.403784 -2.613048 -8.515765
v -18.403784 -2.613048 -8.993484
v -18.127974 -2.613048 -8.993484
v -18.297577 -1.965096 -8.809526
v -18.234182 -1.965096 -8.809526
v -17.929087 -3.230796 -8.949072
v -17.929087 -3.230796 -8.560179
v -18.111557 -2.613048 -8.843723
v -18.111557 -2.613048 -8.665527
v -18.265879 -3.230796 -9.143518
v -18.265879 -2.613048 -8.932820
v -18.265879 -3.230796 -8.365731
v -18.265879 -2.613048 -8.576429
v -18.602671 -3.230796 -8.560179
v -18.420200 -2.613048 -8.665527
v -18.602671 -3.230796 -8.949072
v -18.420200 -2.613048 -8.843723
v -18.265879 -3.985170 -8.249235
v -18.531357 -3.895481 -8.294804
v -18.000399 -3.895481 -8.294804
v -18.531357 -3.895482 -9.214447
v -18.703560 -3.985170 -9.007320
v -18.796835 -3.895481 -8.754625
v -18.703560 -3.985170 -8.501930
v -17.734922 -3.895481 -8.754625
v -17.828197 -3.985170 -8.501930
v -18.265879 -3.985170 -9.260015
v -18.000399 -3.895482 -9.214447
v -17.828197 -3.985170 -9.007320
v -18.471323 -3.376631 -9.110463
v -18.265879 -3.303713 -9.186297
v -18.639719 -3.303713 -8.970461
v -17.892040 -3.303713 -8.970461
v -17.854992 -3.376631 -8.754625
v -17.892040 -3.303713 -8.538789
v -18.471323 -3.376631 -8.398787
v -18.639719 -3.303713 -8.538789
v -18.265879 -3.303713 -8.322953
v -18.676765 -3.376631 -8.754625
v -18.060436 -3.376631 -8.398787
v -18.060436 -3.376631 -9.110463
v -18.418953 -2.664763 -9.019759
v -18.518246 -2.716478 -8.900330
v -18.572029 -2.664763 -8.754625
v -18.518246 -2.716478 -8.608921
v -18.418953 -2.664763 -8.489491
v -18.112803 -2.664763 -9.019759
v -18.013512 -2.716478 -8.900330
v -17.959728 -2.664763 -8.754625
v -18.265879 -2.716478 -8.463217
v -18.112803 -2.664763 -8.489491
v -18.265879 -2.716478 -9.046034
v -18.013512 -2.716478 -8.608921
vn -0.0000 -1.0000 -0.0000
vn 0.8851 0.2942 -0.3607
vn 0.8813 0.2944 0.3698
vn 0.8812 0.2944 -0.3698
vn 0.8812 0.2944 0.3698
vn 0.8851 0.2942 0.3607
vn 0.3607 0.2942 0.8850
vn 0.8850 0.2942 0.3608
vn 0.3608 0.2943 0.8850
vn 0.3698 0.2944 0.8812
vn 0.3607 0.2942 -0.8850
vn 0.3698 0.2944 -0.8812
vn 0.3608 0.2942 -0.8850
vn 0.8850 0.2942 -0.3608
vn -0.3607 0.2942 -0.8851
vn 0.3698 0.2944 -0.8813
vn -0.3698 0.2944 -0.8812
vn 0.3607 0.2942 -0.8851
vn -0.8813 0.2944 0.3698
vn -0.8851 0.2942 -0.3607
vn -0.8812 0.2944 -0.3698
vn -0.8851 0.2942 0.3607
vn 0.3607 0.2942 0.8851
vn -0.3698 0.2944 0.8813
vn -0.3698 0.2944 0.8812
vn -0.3607 0.2942 0.8851
vn -0.3607 0.2942 -0.8850
vn -0.3608 0.2942 -0.8850
vn -0.8812 0.2944 0.3698
vn -0.3608 0.2942 0.8850
vn -0.8850 0.2942 0.3607
vn -0.3607 0.2942 0.8850
vn -0.9230 -0.0513 -0.3813
vn -0.9223 -0.0512 0.3829
vn -0.9223 -0.0513 -0.3829
vn -0.9223 -0.0513 0.3829
vn -0.9230 -0.0513 0.3813
vn -0.3814 -0.0513 0.9230
vn -0.9223 -0.0513 0.3830
vn -0.9230 -0.0512 0.3813
vn -0.3830 -0.0512 0.9223
vn 0.9223 -0.0512 0.3829
vn 0.9230 -0.0513 -0.3813
vn 0.9223 -0.0513 -0.3829
vn 0.9230 -0.0513 0.3813
vn -0.3829 -0.0513 -0.9223
vn 0.3813 -0.0513 -0.9230
vn -0.3813 -0.0513 -0.9230
vn -0.3829 -0.0512 -0.9223
vn 0.3829 -0.0513 -0.9223
vn 0.9223 -0.0513 0.3830
vn 0.3814 -0.0513 0.9230
vn 0.9230 -0.0513 0.3814
vn 0.9223 -0.0512 0.3830
vn 0.3830 -0.0512 0.9223
vn -0.3814 -0.0513 -0.9230
vn -0.9223 -0.0512 -0.3830
vn -0.3830 -0.0513 -0.9223
vn -0.9223 -0.0513 -0.3830
vn 0.9223 -0.0513 -0.3830
vn 0.3830 -0.0512 -0.9223
vn 0.3814 -0.0512 -0.9230
vn 0.9230 -0.0512 -0.3814
vn 0.3829 -0.0513 0.9223
vn -0.3813 -0.0513 0.9230
vn 0.3813 -0.0513 0.9230
vn 0.3829 -0.0512 0.9223
vn -0.3829 -0.0513 0.9223
vn -0.0000 1.0000 -0.0000
vn 0.6468 0.4042 -0.6467
vn 0.9147 0.4042 -0.0000
vn 0.6468 0.4042 -0.6468
vn 0.9146 0.4043 -0.0000
vn -0.0000 0.4042 0.9147
vn -0.6467 0.4042 0.6468
vn -0.6467 0.4043 0.6468
vn -0.9147 0.4042 -0.0000
vn -0.6468 0.4042 0.6468
vn -0.9146 0.4043 -0.0000
vn -0.0000 0.4042 -0.9147
vn 0.6467 0.4042 -0.6468
vn 0.6468 0.4042 0.6468
vn 0.6467 0.4042 0.6468
vn -0.0000 0.4043 0.9146
vn -0.6468 0.4042 -0.6468
vn -0.6467 0.4042 -0.6468
vn -0.0000 0.4043 -0.9146
vn 0.9147 0.4042 0.0001
vn 0.6468 0.4042 0.6467
vn 0.4732 0.3228 0.8197
vn -0.4732 0.3228 0.8197
vn 0.4732 0.3228 -0.8197
vn 0.9465 0.3228 -0.0000
vn 0.4732 0.3228 -0.8196
vn -0.4732 0.3228 -0.8197
vn 0.4733 0.3228 0.8197
vn -0.9465 0.3228 -0.0000
vn -0.4732 0.3228 0.8196
vn -0.4733 0.3228 -0.8197
vn 0.6877 0.7260 -0.0000
vn 0.4751 0.3115 0.8229
vn 0.9503 0.3115 -0.0000
vn 0.4752 0.3116 0.8229
vn 0.6877 0.7260 -0.0001
vn 0.3439 0.7260 0.5956
vn -0.9502 0.3115 0.0001
vn -0.3438 0.7260 0.5956
vn -0.6877 0.7260 -0.0000
vn -0.9502 0.3115 -0.0000
vn -0.4752 0.3115 0.8229
vn -0.3439 0.7260 -0.5956
vn 0.4751 0.3115 -0.8229
vn -0.4751 0.3115 -0.8229
vn 0.3439 0.7260 -0.5956
vn 0.3438 0.7260 -0.5956
vn 0.9502 0.3115 -0.0000
vn 0.9502 0.3115 -0.0001
vn 0.3439 0.7259 -0.5956
vn 0.3439 0.7259 0.5956
vn 0.6877 0.7259 -0.0000
vn -0.3439 0.7259 0.5956
vn -0.3439 0.7259 -0.5956
vn -0.6877 0.7259 -0.0000
vn -0.4752 0.3115 -0.8229
vn -0.3438 0.7260 -0.5956
vn -0.9502 0.3115 -0.0001
vn -0.4751 0.3115 0.8229
vn -0.3439 0.7260 0.5956
vn 0.8197 0.3228 -0.4732
vn 0.8197 0.3228 0.4732
vn -0.0000 0.3228 -0.9465
vn 0.8196 0.3228 -0.4732
vn 0.8197 0.3228 -0.4733
vn 0.8196 0.3228 0.4732
vn -0.0000 0.3228 0.9465
vn 0.8197 0.3228 0.4733
vn -0.8196 0.3228 0.4732
vn -0.8197 0.3228 0.4732
vn -0.8197 0.3228 0.4733
vn -0.8196 0.3228 -0.4732
vn -0.8197 0.3228 -0.4733
vn -0.8197 0.3228 -0.4732
vn 0.4313 0.5060 0.7470
vn -0.4313 0.5060 0.7470
vn -0.0000 0.4530 0.8915
vn -0.0000 -0.4530 -0.8915
vn 0.4313 -0.5060 -0.7470
vn -0.4313 -0.5060 -0.7470
vn -0.7721 0.4530 -0.4458
vn -0.4313 0.5060 -0.7470
vn -0.4313 0.5060 -0.7469
vn -0.8625 0.5060 -0.0000
vn -0.7721 0.4529 -0.4458
vn 0.4313 -0.5060 0.7470
vn 0.7721 -0.4530 0.4458
vn 0.8625 -0.5060 -0.0000
vn 0.7721 -0.4529 0.4458
vn -0.7721 0.4530 0.4458
vn -0.7721 0.4529 0.4458
vn 0.7721 -0.4530 -0.4458
vn 0.7721 -0.4529 -0.4458
vn 0.4312 -0.5060 -0.7470
vn 0.8625 0.5060 -0.0000
vn 0.7721 0.4530 0.4458
vn 0.4313 0.5060 0.7469
vn 0.4312 0.5060 0.7470
vn -0.8625 -0.5060 -0.0000
vn -0.7721 -0.4530 -0.4458
vn -0.4312 -0.5060 -0.7470
vn 0.4313 0.5060 -0.7470
vn -0.0000 0.4529 -0.8915
vn -0.0000 -0.4529 0.8915
vn -0.4313 -0.5060 0.7470
vn 0.4312 0.5060 -0.7470
vn 0.7721 0.4530 -0.4458
vn -0.4312 -0.5060 0.7470
vn -0.7721 -0.4530 0.4458
vn -0.7470 0.5060 -0.4313
vn -0.0000 0.5060 -0.8625
vn -0.4458 0.4530 -0.7721
vn 0.4458 -0.4530 0.7721
vn -0.0000 -0.5060 0.8625
vn 0.7470 -0.5060 0.4313
vn 0.7470 0.5060 -0.4313
vn 0.8915 0.4530 -0.0000
vn 0.7470 0.5060 0.4313
vn -0.7470 -0.5060 0.4313
vn -0.8915 -0.4530 -0.0000
vn -0.7470 -0.5060 -0.4313
vn -0.0000 0.5060 0.8625
vn -0.7470 0.5060 0.4313
vn -0.4458 0.4530 0.7721
vn 0.4458 -0.4530 -0.7721
vn 0.7470 -0.5060 -0.4313
vn -0.0000 -0.5060 -0.8625
vn -0.8915 0.4530 -0.0000
vn -0.7470 0.5061 -0.4312
vn -0.7470 0.5060 0.4312
vn 0.7470 -0.5060 0.4312
vn 0.8915 -0.4530 -0.0000
vn 0.7470 -0.5060 -0.4312
vn 0.4458 0.4529 0.7721
vn -0.4458 -0.4530 -0.7721
vn 0.4458 0.4530 -0.7721
vn -0.4458 -0.4530 0.7721
vn -0.7721 0.4530 -0.4457
vn -0.4313 0.5061 -0.7469
vn -0.4312 0.5060 -0.7470
vn 0.4313 -0.5060 0.7469
vn 0.7721 -0.4530 0.4457
vn -0.4313 0.5060 0.7469
vn -0.7721 0.4530 0.4457
vn 0.4313 -0.5061 -0.7469
vn 0.7721 -0.4530 -0.4457
vn 0.4313 -0.5060 -0.7469
vn 0.4313 0.5061 -0.7469
vn 0.7721 0.4530 -0.4457
vn 0.4313 0.5060 -0.7469
vn 0.7721 0.4529 -0.4458
vn -0.4313 -0.5061 0.7469
vn -0.7721 -0.4530 0.4457
vn -0.7721 -0.4529 0.4458
vn -0.0000 -0.4530 0.8915
vn 0.7721 0.4529 0.4458
vn 0.7721 0.4530 0.4457
vn 0.4313 0.5061 0.7469
vn -0.7721 -0.4529 -0.4458
vn -0.4313 -0.5060 -0.7469
vn -0.4313 -0.5061 -0.7469
vn -0.7721 -0.4530 -0.4457
vt 0.593750 0.025000
vt 0.593750 0.104996
vt 0.593750 0.225000
vt 0.093750 0.475000
vt 0.093750 0.275000
vt 0.093750 0.425000
vt 0.093750 0.348778
vt 0.093750 0.338765
vt 0.093750 0.344099
vt 0.093750 0.375000
vt 0.093750 0.325000
s 0
usemtl colormap.002
f 3/1/1 2/1/1 1/1/1
f 2/1/1 3/1/1 4/1/1
f 4/1/1 3/1/1 5/1/1
f 4/1/1 5/1/1 6/1/1
f 6/1/1 5/1/1 7/1/1
f 6/1/1 7/1/1 8/1/1
f 9/2/2 1/1/3 2/1/4
f 1/1/5 9/2/2 10/2/6
f 11/2/7 1/1/5 10/2/8
f 1/1/5 11/2/9 3/1/10
f 12/2/11 2/1/4 4/1/12
f 2/1/4 12/2/13 9/2/14
f 13/2/15 4/1/16 6/1/17
f 4/1/12 13/2/15 12/2/18
f 7/1/19 14/2/20 8/1/21
f 14/2/20 7/1/19 15/2/22
f 11/2/23 5/1/24 3/1/10
f 5/1/25 11/2/23 16/2/26
f 8/1/21 13/2/27 6/1/17
f 13/2/28 8/1/21 14/2/20
f 7/1/29 16/2/30 15/2/31
f 16/2/32 7/1/29 5/1/25
f 14/2/33 18/3/34 17/3/35
f 18/3/36 14/2/33 15/2/37
f 16/2/38 18/3/39 15/2/40
f 18/3/39 16/2/38 19/3/41
f 21/3/42 9/2/43 20/3/44
f 9/2/43 21/3/42 10/2/45
f 22/3/46 12/2/47 13/2/48
f 12/2/47 22/3/49 23/3/50
f 21/3/51 11/2/52 10/2/53
f 11/2/52 21/3/54 24/3/55
f 13/2/56 17/3/57 22/3/58
f 17/3/59 13/2/56 14/2/33
f 20/3/60 12/2/47 23/3/61
f 12/2/62 20/3/60 9/2/63
f 24/3/64 16/2/65 11/2/66
f 16/2/65 24/3/67 19/3/68
f 27/4/69 26/4/69 25/4/69
f 26/4/69 27/4/69 28/4/69
f 26/4/69 28/4/69 29/4/69
f 29/4/69 28/4/69 30/4/69
f 29/4/69 30/4/69 31/4/69
f 31/4/69 30/4/69 32/4/69
f 35/5/1 34/5/1 33/5/1
f 34/5/1 35/5/1 36/5/1
f 34/5/1 36/5/1 37/5/1
f 37/5/1 36/5/1 38/5/1
f 37/5/1 38/5/1 39/5/1
f 39/5/1 38/5/1 40/5/1
f 27/4/70 33/5/71 34/5/70
f 33/5/71 27/4/72 25/4/73
f 29/4/74 38/5/75 36/5/74
f 38/5/75 29/4/74 31/4/76
f 40/5/77 31/4/78 32/4/79
f 31/4/78 40/5/77 38/5/78
f 28/4/80 34/5/81 37/5/80
f 34/5/81 28/4/80 27/4/81
f 26/4/82 36/5/74 35/5/83
f 36/5/74 26/4/83 29/4/84
f 30/4/85 37/5/80 39/5/86
f 37/5/80 30/4/86 28/4/87
f 26/4/82 33/5/73 25/4/88
f 33/5/71 26/4/89 35/5/89
f 40/5/77 30/4/85 39/5/85
f 30/4/85 40/5/79 32/4/77
f 43/6/90 42/7/91 41/7/90
f 42/7/91 43/6/90 44/6/91
f 47/6/92 46/7/93 45/7/94
f 46/7/93 47/6/92 48/6/93
f 50/6/95 45/7/92 49/7/95
f 45/7/92 50/6/95 47/6/92
f 48/6/93 41/7/90 46/7/93
f 41/7/96 48/6/93 43/6/96
f 52/7/97 44/6/91 51/6/97
f 44/6/91 52/7/97 42/7/98
f 52/7/97 50/6/99 49/7/95
f 50/6/95 52/7/97 51/6/97
f 41/7/1 45/7/1 46/7/1
f 45/7/1 41/7/1 42/7/1
f 45/7/1 42/7/1 49/7/1
f 49/7/1 42/7/1 52/7/1
f 55/6/100 54/8/101 53/8/102
f 54/8/103 55/6/104 56/6/105
f 59/8/106 58/6/107 57/6/108
f 58/6/107 59/8/109 60/8/110
f 63/6/111 62/8/112 61/8/113
f 62/8/112 63/6/111 64/6/114
f 64/6/115 53/8/116 62/8/112
f 53/8/117 64/6/115 55/6/100
f 64/6/118 56/6/119 55/6/120
f 56/6/119 64/6/118 58/6/121
f 58/6/121 64/6/118 63/6/122
f 58/6/121 63/6/122 57/6/123
f 59/8/109 63/6/111 61/8/124
f 63/6/125 59/8/126 57/6/108
f 54/8/1 62/8/1 53/8/1
f 62/8/1 54/8/1 60/8/1
f 62/8/1 60/8/1 61/8/1
f 61/8/1 60/8/1 59/8/1
f 56/6/105 60/8/127 54/8/101
f 60/8/127 56/6/105 58/6/128
f 67/6/129 66/9/130 65/9/129
f 66/9/130 67/6/129 68/6/130
f 70/6/131 65/9/129 69/9/131
f 65/9/132 70/6/131 67/6/133
f 68/6/134 71/9/135 66/9/130
f 71/9/135 68/6/136 72/6/135
f 72/6/135 73/9/137 71/9/135
f 73/9/138 72/6/135 74/6/139
f 71/9/1 65/9/1 66/9/1
f 65/9/1 71/9/1 69/9/1
f 69/9/1 71/9/1 73/9/1
f 69/9/1 73/9/1 75/9/1
f 76/6/140 69/9/131 75/9/140
f 69/9/131 76/6/141 70/6/131
f 73/9/138 76/6/142 75/9/142
f 76/6/142 73/9/138 74/6/138
f 79/10/143 78/10/144 77/11/145
f 78/10/144 79/10/143 41/6/143
f 78/10/144 41/6/143 42/6/144
f 77/11/146 78/10/147 79/10/148
f 41/6/148 79/10/148 78/10/147
f 42/6/147 41/6/148 78/10/147
f 81/11/149 49/6/150 80/10/150
f 49/6/151 81/11/149 52/6/152
f 52/6/152 81/11/153 82/10/152
f 80/10/154 49/6/154 81/11/155
f 52/6/156 81/11/155 49/6/154
f 82/10/156 81/11/157 52/6/156
f 82/10/152 42/6/144 52/6/152
f 42/6/144 82/10/152 83/11/158
f 42/6/144 83/11/159 78/10/144
f 52/6/156 42/6/147 82/10/156
f 83/11/160 82/10/156 42/6/147
f 78/10/147 83/11/161 42/6/162
f 46/6/163 85/11/164 84/10/163
f 85/11/164 46/6/163 41/6/165
f 85/11/164 41/6/166 79/10/143
f 84/10/167 85/11/168 46/6/167
f 41/6/148 46/6/167 85/11/168
f 79/10/148 41/6/169 85/11/168
f 80/10/150 87/10/170 86/11/171
f 87/10/170 80/10/150 49/6/150
f 87/10/170 49/6/150 45/6/170
f 86/11/172 87/10/173 80/10/154
f 49/6/154 80/10/154 87/10/173
f 45/6/173 49/6/154 87/10/173
f 45/6/174 88/11/175 87/10/170
f 88/11/175 45/6/170 46/6/163
f 88/11/175 46/6/163 84/10/163
f 87/10/176 88/11/177 45/6/176
f 46/6/167 45/6/173 88/11/177
f 84/10/167 46/6/167 88/11/177
f 91/10/178 90/10/179 89/11/180
f 90/10/179 91/10/178 75/6/178
f 90/10/179 75/6/178 69/6/179
f 89/11/181 90/10/182 91/10/183
f 75/6/183 91/10/183 90/10/182
f 69/6/182 75/6/183 90/10/182
f 65/6/184 93/11/185 92/10/184
f 93/11/185 65/6/184 66/6/186
f 93/11/185 66/6/186 94/10/186
f 92/10/187 93/11/188 65/6/187
f 66/6/189 65/6/187 93/11/188
f 94/10/189 66/6/189 93/11/188
f 97/10/190 96/10/191 95/11/192
f 96/10/191 97/10/190 71/6/190
f 96/10/191 71/6/190 73/6/191
f 95/11/193 96/10/194 97/10/195
f 71/6/195 97/10/195 96/10/194
f 73/6/194 71/6/195 96/10/194
f 98/11/196 75/6/197 91/10/178
f 75/6/178 98/11/196 73/6/191
f 73/6/198 98/11/196 96/10/191
f 91/10/199 75/6/199 98/11/200
f 73/6/194 98/11/200 75/6/183
f 96/10/201 98/11/200 73/6/201
f 94/10/186 97/10/190 99/11/202
f 97/10/190 94/10/186 66/6/186
f 97/10/190 66/6/186 71/6/190
f 99/11/203 97/10/195 94/10/189
f 66/6/189 94/10/189 97/10/195
f 71/6/195 66/6/189 97/10/195
f 90/10/179 92/10/184 100/11/204
f 92/10/184 90/10/179 69/6/179
f 92/10/184 69/6/179 65/6/184
f 100/11/205 92/10/187 90/10/182
f 69/6/182 90/10/182 92/10/187
f 65/6/187 69/6/182 92/10/187
f 102/11/206 61/6/207 101/10/151
f 61/6/208 102/11/149 59/6/152
f 59/6/152 102/11/149 103/10/152
f 101/10/154 61/6/209 102/11/210
f 59/6/156 102/11/155 61/6/154
f 103/10/156 102/11/155 59/6/156
f 103/10/152 60/6/144 59/6/152
f 60/6/144 103/10/152 104/11/159
f 60/6/211 104/11/212 105/10/144
f 59/6/156 60/6/213 103/10/156
f 104/11/161 103/10/156 60/6/147
f 105/10/147 104/11/214 60/6/215
f 62/6/216 107/11/217 106/10/218
f 107/11/175 62/6/170 53/6/163
f 107/11/219 53/6/163 108/10/163
f 106/10/220 107/11/221 62/6/220
f 53/6/167 62/6/173 107/11/177
f 108/10/167 53/6/167 107/11/222
f 110/10/143 105/10/144 109/11/145
f 105/10/144 110/10/143 54/6/143
f 105/10/144 54/6/143 60/6/144
f 109/11/146 105/10/147 110/10/148
f 54/6/148 110/10/148 105/10/147
f 60/6/147 54/6/148 105/10/147
f 101/10/150 106/10/170 111/11/171
f 106/10/170 101/10/150 61/6/150
f 106/10/170 61/6/150 62/6/170
f 111/11/223 106/10/173 101/10/154
f 61/6/154 101/10/154 106/10/173
f 62/6/173 61/6/154 106/10/173
f 53/6/163 112/11/224 108/10/163
f 112/11/224 53/6/163 54/6/143
f 112/11/225 54/6/226 110/10/165
f 108/10/167 112/11/168 53/6/167
f 54/6/148 53/6/167 112/11/227
f 110/10/228 54/6/229 112/11/230
f 3/1/1 2/1/1 1/1/1
f 2/1/1 3/1/1 4/1/1
f 4/1/1 3/1/1 5/1/1
f 4/1/1 5/1/1 6/1/1
f 6/1/1 5/1/1 7/1/1
f 6/1/1 7/1/1 8/1/1
f 9/2/2 1/1/3 2/1/4
f 1/1/5 9/2/2 10/2/6
f 11/2/7 1/1/5 10/2/8
f 1/1/5 11/2/9 3/1/10
f 12/2/11 2/1/4 4/1/12
f 2/1/4 12/2/13 9/2/14
f 13/2/15 4/1/16 6/1/17
f 4/1/12 13/2/15 12/2/18
f 7/1/19 14/2/20 8/1/21
f 14/2/20 7/1/19 15/2/22
f 11/2/23 5/1/24 3/1/10
f 5/1/25 11/2/23 16/2/26
f 8/1/21 13/2/27 6/1/17
f 13/2/28 8/1/21 14/2/20
f 7/1/29 16/2/30 15/2/31
f 16/2/32 7/1/29 5/1/25
f 14/2/33 18/3/34 17/3/35
f 18/3/36 14/2/33 15/2/37
f 16/2/38 18/3/39 15/2/40
f 18/3/39 16/2/38 19/3/41
f 21/3/42 9/2/43 20/3/44
f 9/2/43 21/3/42 10/2/45
f 22/3/46 12/2/47 13/2/48
f 12/2/47 22/3/49 23/3/50
f 21/3/51 11/2/52 10/2/53
f 11/2/52 21/3/54 24/3/55
f 13/2/56 17/3/57 22/3/58
f 17/3/59 13/2/56 14/2/33
f 20/3/60 12/2/47 23/3/61
f 12/2/62 20/3/60 9/2/63
f 24/3/64 16/2/65 11/2/66
f 16/2/65 24/3/67 19/3/68
f 27/4/69 26/4/69 25/4/69
f 26/4/69 27/4/69 28/4/69
f 26/4/69 28/4/69 29/4/69
f 29/4/69 28/4/69 30/4/69
f 29/4/69 30/4/69 31/4/69
f 31/4/69 30/4/69 32/4/69
f 35/5/1 34/5/1 33/5/1
f 34/5/1 35/5/1 36/5/1
f 34/5/1 36/5/1 37/5/1
f 37/5/1 36/5/1 38/5/1
f 37/5/1 38/5/1 39/5/1
f 39/5/1 38/5/1 40/5/1
f 27/4/70 33/5/71 34/5/70
f 33/5/71 27/4/72 25/4/73
f 29/4/74 38/5/75 36/5/74
f 38/5/75 29/4/74 31/4/76
f 40/5/77 31/4/78 32/4/79
f 31/4/78 40/5/77 38/5/78
f 28/4/80 34/5/81 37/5/80
f 34/5/81 28/4/80 27/4/81
f 26/4/82 36/5/74 35/5/83
f 36/5/74 26/4/83 29/4/84
f 30/4/85 37/5/80 39/5/86
f 37/5/80 30/4/86 28/4/87
f 26/4/82 33/5/73 25/4/88
f 33/5/71 26/4/89 35/5/89
f 40/5/77 30/4/85 39/5/85
f 30/4/85 40/5/79 32/4/77
f 43/6/90 42/7/91 41/7/90
f 42/7/91 43/6/90 44/6/91
f 47/6/92 46/7/93 45/7/94
f 46/7/93 47/6/92 48/6/93
f 50/6/95 45/7/92 49/7/95
f 45/7/92 50/6/95 47/6/92
f 48/6/93 41/7/90 46/7/93
f 41/7/96 48/6/93 43/6/96
f 52/7/97 44/6/91 51/6/97
f 44/6/91 52/7/97 42/7/98
f 52/7/97 50/6/99 49/7/95
f 50/6/95 52/7/97 51/6/97
f 41/7/1 45/7/1 46/7/1
f 45/7/1 41/7/1 42/7/1
f 45/7/1 42/7/1 49/7/1
f 49/7/1 42/7/1 52/7/1
f 55/6/100 54/8/101 53/8/102
f 54/8/103 55/6/104 56/6/105
f 59/8/106 58/6/107 57/6/108
f 58/6/107 59/8/109 60/8/110
f 63/6/111 62/8/112 61/8/113
f 62/8/112 63/6/111 64/6/114
f 64/6/115 53/8/116 62/8/112
f 53/8/117 64/6/115 55/6/100
f 64/6/118 56/6/119 55/6/120
f 56/6/119 64/6/118 58/6/121
f 58/6/121 64/6/118 63/6/122
f 58/6/121 63/6/122 57/6/123
f 59/8/109 63/6/111 61/8/124
f 63/6/125 59/8/126 57/6/108
f 54/8/1 62/8/1 53/8/1
f 62/8/1 54/8/1 60/8/1
f 62/8/1 60/8/1 61/8/1
f 61/8/1 60/8/1 59/8/1
f 56/6/105 60/8/127 54/8/101
f 60/8/127 56/6/105 58/6/128
f 67/6/129 66/9/130 65/9/129
f 66/9/130 67/6/129 68/6/130
f 70/6/131 65/9/129 69/9/131
f 65/9/132 70/6/131 67/6/133
f 68/6/134 71/9/135 66/9/130
f 71/9/135 68/6/136 72/6/135
f 72/6/135 73/9/137 71/9/135
f 73/9/138 72/6/135 74/6/139
f 71/9/1 65/9/1 66/9/1
f 65/9/1 71/9/1 69/9/1
f 69/9/1 71/9/1 73/9/1
f 69/9/1 73/9/1 75/9/1
f 76/6/140 69/9/131 75/9/140
f 69/9/131 76/6/141 70/6/131
f 73/9/138 76/6/142 75/9/142
f 76/6/142 73/9/138 74/6/138
f 79/10/143 78/10/144 77/11/145
f 78/10/144 79/10/143 41/6/143
f 78/10/144 41/6/143 42/6/144
f 77/11/146 78/10/147 79/10/148
f 41/6/148 79/10/148 78/10/147
f 42/6/147 41/6/148 78/10/147
f 81/11/149 49/6/150 80/10/150
f 49/6/151 81/11/149 52/6/152
f 52/6/152 81/11/153 82/10/152
f 80/10/154 49/6/154 81/11/155
f 52/6/156 81/11/155 49/6/154
f 82/10/156 81/11/157 52/6/156
f 82/10/152 42/6/144 52/6/152
f 42/6/144 82/10/152 83/11/158
f 42/6/144 83/11/159 78/10/144
f 52/6/156 42/6/147 82/10/156
f 83/11/160 82/10/156 42/6/147
f 78/10/147 83/11/161 42/6/162
f 46/6/163 85/11/164 84/10/163
f 85/11/164 46/6/163 41/6/165
f 85/11/164 41/6/166 79/10/143
f 84/10/167 85/11/168 46/6/167
f 41/6/148 46/6/167 85/11/168
f 79/10/148 41/6/169 85/11/168
f 80/10/150 87/10/170 86/11/171
f 87/10/170 80/10/150 49/6/150
f 87/10/170 49/6/150 45/6/170
f 86/11/172 87/10/173 80/10/154
f 49/6/154 80/10/154 87/10/173
f 45/6/173 49/6/154 87/10/173
f 45/6/174 88/11/175 87/10/170
f 88/11/175 45/6/170 46/6/163
f 88/11/175 46/6/163 84/10/163
f 87/10/176 88/11/177 45/6/176
f 46/6/167 45/6/173 88/11/177
f 84/10/167 46/6/167 88/11/177
f 91/10/178 90/10/179 89/11/180
f 90/10/179 91/10/178 75/6/178
f 90/10/179 75/6/178 69/6/179
f 89/11/181 90/10/182 91/10/183
f 75/6/183 91/10/183 90/10/182
f 69/6/182 75/6/183 90/10/182
f 65/6/184 93/11/185 92/10/184
f 93/11/185 65/6/184 66/6/186
f 93/11/185 66/6/186 94/10/186
f 92/10/187 93/11/188 65/6/187
f 66/6/189 65/6/187 93/11/188
f 94/10/189 66/6/189 93/11/188
f 97/10/190 96/10/191 95/11/192
f 96/10/191 97/10/190 71/6/190
f 96/10/191 71/6/190 73/6/191
f 95/11/193 96/10/194 97/10/195
f 71/6/195 97/10/195 96/10/194
f 73/6/194 71/6/195 96/10/194
f 98/11/196 75/6/197 91/10/178
f 75/6/178 98/11/196 73/6/191
f 73/6/198 98/11/196 96/10/191
f 91/10/199 75/6/199 98/11/200
f 73/6/194 98/11/200 75/6/183
f 96/10/201 98/11/200 73/6/201
f 94/10/186 97/10/190 99/11/202
f 97/10/190 94/10/186 66/6/186
f 97/10/190 66/6/186 71/6/190
f 99/11/203 97/10/195 94/10/189
f 66/6/189 94/10/189 97/10/195
f 71/6/195 66/6/189 97/10/195
f 90/10/179 92/10/184 100/11/204
f 92/10/184 90/10/179 69/6/179
f 92/10/184 69/6/179 65/6/184
f 100/11/205 92/10/187 90/10/182
f 69/6/182 90/10/182 92/10/187
f 65/6/187 69/6/182 92/10/187
f 102/11/206 61/6/207 101/10/151
f 61/6/208 102/11/149 59/6/152
f 59/6/152 102/11/149 103/10/152
f 101/10/154 61/6/209 102/11/210
f 59/6/156 102/11/155 61/6/154
f 103/10/156 102/11/155 59/6/156
f 103/10/152 60/6/144 59/6/152
f 60/6/144 103/10/152 104/11/159
f 60/6/211 104/11/212 105/10/144
f 59/6/156 60/6/213 103/10/156
f 104/11/161 103/10/156 60/6/147
f 105/10/147 104/11/214 60/6/215
f 62/6/216 107/11/217 106/10/218
f 107/11/175 62/6/170 53/6/163
f 107/11/219 53/6/163 108/10/163
f 106/10/220 107/11/221 62/6/220
f 53/6/167 62/6/173 107/11/177
f 108/10/167 53/6/167 107/11/222
f 110/10/143 105/10/144 109/11/145
f 105/10/144 110/10/143 54/6/143
f 105/10/144 54/6/143 60/6/144
f 109/11/146 105/10/147 110/10/148
f 54/6/148 110/10/148 105/10/147
f 60/6/147 54/6/148 105/10/147
f 101/10/150 106/10/170 111/11/171
f 106/10/170 101/10/150 61/6/150
f 106/10/170 61/6/150 62/6/170
f 111/11/223 106/10/173 101/10/154
f 61/6/154 101/10/154 106/10/173
f 62/6/173 61/6/154 106/10/173
f 53/6/163 112/11/224 108/10/163
f 112/11/224 53/6/163 54/6/143
f 112/11/225 54/6/226 110/10/165
f 108/10/167 112/11/168 53/6/167
f 54/6/148 53/6/167 112/11/227
f 110/10/228 54/6/229 112/11/230
