# Blender 4.1.1
# www.blender.org
mtllib hanging_moss.mtl
o hanging_moss
v -0.308981 0.939683 -0.641631
v -0.330825 0.884338 -0.641631
v -0.308981 0.939683 -0.626631
v -0.330825 0.884338 -0.626631
v -0.468815 0.865901 -0.641631
v -0.468815 1.030973 -0.641631
v -0.468815 0.865901 -0.626631
v -0.468815 1.030973 -0.626631
v -0.308981 1.030973 -0.641631
v -0.308981 1.030973 -0.626631
v -0.330825 1.030973 -0.626631
v -0.330825 1.030973 -0.606631
v -0.330825 0.607838 -0.606631
v -0.330825 0.607838 -0.641631
v -0.426492 0.849197 -0.626631
v -0.426492 0.849197 -0.641631
v -0.384169 0.552493 -0.641631
v -0.384169 0.706493 -0.641631
v -0.384169 0.552493 -0.606631
v -0.384169 0.706493 -0.616631
v -0.384169 1.030973 -0.616631
v -0.384169 1.030973 -0.606631
v -0.352669 0.552493 -0.641631
v -0.352669 0.552493 -0.606631
v -0.426492 0.723197 -0.641631
v -0.426492 0.723197 -0.616631
v -0.426492 1.030973 -0.626631
v -0.426492 1.030973 -0.616631
vn 0.9302 -0.3671 -0.0000
vn -1.0000 -0.0000 -0.0000
vn 1.0000 -0.0000 -0.0000
vn -0.0000 -0.0000 1.0000
vn -0.3671 -0.9302 -0.0000
vn -0.0000 -0.0000 -1.0000
vn -0.0000 1.0000 -0.0000
vn -0.0000 -1.0000 -0.0000
vt 19.094490 15.334360
vt 19.685040 12.991840
vt 19.685040 15.334360
vt 19.094490 12.991840
vt -19.094490 12.338920
vt -19.685040 18.837799
vt -19.685040 12.338920
vt -19.094490 18.837799
vt 19.094490 18.837799
vt 19.685040 15.243710
vt 19.685040 18.837799
vt 19.094490 15.243710
vt 18.307091 18.837799
vt 19.094490 13.064770
vt 18.307091 2.178944
vt 19.685040 2.178944
vt 19.685040 13.064770
vt 3.146331 15.243710
vt 2.286330 18.837799
vt 2.286330 13.064770
vt 3.146331 18.837799
vt -19.094490 7.456562
vt -19.685040 5.665224
vt -19.094490 5.665224
vt -19.685040 7.456562
vt -18.307091 0.000000
vt -19.685040 6.062992
vt -19.685040 0.000000
vt -18.700790 6.062992
vt -18.700790 18.837799
vt -18.307091 18.837799
vt 18.307091 2.866162
vt 19.685040 0.523643
vt 19.685040 2.866162
vt 18.307091 0.523643
vt -18.700790 6.720639
vt -19.685040 11.681270
vt -19.685040 6.720639
vt -19.094490 11.681270
vt -0.186172 6.062992
vt -1.426330 0.000000
vt -0.186172 0.000000
vt -2.286330 2.178944
vt -2.286330 13.064770
vt 1.480080 6.720639
vt 1.480080 11.681270
vt 3.146331 12.338920
vt -3.146331 15.243710
vt -3.146331 18.837799
vt 2.286330 2.178944
vt 0.186172 -0.000000
vt 1.426330 -0.000000
vt 0.186172 18.837799
vt -1.480080 6.720639
vt 0.186172 6.062992
vt -1.480080 18.837799
vt -3.146331 -19.685040
vt -2.286330 -19.094490
vt -3.146331 -19.094490
vt 3.146331 -19.685040
vt -0.186172 -18.700790
vt -0.186172 -18.307091
vt 1.480080 -19.094490
vt 1.480080 -18.700790
vt 3.146331 -19.094490
vt -2.286330 -18.307091
vt -18.700790 3.844049
vt -19.685040 2.052711
vt -18.700790 2.052711
vt -19.685040 3.844049
vt 0.186172 -18.307091
vt 1.426330 -19.685040
vt 1.426330 -18.307091
vt 0.186172 -19.685040
vt -3.146331 12.338920
vt -1.480080 11.681270
s 0
usemtl grass.091
f 3/1/1 2/2/1 1/3/1
f 2/2/1 3/1/1 4/4/1
f 7/5/2 6/6/2 5/7/2
f 6/6/2 7/5/2 8/8/2
f 10/9/3 1/10/3 9/11/3
f 1/10/3 10/9/3 3/12/3
f 12/13/3 4/14/3 11/9/3
f 13/15/3 4/14/3 12/13/3
f 14/16/3 4/14/3 13/15/3
f 4/14/3 14/16/3 2/17/3
f 3/18/4 11/19/4 4/20/4
f 11/19/4 3/18/4 10/21/4
f 7/22/5 16/23/5 15/24/5
f 16/23/5 7/22/5 5/25/5
f 19/26/2 18/27/2 17/28/2
f 18/27/2 19/26/2 20/29/2
f 20/29/2 19/26/2 21/30/2
f 21/30/2 19/26/2 22/31/2
f 13/32/1 23/33/1 14/34/1
f 23/33/1 13/32/1 24/35/1
f 26/36/2 16/37/2 25/38/2
f 16/37/2 26/36/2 15/39/2
f 15/39/2 26/36/2 27/8/2
f 27/8/2 26/36/2 28/30/2
f 18/40/6 23/41/6 17/42/6
f 23/41/6 18/40/6 14/43/6
f 14/43/6 18/40/6 2/44/6
f 2/44/6 18/40/6 25/45/6
f 2/44/6 25/45/6 16/46/6
f 2/44/6 16/46/6 5/47/6
f 2/44/6 5/47/6 6/21/6
f 2/44/6 6/21/6 1/48/6
f 1/48/6 6/21/6 9/49/6
f 13/50/4 19/51/4 24/52/4
f 19/51/4 13/50/4 22/53/4
f 22/53/4 13/50/4 12/19/4
f 21/53/4 26/54/4 20/55/4
f 26/54/4 21/53/4 28/56/4
f 9/57/7 11/58/7 10/59/7
f 11/58/7 9/57/7 6/60/7
f 11/58/7 6/60/7 21/61/7
f 11/58/7 21/61/7 22/62/7
f 21/61/7 6/60/7 27/63/7
f 21/61/7 27/63/7 28/64/7
f 27/63/7 6/60/7 8/65/7
f 22/62/7 12/66/7 11/58/7
f 26/67/5 18/68/5 20/69/5
f 18/68/5 26/67/5 25/70/5
f 19/71/8 23/72/8 24/73/8
f 23/72/8 19/71/8 17/74/8
f 27/56/4 7/75/4 15/76/4
f 7/75/4 27/56/4 8/49/4
