# Blender 4.1.1
# www.blender.org
mtllib driveway_long.012.mtl
o driveway_long.012
v -2.693558 -0.013377 -1.766207
v -2.693558 -0.013377 -2.205997
v -2.693558 -0.001160 -1.827289
v -2.693558 -0.001160 -2.144915
v -2.204902 -0.001160 -2.144915
v -2.204902 -0.001160 -1.827289
v -2.204902 -0.013377 -2.205997
v -2.204902 -0.013377 -1.766207
vn -1.0000 -0.0000 -0.0000
vn -0.0000 1.0000 -0.0000
vn 1.0000 -0.0000 -0.0000
vn -0.0000 -1.0000 -0.0000
vn -0.0000 0.9806 -0.1961
vn -0.0000 0.9806 0.1961
vt 5.118110 0.393701
vt -7.086614 0.000000
vt 7.086614 0.000000
vt -5.118110 0.393701
vt 5.118110 -7.874016
vt -5.118110 7.874016
vt -5.118110 -7.874016
vt 5.118110 7.874016
vt -7.086614 0.000000
vt 7.086614 0.000000
vt -7.086614 7.874016
vt 7.086614 -7.874016
vt 7.086614 7.874016
vt -7.086614 -7.874016
vt 7.874016 -4.941509
vt -7.874016 -6.948997
vt 7.874016 -6.948997
vt -7.874016 -4.941509
s 0
usemtl door.019
f 3/1/1 2/2/1 1/3/1
f 2/2/1 3/1/1 4/4/1
f 3/5/2 5/6/2 4/7/2
f 5/6/2 3/5/2 6/8/2
f 5/1/3 8/9/3 7/10/3
f 8/9/3 5/1/3 6/4/3
f 8/11/4 2/12/4 7/13/4
f 2/12/4 8/11/4 1/14/4
usemtl border.095
f 4/15/5 7/16/5 2/17/5
f 7/16/5 4/15/5 5/18/5
f 1/16/6 6/15/6 3/18/6
f 6/15/6 1/16/6 8/17/6
