# Blender 4.1.1
# www.blender.org
mtllib tree.008.mtl
o tree.008
v -17.076075 -0.217703 -7.300823
v -17.076075 -0.217703 -7.482381
v -17.166855 -0.217703 -7.210044
v -17.166855 -0.217703 -7.573160
v -17.348412 -0.217703 -7.210044
v -17.348412 -0.217703 -7.573160
v -17.439190 -0.217703 -7.300823
v -17.439190 -0.217703 -7.482381
v -17.166855 0.111018 -7.436991
v -17.166855 0.111018 -7.346213
v -17.212244 0.111018 -7.300823
v -17.212244 0.111018 -7.482381
v -17.303022 0.111018 -7.482381
v -17.348412 0.111018 -7.436991
v -17.348412 0.111018 -7.346213
v -17.303022 0.111018 -7.300823
v -17.371105 0.604137 -7.448339
v -17.371105 0.604137 -7.334866
v -17.314369 0.604137 -7.278129
v -17.144159 0.604137 -7.448339
v -17.144159 0.604137 -7.334866
v -17.314369 0.604137 -7.505076
v -17.200895 0.604137 -7.505076
v -17.200895 0.604137 -7.278129
v -17.107584 0.228384 -7.435975
v -17.134844 0.228384 -7.370162
v -17.134844 0.228384 -7.501788
v -17.200657 0.228384 -7.529047
v -17.200657 0.228384 -7.342903
v -17.266470 0.228384 -7.501788
v -17.266470 0.228384 -7.370162
v -17.293730 0.228384 -7.435975
v -17.054867 0.109101 -7.435975
v -17.097567 0.109101 -7.539064
v -17.097567 0.109101 -7.332886
v -17.200657 0.109101 -7.290184
v -17.200657 0.109101 -7.581766
v -17.303745 0.109101 -7.332886
v -17.303745 0.109101 -7.539064
v -17.346449 0.109101 -7.435975
v -17.040363 0.604137 -7.000036
v -17.492506 0.604137 -7.000036
v -17.133051 1.147643 -7.160576
v -17.399818 1.147643 -7.160576
v -17.040363 0.604137 -7.783169
v -16.814293 0.604137 -7.391602
v -17.133051 1.147643 -7.622629
v -16.999668 1.147643 -7.391602
v -17.492506 0.604137 -7.783169
v -17.399818 1.147643 -7.622629
v -17.533199 1.147643 -7.391602
v -17.718576 0.604137 -7.391602
v -17.005728 1.731559 -7.391602
v -17.136082 1.731559 -7.165824
v -17.206512 2.344026 -7.391602
v -17.236473 2.344026 -7.339708
v -17.326357 2.344026 -7.391602
v -17.296396 2.344026 -7.339708
v -17.527140 1.731559 -7.391602
v -17.396788 1.731559 -7.165824
v -17.396788 1.731559 -7.617381
v -17.136082 1.731559 -7.617381
v -17.296396 2.344026 -7.443497
v -17.236473 2.344026 -7.443497
v -16.948088 1.147643 -7.575400
v -16.948088 1.147643 -7.207805
v -17.120565 1.731559 -7.475821
v -17.120565 1.731559 -7.307384
v -17.266434 1.147643 -7.759198
v -17.266434 1.731559 -7.560039
v -17.266434 1.147643 -7.024007
v -17.266434 1.731559 -7.223166
v -17.584782 1.147643 -7.207805
v -17.412304 1.731559 -7.307384
v -17.584782 1.147643 -7.575400
v -17.412304 1.731559 -7.475821
v -17.266434 0.434583 -6.913891
v -17.517374 0.519360 -6.956963
v -17.015495 0.519360 -6.956963
v -17.517374 0.519360 -7.826241
v -17.680145 0.434583 -7.630458
v -17.768312 0.519360 -7.391602
v -17.680145 0.434583 -7.152746
v -16.764557 0.519360 -7.391602
v -16.852724 0.434583 -7.152746
v -17.266434 0.434583 -7.869314
v -17.015495 0.519360 -7.826241
v -16.852724 0.434583 -7.630458
v -17.460627 1.009795 -7.727952
v -17.266434 1.078719 -7.799634
v -17.619801 1.078719 -7.595618
v -16.913069 1.078719 -7.595618
v -16.878052 1.009795 -7.391602
v -16.913069 1.078719 -7.187587
v -17.460627 1.009795 -7.055253
v -17.619801 1.078719 -7.187587
v -17.266434 1.078719 -6.983571
v -17.654818 1.009795 -7.391602
v -17.072243 1.009795 -7.055253
v -17.072243 1.009795 -7.727952
v -17.411125 1.682676 -7.642216
v -17.504980 1.633794 -7.529327
v -17.555819 1.682676 -7.391602
v -17.504980 1.633794 -7.253878
v -17.411125 1.682676 -7.140988
v -17.121742 1.682676 -7.642216
v -17.027889 1.633794 -7.529327
v -16.977051 1.682676 -7.391602
v -17.266434 1.633794 -7.116153
v -17.121742 1.682676 -7.140988
v -17.266434 1.633794 -7.667051
v -17.027889 1.633794 -7.253878
vn -0.0000 -1.0000 -0.0000
vn 0.8851 0.2942 -0.3607
vn 0.8812 0.2944 0.3698
vn 0.8812 0.2944 -0.3698
vn 0.8851 0.2942 0.3607
vn 0.3607 0.2942 0.8850
vn 0.8850 0.2942 0.3608
vn 0.3608 0.2943 0.8850
vn 0.3698 0.2944 0.8812
vn 0.3607 0.2942 -0.8850
vn 0.3698 0.2944 -0.8812
vn 0.8850 0.2942 -0.3608
vn -0.3607 0.2942 -0.8851
vn 0.3698 0.2944 -0.8813
vn -0.3698 0.2944 -0.8812
vn 0.3607 0.2942 -0.8851
vn -0.8813 0.2944 0.3698
vn -0.8851 0.2942 -0.3607
vn -0.8812 0.2944 -0.3698
vn -0.8851 0.2942 0.3607
vn 0.3607 0.2942 0.8851
vn -0.3698 0.2944 0.8812
vn -0.3698 0.2944 0.8813
vn -0.3607 0.2942 0.8851
vn -0.3608 0.2943 -0.8850
vn -0.3607 0.2942 -0.8850
vn -0.8850 0.2942 -0.3608
vn -0.8812 0.2944 0.3698
vn -0.3607 0.2942 0.8850
vn -0.8850 0.2942 0.3608
vn -0.3608 0.2942 0.8850
vn -0.9230 -0.0513 -0.3813
vn -0.9223 -0.0512 0.3829
vn -0.9223 -0.0513 -0.3829
vn -0.9223 -0.0513 0.3829
vn -0.9230 -0.0513 0.3813
vn -0.3814 -0.0512 0.9230
vn -0.9223 -0.0513 0.3830
vn -0.9230 -0.0512 0.3814
vn -0.3814 -0.0513 0.9230
vn -0.3830 -0.0512 0.9223
vn 0.9223 -0.0512 0.3829
vn 0.9230 -0.0513 -0.3813
vn 0.9223 -0.0513 -0.3829
vn 0.9230 -0.0513 0.3813
vn -0.3829 -0.0513 -0.9223
vn 0.3813 -0.0513 -0.9230
vn -0.3813 -0.0513 -0.9230
vn -0.3829 -0.0512 -0.9223
vn 0.3829 -0.0513 -0.9223
vn 0.9223 -0.0513 0.3830
vn 0.3814 -0.0513 0.9230
vn 0.9230 -0.0513 0.3814
vn 0.9223 -0.0512 0.3830
vn 0.3830 -0.0513 0.9223
vn -0.3814 -0.0513 -0.9230
vn -0.9223 -0.0512 -0.3830
vn -0.3830 -0.0513 -0.9223
vn -0.9223 -0.0513 -0.3830
vn -0.9230 -0.0512 -0.3814
vn 0.9223 -0.0513 -0.3830
vn 0.3814 -0.0513 -0.9230
vn 0.3830 -0.0512 -0.9223
vn 0.3814 -0.0512 -0.9230
vn 0.9230 -0.0512 -0.3814
vn 0.3829 -0.0513 0.9223
vn -0.3813 -0.0513 0.9230
vn 0.3813 -0.0513 0.9230
vn 0.3829 -0.0512 0.9223
vn -0.3829 -0.0513 0.9223
vn -0.0000 1.0000 -0.0000
vn 0.6468 0.4042 -0.6467
vn 0.9147 0.4042 -0.0000
vn 0.9147 0.4042 -0.0001
vn 0.6468 0.4042 -0.6468
vn 0.9146 0.4043 -0.0001
vn -0.0000 0.4042 0.9147
vn -0.6468 0.4042 0.6468
vn -0.6467 0.4042 0.6468
vn -0.9147 0.4042 -0.0000
vn -0.6468 0.4042 0.6467
vn -0.9146 0.4043 -0.0000
vn -0.9147 0.4042 0.0001
vn -0.0000 0.4042 -0.9147
vn 0.6467 0.4042 -0.6468
vn 0.6467 0.4042 0.6468
vn -0.0000 0.4043 0.9146
vn -0.6467 0.4042 -0.6468
vn -0.0000 0.4043 -0.9146
vn 0.6468 0.4042 0.6468
vn 0.9146 0.4043 0.0001
vn 0.9147 0.4042 0.0001
vn 0.6468 0.4042 0.6467
vn -0.9147 0.4042 -0.0001
vn -0.6468 0.4042 -0.6468
vn -0.6468 0.4042 -0.6467
vn 0.4732 0.3228 0.8197
vn -0.4732 0.3228 0.8197
vn 0.4732 0.3228 -0.8197
vn 0.9465 0.3228 -0.0000
vn -0.4732 0.3228 -0.8197
vn -0.9465 0.3228 -0.0000
vn -0.4732 0.3228 0.8196
vn -0.4733 0.3228 -0.8197
vn 0.6877 0.7260 -0.0000
vn 0.4751 0.3115 0.8229
vn 0.9503 0.3115 -0.0000
vn 0.3438 0.7260 0.5956
vn -0.9502 0.3115 -0.0000
vn -0.3439 0.7260 0.5956
vn -0.6877 0.7260 -0.0001
vn -0.3438 0.7260 0.5956
vn -0.4751 0.3115 0.8229
vn -0.3439 0.7260 -0.5956
vn 0.4751 0.3115 -0.8229
vn -0.4751 0.3115 -0.8229
vn 0.3439 0.7260 -0.5956
vn 0.3438 0.7260 -0.5956
vn 0.9502 0.3115 -0.0000
vn 0.6877 0.7260 0.0001
vn 0.3439 0.7259 -0.5956
vn 0.3439 0.7259 0.5956
vn 0.6877 0.7259 -0.0000
vn -0.3439 0.7259 0.5956
vn -0.3439 0.7259 -0.5956
vn -0.6877 0.7259 -0.0000
vn -0.3438 0.7260 -0.5956
vn -0.3439 0.7260 -0.5955
vn -0.6877 0.7260 -0.0000
vn 0.3439 0.7260 0.5956
vn 0.8197 0.3228 -0.4732
vn 0.8197 0.3228 0.4732
vn -0.0000 0.3228 -0.9465
vn 0.8196 0.3228 0.4732
vn -0.0000 0.3228 0.9465
vn -0.8196 0.3228 0.4732
vn -0.8197 0.3228 0.4732
vn -0.8196 0.3228 -0.4732
vn -0.8197 0.3228 -0.4732
vn 0.4313 0.5060 0.7470
vn -0.4313 0.5060 0.7470
vn -0.0000 0.4530 0.8915
vn -0.0000 -0.4530 -0.8915
vn 0.4313 -0.5060 -0.7470
vn -0.4313 -0.5060 -0.7470
vn -0.7721 0.4529 -0.4458
vn -0.4313 0.5060 -0.7470
vn -0.4313 0.5061 -0.7469
vn -0.7721 0.4530 -0.4458
vn -0.8625 0.5060 -0.0000
vn 0.4313 -0.5060 0.7470
vn 0.7721 -0.4530 0.4458
vn 0.8625 -0.5060 -0.0000
vn -0.7721 0.4530 0.4458
vn 0.7721 -0.4530 -0.4458
vn 0.8625 0.5060 -0.0000
vn 0.7721 0.4530 0.4458
vn 0.4312 0.5060 0.7470
vn 0.7721 0.4530 0.4457
vn 0.4313 0.5061 0.7469
vn -0.8625 -0.5060 -0.0000
vn -0.7721 -0.4530 -0.4458
vn -0.4313 -0.5060 -0.7469
vn -0.7721 -0.4530 -0.4457
vn 0.4313 0.5060 -0.7470
vn -0.0000 0.4530 -0.8915
vn -0.0000 -0.4529 0.8915
vn -0.4313 -0.5060 0.7470
vn 0.4313 0.5060 -0.7469
vn 0.7721 0.4530 -0.4457
vn 0.7721 0.4530 -0.4458
vn -0.7721 -0.4530 0.4457
vn -0.4313 -0.5060 0.7469
vn -0.7721 -0.4530 0.4458
vn -0.7470 0.5060 -0.4313
vn -0.0000 0.5060 -0.8625
vn -0.4458 0.4530 -0.7721
vn 0.4458 -0.4530 0.7721
vn -0.0000 -0.5060 0.8625
vn 0.7470 -0.5060 0.4313
vn 0.7470 0.5060 -0.4312
vn 0.8915 0.4530 -0.0000
vn 0.7470 0.5060 -0.4313
vn 0.7470 0.5060 0.4313
vn 0.7470 0.5060 0.4312
vn -0.7470 -0.5060 0.4312
vn -0.8915 -0.4530 -0.0000
vn -0.7470 -0.5060 -0.4313
vn -0.7470 -0.5060 0.4313
vn -0.7470 -0.5060 -0.4312
vn -0.0000 0.5060 0.8625
vn -0.7470 0.5060 0.4313
vn -0.4458 0.4530 0.7721
vn 0.4458 -0.4530 -0.7721
vn 0.7470 -0.5060 -0.4313
vn -0.0000 -0.5060 -0.8625
vn -0.8915 0.4530 -0.0000
vn 0.8915 -0.4530 -0.0000
vn 0.4458 0.4529 0.7721
vn -0.4458 -0.4529 -0.7721
vn 0.4458 0.4530 -0.7721
vn -0.4458 -0.4530 0.7721
vn 0.7721 -0.4530 0.4457
vn -0.7721 0.4529 0.4458
vn 0.7721 -0.4529 -0.4457
vn 0.4313 -0.5060 -0.7469
vn -0.7721 -0.4529 0.4458
vn -0.0000 -0.4530 0.8915
vt 0.593750 0.025000
vt 0.593750 0.104996
vt 0.593750 0.225000
vt 0.093750 0.475000
vt 0.093750 0.275000
vt 0.093750 0.425000
vt 0.093750 0.348778
vt 0.093750 0.338765
vt 0.093750 0.344099
vt 0.093750 0.375000
vt 0.093750 0.325000
s 0
usemtl colormap.002
f 3/1/1 2/1/1 1/1/1
f 2/1/1 3/1/1 4/1/1
f 4/1/1 3/1/1 5/1/1
f 4/1/1 5/1/1 6/1/1
f 6/1/1 5/1/1 7/1/1
f 6/1/1 7/1/1 8/1/1
f 9/2/2 1/1/3 2/1/4
f 1/1/3 9/2/2 10/2/5
f 11/2/6 1/1/3 10/2/7
f 1/1/3 11/2/8 3/1/9
f 12/2/10 2/1/4 4/1/11
f 2/1/4 12/2/10 9/2/12
f 13/2/13 4/1/14 6/1/15
f 4/1/14 13/2/13 12/2/16
f 7/1/17 14/2/18 8/1/19
f 14/2/18 7/1/17 15/2/20
f 11/2/21 5/1/22 3/1/9
f 5/1/23 11/2/21 16/2/24
f 8/1/19 13/2/25 6/1/15
f 13/2/26 8/1/19 14/2/27
f 7/1/28 16/2/29 15/2/30
f 16/2/31 7/1/28 5/1/22
f 14/2/32 18/3/33 17/3/34
f 18/3/35 14/2/32 15/2/36
f 16/2/37 18/3/38 15/2/39
f 18/3/38 16/2/40 19/3/41
f 21/3/42 9/2/43 20/3/44
f 9/2/43 21/3/42 10/2/45
f 22/3/46 12/2/47 13/2/48
f 12/2/47 22/3/49 23/3/50
f 21/3/51 11/2/52 10/2/53
f 11/2/52 21/3/54 24/3/55
f 13/2/56 17/3/57 22/3/58
f 17/3/59 13/2/56 14/2/60
f 20/3/61 12/2/62 23/3/63
f 12/2/64 20/3/61 9/2/65
f 24/3/66 16/2/67 11/2/68
f 16/2/67 24/3/69 19/3/70
f 27/4/71 26/4/71 25/4/71
f 26/4/71 27/4/71 28/4/71
f 26/4/71 28/4/71 29/4/71
f 29/4/71 28/4/71 30/4/71
f 29/4/71 30/4/71 31/4/71
f 31/4/71 30/4/71 32/4/71
f 35/5/1 34/5/1 33/5/1
f 34/5/1 35/5/1 36/5/1
f 34/5/1 36/5/1 37/5/1
f 37/5/1 36/5/1 38/5/1
f 37/5/1 38/5/1 39/5/1
f 39/5/1 38/5/1 40/5/1
f 27/4/72 33/5/73 34/5/72
f 33/5/74 27/4/75 25/4/76
f 29/4/77 38/5/78 36/5/77
f 38/5/78 29/4/77 31/4/79
f 40/5/80 31/4/81 32/4/82
f 31/4/78 40/5/83 38/5/78
f 28/4/84 34/5/75 37/5/84
f 34/5/85 28/4/84 27/4/85
f 26/4/86 36/5/77 35/5/86
f 36/5/77 26/4/86 29/4/87
f 30/4/88 37/5/84 39/5/88
f 37/5/84 30/4/88 28/4/89
f 26/4/90 33/5/91 25/4/92
f 33/5/73 26/4/93 35/5/93
f 40/5/94 30/4/95 39/5/95
f 30/4/96 40/5/82 32/4/80
f 43/6/97 42/7/98 41/7/97
f 42/7/98 43/6/97 44/6/98
f 47/6/99 46/7/100 45/7/99
f 46/7/100 47/6/99 48/6/100
f 50/6/101 45/7/99 49/7/101
f 45/7/99 50/6/101 47/6/99
f 48/6/100 41/7/97 46/7/100
f 41/7/97 48/6/100 43/6/97
f 52/7/102 44/6/98 51/6/102
f 44/6/98 52/7/102 42/7/103
f 52/7/102 50/6/104 49/7/101
f 50/6/101 52/7/102 51/6/102
f 41/7/1 45/7/1 46/7/1
f 45/7/1 41/7/1 42/7/1
f 45/7/1 42/7/1 49/7/1
f 49/7/1 42/7/1 52/7/1
f 55/6/105 54/8/106 53/8/107
f 54/8/106 55/6/105 56/6/108
f 59/8/109 58/6/110 57/6/111
f 58/6/112 59/8/109 60/8/113
f 63/6/114 62/8/115 61/8/116
f 62/8/115 63/6/114 64/6/117
f 64/6/118 53/8/119 62/8/115
f 53/8/119 64/6/117 55/6/120
f 64/6/121 56/6/122 55/6/123
f 56/6/122 64/6/121 58/6/124
f 58/6/124 64/6/121 63/6/125
f 58/6/124 63/6/125 57/6/126
f 59/8/109 63/6/127 61/8/116
f 63/6/128 59/8/109 57/6/129
f 54/8/1 62/8/1 53/8/1
f 62/8/1 54/8/1 60/8/1
f 62/8/1 60/8/1 61/8/1
f 61/8/1 60/8/1 59/8/1
f 56/6/130 60/8/113 54/8/106
f 60/8/113 56/6/130 58/6/110
f 67/6/131 66/9/132 65/9/131
f 66/9/132 67/6/131 68/6/132
f 70/6/133 65/9/131 69/9/133
f 65/9/131 70/6/133 67/6/131
f 68/6/134 71/9/135 66/9/132
f 71/9/135 68/6/132 72/6/135
f 72/6/135 73/9/136 71/9/135
f 73/9/137 72/6/135 74/6/137
f 71/9/1 65/9/1 66/9/1
f 65/9/1 71/9/1 69/9/1
f 69/9/1 71/9/1 73/9/1
f 69/9/1 73/9/1 75/9/1
f 76/6/138 69/9/133 75/9/138
f 69/9/133 76/6/139 70/6/133
f 73/9/137 76/6/139 75/9/139
f 76/6/139 73/9/137 74/6/137
f 79/10/140 78/10/141 77/11/142
f 78/10/141 79/10/140 41/6/140
f 78/10/141 41/6/140 42/6/141
f 77/11/143 78/10/144 79/10/145
f 41/6/145 79/10/145 78/10/144
f 42/6/144 41/6/145 78/10/144
f 81/11/146 49/6/147 80/10/147
f 49/6/148 81/11/149 52/6/150
f 52/6/150 81/11/149 82/10/150
f 80/10/151 49/6/151 81/11/152
f 52/6/153 81/11/152 49/6/151
f 82/10/153 81/11/152 52/6/153
f 82/10/150 42/6/141 52/6/150
f 42/6/141 82/10/150 83/11/154
f 42/6/141 83/11/154 78/10/141
f 52/6/153 42/6/144 82/10/153
f 83/11/155 82/10/153 42/6/144
f 78/10/144 83/11/155 42/6/144
f 46/6/156 85/11/157 84/10/156
f 85/11/157 46/6/156 41/6/158
f 85/11/159 41/6/160 79/10/140
f 84/10/161 85/11/162 46/6/161
f 41/6/145 46/6/161 85/11/162
f 79/10/145 41/6/163 85/11/164
f 80/10/147 87/10/165 86/11/166
f 87/10/165 80/10/147 49/6/147
f 87/10/165 49/6/147 45/6/165
f 86/11/167 87/10/168 80/10/151
f 49/6/151 80/10/151 87/10/168
f 45/6/168 49/6/151 87/10/168
f 45/6/169 88/11/170 87/10/165
f 88/11/171 45/6/165 46/6/156
f 88/11/171 46/6/156 84/10/156
f 87/10/168 88/11/172 45/6/173
f 46/6/161 45/6/168 88/11/174
f 84/10/161 46/6/161 88/11/174
f 91/10/175 90/10/176 89/11/177
f 90/10/176 91/10/175 75/6/175
f 90/10/176 75/6/175 69/6/176
f 89/11/178 90/10/179 91/10/180
f 75/6/180 91/10/180 90/10/179
f 69/6/179 75/6/180 90/10/179
f 65/6/181 93/11/182 92/10/183
f 93/11/182 65/6/183 66/6/184
f 93/11/182 66/6/185 94/10/184
f 92/10/186 93/11/187 65/6/186
f 66/6/188 65/6/189 93/11/187
f 94/10/190 66/6/190 93/11/187
f 97/10/191 96/10/192 95/11/193
f 96/10/192 97/10/191 71/6/191
f 96/10/192 71/6/191 73/6/192
f 95/11/194 96/10/195 97/10/196
f 71/6/196 97/10/196 96/10/195
f 73/6/195 71/6/196 96/10/195
f 98/11/197 75/6/175 91/10/175
f 75/6/175 98/11/197 73/6/192
f 73/6/192 98/11/197 96/10/192
f 91/10/180 75/6/180 98/11/198
f 73/6/195 98/11/198 75/6/180
f 96/10/195 98/11/198 73/6/195
f 94/10/184 97/10/191 99/11/199
f 97/10/191 94/10/184 66/6/184
f 97/10/191 66/6/184 71/6/191
f 99/11/200 97/10/196 94/10/188
f 66/6/188 94/10/188 97/10/196
f 71/6/196 66/6/188 97/10/196
f 90/10/176 92/10/183 100/11/201
f 92/10/183 90/10/176 69/6/176
f 92/10/183 69/6/176 65/6/183
f 100/11/202 92/10/189 90/10/179
f 69/6/179 90/10/179 92/10/189
f 65/6/189 69/6/179 92/10/189
f 102/11/149 61/6/147 101/10/147
f 61/6/147 102/11/149 59/6/150
f 59/6/150 102/11/149 103/10/150
f 101/10/151 61/6/151 102/11/203
f 59/6/153 102/11/152 61/6/151
f 103/10/153 102/11/152 59/6/153
f 103/10/150 60/6/141 59/6/150
f 60/6/141 103/10/150 104/11/154
f 60/6/141 104/11/204 105/10/141
f 59/6/153 60/6/144 103/10/153
f 104/11/155 103/10/153 60/6/144
f 105/10/144 104/11/205 60/6/206
f 62/6/165 107/11/171 106/10/165
f 107/11/171 62/6/165 53/6/156
f 107/11/170 53/6/156 108/10/156
f 106/10/168 107/11/174 62/6/168
f 53/6/161 62/6/168 107/11/207
f 108/10/161 53/6/161 107/11/172
f 110/10/140 105/10/141 109/11/142
f 105/10/141 110/10/140 54/6/140
f 105/10/141 54/6/140 60/6/141
f 109/11/143 105/10/144 110/10/145
f 54/6/145 110/10/145 105/10/144
f 60/6/144 54/6/145 105/10/144
f 101/10/147 106/10/165 111/11/166
f 106/10/165 101/10/147 61/6/147
f 106/10/165 61/6/147 62/6/165
f 111/11/208 106/10/168 101/10/151
f 61/6/151 101/10/151 106/10/168
f 62/6/168 61/6/151 106/10/168
f 53/6/156 112/11/159 108/10/156
f 112/11/157 53/6/156 54/6/140
f 112/11/157 54/6/140 110/10/140
f 108/10/161 112/11/164 53/6/161
f 54/6/145 53/6/161 112/11/162
f 110/10/145 54/6/145 112/11/162
f 3/1/1 2/1/1 1/1/1
f 2/1/1 3/1/1 4/1/1
f 4/1/1 3/1/1 5/1/1
f 4/1/1 5/1/1 6/1/1
f 6/1/1 5/1/1 7/1/1
f 6/1/1 7/1/1 8/1/1
f 9/2/2 1/1/3 2/1/4
f 1/1/3 9/2/2 10/2/5
f 11/2/6 1/1/3 10/2/7
f 1/1/3 11/2/8 3/1/9
f 12/2/10 2/1/4 4/1/11
f 2/1/4 12/2/10 9/2/12
f 13/2/13 4/1/14 6/1/15
f 4/1/14 13/2/13 12/2/16
f 7/1/17 14/2/18 8/1/19
f 14/2/18 7/1/17 15/2/20
f 11/2/21 5/1/22 3/1/9
f 5/1/23 11/2/21 16/2/24
f 8/1/19 13/2/25 6/1/15
f 13/2/26 8/1/19 14/2/27
f 7/1/28 16/2/29 15/2/30
f 16/2/31 7/1/28 5/1/22
f 14/2/32 18/3/33 17/3/34
f 18/3/35 14/2/32 15/2/36
f 16/2/37 18/3/38 15/2/39
f 18/3/38 16/2/40 19/3/41
f 21/3/42 9/2/43 20/3/44
f 9/2/43 21/3/42 10/2/45
f 22/3/46 12/2/47 13/2/48
f 12/2/47 22/3/49 23/3/50
f 21/3/51 11/2/52 10/2/53
f 11/2/52 21/3/54 24/3/55
f 13/2/56 17/3/57 22/3/58
f 17/3/59 13/2/56 14/2/60
f 20/3/61 12/2/62 23/3/63
f 12/2/64 20/3/61 9/2/65
f 24/3/66 16/2/67 11/2/68
f 16/2/67 24/3/69 19/3/70
f 27/4/71 26/4/71 25/4/71
f 26/4/71 27/4/71 28/4/71
f 26/4/71 28/4/71 29/4/71
f 29/4/71 28/4/71 30/4/71
f 29/4/71 30/4/71 31/4/71
f 31/4/71 30/4/71 32/4/71
f 35/5/1 34/5/1 33/5/1
f 34/5/1 35/5/1 36/5/1
f 34/5/1 36/5/1 37/5/1
f 37/5/1 36/5/1 38/5/1
f 37/5/1 38/5/1 39/5/1
f 39/5/1 38/5/1 40/5/1
f 27/4/72 33/5/73 34/5/72
f 33/5/74 27/4/75 25/4/76
f 29/4/77 38/5/78 36/5/77
f 38/5/78 29/4/77 31/4/79
f 40/5/80 31/4/81 32/4/82
f 31/4/78 40/5/83 38/5/78
f 28/4/84 34/5/75 37/5/84
f 34/5/85 28/4/84 27/4/85
f 26/4/86 36/5/77 35/5/86
f 36/5/77 26/4/86 29/4/87
f 30/4/88 37/5/84 39/5/88
f 37/5/84 30/4/88 28/4/89
f 26/4/90 33/5/91 25/4/92
f 33/5/73 26/4/93 35/5/93
f 40/5/94 30/4/95 39/5/95
f 30/4/96 40/5/82 32/4/80
f 43/6/97 42/7/98 41/7/97
f 42/7/98 43/6/97 44/6/98
f 47/6/99 46/7/100 45/7/99
f 46/7/100 47/6/99 48/6/100
f 50/6/101 45/7/99 49/7/101
f 45/7/99 50/6/101 47/6/99
f 48/6/100 41/7/97 46/7/100
f 41/7/97 48/6/100 43/6/97
f 52/7/102 44/6/98 51/6/102
f 44/6/98 52/7/102 42/7/103
f 52/7/102 50/6/104 49/7/101
f 50/6/101 52/7/102 51/6/102
f 41/7/1 45/7/1 46/7/1
f 45/7/1 41/7/1 42/7/1
f 45/7/1 42/7/1 49/7/1
f 49/7/1 42/7/1 52/7/1
f 55/6/105 54/8/106 53/8/107
f 54/8/106 55/6/105 56/6/108
f 59/8/109 58/6/110 57/6/111
f 58/6/112 59/8/109 60/8/113
f 63/6/114 62/8/115 61/8/116
f 62/8/115 63/6/114 64/6/117
f 64/6/118 53/8/119 62/8/115
f 53/8/119 64/6/117 55/6/120
f 64/6/121 56/6/122 55/6/123
f 56/6/122 64/6/121 58/6/124
f 58/6/124 64/6/121 63/6/125
f 58/6/124 63/6/125 57/6/126
f 59/8/109 63/6/127 61/8/116
f 63/6/128 59/8/109 57/6/129
f 54/8/1 62/8/1 53/8/1
f 62/8/1 54/8/1 60/8/1
f 62/8/1 60/8/1 61/8/1
f 61/8/1 60/8/1 59/8/1
f 56/6/130 60/8/113 54/8/106
f 60/8/113 56/6/130 58/6/110
f 67/6/131 66/9/132 65/9/131
f 66/9/132 67/6/131 68/6/132
f 70/6/133 65/9/131 69/9/133
f 65/9/131 70/6/133 67/6/131
f 68/6/134 71/9/135 66/9/132
f 71/9/135 68/6/132 72/6/135
f 72/6/135 73/9/136 71/9/135
f 73/9/137 72/6/135 74/6/137
f 71/9/1 65/9/1 66/9/1
f 65/9/1 71/9/1 69/9/1
f 69/9/1 71/9/1 73/9/1
f 69/9/1 73/9/1 75/9/1
f 76/6/138 69/9/133 75/9/138
f 69/9/133 76/6/139 70/6/133
f 73/9/137 76/6/139 75/9/139
f 76/6/139 73/9/137 74/6/137
f 79/10/140 78/10/141 77/11/142
f 78/10/141 79/10/140 41/6/140
f 78/10/141 41/6/140 42/6/141
f 77/11/143 78/10/144 79/10/145
f 41/6/145 79/10/145 78/10/144
f 42/6/144 41/6/145 78/10/144
f 81/11/146 49/6/147 80/10/147
f 49/6/148 81/11/149 52/6/150
f 52/6/150 81/11/149 82/10/150
f 80/10/151 49/6/151 81/11/152
f 52/6/153 81/11/152 49/6/151
f 82/10/153 81/11/152 52/6/153
f 82/10/150 42/6/141 52/6/150
f 42/6/141 82/10/150 83/11/154
f 42/6/141 83/11/154 78/10/141
f 52/6/153 42/6/144 82/10/153
f 83/11/155 82/10/153 42/6/144
f 78/10/144 83/11/155 42/6/144
f 46/6/156 85/11/157 84/10/156
f 85/11/157 46/6/156 41/6/158
f 85/11/159 41/6/160 79/10/140
f 84/10/161 85/11/162 46/6/161
f 41/6/145 46/6/161 85/11/162
f 79/10/145 41/6/163 85/11/164
f 80/10/147 87/10/165 86/11/166
f 87/10/165 80/10/147 49/6/147
f 87/10/165 49/6/147 45/6/165
f 86/11/167 87/10/168 80/10/151
f 49/6/151 80/10/151 87/10/168
f 45/6/168 49/6/151 87/10/168
f 45/6/169 88/11/170 87/10/165
f 88/11/171 45/6/165 46/6/156
f 88/11/171 46/6/156 84/10/156
f 87/10/168 88/11/172 45/6/173
f 46/6/161 45/6/168 88/11/174
f 84/10/161 46/6/161 88/11/174
f 91/10/175 90/10/176 89/11/177
f 90/10/176 91/10/175 75/6/175
f 90/10/176 75/6/175 69/6/176
f 89/11/178 90/10/179 91/10/180
f 75/6/180 91/10/180 90/10/179
f 69/6/179 75/6/180 90/10/179
f 65/6/181 93/11/182 92/10/183
f 93/11/182 65/6/183 66/6/184
f 93/11/182 66/6/185 94/10/184
f 92/10/186 93/11/187 65/6/186
f 66/6/188 65/6/189 93/11/187
f 94/10/190 66/6/190 93/11/187
f 97/10/191 96/10/192 95/11/193
f 96/10/192 97/10/191 71/6/191
f 96/10/192 71/6/191 73/6/192
f 95/11/194 96/10/195 97/10/196
f 71/6/196 97/10/196 96/10/195
f 73/6/195 71/6/196 96/10/195
f 98/11/197 75/6/175 91/10/175
f 75/6/175 98/11/197 73/6/192
f 73/6/192 98/11/197 96/10/192
f 91/10/180 75/6/180 98/11/198
f 73/6/195 98/11/198 75/6/180
f 96/10/195 98/11/198 73/6/195
f 94/10/184 97/10/191 99/11/199
f 97/10/191 94/10/184 66/6/184
f 97/10/191 66/6/184 71/6/191
f 99/11/200 97/10/196 94/10/188
f 66/6/188 94/10/188 97/10/196
f 71/6/196 66/6/188 97/10/196
f 90/10/176 92/10/183 100/11/201
f 92/10/183 90/10/176 69/6/176
f 92/10/183 69/6/176 65/6/183
f 100/11/202 92/10/189 90/10/179
f 69/6/179 90/10/179 92/10/189
f 65/6/189 69/6/179 92/10/189
f 102/11/149 61/6/147 101/10/147
f 61/6/147 102/11/149 59/6/150
f 59/6/150 102/11/149 103/10/150
f 101/10/151 61/6/151 102/11/203
f 59/6/153 102/11/152 61/6/151
f 103/10/153 102/11/152 59/6/153
f 103/10/150 60/6/141 59/6/150
f 60/6/141 103/10/150 104/11/154
f 60/6/141 104/11/204 105/10/141
f 59/6/153 60/6/144 103/10/153
f 104/11/155 103/10/153 60/6/144
f 105/10/144 104/11/205 60/6/206
f 62/6/165 107/11/171 106/10/165
f 107/11/171 62/6/165 53/6/156
f 107/11/170 53/6/156 108/10/156
f 106/10/168 107/11/174 62/6/168
f 53/6/161 62/6/168 107/11/207
f 108/10/161 53/6/161 107/11/172
f 110/10/140 105/10/141 109/11/142
f 105/10/141 110/10/140 54/6/140
f 105/10/141 54/6/140 60/6/141
f 109/11/143 105/10/144 110/10/145
f 54/6/145 110/10/145 105/10/144
f 60/6/144 54/6/145 105/10/144
f 101/10/147 106/10/165 111/11/166
f 106/10/165 101/10/147 61/6/147
f 106/10/165 61/6/147 62/6/165
f 111/11/208 106/10/168 101/10/151
f 61/6/151 101/10/151 106/10/168
f 62/6/168 61/6/151 106/10/168
f 53/6/156 112/11/159 108/10/156
f 112/11/157 53/6/156 54/6/140
f 112/11/157 54/6/140 110/10/140
f 108/10/161 112/11/164 53/6/161
f 54/6/145 53/6/161 112/11/162
f 110/10/145 54/6/145 112/11/162
