# Blender 4.1.1
# www.blender.org
mtllib tree.008.mtl
o tree.008
v -18.065414 -4.606890 -7.723874
v -18.065414 -4.606890 -7.915951
v -18.161455 -4.606890 -7.627835
v -18.161455 -4.606890 -8.011990
v -18.353531 -4.606890 -7.627835
v -18.353531 -4.606890 -8.011990
v -18.449570 -4.606890 -7.723874
v -18.449570 -4.606890 -7.915951
v -18.161455 -4.259123 -7.867931
v -18.161455 -4.259123 -7.771894
v -18.209473 -4.259123 -7.723874
v -18.209473 -4.259123 -7.915951
v -18.305511 -4.259123 -7.915951
v -18.353531 -4.259123 -7.867931
v -18.353531 -4.259123 -7.771894
v -18.305511 -4.259123 -7.723874
v -18.377541 -3.737433 -7.879936
v -18.377541 -3.737433 -7.759888
v -18.317516 -3.737433 -7.699864
v -18.137444 -3.737433 -7.879936
v -18.137444 -3.737433 -7.759888
v -18.317516 -3.737433 -7.939960
v -18.197468 -3.737433 -7.939960
v -18.197468 -3.737433 -7.699864
v -18.098749 -4.134956 -7.866856
v -18.127590 -4.134956 -7.797230
v -18.127590 -4.134956 -7.936482
v -18.197216 -4.134956 -7.965321
v -18.197216 -4.134956 -7.768391
v -18.266842 -4.134956 -7.936482
v -18.266842 -4.134956 -7.797230
v -18.295681 -4.134956 -7.866856
v -18.042978 -4.261151 -7.866856
v -18.088152 -4.261151 -7.975918
v -18.088152 -4.261151 -7.757793
v -18.197216 -4.261151 -7.712618
v -18.197216 -4.261151 -8.021093
v -18.306278 -4.261151 -7.757793
v -18.306278 -4.261151 -7.975918
v -18.351454 -4.261151 -7.866856
v -18.027634 -3.737433 -7.405658
v -18.505974 -3.737433 -7.405658
v -18.125694 -3.162436 -7.575501
v -18.407915 -3.162436 -7.575501
v -18.027634 -3.737433 -8.234166
v -17.788465 -3.737433 -7.819912
v -18.125694 -3.162436 -8.064324
v -17.984581 -3.162436 -7.819912
v -18.505974 -3.737433 -8.234166
v -18.407915 -3.162436 -8.064324
v -18.549026 -3.162436 -7.819912
v -18.745144 -3.737433 -7.819912
v -17.990993 -2.544689 -7.819912
v -18.128899 -2.544689 -7.581053
v -18.203411 -1.896736 -7.819912
v -18.235107 -1.896736 -7.765011
v -18.330198 -1.896736 -7.819912
v -18.298502 -1.896736 -7.765011
v -18.542614 -2.544689 -7.819912
v -18.404711 -2.544689 -7.581053
v -18.404711 -2.544689 -8.058772
v -18.128899 -2.544689 -8.058772
v -18.298502 -1.896736 -7.874813
v -18.235107 -1.896736 -7.874813
v -17.930012 -3.162436 -8.014359
v -17.930012 -3.162436 -7.625466
v -18.112482 -2.544689 -7.909010
v -18.112482 -2.544689 -7.730814
v -18.266804 -3.162436 -8.208806
v -18.266804 -2.544689 -7.998108
v -18.266804 -3.162436 -7.431018
v -18.266804 -2.544689 -7.641716
v -18.603596 -3.162436 -7.625466
v -18.421125 -2.544689 -7.730814
v -18.603596 -3.162436 -8.014359
v -18.421125 -2.544689 -7.909010
v -18.266804 -3.916811 -7.314523
v -18.532282 -3.827122 -7.360090
v -18.001326 -3.827122 -7.360090
v -18.532282 -3.827122 -8.279734
v -18.704485 -3.916811 -8.072607
v -18.797762 -3.827122 -7.819912
v -18.704485 -3.916811 -7.567217
v -17.735847 -3.827122 -7.819912
v -17.829124 -3.916811 -7.567217
v -18.266804 -3.916811 -8.325302
v -18.001326 -3.827122 -8.279734
v -17.829124 -3.916811 -8.072607
v -18.472248 -3.308271 -8.175750
v -18.266804 -3.235354 -8.251584
v -18.640644 -3.235354 -8.035748
v -17.892965 -3.235354 -8.035748
v -17.855919 -3.308271 -7.819912
v -17.892965 -3.235354 -7.604076
v -18.472248 -3.308271 -7.464075
v -18.640644 -3.235354 -7.604076
v -18.266804 -3.235354 -7.388240
v -18.677691 -3.308271 -7.819912
v -18.061361 -3.308271 -7.464075
v -18.061361 -3.308271 -8.175750
v -18.419880 -2.596404 -8.085047
v -18.519171 -2.648118 -7.965617
v -18.572954 -2.596404 -7.819912
v -18.519171 -2.648118 -7.674208
v -18.419880 -2.596404 -7.554778
v -18.113728 -2.596404 -8.085047
v -18.014437 -2.648118 -7.965617
v -17.960653 -2.596404 -7.819912
v -18.266804 -2.648118 -7.528503
v -18.113728 -2.596404 -7.554778
v -18.266804 -2.648118 -8.111320
v -18.014437 -2.648118 -7.674208
vn -0.0000 -1.0000 -0.0000
vn 0.8851 0.2942 -0.3607
vn 0.8812 0.2944 0.3698
vn 0.8812 0.2944 -0.3698
vn 0.8851 0.2942 0.3607
vn 0.3608 0.2942 0.8850
vn 0.3607 0.2943 0.8850
vn 0.3698 0.2944 0.8812
vn 0.3607 0.2942 -0.8850
vn 0.3698 0.2944 -0.8812
vn 0.3608 0.2942 -0.8850
vn 0.8850 0.2942 -0.3607
vn -0.3607 0.2942 -0.8851
vn 0.3698 0.2944 -0.8813
vn -0.3698 0.2944 -0.8812
vn 0.3607 0.2942 -0.8851
vn -0.8813 0.2944 0.3698
vn -0.8851 0.2942 -0.3607
vn -0.8812 0.2944 -0.3698
vn -0.8851 0.2942 0.3607
vn 0.3607 0.2942 0.8851
vn -0.3698 0.2944 0.8813
vn -0.3698 0.2944 0.8812
vn -0.3607 0.2942 0.8851
vn -0.3608 0.2943 -0.8850
vn -0.3607 0.2942 -0.8850
vn -0.8850 0.2942 -0.3608
vn -0.8812 0.2944 0.3698
vn -0.3607 0.2942 0.8850
vn -0.8850 0.2942 0.3608
vn -0.3608 0.2942 0.8850
vn -0.9230 -0.0513 -0.3813
vn -0.9223 -0.0512 0.3829
vn -0.9223 -0.0513 -0.3829
vn -0.9223 -0.0513 0.3829
vn -0.9230 -0.0513 0.3813
vn -0.3813 -0.0512 0.9230
vn -0.9223 -0.0513 0.3830
vn -0.9230 -0.0512 0.3814
vn -0.3814 -0.0513 0.9230
vn -0.3830 -0.0512 0.9223
vn 0.9223 -0.0512 0.3829
vn 0.9230 -0.0513 -0.3813
vn 0.9223 -0.0513 -0.3829
vn 0.9230 -0.0513 0.3813
vn -0.3829 -0.0513 -0.9223
vn 0.3813 -0.0513 -0.9230
vn -0.3813 -0.0513 -0.9230
vn -0.3829 -0.0512 -0.9223
vn 0.3829 -0.0513 -0.9223
vn 0.9223 -0.0513 0.3830
vn 0.3814 -0.0513 0.9230
vn 0.9230 -0.0513 0.3814
vn 0.9223 -0.0512 0.3830
vn 0.3830 -0.0513 0.9223
vn -0.3814 -0.0513 -0.9230
vn -0.9223 -0.0512 -0.3830
vn -0.3830 -0.0513 -0.9223
vn -0.9223 -0.0513 -0.3830
vn -0.9230 -0.0512 -0.3814
vn 0.9223 -0.0513 -0.3830
vn 0.3814 -0.0513 -0.9230
vn 0.3830 -0.0512 -0.9223
vn 0.3814 -0.0512 -0.9230
vn 0.9230 -0.0512 -0.3814
vn 0.3829 -0.0513 0.9223
vn -0.3813 -0.0513 0.9230
vn 0.3813 -0.0513 0.9230
vn 0.3829 -0.0512 0.9223
vn -0.3829 -0.0513 0.9223
vn -0.0000 1.0000 -0.0000
vn 0.6468 0.4042 -0.6468
vn 0.9147 0.4042 -0.0000
vn 0.9147 0.4042 -0.0001
vn -0.0000 0.4042 0.9147
vn -0.6467 0.4042 0.6468
vn -0.6467 0.4043 0.6468
vn -0.9147 0.4042 0.0001
vn -0.6468 0.4042 0.6468
vn -0.9146 0.4043 0.0001
vn -0.6468 0.4042 0.6467
vn -0.9147 0.4042 -0.0000
vn -0.0000 0.4042 -0.9147
vn 0.6467 0.4042 -0.6468
vn 0.6467 0.4043 -0.6468
vn 0.6468 0.4042 0.6468
vn 0.6467 0.4042 0.6468
vn -0.0000 0.4043 0.9146
vn -0.6468 0.4042 -0.6468
vn -0.6467 0.4042 -0.6468
vn 0.9146 0.4043 0.0001
vn 0.9147 0.4042 0.0001
vn 0.6468 0.4042 0.6467
vn -0.6468 0.4042 -0.6467
vn -0.9146 0.4043 -0.0001
vn -0.9147 0.4042 -0.0001
vn 0.4732 0.3228 0.8197
vn -0.4732 0.3228 0.8197
vn 0.4732 0.3228 -0.8197
vn 0.9465 0.3228 -0.0000
vn 0.4732 0.3228 -0.8196
vn -0.4732 0.3228 -0.8197
vn 0.4733 0.3228 0.8197
vn -0.9465 0.3228 -0.0000
vn -0.4733 0.3228 0.8197
vn -0.4733 0.3228 -0.8197
vn 0.6877 0.7260 -0.0000
vn 0.4751 0.3115 0.8229
vn 0.9503 0.3115 -0.0000
vn 0.4752 0.3115 0.8229
vn 0.6877 0.7260 -0.0001
vn 0.3439 0.7260 0.5956
vn -0.9502 0.3115 -0.0001
vn -0.3439 0.7260 0.5956
vn -0.6877 0.7260 -0.0001
vn -0.3438 0.7260 0.5956
vn -0.9503 0.3115 -0.0000
vn -0.4751 0.3115 0.8229
vn -0.3439 0.7260 -0.5956
vn 0.4751 0.3115 -0.8229
vn -0.4751 0.3115 -0.8229
vn 0.3439 0.7260 -0.5956
vn 0.3438 0.7260 -0.5956
vn 0.9502 0.3115 -0.0000
vn 0.3439 0.7259 -0.5956
vn 0.3439 0.7259 0.5956
vn -0.3439 0.7259 0.5956
vn -0.3439 0.7259 -0.5956
vn -0.6877 0.7260 -0.0000
vn -0.9502 0.3115 -0.0000
vn -0.3438 0.7260 -0.5956
vn -0.3439 0.7260 -0.5955
vn -0.9502 0.3115 0.0001
vn -0.6877 0.7260 0.0001
vn 0.8197 0.3228 -0.4732
vn 0.8197 0.3228 0.4732
vn -0.0000 0.3228 -0.9465
vn 0.8196 0.3228 -0.4732
vn 0.8196 0.3228 0.4732
vn -0.0000 0.3228 0.9465
vn -0.8197 0.3228 0.4732
vn -0.8196 0.3228 -0.4732
vn -0.8197 0.3228 -0.4732
vn 0.4313 0.5060 0.7470
vn -0.4313 0.5060 0.7470
vn -0.0000 0.4530 0.8915
vn -0.0000 -0.4530 -0.8915
vn 0.4313 -0.5060 -0.7470
vn -0.4313 -0.5060 -0.7470
vn -0.7721 0.4530 -0.4458
vn -0.4313 0.5060 -0.7470
vn -0.4312 0.5060 -0.7470
vn -0.8625 0.5060 -0.0000
vn 0.4313 -0.5060 0.7470
vn 0.7721 -0.4530 0.4458
vn 0.8625 -0.5060 -0.0000
vn -0.7721 0.4530 0.4458
vn 0.7721 -0.4530 -0.4458
vn 0.4312 -0.5060 -0.7470
vn 0.8625 0.5060 -0.0000
vn 0.7721 0.4530 0.4458
vn 0.4313 0.5060 0.7469
vn 0.4312 0.5060 0.7470
vn -0.8625 -0.5060 -0.0000
vn -0.7721 -0.4530 -0.4458
vn 0.4313 0.5060 -0.7470
vn -0.0000 0.4530 -0.8915
vn -0.0000 -0.4530 0.8915
vn -0.4313 -0.5060 0.7470
vn 0.4313 -0.5060 0.7469
vn 0.7721 0.4529 -0.4458
vn 0.7721 0.4530 -0.4458
vn -0.7721 -0.4529 0.4458
vn -0.7721 -0.4530 0.4458
vn -0.7470 0.5060 -0.4313
vn -0.0000 0.5060 -0.8625
vn -0.4458 0.4530 -0.7721
vn 0.4458 -0.4530 0.7721
vn -0.0000 -0.5060 0.8625
vn 0.7470 -0.5060 0.4313
vn 0.7470 0.5060 -0.4313
vn 0.8915 0.4530 -0.0000
vn 0.7470 0.5060 0.4313
vn 0.7469 0.5060 0.4313
vn -0.7470 -0.5060 0.4313
vn -0.8915 -0.4530 -0.0000
vn -0.7470 -0.5060 -0.4313
vn -0.0000 0.5060 0.8625
vn -0.7470 0.5060 0.4313
vn -0.4458 0.4530 0.7721
vn 0.4458 -0.4530 -0.7721
vn 0.7470 -0.5060 -0.4313
vn -0.0000 -0.5060 -0.8625
vn -0.8915 0.4530 -0.0000
vn -0.7469 0.5060 -0.4313
vn -0.7469 0.5060 0.4313
vn 0.8915 -0.4530 -0.0000
vn 0.7469 -0.5060 -0.4313
vn 0.4458 0.4530 0.7721
vn -0.4458 -0.4530 -0.7721
vn 0.4458 0.4529 -0.7721
vn -0.4458 -0.4529 0.7721
vn -0.7721 0.4529 -0.4458
vn -0.4313 0.5060 -0.7469
vn 0.7721 -0.4529 0.4458
vn -0.7721 0.4529 0.4458
vn 0.7721 -0.4529 -0.4458
vn 0.4312 0.5060 -0.7470
vn 0.8625 0.5061 -0.0000
vn -0.4312 -0.5060 0.7470
vn -0.7721 -0.4530 0.4457
vn -0.0000 0.4529 0.8915
vn -0.0000 -0.4529 -0.8915
vn -0.0000 0.4529 -0.8915
vn -0.0000 -0.4529 0.8915
vn 0.4313 0.5061 0.7469
vn -0.4312 -0.5060 -0.7470
vt 0.593750 0.025000
vt 0.593750 0.104996
vt 0.593750 0.225000
vt 0.093750 0.475000
vt 0.093750 0.275000
vt 0.093750 0.425000
vt 0.093750 0.348778
vt 0.093750 0.338765
vt 0.093750 0.344099
vt 0.093750 0.375000
vt 0.093750 0.325000
s 0
usemtl colormap.002
f 3/1/1 2/1/1 1/1/1
f 2/1/1 3/1/1 4/1/1
f 4/1/1 3/1/1 5/1/1
f 4/1/1 5/1/1 6/1/1
f 6/1/1 5/1/1 7/1/1
f 6/1/1 7/1/1 8/1/1
f 9/2/2 1/1/3 2/1/4
f 1/1/3 9/2/2 10/2/5
f 11/2/6 1/1/3 10/2/5
f 1/1/3 11/2/7 3/1/8
f 12/2/9 2/1/4 4/1/10
f 2/1/4 12/2/11 9/2/12
f 13/2/13 4/1/14 6/1/15
f 4/1/10 13/2/13 12/2/16
f 7/1/17 14/2/18 8/1/19
f 14/2/18 7/1/17 15/2/20
f 11/2/21 5/1/22 3/1/8
f 5/1/23 11/2/21 16/2/24
f 8/1/19 13/2/25 6/1/15
f 13/2/26 8/1/19 14/2/27
f 7/1/28 16/2/29 15/2/30
f 16/2/31 7/1/28 5/1/23
f 14/2/32 18/3/33 17/3/34
f 18/3/35 14/2/32 15/2/36
f 16/2/37 18/3/38 15/2/39
f 18/3/38 16/2/40 19/3/41
f 21/3/42 9/2/43 20/3/44
f 9/2/43 21/3/42 10/2/45
f 22/3/46 12/2/47 13/2/48
f 12/2/47 22/3/49 23/3/50
f 21/3/51 11/2/52 10/2/53
f 11/2/52 21/3/54 24/3/55
f 13/2/56 17/3/57 22/3/58
f 17/3/59 13/2/48 14/2/60
f 20/3/61 12/2/62 23/3/63
f 12/2/64 20/3/61 9/2/65
f 24/3/66 16/2/67 11/2/68
f 16/2/67 24/3/69 19/3/70
f 27/4/71 26/4/71 25/4/71
f 26/4/71 27/4/71 28/4/71
f 26/4/71 28/4/71 29/4/71
f 29/4/71 28/4/71 30/4/71
f 29/4/71 30/4/71 31/4/71
f 31/4/71 30/4/71 32/4/71
f 35/5/1 34/5/1 33/5/1
f 34/5/1 35/5/1 36/5/1
f 34/5/1 36/5/1 37/5/1
f 37/5/1 36/5/1 38/5/1
f 37/5/1 38/5/1 39/5/1
f 39/5/1 38/5/1 40/5/1
f 27/4/72 33/5/73 34/5/72
f 33/5/74 27/4/72 25/4/74
f 29/4/75 38/5/76 36/5/75
f 38/5/76 29/4/75 31/4/77
f 40/5/78 31/4/79 32/4/80
f 31/4/81 40/5/82 38/5/81
f 28/4/83 34/5/84 37/5/83
f 34/5/84 28/4/83 27/4/85
f 26/4/86 36/5/75 35/5/87
f 36/5/75 26/4/86 29/4/88
f 30/4/89 37/5/83 39/5/90
f 37/5/83 30/4/90 28/4/83
f 26/4/86 33/5/91 25/4/92
f 33/5/73 26/4/93 35/5/86
f 40/5/82 30/4/94 39/5/94
f 30/4/89 40/5/95 32/4/96
f 43/6/97 42/7/98 41/7/97
f 42/7/98 43/6/97 44/6/98
f 47/6/99 46/7/100 45/7/101
f 46/7/100 47/6/99 48/6/100
f 50/6/102 45/7/99 49/7/102
f 45/7/99 50/6/102 47/6/99
f 48/6/100 41/7/103 46/7/100
f 41/7/97 48/6/100 43/6/97
f 52/7/104 44/6/105 51/6/104
f 44/6/98 52/7/104 42/7/98
f 52/7/104 50/6/102 49/7/102
f 50/6/106 52/7/104 51/6/104
f 41/7/1 45/7/1 46/7/1
f 45/7/1 41/7/1 42/7/1
f 45/7/1 42/7/1 49/7/1
f 49/7/1 42/7/1 52/7/1
f 55/6/107 54/8/108 53/8/109
f 54/8/110 55/6/111 56/6/112
f 59/8/113 58/6/114 57/6/115
f 58/6/116 59/8/117 60/8/118
f 63/6/119 62/8/120 61/8/121
f 62/8/120 63/6/119 64/6/122
f 64/6/123 53/8/124 62/8/120
f 53/8/124 64/6/123 55/6/107
f 64/6/125 56/6/126 55/6/107
f 56/6/126 64/6/125 58/6/127
f 58/6/127 64/6/125 63/6/128
f 58/6/127 63/6/128 57/6/129
f 59/8/130 63/6/131 61/8/121
f 63/6/132 59/8/133 57/6/134
f 54/8/1 62/8/1 53/8/1
f 62/8/1 54/8/1 60/8/1
f 62/8/1 60/8/1 61/8/1
f 61/8/1 60/8/1 59/8/1
f 56/6/112 60/8/118 54/8/108
f 60/8/118 56/6/112 58/6/114
f 67/6/135 66/9/136 65/9/135
f 66/9/136 67/6/135 68/6/136
f 70/6/137 65/9/138 69/9/137
f 65/9/135 70/6/137 67/6/135
f 68/6/139 71/9/140 66/9/136
f 71/9/140 68/6/136 72/6/140
f 72/6/140 73/9/141 71/9/140
f 73/9/141 72/6/140 74/6/141
f 71/9/1 65/9/1 66/9/1
f 65/9/1 71/9/1 69/9/1
f 69/9/1 71/9/1 73/9/1
f 69/9/1 73/9/1 75/9/1
f 76/6/142 69/9/137 75/9/143
f 69/9/137 76/6/143 70/6/137
f 73/9/141 76/6/143 75/9/143
f 76/6/143 73/9/141 74/6/141
f 79/10/144 78/10/145 77/11/146
f 78/10/145 79/10/144 41/6/144
f 78/10/145 41/6/144 42/6/145
f 77/11/147 78/10/148 79/10/149
f 41/6/149 79/10/149 78/10/148
f 42/6/148 41/6/149 78/10/148
f 81/11/150 49/6/151 80/10/151
f 49/6/152 81/11/150 52/6/153
f 52/6/153 81/11/150 82/10/153
f 80/10/154 49/6/154 81/11/155
f 52/6/156 81/11/155 49/6/154
f 82/10/156 81/11/155 52/6/156
f 82/10/153 42/6/145 52/6/153
f 42/6/145 82/10/153 83/11/157
f 42/6/145 83/11/157 78/10/145
f 52/6/156 42/6/148 82/10/156
f 83/11/158 82/10/156 42/6/148
f 78/10/148 83/11/158 42/6/159
f 46/6/160 85/11/161 84/10/160
f 85/11/161 46/6/160 41/6/162
f 85/11/161 41/6/163 79/10/144
f 84/10/164 85/11/165 46/6/164
f 41/6/149 46/6/164 85/11/165
f 79/10/149 41/6/149 85/11/165
f 80/10/151 87/10/166 86/11/167
f 87/10/166 80/10/151 49/6/151
f 87/10/166 49/6/151 45/6/166
f 86/11/168 87/10/169 80/10/154
f 49/6/154 80/10/154 87/10/169
f 45/6/169 49/6/170 87/10/169
f 45/6/166 88/11/171 87/10/166
f 88/11/172 45/6/166 46/6/160
f 88/11/172 46/6/160 84/10/160
f 87/10/169 88/11/173 45/6/169
f 46/6/164 45/6/169 88/11/174
f 84/10/164 46/6/164 88/11/174
f 91/10/175 90/10/176 89/11/177
f 90/10/176 91/10/175 75/6/175
f 90/10/176 75/6/175 69/6/176
f 89/11/178 90/10/179 91/10/180
f 75/6/180 91/10/180 90/10/179
f 69/6/179 75/6/180 90/10/179
f 65/6/181 93/11/182 92/10/181
f 93/11/182 65/6/181 66/6/183
f 93/11/182 66/6/184 94/10/183
f 92/10/185 93/11/186 65/6/185
f 66/6/187 65/6/185 93/11/186
f 94/10/187 66/6/187 93/11/186
f 97/10/188 96/10/189 95/11/190
f 96/10/189 97/10/188 71/6/188
f 96/10/189 71/6/188 73/6/189
f 95/11/191 96/10/192 97/10/193
f 71/6/193 97/10/193 96/10/192
f 73/6/192 71/6/193 96/10/192
f 98/11/194 75/6/195 91/10/175
f 75/6/175 98/11/194 73/6/189
f 73/6/196 98/11/194 96/10/189
f 91/10/180 75/6/180 98/11/197
f 73/6/192 98/11/197 75/6/180
f 96/10/198 98/11/197 73/6/198
f 94/10/183 97/10/188 99/11/199
f 97/10/188 94/10/183 66/6/183
f 97/10/188 66/6/183 71/6/188
f 99/11/200 97/10/193 94/10/187
f 66/6/187 94/10/187 97/10/193
f 71/6/193 66/6/187 97/10/193
f 90/10/176 92/10/181 100/11/201
f 92/10/181 90/10/176 69/6/176
f 92/10/181 69/6/176 65/6/181
f 100/11/202 92/10/185 90/10/179
f 69/6/179 90/10/179 92/10/185
f 65/6/185 69/6/179 92/10/185
f 102/11/203 61/6/151 101/10/151
f 61/6/204 102/11/150 59/6/153
f 59/6/153 102/11/150 103/10/153
f 101/10/154 61/6/154 102/11/205
f 59/6/156 102/11/155 61/6/154
f 103/10/156 102/11/155 59/6/156
f 103/10/153 60/6/145 59/6/153
f 60/6/145 103/10/153 104/11/206
f 60/6/145 104/11/206 105/10/145
f 59/6/156 60/6/148 103/10/156
f 104/11/207 103/10/156 60/6/148
f 105/10/148 104/11/207 60/6/148
f 62/6/208 107/11/172 106/10/208
f 107/11/172 62/6/166 53/6/160
f 107/11/172 53/6/209 108/10/160
f 106/10/210 107/11/174 62/6/210
f 53/6/164 62/6/169 107/11/211
f 108/10/164 53/6/164 107/11/174
f 110/10/144 105/10/145 109/11/212
f 105/10/145 110/10/144 54/6/144
f 105/10/145 54/6/144 60/6/145
f 109/11/213 105/10/148 110/10/149
f 54/6/149 110/10/149 105/10/148
f 60/6/148 54/6/149 105/10/148
f 101/10/151 106/10/166 111/11/214
f 106/10/166 101/10/151 61/6/151
f 106/10/166 61/6/151 62/6/166
f 111/11/215 106/10/169 101/10/154
f 61/6/154 101/10/154 106/10/169
f 62/6/169 61/6/154 106/10/169
f 53/6/160 112/11/161 108/10/160
f 112/11/161 53/6/160 54/6/216
f 112/11/161 54/6/163 110/10/163
f 108/10/164 112/11/165 53/6/164
f 54/6/149 53/6/164 112/11/165
f 110/10/149 54/6/217 112/11/165
f 3/1/1 2/1/1 1/1/1
f 2/1/1 3/1/1 4/1/1
f 4/1/1 3/1/1 5/1/1
f 4/1/1 5/1/1 6/1/1
f 6/1/1 5/1/1 7/1/1
f 6/1/1 7/1/1 8/1/1
f 9/2/2 1/1/3 2/1/4
f 1/1/3 9/2/2 10/2/5
f 11/2/6 1/1/3 10/2/5
f 1/1/3 11/2/7 3/1/8
f 12/2/9 2/1/4 4/1/10
f 2/1/4 12/2/11 9/2/12
f 13/2/13 4/1/14 6/1/15
f 4/1/10 13/2/13 12/2/16
f 7/1/17 14/2/18 8/1/19
f 14/2/18 7/1/17 15/2/20
f 11/2/21 5/1/22 3/1/8
f 5/1/23 11/2/21 16/2/24
f 8/1/19 13/2/25 6/1/15
f 13/2/26 8/1/19 14/2/27
f 7/1/28 16/2/29 15/2/30
f 16/2/31 7/1/28 5/1/23
f 14/2/32 18/3/33 17/3/34
f 18/3/35 14/2/32 15/2/36
f 16/2/37 18/3/38 15/2/39
f 18/3/38 16/2/40 19/3/41
f 21/3/42 9/2/43 20/3/44
f 9/2/43 21/3/42 10/2/45
f 22/3/46 12/2/47 13/2/48
f 12/2/47 22/3/49 23/3/50
f 21/3/51 11/2/52 10/2/53
f 11/2/52 21/3/54 24/3/55
f 13/2/56 17/3/57 22/3/58
f 17/3/59 13/2/48 14/2/60
f 20/3/61 12/2/62 23/3/63
f 12/2/64 20/3/61 9/2/65
f 24/3/66 16/2/67 11/2/68
f 16/2/67 24/3/69 19/3/70
f 27/4/71 26/4/71 25/4/71
f 26/4/71 27/4/71 28/4/71
f 26/4/71 28/4/71 29/4/71
f 29/4/71 28/4/71 30/4/71
f 29/4/71 30/4/71 31/4/71
f 31/4/71 30/4/71 32/4/71
f 35/5/1 34/5/1 33/5/1
f 34/5/1 35/5/1 36/5/1
f 34/5/1 36/5/1 37/5/1
f 37/5/1 36/5/1 38/5/1
f 37/5/1 38/5/1 39/5/1
f 39/5/1 38/5/1 40/5/1
f 27/4/72 33/5/73 34/5/72
f 33/5/74 27/4/72 25/4/74
f 29/4/75 38/5/76 36/5/75
f 38/5/76 29/4/75 31/4/77
f 40/5/78 31/4/79 32/4/80
f 31/4/81 40/5/82 38/5/81
f 28/4/83 34/5/84 37/5/83
f 34/5/84 28/4/83 27/4/85
f 26/4/86 36/5/75 35/5/87
f 36/5/75 26/4/86 29/4/88
f 30/4/89 37/5/83 39/5/90
f 37/5/83 30/4/90 28/4/83
f 26/4/86 33/5/91 25/4/92
f 33/5/73 26/4/93 35/5/86
f 40/5/82 30/4/94 39/5/94
f 30/4/89 40/5/95 32/4/96
f 43/6/97 42/7/98 41/7/97
f 42/7/98 43/6/97 44/6/98
f 47/6/99 46/7/100 45/7/101
f 46/7/100 47/6/99 48/6/100
f 50/6/102 45/7/99 49/7/102
f 45/7/99 50/6/102 47/6/99
f 48/6/100 41/7/103 46/7/100
f 41/7/97 48/6/100 43/6/97
f 52/7/104 44/6/105 51/6/104
f 44/6/98 52/7/104 42/7/98
f 52/7/104 50/6/102 49/7/102
f 50/6/106 52/7/104 51/6/104
f 41/7/1 45/7/1 46/7/1
f 45/7/1 41/7/1 42/7/1
f 45/7/1 42/7/1 49/7/1
f 49/7/1 42/7/1 52/7/1
f 55/6/107 54/8/108 53/8/109
f 54/8/110 55/6/111 56/6/112
f 59/8/113 58/6/114 57/6/115
f 58/6/116 59/8/117 60/8/118
f 63/6/119 62/8/120 61/8/121
f 62/8/120 63/6/119 64/6/122
f 64/6/123 53/8/124 62/8/120
f 53/8/124 64/6/123 55/6/107
f 64/6/125 56/6/126 55/6/107
f 56/6/126 64/6/125 58/6/127
f 58/6/127 64/6/125 63/6/128
f 58/6/127 63/6/128 57/6/129
f 59/8/130 63/6/131 61/8/121
f 63/6/132 59/8/133 57/6/134
f 54/8/1 62/8/1 53/8/1
f 62/8/1 54/8/1 60/8/1
f 62/8/1 60/8/1 61/8/1
f 61/8/1 60/8/1 59/8/1
f 56/6/112 60/8/118 54/8/108
f 60/8/118 56/6/112 58/6/114
f 67/6/135 66/9/136 65/9/135
f 66/9/136 67/6/135 68/6/136
f 70/6/137 65/9/138 69/9/137
f 65/9/135 70/6/137 67/6/135
f 68/6/139 71/9/140 66/9/136
f 71/9/140 68/6/136 72/6/140
f 72/6/140 73/9/141 71/9/140
f 73/9/141 72/6/140 74/6/141
f 71/9/1 65/9/1 66/9/1
f 65/9/1 71/9/1 69/9/1
f 69/9/1 71/9/1 73/9/1
f 69/9/1 73/9/1 75/9/1
f 76/6/142 69/9/137 75/9/143
f 69/9/137 76/6/143 70/6/137
f 73/9/141 76/6/143 75/9/143
f 76/6/143 73/9/141 74/6/141
f 79/10/144 78/10/145 77/11/146
f 78/10/145 79/10/144 41/6/144
f 78/10/145 41/6/144 42/6/145
f 77/11/147 78/10/148 79/10/149
f 41/6/149 79/10/149 78/10/148
f 42/6/148 41/6/149 78/10/148
f 81/11/150 49/6/151 80/10/151
f 49/6/152 81/11/150 52/6/153
f 52/6/153 81/11/150 82/10/153
f 80/10/154 49/6/154 81/11/155
f 52/6/156 81/11/155 49/6/154
f 82/10/156 81/11/155 52/6/156
f 82/10/153 42/6/145 52/6/153
f 42/6/145 82/10/153 83/11/157
f 42/6/145 83/11/157 78/10/145
f 52/6/156 42/6/148 82/10/156
f 83/11/158 82/10/156 42/6/148
f 78/10/148 83/11/158 42/6/159
f 46/6/160 85/11/161 84/10/160
f 85/11/161 46/6/160 41/6/162
f 85/11/161 41/6/163 79/10/144
f 84/10/164 85/11/165 46/6/164
f 41/6/149 46/6/164 85/11/165
f 79/10/149 41/6/149 85/11/165
f 80/10/151 87/10/166 86/11/167
f 87/10/166 80/10/151 49/6/151
f 87/10/166 49/6/151 45/6/166
f 86/11/168 87/10/169 80/10/154
f 49/6/154 80/10/154 87/10/169
f 45/6/169 49/6/170 87/10/169
f 45/6/166 88/11/171 87/10/166
f 88/11/172 45/6/166 46/6/160
f 88/11/172 46/6/160 84/10/160
f 87/10/169 88/11/173 45/6/169
f 46/6/164 45/6/169 88/11/174
f 84/10/164 46/6/164 88/11/174
f 91/10/175 90/10/176 89/11/177
f 90/10/176 91/10/175 75/6/175
f 90/10/176 75/6/175 69/6/176
f 89/11/178 90/10/179 91/10/180
f 75/6/180 91/10/180 90/10/179
f 69/6/179 75/6/180 90/10/179
f 65/6/181 93/11/182 92/10/181
f 93/11/182 65/6/181 66/6/183
f 93/11/182 66/6/184 94/10/183
f 92/10/185 93/11/186 65/6/185
f 66/6/187 65/6/185 93/11/186
f 94/10/187 66/6/187 93/11/186
f 97/10/188 96/10/189 95/11/190
f 96/10/189 97/10/188 71/6/188
f 96/10/189 71/6/188 73/6/189
f 95/11/191 96/10/192 97/10/193
f 71/6/193 97/10/193 96/10/192
f 73/6/192 71/6/193 96/10/192
f 98/11/194 75/6/195 91/10/175
f 75/6/175 98/11/194 73/6/189
f 73/6/196 98/11/194 96/10/189
f 91/10/180 75/6/180 98/11/197
f 73/6/192 98/11/197 75/6/180
f 96/10/198 98/11/197 73/6/198
f 94/10/183 97/10/188 99/11/199
f 97/10/188 94/10/183 66/6/183
f 97/10/188 66/6/183 71/6/188
f 99/11/200 97/10/193 94/10/187
f 66/6/187 94/10/187 97/10/193
f 71/6/193 66/6/187 97/10/193
f 90/10/176 92/10/181 100/11/201
f 92/10/181 90/10/176 69/6/176
f 92/10/181 69/6/176 65/6/181
f 100/11/202 92/10/185 90/10/179
f 69/6/179 90/10/179 92/10/185
f 65/6/185 69/6/179 92/10/185
f 102/11/203 61/6/151 101/10/151
f 61/6/204 102/11/150 59/6/153
f 59/6/153 102/11/150 103/10/153
f 101/10/154 61/6/154 102/11/205
f 59/6/156 102/11/155 61/6/154
f 103/10/156 102/11/155 59/6/156
f 103/10/153 60/6/145 59/6/153
f 60/6/145 103/10/153 104/11/206
f 60/6/145 104/11/206 105/10/145
f 59/6/156 60/6/148 103/10/156
f 104/11/207 103/10/156 60/6/148
f 105/10/148 104/11/207 60/6/148
f 62/6/208 107/11/172 106/10/208
f 107/11/172 62/6/166 53/6/160
f 107/11/172 53/6/209 108/10/160
f 106/10/210 107/11/174 62/6/210
f 53/6/164 62/6/169 107/11/211
f 108/10/164 53/6/164 107/11/174
f 110/10/144 105/10/145 109/11/212
f 105/10/145 110/10/144 54/6/144
f 105/10/145 54/6/144 60/6/145
f 109/11/213 105/10/148 110/10/149
f 54/6/149 110/10/149 105/10/148
f 60/6/148 54/6/149 105/10/148
f 101/10/151 106/10/166 111/11/214
f 106/10/166 101/10/151 61/6/151
f 106/10/166 61/6/151 62/6/166
f 111/11/215 106/10/169 101/10/154
f 61/6/154 101/10/154 106/10/169
f 62/6/169 61/6/154 106/10/169
f 53/6/160 112/11/161 108/10/160
f 112/11/161 53/6/160 54/6/216
f 112/11/161 54/6/163 110/10/163
f 108/10/164 112/11/165 53/6/164
f 54/6/149 53/6/164 112/11/165
f 110/10/149 54/6/217 112/11/165
