# Blender 4.1.1
# www.blender.org
mtllib gravestone-bevel.002.mtl
o gravestone-bevel.002
v 9.548003 0.769840 -8.961488
v 9.431458 0.724668 -9.031526
v 9.470177 0.769840 -9.008258
v 9.515275 0.672053 -8.981155
v 9.515275 0.245152 -8.981155
v 9.431458 0.147365 -9.031526
v 9.951653 0.245152 -8.718911
v 10.035470 0.147365 -8.668541
v 10.035470 0.724668 -8.668541
v 9.951653 0.672053 -8.718911
v 9.854611 0.672053 -8.777228
v 9.647998 0.827410 -8.901395
v 9.612317 0.672053 -8.922837
v 9.572849 0.878028 -8.946556
v 9.684120 0.869553 -8.879686
v 9.733464 0.884979 -8.850034
v 9.640734 0.957227 -8.905760
v 9.918926 0.769840 -8.738579
v 9.996752 0.769840 -8.691810
v 9.818931 0.827410 -8.798672
v 9.894079 0.878028 -8.753510
v 9.782809 0.869553 -8.820379
v 9.826195 0.957227 -8.794306
v 9.733464 0.986215 -8.850034
v 9.609321 0.769840 -9.239795
v 9.570602 0.724668 -9.263063
v 9.687147 0.769840 -9.193026
v 9.751461 0.672053 -9.154375
v 9.787142 0.827410 -9.132933
v 9.654419 0.672053 -9.212693
v 9.711993 0.878028 -9.178093
v 9.823264 0.869553 -9.111224
v 9.654419 0.245152 -9.212693
v 9.570602 0.147365 -9.263063
v 10.174614 0.147365 -8.900079
v 10.090797 0.245152 -8.950449
v 9.872608 0.884979 -9.081572
v 10.174614 0.724668 -8.900079
v 10.090797 0.672053 -8.950449
v 9.993755 0.672053 -9.008767
v 9.779878 0.957227 -9.137298
v 10.058070 0.769840 -8.970117
v 10.135896 0.769840 -8.923347
v 9.958075 0.827410 -9.030210
v 10.033223 0.878028 -8.985048
v 9.921953 0.869553 -9.051917
v 9.965339 0.957227 -9.025844
v 9.872608 0.986215 -9.081572
v 9.998191 0.245152 -8.796349
v 9.561811 0.245152 -9.058593
v 9.998191 0.672053 -8.796349
v 9.901148 0.672053 -8.854666
v 9.865468 0.827410 -8.876109
v 9.829346 0.869553 -8.897817
v 9.780001 0.884979 -8.927471
v 9.730657 0.869553 -8.957124
v 9.694534 0.827410 -8.978832
v 9.658854 0.672053 -9.000275
v 9.561811 0.672053 -9.058593
v 9.607882 0.672053 -9.135256
v 9.607882 0.245152 -9.135256
v 9.704925 0.672053 -9.076938
v 9.740605 0.827410 -9.055495
v 9.776728 0.869553 -9.033787
v 9.826072 0.884979 -9.004134
v 9.875416 0.869553 -8.974480
v 9.911539 0.827410 -8.952772
v 9.947219 0.672053 -8.931330
v 10.044261 0.672053 -8.873012
v 10.044261 0.245152 -8.873012
v 10.050920 -0.064042 -8.606554
v 10.236601 -0.064042 -8.915529
v 9.369472 -0.064042 -9.016075
v 9.555152 -0.064042 -9.325049
v 9.555152 0.076896 -9.325049
v 10.236601 0.076896 -8.915529
v 10.050920 0.076896 -8.606554
v 9.369472 0.076896 -9.016075
vn -0.5151 -0.0000 0.8571
vn -0.5151 0.0001 0.8571
vn -0.5151 -0.0001 0.8571
vn 0.5151 -0.0000 -0.8571
vn 0.5151 -0.0001 -0.8571
vn -0.3280 0.9239 -0.1971
vn -0.0000 1.0000 -0.0000
vn 0.7423 0.5000 0.4461
vn 0.8279 0.2588 0.4975
vn 0.4286 0.8660 0.2576
vn 0.7423 0.5001 0.4461
vn 0.4285 0.8661 0.2575
vn 0.4285 0.8661 0.2576
vn 0.0001 1.0000 -0.0000
vn -0.4285 0.8661 -0.2575
vn -0.0001 1.0000 -0.0000
vn -0.4285 0.8661 -0.2576
vn -0.7423 0.5001 -0.4461
vn -0.4286 0.8660 -0.2576
vn -0.8279 0.2588 -0.4975
vn -0.7423 0.5000 -0.4461
vn -0.7423 0.4999 -0.4461
vn 0.3280 0.9239 0.1971
vn -0.8571 -0.0000 -0.5151
vn -0.0000 -1.0000 -0.0000
vn -0.8279 -0.2588 -0.4976
vn -0.7423 -0.5000 -0.4461
vn -0.4286 -0.8660 -0.2576
vn -0.7423 -0.5001 -0.4461
vn -0.0001 -1.0000 -0.0000
vn -0.4285 -0.8661 -0.2575
vn 0.4285 -0.8660 0.2575
vn -0.0000 -1.0000 0.0001
vn 0.0001 -1.0000 -0.0000
vn 0.4285 -0.8661 0.2575
vn 0.4286 -0.8660 0.2576
vn 0.7423 -0.5000 0.4461
vn 0.8279 -0.2588 0.4975
vn 0.8571 -0.0000 0.5151
vn 0.8279 -0.2588 0.4976
vn 0.7423 -0.5001 0.4461
vn -0.7423 -0.4999 -0.4461
vn 0.7919 0.3827 0.4759
vn 0.7919 0.3826 0.4759
vn 0.3281 0.9239 0.1970
vn -0.7919 0.3827 -0.4759
vn -0.7919 0.3826 -0.4759
vn -0.3281 0.9239 -0.1970
vn 0.5015 0.2282 -0.8345
vn -0.4336 0.5397 0.7216
vn -0.5015 0.2283 0.8345
vn -0.4337 0.5397 0.7216
vn -0.8345 0.2283 -0.5015
vn -0.7216 0.5397 -0.4336
vn -0.7216 0.5397 -0.4337
vn -0.8345 0.2282 -0.5015
vn 0.7216 0.5397 0.4336
vn 0.8345 0.2283 0.5015
vn 0.7216 0.5397 0.4337
vn 0.4337 0.5397 -0.7216
vn 0.5015 0.2283 -0.8345
vn -0.5015 0.2282 0.8345
vn 0.8345 0.2282 0.5015
vn 0.0104 -0.9999 -0.0000
vn -0.0807 0.9963 0.0305
vn -0.0807 0.9963 0.0306
vn -0.0624 0.9981 -0.0000
vt 0.843750 0.183796
vt 0.843750 0.175194
vt 0.843750 0.165174
vt 0.843750 0.083880
vt 0.843750 0.065258
vt 0.843750 0.194759
vt 0.843750 0.204398
vt 0.843750 0.202784
vt 0.843750 0.205722
vt 0.843750 0.219480
vt 0.843750 0.225000
vt 0.093750 0.025000
vt 0.093750 0.051839
vt 0.093750 0.065258
vt 0.093750 0.165174
vt 0.093750 0.083880
vt 0.093750 0.194759
vt 0.093750 0.202784
vt 0.093750 0.205722
s 0
usemtl colormap
f 3/1/1 2/2/1 1/1/1
f 4/3/1 1/1/1 2/2/1
f 2/2/1 5/4/1 4/3/1
f 6/5/1 5/4/1 2/2/1
f 5/4/1 6/5/1 7/4/1
f 8/5/1 7/4/1 6/5/1
f 7/4/1 8/5/1 9/2/1
f 7/4/1 9/2/1 10/3/1
f 10/3/1 9/2/1 11/3/1
f 4/3/1 12/6/1 1/1/1
f 12/6/1 4/3/1 13/3/1
f 1/1/1 12/6/1 14/7/1
f 14/7/1 12/6/1 15/8/1
f 14/7/1 15/8/1 16/9/1
f 14/7/1 16/9/1 17/10/1
f 11/3/1 9/2/1 18/1/1
f 18/1/2 9/2/2 19/1/2
f 11/3/1 18/1/1 20/6/1
f 20/6/1 18/1/1 21/7/1
f 20/6/1 21/7/1 22/8/1
f 22/8/3 21/7/3 16/9/3
f 16/9/1 21/7/1 23/10/1
f 17/10/1 16/9/1 23/10/1
f 17/10/2 23/10/2 24/11/2
f 27/1/4 26/2/4 25/1/4
f 28/3/4 26/2/4 27/1/4
f 28/3/4 27/1/4 29/6/4
f 30/3/4 26/2/4 28/3/4
f 29/6/4 27/1/4 31/7/4
f 29/6/4 31/7/4 32/8/4
f 33/4/4 26/2/4 30/3/4
f 33/4/4 34/5/4 26/2/4
f 34/5/4 33/4/4 35/5/4
f 36/4/4 35/5/4 33/4/4
f 32/8/4 31/7/4 37/9/4
f 35/5/4 36/4/4 38/2/4
f 38/2/4 36/4/4 39/3/4
f 38/2/4 39/3/4 40/3/4
f 37/9/4 31/7/4 41/10/4
f 38/2/4 40/3/4 42/1/4
f 38/2/4 42/1/4 43/1/4
f 42/1/4 40/3/4 44/6/4
f 42/1/4 44/6/4 45/7/4
f 45/7/4 44/6/4 46/8/4
f 45/7/5 46/8/5 37/9/5
f 45/7/4 37/9/4 47/10/4
f 47/10/4 37/9/4 41/10/4
f 47/10/4 41/10/4 48/11/4
f 25/1/6 1/1/7 27/1/7
f 1/1/7 25/1/6 3/1/6
f 21/7/8 42/1/9 45/7/8
f 42/1/9 21/7/8 18/1/9
f 47/10/10 21/7/11 45/7/11
f 21/7/8 47/10/10 23/10/10
f 48/11/7 23/10/12 47/10/13
f 23/10/12 48/11/7 24/11/14
f 41/10/15 24/11/7 48/11/16
f 24/11/16 41/10/15 17/10/17
f 31/7/18 17/10/19 41/10/19
f 17/10/19 31/7/18 14/7/18
f 1/1/20 31/7/21 27/1/20
f 31/7/22 1/1/20 14/7/22
f 42/1/7 19/1/23 43/1/23
f 19/1/23 42/1/7 18/1/7
f 50/4/7 7/4/7 49/4/7
f 7/4/7 50/4/7 5/4/7
f 7/4/24 51/3/24 49/4/24
f 51/3/24 7/4/24 10/3/24
f 11/3/25 51/3/25 10/3/25
f 51/3/25 11/3/25 52/3/25
f 11/3/26 53/6/27 52/3/26
f 53/6/27 11/3/26 20/6/27
f 22/8/28 53/6/27 20/6/27
f 53/6/29 22/8/28 54/8/28
f 16/9/30 54/8/31 22/8/31
f 54/8/31 16/9/25 55/9/25
f 15/8/32 55/9/33 16/9/25
f 55/9/34 15/8/32 56/8/35
f 15/8/36 57/6/37 56/8/36
f 57/6/37 15/8/36 12/6/37
f 12/6/37 58/3/38 57/6/37
f 58/3/38 12/6/37 13/3/38
f 4/3/25 58/3/25 13/3/25
f 58/3/25 4/3/25 59/3/25
f 4/3/39 50/4/39 59/3/39
f 50/4/39 4/3/39 5/4/39
f 60/3/39 33/4/39 30/3/39
f 33/4/39 60/3/39 61/4/39
f 60/3/25 28/3/25 62/3/25
f 28/3/25 60/3/25 30/3/25
f 63/6/37 28/3/40 29/6/37
f 28/3/38 63/6/37 62/3/38
f 63/6/41 32/8/36 64/8/36
f 32/8/36 63/6/37 29/6/37
f 64/8/32 37/9/33 65/9/25
f 37/9/34 64/8/32 32/8/35
f 65/9/25 46/8/31 66/8/31
f 46/8/31 65/9/25 37/9/30
f 66/8/28 44/6/27 67/6/27
f 44/6/27 66/8/28 46/8/28
f 68/3/26 44/6/27 40/3/26
f 44/6/27 68/3/26 67/6/42
f 68/3/25 39/3/25 69/3/25
f 39/3/25 68/3/25 40/3/25
f 70/4/24 39/3/24 36/4/24
f 39/3/24 70/4/24 69/3/24
f 33/4/7 70/4/7 36/4/7
f 70/4/7 33/4/7 61/4/7
f 9/2/43 35/5/39 38/2/44
f 35/5/39 9/2/43 8/5/39
f 43/1/23 9/2/43 38/2/43
f 9/2/43 43/1/23 19/1/45
f 6/5/24 26/2/46 34/5/24
f 26/2/47 6/5/24 2/2/46
f 26/2/46 3/1/6 25/1/48
f 3/1/6 26/2/46 2/2/46
f 73/12/25 72/12/25 71/12/25
f 72/12/25 73/12/25 74/12/25
f 75/13/49 72/12/4 74/12/4
f 72/12/4 75/13/49 76/13/49
f 8/14/50 78/13/51 77/13/51
f 78/13/51 8/14/52 6/14/52
f 78/13/53 34/14/54 75/13/53
f 34/14/55 78/13/53 6/14/55
f 73/12/24 75/13/56 74/12/24
f 75/13/56 73/12/24 78/13/56
f 35/14/57 77/13/58 76/13/58
f 77/13/58 35/14/59 8/14/59
f 34/14/60 76/13/61 75/13/61
f 76/13/61 34/14/60 35/14/60
f 77/13/62 73/12/1 71/12/1
f 73/12/1 77/13/62 78/13/62
f 77/13/63 72/12/39 76/13/63
f 72/12/39 77/13/63 71/12/39
f 51/15/1 50/16/1 49/16/1
f 50/16/1 51/15/1 58/15/1
f 59/15/1 50/16/1 58/15/1
f 58/15/64 51/15/64 52/15/64
f 58/15/1 52/15/1 57/17/1
f 57/17/1 52/15/1 53/17/1
f 57/17/1 53/17/1 54/18/1
f 57/17/1 54/18/1 56/18/1
f 56/18/1 54/18/1 55/19/1
f 60/15/4 70/16/4 61/16/4
f 70/16/4 60/15/4 69/15/4
f 69/15/65 60/15/66 62/15/67
f 69/15/25 62/15/25 68/15/25
f 68/15/4 62/15/4 63/17/4
f 68/15/4 63/17/4 67/17/4
f 67/17/4 63/17/4 64/18/4
f 67/17/4 64/18/4 66/18/4
f 66/18/5 64/18/5 65/19/5
f 3/1/1 2/2/1 1/1/1
f 4/3/1 1/1/1 2/2/1
f 2/2/1 5/4/1 4/3/1
f 6/5/1 5/4/1 2/2/1
f 5/4/1 6/5/1 7/4/1
f 8/5/1 7/4/1 6/5/1
f 7/4/1 8/5/1 9/2/1
f 7/4/1 9/2/1 10/3/1
f 10/3/1 9/2/1 11/3/1
f 4/3/1 12/6/1 1/1/1
f 12/6/1 4/3/1 13/3/1
f 1/1/1 12/6/1 14/7/1
f 14/7/1 12/6/1 15/8/1
f 14/7/1 15/8/1 16/9/1
f 14/7/1 16/9/1 17/10/1
f 11/3/1 9/2/1 18/1/1
f 18/1/2 9/2/2 19/1/2
f 11/3/1 18/1/1 20/6/1
f 20/6/1 18/1/1 21/7/1
f 20/6/1 21/7/1 22/8/1
f 22/8/3 21/7/3 16/9/3
f 16/9/1 21/7/1 23/10/1
f 17/10/1 16/9/1 23/10/1
f 17/10/2 23/10/2 24/11/2
f 27/1/4 26/2/4 25/1/4
f 28/3/4 26/2/4 27/1/4
f 28/3/4 27/1/4 29/6/4
f 30/3/4 26/2/4 28/3/4
f 29/6/4 27/1/4 31/7/4
f 29/6/4 31/7/4 32/8/4
f 33/4/4 26/2/4 30/3/4
f 33/4/4 34/5/4 26/2/4
f 34/5/4 33/4/4 35/5/4
f 36/4/4 35/5/4 33/4/4
f 32/8/4 31/7/4 37/9/4
f 35/5/4 36/4/4 38/2/4
f 38/2/4 36/4/4 39/3/4
f 38/2/4 39/3/4 40/3/4
f 37/9/4 31/7/4 41/10/4
f 38/2/4 40/3/4 42/1/4
f 38/2/4 42/1/4 43/1/4
f 42/1/4 40/3/4 44/6/4
f 42/1/4 44/6/4 45/7/4
f 45/7/4 44/6/4 46/8/4
f 45/7/5 46/8/5 37/9/5
f 45/7/4 37/9/4 47/10/4
f 47/10/4 37/9/4 41/10/4
f 47/10/4 41/10/4 48/11/4
f 25/1/6 1/1/7 27/1/7
f 1/1/7 25/1/6 3/1/6
f 21/7/8 42/1/9 45/7/8
f 42/1/9 21/7/8 18/1/9
f 47/10/10 21/7/11 45/7/11
f 21/7/8 47/10/10 23/10/10
f 48/11/7 23/10/12 47/10/13
f 23/10/12 48/11/7 24/11/14
f 41/10/15 24/11/7 48/11/16
f 24/11/16 41/10/15 17/10/17
f 31/7/18 17/10/19 41/10/19
f 17/10/19 31/7/18 14/7/18
f 1/1/20 31/7/21 27/1/20
f 31/7/22 1/1/20 14/7/22
f 42/1/7 19/1/23 43/1/23
f 19/1/23 42/1/7 18/1/7
f 50/4/7 7/4/7 49/4/7
f 7/4/7 50/4/7 5/4/7
f 7/4/24 51/3/24 49/4/24
f 51/3/24 7/4/24 10/3/24
f 11/3/25 51/3/25 10/3/25
f 51/3/25 11/3/25 52/3/25
f 11/3/26 53/6/27 52/3/26
f 53/6/27 11/3/26 20/6/27
f 22/8/28 53/6/27 20/6/27
f 53/6/29 22/8/28 54/8/28
f 16/9/30 54/8/31 22/8/31
f 54/8/31 16/9/25 55/9/25
f 15/8/32 55/9/33 16/9/25
f 55/9/34 15/8/32 56/8/35
f 15/8/36 57/6/37 56/8/36
f 57/6/37 15/8/36 12/6/37
f 12/6/37 58/3/38 57/6/37
f 58/3/38 12/6/37 13/3/38
f 4/3/25 58/3/25 13/3/25
f 58/3/25 4/3/25 59/3/25
f 4/3/39 50/4/39 59/3/39
f 50/4/39 4/3/39 5/4/39
f 60/3/39 33/4/39 30/3/39
f 33/4/39 60/3/39 61/4/39
f 60/3/25 28/3/25 62/3/25
f 28/3/25 60/3/25 30/3/25
f 63/6/37 28/3/40 29/6/37
f 28/3/38 63/6/37 62/3/38
f 63/6/41 32/8/36 64/8/36
f 32/8/36 63/6/37 29/6/37
f 64/8/32 37/9/33 65/9/25
f 37/9/34 64/8/32 32/8/35
f 65/9/25 46/8/31 66/8/31
f 46/8/31 65/9/25 37/9/30
f 66/8/28 44/6/27 67/6/27
f 44/6/27 66/8/28 46/8/28
f 68/3/26 44/6/27 40/3/26
f 44/6/27 68/3/26 67/6/42
f 68/3/25 39/3/25 69/3/25
f 39/3/25 68/3/25 40/3/25
f 70/4/24 39/3/24 36/4/24
f 39/3/24 70/4/24 69/3/24
f 33/4/7 70/4/7 36/4/7
f 70/4/7 33/4/7 61/4/7
f 9/2/43 35/5/39 38/2/44
f 35/5/39 9/2/43 8/5/39
f 43/1/23 9/2/43 38/2/43
f 9/2/43 43/1/23 19/1/45
f 6/5/24 26/2/46 34/5/24
f 26/2/47 6/5/24 2/2/46
f 26/2/46 3/1/6 25/1/48
f 3/1/6 26/2/46 2/2/46
f 73/12/25 72/12/25 71/12/25
f 72/12/25 73/12/25 74/12/25
f 75/13/49 72/12/4 74/12/4
f 72/12/4 75/13/49 76/13/49
f 8/14/50 78/13/51 77/13/51
f 78/13/51 8/14/52 6/14/52
f 78/13/53 34/14/54 75/13/53
f 34/14/55 78/13/53 6/14/55
f 73/12/24 75/13/56 74/12/24
f 75/13/56 73/12/24 78/13/56
f 35/14/57 77/13/58 76/13/58
f 77/13/58 35/14/59 8/14/59
f 34/14/60 76/13/61 75/13/61
f 76/13/61 34/14/60 35/14/60
f 77/13/62 73/12/1 71/12/1
f 73/12/1 77/13/62 78/13/62
f 77/13/63 72/12/39 76/13/63
f 72/12/39 77/13/63 71/12/39
f 51/15/1 50/16/1 49/16/1
f 50/16/1 51/15/1 58/15/1
f 59/15/1 50/16/1 58/15/1
f 58/15/64 51/15/64 52/15/64
f 58/15/1 52/15/1 57/17/1
f 57/17/1 52/15/1 53/17/1
f 57/17/1 53/17/1 54/18/1
f 57/17/1 54/18/1 56/18/1
f 56/18/1 54/18/1 55/19/1
f 60/15/4 70/16/4 61/16/4
f 70/16/4 60/15/4 69/15/4
f 69/15/65 60/15/66 62/15/67
f 69/15/25 62/15/25 68/15/25
f 68/15/4 62/15/4 63/17/4
f 68/15/4 63/17/4 67/17/4
f 67/17/4 63/17/4 64/18/4
f 67/17/4 64/18/4 66/18/4
f 66/18/5 64/18/5 65/19/5
