# Blender 4.1.1
# www.blender.org
mtllib tree.022.mtl
o tree.022
v 3.518998 -0.282319 -15.586597
v 3.665141 -0.282319 -15.694325
v 3.392062 -0.282319 -15.605805
v 3.684348 -0.282319 -15.821261
v 3.284334 -0.282319 -15.751948
v 3.576620 -0.282319 -15.967404
v 3.303541 -0.282319 -15.878884
v 3.449685 -0.282319 -15.986613
v 3.574741 0.046402 -15.740466
v 3.501669 0.046402 -15.686602
v 3.438201 0.046402 -15.696205
v 3.584345 0.046402 -15.803934
v 3.530481 0.046402 -15.877005
v 3.467013 0.046402 -15.886608
v 3.393941 0.046402 -15.832744
v 3.384337 0.046402 -15.769277
v 3.462681 0.539521 -15.911609
v 3.371341 0.539521 -15.844280
v 3.359336 0.539521 -15.764945
v 3.597341 0.539521 -15.728930
v 3.506001 0.539521 -15.661601
v 3.542015 0.539521 -15.899605
v 3.609345 0.539521 -15.808265
v 3.426666 0.539521 -15.673606
v 3.609091 0.163768 -15.692154
v 3.539940 0.163768 -15.675047
v 3.645890 0.163768 -15.753147
v 3.628783 0.163768 -15.822296
v 3.478947 0.163768 -15.711847
v 3.567790 0.163768 -15.859097
v 3.461840 0.163768 -15.780996
v 3.498640 0.163768 -15.841990
v 3.640371 0.044485 -15.649718
v 3.698015 0.044485 -15.745260
v 3.532053 0.044485 -15.622922
v 3.436512 0.044485 -15.680566
v 3.671218 0.044485 -15.853579
v 3.409715 0.044485 -15.788884
v 3.575677 0.044485 -15.911222
v 3.467359 0.044485 -15.884425
v 3.298071 0.539521 -15.379378
v 3.029789 0.539521 -15.743326
v 3.372299 1.083027 -15.549244
v 3.214012 1.083027 -15.763974
v 3.928447 0.539521 -15.844053
v 3.747399 0.539521 -15.429742
v 3.744224 1.083027 -15.823405
v 3.637405 1.083027 -15.578959
v 3.660166 0.539521 -16.208002
v 3.585937 1.083027 -16.038137
v 3.320831 1.083027 -16.008421
v 3.210837 0.539521 -16.157639
v 3.633810 1.666943 -15.583838
v 3.374726 1.666943 -15.554796
v 3.514673 2.279410 -15.745456
v 3.455124 2.279410 -15.738781
v 3.443563 2.279410 -15.841924
v 3.419569 2.279410 -15.787016
v 3.324427 1.666943 -16.003544
v 3.220034 1.666943 -15.764649
v 3.583511 1.666943 -16.032583
v 3.738202 1.666943 -15.822730
v 3.503113 2.279410 -15.848598
v 3.538668 2.279410 -15.800365
v 3.815958 1.083027 -15.646498
v 3.520065 1.083027 -15.428383
v 3.633462 1.666943 -15.726245
v 3.497880 1.666943 -15.626302
v 3.775011 1.083027 -16.011805
v 3.614700 1.666943 -15.893633
v 3.183226 1.083027 -15.575576
v 3.343537 1.666943 -15.693748
v 3.142279 1.083027 -15.940884
v 3.324775 1.666943 -15.861136
v 3.438172 1.083027 -16.158998
v 3.460356 1.666943 -15.961078
v 3.094589 0.369968 -15.510237
v 2.980364 0.454744 -15.737786
v 3.278155 0.454744 -15.333804
v 3.680082 0.454744 -16.253576
v 3.425906 0.369968 -16.268429
v 3.181326 0.454744 -16.197672
v 3.041376 0.369968 -15.984977
v 3.776910 0.454744 -15.389708
v 3.532331 0.369968 -15.318952
v 3.863648 0.369968 -16.077143
v 3.977873 0.454744 -15.849594
v 3.916860 0.369968 -15.602404
v 3.634635 0.945179 -16.149578
v 3.807559 1.014103 -16.035797
v 3.433668 1.014103 -16.199183
v 3.853010 1.014103 -15.630305
v 3.709568 0.945179 -15.481064
v 3.524569 1.014103 -15.388198
v 3.093152 0.945179 -15.750428
v 3.105227 1.014103 -15.957074
v 3.150677 1.014103 -15.551582
v 3.248669 0.945179 -16.106316
v 3.323601 0.945179 -15.437802
v 3.865085 0.945179 -15.836952
v 3.594994 1.618061 -16.058861
v 3.448436 1.569178 -16.067425
v 3.307411 1.618061 -16.026627
v 3.226715 1.569178 -15.903986
v 3.191535 1.618061 -15.761455
v 3.766701 1.618061 -15.825924
v 3.731521 1.569178 -15.683394
v 3.650826 1.618061 -15.560754
v 3.257398 1.569178 -15.630250
v 3.363243 1.618061 -15.528519
v 3.700839 1.569178 -15.957129
v 3.509800 1.569178 -15.519955
vn -0.0000 -1.0000 -0.0000
vn 0.8155 0.2942 0.4984
vn 0.2253 0.2944 0.9288
vn 0.8205 0.2944 0.4900
vn 0.2253 0.2944 0.9287
vn 0.2349 0.2942 0.9264
vn -0.4983 0.2942 0.8155
vn 0.2252 0.2944 0.9288
vn 0.2348 0.2942 0.9265
vn -0.4983 0.2943 0.8155
vn -0.4899 0.2944 0.8206
vn 0.9265 0.2942 -0.2348
vn 0.8206 0.2944 0.4899
vn 0.9288 0.2944 -0.2252
vn 0.8205 0.2944 0.4899
vn 0.8155 0.2942 0.4983
vn 0.4984 0.2942 -0.8155
vn 0.9288 0.2944 -0.2253
vn 0.4900 0.2944 -0.8205
vn 0.9287 0.2944 -0.2253
vn 0.9264 0.2942 -0.2349
vn -0.8205 0.2944 -0.4900
vn -0.2349 0.2942 -0.9264
vn -0.2253 0.2944 -0.9288
vn -0.8155 0.2942 -0.4984
vn -0.4984 0.2942 0.8155
vn -0.9288 0.2944 0.2253
vn -0.4900 0.2944 0.8205
vn -0.9264 0.2942 0.2349
vn -0.2252 0.2944 -0.9288
vn 0.4899 0.2944 -0.8206
vn 0.4983 0.2942 -0.8155
vn -0.2348 0.2942 -0.9265
vn -0.8205 0.2944 -0.4899
vn -0.9265 0.2942 0.2348
vn -0.8206 0.2944 -0.4899
vn -0.9288 0.2944 0.2252
vn -0.2407 -0.0513 -0.9692
vn -0.8555 -0.0512 -0.5152
vn -0.2390 -0.0513 -0.9697
vn -0.8555 -0.0513 -0.5152
vn -0.2408 -0.0513 -0.9692
vn -0.8546 -0.0513 -0.5167
vn -0.9692 -0.0512 0.2407
vn -0.8556 -0.0513 -0.5152
vn -0.8546 -0.0512 -0.5167
vn -0.9692 -0.0513 0.2407
vn -0.9697 -0.0512 0.2390
vn 0.2390 -0.0512 0.9697
vn 0.8546 -0.0513 0.5167
vn 0.8555 -0.0513 0.5152
vn 0.2408 -0.0513 0.9692
vn 0.5152 -0.0513 -0.8555
vn 0.9692 -0.0513 -0.2408
vn 0.5167 -0.0513 -0.8546
vn 0.9692 -0.0513 -0.2407
vn 0.5152 -0.0512 -0.8555
vn 0.9697 -0.0513 -0.2390
vn 0.2390 -0.0513 0.9697
vn -0.5167 -0.0513 0.8546
vn 0.2407 -0.0512 0.9692
vn -0.5152 -0.0513 0.8556
vn 0.5152 -0.0513 -0.8556
vn -0.2407 -0.0512 -0.9692
vn 0.8556 -0.0513 0.5152
vn 0.9697 -0.0512 -0.2390
vn 0.9692 -0.0512 -0.2407
vn 0.8546 -0.0512 0.5167
vn -0.5152 -0.0513 0.8555
vn -0.9692 -0.0513 0.2408
vn -0.5152 -0.0512 0.8555
vn -0.9697 -0.0513 0.2390
vn -0.0000 1.0000 -0.0000
vn 0.9044 0.4042 0.1369
vn 0.5427 0.4042 0.7362
vn 0.5427 0.4043 0.7362
vn -0.7363 0.4042 0.5427
vn -0.9044 0.4042 -0.1368
vn -0.9044 0.4043 -0.1368
vn -0.5427 0.4042 -0.7362
vn -0.9044 0.4042 -0.1369
vn -0.5427 0.4043 -0.7362
vn 0.7363 0.4042 -0.5427
vn 0.9044 0.4042 0.1368
vn 0.9044 0.4043 0.1368
vn -0.1369 0.4042 0.9044
vn -0.7362 0.4042 0.5427
vn -0.7362 0.4043 0.5427
vn 0.1369 0.4042 -0.9044
vn 0.7362 0.4042 -0.5427
vn 0.7362 0.4043 -0.5427
vn -0.1368 0.4042 0.9044
vn 0.5427 0.4042 0.7363
vn -0.5427 0.4042 -0.7363
vn 0.1368 0.4042 -0.9044
vn -0.3790 0.3228 0.8673
vn -0.9406 0.3228 0.1054
vn 0.9406 0.3228 -0.1054
vn 0.5616 0.3228 0.7619
vn 0.5616 0.3228 0.7618
vn 0.3790 0.3228 -0.8673
vn -0.5616 0.3228 -0.7618
vn -0.5616 0.3228 -0.7619
vn 0.4081 0.7260 0.5536
vn -0.3805 0.3115 0.8708
vn 0.5638 0.3115 0.7649
vn -0.3805 0.3115 0.8707
vn 0.4081 0.7260 0.5535
vn -0.2754 0.7260 0.6302
vn -0.5638 0.3115 -0.7649
vn -0.6835 0.7260 0.0767
vn -0.4080 0.7260 -0.5536
vn -0.6834 0.7260 0.0766
vn -0.9443 0.3115 0.1058
vn 0.2753 0.7260 -0.6302
vn 0.9443 0.3115 -0.1059
vn 0.3805 0.3115 -0.8707
vn 0.6835 0.7260 -0.0766
vn 0.6834 0.7260 -0.0766
vn 0.9443 0.3115 -0.1058
vn 0.6834 0.7260 -0.0767
vn 0.4080 0.7260 0.5536
vn 0.6835 0.7259 -0.0766
vn -0.2754 0.7259 0.6302
vn 0.4081 0.7259 0.5536
vn -0.6835 0.7259 0.0766
vn 0.2754 0.7259 -0.6302
vn -0.4080 0.7259 -0.5536
vn 0.2754 0.7260 -0.6302
vn 0.3805 0.3115 -0.8708
vn 0.2753 0.7260 -0.6301
vn -0.4081 0.7260 -0.5536
vn -0.2753 0.7260 0.6302
vn -0.9443 0.3115 0.1059
vn -0.6835 0.7260 0.0765
vn 0.8673 0.3228 0.3790
vn 0.1054 0.3228 0.9406
vn 0.7618 0.3228 -0.5616
vn 0.7619 0.3228 -0.5616
vn -0.7618 0.3228 0.5616
vn -0.8673 0.3228 -0.3790
vn -0.7619 0.3228 0.5616
vn -0.1054 0.3228 -0.9406
vn -0.3454 0.5060 0.7904
vn -0.8571 0.5060 0.0961
vn -0.7176 0.4530 0.5290
vn -0.8572 0.5060 0.0961
vn 0.7176 -0.4530 -0.5290
vn 0.8572 -0.5060 -0.0961
vn 0.3454 -0.5060 -0.7904
vn 0.3454 -0.5060 -0.7903
vn -0.0993 0.4529 -0.8860
vn 0.3454 0.5060 -0.7904
vn 0.3454 0.5061 -0.7903
vn -0.0993 0.4530 -0.8860
vn -0.5118 0.5060 -0.6943
vn -0.3454 -0.5060 0.7904
vn 0.0993 -0.4529 0.8860
vn 0.5118 -0.5060 0.6943
vn 0.0993 -0.4530 0.8860
vn -0.8169 0.4530 -0.3570
vn 0.8571 -0.5060 -0.0961
vn 0.8169 -0.4530 0.3570
vn 0.5118 0.5060 0.6943
vn 0.0993 0.4530 0.8860
vn -0.3454 0.5060 0.7903
vn -0.5118 -0.5060 -0.6943
vn -0.0993 -0.4530 -0.8860
vn 0.8571 0.5060 -0.0961
vn 0.7176 0.4530 -0.5290
vn 0.8572 0.5060 -0.0961
vn -0.7176 -0.4530 0.5290
vn -0.8572 -0.5060 0.0961
vn 0.8169 0.4530 0.3570
vn -0.8169 -0.4530 -0.3570
vn -0.8571 -0.5060 0.0961
vn -0.0961 0.5060 -0.8571
vn 0.6943 0.5061 -0.5118
vn 0.3570 0.4530 -0.8169
vn 0.6943 0.5060 -0.5118
vn -0.0961 0.5060 -0.8572
vn -0.3570 -0.4530 0.8169
vn -0.6943 -0.5060 0.5118
vn 0.0961 -0.5061 0.8571
vn 0.0961 -0.5060 0.8572
vn 0.0961 -0.5060 0.8571
vn 0.7904 0.5060 0.3454
vn 0.5290 0.4530 0.7176
vn 0.0961 0.5061 0.8571
vn 0.0961 0.5060 0.8571
vn 0.0961 0.5060 0.8572
vn -0.7904 -0.5060 -0.3454
vn -0.5290 -0.4530 -0.7176
vn -0.7903 -0.5060 -0.3454
vn -0.0961 -0.5060 -0.8572
vn -0.0961 -0.5060 -0.8571
vn -0.6943 0.5060 0.5118
vn -0.7903 0.5060 -0.3454
vn -0.8860 0.4530 0.0993
vn -0.7904 0.5060 -0.3454
vn 0.8860 -0.4530 -0.0993
vn 0.7904 -0.5060 0.3454
vn 0.6943 -0.5060 -0.5118
vn -0.5290 0.4530 -0.7176
vn -0.5290 0.4529 -0.7176
vn 0.5290 -0.4530 0.7176
vn 0.5290 -0.4529 0.7176
vn -0.3570 0.4530 0.8169
vn 0.3570 -0.4530 -0.8169
vn 0.7903 0.5060 0.3454
vn 0.8860 0.4530 -0.0993
vn -0.8860 -0.4530 0.0993
vn 0.3454 0.5060 -0.7903
vn -0.8169 0.4529 -0.3570
vn 0.8170 0.4529 0.3570
vn -0.8169 -0.4529 -0.3570
vn 0.3454 -0.5061 -0.7903
vn 0.8571 0.5061 -0.0961
vn -0.3454 -0.5060 0.7903
vn 0.5118 0.5061 0.6942
vn -0.3454 0.5061 0.7903
vn -0.5118 -0.5061 -0.6943
vt 0.593750 0.025000
vt 0.593750 0.104996
vt 0.593750 0.225000
vt 0.093750 0.475000
vt 0.093750 0.275000
vt 0.093750 0.425000
vt 0.093750 0.348778
vt 0.093750 0.338765
vt 0.093750 0.344099
vt 0.093750 0.375000
vt 0.093750 0.325000
s 0
usemtl colormap.002
f 3/1/1 2/1/1 1/1/1
f 2/1/1 3/1/1 4/1/1
f 4/1/1 3/1/1 5/1/1
f 4/1/1 5/1/1 6/1/1
f 6/1/1 5/1/1 7/1/1
f 6/1/1 7/1/1 8/1/1
f 9/2/2 1/1/3 2/1/4
f 1/1/5 9/2/2 10/2/6
f 11/2/7 1/1/8 10/2/9
f 1/1/8 11/2/10 3/1/11
f 12/2/12 2/1/13 4/1/14
f 2/1/15 12/2/12 9/2/16
f 13/2/17 4/1/18 6/1/19
f 4/1/20 13/2/17 12/2/21
f 7/1/22 14/2/23 8/1/24
f 14/2/23 7/1/22 15/2/25
f 11/2/26 5/1/27 3/1/28
f 5/1/27 11/2/26 16/2/29
f 8/1/30 13/2/17 6/1/31
f 13/2/32 8/1/30 14/2/33
f 7/1/34 16/2/35 15/2/25
f 16/2/35 7/1/36 5/1/37
f 14/2/38 18/3/39 17/3/40
f 18/3/41 14/2/42 15/2/43
f 16/2/44 18/3/45 15/2/46
f 18/3/45 16/2/47 19/3/48
f 21/3/49 9/2/50 20/3/51
f 9/2/50 21/3/49 10/2/52
f 22/3/53 12/2/54 13/2/55
f 12/2/56 22/3/57 23/3/58
f 21/3/59 11/2/60 10/2/61
f 11/2/60 21/3/49 24/3/62
f 13/2/55 17/3/40 22/3/63
f 17/3/40 13/2/55 14/2/64
f 20/3/65 12/2/56 23/3/66
f 12/2/67 20/3/65 9/2/68
f 24/3/69 16/2/70 11/2/60
f 16/2/70 24/3/71 19/3/72
f 27/4/73 26/4/73 25/4/73
f 26/4/73 27/4/73 28/4/73
f 26/4/73 28/4/73 29/4/73
f 29/4/73 28/4/73 30/4/73
f 29/4/73 30/4/73 31/4/73
f 31/4/73 30/4/73 32/4/73
f 35/5/1 34/5/1 33/5/1
f 34/5/1 35/5/1 36/5/1
f 34/5/1 36/5/1 37/5/1
f 37/5/1 36/5/1 38/5/1
f 37/5/1 38/5/1 39/5/1
f 39/5/1 38/5/1 40/5/1
f 27/4/74 33/5/75 34/5/74
f 33/5/75 27/4/74 25/4/76
f 29/4/77 38/5/78 36/5/77
f 38/5/78 29/4/77 31/4/79
f 40/5/80 31/4/81 32/4/82
f 31/4/81 40/5/80 38/5/81
f 28/4/83 34/5/84 37/5/83
f 34/5/84 28/4/83 27/4/85
f 26/4/86 36/5/87 35/5/86
f 36/5/87 26/4/86 29/4/88
f 30/4/89 37/5/90 39/5/89
f 37/5/90 30/4/89 28/4/91
f 26/4/92 33/5/76 25/4/93
f 33/5/93 26/4/92 35/5/92
f 40/5/94 30/4/95 39/5/95
f 30/4/95 40/5/82 32/4/94
f 43/6/96 42/7/97 41/7/96
f 42/7/97 43/6/96 44/6/97
f 47/6/98 46/7/99 45/7/98
f 46/7/99 47/6/98 48/6/100
f 50/6/101 45/7/98 49/7/101
f 45/7/98 50/6/101 47/6/98
f 48/6/99 41/7/96 46/7/99
f 41/7/96 48/6/99 43/6/96
f 52/7/102 44/6/97 51/6/102
f 44/6/97 52/7/103 42/7/97
f 52/7/103 50/6/101 49/7/101
f 50/6/101 52/7/102 51/6/103
f 41/7/1 45/7/1 46/7/1
f 45/7/1 41/7/1 42/7/1
f 45/7/1 42/7/1 49/7/1
f 49/7/1 42/7/1 52/7/1
f 55/6/104 54/8/105 53/8/106
f 54/8/107 55/6/108 56/6/109
f 59/8/110 58/6/111 57/6/112
f 58/6/113 59/8/110 60/8/114
f 63/6/115 62/8/116 61/8/117
f 62/8/116 63/6/115 64/6/118
f 64/6/119 53/8/106 62/8/120
f 53/8/106 64/6/121 55/6/122
f 64/6/123 56/6/124 55/6/125
f 56/6/124 64/6/123 58/6/126
f 58/6/126 64/6/123 63/6/127
f 58/6/126 63/6/127 57/6/128
f 59/8/110 63/6/129 61/8/130
f 63/6/131 59/8/110 57/6/132
f 54/8/1 62/8/1 53/8/1
f 62/8/1 54/8/1 60/8/1
f 62/8/1 60/8/1 61/8/1
f 61/8/1 60/8/1 59/8/1
f 56/6/133 60/8/134 54/8/107
f 60/8/134 56/6/133 58/6/135
f 67/6/136 66/9/137 65/9/136
f 66/9/137 67/6/136 68/6/137
f 70/6/138 65/9/136 69/9/139
f 65/9/136 70/6/139 67/6/136
f 68/6/137 71/9/140 66/9/137
f 71/9/140 68/6/137 72/6/140
f 72/6/140 73/9/141 71/9/142
f 73/9/141 72/6/142 74/6/141
f 71/9/1 65/9/1 66/9/1
f 65/9/1 71/9/1 69/9/1
f 69/9/1 71/9/1 73/9/1
f 69/9/1 73/9/1 75/9/1
f 76/6/143 69/9/138 75/9/143
f 69/9/138 76/6/143 70/6/138
f 73/9/141 76/6/143 75/9/143
f 76/6/143 73/9/141 74/6/141
f 79/10/144 78/10/145 77/11/146
f 78/10/147 79/10/144 41/6/144
f 78/10/147 41/6/144 42/6/147
f 77/11/148 78/10/149 79/10/150
f 41/6/150 79/10/150 78/10/149
f 42/6/149 41/6/151 78/10/149
f 81/11/152 49/6/153 80/10/153
f 49/6/154 81/11/155 52/6/156
f 52/6/156 81/11/155 82/10/156
f 80/10/157 49/6/157 81/11/158
f 52/6/159 81/11/160 49/6/157
f 82/10/159 81/11/160 52/6/159
f 82/10/156 42/6/147 52/6/156
f 42/6/147 82/10/156 83/11/161
f 42/6/147 83/11/161 78/10/147
f 52/6/159 42/6/162 82/10/159
f 83/11/163 82/10/159 42/6/149
f 78/10/149 83/11/163 42/6/162
f 46/6/164 85/11/165 84/10/164
f 85/11/165 46/6/164 41/6/166
f 85/11/165 41/6/166 79/10/144
f 84/10/167 85/11/168 46/6/167
f 41/6/150 46/6/167 85/11/168
f 79/10/150 41/6/150 85/11/168
f 80/10/153 87/10/169 86/11/170
f 87/10/171 80/10/153 49/6/153
f 87/10/171 49/6/153 45/6/171
f 86/11/172 87/10/173 80/10/157
f 49/6/157 80/10/157 87/10/173
f 45/6/173 49/6/157 87/10/173
f 45/6/169 88/11/174 87/10/171
f 88/11/174 45/6/171 46/6/164
f 88/11/174 46/6/164 84/10/164
f 87/10/173 88/11/175 45/6/176
f 46/6/167 45/6/173 88/11/175
f 84/10/167 46/6/167 88/11/175
f 91/10/177 90/10/178 89/11/179
f 90/10/180 91/10/181 75/6/181
f 90/10/180 75/6/181 69/6/180
f 89/11/182 90/10/183 91/10/184
f 75/6/185 91/10/185 90/10/183
f 69/6/183 75/6/186 90/10/183
f 65/6/187 93/11/188 92/10/187
f 93/11/188 65/6/187 66/6/189
f 93/11/188 66/6/190 94/10/191
f 92/10/192 93/11/193 65/6/194
f 66/6/195 65/6/192 93/11/193
f 94/10/195 66/6/196 93/11/193
f 97/10/197 96/10/198 95/11/199
f 96/10/200 97/10/197 71/6/197
f 96/10/200 71/6/197 73/6/200
f 95/11/201 96/10/202 97/10/203
f 71/6/203 97/10/203 96/10/202
f 73/6/202 71/6/203 96/10/202
f 98/11/204 75/6/177 91/10/181
f 75/6/177 98/11/205 73/6/200
f 73/6/200 98/11/204 96/10/200
f 91/10/185 75/6/185 98/11/206
f 73/6/202 98/11/207 75/6/185
f 96/10/202 98/11/206 73/6/202
f 94/10/191 97/10/197 99/11/208
f 97/10/197 94/10/191 66/6/191
f 97/10/197 66/6/191 71/6/197
f 99/11/209 97/10/203 94/10/196
f 66/6/196 94/10/195 97/10/203
f 71/6/203 66/6/196 97/10/203
f 90/10/180 92/10/210 100/11/211
f 92/10/187 90/10/180 69/6/180
f 92/10/187 69/6/180 65/6/187
f 100/11/212 92/10/192 90/10/183
f 69/6/183 90/10/183 92/10/192
f 65/6/192 69/6/183 92/10/192
f 102/11/155 61/6/213 101/10/153
f 61/6/213 102/11/155 59/6/156
f 59/6/156 102/11/155 103/10/156
f 101/10/157 61/6/157 102/11/160
f 59/6/159 102/11/160 61/6/157
f 103/10/159 102/11/160 59/6/159
f 103/10/156 60/6/147 59/6/156
f 60/6/147 103/10/156 104/11/161
f 60/6/147 104/11/214 105/10/147
f 59/6/159 60/6/162 103/10/159
f 104/11/163 103/10/159 60/6/162
f 105/10/149 104/11/163 60/6/162
f 62/6/169 107/11/174 106/10/171
f 107/11/174 62/6/171 53/6/164
f 107/11/215 53/6/164 108/10/164
f 106/10/176 107/11/175 62/6/176
f 53/6/167 62/6/173 107/11/175
f 108/10/167 53/6/167 107/11/216
f 110/10/144 105/10/145 109/11/146
f 105/10/147 110/10/144 54/6/144
f 105/10/147 54/6/166 60/6/147
f 109/11/148 105/10/149 110/10/150
f 54/6/150 110/10/150 105/10/149
f 60/6/162 54/6/217 105/10/149
f 101/10/213 106/10/218 111/11/170
f 106/10/171 101/10/153 61/6/153
f 106/10/171 61/6/153 62/6/171
f 111/11/172 106/10/173 101/10/219
f 61/6/157 101/10/157 106/10/173
f 62/6/173 61/6/157 106/10/173
f 53/6/220 112/11/165 108/10/164
f 112/11/165 53/6/164 54/6/221
f 112/11/165 54/6/166 110/10/144
f 108/10/167 112/11/168 53/6/222
f 54/6/150 53/6/167 112/11/168
f 110/10/150 54/6/150 112/11/168
f 3/1/1 2/1/1 1/1/1
f 2/1/1 3/1/1 4/1/1
f 4/1/1 3/1/1 5/1/1
f 4/1/1 5/1/1 6/1/1
f 6/1/1 5/1/1 7/1/1
f 6/1/1 7/1/1 8/1/1
f 9/2/2 1/1/3 2/1/4
f 1/1/5 9/2/2 10/2/6
f 11/2/7 1/1/8 10/2/9
f 1/1/8 11/2/10 3/1/11
f 12/2/12 2/1/13 4/1/14
f 2/1/15 12/2/12 9/2/16
f 13/2/17 4/1/18 6/1/19
f 4/1/20 13/2/17 12/2/21
f 7/1/22 14/2/23 8/1/24
f 14/2/23 7/1/22 15/2/25
f 11/2/26 5/1/27 3/1/28
f 5/1/27 11/2/26 16/2/29
f 8/1/30 13/2/17 6/1/31
f 13/2/32 8/1/30 14/2/33
f 7/1/34 16/2/35 15/2/25
f 16/2/35 7/1/36 5/1/37
f 14/2/38 18/3/39 17/3/40
f 18/3/41 14/2/42 15/2/43
f 16/2/44 18/3/45 15/2/46
f 18/3/45 16/2/47 19/3/48
f 21/3/49 9/2/50 20/3/51
f 9/2/50 21/3/49 10/2/52
f 22/3/53 12/2/54 13/2/55
f 12/2/56 22/3/57 23/3/58
f 21/3/59 11/2/60 10/2/61
f 11/2/60 21/3/49 24/3/62
f 13/2/55 17/3/40 22/3/63
f 17/3/40 13/2/55 14/2/64
f 20/3/65 12/2/56 23/3/66
f 12/2/67 20/3/65 9/2/68
f 24/3/69 16/2/70 11/2/60
f 16/2/70 24/3/71 19/3/72
f 27/4/73 26/4/73 25/4/73
f 26/4/73 27/4/73 28/4/73
f 26/4/73 28/4/73 29/4/73
f 29/4/73 28/4/73 30/4/73
f 29/4/73 30/4/73 31/4/73
f 31/4/73 30/4/73 32/4/73
f 35/5/1 34/5/1 33/5/1
f 34/5/1 35/5/1 36/5/1
f 34/5/1 36/5/1 37/5/1
f 37/5/1 36/5/1 38/5/1
f 37/5/1 38/5/1 39/5/1
f 39/5/1 38/5/1 40/5/1
f 27/4/74 33/5/75 34/5/74
f 33/5/75 27/4/74 25/4/76
f 29/4/77 38/5/78 36/5/77
f 38/5/78 29/4/77 31/4/79
f 40/5/80 31/4/81 32/4/82
f 31/4/81 40/5/80 38/5/81
f 28/4/83 34/5/84 37/5/83
f 34/5/84 28/4/83 27/4/85
f 26/4/86 36/5/87 35/5/86
f 36/5/87 26/4/86 29/4/88
f 30/4/89 37/5/90 39/5/89
f 37/5/90 30/4/89 28/4/91
f 26/4/92 33/5/76 25/4/93
f 33/5/93 26/4/92 35/5/92
f 40/5/94 30/4/95 39/5/95
f 30/4/95 40/5/82 32/4/94
f 43/6/96 42/7/97 41/7/96
f 42/7/97 43/6/96 44/6/97
f 47/6/98 46/7/99 45/7/98
f 46/7/99 47/6/98 48/6/100
f 50/6/101 45/7/98 49/7/101
f 45/7/98 50/6/101 47/6/98
f 48/6/99 41/7/96 46/7/99
f 41/7/96 48/6/99 43/6/96
f 52/7/102 44/6/97 51/6/102
f 44/6/97 52/7/103 42/7/97
f 52/7/103 50/6/101 49/7/101
f 50/6/101 52/7/102 51/6/103
f 41/7/1 45/7/1 46/7/1
f 45/7/1 41/7/1 42/7/1
f 45/7/1 42/7/1 49/7/1
f 49/7/1 42/7/1 52/7/1
f 55/6/104 54/8/105 53/8/106
f 54/8/107 55/6/108 56/6/109
f 59/8/110 58/6/111 57/6/112
f 58/6/113 59/8/110 60/8/114
f 63/6/115 62/8/116 61/8/117
f 62/8/116 63/6/115 64/6/118
f 64/6/119 53/8/106 62/8/120
f 53/8/106 64/6/121 55/6/122
f 64/6/123 56/6/124 55/6/125
f 56/6/124 64/6/123 58/6/126
f 58/6/126 64/6/123 63/6/127
f 58/6/126 63/6/127 57/6/128
f 59/8/110 63/6/129 61/8/130
f 63/6/131 59/8/110 57/6/132
f 54/8/1 62/8/1 53/8/1
f 62/8/1 54/8/1 60/8/1
f 62/8/1 60/8/1 61/8/1
f 61/8/1 60/8/1 59/8/1
f 56/6/133 60/8/134 54/8/107
f 60/8/134 56/6/133 58/6/135
f 67/6/136 66/9/137 65/9/136
f 66/9/137 67/6/136 68/6/137
f 70/6/138 65/9/136 69/9/139
f 65/9/136 70/6/139 67/6/136
f 68/6/137 71/9/140 66/9/137
f 71/9/140 68/6/137 72/6/140
f 72/6/140 73/9/141 71/9/142
f 73/9/141 72/6/142 74/6/141
f 71/9/1 65/9/1 66/9/1
f 65/9/1 71/9/1 69/9/1
f 69/9/1 71/9/1 73/9/1
f 69/9/1 73/9/1 75/9/1
f 76/6/143 69/9/138 75/9/143
f 69/9/138 76/6/143 70/6/138
f 73/9/141 76/6/143 75/9/143
f 76/6/143 73/9/141 74/6/141
f 79/10/144 78/10/145 77/11/146
f 78/10/147 79/10/144 41/6/144
f 78/10/147 41/6/144 42/6/147
f 77/11/148 78/10/149 79/10/150
f 41/6/150 79/10/150 78/10/149
f 42/6/149 41/6/151 78/10/149
f 81/11/152 49/6/153 80/10/153
f 49/6/154 81/11/155 52/6/156
f 52/6/156 81/11/155 82/10/156
f 80/10/157 49/6/157 81/11/158
f 52/6/159 81/11/160 49/6/157
f 82/10/159 81/11/160 52/6/159
f 82/10/156 42/6/147 52/6/156
f 42/6/147 82/10/156 83/11/161
f 42/6/147 83/11/161 78/10/147
f 52/6/159 42/6/162 82/10/159
f 83/11/163 82/10/159 42/6/149
f 78/10/149 83/11/163 42/6/162
f 46/6/164 85/11/165 84/10/164
f 85/11/165 46/6/164 41/6/166
f 85/11/165 41/6/166 79/10/144
f 84/10/167 85/11/168 46/6/167
f 41/6/150 46/6/167 85/11/168
f 79/10/150 41/6/150 85/11/168
f 80/10/153 87/10/169 86/11/170
f 87/10/171 80/10/153 49/6/153
f 87/10/171 49/6/153 45/6/171
f 86/11/172 87/10/173 80/10/157
f 49/6/157 80/10/157 87/10/173
f 45/6/173 49/6/157 87/10/173
f 45/6/169 88/11/174 87/10/171
f 88/11/174 45/6/171 46/6/164
f 88/11/174 46/6/164 84/10/164
f 87/10/173 88/11/175 45/6/176
f 46/6/167 45/6/173 88/11/175
f 84/10/167 46/6/167 88/11/175
f 91/10/177 90/10/178 89/11/179
f 90/10/180 91/10/181 75/6/181
f 90/10/180 75/6/181 69/6/180
f 89/11/182 90/10/183 91/10/184
f 75/6/185 91/10/185 90/10/183
f 69/6/183 75/6/186 90/10/183
f 65/6/187 93/11/188 92/10/187
f 93/11/188 65/6/187 66/6/189
f 93/11/188 66/6/190 94/10/191
f 92/10/192 93/11/193 65/6/194
f 66/6/195 65/6/192 93/11/193
f 94/10/195 66/6/196 93/11/193
f 97/10/197 96/10/198 95/11/199
f 96/10/200 97/10/197 71/6/197
f 96/10/200 71/6/197 73/6/200
f 95/11/201 96/10/202 97/10/203
f 71/6/203 97/10/203 96/10/202
f 73/6/202 71/6/203 96/10/202
f 98/11/204 75/6/177 91/10/181
f 75/6/177 98/11/205 73/6/200
f 73/6/200 98/11/204 96/10/200
f 91/10/185 75/6/185 98/11/206
f 73/6/202 98/11/207 75/6/185
f 96/10/202 98/11/206 73/6/202
f 94/10/191 97/10/197 99/11/208
f 97/10/197 94/10/191 66/6/191
f 97/10/197 66/6/191 71/6/197
f 99/11/209 97/10/203 94/10/196
f 66/6/196 94/10/195 97/10/203
f 71/6/203 66/6/196 97/10/203
f 90/10/180 92/10/210 100/11/211
f 92/10/187 90/10/180 69/6/180
f 92/10/187 69/6/180 65/6/187
f 100/11/212 92/10/192 90/10/183
f 69/6/183 90/10/183 92/10/192
f 65/6/192 69/6/183 92/10/192
f 102/11/155 61/6/213 101/10/153
f 61/6/213 102/11/155 59/6/156
f 59/6/156 102/11/155 103/10/156
f 101/10/157 61/6/157 102/11/160
f 59/6/159 102/11/160 61/6/157
f 103/10/159 102/11/160 59/6/159
f 103/10/156 60/6/147 59/6/156
f 60/6/147 103/10/156 104/11/161
f 60/6/147 104/11/214 105/10/147
f 59/6/159 60/6/162 103/10/159
f 104/11/163 103/10/159 60/6/162
f 105/10/149 104/11/163 60/6/162
f 62/6/169 107/11/174 106/10/171
f 107/11/174 62/6/171 53/6/164
f 107/11/215 53/6/164 108/10/164
f 106/10/176 107/11/175 62/6/176
f 53/6/167 62/6/173 107/11/175
f 108/10/167 53/6/167 107/11/216
f 110/10/144 105/10/145 109/11/146
f 105/10/147 110/10/144 54/6/144
f 105/10/147 54/6/166 60/6/147
f 109/11/148 105/10/149 110/10/150
f 54/6/150 110/10/150 105/10/149
f 60/6/162 54/6/217 105/10/149
f 101/10/213 106/10/218 111/11/170
f 106/10/171 101/10/153 61/6/153
f 106/10/171 61/6/153 62/6/171
f 111/11/172 106/10/173 101/10/219
f 61/6/157 101/10/157 106/10/173
f 62/6/173 61/6/157 106/10/173
f 53/6/220 112/11/165 108/10/164
f 112/11/165 53/6/164 54/6/221
f 112/11/165 54/6/166 110/10/144
f 108/10/167 112/11/168 53/6/222
f 54/6/150 53/6/167 112/11/168
f 110/10/150 54/6/150 112/11/168
