# Blender 4.1.1
# www.blender.org
mtllib tree.015.mtl
o tree.015
v -21.800484 -0.295190 -13.947484
v -21.599356 -0.295190 -14.089440
v -21.972027 -0.295190 -13.977070
v -21.569771 -0.295190 -14.260983
v -22.113983 -0.295190 -14.178198
v -21.711727 -0.295190 -14.462111
v -22.084398 -0.295190 -14.349740
v -21.883270 -0.295190 -14.491696
v -21.720617 0.150532 -14.154515
v -21.821180 0.150532 -14.083537
v -21.906952 0.150532 -14.098330
v -21.705824 0.150532 -14.240287
v -21.776802 0.150532 -14.340851
v -21.862574 0.150532 -14.355643
v -21.963137 0.150532 -14.284665
v -21.977930 0.150532 -14.198894
v -21.867748 0.819166 -14.389657
v -21.993452 0.819166 -14.300934
v -22.011944 0.819166 -14.193720
v -21.690302 0.819166 -14.138247
v -21.816006 0.819166 -14.049524
v -21.760532 0.819166 -14.371166
v -21.671810 0.819166 -14.245461
v -21.923220 0.819166 -14.068015
v -21.675402 0.309673 -14.088062
v -21.769623 0.309673 -14.066804
v -21.623810 0.309673 -14.169719
v -21.645067 0.309672 -14.263940
v -21.851278 0.309673 -14.118396
v -21.726725 0.309673 -14.315532
v -21.872538 0.309673 -14.212617
v -21.820946 0.309673 -14.294273
v -21.634182 0.147933 -14.029662
v -21.553368 0.147933 -14.157570
v -21.781771 0.147933 -13.996362
v -21.909679 0.147933 -14.077176
v -21.586668 0.147933 -14.305159
v -21.942980 0.147933 -14.224766
v -21.714575 0.147933 -14.385974
v -21.862164 0.147933 -14.352674
v -22.105772 0.819166 -13.672742
v -22.459293 0.819166 -14.173621
v -22.000397 1.556122 -13.900946
v -22.208977 1.556122 -14.196466
v -21.238224 0.819166 -14.285061
v -21.495237 0.819166 -13.728461
v -21.488541 1.556121 -14.262216
v -21.640179 1.556122 -13.933821
v -21.591745 0.819166 -14.785940
v -21.697121 1.556121 -14.557737
v -22.057339 1.556122 -14.524862
v -22.202282 0.819166 -14.730221
v -21.644917 2.347869 -13.940534
v -21.996952 2.347869 -13.908405
v -21.801907 3.178330 -14.162960
v -21.882820 3.178330 -14.155576
v -21.895611 3.178330 -14.295723
v -21.929672 3.178330 -14.221957
v -22.052601 2.347869 -14.518149
v -22.200794 2.347869 -14.197213
v -21.700565 2.347869 -14.550278
v -21.496723 2.347869 -14.261470
v -21.814697 3.178330 -14.303107
v -21.767845 3.178330 -14.236726
v -21.396240 1.556122 -14.020388
v -21.803459 1.556122 -13.732971
v -21.641409 2.347869 -14.133596
v -21.828001 2.347869 -14.001899
v -21.441540 1.556121 -14.516758
v -21.662167 2.347869 -14.361039
v -22.255978 1.556122 -13.941925
v -22.035351 2.347869 -14.097644
v -22.301279 1.556122 -14.438295
v -22.056108 2.347869 -14.325087
v -21.894060 1.556122 -14.725712
v -21.869516 2.347869 -14.456783
v -22.377964 0.589264 -13.855826
v -22.526453 0.704215 -14.167493
v -22.134043 0.704215 -13.611516
v -21.563475 0.704215 -14.847166
v -21.907629 0.589264 -14.874403
v -22.241169 0.704215 -14.785317
v -22.436834 0.589264 -14.500889
v -21.456348 0.704215 -13.673365
v -21.789888 0.589264 -13.584279
v -21.319553 0.589264 -14.602856
v -21.171064 0.704215 -14.291190
v -21.260683 0.589264 -13.957793
v -21.627989 1.369209 -14.707451
v -21.396746 1.462665 -14.548373
v -21.899042 1.462665 -14.780313
v -21.346462 1.462665 -13.997402
v -21.545088 1.369209 -13.799093
v -21.798475 1.462665 -13.678370
v -22.373199 1.369209 -14.181479
v -22.351055 1.462665 -14.461280
v -22.300772 1.462665 -13.910309
v -22.152430 1.369209 -14.659589
v -22.069529 1.369209 -13.751231
v -21.324318 1.369209 -14.277204
v -21.684263 2.281588 -14.585580
v -21.882704 2.215307 -14.601285
v -22.075024 2.281588 -14.549918
v -22.187843 2.215307 -14.385916
v -22.239519 2.281588 -14.193679
v -21.457998 2.281588 -14.265003
v -21.509674 2.215307 -14.072766
v -21.622494 2.281588 -13.908765
v -22.153898 2.215307 -14.013972
v -22.013254 2.281588 -13.873102
v -21.543619 2.215307 -14.444710
v -21.814814 2.215307 -13.857398
vn -0.0000 -1.0000 -0.0000
vn 0.8050 0.2942 0.5151
vn 0.2061 0.2944 0.9332
vn 0.8103 0.2944 0.5068
vn 0.8050 0.2942 0.5152
vn 0.2157 0.2942 0.9311
vn -0.5151 0.2942 0.8051
vn 0.2060 0.2944 0.9332
vn 0.2156 0.2942 0.9311
vn -0.5150 0.2943 0.8051
vn -0.5067 0.2944 0.8103
vn 0.9311 0.2942 -0.2156
vn 0.8103 0.2944 0.5067
vn 0.9332 0.2944 -0.2060
vn 0.8051 0.2942 0.5151
vn 0.5151 0.2942 -0.8050
vn 0.9332 0.2944 -0.2061
vn 0.5068 0.2944 -0.8103
vn 0.5152 0.2942 -0.8050
vn 0.9311 0.2942 -0.2157
vn -0.8103 0.2944 -0.5068
vn -0.2157 0.2942 -0.9311
vn -0.2061 0.2944 -0.9332
vn -0.8050 0.2942 -0.5151
vn -0.5151 0.2942 0.8050
vn -0.9332 0.2944 0.2061
vn -0.5068 0.2944 0.8103
vn -0.9311 0.2942 0.2157
vn -0.2060 0.2944 -0.9332
vn 0.5150 0.2943 -0.8051
vn 0.5067 0.2944 -0.8103
vn 0.5151 0.2942 -0.8051
vn -0.2156 0.2942 -0.9311
vn -0.8103 0.2944 -0.5067
vn -0.9311 0.2942 0.2156
vn -0.8051 0.2942 -0.5151
vn -0.9332 0.2944 0.2060
vn -0.2207 -0.0513 -0.9740
vn -0.8447 -0.0512 -0.5327
vn -0.2190 -0.0513 -0.9744
vn -0.8447 -0.0513 -0.5327
vn -0.8438 -0.0513 -0.5342
vn -0.9740 -0.0512 0.2207
vn -0.8448 -0.0513 -0.5327
vn -0.8438 -0.0512 -0.5342
vn -0.9740 -0.0513 0.2206
vn -0.9744 -0.0512 0.2189
vn 0.2190 -0.0512 0.9744
vn 0.8438 -0.0513 0.5342
vn 0.8447 -0.0513 0.5327
vn 0.2207 -0.0513 0.9740
vn 0.5327 -0.0513 -0.8447
vn 0.9740 -0.0513 -0.2207
vn 0.5342 -0.0513 -0.8438
vn 0.5327 -0.0512 -0.8447
vn 0.9744 -0.0513 -0.2190
vn 0.2189 -0.0513 0.9744
vn -0.5342 -0.0513 0.8438
vn 0.2207 -0.0512 0.9740
vn 0.2189 -0.0512 0.9744
vn -0.5327 -0.0513 0.8448
vn -0.2189 -0.0512 -0.9744
vn 0.5327 -0.0513 -0.8448
vn -0.2189 -0.0513 -0.9744
vn -0.2207 -0.0512 -0.9740
vn 0.9740 -0.0513 -0.2206
vn 0.9744 -0.0512 -0.2189
vn 0.9740 -0.0512 -0.2207
vn 0.8448 -0.0513 0.5327
vn 0.8438 -0.0512 0.5342
vn -0.5327 -0.0513 0.8447
vn -0.9740 -0.0513 0.2207
vn -0.5327 -0.0512 0.8447
vn -0.9744 -0.0513 0.2190
vn -0.0000 1.0000 -0.0000
vn 0.9014 0.4042 0.1555
vn 0.5275 0.4042 0.7473
vn 0.9013 0.4042 0.1555
vn 0.5274 0.4042 0.7473
vn 0.5274 0.4043 0.7473
vn -0.7473 0.4042 0.5274
vn -0.9014 0.4042 -0.1554
vn -0.9013 0.4042 -0.1554
vn -0.5274 0.4042 -0.7473
vn -0.9014 0.4042 -0.1555
vn -0.5275 0.4042 -0.7473
vn -0.9013 0.4042 -0.1555
vn 0.7473 0.4042 -0.5274
vn 0.9014 0.4042 0.1554
vn 0.9013 0.4043 0.1554
vn -0.1555 0.4042 0.9014
vn -0.7473 0.4042 0.5275
vn -0.1555 0.4042 0.9013
vn -0.7473 0.4043 0.5274
vn 0.1555 0.4042 -0.9014
vn 0.1555 0.4042 -0.9013
vn 0.7473 0.4042 -0.5275
vn 0.7472 0.4042 -0.5275
vn -0.1554 0.4042 0.9014
vn 0.1554 0.4042 -0.9014
vn -0.5274 0.4043 -0.7473
vn -0.3968 0.3228 0.8593
vn -0.9426 0.3228 0.0860
vn 0.9425 0.3228 -0.0860
vn 0.5458 0.3228 0.7733
vn 0.9426 0.3228 -0.0860
vn 0.3968 0.3228 -0.8593
vn -0.5458 0.3228 -0.7733
vn -0.9425 0.3228 0.0860
vn 0.3966 0.7260 0.5618
vn -0.3984 0.3115 0.8627
vn 0.5479 0.3115 0.7764
vn -0.3983 0.3115 0.8627
vn 0.3966 0.7260 0.5619
vn -0.2884 0.7260 0.6244
vn -0.5480 0.3115 -0.7763
vn -0.6849 0.7260 0.0626
vn -0.3965 0.7260 -0.5619
vn -0.6849 0.7260 0.0625
vn -0.9463 0.3115 0.0863
vn 0.2883 0.7260 -0.6244
vn 0.9463 0.3115 -0.0864
vn 0.3984 0.3115 -0.8627
vn 0.9463 0.3115 -0.0863
vn 0.6849 0.7260 -0.0624
vn 0.6849 0.7260 -0.0625
vn 0.5480 0.3115 0.7763
vn 0.3965 0.7260 0.5619
vn 0.6849 0.7259 -0.0625
vn -0.2883 0.7259 0.6244
vn 0.3966 0.7259 0.5619
vn -0.6849 0.7259 0.0625
vn 0.2883 0.7259 -0.6244
vn -0.3966 0.7259 -0.5619
vn -0.5479 0.3116 -0.7763
vn 0.2883 0.7260 -0.6243
vn -0.5479 0.3115 -0.7764
vn -0.3966 0.7260 -0.5619
vn -0.2883 0.7260 0.6244
vn -0.9463 0.3115 0.0864
vn 0.8593 0.3228 0.3968
vn 0.0860 0.3228 0.9425
vn 0.0860 0.3228 0.9426
vn 0.7733 0.3228 -0.5457
vn 0.7733 0.3228 -0.5458
vn -0.7732 0.3228 0.5458
vn -0.7733 0.3228 0.5458
vn -0.8593 0.3228 -0.3968
vn -0.0860 0.3228 -0.9425
vn 0.7732 0.3228 -0.5458
vn -0.0860 0.3228 -0.9426
vn -0.3616 0.5060 0.7831
vn -0.8589 0.5060 0.0784
vn -0.7284 0.4530 0.5141
vn -0.8590 0.5060 0.0784
vn 0.7284 -0.4530 -0.5141
vn 0.8590 -0.5060 -0.0784
vn 0.3616 -0.5060 -0.7831
vn -0.0810 0.4530 -0.8878
vn 0.3616 0.5060 -0.7831
vn -0.4974 0.5060 -0.7047
vn -0.3616 -0.5060 0.7831
vn 0.0810 -0.4530 0.8878
vn 0.4974 -0.5060 0.7047
vn -0.8094 0.4530 -0.3737
vn -0.8094 0.4530 -0.3738
vn 0.8589 -0.5060 -0.0784
vn 0.8094 -0.4530 0.3737
vn 0.8094 -0.4530 0.3738
vn 0.4974 0.5060 0.7047
vn 0.0810 0.4530 0.8878
vn -0.4974 -0.5060 -0.7047
vn -0.0810 -0.4530 -0.8878
vn 0.8589 0.5060 -0.0784
vn 0.7284 0.4530 -0.5141
vn 0.8590 0.5060 -0.0784
vn -0.7284 -0.4530 0.5141
vn -0.8590 -0.5060 0.0784
vn 0.8094 0.4530 0.3738
vn 0.8094 0.4530 0.3737
vn 0.4974 0.5061 0.7047
vn 0.4973 0.5060 0.7047
vn -0.8589 -0.5060 0.0784
vn -0.8094 -0.4530 -0.3738
vn -0.8094 -0.4530 -0.3737
vn -0.0784 0.5060 -0.8589
vn 0.7047 0.5060 -0.4974
vn 0.3737 0.4530 -0.8094
vn -0.0784 0.5060 -0.8590
vn -0.3737 -0.4530 0.8094
vn -0.7047 -0.5060 0.4974
vn 0.0784 -0.5060 0.8589
vn 0.0784 -0.5060 0.8590
vn 0.7831 0.5060 0.3616
vn 0.5141 0.4530 0.7284
vn 0.0784 0.5060 0.8589
vn 0.0784 0.5060 0.8590
vn -0.7831 -0.5060 -0.3616
vn -0.5141 -0.4530 -0.7284
vn -0.0784 -0.5060 -0.8590
vn -0.0784 -0.5060 -0.8589
vn -0.7047 0.5060 0.4974
vn -0.7831 0.5060 -0.3616
vn -0.8878 0.4530 0.0810
vn 0.8878 -0.4530 -0.0810
vn 0.7831 -0.5060 0.3616
vn 0.7047 -0.5060 -0.4974
vn -0.5141 0.4530 -0.7284
vn -0.5141 0.4529 -0.7284
vn 0.5141 -0.4530 0.7284
vn -0.3737 0.4530 0.8094
vn 0.3737 -0.4530 -0.8094
vn 0.8878 0.4530 -0.0810
vn -0.8878 -0.4530 0.0810
vn 0.3616 0.5061 -0.7830
vn -0.0810 0.4529 -0.8878
vn 0.0810 -0.4529 0.8878
vn -0.8094 0.4529 -0.3738
vn 0.8094 -0.4529 0.3738
vn -0.8094 -0.4529 -0.3737
vn -0.7284 0.4529 0.5141
vn 0.7284 -0.4529 -0.5141
vn 0.0810 0.4529 0.8878
vn -0.3616 0.5061 0.7830
vn -0.0810 -0.4529 -0.8878
vt 0.593750 0.025000
vt 0.593750 0.104996
vt 0.593750 0.225000
vt 0.093750 0.475000
vt 0.093750 0.275000
vt 0.093750 0.425000
vt 0.093750 0.348778
vt 0.093750 0.338765
vt 0.093750 0.344099
vt 0.093750 0.375000
vt 0.093750 0.325000
s 0
usemtl colormap.018
f 3/1/1 2/1/1 1/1/1
f 2/1/1 3/1/1 4/1/1
f 4/1/1 3/1/1 5/1/1
f 4/1/1 5/1/1 6/1/1
f 6/1/1 5/1/1 7/1/1
f 6/1/1 7/1/1 8/1/1
f 9/2/2 1/1/3 2/1/4
f 1/1/3 9/2/5 10/2/6
f 11/2/7 1/1/8 10/2/9
f 1/1/8 11/2/10 3/1/11
f 12/2/12 2/1/13 4/1/14
f 2/1/13 12/2/12 9/2/15
f 13/2/16 4/1/17 6/1/18
f 4/1/17 13/2/19 12/2/20
f 7/1/21 14/2/22 8/1/23
f 14/2/22 7/1/21 15/2/24
f 11/2/25 5/1/26 3/1/27
f 5/1/26 11/2/25 16/2/28
f 8/1/29 13/2/30 6/1/31
f 13/2/32 8/1/29 14/2/33
f 7/1/34 16/2/35 15/2/36
f 16/2/35 7/1/34 5/1/37
f 14/2/38 18/3/39 17/3/40
f 18/3/41 14/2/38 15/2/42
f 16/2/43 18/3/44 15/2/45
f 18/3/41 16/2/46 19/3/47
f 21/3/48 9/2/49 20/3/50
f 9/2/49 21/3/48 10/2/51
f 22/3/52 12/2/53 13/2/54
f 12/2/53 22/3/55 23/3/56
f 21/3/57 11/2/58 10/2/59
f 11/2/58 21/3/60 24/3/61
f 13/2/54 17/3/62 22/3/63
f 17/3/64 13/2/54 14/2/65
f 20/3/50 12/2/66 23/3/67
f 12/2/68 20/3/69 9/2/70
f 24/3/71 16/2/72 11/2/58
f 16/2/72 24/3/73 19/3/74
f 27/4/75 26/4/75 25/4/75
f 26/4/75 27/4/75 28/4/75
f 26/4/75 28/4/75 29/4/75
f 29/4/75 28/4/75 30/4/75
f 29/4/75 30/4/75 31/4/75
f 31/4/75 30/4/75 32/4/75
f 35/5/1 34/5/1 33/5/1
f 34/5/1 35/5/1 36/5/1
f 34/5/1 36/5/1 37/5/1
f 37/5/1 36/5/1 38/5/1
f 37/5/1 38/5/1 39/5/1
f 39/5/1 38/5/1 40/5/1
f 27/4/76 33/5/77 34/5/78
f 33/5/79 27/4/76 25/4/80
f 29/4/81 38/5/82 36/5/81
f 38/5/82 29/4/81 31/4/83
f 40/5/84 31/4/85 32/4/84
f 31/4/85 40/5/86 38/5/87
f 28/4/88 34/5/89 37/5/88
f 34/5/89 28/4/88 27/4/90
f 26/4/91 36/5/92 35/5/93
f 36/5/81 26/4/93 29/4/94
f 30/4/95 37/5/88 39/5/96
f 37/5/97 30/4/95 28/4/98
f 26/4/99 33/5/80 25/4/79
f 33/5/79 26/4/99 35/5/99
f 40/5/84 30/4/100 39/5/100
f 30/4/100 40/5/101 32/4/84
f 43/6/102 42/7/103 41/7/102
f 42/7/103 43/6/102 44/6/103
f 47/6/104 46/7/105 45/7/104
f 46/7/105 47/6/106 48/6/105
f 50/6/107 45/7/106 49/7/107
f 45/7/106 50/6/107 47/6/106
f 48/6/105 41/7/102 46/7/105
f 41/7/102 48/6/105 43/6/102
f 52/7/108 44/6/103 51/6/108
f 44/6/109 52/7/108 42/7/109
f 52/7/108 50/6/107 49/7/107
f 50/6/107 52/7/108 51/6/108
f 41/7/1 45/7/1 46/7/1
f 45/7/1 41/7/1 42/7/1
f 45/7/1 42/7/1 49/7/1
f 49/7/1 42/7/1 52/7/1
f 55/6/110 54/8/111 53/8/112
f 54/8/113 55/6/114 56/6/115
f 59/8/116 58/6/117 57/6/118
f 58/6/119 59/8/116 60/8/120
f 63/6/121 62/8/122 61/8/123
f 62/8/124 63/6/121 64/6/125
f 64/6/126 53/8/127 62/8/122
f 53/8/112 64/6/126 55/6/128
f 64/6/129 56/6/130 55/6/131
f 56/6/130 64/6/129 58/6/132
f 58/6/132 64/6/129 63/6/133
f 58/6/132 63/6/133 57/6/134
f 59/8/135 63/6/121 61/8/123
f 63/6/136 59/8/137 57/6/138
f 54/8/1 62/8/1 53/8/1
f 62/8/1 54/8/1 60/8/1
f 62/8/1 60/8/1 61/8/1
f 61/8/1 60/8/1 59/8/1
f 56/6/139 60/8/140 54/8/111
f 60/8/140 56/6/139 58/6/119
f 67/6/141 66/9/142 65/9/141
f 66/9/142 67/6/141 68/6/143
f 70/6/144 65/9/141 69/9/145
f 65/9/141 70/6/145 67/6/141
f 68/6/142 71/9/146 66/9/142
f 71/9/146 68/6/143 72/6/147
f 72/6/147 73/9/148 71/9/147
f 73/9/148 72/6/147 74/6/148
f 71/9/1 65/9/1 66/9/1
f 65/9/1 71/9/1 69/9/1
f 69/9/1 71/9/1 73/9/1
f 69/9/1 73/9/1 75/9/1
f 76/6/149 69/9/150 75/9/149
f 69/9/150 76/6/151 70/6/145
f 73/9/148 76/6/149 75/9/149
f 76/6/149 73/9/148 74/6/148
f 79/10/152 78/10/153 77/11/154
f 78/10/155 79/10/152 41/6/152
f 78/10/155 41/6/152 42/6/155
f 77/11/156 78/10/157 79/10/158
f 41/6/158 79/10/158 78/10/157
f 42/6/157 41/6/158 78/10/157
f 81/11/159 49/6/160 80/10/160
f 49/6/160 81/11/159 52/6/161
f 52/6/161 81/11/159 82/10/161
f 80/10/162 49/6/162 81/11/163
f 52/6/164 81/11/163 49/6/162
f 82/10/164 81/11/163 52/6/164
f 82/10/161 42/6/155 52/6/161
f 42/6/155 82/10/161 83/11/165
f 42/6/153 83/11/166 78/10/155
f 52/6/164 42/6/167 82/10/164
f 83/11/168 82/10/164 42/6/167
f 78/10/167 83/11/169 42/6/167
f 46/6/170 85/11/171 84/10/170
f 85/11/171 46/6/170 41/6/152
f 85/11/171 41/6/152 79/10/152
f 84/10/172 85/11/173 46/6/172
f 41/6/158 46/6/172 85/11/173
f 79/10/158 41/6/158 85/11/173
f 80/10/160 87/10/174 86/11/175
f 87/10/176 80/10/160 49/6/160
f 87/10/176 49/6/160 45/6/176
f 86/11/177 87/10/178 80/10/162
f 49/6/162 80/10/162 87/10/178
f 45/6/178 49/6/162 87/10/178
f 45/6/174 88/11/179 87/10/176
f 88/11/180 45/6/176 46/6/181
f 88/11/179 46/6/182 84/10/170
f 87/10/183 88/11/184 45/6/183
f 46/6/172 45/6/183 88/11/185
f 84/10/172 46/6/172 88/11/185
f 91/10/186 90/10/187 89/11/188
f 90/10/187 91/10/189 75/6/189
f 90/10/187 75/6/186 69/6/187
f 89/11/190 90/10/191 91/10/192
f 75/6/193 91/10/193 90/10/191
f 69/6/191 75/6/192 90/10/191
f 65/6/194 93/11/195 92/10/194
f 93/11/195 65/6/194 66/6/196
f 93/11/195 66/6/196 94/10/197
f 92/10/198 93/11/199 65/6/198
f 66/6/200 65/6/198 93/11/199
f 94/10/200 66/6/201 93/11/199
f 97/10/202 96/10/203 95/11/204
f 96/10/203 97/10/202 71/6/202
f 96/10/203 71/6/202 73/6/203
f 95/11/205 96/10/206 97/10/207
f 71/6/207 97/10/207 96/10/206
f 73/6/206 71/6/207 96/10/206
f 98/11/208 75/6/186 91/10/189
f 75/6/186 98/11/208 73/6/203
f 73/6/203 98/11/209 96/10/203
f 91/10/193 75/6/192 98/11/210
f 73/6/206 98/11/210 75/6/193
f 96/10/206 98/11/210 73/6/206
f 94/10/196 97/10/202 99/11/211
f 97/10/202 94/10/197 66/6/197
f 97/10/202 66/6/197 71/6/202
f 99/11/212 97/10/207 94/10/200
f 66/6/200 94/10/200 97/10/207
f 71/6/207 66/6/201 97/10/207
f 90/10/187 92/10/194 100/11/213
f 92/10/194 90/10/187 69/6/187
f 92/10/194 69/6/187 65/6/194
f 100/11/214 92/10/198 90/10/191
f 69/6/191 90/10/191 92/10/198
f 65/6/198 69/6/191 92/10/198
f 102/11/159 61/6/215 101/10/160
f 61/6/160 102/11/216 59/6/161
f 59/6/161 102/11/159 103/10/161
f 101/10/162 61/6/162 102/11/163
f 59/6/164 102/11/217 61/6/162
f 103/10/164 102/11/163 59/6/164
f 103/10/161 60/6/155 59/6/161
f 60/6/155 103/10/161 104/11/218
f 60/6/153 104/11/165 105/10/155
f 59/6/164 60/6/167 103/10/164
f 104/11/219 103/10/164 60/6/157
f 105/10/167 104/11/168 60/6/167
f 62/6/174 107/11/180 106/10/176
f 107/11/179 62/6/176 53/6/170
f 107/11/180 53/6/170 108/10/170
f 106/10/183 107/11/184 62/6/183
f 53/6/172 62/6/178 107/11/184
f 108/10/172 53/6/172 107/11/220
f 110/10/152 105/10/153 109/11/221
f 105/10/153 110/10/152 54/6/152
f 105/10/155 54/6/152 60/6/155
f 109/11/222 105/10/157 110/10/158
f 54/6/158 110/10/158 105/10/157
f 60/6/157 54/6/158 105/10/157
f 101/10/160 106/10/174 111/11/175
f 106/10/176 101/10/160 61/6/160
f 106/10/176 61/6/160 62/6/176
f 111/11/177 106/10/178 101/10/162
f 61/6/162 101/10/162 106/10/178
f 62/6/178 61/6/162 106/10/178
f 53/6/170 112/11/223 108/10/170
f 112/11/223 53/6/170 54/6/152
f 112/11/171 54/6/224 110/10/152
f 108/10/172 112/11/173 53/6/172
f 54/6/158 53/6/172 112/11/225
f 110/10/158 54/6/158 112/11/173
f 3/1/1 2/1/1 1/1/1
f 2/1/1 3/1/1 4/1/1
f 4/1/1 3/1/1 5/1/1
f 4/1/1 5/1/1 6/1/1
f 6/1/1 5/1/1 7/1/1
f 6/1/1 7/1/1 8/1/1
f 9/2/2 1/1/3 2/1/4
f 1/1/3 9/2/5 10/2/6
f 11/2/7 1/1/8 10/2/9
f 1/1/8 11/2/10 3/1/11
f 12/2/12 2/1/13 4/1/14
f 2/1/13 12/2/12 9/2/15
f 13/2/16 4/1/17 6/1/18
f 4/1/17 13/2/19 12/2/20
f 7/1/21 14/2/22 8/1/23
f 14/2/22 7/1/21 15/2/24
f 11/2/25 5/1/26 3/1/27
f 5/1/26 11/2/25 16/2/28
f 8/1/29 13/2/30 6/1/31
f 13/2/32 8/1/29 14/2/33
f 7/1/34 16/2/35 15/2/36
f 16/2/35 7/1/34 5/1/37
f 14/2/38 18/3/39 17/3/40
f 18/3/41 14/2/38 15/2/42
f 16/2/43 18/3/44 15/2/45
f 18/3/41 16/2/46 19/3/47
f 21/3/48 9/2/49 20/3/50
f 9/2/49 21/3/48 10/2/51
f 22/3/52 12/2/53 13/2/54
f 12/2/53 22/3/55 23/3/56
f 21/3/57 11/2/58 10/2/59
f 11/2/58 21/3/60 24/3/61
f 13/2/54 17/3/62 22/3/63
f 17/3/64 13/2/54 14/2/65
f 20/3/50 12/2/66 23/3/67
f 12/2/68 20/3/69 9/2/70
f 24/3/71 16/2/72 11/2/58
f 16/2/72 24/3/73 19/3/74
f 27/4/75 26/4/75 25/4/75
f 26/4/75 27/4/75 28/4/75
f 26/4/75 28/4/75 29/4/75
f 29/4/75 28/4/75 30/4/75
f 29/4/75 30/4/75 31/4/75
f 31/4/75 30/4/75 32/4/75
f 35/5/1 34/5/1 33/5/1
f 34/5/1 35/5/1 36/5/1
f 34/5/1 36/5/1 37/5/1
f 37/5/1 36/5/1 38/5/1
f 37/5/1 38/5/1 39/5/1
f 39/5/1 38/5/1 40/5/1
f 27/4/76 33/5/77 34/5/78
f 33/5/79 27/4/76 25/4/80
f 29/4/81 38/5/82 36/5/81
f 38/5/82 29/4/81 31/4/83
f 40/5/84 31/4/85 32/4/84
f 31/4/85 40/5/86 38/5/87
f 28/4/88 34/5/89 37/5/88
f 34/5/89 28/4/88 27/4/90
f 26/4/91 36/5/92 35/5/93
f 36/5/81 26/4/93 29/4/94
f 30/4/95 37/5/88 39/5/96
f 37/5/97 30/4/95 28/4/98
f 26/4/99 33/5/80 25/4/79
f 33/5/79 26/4/99 35/5/99
f 40/5/84 30/4/100 39/5/100
f 30/4/100 40/5/101 32/4/84
f 43/6/102 42/7/103 41/7/102
f 42/7/103 43/6/102 44/6/103
f 47/6/104 46/7/105 45/7/104
f 46/7/105 47/6/106 48/6/105
f 50/6/107 45/7/106 49/7/107
f 45/7/106 50/6/107 47/6/106
f 48/6/105 41/7/102 46/7/105
f 41/7/102 48/6/105 43/6/102
f 52/7/108 44/6/103 51/6/108
f 44/6/109 52/7/108 42/7/109
f 52/7/108 50/6/107 49/7/107
f 50/6/107 52/7/108 51/6/108
f 41/7/1 45/7/1 46/7/1
f 45/7/1 41/7/1 42/7/1
f 45/7/1 42/7/1 49/7/1
f 49/7/1 42/7/1 52/7/1
f 55/6/110 54/8/111 53/8/112
f 54/8/113 55/6/114 56/6/115
f 59/8/116 58/6/117 57/6/118
f 58/6/119 59/8/116 60/8/120
f 63/6/121 62/8/122 61/8/123
f 62/8/124 63/6/121 64/6/125
f 64/6/126 53/8/127 62/8/122
f 53/8/112 64/6/126 55/6/128
f 64/6/129 56/6/130 55/6/131
f 56/6/130 64/6/129 58/6/132
f 58/6/132 64/6/129 63/6/133
f 58/6/132 63/6/133 57/6/134
f 59/8/135 63/6/121 61/8/123
f 63/6/136 59/8/137 57/6/138
f 54/8/1 62/8/1 53/8/1
f 62/8/1 54/8/1 60/8/1
f 62/8/1 60/8/1 61/8/1
f 61/8/1 60/8/1 59/8/1
f 56/6/139 60/8/140 54/8/111
f 60/8/140 56/6/139 58/6/119
f 67/6/141 66/9/142 65/9/141
f 66/9/142 67/6/141 68/6/143
f 70/6/144 65/9/141 69/9/145
f 65/9/141 70/6/145 67/6/141
f 68/6/142 71/9/146 66/9/142
f 71/9/146 68/6/143 72/6/147
f 72/6/147 73/9/148 71/9/147
f 73/9/148 72/6/147 74/6/148
f 71/9/1 65/9/1 66/9/1
f 65/9/1 71/9/1 69/9/1
f 69/9/1 71/9/1 73/9/1
f 69/9/1 73/9/1 75/9/1
f 76/6/149 69/9/150 75/9/149
f 69/9/150 76/6/151 70/6/145
f 73/9/148 76/6/149 75/9/149
f 76/6/149 73/9/148 74/6/148
f 79/10/152 78/10/153 77/11/154
f 78/10/155 79/10/152 41/6/152
f 78/10/155 41/6/152 42/6/155
f 77/11/156 78/10/157 79/10/158
f 41/6/158 79/10/158 78/10/157
f 42/6/157 41/6/158 78/10/157
f 81/11/159 49/6/160 80/10/160
f 49/6/160 81/11/159 52/6/161
f 52/6/161 81/11/159 82/10/161
f 80/10/162 49/6/162 81/11/163
f 52/6/164 81/11/163 49/6/162
f 82/10/164 81/11/163 52/6/164
f 82/10/161 42/6/155 52/6/161
f 42/6/155 82/10/161 83/11/165
f 42/6/153 83/11/166 78/10/155
f 52/6/164 42/6/167 82/10/164
f 83/11/168 82/10/164 42/6/167
f 78/10/167 83/11/169 42/6/167
f 46/6/170 85/11/171 84/10/170
f 85/11/171 46/6/170 41/6/152
f 85/11/171 41/6/152 79/10/152
f 84/10/172 85/11/173 46/6/172
f 41/6/158 46/6/172 85/11/173
f 79/10/158 41/6/158 85/11/173
f 80/10/160 87/10/174 86/11/175
f 87/10/176 80/10/160 49/6/160
f 87/10/176 49/6/160 45/6/176
f 86/11/177 87/10/178 80/10/162
f 49/6/162 80/10/162 87/10/178
f 45/6/178 49/6/162 87/10/178
f 45/6/174 88/11/179 87/10/176
f 88/11/180 45/6/176 46/6/181
f 88/11/179 46/6/182 84/10/170
f 87/10/183 88/11/184 45/6/183
f 46/6/172 45/6/183 88/11/185
f 84/10/172 46/6/172 88/11/185
f 91/10/186 90/10/187 89/11/188
f 90/10/187 91/10/189 75/6/189
f 90/10/187 75/6/186 69/6/187
f 89/11/190 90/10/191 91/10/192
f 75/6/193 91/10/193 90/10/191
f 69/6/191 75/6/192 90/10/191
f 65/6/194 93/11/195 92/10/194
f 93/11/195 65/6/194 66/6/196
f 93/11/195 66/6/196 94/10/197
f 92/10/198 93/11/199 65/6/198
f 66/6/200 65/6/198 93/11/199
f 94/10/200 66/6/201 93/11/199
f 97/10/202 96/10/203 95/11/204
f 96/10/203 97/10/202 71/6/202
f 96/10/203 71/6/202 73/6/203
f 95/11/205 96/10/206 97/10/207
f 71/6/207 97/10/207 96/10/206
f 73/6/206 71/6/207 96/10/206
f 98/11/208 75/6/186 91/10/189
f 75/6/186 98/11/208 73/6/203
f 73/6/203 98/11/209 96/10/203
f 91/10/193 75/6/192 98/11/210
f 73/6/206 98/11/210 75/6/193
f 96/10/206 98/11/210 73/6/206
f 94/10/196 97/10/202 99/11/211
f 97/10/202 94/10/197 66/6/197
f 97/10/202 66/6/197 71/6/202
f 99/11/212 97/10/207 94/10/200
f 66/6/200 94/10/200 97/10/207
f 71/6/207 66/6/201 97/10/207
f 90/10/187 92/10/194 100/11/213
f 92/10/194 90/10/187 69/6/187
f 92/10/194 69/6/187 65/6/194
f 100/11/214 92/10/198 90/10/191
f 69/6/191 90/10/191 92/10/198
f 65/6/198 69/6/191 92/10/198
f 102/11/159 61/6/215 101/10/160
f 61/6/160 102/11/216 59/6/161
f 59/6/161 102/11/159 103/10/161
f 101/10/162 61/6/162 102/11/163
f 59/6/164 102/11/217 61/6/162
f 103/10/164 102/11/163 59/6/164
f 103/10/161 60/6/155 59/6/161
f 60/6/155 103/10/161 104/11/218
f 60/6/153 104/11/165 105/10/155
f 59/6/164 60/6/167 103/10/164
f 104/11/219 103/10/164 60/6/157
f 105/10/167 104/11/168 60/6/167
f 62/6/174 107/11/180 106/10/176
f 107/11/179 62/6/176 53/6/170
f 107/11/180 53/6/170 108/10/170
f 106/10/183 107/11/184 62/6/183
f 53/6/172 62/6/178 107/11/184
f 108/10/172 53/6/172 107/11/220
f 110/10/152 105/10/153 109/11/221
f 105/10/153 110/10/152 54/6/152
f 105/10/155 54/6/152 60/6/155
f 109/11/222 105/10/157 110/10/158
f 54/6/158 110/10/158 105/10/157
f 60/6/157 54/6/158 105/10/157
f 101/10/160 106/10/174 111/11/175
f 106/10/176 101/10/160 61/6/160
f 106/10/176 61/6/160 62/6/176
f 111/11/177 106/10/178 101/10/162
f 61/6/162 101/10/162 106/10/178
f 62/6/178 61/6/162 106/10/178
f 53/6/170 112/11/223 108/10/170
f 112/11/223 53/6/170 54/6/152
f 112/11/171 54/6/224 110/10/152
f 108/10/172 112/11/173 53/6/172
f 54/6/158 53/6/172 112/11/225
f 110/10/158 54/6/158 112/11/173
