# Blender 4.1.1
# www.blender.org
mtllib brick-wall.004.mtl
o brick-wall.004
v 9.819297 0.182666 -15.877212
v 9.755807 0.182666 -15.877212
v 9.819297 0.182666 -18.327232
v 9.755807 0.182666 -18.327232
v 10.123521 1.387865 -18.327232
v 10.123521 1.387865 -15.877212
v 10.123521 1.632868 -18.327232
v 10.123521 1.632868 -15.877212
v 9.738657 -0.086837 -15.877212
v 10.179661 -0.086837 -15.877212
v 9.738657 -0.086837 -18.327232
v 10.179661 -0.086837 -18.327232
v 9.794796 1.632868 -15.877212
v 9.794796 1.632868 -18.327232
v 9.738657 0.133665 -15.877212
v 9.738657 0.133665 -18.327232
v 10.162510 0.182666 -15.877212
v 10.099020 0.182666 -15.877212
v 10.162510 0.182666 -18.327232
v 10.099020 0.182666 -18.327232
v 10.179661 0.133665 -18.327232
v 10.179661 0.133665 -15.877212
v 10.099020 1.387865 -15.877212
v 10.099020 1.387865 -18.327232
v 9.794796 1.387865 -15.877212
v 9.819297 1.387865 -15.877212
v 9.794796 1.387865 -18.327232
v 9.819297 1.387865 -18.327232
v 10.123521 1.387865 -18.327232
v 10.123521 1.632868 -18.327232
v 10.099020 1.387865 -18.327232
v 9.794796 1.632868 -18.327232
v 9.819297 1.387865 -18.327232
v 9.794796 1.387865 -18.327232
v 9.738657 -0.086837 -18.327232
v 10.162510 0.182666 -18.327232
v 10.099020 0.182666 -18.327232
v 9.819297 0.182666 -18.327232
v 9.755807 0.182666 -18.327232
v 9.738657 0.133665 -18.327232
v 10.123521 1.632868 -15.877212
v 10.123521 1.387865 -15.877212
v 9.794796 1.632868 -15.877212
v 10.099020 1.387865 -15.877212
v 9.819297 1.387865 -15.877212
v 9.794796 1.387865 -15.877212
v 9.738657 -0.086837 -15.877212
v 10.162510 0.182666 -15.877212
v 10.099020 0.182666 -15.877212
v 9.819297 0.182666 -15.877212
v 9.755807 0.182666 -15.877212
v 9.738657 0.133665 -15.877212
v 9.755807 0.404895 -17.723074
v 9.755807 0.404895 -18.068380
v 9.755807 0.576396 -17.723074
v 9.755807 0.576396 -18.068380
v 9.819297 0.404895 -17.723074
v 9.819297 0.404895 -18.068380
v 9.819297 0.576396 -17.723074
v 9.819297 0.576396 -18.068380
v 9.755807 0.649897 -17.478073
v 9.755807 0.649897 -17.823380
v 9.755807 0.821398 -17.478073
v 9.755807 0.821398 -17.823380
v 9.819297 0.649897 -17.478073
v 9.819297 0.649897 -17.823380
v 9.819297 0.821398 -17.478073
v 9.819297 0.821398 -17.823380
v 9.755807 0.894899 -16.008060
v 9.755807 0.894899 -16.353367
v 9.755807 1.066400 -16.008060
v 9.755807 1.066400 -16.353367
v 9.819297 0.894899 -16.008060
v 9.819297 0.894899 -16.353367
v 9.819297 1.066400 -16.008060
v 9.819297 1.066400 -16.353367
v 10.162510 0.522195 -17.888958
v 10.162510 0.522195 -17.543652
v 10.162510 0.693696 -17.888958
v 10.162510 0.693696 -17.543652
v 10.099020 0.522195 -17.888958
v 10.099020 0.522195 -17.543652
v 10.099020 0.693696 -17.888958
v 10.099020 0.693696 -17.543652
v 10.162510 1.012199 -17.643955
v 10.162510 1.012199 -17.298649
v 10.162510 1.183701 -17.643955
v 10.162510 1.183701 -17.298649
v 10.099020 1.012199 -17.643955
v 10.099020 1.012199 -17.298649
v 10.099020 1.183701 -17.643955
v 10.099020 1.183701 -17.298649
v 10.162510 0.522195 -16.663946
v 10.162510 0.522195 -16.318640
v 10.162510 0.693696 -16.663946
v 10.162510 0.693696 -16.318640
v 10.099020 0.522195 -16.663946
v 10.099020 0.522195 -16.318640
v 10.099020 0.693696 -16.663946
v 10.099020 0.693696 -16.318640
vn -0.0000 1.0000 -0.0000
vn 1.0000 -0.0000 -0.0000
vn -0.0000 -1.0000 -0.0000
vn -0.9439 0.3303 -0.0000
vn -0.9859 0.1676 -0.0000
vn 0.9439 0.3304 -0.0000
vn 0.9859 0.1676 -0.0000
vn -1.0000 -0.0000 -0.0000
vn 0.9859 0.1675 -0.0000
vn -0.9859 0.1675 -0.0000
vn -0.0000 -0.0000 -1.0000
vn -0.0000 0.0001 -1.0000
vn -0.0000 -0.0000 1.0000
vt 0.843750 0.056343
vt 0.843750 0.225000
vt 0.843750 0.196507
vt 0.843750 0.025000
vt 0.843750 0.050644
vt 0.343750 0.196507
vt 0.343750 0.056343
vt 0.281250 0.125000
s 0
usemtl colormap.083
f 3/1/1 2/1/1 1/1/1
f 2/1/1 3/1/1 4/1/1
f 7/2/2 6/3/2 5/3/2
f 6/3/2 7/2/2 8/2/2
f 11/4/3 10/4/3 9/4/3
f 10/4/3 11/4/3 12/4/3
f 7/2/1 13/2/1 8/2/1
f 13/2/1 7/2/1 14/2/1
f 2/1/4 16/5/5 15/5/5
f 16/5/5 2/1/4 4/1/4
f 19/1/1 18/1/1 17/1/1
f 18/1/1 19/1/1 20/1/1
f 19/1/6 22/5/7 21/5/7
f 22/5/7 19/1/6 17/1/6
f 24/3/3 6/3/3 23/3/3
f 6/3/3 24/3/3 5/3/3
f 27/3/3 26/3/3 25/3/3
f 26/3/3 27/3/3 28/3/3
f 13/2/8 27/3/8 25/3/8
f 27/3/8 13/2/8 14/2/8
f 21/5/9 10/4/2 12/4/2
f 10/4/2 21/5/9 22/5/9
f 15/5/10 11/4/8 9/4/8
f 11/4/8 15/5/10 16/5/10
f 31/3/11 30/2/11 29/3/11
f 30/2/11 31/3/11 32/2/11
f 32/2/11 31/3/11 33/3/11
f 32/2/11 33/3/11 34/3/11
f 35/4/11 21/5/11 12/4/11
f 21/5/11 35/4/11 36/1/11
f 36/1/12 35/4/12 37/1/12
f 37/1/11 35/4/11 38/1/11
f 38/1/11 35/4/11 39/1/11
f 39/1/11 35/4/11 40/5/11
f 43/2/13 42/3/13 41/2/13
f 42/3/13 43/2/13 44/3/13
f 44/3/13 43/2/13 45/3/13
f 45/3/13 43/2/13 46/3/13
f 22/5/13 47/4/13 10/4/13
f 47/4/13 22/5/13 48/1/13
f 47/4/13 48/1/13 49/1/13
f 47/4/13 49/1/13 50/1/13
f 47/4/13 50/1/13 51/1/13
f 47/4/13 51/1/13 52/5/13
f 26/6/8 3/7/8 1/7/8
f 3/7/8 26/6/8 28/6/8
f 24/6/2 18/7/2 20/7/2
f 18/7/2 24/6/2 23/6/2
f 20/7/11 28/6/11 24/6/11
f 28/6/11 20/7/11 3/7/11
f 26/6/13 18/7/13 23/6/13
f 18/7/13 26/6/13 1/7/13
f 55/8/8 54/8/8 53/8/8
f 54/8/8 55/8/8 56/8/8
f 54/8/3 57/8/3 53/8/3
f 57/8/3 54/8/3 58/8/3
f 55/8/13 57/8/13 59/8/13
f 57/8/13 55/8/13 53/8/13
f 60/8/1 55/8/1 59/8/1
f 55/8/1 60/8/1 56/8/1
f 54/8/11 60/8/11 58/8/11
f 60/8/11 54/8/11 56/8/11
f 63/8/8 62/8/8 61/8/8
f 62/8/8 63/8/8 64/8/8
f 62/8/3 65/8/3 61/8/3
f 65/8/3 62/8/3 66/8/3
f 63/8/13 65/8/13 67/8/13
f 65/8/13 63/8/13 61/8/13
f 68/8/1 63/8/1 67/8/1
f 63/8/1 68/8/1 64/8/1
f 62/8/11 68/8/11 66/8/11
f 68/8/11 62/8/11 64/8/11
f 71/8/8 70/8/8 69/8/8
f 70/8/8 71/8/8 72/8/8
f 70/8/3 73/8/3 69/8/3
f 73/8/3 70/8/3 74/8/3
f 71/8/13 73/8/13 75/8/13
f 73/8/13 71/8/13 69/8/13
f 76/8/1 71/8/1 75/8/1
f 71/8/1 76/8/1 72/8/1
f 70/8/11 76/8/11 74/8/11
f 76/8/11 70/8/11 72/8/11
f 79/8/2 78/8/2 77/8/2
f 78/8/2 79/8/2 80/8/2
f 78/8/3 81/8/3 77/8/3
f 81/8/3 78/8/3 82/8/3
f 79/8/11 81/8/11 83/8/11
f 81/8/11 79/8/11 77/8/11
f 84/8/1 79/8/1 83/8/1
f 79/8/1 84/8/1 80/8/1
f 78/8/13 84/8/13 82/8/13
f 84/8/13 78/8/13 80/8/13
f 87/8/2 86/8/2 85/8/2
f 86/8/2 87/8/2 88/8/2
f 86/8/3 89/8/3 85/8/3
f 89/8/3 86/8/3 90/8/3
f 87/8/11 89/8/11 91/8/11
f 89/8/11 87/8/11 85/8/11
f 92/8/1 87/8/1 91/8/1
f 87/8/1 92/8/1 88/8/1
f 86/8/13 92/8/13 90/8/13
f 92/8/13 86/8/13 88/8/13
f 95/8/2 94/8/2 93/8/2
f 94/8/2 95/8/2 96/8/2
f 94/8/3 97/8/3 93/8/3
f 97/8/3 94/8/3 98/8/3
f 95/8/11 97/8/11 99/8/11
f 97/8/11 95/8/11 93/8/11
f 100/8/1 95/8/1 99/8/1
f 95/8/1 100/8/1 96/8/1
f 94/8/13 100/8/13 98/8/13
f 100/8/13 94/8/13 96/8/13
f 3/1/1 2/1/1 1/1/1
f 2/1/1 3/1/1 4/1/1
f 7/2/2 6/3/2 5/3/2
f 6/3/2 7/2/2 8/2/2
f 11/4/3 10/4/3 9/4/3
f 10/4/3 11/4/3 12/4/3
f 7/2/1 13/2/1 8/2/1
f 13/2/1 7/2/1 14/2/1
f 2/1/4 16/5/5 15/5/5
f 16/5/5 2/1/4 4/1/4
f 19/1/1 18/1/1 17/1/1
f 18/1/1 19/1/1 20/1/1
f 19/1/6 22/5/7 21/5/7
f 22/5/7 19/1/6 17/1/6
f 24/3/3 6/3/3 23/3/3
f 6/3/3 24/3/3 5/3/3
f 27/3/3 26/3/3 25/3/3
f 26/3/3 27/3/3 28/3/3
f 13/2/8 27/3/8 25/3/8
f 27/3/8 13/2/8 14/2/8
f 21/5/9 10/4/2 12/4/2
f 10/4/2 21/5/9 22/5/9
f 15/5/10 11/4/8 9/4/8
f 11/4/8 15/5/10 16/5/10
f 31/3/11 30/2/11 29/3/11
f 30/2/11 31/3/11 32/2/11
f 32/2/11 31/3/11 33/3/11
f 32/2/11 33/3/11 34/3/11
f 35/4/11 21/5/11 12/4/11
f 21/5/11 35/4/11 36/1/11
f 36/1/12 35/4/12 37/1/12
f 37/1/11 35/4/11 38/1/11
f 38/1/11 35/4/11 39/1/11
f 39/1/11 35/4/11 40/5/11
f 43/2/13 42/3/13 41/2/13
f 42/3/13 43/2/13 44/3/13
f 44/3/13 43/2/13 45/3/13
f 45/3/13 43/2/13 46/3/13
f 22/5/13 47/4/13 10/4/13
f 47/4/13 22/5/13 48/1/13
f 47/4/13 48/1/13 49/1/13
f 47/4/13 49/1/13 50/1/13
f 47/4/13 50/1/13 51/1/13
f 47/4/13 51/1/13 52/5/13
f 26/6/8 3/7/8 1/7/8
f 3/7/8 26/6/8 28/6/8
f 24/6/2 18/7/2 20/7/2
f 18/7/2 24/6/2 23/6/2
f 20/7/11 28/6/11 24/6/11
f 28/6/11 20/7/11 3/7/11
f 26/6/13 18/7/13 23/6/13
f 18/7/13 26/6/13 1/7/13
f 55/8/8 54/8/8 53/8/8
f 54/8/8 55/8/8 56/8/8
f 54/8/3 57/8/3 53/8/3
f 57/8/3 54/8/3 58/8/3
f 55/8/13 57/8/13 59/8/13
f 57/8/13 55/8/13 53/8/13
f 60/8/1 55/8/1 59/8/1
f 55/8/1 60/8/1 56/8/1
f 54/8/11 60/8/11 58/8/11
f 60/8/11 54/8/11 56/8/11
f 63/8/8 62/8/8 61/8/8
f 62/8/8 63/8/8 64/8/8
f 62/8/3 65/8/3 61/8/3
f 65/8/3 62/8/3 66/8/3
f 63/8/13 65/8/13 67/8/13
f 65/8/13 63/8/13 61/8/13
f 68/8/1 63/8/1 67/8/1
f 63/8/1 68/8/1 64/8/1
f 62/8/11 68/8/11 66/8/11
f 68/8/11 62/8/11 64/8/11
f 71/8/8 70/8/8 69/8/8
f 70/8/8 71/8/8 72/8/8
f 70/8/3 73/8/3 69/8/3
f 73/8/3 70/8/3 74/8/3
f 71/8/13 73/8/13 75/8/13
f 73/8/13 71/8/13 69/8/13
f 76/8/1 71/8/1 75/8/1
f 71/8/1 76/8/1 72/8/1
f 70/8/11 76/8/11 74/8/11
f 76/8/11 70/8/11 72/8/11
f 79/8/2 78/8/2 77/8/2
f 78/8/2 79/8/2 80/8/2
f 78/8/3 81/8/3 77/8/3
f 81/8/3 78/8/3 82/8/3
f 79/8/11 81/8/11 83/8/11
f 81/8/11 79/8/11 77/8/11
f 84/8/1 79/8/1 83/8/1
f 79/8/1 84/8/1 80/8/1
f 78/8/13 84/8/13 82/8/13
f 84/8/13 78/8/13 80/8/13
f 87/8/2 86/8/2 85/8/2
f 86/8/2 87/8/2 88/8/2
f 86/8/3 89/8/3 85/8/3
f 89/8/3 86/8/3 90/8/3
f 87/8/11 89/8/11 91/8/11
f 89/8/11 87/8/11 85/8/11
f 92/8/1 87/8/1 91/8/1
f 87/8/1 92/8/1 88/8/1
f 86/8/13 92/8/13 90/8/13
f 92/8/13 86/8/13 88/8/13
f 95/8/2 94/8/2 93/8/2
f 94/8/2 95/8/2 96/8/2
f 94/8/3 97/8/3 93/8/3
f 97/8/3 94/8/3 98/8/3
f 95/8/11 97/8/11 99/8/11
f 97/8/11 95/8/11 93/8/11
f 100/8/1 95/8/1 99/8/1
f 95/8/1 100/8/1 96/8/1
f 94/8/13 100/8/13 98/8/13
f 100/8/13 94/8/13 96/8/13
