# Blender 4.1.1
# www.blender.org
mtllib brick-wall.019.mtl
o brick-wall.019
v 21.542444 0.182666 -11.146331
v 21.478954 0.182666 -11.146331
v 21.542444 0.182666 -13.596353
v 21.478954 0.182666 -13.596353
v 21.846668 1.387865 -13.596353
v 21.846668 1.387865 -11.146331
v 21.846668 1.632868 -13.596353
v 21.846668 1.632868 -11.146331
v 21.461803 -0.086837 -11.146331
v 21.902807 -0.086837 -11.146331
v 21.461803 -0.086837 -13.596353
v 21.902807 -0.086837 -13.596353
v 21.517944 1.632868 -11.146331
v 21.517944 1.632868 -13.596353
v 21.461803 0.133665 -11.146331
v 21.461803 0.133665 -13.596353
v 21.885658 0.182666 -11.146331
v 21.822168 0.182666 -11.146331
v 21.885658 0.182666 -13.596353
v 21.822168 0.182666 -13.596353
v 21.902807 0.133665 -13.596353
v 21.902807 0.133665 -11.146331
v 21.822168 1.387865 -11.146331
v 21.822168 1.387865 -13.596353
v 21.517944 1.387865 -11.146331
v 21.542444 1.387865 -11.146331
v 21.517944 1.387865 -13.596353
v 21.542444 1.387865 -13.596353
v 21.846668 1.387865 -13.596353
v 21.846668 1.632868 -13.596353
v 21.822168 1.387865 -13.596353
v 21.517944 1.632868 -13.596353
v 21.542444 1.387865 -13.596353
v 21.517944 1.387865 -13.596353
v 21.461803 -0.086837 -13.596353
v 21.885658 0.182666 -13.596353
v 21.822168 0.182666 -13.596353
v 21.542444 0.182666 -13.596353
v 21.478954 0.182666 -13.596353
v 21.461803 0.133665 -13.596353
v 21.846668 1.632868 -11.146331
v 21.846668 1.387865 -11.146331
v 21.517944 1.632868 -11.146331
v 21.822168 1.387865 -11.146331
v 21.542444 1.387865 -11.146331
v 21.517944 1.387865 -11.146331
v 21.461803 -0.086837 -11.146331
v 21.885658 0.182666 -11.146331
v 21.822168 0.182666 -11.146331
v 21.542444 0.182666 -11.146331
v 21.478954 0.182666 -11.146331
v 21.461803 0.133665 -11.146331
v 21.478954 0.404895 -12.992194
v 21.478954 0.404895 -13.337501
v 21.478954 0.576396 -12.992194
v 21.478954 0.576396 -13.337501
v 21.542444 0.404895 -12.992194
v 21.542444 0.404895 -13.337501
v 21.542444 0.576396 -12.992194
v 21.542444 0.576396 -13.337501
v 21.478954 0.649897 -12.747191
v 21.478954 0.649897 -13.092498
v 21.478954 0.821398 -12.747191
v 21.478954 0.821398 -13.092498
v 21.542444 0.649897 -12.747191
v 21.542444 0.649897 -13.092498
v 21.542444 0.821398 -12.747191
v 21.542444 0.821398 -13.092498
v 21.478954 0.894899 -11.277180
v 21.478954 0.894899 -11.622485
v 21.478954 1.066400 -11.277180
v 21.478954 1.066400 -11.622485
v 21.542444 0.894899 -11.277180
v 21.542444 0.894899 -11.622485
v 21.542444 1.066400 -11.277180
v 21.542444 1.066400 -11.622485
v 21.885658 0.522195 -13.158076
v 21.885658 0.522195 -12.812771
v 21.885658 0.693696 -13.158076
v 21.885658 0.693696 -12.812771
v 21.822168 0.522195 -13.158076
v 21.822168 0.522195 -12.812771
v 21.822168 0.693696 -13.158076
v 21.822168 0.693696 -12.812771
v 21.885658 1.012199 -12.913074
v 21.885658 1.012199 -12.567768
v 21.885658 1.183701 -12.913074
v 21.885658 1.183701 -12.567768
v 21.822168 1.012199 -12.913074
v 21.822168 1.012199 -12.567768
v 21.822168 1.183701 -12.913074
v 21.822168 1.183701 -12.567768
v 21.885658 0.522195 -11.933066
v 21.885658 0.522195 -11.587760
v 21.885658 0.693696 -11.933066
v 21.885658 0.693696 -11.587760
v 21.822168 0.522195 -11.933066
v 21.822168 0.522195 -11.587760
v 21.822168 0.693696 -11.933066
v 21.822168 0.693696 -11.587760
vn -0.0000 1.0000 -0.0000
vn 1.0000 -0.0000 -0.0000
vn -0.0000 -1.0000 -0.0000
vn -0.9439 0.3304 -0.0000
vn -0.9859 0.1676 -0.0000
vn 0.9439 0.3303 -0.0000
vn 0.9859 0.1675 -0.0000
vn -1.0000 -0.0000 -0.0000
vn -0.9859 0.1675 -0.0000
vn -0.0000 -0.0000 -1.0000
vn -0.0000 0.0001 -1.0000
vn -0.0000 -0.0000 1.0000
vt 0.843750 0.056343
vt 0.843750 0.225000
vt 0.843750 0.196507
vt 0.843750 0.025000
vt 0.843750 0.050644
vt 0.343750 0.196507
vt 0.343750 0.056343
vt 0.281250 0.125000
s 0
usemtl colormap.108
f 3/1/1 2/1/1 1/1/1
f 2/1/1 3/1/1 4/1/1
f 7/2/2 6/3/2 5/3/2
f 6/3/2 7/2/2 8/2/2
f 11/4/3 10/4/3 9/4/3
f 10/4/3 11/4/3 12/4/3
f 7/2/1 13/2/1 8/2/1
f 13/2/1 7/2/1 14/2/1
f 2/1/4 16/5/5 15/5/5
f 16/5/5 2/1/4 4/1/4
f 19/1/1 18/1/1 17/1/1
f 18/1/1 19/1/1 20/1/1
f 19/1/6 22/5/7 21/5/7
f 22/5/7 19/1/6 17/1/6
f 24/3/3 6/3/3 23/3/3
f 6/3/3 24/3/3 5/3/3
f 27/3/3 26/3/3 25/3/3
f 26/3/3 27/3/3 28/3/3
f 13/2/8 27/3/8 25/3/8
f 27/3/8 13/2/8 14/2/8
f 21/5/7 10/4/2 12/4/2
f 10/4/2 21/5/7 22/5/7
f 15/5/9 11/4/8 9/4/8
f 11/4/8 15/5/9 16/5/9
f 31/3/10 30/2/10 29/3/10
f 30/2/10 31/3/10 32/2/10
f 32/2/10 31/3/10 33/3/10
f 32/2/10 33/3/10 34/3/10
f 35/4/10 21/5/10 12/4/10
f 21/5/10 35/4/10 36/1/10
f 36/1/11 35/4/11 37/1/11
f 37/1/10 35/4/10 38/1/10
f 38/1/10 35/4/10 39/1/10
f 39/1/10 35/4/10 40/5/10
f 43/2/12 42/3/12 41/2/12
f 42/3/12 43/2/12 44/3/12
f 44/3/12 43/2/12 45/3/12
f 45/3/12 43/2/12 46/3/12
f 22/5/12 47/4/12 10/4/12
f 47/4/12 22/5/12 48/1/12
f 47/4/12 48/1/12 49/1/12
f 47/4/12 49/1/12 50/1/12
f 47/4/12 50/1/12 51/1/12
f 47/4/12 51/1/12 52/5/12
f 26/6/8 3/7/8 1/7/8
f 3/7/8 26/6/8 28/6/8
f 24/6/2 18/7/2 20/7/2
f 18/7/2 24/6/2 23/6/2
f 20/7/10 28/6/10 24/6/10
f 28/6/10 20/7/10 3/7/10
f 26/6/12 18/7/12 23/6/12
f 18/7/12 26/6/12 1/7/12
f 55/8/8 54/8/8 53/8/8
f 54/8/8 55/8/8 56/8/8
f 54/8/3 57/8/3 53/8/3
f 57/8/3 54/8/3 58/8/3
f 55/8/12 57/8/12 59/8/12
f 57/8/12 55/8/12 53/8/12
f 60/8/1 55/8/1 59/8/1
f 55/8/1 60/8/1 56/8/1
f 54/8/10 60/8/10 58/8/10
f 60/8/10 54/8/10 56/8/10
f 63/8/8 62/8/8 61/8/8
f 62/8/8 63/8/8 64/8/8
f 62/8/3 65/8/3 61/8/3
f 65/8/3 62/8/3 66/8/3
f 63/8/12 65/8/12 67/8/12
f 65/8/12 63/8/12 61/8/12
f 68/8/1 63/8/1 67/8/1
f 63/8/1 68/8/1 64/8/1
f 62/8/10 68/8/10 66/8/10
f 68/8/10 62/8/10 64/8/10
f 71/8/8 70/8/8 69/8/8
f 70/8/8 71/8/8 72/8/8
f 70/8/3 73/8/3 69/8/3
f 73/8/3 70/8/3 74/8/3
f 71/8/12 73/8/12 75/8/12
f 73/8/12 71/8/12 69/8/12
f 76/8/1 71/8/1 75/8/1
f 71/8/1 76/8/1 72/8/1
f 70/8/10 76/8/10 74/8/10
f 76/8/10 70/8/10 72/8/10
f 79/8/2 78/8/2 77/8/2
f 78/8/2 79/8/2 80/8/2
f 78/8/3 81/8/3 77/8/3
f 81/8/3 78/8/3 82/8/3
f 79/8/10 81/8/10 83/8/10
f 81/8/10 79/8/10 77/8/10
f 84/8/1 79/8/1 83/8/1
f 79/8/1 84/8/1 80/8/1
f 78/8/12 84/8/12 82/8/12
f 84/8/12 78/8/12 80/8/12
f 87/8/2 86/8/2 85/8/2
f 86/8/2 87/8/2 88/8/2
f 86/8/3 89/8/3 85/8/3
f 89/8/3 86/8/3 90/8/3
f 87/8/10 89/8/10 91/8/10
f 89/8/10 87/8/10 85/8/10
f 92/8/1 87/8/1 91/8/1
f 87/8/1 92/8/1 88/8/1
f 86/8/12 92/8/12 90/8/12
f 92/8/12 86/8/12 88/8/12
f 95/8/2 94/8/2 93/8/2
f 94/8/2 95/8/2 96/8/2
f 94/8/3 97/8/3 93/8/3
f 97/8/3 94/8/3 98/8/3
f 95/8/10 97/8/10 99/8/10
f 97/8/10 95/8/10 93/8/10
f 100/8/1 95/8/1 99/8/1
f 95/8/1 100/8/1 96/8/1
f 94/8/12 100/8/12 98/8/12
f 100/8/12 94/8/12 96/8/12
f 3/1/1 2/1/1 1/1/1
f 2/1/1 3/1/1 4/1/1
f 7/2/2 6/3/2 5/3/2
f 6/3/2 7/2/2 8/2/2
f 11/4/3 10/4/3 9/4/3
f 10/4/3 11/4/3 12/4/3
f 7/2/1 13/2/1 8/2/1
f 13/2/1 7/2/1 14/2/1
f 2/1/4 16/5/5 15/5/5
f 16/5/5 2/1/4 4/1/4
f 19/1/1 18/1/1 17/1/1
f 18/1/1 19/1/1 20/1/1
f 19/1/6 22/5/7 21/5/7
f 22/5/7 19/1/6 17/1/6
f 24/3/3 6/3/3 23/3/3
f 6/3/3 24/3/3 5/3/3
f 27/3/3 26/3/3 25/3/3
f 26/3/3 27/3/3 28/3/3
f 13/2/8 27/3/8 25/3/8
f 27/3/8 13/2/8 14/2/8
f 21/5/7 10/4/2 12/4/2
f 10/4/2 21/5/7 22/5/7
f 15/5/9 11/4/8 9/4/8
f 11/4/8 15/5/9 16/5/9
f 31/3/10 30/2/10 29/3/10
f 30/2/10 31/3/10 32/2/10
f 32/2/10 31/3/10 33/3/10
f 32/2/10 33/3/10 34/3/10
f 35/4/10 21/5/10 12/4/10
f 21/5/10 35/4/10 36/1/10
f 36/1/11 35/4/11 37/1/11
f 37/1/10 35/4/10 38/1/10
f 38/1/10 35/4/10 39/1/10
f 39/1/10 35/4/10 40/5/10
f 43/2/12 42/3/12 41/2/12
f 42/3/12 43/2/12 44/3/12
f 44/3/12 43/2/12 45/3/12
f 45/3/12 43/2/12 46/3/12
f 22/5/12 47/4/12 10/4/12
f 47/4/12 22/5/12 48/1/12
f 47/4/12 48/1/12 49/1/12
f 47/4/12 49/1/12 50/1/12
f 47/4/12 50/1/12 51/1/12
f 47/4/12 51/1/12 52/5/12
f 26/6/8 3/7/8 1/7/8
f 3/7/8 26/6/8 28/6/8
f 24/6/2 18/7/2 20/7/2
f 18/7/2 24/6/2 23/6/2
f 20/7/10 28/6/10 24/6/10
f 28/6/10 20/7/10 3/7/10
f 26/6/12 18/7/12 23/6/12
f 18/7/12 26/6/12 1/7/12
f 55/8/8 54/8/8 53/8/8
f 54/8/8 55/8/8 56/8/8
f 54/8/3 57/8/3 53/8/3
f 57/8/3 54/8/3 58/8/3
f 55/8/12 57/8/12 59/8/12
f 57/8/12 55/8/12 53/8/12
f 60/8/1 55/8/1 59/8/1
f 55/8/1 60/8/1 56/8/1
f 54/8/10 60/8/10 58/8/10
f 60/8/10 54/8/10 56/8/10
f 63/8/8 62/8/8 61/8/8
f 62/8/8 63/8/8 64/8/8
f 62/8/3 65/8/3 61/8/3
f 65/8/3 62/8/3 66/8/3
f 63/8/12 65/8/12 67/8/12
f 65/8/12 63/8/12 61/8/12
f 68/8/1 63/8/1 67/8/1
f 63/8/1 68/8/1 64/8/1
f 62/8/10 68/8/10 66/8/10
f 68/8/10 62/8/10 64/8/10
f 71/8/8 70/8/8 69/8/8
f 70/8/8 71/8/8 72/8/8
f 70/8/3 73/8/3 69/8/3
f 73/8/3 70/8/3 74/8/3
f 71/8/12 73/8/12 75/8/12
f 73/8/12 71/8/12 69/8/12
f 76/8/1 71/8/1 75/8/1
f 71/8/1 76/8/1 72/8/1
f 70/8/10 76/8/10 74/8/10
f 76/8/10 70/8/10 72/8/10
f 79/8/2 78/8/2 77/8/2
f 78/8/2 79/8/2 80/8/2
f 78/8/3 81/8/3 77/8/3
f 81/8/3 78/8/3 82/8/3
f 79/8/10 81/8/10 83/8/10
f 81/8/10 79/8/10 77/8/10
f 84/8/1 79/8/1 83/8/1
f 79/8/1 84/8/1 80/8/1
f 78/8/12 84/8/12 82/8/12
f 84/8/12 78/8/12 80/8/12
f 87/8/2 86/8/2 85/8/2
f 86/8/2 87/8/2 88/8/2
f 86/8/3 89/8/3 85/8/3
f 89/8/3 86/8/3 90/8/3
f 87/8/10 89/8/10 91/8/10
f 89/8/10 87/8/10 85/8/10
f 92/8/1 87/8/1 91/8/1
f 87/8/1 92/8/1 88/8/1
f 86/8/12 92/8/12 90/8/12
f 92/8/12 86/8/12 88/8/12
f 95/8/2 94/8/2 93/8/2
f 94/8/2 95/8/2 96/8/2
f 94/8/3 97/8/3 93/8/3
f 97/8/3 94/8/3 98/8/3
f 95/8/10 97/8/10 99/8/10
f 97/8/10 95/8/10 93/8/10
f 100/8/1 95/8/1 99/8/1
f 95/8/1 100/8/1 96/8/1
f 94/8/12 100/8/12 98/8/12
f 100/8/12 94/8/12 96/8/12
