# Blender 4.1.1
# www.blender.org
mtllib cliff_rock.mtl
o cliff_rock
v 0.558740 -0.672230 -0.971672
v 0.392074 -0.672230 -0.903172
v 0.558740 0.327770 -0.971672
v 0.392074 0.327770 -0.903172
v 1.225407 -0.672230 -0.971672
v 1.058740 -0.672230 -0.903172
v 1.225407 0.327770 -0.971672
v 1.058740 0.327770 -0.903172
v 0.892074 -0.672230 -0.971672
v 0.892074 0.327770 -0.971672
v 0.392074 -0.672230 -1.071672
v 1.392074 -0.672230 -1.071672
v 0.392074 0.327770 -1.071672
v 1.392074 0.327770 -1.071672
v 1.392074 -0.672230 -0.903172
v 0.725407 -0.672230 -0.903172
v 0.725407 0.327770 -0.903172
v 1.392074 0.327770 -0.903172
vn 0.3801 -0.0000 0.9249
vn -0.3801 -0.0000 0.9249
vn -0.0000 -0.0000 -1.0000
vn -0.0000 -1.0000 -0.0000
vn -1.0000 -0.0000 -0.0000
vn -0.0000 1.0000 -0.0000
vn 1.0000 -0.0000 -0.0000
vt -6.151614 39.370079
vt -13.245880 -0.000000
vt -6.151614 -0.000000
vt -13.245880 39.370079
vt 18.124680 39.370079
vt 11.030410 -0.000000
vt 18.124680 -0.000000
vt 11.030410 39.370079
vt 1.107733 39.370079
vt -5.986535 0.000000
vt 1.107733 -0.000000
vt -5.986535 39.370079
vt 19.685040 39.370079
vt -19.685040 -0.000000
vt 19.685040 -0.000000
vt -19.685040 39.370079
vt 13.123360 -15.748030
vt 19.685040 -19.685040
vt 19.685040 -13.051180
vt -19.685040 -19.685040
vt -0.000000 -15.748030
vt 6.561680 -13.051180
vt -6.561680 -13.051180
vt -13.123360 -15.748030
vt -19.685040 -13.051180
vt 5.986535 0.000000
vt -1.107733 39.370079
vt -1.107733 -0.000000
vt 5.986535 39.370079
vt 13.245880 39.370079
vt 6.151614 -0.000000
vt 13.245880 -0.000000
vt 6.151614 39.370079
vt -13.051180 -0.000000
vt -19.685040 0.000000
vt -13.051180 39.370079
vt 0.000000 -15.748030
vt 13.051180 39.370079
vt 19.685040 0.000000
vt 13.051180 0.000000
vt -11.030410 39.370079
vt -18.124680 -0.000000
vt -11.030410 -0.000000
vt -18.124680 39.370079
s 0
usemtl dirt.020
f 3/1/1 2/2/1 1/3/1
f 2/2/1 3/1/1 4/4/1
f 7/5/1 6/6/1 5/7/1
f 6/6/1 7/5/1 8/8/1
f 8/9/2 9/10/2 6/11/2
f 9/10/2 8/9/2 10/12/2
f 13/13/3 12/14/3 11/15/3
f 12/14/3 13/13/3 14/16/3
f 5/17/4 12/18/4 15/19/4
f 12/18/4 5/17/4 11/20/4
f 11/20/4 5/17/4 9/21/4
f 9/21/4 5/17/4 6/22/4
f 11/20/4 9/21/4 16/23/4
f 11/20/4 16/23/4 1/24/4
f 11/20/4 1/24/4 2/25/4
f 9/26/1 17/27/1 16/28/1
f 17/27/1 9/26/1 10/29/1
f 18/30/2 5/31/2 15/32/2
f 5/31/2 18/30/2 7/33/2
f 2/34/5 13/16/5 11/35/5
f 13/16/5 2/34/5 4/36/5
f 14/20/6 7/24/6 18/25/6
f 7/24/6 14/20/6 13/18/6
f 7/24/6 13/18/6 10/37/6
f 7/24/6 10/37/6 8/23/6
f 10/37/6 13/18/6 17/22/6
f 17/22/6 13/18/6 3/17/6
f 3/17/6 13/18/6 4/19/6
f 18/38/7 12/39/7 14/13/7
f 12/39/7 18/38/7 15/40/7
f 17/41/2 1/42/2 16/43/2
f 1/42/2 17/41/2 3/44/2
