# Blender 4.1.1
# www.blender.org
mtllib cliff_waterfall_rock.mtl
o cliff_waterfall_rock
v -0.310434 0.180221 -0.872516
v 0.689566 0.180221 -0.872516
v -0.310434 1.180221 -0.872516
v 0.689566 1.180221 -0.872516
v -0.310434 0.180221 -0.704016
v -0.310434 1.180221 -0.704016
v 0.689566 1.180221 -0.704016
v 0.522900 1.180221 -0.772516
v 0.439566 1.180221 -0.738266
v -0.060434 1.180221 -0.738266
v -0.143767 1.180221 -0.772516
v 0.522900 0.180221 -0.772516
v 0.689566 0.180221 -0.704016
v 0.439566 0.180221 -0.738266
v 0.189566 0.180221 -0.772516
v 0.272900 0.180221 -0.738266
v 0.106233 0.180221 -0.738266
v -0.060434 0.180221 -0.738266
v -0.143767 0.180221 -0.772516
vn -0.0000 -0.0000 -1.0000
vn -1.0000 -0.0000 -0.0000
vn -0.0000 1.0000 -0.0000
vn -0.0000 -1.0000 -0.0000
vn -0.3801 -0.0000 0.9249
vn 0.3801 -0.0000 0.9249
vn 1.0000 -0.0000 -0.0000
vn -0.0000 -0.0000 1.0000
vt 19.685040 39.370079
vt -19.685040 -0.000000
vt 19.685040 -0.000000
vt -19.685040 39.370079
vt -13.051180 -0.000000
vt -19.685040 0.000000
vt -13.051180 39.370079
vt -19.685040 -19.685040
vt -13.123360 -15.748030
vt -19.685040 -13.051180
vt 19.685040 -19.685040
vt -9.842520 -14.399610
vt 9.842520 -14.399610
vt 13.123360 -15.748030
vt 19.685040 -13.051180
vt 0.000000 -15.748030
vt 3.280840 -14.399610
vt -3.280840 -14.399610
vt -14.577550 39.370079
vt -18.124680 -0.000000
vt -14.577550 -0.000000
vt -18.124680 39.370079
vt -6.151614 39.370079
vt -13.245880 -0.000000
vt -6.151614 -0.000000
vt -13.245880 39.370079
vt 18.124680 39.370079
vt 14.577550 -0.000000
vt 18.124680 -0.000000
vt 14.577550 39.370079
vt 13.051180 39.370079
vt 19.685040 0.000000
vt 13.051180 0.000000
vt 13.245880 39.370079
vt 6.151614 -0.000000
vt 13.245880 -0.000000
vt 6.151614 39.370079
vt 9.842520 39.370079
vt 3.280840 -0.000000
vt 9.842520 -0.000000
vt -3.280840 -0.000000
vt -9.842520 39.370079
vt -9.842520 -0.000000
s 0
usemtl dirt.026
f 3/1/1 2/2/1 1/3/1
f 2/2/1 3/1/1 4/4/1
f 5/5/2 3/4/2 1/6/2
f 3/4/2 5/5/2 6/7/2
f 4/8/3 8/9/3 7/10/3
f 8/9/3 4/8/3 3/11/3
f 8/9/3 3/11/3 9/12/3
f 9/12/3 3/11/3 10/13/3
f 10/13/3 3/11/3 11/14/3
f 11/14/3 3/11/3 6/15/3
f 2/11/4 12/14/4 1/8/4
f 12/14/4 2/11/4 13/15/4
f 1/8/4 12/14/4 14/13/4
f 1/8/4 14/13/4 15/16/4
f 15/16/4 14/13/4 16/17/4
f 1/8/4 15/16/4 17/18/4
f 1/8/4 17/18/4 18/12/4
f 1/8/4 18/12/4 19/9/4
f 1/8/4 19/9/4 5/10/4
f 10/19/5 19/20/5 18/21/5
f 19/20/5 10/19/5 11/22/5
f 11/23/6 5/24/6 19/25/6
f 5/24/6 11/23/6 6/26/6
f 8/27/6 14/28/6 12/29/6
f 14/28/6 8/27/6 9/30/6
f 7/31/7 2/32/7 4/1/7
f 2/32/7 7/31/7 13/33/7
f 7/34/5 12/35/5 13/36/5
f 12/35/5 7/34/5 8/37/5
usemtl water
f 9/38/8 16/39/8 14/40/8
f 16/39/8 9/38/8 17/41/8
f 17/41/8 9/38/8 10/42/8
f 10/42/8 18/43/8 17/41/8
usemtl _defaultMat.003
f 17/20/4 15/19/4 16/22/4
