# Blender 4.1.1
# www.blender.org
mtllib crypt-large.mtl
o crypt-large
v 13.494810 -0.064042 -3.242888
v 13.720674 -0.064042 -3.242888
v 13.449638 -0.064042 -3.288061
v 13.720674 -0.064042 -3.378406
v 13.449638 -0.064042 -3.513923
v 16.973085 -0.064042 -3.378405
v 17.244122 -0.064042 -3.513923
v 13.585155 -0.064042 -3.513923
v 17.244122 -0.064042 -3.288061
v 17.198948 -0.064042 -3.242888
v 16.973085 -0.064042 -3.242888
v 17.108604 -0.064042 -3.513923
v 13.811018 -0.064042 -3.604268
v 13.585155 -0.064042 -3.694612
v 13.811018 -0.064042 -3.694612
v 16.882742 -0.064042 -3.604267
v 17.108604 -0.064042 -4.959440
v 16.882742 -0.064042 -4.869095
v 13.585155 -0.064042 -4.959440
v 13.811018 -0.064042 -4.869095
v 13.811018 -0.064042 -4.778750
v 13.585155 -0.064042 -4.778750
v 13.720674 -0.064042 -5.094957
v 17.244122 -0.064042 -4.959440
v 16.973085 -0.064042 -5.094956
v 17.244122 -0.064042 -5.185302
v 16.973085 -0.064042 -5.230474
v 17.198948 -0.064042 -5.230474
v 13.449638 -0.064042 -5.185302
v 13.449638 -0.064042 -4.959440
v 13.720674 -0.064042 -5.230474
v 13.494810 -0.064042 -5.230474
v 17.153776 1.742854 -3.333233
v 17.153776 0.658716 -3.333233
v 16.973085 1.742854 -3.333233
v 16.973085 0.658716 -3.333233
v 13.539983 0.658716 -3.333233
v 13.539983 0.658716 -3.513923
v 13.539983 1.742854 -3.333233
v 13.539983 1.742854 -3.513923
v 13.720674 0.658716 -5.140130
v 13.720674 1.742854 -5.140130
v 13.539983 0.658716 -5.140130
v 13.539983 1.742854 -5.140130
v 17.153776 0.658716 -5.140129
v 17.153776 0.658716 -4.959440
v 17.153776 1.742854 -5.140129
v 17.153776 1.742854 -4.959440
v 13.539983 0.658716 -4.959440
v 13.539983 1.742854 -4.959440
v 13.585155 0.297337 -3.513923
v 13.449638 0.658716 -3.513923
v 13.630328 1.742854 -3.513923
v 13.630328 0.297337 -3.513923
v 13.630328 1.742854 -4.959440
v 13.630328 0.297337 -4.959440
v 13.585155 0.297337 -4.959440
v 13.449638 0.658716 -4.959440
v 16.973085 0.658716 -3.242888
v 16.973085 0.297337 -3.378405
v 16.973085 0.297337 -3.423578
v 16.973085 1.742854 -3.423578
v 13.720674 0.297337 -3.423578
v 13.720674 0.297337 -3.378406
v 13.720674 1.742854 -3.423578
v 13.720674 0.658716 -3.333233
v 13.720674 1.742854 -3.333233
v 13.720674 0.658716 -3.242888
v 17.153776 0.658716 -3.513923
v 17.153776 1.742854 -3.513923
v 17.063431 1.742854 -4.959440
v 17.108604 0.297337 -4.959440
v 17.063431 0.297337 -4.959440
v 17.244122 0.658716 -4.959440
v 17.244122 0.658716 -3.513923
v 17.108604 0.297337 -3.513923
v 17.063431 1.742854 -3.513923
v 17.063431 0.297337 -3.513923
v 16.973085 0.658716 -5.140129
v 16.973085 1.742854 -5.140129
v 16.973085 0.297337 -5.049785
v 16.973085 0.297337 -5.094956
v 16.973085 1.742854 -5.049785
v 16.973085 0.658716 -5.230474
v 13.720674 0.658716 -5.230474
v 13.720674 0.297337 -5.094957
v 13.720674 0.297337 -5.049785
v 13.720674 1.742854 -5.049785
v 13.585155 0.297337 -3.694612
v 13.630328 0.297337 -3.694612
v 13.494810 0.658716 -3.242888
v 13.449638 0.658716 -3.288061
v 13.494810 0.658716 -5.230474
v 13.449638 0.658716 -5.185302
v 17.244122 0.658716 -5.185302
v 17.244122 0.658716 -3.288061
v 17.198948 0.658716 -3.242888
v 17.198948 0.658716 -5.230474
v 16.882742 1.742854 -3.604267
v 13.811018 1.742854 -3.604268
v 16.882742 1.742854 -4.869095
v 13.811018 1.742854 -4.869095
v 13.811018 0.297337 -4.778750
v 13.811018 1.562164 -4.778750
v 13.811018 1.562164 -3.694612
v 13.811018 0.297337 -3.694612
v 13.630328 0.297337 -4.778750
v 13.585155 0.297337 -4.778750
v 13.630328 1.562164 -3.694612
v 13.630328 1.562164 -4.778750
v 14.352937 0.680864 -3.376754
v 14.098272 0.680863 -3.376754
v 14.352937 0.807346 -3.376754
v 14.098272 0.807346 -3.376754
v 14.352937 0.680864 -3.423578
v 14.098272 0.680863 -3.423578
v 14.352937 0.807346 -3.423578
v 14.098272 0.807346 -3.423578
v 14.533626 0.861553 -3.376754
v 14.278962 0.861553 -3.376754
v 14.533626 0.988036 -3.376754
v 14.278962 0.988036 -3.376754
v 14.533626 0.861553 -3.423578
v 14.278962 0.861553 -3.423578
v 14.533626 0.988036 -3.423578
v 14.278962 0.988036 -3.423578
v 16.159832 1.403622 -3.376754
v 15.905169 1.403622 -3.376754
v 16.159832 1.530105 -3.376754
v 15.905169 1.530105 -3.376754
v 16.159832 1.403622 -3.423578
v 15.905169 1.403622 -3.423578
v 16.159832 1.530105 -3.423578
v 15.905169 1.530105 -3.423578
v 15.979143 0.680864 -3.376754
v 15.724479 0.680864 -3.376754
v 15.979143 0.807346 -3.376754
v 15.724479 0.807346 -3.376754
v 15.979143 0.680864 -3.423578
v 15.724479 0.680864 -3.423578
v 15.979143 0.807346 -3.423578
v 15.724479 0.807346 -3.423578
v 16.521212 0.500174 -3.376754
v 16.266548 0.500174 -3.376754
v 16.521212 0.626657 -3.376754
v 16.266548 0.626657 -3.376754
v 16.521212 0.500174 -3.423578
v 16.266548 0.500174 -3.423578
v 16.521212 0.626657 -3.423578
v 16.266548 0.626657 -3.423578
v 14.091194 1.040109 -5.096608
v 14.345859 1.040109 -5.096608
v 14.091194 1.166592 -5.096608
v 14.345859 1.166592 -5.096608
v 14.091194 1.040109 -5.049785
v 14.345859 1.040109 -5.049785
v 14.091194 1.166592 -5.049785
v 14.345859 1.166592 -5.049785
v 16.259470 0.859420 -5.096608
v 16.514133 0.859420 -5.096608
v 16.259470 0.985902 -5.096608
v 16.514133 0.985902 -5.096608
v 16.259470 0.859420 -5.049785
v 16.514133 0.859420 -5.049785
v 16.259470 0.985902 -5.049785
v 16.514133 0.985902 -5.049785
v 14.633263 1.220799 -5.096608
v 14.887925 1.220799 -5.096608
v 14.633263 1.347282 -5.096608
v 14.887925 1.347282 -5.096608
v 14.633263 1.220799 -5.049785
v 14.887925 1.220799 -5.049785
v 14.633263 1.347282 -5.049785
v 14.887925 1.347282 -5.049785
v 16.440159 0.678730 -5.096608
v 16.694822 0.678730 -5.096608
v 16.440159 0.805213 -5.096608
v 16.694822 0.805213 -5.096608
v 16.440159 0.678730 -5.049785
v 16.694822 0.678730 -5.049785
v 16.440159 0.805213 -5.049785
v 16.694822 0.805213 -5.049785
v 17.110254 0.663591 -4.143869
v 17.110254 0.663591 -3.889205
v 17.110254 0.790073 -4.143869
v 17.110254 0.790073 -3.889205
v 17.063431 0.663591 -4.143869
v 17.063431 0.663591 -3.889205
v 17.063431 0.790073 -4.143869
v 17.063431 0.790073 -3.889205
vn -0.0000 -1.0000 -0.0000
vn -0.0000 -0.9998 -0.0196
vn -0.0000 -0.9998 -0.0197
vn -0.0000 -0.0000 1.0000
vn -1.0000 -0.0000 -0.0000
vn -0.0000 -0.0000 -1.0000
vn 1.0000 -0.0000 -0.0000
vn -0.0000 0.7071 0.7071
vn -0.0000 1.0000 -0.0000
vn 0.0001 0.7071 0.7071
vn 0.7071 0.7071 -0.0000
vn -0.0001 0.7071 -0.7071
vn -0.0000 0.7071 -0.7071
vn 0.0001 0.7071 -0.7071
vn -0.7071 0.7071 -0.0000
vn -0.3827 -0.0000 0.9239
vn -0.9239 -0.0000 0.3827
vn -0.3827 -0.0000 -0.9239
vn -0.9239 -0.0000 -0.3827
vn 0.9239 -0.0000 -0.3827
vn 0.9239 -0.0000 0.3827
vn 0.3827 -0.0000 0.9239
vn 0.3827 -0.0000 -0.9239
vn 0.3827 -0.9239 -0.0000
vn -0.3827 -0.9239 -0.0000
vn 0.2706 -0.9239 -0.2706
vn 1.0000 -0.0000 0.0001
vn 1.0000 -0.0000 -0.0001
vt 0.968750 0.025000
vt 0.843750 0.225000
vt 0.843750 0.105000
vt 0.843750 0.025000
vt 0.843750 0.065000
vt 0.843750 0.205000
vt 0.093750 0.065000
vt 0.093750 0.225000
vt 0.093750 0.205000
vt 0.031250 0.125000
s 0
usemtl colormap
f 3/1/1 2/1/1 1/1/1
f 2/1/1 3/1/1 4/1/1
f 4/1/1 3/1/1 5/1/1
f 4/1/1 5/1/1 6/1/1
f 7/1/1 6/1/1 5/1/1
f 7/1/2 5/1/3 8/1/3
f 9/1/1 6/1/1 7/1/1
f 10/1/1 6/1/1 9/1/1
f 6/1/1 10/1/1 11/1/1
f 7/1/4 8/1/4 12/1/4
f 8/1/1 13/1/1 12/1/1
f 13/1/1 8/1/1 14/1/1
f 13/1/1 14/1/1 15/1/1
f 16/1/1 12/1/1 13/1/1
f 12/1/1 16/1/1 17/1/1
f 17/1/1 16/1/1 18/1/1
f 17/1/1 18/1/1 19/1/1
f 20/1/1 19/1/1 18/1/1
f 21/1/1 19/1/1 20/1/1
f 19/1/1 21/1/1 22/1/1
f 19/1/1 23/1/1 17/1/1
f 17/1/1 23/1/1 24/1/1
f 25/1/1 24/1/1 23/1/1
f 24/1/1 25/1/1 26/1/1
f 26/1/1 25/1/1 27/1/1
f 26/1/1 27/1/1 28/1/1
f 19/1/1 29/1/1 23/1/1
f 29/1/1 19/1/1 30/1/1
f 23/1/1 29/1/1 31/1/1
f 31/1/1 29/1/1 32/1/1
f 35/2/4 34/3/4 33/2/4
f 34/3/4 35/2/4 36/3/4
f 39/2/5 38/3/5 37/3/5
f 38/3/5 39/2/5 40/2/5
f 43/3/6 42/2/6 41/3/6
f 42/2/6 43/3/6 44/2/6
f 47/2/7 46/3/7 45/3/7
f 46/3/7 47/2/7 48/2/7
f 50/2/5 43/3/5 49/3/5
f 43/3/5 50/2/5 44/2/5
f 5/4/6 51/5/6 8/4/6
f 51/5/6 5/4/6 38/3/6
f 38/3/6 5/4/6 52/3/6
f 40/2/6 51/5/6 38/3/6
f 53/2/6 51/5/6 40/2/6
f 51/5/6 53/2/6 54/5/6
f 50/2/4 56/5/4 55/2/4
f 56/5/4 50/2/4 57/5/4
f 57/5/4 50/2/4 19/4/4
f 19/4/4 50/2/4 49/3/4
f 19/4/4 49/3/4 30/4/4
f 30/4/4 49/3/4 58/3/4
f 59/3/5 6/4/5 11/4/5
f 6/4/5 59/3/5 60/5/5
f 60/5/5 59/3/5 61/5/5
f 61/5/5 59/3/5 36/3/5
f 61/5/5 36/3/5 62/2/5
f 62/2/5 36/3/5 35/2/5
f 65/2/7 64/5/7 63/5/7
f 64/5/7 65/2/7 66/3/7
f 66/3/7 65/2/7 67/2/7
f 68/3/7 64/5/7 66/3/7
f 2/4/7 64/5/7 68/3/7
f 64/5/7 2/4/7 4/4/7
f 70/2/7 34/3/7 69/3/7
f 34/3/7 70/2/7 33/2/7
f 71/2/4 46/3/4 48/2/4
f 46/3/4 71/2/4 72/5/4
f 72/5/4 71/2/4 73/5/4
f 17/4/4 46/3/4 72/5/4
f 24/4/4 46/3/4 17/4/4
f 46/3/4 24/4/4 74/3/4
f 12/4/6 75/3/6 7/4/6
f 75/3/6 12/4/6 69/3/6
f 69/3/6 12/4/6 70/2/6
f 70/2/6 12/4/6 76/5/6
f 70/2/6 76/5/6 77/2/6
f 77/2/6 76/5/6 78/5/6
f 79/3/6 47/2/6 45/3/6
f 47/2/6 79/3/6 80/2/6
f 83/2/5 82/5/5 81/5/5
f 82/5/5 83/2/5 79/3/5
f 79/3/5 83/2/5 80/2/5
f 84/3/5 82/5/5 79/3/5
f 27/4/5 82/5/5 84/3/5
f 82/5/5 27/4/5 25/4/5
f 85/3/7 23/4/7 31/4/7
f 23/4/7 85/3/7 86/5/7
f 86/5/7 85/3/7 87/5/7
f 87/5/7 85/3/7 41/3/7
f 87/5/7 41/3/7 88/2/7
f 88/2/7 41/3/7 42/2/7
f 64/5/8 6/4/4 60/5/8
f 6/4/4 64/5/8 4/4/4
f 61/5/9 64/5/8 60/5/8
f 64/5/10 61/5/9 63/5/9
f 72/5/11 12/4/7 17/4/7
f 12/4/7 72/5/11 76/5/11
f 72/5/11 78/5/9 76/5/11
f 78/5/9 72/5/11 73/5/9
f 25/4/6 86/5/12 82/5/13
f 86/5/14 25/4/6 23/4/6
f 82/5/12 87/5/9 81/5/9
f 87/5/9 82/5/13 86/5/13
f 51/5/15 14/4/5 8/4/5
f 14/4/5 51/5/15 89/5/15
f 90/5/9 51/5/15 54/5/9
f 51/5/15 90/5/9 89/5/15
f 39/2/4 66/3/4 67/2/4
f 66/3/4 39/2/4 37/3/4
f 91/3/16 2/4/4 68/3/4
f 2/4/4 91/3/16 1/4/16
f 66/3/9 91/3/9 68/3/9
f 91/3/9 66/3/9 92/3/9
f 92/3/9 66/3/9 37/3/9
f 92/3/9 37/3/9 52/3/9
f 52/3/9 37/3/9 38/3/9
f 92/3/17 5/4/5 3/4/17
f 5/4/5 92/3/17 52/3/5
f 32/4/18 85/3/6 31/4/6
f 85/3/6 32/4/18 93/3/18
f 58/3/5 29/4/19 30/4/5
f 29/4/19 58/3/5 94/3/19
f 85/3/9 43/3/9 41/3/9
f 43/3/9 85/3/9 94/3/9
f 94/3/9 85/3/9 93/3/9
f 58/3/9 43/3/9 94/3/9
f 43/3/9 58/3/9 49/3/9
f 95/3/20 24/4/7 26/4/20
f 24/4/7 95/3/20 74/3/7
f 75/3/7 9/4/21 7/4/7
f 9/4/21 75/3/7 96/3/21
f 34/3/9 75/3/9 69/3/9
f 75/3/9 34/3/9 96/3/9
f 36/3/9 96/3/9 34/3/9
f 59/3/9 96/3/9 36/3/9
f 96/3/9 59/3/9 97/3/9
f 59/3/4 10/4/22 97/3/22
f 10/4/22 59/3/4 11/4/4
f 96/3/21 10/4/22 9/4/21
f 10/4/22 96/3/21 97/3/22
f 92/3/17 1/4/16 91/3/16
f 1/4/16 92/3/17 3/4/17
f 94/3/19 32/4/18 29/4/19
f 32/4/18 94/3/19 93/3/18
f 27/4/6 98/3/23 28/4/23
f 98/3/23 27/4/6 84/3/6
f 95/3/9 46/3/9 74/3/9
f 46/3/9 95/3/9 45/3/9
f 45/3/9 95/3/9 79/3/9
f 79/3/9 95/3/9 84/3/9
f 84/3/9 95/3/9 98/3/9
f 28/4/23 95/3/20 26/4/20
f 95/3/20 28/4/23 98/3/23
f 70/2/9 35/2/9 33/2/9
f 35/2/9 70/2/9 62/2/9
f 62/2/9 70/2/9 65/2/9
f 40/2/9 65/2/9 70/2/9
f 40/2/1 70/2/1 77/2/1
f 39/2/9 65/2/9 40/2/9
f 65/2/9 39/2/9 67/2/9
f 40/2/24 77/2/25 53/2/26
f 77/2/9 99/2/9 53/2/9
f 99/2/9 77/2/9 71/2/9
f 100/2/9 53/2/9 99/2/9
f 99/2/9 71/2/9 101/2/9
f 53/2/9 100/2/9 55/2/9
f 101/2/9 71/2/9 102/2/9
f 55/2/9 100/2/9 102/2/9
f 55/2/9 102/2/9 71/2/9
f 71/2/9 83/2/9 55/2/9
f 55/2/9 83/2/9 50/2/9
f 71/2/9 47/2/9 83/2/9
f 47/2/9 71/2/9 48/2/9
f 83/2/9 47/2/9 80/2/9
f 88/2/9 50/2/9 83/2/9
f 50/2/9 88/2/9 44/2/9
f 44/2/9 88/2/9 42/2/9
f 102/2/4 18/4/4 101/2/4
f 18/4/4 102/2/4 20/4/4
f 102/2/7 21/4/7 20/4/7
f 21/4/27 102/2/27 103/5/27
f 103/5/7 102/2/7 104/6/7
f 104/6/7 102/2/7 105/6/7
f 100/2/7 105/6/7 102/2/7
f 100/2/7 106/5/7 105/6/7
f 100/2/28 15/4/28 106/5/28
f 15/4/7 100/2/7 13/4/7
f 13/4/6 99/2/6 16/4/6
f 99/2/6 13/4/6 100/2/6
f 99/2/5 18/4/5 16/4/5
f 18/4/5 99/2/5 101/2/5
f 56/5/9 108/5/15 107/5/9
f 108/5/15 56/5/9 57/5/15
f 108/5/15 19/4/5 22/4/5
f 19/4/5 108/5/15 57/5/15
f 14/4/6 106/7/6 15/4/6
f 106/7/6 14/4/6 90/7/6
f 90/7/6 14/4/6 89/5/6
f 107/7/4 21/4/4 103/7/4
f 21/4/4 107/7/4 22/4/4
f 22/4/4 107/7/4 108/5/4
f 71/8/7 78/7/7 73/7/7
f 78/7/7 71/8/7 77/8/7
f 87/7/6 83/8/6 81/7/6
f 83/8/6 87/7/6 88/8/6
f 53/8/5 90/7/5 54/7/5
f 90/7/5 53/8/5 109/9/5
f 109/9/5 53/8/5 110/9/5
f 55/8/5 110/9/5 53/8/5
f 56/7/5 110/9/5 55/8/5
f 110/9/5 56/7/5 107/7/5
f 65/8/4 61/7/4 62/8/4
f 61/7/4 65/8/4 63/7/4
f 110/9/4 103/7/4 104/9/4
f 103/7/4 110/9/4 107/7/4
f 110/9/1 105/9/1 109/9/1
f 105/9/1 110/9/1 104/9/1
f 90/7/6 105/9/6 106/7/6
f 105/9/6 90/7/6 109/9/6
f 113/10/4 112/10/4 111/10/4
f 112/10/4 113/10/4 114/10/4
f 112/10/1 115/10/1 111/10/1
f 115/10/1 112/10/1 116/10/1
f 113/10/7 115/10/7 117/10/7
f 115/10/7 113/10/7 111/10/7
f 118/10/9 113/10/9 117/10/9
f 113/10/9 118/10/9 114/10/9
f 112/10/5 118/10/5 116/10/5
f 118/10/5 112/10/5 114/10/5
f 121/10/4 120/10/4 119/10/4
f 120/10/4 121/10/4 122/10/4
f 120/10/1 123/10/1 119/10/1
f 123/10/1 120/10/1 124/10/1
f 121/10/7 123/10/7 125/10/7
f 123/10/7 121/10/7 119/10/7
f 126/10/9 121/10/9 125/10/9
f 121/10/9 126/10/9 122/10/9
f 120/10/5 126/10/5 124/10/5
f 126/10/5 120/10/5 122/10/5
f 129/10/4 128/10/4 127/10/4
f 128/10/4 129/10/4 130/10/4
f 128/10/1 131/10/1 127/10/1
f 131/10/1 128/10/1 132/10/1
f 129/10/7 131/10/7 133/10/7
f 131/10/7 129/10/7 127/10/7
f 134/10/9 129/10/9 133/10/9
f 129/10/9 134/10/9 130/10/9
f 128/10/5 134/10/5 132/10/5
f 134/10/5 128/10/5 130/10/5
f 137/10/4 136/10/4 135/10/4
f 136/10/4 137/10/4 138/10/4
f 136/10/1 139/10/1 135/10/1
f 139/10/1 136/10/1 140/10/1
f 137/10/7 139/10/7 141/10/7
f 139/10/7 137/10/7 135/10/7
f 142/10/9 137/10/9 141/10/9
f 137/10/9 142/10/9 138/10/9
f 136/10/5 142/10/5 140/10/5
f 142/10/5 136/10/5 138/10/5
f 145/10/4 144/10/4 143/10/4
f 144/10/4 145/10/4 146/10/4
f 144/10/1 147/10/1 143/10/1
f 147/10/1 144/10/1 148/10/1
f 145/10/7 147/10/7 149/10/7
f 147/10/7 145/10/7 143/10/7
f 150/10/9 145/10/9 149/10/9
f 145/10/9 150/10/9 146/10/9
f 144/10/5 150/10/5 148/10/5
f 150/10/5 144/10/5 146/10/5
f 153/10/6 152/10/6 151/10/6
f 152/10/6 153/10/6 154/10/6
f 152/10/1 155/10/1 151/10/1
f 155/10/1 152/10/1 156/10/1
f 153/10/5 155/10/5 157/10/5
f 155/10/5 153/10/5 151/10/5
f 158/10/9 153/10/9 157/10/9
f 153/10/9 158/10/9 154/10/9
f 152/10/7 158/10/7 156/10/7
f 158/10/7 152/10/7 154/10/7
f 161/10/6 160/10/6 159/10/6
f 160/10/6 161/10/6 162/10/6
f 160/10/1 163/10/1 159/10/1
f 163/10/1 160/10/1 164/10/1
f 161/10/5 163/10/5 165/10/5
f 163/10/5 161/10/5 159/10/5
f 166/10/9 161/10/9 165/10/9
f 161/10/9 166/10/9 162/10/9
f 160/10/7 166/10/7 164/10/7
f 166/10/7 160/10/7 162/10/7
f 169/10/6 168/10/6 167/10/6
f 168/10/6 169/10/6 170/10/6
f 168/10/1 171/10/1 167/10/1
f 171/10/1 168/10/1 172/10/1
f 169/10/5 171/10/5 173/10/5
f 171/10/5 169/10/5 167/10/5
f 174/10/9 169/10/9 173/10/9
f 169/10/9 174/10/9 170/10/9
f 168/10/7 174/10/7 172/10/7
f 174/10/7 168/10/7 170/10/7
f 177/10/6 176/10/6 175/10/6
f 176/10/6 177/10/6 178/10/6
f 176/10/1 179/10/1 175/10/1
f 179/10/1 176/10/1 180/10/1
f 177/10/5 179/10/5 181/10/5
f 179/10/5 177/10/5 175/10/5
f 182/10/9 177/10/9 181/10/9
f 177/10/9 182/10/9 178/10/9
f 176/10/7 182/10/7 180/10/7
f 182/10/7 176/10/7 178/10/7
f 185/10/7 184/10/7 183/10/7
f 184/10/7 185/10/7 186/10/7
f 184/10/1 187/10/1 183/10/1
f 187/10/1 184/10/1 188/10/1
f 185/10/6 187/10/6 189/10/6
f 187/10/6 185/10/6 183/10/6
f 190/10/9 185/10/9 189/10/9
f 185/10/9 190/10/9 186/10/9
f 184/10/4 190/10/4 188/10/4
f 190/10/4 184/10/4 186/10/4
f 3/1/1 2/1/1 1/1/1
f 2/1/1 3/1/1 4/1/1
f 4/1/1 3/1/1 5/1/1
f 4/1/1 5/1/1 6/1/1
f 7/1/1 6/1/1 5/1/1
f 7/1/2 5/1/3 8/1/3
f 9/1/1 6/1/1 7/1/1
f 10/1/1 6/1/1 9/1/1
f 6/1/1 10/1/1 11/1/1
f 7/1/4 8/1/4 12/1/4
f 8/1/1 13/1/1 12/1/1
f 13/1/1 8/1/1 14/1/1
f 13/1/1 14/1/1 15/1/1
f 16/1/1 12/1/1 13/1/1
f 12/1/1 16/1/1 17/1/1
f 17/1/1 16/1/1 18/1/1
f 17/1/1 18/1/1 19/1/1
f 20/1/1 19/1/1 18/1/1
f 21/1/1 19/1/1 20/1/1
f 19/1/1 21/1/1 22/1/1
f 19/1/1 23/1/1 17/1/1
f 17/1/1 23/1/1 24/1/1
f 25/1/1 24/1/1 23/1/1
f 24/1/1 25/1/1 26/1/1
f 26/1/1 25/1/1 27/1/1
f 26/1/1 27/1/1 28/1/1
f 19/1/1 29/1/1 23/1/1
f 29/1/1 19/1/1 30/1/1
f 23/1/1 29/1/1 31/1/1
f 31/1/1 29/1/1 32/1/1
f 35/2/4 34/3/4 33/2/4
f 34/3/4 35/2/4 36/3/4
f 39/2/5 38/3/5 37/3/5
f 38/3/5 39/2/5 40/2/5
f 43/3/6 42/2/6 41/3/6
f 42/2/6 43/3/6 44/2/6
f 47/2/7 46/3/7 45/3/7
f 46/3/7 47/2/7 48/2/7
f 50/2/5 43/3/5 49/3/5
f 43/3/5 50/2/5 44/2/5
f 5/4/6 51/5/6 8/4/6
f 51/5/6 5/4/6 38/3/6
f 38/3/6 5/4/6 52/3/6
f 40/2/6 51/5/6 38/3/6
f 53/2/6 51/5/6 40/2/6
f 51/5/6 53/2/6 54/5/6
f 50/2/4 56/5/4 55/2/4
f 56/5/4 50/2/4 57/5/4
f 57/5/4 50/2/4 19/4/4
f 19/4/4 50/2/4 49/3/4
f 19/4/4 49/3/4 30/4/4
f 30/4/4 49/3/4 58/3/4
f 59/3/5 6/4/5 11/4/5
f 6/4/5 59/3/5 60/5/5
f 60/5/5 59/3/5 61/5/5
f 61/5/5 59/3/5 36/3/5
f 61/5/5 36/3/5 62/2/5
f 62/2/5 36/3/5 35/2/5
f 65/2/7 64/5/7 63/5/7
f 64/5/7 65/2/7 66/3/7
f 66/3/7 65/2/7 67/2/7
f 68/3/7 64/5/7 66/3/7
f 2/4/7 64/5/7 68/3/7
f 64/5/7 2/4/7 4/4/7
f 70/2/7 34/3/7 69/3/7
f 34/3/7 70/2/7 33/2/7
f 71/2/4 46/3/4 48/2/4
f 46/3/4 71/2/4 72/5/4
f 72/5/4 71/2/4 73/5/4
f 17/4/4 46/3/4 72/5/4
f 24/4/4 46/3/4 17/4/4
f 46/3/4 24/4/4 74/3/4
f 12/4/6 75/3/6 7/4/6
f 75/3/6 12/4/6 69/3/6
f 69/3/6 12/4/6 70/2/6
f 70/2/6 12/4/6 76/5/6
f 70/2/6 76/5/6 77/2/6
f 77/2/6 76/5/6 78/5/6
f 79/3/6 47/2/6 45/3/6
f 47/2/6 79/3/6 80/2/6
f 83/2/5 82/5/5 81/5/5
f 82/5/5 83/2/5 79/3/5
f 79/3/5 83/2/5 80/2/5
f 84/3/5 82/5/5 79/3/5
f 27/4/5 82/5/5 84/3/5
f 82/5/5 27/4/5 25/4/5
f 85/3/7 23/4/7 31/4/7
f 23/4/7 85/3/7 86/5/7
f 86/5/7 85/3/7 87/5/7
f 87/5/7 85/3/7 41/3/7
f 87/5/7 41/3/7 88/2/7
f 88/2/7 41/3/7 42/2/7
f 64/5/8 6/4/4 60/5/8
f 6/4/4 64/5/8 4/4/4
f 61/5/9 64/5/8 60/5/8
f 64/5/10 61/5/9 63/5/9
f 72/5/11 12/4/7 17/4/7
f 12/4/7 72/5/11 76/5/11
f 72/5/11 78/5/9 76/5/11
f 78/5/9 72/5/11 73/5/9
f 25/4/6 86/5/12 82/5/13
f 86/5/14 25/4/6 23/4/6
f 82/5/12 87/5/9 81/5/9
f 87/5/9 82/5/13 86/5/13
f 51/5/15 14/4/5 8/4/5
f 14/4/5 51/5/15 89/5/15
f 90/5/9 51/5/15 54/5/9
f 51/5/15 90/5/9 89/5/15
f 39/2/4 66/3/4 67/2/4
f 66/3/4 39/2/4 37/3/4
f 91/3/16 2/4/4 68/3/4
f 2/4/4 91/3/16 1/4/16
f 66/3/9 91/3/9 68/3/9
f 91/3/9 66/3/9 92/3/9
f 92/3/9 66/3/9 37/3/9
f 92/3/9 37/3/9 52/3/9
f 52/3/9 37/3/9 38/3/9
f 92/3/17 5/4/5 3/4/17
f 5/4/5 92/3/17 52/3/5
f 32/4/18 85/3/6 31/4/6
f 85/3/6 32/4/18 93/3/18
f 58/3/5 29/4/19 30/4/5
f 29/4/19 58/3/5 94/3/19
f 85/3/9 43/3/9 41/3/9
f 43/3/9 85/3/9 94/3/9
f 94/3/9 85/3/9 93/3/9
f 58/3/9 43/3/9 94/3/9
f 43/3/9 58/3/9 49/3/9
f 95/3/20 24/4/7 26/4/20
f 24/4/7 95/3/20 74/3/7
f 75/3/7 9/4/21 7/4/7
f 9/4/21 75/3/7 96/3/21
f 34/3/9 75/3/9 69/3/9
f 75/3/9 34/3/9 96/3/9
f 36/3/9 96/3/9 34/3/9
f 59/3/9 96/3/9 36/3/9
f 96/3/9 59/3/9 97/3/9
f 59/3/4 10/4/22 97/3/22
f 10/4/22 59/3/4 11/4/4
f 96/3/21 10/4/22 9/4/21
f 10/4/22 96/3/21 97/3/22
f 92/3/17 1/4/16 91/3/16
f 1/4/16 92/3/17 3/4/17
f 94/3/19 32/4/18 29/4/19
f 32/4/18 94/3/19 93/3/18
f 27/4/6 98/3/23 28/4/23
f 98/3/23 27/4/6 84/3/6
f 95/3/9 46/3/9 74/3/9
f 46/3/9 95/3/9 45/3/9
f 45/3/9 95/3/9 79/3/9
f 79/3/9 95/3/9 84/3/9
f 84/3/9 95/3/9 98/3/9
f 28/4/23 95/3/20 26/4/20
f 95/3/20 28/4/23 98/3/23
f 70/2/9 35/2/9 33/2/9
f 35/2/9 70/2/9 62/2/9
f 62/2/9 70/2/9 65/2/9
f 40/2/9 65/2/9 70/2/9
f 40/2/1 70/2/1 77/2/1
f 39/2/9 65/2/9 40/2/9
f 65/2/9 39/2/9 67/2/9
f 40/2/24 77/2/25 53/2/26
f 77/2/9 99/2/9 53/2/9
f 99/2/9 77/2/9 71/2/9
f 100/2/9 53/2/9 99/2/9
f 99/2/9 71/2/9 101/2/9
f 53/2/9 100/2/9 55/2/9
f 101/2/9 71/2/9 102/2/9
f 55/2/9 100/2/9 102/2/9
f 55/2/9 102/2/9 71/2/9
f 71/2/9 83/2/9 55/2/9
f 55/2/9 83/2/9 50/2/9
f 71/2/9 47/2/9 83/2/9
f 47/2/9 71/2/9 48/2/9
f 83/2/9 47/2/9 80/2/9
f 88/2/9 50/2/9 83/2/9
f 50/2/9 88/2/9 44/2/9
f 44/2/9 88/2/9 42/2/9
f 102/2/4 18/4/4 101/2/4
f 18/4/4 102/2/4 20/4/4
f 102/2/7 21/4/7 20/4/7
f 21/4/27 102/2/27 103/5/27
f 103/5/7 102/2/7 104/6/7
f 104/6/7 102/2/7 105/6/7
f 100/2/7 105/6/7 102/2/7
f 100/2/7 106/5/7 105/6/7
f 100/2/28 15/4/28 106/5/28
f 15/4/7 100/2/7 13/4/7
f 13/4/6 99/2/6 16/4/6
f 99/2/6 13/4/6 100/2/6
f 99/2/5 18/4/5 16/4/5
f 18/4/5 99/2/5 101/2/5
f 56/5/9 108/5/15 107/5/9
f 108/5/15 56/5/9 57/5/15
f 108/5/15 19/4/5 22/4/5
f 19/4/5 108/5/15 57/5/15
f 14/4/6 106/7/6 15/4/6
f 106/7/6 14/4/6 90/7/6
f 90/7/6 14/4/6 89/5/6
f 107/7/4 21/4/4 103/7/4
f 21/4/4 107/7/4 22/4/4
f 22/4/4 107/7/4 108/5/4
f 71/8/7 78/7/7 73/7/7
f 78/7/7 71/8/7 77/8/7
f 87/7/6 83/8/6 81/7/6
f 83/8/6 87/7/6 88/8/6
f 53/8/5 90/7/5 54/7/5
f 90/7/5 53/8/5 109/9/5
f 109/9/5 53/8/5 110/9/5
f 55/8/5 110/9/5 53/8/5
f 56/7/5 110/9/5 55/8/5
f 110/9/5 56/7/5 107/7/5
f 65/8/4 61/7/4 62/8/4
f 61/7/4 65/8/4 63/7/4
f 110/9/4 103/7/4 104/9/4
f 103/7/4 110/9/4 107/7/4
f 110/9/1 105/9/1 109/9/1
f 105/9/1 110/9/1 104/9/1
f 90/7/6 105/9/6 106/7/6
f 105/9/6 90/7/6 109/9/6
f 113/10/4 112/10/4 111/10/4
f 112/10/4 113/10/4 114/10/4
f 112/10/1 115/10/1 111/10/1
f 115/10/1 112/10/1 116/10/1
f 113/10/7 115/10/7 117/10/7
f 115/10/7 113/10/7 111/10/7
f 118/10/9 113/10/9 117/10/9
f 113/10/9 118/10/9 114/10/9
f 112/10/5 118/10/5 116/10/5
f 118/10/5 112/10/5 114/10/5
f 121/10/4 120/10/4 119/10/4
f 120/10/4 121/10/4 122/10/4
f 120/10/1 123/10/1 119/10/1
f 123/10/1 120/10/1 124/10/1
f 121/10/7 123/10/7 125/10/7
f 123/10/7 121/10/7 119/10/7
f 126/10/9 121/10/9 125/10/9
f 121/10/9 126/10/9 122/10/9
f 120/10/5 126/10/5 124/10/5
f 126/10/5 120/10/5 122/10/5
f 129/10/4 128/10/4 127/10/4
f 128/10/4 129/10/4 130/10/4
f 128/10/1 131/10/1 127/10/1
f 131/10/1 128/10/1 132/10/1
f 129/10/7 131/10/7 133/10/7
f 131/10/7 129/10/7 127/10/7
f 134/10/9 129/10/9 133/10/9
f 129/10/9 134/10/9 130/10/9
f 128/10/5 134/10/5 132/10/5
f 134/10/5 128/10/5 130/10/5
f 137/10/4 136/10/4 135/10/4
f 136/10/4 137/10/4 138/10/4
f 136/10/1 139/10/1 135/10/1
f 139/10/1 136/10/1 140/10/1
f 137/10/7 139/10/7 141/10/7
f 139/10/7 137/10/7 135/10/7
f 142/10/9 137/10/9 141/10/9
f 137/10/9 142/10/9 138/10/9
f 136/10/5 142/10/5 140/10/5
f 142/10/5 136/10/5 138/10/5
f 145/10/4 144/10/4 143/10/4
f 144/10/4 145/10/4 146/10/4
f 144/10/1 147/10/1 143/10/1
f 147/10/1 144/10/1 148/10/1
f 145/10/7 147/10/7 149/10/7
f 147/10/7 145/10/7 143/10/7
f 150/10/9 145/10/9 149/10/9
f 145/10/9 150/10/9 146/10/9
f 144/10/5 150/10/5 148/10/5
f 150/10/5 144/10/5 146/10/5
f 153/10/6 152/10/6 151/10/6
f 152/10/6 153/10/6 154/10/6
f 152/10/1 155/10/1 151/10/1
f 155/10/1 152/10/1 156/10/1
f 153/10/5 155/10/5 157/10/5
f 155/10/5 153/10/5 151/10/5
f 158/10/9 153/10/9 157/10/9
f 153/10/9 158/10/9 154/10/9
f 152/10/7 158/10/7 156/10/7
f 158/10/7 152/10/7 154/10/7
f 161/10/6 160/10/6 159/10/6
f 160/10/6 161/10/6 162/10/6
f 160/10/1 163/10/1 159/10/1
f 163/10/1 160/10/1 164/10/1
f 161/10/5 163/10/5 165/10/5
f 163/10/5 161/10/5 159/10/5
f 166/10/9 161/10/9 165/10/9
f 161/10/9 166/10/9 162/10/9
f 160/10/7 166/10/7 164/10/7
f 166/10/7 160/10/7 162/10/7
f 169/10/6 168/10/6 167/10/6
f 168/10/6 169/10/6 170/10/6
f 168/10/1 171/10/1 167/10/1
f 171/10/1 168/10/1 172/10/1
f 169/10/5 171/10/5 173/10/5
f 171/10/5 169/10/5 167/10/5
f 174/10/9 169/10/9 173/10/9
f 169/10/9 174/10/9 170/10/9
f 168/10/7 174/10/7 172/10/7
f 174/10/7 168/10/7 170/10/7
f 177/10/6 176/10/6 175/10/6
f 176/10/6 177/10/6 178/10/6
f 176/10/1 179/10/1 175/10/1
f 179/10/1 176/10/1 180/10/1
f 177/10/5 179/10/5 181/10/5
f 179/10/5 177/10/5 175/10/5
f 182/10/9 177/10/9 181/10/9
f 177/10/9 182/10/9 178/10/9
f 176/10/7 182/10/7 180/10/7
f 182/10/7 176/10/7 178/10/7
f 185/10/7 184/10/7 183/10/7
f 184/10/7 185/10/7 186/10/7
f 184/10/1 187/10/1 183/10/1
f 187/10/1 184/10/1 188/10/1
f 185/10/6 187/10/6 189/10/6
f 187/10/6 185/10/6 183/10/6
f 190/10/9 185/10/9 189/10/9
f 185/10/9 190/10/9 186/10/9
f 184/10/4 190/10/4 188/10/4
f 190/10/4 184/10/4 186/10/4
