# Blender 4.1.1
# www.blender.org
mtllib crypt-large.mtl
o crypt-large
v 14.276731 -4.444326 -3.430824
v 14.515679 -4.444326 -3.430824
v 14.228941 -4.444326 -3.478614
v 14.515679 -4.444326 -3.574193
v 14.228941 -4.444326 -3.717562
v 17.956533 -4.444326 -3.574193
v 18.243273 -4.444326 -3.717562
v 14.372310 -4.444326 -3.717562
v 18.243273 -4.444326 -3.478614
v 18.195484 -4.444326 -3.430824
v 17.956533 -4.444326 -3.430824
v 18.099903 -4.444326 -3.717562
v 14.611259 -4.444326 -3.813142
v 14.372310 -4.444326 -3.908721
v 14.611259 -4.444326 -3.908721
v 17.860954 -4.444326 -3.813141
v 18.099903 -4.444326 -5.246832
v 17.860954 -4.444326 -5.151252
v 14.372310 -4.444326 -5.246832
v 14.611259 -4.444326 -5.151252
v 14.611259 -4.444326 -5.055673
v 14.372310 -4.444326 -5.055673
v 14.515679 -4.444326 -5.390201
v 18.243273 -4.444326 -5.246832
v 17.956533 -4.444326 -5.390200
v 18.243273 -4.444326 -5.485780
v 17.956533 -4.444326 -5.533570
v 18.195484 -4.444326 -5.533570
v 14.228941 -4.444326 -5.485780
v 14.228941 -4.444326 -5.246832
v 14.515679 -4.444326 -5.533570
v 14.276731 -4.444326 -5.533570
v 18.147694 -2.532739 -3.526403
v 18.147694 -3.679691 -3.526403
v 17.956533 -2.532739 -3.526403
v 17.956533 -3.679691 -3.526403
v 14.324520 -3.679691 -3.526404
v 14.324520 -3.679691 -3.717562
v 14.324520 -2.532739 -3.526404
v 14.324520 -2.532739 -3.717562
v 14.515679 -3.679691 -5.437991
v 14.515679 -2.532739 -5.437991
v 14.324520 -3.679691 -5.437991
v 14.324520 -2.532739 -5.437991
v 18.147694 -3.679691 -5.437990
v 18.147694 -3.679691 -5.246832
v 18.147694 -2.532739 -5.437990
v 18.147694 -2.532739 -5.246832
v 14.324520 -3.679691 -5.246832
v 14.324520 -2.532739 -5.246832
v 14.372310 -4.062009 -3.717562
v 14.228941 -3.679691 -3.717562
v 14.420099 -2.532739 -3.717562
v 14.420099 -4.062009 -3.717562
v 14.420099 -2.532739 -5.246832
v 14.420099 -4.062009 -5.246832
v 14.372310 -4.062009 -5.246832
v 14.228941 -3.679691 -5.246832
v 17.956533 -3.679691 -3.430824
v 17.956533 -4.062009 -3.574193
v 17.956533 -4.062009 -3.621983
v 17.956533 -2.532739 -3.621983
v 14.515679 -4.062009 -3.621983
v 14.515679 -4.062009 -3.574193
v 14.515679 -2.532739 -3.621983
v 14.515679 -3.679691 -3.526404
v 14.515679 -2.532739 -3.526404
v 14.515679 -3.679691 -3.430824
v 18.147694 -3.679691 -3.717562
v 18.147694 -2.532739 -3.717562
v 18.052114 -2.532739 -5.246832
v 18.099903 -4.062009 -5.246832
v 18.052114 -4.062009 -5.246832
v 18.243273 -3.679691 -5.246832
v 18.243273 -3.679691 -3.717562
v 18.099903 -4.062009 -3.717562
v 18.052114 -2.532739 -3.717562
v 18.052114 -4.062009 -3.717562
v 17.956533 -3.679691 -5.437990
v 17.956533 -2.532739 -5.437990
v 17.956533 -4.062009 -5.342411
v 17.956533 -4.062009 -5.390200
v 17.956533 -2.532739 -5.342411
v 17.956533 -3.679691 -5.533570
v 14.515679 -3.679691 -5.533570
v 14.515679 -4.062009 -5.390201
v 14.515679 -4.062009 -5.342411
v 14.515679 -2.532739 -5.342411
v 14.372310 -4.062009 -3.908721
v 14.420099 -4.062009 -3.908721
v 14.276731 -3.679691 -3.430824
v 14.228941 -3.679691 -3.478614
v 14.276731 -3.679691 -5.533570
v 14.228941 -3.679691 -5.485780
v 18.243273 -3.679691 -5.485780
v 18.243273 -3.679691 -3.478614
v 18.195484 -3.679691 -3.430824
v 18.195484 -3.679691 -5.533570
v 17.860954 -2.532739 -3.813141
v 14.611259 -2.532739 -3.813142
v 17.860954 -2.532739 -5.151252
v 14.611259 -2.532739 -5.151252
v 14.611259 -4.062009 -5.055673
v 14.611259 -2.723898 -5.055673
v 14.611259 -2.723898 -3.908721
v 14.611259 -4.062009 -3.908721
v 14.420099 -4.062009 -5.055673
v 14.372310 -4.062009 -5.055673
v 14.420099 -2.723898 -3.908721
v 14.420099 -2.723898 -5.055673
v 15.184576 -3.656261 -3.572446
v 14.915156 -3.656261 -3.572446
v 15.184576 -3.522450 -3.572446
v 14.915156 -3.522450 -3.572446
v 15.184576 -3.656261 -3.621983
v 14.915156 -3.656261 -3.621983
v 15.184576 -3.522450 -3.621983
v 14.915156 -3.522450 -3.621983
v 15.375733 -3.465102 -3.572446
v 15.106316 -3.465102 -3.572446
v 15.375733 -3.331291 -3.572446
v 15.106316 -3.331291 -3.572446
v 15.375733 -3.465102 -3.621983
v 15.106316 -3.465102 -3.621983
v 15.375733 -3.331291 -3.621983
v 15.106316 -3.331291 -3.621983
v 17.096161 -2.891626 -3.572446
v 16.826742 -2.891626 -3.572446
v 17.096161 -2.757815 -3.572446
v 16.826742 -2.757815 -3.572446
v 17.096161 -2.891626 -3.621983
v 16.826742 -2.891626 -3.621983
v 17.096161 -2.757815 -3.621983
v 16.826742 -2.757815 -3.621983
v 16.905003 -3.656261 -3.572446
v 16.635584 -3.656261 -3.572446
v 16.905003 -3.522450 -3.572446
v 16.635584 -3.522450 -3.572446
v 16.905003 -3.656261 -3.621983
v 16.635584 -3.656261 -3.621983
v 16.905003 -3.522450 -3.621983
v 16.635584 -3.522450 -3.621983
v 17.478479 -3.847419 -3.572446
v 17.209059 -3.847419 -3.572446
v 17.478479 -3.713608 -3.572446
v 17.209059 -3.713608 -3.572446
v 17.478479 -3.847419 -3.621983
v 17.209059 -3.847419 -3.621983
v 17.478479 -3.713608 -3.621983
v 17.209059 -3.713608 -3.621983
v 14.907668 -3.276201 -5.391948
v 15.177087 -3.276201 -5.391948
v 14.907668 -3.142390 -5.391948
v 15.177087 -3.142390 -5.391948
v 14.907668 -3.276201 -5.342411
v 15.177087 -3.276201 -5.342411
v 14.907668 -3.142390 -5.342411
v 15.177087 -3.142390 -5.342411
v 17.201571 -3.467360 -5.391948
v 17.470989 -3.467360 -5.391948
v 17.201571 -3.333549 -5.391948
v 17.470989 -3.333548 -5.391948
v 17.201571 -3.467360 -5.342411
v 17.470989 -3.467360 -5.342411
v 17.201571 -3.333549 -5.342411
v 17.470989 -3.333548 -5.342411
v 15.481144 -3.085042 -5.391948
v 15.750562 -3.085042 -5.391948
v 15.481144 -2.951231 -5.391948
v 15.750562 -2.951231 -5.391948
v 15.481144 -3.085042 -5.342411
v 15.750562 -3.085042 -5.342411
v 15.481144 -2.951231 -5.342411
v 15.750562 -2.951231 -5.342411
v 17.392729 -3.658518 -5.391948
v 17.662148 -3.658518 -5.391948
v 17.392729 -3.524707 -5.391948
v 17.662148 -3.524707 -5.391948
v 17.392729 -3.658518 -5.342411
v 17.662148 -3.658518 -5.342411
v 17.392729 -3.524707 -5.342411
v 17.662148 -3.524707 -5.342411
v 18.101650 -3.674534 -4.384007
v 18.101650 -3.674534 -4.114588
v 18.101650 -3.540724 -4.384007
v 18.101650 -3.540724 -4.114588
v 18.052114 -3.674534 -4.384007
v 18.052114 -3.674534 -4.114588
v 18.052114 -3.540724 -4.384007
v 18.052114 -3.540724 -4.114588
vn -0.0000 -1.0000 -0.0000
vn -0.0000 -0.9989 -0.0477
vn -0.0000 -0.9989 -0.0478
vn -0.0000 -0.0000 -1.0000
vn -0.0000 -0.0000 1.0000
vn -1.0000 -0.0000 -0.0000
vn 1.0000 -0.0000 -0.0000
vn -0.0000 0.7071 0.7071
vn -0.0000 1.0000 -0.0000
vn 0.0001 0.7071 0.7071
vn 0.7071 0.7071 -0.0000
vn -0.0001 0.7071 -0.7071
vn -0.0000 0.7071 -0.7071
vn 0.0001 0.7071 -0.7071
vn -0.7071 0.7071 -0.0000
vn -0.3827 -0.0000 0.9239
vn -0.9239 -0.0000 0.3827
vn -0.3827 -0.0000 -0.9239
vn -0.9239 -0.0000 -0.3827
vn 0.9239 -0.0000 -0.3827
vn 0.9239 -0.0000 0.3827
vn 0.3827 -0.0000 0.9239
vn -0.3828 -0.0000 0.9239
vn -0.3828 -0.0000 -0.9239
vn -0.3828 -0.0000 -0.9238
vn 0.3827 -0.0000 -0.9239
vn 0.3827 -0.9239 -0.0000
vn -0.3827 -0.9239 -0.0000
vn 0.2706 -0.9239 -0.2706
vt 0.968750 0.025000
vt 0.843750 0.225000
vt 0.843750 0.105000
vt 0.843750 0.025000
vt 0.843750 0.065000
vt 0.843750 0.205000
vt 0.093750 0.065000
vt 0.093750 0.225000
vt 0.093750 0.205000
vt 0.031250 0.125000
s 0
usemtl colormap
f 3/1/1 2/1/1 1/1/1
f 2/1/1 3/1/1 4/1/1
f 4/1/1 3/1/1 5/1/1
f 4/1/1 5/1/1 6/1/1
f 7/1/1 6/1/1 5/1/1
f 7/1/2 5/1/3 8/1/3
f 9/1/1 6/1/1 7/1/1
f 10/1/1 6/1/1 9/1/1
f 6/1/1 10/1/1 11/1/1
f 7/1/4 8/1/4 12/1/4
f 8/1/1 13/1/1 12/1/1
f 13/1/1 8/1/1 14/1/1
f 13/1/1 14/1/1 15/1/1
f 16/1/1 12/1/1 13/1/1
f 12/1/1 16/1/1 17/1/1
f 17/1/1 16/1/1 18/1/1
f 17/1/1 18/1/1 19/1/1
f 20/1/1 19/1/1 18/1/1
f 21/1/1 19/1/1 20/1/1
f 19/1/1 21/1/1 22/1/1
f 19/1/1 23/1/1 17/1/1
f 17/1/1 23/1/1 24/1/1
f 25/1/1 24/1/1 23/1/1
f 24/1/1 25/1/1 26/1/1
f 26/1/1 25/1/1 27/1/1
f 26/1/1 27/1/1 28/1/1
f 19/1/1 29/1/1 23/1/1
f 29/1/1 19/1/1 30/1/1
f 23/1/1 29/1/1 31/1/1
f 31/1/1 29/1/1 32/1/1
f 35/2/5 34/3/5 33/2/5
f 34/3/5 35/2/5 36/3/5
f 39/2/6 38/3/6 37/3/6
f 38/3/6 39/2/6 40/2/6
f 43/3/4 42/2/4 41/3/4
f 42/2/4 43/3/4 44/2/4
f 47/2/7 46/3/7 45/3/7
f 46/3/7 47/2/7 48/2/7
f 50/2/6 43/3/6 49/3/6
f 43/3/6 50/2/6 44/2/6
f 5/4/4 51/5/4 8/4/4
f 51/5/4 5/4/4 38/3/4
f 38/3/4 5/4/4 52/3/4
f 40/2/4 51/5/4 38/3/4
f 53/2/4 51/5/4 40/2/4
f 51/5/4 53/2/4 54/5/4
f 50/2/5 56/5/5 55/2/5
f 56/5/5 50/2/5 57/5/5
f 57/5/5 50/2/5 19/4/5
f 19/4/5 50/2/5 49/3/5
f 19/4/5 49/3/5 30/4/5
f 30/4/5 49/3/5 58/3/5
f 59/3/6 6/4/6 11/4/6
f 6/4/6 59/3/6 60/5/6
f 60/5/6 59/3/6 61/5/6
f 61/5/6 59/3/6 36/3/6
f 61/5/6 36/3/6 62/2/6
f 62/2/6 36/3/6 35/2/6
f 65/2/7 64/5/7 63/5/7
f 64/5/7 65/2/7 66/3/7
f 66/3/7 65/2/7 67/2/7
f 68/3/7 64/5/7 66/3/7
f 2/4/7 64/5/7 68/3/7
f 64/5/7 2/4/7 4/4/7
f 70/2/7 34/3/7 69/3/7
f 34/3/7 70/2/7 33/2/7
f 71/2/5 46/3/5 48/2/5
f 46/3/5 71/2/5 72/5/5
f 72/5/5 71/2/5 73/5/5
f 17/4/5 46/3/5 72/5/5
f 24/4/5 46/3/5 17/4/5
f 46/3/5 24/4/5 74/3/5
f 12/4/4 75/3/4 7/4/4
f 75/3/4 12/4/4 69/3/4
f 69/3/4 12/4/4 70/2/4
f 70/2/4 12/4/4 76/5/4
f 70/2/4 76/5/4 77/2/4
f 77/2/4 76/5/4 78/5/4
f 79/3/4 47/2/4 45/3/4
f 47/2/4 79/3/4 80/2/4
f 83/2/6 82/5/6 81/5/6
f 82/5/6 83/2/6 79/3/6
f 79/3/6 83/2/6 80/2/6
f 84/3/6 82/5/6 79/3/6
f 27/4/6 82/5/6 84/3/6
f 82/5/6 27/4/6 25/4/6
f 85/3/7 23/4/7 31/4/7
f 23/4/7 85/3/7 86/5/7
f 86/5/7 85/3/7 87/5/7
f 87/5/7 85/3/7 41/3/7
f 87/5/7 41/3/7 88/2/7
f 88/2/7 41/3/7 42/2/7
f 64/5/8 6/4/5 60/5/8
f 6/4/5 64/5/8 4/4/5
f 61/5/9 64/5/8 60/5/8
f 64/5/10 61/5/9 63/5/9
f 72/5/11 12/4/7 17/4/7
f 12/4/7 72/5/11 76/5/11
f 72/5/11 78/5/9 76/5/11
f 78/5/9 72/5/11 73/5/9
f 25/4/4 86/5/12 82/5/13
f 86/5/14 25/4/4 23/4/4
f 82/5/12 87/5/9 81/5/9
f 87/5/9 82/5/13 86/5/13
f 51/5/15 14/4/6 8/4/6
f 14/4/6 51/5/15 89/5/15
f 90/5/9 51/5/15 54/5/9
f 51/5/15 90/5/9 89/5/15
f 39/2/5 66/3/5 67/2/5
f 66/3/5 39/2/5 37/3/5
f 91/3/16 2/4/5 68/3/5
f 2/4/5 91/3/16 1/4/16
f 66/3/9 91/3/9 68/3/9
f 91/3/9 66/3/9 92/3/9
f 92/3/9 66/3/9 37/3/9
f 92/3/9 37/3/9 52/3/9
f 52/3/9 37/3/9 38/3/9
f 92/3/17 5/4/6 3/4/17
f 5/4/6 92/3/17 52/3/6
f 32/4/18 85/3/4 31/4/4
f 85/3/4 32/4/18 93/3/18
f 58/3/6 29/4/19 30/4/6
f 29/4/19 58/3/6 94/3/19
f 85/3/9 43/3/9 41/3/9
f 43/3/9 85/3/9 94/3/9
f 94/3/9 85/3/9 93/3/9
f 58/3/9 43/3/9 94/3/9
f 43/3/9 58/3/9 49/3/9
f 95/3/20 24/4/7 26/4/20
f 24/4/7 95/3/20 74/3/7
f 75/3/7 9/4/21 7/4/7
f 9/4/21 75/3/7 96/3/21
f 34/3/9 75/3/9 69/3/9
f 75/3/9 34/3/9 96/3/9
f 36/3/9 96/3/9 34/3/9
f 59/3/9 96/3/9 36/3/9
f 96/3/9 59/3/9 97/3/9
f 59/3/5 10/4/22 97/3/22
f 10/4/22 59/3/5 11/4/5
f 96/3/21 10/4/22 9/4/21
f 10/4/22 96/3/21 97/3/22
f 92/3/17 1/4/23 91/3/23
f 1/4/16 92/3/17 3/4/17
f 94/3/19 32/4/18 29/4/19
f 32/4/24 94/3/19 93/3/25
f 27/4/4 98/3/26 28/4/26
f 98/3/26 27/4/4 84/3/4
f 95/3/9 46/3/9 74/3/9
f 46/3/9 95/3/9 45/3/9
f 45/3/9 95/3/9 79/3/9
f 79/3/9 95/3/9 84/3/9
f 84/3/9 95/3/9 98/3/9
f 28/4/26 95/3/20 26/4/20
f 95/3/20 28/4/26 98/3/26
f 70/2/9 35/2/9 33/2/9
f 35/2/9 70/2/9 62/2/9
f 62/2/9 70/2/9 65/2/9
f 40/2/9 65/2/9 70/2/9
f 40/2/9 70/2/9 77/2/9
f 39/2/9 65/2/9 40/2/9
f 65/2/9 39/2/9 67/2/9
f 40/2/27 77/2/28 53/2/29
f 77/2/9 99/2/9 53/2/9
f 99/2/9 77/2/9 71/2/9
f 100/2/9 53/2/9 99/2/9
f 99/2/9 71/2/9 101/2/9
f 53/2/9 100/2/9 55/2/9
f 101/2/9 71/2/9 102/2/9
f 55/2/9 100/2/9 102/2/9
f 55/2/9 102/2/9 71/2/9
f 71/2/9 83/2/9 55/2/9
f 55/2/9 83/2/9 50/2/9
f 71/2/9 47/2/9 83/2/9
f 47/2/9 71/2/9 48/2/9
f 83/2/9 47/2/9 80/2/9
f 88/2/9 50/2/9 83/2/9
f 50/2/9 88/2/9 44/2/9
f 44/2/9 88/2/9 42/2/9
f 102/2/5 18/4/5 101/2/5
f 18/4/5 102/2/5 20/4/5
f 102/2/7 21/4/7 20/4/7
f 21/4/7 102/2/7 103/5/7
f 103/5/7 102/2/7 104/6/7
f 104/6/7 102/2/7 105/6/7
f 100/2/7 105/6/7 102/2/7
f 100/2/7 106/5/7 105/6/7
f 100/2/7 15/4/7 106/5/7
f 15/4/7 100/2/7 13/4/7
f 13/4/4 99/2/4 16/4/4
f 99/2/4 13/4/4 100/2/4
f 99/2/6 18/4/6 16/4/6
f 18/4/6 99/2/6 101/2/6
f 56/5/9 108/5/15 107/5/9
f 108/5/15 56/5/9 57/5/15
f 108/5/15 19/4/6 22/4/6
f 19/4/6 108/5/15 57/5/15
f 14/4/4 106/7/4 15/4/4
f 106/7/4 14/4/4 90/7/4
f 90/7/4 14/4/4 89/5/4
f 107/7/5 21/4/5 103/7/5
f 21/4/5 107/7/5 22/4/5
f 22/4/5 107/7/5 108/5/5
f 71/8/7 78/7/7 73/7/7
f 78/7/7 71/8/7 77/8/7
f 87/7/4 83/8/4 81/7/4
f 83/8/4 87/7/4 88/8/4
f 53/8/6 90/7/6 54/7/6
f 90/7/6 53/8/6 109/9/6
f 109/9/6 53/8/6 110/9/6
f 55/8/6 110/9/6 53/8/6
f 56/7/6 110/9/6 55/8/6
f 110/9/6 56/7/6 107/7/6
f 65/8/5 61/7/5 62/8/5
f 61/7/5 65/8/5 63/7/5
f 110/9/5 103/7/5 104/9/5
f 103/7/5 110/9/5 107/7/5
f 110/9/1 105/9/1 109/9/1
f 105/9/1 110/9/1 104/9/1
f 90/7/4 105/9/4 106/7/4
f 105/9/4 90/7/4 109/9/4
f 113/10/5 112/10/5 111/10/5
f 112/10/5 113/10/5 114/10/5
f 112/10/1 115/10/1 111/10/1
f 115/10/1 112/10/1 116/10/1
f 113/10/7 115/10/7 117/10/7
f 115/10/7 113/10/7 111/10/7
f 118/10/9 113/10/9 117/10/9
f 113/10/9 118/10/9 114/10/9
f 112/10/6 118/10/6 116/10/6
f 118/10/6 112/10/6 114/10/6
f 121/10/5 120/10/5 119/10/5
f 120/10/5 121/10/5 122/10/5
f 120/10/1 123/10/1 119/10/1
f 123/10/1 120/10/1 124/10/1
f 121/10/7 123/10/7 125/10/7
f 123/10/7 121/10/7 119/10/7
f 126/10/9 121/10/9 125/10/9
f 121/10/9 126/10/9 122/10/9
f 120/10/6 126/10/6 124/10/6
f 126/10/6 120/10/6 122/10/6
f 129/10/5 128/10/5 127/10/5
f 128/10/5 129/10/5 130/10/5
f 128/10/1 131/10/1 127/10/1
f 131/10/1 128/10/1 132/10/1
f 129/10/7 131/10/7 133/10/7
f 131/10/7 129/10/7 127/10/7
f 134/10/9 129/10/9 133/10/9
f 129/10/9 134/10/9 130/10/9
f 128/10/6 134/10/6 132/10/6
f 134/10/6 128/10/6 130/10/6
f 137/10/5 136/10/5 135/10/5
f 136/10/5 137/10/5 138/10/5
f 136/10/1 139/10/1 135/10/1
f 139/10/1 136/10/1 140/10/1
f 137/10/7 139/10/7 141/10/7
f 139/10/7 137/10/7 135/10/7
f 142/10/9 137/10/9 141/10/9
f 137/10/9 142/10/9 138/10/9
f 136/10/6 142/10/6 140/10/6
f 142/10/6 136/10/6 138/10/6
f 145/10/5 144/10/5 143/10/5
f 144/10/5 145/10/5 146/10/5
f 144/10/1 147/10/1 143/10/1
f 147/10/1 144/10/1 148/10/1
f 145/10/7 147/10/7 149/10/7
f 147/10/7 145/10/7 143/10/7
f 150/10/9 145/10/9 149/10/9
f 145/10/9 150/10/9 146/10/9
f 144/10/6 150/10/6 148/10/6
f 150/10/6 144/10/6 146/10/6
f 153/10/4 152/10/4 151/10/4
f 152/10/4 153/10/4 154/10/4
f 152/10/1 155/10/1 151/10/1
f 155/10/1 152/10/1 156/10/1
f 153/10/6 155/10/6 157/10/6
f 155/10/6 153/10/6 151/10/6
f 158/10/9 153/10/9 157/10/9
f 153/10/9 158/10/9 154/10/9
f 152/10/7 158/10/7 156/10/7
f 158/10/7 152/10/7 154/10/7
f 161/10/4 160/10/4 159/10/4
f 160/10/4 161/10/4 162/10/4
f 160/10/1 163/10/1 159/10/1
f 163/10/1 160/10/1 164/10/1
f 161/10/6 163/10/6 165/10/6
f 163/10/6 161/10/6 159/10/6
f 166/10/9 161/10/9 165/10/9
f 161/10/9 166/10/9 162/10/9
f 160/10/7 166/10/7 164/10/7
f 166/10/7 160/10/7 162/10/7
f 169/10/4 168/10/4 167/10/4
f 168/10/4 169/10/4 170/10/4
f 168/10/1 171/10/1 167/10/1
f 171/10/1 168/10/1 172/10/1
f 169/10/6 171/10/6 173/10/6
f 171/10/6 169/10/6 167/10/6
f 174/10/9 169/10/9 173/10/9
f 169/10/9 174/10/9 170/10/9
f 168/10/7 174/10/7 172/10/7
f 174/10/7 168/10/7 170/10/7
f 177/10/4 176/10/4 175/10/4
f 176/10/4 177/10/4 178/10/4
f 176/10/1 179/10/1 175/10/1
f 179/10/1 176/10/1 180/10/1
f 177/10/6 179/10/6 181/10/6
f 179/10/6 177/10/6 175/10/6
f 182/10/9 177/10/9 181/10/9
f 177/10/9 182/10/9 178/10/9
f 176/10/7 182/10/7 180/10/7
f 182/10/7 176/10/7 178/10/7
f 185/10/7 184/10/7 183/10/7
f 184/10/7 185/10/7 186/10/7
f 184/10/1 187/10/1 183/10/1
f 187/10/1 184/10/1 188/10/1
f 185/10/4 187/10/4 189/10/4
f 187/10/4 185/10/4 183/10/4
f 190/10/9 185/10/9 189/10/9
f 185/10/9 190/10/9 186/10/9
f 184/10/5 190/10/5 188/10/5
f 190/10/5 184/10/5 186/10/5
f 3/1/1 2/1/1 1/1/1
f 2/1/1 3/1/1 4/1/1
f 4/1/1 3/1/1 5/1/1
f 4/1/1 5/1/1 6/1/1
f 7/1/1 6/1/1 5/1/1
f 7/1/2 5/1/3 8/1/3
f 9/1/1 6/1/1 7/1/1
f 10/1/1 6/1/1 9/1/1
f 6/1/1 10/1/1 11/1/1
f 7/1/4 8/1/4 12/1/4
f 8/1/1 13/1/1 12/1/1
f 13/1/1 8/1/1 14/1/1
f 13/1/1 14/1/1 15/1/1
f 16/1/1 12/1/1 13/1/1
f 12/1/1 16/1/1 17/1/1
f 17/1/1 16/1/1 18/1/1
f 17/1/1 18/1/1 19/1/1
f 20/1/1 19/1/1 18/1/1
f 21/1/1 19/1/1 20/1/1
f 19/1/1 21/1/1 22/1/1
f 19/1/1 23/1/1 17/1/1
f 17/1/1 23/1/1 24/1/1
f 25/1/1 24/1/1 23/1/1
f 24/1/1 25/1/1 26/1/1
f 26/1/1 25/1/1 27/1/1
f 26/1/1 27/1/1 28/1/1
f 19/1/1 29/1/1 23/1/1
f 29/1/1 19/1/1 30/1/1
f 23/1/1 29/1/1 31/1/1
f 31/1/1 29/1/1 32/1/1
f 35/2/5 34/3/5 33/2/5
f 34/3/5 35/2/5 36/3/5
f 39/2/6 38/3/6 37/3/6
f 38/3/6 39/2/6 40/2/6
f 43/3/4 42/2/4 41/3/4
f 42/2/4 43/3/4 44/2/4
f 47/2/7 46/3/7 45/3/7
f 46/3/7 47/2/7 48/2/7
f 50/2/6 43/3/6 49/3/6
f 43/3/6 50/2/6 44/2/6
f 5/4/4 51/5/4 8/4/4
f 51/5/4 5/4/4 38/3/4
f 38/3/4 5/4/4 52/3/4
f 40/2/4 51/5/4 38/3/4
f 53/2/4 51/5/4 40/2/4
f 51/5/4 53/2/4 54/5/4
f 50/2/5 56/5/5 55/2/5
f 56/5/5 50/2/5 57/5/5
f 57/5/5 50/2/5 19/4/5
f 19/4/5 50/2/5 49/3/5
f 19/4/5 49/3/5 30/4/5
f 30/4/5 49/3/5 58/3/5
f 59/3/6 6/4/6 11/4/6
f 6/4/6 59/3/6 60/5/6
f 60/5/6 59/3/6 61/5/6
f 61/5/6 59/3/6 36/3/6
f 61/5/6 36/3/6 62/2/6
f 62/2/6 36/3/6 35/2/6
f 65/2/7 64/5/7 63/5/7
f 64/5/7 65/2/7 66/3/7
f 66/3/7 65/2/7 67/2/7
f 68/3/7 64/5/7 66/3/7
f 2/4/7 64/5/7 68/3/7
f 64/5/7 2/4/7 4/4/7
f 70/2/7 34/3/7 69/3/7
f 34/3/7 70/2/7 33/2/7
f 71/2/5 46/3/5 48/2/5
f 46/3/5 71/2/5 72/5/5
f 72/5/5 71/2/5 73/5/5
f 17/4/5 46/3/5 72/5/5
f 24/4/5 46/3/5 17/4/5
f 46/3/5 24/4/5 74/3/5
f 12/4/4 75/3/4 7/4/4
f 75/3/4 12/4/4 69/3/4
f 69/3/4 12/4/4 70/2/4
f 70/2/4 12/4/4 76/5/4
f 70/2/4 76/5/4 77/2/4
f 77/2/4 76/5/4 78/5/4
f 79/3/4 47/2/4 45/3/4
f 47/2/4 79/3/4 80/2/4
f 83/2/6 82/5/6 81/5/6
f 82/5/6 83/2/6 79/3/6
f 79/3/6 83/2/6 80/2/6
f 84/3/6 82/5/6 79/3/6
f 27/4/6 82/5/6 84/3/6
f 82/5/6 27/4/6 25/4/6
f 85/3/7 23/4/7 31/4/7
f 23/4/7 85/3/7 86/5/7
f 86/5/7 85/3/7 87/5/7
f 87/5/7 85/3/7 41/3/7
f 87/5/7 41/3/7 88/2/7
f 88/2/7 41/3/7 42/2/7
f 64/5/8 6/4/5 60/5/8
f 6/4/5 64/5/8 4/4/5
f 61/5/9 64/5/8 60/5/8
f 64/5/10 61/5/9 63/5/9
f 72/5/11 12/4/7 17/4/7
f 12/4/7 72/5/11 76/5/11
f 72/5/11 78/5/9 76/5/11
f 78/5/9 72/5/11 73/5/9
f 25/4/4 86/5/12 82/5/13
f 86/5/14 25/4/4 23/4/4
f 82/5/12 87/5/9 81/5/9
f 87/5/9 82/5/13 86/5/13
f 51/5/15 14/4/6 8/4/6
f 14/4/6 51/5/15 89/5/15
f 90/5/9 51/5/15 54/5/9
f 51/5/15 90/5/9 89/5/15
f 39/2/5 66/3/5 67/2/5
f 66/3/5 39/2/5 37/3/5
f 91/3/16 2/4/5 68/3/5
f 2/4/5 91/3/16 1/4/16
f 66/3/9 91/3/9 68/3/9
f 91/3/9 66/3/9 92/3/9
f 92/3/9 66/3/9 37/3/9
f 92/3/9 37/3/9 52/3/9
f 52/3/9 37/3/9 38/3/9
f 92/3/17 5/4/6 3/4/17
f 5/4/6 92/3/17 52/3/6
f 32/4/18 85/3/4 31/4/4
f 85/3/4 32/4/18 93/3/18
f 58/3/6 29/4/19 30/4/6
f 29/4/19 58/3/6 94/3/19
f 85/3/9 43/3/9 41/3/9
f 43/3/9 85/3/9 94/3/9
f 94/3/9 85/3/9 93/3/9
f 58/3/9 43/3/9 94/3/9
f 43/3/9 58/3/9 49/3/9
f 95/3/20 24/4/7 26/4/20
f 24/4/7 95/3/20 74/3/7
f 75/3/7 9/4/21 7/4/7
f 9/4/21 75/3/7 96/3/21
f 34/3/9 75/3/9 69/3/9
f 75/3/9 34/3/9 96/3/9
f 36/3/9 96/3/9 34/3/9
f 59/3/9 96/3/9 36/3/9
f 96/3/9 59/3/9 97/3/9
f 59/3/5 10/4/22 97/3/22
f 10/4/22 59/3/5 11/4/5
f 96/3/21 10/4/22 9/4/21
f 10/4/22 96/3/21 97/3/22
f 92/3/17 1/4/23 91/3/23
f 1/4/16 92/3/17 3/4/17
f 94/3/19 32/4/18 29/4/19
f 32/4/24 94/3/19 93/3/25
f 27/4/4 98/3/26 28/4/26
f 98/3/26 27/4/4 84/3/4
f 95/3/9 46/3/9 74/3/9
f 46/3/9 95/3/9 45/3/9
f 45/3/9 95/3/9 79/3/9
f 79/3/9 95/3/9 84/3/9
f 84/3/9 95/3/9 98/3/9
f 28/4/26 95/3/20 26/4/20
f 95/3/20 28/4/26 98/3/26
f 70/2/9 35/2/9 33/2/9
f 35/2/9 70/2/9 62/2/9
f 62/2/9 70/2/9 65/2/9
f 40/2/9 65/2/9 70/2/9
f 40/2/9 70/2/9 77/2/9
f 39/2/9 65/2/9 40/2/9
f 65/2/9 39/2/9 67/2/9
f 40/2/27 77/2/28 53/2/29
f 77/2/9 99/2/9 53/2/9
f 99/2/9 77/2/9 71/2/9
f 100/2/9 53/2/9 99/2/9
f 99/2/9 71/2/9 101/2/9
f 53/2/9 100/2/9 55/2/9
f 101/2/9 71/2/9 102/2/9
f 55/2/9 100/2/9 102/2/9
f 55/2/9 102/2/9 71/2/9
f 71/2/9 83/2/9 55/2/9
f 55/2/9 83/2/9 50/2/9
f 71/2/9 47/2/9 83/2/9
f 47/2/9 71/2/9 48/2/9
f 83/2/9 47/2/9 80/2/9
f 88/2/9 50/2/9 83/2/9
f 50/2/9 88/2/9 44/2/9
f 44/2/9 88/2/9 42/2/9
f 102/2/5 18/4/5 101/2/5
f 18/4/5 102/2/5 20/4/5
f 102/2/7 21/4/7 20/4/7
f 21/4/7 102/2/7 103/5/7
f 103/5/7 102/2/7 104/6/7
f 104/6/7 102/2/7 105/6/7
f 100/2/7 105/6/7 102/2/7
f 100/2/7 106/5/7 105/6/7
f 100/2/7 15/4/7 106/5/7
f 15/4/7 100/2/7 13/4/7
f 13/4/4 99/2/4 16/4/4
f 99/2/4 13/4/4 100/2/4
f 99/2/6 18/4/6 16/4/6
f 18/4/6 99/2/6 101/2/6
f 56/5/9 108/5/15 107/5/9
f 108/5/15 56/5/9 57/5/15
f 108/5/15 19/4/6 22/4/6
f 19/4/6 108/5/15 57/5/15
f 14/4/4 106/7/4 15/4/4
f 106/7/4 14/4/4 90/7/4
f 90/7/4 14/4/4 89/5/4
f 107/7/5 21/4/5 103/7/5
f 21/4/5 107/7/5 22/4/5
f 22/4/5 107/7/5 108/5/5
f 71/8/7 78/7/7 73/7/7
f 78/7/7 71/8/7 77/8/7
f 87/7/4 83/8/4 81/7/4
f 83/8/4 87/7/4 88/8/4
f 53/8/6 90/7/6 54/7/6
f 90/7/6 53/8/6 109/9/6
f 109/9/6 53/8/6 110/9/6
f 55/8/6 110/9/6 53/8/6
f 56/7/6 110/9/6 55/8/6
f 110/9/6 56/7/6 107/7/6
f 65/8/5 61/7/5 62/8/5
f 61/7/5 65/8/5 63/7/5
f 110/9/5 103/7/5 104/9/5
f 103/7/5 110/9/5 107/7/5
f 110/9/1 105/9/1 109/9/1
f 105/9/1 110/9/1 104/9/1
f 90/7/4 105/9/4 106/7/4
f 105/9/4 90/7/4 109/9/4
f 113/10/5 112/10/5 111/10/5
f 112/10/5 113/10/5 114/10/5
f 112/10/1 115/10/1 111/10/1
f 115/10/1 112/10/1 116/10/1
f 113/10/7 115/10/7 117/10/7
f 115/10/7 113/10/7 111/10/7
f 118/10/9 113/10/9 117/10/9
f 113/10/9 118/10/9 114/10/9
f 112/10/6 118/10/6 116/10/6
f 118/10/6 112/10/6 114/10/6
f 121/10/5 120/10/5 119/10/5
f 120/10/5 121/10/5 122/10/5
f 120/10/1 123/10/1 119/10/1
f 123/10/1 120/10/1 124/10/1
f 121/10/7 123/10/7 125/10/7
f 123/10/7 121/10/7 119/10/7
f 126/10/9 121/10/9 125/10/9
f 121/10/9 126/10/9 122/10/9
f 120/10/6 126/10/6 124/10/6
f 126/10/6 120/10/6 122/10/6
f 129/10/5 128/10/5 127/10/5
f 128/10/5 129/10/5 130/10/5
f 128/10/1 131/10/1 127/10/1
f 131/10/1 128/10/1 132/10/1
f 129/10/7 131/10/7 133/10/7
f 131/10/7 129/10/7 127/10/7
f 134/10/9 129/10/9 133/10/9
f 129/10/9 134/10/9 130/10/9
f 128/10/6 134/10/6 132/10/6
f 134/10/6 128/10/6 130/10/6
f 137/10/5 136/10/5 135/10/5
f 136/10/5 137/10/5 138/10/5
f 136/10/1 139/10/1 135/10/1
f 139/10/1 136/10/1 140/10/1
f 137/10/7 139/10/7 141/10/7
f 139/10/7 137/10/7 135/10/7
f 142/10/9 137/10/9 141/10/9
f 137/10/9 142/10/9 138/10/9
f 136/10/6 142/10/6 140/10/6
f 142/10/6 136/10/6 138/10/6
f 145/10/5 144/10/5 143/10/5
f 144/10/5 145/10/5 146/10/5
f 144/10/1 147/10/1 143/10/1
f 147/10/1 144/10/1 148/10/1
f 145/10/7 147/10/7 149/10/7
f 147/10/7 145/10/7 143/10/7
f 150/10/9 145/10/9 149/10/9
f 145/10/9 150/10/9 146/10/9
f 144/10/6 150/10/6 148/10/6
f 150/10/6 144/10/6 146/10/6
f 153/10/4 152/10/4 151/10/4
f 152/10/4 153/10/4 154/10/4
f 152/10/1 155/10/1 151/10/1
f 155/10/1 152/10/1 156/10/1
f 153/10/6 155/10/6 157/10/6
f 155/10/6 153/10/6 151/10/6
f 158/10/9 153/10/9 157/10/9
f 153/10/9 158/10/9 154/10/9
f 152/10/7 158/10/7 156/10/7
f 158/10/7 152/10/7 154/10/7
f 161/10/4 160/10/4 159/10/4
f 160/10/4 161/10/4 162/10/4
f 160/10/1 163/10/1 159/10/1
f 163/10/1 160/10/1 164/10/1
f 161/10/6 163/10/6 165/10/6
f 163/10/6 161/10/6 159/10/6
f 166/10/9 161/10/9 165/10/9
f 161/10/9 166/10/9 162/10/9
f 160/10/7 166/10/7 164/10/7
f 166/10/7 160/10/7 162/10/7
f 169/10/4 168/10/4 167/10/4
f 168/10/4 169/10/4 170/10/4
f 168/10/1 171/10/1 167/10/1
f 171/10/1 168/10/1 172/10/1
f 169/10/6 171/10/6 173/10/6
f 171/10/6 169/10/6 167/10/6
f 174/10/9 169/10/9 173/10/9
f 169/10/9 174/10/9 170/10/9
f 168/10/7 174/10/7 172/10/7
f 174/10/7 168/10/7 170/10/7
f 177/10/4 176/10/4 175/10/4
f 176/10/4 177/10/4 178/10/4
f 176/10/1 179/10/1 175/10/1
f 179/10/1 176/10/1 180/10/1
f 177/10/6 179/10/6 181/10/6
f 179/10/6 177/10/6 175/10/6
f 182/10/9 177/10/9 181/10/9
f 177/10/9 182/10/9 178/10/9
f 176/10/7 182/10/7 180/10/7
f 182/10/7 176/10/7 178/10/7
f 185/10/7 184/10/7 183/10/7
f 184/10/7 185/10/7 186/10/7
f 184/10/1 187/10/1 183/10/1
f 187/10/1 184/10/1 188/10/1
f 185/10/4 187/10/4 189/10/4
f 187/10/4 185/10/4 183/10/4
f 190/10/9 185/10/9 189/10/9
f 185/10/9 190/10/9 186/10/9
f 184/10/5 190/10/5 188/10/5
f 190/10/5 184/10/5 186/10/5
