# Blender 4.1.1
# www.blender.org
mtllib gravestone-decorative.mtl
o gravestone-decorative
v 13.569035 -3.413025 -1.933695
v 13.569035 -3.500002 -1.933695
v 13.318212 -3.413025 -2.070660
v 13.318212 -3.500002 -2.070660
v 13.574890 -3.562129 -1.977216
v 13.574890 -4.220671 -1.977216
v 13.351658 -3.562129 -2.099115
v 13.351658 -4.220671 -2.099115
v 13.926333 -3.500002 -2.588016
v 13.675510 -3.500002 -2.724981
v 13.892885 -3.562129 -2.559562
v 13.669653 -3.562129 -2.681461
v 13.878694 -3.413025 -2.500774
v 13.627871 -3.413025 -2.637738
v 13.926333 -3.413025 -2.588016
v 13.675510 -3.413025 -2.724981
v 13.892885 -4.220671 -2.559562
v 13.926333 -4.444326 -2.588017
v 13.569035 -4.444326 -1.933695
v 13.926333 -4.295222 -2.588017
v 13.569035 -4.295222 -1.933695
v 13.616675 -3.450301 -2.020938
v 13.365852 -3.450301 -2.157902
v 13.747684 -3.326048 -2.260856
v 13.496861 -3.326048 -2.397820
v 13.318212 -4.295222 -2.070660
v 13.675510 -4.295222 -2.724981
v 13.669653 -4.220670 -2.681461
v 13.318212 -4.444326 -2.070660
v 13.675510 -4.444326 -2.724981
v 13.616675 -3.413025 -2.020938
v 13.365852 -3.413025 -2.157902
v 13.627871 -3.450301 -2.637738
v 13.878694 -3.450301 -2.500774
vn -0.4793 -0.0000 0.8777
vn 0.4000 -0.5508 -0.7325
vn -0.0000 1.0000 -0.0000
vn 0.8509 -0.2453 0.4646
vn 0.8777 -0.0000 0.4793
vn 0.8745 0.0843 0.4776
vn -0.1983 0.9104 0.3632
vn 0.4793 -0.0000 -0.8777
vn -0.8509 -0.2453 -0.4646
vn 0.8588 0.2063 0.4689
vn 0.8745 0.0844 0.4776
vn 0.8745 0.0844 0.4775
vn 0.8588 0.2063 0.4690
vn -0.8588 0.2063 -0.4690
vn -0.8745 0.0844 -0.4776
vn -0.8745 0.0844 -0.4775
vn -0.8745 0.0843 -0.4776
vn -0.8777 -0.0000 -0.4793
vn 0.4660 0.2335 -0.8534
vn 0.4199 0.4819 -0.7690
vn 0.4660 0.2334 -0.8534
vn -0.4000 -0.5508 0.7325
vn -0.8777 -0.0000 -0.4792
vn -0.4199 0.4819 0.7690
vn -0.4660 0.2335 0.8534
vn -0.4660 0.2334 0.8534
vn 0.1983 0.9104 -0.3632
vn 0.4660 0.2333 -0.8534
vn -0.4660 0.2333 0.8534
vn -0.0000 -1.0000 -0.0000
vt 0.843750 0.209444
vt 0.843750 0.193889
vt 0.843750 0.182778
vt 0.843750 0.065000
vt 0.843750 0.051667
vt 0.843750 0.025000
vt 0.843750 0.225000
vt 0.843750 0.202778
s 0
usemtl colormap.001
f 3/1/1 2/2/1 1/1/1
f 2/2/1 3/1/1 4/2/1
f 7/3/1 6/4/1 5/3/1
f 6/4/1 7/3/1 8/4/1
f 11/3/2 10/2/2 9/2/2
f 10/2/2 11/3/2 12/3/2
f 15/1/3 14/1/3 13/1/3
f 14/1/3 15/1/3 16/1/3
f 9/2/4 5/3/4 11/3/4
f 5/3/4 9/2/4 2/2/4
f 11/3/5 6/4/5 17/4/5
f 6/4/5 11/3/5 5/3/5
f 20/5/6 19/6/5 18/6/5
f 19/6/5 20/5/6 21/5/6
f 24/7/7 23/8/7 22/8/7
f 23/8/7 24/7/7 25/7/7
f 10/2/8 15/1/8 9/2/8
f 15/1/8 10/2/8 16/1/8
f 4/2/9 12/3/9 7/3/9
f 12/3/9 4/2/9 10/2/9
f 17/4/10 21/5/11 20/5/12
f 21/5/12 17/4/13 6/4/13
f 8/4/14 27/5/15 26/5/16
f 27/5/15 8/4/14 28/4/14
f 26/5/17 30/6/18 29/6/18
f 30/6/18 26/5/17 27/5/17
f 7/3/18 28/4/18 8/4/18
f 28/4/18 7/3/18 12/3/18
f 28/4/8 11/3/8 17/4/8
f 11/3/8 28/4/8 12/3/8
f 27/5/19 17/4/20 20/5/21
f 17/4/20 27/5/19 28/4/20
f 23/8/8 31/1/8 22/8/8
f 31/1/8 23/8/8 32/1/8
f 4/2/22 5/3/22 2/2/22
f 5/3/22 4/2/22 7/3/22
f 31/1/3 3/1/3 1/1/3
f 3/1/3 31/1/3 32/1/3
f 23/8/18 3/1/18 32/1/18
f 23/8/23 4/2/23 3/1/23
f 4/2/18 23/8/18 10/2/18
f 33/8/18 10/2/18 23/8/18
f 25/7/18 33/8/18 23/8/18
f 10/2/18 33/8/18 16/1/18
f 16/1/18 33/8/18 14/1/18
f 6/4/24 26/5/25 21/5/26
f 26/5/25 6/4/24 8/4/24
f 34/8/27 25/7/27 24/7/27
f 25/7/27 34/8/27 33/8/27
f 30/6/8 20/5/21 18/6/8
f 20/5/28 30/6/8 27/5/28
f 26/5/29 19/6/1 21/5/29
f 19/6/1 26/5/26 29/6/1
f 34/8/5 15/1/5 13/1/5
f 34/8/5 9/2/5 15/1/5
f 9/2/5 34/8/5 2/2/5
f 22/8/5 2/2/5 34/8/5
f 24/7/5 22/8/5 34/8/5
f 2/2/5 22/8/5 1/1/5
f 1/1/5 22/8/5 31/1/5
f 14/1/1 34/8/1 13/1/1
f 34/8/1 14/1/1 33/8/1
f 30/6/30 19/6/30 29/6/30
f 19/6/30 30/6/30 18/6/30
f 3/1/1 2/2/1 1/1/1
f 2/2/1 3/1/1 4/2/1
f 7/3/1 6/4/1 5/3/1
f 6/4/1 7/3/1 8/4/1
f 11/3/2 10/2/2 9/2/2
f 10/2/2 11/3/2 12/3/2
f 15/1/3 14/1/3 13/1/3
f 14/1/3 15/1/3 16/1/3
f 9/2/4 5/3/4 11/3/4
f 5/3/4 9/2/4 2/2/4
f 11/3/5 6/4/5 17/4/5
f 6/4/5 11/3/5 5/3/5
f 20/5/6 19/6/5 18/6/5
f 19/6/5 20/5/6 21/5/6
f 24/7/7 23/8/7 22/8/7
f 23/8/7 24/7/7 25/7/7
f 10/2/8 15/1/8 9/2/8
f 15/1/8 10/2/8 16/1/8
f 4/2/9 12/3/9 7/3/9
f 12/3/9 4/2/9 10/2/9
f 17/4/10 21/5/11 20/5/12
f 21/5/12 17/4/13 6/4/13
f 8/4/14 27/5/15 26/5/16
f 27/5/15 8/4/14 28/4/14
f 26/5/17 30/6/18 29/6/18
f 30/6/18 26/5/17 27/5/17
f 7/3/18 28/4/18 8/4/18
f 28/4/18 7/3/18 12/3/18
f 28/4/8 11/3/8 17/4/8
f 11/3/8 28/4/8 12/3/8
f 27/5/19 17/4/20 20/5/21
f 17/4/20 27/5/19 28/4/20
f 23/8/8 31/1/8 22/8/8
f 31/1/8 23/8/8 32/1/8
f 4/2/22 5/3/22 2/2/22
f 5/3/22 4/2/22 7/3/22
f 31/1/3 3/1/3 1/1/3
f 3/1/3 31/1/3 32/1/3
f 23/8/18 3/1/18 32/1/18
f 23/8/23 4/2/23 3/1/23
f 4/2/18 23/8/18 10/2/18
f 33/8/18 10/2/18 23/8/18
f 25/7/18 33/8/18 23/8/18
f 10/2/18 33/8/18 16/1/18
f 16/1/18 33/8/18 14/1/18
f 6/4/24 26/5/25 21/5/26
f 26/5/25 6/4/24 8/4/24
f 34/8/27 25/7/27 24/7/27
f 25/7/27 34/8/27 33/8/27
f 30/6/8 20/5/21 18/6/8
f 20/5/28 30/6/8 27/5/28
f 26/5/29 19/6/1 21/5/29
f 19/6/1 26/5/26 29/6/1
f 34/8/5 15/1/5 13/1/5
f 34/8/5 9/2/5 15/1/5
f 9/2/5 34/8/5 2/2/5
f 22/8/5 2/2/5 34/8/5
f 24/7/5 22/8/5 34/8/5
f 2/2/5 22/8/5 1/1/5
f 1/1/5 22/8/5 31/1/5
f 14/1/1 34/8/1 13/1/1
f 34/8/1 14/1/1 33/8/1
f 30/6/30 19/6/30 29/6/30
f 19/6/30 30/6/30 18/6/30
