# Blender 4.1.1
# www.blender.org
mtllib tree.040.mtl
o tree.040
v -2.472134 -0.295190 -16.290897
v -2.257496 -0.295190 -16.170338
v -2.519173 -0.295190 -16.458496
v -2.089897 -0.295190 -16.217377
v -2.398612 -0.295190 -16.673134
v -1.969337 -0.295190 -16.432014
v -2.231013 -0.295190 -16.720173
v -2.016375 -0.295190 -16.599613
v -2.250875 0.150532 -16.307796
v -2.358194 0.150532 -16.368076
v -2.381714 0.150532 -16.451876
v -2.167076 0.150532 -16.331316
v -2.106796 0.150532 -16.438635
v -2.130315 0.150532 -16.522434
v -2.237634 0.150532 -16.582714
v -2.321434 0.150532 -16.559195
v -2.101830 0.819166 -16.541729
v -2.235979 0.819166 -16.617079
v -2.340728 0.819166 -16.587679
v -2.252530 0.819166 -16.273432
v -2.386679 0.819166 -16.348782
v -2.072431 0.819166 -16.436979
v -2.147781 0.819166 -16.302832
v -2.416078 0.819166 -16.453531
v -2.291434 0.309673 -16.238403
v -2.351136 0.309673 -16.314331
v -2.195529 0.309673 -16.226929
v -2.119600 0.309673 -16.286631
v -2.339662 0.309673 -16.410236
v -2.108125 0.309673 -16.382536
v -2.263733 0.309673 -16.469938
v -2.167827 0.309673 -16.458466
v -2.326440 0.147933 -16.176079
v -2.176213 0.147933 -16.158106
v -2.419958 0.147933 -16.295015
v -2.401985 0.147933 -16.445244
v -2.057276 0.147933 -16.251623
v -2.283049 0.147933 -16.538761
v -2.039303 0.147933 -16.401852
v -2.132821 0.147933 -16.520788
v -2.851440 0.819166 -16.448412
v -2.551202 0.819166 -16.982937
v -2.600100 1.556122 -16.451384
v -2.422959 1.556122 -16.766756
v -1.925617 0.819166 -15.928386
v -2.538647 0.819166 -15.921137
v -2.053861 1.556122 -16.144566
v -2.415551 1.556122 -16.140289
v -1.625380 0.819166 -16.462910
v -1.876720 1.556122 -16.459938
v -2.061269 1.556122 -16.771032
v -1.938172 0.819166 -16.990185
v -2.411527 2.347869 -16.147453
v -2.591884 2.347869 -16.451481
v -2.278200 3.178330 -16.384821
v -2.319655 3.178330 -16.454700
v -2.198619 3.178330 -16.526501
v -2.279864 3.178330 -16.525541
v -2.065293 2.347869 -16.763868
v -2.418766 2.347869 -16.759689
v -1.884936 2.347869 -16.459841
v -2.058053 2.347869 -16.151634
v -2.157165 3.178330 -16.456621
v -2.196955 3.178330 -16.385780
v -2.232517 1.556122 -15.957263
v -2.667089 1.556122 -16.201359
v -2.235710 2.347869 -16.227289
v -2.434835 2.347869 -16.339136
v -1.803838 1.556122 -16.211565
v -2.039284 2.347869 -16.343813
v -2.672982 1.556122 -16.699757
v -2.437536 2.347869 -16.567509
v -2.244303 1.556122 -16.954060
v -2.241110 2.347869 -16.684032
v -1.809731 1.556122 -16.709965
v -2.041985 2.347869 -16.572186
v -2.803162 0.589264 -16.772877
v -2.585609 0.704215 -17.040936
v -2.918873 0.704215 -16.447615
v -1.557947 0.704215 -16.463707
v -1.681317 0.589264 -16.786142
v -1.905146 0.704215 -17.048983
v -2.246068 0.589264 -17.103359
v -2.571673 0.704215 -15.862339
v -2.795503 0.589264 -16.125179
v -1.673658 0.589264 -16.138445
v -1.891210 0.704215 -15.870385
v -2.230751 0.589264 -15.807963
v -1.711827 1.369209 -16.461887
v -1.756035 1.462665 -16.184715
v -1.762576 1.462665 -16.737938
v -2.231868 1.462665 -15.902439
v -2.496309 1.369209 -15.996513
v -2.714243 1.462665 -16.173386
v -2.507094 1.369209 -16.908583
v -2.244951 1.462665 -17.008883
v -2.720785 1.462665 -16.726606
v -1.980511 1.369209 -16.914808
v -2.764993 1.369209 -16.449434
v -1.969726 1.369209 -16.002739
v -1.846054 2.281588 -16.460300
v -1.917189 2.215307 -16.646217
v -2.046250 2.281588 -16.797771
v -2.242826 2.215307 -16.829124
v -2.438606 2.281588 -16.793131
v -2.038214 2.281588 -16.118191
v -2.233994 2.215307 -16.082197
v -2.430570 2.281588 -16.113550
v -2.564047 2.215307 -16.638569
v -2.630766 2.281588 -16.451021
v -1.912773 2.215307 -16.272755
v -2.559631 2.215307 -16.265104
vn -0.0000 -1.0000 -0.0000
vn -0.1190 0.2942 0.9483
vn -0.7540 0.2944 0.5873
vn -0.1092 0.2944 0.9494
vn -0.7479 0.2942 0.5951
vn -0.9483 0.2942 -0.1189
vn -0.7540 0.2944 0.5872
vn -0.7480 0.2942 0.5950
vn -0.9483 0.2943 -0.1189
vn -0.9494 0.2944 -0.1091
vn 0.5950 0.2942 0.7479
vn -0.1091 0.2944 0.9494
vn 0.5872 0.2944 0.7540
vn 0.5950 0.2942 0.7480
vn -0.1189 0.2942 0.9483
vn 0.9483 0.2942 0.1190
vn 0.5873 0.2944 0.7540
vn 0.9494 0.2944 0.1092
vn 0.5951 0.2942 0.7479
vn 0.1092 0.2944 -0.9494
vn 0.7479 0.2942 -0.5951
vn 0.7540 0.2944 -0.5873
vn 0.1190 0.2942 -0.9483
vn -0.9483 0.2942 -0.1190
vn -0.5873 0.2944 -0.7540
vn -0.9494 0.2944 -0.1092
vn -0.5951 0.2942 -0.7479
vn 0.7540 0.2944 -0.5872
vn 0.9483 0.2942 0.1189
vn 0.9494 0.2944 0.1091
vn 0.7480 0.2942 -0.5950
vn 0.1091 0.2944 -0.9494
vn -0.5950 0.2942 -0.7480
vn 0.1189 0.2942 -0.9483
vn -0.5872 0.2944 -0.7540
vn 0.7845 -0.0513 -0.6180
vn 0.1178 -0.0512 -0.9917
vn 0.7856 -0.0513 -0.6166
vn 0.1178 -0.0513 -0.9917
vn 0.1196 -0.0513 -0.9915
vn -0.6180 -0.0512 -0.7845
vn 0.1195 -0.0512 -0.9915
vn -0.6180 -0.0513 -0.7845
vn -0.6166 -0.0512 -0.7856
vn -0.7856 -0.0512 0.6166
vn -0.1196 -0.0513 0.9915
vn -0.1178 -0.0513 0.9917
vn -0.7845 -0.0513 0.6180
vn 0.9917 -0.0513 0.1178
vn 0.6180 -0.0513 0.7845
vn 0.9915 -0.0513 0.1196
vn 0.9917 -0.0512 0.1178
vn 0.6166 -0.0513 0.7856
vn -0.7856 -0.0513 0.6166
vn -0.9915 -0.0513 -0.1195
vn -0.9917 -0.0513 -0.1178
vn 0.9915 -0.0513 0.1195
vn 0.7856 -0.0512 -0.6166
vn 0.6166 -0.0512 0.7856
vn 0.6180 -0.0512 0.7845
vn -0.1195 -0.0512 0.9915
vn -0.9915 -0.0513 -0.1196
vn -0.9917 -0.0512 -0.1178
vn -0.6166 -0.0513 -0.7856
vn -0.0000 1.0000 -0.0000
vn 0.2471 0.4042 0.8806
vn -0.4479 0.4042 0.7975
vn -0.4479 0.4043 0.7975
vn -0.7975 0.4042 -0.4480
vn -0.2472 0.4042 -0.8806
vn -0.2472 0.4043 -0.8806
vn 0.4479 0.4042 -0.7975
vn 0.4479 0.4043 -0.7975
vn -0.2471 0.4042 -0.8807
vn -0.2471 0.4042 -0.8806
vn 0.7975 0.4042 0.4480
vn 0.2472 0.4042 0.8806
vn -0.8807 0.4042 0.2471
vn -0.7975 0.4042 -0.4479
vn -0.8806 0.4042 0.2471
vn -0.7975 0.4043 -0.4479
vn 0.8807 0.4042 -0.2471
vn 0.7975 0.4042 0.4479
vn 0.8806 0.4042 -0.2471
vn 0.7975 0.4043 0.4479
vn -0.8806 0.4042 0.2472
vn -0.4479 0.4043 0.7974
vn -0.4480 0.4042 0.7975
vn 0.4480 0.4042 -0.7975
vn 0.8806 0.4042 -0.2472
vn 0.4480 0.4043 -0.7974
vn -0.9464 0.3228 0.0112
vn -0.4829 0.3228 -0.8140
vn 0.4829 0.3228 0.8140
vn -0.4635 0.3228 0.8252
vn 0.9464 0.3228 -0.0112
vn 0.4635 0.3228 -0.8252
vn -0.3368 0.7260 0.5996
vn -0.9502 0.3115 0.0112
vn -0.4654 0.3115 0.8285
vn -0.9502 0.3115 0.0113
vn -0.3368 0.7260 0.5997
vn -0.6877 0.7260 0.0081
vn 0.4654 0.3115 -0.8285
vn -0.3509 0.7260 -0.5915
vn 0.3369 0.7260 -0.5996
vn -0.4848 0.3115 -0.8173
vn 0.6877 0.7260 -0.0082
vn 0.4848 0.3115 0.8173
vn 0.9502 0.3115 -0.0112
vn 0.4848 0.3115 0.8172
vn 0.3509 0.7260 0.5915
vn -0.4653 0.3115 0.8285
vn -0.3369 0.7260 0.5996
vn 0.3509 0.7259 0.5915
vn -0.6877 0.7259 0.0082
vn -0.3368 0.7259 0.5996
vn -0.6877 0.7259 0.0081
vn -0.3509 0.7259 -0.5915
vn 0.6877 0.7259 -0.0081
vn 0.6877 0.7259 -0.0082
vn 0.3368 0.7259 -0.5996
vn 0.6877 0.7260 -0.0081
vn 0.9502 0.3115 -0.0113
vn 0.6876 0.7260 -0.0082
vn 0.3368 0.7260 -0.5996
vn -0.6877 0.7260 0.0082
vn -0.4848 0.3115 -0.8172
vn -0.3508 0.7260 -0.5915
vn 0.0112 0.3228 0.9464
vn -0.8140 0.3228 0.4829
vn 0.8252 0.3228 0.4635
vn -0.8252 0.3228 -0.4635
vn -0.0112 0.3228 -0.9464
vn 0.8140 0.3228 -0.4829
vn -0.8625 0.5060 0.0102
vn -0.4401 0.5060 -0.7418
vn -0.7773 0.4530 -0.4366
vn 0.7773 -0.4530 0.4366
vn 0.4401 -0.5060 0.7418
vn 0.8625 -0.5060 -0.0102
vn 0.7668 0.4530 -0.4549
vn 0.8625 0.5060 -0.0102
vn 0.8624 0.5060 -0.0102
vn 0.4224 0.5060 -0.7520
vn -0.8625 -0.5060 0.0102
vn -0.7668 -0.4530 0.4549
vn -0.4224 -0.5060 0.7520
vn -0.0105 0.4530 -0.8915
vn 0.0105 -0.4530 0.8915
vn -0.4224 0.5060 0.7520
vn -0.7668 0.4530 0.4549
vn -0.8624 0.5060 0.0102
vn 0.4224 -0.5060 -0.7520
vn 0.7668 -0.4530 -0.4549
vn 0.4401 0.5060 0.7418
vn 0.7773 0.4530 0.4366
vn -0.7773 -0.4530 -0.4366
vn -0.4401 -0.5060 -0.7418
vn -0.8624 -0.5060 0.0102
vn 0.0105 0.4530 0.8915
vn 0.0105 0.4529 0.8915
vn -0.0105 -0.4530 -0.8915
vn 0.7418 0.5060 -0.4401
vn 0.7520 0.5060 0.4224
vn 0.8915 0.4530 -0.0105
vn -0.8915 -0.4530 0.0105
vn -0.7520 -0.5060 -0.4224
vn -0.7418 -0.5060 0.4401
vn 0.0102 0.5060 0.8624
vn -0.4366 0.4530 0.7773
vn 0.0102 0.5060 0.8625
vn -0.7418 0.5060 0.4401
vn -0.0102 -0.5060 -0.8624
vn 0.4366 -0.4530 -0.7773
vn -0.0102 -0.5061 -0.8624
vn 0.7418 -0.5060 -0.4401
vn -0.0102 -0.5060 -0.8625
vn -0.7520 0.5060 -0.4224
vn -0.0102 0.5060 -0.8624
vn -0.4549 0.4530 -0.7668
vn -0.0102 0.5060 -0.8625
vn 0.4549 -0.4530 0.7668
vn 0.0102 -0.5060 0.8625
vn 0.7520 -0.5060 0.4224
vn 0.4366 0.4530 -0.7773
vn -0.4366 -0.4530 0.7773
vn -0.8915 0.4530 0.0105
vn 0.8915 -0.4530 -0.0105
vn 0.4549 0.4530 0.7668
vn -0.4549 -0.4530 -0.7668
vn 0.8624 0.5061 -0.0102
vn 0.7668 0.4529 -0.4549
vn -0.7668 -0.4529 0.4549
vn 0.4224 0.5059 -0.7521
vn -0.0105 0.4529 -0.8915
vn -0.4224 -0.5060 0.7521
vn 0.0105 -0.4529 0.8915
vn -0.4224 0.5061 0.7520
vn -0.4400 0.5061 -0.7418
vn 0.8624 -0.5061 -0.0102
vn -0.7667 0.4530 0.4549
vn 0.7667 -0.4530 -0.4549
vn 0.4224 -0.5061 -0.7520
vt 0.593750 0.025000
vt 0.593750 0.104996
vt 0.593750 0.225000
vt 0.093750 0.475000
vt 0.093750 0.275000
vt 0.093750 0.425000
vt 0.093750 0.348778
vt 0.093750 0.338765
vt 0.093750 0.344099
vt 0.093750 0.375000
vt 0.093750 0.325000
s 0
usemtl colormap.043
f 3/1/1 2/1/1 1/1/1
f 2/1/1 3/1/1 4/1/1
f 4/1/1 3/1/1 5/1/1
f 4/1/1 5/1/1 6/1/1
f 6/1/1 5/1/1 7/1/1
f 6/1/1 7/1/1 8/1/1
f 9/2/2 1/1/3 2/1/4
f 1/1/3 9/2/2 10/2/5
f 11/2/6 1/1/7 10/2/8
f 1/1/7 11/2/9 3/1/10
f 12/2/11 2/1/12 4/1/13
f 2/1/12 12/2/14 9/2/15
f 13/2/16 4/1/17 6/1/18
f 4/1/17 13/2/16 12/2/19
f 7/1/20 14/2/21 8/1/22
f 14/2/21 7/1/20 15/2/23
f 11/2/24 5/1/25 3/1/26
f 5/1/25 11/2/24 16/2/27
f 8/1/28 13/2/29 6/1/30
f 13/2/29 8/1/28 14/2/31
f 7/1/32 16/2/33 15/2/34
f 16/2/33 7/1/32 5/1/35
f 14/2/36 18/3/37 17/3/38
f 18/3/39 14/2/36 15/2/40
f 16/2/41 18/3/39 15/2/42
f 18/3/39 16/2/43 19/3/44
f 21/3/45 9/2/46 20/3/47
f 9/2/46 21/3/45 10/2/48
f 22/3/49 12/2/50 13/2/51
f 12/2/50 22/3/52 23/3/53
f 21/3/54 11/2/55 10/2/48
f 11/2/55 21/3/45 24/3/56
f 13/2/57 17/3/58 22/3/49
f 17/3/38 13/2/57 14/2/36
f 20/3/47 12/2/50 23/3/59
f 12/2/60 20/3/47 9/2/61
f 24/3/56 16/2/43 11/2/62
f 16/2/43 24/3/63 19/3/64
f 27/4/65 26/4/65 25/4/65
f 26/4/65 27/4/65 28/4/65
f 26/4/65 28/4/65 29/4/65
f 29/4/65 28/4/65 30/4/65
f 29/4/65 30/4/65 31/4/65
f 31/4/65 30/4/65 32/4/65
f 35/5/1 34/5/1 33/5/1
f 34/5/1 35/5/1 36/5/1
f 34/5/1 36/5/1 37/5/1
f 37/5/1 36/5/1 38/5/1
f 37/5/1 38/5/1 39/5/1
f 39/5/1 38/5/1 40/5/1
f 27/4/66 33/5/67 34/5/66
f 33/5/67 27/4/66 25/4/68
f 29/4/69 38/5/70 36/5/69
f 38/5/70 29/4/69 31/4/71
f 40/5/72 31/4/70 32/4/73
f 31/4/74 40/5/72 38/5/75
f 28/4/76 34/5/77 37/5/76
f 34/5/77 28/4/76 27/4/77
f 26/4/78 36/5/79 35/5/80
f 36/5/79 26/4/80 29/4/81
f 30/4/82 37/5/83 39/5/84
f 37/5/83 30/4/84 28/4/85
f 26/4/86 33/5/87 25/4/88
f 33/5/88 26/4/86 35/5/86
f 40/5/89 30/4/90 39/5/90
f 30/4/90 40/5/91 32/4/89
f 43/6/92 42/7/93 41/7/92
f 42/7/93 43/6/92 44/6/93
f 47/6/94 46/7/95 45/7/94
f 46/7/95 47/6/94 48/6/95
f 50/6/96 45/7/94 49/7/96
f 45/7/94 50/6/96 47/6/94
f 48/6/95 41/7/92 46/7/95
f 41/7/92 48/6/95 43/6/92
f 52/7/97 44/6/93 51/6/97
f 44/6/93 52/7/97 42/7/93
f 52/7/97 50/6/96 49/7/96
f 50/6/96 52/7/97 51/6/97
f 41/7/1 45/7/1 46/7/1
f 45/7/1 41/7/1 42/7/1
f 45/7/1 42/7/1 49/7/1
f 49/7/1 42/7/1 52/7/1
f 55/6/98 54/8/99 53/8/100
f 54/8/101 55/6/102 56/6/103
f 59/8/104 58/6/105 57/6/106
f 58/6/105 59/8/104 60/8/107
f 63/6/108 62/8/109 61/8/110
f 62/8/111 63/6/108 64/6/112
f 64/6/112 53/8/113 62/8/109
f 53/8/100 64/6/112 55/6/114
f 64/6/115 56/6/116 55/6/117
f 56/6/118 64/6/115 58/6/119
f 58/6/119 64/6/115 63/6/120
f 58/6/119 63/6/121 57/6/122
f 59/8/104 63/6/123 61/8/124
f 63/6/125 59/8/104 57/6/126
f 54/8/1 62/8/1 53/8/1
f 62/8/1 54/8/1 60/8/1
f 62/8/1 60/8/1 61/8/1
f 61/8/1 60/8/1 59/8/1
f 56/6/127 60/8/107 54/8/99
f 60/8/128 56/6/127 58/6/129
f 67/6/130 66/9/131 65/9/130
f 66/9/131 67/6/130 68/6/131
f 70/6/132 65/9/130 69/9/132
f 65/9/130 70/6/132 67/6/130
f 68/6/131 71/9/133 66/9/131
f 71/9/133 68/6/131 72/6/133
f 72/6/133 73/9/134 71/9/133
f 73/9/134 72/6/133 74/6/134
f 71/9/1 65/9/1 66/9/1
f 65/9/1 71/9/1 69/9/1
f 69/9/1 71/9/1 73/9/1
f 69/9/1 73/9/1 75/9/1
f 76/6/135 69/9/132 75/9/135
f 69/9/132 76/6/135 70/6/132
f 73/9/134 76/6/135 75/9/135
f 76/6/135 73/9/134 74/6/134
f 79/10/136 78/10/137 77/11/138
f 78/10/137 79/10/136 41/6/136
f 78/10/137 41/6/136 42/6/137
f 77/11/139 78/10/140 79/10/141
f 41/6/141 79/10/141 78/10/140
f 42/6/140 41/6/141 78/10/140
f 81/11/142 49/6/143 80/10/143
f 49/6/144 81/11/142 52/6/145
f 52/6/145 81/11/142 82/10/145
f 80/10/146 49/6/146 81/11/147
f 52/6/148 81/11/147 49/6/146
f 82/10/148 81/11/147 52/6/148
f 82/10/145 42/6/137 52/6/145
f 42/6/137 82/10/145 83/11/149
f 42/6/137 83/11/149 78/10/137
f 52/6/148 42/6/140 82/10/148
f 83/11/150 82/10/148 42/6/140
f 78/10/140 83/11/150 42/6/140
f 46/6/151 85/11/152 84/10/151
f 85/11/152 46/6/151 41/6/153
f 85/11/152 41/6/153 79/10/136
f 84/10/154 85/11/155 46/6/154
f 41/6/141 46/6/154 85/11/155
f 79/10/141 41/6/141 85/11/155
f 80/10/143 87/10/156 86/11/157
f 87/10/156 80/10/143 49/6/143
f 87/10/156 49/6/143 45/6/156
f 86/11/158 87/10/159 80/10/146
f 49/6/146 80/10/146 87/10/159
f 45/6/159 49/6/160 87/10/159
f 45/6/156 88/11/161 87/10/156
f 88/11/161 45/6/156 46/6/151
f 88/11/162 46/6/151 84/10/151
f 87/10/159 88/11/163 45/6/159
f 46/6/154 45/6/159 88/11/163
f 84/10/154 46/6/154 88/11/163
f 91/10/164 90/10/165 89/11/166
f 90/10/165 91/10/164 75/6/164
f 90/10/165 75/6/164 69/6/165
f 89/11/167 90/10/168 91/10/169
f 75/6/169 91/10/169 90/10/168
f 69/6/168 75/6/169 90/10/168
f 65/6/170 93/11/171 92/10/172
f 93/11/171 65/6/172 66/6/173
f 93/11/171 66/6/173 94/10/173
f 92/10/174 93/11/175 65/6/176
f 66/6/177 65/6/178 93/11/175
f 94/10/177 66/6/177 93/11/175
f 97/10/179 96/10/180 95/11/181
f 96/10/182 97/10/179 71/6/179
f 96/10/182 71/6/179 73/6/182
f 95/11/183 96/10/184 97/10/185
f 71/6/185 97/10/185 96/10/184
f 73/6/184 71/6/185 96/10/184
f 98/11/186 75/6/164 91/10/164
f 75/6/164 98/11/186 73/6/182
f 73/6/182 98/11/186 96/10/182
f 91/10/169 75/6/169 98/11/187
f 73/6/184 98/11/187 75/6/169
f 96/10/184 98/11/187 73/6/184
f 94/10/173 97/10/179 99/11/188
f 97/10/179 94/10/173 66/6/173
f 97/10/179 66/6/173 71/6/179
f 99/11/189 97/10/185 94/10/177
f 66/6/177 94/10/177 97/10/185
f 71/6/185 66/6/177 97/10/185
f 90/10/165 92/10/172 100/11/190
f 92/10/172 90/10/165 69/6/165
f 92/10/172 69/6/165 65/6/172
f 100/11/191 92/10/178 90/10/168
f 69/6/168 90/10/168 92/10/178
f 65/6/178 69/6/168 92/10/178
f 102/11/142 61/6/144 101/10/143
f 61/6/192 102/11/142 59/6/145
f 59/6/145 102/11/193 103/10/145
f 101/10/146 61/6/146 102/11/147
f 59/6/148 102/11/147 61/6/146
f 103/10/148 102/11/194 59/6/148
f 103/10/195 60/6/137 59/6/145
f 60/6/137 103/10/145 104/11/149
f 60/6/137 104/11/196 105/10/137
f 59/6/148 60/6/140 103/10/197
f 104/11/150 103/10/148 60/6/140
f 105/10/140 104/11/198 60/6/140
f 62/6/156 107/11/161 106/10/156
f 107/11/161 62/6/156 53/6/151
f 107/11/161 53/6/199 108/10/151
f 106/10/159 107/11/163 62/6/159
f 53/6/154 62/6/159 107/11/163
f 108/10/154 53/6/154 107/11/163
f 110/10/153 105/10/200 109/11/138
f 105/10/137 110/10/136 54/6/136
f 105/10/137 54/6/136 60/6/137
f 109/11/139 105/10/140 110/10/201
f 54/6/141 110/10/141 105/10/140
f 60/6/140 54/6/141 105/10/140
f 101/10/143 106/10/156 111/11/157
f 106/10/156 101/10/143 61/6/143
f 106/10/156 61/6/143 62/6/156
f 111/11/158 106/10/159 101/10/146
f 61/6/146 101/10/146 106/10/159
f 62/6/159 61/6/146 106/10/159
f 53/6/199 112/11/202 108/10/151
f 112/11/152 53/6/151 54/6/136
f 112/11/152 54/6/153 110/10/136
f 108/10/154 112/11/203 53/6/204
f 54/6/141 53/6/154 112/11/155
f 110/10/141 54/6/141 112/11/155
f 3/1/1 2/1/1 1/1/1
f 2/1/1 3/1/1 4/1/1
f 4/1/1 3/1/1 5/1/1
f 4/1/1 5/1/1 6/1/1
f 6/1/1 5/1/1 7/1/1
f 6/1/1 7/1/1 8/1/1
f 9/2/2 1/1/3 2/1/4
f 1/1/3 9/2/2 10/2/5
f 11/2/6 1/1/7 10/2/8
f 1/1/7 11/2/9 3/1/10
f 12/2/11 2/1/12 4/1/13
f 2/1/12 12/2/14 9/2/15
f 13/2/16 4/1/17 6/1/18
f 4/1/17 13/2/16 12/2/19
f 7/1/20 14/2/21 8/1/22
f 14/2/21 7/1/20 15/2/23
f 11/2/24 5/1/25 3/1/26
f 5/1/25 11/2/24 16/2/27
f 8/1/28 13/2/29 6/1/30
f 13/2/29 8/1/28 14/2/31
f 7/1/32 16/2/33 15/2/34
f 16/2/33 7/1/32 5/1/35
f 14/2/36 18/3/37 17/3/38
f 18/3/39 14/2/36 15/2/40
f 16/2/41 18/3/39 15/2/42
f 18/3/39 16/2/43 19/3/44
f 21/3/45 9/2/46 20/3/47
f 9/2/46 21/3/45 10/2/48
f 22/3/49 12/2/50 13/2/51
f 12/2/50 22/3/52 23/3/53
f 21/3/54 11/2/55 10/2/48
f 11/2/55 21/3/45 24/3/56
f 13/2/57 17/3/58 22/3/49
f 17/3/38 13/2/57 14/2/36
f 20/3/47 12/2/50 23/3/59
f 12/2/60 20/3/47 9/2/61
f 24/3/56 16/2/43 11/2/62
f 16/2/43 24/3/63 19/3/64
f 27/4/65 26/4/65 25/4/65
f 26/4/65 27/4/65 28/4/65
f 26/4/65 28/4/65 29/4/65
f 29/4/65 28/4/65 30/4/65
f 29/4/65 30/4/65 31/4/65
f 31/4/65 30/4/65 32/4/65
f 35/5/1 34/5/1 33/5/1
f 34/5/1 35/5/1 36/5/1
f 34/5/1 36/5/1 37/5/1
f 37/5/1 36/5/1 38/5/1
f 37/5/1 38/5/1 39/5/1
f 39/5/1 38/5/1 40/5/1
f 27/4/66 33/5/67 34/5/66
f 33/5/67 27/4/66 25/4/68
f 29/4/69 38/5/70 36/5/69
f 38/5/70 29/4/69 31/4/71
f 40/5/72 31/4/70 32/4/73
f 31/4/74 40/5/72 38/5/75
f 28/4/76 34/5/77 37/5/76
f 34/5/77 28/4/76 27/4/77
f 26/4/78 36/5/79 35/5/80
f 36/5/79 26/4/80 29/4/81
f 30/4/82 37/5/83 39/5/84
f 37/5/83 30/4/84 28/4/85
f 26/4/86 33/5/87 25/4/88
f 33/5/88 26/4/86 35/5/86
f 40/5/89 30/4/90 39/5/90
f 30/4/90 40/5/91 32/4/89
f 43/6/92 42/7/93 41/7/92
f 42/7/93 43/6/92 44/6/93
f 47/6/94 46/7/95 45/7/94
f 46/7/95 47/6/94 48/6/95
f 50/6/96 45/7/94 49/7/96
f 45/7/94 50/6/96 47/6/94
f 48/6/95 41/7/92 46/7/95
f 41/7/92 48/6/95 43/6/92
f 52/7/97 44/6/93 51/6/97
f 44/6/93 52/7/97 42/7/93
f 52/7/97 50/6/96 49/7/96
f 50/6/96 52/7/97 51/6/97
f 41/7/1 45/7/1 46/7/1
f 45/7/1 41/7/1 42/7/1
f 45/7/1 42/7/1 49/7/1
f 49/7/1 42/7/1 52/7/1
f 55/6/98 54/8/99 53/8/100
f 54/8/101 55/6/102 56/6/103
f 59/8/104 58/6/105 57/6/106
f 58/6/105 59/8/104 60/8/107
f 63/6/108 62/8/109 61/8/110
f 62/8/111 63/6/108 64/6/112
f 64/6/112 53/8/113 62/8/109
f 53/8/100 64/6/112 55/6/114
f 64/6/115 56/6/116 55/6/117
f 56/6/118 64/6/115 58/6/119
f 58/6/119 64/6/115 63/6/120
f 58/6/119 63/6/121 57/6/122
f 59/8/104 63/6/123 61/8/124
f 63/6/125 59/8/104 57/6/126
f 54/8/1 62/8/1 53/8/1
f 62/8/1 54/8/1 60/8/1
f 62/8/1 60/8/1 61/8/1
f 61/8/1 60/8/1 59/8/1
f 56/6/127 60/8/107 54/8/99
f 60/8/128 56/6/127 58/6/129
f 67/6/130 66/9/131 65/9/130
f 66/9/131 67/6/130 68/6/131
f 70/6/132 65/9/130 69/9/132
f 65/9/130 70/6/132 67/6/130
f 68/6/131 71/9/133 66/9/131
f 71/9/133 68/6/131 72/6/133
f 72/6/133 73/9/134 71/9/133
f 73/9/134 72/6/133 74/6/134
f 71/9/1 65/9/1 66/9/1
f 65/9/1 71/9/1 69/9/1
f 69/9/1 71/9/1 73/9/1
f 69/9/1 73/9/1 75/9/1
f 76/6/135 69/9/132 75/9/135
f 69/9/132 76/6/135 70/6/132
f 73/9/134 76/6/135 75/9/135
f 76/6/135 73/9/134 74/6/134
f 79/10/136 78/10/137 77/11/138
f 78/10/137 79/10/136 41/6/136
f 78/10/137 41/6/136 42/6/137
f 77/11/139 78/10/140 79/10/141
f 41/6/141 79/10/141 78/10/140
f 42/6/140 41/6/141 78/10/140
f 81/11/142 49/6/143 80/10/143
f 49/6/144 81/11/142 52/6/145
f 52/6/145 81/11/142 82/10/145
f 80/10/146 49/6/146 81/11/147
f 52/6/148 81/11/147 49/6/146
f 82/10/148 81/11/147 52/6/148
f 82/10/145 42/6/137 52/6/145
f 42/6/137 82/10/145 83/11/149
f 42/6/137 83/11/149 78/10/137
f 52/6/148 42/6/140 82/10/148
f 83/11/150 82/10/148 42/6/140
f 78/10/140 83/11/150 42/6/140
f 46/6/151 85/11/152 84/10/151
f 85/11/152 46/6/151 41/6/153
f 85/11/152 41/6/153 79/10/136
f 84/10/154 85/11/155 46/6/154
f 41/6/141 46/6/154 85/11/155
f 79/10/141 41/6/141 85/11/155
f 80/10/143 87/10/156 86/11/157
f 87/10/156 80/10/143 49/6/143
f 87/10/156 49/6/143 45/6/156
f 86/11/158 87/10/159 80/10/146
f 49/6/146 80/10/146 87/10/159
f 45/6/159 49/6/160 87/10/159
f 45/6/156 88/11/161 87/10/156
f 88/11/161 45/6/156 46/6/151
f 88/11/162 46/6/151 84/10/151
f 87/10/159 88/11/163 45/6/159
f 46/6/154 45/6/159 88/11/163
f 84/10/154 46/6/154 88/11/163
f 91/10/164 90/10/165 89/11/166
f 90/10/165 91/10/164 75/6/164
f 90/10/165 75/6/164 69/6/165
f 89/11/167 90/10/168 91/10/169
f 75/6/169 91/10/169 90/10/168
f 69/6/168 75/6/169 90/10/168
f 65/6/170 93/11/171 92/10/172
f 93/11/171 65/6/172 66/6/173
f 93/11/171 66/6/173 94/10/173
f 92/10/174 93/11/175 65/6/176
f 66/6/177 65/6/178 93/11/175
f 94/10/177 66/6/177 93/11/175
f 97/10/179 96/10/180 95/11/181
f 96/10/182 97/10/179 71/6/179
f 96/10/182 71/6/179 73/6/182
f 95/11/183 96/10/184 97/10/185
f 71/6/185 97/10/185 96/10/184
f 73/6/184 71/6/185 96/10/184
f 98/11/186 75/6/164 91/10/164
f 75/6/164 98/11/186 73/6/182
f 73/6/182 98/11/186 96/10/182
f 91/10/169 75/6/169 98/11/187
f 73/6/184 98/11/187 75/6/169
f 96/10/184 98/11/187 73/6/184
f 94/10/173 97/10/179 99/11/188
f 97/10/179 94/10/173 66/6/173
f 97/10/179 66/6/173 71/6/179
f 99/11/189 97/10/185 94/10/177
f 66/6/177 94/10/177 97/10/185
f 71/6/185 66/6/177 97/10/185
f 90/10/165 92/10/172 100/11/190
f 92/10/172 90/10/165 69/6/165
f 92/10/172 69/6/165 65/6/172
f 100/11/191 92/10/178 90/10/168
f 69/6/168 90/10/168 92/10/178
f 65/6/178 69/6/168 92/10/178
f 102/11/142 61/6/144 101/10/143
f 61/6/192 102/11/142 59/6/145
f 59/6/145 102/11/193 103/10/145
f 101/10/146 61/6/146 102/11/147
f 59/6/148 102/11/147 61/6/146
f 103/10/148 102/11/194 59/6/148
f 103/10/195 60/6/137 59/6/145
f 60/6/137 103/10/145 104/11/149
f 60/6/137 104/11/196 105/10/137
f 59/6/148 60/6/140 103/10/197
f 104/11/150 103/10/148 60/6/140
f 105/10/140 104/11/198 60/6/140
f 62/6/156 107/11/161 106/10/156
f 107/11/161 62/6/156 53/6/151
f 107/11/161 53/6/199 108/10/151
f 106/10/159 107/11/163 62/6/159
f 53/6/154 62/6/159 107/11/163
f 108/10/154 53/6/154 107/11/163
f 110/10/153 105/10/200 109/11/138
f 105/10/137 110/10/136 54/6/136
f 105/10/137 54/6/136 60/6/137
f 109/11/139 105/10/140 110/10/201
f 54/6/141 110/10/141 105/10/140
f 60/6/140 54/6/141 105/10/140
f 101/10/143 106/10/156 111/11/157
f 106/10/156 101/10/143 61/6/143
f 106/10/156 61/6/143 62/6/156
f 111/11/158 106/10/159 101/10/146
f 61/6/146 101/10/146 106/10/159
f 62/6/159 61/6/146 106/10/159
f 53/6/199 112/11/202 108/10/151
f 112/11/152 53/6/151 54/6/136
f 112/11/152 54/6/153 110/10/136
f 108/10/154 112/11/203 53/6/204
f 54/6/141 53/6/154 112/11/155
f 110/10/141 54/6/141 112/11/155
