# Blender 4.1.1
# www.blender.org
mtllib path_short.007.mtl
o path_short.007
v -0.858217 -0.029446 -1.346028
v -1.088226 -0.029504 -1.346019
v -0.858270 -0.029504 -1.116063
v -1.088226 -0.029504 -1.116063
v -1.088226 -0.018006 -1.311526
v -0.856779 -0.016387 -1.311788
v -1.088226 -0.018006 -1.150557
v -0.858270 -0.018006 -1.150557
vn 0.5368 -0.1352 0.8328
vn -0.5387 -0.1352 -0.8316
vn 0.5237 -0.1536 -0.8379
vn -0.5386 -0.1350 0.8317
vn -0.6735 0.7294 0.1198
vn 0.7054 0.6952 -0.1379
vn -0.6743 0.7287 -0.1198
vn 0.6626 0.7382 0.1264
vt -3.937008 3.937008
vt 3.937008 -3.937008
vt 3.937008 3.937008
vt -3.937008 -3.937008
vt 2.755906 -3.937008
vt -2.755906 3.937008
vt -2.755906 -3.937008
vt 2.755906 3.937008
vt 3.937008 0.000000
vt -2.755906 0.393701
vt -3.937008 0.000000
vt 2.755906 0.393701
vt -3.937008 0.000000
vt 3.937008 0.000000
vt -3.937008 -3.734974
vt 3.937008 -2.489982
vt -3.937008 -2.489982
vt 3.937008 -3.734974
s 1
usemtl border.008
f 3/1/1 2/2/2 1/3/3
f 2/2/2 3/1/1 4/4/4
f 7/5/5 6/6/6 5/7/7
f 6/6/6 7/5/5 8/8/8
f 4/9/4 5/10/7 2/11/2
f 5/10/7 4/9/4 7/12/5
f 6/12/6 3/13/1 1/14/3
f 3/13/1 6/12/6 8/10/8
usemtl wood.007
f 4/15/4 8/16/8 7/17/5
f 8/16/8 4/15/4 3/18/1
f 5/16/7 1/15/3 2/18/2
f 1/15/3 5/16/7 6/17/6
