# Blender 4.1.1
# www.blender.org
mtllib tree.025.mtl
o tree.025
v -1.245083 -0.382804 6.787643
v -1.041106 -0.382804 6.649810
v -1.415987 -0.382804 6.754571
v -1.008034 -0.382804 6.478906
v -1.553820 -0.382804 6.550595
v -1.145867 -0.382804 6.274930
v -1.520748 -0.382804 6.379691
v -1.316772 -0.382804 6.241858
v -1.161017 0.062918 6.582281
v -1.263005 0.062918 6.651197
v -1.348457 0.062918 6.634661
v -1.144481 0.062918 6.496828
v -1.213397 0.062918 6.394840
v -1.298849 0.062918 6.378304
v -1.400837 0.062918 6.447220
v -1.417373 0.062918 6.532673
v -1.303330 0.731552 6.344193
v -1.430815 0.731552 6.430338
v -1.451485 0.731552 6.537153
v -1.131039 0.731552 6.599163
v -1.258524 0.731552 6.685308
v -1.196514 0.731552 6.364862
v -1.110369 0.731552 6.492348
v -1.365340 0.731552 6.664639
v -1.117163 0.222058 6.649640
v -1.211798 0.222058 6.668976
v -1.063920 0.222058 6.569051
v -1.083256 0.222058 6.474417
v -1.292387 0.222058 6.615733
v -1.163845 0.222058 6.421173
v -1.311723 0.222058 6.521099
v -1.258479 0.222058 6.440509
v -1.077142 0.060318 6.708868
v -0.993740 0.060318 6.582632
v -1.225378 0.060318 6.739156
v -1.351614 0.060318 6.655755
v -1.024028 0.060318 6.434395
v -1.381903 0.060318 6.507518
v -1.150265 0.060318 6.350993
v -1.298501 0.060318 6.381282
v -1.555901 0.731552 7.056113
v -1.899152 0.731552 6.548140
v -1.445902 1.468507 6.830102
v -1.648422 1.468507 6.530396
v -0.676066 0.731552 6.461583
v -0.944357 0.731552 7.012835
v -0.926796 1.468507 6.479327
v -1.085089 1.468507 6.804568
v -1.019318 0.731552 5.953610
v -1.129316 1.468507 6.179621
v -1.490129 1.468507 6.205156
v -1.630861 0.731552 5.996889
v -1.089690 2.260255 6.797760
v -1.442306 2.260255 6.822714
v -1.242118 3.090716 6.572183
v -1.323166 3.090716 6.577919
v -1.333100 3.090716 6.437540
v -1.368657 3.090716 6.510597
v -1.485528 2.260255 6.211964
v -1.640226 2.260255 6.529816
v -1.132912 2.260255 6.187009
v -0.934992 2.260255 6.479907
v -1.252052 3.090716 6.431804
v -1.206561 3.090716 6.499126
v -0.839437 1.468507 6.722985
v -1.252424 1.468507 7.002051
v -1.082252 2.260255 6.604808
v -1.271487 2.260255 6.732679
v -0.874623 1.468507 6.225795
v -1.098374 2.260255 6.376990
v -1.700595 1.468507 6.783928
v -1.476844 2.260255 6.632733
v -1.735781 1.468507 6.286738
v -1.492966 2.260255 6.404915
v -1.322795 1.468507 6.007672
v -1.303732 2.260255 6.277044
v -1.824308 0.501650 6.867525
v -1.966422 0.616601 6.552901
v -1.585413 0.616601 7.116751
v -0.989806 0.616601 5.892973
v -1.333335 0.501649 5.858735
v -1.668619 0.616601 5.941012
v -1.870034 0.501649 6.221398
v -0.906600 0.616601 7.068711
v -1.241883 0.501649 7.150988
v -0.750910 0.501649 6.142199
v -0.608796 0.616601 6.456823
v -0.705184 0.501649 6.788325
v -1.057151 1.281595 6.031345
v -0.829195 1.375051 6.195098
v -1.326665 1.375051 5.952981
v -0.790138 1.375051 6.746978
v -0.992761 1.281595 6.941203
v -1.248553 1.375051 7.056742
v -1.812915 1.281595 6.542037
v -1.785080 1.375051 6.262745
v -1.746024 1.375051 6.814625
v -1.582457 1.281595 6.068521
v -1.518067 1.281595 6.978378
v -0.762303 1.281595 6.467686
v -1.115895 2.193974 6.152045
v -1.313975 2.127692 6.132304
v -1.507300 2.193974 6.179745
v -1.623436 2.127692 6.341416
v -1.679014 2.193974 6.532561
v -0.896204 2.193974 6.477162
v -0.951782 2.127692 6.668307
v -1.067918 2.193974 6.829978
v -1.597071 2.127692 6.713974
v -1.459323 2.193974 6.857677
v -0.978148 2.127692 6.295750
v -1.261244 2.127692 6.877419
vn -0.0000 -1.0000 -0.0000
vn 0.7944 0.2942 0.5314
vn 0.1870 0.2944 0.9372
vn 0.7998 0.2944 0.5231
vn 0.1967 0.2942 0.9353
vn -0.5313 0.2942 0.7944
vn 0.1966 0.2942 0.9353
vn -0.5313 0.2943 0.7944
vn -0.5231 0.2944 0.7998
vn 0.9353 0.2942 -0.1966
vn 0.9372 0.2944 -0.1870
vn 0.7944 0.2942 0.5313
vn 0.5314 0.2942 -0.7944
vn 0.5231 0.2944 -0.7998
vn 0.9353 0.2942 -0.1967
vn -0.7998 0.2944 -0.5232
vn -0.1967 0.2942 -0.9353
vn -0.1870 0.2944 -0.9372
vn -0.7944 0.2942 -0.5314
vn -0.5314 0.2942 0.7944
vn -0.9372 0.2944 0.1870
vn -0.5232 0.2944 0.7998
vn -0.9353 0.2942 0.1967
vn 0.5313 0.2943 -0.7944
vn 0.5313 0.2942 -0.7944
vn -0.1966 0.2942 -0.9353
vn -0.7998 0.2944 -0.5231
vn -0.9353 0.2942 0.1966
vn -0.7944 0.2942 -0.5313
vn -0.2009 -0.0513 -0.9783
vn -0.8337 -0.0512 -0.5498
vn -0.1991 -0.0513 -0.9786
vn -0.8337 -0.0513 -0.5498
vn -0.8327 -0.0513 -0.5513
vn -0.9783 -0.0512 0.2008
vn -0.8328 -0.0512 -0.5513
vn -0.9783 -0.0513 0.2008
vn -0.9786 -0.0512 0.1991
vn 0.1991 -0.0512 0.9786
vn 0.8327 -0.0513 0.5513
vn 0.8337 -0.0513 0.5498
vn 0.2009 -0.0513 0.9783
vn 0.5498 -0.0513 -0.8337
vn 0.9783 -0.0513 -0.2009
vn 0.5513 -0.0513 -0.8327
vn 0.9783 -0.0513 -0.2008
vn 0.5498 -0.0512 -0.8337
vn 0.9786 -0.0513 -0.1991
vn 0.1991 -0.0513 0.9786
vn -0.5513 -0.0513 0.8328
vn 0.2008 -0.0512 0.9783
vn -0.5498 -0.0513 0.8337
vn 0.5513 -0.0513 -0.8328
vn -0.1991 -0.0512 -0.9786
vn -0.2008 -0.0513 -0.9783
vn 0.9786 -0.0512 -0.1991
vn 0.9783 -0.0512 -0.2008
vn 0.8328 -0.0512 0.5513
vn -0.9783 -0.0513 0.2009
vn -0.5513 -0.0513 0.8327
vn -0.5498 -0.0512 0.8337
vn -0.9786 -0.0513 0.1991
vn -0.0000 1.0000 -0.0000
vn 0.8980 0.4042 0.1738
vn 0.5121 0.4042 0.7578
vn 0.5121 0.4042 0.7579
vn 0.5121 0.4043 0.7578
vn -0.7579 0.4042 0.5121
vn -0.8980 0.4042 -0.1737
vn -0.8980 0.4043 -0.1737
vn -0.5121 0.4042 -0.7578
vn -0.8980 0.4042 -0.1738
vn -0.5121 0.4043 -0.7578
vn 0.7579 0.4042 -0.5121
vn 0.8980 0.4042 0.1737
vn 0.8980 0.4043 0.1737
vn -0.1738 0.4042 0.8980
vn -0.7578 0.4042 0.5121
vn -0.7578 0.4043 0.5121
vn 0.1738 0.4042 -0.8980
vn 0.7578 0.4042 -0.5121
vn 0.7578 0.4043 -0.5121
vn -0.1737 0.4042 0.8980
vn 0.5121 0.4043 0.7579
vn -0.5121 0.4042 -0.7579
vn 0.1737 0.4042 -0.8980
vn -0.5121 0.4043 -0.7579
vn -0.4142 0.3228 0.8510
vn -0.9441 0.3228 0.0668
vn 0.9441 0.3228 -0.0668
vn 0.5299 0.3228 0.7842
vn 0.4142 0.3228 -0.8510
vn -0.5299 0.3228 -0.7842
vn 0.3851 0.7260 0.5698
vn -0.4158 0.3115 0.8544
vn 0.5320 0.3115 0.7874
vn -0.3010 0.7260 0.6184
vn -0.5320 0.3115 -0.7873
vn -0.6860 0.7260 0.0486
vn -0.3850 0.7260 -0.5699
vn -0.9479 0.3115 0.0671
vn 0.3009 0.7260 -0.6184
vn 0.9479 0.3115 -0.0671
vn 0.4159 0.3115 -0.8544
vn 0.6860 0.7260 -0.0485
vn 0.6860 0.7260 -0.0486
vn 0.5320 0.3115 0.7873
vn 0.3850 0.7260 0.5699
vn 0.6860 0.7259 -0.0485
vn -0.3009 0.7259 0.6184
vn 0.3850 0.7259 0.5699
vn -0.3010 0.7259 0.6184
vn -0.6860 0.7259 0.0485
vn -0.6860 0.7260 0.0485
vn 0.3010 0.7259 -0.6184
vn -0.3850 0.7259 -0.5699
vn -0.5320 0.3116 -0.7873
vn 0.3010 0.7260 -0.6184
vn 0.4158 0.3115 -0.8544
vn 0.3009 0.7260 -0.6183
vn -0.3850 0.7260 -0.5698
vn -0.3009 0.7260 0.6184
vn -0.4159 0.3115 0.8544
vn 0.8510 0.3228 0.4142
vn 0.0668 0.3228 0.9441
vn 0.7842 0.3228 -0.5299
vn -0.7842 0.3228 0.5299
vn -0.8510 0.3228 -0.4142
vn -0.0668 0.3228 -0.9441
vn -0.3775 0.5060 0.7755
vn -0.8604 0.5060 0.0609
vn -0.7387 0.4530 0.4992
vn -0.3775 0.5060 0.7756
vn 0.7387 -0.4530 -0.4992
vn 0.8604 -0.5060 -0.0609
vn 0.3775 -0.5060 -0.7755
vn 0.3774 -0.5060 -0.7755
vn -0.0629 0.4530 -0.8893
vn 0.3775 0.5060 -0.7755
vn 0.3775 0.5060 -0.7756
vn 0.3774 0.5060 -0.7755
vn -0.4829 0.5060 -0.7147
vn -0.3775 -0.5060 0.7756
vn -0.3775 -0.5060 0.7755
vn 0.0629 -0.4530 0.8893
vn 0.4829 -0.5060 0.7147
vn 0.0629 -0.4529 0.8893
vn -0.8016 0.4530 -0.3901
vn 0.8016 -0.4530 0.3901
vn 0.4829 0.5060 0.7147
vn 0.0629 0.4530 0.8893
vn -0.3774 0.5060 0.7755
vn -0.4829 -0.5060 -0.7147
vn -0.0629 -0.4530 -0.8893
vn 0.3775 -0.5060 -0.7756
vn 0.8604 0.5060 -0.0609
vn 0.7387 0.4530 -0.4992
vn -0.7387 -0.4530 0.4992
vn -0.8604 -0.5060 0.0609
vn -0.3774 -0.5060 0.7755
vn 0.8016 0.4530 0.3902
vn 0.8016 0.4530 0.3901
vn 0.4829 0.5060 0.7146
vn -0.8016 -0.4530 -0.3902
vn -0.8016 -0.4530 -0.3901
vn -0.0609 0.5060 -0.8604
vn 0.7147 0.5060 -0.4829
vn 0.3902 0.4530 -0.8016
vn -0.3902 -0.4530 0.8016
vn -0.7147 -0.5060 0.4829
vn 0.0609 -0.5060 0.8604
vn 0.7755 0.5060 0.3775
vn 0.4992 0.4530 0.7387
vn 0.7756 0.5060 0.3775
vn 0.0609 0.5060 0.8604
vn -0.7755 -0.5060 -0.3775
vn -0.4992 -0.4530 -0.7387
vn -0.7755 -0.5060 -0.3774
vn -0.0609 -0.5060 -0.8604
vn -0.7147 0.5060 0.4829
vn -0.7755 0.5060 -0.3775
vn -0.8893 0.4530 0.0629
vn -0.7756 0.5060 -0.3775
vn 0.8893 -0.4530 -0.0629
vn 0.7756 -0.5060 0.3775
vn 0.7147 -0.5060 -0.4829
vn -0.4992 0.4530 -0.7387
vn 0.4992 -0.4530 0.7387
vn 0.7755 -0.5060 0.3775
vn -0.7146 0.5060 0.4829
vn -0.3902 0.4530 0.8016
vn 0.3902 -0.4530 -0.8016
vn 0.8893 0.4530 -0.0629
vn -0.8893 -0.4530 0.0629
vn -0.7756 -0.5060 -0.3775
vn -0.4829 0.5060 -0.7146
vn 0.4829 -0.5060 0.7146
vn -0.8016 0.4530 -0.3902
vn 0.8016 -0.4530 0.3902
vt 0.593750 0.025000
vt 0.593750 0.104996
vt 0.593750 0.225000
vt 0.093750 0.475000
vt 0.093750 0.275000
vt 0.093750 0.425000
vt 0.093750 0.348778
vt 0.093750 0.338765
vt 0.093750 0.344099
vt 0.093750 0.375000
vt 0.093750 0.325000
s 0
usemtl colormap.028
f 3/1/1 2/1/1 1/1/1
f 2/1/1 3/1/1 4/1/1
f 4/1/1 3/1/1 5/1/1
f 4/1/1 5/1/1 6/1/1
f 6/1/1 5/1/1 7/1/1
f 6/1/1 7/1/1 8/1/1
f 9/2/2 1/1/3 2/1/4
f 1/1/3 9/2/2 10/2/5
f 11/2/6 1/1/3 10/2/7
f 1/1/3 11/2/8 3/1/9
f 12/2/10 2/1/4 4/1/11
f 2/1/4 12/2/10 9/2/12
f 13/2/13 4/1/11 6/1/14
f 4/1/11 13/2/13 12/2/15
f 7/1/16 14/2/17 8/1/18
f 14/2/17 7/1/16 15/2/19
f 11/2/20 5/1/21 3/1/22
f 5/1/21 11/2/20 16/2/23
f 8/1/18 13/2/24 6/1/14
f 13/2/25 8/1/18 14/2/26
f 7/1/27 16/2/28 15/2/29
f 16/2/28 7/1/27 5/1/21
f 14/2/30 18/3/31 17/3/32
f 18/3/33 14/2/30 15/2/34
f 16/2/35 18/3/33 15/2/36
f 18/3/33 16/2/37 19/3/38
f 21/3/39 9/2/40 20/3/41
f 9/2/40 21/3/39 10/2/42
f 22/3/43 12/2/44 13/2/45
f 12/2/46 22/3/47 23/3/48
f 21/3/49 11/2/50 10/2/51
f 11/2/50 21/3/39 24/3/52
f 13/2/53 17/3/54 22/3/43
f 17/3/32 13/2/53 14/2/55
f 20/3/41 12/2/46 23/3/56
f 12/2/57 20/3/41 9/2/58
f 24/3/52 16/2/59 11/2/60
f 16/2/37 24/3/61 19/3/62
f 27/4/63 26/4/63 25/4/63
f 26/4/63 27/4/63 28/4/63
f 26/4/63 28/4/63 29/4/63
f 29/4/63 28/4/63 30/4/63
f 29/4/63 30/4/63 31/4/63
f 31/4/63 30/4/63 32/4/63
f 35/5/1 34/5/1 33/5/1
f 34/5/1 35/5/1 36/5/1
f 34/5/1 36/5/1 37/5/1
f 37/5/1 36/5/1 38/5/1
f 37/5/1 38/5/1 39/5/1
f 39/5/1 38/5/1 40/5/1
f 27/4/64 33/5/65 34/5/64
f 33/5/66 27/4/64 25/4/67
f 29/4/68 38/5/69 36/5/68
f 38/5/69 29/4/68 31/4/70
f 40/5/71 31/4/72 32/4/73
f 31/4/72 40/5/71 38/5/72
f 28/4/74 34/5/75 37/5/74
f 34/5/75 28/4/74 27/4/76
f 26/4/77 36/5/78 35/5/77
f 36/5/68 26/4/77 29/4/79
f 30/4/80 37/5/74 39/5/80
f 37/5/81 30/4/80 28/4/82
f 26/4/83 33/5/84 25/4/66
f 33/5/66 26/4/83 35/5/83
f 40/5/85 30/4/86 39/5/86
f 30/4/86 40/5/87 32/4/85
f 43/6/88 42/7/89 41/7/88
f 42/7/89 43/6/88 44/6/89
f 47/6/90 46/7/91 45/7/90
f 46/7/91 47/6/90 48/6/91
f 50/6/92 45/7/90 49/7/92
f 45/7/90 50/6/92 47/6/90
f 48/6/91 41/7/88 46/7/91
f 41/7/88 48/6/91 43/6/88
f 52/7/93 44/6/89 51/6/93
f 44/6/89 52/7/93 42/7/89
f 52/7/93 50/6/92 49/7/92
f 50/6/92 52/7/93 51/6/93
f 41/7/1 45/7/1 46/7/1
f 45/7/1 41/7/1 42/7/1
f 45/7/1 42/7/1 49/7/1
f 49/7/1 42/7/1 52/7/1
f 55/6/94 54/8/95 53/8/96
f 54/8/95 55/6/94 56/6/97
f 59/8/98 58/6/99 57/6/100
f 58/6/99 59/8/98 60/8/101
f 63/6/102 62/8/103 61/8/104
f 62/8/103 63/6/102 64/6/105
f 64/6/106 53/8/107 62/8/103
f 53/8/107 64/6/106 55/6/108
f 64/6/109 56/6/110 55/6/111
f 56/6/112 64/6/109 58/6/113
f 58/6/114 64/6/109 63/6/115
f 58/6/113 63/6/102 57/6/116
f 59/8/117 63/6/118 61/8/119
f 63/6/120 59/8/98 57/6/121
f 54/8/1 62/8/1 53/8/1
f 62/8/1 54/8/1 60/8/1
f 62/8/1 60/8/1 61/8/1
f 61/8/1 60/8/1 59/8/1
f 56/6/122 60/8/101 54/8/123
f 60/8/101 56/6/122 58/6/114
f 67/6/124 66/9/125 65/9/124
f 66/9/125 67/6/124 68/6/125
f 70/6/126 65/9/124 69/9/126
f 65/9/124 70/6/126 67/6/124
f 68/6/125 71/9/127 66/9/125
f 71/9/127 68/6/125 72/6/127
f 72/6/127 73/9/128 71/9/127
f 73/9/128 72/6/127 74/6/128
f 71/9/1 65/9/1 66/9/1
f 65/9/1 71/9/1 69/9/1
f 69/9/1 71/9/1 73/9/1
f 69/9/1 73/9/1 75/9/1
f 76/6/129 69/9/126 75/9/129
f 69/9/126 76/6/129 70/6/126
f 73/9/128 76/6/129 75/9/129
f 76/6/129 73/9/128 74/6/128
f 79/10/130 78/10/131 77/11/132
f 78/10/131 79/10/133 41/6/133
f 78/10/131 41/6/130 42/6/131
f 77/11/134 78/10/135 79/10/136
f 41/6/136 79/10/136 78/10/135
f 42/6/135 41/6/137 78/10/135
f 81/11/138 49/6/139 80/10/140
f 49/6/141 81/11/138 52/6/142
f 52/6/142 81/11/138 82/10/142
f 80/10/143 49/6/144 81/11/145
f 52/6/146 81/11/145 49/6/143
f 82/10/146 81/11/147 52/6/146
f 82/10/142 42/6/131 52/6/142
f 42/6/131 82/10/142 83/11/148
f 42/6/131 83/11/148 78/10/131
f 52/6/146 42/6/135 82/10/146
f 83/11/149 82/10/146 42/6/135
f 78/10/135 83/11/149 42/6/135
f 46/6/150 85/11/151 84/10/150
f 85/11/151 46/6/150 41/6/152
f 85/11/151 41/6/152 79/10/133
f 84/10/153 85/11/154 46/6/153
f 41/6/155 46/6/153 85/11/154
f 79/10/155 41/6/136 85/11/154
f 80/10/139 87/10/156 86/11/157
f 87/10/156 80/10/140 49/6/140
f 87/10/156 49/6/139 45/6/156
f 86/11/158 87/10/159 80/10/144
f 49/6/144 80/10/143 87/10/159
f 45/6/159 49/6/160 87/10/159
f 45/6/156 88/11/161 87/10/156
f 88/11/162 45/6/156 46/6/163
f 88/11/161 46/6/163 84/10/150
f 87/10/159 88/11/164 45/6/159
f 46/6/153 45/6/159 88/11/165
f 84/10/153 46/6/153 88/11/164
f 91/10/166 90/10/167 89/11/168
f 90/10/167 91/10/166 75/6/166
f 90/10/167 75/6/166 69/6/167
f 89/11/169 90/10/170 91/10/171
f 75/6/171 91/10/171 90/10/170
f 69/6/170 75/6/171 90/10/170
f 65/6/172 93/11/173 92/10/174
f 93/11/173 65/6/174 66/6/175
f 93/11/173 66/6/175 94/10/175
f 92/10/176 93/11/177 65/6/178
f 66/6/179 65/6/176 93/11/177
f 94/10/179 66/6/179 93/11/177
f 97/10/180 96/10/181 95/11/182
f 96/10/183 97/10/180 71/6/180
f 96/10/183 71/6/180 73/6/183
f 95/11/184 96/10/185 97/10/186
f 71/6/186 97/10/186 96/10/185
f 73/6/185 71/6/186 96/10/185
f 98/11/187 75/6/166 91/10/166
f 75/6/166 98/11/187 73/6/183
f 73/6/181 98/11/187 96/10/183
f 91/10/171 75/6/171 98/11/188
f 73/6/189 98/11/188 75/6/171
f 96/10/189 98/11/188 73/6/189
f 94/10/175 97/10/190 99/11/191
f 97/10/180 94/10/175 66/6/175
f 97/10/180 66/6/175 71/6/180
f 99/11/192 97/10/186 94/10/179
f 66/6/179 94/10/179 97/10/186
f 71/6/186 66/6/179 97/10/186
f 90/10/167 92/10/172 100/11/193
f 92/10/174 90/10/167 69/6/167
f 92/10/174 69/6/167 65/6/174
f 100/11/194 92/10/195 90/10/170
f 69/6/170 90/10/170 92/10/195
f 65/6/195 69/6/170 92/10/195
f 102/11/138 61/6/141 101/10/140
f 61/6/141 102/11/138 59/6/142
f 59/6/196 102/11/138 103/10/142
f 101/10/143 61/6/144 102/11/145
f 59/6/146 102/11/145 61/6/143
f 103/10/146 102/11/145 59/6/197
f 103/10/142 60/6/131 59/6/142
f 60/6/131 103/10/142 104/11/198
f 60/6/131 104/11/198 105/10/131
f 59/6/146 60/6/135 103/10/146
f 104/11/199 103/10/146 60/6/135
f 105/10/135 104/11/199 60/6/135
f 62/6/156 107/11/161 106/10/156
f 107/11/161 62/6/156 53/6/163
f 107/11/162 53/6/163 108/10/150
f 106/10/159 107/11/164 62/6/159
f 53/6/153 62/6/159 107/11/164
f 108/10/153 53/6/153 107/11/165
f 110/10/130 105/10/131 109/11/132
f 105/10/131 110/10/133 54/6/133
f 105/10/131 54/6/130 60/6/131
f 109/11/134 105/10/135 110/10/136
f 54/6/136 110/10/155 105/10/135
f 60/6/135 54/6/136 105/10/135
f 101/10/139 106/10/156 111/11/157
f 106/10/156 101/10/140 61/6/140
f 106/10/156 61/6/139 62/6/156
f 111/11/158 106/10/159 101/10/144
f 61/6/144 101/10/144 106/10/159
f 62/6/159 61/6/144 106/10/159
f 53/6/150 112/11/151 108/10/150
f 112/11/151 53/6/150 54/6/152
f 112/11/151 54/6/152 110/10/133
f 108/10/153 112/11/154 53/6/153
f 54/6/155 53/6/153 112/11/154
f 110/10/155 54/6/136 112/11/154
f 3/1/1 2/1/1 1/1/1
f 2/1/1 3/1/1 4/1/1
f 4/1/1 3/1/1 5/1/1
f 4/1/1 5/1/1 6/1/1
f 6/1/1 5/1/1 7/1/1
f 6/1/1 7/1/1 8/1/1
f 9/2/2 1/1/3 2/1/4
f 1/1/3 9/2/2 10/2/5
f 11/2/6 1/1/3 10/2/7
f 1/1/3 11/2/8 3/1/9
f 12/2/10 2/1/4 4/1/11
f 2/1/4 12/2/10 9/2/12
f 13/2/13 4/1/11 6/1/14
f 4/1/11 13/2/13 12/2/15
f 7/1/16 14/2/17 8/1/18
f 14/2/17 7/1/16 15/2/19
f 11/2/20 5/1/21 3/1/22
f 5/1/21 11/2/20 16/2/23
f 8/1/18 13/2/24 6/1/14
f 13/2/25 8/1/18 14/2/26
f 7/1/27 16/2/28 15/2/29
f 16/2/28 7/1/27 5/1/21
f 14/2/30 18/3/31 17/3/32
f 18/3/33 14/2/30 15/2/34
f 16/2/35 18/3/33 15/2/36
f 18/3/33 16/2/37 19/3/38
f 21/3/39 9/2/40 20/3/41
f 9/2/40 21/3/39 10/2/42
f 22/3/43 12/2/44 13/2/45
f 12/2/46 22/3/47 23/3/48
f 21/3/49 11/2/50 10/2/51
f 11/2/50 21/3/39 24/3/52
f 13/2/53 17/3/54 22/3/43
f 17/3/32 13/2/53 14/2/55
f 20/3/41 12/2/46 23/3/56
f 12/2/57 20/3/41 9/2/58
f 24/3/52 16/2/59 11/2/60
f 16/2/37 24/3/61 19/3/62
f 27/4/63 26/4/63 25/4/63
f 26/4/63 27/4/63 28/4/63
f 26/4/63 28/4/63 29/4/63
f 29/4/63 28/4/63 30/4/63
f 29/4/63 30/4/63 31/4/63
f 31/4/63 30/4/63 32/4/63
f 35/5/1 34/5/1 33/5/1
f 34/5/1 35/5/1 36/5/1
f 34/5/1 36/5/1 37/5/1
f 37/5/1 36/5/1 38/5/1
f 37/5/1 38/5/1 39/5/1
f 39/5/1 38/5/1 40/5/1
f 27/4/64 33/5/65 34/5/64
f 33/5/66 27/4/64 25/4/67
f 29/4/68 38/5/69 36/5/68
f 38/5/69 29/4/68 31/4/70
f 40/5/71 31/4/72 32/4/73
f 31/4/72 40/5/71 38/5/72
f 28/4/74 34/5/75 37/5/74
f 34/5/75 28/4/74 27/4/76
f 26/4/77 36/5/78 35/5/77
f 36/5/68 26/4/77 29/4/79
f 30/4/80 37/5/74 39/5/80
f 37/5/81 30/4/80 28/4/82
f 26/4/83 33/5/84 25/4/66
f 33/5/66 26/4/83 35/5/83
f 40/5/85 30/4/86 39/5/86
f 30/4/86 40/5/87 32/4/85
f 43/6/88 42/7/89 41/7/88
f 42/7/89 43/6/88 44/6/89
f 47/6/90 46/7/91 45/7/90
f 46/7/91 47/6/90 48/6/91
f 50/6/92 45/7/90 49/7/92
f 45/7/90 50/6/92 47/6/90
f 48/6/91 41/7/88 46/7/91
f 41/7/88 48/6/91 43/6/88
f 52/7/93 44/6/89 51/6/93
f 44/6/89 52/7/93 42/7/89
f 52/7/93 50/6/92 49/7/92
f 50/6/92 52/7/93 51/6/93
f 41/7/1 45/7/1 46/7/1
f 45/7/1 41/7/1 42/7/1
f 45/7/1 42/7/1 49/7/1
f 49/7/1 42/7/1 52/7/1
f 55/6/94 54/8/95 53/8/96
f 54/8/95 55/6/94 56/6/97
f 59/8/98 58/6/99 57/6/100
f 58/6/99 59/8/98 60/8/101
f 63/6/102 62/8/103 61/8/104
f 62/8/103 63/6/102 64/6/105
f 64/6/106 53/8/107 62/8/103
f 53/8/107 64/6/106 55/6/108
f 64/6/109 56/6/110 55/6/111
f 56/6/112 64/6/109 58/6/113
f 58/6/114 64/6/109 63/6/115
f 58/6/113 63/6/102 57/6/116
f 59/8/117 63/6/118 61/8/119
f 63/6/120 59/8/98 57/6/121
f 54/8/1 62/8/1 53/8/1
f 62/8/1 54/8/1 60/8/1
f 62/8/1 60/8/1 61/8/1
f 61/8/1 60/8/1 59/8/1
f 56/6/122 60/8/101 54/8/123
f 60/8/101 56/6/122 58/6/114
f 67/6/124 66/9/125 65/9/124
f 66/9/125 67/6/124 68/6/125
f 70/6/126 65/9/124 69/9/126
f 65/9/124 70/6/126 67/6/124
f 68/6/125 71/9/127 66/9/125
f 71/9/127 68/6/125 72/6/127
f 72/6/127 73/9/128 71/9/127
f 73/9/128 72/6/127 74/6/128
f 71/9/1 65/9/1 66/9/1
f 65/9/1 71/9/1 69/9/1
f 69/9/1 71/9/1 73/9/1
f 69/9/1 73/9/1 75/9/1
f 76/6/129 69/9/126 75/9/129
f 69/9/126 76/6/129 70/6/126
f 73/9/128 76/6/129 75/9/129
f 76/6/129 73/9/128 74/6/128
f 79/10/130 78/10/131 77/11/132
f 78/10/131 79/10/133 41/6/133
f 78/10/131 41/6/130 42/6/131
f 77/11/134 78/10/135 79/10/136
f 41/6/136 79/10/136 78/10/135
f 42/6/135 41/6/137 78/10/135
f 81/11/138 49/6/139 80/10/140
f 49/6/141 81/11/138 52/6/142
f 52/6/142 81/11/138 82/10/142
f 80/10/143 49/6/144 81/11/145
f 52/6/146 81/11/145 49/6/143
f 82/10/146 81/11/147 52/6/146
f 82/10/142 42/6/131 52/6/142
f 42/6/131 82/10/142 83/11/148
f 42/6/131 83/11/148 78/10/131
f 52/6/146 42/6/135 82/10/146
f 83/11/149 82/10/146 42/6/135
f 78/10/135 83/11/149 42/6/135
f 46/6/150 85/11/151 84/10/150
f 85/11/151 46/6/150 41/6/152
f 85/11/151 41/6/152 79/10/133
f 84/10/153 85/11/154 46/6/153
f 41/6/155 46/6/153 85/11/154
f 79/10/155 41/6/136 85/11/154
f 80/10/139 87/10/156 86/11/157
f 87/10/156 80/10/140 49/6/140
f 87/10/156 49/6/139 45/6/156
f 86/11/158 87/10/159 80/10/144
f 49/6/144 80/10/143 87/10/159
f 45/6/159 49/6/160 87/10/159
f 45/6/156 88/11/161 87/10/156
f 88/11/162 45/6/156 46/6/163
f 88/11/161 46/6/163 84/10/150
f 87/10/159 88/11/164 45/6/159
f 46/6/153 45/6/159 88/11/165
f 84/10/153 46/6/153 88/11/164
f 91/10/166 90/10/167 89/11/168
f 90/10/167 91/10/166 75/6/166
f 90/10/167 75/6/166 69/6/167
f 89/11/169 90/10/170 91/10/171
f 75/6/171 91/10/171 90/10/170
f 69/6/170 75/6/171 90/10/170
f 65/6/172 93/11/173 92/10/174
f 93/11/173 65/6/174 66/6/175
f 93/11/173 66/6/175 94/10/175
f 92/10/176 93/11/177 65/6/178
f 66/6/179 65/6/176 93/11/177
f 94/10/179 66/6/179 93/11/177
f 97/10/180 96/10/181 95/11/182
f 96/10/183 97/10/180 71/6/180
f 96/10/183 71/6/180 73/6/183
f 95/11/184 96/10/185 97/10/186
f 71/6/186 97/10/186 96/10/185
f 73/6/185 71/6/186 96/10/185
f 98/11/187 75/6/166 91/10/166
f 75/6/166 98/11/187 73/6/183
f 73/6/181 98/11/187 96/10/183
f 91/10/171 75/6/171 98/11/188
f 73/6/189 98/11/188 75/6/171
f 96/10/189 98/11/188 73/6/189
f 94/10/175 97/10/190 99/11/191
f 97/10/180 94/10/175 66/6/175
f 97/10/180 66/6/175 71/6/180
f 99/11/192 97/10/186 94/10/179
f 66/6/179 94/10/179 97/10/186
f 71/6/186 66/6/179 97/10/186
f 90/10/167 92/10/172 100/11/193
f 92/10/174 90/10/167 69/6/167
f 92/10/174 69/6/167 65/6/174
f 100/11/194 92/10/195 90/10/170
f 69/6/170 90/10/170 92/10/195
f 65/6/195 69/6/170 92/10/195
f 102/11/138 61/6/141 101/10/140
f 61/6/141 102/11/138 59/6/142
f 59/6/196 102/11/138 103/10/142
f 101/10/143 61/6/144 102/11/145
f 59/6/146 102/11/145 61/6/143
f 103/10/146 102/11/145 59/6/197
f 103/10/142 60/6/131 59/6/142
f 60/6/131 103/10/142 104/11/198
f 60/6/131 104/11/198 105/10/131
f 59/6/146 60/6/135 103/10/146
f 104/11/199 103/10/146 60/6/135
f 105/10/135 104/11/199 60/6/135
f 62/6/156 107/11/161 106/10/156
f 107/11/161 62/6/156 53/6/163
f 107/11/162 53/6/163 108/10/150
f 106/10/159 107/11/164 62/6/159
f 53/6/153 62/6/159 107/11/164
f 108/10/153 53/6/153 107/11/165
f 110/10/130 105/10/131 109/11/132
f 105/10/131 110/10/133 54/6/133
f 105/10/131 54/6/130 60/6/131
f 109/11/134 105/10/135 110/10/136
f 54/6/136 110/10/155 105/10/135
f 60/6/135 54/6/136 105/10/135
f 101/10/139 106/10/156 111/11/157
f 106/10/156 101/10/140 61/6/140
f 106/10/156 61/6/139 62/6/156
f 111/11/158 106/10/159 101/10/144
f 61/6/144 101/10/144 106/10/159
f 62/6/159 61/6/144 106/10/159
f 53/6/150 112/11/151 108/10/150
f 112/11/151 53/6/150 54/6/152
f 112/11/151 54/6/152 110/10/133
f 108/10/153 112/11/154 53/6/153
f 54/6/155 53/6/153 112/11/154
f 110/10/155 54/6/136 112/11/154
