# Blender 4.1.1
# www.blender.org
mtllib brick-wall-end.002.mtl
o brick-wall-end.002
v 16.807962 -4.234052 -1.111974
v 16.758425 -4.234052 -1.111974
v 16.807962 -4.234052 -3.139865
v 16.758425 -4.234052 -3.139865
v 17.045328 -3.293715 -3.162679
v 17.045328 -3.293715 -1.111974
v 17.045328 -3.102557 -3.162679
v 17.045328 -3.102557 -1.111974
v 16.788847 -3.102557 -1.111974
v 16.788847 -3.102557 -3.162679
v 17.075748 -4.234052 -1.111974
v 17.026211 -4.234052 -1.111974
v 17.075748 -4.234052 -3.139865
v 17.026211 -4.234052 -3.139865
v 17.089128 -4.272283 -1.111974
v 17.089128 -4.272283 -3.139865
v 17.026211 -3.293715 -1.111974
v 17.026211 -3.293715 -3.162679
v 16.788847 -3.293715 -1.111974
v 16.807962 -3.293715 -1.111974
v 16.788847 -3.293715 -3.162679
v 16.807962 -3.293715 -3.162679
v 17.089128 -4.444326 -3.139865
v 17.089128 -4.444326 -1.111974
v 16.745043 -4.444326 -3.139865
v 16.745043 -4.272283 -3.139865
v 16.745043 -4.444326 -1.111974
v 16.745043 -4.272283 -1.111974
v 16.725927 -4.234052 -3.139865
v 16.725927 -4.234052 -3.646838
v 16.743132 -4.195820 -3.162679
v 16.743132 -4.195820 -3.624024
v 17.108244 -4.234052 -3.646838
v 17.091042 -4.195820 -3.624024
v 16.725927 -4.444326 -3.139865
v 16.725927 -4.444326 -3.646838
v 17.108244 -4.444326 -3.139865
v 17.108246 -4.444326 -3.646838
v 16.745043 -4.444326 -3.646838
v 17.108244 -4.234052 -3.139865
v 17.108244 -2.964949 -3.646838
v 17.108244 -2.964949 -3.139865
v 17.108244 -2.869370 -3.646838
v 17.108244 -2.869370 -3.139865
v 17.091042 -4.195820 -3.162679
v 17.091042 -3.003181 -3.624024
v 17.091042 -3.003181 -3.162679
v 16.743132 -3.003181 -3.162679
v 16.743132 -3.003181 -3.624024
v 16.725927 -2.964949 -3.139865
v 16.725927 -2.964949 -3.646838
v 16.725927 -2.869370 -3.139865
v 16.725927 -2.869370 -3.646838
v 16.807962 -4.195820 -3.162679
v 17.026211 -4.195820 -3.162679
v 16.745043 -4.444326 -1.111974
v 17.075748 -4.234052 -1.111974
v 17.026211 -4.234052 -1.111974
v 16.807962 -4.234052 -1.111974
v 16.758425 -4.234052 -1.111974
v 16.745043 -4.272283 -1.111974
v 17.045328 -3.102557 -1.111974
v 17.045328 -3.293715 -1.111974
v 16.788847 -3.102557 -1.111974
v 17.026211 -3.293715 -1.111974
v 16.807962 -3.293715 -1.111974
v 16.788847 -3.293715 -1.111974
v 16.758425 -3.551211 -1.610556
v 16.758425 -3.551211 -1.967820
v 16.758425 -3.417400 -1.610556
v 16.758425 -3.417400 -1.967820
v 16.807962 -3.551211 -1.610556
v 16.807962 -3.551211 -1.967820
v 16.807962 -3.417400 -1.610556
v 16.807962 -3.417400 -1.967820
v 16.758425 -3.742370 -1.864043
v 16.758425 -3.742370 -2.221306
v 16.758425 -3.608559 -1.864043
v 16.758425 -3.608559 -2.221306
v 16.807962 -3.742370 -1.864043
v 16.807962 -3.742370 -2.221306
v 16.807962 -3.608559 -1.864043
v 16.807962 -3.608559 -2.221306
v 17.075748 -4.014675 -1.710283
v 17.075748 -4.014675 -1.353019
v 17.075748 -3.880864 -1.710283
v 17.075748 -3.880864 -1.353019
v 17.026211 -4.014675 -1.710283
v 17.026211 -4.014675 -1.353019
v 17.026211 -3.880864 -1.710283
v 17.026211 -3.880864 -1.353019
v 17.075748 -3.632358 -2.977714
v 17.075748 -3.632358 -2.620451
v 17.075748 -3.498547 -2.977714
v 17.075748 -3.498547 -2.620451
v 17.026211 -3.632358 -2.977714
v 17.026211 -3.632358 -2.620451
v 17.026211 -3.498547 -2.977714
v 17.026211 -3.498547 -2.620451
vn -0.0000 1.0000 -0.0000
vn 1.0000 -0.0000 -0.0000
vn 0.9859 0.1675 -0.0003
vn 0.9439 0.3303 -0.0000
vn 0.9859 0.1675 -0.0000
vn 0.9859 0.1676 -0.0007
vn -0.0000 -1.0000 -0.0000
vn 0.9859 0.1675 -0.0030
vn 0.9859 0.1675 -0.0012
vn -1.0000 -0.0000 -0.0000
vn -0.9859 0.1675 -0.0030
vn -0.9859 0.1675 -0.0012
vn -0.9859 0.1675 -0.0000
vn -0.9119 0.4104 -0.0000
vn -0.9836 0.1801 -0.0017
vn -0.9836 0.1802 0.0080
vn -0.9835 0.1804 -0.0129
vn 0.0005 0.2919 -0.9564
vn -0.0000 0.5124 -0.8587
vn -0.0015 0.2919 -0.9564
vn 0.0027 0.2919 -0.9564
vn -0.3827 -0.9239 -0.0000
vn 0.3827 -0.9239 -0.0000
vn -0.2706 -0.9239 0.2706
vn -0.0000 0.1800 0.9837
vn -0.0000 -0.0000 1.0000
vn -0.0000 0.3000 0.9539
vn 0.9837 -0.1800 0.0027
vn 0.9837 -0.1800 -0.0000
vn 0.9837 -0.1799 0.0067
vn -0.0000 -0.0000 -1.0000
vn -0.0000 0.1800 -0.9837
vn 0.9837 0.1796 -0.0119
vn 0.9837 0.1799 -0.0054
vn 0.9837 0.1800 -0.0000
vn -0.9835 -0.1804 0.0129
vn -0.9119 -0.4104 -0.0000
vn -0.9836 -0.1801 0.0017
vn -0.9836 -0.1802 -0.0080
vn 0.9835 -0.1804 -0.0129
vn 0.9119 -0.4103 -0.0000
vn 0.9837 -0.1801 -0.0017
vn 0.9836 -0.1802 0.0080
vn -0.0000 -0.5124 -0.8587
vn 0.0004 -0.2919 -0.9564
vn -0.0015 -0.2919 -0.9564
vn 0.0028 -0.2920 -0.9564
vn -0.0000 -0.1800 -0.9837
vn -0.9837 -0.1800 -0.0027
vn -0.9837 -0.1800 -0.0000
vn -0.9837 -0.1799 -0.0067
vn -0.0000 -0.1800 0.9837
vn 0.0005 -0.2919 0.9564
vn -0.0000 -0.5124 0.8587
vn -0.0015 -0.2919 0.9564
vn 0.0027 -0.2919 0.9564
vn 0.9119 0.4103 -0.0000
vn 0.9837 0.1801 0.0017
vn 0.9836 0.1802 -0.0080
vn 0.9835 0.1804 0.0129
vn -0.0000 0.5124 0.8587
vn 0.0007 0.4076 0.9131
vn -0.0015 0.2919 0.9564
vn -0.0009 0.4077 0.9131
vn -0.0010 0.4076 0.9131
vn -0.0008 0.4077 0.9131
vn -0.0007 0.4077 0.9131
vn 0.0015 0.2920 0.9564
vn -0.9439 0.3304 -0.0000
vn -0.9859 0.1676 -0.0003
vn -0.9859 0.1676 -0.0000
vn -0.9859 0.1676 -0.0007
vn -0.9438 0.3304 -0.0000
vn -0.9837 0.1796 0.0119
vn -0.9837 0.1799 0.0054
vn -0.9837 0.1800 -0.0000
vt 0.843750 0.051702
vt 0.843750 0.195388
vt 0.843750 0.171113
vt 0.843750 0.046847
vt 0.843750 0.025000
vt 0.843750 0.056557
vt 0.843750 0.225000
vt 0.843750 0.212863
vt 0.843750 0.208008
vt 0.843750 0.050644
vt 0.843750 0.056343
vt 0.843750 0.196507
vt 0.343750 0.051702
vt 0.343750 0.056557
vt 0.343750 0.171113
vt 0.281250 0.125000
s 0
usemtl colormap.001
f 3/1/1 2/1/1 1/1/1
f 2/1/1 3/1/1 4/1/1
f 7/2/2 6/3/2 5/3/2
f 6/3/2 7/2/2 8/2/2
f 7/2/1 9/2/1 8/2/1
f 9/2/1 7/2/1 10/2/1
f 13/1/1 12/1/1 11/1/1
f 12/1/1 13/1/1 14/1/1
f 16/4/3 11/1/4 15/4/5
f 11/1/4 16/4/6 13/1/4
f 18/3/7 6/3/7 17/3/7
f 6/3/7 18/3/7 5/3/7
f 21/3/7 20/3/7 19/3/7
f 20/3/7 21/3/7 22/3/7
f 16/4/8 24/5/2 23/5/2
f 24/5/2 16/4/9 15/4/5
f 27/5/10 26/4/11 25/5/10
f 26/4/12 27/5/10 28/4/13
f 31/6/14 30/1/15 29/1/16
f 30/1/17 31/6/14 32/6/14
f 30/1/18 34/6/19 33/1/20
f 34/6/19 30/1/21 32/6/19
f 36/5/7 25/5/7 35/5/7
f 25/5/7 36/5/7 23/5/7
f 24/5/7 25/5/7 23/5/7
f 25/5/7 24/5/7 27/5/7
f 23/5/7 36/5/7 37/5/7
f 37/5/7 36/5/7 38/5/7
f 38/5/22 36/5/23 39/5/24
f 40/1/25 23/5/26 37/5/26
f 23/5/26 40/1/25 16/4/26
f 16/4/26 40/1/25 13/1/27
f 43/7/2 42/8/28 41/8/29
f 42/8/30 43/7/2 44/7/2
f 39/5/31 33/1/32 38/5/31
f 33/1/32 39/5/31 30/1/32
f 30/1/32 39/5/31 36/5/31
f 46/9/2 45/6/2 34/6/2
f 45/6/2 46/9/2 47/9/2
f 33/1/33 37/5/2 38/5/2
f 37/5/2 33/1/34 40/1/35
f 50/8/36 49/9/37 48/9/37
f 49/9/37 50/8/38 51/8/39
f 43/7/1 52/7/1 44/7/1
f 52/7/1 43/7/1 53/7/1
f 21/3/26 54/6/26 22/3/26
f 54/6/26 21/3/26 31/6/26
f 31/6/26 21/3/26 48/9/26
f 10/2/26 48/9/26 21/3/26
f 7/2/26 48/9/26 10/2/26
f 7/2/26 47/9/26 48/9/26
f 47/9/26 7/2/26 45/6/26
f 5/3/26 45/6/26 7/2/26
f 45/6/26 5/3/26 55/6/26
f 55/6/26 5/3/26 18/3/26
f 41/8/40 47/9/41 46/9/41
f 47/9/41 41/8/42 42/8/43
f 46/9/44 51/8/45 41/8/46
f 51/8/47 46/9/44 49/9/44
f 51/8/48 43/7/31 41/8/48
f 43/7/31 51/8/48 53/7/31
f 32/6/31 46/9/31 34/6/31
f 46/9/31 32/6/31 49/9/31
f 52/7/10 51/8/49 50/8/50
f 51/8/51 52/7/10 53/7/10
f 48/9/10 32/6/10 31/6/10
f 32/6/10 48/9/10 49/9/10
f 52/7/26 42/8/52 44/7/26
f 42/8/52 52/7/26 50/8/52
f 50/8/53 47/9/54 42/8/55
f 47/9/54 50/8/56 48/9/54
f 34/6/57 40/1/58 33/1/59
f 40/1/60 34/6/57 45/6/57
f 45/6/61 13/1/62 40/1/63
f 13/1/64 45/6/61 55/6/61
f 13/1/65 55/6/61 14/1/61
f 31/6/61 3/1/61 54/6/61
f 3/1/61 31/6/61 4/1/66
f 4/1/67 31/6/61 29/1/68
f 2/1/69 26/4/70 28/4/71
f 26/4/72 2/1/73 4/1/73
f 9/2/10 21/3/10 19/3/10
f 21/3/10 9/2/10 10/2/10
f 29/1/25 26/4/26 4/1/27
f 26/4/26 29/1/25 25/5/26
f 25/5/26 29/1/25 35/5/26
f 29/1/74 36/5/10 35/5/10
f 36/5/10 29/1/75 30/1/76
f 15/10/26 56/5/26 24/5/26
f 56/5/26 15/10/26 57/11/26
f 56/5/26 57/11/26 58/11/26
f 56/5/26 58/11/26 59/11/26
f 56/5/26 59/11/26 60/11/26
f 56/5/26 60/11/26 61/10/26
f 64/7/26 63/12/26 62/7/26
f 63/12/26 64/7/26 65/12/26
f 65/12/26 64/7/26 66/12/26
f 66/12/26 64/7/26 67/12/26
f 1/13/10 54/14/10 3/13/10
f 54/14/10 1/13/10 20/15/10
f 54/14/10 20/15/10 22/15/10
f 55/14/2 12/13/2 14/13/2
f 12/13/2 55/14/2 17/15/2
f 17/15/2 55/14/2 18/15/2
f 20/15/26 12/13/26 17/15/26
f 12/13/26 20/15/26 1/13/26
f 70/16/10 69/16/10 68/16/10
f 69/16/10 70/16/10 71/16/10
f 69/16/7 72/16/7 68/16/7
f 72/16/7 69/16/7 73/16/7
f 70/16/26 72/16/26 74/16/26
f 72/16/26 70/16/26 68/16/26
f 75/16/1 70/16/1 74/16/1
f 70/16/1 75/16/1 71/16/1
f 69/16/31 75/16/31 73/16/31
f 75/16/31 69/16/31 71/16/31
f 78/16/10 77/16/10 76/16/10
f 77/16/10 78/16/10 79/16/10
f 77/16/7 80/16/7 76/16/7
f 80/16/7 77/16/7 81/16/7
f 78/16/26 80/16/26 82/16/26
f 80/16/26 78/16/26 76/16/26
f 83/16/1 78/16/1 82/16/1
f 78/16/1 83/16/1 79/16/1
f 77/16/31 83/16/31 81/16/31
f 83/16/31 77/16/31 79/16/31
f 86/16/2 85/16/2 84/16/2
f 85/16/2 86/16/2 87/16/2
f 85/16/7 88/16/7 84/16/7
f 88/16/7 85/16/7 89/16/7
f 86/16/31 88/16/31 90/16/31
f 88/16/31 86/16/31 84/16/31
f 91/16/1 86/16/1 90/16/1
f 86/16/1 91/16/1 87/16/1
f 85/16/26 91/16/26 89/16/26
f 91/16/26 85/16/26 87/16/26
f 94/16/2 93/16/2 92/16/2
f 93/16/2 94/16/2 95/16/2
f 93/16/7 96/16/7 92/16/7
f 96/16/7 93/16/7 97/16/7
f 94/16/31 96/16/31 98/16/31
f 96/16/31 94/16/31 92/16/31
f 99/16/1 94/16/1 98/16/1
f 94/16/1 99/16/1 95/16/1
f 93/16/26 99/16/26 97/16/26
f 99/16/26 93/16/26 95/16/26
f 3/1/1 2/1/1 1/1/1
f 2/1/1 3/1/1 4/1/1
f 7/2/2 6/3/2 5/3/2
f 6/3/2 7/2/2 8/2/2
f 7/2/1 9/2/1 8/2/1
f 9/2/1 7/2/1 10/2/1
f 13/1/1 12/1/1 11/1/1
f 12/1/1 13/1/1 14/1/1
f 16/4/3 11/1/4 15/4/5
f 11/1/4 16/4/6 13/1/4
f 18/3/7 6/3/7 17/3/7
f 6/3/7 18/3/7 5/3/7
f 21/3/7 20/3/7 19/3/7
f 20/3/7 21/3/7 22/3/7
f 16/4/8 24/5/2 23/5/2
f 24/5/2 16/4/9 15/4/5
f 27/5/10 26/4/11 25/5/10
f 26/4/12 27/5/10 28/4/13
f 31/6/14 30/1/15 29/1/16
f 30/1/17 31/6/14 32/6/14
f 30/1/18 34/6/19 33/1/20
f 34/6/19 30/1/21 32/6/19
f 36/5/7 25/5/7 35/5/7
f 25/5/7 36/5/7 23/5/7
f 24/5/7 25/5/7 23/5/7
f 25/5/7 24/5/7 27/5/7
f 23/5/7 36/5/7 37/5/7
f 37/5/7 36/5/7 38/5/7
f 38/5/22 36/5/23 39/5/24
f 40/1/25 23/5/26 37/5/26
f 23/5/26 40/1/25 16/4/26
f 16/4/26 40/1/25 13/1/27
f 43/7/2 42/8/28 41/8/29
f 42/8/30 43/7/2 44/7/2
f 39/5/31 33/1/32 38/5/31
f 33/1/32 39/5/31 30/1/32
f 30/1/32 39/5/31 36/5/31
f 46/9/2 45/6/2 34/6/2
f 45/6/2 46/9/2 47/9/2
f 33/1/33 37/5/2 38/5/2
f 37/5/2 33/1/34 40/1/35
f 50/8/36 49/9/37 48/9/37
f 49/9/37 50/8/38 51/8/39
f 43/7/1 52/7/1 44/7/1
f 52/7/1 43/7/1 53/7/1
f 21/3/26 54/6/26 22/3/26
f 54/6/26 21/3/26 31/6/26
f 31/6/26 21/3/26 48/9/26
f 10/2/26 48/9/26 21/3/26
f 7/2/26 48/9/26 10/2/26
f 7/2/26 47/9/26 48/9/26
f 47/9/26 7/2/26 45/6/26
f 5/3/26 45/6/26 7/2/26
f 45/6/26 5/3/26 55/6/26
f 55/6/26 5/3/26 18/3/26
f 41/8/40 47/9/41 46/9/41
f 47/9/41 41/8/42 42/8/43
f 46/9/44 51/8/45 41/8/46
f 51/8/47 46/9/44 49/9/44
f 51/8/48 43/7/31 41/8/48
f 43/7/31 51/8/48 53/7/31
f 32/6/31 46/9/31 34/6/31
f 46/9/31 32/6/31 49/9/31
f 52/7/10 51/8/49 50/8/50
f 51/8/51 52/7/10 53/7/10
f 48/9/10 32/6/10 31/6/10
f 32/6/10 48/9/10 49/9/10
f 52/7/26 42/8/52 44/7/26
f 42/8/52 52/7/26 50/8/52
f 50/8/53 47/9/54 42/8/55
f 47/9/54 50/8/56 48/9/54
f 34/6/57 40/1/58 33/1/59
f 40/1/60 34/6/57 45/6/57
f 45/6/61 13/1/62 40/1/63
f 13/1/64 45/6/61 55/6/61
f 13/1/65 55/6/61 14/1/61
f 31/6/61 3/1/61 54/6/61
f 3/1/61 31/6/61 4/1/66
f 4/1/67 31/6/61 29/1/68
f 2/1/69 26/4/70 28/4/71
f 26/4/72 2/1/73 4/1/73
f 9/2/10 21/3/10 19/3/10
f 21/3/10 9/2/10 10/2/10
f 29/1/25 26/4/26 4/1/27
f 26/4/26 29/1/25 25/5/26
f 25/5/26 29/1/25 35/5/26
f 29/1/74 36/5/10 35/5/10
f 36/5/10 29/1/75 30/1/76
f 15/10/26 56/5/26 24/5/26
f 56/5/26 15/10/26 57/11/26
f 56/5/26 57/11/26 58/11/26
f 56/5/26 58/11/26 59/11/26
f 56/5/26 59/11/26 60/11/26
f 56/5/26 60/11/26 61/10/26
f 64/7/26 63/12/26 62/7/26
f 63/12/26 64/7/26 65/12/26
f 65/12/26 64/7/26 66/12/26
f 66/12/26 64/7/26 67/12/26
f 1/13/10 54/14/10 3/13/10
f 54/14/10 1/13/10 20/15/10
f 54/14/10 20/15/10 22/15/10
f 55/14/2 12/13/2 14/13/2
f 12/13/2 55/14/2 17/15/2
f 17/15/2 55/14/2 18/15/2
f 20/15/26 12/13/26 17/15/26
f 12/13/26 20/15/26 1/13/26
f 70/16/10 69/16/10 68/16/10
f 69/16/10 70/16/10 71/16/10
f 69/16/7 72/16/7 68/16/7
f 72/16/7 69/16/7 73/16/7
f 70/16/26 72/16/26 74/16/26
f 72/16/26 70/16/26 68/16/26
f 75/16/1 70/16/1 74/16/1
f 70/16/1 75/16/1 71/16/1
f 69/16/31 75/16/31 73/16/31
f 75/16/31 69/16/31 71/16/31
f 78/16/10 77/16/10 76/16/10
f 77/16/10 78/16/10 79/16/10
f 77/16/7 80/16/7 76/16/7
f 80/16/7 77/16/7 81/16/7
f 78/16/26 80/16/26 82/16/26
f 80/16/26 78/16/26 76/16/26
f 83/16/1 78/16/1 82/16/1
f 78/16/1 83/16/1 79/16/1
f 77/16/31 83/16/31 81/16/31
f 83/16/31 77/16/31 79/16/31
f 86/16/2 85/16/2 84/16/2
f 85/16/2 86/16/2 87/16/2
f 85/16/7 88/16/7 84/16/7
f 88/16/7 85/16/7 89/16/7
f 86/16/31 88/16/31 90/16/31
f 88/16/31 86/16/31 84/16/31
f 91/16/1 86/16/1 90/16/1
f 86/16/1 91/16/1 87/16/1
f 85/16/26 91/16/26 89/16/26
f 91/16/26 85/16/26 87/16/26
f 94/16/2 93/16/2 92/16/2
f 93/16/2 94/16/2 95/16/2
f 93/16/7 96/16/7 92/16/7
f 96/16/7 93/16/7 97/16/7
f 94/16/31 96/16/31 98/16/31
f 96/16/31 94/16/31 92/16/31
f 99/16/1 94/16/1 98/16/1
f 94/16/1 99/16/1 95/16/1
f 93/16/26 99/16/26 97/16/26
f 99/16/26 93/16/26 95/16/26
