# Blender 4.1.1
# www.blender.org
mtllib tree.055.mtl
o tree.055
v -14.713315 -0.282319 3.696915
v -14.549746 -0.282319 3.775709
v -14.755703 -0.282319 3.575733
v -14.428565 -0.282319 3.733322
v -14.676908 -0.282319 3.412165
v -14.349771 -0.282319 3.569753
v -14.555727 -0.282319 3.369777
v -14.392158 -0.282319 3.448572
v -14.551241 0.046402 3.674226
v -14.633025 0.046402 3.634829
v -14.654220 0.046402 3.574238
v -14.490650 0.046402 3.653033
v -14.451253 0.046402 3.571248
v -14.472447 0.046402 3.510658
v -14.554232 0.046402 3.471261
v -14.614822 0.046402 3.492454
v -14.452374 0.539521 3.495136
v -14.554605 0.539521 3.445890
v -14.630344 0.539521 3.472382
v -14.550867 0.539521 3.699597
v -14.653098 0.539521 3.650351
v -14.425882 0.539521 3.570874
v -14.475129 0.539521 3.673105
v -14.679590 0.539521 3.574612
v -14.577879 0.163768 3.727182
v -14.625340 0.163768 3.674060
v -14.506758 0.163768 3.731184
v -14.453636 0.163768 3.683723
v -14.621339 0.163768 3.602938
v -14.449633 0.163768 3.612601
v -14.568216 0.163768 3.555477
v -14.497094 0.163768 3.559480
v -14.600759 0.044485 3.774676
v -14.489351 0.044485 3.780946
v -14.675101 0.044485 3.691466
v -14.668832 0.044485 3.580059
v -14.406141 0.044485 3.706603
v -14.585623 0.044485 3.505716
v -14.399872 0.044485 3.595196
v -14.474215 0.044485 3.511985
v -14.999799 0.539521 3.598549
v -14.803573 0.539521 3.191206
v -14.814939 1.083027 3.584718
v -14.699165 1.083027 3.344383
v -14.294260 0.539521 3.938421
v -14.745141 0.539521 3.972157
v -14.398667 1.083027 3.785244
v -14.664691 1.083027 3.805148
v -14.098035 0.539521 3.531078
v -14.282894 1.083027 3.544909
v -14.433143 1.083027 3.324479
v -14.352691 0.539521 3.157470
v -14.662060 1.666943 3.799688
v -14.808896 1.666943 3.584265
v -14.574923 2.279410 3.618799
v -14.608671 2.279410 3.569285
v -14.522911 2.279410 3.510828
v -14.582666 2.279410 3.515299
v -14.435773 1.666943 3.329939
v -14.695751 1.666943 3.349391
v -14.288938 1.666943 3.545362
v -14.402081 1.666943 3.780236
v -14.489161 2.279410 3.560343
v -14.515167 2.279410 3.614328
v -14.521488 1.083027 3.931384
v -14.852663 1.083027 3.771851
v -14.536348 1.666943 3.732780
v -14.688096 1.666943 3.659681
v -14.217743 1.083027 3.724346
v -14.397169 1.666943 3.637913
v -14.880089 1.083027 3.405281
v -14.700664 1.666943 3.491714
v -14.576344 1.083027 3.198242
v -14.561483 1.666943 3.396847
v -14.245170 1.083027 3.357775
v -14.409737 1.666943 3.469946
v -14.979295 0.369968 3.357491
v -14.831586 0.454744 3.150109
v -15.049397 0.454744 3.602259
v -14.048437 0.454744 3.527368
v -14.154181 0.369968 3.295755
v -14.331106 0.454744 3.112662
v -14.584559 0.369968 3.088433
v -14.766726 0.454744 4.016964
v -14.943652 0.369968 3.833871
v -14.118537 0.369968 3.772136
v -14.266248 0.454744 3.979518
v -14.513273 0.369968 4.041193
v -14.161614 0.945179 3.535835
v -14.181314 1.014103 3.741895
v -14.211759 1.014103 3.335001
v -14.518473 1.014103 3.971707
v -14.717470 0.945179 3.914715
v -14.886074 1.014103 3.794626
v -14.767662 0.945179 3.243890
v -14.579360 1.014103 3.157920
v -14.916519 1.014103 3.387732
v -14.380362 0.945179 3.214912
v -14.936216 0.945179 3.593792
v -14.330170 0.945179 3.885737
v -14.260340 1.618061 3.543222
v -14.321310 1.569178 3.409674
v -14.423326 1.618061 3.304103
v -14.569468 1.569178 3.290132
v -14.711905 1.618061 3.325694
v -14.385929 1.618061 3.803933
v -14.528364 1.569178 3.839495
v -14.674506 1.618061 3.825524
v -14.797072 1.569178 3.445271
v -14.837494 1.618061 3.586405
v -14.300758 1.569178 3.684356
v -14.776522 1.569178 3.719953
vn -0.0000 -1.0000 -0.0000
vn -0.0592 0.2942 0.9539
vn -0.7156 0.2944 0.6335
vn -0.0493 0.2944 0.9544
vn -0.7090 0.2942 0.6409
vn -0.9539 0.2942 -0.0591
vn -0.7156 0.2944 0.6334
vn -0.7091 0.2942 0.6408
vn -0.9539 0.2943 -0.0591
vn -0.9544 0.2944 -0.0493
vn 0.6408 0.2942 0.7091
vn 0.6334 0.2944 0.7156
vn -0.0493 0.2945 0.9544
vn -0.0591 0.2942 0.9539
vn 0.9539 0.2942 0.0592
vn 0.6335 0.2944 0.7156
vn 0.9544 0.2944 0.0493
vn 0.6409 0.2942 0.7090
vn 0.0493 0.2944 -0.9544
vn 0.7090 0.2942 -0.6409
vn 0.7156 0.2944 -0.6335
vn 0.0592 0.2942 -0.9539
vn -0.9539 0.2942 -0.0592
vn -0.6335 0.2944 -0.7156
vn -0.6334 0.2944 -0.7156
vn -0.6408 0.2942 -0.7091
vn 0.7156 0.2944 -0.6334
vn 0.9539 0.2943 0.0591
vn 0.9539 0.2942 0.0591
vn 0.7091 0.2942 -0.6408
vn 0.0591 0.2942 -0.9539
vn 0.7441 -0.0513 -0.6661
vn 0.0553 -0.0512 -0.9972
vn 0.7453 -0.0513 -0.6648
vn 0.0553 -0.0513 -0.9972
vn 0.0570 -0.0513 -0.9971
vn -0.6661 -0.0512 -0.7441
vn 0.0552 -0.0513 -0.9972
vn 0.0570 -0.0512 -0.9971
vn -0.6660 -0.0513 -0.7442
vn -0.6647 -0.0512 -0.7453
vn -0.7453 -0.0512 0.6648
vn -0.0571 -0.0513 0.9971
vn -0.0553 -0.0513 0.9972
vn -0.7441 -0.0513 0.6661
vn 0.9972 -0.0513 0.0553
vn 0.6661 -0.0513 0.7441
vn 0.9971 -0.0513 0.0571
vn 0.9972 -0.0512 0.0553
vn 0.6648 -0.0513 0.7453
vn -0.7453 -0.0513 0.6647
vn -0.9971 -0.0513 -0.0570
vn -0.7441 -0.0512 0.6661
vn -0.7454 -0.0512 0.6647
vn -0.9972 -0.0513 -0.0553
vn 0.9971 -0.0513 0.0570
vn 0.7453 -0.0512 -0.6647
vn 0.9972 -0.0513 0.0552
vn 0.7453 -0.0513 -0.6647
vn -0.0552 -0.0513 0.9972
vn 0.6660 -0.0513 0.7441
vn 0.6647 -0.0512 0.7453
vn 0.6660 -0.0512 0.7442
vn -0.0570 -0.0512 0.9971
vn -0.6661 -0.0513 -0.7441
vn -0.9972 -0.0512 -0.0553
vn -0.6648 -0.0513 -0.7453
vn -0.0000 1.0000 -0.0000
vn 0.3020 0.4042 0.8634
vn -0.3969 0.4042 0.8240
vn -0.3969 0.4042 0.8241
vn -0.3969 0.4043 0.8240
vn -0.8240 0.4042 -0.3970
vn -0.3020 0.4042 -0.8634
vn -0.3020 0.4043 -0.8634
vn 0.3969 0.4042 -0.8240
vn 0.3969 0.4043 -0.8240
vn 0.3969 0.4042 -0.8241
vn 0.8240 0.4042 0.3970
vn 0.3020 0.4043 0.8633
vn -0.8634 0.4042 0.3020
vn -0.8241 0.4042 -0.3969
vn -0.8240 0.4042 -0.3969
vn 0.8634 0.4042 -0.3020
vn 0.8240 0.4042 0.3969
vn 0.8240 0.4043 0.3969
vn -0.3970 0.4043 0.8240
vn -0.3970 0.4042 0.8240
vn 0.3970 0.4042 -0.8240
vn 0.3970 0.4043 -0.8240
vn -0.9438 0.3228 0.0706
vn -0.5331 0.3228 -0.7821
vn 0.5331 0.3228 0.7821
vn -0.4107 0.3228 0.8527
vn 0.9438 0.3228 -0.0706
vn -0.4108 0.3228 0.8527
vn 0.4108 0.3228 -0.8527
vn 0.4107 0.3228 -0.8527
vn -0.2984 0.7260 0.6196
vn -0.9476 0.3115 0.0709
vn -0.4124 0.3115 0.8561
vn -0.6858 0.7260 0.0513
vn 0.4124 0.3115 -0.8561
vn -0.3874 0.7260 -0.5683
vn 0.2985 0.7260 -0.6196
vn -0.5352 0.3115 -0.7852
vn 0.6858 0.7260 -0.0514
vn 0.5352 0.3115 0.7852
vn 0.9476 0.3115 -0.0709
vn 0.3873 0.7260 0.5683
vn 0.3874 0.7260 0.5682
vn 0.3874 0.7260 0.5683
vn -0.2985 0.7260 0.6196
vn 0.3873 0.7259 0.5683
vn -0.6858 0.7259 0.0513
vn -0.2985 0.7259 0.6196
vn -0.3873 0.7259 -0.5683
vn 0.6858 0.7259 -0.0513
vn 0.6858 0.7259 -0.0514
vn 0.2985 0.7259 -0.6196
vn 0.6858 0.7260 -0.0513
vn 0.2985 0.7260 -0.6195
vn -0.3873 0.7260 -0.5683
vn 0.0706 0.3228 0.9438
vn -0.7821 0.3228 0.5331
vn 0.8527 0.3228 0.4108
vn -0.7821 0.3228 0.5330
vn -0.8527 0.3228 -0.4107
vn -0.8527 0.3228 -0.4108
vn -0.0706 0.3228 -0.9438
vn 0.7821 0.3228 -0.5331
vn 0.8527 0.3228 0.4107
vn -0.8601 0.5060 0.0644
vn -0.4858 0.5060 -0.7127
vn -0.8032 0.4530 -0.3869
vn 0.8032 -0.4530 0.3869
vn 0.4858 -0.5060 0.7127
vn 0.8601 -0.5060 -0.0644
vn 0.7367 0.4530 -0.5021
vn 0.8601 0.5060 -0.0644
vn 0.8601 0.5060 -0.0643
vn 0.3743 0.5060 -0.7771
vn -0.8601 -0.5060 0.0644
vn -0.7367 -0.4530 0.5021
vn -0.3743 -0.5060 0.7771
vn -0.8601 -0.5060 0.0643
vn -0.0665 0.4530 -0.8890
vn 0.0665 -0.4530 0.8890
vn -0.3743 0.5060 0.7771
vn -0.7367 0.4530 0.5021
vn 0.3743 -0.5060 -0.7771
vn 0.7367 -0.4530 -0.5021
vn 0.4858 0.5060 0.7127
vn 0.8032 0.4530 0.3869
vn -0.8032 -0.4530 -0.3869
vn -0.4858 -0.5060 -0.7127
vn 0.0665 0.4530 0.8890
vn -0.3743 0.5060 0.7770
vn -0.0665 -0.4530 -0.8890
vn 0.7127 0.5060 -0.4858
vn 0.7770 0.5060 0.3743
vn 0.8890 0.4530 -0.0665
vn 0.7771 0.5060 0.3743
vn -0.8890 -0.4530 0.0665
vn -0.7771 -0.5060 -0.3743
vn -0.7127 -0.5060 0.4858
vn 0.0644 0.5060 0.8601
vn -0.3869 0.4530 0.8032
vn -0.7127 0.5060 0.4858
vn -0.0644 -0.5060 -0.8601
vn 0.3869 -0.4530 -0.8032
vn 0.7127 -0.5060 -0.4858
vn -0.7771 0.5060 -0.3743
vn -0.0644 0.5060 -0.8601
vn -0.5021 0.4530 -0.7367
vn 0.5021 -0.4530 0.7367
vn 0.0644 -0.5060 0.8601
vn 0.7771 -0.5060 0.3743
vn 0.3869 0.4530 -0.8032
vn -0.3869 -0.4530 0.8032
vn 0.0643 -0.5060 0.8601
vn -0.8891 0.4529 0.0665
vn 0.8891 -0.4529 -0.0665
vn 0.5021 0.4530 0.7367
vn 0.0643 0.5060 0.8601
vn -0.5021 -0.4530 -0.7367
vn -0.0643 -0.5060 -0.8601
vn 0.8601 0.5061 -0.0644
vn 0.3743 0.5060 -0.7770
vn -0.3743 -0.5061 0.7770
vn 0.0665 0.4529 0.8891
vn 0.0665 0.4530 0.8891
vn -0.0665 -0.4529 -0.8891
vn -0.8601 0.5060 0.0643
vn -0.8032 0.4529 -0.3869
vn 0.8032 -0.4529 0.3869
vn 0.8601 -0.5060 -0.0643
vn 0.8601 -0.5061 -0.0644
vn 0.4858 0.5061 0.7127
vn 0.3743 -0.5060 -0.7770
vt 0.593750 0.025000
vt 0.593750 0.104996
vt 0.593750 0.225000
vt 0.093750 0.475000
vt 0.093750 0.275000
vt 0.093750 0.425000
vt 0.093750 0.348778
vt 0.093750 0.338765
vt 0.093750 0.344099
vt 0.093750 0.375000
vt 0.093750 0.325000
s 0
usemtl colormap.002
f 3/1/1 2/1/1 1/1/1
f 2/1/1 3/1/1 4/1/1
f 4/1/1 3/1/1 5/1/1
f 4/1/1 5/1/1 6/1/1
f 6/1/1 5/1/1 7/1/1
f 6/1/1 7/1/1 8/1/1
f 9/2/2 1/1/3 2/1/4
f 1/1/3 9/2/2 10/2/5
f 11/2/6 1/1/7 10/2/8
f 1/1/7 11/2/9 3/1/10
f 12/2/11 2/1/4 4/1/12
f 2/1/13 12/2/11 9/2/14
f 13/2/15 4/1/16 6/1/17
f 4/1/16 13/2/15 12/2/18
f 7/1/19 14/2/20 8/1/21
f 14/2/20 7/1/19 15/2/22
f 11/2/23 5/1/24 3/1/10
f 5/1/25 11/2/23 16/2/26
f 8/1/27 13/2/28 6/1/17
f 13/2/29 8/1/27 14/2/30
f 7/1/19 16/2/26 15/2/31
f 16/2/26 7/1/19 5/1/25
f 14/2/32 18/3/33 17/3/34
f 18/3/35 14/2/32 15/2/36
f 16/2/37 18/3/38 15/2/39
f 18/3/38 16/2/40 19/3/41
f 21/3/42 9/2/43 20/3/44
f 9/2/43 21/3/42 10/2/45
f 22/3/46 12/2/47 13/2/48
f 12/2/47 22/3/49 23/3/50
f 21/3/51 11/2/52 10/2/53
f 11/2/52 21/3/54 24/3/55
f 13/2/56 17/3/57 22/3/58
f 17/3/59 13/2/56 14/2/32
f 20/3/60 12/2/61 23/3/62
f 12/2/63 20/3/60 9/2/64
f 24/3/55 16/2/65 11/2/52
f 16/2/65 24/3/66 19/3/67
f 27/4/68 26/4/68 25/4/68
f 26/4/68 27/4/68 28/4/68
f 26/4/68 28/4/68 29/4/68
f 29/4/68 28/4/68 30/4/68
f 29/4/68 30/4/68 31/4/68
f 31/4/68 30/4/68 32/4/68
f 35/5/1 34/5/1 33/5/1
f 34/5/1 35/5/1 36/5/1
f 34/5/1 36/5/1 37/5/1
f 37/5/1 36/5/1 38/5/1
f 37/5/1 38/5/1 39/5/1
f 39/5/1 38/5/1 40/5/1
f 27/4/69 33/5/70 34/5/69
f 33/5/71 27/4/69 25/4/72
f 29/4/73 38/5/74 36/5/73
f 38/5/74 29/4/73 31/4/75
f 40/5/76 31/4/74 32/4/77
f 31/4/74 40/5/78 38/5/74
f 28/4/79 34/5/69 37/5/79
f 34/5/69 28/4/79 27/4/80
f 26/4/81 36/5/82 35/5/81
f 36/5/82 26/4/81 29/4/83
f 30/4/84 37/5/85 39/5/84
f 37/5/85 30/4/84 28/4/86
f 26/4/81 33/5/87 25/4/88
f 33/5/88 26/4/81 35/5/81
f 40/5/89 30/4/84 39/5/84
f 30/4/84 40/5/90 32/4/89
f 43/6/91 42/7/92 41/7/91
f 42/7/92 43/6/91 44/6/92
f 47/6/93 46/7/94 45/7/93
f 46/7/94 47/6/93 48/6/94
f 50/6/95 45/7/93 49/7/95
f 45/7/93 50/6/95 47/6/93
f 48/6/96 41/7/91 46/7/96
f 41/7/91 48/6/96 43/6/91
f 52/7/97 44/6/92 51/6/98
f 44/6/92 52/7/97 42/7/92
f 52/7/97 50/6/95 49/7/95
f 50/6/95 52/7/97 51/6/97
f 41/7/1 45/7/1 46/7/1
f 45/7/1 41/7/1 42/7/1
f 45/7/1 42/7/1 49/7/1
f 49/7/1 42/7/1 52/7/1
f 55/6/99 54/8/100 53/8/101
f 54/8/100 55/6/99 56/6/102
f 59/8/103 58/6/104 57/6/105
f 58/6/104 59/8/103 60/8/106
f 63/6/107 62/8/108 61/8/109
f 62/8/108 63/6/107 64/6/110
f 64/6/111 53/8/101 62/8/108
f 53/8/101 64/6/112 55/6/113
f 64/6/114 56/6/115 55/6/116
f 56/6/115 64/6/114 58/6/117
f 58/6/117 64/6/114 63/6/118
f 58/6/117 63/6/119 57/6/120
f 59/8/103 63/6/121 61/8/109
f 63/6/121 59/8/103 57/6/122
f 54/8/1 62/8/1 53/8/1
f 62/8/1 54/8/1 60/8/1
f 62/8/1 60/8/1 61/8/1
f 61/8/1 60/8/1 59/8/1
f 56/6/102 60/8/106 54/8/100
f 60/8/106 56/6/102 58/6/123
f 67/6/124 66/9/125 65/9/124
f 66/9/125 67/6/124 68/6/125
f 70/6/126 65/9/124 69/9/126
f 65/9/124 70/6/126 67/6/124
f 68/6/127 71/9/128 66/9/125
f 71/9/128 68/6/125 72/6/128
f 72/6/129 73/9/130 71/9/129
f 73/9/130 72/6/129 74/6/130
f 71/9/1 65/9/1 66/9/1
f 65/9/1 71/9/1 69/9/1
f 69/9/1 71/9/1 73/9/1
f 69/9/1 73/9/1 75/9/1
f 76/6/131 69/9/132 75/9/131
f 69/9/126 76/6/131 70/6/126
f 73/9/130 76/6/131 75/9/131
f 76/6/131 73/9/130 74/6/130
f 79/10/133 78/10/134 77/11/135
f 78/10/134 79/10/133 41/6/133
f 78/10/134 41/6/133 42/6/134
f 77/11/136 78/10/137 79/10/138
f 41/6/138 79/10/138 78/10/137
f 42/6/137 41/6/138 78/10/137
f 81/11/139 49/6/140 80/10/140
f 49/6/141 81/11/139 52/6/142
f 52/6/142 81/11/139 82/10/142
f 80/10/143 49/6/143 81/11/144
f 52/6/145 81/11/144 49/6/146
f 82/10/145 81/11/144 52/6/145
f 82/10/142 42/6/134 52/6/142
f 42/6/134 82/10/142 83/11/147
f 42/6/134 83/11/147 78/10/134
f 52/6/145 42/6/137 82/10/145
f 83/11/148 82/10/145 42/6/137
f 78/10/137 83/11/148 42/6/137
f 46/6/149 85/11/150 84/10/149
f 85/11/150 46/6/149 41/6/133
f 85/11/150 41/6/133 79/10/133
f 84/10/151 85/11/152 46/6/151
f 41/6/138 46/6/151 85/11/152
f 79/10/138 41/6/138 85/11/152
f 80/10/140 87/10/153 86/11/154
f 87/10/153 80/10/140 49/6/140
f 87/10/153 49/6/140 45/6/153
f 86/11/155 87/10/156 80/10/143
f 49/6/143 80/10/143 87/10/156
f 45/6/156 49/6/143 87/10/156
f 45/6/153 88/11/157 87/10/153
f 88/11/157 45/6/153 46/6/158
f 88/11/157 46/6/149 84/10/149
f 87/10/156 88/11/159 45/6/156
f 46/6/151 45/6/156 88/11/159
f 84/10/151 46/6/151 88/11/159
f 91/10/160 90/10/161 89/11/162
f 90/10/163 91/10/160 75/6/160
f 90/10/163 75/6/160 69/6/163
f 89/11/164 90/10/165 91/10/166
f 75/6/166 91/10/166 90/10/165
f 69/6/165 75/6/166 90/10/165
f 65/6/167 93/11/168 92/10/167
f 93/11/168 65/6/167 66/6/169
f 93/11/168 66/6/169 94/10/169
f 92/10/170 93/11/171 65/6/170
f 66/6/172 65/6/170 93/11/171
f 94/10/172 66/6/172 93/11/171
f 97/10/173 96/10/174 95/11/175
f 96/10/174 97/10/173 71/6/173
f 96/10/174 71/6/173 73/6/174
f 95/11/176 96/10/177 97/10/178
f 71/6/178 97/10/178 96/10/177
f 73/6/177 71/6/178 96/10/177
f 98/11/179 75/6/160 91/10/160
f 75/6/160 98/11/179 73/6/174
f 73/6/174 98/11/179 96/10/174
f 91/10/166 75/6/166 98/11/180
f 73/6/177 98/11/180 75/6/166
f 96/10/181 98/11/180 73/6/181
f 94/10/169 97/10/173 99/11/182
f 97/10/173 94/10/169 66/6/169
f 97/10/173 66/6/169 71/6/173
f 99/11/183 97/10/178 94/10/172
f 66/6/172 94/10/172 97/10/178
f 71/6/178 66/6/172 97/10/178
f 90/10/163 92/10/167 100/11/184
f 92/10/185 90/10/163 69/6/163
f 92/10/167 69/6/163 65/6/167
f 100/11/186 92/10/170 90/10/165
f 69/6/165 90/10/165 92/10/187
f 65/6/170 69/6/165 92/10/170
f 102/11/139 61/6/140 101/10/140
f 61/6/188 102/11/139 59/6/142
f 59/6/189 102/11/139 103/10/142
f 101/10/143 61/6/143 102/11/144
f 59/6/145 102/11/144 61/6/143
f 103/10/145 102/11/144 59/6/190
f 103/10/142 60/6/134 59/6/142
f 60/6/134 103/10/142 104/11/147
f 60/6/134 104/11/147 105/10/134
f 59/6/145 60/6/137 103/10/145
f 104/11/148 103/10/145 60/6/137
f 105/10/137 104/11/148 60/6/137
f 62/6/153 107/11/191 106/10/153
f 107/11/157 62/6/153 53/6/158
f 107/11/192 53/6/149 108/10/149
f 106/10/156 107/11/193 62/6/156
f 53/6/151 62/6/156 107/11/159
f 108/10/151 53/6/151 107/11/193
f 110/10/194 105/10/134 109/11/195
f 105/10/134 110/10/133 54/6/133
f 105/10/134 54/6/133 60/6/134
f 109/11/196 105/10/137 110/10/197
f 54/6/138 110/10/138 105/10/137
f 60/6/137 54/6/198 105/10/137
f 101/10/140 106/10/199 111/11/154
f 106/10/153 101/10/140 61/6/140
f 106/10/153 61/6/141 62/6/153
f 111/11/155 106/10/156 101/10/143
f 61/6/143 101/10/143 106/10/156
f 62/6/156 61/6/146 106/10/156
f 53/6/149 112/11/150 108/10/149
f 112/11/150 53/6/149 54/6/133
f 112/11/150 54/6/194 110/10/194
f 108/10/151 112/11/152 53/6/200
f 54/6/138 53/6/151 112/11/152
f 110/10/197 54/6/197 112/11/152
f 3/1/1 2/1/1 1/1/1
f 2/1/1 3/1/1 4/1/1
f 4/1/1 3/1/1 5/1/1
f 4/1/1 5/1/1 6/1/1
f 6/1/1 5/1/1 7/1/1
f 6/1/1 7/1/1 8/1/1
f 9/2/2 1/1/3 2/1/4
f 1/1/3 9/2/2 10/2/5
f 11/2/6 1/1/7 10/2/8
f 1/1/7 11/2/9 3/1/10
f 12/2/11 2/1/4 4/1/12
f 2/1/13 12/2/11 9/2/14
f 13/2/15 4/1/16 6/1/17
f 4/1/16 13/2/15 12/2/18
f 7/1/19 14/2/20 8/1/21
f 14/2/20 7/1/19 15/2/22
f 11/2/23 5/1/24 3/1/10
f 5/1/25 11/2/23 16/2/26
f 8/1/27 13/2/28 6/1/17
f 13/2/29 8/1/27 14/2/30
f 7/1/19 16/2/26 15/2/31
f 16/2/26 7/1/19 5/1/25
f 14/2/32 18/3/33 17/3/34
f 18/3/35 14/2/32 15/2/36
f 16/2/37 18/3/38 15/2/39
f 18/3/38 16/2/40 19/3/41
f 21/3/42 9/2/43 20/3/44
f 9/2/43 21/3/42 10/2/45
f 22/3/46 12/2/47 13/2/48
f 12/2/47 22/3/49 23/3/50
f 21/3/51 11/2/52 10/2/53
f 11/2/52 21/3/54 24/3/55
f 13/2/56 17/3/57 22/3/58
f 17/3/59 13/2/56 14/2/32
f 20/3/60 12/2/61 23/3/62
f 12/2/63 20/3/60 9/2/64
f 24/3/55 16/2/65 11/2/52
f 16/2/65 24/3/66 19/3/67
f 27/4/68 26/4/68 25/4/68
f 26/4/68 27/4/68 28/4/68
f 26/4/68 28/4/68 29/4/68
f 29/4/68 28/4/68 30/4/68
f 29/4/68 30/4/68 31/4/68
f 31/4/68 30/4/68 32/4/68
f 35/5/1 34/5/1 33/5/1
f 34/5/1 35/5/1 36/5/1
f 34/5/1 36/5/1 37/5/1
f 37/5/1 36/5/1 38/5/1
f 37/5/1 38/5/1 39/5/1
f 39/5/1 38/5/1 40/5/1
f 27/4/69 33/5/70 34/5/69
f 33/5/71 27/4/69 25/4/72
f 29/4/73 38/5/74 36/5/73
f 38/5/74 29/4/73 31/4/75
f 40/5/76 31/4/74 32/4/77
f 31/4/74 40/5/78 38/5/74
f 28/4/79 34/5/69 37/5/79
f 34/5/69 28/4/79 27/4/80
f 26/4/81 36/5/82 35/5/81
f 36/5/82 26/4/81 29/4/83
f 30/4/84 37/5/85 39/5/84
f 37/5/85 30/4/84 28/4/86
f 26/4/81 33/5/87 25/4/88
f 33/5/88 26/4/81 35/5/81
f 40/5/89 30/4/84 39/5/84
f 30/4/84 40/5/90 32/4/89
f 43/6/91 42/7/92 41/7/91
f 42/7/92 43/6/91 44/6/92
f 47/6/93 46/7/94 45/7/93
f 46/7/94 47/6/93 48/6/94
f 50/6/95 45/7/93 49/7/95
f 45/7/93 50/6/95 47/6/93
f 48/6/96 41/7/91 46/7/96
f 41/7/91 48/6/96 43/6/91
f 52/7/97 44/6/92 51/6/98
f 44/6/92 52/7/97 42/7/92
f 52/7/97 50/6/95 49/7/95
f 50/6/95 52/7/97 51/6/97
f 41/7/1 45/7/1 46/7/1
f 45/7/1 41/7/1 42/7/1
f 45/7/1 42/7/1 49/7/1
f 49/7/1 42/7/1 52/7/1
f 55/6/99 54/8/100 53/8/101
f 54/8/100 55/6/99 56/6/102
f 59/8/103 58/6/104 57/6/105
f 58/6/104 59/8/103 60/8/106
f 63/6/107 62/8/108 61/8/109
f 62/8/108 63/6/107 64/6/110
f 64/6/111 53/8/101 62/8/108
f 53/8/101 64/6/112 55/6/113
f 64/6/114 56/6/115 55/6/116
f 56/6/115 64/6/114 58/6/117
f 58/6/117 64/6/114 63/6/118
f 58/6/117 63/6/119 57/6/120
f 59/8/103 63/6/121 61/8/109
f 63/6/121 59/8/103 57/6/122
f 54/8/1 62/8/1 53/8/1
f 62/8/1 54/8/1 60/8/1
f 62/8/1 60/8/1 61/8/1
f 61/8/1 60/8/1 59/8/1
f 56/6/102 60/8/106 54/8/100
f 60/8/106 56/6/102 58/6/123
f 67/6/124 66/9/125 65/9/124
f 66/9/125 67/6/124 68/6/125
f 70/6/126 65/9/124 69/9/126
f 65/9/124 70/6/126 67/6/124
f 68/6/127 71/9/128 66/9/125
f 71/9/128 68/6/125 72/6/128
f 72/6/129 73/9/130 71/9/129
f 73/9/130 72/6/129 74/6/130
f 71/9/1 65/9/1 66/9/1
f 65/9/1 71/9/1 69/9/1
f 69/9/1 71/9/1 73/9/1
f 69/9/1 73/9/1 75/9/1
f 76/6/131 69/9/132 75/9/131
f 69/9/126 76/6/131 70/6/126
f 73/9/130 76/6/131 75/9/131
f 76/6/131 73/9/130 74/6/130
f 79/10/133 78/10/134 77/11/135
f 78/10/134 79/10/133 41/6/133
f 78/10/134 41/6/133 42/6/134
f 77/11/136 78/10/137 79/10/138
f 41/6/138 79/10/138 78/10/137
f 42/6/137 41/6/138 78/10/137
f 81/11/139 49/6/140 80/10/140
f 49/6/141 81/11/139 52/6/142
f 52/6/142 81/11/139 82/10/142
f 80/10/143 49/6/143 81/11/144
f 52/6/145 81/11/144 49/6/146
f 82/10/145 81/11/144 52/6/145
f 82/10/142 42/6/134 52/6/142
f 42/6/134 82/10/142 83/11/147
f 42/6/134 83/11/147 78/10/134
f 52/6/145 42/6/137 82/10/145
f 83/11/148 82/10/145 42/6/137
f 78/10/137 83/11/148 42/6/137
f 46/6/149 85/11/150 84/10/149
f 85/11/150 46/6/149 41/6/133
f 85/11/150 41/6/133 79/10/133
f 84/10/151 85/11/152 46/6/151
f 41/6/138 46/6/151 85/11/152
f 79/10/138 41/6/138 85/11/152
f 80/10/140 87/10/153 86/11/154
f 87/10/153 80/10/140 49/6/140
f 87/10/153 49/6/140 45/6/153
f 86/11/155 87/10/156 80/10/143
f 49/6/143 80/10/143 87/10/156
f 45/6/156 49/6/143 87/10/156
f 45/6/153 88/11/157 87/10/153
f 88/11/157 45/6/153 46/6/158
f 88/11/157 46/6/149 84/10/149
f 87/10/156 88/11/159 45/6/156
f 46/6/151 45/6/156 88/11/159
f 84/10/151 46/6/151 88/11/159
f 91/10/160 90/10/161 89/11/162
f 90/10/163 91/10/160 75/6/160
f 90/10/163 75/6/160 69/6/163
f 89/11/164 90/10/165 91/10/166
f 75/6/166 91/10/166 90/10/165
f 69/6/165 75/6/166 90/10/165
f 65/6/167 93/11/168 92/10/167
f 93/11/168 65/6/167 66/6/169
f 93/11/168 66/6/169 94/10/169
f 92/10/170 93/11/171 65/6/170
f 66/6/172 65/6/170 93/11/171
f 94/10/172 66/6/172 93/11/171
f 97/10/173 96/10/174 95/11/175
f 96/10/174 97/10/173 71/6/173
f 96/10/174 71/6/173 73/6/174
f 95/11/176 96/10/177 97/10/178
f 71/6/178 97/10/178 96/10/177
f 73/6/177 71/6/178 96/10/177
f 98/11/179 75/6/160 91/10/160
f 75/6/160 98/11/179 73/6/174
f 73/6/174 98/11/179 96/10/174
f 91/10/166 75/6/166 98/11/180
f 73/6/177 98/11/180 75/6/166
f 96/10/181 98/11/180 73/6/181
f 94/10/169 97/10/173 99/11/182
f 97/10/173 94/10/169 66/6/169
f 97/10/173 66/6/169 71/6/173
f 99/11/183 97/10/178 94/10/172
f 66/6/172 94/10/172 97/10/178
f 71/6/178 66/6/172 97/10/178
f 90/10/163 92/10/167 100/11/184
f 92/10/185 90/10/163 69/6/163
f 92/10/167 69/6/163 65/6/167
f 100/11/186 92/10/170 90/10/165
f 69/6/165 90/10/165 92/10/187
f 65/6/170 69/6/165 92/10/170
f 102/11/139 61/6/140 101/10/140
f 61/6/188 102/11/139 59/6/142
f 59/6/189 102/11/139 103/10/142
f 101/10/143 61/6/143 102/11/144
f 59/6/145 102/11/144 61/6/143
f 103/10/145 102/11/144 59/6/190
f 103/10/142 60/6/134 59/6/142
f 60/6/134 103/10/142 104/11/147
f 60/6/134 104/11/147 105/10/134
f 59/6/145 60/6/137 103/10/145
f 104/11/148 103/10/145 60/6/137
f 105/10/137 104/11/148 60/6/137
f 62/6/153 107/11/191 106/10/153
f 107/11/157 62/6/153 53/6/158
f 107/11/192 53/6/149 108/10/149
f 106/10/156 107/11/193 62/6/156
f 53/6/151 62/6/156 107/11/159
f 108/10/151 53/6/151 107/11/193
f 110/10/194 105/10/134 109/11/195
f 105/10/134 110/10/133 54/6/133
f 105/10/134 54/6/133 60/6/134
f 109/11/196 105/10/137 110/10/197
f 54/6/138 110/10/138 105/10/137
f 60/6/137 54/6/198 105/10/137
f 101/10/140 106/10/199 111/11/154
f 106/10/153 101/10/140 61/6/140
f 106/10/153 61/6/141 62/6/153
f 111/11/155 106/10/156 101/10/143
f 61/6/143 101/10/143 106/10/156
f 62/6/156 61/6/146 106/10/156
f 53/6/149 112/11/150 108/10/149
f 112/11/150 53/6/149 54/6/133
f 112/11/150 54/6/194 110/10/194
f 108/10/151 112/11/152 53/6/200
f 54/6/138 53/6/151 112/11/152
f 110/10/197 54/6/197 112/11/152
