# Blender 4.1.1
# www.blender.org
mtllib gravestone-bevel.003.mtl
o gravestone-bevel.003
v 13.529264 -3.562129 -9.361773
v 13.405969 -3.609919 -9.435868
v 13.446931 -3.562129 -9.411252
v 13.494640 -3.665582 -9.382580
v 13.494640 -4.117218 -9.382580
v 13.405969 -4.220670 -9.435868
v 13.956304 -4.117218 -9.105141
v 14.044975 -4.220670 -9.051852
v 14.044975 -3.609919 -9.051852
v 13.956304 -3.665582 -9.105141
v 13.853639 -3.665582 -9.166838
v 13.635053 -3.501224 -9.298199
v 13.597305 -3.665582 -9.320883
v 13.555552 -3.447673 -9.345976
v 13.673269 -3.456639 -9.275232
v 13.725472 -3.440320 -9.243860
v 13.627368 -3.363885 -9.302816
v 13.921679 -3.562129 -9.125949
v 14.004013 -3.562129 -9.076469
v 13.815891 -3.501224 -9.189523
v 13.895392 -3.447673 -9.141746
v 13.777675 -3.456639 -9.212488
v 13.823576 -3.363885 -9.184904
v 13.725472 -3.333217 -9.243860
v 13.594137 -3.562129 -9.656204
v 13.553175 -3.609919 -9.680821
v 13.676470 -3.562129 -9.606726
v 13.744511 -3.665582 -9.565836
v 13.782259 -3.501224 -9.543152
v 13.641847 -3.665582 -9.627532
v 13.702757 -3.447673 -9.590928
v 13.820475 -3.456639 -9.520185
v 13.641847 -4.117218 -9.627532
v 13.553175 -4.220671 -9.680821
v 14.192182 -4.220671 -9.296805
v 14.103510 -4.117218 -9.350094
v 13.872679 -3.440320 -9.488813
v 14.192182 -3.609919 -9.296805
v 14.103510 -3.665582 -9.350094
v 14.000845 -3.665582 -9.411791
v 13.774573 -3.363885 -9.547770
v 14.068886 -3.562129 -9.370902
v 14.151219 -3.562129 -9.321423
v 13.963098 -3.501224 -9.434476
v 14.042599 -3.447673 -9.386699
v 13.924881 -3.456639 -9.457441
v 13.970782 -3.363885 -9.429857
v 13.872679 -3.333217 -9.488813
v 14.005536 -4.117218 -9.187065
v 13.543874 -4.117218 -9.464503
v 14.005536 -3.665582 -9.187065
v 13.902871 -3.665582 -9.248762
v 13.865123 -3.501224 -9.271447
v 13.826908 -3.456639 -9.294413
v 13.774705 -3.440320 -9.325785
v 13.722501 -3.456639 -9.357156
v 13.684286 -3.501224 -9.380122
v 13.646539 -3.665582 -9.402806
v 13.543874 -3.665582 -9.464503
v 13.592614 -3.665582 -9.545609
v 13.592614 -4.117218 -9.545609
v 13.695279 -3.665582 -9.483912
v 13.733027 -3.501224 -9.461227
v 13.771242 -3.456639 -9.438261
v 13.823445 -3.440320 -9.406890
v 13.875649 -3.456639 -9.375517
v 13.913864 -3.501224 -9.352551
v 13.951612 -3.665582 -9.329866
v 14.054276 -3.665582 -9.268170
v 14.054276 -4.117218 -9.268170
v 14.061321 -4.444326 -8.986275
v 14.257761 -4.444326 -9.313150
v 13.340389 -4.444326 -9.419522
v 13.536829 -4.444326 -9.746399
v 13.536829 -4.295222 -9.746399
v 14.257761 -4.295222 -9.313150
v 14.061321 -4.295222 -8.986275
v 13.340389 -4.295222 -9.419522
vn -0.5151 -0.0000 0.8571
vn -0.5151 0.0001 0.8571
vn 0.5151 -0.0000 -0.8571
vn 0.5151 -0.0001 -0.8571
vn -0.3280 0.9239 -0.1971
vn -0.0000 1.0000 -0.0000
vn 0.7423 0.5000 0.4461
vn 0.8279 0.2588 0.4975
vn 0.8279 0.2588 0.4976
vn 0.7423 0.4999 0.4461
vn 0.4286 0.8660 0.2576
vn 0.7423 0.5001 0.4461
vn 0.0001 1.0000 -0.0000
vn 0.4285 0.8661 0.2575
vn 0.4285 0.8661 0.2576
vn -0.4285 0.8661 -0.2575
vn -0.4285 0.8661 -0.2576
vn -0.7423 0.5001 -0.4461
vn -0.4286 0.8660 -0.2576
vn -0.8279 0.2588 -0.4975
vn -0.7423 0.4999 -0.4461
vn 0.3280 0.9239 0.1971
vn -0.8571 -0.0000 -0.5151
vn -0.0000 -1.0000 -0.0000
vn -0.8279 -0.2588 -0.4975
vn -0.7423 -0.5000 -0.4461
vn -0.7423 -0.4999 -0.4461
vn -0.8279 -0.2588 -0.4976
vn -0.4286 -0.8660 -0.2575
vn -0.7423 -0.5001 -0.4460
vn -0.4286 -0.8660 -0.2576
vn -0.4285 -0.8661 -0.2575
vn 0.4285 -0.8661 0.2575
vn 0.0001 -1.0000 -0.0000
vn 0.4286 -0.8660 0.2576
vn 0.7423 -0.5000 0.4461
vn 0.7423 -0.5001 0.4461
vn 0.7423 -0.4999 0.4461
vn 0.8279 -0.2588 0.4976
vn 0.8571 -0.0000 0.5151
vn 0.8279 -0.2588 0.4975
vn 0.7423 -0.5001 0.4460
vn -0.7423 -0.5001 -0.4461
vn 0.7919 0.3827 0.4759
vn 0.3281 0.9239 0.1970
vn -0.7919 0.3826 -0.4759
vn -0.7919 0.3827 -0.4759
vn -0.3281 0.9239 -0.1970
vn -0.3280 0.9239 -0.1972
vn 0.5015 0.2282 -0.8345
vn -0.4337 0.5397 0.7216
vn -0.5015 0.2283 0.8345
vn -0.4336 0.5397 0.7216
vn -0.8345 0.2283 -0.5015
vn -0.7216 0.5397 -0.4337
vn -0.7216 0.5397 -0.4336
vn -0.8345 0.2282 -0.5015
vn 0.7216 0.5397 0.4337
vn 0.8345 0.2283 0.5015
vn 0.4337 0.5396 -0.7216
vn 0.5015 0.2283 -0.8345
vn 0.4336 0.5397 -0.7216
vn -0.5015 0.2282 0.8345
vn 0.8345 0.2282 0.5015
vn 0.0499 0.9988 -0.0000
vn -0.1376 0.9891 0.0521
vn -0.1377 0.9891 0.0522
vn -0.1066 0.9943 -0.0000
vt 0.843750 0.183796
vt 0.843750 0.175194
vt 0.843750 0.165174
vt 0.843750 0.083880
vt 0.843750 0.065258
vt 0.843750 0.194759
vt 0.843750 0.204398
vt 0.843750 0.202784
vt 0.843750 0.205722
vt 0.843750 0.219480
vt 0.843750 0.225000
vt 0.093750 0.025000
vt 0.093750 0.051839
vt 0.093750 0.065258
vt 0.093750 0.165174
vt 0.093750 0.083880
vt 0.093750 0.194759
vt 0.093750 0.202784
vt 0.093750 0.205722
s 0
usemtl colormap
f 3/1/1 2/2/1 1/1/1
f 4/3/1 1/1/1 2/2/1
f 2/2/1 5/4/1 4/3/1
f 6/5/1 5/4/1 2/2/1
f 5/4/1 6/5/1 7/4/1
f 8/5/1 7/4/1 6/5/1
f 7/4/1 8/5/1 9/2/1
f 7/4/1 9/2/1 10/3/1
f 10/3/1 9/2/1 11/3/1
f 4/3/1 12/6/1 1/1/1
f 12/6/1 4/3/1 13/3/1
f 1/1/1 12/6/1 14/7/1
f 14/7/1 12/6/1 15/8/1
f 14/7/1 15/8/1 16/9/1
f 14/7/1 16/9/1 17/10/1
f 11/3/1 9/2/1 18/1/1
f 18/1/1 9/2/1 19/1/1
f 11/3/1 18/1/1 20/6/1
f 20/6/1 18/1/1 21/7/1
f 20/6/1 21/7/1 22/8/1
f 22/8/2 21/7/2 16/9/2
f 16/9/1 21/7/1 23/10/1
f 17/10/1 16/9/1 23/10/1
f 17/10/1 23/10/1 24/11/1
f 27/1/3 26/2/3 25/1/3
f 28/3/3 26/2/3 27/1/3
f 28/3/3 27/1/3 29/6/3
f 30/3/4 26/2/4 28/3/4
f 29/6/3 27/1/3 31/7/3
f 29/6/3 31/7/3 32/8/3
f 33/4/3 26/2/3 30/3/3
f 33/4/3 34/5/3 26/2/3
f 34/5/3 33/4/3 35/5/3
f 36/4/3 35/5/3 33/4/3
f 32/8/4 31/7/4 37/9/4
f 35/5/3 36/4/3 38/2/3
f 38/2/3 36/4/3 39/3/3
f 38/2/3 39/3/3 40/3/3
f 37/9/3 31/7/3 41/10/3
f 38/2/3 40/3/3 42/1/3
f 38/2/4 42/1/4 43/1/4
f 42/1/3 40/3/3 44/6/3
f 42/1/3 44/6/3 45/7/3
f 45/7/3 44/6/3 46/8/3
f 45/7/3 46/8/3 37/9/3
f 45/7/3 37/9/3 47/10/3
f 47/10/3 37/9/3 41/10/3
f 47/10/3 41/10/3 48/11/3
f 25/1/5 1/1/6 27/1/6
f 1/1/6 25/1/5 3/1/5
f 21/7/7 42/1/8 45/7/7
f 42/1/9 21/7/10 18/1/9
f 47/10/11 21/7/7 45/7/7
f 21/7/12 47/10/11 23/10/11
f 48/11/13 23/10/14 47/10/15
f 23/10/14 48/11/6 24/11/13
f 41/10/16 24/11/6 48/11/6
f 24/11/6 41/10/16 17/10/17
f 31/7/18 17/10/19 41/10/19
f 17/10/19 31/7/18 14/7/18
f 1/1/20 31/7/21 27/1/20
f 31/7/21 1/1/20 14/7/21
f 42/1/6 19/1/22 43/1/22
f 19/1/22 42/1/6 18/1/6
f 50/4/6 7/4/6 49/4/6
f 7/4/6 50/4/6 5/4/6
f 7/4/23 51/3/23 49/4/23
f 51/3/23 7/4/23 10/3/23
f 11/3/24 51/3/24 10/3/24
f 51/3/24 11/3/24 52/3/24
f 11/3/25 53/6/26 52/3/25
f 53/6/27 11/3/28 20/6/27
f 22/8/29 53/6/30 20/6/30
f 53/6/26 22/8/31 54/8/31
f 16/9/24 54/8/32 22/8/32
f 54/8/32 16/9/24 55/9/24
f 15/8/33 55/9/24 16/9/24
f 55/9/34 15/8/33 56/8/33
f 15/8/35 57/6/36 56/8/35
f 57/6/37 15/8/35 12/6/37
f 12/6/38 58/3/39 57/6/38
f 58/3/39 12/6/36 13/3/39
f 4/3/24 58/3/24 13/3/24
f 58/3/24 4/3/24 59/3/24
f 4/3/40 50/4/40 59/3/40
f 50/4/40 4/3/40 5/4/40
f 60/3/40 33/4/40 30/3/40
f 33/4/40 60/3/40 61/4/40
f 60/3/24 28/3/24 62/3/24
f 28/3/24 60/3/24 30/3/24
f 63/6/36 28/3/39 29/6/38
f 28/3/41 63/6/36 62/3/41
f 63/6/37 32/8/35 64/8/35
f 32/8/35 63/6/42 29/6/37
f 64/8/33 37/9/24 65/9/24
f 37/9/24 64/8/33 32/8/33
f 65/9/24 46/8/32 66/8/32
f 46/8/32 65/9/24 37/9/24
f 66/8/31 44/6/26 67/6/26
f 44/6/43 66/8/31 46/8/31
f 68/3/28 44/6/26 40/3/28
f 44/6/26 68/3/28 67/6/27
f 68/3/24 39/3/24 69/3/24
f 39/3/24 68/3/24 40/3/24
f 70/4/23 39/3/23 36/4/23
f 39/3/23 70/4/23 69/3/23
f 33/4/6 70/4/6 36/4/6
f 70/4/6 33/4/6 61/4/6
f 9/2/44 35/5/40 38/2/44
f 35/5/40 9/2/44 8/5/40
f 43/1/22 9/2/44 38/2/44
f 9/2/44 43/1/22 19/1/45
f 6/5/23 26/2/46 34/5/23
f 26/2/47 6/5/23 2/2/47
f 26/2/47 3/1/5 25/1/48
f 3/1/49 26/2/47 2/2/47
f 73/12/24 72/12/24 71/12/24
f 72/12/24 73/12/24 74/12/24
f 75/13/50 72/12/3 74/12/3
f 72/12/3 75/13/50 76/13/50
f 8/14/51 78/13/52 77/13/52
f 78/13/52 8/14/53 6/14/53
f 78/13/54 34/14/55 75/13/54
f 34/14/56 78/13/54 6/14/56
f 73/12/23 75/13/57 74/12/23
f 75/13/57 73/12/23 78/13/57
f 35/14/58 77/13/59 76/13/59
f 77/13/59 35/14/58 8/14/58
f 34/14/60 76/13/61 75/13/61
f 76/13/61 34/14/62 35/14/62
f 77/13/63 73/12/1 71/12/1
f 73/12/1 77/13/63 78/13/63
f 77/13/64 72/12/40 76/13/64
f 72/12/40 77/13/64 71/12/40
f 51/15/1 50/16/1 49/16/1
f 50/16/1 51/15/1 58/15/1
f 59/15/1 50/16/1 58/15/1
f 58/15/65 51/15/65 52/15/65
f 58/15/1 52/15/1 57/17/1
f 57/17/1 52/15/1 53/17/1
f 57/17/1 53/17/1 54/18/1
f 57/17/1 54/18/1 56/18/1
f 56/18/1 54/18/1 55/19/1
f 60/15/3 70/16/3 61/16/3
f 70/16/3 60/15/3 69/15/3
f 69/15/66 60/15/67 62/15/68
f 69/15/24 62/15/24 68/15/24
f 68/15/3 62/15/3 63/17/3
f 68/15/3 63/17/3 67/17/3
f 67/17/3 63/17/3 64/18/3
f 67/17/3 64/18/3 66/18/3
f 66/18/3 64/18/3 65/19/3
f 3/1/1 2/2/1 1/1/1
f 4/3/1 1/1/1 2/2/1
f 2/2/1 5/4/1 4/3/1
f 6/5/1 5/4/1 2/2/1
f 5/4/1 6/5/1 7/4/1
f 8/5/1 7/4/1 6/5/1
f 7/4/1 8/5/1 9/2/1
f 7/4/1 9/2/1 10/3/1
f 10/3/1 9/2/1 11/3/1
f 4/3/1 12/6/1 1/1/1
f 12/6/1 4/3/1 13/3/1
f 1/1/1 12/6/1 14/7/1
f 14/7/1 12/6/1 15/8/1
f 14/7/1 15/8/1 16/9/1
f 14/7/1 16/9/1 17/10/1
f 11/3/1 9/2/1 18/1/1
f 18/1/1 9/2/1 19/1/1
f 11/3/1 18/1/1 20/6/1
f 20/6/1 18/1/1 21/7/1
f 20/6/1 21/7/1 22/8/1
f 22/8/2 21/7/2 16/9/2
f 16/9/1 21/7/1 23/10/1
f 17/10/1 16/9/1 23/10/1
f 17/10/1 23/10/1 24/11/1
f 27/1/3 26/2/3 25/1/3
f 28/3/3 26/2/3 27/1/3
f 28/3/3 27/1/3 29/6/3
f 30/3/4 26/2/4 28/3/4
f 29/6/3 27/1/3 31/7/3
f 29/6/3 31/7/3 32/8/3
f 33/4/3 26/2/3 30/3/3
f 33/4/3 34/5/3 26/2/3
f 34/5/3 33/4/3 35/5/3
f 36/4/3 35/5/3 33/4/3
f 32/8/4 31/7/4 37/9/4
f 35/5/3 36/4/3 38/2/3
f 38/2/3 36/4/3 39/3/3
f 38/2/3 39/3/3 40/3/3
f 37/9/3 31/7/3 41/10/3
f 38/2/3 40/3/3 42/1/3
f 38/2/4 42/1/4 43/1/4
f 42/1/3 40/3/3 44/6/3
f 42/1/3 44/6/3 45/7/3
f 45/7/3 44/6/3 46/8/3
f 45/7/3 46/8/3 37/9/3
f 45/7/3 37/9/3 47/10/3
f 47/10/3 37/9/3 41/10/3
f 47/10/3 41/10/3 48/11/3
f 25/1/5 1/1/6 27/1/6
f 1/1/6 25/1/5 3/1/5
f 21/7/7 42/1/8 45/7/7
f 42/1/9 21/7/10 18/1/9
f 47/10/11 21/7/7 45/7/7
f 21/7/12 47/10/11 23/10/11
f 48/11/13 23/10/14 47/10/15
f 23/10/14 48/11/6 24/11/13
f 41/10/16 24/11/6 48/11/6
f 24/11/6 41/10/16 17/10/17
f 31/7/18 17/10/19 41/10/19
f 17/10/19 31/7/18 14/7/18
f 1/1/20 31/7/21 27/1/20
f 31/7/21 1/1/20 14/7/21
f 42/1/6 19/1/22 43/1/22
f 19/1/22 42/1/6 18/1/6
f 50/4/6 7/4/6 49/4/6
f 7/4/6 50/4/6 5/4/6
f 7/4/23 51/3/23 49/4/23
f 51/3/23 7/4/23 10/3/23
f 11/3/24 51/3/24 10/3/24
f 51/3/24 11/3/24 52/3/24
f 11/3/25 53/6/26 52/3/25
f 53/6/27 11/3/28 20/6/27
f 22/8/29 53/6/30 20/6/30
f 53/6/26 22/8/31 54/8/31
f 16/9/24 54/8/32 22/8/32
f 54/8/32 16/9/24 55/9/24
f 15/8/33 55/9/24 16/9/24
f 55/9/34 15/8/33 56/8/33
f 15/8/35 57/6/36 56/8/35
f 57/6/37 15/8/35 12/6/37
f 12/6/38 58/3/39 57/6/38
f 58/3/39 12/6/36 13/3/39
f 4/3/24 58/3/24 13/3/24
f 58/3/24 4/3/24 59/3/24
f 4/3/40 50/4/40 59/3/40
f 50/4/40 4/3/40 5/4/40
f 60/3/40 33/4/40 30/3/40
f 33/4/40 60/3/40 61/4/40
f 60/3/24 28/3/24 62/3/24
f 28/3/24 60/3/24 30/3/24
f 63/6/36 28/3/39 29/6/38
f 28/3/41 63/6/36 62/3/41
f 63/6/37 32/8/35 64/8/35
f 32/8/35 63/6/42 29/6/37
f 64/8/33 37/9/24 65/9/24
f 37/9/24 64/8/33 32/8/33
f 65/9/24 46/8/32 66/8/32
f 46/8/32 65/9/24 37/9/24
f 66/8/31 44/6/26 67/6/26
f 44/6/43 66/8/31 46/8/31
f 68/3/28 44/6/26 40/3/28
f 44/6/26 68/3/28 67/6/27
f 68/3/24 39/3/24 69/3/24
f 39/3/24 68/3/24 40/3/24
f 70/4/23 39/3/23 36/4/23
f 39/3/23 70/4/23 69/3/23
f 33/4/6 70/4/6 36/4/6
f 70/4/6 33/4/6 61/4/6
f 9/2/44 35/5/40 38/2/44
f 35/5/40 9/2/44 8/5/40
f 43/1/22 9/2/44 38/2/44
f 9/2/44 43/1/22 19/1/45
f 6/5/23 26/2/46 34/5/23
f 26/2/47 6/5/23 2/2/47
f 26/2/47 3/1/5 25/1/48
f 3/1/49 26/2/47 2/2/47
f 73/12/24 72/12/24 71/12/24
f 72/12/24 73/12/24 74/12/24
f 75/13/50 72/12/3 74/12/3
f 72/12/3 75/13/50 76/13/50
f 8/14/51 78/13/52 77/13/52
f 78/13/52 8/14/53 6/14/53
f 78/13/54 34/14/55 75/13/54
f 34/14/56 78/13/54 6/14/56
f 73/12/23 75/13/57 74/12/23
f 75/13/57 73/12/23 78/13/57
f 35/14/58 77/13/59 76/13/59
f 77/13/59 35/14/58 8/14/58
f 34/14/60 76/13/61 75/13/61
f 76/13/61 34/14/62 35/14/62
f 77/13/63 73/12/1 71/12/1
f 73/12/1 77/13/63 78/13/63
f 77/13/64 72/12/40 76/13/64
f 72/12/40 77/13/64 71/12/40
f 51/15/1 50/16/1 49/16/1
f 50/16/1 51/15/1 58/15/1
f 59/15/1 50/16/1 58/15/1
f 58/15/65 51/15/65 52/15/65
f 58/15/1 52/15/1 57/17/1
f 57/17/1 52/15/1 53/17/1
f 57/17/1 53/17/1 54/18/1
f 57/17/1 54/18/1 56/18/1
f 56/18/1 54/18/1 55/19/1
f 60/15/3 70/16/3 61/16/3
f 70/16/3 60/15/3 69/15/3
f 69/15/66 60/15/67 62/15/68
f 69/15/24 62/15/24 68/15/24
f 68/15/3 62/15/3 63/17/3
f 68/15/3 63/17/3 67/17/3
f 67/17/3 63/17/3 64/18/3
f 67/17/3 64/18/3 66/18/3
f 66/18/3 64/18/3 65/19/3
