# Blender 4.1.1
# www.blender.org
mtllib crypt-door.mtl
o crypt-door
v 14.438683 -3.369059 -4.206493
v 14.378945 -3.369059 -4.206493
v 14.438683 -3.369059 -4.820451
v 14.378945 -3.369059 -4.820451
v 14.558156 -4.444326 -5.127430
v 14.558156 -4.444326 -3.899514
v 14.558156 -2.532739 -5.127430
v 14.558156 -2.532739 -3.899514
v 14.319209 -2.532739 -3.899514
v 14.319209 -4.444326 -3.899514
v 14.319209 -2.532739 -5.127430
v 14.378945 -3.608007 -4.206493
v 14.378945 -3.608007 -4.820451
v 14.438683 -2.771688 -4.820451
v 14.319209 -2.771688 -4.820451
v 14.319209 -4.205378 -4.820451
v 14.438683 -4.205378 -4.820451
v 14.438683 -3.608007 -4.820451
v 14.319209 -4.444326 -5.127430
v 14.438683 -4.205378 -4.206493
v 14.438683 -3.608007 -4.206493
v 14.319209 -4.205378 -4.206493
v 14.319209 -2.771688 -4.206493
v 14.438683 -2.771688 -4.206493
vn -0.0000 1.0000 -0.0000
vn -0.7070 0.7071 0.0126
vn -0.7071 0.7071 0.0049
vn -0.7071 0.7071 -0.0000
vn 1.0000 -0.0000 -0.0000
vn -0.0000 -0.0000 1.0000
vn -0.7071 0.7060 0.0397
vn -0.7071 -0.7069 -0.0176
vn -0.7071 -0.7071 -0.0000
vn -0.7071 -0.7060 -0.0397
vn -0.7071 0.7069 0.0176
vn -0.0000 -0.0000 -1.0000
vn -0.0000 -1.0000 -0.0000
vn -0.7071 -0.7071 -0.0049
vn -0.7070 -0.7071 -0.0126
vn -1.0000 -0.0000 -0.0000
vt 0.093750 0.137500
vt 0.093750 0.225000
vt 0.093750 0.025000
vt 0.093750 0.112500
vt 0.093750 0.200000
vt 0.093750 0.050000
vt 0.843750 0.112500
vt 0.843750 0.050000
vt 0.843750 0.200000
vt 0.843750 0.137500
s 0
usemtl colormap.001
f 3/1/1 2/1/2 1/1/1
f 2/1/3 3/1/1 4/1/4
f 7/2/5 6/3/5 5/3/5
f 6/3/5 7/2/5 8/2/5
f 9/2/6 6/3/6 8/2/6
f 6/3/6 9/2/6 10/3/6
f 7/2/1 9/2/1 8/2/1
f 9/2/1 7/2/1 11/2/1
f 2/1/7 13/4/8 12/4/9
f 13/4/10 2/1/11 4/1/4
f 15/5/6 3/1/6 14/5/6
f 3/1/6 15/5/6 4/1/6
f 4/1/6 15/5/6 13/4/6
f 16/6/6 13/4/6 15/5/6
f 17/6/6 13/4/6 16/6/6
f 13/4/6 17/6/6 18/4/6
f 19/3/12 7/2/12 5/3/12
f 7/2/12 19/3/12 11/2/12
f 22/6/12 21/4/12 20/6/12
f 21/4/12 22/6/12 12/4/12
f 12/4/12 22/6/12 2/1/12
f 23/5/12 2/1/12 22/6/12
f 24/5/12 2/1/12 23/5/12
f 2/1/12 24/5/12 1/1/12
f 15/5/13 24/5/13 23/5/13
f 24/5/13 15/5/13 14/5/13
f 19/3/13 6/3/13 10/3/13
f 6/3/13 19/3/13 5/3/13
f 17/6/1 22/6/1 20/6/1
f 22/6/1 17/6/1 16/6/1
f 13/4/14 21/4/13 12/4/9
f 21/4/13 13/4/15 18/4/13
f 10/3/16 22/6/16 19/3/16
f 22/6/16 10/3/16 9/2/16
f 16/6/16 19/3/16 22/6/16
f 22/6/16 9/2/16 23/5/16
f 19/3/16 16/6/16 11/2/16
f 23/5/16 9/2/16 15/5/16
f 11/2/16 16/6/16 15/5/16
f 11/2/16 15/5/16 9/2/16
f 21/7/16 17/8/16 20/8/16
f 17/8/16 21/7/16 18/7/16
f 24/9/16 3/10/16 1/10/16
f 3/10/16 24/9/16 14/9/16
