# Blender 4.1.1
# www.blender.org
mtllib crypt-large.mtl
o crypt-large
v 18.298243 -0.086837 -4.397415
v 18.604496 -0.086837 -4.397415
v 18.236992 -0.086837 -4.458666
v 18.604496 -0.086837 -4.581167
v 18.236992 -0.086837 -4.764918
v 23.014534 -0.086837 -4.581167
v 23.382038 -0.086837 -4.764918
v 18.420744 -0.086837 -4.764918
v 23.382038 -0.086837 -4.458666
v 23.320787 -0.086837 -4.397415
v 23.014534 -0.086837 -4.397415
v 23.198286 -0.086837 -4.764918
v 18.726997 -0.086837 -4.887420
v 18.420744 -0.086837 -5.009921
v 18.726997 -0.086837 -5.009921
v 22.892033 -0.086837 -4.887419
v 23.198286 -0.086837 -6.724936
v 22.892033 -0.086837 -6.602434
v 18.420744 -0.086837 -6.724936
v 18.726997 -0.086837 -6.602435
v 18.726997 -0.086837 -6.479933
v 18.420744 -0.086837 -6.479933
v 18.604496 -0.086837 -6.908687
v 23.382038 -0.086837 -6.724936
v 23.014534 -0.086837 -6.908687
v 23.382038 -0.086837 -7.031188
v 23.014534 -0.086837 -7.092439
v 23.320787 -0.086837 -7.092439
v 18.236992 -0.086837 -7.031188
v 18.236992 -0.086837 -6.724936
v 18.604496 -0.086837 -7.092439
v 18.298243 -0.086837 -7.092439
v 23.259537 2.363185 -4.519916
v 23.259537 0.893172 -4.519916
v 23.014534 2.363185 -4.519916
v 23.014534 0.893172 -4.519916
v 18.359493 0.893172 -4.519917
v 18.359493 0.893172 -4.764918
v 18.359493 2.363185 -4.519917
v 18.359493 2.363185 -4.764918
v 18.604496 0.893172 -6.969938
v 18.604496 2.363185 -6.969938
v 18.359493 0.893172 -6.969938
v 18.359493 2.363185 -6.969938
v 23.259537 0.893172 -6.969937
v 23.259537 0.893172 -6.724936
v 23.259537 2.363185 -6.969937
v 23.259537 2.363185 -6.724936
v 18.359493 0.893172 -6.724936
v 18.359493 2.363185 -6.724936
v 18.420744 0.403167 -4.764918
v 18.236992 0.893172 -4.764918
v 18.481995 2.363185 -4.764918
v 18.481995 0.403167 -4.764918
v 18.481995 2.363185 -6.724936
v 18.481995 0.403167 -6.724936
v 18.420744 0.403167 -6.724936
v 18.236992 0.893172 -6.724936
v 23.014534 0.893172 -4.397415
v 23.014534 0.403168 -4.581167
v 23.014534 0.403168 -4.642417
v 23.014534 2.363185 -4.642417
v 18.604496 0.403167 -4.642417
v 18.604496 0.403167 -4.581167
v 18.604496 2.363185 -4.642417
v 18.604496 0.893172 -4.519917
v 18.604496 2.363185 -4.519917
v 18.604496 0.893172 -4.397415
v 23.259537 0.893172 -4.764918
v 23.259537 2.363185 -4.764918
v 23.137035 2.363185 -6.724936
v 23.198286 0.403168 -6.724936
v 23.137035 0.403168 -6.724936
v 23.382038 0.893172 -6.724936
v 23.382038 0.893172 -4.764918
v 23.198286 0.403168 -4.764918
v 23.137035 2.363185 -4.764918
v 23.137035 0.403168 -4.764918
v 23.014534 0.893172 -6.969937
v 23.014534 2.363185 -6.969937
v 23.014534 0.403168 -6.847436
v 23.014534 0.403168 -6.908687
v 23.014534 2.363185 -6.847436
v 23.014534 0.893172 -7.092439
v 18.604496 0.893172 -7.092439
v 18.604496 0.403167 -6.908687
v 18.604496 0.403167 -6.847436
v 18.604496 2.363185 -6.847436
v 18.420744 0.403167 -5.009921
v 18.481995 0.403167 -5.009921
v 18.298243 0.893172 -4.397415
v 18.236992 0.893172 -4.458666
v 18.298243 0.893172 -7.092439
v 18.236992 0.893172 -7.031188
v 23.382038 0.893172 -7.031188
v 23.382038 0.893172 -4.458666
v 23.320787 0.893172 -4.397415
v 23.320787 0.893172 -7.092439
v 22.892033 2.363185 -4.887419
v 18.726997 2.363185 -4.887420
v 22.892033 2.363185 -6.602434
v 18.726997 2.363185 -6.602435
v 18.726997 0.403167 -6.479933
v 18.726997 2.118182 -6.479933
v 18.726997 2.118182 -5.009921
v 18.726997 0.403167 -5.009921
v 18.481995 0.403167 -6.479933
v 18.420744 0.403167 -6.479933
v 18.481995 2.118182 -5.009921
v 18.481995 2.118182 -6.479933
v 19.461800 0.923202 -4.578928
v 19.116493 0.923202 -4.578928
v 19.461800 1.094703 -4.578928
v 19.116493 1.094703 -4.578928
v 19.461800 0.923202 -4.642417
v 19.116493 0.923202 -4.642417
v 19.461800 1.094703 -4.642417
v 19.116493 1.094703 -4.642417
v 19.706800 1.168204 -4.578928
v 19.361496 1.168204 -4.578928
v 19.706800 1.339706 -4.578928
v 19.361496 1.339705 -4.578928
v 19.706800 1.168204 -4.642417
v 19.361496 1.168204 -4.642417
v 19.706800 1.339706 -4.642417
v 19.361496 1.339705 -4.642417
v 21.911819 1.903211 -4.578928
v 21.566515 1.903211 -4.578928
v 21.911819 2.074712 -4.578928
v 21.566515 2.074712 -4.578928
v 21.911819 1.903211 -4.642417
v 21.566515 1.903211 -4.642417
v 21.911819 2.074712 -4.642417
v 21.566515 2.074712 -4.642417
v 21.666819 0.923202 -4.578928
v 21.321512 0.923202 -4.578928
v 21.666819 1.094703 -4.578928
v 21.321512 1.094703 -4.578928
v 21.666819 0.923202 -4.642417
v 21.321512 0.923202 -4.642417
v 21.666819 1.094703 -4.642417
v 21.321512 1.094703 -4.642417
v 22.401825 0.678200 -4.578928
v 22.056519 0.678200 -4.578928
v 22.401825 0.849701 -4.578928
v 22.056519 0.849701 -4.578928
v 22.401825 0.678200 -4.642417
v 22.056519 0.678200 -4.642417
v 22.401825 0.849701 -4.642417
v 22.056519 0.849701 -4.642417
v 19.106895 1.410313 -6.910926
v 19.452202 1.410313 -6.910926
v 19.106895 1.581815 -6.910926
v 19.452202 1.581815 -6.910926
v 19.106895 1.410313 -6.847436
v 19.452202 1.410313 -6.847436
v 19.106895 1.581815 -6.847436
v 19.452202 1.581815 -6.847436
v 22.046921 1.165311 -6.910926
v 22.392227 1.165311 -6.910926
v 22.046921 1.336813 -6.910926
v 22.392227 1.336813 -6.910926
v 22.046921 1.165311 -6.847436
v 22.392227 1.165311 -6.847436
v 22.046921 1.336813 -6.847436
v 22.392227 1.336813 -6.847436
v 19.841902 1.655315 -6.910926
v 20.187206 1.655315 -6.910926
v 19.841902 1.826817 -6.910926
v 20.187206 1.826817 -6.910926
v 19.841902 1.655315 -6.847436
v 20.187206 1.655315 -6.847436
v 19.841902 1.826817 -6.847436
v 20.187206 1.826817 -6.847436
v 22.291922 0.920309 -6.910926
v 22.637228 0.920309 -6.910926
v 22.291922 1.091811 -6.910926
v 22.637228 1.091811 -6.910926
v 22.291922 0.920309 -6.847436
v 22.637228 0.920309 -6.847436
v 22.291922 1.091811 -6.847436
v 22.637228 1.091811 -6.847436
v 23.200525 0.899781 -5.619081
v 23.200525 0.899781 -5.273775
v 23.200525 1.071283 -5.619081
v 23.200525 1.071283 -5.273775
v 23.137035 0.899781 -5.619081
v 23.137035 0.899781 -5.273775
v 23.137035 1.071283 -5.619081
v 23.137035 1.071283 -5.273775
vn -0.0000 -1.0000 -0.0000
vn -0.0000 1.0000 -0.0016
vn -0.0000 1.0000 -0.0015
vn -0.0000 -0.0000 -1.0000
vn -0.0000 -0.0000 1.0000
vn -1.0000 -0.0000 -0.0000
vn 1.0000 -0.0000 -0.0000
vn 1.0000 -0.0000 0.0001
vn -1.0000 -0.0000 -0.0001
vn -0.0000 0.7071 0.7071
vn -0.0000 1.0000 -0.0000
vn 0.0001 0.7071 0.7071
vn 0.7071 0.7071 -0.0000
vn -0.0001 0.7071 -0.7071
vn -0.0000 0.7071 -0.7071
vn 0.0001 0.7071 -0.7071
vn -0.7071 0.7071 -0.0000
vn -0.3827 -0.0000 0.9239
vn -0.9239 -0.0000 0.3827
vn -0.3827 -0.0000 -0.9239
vn -0.9239 -0.0000 -0.3827
vn 0.9239 -0.0000 -0.3827
vn 0.9239 -0.0000 0.3827
vn 0.3827 -0.0000 0.9239
vn 0.3827 -0.0000 -0.9239
vn 0.3827 -0.9239 -0.0000
vn -0.3827 -0.9239 -0.0000
vn 0.2706 -0.9239 -0.2706
vt 0.968750 0.025000
vt 0.843750 0.225000
vt 0.843750 0.105000
vt 0.843750 0.025000
vt 0.843750 0.065000
vt 0.843750 0.205000
vt 0.093750 0.065000
vt 0.093750 0.225000
vt 0.093750 0.205000
vt 0.031250 0.125000
s 0
usemtl colormap.101
f 3/1/1 2/1/1 1/1/1
f 2/1/1 3/1/1 4/1/1
f 4/1/1 3/1/1 5/1/1
f 4/1/1 5/1/1 6/1/1
f 7/1/1 6/1/1 5/1/1
f 7/1/2 5/1/3 8/1/3
f 9/1/1 6/1/1 7/1/1
f 10/1/1 6/1/1 9/1/1
f 6/1/1 10/1/1 11/1/1
f 7/1/4 8/1/4 12/1/4
f 8/1/1 13/1/1 12/1/1
f 13/1/1 8/1/1 14/1/1
f 13/1/1 14/1/1 15/1/1
f 16/1/1 12/1/1 13/1/1
f 12/1/1 16/1/1 17/1/1
f 17/1/1 16/1/1 18/1/1
f 17/1/1 18/1/1 19/1/1
f 20/1/1 19/1/1 18/1/1
f 21/1/1 19/1/1 20/1/1
f 19/1/1 21/1/1 22/1/1
f 19/1/1 23/1/1 17/1/1
f 17/1/1 23/1/1 24/1/1
f 25/1/1 24/1/1 23/1/1
f 24/1/1 25/1/1 26/1/1
f 26/1/1 25/1/1 27/1/1
f 26/1/1 27/1/1 28/1/1
f 19/1/1 29/1/1 23/1/1
f 29/1/1 19/1/1 30/1/1
f 23/1/1 29/1/1 31/1/1
f 31/1/1 29/1/1 32/1/1
f 35/2/5 34/3/5 33/2/5
f 34/3/5 35/2/5 36/3/5
f 39/2/6 38/3/6 37/3/6
f 38/3/6 39/2/6 40/2/6
f 43/3/4 42/2/4 41/3/4
f 42/2/4 43/3/4 44/2/4
f 47/2/7 46/3/7 45/3/7
f 46/3/7 47/2/7 48/2/7
f 50/2/6 43/3/6 49/3/6
f 43/3/6 50/2/6 44/2/6
f 5/4/4 51/5/4 8/4/4
f 51/5/4 5/4/4 38/3/4
f 38/3/4 5/4/4 52/3/4
f 40/2/4 51/5/4 38/3/4
f 53/2/4 51/5/4 40/2/4
f 51/5/4 53/2/4 54/5/4
f 50/2/5 56/5/5 55/2/5
f 56/5/5 50/2/5 57/5/5
f 57/5/5 50/2/5 19/4/5
f 19/4/5 50/2/5 49/3/5
f 19/4/5 49/3/5 30/4/5
f 30/4/5 49/3/5 58/3/5
f 59/3/6 6/4/6 11/4/6
f 6/4/6 59/3/6 60/5/6
f 60/5/6 59/3/6 61/5/6
f 61/5/6 59/3/6 36/3/6
f 61/5/6 36/3/6 62/2/6
f 62/2/6 36/3/6 35/2/6
f 65/2/7 64/5/7 63/5/7
f 64/5/8 65/2/8 66/3/8
f 66/3/7 65/2/7 67/2/7
f 68/3/7 64/5/7 66/3/7
f 2/4/7 64/5/7 68/3/7
f 64/5/7 2/4/7 4/4/7
f 70/2/7 34/3/7 69/3/7
f 34/3/7 70/2/7 33/2/7
f 71/2/5 46/3/5 48/2/5
f 46/3/5 71/2/5 72/5/5
f 72/5/5 71/2/5 73/5/5
f 17/4/5 46/3/5 72/5/5
f 24/4/5 46/3/5 17/4/5
f 46/3/5 24/4/5 74/3/5
f 12/4/4 75/3/4 7/4/4
f 75/3/4 12/4/4 69/3/4
f 69/3/4 12/4/4 70/2/4
f 70/2/4 12/4/4 76/5/4
f 70/2/4 76/5/4 77/2/4
f 77/2/4 76/5/4 78/5/4
f 79/3/4 47/2/4 45/3/4
f 47/2/4 79/3/4 80/2/4
f 83/2/6 82/5/6 81/5/6
f 82/5/9 83/2/9 79/3/9
f 79/3/6 83/2/6 80/2/6
f 84/3/6 82/5/6 79/3/6
f 27/4/6 82/5/6 84/3/6
f 82/5/6 27/4/6 25/4/6
f 85/3/7 23/4/7 31/4/7
f 23/4/7 85/3/7 86/5/7
f 86/5/7 85/3/7 87/5/7
f 87/5/7 85/3/7 41/3/7
f 87/5/7 41/3/7 88/2/7
f 88/2/7 41/3/7 42/2/7
f 64/5/10 6/4/5 60/5/10
f 6/4/5 64/5/10 4/4/5
f 61/5/11 64/5/10 60/5/10
f 64/5/12 61/5/11 63/5/11
f 72/5/13 12/4/7 17/4/7
f 12/4/7 72/5/13 76/5/13
f 72/5/13 78/5/11 76/5/13
f 78/5/11 72/5/13 73/5/11
f 25/4/4 86/5/14 82/5/15
f 86/5/16 25/4/4 23/4/4
f 82/5/14 87/5/11 81/5/11
f 87/5/11 82/5/15 86/5/15
f 51/5/17 14/4/6 8/4/6
f 14/4/6 51/5/17 89/5/17
f 90/5/11 51/5/17 54/5/11
f 51/5/17 90/5/11 89/5/17
f 39/2/5 66/3/5 67/2/5
f 66/3/5 39/2/5 37/3/5
f 91/3/18 2/4/5 68/3/5
f 2/4/5 91/3/18 1/4/18
f 66/3/11 91/3/11 68/3/11
f 91/3/11 66/3/11 92/3/11
f 92/3/11 66/3/11 37/3/11
f 92/3/11 37/3/11 52/3/11
f 52/3/11 37/3/11 38/3/11
f 92/3/19 5/4/6 3/4/19
f 5/4/6 92/3/19 52/3/6
f 32/4/20 85/3/4 31/4/4
f 85/3/4 32/4/20 93/3/20
f 58/3/6 29/4/21 30/4/6
f 29/4/21 58/3/6 94/3/21
f 85/3/11 43/3/11 41/3/11
f 43/3/11 85/3/11 94/3/11
f 94/3/11 85/3/11 93/3/11
f 58/3/11 43/3/11 94/3/11
f 43/3/11 58/3/11 49/3/11
f 95/3/22 24/4/7 26/4/22
f 24/4/7 95/3/22 74/3/7
f 75/3/7 9/4/23 7/4/7
f 9/4/23 75/3/7 96/3/23
f 34/3/11 75/3/11 69/3/11
f 75/3/11 34/3/11 96/3/11
f 36/3/11 96/3/11 34/3/11
f 59/3/11 96/3/11 36/3/11
f 96/3/11 59/3/11 97/3/11
f 59/3/5 10/4/24 97/3/24
f 10/4/24 59/3/5 11/4/5
f 96/3/23 10/4/24 9/4/23
f 10/4/24 96/3/23 97/3/24
f 92/3/19 1/4/18 91/3/18
f 1/4/18 92/3/19 3/4/19
f 94/3/21 32/4/20 29/4/21
f 32/4/20 94/3/21 93/3/20
f 27/4/4 98/3/25 28/4/25
f 98/3/25 27/4/4 84/3/4
f 95/3/11 46/3/11 74/3/11
f 46/3/11 95/3/11 45/3/11
f 45/3/11 95/3/11 79/3/11
f 79/3/11 95/3/11 84/3/11
f 84/3/11 95/3/11 98/3/11
f 28/4/25 95/3/22 26/4/22
f 95/3/22 28/4/25 98/3/25
f 70/2/11 35/2/11 33/2/11
f 35/2/11 70/2/11 62/2/11
f 62/2/11 70/2/11 65/2/11
f 40/2/11 65/2/11 70/2/11
f 40/2/11 70/2/11 77/2/11
f 39/2/11 65/2/11 40/2/11
f 65/2/11 39/2/11 67/2/11
f 40/2/26 77/2/27 53/2/28
f 77/2/11 99/2/11 53/2/11
f 99/2/11 77/2/11 71/2/11
f 100/2/11 53/2/11 99/2/11
f 99/2/11 71/2/11 101/2/11
f 53/2/11 100/2/11 55/2/11
f 101/2/11 71/2/11 102/2/11
f 55/2/11 100/2/11 102/2/11
f 55/2/11 102/2/11 71/2/11
f 71/2/11 83/2/11 55/2/11
f 55/2/11 83/2/11 50/2/11
f 71/2/11 47/2/11 83/2/11
f 47/2/11 71/2/11 48/2/11
f 83/2/11 47/2/11 80/2/11
f 88/2/11 50/2/11 83/2/11
f 50/2/11 88/2/11 44/2/11
f 44/2/11 88/2/11 42/2/11
f 102/2/5 18/4/5 101/2/5
f 18/4/5 102/2/5 20/4/5
f 102/2/7 21/4/7 20/4/7
f 21/4/7 102/2/7 103/5/7
f 103/5/7 102/2/7 104/6/7
f 104/6/7 102/2/7 105/6/7
f 100/2/7 105/6/7 102/2/7
f 100/2/7 106/5/7 105/6/7
f 100/2/7 15/4/7 106/5/7
f 15/4/7 100/2/7 13/4/7
f 13/4/4 99/2/4 16/4/4
f 99/2/4 13/4/4 100/2/4
f 99/2/6 18/4/6 16/4/6
f 18/4/6 99/2/6 101/2/6
f 56/5/11 108/5/17 107/5/11
f 108/5/17 56/5/11 57/5/17
f 108/5/17 19/4/6 22/4/6
f 19/4/6 108/5/17 57/5/17
f 14/4/4 106/7/4 15/4/4
f 106/7/4 14/4/4 90/7/4
f 90/7/4 14/4/4 89/5/4
f 107/7/5 21/4/5 103/7/5
f 21/4/5 107/7/5 22/4/5
f 22/4/5 107/7/5 108/5/5
f 71/8/7 78/7/7 73/7/7
f 78/7/7 71/8/7 77/8/7
f 87/7/4 83/8/4 81/7/4
f 83/8/4 87/7/4 88/8/4
f 53/8/6 90/7/6 54/7/6
f 90/7/6 53/8/6 109/9/6
f 109/9/6 53/8/6 110/9/6
f 55/8/6 110/9/6 53/8/6
f 56/7/6 110/9/6 55/8/6
f 110/9/6 56/7/6 107/7/6
f 65/8/5 61/7/5 62/8/5
f 61/7/5 65/8/5 63/7/5
f 110/9/5 103/7/5 104/9/5
f 103/7/5 110/9/5 107/7/5
f 110/9/1 105/9/1 109/9/1
f 105/9/1 110/9/1 104/9/1
f 90/7/4 105/9/4 106/7/4
f 105/9/4 90/7/4 109/9/4
f 113/10/5 112/10/5 111/10/5
f 112/10/5 113/10/5 114/10/5
f 112/10/1 115/10/1 111/10/1
f 115/10/1 112/10/1 116/10/1
f 113/10/7 115/10/7 117/10/7
f 115/10/7 113/10/7 111/10/7
f 118/10/11 113/10/11 117/10/11
f 113/10/11 118/10/11 114/10/11
f 112/10/6 118/10/6 116/10/6
f 118/10/6 112/10/6 114/10/6
f 121/10/5 120/10/5 119/10/5
f 120/10/5 121/10/5 122/10/5
f 120/10/1 123/10/1 119/10/1
f 123/10/1 120/10/1 124/10/1
f 121/10/7 123/10/7 125/10/7
f 123/10/7 121/10/7 119/10/7
f 126/10/11 121/10/11 125/10/11
f 121/10/11 126/10/11 122/10/11
f 120/10/6 126/10/6 124/10/6
f 126/10/6 120/10/6 122/10/6
f 129/10/5 128/10/5 127/10/5
f 128/10/5 129/10/5 130/10/5
f 128/10/1 131/10/1 127/10/1
f 131/10/1 128/10/1 132/10/1
f 129/10/7 131/10/7 133/10/7
f 131/10/7 129/10/7 127/10/7
f 134/10/11 129/10/11 133/10/11
f 129/10/11 134/10/11 130/10/11
f 128/10/6 134/10/6 132/10/6
f 134/10/6 128/10/6 130/10/6
f 137/10/5 136/10/5 135/10/5
f 136/10/5 137/10/5 138/10/5
f 136/10/1 139/10/1 135/10/1
f 139/10/1 136/10/1 140/10/1
f 137/10/7 139/10/7 141/10/7
f 139/10/7 137/10/7 135/10/7
f 142/10/11 137/10/11 141/10/11
f 137/10/11 142/10/11 138/10/11
f 136/10/6 142/10/6 140/10/6
f 142/10/6 136/10/6 138/10/6
f 145/10/5 144/10/5 143/10/5
f 144/10/5 145/10/5 146/10/5
f 144/10/1 147/10/1 143/10/1
f 147/10/1 144/10/1 148/10/1
f 145/10/7 147/10/7 149/10/7
f 147/10/7 145/10/7 143/10/7
f 150/10/11 145/10/11 149/10/11
f 145/10/11 150/10/11 146/10/11
f 144/10/6 150/10/6 148/10/6
f 150/10/6 144/10/6 146/10/6
f 153/10/4 152/10/4 151/10/4
f 152/10/4 153/10/4 154/10/4
f 152/10/1 155/10/1 151/10/1
f 155/10/1 152/10/1 156/10/1
f 153/10/6 155/10/6 157/10/6
f 155/10/6 153/10/6 151/10/6
f 158/10/11 153/10/11 157/10/11
f 153/10/11 158/10/11 154/10/11
f 152/10/7 158/10/7 156/10/7
f 158/10/7 152/10/7 154/10/7
f 161/10/4 160/10/4 159/10/4
f 160/10/4 161/10/4 162/10/4
f 160/10/1 163/10/1 159/10/1
f 163/10/1 160/10/1 164/10/1
f 161/10/6 163/10/6 165/10/6
f 163/10/6 161/10/6 159/10/6
f 166/10/11 161/10/11 165/10/11
f 161/10/11 166/10/11 162/10/11
f 160/10/7 166/10/7 164/10/7
f 166/10/7 160/10/7 162/10/7
f 169/10/4 168/10/4 167/10/4
f 168/10/4 169/10/4 170/10/4
f 168/10/1 171/10/1 167/10/1
f 171/10/1 168/10/1 172/10/1
f 169/10/6 171/10/6 173/10/6
f 171/10/6 169/10/6 167/10/6
f 174/10/11 169/10/11 173/10/11
f 169/10/11 174/10/11 170/10/11
f 168/10/7 174/10/7 172/10/7
f 174/10/7 168/10/7 170/10/7
f 177/10/4 176/10/4 175/10/4
f 176/10/4 177/10/4 178/10/4
f 176/10/1 179/10/1 175/10/1
f 179/10/1 176/10/1 180/10/1
f 177/10/6 179/10/6 181/10/6
f 179/10/6 177/10/6 175/10/6
f 182/10/11 177/10/11 181/10/11
f 177/10/11 182/10/11 178/10/11
f 176/10/7 182/10/7 180/10/7
f 182/10/7 176/10/7 178/10/7
f 185/10/7 184/10/7 183/10/7
f 184/10/7 185/10/7 186/10/7
f 184/10/1 187/10/1 183/10/1
f 187/10/1 184/10/1 188/10/1
f 185/10/4 187/10/4 189/10/4
f 187/10/4 185/10/4 183/10/4
f 190/10/11 185/10/11 189/10/11
f 185/10/11 190/10/11 186/10/11
f 184/10/5 190/10/5 188/10/5
f 190/10/5 184/10/5 186/10/5
f 3/1/1 2/1/1 1/1/1
f 2/1/1 3/1/1 4/1/1
f 4/1/1 3/1/1 5/1/1
f 4/1/1 5/1/1 6/1/1
f 7/1/1 6/1/1 5/1/1
f 7/1/2 5/1/3 8/1/3
f 9/1/1 6/1/1 7/1/1
f 10/1/1 6/1/1 9/1/1
f 6/1/1 10/1/1 11/1/1
f 7/1/4 8/1/4 12/1/4
f 8/1/1 13/1/1 12/1/1
f 13/1/1 8/1/1 14/1/1
f 13/1/1 14/1/1 15/1/1
f 16/1/1 12/1/1 13/1/1
f 12/1/1 16/1/1 17/1/1
f 17/1/1 16/1/1 18/1/1
f 17/1/1 18/1/1 19/1/1
f 20/1/1 19/1/1 18/1/1
f 21/1/1 19/1/1 20/1/1
f 19/1/1 21/1/1 22/1/1
f 19/1/1 23/1/1 17/1/1
f 17/1/1 23/1/1 24/1/1
f 25/1/1 24/1/1 23/1/1
f 24/1/1 25/1/1 26/1/1
f 26/1/1 25/1/1 27/1/1
f 26/1/1 27/1/1 28/1/1
f 19/1/1 29/1/1 23/1/1
f 29/1/1 19/1/1 30/1/1
f 23/1/1 29/1/1 31/1/1
f 31/1/1 29/1/1 32/1/1
f 35/2/5 34/3/5 33/2/5
f 34/3/5 35/2/5 36/3/5
f 39/2/6 38/3/6 37/3/6
f 38/3/6 39/2/6 40/2/6
f 43/3/4 42/2/4 41/3/4
f 42/2/4 43/3/4 44/2/4
f 47/2/7 46/3/7 45/3/7
f 46/3/7 47/2/7 48/2/7
f 50/2/6 43/3/6 49/3/6
f 43/3/6 50/2/6 44/2/6
f 5/4/4 51/5/4 8/4/4
f 51/5/4 5/4/4 38/3/4
f 38/3/4 5/4/4 52/3/4
f 40/2/4 51/5/4 38/3/4
f 53/2/4 51/5/4 40/2/4
f 51/5/4 53/2/4 54/5/4
f 50/2/5 56/5/5 55/2/5
f 56/5/5 50/2/5 57/5/5
f 57/5/5 50/2/5 19/4/5
f 19/4/5 50/2/5 49/3/5
f 19/4/5 49/3/5 30/4/5
f 30/4/5 49/3/5 58/3/5
f 59/3/6 6/4/6 11/4/6
f 6/4/6 59/3/6 60/5/6
f 60/5/6 59/3/6 61/5/6
f 61/5/6 59/3/6 36/3/6
f 61/5/6 36/3/6 62/2/6
f 62/2/6 36/3/6 35/2/6
f 65/2/7 64/5/7 63/5/7
f 64/5/8 65/2/8 66/3/8
f 66/3/7 65/2/7 67/2/7
f 68/3/7 64/5/7 66/3/7
f 2/4/7 64/5/7 68/3/7
f 64/5/7 2/4/7 4/4/7
f 70/2/7 34/3/7 69/3/7
f 34/3/7 70/2/7 33/2/7
f 71/2/5 46/3/5 48/2/5
f 46/3/5 71/2/5 72/5/5
f 72/5/5 71/2/5 73/5/5
f 17/4/5 46/3/5 72/5/5
f 24/4/5 46/3/5 17/4/5
f 46/3/5 24/4/5 74/3/5
f 12/4/4 75/3/4 7/4/4
f 75/3/4 12/4/4 69/3/4
f 69/3/4 12/4/4 70/2/4
f 70/2/4 12/4/4 76/5/4
f 70/2/4 76/5/4 77/2/4
f 77/2/4 76/5/4 78/5/4
f 79/3/4 47/2/4 45/3/4
f 47/2/4 79/3/4 80/2/4
f 83/2/6 82/5/6 81/5/6
f 82/5/9 83/2/9 79/3/9
f 79/3/6 83/2/6 80/2/6
f 84/3/6 82/5/6 79/3/6
f 27/4/6 82/5/6 84/3/6
f 82/5/6 27/4/6 25/4/6
f 85/3/7 23/4/7 31/4/7
f 23/4/7 85/3/7 86/5/7
f 86/5/7 85/3/7 87/5/7
f 87/5/7 85/3/7 41/3/7
f 87/5/7 41/3/7 88/2/7
f 88/2/7 41/3/7 42/2/7
f 64/5/10 6/4/5 60/5/10
f 6/4/5 64/5/10 4/4/5
f 61/5/11 64/5/10 60/5/10
f 64/5/12 61/5/11 63/5/11
f 72/5/13 12/4/7 17/4/7
f 12/4/7 72/5/13 76/5/13
f 72/5/13 78/5/11 76/5/13
f 78/5/11 72/5/13 73/5/11
f 25/4/4 86/5/14 82/5/15
f 86/5/16 25/4/4 23/4/4
f 82/5/14 87/5/11 81/5/11
f 87/5/11 82/5/15 86/5/15
f 51/5/17 14/4/6 8/4/6
f 14/4/6 51/5/17 89/5/17
f 90/5/11 51/5/17 54/5/11
f 51/5/17 90/5/11 89/5/17
f 39/2/5 66/3/5 67/2/5
f 66/3/5 39/2/5 37/3/5
f 91/3/18 2/4/5 68/3/5
f 2/4/5 91/3/18 1/4/18
f 66/3/11 91/3/11 68/3/11
f 91/3/11 66/3/11 92/3/11
f 92/3/11 66/3/11 37/3/11
f 92/3/11 37/3/11 52/3/11
f 52/3/11 37/3/11 38/3/11
f 92/3/19 5/4/6 3/4/19
f 5/4/6 92/3/19 52/3/6
f 32/4/20 85/3/4 31/4/4
f 85/3/4 32/4/20 93/3/20
f 58/3/6 29/4/21 30/4/6
f 29/4/21 58/3/6 94/3/21
f 85/3/11 43/3/11 41/3/11
f 43/3/11 85/3/11 94/3/11
f 94/3/11 85/3/11 93/3/11
f 58/3/11 43/3/11 94/3/11
f 43/3/11 58/3/11 49/3/11
f 95/3/22 24/4/7 26/4/22
f 24/4/7 95/3/22 74/3/7
f 75/3/7 9/4/23 7/4/7
f 9/4/23 75/3/7 96/3/23
f 34/3/11 75/3/11 69/3/11
f 75/3/11 34/3/11 96/3/11
f 36/3/11 96/3/11 34/3/11
f 59/3/11 96/3/11 36/3/11
f 96/3/11 59/3/11 97/3/11
f 59/3/5 10/4/24 97/3/24
f 10/4/24 59/3/5 11/4/5
f 96/3/23 10/4/24 9/4/23
f 10/4/24 96/3/23 97/3/24
f 92/3/19 1/4/18 91/3/18
f 1/4/18 92/3/19 3/4/19
f 94/3/21 32/4/20 29/4/21
f 32/4/20 94/3/21 93/3/20
f 27/4/4 98/3/25 28/4/25
f 98/3/25 27/4/4 84/3/4
f 95/3/11 46/3/11 74/3/11
f 46/3/11 95/3/11 45/3/11
f 45/3/11 95/3/11 79/3/11
f 79/3/11 95/3/11 84/3/11
f 84/3/11 95/3/11 98/3/11
f 28/4/25 95/3/22 26/4/22
f 95/3/22 28/4/25 98/3/25
f 70/2/11 35/2/11 33/2/11
f 35/2/11 70/2/11 62/2/11
f 62/2/11 70/2/11 65/2/11
f 40/2/11 65/2/11 70/2/11
f 40/2/11 70/2/11 77/2/11
f 39/2/11 65/2/11 40/2/11
f 65/2/11 39/2/11 67/2/11
f 40/2/26 77/2/27 53/2/28
f 77/2/11 99/2/11 53/2/11
f 99/2/11 77/2/11 71/2/11
f 100/2/11 53/2/11 99/2/11
f 99/2/11 71/2/11 101/2/11
f 53/2/11 100/2/11 55/2/11
f 101/2/11 71/2/11 102/2/11
f 55/2/11 100/2/11 102/2/11
f 55/2/11 102/2/11 71/2/11
f 71/2/11 83/2/11 55/2/11
f 55/2/11 83/2/11 50/2/11
f 71/2/11 47/2/11 83/2/11
f 47/2/11 71/2/11 48/2/11
f 83/2/11 47/2/11 80/2/11
f 88/2/11 50/2/11 83/2/11
f 50/2/11 88/2/11 44/2/11
f 44/2/11 88/2/11 42/2/11
f 102/2/5 18/4/5 101/2/5
f 18/4/5 102/2/5 20/4/5
f 102/2/7 21/4/7 20/4/7
f 21/4/7 102/2/7 103/5/7
f 103/5/7 102/2/7 104/6/7
f 104/6/7 102/2/7 105/6/7
f 100/2/7 105/6/7 102/2/7
f 100/2/7 106/5/7 105/6/7
f 100/2/7 15/4/7 106/5/7
f 15/4/7 100/2/7 13/4/7
f 13/4/4 99/2/4 16/4/4
f 99/2/4 13/4/4 100/2/4
f 99/2/6 18/4/6 16/4/6
f 18/4/6 99/2/6 101/2/6
f 56/5/11 108/5/17 107/5/11
f 108/5/17 56/5/11 57/5/17
f 108/5/17 19/4/6 22/4/6
f 19/4/6 108/5/17 57/5/17
f 14/4/4 106/7/4 15/4/4
f 106/7/4 14/4/4 90/7/4
f 90/7/4 14/4/4 89/5/4
f 107/7/5 21/4/5 103/7/5
f 21/4/5 107/7/5 22/4/5
f 22/4/5 107/7/5 108/5/5
f 71/8/7 78/7/7 73/7/7
f 78/7/7 71/8/7 77/8/7
f 87/7/4 83/8/4 81/7/4
f 83/8/4 87/7/4 88/8/4
f 53/8/6 90/7/6 54/7/6
f 90/7/6 53/8/6 109/9/6
f 109/9/6 53/8/6 110/9/6
f 55/8/6 110/9/6 53/8/6
f 56/7/6 110/9/6 55/8/6
f 110/9/6 56/7/6 107/7/6
f 65/8/5 61/7/5 62/8/5
f 61/7/5 65/8/5 63/7/5
f 110/9/5 103/7/5 104/9/5
f 103/7/5 110/9/5 107/7/5
f 110/9/1 105/9/1 109/9/1
f 105/9/1 110/9/1 104/9/1
f 90/7/4 105/9/4 106/7/4
f 105/9/4 90/7/4 109/9/4
f 113/10/5 112/10/5 111/10/5
f 112/10/5 113/10/5 114/10/5
f 112/10/1 115/10/1 111/10/1
f 115/10/1 112/10/1 116/10/1
f 113/10/7 115/10/7 117/10/7
f 115/10/7 113/10/7 111/10/7
f 118/10/11 113/10/11 117/10/11
f 113/10/11 118/10/11 114/10/11
f 112/10/6 118/10/6 116/10/6
f 118/10/6 112/10/6 114/10/6
f 121/10/5 120/10/5 119/10/5
f 120/10/5 121/10/5 122/10/5
f 120/10/1 123/10/1 119/10/1
f 123/10/1 120/10/1 124/10/1
f 121/10/7 123/10/7 125/10/7
f 123/10/7 121/10/7 119/10/7
f 126/10/11 121/10/11 125/10/11
f 121/10/11 126/10/11 122/10/11
f 120/10/6 126/10/6 124/10/6
f 126/10/6 120/10/6 122/10/6
f 129/10/5 128/10/5 127/10/5
f 128/10/5 129/10/5 130/10/5
f 128/10/1 131/10/1 127/10/1
f 131/10/1 128/10/1 132/10/1
f 129/10/7 131/10/7 133/10/7
f 131/10/7 129/10/7 127/10/7
f 134/10/11 129/10/11 133/10/11
f 129/10/11 134/10/11 130/10/11
f 128/10/6 134/10/6 132/10/6
f 134/10/6 128/10/6 130/10/6
f 137/10/5 136/10/5 135/10/5
f 136/10/5 137/10/5 138/10/5
f 136/10/1 139/10/1 135/10/1
f 139/10/1 136/10/1 140/10/1
f 137/10/7 139/10/7 141/10/7
f 139/10/7 137/10/7 135/10/7
f 142/10/11 137/10/11 141/10/11
f 137/10/11 142/10/11 138/10/11
f 136/10/6 142/10/6 140/10/6
f 142/10/6 136/10/6 138/10/6
f 145/10/5 144/10/5 143/10/5
f 144/10/5 145/10/5 146/10/5
f 144/10/1 147/10/1 143/10/1
f 147/10/1 144/10/1 148/10/1
f 145/10/7 147/10/7 149/10/7
f 147/10/7 145/10/7 143/10/7
f 150/10/11 145/10/11 149/10/11
f 145/10/11 150/10/11 146/10/11
f 144/10/6 150/10/6 148/10/6
f 150/10/6 144/10/6 146/10/6
f 153/10/4 152/10/4 151/10/4
f 152/10/4 153/10/4 154/10/4
f 152/10/1 155/10/1 151/10/1
f 155/10/1 152/10/1 156/10/1
f 153/10/6 155/10/6 157/10/6
f 155/10/6 153/10/6 151/10/6
f 158/10/11 153/10/11 157/10/11
f 153/10/11 158/10/11 154/10/11
f 152/10/7 158/10/7 156/10/7
f 158/10/7 152/10/7 154/10/7
f 161/10/4 160/10/4 159/10/4
f 160/10/4 161/10/4 162/10/4
f 160/10/1 163/10/1 159/10/1
f 163/10/1 160/10/1 164/10/1
f 161/10/6 163/10/6 165/10/6
f 163/10/6 161/10/6 159/10/6
f 166/10/11 161/10/11 165/10/11
f 161/10/11 166/10/11 162/10/11
f 160/10/7 166/10/7 164/10/7
f 166/10/7 160/10/7 162/10/7
f 169/10/4 168/10/4 167/10/4
f 168/10/4 169/10/4 170/10/4
f 168/10/1 171/10/1 167/10/1
f 171/10/1 168/10/1 172/10/1
f 169/10/6 171/10/6 173/10/6
f 171/10/6 169/10/6 167/10/6
f 174/10/11 169/10/11 173/10/11
f 169/10/11 174/10/11 170/10/11
f 168/10/7 174/10/7 172/10/7
f 174/10/7 168/10/7 170/10/7
f 177/10/4 176/10/4 175/10/4
f 176/10/4 177/10/4 178/10/4
f 176/10/1 179/10/1 175/10/1
f 179/10/1 176/10/1 180/10/1
f 177/10/6 179/10/6 181/10/6
f 179/10/6 177/10/6 175/10/6
f 182/10/11 177/10/11 181/10/11
f 177/10/11 182/10/11 178/10/11
f 176/10/7 182/10/7 180/10/7
f 182/10/7 176/10/7 178/10/7
f 185/10/7 184/10/7 183/10/7
f 184/10/7 185/10/7 186/10/7
f 184/10/1 187/10/1 183/10/1
f 187/10/1 184/10/1 188/10/1
f 185/10/4 187/10/4 189/10/4
f 187/10/4 185/10/4 183/10/4
f 190/10/11 185/10/11 189/10/11
f 185/10/11 190/10/11 186/10/11
f 184/10/5 190/10/5 188/10/5
f 190/10/5 184/10/5 186/10/5
