# Blender 4.1.1
# www.blender.org
mtllib tree.045.mtl
o tree.045
v -8.923161 -0.382804 -19.913021
v -8.708523 -0.382804 -19.792461
v -8.970200 -0.382804 -20.080620
v -8.540923 -0.382804 -19.839500
v -8.849639 -0.382804 -20.295258
v -8.420362 -0.382804 -20.054138
v -8.682039 -0.382804 -20.342297
v -8.467402 -0.382804 -20.221737
v -8.701901 0.062918 -19.929920
v -8.809220 0.062918 -19.990200
v -8.832740 0.062918 -20.073999
v -8.618102 0.062918 -19.953440
v -8.557822 0.062918 -20.060759
v -8.581342 0.062918 -20.144558
v -8.688661 0.062918 -20.204838
v -8.772460 0.062918 -20.181318
v -8.552856 0.731552 -20.163853
v -8.687005 0.731552 -20.239202
v -8.791755 0.731552 -20.209803
v -8.703557 0.731552 -19.895555
v -8.837706 0.731552 -19.970905
v -8.523458 0.731552 -20.059103
v -8.598807 0.731552 -19.924955
v -8.867105 0.731552 -20.075655
v -8.742460 0.222058 -19.860527
v -8.802162 0.222058 -19.936455
v -8.646555 0.222058 -19.849052
v -8.570626 0.222058 -19.908754
v -8.790688 0.222058 -20.032360
v -8.559152 0.222058 -20.004660
v -8.714759 0.222058 -20.092062
v -8.618854 0.222058 -20.080589
v -8.777467 0.060318 -19.798203
v -8.627239 0.060318 -19.780230
v -8.870985 0.060318 -19.917139
v -8.853011 0.060318 -20.067368
v -8.508303 0.060318 -19.873747
v -8.734075 0.060318 -20.160885
v -8.490329 0.060318 -20.023975
v -8.583847 0.060318 -20.142912
v -9.302466 0.731552 -20.070536
v -9.002229 0.731552 -20.605061
v -9.051126 1.468507 -20.073507
v -8.873985 1.468507 -20.388880
v -8.376644 0.731552 -19.550510
v -8.989674 0.731552 -19.543261
v -8.504888 1.468507 -19.766689
v -8.866577 1.468507 -19.762413
v -8.076406 0.731552 -20.085033
v -8.327746 1.468507 -20.082062
v -8.512295 1.468507 -20.393156
v -8.389198 0.731552 -20.612309
v -8.862554 2.260255 -19.769577
v -9.042911 2.260255 -20.073605
v -8.729227 3.090716 -20.006945
v -8.770681 3.090716 -20.076824
v -8.649646 3.090716 -20.148624
v -8.730891 3.090716 -20.147665
v -8.516319 2.260255 -20.385992
v -8.869793 2.260255 -20.381813
v -8.335962 2.260255 -20.081964
v -8.509080 2.260255 -19.773758
v -8.608191 3.090716 -20.078745
v -8.647982 3.090716 -20.007904
v -8.683543 1.468507 -19.579386
v -9.118115 1.468507 -19.823483
v -8.686736 2.260255 -19.849413
v -8.885861 2.260255 -19.961260
v -8.254864 1.468507 -19.833689
v -8.490311 2.260255 -19.965937
v -9.124008 1.468507 -20.321880
v -8.888562 2.260255 -20.189632
v -8.695330 1.468507 -20.576183
v -8.692137 2.260255 -20.306156
v -8.260757 1.468507 -20.332088
v -8.493011 2.260255 -20.194309
v -9.254188 0.501649 -20.395000
v -9.036636 0.616601 -20.663059
v -9.369900 0.616601 -20.069738
v -8.008973 0.616601 -20.085831
v -8.132343 0.501649 -20.408266
v -8.356173 0.616601 -20.671106
v -8.697095 0.501649 -20.725483
v -9.022699 0.616601 -19.484463
v -9.246530 0.501649 -19.747303
v -8.124684 0.501649 -19.760569
v -8.342237 0.616601 -19.492510
v -8.681778 0.501649 -19.430088
v -8.162853 1.281595 -20.084011
v -8.207061 1.375051 -19.806839
v -8.213603 1.375051 -20.360062
v -8.682895 1.375051 -19.524563
v -8.947335 1.281595 -19.618637
v -9.165270 1.375051 -19.795509
v -8.958120 1.281595 -20.530706
v -8.695978 1.375051 -20.631006
v -9.171811 1.375051 -20.348730
v -8.431537 1.281595 -20.536932
v -9.216020 1.281595 -20.071558
v -8.420753 1.281595 -19.624863
v -8.297080 2.193974 -20.082424
v -8.368216 2.127692 -20.268341
v -8.497276 2.193974 -20.419895
v -8.693852 2.127692 -20.451248
v -8.889632 2.193974 -20.415255
v -8.489241 2.193974 -19.740314
v -8.685020 2.127692 -19.704321
v -8.881597 2.193974 -19.735674
v -9.015073 2.127692 -20.260693
v -9.081793 2.193974 -20.073145
v -8.363800 2.127692 -19.894878
v -9.010657 2.127692 -19.887228
vn -0.0000 -1.0000 -0.0000
vn -0.1190 0.2942 0.9483
vn -0.7540 0.2944 0.5873
vn -0.1092 0.2944 0.9494
vn -0.7479 0.2942 0.5951
vn -0.9483 0.2942 -0.1189
vn -0.7540 0.2944 0.5872
vn -0.7480 0.2942 0.5950
vn -0.9494 0.2944 -0.1091
vn 0.5950 0.2942 0.7480
vn -0.1091 0.2944 0.9494
vn 0.5872 0.2944 0.7540
vn 0.5950 0.2942 0.7479
vn -0.1189 0.2942 0.9483
vn 0.9483 0.2942 0.1190
vn 0.5873 0.2944 0.7540
vn 0.9494 0.2944 0.1092
vn 0.5951 0.2942 0.7479
vn 0.1092 0.2944 -0.9494
vn 0.7479 0.2942 -0.5951
vn 0.7540 0.2944 -0.5873
vn 0.1190 0.2942 -0.9483
vn -0.9483 0.2942 -0.1190
vn -0.5873 0.2944 -0.7540
vn -0.9494 0.2944 -0.1092
vn -0.5873 0.2944 -0.7539
vn -0.5951 0.2942 -0.7479
vn 0.7540 0.2944 -0.5872
vn 0.9483 0.2942 0.1189
vn 0.9494 0.2944 0.1091
vn 0.7479 0.2942 -0.5950
vn 0.1091 0.2944 -0.9494
vn -0.5950 0.2942 -0.7479
vn 0.1189 0.2942 -0.9483
vn -0.5950 0.2942 -0.7480
vn -0.5872 0.2944 -0.7540
vn 0.7845 -0.0513 -0.6180
vn 0.1178 -0.0512 -0.9917
vn 0.7856 -0.0513 -0.6166
vn 0.1178 -0.0513 -0.9917
vn 0.1196 -0.0513 -0.9915
vn -0.6180 -0.0513 -0.7845
vn 0.1177 -0.0513 -0.9917
vn 0.1195 -0.0512 -0.9915
vn -0.6166 -0.0512 -0.7856
vn -0.7856 -0.0512 0.6166
vn -0.1196 -0.0513 0.9915
vn -0.1178 -0.0513 0.9917
vn -0.7845 -0.0513 0.6180
vn 0.9917 -0.0513 0.1178
vn 0.6180 -0.0513 0.7845
vn 0.9915 -0.0513 0.1196
vn 0.9917 -0.0512 0.1178
vn 0.6166 -0.0513 0.7856
vn -0.7856 -0.0513 0.6166
vn -0.9915 -0.0513 -0.1195
vn -0.9917 -0.0513 -0.1177
vn 0.9915 -0.0513 0.1195
vn 0.7856 -0.0512 -0.6166
vn 0.6166 -0.0512 0.7856
vn 0.6180 -0.0512 0.7845
vn -0.1195 -0.0512 0.9915
vn -0.9917 -0.0513 -0.1178
vn -0.9915 -0.0513 -0.1196
vn -0.9917 -0.0512 -0.1178
vn -0.6166 -0.0513 -0.7856
vn -0.0000 1.0000 -0.0000
vn 0.2471 0.4042 0.8806
vn -0.4479 0.4042 0.7975
vn -0.4479 0.4043 0.7975
vn -0.7975 0.4042 -0.4480
vn -0.2472 0.4042 -0.8806
vn -0.7974 0.4042 -0.4480
vn -0.7975 0.4042 -0.4479
vn -0.2472 0.4043 -0.8806
vn 0.4479 0.4042 -0.7975
vn -0.2471 0.4042 -0.8806
vn 0.7975 0.4042 0.4479
vn 0.2472 0.4042 0.8806
vn 0.7975 0.4042 0.4480
vn -0.8806 0.4042 0.2471
vn -0.7975 0.4043 -0.4479
vn 0.8807 0.4042 -0.2471
vn 0.8806 0.4042 -0.2471
vn 0.7975 0.4043 0.4479
vn -0.8806 0.4042 0.2472
vn -0.4479 0.4043 0.7974
vn -0.4480 0.4042 0.7975
vn 0.4480 0.4042 -0.7975
vn 0.8806 0.4042 -0.2472
vn 0.4479 0.4043 -0.7974
vn -0.9464 0.3228 0.0112
vn -0.4829 0.3228 -0.8140
vn 0.4829 0.3228 0.8140
vn -0.4635 0.3228 0.8252
vn 0.9464 0.3228 -0.0112
vn 0.4635 0.3228 -0.8252
vn -0.3368 0.7260 0.5996
vn -0.9502 0.3115 0.0112
vn -0.4654 0.3115 0.8285
vn -0.9502 0.3115 0.0113
vn -0.3368 0.7260 0.5997
vn -0.6877 0.7260 0.0081
vn 0.4654 0.3115 -0.8285
vn -0.3509 0.7260 -0.5915
vn 0.3369 0.7260 -0.5996
vn -0.4848 0.3115 -0.8173
vn 0.6877 0.7260 -0.0082
vn 0.4848 0.3115 0.8173
vn 0.9502 0.3115 -0.0112
vn 0.4848 0.3115 0.8172
vn 0.3508 0.7260 0.5915
vn 0.3509 0.7260 0.5915
vn -0.4653 0.3115 0.8285
vn -0.3369 0.7260 0.5996
vn 0.3509 0.7259 0.5915
vn -0.6877 0.7259 0.0082
vn -0.3368 0.7259 0.5996
vn -0.6877 0.7259 0.0081
vn -0.3509 0.7259 -0.5915
vn 0.6877 0.7260 -0.0081
vn 0.6877 0.7259 -0.0082
vn 0.3368 0.7259 -0.5996
vn 0.4654 0.3116 -0.8285
vn 0.9502 0.3115 -0.0113
vn 0.6876 0.7260 -0.0082
vn 0.3368 0.7260 -0.5996
vn -0.6877 0.7260 0.0082
vn -0.4848 0.3115 -0.8172
vn 0.0112 0.3228 0.9464
vn -0.8140 0.3228 0.4829
vn 0.8252 0.3228 0.4635
vn -0.8252 0.3228 -0.4635
vn -0.0112 0.3228 -0.9464
vn 0.8140 0.3228 -0.4829
vn -0.8625 0.5060 0.0102
vn -0.4401 0.5060 -0.7418
vn -0.7773 0.4530 -0.4366
vn 0.7773 -0.4530 0.4366
vn 0.4401 -0.5060 0.7418
vn 0.8625 -0.5060 -0.0102
vn 0.7668 0.4530 -0.4549
vn 0.8625 0.5060 -0.0102
vn 0.8624 0.5060 -0.0102
vn 0.4224 0.5060 -0.7520
vn -0.8625 -0.5060 0.0102
vn -0.7668 -0.4530 0.4549
vn -0.4224 -0.5060 0.7520
vn -0.0105 0.4530 -0.8915
vn 0.0105 -0.4530 0.8915
vn -0.4224 0.5060 0.7520
vn -0.7668 0.4530 0.4549
vn -0.8624 0.5060 0.0102
vn 0.4224 -0.5060 -0.7520
vn 0.7668 -0.4530 -0.4549
vn 0.4401 0.5060 0.7418
vn 0.7773 0.4530 0.4366
vn -0.7773 -0.4530 -0.4366
vn -0.4401 -0.5060 -0.7418
vn 0.0105 0.4529 0.8915
vn 0.0105 0.4530 0.8915
vn -0.4224 0.5061 0.7520
vn -0.0105 -0.4529 -0.8915
vn -0.0105 -0.4530 -0.8915
vn 0.7418 0.5060 -0.4401
vn 0.7520 0.5060 0.4224
vn 0.8915 0.4530 -0.0105
vn -0.8915 -0.4530 0.0105
vn -0.7520 -0.5060 -0.4224
vn -0.7418 -0.5060 0.4401
vn 0.0102 0.5060 0.8625
vn -0.4366 0.4530 0.7773
vn -0.7418 0.5061 0.4400
vn -0.7418 0.5060 0.4401
vn -0.0102 -0.5060 -0.8625
vn 0.4366 -0.4530 -0.7773
vn 0.7418 -0.5060 -0.4401
vn -0.7520 0.5060 -0.4224
vn -0.0102 0.5060 -0.8624
vn -0.4549 0.4530 -0.7668
vn -0.0102 0.5060 -0.8625
vn 0.4549 -0.4530 0.7668
vn 0.0102 -0.5060 0.8625
vn 0.7520 -0.5060 0.4224
vn 0.4366 0.4530 -0.7773
vn 0.4366 0.4529 -0.7773
vn -0.4366 -0.4530 0.7773
vn -0.4366 -0.4529 0.7773
vn -0.8915 0.4530 0.0105
vn 0.8915 -0.4530 -0.0105
vn 0.0102 0.5060 0.8624
vn 0.4549 0.4530 0.7668
vn -0.4549 -0.4530 -0.7668
vn 0.7668 0.4529 -0.4549
vn -0.7668 -0.4529 0.4549
vn -0.0105 0.4529 -0.8915
vn -0.0106 0.4529 -0.8915
vn 0.0105 -0.4529 0.8915
vn 0.0106 -0.4529 0.8915
vn 0.4401 0.5061 0.7418
vn 0.0105 0.4530 0.8914
vn -0.4401 -0.5061 -0.7418
vn 0.4224 -0.5061 -0.7520
vn -0.4400 0.5061 -0.7418
vn 0.7773 0.4529 0.4366
vn -0.7773 -0.4529 -0.4366
vn -0.8624 -0.5060 0.0102
vt 0.593750 0.025000
vt 0.593750 0.104996
vt 0.593750 0.225000
vt 0.093750 0.475000
vt 0.093750 0.275000
vt 0.093750 0.425000
vt 0.093750 0.348778
vt 0.093750 0.338765
vt 0.093750 0.344099
vt 0.093750 0.375000
vt 0.093750 0.325000
s 0
usemtl colormap.048
f 3/1/1 2/1/1 1/1/1
f 2/1/1 3/1/1 4/1/1
f 4/1/1 3/1/1 5/1/1
f 4/1/1 5/1/1 6/1/1
f 6/1/1 5/1/1 7/1/1
f 6/1/1 7/1/1 8/1/1
f 9/2/2 1/1/3 2/1/4
f 1/1/3 9/2/2 10/2/5
f 11/2/6 1/1/7 10/2/8
f 1/1/7 11/2/6 3/1/9
f 12/2/10 2/1/11 4/1/12
f 2/1/11 12/2/13 9/2/14
f 13/2/15 4/1/16 6/1/17
f 4/1/16 13/2/15 12/2/18
f 7/1/19 14/2/20 8/1/21
f 14/2/20 7/1/19 15/2/22
f 11/2/23 5/1/24 3/1/25
f 5/1/26 11/2/23 16/2/27
f 8/1/28 13/2/29 6/1/30
f 13/2/29 8/1/28 14/2/31
f 7/1/32 16/2/33 15/2/34
f 16/2/35 7/1/32 5/1/36
f 14/2/37 18/3/38 17/3/39
f 18/3/40 14/2/37 15/2/41
f 16/2/42 18/3/43 15/2/44
f 18/3/40 16/2/42 19/3/45
f 21/3/46 9/2/47 20/3/48
f 9/2/47 21/3/46 10/2/49
f 22/3/50 12/2/51 13/2/52
f 12/2/51 22/3/53 23/3/54
f 21/3/55 11/2/56 10/2/49
f 11/2/56 21/3/46 24/3/57
f 13/2/58 17/3/59 22/3/50
f 17/3/39 13/2/58 14/2/37
f 20/3/48 12/2/51 23/3/60
f 12/2/61 20/3/48 9/2/62
f 24/3/63 16/2/42 11/2/64
f 16/2/42 24/3/65 19/3/66
f 27/4/67 26/4/67 25/4/67
f 26/4/67 27/4/67 28/4/67
f 26/4/67 28/4/67 29/4/67
f 29/4/67 28/4/67 30/4/67
f 29/4/67 30/4/67 31/4/67
f 31/4/67 30/4/67 32/4/67
f 35/5/1 34/5/1 33/5/1
f 34/5/1 35/5/1 36/5/1
f 34/5/1 36/5/1 37/5/1
f 37/5/1 36/5/1 38/5/1
f 37/5/1 38/5/1 39/5/1
f 39/5/1 38/5/1 40/5/1
f 27/4/68 33/5/69 34/5/68
f 33/5/69 27/4/68 25/4/70
f 29/4/71 38/5/72 36/5/73
f 38/5/72 29/4/74 31/4/75
f 40/5/76 31/4/77 32/4/76
f 31/4/77 40/5/76 38/5/77
f 28/4/78 34/5/79 37/5/78
f 34/5/79 28/4/80 27/4/79
f 26/4/81 36/5/74 35/5/81
f 36/5/74 26/4/81 29/4/82
f 30/4/83 37/5/78 39/5/84
f 37/5/78 30/4/84 28/4/85
f 26/4/86 33/5/87 25/4/88
f 33/5/88 26/4/86 35/5/86
f 40/5/89 30/4/90 39/5/90
f 30/4/90 40/5/91 32/4/89
f 43/6/92 42/7/93 41/7/92
f 42/7/93 43/6/92 44/6/93
f 47/6/94 46/7/95 45/7/94
f 46/7/95 47/6/94 48/6/95
f 50/6/96 45/7/94 49/7/96
f 45/7/94 50/6/96 47/6/94
f 48/6/95 41/7/92 46/7/95
f 41/7/92 48/6/95 43/6/92
f 52/7/97 44/6/93 51/6/97
f 44/6/93 52/7/97 42/7/93
f 52/7/97 50/6/96 49/7/96
f 50/6/96 52/7/97 51/6/97
f 41/7/1 45/7/1 46/7/1
f 45/7/1 41/7/1 42/7/1
f 45/7/1 42/7/1 49/7/1
f 49/7/1 42/7/1 52/7/1
f 55/6/98 54/8/99 53/8/100
f 54/8/101 55/6/102 56/6/103
f 59/8/104 58/6/105 57/6/106
f 58/6/105 59/8/104 60/8/107
f 63/6/108 62/8/109 61/8/110
f 62/8/111 63/6/108 64/6/112
f 64/6/113 53/8/114 62/8/109
f 53/8/100 64/6/113 55/6/115
f 64/6/116 56/6/117 55/6/118
f 56/6/119 64/6/116 58/6/120
f 58/6/120 64/6/116 63/6/121
f 58/6/120 63/6/122 57/6/123
f 59/8/124 63/6/121 61/8/125
f 63/6/126 59/8/104 57/6/127
f 54/8/1 62/8/1 53/8/1
f 62/8/1 54/8/1 60/8/1
f 62/8/1 60/8/1 61/8/1
f 61/8/1 60/8/1 59/8/1
f 56/6/128 60/8/107 54/8/99
f 60/8/129 56/6/128 58/6/105
f 67/6/130 66/9/131 65/9/130
f 66/9/131 67/6/130 68/6/131
f 70/6/132 65/9/130 69/9/132
f 65/9/130 70/6/132 67/6/130
f 68/6/131 71/9/133 66/9/131
f 71/9/133 68/6/131 72/6/133
f 72/6/133 73/9/134 71/9/133
f 73/9/134 72/6/133 74/6/134
f 71/9/1 65/9/1 66/9/1
f 65/9/1 71/9/1 69/9/1
f 69/9/1 71/9/1 73/9/1
f 69/9/1 73/9/1 75/9/1
f 76/6/135 69/9/132 75/9/135
f 69/9/132 76/6/135 70/6/132
f 73/9/134 76/6/135 75/9/135
f 76/6/135 73/9/134 74/6/134
f 79/10/136 78/10/137 77/11/138
f 78/10/137 79/10/136 41/6/136
f 78/10/137 41/6/136 42/6/137
f 77/11/139 78/10/140 79/10/141
f 41/6/141 79/10/141 78/10/140
f 42/6/140 41/6/141 78/10/140
f 81/11/142 49/6/143 80/10/143
f 49/6/144 81/11/142 52/6/145
f 52/6/145 81/11/142 82/10/145
f 80/10/146 49/6/146 81/11/147
f 52/6/148 81/11/147 49/6/146
f 82/10/148 81/11/147 52/6/148
f 82/10/145 42/6/137 52/6/145
f 42/6/137 82/10/145 83/11/149
f 42/6/137 83/11/149 78/10/137
f 52/6/148 42/6/140 82/10/148
f 83/11/150 82/10/148 42/6/140
f 78/10/140 83/11/150 42/6/140
f 46/6/151 85/11/152 84/10/151
f 85/11/152 46/6/151 41/6/153
f 85/11/152 41/6/153 79/10/136
f 84/10/154 85/11/155 46/6/154
f 41/6/141 46/6/154 85/11/155
f 79/10/141 41/6/141 85/11/155
f 80/10/143 87/10/156 86/11/157
f 87/10/156 80/10/143 49/6/143
f 87/10/156 49/6/143 45/6/156
f 86/11/158 87/10/159 80/10/146
f 49/6/146 80/10/146 87/10/159
f 45/6/159 49/6/146 87/10/159
f 45/6/156 88/11/160 87/10/156
f 88/11/161 45/6/156 46/6/151
f 88/11/161 46/6/162 84/10/151
f 87/10/159 88/11/163 45/6/159
f 46/6/154 45/6/159 88/11/164
f 84/10/154 46/6/154 88/11/164
f 91/10/165 90/10/166 89/11/167
f 90/10/166 91/10/165 75/6/165
f 90/10/166 75/6/165 69/6/166
f 89/11/168 90/10/169 91/10/170
f 75/6/170 91/10/170 90/10/169
f 69/6/169 75/6/170 90/10/169
f 65/6/171 93/11/172 92/10/171
f 93/11/172 65/6/171 66/6/173
f 93/11/172 66/6/174 94/10/174
f 92/10/175 93/11/176 65/6/175
f 66/6/177 65/6/175 93/11/176
f 94/10/177 66/6/177 93/11/176
f 97/10/178 96/10/179 95/11/180
f 96/10/181 97/10/178 71/6/178
f 96/10/181 71/6/178 73/6/181
f 95/11/182 96/10/183 97/10/184
f 71/6/184 97/10/184 96/10/183
f 73/6/183 71/6/184 96/10/183
f 98/11/185 75/6/165 91/10/165
f 75/6/165 98/11/186 73/6/181
f 73/6/181 98/11/185 96/10/181
f 91/10/170 75/6/170 98/11/187
f 73/6/183 98/11/188 75/6/170
f 96/10/183 98/11/187 73/6/183
f 94/10/174 97/10/178 99/11/189
f 97/10/178 94/10/174 66/6/174
f 97/10/178 66/6/174 71/6/178
f 99/11/190 97/10/184 94/10/177
f 66/6/177 94/10/177 97/10/184
f 71/6/184 66/6/177 97/10/184
f 90/10/166 92/10/191 100/11/192
f 92/10/171 90/10/166 69/6/166
f 92/10/171 69/6/166 65/6/171
f 100/11/193 92/10/175 90/10/169
f 69/6/169 90/10/169 92/10/175
f 65/6/175 69/6/169 92/10/175
f 102/11/142 61/6/144 101/10/143
f 61/6/144 102/11/142 59/6/145
f 59/6/145 102/11/194 103/10/145
f 101/10/146 61/6/146 102/11/147
f 59/6/148 102/11/147 61/6/146
f 103/10/148 102/11/195 59/6/148
f 103/10/145 60/6/137 59/6/145
f 60/6/137 103/10/145 104/11/196
f 60/6/137 104/11/197 105/10/137
f 59/6/148 60/6/140 103/10/148
f 104/11/198 103/10/148 60/6/140
f 105/10/140 104/11/199 60/6/140
f 62/6/200 107/11/201 106/10/156
f 107/11/160 62/6/156 53/6/151
f 107/11/161 53/6/162 108/10/151
f 106/10/159 107/11/164 62/6/202
f 53/6/154 62/6/159 107/11/164
f 108/10/154 53/6/203 107/11/164
f 110/10/153 105/10/204 109/11/138
f 105/10/137 110/10/136 54/6/136
f 105/10/137 54/6/136 60/6/137
f 109/11/139 105/10/140 110/10/141
f 54/6/141 110/10/141 105/10/140
f 60/6/140 54/6/141 105/10/140
f 101/10/143 106/10/156 111/11/205
f 106/10/156 101/10/143 61/6/143
f 106/10/156 61/6/143 62/6/156
f 111/11/206 106/10/159 101/10/146
f 61/6/207 101/10/146 106/10/159
f 62/6/159 61/6/146 106/10/159
f 53/6/151 112/11/152 108/10/151
f 112/11/152 53/6/151 54/6/153
f 112/11/152 54/6/153 110/10/136
f 108/10/154 112/11/155 53/6/154
f 54/6/141 53/6/154 112/11/155
f 110/10/141 54/6/141 112/11/155
f 3/1/1 2/1/1 1/1/1
f 2/1/1 3/1/1 4/1/1
f 4/1/1 3/1/1 5/1/1
f 4/1/1 5/1/1 6/1/1
f 6/1/1 5/1/1 7/1/1
f 6/1/1 7/1/1 8/1/1
f 9/2/2 1/1/3 2/1/4
f 1/1/3 9/2/2 10/2/5
f 11/2/6 1/1/7 10/2/8
f 1/1/7 11/2/6 3/1/9
f 12/2/10 2/1/11 4/1/12
f 2/1/11 12/2/13 9/2/14
f 13/2/15 4/1/16 6/1/17
f 4/1/16 13/2/15 12/2/18
f 7/1/19 14/2/20 8/1/21
f 14/2/20 7/1/19 15/2/22
f 11/2/23 5/1/24 3/1/25
f 5/1/26 11/2/23 16/2/27
f 8/1/28 13/2/29 6/1/30
f 13/2/29 8/1/28 14/2/31
f 7/1/32 16/2/33 15/2/34
f 16/2/35 7/1/32 5/1/36
f 14/2/37 18/3/38 17/3/39
f 18/3/40 14/2/37 15/2/41
f 16/2/42 18/3/43 15/2/44
f 18/3/40 16/2/42 19/3/45
f 21/3/46 9/2/47 20/3/48
f 9/2/47 21/3/46 10/2/49
f 22/3/50 12/2/51 13/2/52
f 12/2/51 22/3/53 23/3/54
f 21/3/55 11/2/56 10/2/49
f 11/2/56 21/3/46 24/3/57
f 13/2/58 17/3/59 22/3/50
f 17/3/39 13/2/58 14/2/37
f 20/3/48 12/2/51 23/3/60
f 12/2/61 20/3/48 9/2/62
f 24/3/63 16/2/42 11/2/64
f 16/2/42 24/3/65 19/3/66
f 27/4/67 26/4/67 25/4/67
f 26/4/67 27/4/67 28/4/67
f 26/4/67 28/4/67 29/4/67
f 29/4/67 28/4/67 30/4/67
f 29/4/67 30/4/67 31/4/67
f 31/4/67 30/4/67 32/4/67
f 35/5/1 34/5/1 33/5/1
f 34/5/1 35/5/1 36/5/1
f 34/5/1 36/5/1 37/5/1
f 37/5/1 36/5/1 38/5/1
f 37/5/1 38/5/1 39/5/1
f 39/5/1 38/5/1 40/5/1
f 27/4/68 33/5/69 34/5/68
f 33/5/69 27/4/68 25/4/70
f 29/4/71 38/5/72 36/5/73
f 38/5/72 29/4/74 31/4/75
f 40/5/76 31/4/77 32/4/76
f 31/4/77 40/5/76 38/5/77
f 28/4/78 34/5/79 37/5/78
f 34/5/79 28/4/80 27/4/79
f 26/4/81 36/5/74 35/5/81
f 36/5/74 26/4/81 29/4/82
f 30/4/83 37/5/78 39/5/84
f 37/5/78 30/4/84 28/4/85
f 26/4/86 33/5/87 25/4/88
f 33/5/88 26/4/86 35/5/86
f 40/5/89 30/4/90 39/5/90
f 30/4/90 40/5/91 32/4/89
f 43/6/92 42/7/93 41/7/92
f 42/7/93 43/6/92 44/6/93
f 47/6/94 46/7/95 45/7/94
f 46/7/95 47/6/94 48/6/95
f 50/6/96 45/7/94 49/7/96
f 45/7/94 50/6/96 47/6/94
f 48/6/95 41/7/92 46/7/95
f 41/7/92 48/6/95 43/6/92
f 52/7/97 44/6/93 51/6/97
f 44/6/93 52/7/97 42/7/93
f 52/7/97 50/6/96 49/7/96
f 50/6/96 52/7/97 51/6/97
f 41/7/1 45/7/1 46/7/1
f 45/7/1 41/7/1 42/7/1
f 45/7/1 42/7/1 49/7/1
f 49/7/1 42/7/1 52/7/1
f 55/6/98 54/8/99 53/8/100
f 54/8/101 55/6/102 56/6/103
f 59/8/104 58/6/105 57/6/106
f 58/6/105 59/8/104 60/8/107
f 63/6/108 62/8/109 61/8/110
f 62/8/111 63/6/108 64/6/112
f 64/6/113 53/8/114 62/8/109
f 53/8/100 64/6/113 55/6/115
f 64/6/116 56/6/117 55/6/118
f 56/6/119 64/6/116 58/6/120
f 58/6/120 64/6/116 63/6/121
f 58/6/120 63/6/122 57/6/123
f 59/8/124 63/6/121 61/8/125
f 63/6/126 59/8/104 57/6/127
f 54/8/1 62/8/1 53/8/1
f 62/8/1 54/8/1 60/8/1
f 62/8/1 60/8/1 61/8/1
f 61/8/1 60/8/1 59/8/1
f 56/6/128 60/8/107 54/8/99
f 60/8/129 56/6/128 58/6/105
f 67/6/130 66/9/131 65/9/130
f 66/9/131 67/6/130 68/6/131
f 70/6/132 65/9/130 69/9/132
f 65/9/130 70/6/132 67/6/130
f 68/6/131 71/9/133 66/9/131
f 71/9/133 68/6/131 72/6/133
f 72/6/133 73/9/134 71/9/133
f 73/9/134 72/6/133 74/6/134
f 71/9/1 65/9/1 66/9/1
f 65/9/1 71/9/1 69/9/1
f 69/9/1 71/9/1 73/9/1
f 69/9/1 73/9/1 75/9/1
f 76/6/135 69/9/132 75/9/135
f 69/9/132 76/6/135 70/6/132
f 73/9/134 76/6/135 75/9/135
f 76/6/135 73/9/134 74/6/134
f 79/10/136 78/10/137 77/11/138
f 78/10/137 79/10/136 41/6/136
f 78/10/137 41/6/136 42/6/137
f 77/11/139 78/10/140 79/10/141
f 41/6/141 79/10/141 78/10/140
f 42/6/140 41/6/141 78/10/140
f 81/11/142 49/6/143 80/10/143
f 49/6/144 81/11/142 52/6/145
f 52/6/145 81/11/142 82/10/145
f 80/10/146 49/6/146 81/11/147
f 52/6/148 81/11/147 49/6/146
f 82/10/148 81/11/147 52/6/148
f 82/10/145 42/6/137 52/6/145
f 42/6/137 82/10/145 83/11/149
f 42/6/137 83/11/149 78/10/137
f 52/6/148 42/6/140 82/10/148
f 83/11/150 82/10/148 42/6/140
f 78/10/140 83/11/150 42/6/140
f 46/6/151 85/11/152 84/10/151
f 85/11/152 46/6/151 41/6/153
f 85/11/152 41/6/153 79/10/136
f 84/10/154 85/11/155 46/6/154
f 41/6/141 46/6/154 85/11/155
f 79/10/141 41/6/141 85/11/155
f 80/10/143 87/10/156 86/11/157
f 87/10/156 80/10/143 49/6/143
f 87/10/156 49/6/143 45/6/156
f 86/11/158 87/10/159 80/10/146
f 49/6/146 80/10/146 87/10/159
f 45/6/159 49/6/146 87/10/159
f 45/6/156 88/11/160 87/10/156
f 88/11/161 45/6/156 46/6/151
f 88/11/161 46/6/162 84/10/151
f 87/10/159 88/11/163 45/6/159
f 46/6/154 45/6/159 88/11/164
f 84/10/154 46/6/154 88/11/164
f 91/10/165 90/10/166 89/11/167
f 90/10/166 91/10/165 75/6/165
f 90/10/166 75/6/165 69/6/166
f 89/11/168 90/10/169 91/10/170
f 75/6/170 91/10/170 90/10/169
f 69/6/169 75/6/170 90/10/169
f 65/6/171 93/11/172 92/10/171
f 93/11/172 65/6/171 66/6/173
f 93/11/172 66/6/174 94/10/174
f 92/10/175 93/11/176 65/6/175
f 66/6/177 65/6/175 93/11/176
f 94/10/177 66/6/177 93/11/176
f 97/10/178 96/10/179 95/11/180
f 96/10/181 97/10/178 71/6/178
f 96/10/181 71/6/178 73/6/181
f 95/11/182 96/10/183 97/10/184
f 71/6/184 97/10/184 96/10/183
f 73/6/183 71/6/184 96/10/183
f 98/11/185 75/6/165 91/10/165
f 75/6/165 98/11/186 73/6/181
f 73/6/181 98/11/185 96/10/181
f 91/10/170 75/6/170 98/11/187
f 73/6/183 98/11/188 75/6/170
f 96/10/183 98/11/187 73/6/183
f 94/10/174 97/10/178 99/11/189
f 97/10/178 94/10/174 66/6/174
f 97/10/178 66/6/174 71/6/178
f 99/11/190 97/10/184 94/10/177
f 66/6/177 94/10/177 97/10/184
f 71/6/184 66/6/177 97/10/184
f 90/10/166 92/10/191 100/11/192
f 92/10/171 90/10/166 69/6/166
f 92/10/171 69/6/166 65/6/171
f 100/11/193 92/10/175 90/10/169
f 69/6/169 90/10/169 92/10/175
f 65/6/175 69/6/169 92/10/175
f 102/11/142 61/6/144 101/10/143
f 61/6/144 102/11/142 59/6/145
f 59/6/145 102/11/194 103/10/145
f 101/10/146 61/6/146 102/11/147
f 59/6/148 102/11/147 61/6/146
f 103/10/148 102/11/195 59/6/148
f 103/10/145 60/6/137 59/6/145
f 60/6/137 103/10/145 104/11/196
f 60/6/137 104/11/197 105/10/137
f 59/6/148 60/6/140 103/10/148
f 104/11/198 103/10/148 60/6/140
f 105/10/140 104/11/199 60/6/140
f 62/6/200 107/11/201 106/10/156
f 107/11/160 62/6/156 53/6/151
f 107/11/161 53/6/162 108/10/151
f 106/10/159 107/11/164 62/6/202
f 53/6/154 62/6/159 107/11/164
f 108/10/154 53/6/203 107/11/164
f 110/10/153 105/10/204 109/11/138
f 105/10/137 110/10/136 54/6/136
f 105/10/137 54/6/136 60/6/137
f 109/11/139 105/10/140 110/10/141
f 54/6/141 110/10/141 105/10/140
f 60/6/140 54/6/141 105/10/140
f 101/10/143 106/10/156 111/11/205
f 106/10/156 101/10/143 61/6/143
f 106/10/156 61/6/143 62/6/156
f 111/11/206 106/10/159 101/10/146
f 61/6/207 101/10/146 106/10/159
f 62/6/159 61/6/146 106/10/159
f 53/6/151 112/11/152 108/10/151
f 112/11/152 53/6/151 54/6/153
f 112/11/152 54/6/153 110/10/136
f 108/10/154 112/11/155 53/6/154
f 54/6/141 53/6/154 112/11/155
f 110/10/141 54/6/141 112/11/155
