# Blender 4.1.1
# www.blender.org
mtllib tree.047.mtl
o tree.047
v -4.951611 -0.217703 -13.771455
v -4.793315 -0.217703 -13.682542
v -4.986302 -0.217703 -13.895059
v -4.669710 -0.217703 -13.717233
v -4.897388 -0.217703 -14.053355
v -4.580797 -0.217703 -13.875528
v -4.773784 -0.217703 -14.088046
v -4.615488 -0.217703 -13.999133
v -4.788432 0.111018 -13.783917
v -4.867580 0.111018 -13.828374
v -4.884926 0.111018 -13.890177
v -4.726630 0.111018 -13.801264
v -4.682173 0.111018 -13.880411
v -4.699519 0.111018 -13.942213
v -4.778667 0.111018 -13.986670
v -4.840469 0.111018 -13.969324
v -4.678511 0.604137 -13.956444
v -4.777446 0.604137 -14.012014
v -4.854699 0.604137 -13.990332
v -4.789653 0.604137 -13.758574
v -4.888588 0.604137 -13.814144
v -4.656829 0.604137 -13.879190
v -4.712400 0.604137 -13.780256
v -4.910270 0.604137 -13.891397
v -4.818344 0.228384 -13.732740
v -4.862374 0.228384 -13.788737
v -4.747614 0.228384 -13.724277
v -4.691616 0.228384 -13.768308
v -4.853912 0.228384 -13.859468
v -4.683154 0.228384 -13.839038
v -4.797915 0.228384 -13.903498
v -4.727184 0.228384 -13.895037
v -4.844162 0.109101 -13.686775
v -4.733368 0.109101 -13.673520
v -4.913131 0.109101 -13.774491
v -4.899876 0.109101 -13.885285
v -4.645652 0.109101 -13.742490
v -4.812160 0.109101 -13.954254
v -4.632397 0.109101 -13.853284
v -4.701366 0.109101 -13.941000
v -5.231349 0.604137 -13.887622
v -5.009924 0.604137 -14.281836
v -5.045986 1.147643 -13.889813
v -4.915344 1.147643 -14.122401
v -4.548553 0.604137 -13.504102
v -5.000665 0.604137 -13.498755
v -4.643134 1.147643 -13.663534
v -4.909881 1.147643 -13.660380
v -4.327128 0.604137 -13.898314
v -4.512492 1.147643 -13.896122
v -4.648597 1.147643 -14.125555
v -4.557813 0.604137 -14.287181
v -4.906913 1.731559 -13.665664
v -5.039927 1.731559 -13.889885
v -4.808585 2.344026 -13.840723
v -4.839157 2.344026 -13.892260
v -4.749893 2.344026 -13.945212
v -4.809812 2.344026 -13.944505
v -4.651565 1.731559 -14.120272
v -4.912252 1.731559 -14.117189
v -4.518551 1.731559 -13.896050
v -4.646225 1.731559 -13.668748
v -4.719321 2.344026 -13.893676
v -4.748666 2.344026 -13.841431
v -4.774893 1.147643 -13.525397
v -5.095391 1.147643 -13.705420
v -4.777247 1.731559 -13.724544
v -4.924103 1.731559 -13.807031
v -4.458741 1.147643 -13.712947
v -4.632383 1.731559 -13.810480
v -5.099737 1.147643 -14.072989
v -4.926095 1.731559 -13.975456
v -4.783585 1.147643 -14.260538
v -4.781230 1.731559 -14.061393
v -4.463087 1.147643 -14.080518
v -4.634375 1.731559 -13.978905
v -5.195745 0.434583 -14.126915
v -5.035299 0.519360 -14.324610
v -5.281082 0.519360 -13.887033
v -4.277396 0.519360 -13.898902
v -4.368382 0.434583 -14.136699
v -4.533456 0.519360 -14.330544
v -4.784887 0.434583 -14.370647
v -5.025022 0.519360 -13.455392
v -5.190096 0.434583 -13.649237
v -4.362733 0.434583 -13.659020
v -4.523178 0.519360 -13.461327
v -4.773591 0.434583 -13.415290
v -4.390882 1.009795 -13.897560
v -4.423486 1.078719 -13.693145
v -4.428310 1.078719 -14.101148
v -4.774415 1.078719 -13.484965
v -4.969440 1.009795 -13.554346
v -5.130167 1.078719 -13.684790
v -4.977394 1.009795 -14.226999
v -4.784063 1.078719 -14.300970
v -5.134992 1.078719 -14.092791
v -4.589037 1.009795 -14.231590
v -5.167595 1.009795 -13.888376
v -4.581084 1.009795 -13.558937
v -4.489875 1.682676 -13.896390
v -4.542338 1.633794 -14.033504
v -4.637520 1.682676 -14.145275
v -4.782496 1.633794 -14.168398
v -4.926884 1.682676 -14.141853
v -4.631594 1.682676 -13.644083
v -4.775982 1.633794 -13.617537
v -4.920958 1.682676 -13.640660
v -5.019396 1.633794 -14.027864
v -5.068603 1.682676 -13.889546
v -4.539081 1.633794 -13.758074
v -5.016140 1.633794 -13.752432
vn -0.0000 -1.0000 -0.0000
vn -0.1190 0.2942 0.9483
vn -0.7540 0.2944 0.5873
vn -0.1092 0.2944 0.9494
vn -0.7479 0.2942 0.5951
vn -0.9483 0.2942 -0.1189
vn -0.7540 0.2944 0.5872
vn -0.7480 0.2942 0.5950
vn -0.9483 0.2943 -0.1189
vn -0.9494 0.2944 -0.1091
vn 0.5950 0.2942 0.7480
vn -0.1091 0.2944 0.9494
vn 0.5872 0.2944 0.7540
vn 0.5950 0.2942 0.7479
vn -0.1189 0.2942 0.9483
vn 0.9483 0.2942 0.1190
vn 0.5873 0.2944 0.7540
vn 0.9494 0.2944 0.1092
vn 0.5951 0.2942 0.7479
vn 0.1092 0.2944 -0.9494
vn 0.7479 0.2942 -0.5951
vn 0.7540 0.2944 -0.5873
vn 0.1190 0.2942 -0.9483
vn -0.9483 0.2942 -0.1190
vn -0.5873 0.2944 -0.7540
vn -0.9494 0.2944 -0.1092
vn -0.5950 0.2942 -0.7479
vn 0.7540 0.2944 -0.5872
vn 0.9483 0.2943 0.1189
vn 0.9494 0.2944 0.1091
vn 0.9483 0.2942 0.1189
vn 0.7480 0.2942 -0.5950
vn 0.1091 0.2944 -0.9494
vn -0.5950 0.2942 -0.7480
vn 0.1189 0.2942 -0.9483
vn -0.5872 0.2944 -0.7540
vn 0.7845 -0.0513 -0.6180
vn 0.1178 -0.0512 -0.9917
vn 0.7856 -0.0513 -0.6166
vn 0.1178 -0.0513 -0.9917
vn 0.1196 -0.0513 -0.9915
vn -0.6180 -0.0512 -0.7845
vn 0.1195 -0.0512 -0.9915
vn 0.1177 -0.0513 -0.9917
vn -0.6180 -0.0513 -0.7845
vn -0.6166 -0.0512 -0.7856
vn -0.7856 -0.0512 0.6166
vn -0.1196 -0.0513 0.9915
vn -0.1178 -0.0513 0.9917
vn -0.7845 -0.0513 0.6180
vn 0.9917 -0.0513 0.1178
vn 0.6180 -0.0513 0.7845
vn 0.9915 -0.0513 0.1196
vn 0.9917 -0.0512 0.1178
vn 0.6166 -0.0513 0.7856
vn -0.7856 -0.0513 0.6166
vn -0.9915 -0.0513 -0.1195
vn -0.9917 -0.0513 -0.1178
vn 0.9915 -0.0513 0.1195
vn 0.7856 -0.0512 -0.6166
vn -0.1177 -0.0513 0.9917
vn 0.6166 -0.0512 0.7856
vn 0.6180 -0.0512 0.7845
vn -0.1195 -0.0512 0.9915
vn -0.9915 -0.0513 -0.1196
vn -0.9917 -0.0512 -0.1178
vn -0.6166 -0.0513 -0.7856
vn -0.0000 1.0000 -0.0000
vn 0.2471 0.4042 0.8806
vn -0.4479 0.4042 0.7975
vn -0.4479 0.4043 0.7975
vn -0.7975 0.4042 -0.4480
vn -0.2472 0.4042 -0.8806
vn 0.4479 0.4042 -0.7975
vn 0.4479 0.4043 -0.7975
vn -0.2471 0.4042 -0.8807
vn -0.2471 0.4042 -0.8806
vn 0.7975 0.4042 0.4480
vn 0.2472 0.4042 0.8806
vn 0.7975 0.4042 0.4479
vn -0.8806 0.4042 0.2471
vn -0.7975 0.4042 -0.4479
vn -0.7975 0.4043 -0.4479
vn 0.8806 0.4042 -0.2471
vn 0.7975 0.4043 0.4479
vn -0.8806 0.4042 0.2472
vn -0.4479 0.4043 0.7974
vn -0.4480 0.4042 0.7975
vn 0.4480 0.4042 -0.7975
vn 0.8806 0.4042 -0.2472
vn 0.4480 0.4043 -0.7974
vn -0.9464 0.3228 0.0112
vn -0.4829 0.3228 -0.8140
vn 0.4829 0.3228 0.8140
vn -0.4635 0.3228 0.8252
vn 0.9464 0.3228 -0.0112
vn 0.4635 0.3228 -0.8252
vn -0.3368 0.7260 0.5996
vn -0.9502 0.3115 0.0113
vn -0.4654 0.3115 0.8285
vn -0.9502 0.3115 0.0112
vn -0.6877 0.7260 0.0081
vn 0.4654 0.3115 -0.8285
vn -0.3509 0.7260 -0.5915
vn 0.3369 0.7260 -0.5996
vn -0.4848 0.3115 -0.8173
vn 0.6877 0.7260 -0.0082
vn 0.4848 0.3115 0.8173
vn 0.9502 0.3115 -0.0112
vn 0.4848 0.3115 0.8172
vn 0.3508 0.7260 0.5915
vn 0.3509 0.7260 0.5915
vn -0.4653 0.3115 0.8285
vn -0.3369 0.7260 0.5996
vn 0.3509 0.7259 0.5915
vn -0.6877 0.7259 0.0082
vn -0.3368 0.7259 0.5996
vn -0.6877 0.7259 0.0081
vn -0.3509 0.7259 -0.5915
vn 0.6877 0.7259 -0.0081
vn 0.6877 0.7259 -0.0082
vn 0.3368 0.7259 -0.5996
vn 0.4654 0.3116 -0.8285
vn 0.6877 0.7260 -0.0081
vn 0.9502 0.3115 -0.0113
vn 0.6876 0.7260 -0.0081
vn 0.3368 0.7260 -0.5996
vn -0.6877 0.7260 0.0082
vn -0.4848 0.3115 -0.8172
vn -0.3508 0.7260 -0.5915
vn 0.0112 0.3228 0.9464
vn -0.8140 0.3228 0.4829
vn 0.8252 0.3228 0.4635
vn -0.8252 0.3228 -0.4635
vn -0.0112 0.3228 -0.9464
vn 0.8140 0.3228 -0.4829
vn -0.8625 0.5060 0.0102
vn -0.4401 0.5060 -0.7418
vn -0.7773 0.4530 -0.4366
vn 0.7773 -0.4530 0.4366
vn 0.4401 -0.5060 0.7418
vn 0.8625 -0.5060 -0.0102
vn 0.7668 0.4530 -0.4549
vn 0.8624 0.5060 -0.0102
vn 0.8625 0.5060 -0.0102
vn 0.4224 0.5060 -0.7520
vn -0.8625 -0.5060 0.0102
vn -0.7668 -0.4530 0.4549
vn -0.4224 -0.5060 0.7520
vn -0.0105 0.4530 -0.8915
vn 0.0105 -0.4530 0.8915
vn -0.4224 0.5060 0.7520
vn -0.7668 0.4530 0.4549
vn -0.8624 0.5060 0.0102
vn 0.4224 -0.5060 -0.7520
vn 0.7668 -0.4530 -0.4549
vn 0.4400 0.5061 0.7418
vn 0.7773 0.4530 0.4366
vn 0.4401 0.5060 0.7418
vn -0.7773 -0.4530 -0.4366
vn -0.4401 -0.5060 -0.7418
vn 0.0105 0.4530 0.8915
vn -0.0105 -0.4530 -0.8915
vn 0.7418 0.5060 -0.4401
vn 0.7520 0.5060 0.4224
vn 0.8915 0.4530 -0.0105
vn -0.8915 -0.4530 0.0105
vn -0.7520 -0.5060 -0.4224
vn -0.7418 -0.5060 0.4401
vn 0.0102 0.5060 0.8625
vn -0.4366 0.4529 0.7773
vn -0.4366 0.4530 0.7773
vn -0.7418 0.5060 0.4401
vn -0.0102 -0.5060 -0.8625
vn 0.4366 -0.4530 -0.7773
vn 0.7418 -0.5060 -0.4401
vn 0.4366 -0.4529 -0.7773
vn -0.7520 0.5060 -0.4224
vn -0.0102 0.5060 -0.8624
vn -0.4549 0.4530 -0.7668
vn -0.0102 0.5060 -0.8625
vn 0.4549 -0.4530 0.7668
vn 0.0102 -0.5060 0.8625
vn 0.7520 -0.5060 0.4224
vn 0.4366 0.4529 -0.7773
vn 0.4366 0.4530 -0.7773
vn -0.4366 -0.4530 0.7773
vn -0.4366 -0.4529 0.7773
vn 0.0102 -0.5061 0.8624
vn -0.8915 0.4530 0.0105
vn 0.8915 -0.4530 -0.0105
vn 0.4549 0.4530 0.7668
vn -0.4549 -0.4530 -0.7668
vn 0.7668 0.4529 -0.4549
vn -0.4224 0.5061 0.7520
vn 0.0105 0.4529 0.8915
vn -0.4401 -0.5061 -0.7418
vn -0.0105 -0.4529 -0.8915
vn -0.7773 0.4529 -0.4366
vn 0.7773 -0.4529 0.4366
vn -0.7668 0.4529 0.4549
vn 0.7668 -0.4529 -0.4549
vt 0.593750 0.025000
vt 0.593750 0.104996
vt 0.593750 0.225000
vt 0.093750 0.475000
vt 0.093750 0.275000
vt 0.093750 0.425000
vt 0.093750 0.348778
vt 0.093750 0.338765
vt 0.093750 0.344099
vt 0.093750 0.375000
vt 0.093750 0.325000
s 0
usemtl colormap.002
f 3/1/1 2/1/1 1/1/1
f 2/1/1 3/1/1 4/1/1
f 4/1/1 3/1/1 5/1/1
f 4/1/1 5/1/1 6/1/1
f 6/1/1 5/1/1 7/1/1
f 6/1/1 7/1/1 8/1/1
f 9/2/2 1/1/3 2/1/4
f 1/1/3 9/2/2 10/2/5
f 11/2/6 1/1/7 10/2/8
f 1/1/7 11/2/9 3/1/10
f 12/2/11 2/1/12 4/1/13
f 2/1/12 12/2/14 9/2/15
f 13/2/16 4/1/17 6/1/18
f 4/1/17 13/2/16 12/2/19
f 7/1/20 14/2/21 8/1/22
f 14/2/21 7/1/20 15/2/23
f 11/2/24 5/1/25 3/1/26
f 5/1/25 11/2/24 16/2/27
f 8/1/28 13/2/29 6/1/30
f 13/2/31 8/1/28 14/2/32
f 7/1/33 16/2/34 15/2/35
f 16/2/34 7/1/33 5/1/36
f 14/2/37 18/3/38 17/3/39
f 18/3/40 14/2/37 15/2/41
f 16/2/42 18/3/40 15/2/43
f 18/3/44 16/2/45 19/3/46
f 21/3/47 9/2/48 20/3/49
f 9/2/48 21/3/47 10/2/50
f 22/3/51 12/2/52 13/2/53
f 12/2/52 22/3/54 23/3/55
f 21/3/56 11/2/57 10/2/50
f 11/2/57 21/3/47 24/3/58
f 13/2/59 17/3/60 22/3/51
f 17/3/39 13/2/59 14/2/37
f 20/3/61 12/2/52 23/3/62
f 12/2/63 20/3/61 9/2/64
f 24/3/58 16/2/45 11/2/65
f 16/2/45 24/3/66 19/3/67
f 27/4/68 26/4/68 25/4/68
f 26/4/68 27/4/68 28/4/68
f 26/4/68 28/4/68 29/4/68
f 29/4/68 28/4/68 30/4/68
f 29/4/68 30/4/68 31/4/68
f 31/4/68 30/4/68 32/4/68
f 35/5/1 34/5/1 33/5/1
f 34/5/1 35/5/1 36/5/1
f 34/5/1 36/5/1 37/5/1
f 37/5/1 36/5/1 38/5/1
f 37/5/1 38/5/1 39/5/1
f 39/5/1 38/5/1 40/5/1
f 27/4/69 33/5/70 34/5/69
f 33/5/70 27/4/69 25/4/71
f 29/4/72 38/5/73 36/5/72
f 38/5/73 29/4/72 31/4/73
f 40/5/74 31/4/73 32/4/75
f 31/4/76 40/5/74 38/5/77
f 28/4/78 34/5/79 37/5/80
f 34/5/79 28/4/78 27/4/79
f 26/4/81 36/5/82 35/5/81
f 36/5/82 26/4/81 29/4/83
f 30/4/84 37/5/80 39/5/84
f 37/5/80 30/4/84 28/4/85
f 26/4/86 33/5/87 25/4/88
f 33/5/88 26/4/86 35/5/86
f 40/5/89 30/4/90 39/5/90
f 30/4/90 40/5/91 32/4/89
f 43/6/92 42/7/93 41/7/92
f 42/7/93 43/6/92 44/6/93
f 47/6/94 46/7/95 45/7/94
f 46/7/95 47/6/94 48/6/95
f 50/6/96 45/7/94 49/7/96
f 45/7/94 50/6/96 47/6/94
f 48/6/95 41/7/92 46/7/95
f 41/7/92 48/6/95 43/6/92
f 52/7/97 44/6/93 51/6/97
f 44/6/93 52/7/97 42/7/93
f 52/7/97 50/6/96 49/7/96
f 50/6/96 52/7/97 51/6/97
f 41/7/1 45/7/1 46/7/1
f 45/7/1 41/7/1 42/7/1
f 45/7/1 42/7/1 49/7/1
f 49/7/1 42/7/1 52/7/1
f 55/6/98 54/8/99 53/8/100
f 54/8/101 55/6/98 56/6/102
f 59/8/103 58/6/104 57/6/105
f 58/6/104 59/8/103 60/8/106
f 63/6/107 62/8/108 61/8/109
f 62/8/110 63/6/107 64/6/111
f 64/6/112 53/8/113 62/8/108
f 53/8/100 64/6/112 55/6/114
f 64/6/115 56/6/116 55/6/117
f 56/6/118 64/6/115 58/6/119
f 58/6/119 64/6/115 63/6/120
f 58/6/119 63/6/121 57/6/122
f 59/8/123 63/6/124 61/8/125
f 63/6/126 59/8/103 57/6/127
f 54/8/1 62/8/1 53/8/1
f 62/8/1 54/8/1 60/8/1
f 62/8/1 60/8/1 61/8/1
f 61/8/1 60/8/1 59/8/1
f 56/6/128 60/8/106 54/8/101
f 60/8/129 56/6/128 58/6/130
f 67/6/131 66/9/132 65/9/131
f 66/9/132 67/6/131 68/6/132
f 70/6/133 65/9/131 69/9/133
f 65/9/131 70/6/133 67/6/131
f 68/6/132 71/9/134 66/9/132
f 71/9/134 68/6/132 72/6/134
f 72/6/134 73/9/135 71/9/134
f 73/9/135 72/6/134 74/6/135
f 71/9/1 65/9/1 66/9/1
f 65/9/1 71/9/1 69/9/1
f 69/9/1 71/9/1 73/9/1
f 69/9/1 73/9/1 75/9/1
f 76/6/136 69/9/133 75/9/136
f 69/9/133 76/6/136 70/6/133
f 73/9/135 76/6/136 75/9/136
f 76/6/136 73/9/135 74/6/135
f 79/10/137 78/10/138 77/11/139
f 78/10/138 79/10/137 41/6/137
f 78/10/138 41/6/137 42/6/138
f 77/11/140 78/10/141 79/10/142
f 41/6/142 79/10/142 78/10/141
f 42/6/141 41/6/142 78/10/141
f 81/11/143 49/6/144 80/10/145
f 49/6/144 81/11/143 52/6/146
f 52/6/146 81/11/143 82/10/146
f 80/10/147 49/6/147 81/11/148
f 52/6/149 81/11/148 49/6/147
f 82/10/149 81/11/148 52/6/149
f 82/10/146 42/6/138 52/6/146
f 42/6/138 82/10/146 83/11/150
f 42/6/138 83/11/150 78/10/138
f 52/6/149 42/6/141 82/10/149
f 83/11/151 82/10/149 42/6/141
f 78/10/141 83/11/151 42/6/141
f 46/6/152 85/11/153 84/10/152
f 85/11/153 46/6/152 41/6/154
f 85/11/153 41/6/154 79/10/137
f 84/10/155 85/11/156 46/6/155
f 41/6/142 46/6/155 85/11/156
f 79/10/142 41/6/142 85/11/156
f 80/10/145 87/10/157 86/11/158
f 87/10/159 80/10/145 49/6/145
f 87/10/159 49/6/145 45/6/159
f 86/11/160 87/10/161 80/10/147
f 49/6/147 80/10/147 87/10/161
f 45/6/161 49/6/147 87/10/161
f 45/6/159 88/11/162 87/10/159
f 88/11/162 45/6/159 46/6/152
f 88/11/162 46/6/152 84/10/152
f 87/10/161 88/11/163 45/6/161
f 46/6/155 45/6/161 88/11/163
f 84/10/155 46/6/155 88/11/163
f 91/10/164 90/10/165 89/11/166
f 90/10/165 91/10/164 75/6/164
f 90/10/165 75/6/164 69/6/165
f 89/11/167 90/10/168 91/10/169
f 75/6/169 91/10/169 90/10/168
f 69/6/168 75/6/169 90/10/168
f 65/6/170 93/11/171 92/10/170
f 93/11/172 65/6/170 66/6/173
f 93/11/171 66/6/173 94/10/173
f 92/10/174 93/11/175 65/6/174
f 66/6/176 65/6/174 93/11/175
f 94/10/176 66/6/176 93/11/177
f 97/10/178 96/10/179 95/11/180
f 96/10/181 97/10/178 71/6/178
f 96/10/181 71/6/178 73/6/181
f 95/11/182 96/10/183 97/10/184
f 71/6/184 97/10/184 96/10/183
f 73/6/183 71/6/184 96/10/183
f 98/11/185 75/6/164 91/10/164
f 75/6/164 98/11/185 73/6/181
f 73/6/179 98/11/186 96/10/181
f 91/10/169 75/6/169 98/11/187
f 73/6/183 98/11/188 75/6/169
f 96/10/183 98/11/187 73/6/189
f 94/10/173 97/10/178 99/11/190
f 97/10/178 94/10/173 66/6/173
f 97/10/178 66/6/173 71/6/178
f 99/11/191 97/10/184 94/10/176
f 66/6/176 94/10/176 97/10/184
f 71/6/184 66/6/176 97/10/184
f 90/10/165 92/10/170 100/11/192
f 92/10/170 90/10/165 69/6/165
f 92/10/170 69/6/165 65/6/170
f 100/11/193 92/10/174 90/10/168
f 69/6/168 90/10/168 92/10/174
f 65/6/174 69/6/168 92/10/174
f 102/11/143 61/6/144 101/10/145
f 61/6/145 102/11/194 59/6/146
f 59/6/146 102/11/143 103/10/146
f 101/10/147 61/6/147 102/11/148
f 59/6/149 102/11/148 61/6/147
f 103/10/149 102/11/148 59/6/149
f 103/10/146 60/6/138 59/6/146
f 60/6/138 103/10/146 104/11/150
f 60/6/138 104/11/150 105/10/138
f 59/6/149 60/6/141 103/10/149
f 104/11/151 103/10/149 60/6/141
f 105/10/141 104/11/151 60/6/141
f 62/6/159 107/11/162 106/10/159
f 107/11/162 62/6/159 53/6/195
f 107/11/196 53/6/152 108/10/152
f 106/10/161 107/11/163 62/6/197
f 53/6/155 62/6/161 107/11/163
f 108/10/155 53/6/155 107/11/198
f 110/10/137 105/10/138 109/11/199
f 105/10/138 110/10/137 54/6/137
f 105/10/138 54/6/137 60/6/138
f 109/11/200 105/10/141 110/10/142
f 54/6/142 110/10/142 105/10/141
f 60/6/141 54/6/142 105/10/141
f 101/10/145 106/10/159 111/11/158
f 106/10/159 101/10/145 61/6/145
f 106/10/159 61/6/145 62/6/159
f 111/11/160 106/10/161 101/10/147
f 61/6/147 101/10/147 106/10/161
f 62/6/161 61/6/147 106/10/161
f 53/6/152 112/11/153 108/10/152
f 112/11/153 53/6/152 54/6/154
f 112/11/201 54/6/137 110/10/137
f 108/10/155 112/11/156 53/6/155
f 54/6/142 53/6/155 112/11/156
f 110/10/142 54/6/142 112/11/202
f 3/1/1 2/1/1 1/1/1
f 2/1/1 3/1/1 4/1/1
f 4/1/1 3/1/1 5/1/1
f 4/1/1 5/1/1 6/1/1
f 6/1/1 5/1/1 7/1/1
f 6/1/1 7/1/1 8/1/1
f 9/2/2 1/1/3 2/1/4
f 1/1/3 9/2/2 10/2/5
f 11/2/6 1/1/7 10/2/8
f 1/1/7 11/2/9 3/1/10
f 12/2/11 2/1/12 4/1/13
f 2/1/12 12/2/14 9/2/15
f 13/2/16 4/1/17 6/1/18
f 4/1/17 13/2/16 12/2/19
f 7/1/20 14/2/21 8/1/22
f 14/2/21 7/1/20 15/2/23
f 11/2/24 5/1/25 3/1/26
f 5/1/25 11/2/24 16/2/27
f 8/1/28 13/2/29 6/1/30
f 13/2/31 8/1/28 14/2/32
f 7/1/33 16/2/34 15/2/35
f 16/2/34 7/1/33 5/1/36
f 14/2/37 18/3/38 17/3/39
f 18/3/40 14/2/37 15/2/41
f 16/2/42 18/3/40 15/2/43
f 18/3/44 16/2/45 19/3/46
f 21/3/47 9/2/48 20/3/49
f 9/2/48 21/3/47 10/2/50
f 22/3/51 12/2/52 13/2/53
f 12/2/52 22/3/54 23/3/55
f 21/3/56 11/2/57 10/2/50
f 11/2/57 21/3/47 24/3/58
f 13/2/59 17/3/60 22/3/51
f 17/3/39 13/2/59 14/2/37
f 20/3/61 12/2/52 23/3/62
f 12/2/63 20/3/61 9/2/64
f 24/3/58 16/2/45 11/2/65
f 16/2/45 24/3/66 19/3/67
f 27/4/68 26/4/68 25/4/68
f 26/4/68 27/4/68 28/4/68
f 26/4/68 28/4/68 29/4/68
f 29/4/68 28/4/68 30/4/68
f 29/4/68 30/4/68 31/4/68
f 31/4/68 30/4/68 32/4/68
f 35/5/1 34/5/1 33/5/1
f 34/5/1 35/5/1 36/5/1
f 34/5/1 36/5/1 37/5/1
f 37/5/1 36/5/1 38/5/1
f 37/5/1 38/5/1 39/5/1
f 39/5/1 38/5/1 40/5/1
f 27/4/69 33/5/70 34/5/69
f 33/5/70 27/4/69 25/4/71
f 29/4/72 38/5/73 36/5/72
f 38/5/73 29/4/72 31/4/73
f 40/5/74 31/4/73 32/4/75
f 31/4/76 40/5/74 38/5/77
f 28/4/78 34/5/79 37/5/80
f 34/5/79 28/4/78 27/4/79
f 26/4/81 36/5/82 35/5/81
f 36/5/82 26/4/81 29/4/83
f 30/4/84 37/5/80 39/5/84
f 37/5/80 30/4/84 28/4/85
f 26/4/86 33/5/87 25/4/88
f 33/5/88 26/4/86 35/5/86
f 40/5/89 30/4/90 39/5/90
f 30/4/90 40/5/91 32/4/89
f 43/6/92 42/7/93 41/7/92
f 42/7/93 43/6/92 44/6/93
f 47/6/94 46/7/95 45/7/94
f 46/7/95 47/6/94 48/6/95
f 50/6/96 45/7/94 49/7/96
f 45/7/94 50/6/96 47/6/94
f 48/6/95 41/7/92 46/7/95
f 41/7/92 48/6/95 43/6/92
f 52/7/97 44/6/93 51/6/97
f 44/6/93 52/7/97 42/7/93
f 52/7/97 50/6/96 49/7/96
f 50/6/96 52/7/97 51/6/97
f 41/7/1 45/7/1 46/7/1
f 45/7/1 41/7/1 42/7/1
f 45/7/1 42/7/1 49/7/1
f 49/7/1 42/7/1 52/7/1
f 55/6/98 54/8/99 53/8/100
f 54/8/101 55/6/98 56/6/102
f 59/8/103 58/6/104 57/6/105
f 58/6/104 59/8/103 60/8/106
f 63/6/107 62/8/108 61/8/109
f 62/8/110 63/6/107 64/6/111
f 64/6/112 53/8/113 62/8/108
f 53/8/100 64/6/112 55/6/114
f 64/6/115 56/6/116 55/6/117
f 56/6/118 64/6/115 58/6/119
f 58/6/119 64/6/115 63/6/120
f 58/6/119 63/6/121 57/6/122
f 59/8/123 63/6/124 61/8/125
f 63/6/126 59/8/103 57/6/127
f 54/8/1 62/8/1 53/8/1
f 62/8/1 54/8/1 60/8/1
f 62/8/1 60/8/1 61/8/1
f 61/8/1 60/8/1 59/8/1
f 56/6/128 60/8/106 54/8/101
f 60/8/129 56/6/128 58/6/130
f 67/6/131 66/9/132 65/9/131
f 66/9/132 67/6/131 68/6/132
f 70/6/133 65/9/131 69/9/133
f 65/9/131 70/6/133 67/6/131
f 68/6/132 71/9/134 66/9/132
f 71/9/134 68/6/132 72/6/134
f 72/6/134 73/9/135 71/9/134
f 73/9/135 72/6/134 74/6/135
f 71/9/1 65/9/1 66/9/1
f 65/9/1 71/9/1 69/9/1
f 69/9/1 71/9/1 73/9/1
f 69/9/1 73/9/1 75/9/1
f 76/6/136 69/9/133 75/9/136
f 69/9/133 76/6/136 70/6/133
f 73/9/135 76/6/136 75/9/136
f 76/6/136 73/9/135 74/6/135
f 79/10/137 78/10/138 77/11/139
f 78/10/138 79/10/137 41/6/137
f 78/10/138 41/6/137 42/6/138
f 77/11/140 78/10/141 79/10/142
f 41/6/142 79/10/142 78/10/141
f 42/6/141 41/6/142 78/10/141
f 81/11/143 49/6/144 80/10/145
f 49/6/144 81/11/143 52/6/146
f 52/6/146 81/11/143 82/10/146
f 80/10/147 49/6/147 81/11/148
f 52/6/149 81/11/148 49/6/147
f 82/10/149 81/11/148 52/6/149
f 82/10/146 42/6/138 52/6/146
f 42/6/138 82/10/146 83/11/150
f 42/6/138 83/11/150 78/10/138
f 52/6/149 42/6/141 82/10/149
f 83/11/151 82/10/149 42/6/141
f 78/10/141 83/11/151 42/6/141
f 46/6/152 85/11/153 84/10/152
f 85/11/153 46/6/152 41/6/154
f 85/11/153 41/6/154 79/10/137
f 84/10/155 85/11/156 46/6/155
f 41/6/142 46/6/155 85/11/156
f 79/10/142 41/6/142 85/11/156
f 80/10/145 87/10/157 86/11/158
f 87/10/159 80/10/145 49/6/145
f 87/10/159 49/6/145 45/6/159
f 86/11/160 87/10/161 80/10/147
f 49/6/147 80/10/147 87/10/161
f 45/6/161 49/6/147 87/10/161
f 45/6/159 88/11/162 87/10/159
f 88/11/162 45/6/159 46/6/152
f 88/11/162 46/6/152 84/10/152
f 87/10/161 88/11/163 45/6/161
f 46/6/155 45/6/161 88/11/163
f 84/10/155 46/6/155 88/11/163
f 91/10/164 90/10/165 89/11/166
f 90/10/165 91/10/164 75/6/164
f 90/10/165 75/6/164 69/6/165
f 89/11/167 90/10/168 91/10/169
f 75/6/169 91/10/169 90/10/168
f 69/6/168 75/6/169 90/10/168
f 65/6/170 93/11/171 92/10/170
f 93/11/172 65/6/170 66/6/173
f 93/11/171 66/6/173 94/10/173
f 92/10/174 93/11/175 65/6/174
f 66/6/176 65/6/174 93/11/175
f 94/10/176 66/6/176 93/11/177
f 97/10/178 96/10/179 95/11/180
f 96/10/181 97/10/178 71/6/178
f 96/10/181 71/6/178 73/6/181
f 95/11/182 96/10/183 97/10/184
f 71/6/184 97/10/184 96/10/183
f 73/6/183 71/6/184 96/10/183
f 98/11/185 75/6/164 91/10/164
f 75/6/164 98/11/185 73/6/181
f 73/6/179 98/11/186 96/10/181
f 91/10/169 75/6/169 98/11/187
f 73/6/183 98/11/188 75/6/169
f 96/10/183 98/11/187 73/6/189
f 94/10/173 97/10/178 99/11/190
f 97/10/178 94/10/173 66/6/173
f 97/10/178 66/6/173 71/6/178
f 99/11/191 97/10/184 94/10/176
f 66/6/176 94/10/176 97/10/184
f 71/6/184 66/6/176 97/10/184
f 90/10/165 92/10/170 100/11/192
f 92/10/170 90/10/165 69/6/165
f 92/10/170 69/6/165 65/6/170
f 100/11/193 92/10/174 90/10/168
f 69/6/168 90/10/168 92/10/174
f 65/6/174 69/6/168 92/10/174
f 102/11/143 61/6/144 101/10/145
f 61/6/145 102/11/194 59/6/146
f 59/6/146 102/11/143 103/10/146
f 101/10/147 61/6/147 102/11/148
f 59/6/149 102/11/148 61/6/147
f 103/10/149 102/11/148 59/6/149
f 103/10/146 60/6/138 59/6/146
f 60/6/138 103/10/146 104/11/150
f 60/6/138 104/11/150 105/10/138
f 59/6/149 60/6/141 103/10/149
f 104/11/151 103/10/149 60/6/141
f 105/10/141 104/11/151 60/6/141
f 62/6/159 107/11/162 106/10/159
f 107/11/162 62/6/159 53/6/195
f 107/11/196 53/6/152 108/10/152
f 106/10/161 107/11/163 62/6/197
f 53/6/155 62/6/161 107/11/163
f 108/10/155 53/6/155 107/11/198
f 110/10/137 105/10/138 109/11/199
f 105/10/138 110/10/137 54/6/137
f 105/10/138 54/6/137 60/6/138
f 109/11/200 105/10/141 110/10/142
f 54/6/142 110/10/142 105/10/141
f 60/6/141 54/6/142 105/10/141
f 101/10/145 106/10/159 111/11/158
f 106/10/159 101/10/145 61/6/145
f 106/10/159 61/6/145 62/6/159
f 111/11/160 106/10/161 101/10/147
f 61/6/147 101/10/147 106/10/161
f 62/6/161 61/6/147 106/10/161
f 53/6/152 112/11/153 108/10/152
f 112/11/153 53/6/152 54/6/154
f 112/11/201 54/6/137 110/10/137
f 108/10/155 112/11/156 53/6/155
f 54/6/142 53/6/155 112/11/156
f 110/10/142 54/6/142 112/11/202
