# Blender 4.1.1
# www.blender.org
mtllib tree.047.mtl
o tree.047
v -5.238465 -4.606890 -14.569409
v -5.070998 -4.606890 -14.475345
v -5.275167 -4.606890 -14.700175
v -4.940231 -4.606890 -14.512046
v -5.181102 -4.606890 -14.867642
v -4.846167 -4.606890 -14.679514
v -5.050335 -4.606890 -14.904345
v -4.882868 -4.606890 -14.810280
v -5.065832 -4.259123 -14.582595
v -5.149566 -4.259123 -14.629627
v -5.167917 -4.259123 -14.695010
v -5.000449 -4.259123 -14.600945
v -4.953417 -4.259123 -14.684679
v -4.971767 -4.259123 -14.750062
v -5.055501 -4.259123 -14.797094
v -5.120884 -4.259123 -14.778744
v -4.949542 -3.737433 -14.765117
v -5.054209 -3.737433 -14.823907
v -5.135939 -3.737433 -14.800968
v -5.067124 -3.737433 -14.555782
v -5.171791 -3.737433 -14.614573
v -4.926604 -3.737433 -14.683388
v -4.985394 -3.737433 -14.578721
v -5.194729 -3.737433 -14.696301
v -5.097477 -4.134956 -14.528452
v -5.144059 -4.134956 -14.587693
v -5.022649 -4.134956 -14.519499
v -4.963407 -4.134956 -14.566080
v -5.135106 -4.134956 -14.662521
v -4.954454 -4.134956 -14.640909
v -5.075864 -4.134956 -14.709103
v -5.001035 -4.134956 -14.700151
v -5.124791 -4.261151 -14.479824
v -5.007578 -4.261151 -14.465801
v -5.197756 -4.261151 -14.572622
v -5.183733 -4.261151 -14.689836
v -4.914780 -4.261151 -14.538767
v -5.090935 -4.261151 -14.762801
v -4.900756 -4.261151 -14.655979
v -4.973722 -4.261151 -14.748777
v -5.534412 -3.737433 -14.692307
v -5.300157 -3.737433 -15.109362
v -5.338309 -3.162436 -14.694626
v -5.200098 -3.162436 -14.940690
v -4.812055 -3.737433 -14.286567
v -5.290361 -3.737433 -14.280910
v -4.912115 -3.162436 -14.455236
v -5.194318 -3.162436 -14.451900
v -4.577800 -3.737433 -14.703619
v -4.773904 -3.162436 -14.701301
v -4.917895 -3.162436 -14.944026
v -4.821851 -3.737433 -15.115016
v -5.191178 -2.544689 -14.457490
v -5.331899 -2.544689 -14.694702
v -5.087152 -1.896736 -14.642692
v -5.119496 -1.896736 -14.697214
v -5.025061 -1.896736 -14.753235
v -5.088450 -1.896736 -14.752486
v -4.921035 -2.544689 -14.938437
v -5.196826 -2.544689 -14.935176
v -4.780314 -2.544689 -14.701224
v -4.915386 -2.544689 -14.460752
v -4.992716 -1.896736 -14.698712
v -5.023762 -1.896736 -14.643440
v -5.051508 -3.162436 -14.309096
v -5.390576 -3.162436 -14.499549
v -5.053999 -2.544689 -14.519780
v -5.209364 -2.544689 -14.607047
v -4.717039 -3.162436 -14.507512
v -4.900742 -2.544689 -14.610696
v -5.395174 -3.162436 -14.888414
v -5.211471 -2.544689 -14.785231
v -5.060704 -3.162436 -15.086830
v -5.058213 -2.544689 -14.876146
v -4.721637 -3.162436 -14.896379
v -4.902849 -2.544689 -14.788879
v -5.496744 -3.916811 -14.945465
v -5.327003 -3.827122 -15.154613
v -5.587026 -3.827122 -14.691686
v -4.525187 -3.827122 -14.704241
v -4.621444 -3.916811 -14.955815
v -4.796083 -3.827122 -15.160892
v -5.062082 -3.916811 -15.203319
v -5.316129 -3.827122 -14.235034
v -5.490768 -3.916811 -14.440111
v -4.615469 -3.916811 -14.450461
v -4.785210 -3.827122 -14.241313
v -5.050131 -3.916811 -14.192609
v -4.645249 -3.308271 -14.702822
v -4.679741 -3.235354 -14.486563
v -4.684845 -3.235354 -14.918205
v -5.051003 -3.235354 -14.266321
v -5.257328 -3.308271 -14.339722
v -5.427367 -3.235354 -14.477723
v -5.265742 -3.308271 -15.051348
v -5.061210 -3.235354 -15.129605
v -5.432471 -3.235354 -14.909364
v -4.854885 -3.308271 -15.056205
v -5.466964 -3.308271 -14.693105
v -4.846470 -3.308271 -14.344579
v -4.749977 -2.596404 -14.701583
v -4.805480 -2.648118 -14.846642
v -4.906177 -2.596404 -14.964890
v -5.059552 -2.648118 -14.989352
v -5.212306 -2.596404 -14.961268
v -4.899907 -2.596404 -14.434658
v -5.052661 -2.648118 -14.406575
v -5.206036 -2.596404 -14.431037
v -5.310179 -2.648118 -14.840674
v -5.362236 -2.596404 -14.694344
v -4.802034 -2.648118 -14.555254
v -5.306733 -2.648118 -14.549285
vn -0.0000 -1.0000 -0.0000
vn -0.1190 0.2942 0.9483
vn -0.7540 0.2944 0.5873
vn -0.1092 0.2944 0.9494
vn -0.7479 0.2942 0.5951
vn -0.9483 0.2942 -0.1189
vn -0.7540 0.2944 0.5872
vn -0.7480 0.2942 0.5950
vn -0.9494 0.2944 -0.1091
vn 0.5950 0.2942 0.7480
vn -0.1091 0.2944 0.9494
vn 0.5872 0.2944 0.7540
vn -0.1091 0.2945 0.9494
vn 0.5950 0.2942 0.7479
vn -0.1189 0.2942 0.9483
vn 0.9483 0.2942 0.1190
vn 0.5873 0.2944 0.7540
vn 0.9494 0.2944 0.1092
vn 0.5951 0.2942 0.7479
vn 0.1092 0.2944 -0.9494
vn 0.7479 0.2942 -0.5950
vn 0.7540 0.2944 -0.5873
vn 0.7479 0.2942 -0.5951
vn 0.1190 0.2942 -0.9483
vn -0.9483 0.2942 -0.1190
vn -0.5873 0.2944 -0.7540
vn -0.9494 0.2944 -0.1092
vn -0.5951 0.2942 -0.7479
vn 0.7540 0.2944 -0.5872
vn 0.9483 0.2943 0.1189
vn 0.9494 0.2944 0.1091
vn 0.9483 0.2942 0.1189
vn 0.7480 0.2942 -0.5950
vn 0.1091 0.2944 -0.9494
vn -0.5950 0.2942 -0.7479
vn 0.1189 0.2942 -0.9483
vn -0.5872 0.2944 -0.7540
vn 0.7845 -0.0513 -0.6180
vn 0.1178 -0.0512 -0.9917
vn 0.7856 -0.0513 -0.6166
vn 0.1178 -0.0513 -0.9917
vn 0.1196 -0.0513 -0.9915
vn -0.6180 -0.0512 -0.7845
vn 0.1195 -0.0512 -0.9915
vn -0.6180 -0.0513 -0.7845
vn -0.6166 -0.0512 -0.7856
vn -0.7856 -0.0512 0.6166
vn -0.1196 -0.0513 0.9915
vn -0.1178 -0.0513 0.9917
vn -0.7845 -0.0513 0.6180
vn 0.9917 -0.0513 0.1178
vn 0.6180 -0.0513 0.7845
vn 0.9915 -0.0513 0.1196
vn 0.9917 -0.0512 0.1178
vn 0.6166 -0.0513 0.7856
vn -0.7856 -0.0513 0.6166
vn -0.9915 -0.0513 -0.1195
vn -0.9917 -0.0513 -0.1177
vn 0.9915 -0.0513 0.1195
vn 0.7856 -0.0512 -0.6166
vn 0.9917 -0.0513 0.1177
vn 0.6166 -0.0512 0.7856
vn 0.6180 -0.0512 0.7845
vn -0.1195 -0.0512 0.9915
vn -0.9917 -0.0513 -0.1178
vn -0.9915 -0.0513 -0.1196
vn -0.9917 -0.0512 -0.1178
vn -0.6166 -0.0513 -0.7856
vn -0.0000 1.0000 -0.0000
vn 0.2471 0.4042 0.8806
vn -0.4479 0.4042 0.7975
vn -0.4479 0.4043 0.7975
vn -0.7975 0.4042 -0.4480
vn -0.2472 0.4042 -0.8806
vn -0.2472 0.4043 -0.8806
vn 0.4479 0.4042 -0.7975
vn 0.4479 0.4043 -0.7975
vn -0.2471 0.4042 -0.8806
vn 0.7975 0.4042 0.4480
vn 0.2472 0.4042 0.8806
vn 0.2472 0.4043 0.8806
vn -0.8806 0.4042 0.2471
vn -0.7975 0.4042 -0.4479
vn -0.7975 0.4043 -0.4479
vn 0.8806 0.4042 -0.2471
vn 0.7975 0.4042 0.4479
vn 0.7975 0.4043 0.4479
vn -0.8806 0.4042 0.2472
vn -0.4479 0.4043 0.7974
vn -0.4480 0.4042 0.7975
vn 0.4480 0.4042 -0.7975
vn 0.8806 0.4042 -0.2472
vn 0.4479 0.4043 -0.7974
vn -0.9464 0.3228 0.0112
vn -0.4829 0.3228 -0.8140
vn 0.4829 0.3228 0.8140
vn -0.4635 0.3228 0.8252
vn 0.9464 0.3228 -0.0112
vn 0.4635 0.3228 -0.8252
vn -0.3368 0.7260 0.5996
vn -0.9502 0.3115 0.0113
vn -0.4654 0.3115 0.8285
vn -0.9502 0.3115 0.0112
vn -0.6877 0.7260 0.0081
vn 0.4654 0.3115 -0.8285
vn -0.3509 0.7260 -0.5915
vn 0.3369 0.7260 -0.5996
vn -0.4848 0.3115 -0.8173
vn 0.6877 0.7260 -0.0082
vn 0.4848 0.3115 0.8173
vn 0.9502 0.3115 -0.0112
vn 0.4848 0.3115 0.8172
vn 0.3508 0.7260 0.5915
vn 0.3509 0.7260 0.5915
vn -0.4653 0.3115 0.8285
vn -0.3369 0.7260 0.5996
vn 0.3509 0.7259 0.5915
vn -0.6877 0.7259 0.0082
vn -0.3368 0.7259 0.5996
vn -0.6877 0.7259 0.0081
vn -0.3509 0.7259 -0.5915
vn 0.6877 0.7259 -0.0081
vn 0.6877 0.7259 -0.0082
vn 0.3368 0.7259 -0.5996
vn 0.4654 0.3116 -0.8285
vn 0.6877 0.7260 -0.0081
vn 0.9502 0.3115 -0.0113
vn 0.6876 0.7260 -0.0082
vn 0.3368 0.7260 -0.5996
vn -0.6877 0.7260 0.0082
vn -0.4848 0.3115 -0.8172
vn -0.3508 0.7260 -0.5915
vn 0.0112 0.3228 0.9464
vn -0.8140 0.3228 0.4829
vn 0.8252 0.3228 0.4635
vn -0.8252 0.3228 -0.4635
vn -0.0112 0.3228 -0.9464
vn 0.8140 0.3228 -0.4829
vn -0.8625 0.5060 0.0102
vn -0.4401 0.5060 -0.7418
vn -0.7773 0.4530 -0.4366
vn 0.7773 -0.4530 0.4366
vn 0.4401 -0.5060 0.7418
vn 0.8625 -0.5060 -0.0102
vn 0.7668 0.4530 -0.4549
vn 0.8624 0.5060 -0.0102
vn 0.8625 0.5060 -0.0102
vn 0.4224 0.5060 -0.7520
vn -0.8625 -0.5060 0.0102
vn -0.7668 -0.4530 0.4549
vn -0.4224 -0.5060 0.7520
vn -0.0105 0.4530 -0.8915
vn -0.0106 0.4530 -0.8915
vn 0.4401 -0.5061 0.7418
vn 0.0105 -0.4530 0.8915
vn 0.0106 -0.4529 0.8915
vn -0.4224 0.5060 0.7520
vn -0.7668 0.4530 0.4549
vn -0.8624 0.5060 0.0102
vn 0.4224 -0.5060 -0.7520
vn 0.7668 -0.4530 -0.4549
vn 0.4401 0.5060 0.7418
vn 0.7773 0.4530 0.4366
vn -0.7773 -0.4530 -0.4366
vn -0.4401 -0.5060 -0.7418
vn 0.0105 0.4530 0.8915
vn -0.0105 -0.4530 -0.8915
vn 0.7418 0.5060 -0.4401
vn 0.7520 0.5060 0.4224
vn 0.8915 0.4530 -0.0105
vn -0.8915 -0.4530 0.0105
vn -0.7520 -0.5060 -0.4224
vn -0.7418 -0.5060 0.4401
vn 0.0102 0.5060 0.8624
vn -0.4366 0.4530 0.7773
vn 0.0102 0.5060 0.8625
vn -0.7418 0.5060 0.4401
vn -0.7418 0.5061 0.4400
vn -0.0102 -0.5060 -0.8624
vn 0.4366 -0.4530 -0.7773
vn -0.0102 -0.5061 -0.8624
vn 0.7418 -0.5060 -0.4401
vn -0.0102 -0.5060 -0.8625
vn -0.7520 0.5060 -0.4224
vn -0.0102 0.5061 -0.8624
vn -0.4549 0.4530 -0.7668
vn -0.0102 0.5060 -0.8625
vn 0.4549 -0.4530 0.7668
vn 0.0102 -0.5060 0.8625
vn 0.7520 -0.5060 0.4224
vn 0.4366 0.4530 -0.7773
vn 0.7418 0.5061 -0.4401
vn 0.4366 0.4529 -0.7773
vn -0.4366 -0.4530 0.7773
vn -0.4366 -0.4529 0.7773
vn -0.8915 0.4530 0.0105
vn 0.8915 -0.4530 -0.0105
vn 0.4549 0.4529 0.7668
vn -0.4549 -0.4529 -0.7668
vn -0.0106 0.4529 -0.8915
vn 0.0106 0.4530 0.8915
vn -0.4401 -0.5061 -0.7418
vn -0.0106 -0.4530 -0.8915
vn -0.7773 -0.4529 -0.4366
vn 0.4224 -0.5061 -0.7520
vt 0.593750 0.025000
vt 0.593750 0.104996
vt 0.593750 0.225000
vt 0.093750 0.475000
vt 0.093750 0.275000
vt 0.093750 0.425000
vt 0.093750 0.348778
vt 0.093750 0.338765
vt 0.093750 0.344099
vt 0.093750 0.375000
vt 0.093750 0.325000
s 0
usemtl colormap.002
f 3/1/1 2/1/1 1/1/1
f 2/1/1 3/1/1 4/1/1
f 4/1/1 3/1/1 5/1/1
f 4/1/1 5/1/1 6/1/1
f 6/1/1 5/1/1 7/1/1
f 6/1/1 7/1/1 8/1/1
f 9/2/2 1/1/3 2/1/4
f 1/1/3 9/2/2 10/2/5
f 11/2/6 1/1/7 10/2/8
f 1/1/7 11/2/6 3/1/9
f 12/2/10 2/1/11 4/1/12
f 2/1/13 12/2/14 9/2/15
f 13/2/16 4/1/17 6/1/18
f 4/1/17 13/2/16 12/2/19
f 7/1/20 14/2/21 8/1/22
f 14/2/23 7/1/20 15/2/24
f 11/2/25 5/1/26 3/1/27
f 5/1/26 11/2/25 16/2/28
f 8/1/29 13/2/30 6/1/31
f 13/2/32 8/1/29 14/2/33
f 7/1/34 16/2/35 15/2/36
f 16/2/35 7/1/34 5/1/37
f 14/2/38 18/3/39 17/3/40
f 18/3/41 14/2/38 15/2/42
f 16/2/43 18/3/41 15/2/44
f 18/3/41 16/2/45 19/3/46
f 21/3/47 9/2/48 20/3/49
f 9/2/48 21/3/47 10/2/50
f 22/3/51 12/2/52 13/2/53
f 12/2/52 22/3/54 23/3/55
f 21/3/56 11/2/57 10/2/50
f 11/2/57 21/3/47 24/3/58
f 13/2/59 17/3/60 22/3/61
f 17/3/40 13/2/59 14/2/38
f 20/3/49 12/2/52 23/3/62
f 12/2/63 20/3/49 9/2/64
f 24/3/65 16/2/45 11/2/66
f 16/2/45 24/3/67 19/3/68
f 27/4/69 26/4/69 25/4/69
f 26/4/69 27/4/69 28/4/69
f 26/4/69 28/4/69 29/4/69
f 29/4/69 28/4/69 30/4/69
f 29/4/69 30/4/69 31/4/69
f 31/4/69 30/4/69 32/4/69
f 35/5/1 34/5/1 33/5/1
f 34/5/1 35/5/1 36/5/1
f 34/5/1 36/5/1 37/5/1
f 37/5/1 36/5/1 38/5/1
f 37/5/1 38/5/1 39/5/1
f 39/5/1 38/5/1 40/5/1
f 27/4/70 33/5/71 34/5/70
f 33/5/71 27/4/70 25/4/72
f 29/4/73 38/5/74 36/5/73
f 38/5/74 29/4/73 31/4/75
f 40/5/76 31/4/74 32/4/77
f 31/4/78 40/5/76 38/5/78
f 28/4/79 34/5/80 37/5/79
f 34/5/80 28/4/79 27/4/81
f 26/4/82 36/5/83 35/5/82
f 36/5/83 26/4/82 29/4/84
f 30/4/85 37/5/86 39/5/85
f 37/5/86 30/4/85 28/4/87
f 26/4/88 33/5/89 25/4/71
f 33/5/90 26/4/88 35/5/88
f 40/5/91 30/4/92 39/5/92
f 30/4/92 40/5/93 32/4/91
f 43/6/94 42/7/95 41/7/94
f 42/7/95 43/6/94 44/6/95
f 47/6/96 46/7/97 45/7/96
f 46/7/97 47/6/96 48/6/97
f 50/6/98 45/7/96 49/7/98
f 45/7/96 50/6/98 47/6/96
f 48/6/97 41/7/94 46/7/97
f 41/7/94 48/6/97 43/6/94
f 52/7/99 44/6/95 51/6/99
f 44/6/95 52/7/99 42/7/95
f 52/7/99 50/6/98 49/7/98
f 50/6/98 52/7/99 51/6/99
f 41/7/1 45/7/1 46/7/1
f 45/7/1 41/7/1 42/7/1
f 45/7/1 42/7/1 49/7/1
f 49/7/1 42/7/1 52/7/1
f 55/6/100 54/8/101 53/8/102
f 54/8/103 55/6/100 56/6/104
f 59/8/105 58/6/106 57/6/107
f 58/6/106 59/8/105 60/8/108
f 63/6/109 62/8/110 61/8/111
f 62/8/112 63/6/109 64/6/113
f 64/6/114 53/8/115 62/8/110
f 53/8/102 64/6/114 55/6/116
f 64/6/117 56/6/118 55/6/119
f 56/6/120 64/6/117 58/6/121
f 58/6/121 64/6/117 63/6/122
f 58/6/121 63/6/123 57/6/124
f 59/8/125 63/6/126 61/8/127
f 63/6/128 59/8/105 57/6/129
f 54/8/1 62/8/1 53/8/1
f 62/8/1 54/8/1 60/8/1
f 62/8/1 60/8/1 61/8/1
f 61/8/1 60/8/1 59/8/1
f 56/6/130 60/8/108 54/8/103
f 60/8/131 56/6/130 58/6/132
f 67/6/133 66/9/134 65/9/133
f 66/9/134 67/6/133 68/6/134
f 70/6/135 65/9/133 69/9/135
f 65/9/133 70/6/135 67/6/133
f 68/6/134 71/9/136 66/9/134
f 71/9/136 68/6/134 72/6/136
f 72/6/136 73/9/137 71/9/136
f 73/9/137 72/6/136 74/6/137
f 71/9/1 65/9/1 66/9/1
f 65/9/1 71/9/1 69/9/1
f 69/9/1 71/9/1 73/9/1
f 69/9/1 73/9/1 75/9/1
f 76/6/138 69/9/135 75/9/138
f 69/9/135 76/6/138 70/6/135
f 73/9/137 76/6/138 75/9/138
f 76/6/138 73/9/137 74/6/137
f 79/10/139 78/10/140 77/11/141
f 78/10/140 79/10/139 41/6/139
f 78/10/140 41/6/139 42/6/140
f 77/11/142 78/10/143 79/10/144
f 41/6/144 79/10/144 78/10/143
f 42/6/143 41/6/144 78/10/143
f 81/11/145 49/6/146 80/10/147
f 49/6/146 81/11/145 52/6/148
f 52/6/148 81/11/145 82/10/148
f 80/10/149 49/6/149 81/11/150
f 52/6/151 81/11/150 49/6/149
f 82/10/151 81/11/150 52/6/151
f 82/10/148 42/6/140 52/6/148
f 42/6/140 82/10/148 83/11/152
f 42/6/140 83/11/153 78/10/140
f 52/6/151 42/6/154 82/10/151
f 83/11/155 82/10/151 42/6/143
f 78/10/143 83/11/156 42/6/143
f 46/6/157 85/11/158 84/10/157
f 85/11/158 46/6/157 41/6/159
f 85/11/158 41/6/159 79/10/139
f 84/10/160 85/11/161 46/6/160
f 41/6/144 46/6/160 85/11/161
f 79/10/144 41/6/144 85/11/161
f 80/10/147 87/10/162 86/11/163
f 87/10/162 80/10/147 49/6/147
f 87/10/162 49/6/147 45/6/162
f 86/11/164 87/10/165 80/10/149
f 49/6/149 80/10/149 87/10/165
f 45/6/165 49/6/149 87/10/165
f 45/6/162 88/11/166 87/10/162
f 88/11/166 45/6/162 46/6/157
f 88/11/166 46/6/157 84/10/157
f 87/10/165 88/11/167 45/6/165
f 46/6/160 45/6/165 88/11/167
f 84/10/160 46/6/160 88/11/167
f 91/10/168 90/10/169 89/11/170
f 90/10/169 91/10/168 75/6/168
f 90/10/169 75/6/168 69/6/169
f 89/11/171 90/10/172 91/10/173
f 75/6/173 91/10/173 90/10/172
f 69/6/172 75/6/173 90/10/172
f 65/6/174 93/11/175 92/10/176
f 93/11/175 65/6/176 66/6/177
f 93/11/175 66/6/178 94/10/177
f 92/10/179 93/11/180 65/6/181
f 66/6/182 65/6/183 93/11/180
f 94/10/182 66/6/182 93/11/180
f 97/10/184 96/10/185 95/11/186
f 96/10/187 97/10/184 71/6/184
f 96/10/187 71/6/184 73/6/187
f 95/11/188 96/10/189 97/10/190
f 71/6/190 97/10/190 96/10/189
f 73/6/189 71/6/190 96/10/189
f 98/11/191 75/6/192 91/10/168
f 75/6/168 98/11/191 73/6/187
f 73/6/187 98/11/193 96/10/187
f 91/10/173 75/6/173 98/11/194
f 73/6/189 98/11/194 75/6/173
f 96/10/189 98/11/195 73/6/189
f 94/10/177 97/10/184 99/11/196
f 97/10/184 94/10/177 66/6/177
f 97/10/184 66/6/177 71/6/184
f 99/11/197 97/10/190 94/10/182
f 66/6/182 94/10/182 97/10/190
f 71/6/190 66/6/182 97/10/190
f 90/10/169 92/10/176 100/11/198
f 92/10/176 90/10/169 69/6/169
f 92/10/176 69/6/169 65/6/176
f 100/11/199 92/10/183 90/10/172
f 69/6/172 90/10/172 92/10/183
f 65/6/183 69/6/172 92/10/183
f 102/11/145 61/6/146 101/10/147
f 61/6/146 102/11/145 59/6/148
f 59/6/148 102/11/145 103/10/148
f 101/10/149 61/6/149 102/11/150
f 59/6/151 102/11/150 61/6/149
f 103/10/151 102/11/150 59/6/151
f 103/10/148 60/6/140 59/6/148
f 60/6/140 103/10/148 104/11/152
f 60/6/140 104/11/200 105/10/140
f 59/6/151 60/6/143 103/10/151
f 104/11/155 103/10/151 60/6/143
f 105/10/143 104/11/156 60/6/143
f 62/6/162 107/11/166 106/10/162
f 107/11/166 62/6/162 53/6/157
f 107/11/201 53/6/157 108/10/157
f 106/10/165 107/11/167 62/6/202
f 53/6/160 62/6/165 107/11/167
f 108/10/160 53/6/160 107/11/203
f 110/10/139 105/10/140 109/11/141
f 105/10/140 110/10/139 54/6/139
f 105/10/140 54/6/139 60/6/140
f 109/11/142 105/10/143 110/10/144
f 54/6/144 110/10/144 105/10/143
f 60/6/143 54/6/144 105/10/143
f 101/10/147 106/10/162 111/11/163
f 106/10/162 101/10/147 61/6/147
f 106/10/162 61/6/147 62/6/162
f 111/11/204 106/10/165 101/10/149
f 61/6/149 101/10/149 106/10/165
f 62/6/165 61/6/149 106/10/165
f 53/6/157 112/11/158 108/10/157
f 112/11/158 53/6/157 54/6/139
f 112/11/158 54/6/139 110/10/139
f 108/10/160 112/11/161 53/6/205
f 54/6/144 53/6/160 112/11/161
f 110/10/144 54/6/144 112/11/161
f 3/1/1 2/1/1 1/1/1
f 2/1/1 3/1/1 4/1/1
f 4/1/1 3/1/1 5/1/1
f 4/1/1 5/1/1 6/1/1
f 6/1/1 5/1/1 7/1/1
f 6/1/1 7/1/1 8/1/1
f 9/2/2 1/1/3 2/1/4
f 1/1/3 9/2/2 10/2/5
f 11/2/6 1/1/7 10/2/8
f 1/1/7 11/2/6 3/1/9
f 12/2/10 2/1/11 4/1/12
f 2/1/13 12/2/14 9/2/15
f 13/2/16 4/1/17 6/1/18
f 4/1/17 13/2/16 12/2/19
f 7/1/20 14/2/21 8/1/22
f 14/2/23 7/1/20 15/2/24
f 11/2/25 5/1/26 3/1/27
f 5/1/26 11/2/25 16/2/28
f 8/1/29 13/2/30 6/1/31
f 13/2/32 8/1/29 14/2/33
f 7/1/34 16/2/35 15/2/36
f 16/2/35 7/1/34 5/1/37
f 14/2/38 18/3/39 17/3/40
f 18/3/41 14/2/38 15/2/42
f 16/2/43 18/3/41 15/2/44
f 18/3/41 16/2/45 19/3/46
f 21/3/47 9/2/48 20/3/49
f 9/2/48 21/3/47 10/2/50
f 22/3/51 12/2/52 13/2/53
f 12/2/52 22/3/54 23/3/55
f 21/3/56 11/2/57 10/2/50
f 11/2/57 21/3/47 24/3/58
f 13/2/59 17/3/60 22/3/61
f 17/3/40 13/2/59 14/2/38
f 20/3/49 12/2/52 23/3/62
f 12/2/63 20/3/49 9/2/64
f 24/3/65 16/2/45 11/2/66
f 16/2/45 24/3/67 19/3/68
f 27/4/69 26/4/69 25/4/69
f 26/4/69 27/4/69 28/4/69
f 26/4/69 28/4/69 29/4/69
f 29/4/69 28/4/69 30/4/69
f 29/4/69 30/4/69 31/4/69
f 31/4/69 30/4/69 32/4/69
f 35/5/1 34/5/1 33/5/1
f 34/5/1 35/5/1 36/5/1
f 34/5/1 36/5/1 37/5/1
f 37/5/1 36/5/1 38/5/1
f 37/5/1 38/5/1 39/5/1
f 39/5/1 38/5/1 40/5/1
f 27/4/70 33/5/71 34/5/70
f 33/5/71 27/4/70 25/4/72
f 29/4/73 38/5/74 36/5/73
f 38/5/74 29/4/73 31/4/75
f 40/5/76 31/4/74 32/4/77
f 31/4/78 40/5/76 38/5/78
f 28/4/79 34/5/80 37/5/79
f 34/5/80 28/4/79 27/4/81
f 26/4/82 36/5/83 35/5/82
f 36/5/83 26/4/82 29/4/84
f 30/4/85 37/5/86 39/5/85
f 37/5/86 30/4/85 28/4/87
f 26/4/88 33/5/89 25/4/71
f 33/5/90 26/4/88 35/5/88
f 40/5/91 30/4/92 39/5/92
f 30/4/92 40/5/93 32/4/91
f 43/6/94 42/7/95 41/7/94
f 42/7/95 43/6/94 44/6/95
f 47/6/96 46/7/97 45/7/96
f 46/7/97 47/6/96 48/6/97
f 50/6/98 45/7/96 49/7/98
f 45/7/96 50/6/98 47/6/96
f 48/6/97 41/7/94 46/7/97
f 41/7/94 48/6/97 43/6/94
f 52/7/99 44/6/95 51/6/99
f 44/6/95 52/7/99 42/7/95
f 52/7/99 50/6/98 49/7/98
f 50/6/98 52/7/99 51/6/99
f 41/7/1 45/7/1 46/7/1
f 45/7/1 41/7/1 42/7/1
f 45/7/1 42/7/1 49/7/1
f 49/7/1 42/7/1 52/7/1
f 55/6/100 54/8/101 53/8/102
f 54/8/103 55/6/100 56/6/104
f 59/8/105 58/6/106 57/6/107
f 58/6/106 59/8/105 60/8/108
f 63/6/109 62/8/110 61/8/111
f 62/8/112 63/6/109 64/6/113
f 64/6/114 53/8/115 62/8/110
f 53/8/102 64/6/114 55/6/116
f 64/6/117 56/6/118 55/6/119
f 56/6/120 64/6/117 58/6/121
f 58/6/121 64/6/117 63/6/122
f 58/6/121 63/6/123 57/6/124
f 59/8/125 63/6/126 61/8/127
f 63/6/128 59/8/105 57/6/129
f 54/8/1 62/8/1 53/8/1
f 62/8/1 54/8/1 60/8/1
f 62/8/1 60/8/1 61/8/1
f 61/8/1 60/8/1 59/8/1
f 56/6/130 60/8/108 54/8/103
f 60/8/131 56/6/130 58/6/132
f 67/6/133 66/9/134 65/9/133
f 66/9/134 67/6/133 68/6/134
f 70/6/135 65/9/133 69/9/135
f 65/9/133 70/6/135 67/6/133
f 68/6/134 71/9/136 66/9/134
f 71/9/136 68/6/134 72/6/136
f 72/6/136 73/9/137 71/9/136
f 73/9/137 72/6/136 74/6/137
f 71/9/1 65/9/1 66/9/1
f 65/9/1 71/9/1 69/9/1
f 69/9/1 71/9/1 73/9/1
f 69/9/1 73/9/1 75/9/1
f 76/6/138 69/9/135 75/9/138
f 69/9/135 76/6/138 70/6/135
f 73/9/137 76/6/138 75/9/138
f 76/6/138 73/9/137 74/6/137
f 79/10/139 78/10/140 77/11/141
f 78/10/140 79/10/139 41/6/139
f 78/10/140 41/6/139 42/6/140
f 77/11/142 78/10/143 79/10/144
f 41/6/144 79/10/144 78/10/143
f 42/6/143 41/6/144 78/10/143
f 81/11/145 49/6/146 80/10/147
f 49/6/146 81/11/145 52/6/148
f 52/6/148 81/11/145 82/10/148
f 80/10/149 49/6/149 81/11/150
f 52/6/151 81/11/150 49/6/149
f 82/10/151 81/11/150 52/6/151
f 82/10/148 42/6/140 52/6/148
f 42/6/140 82/10/148 83/11/152
f 42/6/140 83/11/153 78/10/140
f 52/6/151 42/6/154 82/10/151
f 83/11/155 82/10/151 42/6/143
f 78/10/143 83/11/156 42/6/143
f 46/6/157 85/11/158 84/10/157
f 85/11/158 46/6/157 41/6/159
f 85/11/158 41/6/159 79/10/139
f 84/10/160 85/11/161 46/6/160
f 41/6/144 46/6/160 85/11/161
f 79/10/144 41/6/144 85/11/161
f 80/10/147 87/10/162 86/11/163
f 87/10/162 80/10/147 49/6/147
f 87/10/162 49/6/147 45/6/162
f 86/11/164 87/10/165 80/10/149
f 49/6/149 80/10/149 87/10/165
f 45/6/165 49/6/149 87/10/165
f 45/6/162 88/11/166 87/10/162
f 88/11/166 45/6/162 46/6/157
f 88/11/166 46/6/157 84/10/157
f 87/10/165 88/11/167 45/6/165
f 46/6/160 45/6/165 88/11/167
f 84/10/160 46/6/160 88/11/167
f 91/10/168 90/10/169 89/11/170
f 90/10/169 91/10/168 75/6/168
f 90/10/169 75/6/168 69/6/169
f 89/11/171 90/10/172 91/10/173
f 75/6/173 91/10/173 90/10/172
f 69/6/172 75/6/173 90/10/172
f 65/6/174 93/11/175 92/10/176
f 93/11/175 65/6/176 66/6/177
f 93/11/175 66/6/178 94/10/177
f 92/10/179 93/11/180 65/6/181
f 66/6/182 65/6/183 93/11/180
f 94/10/182 66/6/182 93/11/180
f 97/10/184 96/10/185 95/11/186
f 96/10/187 97/10/184 71/6/184
f 96/10/187 71/6/184 73/6/187
f 95/11/188 96/10/189 97/10/190
f 71/6/190 97/10/190 96/10/189
f 73/6/189 71/6/190 96/10/189
f 98/11/191 75/6/192 91/10/168
f 75/6/168 98/11/191 73/6/187
f 73/6/187 98/11/193 96/10/187
f 91/10/173 75/6/173 98/11/194
f 73/6/189 98/11/194 75/6/173
f 96/10/189 98/11/195 73/6/189
f 94/10/177 97/10/184 99/11/196
f 97/10/184 94/10/177 66/6/177
f 97/10/184 66/6/177 71/6/184
f 99/11/197 97/10/190 94/10/182
f 66/6/182 94/10/182 97/10/190
f 71/6/190 66/6/182 97/10/190
f 90/10/169 92/10/176 100/11/198
f 92/10/176 90/10/169 69/6/169
f 92/10/176 69/6/169 65/6/176
f 100/11/199 92/10/183 90/10/172
f 69/6/172 90/10/172 92/10/183
f 65/6/183 69/6/172 92/10/183
f 102/11/145 61/6/146 101/10/147
f 61/6/146 102/11/145 59/6/148
f 59/6/148 102/11/145 103/10/148
f 101/10/149 61/6/149 102/11/150
f 59/6/151 102/11/150 61/6/149
f 103/10/151 102/11/150 59/6/151
f 103/10/148 60/6/140 59/6/148
f 60/6/140 103/10/148 104/11/152
f 60/6/140 104/11/200 105/10/140
f 59/6/151 60/6/143 103/10/151
f 104/11/155 103/10/151 60/6/143
f 105/10/143 104/11/156 60/6/143
f 62/6/162 107/11/166 106/10/162
f 107/11/166 62/6/162 53/6/157
f 107/11/201 53/6/157 108/10/157
f 106/10/165 107/11/167 62/6/202
f 53/6/160 62/6/165 107/11/167
f 108/10/160 53/6/160 107/11/203
f 110/10/139 105/10/140 109/11/141
f 105/10/140 110/10/139 54/6/139
f 105/10/140 54/6/139 60/6/140
f 109/11/142 105/10/143 110/10/144
f 54/6/144 110/10/144 105/10/143
f 60/6/143 54/6/144 105/10/143
f 101/10/147 106/10/162 111/11/163
f 106/10/162 101/10/147 61/6/147
f 106/10/162 61/6/147 62/6/162
f 111/11/204 106/10/165 101/10/149
f 61/6/149 101/10/149 106/10/165
f 62/6/165 61/6/149 106/10/165
f 53/6/157 112/11/158 108/10/157
f 112/11/158 53/6/157 54/6/139
f 112/11/158 54/6/139 110/10/139
f 108/10/160 112/11/161 53/6/205
f 54/6/144 53/6/160 112/11/161
f 110/10/144 54/6/144 112/11/161
