# Blender 4.1.1
# www.blender.org
mtllib path_short.062.mtl
o path_short.062
v 2.126630 -0.029446 -2.201511
v 1.896621 -0.029504 -2.201520
v 2.126576 -0.029504 -2.431475
v 1.896621 -0.029504 -2.431475
v 1.896621 -0.018006 -2.236013
v 2.128068 -0.016387 -2.235751
v 1.896621 -0.018006 -2.396982
v 2.126576 -0.018006 -2.396982
vn -0.5368 0.1352 0.8328
vn 0.5387 0.1352 -0.8316
vn -0.5237 0.1535 -0.8379
vn 0.5386 0.1350 0.8317
vn 0.6735 -0.7294 0.1198
vn -0.7054 -0.6952 -0.1379
vn 0.6743 -0.7287 -0.1198
vn -0.6626 -0.7382 0.1264
vt -3.937008 3.937008
vt 3.937008 -3.937008
vt 3.937008 3.937008
vt -3.937008 -3.937008
vt 2.755906 -3.937008
vt -2.755906 3.937008
vt -2.755906 -3.937008
vt 2.755906 3.937008
vt 3.937008 0.000000
vt -2.755906 0.393701
vt -3.937008 0.000000
vt 2.755906 0.393701
vt -3.937008 0.000000
vt 3.937008 0.000000
vt -3.937008 -3.734974
vt 3.937008 -2.489982
vt -3.937008 -2.489982
vt 3.937008 -3.734974
s 1
usemtl border.069
f 3/1/1 2/2/2 1/3/3
f 2/2/2 3/1/1 4/4/4
f 7/5/5 6/6/6 5/7/7
f 6/6/6 7/5/5 8/8/8
f 4/9/4 5/10/7 2/11/2
f 5/10/7 4/9/4 7/12/5
f 6/12/6 3/13/1 1/14/3
f 3/13/1 6/12/6 8/10/8
usemtl wood.066
f 4/15/4 8/16/8 7/17/5
f 8/16/8 4/15/4 3/18/1
f 5/16/7 1/15/3 2/18/2
f 1/15/3 5/16/7 6/17/6
