# Blender 4.1.1
# www.blender.org
mtllib tree.049.mtl
o tree.049
v -8.806769 -0.282319 -14.246744
v -8.639945 -0.282319 -14.318388
v -8.926003 -0.282319 -14.294336
v -8.592354 -0.282319 -14.437621
v -8.997646 -0.282319 -14.461161
v -8.663998 -0.282319 -14.604446
v -8.950056 -0.282319 -14.580395
v -8.783232 -0.282319 -14.652038
v -8.717473 0.046402 -14.383889
v -8.800885 0.046402 -14.348068
v -8.860502 0.046402 -14.371863
v -8.693677 0.046402 -14.443507
v -8.729499 0.046402 -14.526918
v -8.789116 0.046402 -14.550714
v -8.872528 0.046402 -14.514893
v -8.896324 0.046402 -14.455276
v -8.787645 0.539521 -14.576045
v -8.891911 0.539521 -14.531268
v -8.921655 0.539521 -14.456747
v -8.698091 0.539521 -14.367515
v -8.802356 0.539521 -14.322737
v -8.713123 0.539521 -14.546301
v -8.668346 0.539521 -14.442036
v -8.876877 0.539521 -14.352481
v -8.695019 0.163768 -14.329029
v -8.766248 0.163768 -14.328108
v -8.645305 0.163768 -14.380047
v -8.646226 0.163768 -14.451276
v -8.817266 0.163768 -14.377823
v -8.697244 0.163768 -14.500991
v -8.818188 0.163768 -14.449051
v -8.768473 0.163768 -14.500070
v -8.674216 0.044485 -14.280589
v -8.596342 0.044485 -14.360503
v -8.785790 0.044485 -14.279145
v -8.865706 0.044485 -14.357019
v -8.597785 0.044485 -14.472078
v -8.867149 0.044485 -14.468594
v -8.677701 0.044485 -14.549953
v -8.789275 0.044485 -14.548510
v -9.069057 0.539521 -14.095240
v -9.247474 0.539521 -14.510692
v -8.958119 1.083027 -14.243756
v -9.063385 1.083027 -14.488875
v -8.349473 0.539521 -14.404266
v -8.620057 0.539521 -14.042027
v -8.533562 1.083027 -14.426083
v -8.693207 1.083027 -14.212361
v -8.527890 0.539521 -14.819717
v -8.638828 1.083027 -14.671201
v -8.903740 1.083027 -14.702597
v -8.976891 0.539521 -14.872931
v -8.695599 1.666943 -14.217929
v -8.954493 1.666943 -14.248611
v -8.774828 2.279410 -14.402419
v -8.834333 2.279410 -14.409472
v -8.822119 2.279410 -14.512540
v -8.857979 2.279410 -14.464531
v -8.901349 1.666943 -14.697029
v -9.057367 1.666943 -14.488162
v -8.642454 1.666943 -14.666347
v -8.539579 1.666943 -14.426797
v -8.762613 2.279410 -14.505486
v -8.738968 2.279410 -14.450426
v -8.503970 1.083027 -14.237493
v -8.841736 1.083027 -14.092438
v -8.663529 1.666943 -14.356679
v -8.818297 1.666943 -14.290214
v -8.460708 1.083027 -14.602533
v -8.643705 1.666943 -14.523945
v -9.136240 1.083027 -14.312425
v -8.953241 1.666943 -14.391014
v -9.092978 1.083027 -14.677465
v -8.933418 1.666943 -14.558279
v -8.755211 1.083027 -14.822520
v -8.778650 1.666943 -14.624744
v -9.237420 0.369968 -14.268972
v -9.296864 0.454744 -14.516544
v -9.098822 0.454744 -14.055393
v -8.498125 0.454744 -14.859565
v -8.742251 0.369968 -14.931870
v -8.996516 0.454744 -14.918631
v -9.181198 0.369968 -14.743365
v -8.600431 0.454744 -13.996326
v -8.854695 0.369968 -13.983088
v -8.359528 0.369968 -14.645985
v -8.300083 0.454744 -14.398414
v -8.415750 0.369968 -14.171593
v -8.566047 0.945179 -14.768638
v -8.423553 1.014103 -14.618489
v -8.750452 1.014103 -14.862675
v -8.471575 1.014103 -14.213294
v -8.645216 0.945179 -14.100612
v -8.846495 1.014103 -14.052283
v -9.184158 0.945179 -14.503188
v -9.125373 1.014103 -14.701664
v -9.173393 1.014103 -14.296469
v -8.951731 0.945179 -14.814345
v -9.030901 0.945179 -14.146320
v -8.412789 0.945179 -14.411770
v -8.625292 1.618061 -14.689322
v -8.766056 1.569178 -14.731014
v -8.912665 1.618061 -14.723380
v -9.019154 1.569178 -14.622320
v -9.085846 1.618061 -14.491536
v -8.511101 1.618061 -14.423421
v -8.577794 1.569178 -14.292637
v -8.684281 1.618061 -14.191577
v -9.051571 1.569178 -14.348785
v -8.971655 1.618061 -14.225636
v -8.545376 1.569178 -14.566172
v -8.830891 1.569178 -14.183944
vn -0.0000 -1.0000 -0.0000
vn 0.6806 0.2942 0.6709
vn 0.0080 0.2944 0.9556
vn 0.6875 0.2944 0.6638
vn 0.6807 0.2942 0.6709
vn 0.0179 0.2942 0.9556
vn -0.6709 0.2942 0.6807
vn 0.0079 0.2944 0.9556
vn 0.0178 0.2942 0.9556
vn -0.6638 0.2944 0.6875
vn 0.9556 0.2942 -0.0178
vn 0.9556 0.2944 -0.0079
vn 0.9556 0.2942 -0.0177
vn 0.6709 0.2942 -0.6806
vn 0.9556 0.2944 -0.0080
vn 0.6638 0.2944 -0.6875
vn 0.6709 0.2942 -0.6807
vn 0.9556 0.2942 -0.0179
vn -0.6875 0.2944 -0.6638
vn -0.0179 0.2942 -0.9556
vn -0.0080 0.2944 -0.9556
vn -0.6806 0.2942 -0.6709
vn -0.6709 0.2942 0.6806
vn -0.9556 0.2944 0.0080
vn -0.9556 0.2942 0.0179
vn -0.0079 0.2944 -0.9556
vn 0.6709 0.2943 -0.6807
vn -0.0178 0.2942 -0.9556
vn -0.9556 0.2942 0.0178
vn -0.6807 0.2942 -0.6709
vn -0.9556 0.2944 0.0079
vn -0.0139 -0.0513 -0.9986
vn -0.7158 -0.0512 -0.6964
vn -0.0121 -0.0513 -0.9986
vn -0.7158 -0.0513 -0.6964
vn -0.7146 -0.0513 -0.6977
vn -0.9986 -0.0512 0.0138
vn -0.7159 -0.0513 -0.6963
vn -0.7146 -0.0512 -0.6976
vn -0.9986 -0.0513 0.0138
vn -0.9986 -0.0512 0.0120
vn 0.0121 -0.0512 0.9986
vn 0.7146 -0.0513 0.6977
vn 0.7158 -0.0513 0.6964
vn 0.0139 -0.0513 0.9986
vn 0.6964 -0.0513 -0.7158
vn 0.9986 -0.0513 -0.0139
vn 0.6976 -0.0513 -0.7146
vn 0.6964 -0.0512 -0.7158
vn 0.9986 -0.0513 -0.0121
vn 0.0120 -0.0513 0.9986
vn -0.6976 -0.0513 0.7146
vn 0.0138 -0.0513 0.9986
vn -0.6963 -0.0513 0.7159
vn -0.0120 -0.0512 -0.9986
vn 0.6964 -0.0513 -0.7159
vn -0.0120 -0.0513 -0.9986
vn -0.0138 -0.0512 -0.9986
vn 0.7159 -0.0513 0.6963
vn 0.9986 -0.0513 -0.0138
vn 0.9986 -0.0512 -0.0120
vn 0.9986 -0.0512 -0.0138
vn 0.7146 -0.0512 0.6976
vn -0.6964 -0.0513 0.7158
vn -0.9986 -0.0513 0.0139
vn -0.6964 -0.0512 0.7158
vn -0.9986 -0.0513 0.0121
vn -0.0000 1.0000 -0.0000
vn 0.8495 0.4042 0.3391
vn 0.3609 0.4042 0.8404
vn 0.3610 0.4042 0.8404
vn -0.8405 0.4042 0.3609
vn -0.8495 0.4042 -0.3390
vn -0.8404 0.4042 0.3609
vn -0.8495 0.4043 -0.3390
vn -0.3609 0.4042 -0.8404
vn -0.8495 0.4042 -0.3391
vn -0.3609 0.4043 -0.8404
vn -0.3610 0.4042 -0.8404
vn 0.8405 0.4042 -0.3609
vn 0.8495 0.4042 0.3390
vn 0.8404 0.4042 -0.3609
vn 0.8495 0.4043 0.3390
vn -0.3391 0.4042 0.8495
vn -0.8404 0.4042 0.3610
vn -0.8404 0.4043 0.3609
vn 0.3391 0.4042 -0.8495
vn 0.8404 0.4042 -0.3610
vn -0.3390 0.4042 0.8495
vn 0.3609 0.4043 0.8404
vn -0.3390 0.4043 0.8495
vn -0.3609 0.4042 -0.8405
vn 0.3390 0.4042 -0.8495
vn -0.5664 0.3228 0.7583
vn -0.9399 0.3228 -0.1114
vn 0.9399 0.3228 0.1114
vn 0.3735 0.3228 0.8697
vn 0.5664 0.3228 -0.7583
vn -0.3735 0.3228 -0.8697
vn 0.2714 0.7260 0.6319
vn -0.5687 0.3115 0.7613
vn 0.3750 0.3115 0.8731
vn -0.4116 0.7260 0.5510
vn -0.3750 0.3115 -0.8731
vn -0.6830 0.7260 -0.0808
vn -0.2714 0.7260 -0.6319
vn -0.6829 0.7260 -0.0809
vn -0.9436 0.3115 -0.1119
vn 0.4115 0.7260 -0.5510
vn 0.9436 0.3115 0.1118
vn 0.5687 0.3115 -0.7613
vn 0.6829 0.7260 0.0810
vn 0.6829 0.7260 0.0809
vn 0.6830 0.7260 0.0809
vn 0.2713 0.7260 0.6319
vn 0.6830 0.7259 0.0810
vn -0.4116 0.7259 0.5510
vn 0.2714 0.7259 0.6320
vn -0.6830 0.7259 -0.0810
vn 0.4116 0.7259 -0.5510
vn -0.2714 0.7259 -0.6320
vn -0.3750 0.3116 -0.8731
vn 0.4116 0.7260 -0.5510
vn -0.3749 0.3115 -0.8731
vn -0.4115 0.7260 0.5510
vn -0.9436 0.3115 -0.1118
vn -0.6829 0.7260 -0.0810
vn 0.7583 0.3228 0.5664
vn -0.1114 0.3228 0.9399
vn 0.8697 0.3228 -0.3735
vn -0.8696 0.3228 0.3735
vn -0.8697 0.3228 0.3735
vn -0.7583 0.3228 -0.5664
vn 0.1114 0.3228 -0.9399
vn 0.8696 0.3228 -0.3735
vn -0.5162 0.5060 0.6910
vn -0.8565 0.5060 -0.1015
vn -0.8192 0.4530 0.3518
vn 0.8192 -0.4530 -0.3518
vn 0.8565 -0.5060 0.1015
vn 0.5162 -0.5060 -0.6910
vn 0.1049 0.4530 -0.8853
vn 0.5162 0.5061 -0.6910
vn 0.5162 0.5060 -0.6910
vn -0.3404 0.5060 -0.7925
vn -0.5162 -0.5060 0.6910
vn -0.1049 -0.4530 0.8853
vn 0.3404 -0.5060 0.7925
vn 0.3403 -0.5060 0.7925
vn -0.7143 0.4530 -0.5335
vn 0.7143 -0.4530 0.5335
vn 0.3403 0.5060 0.7925
vn -0.1049 0.4530 0.8853
vn 0.3404 0.5060 0.7925
vn -0.3404 -0.5060 -0.7925
vn 0.1049 -0.4530 -0.8853
vn -0.3403 -0.5060 -0.7925
vn 0.8565 0.5060 0.1015
vn 0.8192 0.4529 -0.3518
vn -0.8192 -0.4529 0.3518
vn -0.8565 -0.5060 -0.1015
vn 0.7143 0.4530 0.5335
vn -0.7143 -0.4530 -0.5335
vn 0.1015 0.5060 -0.8565
vn 0.7925 0.5060 -0.3403
vn 0.5335 0.4530 -0.7143
vn 0.7925 0.5060 -0.3404
vn -0.5335 -0.4530 0.7143
vn -0.7925 -0.5060 0.3404
vn -0.1015 -0.5060 0.8565
vn 0.6910 0.5060 0.5162
vn 0.3518 0.4530 0.8192
vn -0.1015 0.5060 0.8565
vn -0.6910 -0.5060 -0.5162
vn -0.3518 -0.4530 -0.8192
vn 0.1015 -0.5060 -0.8565
vn -0.7925 0.5060 0.3404
vn -0.6910 0.5060 -0.5162
vn -0.8853 0.4530 -0.1049
vn 0.8853 -0.4530 0.1049
vn 0.6910 -0.5060 0.5162
vn 0.7925 -0.5060 -0.3404
vn -0.3518 0.4530 -0.8192
vn 0.3518 -0.4530 0.8192
vn 0.6910 -0.5061 0.5162
vn -0.5335 0.4529 0.7143
vn -0.7926 0.5060 0.3404
vn 0.5335 -0.4529 -0.7143
vn 0.8853 0.4530 0.1049
vn -0.8853 -0.4530 -0.1049
vn -0.7925 -0.5060 0.3403
vn -0.3403 0.5060 -0.7925
vn 0.3403 -0.5061 0.7925
vn -0.3404 0.5060 -0.7926
vn -0.8566 0.5060 -0.1015
vn 0.7143 -0.4529 0.5335
vn 0.7142 0.4530 0.5336
vn 0.3403 0.5061 0.7925
vn 0.3404 0.5061 0.7925
vn -0.7142 -0.4530 -0.5336
vn 0.8192 -0.4529 -0.3518
vn 0.5162 -0.5061 -0.6910
vn -0.5162 0.5061 0.6910
vn -0.3403 -0.5061 -0.7925
vt 0.593750 0.025000
vt 0.593750 0.104996
vt 0.593750 0.225000
vt 0.093750 0.475000
vt 0.093750 0.275000
vt 0.093750 0.425000
vt 0.093750 0.348778
vt 0.093750 0.338765
vt 0.093750 0.344099
vt 0.093750 0.375000
vt 0.093750 0.325000
s 0
usemtl colormap.002
f 3/1/1 2/1/1 1/1/1
f 2/1/1 3/1/1 4/1/1
f 4/1/1 3/1/1 5/1/1
f 4/1/1 5/1/1 6/1/1
f 6/1/1 5/1/1 7/1/1
f 6/1/1 7/1/1 8/1/1
f 9/2/2 1/1/3 2/1/4
f 1/1/3 9/2/5 10/2/6
f 11/2/7 1/1/8 10/2/9
f 1/1/8 11/2/7 3/1/10
f 12/2/11 2/1/4 4/1/12
f 2/1/4 12/2/13 9/2/5
f 13/2/14 4/1/15 6/1/16
f 4/1/15 13/2/17 12/2/18
f 7/1/19 14/2/20 8/1/21
f 14/2/20 7/1/19 15/2/22
f 11/2/23 5/1/24 3/1/10
f 5/1/24 11/2/7 16/2/25
f 8/1/26 13/2/27 6/1/16
f 13/2/17 8/1/26 14/2/28
f 7/1/19 16/2/29 15/2/30
f 16/2/29 7/1/19 5/1/31
f 14/2/32 18/3/33 17/3/34
f 18/3/35 14/2/32 15/2/36
f 16/2/37 18/3/38 15/2/39
f 18/3/38 16/2/40 19/3/41
f 21/3/42 9/2/43 20/3/44
f 9/2/43 21/3/42 10/2/45
f 22/3/46 12/2/47 13/2/48
f 12/2/47 22/3/49 23/3/50
f 21/3/51 11/2/52 10/2/53
f 11/2/52 21/3/51 24/3/54
f 13/2/48 17/3/55 22/3/56
f 17/3/57 13/2/48 14/2/58
f 20/3/59 12/2/60 23/3/61
f 12/2/62 20/3/59 9/2/63
f 24/3/64 16/2/65 11/2/52
f 16/2/65 24/3/66 19/3/67
f 27/4/68 26/4/68 25/4/68
f 26/4/68 27/4/68 28/4/68
f 26/4/68 28/4/68 29/4/68
f 29/4/68 28/4/68 30/4/68
f 29/4/68 30/4/68 31/4/68
f 31/4/68 30/4/68 32/4/68
f 35/5/1 34/5/1 33/5/1
f 34/5/1 35/5/1 36/5/1
f 34/5/1 36/5/1 37/5/1
f 37/5/1 36/5/1 38/5/1
f 37/5/1 38/5/1 39/5/1
f 39/5/1 38/5/1 40/5/1
f 27/4/69 33/5/70 34/5/69
f 33/5/71 27/4/69 25/4/70
f 29/4/72 38/5/73 36/5/74
f 38/5/73 29/4/74 31/4/75
f 40/5/76 31/4/77 32/4/78
f 31/4/77 40/5/79 38/5/77
f 28/4/80 34/5/81 37/5/82
f 34/5/81 28/4/80 27/4/83
f 26/4/84 36/5/85 35/5/84
f 36/5/74 26/4/84 29/4/86
f 30/4/87 37/5/82 39/5/87
f 37/5/88 30/4/87 28/4/88
f 26/4/89 33/5/90 25/4/70
f 33/5/70 26/4/91 35/5/89
f 40/5/92 30/4/93 39/5/93
f 30/4/93 40/5/76 32/4/92
f 43/6/94 42/7/95 41/7/94
f 42/7/95 43/6/94 44/6/95
f 47/6/96 46/7/97 45/7/96
f 46/7/97 47/6/96 48/6/97
f 50/6/98 45/7/96 49/7/98
f 45/7/96 50/6/98 47/6/96
f 48/6/97 41/7/94 46/7/97
f 41/7/94 48/6/97 43/6/94
f 52/7/99 44/6/95 51/6/99
f 44/6/95 52/7/99 42/7/95
f 52/7/99 50/6/98 49/7/98
f 50/6/98 52/7/99 51/6/99
f 41/7/1 45/7/1 46/7/1
f 45/7/1 41/7/1 42/7/1
f 45/7/1 42/7/1 49/7/1
f 49/7/1 42/7/1 52/7/1
f 55/6/100 54/8/101 53/8/102
f 54/8/101 55/6/100 56/6/103
f 59/8/104 58/6/105 57/6/106
f 58/6/107 59/8/104 60/8/108
f 63/6/109 62/8/110 61/8/111
f 62/8/110 63/6/109 64/6/112
f 64/6/113 53/8/102 62/8/110
f 53/8/102 64/6/114 55/6/115
f 64/6/116 56/6/117 55/6/118
f 56/6/117 64/6/116 58/6/119
f 58/6/119 64/6/116 63/6/120
f 58/6/119 63/6/120 57/6/121
f 59/8/122 63/6/123 61/8/111
f 63/6/109 59/8/124 57/6/106
f 54/8/1 62/8/1 53/8/1
f 62/8/1 54/8/1 60/8/1
f 62/8/1 60/8/1 61/8/1
f 61/8/1 60/8/1 59/8/1
f 56/6/125 60/8/126 54/8/101
f 60/8/126 56/6/125 58/6/127
f 67/6/128 66/9/129 65/9/128
f 66/9/129 67/6/128 68/6/129
f 70/6/130 65/9/128 69/9/130
f 65/9/128 70/6/130 67/6/128
f 68/6/129 71/9/131 66/9/129
f 71/9/132 68/6/129 72/6/132
f 72/6/132 73/9/133 71/9/132
f 73/9/133 72/6/132 74/6/133
f 71/9/1 65/9/1 66/9/1
f 65/9/1 71/9/1 69/9/1
f 69/9/1 71/9/1 73/9/1
f 69/9/1 73/9/1 75/9/1
f 76/6/134 69/9/135 75/9/134
f 69/9/130 76/6/134 70/6/130
f 73/9/133 76/6/134 75/9/134
f 76/6/134 73/9/133 74/6/133
f 79/10/136 78/10/137 77/11/138
f 78/10/137 79/10/136 41/6/136
f 78/10/137 41/6/136 42/6/137
f 77/11/139 78/10/140 79/10/141
f 41/6/141 79/10/141 78/10/140
f 42/6/140 41/6/141 78/10/140
f 81/11/142 49/6/143 80/10/144
f 49/6/144 81/11/142 52/6/145
f 52/6/145 81/11/142 82/10/145
f 80/10/146 49/6/146 81/11/147
f 52/6/148 81/11/147 49/6/146
f 82/10/148 81/11/147 52/6/149
f 82/10/145 42/6/137 52/6/145
f 42/6/137 82/10/145 83/11/150
f 42/6/137 83/11/150 78/10/137
f 52/6/148 42/6/140 82/10/148
f 83/11/151 82/10/148 42/6/140
f 78/10/140 83/11/151 42/6/140
f 46/6/152 85/11/153 84/10/154
f 85/11/153 46/6/154 41/6/136
f 85/11/153 41/6/136 79/10/136
f 84/10/155 85/11/156 46/6/157
f 41/6/141 46/6/155 85/11/156
f 79/10/141 41/6/141 85/11/156
f 80/10/144 87/10/158 86/11/159
f 87/10/158 80/10/144 49/6/144
f 87/10/158 49/6/144 45/6/158
f 86/11/160 87/10/161 80/10/146
f 49/6/146 80/10/146 87/10/161
f 45/6/161 49/6/146 87/10/161
f 45/6/158 88/11/162 87/10/158
f 88/11/162 45/6/158 46/6/152
f 88/11/162 46/6/152 84/10/152
f 87/10/161 88/11/163 45/6/161
f 46/6/155 45/6/161 88/11/163
f 84/10/155 46/6/157 88/11/163
f 91/10/164 90/10/165 89/11/166
f 90/10/167 91/10/164 75/6/164
f 90/10/167 75/6/164 69/6/167
f 89/11/168 90/10/169 91/10/170
f 75/6/170 91/10/170 90/10/169
f 69/6/169 75/6/170 90/10/169
f 65/6/171 93/11/172 92/10/171
f 93/11/172 65/6/171 66/6/173
f 93/11/172 66/6/173 94/10/173
f 92/10/174 93/11/175 65/6/174
f 66/6/176 65/6/174 93/11/175
f 94/10/176 66/6/176 93/11/175
f 97/10/177 96/10/178 95/11/179
f 96/10/178 97/10/177 71/6/177
f 96/10/178 71/6/177 73/6/178
f 95/11/180 96/10/181 97/10/182
f 71/6/182 97/10/182 96/10/181
f 73/6/181 71/6/182 96/10/181
f 98/11/183 75/6/164 91/10/164
f 75/6/164 98/11/183 73/6/178
f 73/6/178 98/11/183 96/10/178
f 91/10/170 75/6/170 98/11/184
f 73/6/181 98/11/184 75/6/170
f 96/10/181 98/11/184 73/6/185
f 94/10/173 97/10/177 99/11/186
f 97/10/177 94/10/173 66/6/173
f 97/10/187 66/6/173 71/6/177
f 99/11/188 97/10/182 94/10/176
f 66/6/176 94/10/176 97/10/182
f 71/6/182 66/6/176 97/10/182
f 90/10/165 92/10/171 100/11/189
f 92/10/171 90/10/167 69/6/167
f 92/10/171 69/6/167 65/6/171
f 100/11/190 92/10/174 90/10/191
f 69/6/169 90/10/169 92/10/174
f 65/6/174 69/6/169 92/10/174
f 102/11/142 61/6/144 101/10/144
f 61/6/144 102/11/142 59/6/145
f 59/6/192 102/11/142 103/10/145
f 101/10/146 61/6/146 102/11/147
f 59/6/148 102/11/147 61/6/146
f 103/10/148 102/11/147 59/6/193
f 103/10/194 60/6/137 59/6/145
f 60/6/195 103/10/145 104/11/150
f 60/6/137 104/11/150 105/10/137
f 59/6/148 60/6/140 103/10/148
f 104/11/196 103/10/148 60/6/140
f 105/10/140 104/11/151 60/6/140
f 62/6/158 107/11/197 106/10/158
f 107/11/162 62/6/158 53/6/198
f 107/11/162 53/6/199 108/10/154
f 106/10/161 107/11/200 62/6/161
f 53/6/155 62/6/161 107/11/163
f 108/10/155 53/6/155 107/11/163
f 110/10/136 105/10/137 109/11/138
f 105/10/137 110/10/136 54/6/136
f 105/10/137 54/6/136 60/6/137
f 109/11/201 105/10/140 110/10/141
f 54/6/141 110/10/141 105/10/140
f 60/6/140 54/6/202 105/10/140
f 101/10/144 106/10/158 111/11/159
f 106/10/158 101/10/144 61/6/144
f 106/10/158 61/6/144 62/6/158
f 111/11/160 106/10/161 101/10/146
f 61/6/146 101/10/146 106/10/161
f 62/6/161 61/6/146 106/10/161
f 53/6/198 112/11/153 108/10/152
f 112/11/153 53/6/154 54/6/203
f 112/11/153 54/6/203 110/10/136
f 108/10/157 112/11/156 53/6/204
f 54/6/141 53/6/155 112/11/156
f 110/10/141 54/6/141 112/11/156
f 3/1/1 2/1/1 1/1/1
f 2/1/1 3/1/1 4/1/1
f 4/1/1 3/1/1 5/1/1
f 4/1/1 5/1/1 6/1/1
f 6/1/1 5/1/1 7/1/1
f 6/1/1 7/1/1 8/1/1
f 9/2/2 1/1/3 2/1/4
f 1/1/3 9/2/5 10/2/6
f 11/2/7 1/1/8 10/2/9
f 1/1/8 11/2/7 3/1/10
f 12/2/11 2/1/4 4/1/12
f 2/1/4 12/2/13 9/2/5
f 13/2/14 4/1/15 6/1/16
f 4/1/15 13/2/17 12/2/18
f 7/1/19 14/2/20 8/1/21
f 14/2/20 7/1/19 15/2/22
f 11/2/23 5/1/24 3/1/10
f 5/1/24 11/2/7 16/2/25
f 8/1/26 13/2/27 6/1/16
f 13/2/17 8/1/26 14/2/28
f 7/1/19 16/2/29 15/2/30
f 16/2/29 7/1/19 5/1/31
f 14/2/32 18/3/33 17/3/34
f 18/3/35 14/2/32 15/2/36
f 16/2/37 18/3/38 15/2/39
f 18/3/38 16/2/40 19/3/41
f 21/3/42 9/2/43 20/3/44
f 9/2/43 21/3/42 10/2/45
f 22/3/46 12/2/47 13/2/48
f 12/2/47 22/3/49 23/3/50
f 21/3/51 11/2/52 10/2/53
f 11/2/52 21/3/51 24/3/54
f 13/2/48 17/3/55 22/3/56
f 17/3/57 13/2/48 14/2/58
f 20/3/59 12/2/60 23/3/61
f 12/2/62 20/3/59 9/2/63
f 24/3/64 16/2/65 11/2/52
f 16/2/65 24/3/66 19/3/67
f 27/4/68 26/4/68 25/4/68
f 26/4/68 27/4/68 28/4/68
f 26/4/68 28/4/68 29/4/68
f 29/4/68 28/4/68 30/4/68
f 29/4/68 30/4/68 31/4/68
f 31/4/68 30/4/68 32/4/68
f 35/5/1 34/5/1 33/5/1
f 34/5/1 35/5/1 36/5/1
f 34/5/1 36/5/1 37/5/1
f 37/5/1 36/5/1 38/5/1
f 37/5/1 38/5/1 39/5/1
f 39/5/1 38/5/1 40/5/1
f 27/4/69 33/5/70 34/5/69
f 33/5/71 27/4/69 25/4/70
f 29/4/72 38/5/73 36/5/74
f 38/5/73 29/4/74 31/4/75
f 40/5/76 31/4/77 32/4/78
f 31/4/77 40/5/79 38/5/77
f 28/4/80 34/5/81 37/5/82
f 34/5/81 28/4/80 27/4/83
f 26/4/84 36/5/85 35/5/84
f 36/5/74 26/4/84 29/4/86
f 30/4/87 37/5/82 39/5/87
f 37/5/88 30/4/87 28/4/88
f 26/4/89 33/5/90 25/4/70
f 33/5/70 26/4/91 35/5/89
f 40/5/92 30/4/93 39/5/93
f 30/4/93 40/5/76 32/4/92
f 43/6/94 42/7/95 41/7/94
f 42/7/95 43/6/94 44/6/95
f 47/6/96 46/7/97 45/7/96
f 46/7/97 47/6/96 48/6/97
f 50/6/98 45/7/96 49/7/98
f 45/7/96 50/6/98 47/6/96
f 48/6/97 41/7/94 46/7/97
f 41/7/94 48/6/97 43/6/94
f 52/7/99 44/6/95 51/6/99
f 44/6/95 52/7/99 42/7/95
f 52/7/99 50/6/98 49/7/98
f 50/6/98 52/7/99 51/6/99
f 41/7/1 45/7/1 46/7/1
f 45/7/1 41/7/1 42/7/1
f 45/7/1 42/7/1 49/7/1
f 49/7/1 42/7/1 52/7/1
f 55/6/100 54/8/101 53/8/102
f 54/8/101 55/6/100 56/6/103
f 59/8/104 58/6/105 57/6/106
f 58/6/107 59/8/104 60/8/108
f 63/6/109 62/8/110 61/8/111
f 62/8/110 63/6/109 64/6/112
f 64/6/113 53/8/102 62/8/110
f 53/8/102 64/6/114 55/6/115
f 64/6/116 56/6/117 55/6/118
f 56/6/117 64/6/116 58/6/119
f 58/6/119 64/6/116 63/6/120
f 58/6/119 63/6/120 57/6/121
f 59/8/122 63/6/123 61/8/111
f 63/6/109 59/8/124 57/6/106
f 54/8/1 62/8/1 53/8/1
f 62/8/1 54/8/1 60/8/1
f 62/8/1 60/8/1 61/8/1
f 61/8/1 60/8/1 59/8/1
f 56/6/125 60/8/126 54/8/101
f 60/8/126 56/6/125 58/6/127
f 67/6/128 66/9/129 65/9/128
f 66/9/129 67/6/128 68/6/129
f 70/6/130 65/9/128 69/9/130
f 65/9/128 70/6/130 67/6/128
f 68/6/129 71/9/131 66/9/129
f 71/9/132 68/6/129 72/6/132
f 72/6/132 73/9/133 71/9/132
f 73/9/133 72/6/132 74/6/133
f 71/9/1 65/9/1 66/9/1
f 65/9/1 71/9/1 69/9/1
f 69/9/1 71/9/1 73/9/1
f 69/9/1 73/9/1 75/9/1
f 76/6/134 69/9/135 75/9/134
f 69/9/130 76/6/134 70/6/130
f 73/9/133 76/6/134 75/9/134
f 76/6/134 73/9/133 74/6/133
f 79/10/136 78/10/137 77/11/138
f 78/10/137 79/10/136 41/6/136
f 78/10/137 41/6/136 42/6/137
f 77/11/139 78/10/140 79/10/141
f 41/6/141 79/10/141 78/10/140
f 42/6/140 41/6/141 78/10/140
f 81/11/142 49/6/143 80/10/144
f 49/6/144 81/11/142 52/6/145
f 52/6/145 81/11/142 82/10/145
f 80/10/146 49/6/146 81/11/147
f 52/6/148 81/11/147 49/6/146
f 82/10/148 81/11/147 52/6/149
f 82/10/145 42/6/137 52/6/145
f 42/6/137 82/10/145 83/11/150
f 42/6/137 83/11/150 78/10/137
f 52/6/148 42/6/140 82/10/148
f 83/11/151 82/10/148 42/6/140
f 78/10/140 83/11/151 42/6/140
f 46/6/152 85/11/153 84/10/154
f 85/11/153 46/6/154 41/6/136
f 85/11/153 41/6/136 79/10/136
f 84/10/155 85/11/156 46/6/157
f 41/6/141 46/6/155 85/11/156
f 79/10/141 41/6/141 85/11/156
f 80/10/144 87/10/158 86/11/159
f 87/10/158 80/10/144 49/6/144
f 87/10/158 49/6/144 45/6/158
f 86/11/160 87/10/161 80/10/146
f 49/6/146 80/10/146 87/10/161
f 45/6/161 49/6/146 87/10/161
f 45/6/158 88/11/162 87/10/158
f 88/11/162 45/6/158 46/6/152
f 88/11/162 46/6/152 84/10/152
f 87/10/161 88/11/163 45/6/161
f 46/6/155 45/6/161 88/11/163
f 84/10/155 46/6/157 88/11/163
f 91/10/164 90/10/165 89/11/166
f 90/10/167 91/10/164 75/6/164
f 90/10/167 75/6/164 69/6/167
f 89/11/168 90/10/169 91/10/170
f 75/6/170 91/10/170 90/10/169
f 69/6/169 75/6/170 90/10/169
f 65/6/171 93/11/172 92/10/171
f 93/11/172 65/6/171 66/6/173
f 93/11/172 66/6/173 94/10/173
f 92/10/174 93/11/175 65/6/174
f 66/6/176 65/6/174 93/11/175
f 94/10/176 66/6/176 93/11/175
f 97/10/177 96/10/178 95/11/179
f 96/10/178 97/10/177 71/6/177
f 96/10/178 71/6/177 73/6/178
f 95/11/180 96/10/181 97/10/182
f 71/6/182 97/10/182 96/10/181
f 73/6/181 71/6/182 96/10/181
f 98/11/183 75/6/164 91/10/164
f 75/6/164 98/11/183 73/6/178
f 73/6/178 98/11/183 96/10/178
f 91/10/170 75/6/170 98/11/184
f 73/6/181 98/11/184 75/6/170
f 96/10/181 98/11/184 73/6/185
f 94/10/173 97/10/177 99/11/186
f 97/10/177 94/10/173 66/6/173
f 97/10/187 66/6/173 71/6/177
f 99/11/188 97/10/182 94/10/176
f 66/6/176 94/10/176 97/10/182
f 71/6/182 66/6/176 97/10/182
f 90/10/165 92/10/171 100/11/189
f 92/10/171 90/10/167 69/6/167
f 92/10/171 69/6/167 65/6/171
f 100/11/190 92/10/174 90/10/191
f 69/6/169 90/10/169 92/10/174
f 65/6/174 69/6/169 92/10/174
f 102/11/142 61/6/144 101/10/144
f 61/6/144 102/11/142 59/6/145
f 59/6/192 102/11/142 103/10/145
f 101/10/146 61/6/146 102/11/147
f 59/6/148 102/11/147 61/6/146
f 103/10/148 102/11/147 59/6/193
f 103/10/194 60/6/137 59/6/145
f 60/6/195 103/10/145 104/11/150
f 60/6/137 104/11/150 105/10/137
f 59/6/148 60/6/140 103/10/148
f 104/11/196 103/10/148 60/6/140
f 105/10/140 104/11/151 60/6/140
f 62/6/158 107/11/197 106/10/158
f 107/11/162 62/6/158 53/6/198
f 107/11/162 53/6/199 108/10/154
f 106/10/161 107/11/200 62/6/161
f 53/6/155 62/6/161 107/11/163
f 108/10/155 53/6/155 107/11/163
f 110/10/136 105/10/137 109/11/138
f 105/10/137 110/10/136 54/6/136
f 105/10/137 54/6/136 60/6/137
f 109/11/201 105/10/140 110/10/141
f 54/6/141 110/10/141 105/10/140
f 60/6/140 54/6/202 105/10/140
f 101/10/144 106/10/158 111/11/159
f 106/10/158 101/10/144 61/6/144
f 106/10/158 61/6/144 62/6/158
f 111/11/160 106/10/161 101/10/146
f 61/6/146 101/10/146 106/10/161
f 62/6/161 61/6/146 106/10/161
f 53/6/198 112/11/153 108/10/152
f 112/11/153 53/6/154 54/6/203
f 112/11/153 54/6/203 110/10/136
f 108/10/157 112/11/156 53/6/204
f 54/6/141 53/6/155 112/11/156
f 110/10/141 54/6/141 112/11/156
