# Blender 4.1.1
# www.blender.org
mtllib tree.058.mtl
o tree.058
v -10.445659 -4.675250 6.377526
v -10.272613 -4.675250 6.460886
v -10.490500 -4.675250 6.249323
v -10.144410 -4.675250 6.416043
v -10.407142 -4.675250 6.076278
v -10.061050 -4.675250 6.242997
v -10.278938 -4.675250 6.031435
v -10.105893 -4.675250 6.114795
v -10.274194 -4.327483 6.353523
v -10.360717 -4.327483 6.311843
v -10.383139 -4.327483 6.247742
v -10.210093 -4.327483 6.331102
v -10.168412 -4.327483 6.244578
v -10.190834 -4.327483 6.180478
v -10.277357 -4.327483 6.138798
v -10.341458 -4.327483 6.161219
v -10.169599 -3.805793 6.164057
v -10.277753 -3.805793 6.111957
v -10.357879 -3.805793 6.139984
v -10.273799 -3.805793 6.380364
v -10.381951 -3.805793 6.328264
v -10.141572 -3.805793 6.244184
v -10.193672 -3.805793 6.352337
v -10.409979 -3.805793 6.248137
v -10.302376 -4.203316 6.409547
v -10.352586 -4.203316 6.353348
v -10.227132 -4.203316 6.413782
v -10.170934 -4.203316 6.363571
v -10.348351 -4.203316 6.278105
v -10.166699 -4.203316 6.288328
v -10.292153 -4.203316 6.227894
v -10.216909 -4.203316 6.232129
v -10.326580 -4.329511 6.459793
v -10.208718 -4.329511 6.466426
v -10.405231 -4.329511 6.371762
v -10.398599 -4.329511 6.253900
v -10.120687 -4.329511 6.387775
v -10.310567 -4.329511 6.175249
v -10.114054 -4.329511 6.269913
v -10.192705 -4.329511 6.181882
v -10.748740 -3.805793 6.273461
v -10.541145 -3.805793 5.842516
v -10.553170 -3.230796 6.258829
v -10.430688 -3.230796 6.004570
v -10.002322 -3.805793 6.633026
v -10.479329 -3.805793 6.668715
v -10.112781 -3.230796 6.470973
v -10.394216 -3.230796 6.492030
v -9.794728 -3.805793 6.202082
v -9.990299 -3.230796 6.216714
v -10.149252 -3.230796 5.983512
v -10.064139 -3.805793 5.806827
v -10.391434 -2.613048 6.486255
v -10.546777 -2.613048 6.258350
v -10.299247 -1.965096 6.294884
v -10.334952 -1.965096 6.242501
v -10.244222 -1.965096 6.180658
v -10.307440 -1.965096 6.185388
v -10.152035 -2.613048 5.989288
v -10.427077 -2.613048 6.009867
v -9.996692 -2.613048 6.217192
v -10.116391 -2.613048 6.465675
v -10.208517 -1.965096 6.233041
v -10.236029 -1.965096 6.290154
v -10.242718 -3.230796 6.625581
v -10.593080 -3.230796 6.456805
v -10.258438 -2.613048 6.415470
v -10.418979 -2.613048 6.338135
v -9.921373 -3.230796 6.406547
v -10.111195 -2.613048 6.315106
v -10.622096 -3.230796 6.068995
v -10.432274 -2.613048 6.160436
v -10.300750 -3.230796 5.849961
v -10.285029 -2.613048 6.060072
v -9.950389 -3.230796 6.018737
v -10.124491 -2.613048 6.137408
v -10.727049 -3.985170 6.018437
v -10.570781 -3.895481 5.799039
v -10.801211 -3.895481 6.277387
v -9.742258 -3.895482 6.198156
v -9.854128 -3.985170 5.953124
v -10.041304 -3.895481 5.759423
v -10.309443 -3.985170 5.733790
v -10.502164 -3.895481 6.716120
v -10.689341 -3.985170 6.522418
v -9.816420 -3.985170 6.457106
v -9.972688 -3.895482 6.676504
v -10.234026 -3.985170 6.741752
v -9.861994 -3.376631 6.207114
v -9.882833 -3.303713 6.425113
v -9.915041 -3.303713 5.994644
v -10.239527 -3.303713 6.668241
v -10.450055 -3.376631 6.607946
v -10.628428 -3.303713 6.480899
v -10.503155 -3.376631 5.898253
v -10.303943 -3.303713 5.807302
v -10.660635 -3.303713 6.050430
v -10.093413 -3.376631 5.867597
v -10.681476 -3.376631 6.268429
v -10.040314 -3.376631 6.577289
v -9.966436 -2.664763 6.214929
v -10.030942 -2.716478 6.073643
v -10.138867 -2.664763 5.961955
v -10.293477 -2.716478 5.947175
v -10.444165 -2.664763 5.984797
v -10.099303 -2.664763 6.490745
v -10.249991 -2.716478 6.528368
v -10.404600 -2.664763 6.513588
v -10.534269 -2.716478 6.111303
v -10.577031 -2.664763 6.260613
v -10.009199 -2.716478 6.364240
v -10.512527 -2.716478 6.401899
vn -0.0000 -1.0000 -0.0000
vn -0.0592 0.2942 0.9539
vn -0.7156 0.2944 0.6335
vn -0.0493 0.2944 0.9544
vn -0.7090 0.2942 0.6409
vn -0.9539 0.2942 -0.0591
vn -0.7156 0.2944 0.6334
vn -0.7091 0.2942 0.6408
vn -0.9539 0.2943 -0.0591
vn -0.9544 0.2944 -0.0493
vn 0.6408 0.2942 0.7091
vn 0.6334 0.2944 0.7156
vn -0.0591 0.2942 0.9539
vn 0.9539 0.2942 0.0592
vn 0.6335 0.2944 0.7156
vn 0.9544 0.2944 0.0493
vn 0.6408 0.2942 0.7090
vn 0.0493 0.2944 -0.9544
vn 0.7090 0.2942 -0.6409
vn 0.7156 0.2944 -0.6335
vn 0.0592 0.2942 -0.9539
vn -0.9539 0.2942 -0.0592
vn -0.6335 0.2944 -0.7156
vn -0.6409 0.2942 -0.7090
vn 0.7156 0.2944 -0.6334
vn 0.9539 0.2943 0.0591
vn 0.9539 0.2942 0.0591
vn 0.7091 0.2942 -0.6408
vn -0.6408 0.2942 -0.7091
vn 0.0591 0.2942 -0.9539
vn -0.6334 0.2944 -0.7156
vn 0.7441 -0.0513 -0.6661
vn 0.0553 -0.0512 -0.9972
vn 0.7453 -0.0513 -0.6648
vn 0.0553 -0.0513 -0.9972
vn 0.0570 -0.0513 -0.9971
vn -0.6660 -0.0512 -0.7441
vn 0.0552 -0.0513 -0.9972
vn 0.0570 -0.0512 -0.9971
vn -0.6660 -0.0513 -0.7441
vn -0.6647 -0.0512 -0.7453
vn -0.7453 -0.0512 0.6648
vn -0.0571 -0.0513 0.9971
vn -0.0553 -0.0513 0.9972
vn -0.7441 -0.0513 0.6661
vn 0.9972 -0.0513 0.0553
vn 0.6661 -0.0513 0.7441
vn 0.9971 -0.0513 0.0571
vn 0.9972 -0.0512 0.0553
vn 0.6648 -0.0513 0.7453
vn -0.7453 -0.0513 0.6647
vn -0.9971 -0.0513 -0.0570
vn -0.7441 -0.0512 0.6661
vn -0.7453 -0.0512 0.6647
vn -0.9972 -0.0513 -0.0552
vn 0.9971 -0.0513 0.0570
vn 0.7453 -0.0512 -0.6647
vn 0.9972 -0.0513 0.0552
vn 0.7454 -0.0513 -0.6647
vn 0.7442 -0.0513 -0.6660
vn -0.0552 -0.0513 0.9972
vn 0.6660 -0.0513 0.7441
vn 0.6647 -0.0512 0.7453
vn 0.6660 -0.0512 0.7442
vn -0.0570 -0.0512 0.9971
vn -0.9972 -0.0513 -0.0553
vn -0.6661 -0.0513 -0.7441
vn -0.9971 -0.0513 -0.0571
vn -0.9972 -0.0512 -0.0553
vn -0.6648 -0.0513 -0.7453
vn -0.0000 1.0000 -0.0000
vn 0.3020 0.4042 0.8634
vn -0.3969 0.4042 0.8240
vn -0.3969 0.4042 0.8241
vn -0.8240 0.4042 -0.3970
vn -0.3020 0.4042 -0.8634
vn -0.3020 0.4043 -0.8633
vn 0.3969 0.4042 -0.8240
vn 0.3969 0.4043 -0.8240
vn 0.8240 0.4042 0.3970
vn 0.3020 0.4042 0.8633
vn -0.8634 0.4042 0.3020
vn -0.8240 0.4042 -0.3969
vn -0.8240 0.4043 -0.3969
vn 0.8634 0.4042 -0.3020
vn 0.8241 0.4042 0.3969
vn 0.8240 0.4042 0.3969
vn 0.8240 0.4043 0.3969
vn -0.3970 0.4043 0.8240
vn -0.3970 0.4042 0.8240
vn -0.8633 0.4042 0.3020
vn 0.3970 0.4042 -0.8240
vn 0.3970 0.4043 -0.8240
vn -0.9438 0.3228 0.0706
vn -0.5331 0.3228 -0.7821
vn 0.5331 0.3228 0.7821
vn -0.4108 0.3228 0.8527
vn -0.4107 0.3228 0.8527
vn 0.9438 0.3228 -0.0706
vn 0.4107 0.3228 -0.8527
vn 0.4108 0.3228 -0.8527
vn -0.2984 0.7260 0.6196
vn -0.9476 0.3115 0.0709
vn -0.4124 0.3115 0.8561
vn -0.6858 0.7260 0.0513
vn 0.4124 0.3115 -0.8561
vn -0.3874 0.7260 -0.5683
vn 0.2985 0.7260 -0.6196
vn -0.3874 0.7260 -0.5682
vn -0.5352 0.3115 -0.7852
vn 0.6858 0.7260 -0.0513
vn 0.5352 0.3115 0.7852
vn 0.9476 0.3115 -0.0709
vn 0.6858 0.7260 -0.0514
vn 0.3873 0.7260 0.5683
vn 0.3874 0.7260 0.5682
vn 0.3874 0.7260 0.5683
vn -0.2985 0.7260 0.6196
vn 0.3873 0.7259 0.5683
vn -0.6858 0.7259 0.0514
vn -0.2985 0.7259 0.6196
vn -0.6858 0.7259 0.0513
vn -0.3873 0.7259 -0.5683
vn 0.6858 0.7259 -0.0513
vn 0.2985 0.7259 -0.6196
vn 0.4124 0.3116 -0.8561
vn 0.2985 0.7260 -0.6195
vn -0.3873 0.7260 -0.5683
vn 0.0706 0.3228 0.9438
vn -0.7821 0.3228 0.5331
vn 0.8527 0.3228 0.4108
vn -0.8527 0.3228 -0.4107
vn -0.8527 0.3228 -0.4108
vn -0.0706 0.3228 -0.9438
vn 0.7821 0.3228 -0.5330
vn 0.8527 0.3228 0.4107
vn 0.7821 0.3228 -0.5331
vn -0.8601 0.5060 0.0644
vn -0.4858 0.5060 -0.7127
vn -0.8032 0.4530 -0.3869
vn 0.8032 -0.4530 0.3869
vn 0.4858 -0.5060 0.7127
vn 0.8601 -0.5060 -0.0644
vn 0.7367 0.4530 -0.5021
vn 0.8601 0.5060 -0.0643
vn 0.8601 0.5060 -0.0644
vn 0.3743 0.5060 -0.7771
vn -0.8601 -0.5060 0.0643
vn -0.7367 -0.4530 0.5021
vn -0.3743 -0.5060 0.7771
vn -0.8601 -0.5060 0.0644
vn -0.3743 -0.5060 0.7770
vn -0.0665 0.4530 -0.8890
vn 0.0665 -0.4530 0.8890
vn -0.3743 0.5060 0.7771
vn -0.7367 0.4530 0.5021
vn 0.3743 -0.5060 -0.7771
vn 0.7367 -0.4530 -0.5021
vn 0.4858 0.5060 0.7127
vn 0.8032 0.4530 0.3869
vn -0.8032 -0.4530 -0.3869
vn -0.4858 -0.5060 -0.7127
vn 0.0665 0.4530 0.8890
vn -0.3743 0.5060 0.7770
vn -0.3743 0.5061 0.7770
vn -0.0665 -0.4530 -0.8890
vn 0.7127 0.5060 -0.4858
vn 0.7771 0.5060 0.3743
vn 0.8890 0.4530 -0.0665
vn -0.8890 -0.4530 0.0665
vn -0.7771 -0.5060 -0.3743
vn -0.7127 -0.5060 0.4858
vn 0.0643 0.5060 0.8601
vn -0.3869 0.4530 0.8032
vn 0.0644 0.5060 0.8601
vn -0.7127 0.5060 0.4858
vn -0.0644 -0.5060 -0.8601
vn 0.3869 -0.4530 -0.8032
vn -0.0643 -0.5060 -0.8601
vn 0.7127 -0.5060 -0.4858
vn -0.7771 0.5060 -0.3743
vn -0.0644 0.5061 -0.8601
vn -0.5021 0.4530 -0.7367
vn -0.0644 0.5060 -0.8601
vn -0.0643 0.5060 -0.8601
vn 0.5021 -0.4530 0.7367
vn 0.0644 -0.5060 0.8601
vn 0.7771 -0.5060 0.3743
vn 0.7770 -0.5060 0.3743
vn 0.0643 -0.5060 0.8601
vn 0.3869 0.4530 -0.8032
vn 0.3869 0.4529 -0.8032
vn -0.3869 -0.4530 0.8032
vn -0.3869 -0.4529 0.8032
vn -0.7770 0.5060 -0.3743
vn -0.8890 0.4530 0.0665
vn 0.8890 -0.4530 -0.0665
vn 0.5021 0.4530 0.7367
vn -0.5021 -0.4530 -0.7367
vn 0.7367 0.4529 -0.5021
vn -0.7367 -0.4529 0.5021
vn -0.8601 0.5060 0.0643
vn 0.8032 0.4529 0.3869
vn -0.8032 -0.4529 -0.3869
vt 0.593750 0.025000
vt 0.593750 0.104996
vt 0.593750 0.225000
vt 0.093750 0.475000
vt 0.093750 0.275000
vt 0.093750 0.425000
vt 0.093750 0.348778
vt 0.093750 0.338765
vt 0.093750 0.344099
vt 0.093750 0.375000
vt 0.093750 0.325000
s 0
usemtl colormap.002
f 3/1/1 2/1/1 1/1/1
f 2/1/1 3/1/1 4/1/1
f 4/1/1 3/1/1 5/1/1
f 4/1/1 5/1/1 6/1/1
f 6/1/1 5/1/1 7/1/1
f 6/1/1 7/1/1 8/1/1
f 9/2/2 1/1/3 2/1/4
f 1/1/3 9/2/2 10/2/5
f 11/2/6 1/1/7 10/2/8
f 1/1/7 11/2/9 3/1/10
f 12/2/11 2/1/4 4/1/12
f 2/1/4 12/2/11 9/2/13
f 13/2/14 4/1/15 6/1/16
f 4/1/15 13/2/14 12/2/17
f 7/1/18 14/2/19 8/1/20
f 14/2/19 7/1/18 15/2/21
f 11/2/22 5/1/23 3/1/10
f 5/1/23 11/2/22 16/2/24
f 8/1/25 13/2/26 6/1/16
f 13/2/27 8/1/25 14/2/28
f 7/1/18 16/2/29 15/2/30
f 16/2/29 7/1/18 5/1/31
f 14/2/32 18/3/33 17/3/34
f 18/3/35 14/2/32 15/2/36
f 16/2/37 18/3/38 15/2/39
f 18/3/38 16/2/40 19/3/41
f 21/3/42 9/2/43 20/3/44
f 9/2/43 21/3/42 10/2/45
f 22/3/46 12/2/47 13/2/48
f 12/2/47 22/3/49 23/3/50
f 21/3/51 11/2/52 10/2/53
f 11/2/52 21/3/54 24/3/55
f 13/2/56 17/3/57 22/3/58
f 17/3/59 13/2/56 14/2/60
f 20/3/61 12/2/62 23/3/63
f 12/2/64 20/3/61 9/2/65
f 24/3/66 16/2/67 11/2/68
f 16/2/67 24/3/69 19/3/70
f 27/4/71 26/4/71 25/4/71
f 26/4/71 27/4/71 28/4/71
f 26/4/71 28/4/71 29/4/71
f 29/4/71 28/4/71 30/4/71
f 29/4/71 30/4/71 31/4/71
f 31/4/71 30/4/71 32/4/71
f 35/5/1 34/5/1 33/5/1
f 34/5/1 35/5/1 36/5/1
f 34/5/1 36/5/1 37/5/1
f 37/5/1 36/5/1 38/5/1
f 37/5/1 38/5/1 39/5/1
f 39/5/1 38/5/1 40/5/1
f 27/4/72 33/5/73 34/5/72
f 33/5/74 27/4/72 25/4/73
f 29/4/75 38/5/76 36/5/75
f 38/5/76 29/4/75 31/4/77
f 40/5/78 31/4/76 32/4/79
f 31/4/76 40/5/78 38/5/76
f 28/4/80 34/5/72 37/5/80
f 34/5/72 28/4/80 27/4/81
f 26/4/82 36/5/83 35/5/82
f 36/5/83 26/4/82 29/4/84
f 30/4/85 37/5/86 39/5/85
f 37/5/87 30/4/85 28/4/88
f 26/4/82 33/5/89 25/4/90
f 33/5/90 26/4/91 35/5/82
f 40/5/92 30/4/85 39/5/85
f 30/4/85 40/5/93 32/4/92
f 43/6/94 42/7/95 41/7/94
f 42/7/95 43/6/94 44/6/95
f 47/6/96 46/7/97 45/7/96
f 46/7/98 47/6/96 48/6/98
f 50/6/99 45/7/96 49/7/99
f 45/7/96 50/6/99 47/6/96
f 48/6/97 41/7/94 46/7/97
f 41/7/94 48/6/97 43/6/94
f 52/7/100 44/6/95 51/6/100
f 44/6/95 52/7/101 42/7/95
f 52/7/101 50/6/99 49/7/99
f 50/6/99 52/7/101 51/6/101
f 41/7/1 45/7/1 46/7/1
f 45/7/1 41/7/1 42/7/1
f 45/7/1 42/7/1 49/7/1
f 49/7/1 42/7/1 52/7/1
f 55/6/102 54/8/103 53/8/104
f 54/8/103 55/6/102 56/6/105
f 59/8/106 58/6/107 57/6/108
f 58/6/109 59/8/106 60/8/110
f 63/6/111 62/8/112 61/8/113
f 62/8/112 63/6/114 64/6/115
f 64/6/116 53/8/104 62/8/112
f 53/8/104 64/6/117 55/6/118
f 64/6/119 56/6/120 55/6/121
f 56/6/122 64/6/119 58/6/123
f 58/6/123 64/6/119 63/6/124
f 58/6/123 63/6/124 57/6/125
f 59/8/126 63/6/111 61/8/113
f 63/6/111 59/8/106 57/6/127
f 54/8/1 62/8/1 53/8/1
f 62/8/1 54/8/1 60/8/1
f 62/8/1 60/8/1 61/8/1
f 61/8/1 60/8/1 59/8/1
f 56/6/105 60/8/110 54/8/103
f 60/8/110 56/6/105 58/6/128
f 67/6/129 66/9/130 65/9/129
f 66/9/130 67/6/129 68/6/130
f 70/6/131 65/9/129 69/9/131
f 65/9/129 70/6/131 67/6/129
f 68/6/130 71/9/132 66/9/130
f 71/9/132 68/6/130 72/6/132
f 72/6/133 73/9/134 71/9/133
f 73/9/134 72/6/133 74/6/134
f 71/9/1 65/9/1 66/9/1
f 65/9/1 71/9/1 69/9/1
f 69/9/1 71/9/1 73/9/1
f 69/9/1 73/9/1 75/9/1
f 76/6/135 69/9/136 75/9/137
f 69/9/136 76/6/137 70/6/136
f 73/9/134 76/6/137 75/9/137
f 76/6/137 73/9/134 74/6/134
f 79/10/138 78/10/139 77/11/140
f 78/10/139 79/10/138 41/6/138
f 78/10/139 41/6/138 42/6/139
f 77/11/141 78/10/142 79/10/143
f 41/6/143 79/10/143 78/10/142
f 42/6/142 41/6/143 78/10/142
f 81/11/144 49/6/145 80/10/145
f 49/6/146 81/11/144 52/6/147
f 52/6/147 81/11/144 82/10/147
f 80/10/148 49/6/148 81/11/149
f 52/6/150 81/11/149 49/6/151
f 82/10/150 81/11/149 52/6/152
f 82/10/147 42/6/139 52/6/147
f 42/6/139 82/10/147 83/11/153
f 42/6/139 83/11/153 78/10/139
f 52/6/150 42/6/142 82/10/150
f 83/11/154 82/10/150 42/6/142
f 78/10/142 83/11/154 42/6/142
f 46/6/155 85/11/156 84/10/155
f 85/11/156 46/6/155 41/6/138
f 85/11/156 41/6/138 79/10/138
f 84/10/157 85/11/158 46/6/157
f 41/6/143 46/6/157 85/11/158
f 79/10/143 41/6/143 85/11/158
f 80/10/146 87/10/159 86/11/160
f 87/10/159 80/10/146 49/6/146
f 87/10/159 49/6/146 45/6/159
f 86/11/161 87/10/162 80/10/151
f 49/6/151 80/10/151 87/10/162
f 45/6/162 49/6/151 87/10/162
f 45/6/159 88/11/163 87/10/159
f 88/11/163 45/6/159 46/6/164
f 88/11/163 46/6/165 84/10/155
f 87/10/162 88/11/166 45/6/162
f 46/6/157 45/6/162 88/11/166
f 84/10/157 46/6/157 88/11/166
f 91/10/167 90/10/168 89/11/169
f 90/10/168 91/10/167 75/6/167
f 90/10/168 75/6/167 69/6/168
f 89/11/170 90/10/171 91/10/172
f 75/6/172 91/10/172 90/10/171
f 69/6/171 75/6/172 90/10/171
f 65/6/173 93/11/174 92/10/173
f 93/11/174 65/6/175 66/6/176
f 93/11/174 66/6/176 94/10/176
f 92/10/177 93/11/178 65/6/179
f 66/6/180 65/6/177 93/11/178
f 94/10/180 66/6/180 93/11/178
f 97/10/181 96/10/182 95/11/183
f 96/10/184 97/10/181 71/6/181
f 96/10/184 71/6/181 73/6/185
f 95/11/186 96/10/187 97/10/188
f 71/6/188 97/10/188 96/10/187
f 73/6/187 71/6/189 96/10/190
f 98/11/191 75/6/167 91/10/167
f 75/6/167 98/11/191 73/6/184
f 73/6/184 98/11/192 96/10/184
f 91/10/172 75/6/172 98/11/193
f 73/6/187 98/11/193 75/6/172
f 96/10/187 98/11/194 73/6/187
f 94/10/176 97/10/195 99/11/196
f 97/10/181 94/10/176 66/6/176
f 97/10/181 66/6/176 71/6/181
f 99/11/197 97/10/188 94/10/180
f 66/6/180 94/10/180 97/10/188
f 71/6/188 66/6/180 97/10/188
f 90/10/168 92/10/175 100/11/198
f 92/10/175 90/10/168 69/6/168
f 92/10/175 69/6/168 65/6/175
f 100/11/199 92/10/177 90/10/171
f 69/6/171 90/10/171 92/10/177
f 65/6/177 69/6/171 92/10/177
f 102/11/144 61/6/146 101/10/146
f 61/6/146 102/11/144 59/6/147
f 59/6/147 102/11/200 103/10/147
f 101/10/151 61/6/148 102/11/149
f 59/6/150 102/11/149 61/6/151
f 103/10/150 102/11/201 59/6/150
f 103/10/147 60/6/139 59/6/147
f 60/6/139 103/10/147 104/11/153
f 60/6/139 104/11/153 105/10/139
f 59/6/150 60/6/142 103/10/150
f 104/11/154 103/10/150 60/6/142
f 105/10/142 104/11/154 60/6/142
f 62/6/159 107/11/163 106/10/159
f 107/11/163 62/6/159 53/6/155
f 107/11/163 53/6/164 108/10/155
f 106/10/162 107/11/166 62/6/162
f 53/6/157 62/6/162 107/11/166
f 108/10/157 53/6/157 107/11/166
f 110/10/138 105/10/139 109/11/140
f 105/10/139 110/10/202 54/6/202
f 105/10/139 54/6/138 60/6/139
f 109/11/141 105/10/142 110/10/143
f 54/6/143 110/10/143 105/10/142
f 60/6/142 54/6/143 105/10/142
f 101/10/145 106/10/159 111/11/203
f 106/10/159 101/10/146 61/6/146
f 106/10/159 61/6/146 62/6/159
f 111/11/204 106/10/162 101/10/151
f 61/6/151 101/10/151 106/10/162
f 62/6/162 61/6/151 106/10/162
f 53/6/155 112/11/156 108/10/155
f 112/11/156 53/6/155 54/6/138
f 112/11/156 54/6/138 110/10/138
f 108/10/157 112/11/158 53/6/157
f 54/6/143 53/6/157 112/11/158
f 110/10/143 54/6/143 112/11/158
f 3/1/1 2/1/1 1/1/1
f 2/1/1 3/1/1 4/1/1
f 4/1/1 3/1/1 5/1/1
f 4/1/1 5/1/1 6/1/1
f 6/1/1 5/1/1 7/1/1
f 6/1/1 7/1/1 8/1/1
f 9/2/2 1/1/3 2/1/4
f 1/1/3 9/2/2 10/2/5
f 11/2/6 1/1/7 10/2/8
f 1/1/7 11/2/9 3/1/10
f 12/2/11 2/1/4 4/1/12
f 2/1/4 12/2/11 9/2/13
f 13/2/14 4/1/15 6/1/16
f 4/1/15 13/2/14 12/2/17
f 7/1/18 14/2/19 8/1/20
f 14/2/19 7/1/18 15/2/21
f 11/2/22 5/1/23 3/1/10
f 5/1/23 11/2/22 16/2/24
f 8/1/25 13/2/26 6/1/16
f 13/2/27 8/1/25 14/2/28
f 7/1/18 16/2/29 15/2/30
f 16/2/29 7/1/18 5/1/31
f 14/2/32 18/3/33 17/3/34
f 18/3/35 14/2/32 15/2/36
f 16/2/37 18/3/38 15/2/39
f 18/3/38 16/2/40 19/3/41
f 21/3/42 9/2/43 20/3/44
f 9/2/43 21/3/42 10/2/45
f 22/3/46 12/2/47 13/2/48
f 12/2/47 22/3/49 23/3/50
f 21/3/51 11/2/52 10/2/53
f 11/2/52 21/3/54 24/3/55
f 13/2/56 17/3/57 22/3/58
f 17/3/59 13/2/56 14/2/60
f 20/3/61 12/2/62 23/3/63
f 12/2/64 20/3/61 9/2/65
f 24/3/66 16/2/67 11/2/68
f 16/2/67 24/3/69 19/3/70
f 27/4/71 26/4/71 25/4/71
f 26/4/71 27/4/71 28/4/71
f 26/4/71 28/4/71 29/4/71
f 29/4/71 28/4/71 30/4/71
f 29/4/71 30/4/71 31/4/71
f 31/4/71 30/4/71 32/4/71
f 35/5/1 34/5/1 33/5/1
f 34/5/1 35/5/1 36/5/1
f 34/5/1 36/5/1 37/5/1
f 37/5/1 36/5/1 38/5/1
f 37/5/1 38/5/1 39/5/1
f 39/5/1 38/5/1 40/5/1
f 27/4/72 33/5/73 34/5/72
f 33/5/74 27/4/72 25/4/73
f 29/4/75 38/5/76 36/5/75
f 38/5/76 29/4/75 31/4/77
f 40/5/78 31/4/76 32/4/79
f 31/4/76 40/5/78 38/5/76
f 28/4/80 34/5/72 37/5/80
f 34/5/72 28/4/80 27/4/81
f 26/4/82 36/5/83 35/5/82
f 36/5/83 26/4/82 29/4/84
f 30/4/85 37/5/86 39/5/85
f 37/5/87 30/4/85 28/4/88
f 26/4/82 33/5/89 25/4/90
f 33/5/90 26/4/91 35/5/82
f 40/5/92 30/4/85 39/5/85
f 30/4/85 40/5/93 32/4/92
f 43/6/94 42/7/95 41/7/94
f 42/7/95 43/6/94 44/6/95
f 47/6/96 46/7/97 45/7/96
f 46/7/98 47/6/96 48/6/98
f 50/6/99 45/7/96 49/7/99
f 45/7/96 50/6/99 47/6/96
f 48/6/97 41/7/94 46/7/97
f 41/7/94 48/6/97 43/6/94
f 52/7/100 44/6/95 51/6/100
f 44/6/95 52/7/101 42/7/95
f 52/7/101 50/6/99 49/7/99
f 50/6/99 52/7/101 51/6/101
f 41/7/1 45/7/1 46/7/1
f 45/7/1 41/7/1 42/7/1
f 45/7/1 42/7/1 49/7/1
f 49/7/1 42/7/1 52/7/1
f 55/6/102 54/8/103 53/8/104
f 54/8/103 55/6/102 56/6/105
f 59/8/106 58/6/107 57/6/108
f 58/6/109 59/8/106 60/8/110
f 63/6/111 62/8/112 61/8/113
f 62/8/112 63/6/114 64/6/115
f 64/6/116 53/8/104 62/8/112
f 53/8/104 64/6/117 55/6/118
f 64/6/119 56/6/120 55/6/121
f 56/6/122 64/6/119 58/6/123
f 58/6/123 64/6/119 63/6/124
f 58/6/123 63/6/124 57/6/125
f 59/8/126 63/6/111 61/8/113
f 63/6/111 59/8/106 57/6/127
f 54/8/1 62/8/1 53/8/1
f 62/8/1 54/8/1 60/8/1
f 62/8/1 60/8/1 61/8/1
f 61/8/1 60/8/1 59/8/1
f 56/6/105 60/8/110 54/8/103
f 60/8/110 56/6/105 58/6/128
f 67/6/129 66/9/130 65/9/129
f 66/9/130 67/6/129 68/6/130
f 70/6/131 65/9/129 69/9/131
f 65/9/129 70/6/131 67/6/129
f 68/6/130 71/9/132 66/9/130
f 71/9/132 68/6/130 72/6/132
f 72/6/133 73/9/134 71/9/133
f 73/9/134 72/6/133 74/6/134
f 71/9/1 65/9/1 66/9/1
f 65/9/1 71/9/1 69/9/1
f 69/9/1 71/9/1 73/9/1
f 69/9/1 73/9/1 75/9/1
f 76/6/135 69/9/136 75/9/137
f 69/9/136 76/6/137 70/6/136
f 73/9/134 76/6/137 75/9/137
f 76/6/137 73/9/134 74/6/134
f 79/10/138 78/10/139 77/11/140
f 78/10/139 79/10/138 41/6/138
f 78/10/139 41/6/138 42/6/139
f 77/11/141 78/10/142 79/10/143
f 41/6/143 79/10/143 78/10/142
f 42/6/142 41/6/143 78/10/142
f 81/11/144 49/6/145 80/10/145
f 49/6/146 81/11/144 52/6/147
f 52/6/147 81/11/144 82/10/147
f 80/10/148 49/6/148 81/11/149
f 52/6/150 81/11/149 49/6/151
f 82/10/150 81/11/149 52/6/152
f 82/10/147 42/6/139 52/6/147
f 42/6/139 82/10/147 83/11/153
f 42/6/139 83/11/153 78/10/139
f 52/6/150 42/6/142 82/10/150
f 83/11/154 82/10/150 42/6/142
f 78/10/142 83/11/154 42/6/142
f 46/6/155 85/11/156 84/10/155
f 85/11/156 46/6/155 41/6/138
f 85/11/156 41/6/138 79/10/138
f 84/10/157 85/11/158 46/6/157
f 41/6/143 46/6/157 85/11/158
f 79/10/143 41/6/143 85/11/158
f 80/10/146 87/10/159 86/11/160
f 87/10/159 80/10/146 49/6/146
f 87/10/159 49/6/146 45/6/159
f 86/11/161 87/10/162 80/10/151
f 49/6/151 80/10/151 87/10/162
f 45/6/162 49/6/151 87/10/162
f 45/6/159 88/11/163 87/10/159
f 88/11/163 45/6/159 46/6/164
f 88/11/163 46/6/165 84/10/155
f 87/10/162 88/11/166 45/6/162
f 46/6/157 45/6/162 88/11/166
f 84/10/157 46/6/157 88/11/166
f 91/10/167 90/10/168 89/11/169
f 90/10/168 91/10/167 75/6/167
f 90/10/168 75/6/167 69/6/168
f 89/11/170 90/10/171 91/10/172
f 75/6/172 91/10/172 90/10/171
f 69/6/171 75/6/172 90/10/171
f 65/6/173 93/11/174 92/10/173
f 93/11/174 65/6/175 66/6/176
f 93/11/174 66/6/176 94/10/176
f 92/10/177 93/11/178 65/6/179
f 66/6/180 65/6/177 93/11/178
f 94/10/180 66/6/180 93/11/178
f 97/10/181 96/10/182 95/11/183
f 96/10/184 97/10/181 71/6/181
f 96/10/184 71/6/181 73/6/185
f 95/11/186 96/10/187 97/10/188
f 71/6/188 97/10/188 96/10/187
f 73/6/187 71/6/189 96/10/190
f 98/11/191 75/6/167 91/10/167
f 75/6/167 98/11/191 73/6/184
f 73/6/184 98/11/192 96/10/184
f 91/10/172 75/6/172 98/11/193
f 73/6/187 98/11/193 75/6/172
f 96/10/187 98/11/194 73/6/187
f 94/10/176 97/10/195 99/11/196
f 97/10/181 94/10/176 66/6/176
f 97/10/181 66/6/176 71/6/181
f 99/11/197 97/10/188 94/10/180
f 66/6/180 94/10/180 97/10/188
f 71/6/188 66/6/180 97/10/188
f 90/10/168 92/10/175 100/11/198
f 92/10/175 90/10/168 69/6/168
f 92/10/175 69/6/168 65/6/175
f 100/11/199 92/10/177 90/10/171
f 69/6/171 90/10/171 92/10/177
f 65/6/177 69/6/171 92/10/177
f 102/11/144 61/6/146 101/10/146
f 61/6/146 102/11/144 59/6/147
f 59/6/147 102/11/200 103/10/147
f 101/10/151 61/6/148 102/11/149
f 59/6/150 102/11/149 61/6/151
f 103/10/150 102/11/201 59/6/150
f 103/10/147 60/6/139 59/6/147
f 60/6/139 103/10/147 104/11/153
f 60/6/139 104/11/153 105/10/139
f 59/6/150 60/6/142 103/10/150
f 104/11/154 103/10/150 60/6/142
f 105/10/142 104/11/154 60/6/142
f 62/6/159 107/11/163 106/10/159
f 107/11/163 62/6/159 53/6/155
f 107/11/163 53/6/164 108/10/155
f 106/10/162 107/11/166 62/6/162
f 53/6/157 62/6/162 107/11/166
f 108/10/157 53/6/157 107/11/166
f 110/10/138 105/10/139 109/11/140
f 105/10/139 110/10/202 54/6/202
f 105/10/139 54/6/138 60/6/139
f 109/11/141 105/10/142 110/10/143
f 54/6/143 110/10/143 105/10/142
f 60/6/142 54/6/143 105/10/142
f 101/10/145 106/10/159 111/11/203
f 106/10/159 101/10/146 61/6/146
f 106/10/159 61/6/146 62/6/159
f 111/11/204 106/10/162 101/10/151
f 61/6/151 101/10/151 106/10/162
f 62/6/162 61/6/151 106/10/162
f 53/6/155 112/11/156 108/10/155
f 112/11/156 53/6/155 54/6/138
f 112/11/156 54/6/138 110/10/138
f 108/10/157 112/11/158 53/6/157
f 54/6/143 53/6/157 112/11/158
f 110/10/143 54/6/143 112/11/158
