# Blender 4.1.1
# www.blender.org
mtllib tree.012.mtl
o tree.012
v -23.152491 -0.382804 -11.097675
v -23.152491 -0.382804 -11.343855
v -23.275581 -0.382804 -10.974586
v -23.275581 -0.382804 -11.466945
v -23.521759 -0.382804 -10.974586
v -23.521759 -0.382804 -11.466945
v -23.644850 -0.382804 -11.097675
v -23.644850 -0.382804 -11.343855
v -23.275581 0.062918 -11.282310
v -23.275581 0.062918 -11.159221
v -23.337126 0.062918 -11.097675
v -23.337126 0.062918 -11.343855
v -23.460215 0.062918 -11.343855
v -23.521759 0.062918 -11.282310
v -23.521759 0.062918 -11.159221
v -23.460215 0.062918 -11.097675
v -23.552532 0.731552 -11.297696
v -23.552532 0.731552 -11.143834
v -23.475601 0.731552 -11.066903
v -23.244808 0.731552 -11.297696
v -23.244808 0.731552 -11.143834
v -23.475601 0.731552 -11.374627
v -23.321739 0.731552 -11.374627
v -23.321739 0.731552 -11.066903
v -23.195215 0.222058 -11.280931
v -23.232178 0.222058 -11.191694
v -23.232178 0.222058 -11.370169
v -23.321415 0.222058 -11.407131
v -23.321415 0.222058 -11.154732
v -23.410652 0.222058 -11.370169
v -23.410652 0.222058 -11.191694
v -23.447617 0.222058 -11.280931
v -23.123734 0.060318 -11.280931
v -23.181633 0.060318 -11.420713
v -23.181633 0.060318 -11.141150
v -23.321415 0.060318 -11.083249
v -23.321415 0.060318 -11.478613
v -23.461197 0.060318 -11.141150
v -23.461197 0.060318 -11.420713
v -23.519098 0.060318 -11.280931
v -23.104069 0.731552 -10.689829
v -23.717142 0.731552 -10.689829
v -23.229748 1.468507 -10.907511
v -23.591463 1.468507 -10.907511
v -23.104069 0.731552 -11.751701
v -22.797533 0.731552 -11.220765
v -23.229748 1.468507 -11.534020
v -23.048889 1.468507 -11.220765
v -23.717142 0.731552 -11.751701
v -23.591463 1.468507 -11.534020
v -23.772320 1.468507 -11.220765
v -24.023678 0.731552 -11.220765
v -23.057106 2.260255 -11.220765
v -23.233856 2.260255 -10.914626
v -23.329355 3.090716 -11.220765
v -23.369980 3.090716 -11.150400
v -23.491856 3.090716 -11.220765
v -23.451231 3.090716 -11.150400
v -23.764103 2.260255 -11.220765
v -23.587355 2.260255 -10.914626
v -23.587355 2.260255 -11.526904
v -23.233856 2.260255 -11.526904
v -23.451231 3.090716 -11.291130
v -23.369980 3.090716 -11.291130
v -22.978949 1.468507 -11.469982
v -22.978949 1.468507 -10.971549
v -23.212816 2.260255 -11.334959
v -23.212816 2.260255 -11.106571
v -23.410604 1.468507 -11.719198
v -23.410604 2.260255 -11.449153
v -23.410604 1.468507 -10.722332
v -23.410604 2.260255 -10.992377
v -23.842260 1.468507 -10.971549
v -23.608395 2.260255 -11.106571
v -23.842260 1.468507 -11.469982
v -23.608395 2.260255 -11.334959
v -23.410604 0.501649 -10.573023
v -23.750860 0.616601 -10.631426
v -23.070349 0.616601 -10.631426
v -23.750860 0.616601 -11.810104
v -23.971567 0.501649 -11.544637
v -24.091116 0.616601 -11.220765
v -23.971567 0.501649 -10.896894
v -22.730095 0.616601 -11.220765
v -22.849644 0.501649 -10.896894
v -23.410604 0.501649 -11.868507
v -23.070349 0.616601 -11.810104
v -22.849644 0.501649 -11.544637
v -23.673916 1.281595 -11.676831
v -23.410604 1.375051 -11.774026
v -23.889744 1.375051 -11.497396
v -22.931467 1.375051 -11.497396
v -22.883986 1.281595 -11.220765
v -22.931467 1.375051 -10.944135
v -23.673916 1.281595 -10.764699
v -23.889744 1.375051 -10.944135
v -23.410604 1.375051 -10.667504
v -23.937225 1.281595 -11.220765
v -23.147295 1.281595 -10.764699
v -23.147295 1.281595 -11.676831
v -23.606796 2.193974 -11.560579
v -23.734056 2.127692 -11.407510
v -23.802988 2.193974 -11.220765
v -23.734056 2.127692 -11.034020
v -23.606796 2.193974 -10.880951
v -23.214413 2.193974 -11.560579
v -23.087154 2.127692 -11.407510
v -23.018221 2.193974 -11.220765
v -23.410604 2.127692 -10.847276
v -23.214413 2.193974 -10.880951
v -23.410604 2.127692 -11.594254
v -23.087154 2.127692 -11.034020
vn -0.0000 -1.0000 -0.0000
vn 0.8851 0.2942 -0.3607
vn 0.8813 0.2944 0.3698
vn 0.8812 0.2944 -0.3698
vn 0.8812 0.2944 0.3698
vn 0.8851 0.2942 0.3607
vn 0.3607 0.2942 0.8850
vn 0.8850 0.2942 0.3608
vn 0.3698 0.2944 0.8812
vn 0.3607 0.2942 -0.8850
vn 0.3698 0.2944 -0.8812
vn 0.8850 0.2942 -0.3608
vn -0.3607 0.2942 -0.8851
vn -0.3698 0.2944 -0.8812
vn 0.3607 0.2942 -0.8851
vn -0.8813 0.2944 0.3698
vn -0.8851 0.2942 -0.3607
vn -0.8812 0.2944 -0.3698
vn -0.8851 0.2942 0.3607
vn 0.3607 0.2942 0.8851
vn -0.3698 0.2944 0.8813
vn -0.3698 0.2944 0.8812
vn -0.3607 0.2942 0.8851
vn -0.3607 0.2942 -0.8850
vn -0.3608 0.2942 -0.8850
vn -0.8850 0.2942 -0.3607
vn -0.8812 0.2945 0.3698
vn -0.3608 0.2942 0.8850
vn -0.8850 0.2942 0.3607
vn -0.3607 0.2942 0.8850
vn -0.8812 0.2944 0.3698
vn -0.9230 -0.0513 -0.3813
vn -0.9223 -0.0512 0.3829
vn -0.9223 -0.0513 -0.3829
vn -0.9223 -0.0513 0.3829
vn -0.9230 -0.0513 0.3813
vn -0.3814 -0.0513 0.9230
vn -0.9223 -0.0513 0.3830
vn -0.9230 -0.0512 0.3813
vn -0.3813 -0.0513 0.9230
vn -0.3830 -0.0512 0.9223
vn 0.9223 -0.0512 0.3829
vn 0.9230 -0.0513 -0.3813
vn 0.9223 -0.0513 -0.3829
vn 0.9230 -0.0513 0.3813
vn -0.3829 -0.0513 -0.9223
vn 0.3813 -0.0513 -0.9230
vn -0.3813 -0.0513 -0.9230
vn -0.3829 -0.0512 -0.9223
vn 0.3829 -0.0513 -0.9223
vn 0.9223 -0.0513 0.3830
vn 0.3814 -0.0513 0.9230
vn 0.3813 -0.0513 0.9230
vn 0.9223 -0.0512 0.3830
vn 0.3830 -0.0513 0.9223
vn -0.9223 -0.0512 -0.3830
vn -0.3830 -0.0513 -0.9223
vn -0.9223 -0.0513 -0.3830
vn -0.3814 -0.0513 -0.9230
vn 0.9223 -0.0513 -0.3830
vn 0.3830 -0.0512 -0.9223
vn 0.3814 -0.0512 -0.9230
vn 0.9230 -0.0512 -0.3813
vn 0.3829 -0.0513 0.9223
vn 0.3829 -0.0512 0.9223
vn -0.3829 -0.0513 0.9223
vn -0.0000 1.0000 -0.0000
vn 0.6468 0.4042 -0.6468
vn 0.9147 0.4042 -0.0000
vn 0.6468 0.4042 -0.6467
vn 0.9146 0.4043 -0.0000
vn -0.0000 0.4042 0.9147
vn -0.6468 0.4042 0.6468
vn -0.6467 0.4042 0.6468
vn -0.6467 0.4043 0.6468
vn -0.9147 0.4042 -0.0000
vn -0.9146 0.4043 -0.0000
vn -0.6468 0.4042 0.6467
vn -0.0000 0.4042 -0.9147
vn 0.6467 0.4042 -0.6468
vn 0.6468 0.4042 0.6468
vn 0.6467 0.4042 0.6468
vn -0.0000 0.4043 0.9146
vn -0.6468 0.4042 -0.6468
vn -0.6467 0.4042 -0.6468
vn -0.0000 0.4043 -0.9146
vn 0.6468 0.4042 0.6467
vn -0.6468 0.4042 -0.6467
vn 0.4732 0.3228 0.8197
vn -0.4732 0.3228 0.8197
vn 0.4732 0.3228 -0.8196
vn 0.9465 0.3228 -0.0000
vn 0.4732 0.3228 -0.8197
vn -0.4732 0.3228 -0.8197
vn 0.4733 0.3228 0.8197
vn -0.9465 0.3228 -0.0000
vn -0.4733 0.3228 0.8197
vn -0.4733 0.3228 -0.8197
vn 0.6877 0.7260 -0.0000
vn 0.4751 0.3115 0.8229
vn 0.9503 0.3115 -0.0000
vn 0.3438 0.7260 0.5956
vn -0.9502 0.3115 0.0001
vn -0.3438 0.7260 0.5956
vn -0.6877 0.7260 -0.0000
vn -0.9502 0.3115 -0.0000
vn -0.4752 0.3115 0.8229
vn -0.3439 0.7260 -0.5956
vn 0.4751 0.3115 -0.8229
vn -0.4751 0.3115 -0.8229
vn 0.3439 0.7260 -0.5956
vn 0.3438 0.7260 -0.5956
vn 0.9502 0.3115 -0.0000
vn 0.6877 0.7260 0.0001
vn 0.3439 0.7259 -0.5956
vn 0.3439 0.7259 0.5956
vn 0.6877 0.7259 -0.0000
vn -0.3439 0.7259 0.5956
vn -0.3439 0.7259 -0.5956
vn -0.6877 0.7259 -0.0000
vn -0.9502 0.3116 -0.0000
vn -0.3438 0.7260 -0.5956
vn -0.4752 0.3115 -0.8229
vn -0.9502 0.3115 -0.0001
vn 0.3439 0.7260 0.5956
vn -0.4751 0.3115 0.8229
vn -0.3439 0.7260 0.5956
vn 0.8197 0.3228 -0.4732
vn 0.8197 0.3228 0.4732
vn -0.0000 0.3228 -0.9465
vn 0.8196 0.3228 -0.4732
vn 0.8197 0.3228 -0.4733
vn 0.8196 0.3228 0.4732
vn -0.0000 0.3228 0.9465
vn 0.8197 0.3228 0.4733
vn -0.8197 0.3228 0.4732
vn -0.8196 0.3228 -0.4732
vn -0.8197 0.3228 -0.4732
vn 0.4313 0.5060 0.7470
vn -0.4313 0.5060 0.7470
vn -0.0000 0.4530 0.8915
vn -0.0000 -0.4530 -0.8915
vn 0.4313 -0.5060 -0.7470
vn -0.4313 -0.5060 -0.7470
vn -0.7721 0.4530 -0.4458
vn -0.4313 0.5060 -0.7470
vn -0.8625 0.5060 -0.0000
vn 0.4313 -0.5060 0.7470
vn 0.7721 -0.4530 0.4458
vn 0.8625 -0.5060 -0.0000
vn -0.7721 0.4530 0.4458
vn 0.7721 -0.4530 -0.4458
vn 0.4312 -0.5060 -0.7470
vn 0.8625 0.5060 -0.0000
vn 0.7721 0.4530 0.4458
vn 0.4313 0.5060 0.7469
vn 0.4313 0.5061 0.7469
vn -0.8625 -0.5060 -0.0000
vn -0.7721 -0.4530 -0.4458
vn 0.4313 0.5060 -0.7470
vn -0.0000 0.4530 -0.8915
vn -0.0000 -0.4530 0.8915
vn -0.4313 -0.5060 0.7470
vn 0.7721 0.4530 -0.4458
vn -0.7721 -0.4530 0.4458
vn -0.4313 -0.5060 0.7469
vn -0.7470 0.5060 -0.4313
vn -0.0000 0.5060 -0.8625
vn -0.4458 0.4530 -0.7721
vn -0.0000 0.5060 -0.8626
vn 0.4458 -0.4530 0.7721
vn -0.0000 -0.5060 0.8625
vn 0.7470 -0.5060 0.4313
vn 0.7470 0.5060 -0.4313
vn 0.8915 0.4530 -0.0000
vn 0.7470 0.5060 0.4313
vn -0.7470 -0.5060 0.4313
vn -0.8915 -0.4530 -0.0000
vn -0.7470 -0.5060 -0.4313
vn -0.0000 0.5060 0.8625
vn -0.7470 0.5060 0.4313
vn -0.4458 0.4530 0.7721
vn 0.4458 -0.4530 -0.7721
vn 0.7470 -0.5060 -0.4313
vn -0.0000 -0.5060 -0.8625
vn -0.0000 -0.5061 -0.8625
vn -0.8915 0.4530 -0.0000
vn 0.8915 -0.4530 -0.0000
vn 0.4458 0.4530 0.7721
vn -0.4458 -0.4530 -0.7721
vn 0.4458 0.4530 -0.7721
vn -0.4458 -0.4530 0.7721
vn -0.7721 0.4529 -0.4458
vn -0.4312 0.5060 -0.7470
vn 0.4312 -0.5060 0.7470
vn 0.7721 -0.4529 0.4458
vn -0.4312 0.5060 0.7470
vn 0.7721 -0.4529 -0.4458
vn 0.4312 0.5060 -0.7470
vn -0.4312 -0.5060 0.7470
vn 0.4312 0.5060 0.7470
vt 0.593750 0.025000
vt 0.593750 0.104996
vt 0.593750 0.225000
vt 0.093750 0.475000
vt 0.093750 0.275000
vt 0.093750 0.425000
vt 0.093750 0.348778
vt 0.093750 0.338765
vt 0.093750 0.344099
vt 0.093750 0.375000
vt 0.093750 0.325000
s 0
usemtl colormap.015
f 3/1/1 2/1/1 1/1/1
f 2/1/1 3/1/1 4/1/1
f 4/1/1 3/1/1 5/1/1
f 4/1/1 5/1/1 6/1/1
f 6/1/1 5/1/1 7/1/1
f 6/1/1 7/1/1 8/1/1
f 9/2/2 1/1/3 2/1/4
f 1/1/5 9/2/2 10/2/6
f 11/2/7 1/1/5 10/2/8
f 1/1/5 11/2/7 3/1/9
f 12/2/10 2/1/4 4/1/11
f 2/1/4 12/2/10 9/2/12
f 13/2/13 4/1/11 6/1/14
f 4/1/11 13/2/13 12/2/15
f 7/1/16 14/2/17 8/1/18
f 14/2/17 7/1/16 15/2/19
f 11/2/20 5/1/21 3/1/9
f 5/1/22 11/2/20 16/2/23
f 8/1/18 13/2/24 6/1/14
f 13/2/25 8/1/18 14/2/26
f 7/1/27 16/2/28 15/2/29
f 16/2/30 7/1/31 5/1/22
f 14/2/32 18/3/33 17/3/34
f 18/3/35 14/2/32 15/2/36
f 16/2/37 18/3/38 15/2/39
f 18/3/38 16/2/40 19/3/41
f 21/3/42 9/2/43 20/3/44
f 9/2/43 21/3/42 10/2/45
f 22/3/46 12/2/47 13/2/48
f 12/2/47 22/3/49 23/3/50
f 21/3/51 11/2/52 10/2/45
f 11/2/53 21/3/54 24/3/55
f 13/2/48 17/3/56 22/3/57
f 17/3/58 13/2/59 14/2/32
f 20/3/60 12/2/47 23/3/61
f 12/2/62 20/3/60 9/2/63
f 24/3/64 16/2/40 11/2/53
f 16/2/40 24/3/65 19/3/66
f 27/4/67 26/4/67 25/4/67
f 26/4/67 27/4/67 28/4/67
f 26/4/67 28/4/67 29/4/67
f 29/4/67 28/4/67 30/4/67
f 29/4/67 30/4/67 31/4/67
f 31/4/67 30/4/67 32/4/67
f 35/5/1 34/5/1 33/5/1
f 34/5/1 35/5/1 36/5/1
f 34/5/1 36/5/1 37/5/1
f 37/5/1 36/5/1 38/5/1
f 37/5/1 38/5/1 39/5/1
f 39/5/1 38/5/1 40/5/1
f 27/4/68 33/5/69 34/5/70
f 33/5/69 27/4/68 25/4/71
f 29/4/72 38/5/73 36/5/72
f 38/5/74 29/4/72 31/4/75
f 40/5/76 31/4/73 32/4/77
f 31/4/78 40/5/76 38/5/78
f 28/4/79 34/5/80 37/5/79
f 34/5/80 28/4/79 27/4/80
f 26/4/81 36/5/72 35/5/82
f 36/5/72 26/4/82 29/4/83
f 30/4/84 37/5/79 39/5/85
f 37/5/79 30/4/85 28/4/86
f 26/4/81 33/5/71 25/4/69
f 33/5/69 26/4/87 35/5/87
f 40/5/76 30/4/88 39/5/88
f 30/4/84 40/5/77 32/4/76
f 43/6/89 42/7/90 41/7/89
f 42/7/90 43/6/89 44/6/90
f 47/6/91 46/7/92 45/7/91
f 46/7/92 47/6/93 48/6/92
f 50/6/94 45/7/93 49/7/94
f 45/7/93 50/6/94 47/6/93
f 48/6/92 41/7/89 46/7/92
f 41/7/95 48/6/92 43/6/95
f 52/7/96 44/6/97 51/6/96
f 44/6/90 52/7/96 42/7/90
f 52/7/96 50/6/94 49/7/94
f 50/6/98 52/7/96 51/6/96
f 41/7/1 45/7/1 46/7/1
f 45/7/1 41/7/1 42/7/1
f 45/7/1 42/7/1 49/7/1
f 49/7/1 42/7/1 52/7/1
f 55/6/99 54/8/100 53/8/101
f 54/8/100 55/6/99 56/6/102
f 59/8/103 58/6/104 57/6/105
f 58/6/104 59/8/106 60/8/107
f 63/6/108 62/8/109 61/8/110
f 62/8/109 63/6/108 64/6/111
f 64/6/112 53/8/113 62/8/109
f 53/8/113 64/6/112 55/6/114
f 64/6/115 56/6/116 55/6/117
f 56/6/116 64/6/115 58/6/118
f 58/6/118 64/6/115 63/6/119
f 58/6/118 63/6/119 57/6/120
f 59/8/121 63/6/122 61/8/123
f 63/6/122 59/8/124 57/6/105
f 54/8/1 62/8/1 53/8/1
f 62/8/1 54/8/1 60/8/1
f 62/8/1 60/8/1 61/8/1
f 61/8/1 60/8/1 59/8/1
f 56/6/125 60/8/126 54/8/100
f 60/8/126 56/6/125 58/6/127
f 67/6/128 66/9/129 65/9/128
f 66/9/129 67/6/128 68/6/129
f 70/6/130 65/9/131 69/9/130
f 65/9/128 70/6/130 67/6/132
f 68/6/133 71/9/134 66/9/129
f 71/9/134 68/6/135 72/6/134
f 72/6/134 73/9/136 71/9/134
f 73/9/136 72/6/134 74/6/136
f 71/9/1 65/9/1 66/9/1
f 65/9/1 71/9/1 69/9/1
f 69/9/1 71/9/1 73/9/1
f 69/9/1 73/9/1 75/9/1
f 76/6/137 69/9/130 75/9/138
f 69/9/130 76/6/138 70/6/130
f 73/9/136 76/6/138 75/9/138
f 76/6/138 73/9/136 74/6/136
f 79/10/139 78/10/140 77/11/141
f 78/10/140 79/10/139 41/6/139
f 78/10/140 41/6/139 42/6/140
f 77/11/142 78/10/143 79/10/144
f 41/6/144 79/10/144 78/10/143
f 42/6/143 41/6/144 78/10/143
f 81/11/145 49/6/146 80/10/146
f 49/6/146 81/11/145 52/6/147
f 52/6/147 81/11/145 82/10/147
f 80/10/148 49/6/148 81/11/149
f 52/6/150 81/11/149 49/6/148
f 82/10/150 81/11/149 52/6/150
f 82/10/147 42/6/140 52/6/147
f 42/6/140 82/10/147 83/11/151
f 42/6/140 83/11/151 78/10/140
f 52/6/150 42/6/143 82/10/150
f 83/11/152 82/10/150 42/6/143
f 78/10/143 83/11/152 42/6/153
f 46/6/154 85/11/155 84/10/154
f 85/11/155 46/6/154 41/6/156
f 85/11/155 41/6/157 79/10/139
f 84/10/158 85/11/159 46/6/158
f 41/6/144 46/6/158 85/11/159
f 79/10/144 41/6/144 85/11/159
f 80/10/146 87/10/160 86/11/161
f 87/10/160 80/10/146 49/6/146
f 87/10/160 49/6/146 45/6/160
f 86/11/162 87/10/163 80/10/148
f 49/6/148 80/10/148 87/10/163
f 45/6/163 49/6/148 87/10/163
f 45/6/160 88/11/164 87/10/160
f 88/11/164 45/6/160 46/6/154
f 88/11/164 46/6/154 84/10/154
f 87/10/163 88/11/165 45/6/166
f 46/6/158 45/6/163 88/11/165
f 84/10/158 46/6/158 88/11/165
f 91/10/167 90/10/168 89/11/169
f 90/10/168 91/10/167 75/6/167
f 90/10/170 75/6/167 69/6/168
f 89/11/171 90/10/172 91/10/173
f 75/6/173 91/10/173 90/10/172
f 69/6/172 75/6/173 90/10/172
f 65/6/174 93/11/175 92/10/174
f 93/11/175 65/6/174 66/6/176
f 93/11/175 66/6/176 94/10/176
f 92/10/177 93/11/178 65/6/177
f 66/6/179 65/6/177 93/11/178
f 94/10/179 66/6/179 93/11/178
f 97/10/180 96/10/181 95/11/182
f 96/10/181 97/10/180 71/6/180
f 96/10/181 71/6/180 73/6/181
f 95/11/183 96/10/184 97/10/185
f 71/6/185 97/10/185 96/10/184
f 73/6/184 71/6/186 96/10/184
f 98/11/187 75/6/167 91/10/167
f 75/6/167 98/11/187 73/6/181
f 73/6/181 98/11/187 96/10/181
f 91/10/173 75/6/173 98/11/188
f 73/6/184 98/11/188 75/6/173
f 96/10/184 98/11/188 73/6/184
f 94/10/176 97/10/180 99/11/189
f 97/10/180 94/10/176 66/6/176
f 97/10/180 66/6/176 71/6/180
f 99/11/190 97/10/185 94/10/179
f 66/6/179 94/10/179 97/10/185
f 71/6/185 66/6/179 97/10/185
f 90/10/168 92/10/174 100/11/191
f 92/10/174 90/10/168 69/6/168
f 92/10/174 69/6/168 65/6/174
f 100/11/192 92/10/177 90/10/172
f 69/6/172 90/10/172 92/10/177
f 65/6/177 69/6/172 92/10/177
f 102/11/193 61/6/194 101/10/146
f 61/6/146 102/11/145 59/6/147
f 59/6/147 102/11/145 103/10/147
f 101/10/195 61/6/195 102/11/196
f 59/6/150 102/11/149 61/6/148
f 103/10/150 102/11/149 59/6/150
f 103/10/147 60/6/140 59/6/147
f 60/6/140 103/10/147 104/11/151
f 60/6/197 104/11/151 105/10/140
f 59/6/150 60/6/143 103/10/150
f 104/11/152 103/10/150 60/6/143
f 105/10/153 104/11/198 60/6/153
f 62/6/199 107/11/164 106/10/160
f 107/11/164 62/6/160 53/6/154
f 107/11/164 53/6/154 108/10/154
f 106/10/163 107/11/165 62/6/200
f 53/6/158 62/6/163 107/11/165
f 108/10/158 53/6/158 107/11/165
f 110/10/139 105/10/140 109/11/141
f 105/10/140 110/10/139 54/6/139
f 105/10/140 54/6/139 60/6/140
f 109/11/142 105/10/143 110/10/144
f 54/6/144 110/10/144 105/10/143
f 60/6/143 54/6/144 105/10/143
f 101/10/146 106/10/160 111/11/161
f 106/10/160 101/10/146 61/6/146
f 106/10/160 61/6/146 62/6/160
f 111/11/162 106/10/163 101/10/148
f 61/6/148 101/10/148 106/10/163
f 62/6/163 61/6/148 106/10/163
f 53/6/154 112/11/155 108/10/154
f 112/11/155 53/6/154 54/6/139
f 112/11/155 54/6/201 110/10/139
f 108/10/158 112/11/159 53/6/158
f 54/6/144 53/6/158 112/11/159
f 110/10/144 54/6/144 112/11/159
f 3/1/1 2/1/1 1/1/1
f 2/1/1 3/1/1 4/1/1
f 4/1/1 3/1/1 5/1/1
f 4/1/1 5/1/1 6/1/1
f 6/1/1 5/1/1 7/1/1
f 6/1/1 7/1/1 8/1/1
f 9/2/2 1/1/3 2/1/4
f 1/1/5 9/2/2 10/2/6
f 11/2/7 1/1/5 10/2/8
f 1/1/5 11/2/7 3/1/9
f 12/2/10 2/1/4 4/1/11
f 2/1/4 12/2/10 9/2/12
f 13/2/13 4/1/11 6/1/14
f 4/1/11 13/2/13 12/2/15
f 7/1/16 14/2/17 8/1/18
f 14/2/17 7/1/16 15/2/19
f 11/2/20 5/1/21 3/1/9
f 5/1/22 11/2/20 16/2/23
f 8/1/18 13/2/24 6/1/14
f 13/2/25 8/1/18 14/2/26
f 7/1/27 16/2/28 15/2/29
f 16/2/30 7/1/31 5/1/22
f 14/2/32 18/3/33 17/3/34
f 18/3/35 14/2/32 15/2/36
f 16/2/37 18/3/38 15/2/39
f 18/3/38 16/2/40 19/3/41
f 21/3/42 9/2/43 20/3/44
f 9/2/43 21/3/42 10/2/45
f 22/3/46 12/2/47 13/2/48
f 12/2/47 22/3/49 23/3/50
f 21/3/51 11/2/52 10/2/45
f 11/2/53 21/3/54 24/3/55
f 13/2/48 17/3/56 22/3/57
f 17/3/58 13/2/59 14/2/32
f 20/3/60 12/2/47 23/3/61
f 12/2/62 20/3/60 9/2/63
f 24/3/64 16/2/40 11/2/53
f 16/2/40 24/3/65 19/3/66
f 27/4/67 26/4/67 25/4/67
f 26/4/67 27/4/67 28/4/67
f 26/4/67 28/4/67 29/4/67
f 29/4/67 28/4/67 30/4/67
f 29/4/67 30/4/67 31/4/67
f 31/4/67 30/4/67 32/4/67
f 35/5/1 34/5/1 33/5/1
f 34/5/1 35/5/1 36/5/1
f 34/5/1 36/5/1 37/5/1
f 37/5/1 36/5/1 38/5/1
f 37/5/1 38/5/1 39/5/1
f 39/5/1 38/5/1 40/5/1
f 27/4/68 33/5/69 34/5/70
f 33/5/69 27/4/68 25/4/71
f 29/4/72 38/5/73 36/5/72
f 38/5/74 29/4/72 31/4/75
f 40/5/76 31/4/73 32/4/77
f 31/4/78 40/5/76 38/5/78
f 28/4/79 34/5/80 37/5/79
f 34/5/80 28/4/79 27/4/80
f 26/4/81 36/5/72 35/5/82
f 36/5/72 26/4/82 29/4/83
f 30/4/84 37/5/79 39/5/85
f 37/5/79 30/4/85 28/4/86
f 26/4/81 33/5/71 25/4/69
f 33/5/69 26/4/87 35/5/87
f 40/5/76 30/4/88 39/5/88
f 30/4/84 40/5/77 32/4/76
f 43/6/89 42/7/90 41/7/89
f 42/7/90 43/6/89 44/6/90
f 47/6/91 46/7/92 45/7/91
f 46/7/92 47/6/93 48/6/92
f 50/6/94 45/7/93 49/7/94
f 45/7/93 50/6/94 47/6/93
f 48/6/92 41/7/89 46/7/92
f 41/7/95 48/6/92 43/6/95
f 52/7/96 44/6/97 51/6/96
f 44/6/90 52/7/96 42/7/90
f 52/7/96 50/6/94 49/7/94
f 50/6/98 52/7/96 51/6/96
f 41/7/1 45/7/1 46/7/1
f 45/7/1 41/7/1 42/7/1
f 45/7/1 42/7/1 49/7/1
f 49/7/1 42/7/1 52/7/1
f 55/6/99 54/8/100 53/8/101
f 54/8/100 55/6/99 56/6/102
f 59/8/103 58/6/104 57/6/105
f 58/6/104 59/8/106 60/8/107
f 63/6/108 62/8/109 61/8/110
f 62/8/109 63/6/108 64/6/111
f 64/6/112 53/8/113 62/8/109
f 53/8/113 64/6/112 55/6/114
f 64/6/115 56/6/116 55/6/117
f 56/6/116 64/6/115 58/6/118
f 58/6/118 64/6/115 63/6/119
f 58/6/118 63/6/119 57/6/120
f 59/8/121 63/6/122 61/8/123
f 63/6/122 59/8/124 57/6/105
f 54/8/1 62/8/1 53/8/1
f 62/8/1 54/8/1 60/8/1
f 62/8/1 60/8/1 61/8/1
f 61/8/1 60/8/1 59/8/1
f 56/6/125 60/8/126 54/8/100
f 60/8/126 56/6/125 58/6/127
f 67/6/128 66/9/129 65/9/128
f 66/9/129 67/6/128 68/6/129
f 70/6/130 65/9/131 69/9/130
f 65/9/128 70/6/130 67/6/132
f 68/6/133 71/9/134 66/9/129
f 71/9/134 68/6/135 72/6/134
f 72/6/134 73/9/136 71/9/134
f 73/9/136 72/6/134 74/6/136
f 71/9/1 65/9/1 66/9/1
f 65/9/1 71/9/1 69/9/1
f 69/9/1 71/9/1 73/9/1
f 69/9/1 73/9/1 75/9/1
f 76/6/137 69/9/130 75/9/138
f 69/9/130 76/6/138 70/6/130
f 73/9/136 76/6/138 75/9/138
f 76/6/138 73/9/136 74/6/136
f 79/10/139 78/10/140 77/11/141
f 78/10/140 79/10/139 41/6/139
f 78/10/140 41/6/139 42/6/140
f 77/11/142 78/10/143 79/10/144
f 41/6/144 79/10/144 78/10/143
f 42/6/143 41/6/144 78/10/143
f 81/11/145 49/6/146 80/10/146
f 49/6/146 81/11/145 52/6/147
f 52/6/147 81/11/145 82/10/147
f 80/10/148 49/6/148 81/11/149
f 52/6/150 81/11/149 49/6/148
f 82/10/150 81/11/149 52/6/150
f 82/10/147 42/6/140 52/6/147
f 42/6/140 82/10/147 83/11/151
f 42/6/140 83/11/151 78/10/140
f 52/6/150 42/6/143 82/10/150
f 83/11/152 82/10/150 42/6/143
f 78/10/143 83/11/152 42/6/153
f 46/6/154 85/11/155 84/10/154
f 85/11/155 46/6/154 41/6/156
f 85/11/155 41/6/157 79/10/139
f 84/10/158 85/11/159 46/6/158
f 41/6/144 46/6/158 85/11/159
f 79/10/144 41/6/144 85/11/159
f 80/10/146 87/10/160 86/11/161
f 87/10/160 80/10/146 49/6/146
f 87/10/160 49/6/146 45/6/160
f 86/11/162 87/10/163 80/10/148
f 49/6/148 80/10/148 87/10/163
f 45/6/163 49/6/148 87/10/163
f 45/6/160 88/11/164 87/10/160
f 88/11/164 45/6/160 46/6/154
f 88/11/164 46/6/154 84/10/154
f 87/10/163 88/11/165 45/6/166
f 46/6/158 45/6/163 88/11/165
f 84/10/158 46/6/158 88/11/165
f 91/10/167 90/10/168 89/11/169
f 90/10/168 91/10/167 75/6/167
f 90/10/170 75/6/167 69/6/168
f 89/11/171 90/10/172 91/10/173
f 75/6/173 91/10/173 90/10/172
f 69/6/172 75/6/173 90/10/172
f 65/6/174 93/11/175 92/10/174
f 93/11/175 65/6/174 66/6/176
f 93/11/175 66/6/176 94/10/176
f 92/10/177 93/11/178 65/6/177
f 66/6/179 65/6/177 93/11/178
f 94/10/179 66/6/179 93/11/178
f 97/10/180 96/10/181 95/11/182
f 96/10/181 97/10/180 71/6/180
f 96/10/181 71/6/180 73/6/181
f 95/11/183 96/10/184 97/10/185
f 71/6/185 97/10/185 96/10/184
f 73/6/184 71/6/186 96/10/184
f 98/11/187 75/6/167 91/10/167
f 75/6/167 98/11/187 73/6/181
f 73/6/181 98/11/187 96/10/181
f 91/10/173 75/6/173 98/11/188
f 73/6/184 98/11/188 75/6/173
f 96/10/184 98/11/188 73/6/184
f 94/10/176 97/10/180 99/11/189
f 97/10/180 94/10/176 66/6/176
f 97/10/180 66/6/176 71/6/180
f 99/11/190 97/10/185 94/10/179
f 66/6/179 94/10/179 97/10/185
f 71/6/185 66/6/179 97/10/185
f 90/10/168 92/10/174 100/11/191
f 92/10/174 90/10/168 69/6/168
f 92/10/174 69/6/168 65/6/174
f 100/11/192 92/10/177 90/10/172
f 69/6/172 90/10/172 92/10/177
f 65/6/177 69/6/172 92/10/177
f 102/11/193 61/6/194 101/10/146
f 61/6/146 102/11/145 59/6/147
f 59/6/147 102/11/145 103/10/147
f 101/10/195 61/6/195 102/11/196
f 59/6/150 102/11/149 61/6/148
f 103/10/150 102/11/149 59/6/150
f 103/10/147 60/6/140 59/6/147
f 60/6/140 103/10/147 104/11/151
f 60/6/197 104/11/151 105/10/140
f 59/6/150 60/6/143 103/10/150
f 104/11/152 103/10/150 60/6/143
f 105/10/153 104/11/198 60/6/153
f 62/6/199 107/11/164 106/10/160
f 107/11/164 62/6/160 53/6/154
f 107/11/164 53/6/154 108/10/154
f 106/10/163 107/11/165 62/6/200
f 53/6/158 62/6/163 107/11/165
f 108/10/158 53/6/158 107/11/165
f 110/10/139 105/10/140 109/11/141
f 105/10/140 110/10/139 54/6/139
f 105/10/140 54/6/139 60/6/140
f 109/11/142 105/10/143 110/10/144
f 54/6/144 110/10/144 105/10/143
f 60/6/143 54/6/144 105/10/143
f 101/10/146 106/10/160 111/11/161
f 106/10/160 101/10/146 61/6/146
f 106/10/160 61/6/146 62/6/160
f 111/11/162 106/10/163 101/10/148
f 61/6/148 101/10/148 106/10/163
f 62/6/163 61/6/148 106/10/163
f 53/6/154 112/11/155 108/10/154
f 112/11/155 53/6/154 54/6/139
f 112/11/155 54/6/201 110/10/139
f 108/10/158 112/11/159 53/6/158
f 54/6/144 53/6/158 112/11/159
f 110/10/144 54/6/144 112/11/159
