# Blender 4.1.1
# www.blender.org
mtllib tree.020.mtl
o tree.020
v 2.082950 -0.282319 -14.528028
v 2.229093 -0.282319 -14.635756
v 1.956014 -0.282319 -14.547235
v 2.248300 -0.282319 -14.762691
v 1.848286 -0.282319 -14.693378
v 2.140572 -0.282319 -14.908834
v 1.867493 -0.282319 -14.820314
v 2.013636 -0.282319 -14.928043
v 2.138693 0.046402 -14.681896
v 2.065621 0.046402 -14.628032
v 2.002153 0.046402 -14.637635
v 2.148297 0.046402 -14.745364
v 2.094433 0.046402 -14.818435
v 2.030965 0.046402 -14.828038
v 1.957893 0.046402 -14.774174
v 1.948290 0.046402 -14.710706
v 2.026633 0.539521 -14.853039
v 1.935293 0.539521 -14.785710
v 1.923288 0.539521 -14.706375
v 2.161293 0.539521 -14.670360
v 2.069953 0.539521 -14.603031
v 2.105968 0.539521 -14.841035
v 2.173298 0.539521 -14.749695
v 1.990619 0.539521 -14.615035
v 2.173042 0.163768 -14.633584
v 2.103892 0.163768 -14.616477
v 2.209842 0.163768 -14.694577
v 2.192735 0.163768 -14.763726
v 2.042899 0.163768 -14.653277
v 2.131742 0.163768 -14.800528
v 2.025792 0.163768 -14.722426
v 2.062592 0.163768 -14.783420
v 2.204323 0.044485 -14.591148
v 2.261967 0.044485 -14.686690
v 2.096005 0.044485 -14.564352
v 2.000464 0.044485 -14.621996
v 2.235170 0.044485 -14.795008
v 1.973667 0.044485 -14.730314
v 2.139629 0.044485 -14.852653
v 2.031311 0.044485 -14.825855
v 1.862023 0.539521 -14.320808
v 1.593742 0.539521 -14.684756
v 1.936252 1.083027 -14.490674
v 1.777964 1.083027 -14.705404
v 2.492399 0.539521 -14.785483
v 2.311351 0.539521 -14.371172
v 2.308176 1.083027 -14.764835
v 2.201357 1.083027 -14.520389
v 2.224118 0.539521 -15.149432
v 2.149889 1.083027 -14.979567
v 1.884783 1.083027 -14.949851
v 1.774789 0.539521 -15.099068
v 2.197761 1.666943 -14.525268
v 1.938678 1.666943 -14.496226
v 2.078625 2.279410 -14.686886
v 2.019076 2.279410 -14.680211
v 2.007515 2.279410 -14.783354
v 1.983521 2.279410 -14.728446
v 1.888379 1.666943 -14.944974
v 1.783987 1.666943 -14.706079
v 2.147463 1.666943 -14.974013
v 2.302154 1.666943 -14.764160
v 2.067065 2.279410 -14.790029
v 2.102620 2.279410 -14.741796
v 2.379909 1.083027 -14.587928
v 2.084017 1.083027 -14.369813
v 2.197414 1.666943 -14.667675
v 2.061832 1.666943 -14.567732
v 2.338963 1.083027 -14.953235
v 2.178652 1.666943 -14.835063
v 1.747178 1.083027 -14.517006
v 1.907489 1.666943 -14.635178
v 1.706231 1.083027 -14.882314
v 1.888727 1.666943 -14.802567
v 2.002124 1.083027 -15.100428
v 2.024308 1.666943 -14.902508
v 1.658541 0.369968 -14.451667
v 1.544316 0.454744 -14.679216
v 1.842107 0.454744 -14.275233
v 2.244033 0.454744 -15.195007
v 1.989858 0.369968 -15.209859
v 1.745278 0.454744 -15.139102
v 1.605328 0.369968 -14.926407
v 2.340862 0.454744 -14.331138
v 2.096282 0.369968 -14.260382
v 2.427600 0.369968 -15.018572
v 2.541825 0.454744 -14.791024
v 2.480812 0.369968 -14.543834
v 2.198587 0.945179 -15.091007
v 2.371511 1.014103 -14.977227
v 1.997620 1.014103 -15.140613
v 2.416962 1.014103 -14.571735
v 2.273519 0.945179 -14.422494
v 2.088521 1.014103 -14.329628
v 1.657104 0.945179 -14.691858
v 1.669179 1.014103 -14.898504
v 1.714629 1.014103 -14.493012
v 1.812621 0.945179 -15.047746
v 1.887553 0.945179 -14.379231
v 2.429037 0.945179 -14.778382
v 2.158946 1.618061 -15.000291
v 2.012388 1.569178 -15.008855
v 1.871363 1.618061 -14.968058
v 1.790668 1.569178 -14.845416
v 1.755487 1.618061 -14.702885
v 2.330653 1.618061 -14.767354
v 2.295473 1.569178 -14.624825
v 2.214777 1.618061 -14.502184
v 1.821350 1.569178 -14.571680
v 1.927195 1.618061 -14.469949
v 2.264791 1.569178 -14.898559
v 2.073752 1.569178 -14.461385
vn -0.0000 -1.0000 -0.0000
vn 0.8155 0.2942 0.4984
vn 0.2253 0.2944 0.9288
vn 0.8205 0.2944 0.4900
vn 0.2253 0.2944 0.9287
vn 0.2349 0.2942 0.9264
vn -0.4983 0.2942 0.8155
vn 0.2252 0.2944 0.9288
vn 0.2348 0.2942 0.9265
vn -0.4899 0.2944 0.8206
vn 0.9265 0.2942 -0.2348
vn 0.8206 0.2944 0.4899
vn 0.9288 0.2944 -0.2252
vn 0.8205 0.2944 0.4899
vn 0.4984 0.2942 -0.8155
vn 0.9288 0.2944 -0.2253
vn 0.4900 0.2944 -0.8205
vn 0.9287 0.2944 -0.2253
vn 0.9264 0.2942 -0.2349
vn -0.8205 0.2944 -0.4900
vn -0.2349 0.2942 -0.9264
vn -0.2253 0.2944 -0.9288
vn -0.8155 0.2942 -0.4984
vn -0.4984 0.2942 0.8155
vn -0.9288 0.2944 0.2253
vn -0.4900 0.2944 0.8205
vn -0.9264 0.2942 0.2349
vn -0.2252 0.2944 -0.9288
vn 0.4984 0.2943 -0.8155
vn 0.4899 0.2944 -0.8205
vn 0.4983 0.2943 -0.8155
vn -0.2348 0.2942 -0.9265
vn -0.8205 0.2944 -0.4899
vn -0.9265 0.2942 0.2348
vn -0.8155 0.2942 -0.4983
vn -0.9264 0.2942 0.2348
vn -0.9288 0.2944 0.2252
vn -0.2407 -0.0513 -0.9692
vn -0.8555 -0.0512 -0.5152
vn -0.2390 -0.0513 -0.9697
vn -0.8555 -0.0513 -0.5152
vn -0.2408 -0.0513 -0.9692
vn -0.8546 -0.0513 -0.5167
vn -0.9692 -0.0512 0.2407
vn -0.8556 -0.0513 -0.5152
vn -0.8546 -0.0512 -0.5167
vn -0.9692 -0.0513 0.2407
vn -0.9697 -0.0512 0.2390
vn 0.2390 -0.0512 0.9697
vn 0.8546 -0.0513 0.5167
vn 0.8555 -0.0513 0.5152
vn 0.2408 -0.0513 0.9692
vn 0.5152 -0.0513 -0.8555
vn 0.9692 -0.0513 -0.2408
vn 0.5167 -0.0513 -0.8546
vn 0.9692 -0.0513 -0.2407
vn 0.5152 -0.0512 -0.8555
vn 0.9697 -0.0513 -0.2390
vn 0.2390 -0.0513 0.9697
vn -0.5167 -0.0513 0.8546
vn 0.2407 -0.0513 0.9692
vn -0.5152 -0.0513 0.8556
vn 0.5167 -0.0512 -0.8546
vn -0.2390 -0.0512 -0.9697
vn 0.5152 -0.0512 -0.8556
vn 0.8556 -0.0513 0.5152
vn 0.9697 -0.0512 -0.2390
vn 0.9692 -0.0512 -0.2407
vn 0.8546 -0.0512 0.5167
vn -0.5152 -0.0513 0.8555
vn -0.9692 -0.0513 0.2408
vn -0.5152 -0.0512 0.8555
vn -0.9697 -0.0513 0.2390
vn -0.0000 1.0000 -0.0000
vn 0.9044 0.4042 0.1369
vn 0.5427 0.4042 0.7362
vn 0.5427 0.4043 0.7362
vn -0.7363 0.4042 0.5427
vn -0.9044 0.4042 -0.1368
vn -0.9044 0.4043 -0.1368
vn -0.5427 0.4042 -0.7362
vn -0.9044 0.4042 -0.1369
vn -0.5427 0.4043 -0.7362
vn 0.7363 0.4042 -0.5427
vn 0.9044 0.4042 0.1368
vn 0.9044 0.4043 0.1368
vn -0.1369 0.4042 0.9044
vn -0.7362 0.4042 0.5427
vn -0.7362 0.4043 0.5427
vn 0.1369 0.4042 -0.9044
vn 0.7362 0.4042 -0.5427
vn -0.1368 0.4042 0.9044
vn 0.5427 0.4042 0.7363
vn -0.5427 0.4042 -0.7363
vn 0.1368 0.4042 -0.9044
vn -0.3790 0.3228 0.8673
vn -0.9406 0.3228 0.1054
vn 0.9406 0.3228 -0.1054
vn 0.5616 0.3228 0.7619
vn 0.5616 0.3228 0.7618
vn 0.3790 0.3228 -0.8673
vn -0.5616 0.3228 -0.7618
vn -0.5616 0.3228 -0.7619
vn 0.4081 0.7260 0.5536
vn -0.3805 0.3115 0.8707
vn 0.5638 0.3115 0.7649
vn -0.2754 0.7260 0.6302
vn -0.5638 0.3115 -0.7649
vn -0.6834 0.7260 0.0766
vn -0.4080 0.7260 -0.5536
vn -0.9443 0.3115 0.1058
vn 0.2753 0.7260 -0.6302
vn 0.9443 0.3115 -0.1059
vn 0.3805 0.3115 -0.8707
vn 0.6835 0.7260 -0.0766
vn 0.6834 0.7260 -0.0766
vn 0.9443 0.3115 -0.1058
vn 0.6835 0.7260 -0.0767
vn 0.4080 0.7260 0.5536
vn 0.6835 0.7259 -0.0766
vn -0.2754 0.7259 0.6302
vn 0.4081 0.7259 0.5536
vn -0.6835 0.7259 0.0766
vn 0.2754 0.7259 -0.6302
vn -0.4080 0.7259 -0.5536
vn -0.5638 0.3116 -0.7649
vn 0.2754 0.7260 -0.6302
vn 0.3805 0.3115 -0.8708
vn -0.4081 0.7260 -0.5536
vn -0.2753 0.7260 0.6302
vn -0.9443 0.3115 0.1059
vn 0.8673 0.3228 0.3790
vn 0.1054 0.3228 0.9406
vn 0.7618 0.3228 -0.5616
vn 0.7619 0.3228 -0.5616
vn -0.7618 0.3228 0.5616
vn -0.8673 0.3228 -0.3790
vn -0.7619 0.3228 0.5616
vn -0.1054 0.3228 -0.9406
vn -0.3454 0.5060 0.7904
vn -0.8571 0.5060 0.0961
vn -0.7176 0.4530 0.5290
vn -0.8572 0.5060 0.0961
vn 0.7176 -0.4530 -0.5290
vn 0.8572 -0.5060 -0.0961
vn 0.3454 -0.5060 -0.7904
vn -0.0993 0.4530 -0.8860
vn 0.3454 0.5060 -0.7903
vn 0.3454 0.5060 -0.7904
vn -0.5118 0.5060 -0.6943
vn -0.3454 -0.5060 0.7904
vn 0.0993 -0.4530 0.8860
vn 0.5118 -0.5060 0.6943
vn -0.8169 0.4530 -0.3570
vn 0.8571 -0.5060 -0.0961
vn 0.8169 -0.4530 0.3570
vn 0.5118 0.5060 0.6943
vn 0.0993 0.4530 0.8860
vn -0.3454 0.5060 0.7903
vn -0.5118 -0.5060 -0.6943
vn -0.0993 -0.4530 -0.8860
vn 0.8571 0.5060 -0.0961
vn 0.7176 0.4530 -0.5290
vn 0.8572 0.5060 -0.0961
vn -0.7176 -0.4530 0.5290
vn -0.8572 -0.5060 0.0961
vn -0.3454 -0.5060 0.7903
vn 0.8169 0.4530 0.3570
vn -0.8169 -0.4530 -0.3570
vn -0.8571 -0.5060 0.0961
vn -0.0961 0.5060 -0.8572
vn 0.6943 0.5060 -0.5118
vn 0.3570 0.4530 -0.8169
vn -0.0961 0.5060 -0.8571
vn -0.3570 -0.4529 0.8169
vn -0.6943 -0.5060 0.5118
vn 0.0961 -0.5060 0.8572
vn 0.0961 -0.5061 0.8571
vn 0.7903 0.5060 0.3454
vn 0.5290 0.4530 0.7176
vn 0.7904 0.5060 0.3454
vn 0.0961 0.5060 0.8571
vn 0.0961 0.5061 0.8571
vn 0.0961 0.5060 0.8572
vn -0.7903 -0.5060 -0.3454
vn -0.5290 -0.4530 -0.7176
vn -0.7903 -0.5061 -0.3454
vn -0.0961 -0.5060 -0.8572
vn -0.7904 -0.5060 -0.3454
vn -0.0961 -0.5060 -0.8571
vn -0.6943 0.5060 0.5118
vn -0.7903 0.5060 -0.3454
vn -0.8860 0.4530 0.0993
vn -0.7904 0.5060 -0.3454
vn 0.8860 -0.4530 -0.0993
vn 0.7904 -0.5060 0.3454
vn 0.6943 -0.5060 -0.5118
vn -0.5290 0.4530 -0.7176
vn -0.5290 0.4529 -0.7176
vn 0.5290 -0.4529 0.7176
vn 0.5290 -0.4530 0.7176
vn 0.7903 -0.5060 0.3454
vn -0.3570 0.4530 0.8169
vn 0.3570 -0.4529 -0.8169
vn 0.8860 0.4530 -0.0993
vn -0.8860 -0.4530 0.0993
vn -0.0993 0.4529 -0.8860
vn -0.5118 0.5061 -0.6942
vn 0.0993 -0.4529 0.8860
vn 0.5118 -0.5061 0.6943
vn 0.5118 0.5061 0.6943
vn -0.7176 0.4529 0.5290
vn 0.7176 -0.4529 -0.5290
vn 0.3454 -0.5060 -0.7903
vn 0.0993 0.4529 0.8860
vn -0.3454 0.5061 0.7903
vn -0.0993 -0.4529 -0.8860
vt 0.593750 0.025000
vt 0.593750 0.104996
vt 0.593750 0.225000
vt 0.093750 0.475000
vt 0.093750 0.275000
vt 0.093750 0.425000
vt 0.093750 0.348778
vt 0.093750 0.338765
vt 0.093750 0.344099
vt 0.093750 0.375000
vt 0.093750 0.325000
s 0
usemtl colormap.002
f 3/1/1 2/1/1 1/1/1
f 2/1/1 3/1/1 4/1/1
f 4/1/1 3/1/1 5/1/1
f 4/1/1 5/1/1 6/1/1
f 6/1/1 5/1/1 7/1/1
f 6/1/1 7/1/1 8/1/1
f 9/2/2 1/1/3 2/1/4
f 1/1/5 9/2/2 10/2/6
f 11/2/7 1/1/8 10/2/9
f 1/1/8 11/2/7 3/1/10
f 12/2/11 2/1/12 4/1/13
f 2/1/14 12/2/11 9/2/2
f 13/2/15 4/1/16 6/1/17
f 4/1/18 13/2/15 12/2/19
f 7/1/20 14/2/21 8/1/22
f 14/2/21 7/1/20 15/2/23
f 11/2/24 5/1/25 3/1/26
f 5/1/25 11/2/24 16/2/27
f 8/1/28 13/2/29 6/1/30
f 13/2/31 8/1/28 14/2/32
f 7/1/33 16/2/34 15/2/35
f 16/2/36 7/1/33 5/1/37
f 14/2/38 18/3/39 17/3/40
f 18/3/41 14/2/42 15/2/43
f 16/2/44 18/3/45 15/2/46
f 18/3/45 16/2/47 19/3/48
f 21/3/49 9/2/50 20/3/51
f 9/2/50 21/3/49 10/2/52
f 22/3/53 12/2/54 13/2/55
f 12/2/56 22/3/57 23/3/58
f 21/3/59 11/2/60 10/2/61
f 11/2/60 21/3/49 24/3/62
f 13/2/63 17/3/64 22/3/65
f 17/3/40 13/2/55 14/2/38
f 20/3/66 12/2/56 23/3/67
f 12/2/68 20/3/66 9/2/69
f 24/3/70 16/2/71 11/2/60
f 16/2/47 24/3/72 19/3/73
f 27/4/74 26/4/74 25/4/74
f 26/4/74 27/4/74 28/4/74
f 26/4/74 28/4/74 29/4/74
f 29/4/74 28/4/74 30/4/74
f 29/4/74 30/4/74 31/4/74
f 31/4/74 30/4/74 32/4/74
f 35/5/1 34/5/1 33/5/1
f 34/5/1 35/5/1 36/5/1
f 34/5/1 36/5/1 37/5/1
f 37/5/1 36/5/1 38/5/1
f 37/5/1 38/5/1 39/5/1
f 39/5/1 38/5/1 40/5/1
f 27/4/75 33/5/76 34/5/75
f 33/5/76 27/4/75 25/4/77
f 29/4/78 38/5/79 36/5/78
f 38/5/79 29/4/78 31/4/80
f 40/5/81 31/4/82 32/4/83
f 31/4/82 40/5/81 38/5/82
f 28/4/84 34/5/85 37/5/84
f 34/5/85 28/4/84 27/4/86
f 26/4/87 36/5/88 35/5/87
f 36/5/88 26/4/87 29/4/89
f 30/4/90 37/5/91 39/5/90
f 37/5/91 30/4/90 28/4/91
f 26/4/92 33/5/93 25/4/93
f 33/5/93 26/4/92 35/5/92
f 40/5/94 30/4/95 39/5/95
f 30/4/95 40/5/83 32/4/94
f 43/6/96 42/7/97 41/7/96
f 42/7/97 43/6/96 44/6/97
f 47/6/98 46/7/99 45/7/98
f 46/7/100 47/6/98 48/6/100
f 50/6/101 45/7/98 49/7/101
f 45/7/98 50/6/101 47/6/98
f 48/6/99 41/7/96 46/7/99
f 41/7/96 48/6/99 43/6/96
f 52/7/102 44/6/97 51/6/102
f 44/6/97 52/7/103 42/7/97
f 52/7/103 50/6/101 49/7/101
f 50/6/101 52/7/102 51/6/103
f 41/7/1 45/7/1 46/7/1
f 45/7/1 41/7/1 42/7/1
f 45/7/1 42/7/1 49/7/1
f 49/7/1 42/7/1 52/7/1
f 55/6/104 54/8/105 53/8/106
f 54/8/105 55/6/104 56/6/107
f 59/8/108 58/6/109 57/6/110
f 58/6/109 59/8/108 60/8/111
f 63/6/112 62/8/113 61/8/114
f 62/8/113 63/6/112 64/6/115
f 64/6/116 53/8/106 62/8/117
f 53/8/106 64/6/118 55/6/119
f 64/6/120 56/6/121 55/6/122
f 56/6/121 64/6/120 58/6/123
f 58/6/123 64/6/120 63/6/124
f 58/6/123 63/6/124 57/6/125
f 59/8/126 63/6/127 61/8/128
f 63/6/112 59/8/108 57/6/129
f 54/8/1 62/8/1 53/8/1
f 62/8/1 54/8/1 60/8/1
f 62/8/1 60/8/1 61/8/1
f 61/8/1 60/8/1 59/8/1
f 56/6/130 60/8/131 54/8/105
f 60/8/131 56/6/121 58/6/123
f 67/6/132 66/9/133 65/9/132
f 66/9/133 67/6/132 68/6/133
f 70/6/134 65/9/132 69/9/135
f 65/9/132 70/6/135 67/6/132
f 68/6/133 71/9/136 66/9/133
f 71/9/136 68/6/133 72/6/136
f 72/6/136 73/9/137 71/9/138
f 73/9/137 72/6/138 74/6/137
f 71/9/1 65/9/1 66/9/1
f 65/9/1 71/9/1 69/9/1
f 69/9/1 71/9/1 73/9/1
f 69/9/1 73/9/1 75/9/1
f 76/6/139 69/9/134 75/9/139
f 69/9/134 76/6/139 70/6/134
f 73/9/137 76/6/139 75/9/139
f 76/6/139 73/9/137 74/6/137
f 79/10/140 78/10/141 77/11/142
f 78/10/143 79/10/140 41/6/140
f 78/10/143 41/6/140 42/6/143
f 77/11/144 78/10/145 79/10/146
f 41/6/146 79/10/146 78/10/145
f 42/6/145 41/6/146 78/10/145
f 81/11/147 49/6/148 80/10/149
f 49/6/148 81/11/147 52/6/150
f 52/6/150 81/11/147 82/10/150
f 80/10/151 49/6/151 81/11/152
f 52/6/153 81/11/152 49/6/151
f 82/10/153 81/11/152 52/6/153
f 82/10/150 42/6/143 52/6/150
f 42/6/143 82/10/150 83/11/154
f 42/6/141 83/11/154 78/10/143
f 52/6/153 42/6/155 82/10/153
f 83/11/156 82/10/153 42/6/145
f 78/10/145 83/11/156 42/6/155
f 46/6/157 85/11/158 84/10/157
f 85/11/158 46/6/157 41/6/159
f 85/11/158 41/6/159 79/10/140
f 84/10/160 85/11/161 46/6/160
f 41/6/146 46/6/160 85/11/161
f 79/10/146 41/6/146 85/11/161
f 80/10/149 87/10/162 86/11/163
f 87/10/164 80/10/149 49/6/149
f 87/10/164 49/6/149 45/6/164
f 86/11/165 87/10/166 80/10/151
f 49/6/151 80/10/151 87/10/166
f 45/6/166 49/6/167 87/10/166
f 45/6/164 88/11/168 87/10/164
f 88/11/168 45/6/164 46/6/157
f 88/11/168 46/6/157 84/10/157
f 87/10/166 88/11/169 45/6/170
f 46/6/160 45/6/166 88/11/169
f 84/10/160 46/6/160 88/11/169
f 91/10/171 90/10/172 89/11/173
f 90/10/172 91/10/171 75/6/171
f 90/10/172 75/6/174 69/6/172
f 89/11/175 90/10/176 91/10/177
f 75/6/177 91/10/177 90/10/176
f 69/6/176 75/6/178 90/10/176
f 65/6/179 93/11/180 92/10/181
f 93/11/180 65/6/181 66/6/182
f 93/11/180 66/6/183 94/10/184
f 92/10/185 93/11/186 65/6/187
f 66/6/188 65/6/189 93/11/186
f 94/10/188 66/6/190 93/11/186
f 97/10/191 96/10/192 95/11/193
f 96/10/194 97/10/191 71/6/191
f 96/10/194 71/6/191 73/6/194
f 95/11/195 96/10/196 97/10/197
f 71/6/197 97/10/197 96/10/196
f 73/6/196 71/6/197 96/10/196
f 98/11/198 75/6/174 91/10/171
f 75/6/174 98/11/199 73/6/194
f 73/6/194 98/11/199 96/10/194
f 91/10/177 75/6/177 98/11/200
f 73/6/196 98/11/201 75/6/177
f 96/10/196 98/11/201 73/6/202
f 94/10/184 97/10/191 99/11/203
f 97/10/191 94/10/182 66/6/182
f 97/10/191 66/6/184 71/6/191
f 99/11/204 97/10/197 94/10/188
f 66/6/190 94/10/188 97/10/197
f 71/6/197 66/6/190 97/10/197
f 90/10/172 92/10/179 100/11/205
f 92/10/181 90/10/172 69/6/172
f 92/10/181 69/6/172 65/6/181
f 100/11/206 92/10/189 90/10/176
f 69/6/176 90/10/176 92/10/189
f 65/6/189 69/6/176 92/10/189
f 102/11/147 61/6/148 101/10/149
f 61/6/148 102/11/207 59/6/150
f 59/6/208 102/11/147 103/10/150
f 101/10/151 61/6/151 102/11/152
f 59/6/153 102/11/209 61/6/151
f 103/10/153 102/11/152 59/6/210
f 103/10/150 60/6/143 59/6/150
f 60/6/143 103/10/150 104/11/154
f 60/6/141 104/11/154 105/10/143
f 59/6/153 60/6/155 103/10/153
f 104/11/156 103/10/153 60/6/145
f 105/10/145 104/11/156 60/6/155
f 62/6/162 107/11/168 106/10/164
f 107/11/168 62/6/164 53/6/157
f 107/11/168 53/6/211 108/10/157
f 106/10/170 107/11/169 62/6/170
f 53/6/160 62/6/166 107/11/169
f 108/10/160 53/6/160 107/11/169
f 110/10/140 105/10/143 109/11/212
f 105/10/143 110/10/140 54/6/140
f 105/10/143 54/6/140 60/6/143
f 109/11/213 105/10/145 110/10/146
f 54/6/214 110/10/146 105/10/145
f 60/6/145 54/6/146 105/10/145
f 101/10/149 106/10/162 111/11/163
f 106/10/164 101/10/149 61/6/149
f 106/10/164 61/6/149 62/6/164
f 111/11/165 106/10/166 101/10/151
f 61/6/151 101/10/151 106/10/166
f 62/6/166 61/6/151 106/10/166
f 53/6/157 112/11/215 108/10/157
f 112/11/158 53/6/157 54/6/216
f 112/11/158 54/6/159 110/10/140
f 108/10/160 112/11/217 53/6/160
f 54/6/146 53/6/160 112/11/161
f 110/10/146 54/6/146 112/11/161
f 3/1/1 2/1/1 1/1/1
f 2/1/1 3/1/1 4/1/1
f 4/1/1 3/1/1 5/1/1
f 4/1/1 5/1/1 6/1/1
f 6/1/1 5/1/1 7/1/1
f 6/1/1 7/1/1 8/1/1
f 9/2/2 1/1/3 2/1/4
f 1/1/5 9/2/2 10/2/6
f 11/2/7 1/1/8 10/2/9
f 1/1/8 11/2/7 3/1/10
f 12/2/11 2/1/12 4/1/13
f 2/1/14 12/2/11 9/2/2
f 13/2/15 4/1/16 6/1/17
f 4/1/18 13/2/15 12/2/19
f 7/1/20 14/2/21 8/1/22
f 14/2/21 7/1/20 15/2/23
f 11/2/24 5/1/25 3/1/26
f 5/1/25 11/2/24 16/2/27
f 8/1/28 13/2/29 6/1/30
f 13/2/31 8/1/28 14/2/32
f 7/1/33 16/2/34 15/2/35
f 16/2/36 7/1/33 5/1/37
f 14/2/38 18/3/39 17/3/40
f 18/3/41 14/2/42 15/2/43
f 16/2/44 18/3/45 15/2/46
f 18/3/45 16/2/47 19/3/48
f 21/3/49 9/2/50 20/3/51
f 9/2/50 21/3/49 10/2/52
f 22/3/53 12/2/54 13/2/55
f 12/2/56 22/3/57 23/3/58
f 21/3/59 11/2/60 10/2/61
f 11/2/60 21/3/49 24/3/62
f 13/2/63 17/3/64 22/3/65
f 17/3/40 13/2/55 14/2/38
f 20/3/66 12/2/56 23/3/67
f 12/2/68 20/3/66 9/2/69
f 24/3/70 16/2/71 11/2/60
f 16/2/47 24/3/72 19/3/73
f 27/4/74 26/4/74 25/4/74
f 26/4/74 27/4/74 28/4/74
f 26/4/74 28/4/74 29/4/74
f 29/4/74 28/4/74 30/4/74
f 29/4/74 30/4/74 31/4/74
f 31/4/74 30/4/74 32/4/74
f 35/5/1 34/5/1 33/5/1
f 34/5/1 35/5/1 36/5/1
f 34/5/1 36/5/1 37/5/1
f 37/5/1 36/5/1 38/5/1
f 37/5/1 38/5/1 39/5/1
f 39/5/1 38/5/1 40/5/1
f 27/4/75 33/5/76 34/5/75
f 33/5/76 27/4/75 25/4/77
f 29/4/78 38/5/79 36/5/78
f 38/5/79 29/4/78 31/4/80
f 40/5/81 31/4/82 32/4/83
f 31/4/82 40/5/81 38/5/82
f 28/4/84 34/5/85 37/5/84
f 34/5/85 28/4/84 27/4/86
f 26/4/87 36/5/88 35/5/87
f 36/5/88 26/4/87 29/4/89
f 30/4/90 37/5/91 39/5/90
f 37/5/91 30/4/90 28/4/91
f 26/4/92 33/5/93 25/4/93
f 33/5/93 26/4/92 35/5/92
f 40/5/94 30/4/95 39/5/95
f 30/4/95 40/5/83 32/4/94
f 43/6/96 42/7/97 41/7/96
f 42/7/97 43/6/96 44/6/97
f 47/6/98 46/7/99 45/7/98
f 46/7/100 47/6/98 48/6/100
f 50/6/101 45/7/98 49/7/101
f 45/7/98 50/6/101 47/6/98
f 48/6/99 41/7/96 46/7/99
f 41/7/96 48/6/99 43/6/96
f 52/7/102 44/6/97 51/6/102
f 44/6/97 52/7/103 42/7/97
f 52/7/103 50/6/101 49/7/101
f 50/6/101 52/7/102 51/6/103
f 41/7/1 45/7/1 46/7/1
f 45/7/1 41/7/1 42/7/1
f 45/7/1 42/7/1 49/7/1
f 49/7/1 42/7/1 52/7/1
f 55/6/104 54/8/105 53/8/106
f 54/8/105 55/6/104 56/6/107
f 59/8/108 58/6/109 57/6/110
f 58/6/109 59/8/108 60/8/111
f 63/6/112 62/8/113 61/8/114
f 62/8/113 63/6/112 64/6/115
f 64/6/116 53/8/106 62/8/117
f 53/8/106 64/6/118 55/6/119
f 64/6/120 56/6/121 55/6/122
f 56/6/121 64/6/120 58/6/123
f 58/6/123 64/6/120 63/6/124
f 58/6/123 63/6/124 57/6/125
f 59/8/126 63/6/127 61/8/128
f 63/6/112 59/8/108 57/6/129
f 54/8/1 62/8/1 53/8/1
f 62/8/1 54/8/1 60/8/1
f 62/8/1 60/8/1 61/8/1
f 61/8/1 60/8/1 59/8/1
f 56/6/130 60/8/131 54/8/105
f 60/8/131 56/6/121 58/6/123
f 67/6/132 66/9/133 65/9/132
f 66/9/133 67/6/132 68/6/133
f 70/6/134 65/9/132 69/9/135
f 65/9/132 70/6/135 67/6/132
f 68/6/133 71/9/136 66/9/133
f 71/9/136 68/6/133 72/6/136
f 72/6/136 73/9/137 71/9/138
f 73/9/137 72/6/138 74/6/137
f 71/9/1 65/9/1 66/9/1
f 65/9/1 71/9/1 69/9/1
f 69/9/1 71/9/1 73/9/1
f 69/9/1 73/9/1 75/9/1
f 76/6/139 69/9/134 75/9/139
f 69/9/134 76/6/139 70/6/134
f 73/9/137 76/6/139 75/9/139
f 76/6/139 73/9/137 74/6/137
f 79/10/140 78/10/141 77/11/142
f 78/10/143 79/10/140 41/6/140
f 78/10/143 41/6/140 42/6/143
f 77/11/144 78/10/145 79/10/146
f 41/6/146 79/10/146 78/10/145
f 42/6/145 41/6/146 78/10/145
f 81/11/147 49/6/148 80/10/149
f 49/6/148 81/11/147 52/6/150
f 52/6/150 81/11/147 82/10/150
f 80/10/151 49/6/151 81/11/152
f 52/6/153 81/11/152 49/6/151
f 82/10/153 81/11/152 52/6/153
f 82/10/150 42/6/143 52/6/150
f 42/6/143 82/10/150 83/11/154
f 42/6/141 83/11/154 78/10/143
f 52/6/153 42/6/155 82/10/153
f 83/11/156 82/10/153 42/6/145
f 78/10/145 83/11/156 42/6/155
f 46/6/157 85/11/158 84/10/157
f 85/11/158 46/6/157 41/6/159
f 85/11/158 41/6/159 79/10/140
f 84/10/160 85/11/161 46/6/160
f 41/6/146 46/6/160 85/11/161
f 79/10/146 41/6/146 85/11/161
f 80/10/149 87/10/162 86/11/163
f 87/10/164 80/10/149 49/6/149
f 87/10/164 49/6/149 45/6/164
f 86/11/165 87/10/166 80/10/151
f 49/6/151 80/10/151 87/10/166
f 45/6/166 49/6/167 87/10/166
f 45/6/164 88/11/168 87/10/164
f 88/11/168 45/6/164 46/6/157
f 88/11/168 46/6/157 84/10/157
f 87/10/166 88/11/169 45/6/170
f 46/6/160 45/6/166 88/11/169
f 84/10/160 46/6/160 88/11/169
f 91/10/171 90/10/172 89/11/173
f 90/10/172 91/10/171 75/6/171
f 90/10/172 75/6/174 69/6/172
f 89/11/175 90/10/176 91/10/177
f 75/6/177 91/10/177 90/10/176
f 69/6/176 75/6/178 90/10/176
f 65/6/179 93/11/180 92/10/181
f 93/11/180 65/6/181 66/6/182
f 93/11/180 66/6/183 94/10/184
f 92/10/185 93/11/186 65/6/187
f 66/6/188 65/6/189 93/11/186
f 94/10/188 66/6/190 93/11/186
f 97/10/191 96/10/192 95/11/193
f 96/10/194 97/10/191 71/6/191
f 96/10/194 71/6/191 73/6/194
f 95/11/195 96/10/196 97/10/197
f 71/6/197 97/10/197 96/10/196
f 73/6/196 71/6/197 96/10/196
f 98/11/198 75/6/174 91/10/171
f 75/6/174 98/11/199 73/6/194
f 73/6/194 98/11/199 96/10/194
f 91/10/177 75/6/177 98/11/200
f 73/6/196 98/11/201 75/6/177
f 96/10/196 98/11/201 73/6/202
f 94/10/184 97/10/191 99/11/203
f 97/10/191 94/10/182 66/6/182
f 97/10/191 66/6/184 71/6/191
f 99/11/204 97/10/197 94/10/188
f 66/6/190 94/10/188 97/10/197
f 71/6/197 66/6/190 97/10/197
f 90/10/172 92/10/179 100/11/205
f 92/10/181 90/10/172 69/6/172
f 92/10/181 69/6/172 65/6/181
f 100/11/206 92/10/189 90/10/176
f 69/6/176 90/10/176 92/10/189
f 65/6/189 69/6/176 92/10/189
f 102/11/147 61/6/148 101/10/149
f 61/6/148 102/11/207 59/6/150
f 59/6/208 102/11/147 103/10/150
f 101/10/151 61/6/151 102/11/152
f 59/6/153 102/11/209 61/6/151
f 103/10/153 102/11/152 59/6/210
f 103/10/150 60/6/143 59/6/150
f 60/6/143 103/10/150 104/11/154
f 60/6/141 104/11/154 105/10/143
f 59/6/153 60/6/155 103/10/153
f 104/11/156 103/10/153 60/6/145
f 105/10/145 104/11/156 60/6/155
f 62/6/162 107/11/168 106/10/164
f 107/11/168 62/6/164 53/6/157
f 107/11/168 53/6/211 108/10/157
f 106/10/170 107/11/169 62/6/170
f 53/6/160 62/6/166 107/11/169
f 108/10/160 53/6/160 107/11/169
f 110/10/140 105/10/143 109/11/212
f 105/10/143 110/10/140 54/6/140
f 105/10/143 54/6/140 60/6/143
f 109/11/213 105/10/145 110/10/146
f 54/6/214 110/10/146 105/10/145
f 60/6/145 54/6/146 105/10/145
f 101/10/149 106/10/162 111/11/163
f 106/10/164 101/10/149 61/6/149
f 106/10/164 61/6/149 62/6/164
f 111/11/165 106/10/166 101/10/151
f 61/6/151 101/10/151 106/10/166
f 62/6/166 61/6/151 106/10/166
f 53/6/157 112/11/215 108/10/157
f 112/11/158 53/6/157 54/6/216
f 112/11/158 54/6/159 110/10/140
f 108/10/160 112/11/217 53/6/160
f 54/6/146 53/6/160 112/11/161
f 110/10/146 54/6/146 112/11/161
