# Blender 4.1.1
# www.blender.org
mtllib tree.mtl
o tree
v -18.065414 -4.606890 -4.086904
v -18.065414 -4.606890 -4.278981
v -18.161455 -4.606890 -3.990865
v -18.161455 -4.606890 -4.375019
v -18.353531 -4.606890 -3.990865
v -18.353531 -4.606890 -4.375019
v -18.449570 -4.606890 -4.086904
v -18.449570 -4.606890 -4.278981
v -18.161455 -4.259123 -4.230962
v -18.161455 -4.259123 -4.134923
v -18.209473 -4.259123 -4.086904
v -18.209473 -4.259123 -4.278981
v -18.305511 -4.259123 -4.278981
v -18.353531 -4.259123 -4.230962
v -18.353531 -4.259123 -4.134923
v -18.305511 -4.259123 -4.086904
v -18.377541 -3.737433 -4.242966
v -18.377541 -3.737433 -4.122918
v -18.317516 -3.737433 -4.062894
v -18.137444 -3.737433 -4.242966
v -18.137444 -3.737433 -4.122918
v -18.317516 -3.737433 -4.302990
v -18.197468 -3.737433 -4.302990
v -18.197468 -3.737433 -4.062894
v -18.098749 -4.134956 -4.229886
v -18.127590 -4.134956 -4.160260
v -18.127590 -4.134956 -4.299511
v -18.197216 -4.134956 -4.328351
v -18.197216 -4.134956 -4.131421
v -18.266842 -4.134956 -4.299511
v -18.266842 -4.134956 -4.160260
v -18.295681 -4.134956 -4.229886
v -18.042978 -4.261151 -4.229886
v -18.088152 -4.261151 -4.338948
v -18.088152 -4.261151 -4.120823
v -18.197216 -4.261151 -4.075648
v -18.197216 -4.261151 -4.384124
v -18.306278 -4.261151 -4.120823
v -18.306278 -4.261151 -4.338948
v -18.351454 -4.261151 -4.229886
v -18.027634 -3.737433 -3.768688
v -18.505974 -3.737433 -3.768688
v -18.125694 -3.162436 -3.938531
v -18.407915 -3.162436 -3.938531
v -18.027634 -3.737433 -4.597197
v -17.788465 -3.737433 -4.182942
v -18.125694 -3.162436 -4.427354
v -17.984581 -3.162436 -4.182942
v -18.505974 -3.737433 -4.597197
v -18.407915 -3.162436 -4.427354
v -18.549026 -3.162436 -4.182942
v -18.745144 -3.737433 -4.182942
v -17.990993 -2.544689 -4.182942
v -18.128899 -2.544689 -3.944083
v -18.203411 -1.896736 -4.182942
v -18.235107 -1.896736 -4.128041
v -18.330198 -1.896736 -4.182942
v -18.298502 -1.896736 -4.128041
v -18.542614 -2.544689 -4.182942
v -18.404711 -2.544689 -3.944083
v -18.404711 -2.544689 -4.421802
v -18.128899 -2.544689 -4.421802
v -18.298502 -1.896736 -4.237844
v -18.235107 -1.896736 -4.237844
v -17.930012 -3.162436 -4.377389
v -17.930012 -3.162436 -3.988495
v -18.112482 -2.544689 -4.272040
v -18.112482 -2.544689 -4.093845
v -18.266804 -3.162436 -4.571836
v -18.266804 -2.544689 -4.361138
v -18.266804 -3.162436 -3.794048
v -18.266804 -2.544689 -4.004747
v -18.603596 -3.162436 -3.988495
v -18.421125 -2.544689 -4.093845
v -18.603596 -3.162436 -4.377389
v -18.421125 -2.544689 -4.272040
v -18.266804 -3.916811 -3.677552
v -18.532282 -3.827122 -3.723120
v -18.001326 -3.827122 -3.723120
v -18.532282 -3.827122 -4.642765
v -18.704485 -3.916811 -4.435637
v -18.797762 -3.827122 -4.182942
v -18.704485 -3.916811 -3.930247
v -17.735847 -3.827122 -4.182942
v -17.829124 -3.916811 -3.930247
v -18.266804 -3.916811 -4.688333
v -18.001326 -3.827122 -4.642765
v -17.829124 -3.916811 -4.435637
v -18.472248 -3.308271 -4.538780
v -18.266804 -3.235354 -4.614614
v -18.640644 -3.235354 -4.398778
v -17.892965 -3.235354 -4.398778
v -17.855919 -3.308271 -4.182942
v -17.892965 -3.235354 -3.967106
v -18.472248 -3.308271 -3.827105
v -18.640644 -3.235354 -3.967106
v -18.266804 -3.235354 -3.751270
v -18.677691 -3.308271 -4.182942
v -18.061361 -3.308271 -3.827105
v -18.061361 -3.308271 -4.538780
v -18.419880 -2.596404 -4.448077
v -18.519171 -2.648118 -4.328647
v -18.572954 -2.596404 -4.182942
v -18.519171 -2.648118 -4.037238
v -18.419880 -2.596404 -3.917808
v -18.113728 -2.596404 -4.448077
v -18.014437 -2.648118 -4.328647
v -17.960653 -2.596404 -4.182942
v -18.266804 -2.648118 -3.891534
v -18.113728 -2.596404 -3.917808
v -18.266804 -2.648118 -4.474351
v -18.014437 -2.648118 -4.037238
vn -0.0000 -1.0000 -0.0000
vn 0.8851 0.2942 -0.3607
vn 0.8812 0.2944 0.3698
vn 0.8812 0.2944 -0.3698
vn 0.8851 0.2942 0.3607
vn 0.3608 0.2942 0.8850
vn 0.3607 0.2943 0.8850
vn 0.3698 0.2944 0.8812
vn 0.3607 0.2942 -0.8850
vn 0.3698 0.2944 -0.8812
vn 0.3608 0.2942 -0.8850
vn 0.8850 0.2942 -0.3607
vn -0.3607 0.2942 -0.8851
vn 0.3698 0.2944 -0.8813
vn -0.3698 0.2944 -0.8812
vn 0.3607 0.2942 -0.8851
vn -0.8813 0.2944 0.3698
vn -0.8851 0.2942 -0.3607
vn -0.8812 0.2944 -0.3698
vn -0.8851 0.2942 0.3607
vn 0.3607 0.2942 0.8851
vn -0.3698 0.2944 0.8813
vn -0.3698 0.2944 0.8812
vn -0.3607 0.2942 0.8851
vn -0.3608 0.2943 -0.8850
vn -0.3607 0.2942 -0.8850
vn -0.8850 0.2942 -0.3608
vn -0.8812 0.2944 0.3698
vn -0.3607 0.2942 0.8850
vn -0.8850 0.2942 0.3608
vn -0.3608 0.2942 0.8850
vn -0.9230 -0.0513 -0.3813
vn -0.9223 -0.0512 0.3829
vn -0.9223 -0.0513 -0.3829
vn -0.9223 -0.0513 0.3829
vn -0.9230 -0.0513 0.3813
vn -0.3813 -0.0512 0.9230
vn -0.9223 -0.0513 0.3830
vn -0.9230 -0.0512 0.3814
vn -0.3814 -0.0513 0.9230
vn -0.3830 -0.0512 0.9223
vn 0.9223 -0.0512 0.3829
vn 0.9230 -0.0513 -0.3813
vn 0.9223 -0.0513 -0.3829
vn 0.9230 -0.0513 0.3813
vn -0.3829 -0.0513 -0.9223
vn 0.3813 -0.0513 -0.9230
vn -0.3813 -0.0513 -0.9230
vn -0.3829 -0.0512 -0.9223
vn 0.3829 -0.0513 -0.9223
vn 0.9223 -0.0513 0.3830
vn 0.3814 -0.0513 0.9230
vn 0.9230 -0.0513 0.3814
vn 0.9223 -0.0512 0.3830
vn 0.3830 -0.0513 0.9223
vn -0.3814 -0.0513 -0.9230
vn -0.9223 -0.0512 -0.3830
vn -0.3830 -0.0513 -0.9223
vn -0.9223 -0.0513 -0.3830
vn -0.9230 -0.0512 -0.3814
vn 0.9223 -0.0513 -0.3830
vn 0.3814 -0.0513 -0.9230
vn 0.3830 -0.0512 -0.9223
vn 0.3814 -0.0512 -0.9230
vn 0.9230 -0.0512 -0.3814
vn 0.3829 -0.0513 0.9223
vn -0.3813 -0.0513 0.9230
vn 0.3813 -0.0513 0.9230
vn 0.3829 -0.0512 0.9223
vn -0.3829 -0.0513 0.9223
vn -0.0000 1.0000 -0.0000
vn 0.6468 0.4042 -0.6468
vn 0.9147 0.4042 -0.0000
vn 0.9147 0.4042 -0.0001
vn 0.9146 0.4042 -0.0001
vn -0.0000 0.4042 0.9147
vn -0.6467 0.4042 0.6468
vn -0.6467 0.4043 0.6468
vn -0.9147 0.4042 0.0001
vn -0.6468 0.4042 0.6468
vn -0.9146 0.4043 0.0001
vn -0.6468 0.4042 0.6467
vn -0.9147 0.4042 -0.0000
vn -0.0000 0.4042 -0.9147
vn 0.6467 0.4043 -0.6468
vn 0.6468 0.4042 0.6468
vn 0.6467 0.4042 0.6468
vn -0.0000 0.4043 0.9146
vn -0.6468 0.4042 -0.6468
vn -0.6467 0.4042 -0.6468
vn -0.0000 0.4043 -0.9146
vn 0.9146 0.4043 0.0001
vn 0.9147 0.4042 0.0001
vn 0.6468 0.4042 0.6467
vn -0.6468 0.4042 -0.6467
vn -0.9146 0.4043 -0.0001
vn -0.9147 0.4042 -0.0001
vn 0.4732 0.3228 0.8197
vn -0.4732 0.3228 0.8197
vn 0.4732 0.3228 -0.8197
vn 0.9465 0.3228 -0.0000
vn 0.4732 0.3228 -0.8196
vn -0.4732 0.3228 -0.8197
vn 0.4733 0.3228 0.8197
vn -0.9465 0.3228 -0.0000
vn -0.4733 0.3228 0.8197
vn -0.4733 0.3228 -0.8197
vn 0.6877 0.7260 -0.0000
vn 0.4751 0.3115 0.8229
vn 0.9503 0.3115 -0.0000
vn 0.4752 0.3115 0.8229
vn 0.6877 0.7260 -0.0001
vn 0.3439 0.7260 0.5956
vn -0.9502 0.3115 -0.0001
vn -0.3439 0.7260 0.5956
vn -0.6877 0.7260 -0.0001
vn -0.3438 0.7260 0.5956
vn -0.9503 0.3115 -0.0000
vn -0.4751 0.3115 0.8229
vn -0.3439 0.7260 -0.5956
vn 0.4751 0.3115 -0.8229
vn -0.4751 0.3115 -0.8229
vn 0.3439 0.7260 -0.5956
vn 0.3438 0.7260 -0.5956
vn 0.9502 0.3115 -0.0000
vn 0.3439 0.7259 -0.5956
vn 0.3439 0.7259 0.5956
vn 0.6877 0.7259 -0.0000
vn -0.3439 0.7259 0.5956
vn -0.3439 0.7259 -0.5956
vn -0.6877 0.7259 -0.0000
vn -0.9502 0.3115 -0.0000
vn -0.3438 0.7260 -0.5956
vn -0.3439 0.7260 -0.5955
vn -0.9502 0.3115 0.0001
vn -0.6877 0.7260 0.0001
vn 0.8197 0.3228 -0.4732
vn 0.8197 0.3228 0.4732
vn -0.0000 0.3228 -0.9465
vn 0.8196 0.3228 -0.4732
vn 0.8196 0.3228 0.4732
vn -0.0000 0.3228 0.9465
vn -0.8197 0.3228 0.4732
vn -0.8196 0.3228 -0.4732
vn -0.8197 0.3228 -0.4732
vn 0.4313 0.5060 0.7470
vn -0.4313 0.5060 0.7470
vn -0.0000 0.4530 0.8915
vn -0.0000 -0.4530 -0.8915
vn 0.4313 -0.5060 -0.7470
vn -0.4313 -0.5060 -0.7470
vn -0.7721 0.4530 -0.4458
vn -0.4313 0.5060 -0.7470
vn -0.4312 0.5060 -0.7470
vn -0.8625 0.5060 -0.0000
vn 0.4313 -0.5060 0.7470
vn 0.7721 -0.4530 0.4458
vn 0.8625 -0.5060 -0.0000
vn -0.7721 0.4530 0.4458
vn 0.7721 -0.4530 -0.4458
vn 0.8625 0.5060 -0.0000
vn 0.7721 0.4530 0.4458
vn 0.4312 0.5060 0.7470
vn -0.8625 -0.5060 -0.0000
vn -0.7721 -0.4530 -0.4458
vn 0.4313 0.5060 -0.7470
vn -0.0000 0.4530 -0.8915
vn -0.0000 -0.4530 0.8915
vn -0.4313 -0.5060 0.7470
vn 0.7721 0.4530 -0.4458
vn -0.7721 -0.4530 0.4458
vn -0.7470 0.5060 -0.4313
vn -0.0000 0.5060 -0.8625
vn -0.4458 0.4530 -0.7721
vn 0.4458 -0.4530 0.7721
vn -0.0000 -0.5060 0.8625
vn 0.7470 -0.5060 0.4313
vn 0.7470 0.5060 -0.4313
vn 0.8915 0.4530 -0.0000
vn 0.7470 0.5060 0.4313
vn -0.7470 -0.5060 0.4313
vn -0.8915 -0.4530 -0.0000
vn -0.7470 -0.5060 -0.4313
vn -0.0000 0.5060 0.8625
vn -0.7470 0.5060 0.4313
vn -0.4458 0.4530 0.7721
vn 0.4458 -0.4530 -0.7721
vn 0.7470 -0.5060 -0.4313
vn -0.0000 -0.5060 -0.8625
vn -0.8915 0.4530 -0.0000
vn -0.7469 0.5061 -0.4313
vn -0.7469 0.5060 0.4313
vn 0.7469 -0.5060 0.4313
vn 0.8915 -0.4530 -0.0000
vn 0.7469 -0.5060 -0.4313
vn 0.4458 0.4530 0.7721
vn -0.4458 -0.4530 -0.7721
vn 0.4458 0.4530 -0.7721
vn -0.4458 -0.4530 0.7721
vn -0.4313 0.5060 -0.7469
vn -0.7721 0.4529 0.4458
vn 0.4312 0.5060 -0.7470
vn 0.8625 0.5061 -0.0000
vn -0.4312 -0.5060 0.7470
vn 0.7721 0.4530 0.4457
vn 0.4313 0.5061 0.7469
vn -0.7721 -0.4530 -0.4457
vn -0.4312 -0.5060 -0.7470
vt 0.593750 0.025000
vt 0.593750 0.104996
vt 0.593750 0.225000
vt 0.093750 0.475000
vt 0.093750 0.275000
vt 0.093750 0.425000
vt 0.093750 0.348778
vt 0.093750 0.338765
vt 0.093750 0.344099
vt 0.093750 0.375000
vt 0.093750 0.325000
s 0
usemtl colormap.002
f 3/1/1 2/1/1 1/1/1
f 2/1/1 3/1/1 4/1/1
f 4/1/1 3/1/1 5/1/1
f 4/1/1 5/1/1 6/1/1
f 6/1/1 5/1/1 7/1/1
f 6/1/1 7/1/1 8/1/1
f 9/2/2 1/1/3 2/1/4
f 1/1/3 9/2/2 10/2/5
f 11/2/6 1/1/3 10/2/5
f 1/1/3 11/2/7 3/1/8
f 12/2/9 2/1/4 4/1/10
f 2/1/4 12/2/11 9/2/12
f 13/2/13 4/1/14 6/1/15
f 4/1/10 13/2/13 12/2/16
f 7/1/17 14/2/18 8/1/19
f 14/2/18 7/1/17 15/2/20
f 11/2/21 5/1/22 3/1/8
f 5/1/23 11/2/21 16/2/24
f 8/1/19 13/2/25 6/1/15
f 13/2/26 8/1/19 14/2/27
f 7/1/28 16/2/29 15/2/30
f 16/2/31 7/1/28 5/1/23
f 14/2/32 18/3/33 17/3/34
f 18/3/35 14/2/32 15/2/36
f 16/2/37 18/3/38 15/2/39
f 18/3/38 16/2/40 19/3/41
f 21/3/42 9/2/43 20/3/44
f 9/2/43 21/3/42 10/2/45
f 22/3/46 12/2/47 13/2/48
f 12/2/47 22/3/49 23/3/50
f 21/3/51 11/2/52 10/2/53
f 11/2/52 21/3/54 24/3/55
f 13/2/56 17/3/57 22/3/58
f 17/3/59 13/2/48 14/2/60
f 20/3/61 12/2/62 23/3/63
f 12/2/64 20/3/61 9/2/65
f 24/3/66 16/2/67 11/2/68
f 16/2/67 24/3/69 19/3/70
f 27/4/71 26/4/71 25/4/71
f 26/4/71 27/4/71 28/4/71
f 26/4/71 28/4/71 29/4/71
f 29/4/71 28/4/71 30/4/71
f 29/4/71 30/4/71 31/4/71
f 31/4/71 30/4/71 32/4/71
f 35/5/1 34/5/1 33/5/1
f 34/5/1 35/5/1 36/5/1
f 34/5/1 36/5/1 37/5/1
f 37/5/1 36/5/1 38/5/1
f 37/5/1 38/5/1 39/5/1
f 39/5/1 38/5/1 40/5/1
f 27/4/72 33/5/73 34/5/72
f 33/5/74 27/4/72 25/4/75
f 29/4/76 38/5/77 36/5/76
f 38/5/77 29/4/76 31/4/78
f 40/5/79 31/4/80 32/4/81
f 31/4/82 40/5/83 38/5/82
f 28/4/84 34/5/72 37/5/84
f 34/5/72 28/4/84 27/4/85
f 26/4/86 36/5/76 35/5/87
f 36/5/76 26/4/87 29/4/88
f 30/4/89 37/5/84 39/5/90
f 37/5/84 30/4/90 28/4/91
f 26/4/86 33/5/92 25/4/93
f 33/5/73 26/4/94 35/5/86
f 40/5/83 30/4/95 39/5/95
f 30/4/89 40/5/96 32/4/97
f 43/6/98 42/7/99 41/7/98
f 42/7/99 43/6/98 44/6/99
f 47/6/100 46/7/101 45/7/102
f 46/7/101 47/6/100 48/6/101
f 50/6/103 45/7/100 49/7/103
f 45/7/100 50/6/103 47/6/100
f 48/6/101 41/7/104 46/7/101
f 41/7/98 48/6/101 43/6/98
f 52/7/105 44/6/106 51/6/105
f 44/6/99 52/7/105 42/7/99
f 52/7/105 50/6/103 49/7/103
f 50/6/107 52/7/105 51/6/105
f 41/7/1 45/7/1 46/7/1
f 45/7/1 41/7/1 42/7/1
f 45/7/1 42/7/1 49/7/1
f 49/7/1 42/7/1 52/7/1
f 55/6/108 54/8/109 53/8/110
f 54/8/111 55/6/112 56/6/113
f 59/8/114 58/6/115 57/6/116
f 58/6/117 59/8/118 60/8/119
f 63/6/120 62/8/121 61/8/122
f 62/8/121 63/6/120 64/6/123
f 64/6/124 53/8/125 62/8/121
f 53/8/125 64/6/124 55/6/108
f 64/6/126 56/6/127 55/6/128
f 56/6/127 64/6/126 58/6/129
f 58/6/129 64/6/126 63/6/130
f 58/6/129 63/6/130 57/6/131
f 59/8/132 63/6/133 61/8/122
f 63/6/134 59/8/135 57/6/136
f 54/8/1 62/8/1 53/8/1
f 62/8/1 54/8/1 60/8/1
f 62/8/1 60/8/1 61/8/1
f 61/8/1 60/8/1 59/8/1
f 56/6/113 60/8/119 54/8/109
f 60/8/119 56/6/113 58/6/115
f 67/6/137 66/9/138 65/9/137
f 66/9/138 67/6/137 68/6/138
f 70/6/139 65/9/140 69/9/139
f 65/9/137 70/6/139 67/6/137
f 68/6/141 71/9/142 66/9/138
f 71/9/142 68/6/138 72/6/142
f 72/6/142 73/9/143 71/9/142
f 73/9/143 72/6/142 74/6/143
f 71/9/1 65/9/1 66/9/1
f 65/9/1 71/9/1 69/9/1
f 69/9/1 71/9/1 73/9/1
f 69/9/1 73/9/1 75/9/1
f 76/6/144 69/9/139 75/9/145
f 69/9/139 76/6/145 70/6/139
f 73/9/143 76/6/145 75/9/145
f 76/6/145 73/9/143 74/6/143
f 79/10/146 78/10/147 77/11/148
f 78/10/147 79/10/146 41/6/146
f 78/10/147 41/6/146 42/6/147
f 77/11/149 78/10/150 79/10/151
f 41/6/151 79/10/151 78/10/150
f 42/6/150 41/6/151 78/10/150
f 81/11/152 49/6/153 80/10/153
f 49/6/154 81/11/152 52/6/155
f 52/6/155 81/11/152 82/10/155
f 80/10/156 49/6/156 81/11/157
f 52/6/158 81/11/157 49/6/156
f 82/10/158 81/11/157 52/6/158
f 82/10/155 42/6/147 52/6/155
f 42/6/147 82/10/155 83/11/159
f 42/6/147 83/11/159 78/10/147
f 52/6/158 42/6/150 82/10/158
f 83/11/160 82/10/158 42/6/150
f 78/10/150 83/11/160 42/6/150
f 46/6/161 85/11/162 84/10/161
f 85/11/162 46/6/161 41/6/146
f 85/11/162 41/6/163 79/10/146
f 84/10/164 85/11/165 46/6/164
f 41/6/151 46/6/164 85/11/165
f 79/10/151 41/6/151 85/11/165
f 80/10/153 87/10/166 86/11/167
f 87/10/166 80/10/153 49/6/153
f 87/10/166 49/6/153 45/6/166
f 86/11/168 87/10/169 80/10/156
f 49/6/156 80/10/156 87/10/169
f 45/6/169 49/6/156 87/10/169
f 45/6/166 88/11/170 87/10/166
f 88/11/170 45/6/166 46/6/161
f 88/11/170 46/6/161 84/10/161
f 87/10/169 88/11/171 45/6/169
f 46/6/164 45/6/169 88/11/171
f 84/10/164 46/6/164 88/11/171
f 91/10/172 90/10/173 89/11/174
f 90/10/173 91/10/172 75/6/172
f 90/10/173 75/6/172 69/6/173
f 89/11/175 90/10/176 91/10/177
f 75/6/177 91/10/177 90/10/176
f 69/6/176 75/6/177 90/10/176
f 65/6/178 93/11/179 92/10/178
f 93/11/179 65/6/178 66/6/180
f 93/11/179 66/6/180 94/10/180
f 92/10/181 93/11/182 65/6/181
f 66/6/183 65/6/181 93/11/182
f 94/10/183 66/6/183 93/11/182
f 97/10/184 96/10/185 95/11/186
f 96/10/185 97/10/184 71/6/184
f 96/10/185 71/6/184 73/6/185
f 95/11/187 96/10/188 97/10/189
f 71/6/189 97/10/189 96/10/188
f 73/6/188 71/6/189 96/10/188
f 98/11/190 75/6/191 91/10/172
f 75/6/172 98/11/190 73/6/185
f 73/6/192 98/11/190 96/10/185
f 91/10/177 75/6/193 98/11/194
f 73/6/188 98/11/194 75/6/177
f 96/10/188 98/11/194 73/6/195
f 94/10/180 97/10/184 99/11/196
f 97/10/184 94/10/180 66/6/180
f 97/10/184 66/6/180 71/6/184
f 99/11/197 97/10/189 94/10/183
f 66/6/183 94/10/183 97/10/189
f 71/6/189 66/6/183 97/10/189
f 90/10/173 92/10/178 100/11/198
f 92/10/178 90/10/173 69/6/173
f 92/10/178 69/6/173 65/6/178
f 100/11/199 92/10/181 90/10/176
f 69/6/176 90/10/176 92/10/181
f 65/6/181 69/6/176 92/10/181
f 102/11/152 61/6/154 101/10/153
f 61/6/200 102/11/152 59/6/155
f 59/6/155 102/11/152 103/10/155
f 101/10/156 61/6/156 102/11/157
f 59/6/158 102/11/157 61/6/156
f 103/10/158 102/11/157 59/6/158
f 103/10/155 60/6/147 59/6/155
f 60/6/147 103/10/155 104/11/201
f 60/6/147 104/11/201 105/10/147
f 59/6/158 60/6/150 103/10/158
f 104/11/160 103/10/158 60/6/150
f 105/10/150 104/11/160 60/6/150
f 62/6/202 107/11/170 106/10/202
f 107/11/170 62/6/166 53/6/161
f 107/11/170 53/6/203 108/10/161
f 106/10/204 107/11/171 62/6/204
f 53/6/164 62/6/169 107/11/171
f 108/10/164 53/6/164 107/11/171
f 110/10/146 105/10/147 109/11/148
f 105/10/147 110/10/146 54/6/146
f 105/10/147 54/6/146 60/6/147
f 109/11/149 105/10/150 110/10/151
f 54/6/151 110/10/151 105/10/150
f 60/6/150 54/6/151 105/10/150
f 101/10/153 106/10/166 111/11/167
f 106/10/166 101/10/153 61/6/153
f 106/10/166 61/6/153 62/6/166
f 111/11/168 106/10/169 101/10/156
f 61/6/156 101/10/156 106/10/169
f 62/6/169 61/6/156 106/10/169
f 53/6/161 112/11/162 108/10/161
f 112/11/205 53/6/161 54/6/206
f 112/11/162 54/6/163 110/10/163
f 108/10/164 112/11/165 53/6/164
f 54/6/151 53/6/164 112/11/207
f 110/10/151 54/6/208 112/11/165
f 3/1/1 2/1/1 1/1/1
f 2/1/1 3/1/1 4/1/1
f 4/1/1 3/1/1 5/1/1
f 4/1/1 5/1/1 6/1/1
f 6/1/1 5/1/1 7/1/1
f 6/1/1 7/1/1 8/1/1
f 9/2/2 1/1/3 2/1/4
f 1/1/3 9/2/2 10/2/5
f 11/2/6 1/1/3 10/2/5
f 1/1/3 11/2/7 3/1/8
f 12/2/9 2/1/4 4/1/10
f 2/1/4 12/2/11 9/2/12
f 13/2/13 4/1/14 6/1/15
f 4/1/10 13/2/13 12/2/16
f 7/1/17 14/2/18 8/1/19
f 14/2/18 7/1/17 15/2/20
f 11/2/21 5/1/22 3/1/8
f 5/1/23 11/2/21 16/2/24
f 8/1/19 13/2/25 6/1/15
f 13/2/26 8/1/19 14/2/27
f 7/1/28 16/2/29 15/2/30
f 16/2/31 7/1/28 5/1/23
f 14/2/32 18/3/33 17/3/34
f 18/3/35 14/2/32 15/2/36
f 16/2/37 18/3/38 15/2/39
f 18/3/38 16/2/40 19/3/41
f 21/3/42 9/2/43 20/3/44
f 9/2/43 21/3/42 10/2/45
f 22/3/46 12/2/47 13/2/48
f 12/2/47 22/3/49 23/3/50
f 21/3/51 11/2/52 10/2/53
f 11/2/52 21/3/54 24/3/55
f 13/2/56 17/3/57 22/3/58
f 17/3/59 13/2/48 14/2/60
f 20/3/61 12/2/62 23/3/63
f 12/2/64 20/3/61 9/2/65
f 24/3/66 16/2/67 11/2/68
f 16/2/67 24/3/69 19/3/70
f 27/4/71 26/4/71 25/4/71
f 26/4/71 27/4/71 28/4/71
f 26/4/71 28/4/71 29/4/71
f 29/4/71 28/4/71 30/4/71
f 29/4/71 30/4/71 31/4/71
f 31/4/71 30/4/71 32/4/71
f 35/5/1 34/5/1 33/5/1
f 34/5/1 35/5/1 36/5/1
f 34/5/1 36/5/1 37/5/1
f 37/5/1 36/5/1 38/5/1
f 37/5/1 38/5/1 39/5/1
f 39/5/1 38/5/1 40/5/1
f 27/4/72 33/5/73 34/5/72
f 33/5/74 27/4/72 25/4/75
f 29/4/76 38/5/77 36/5/76
f 38/5/77 29/4/76 31/4/78
f 40/5/79 31/4/80 32/4/81
f 31/4/82 40/5/83 38/5/82
f 28/4/84 34/5/72 37/5/84
f 34/5/72 28/4/84 27/4/85
f 26/4/86 36/5/76 35/5/87
f 36/5/76 26/4/87 29/4/88
f 30/4/89 37/5/84 39/5/90
f 37/5/84 30/4/90 28/4/91
f 26/4/86 33/5/92 25/4/93
f 33/5/73 26/4/94 35/5/86
f 40/5/83 30/4/95 39/5/95
f 30/4/89 40/5/96 32/4/97
f 43/6/98 42/7/99 41/7/98
f 42/7/99 43/6/98 44/6/99
f 47/6/100 46/7/101 45/7/102
f 46/7/101 47/6/100 48/6/101
f 50/6/103 45/7/100 49/7/103
f 45/7/100 50/6/103 47/6/100
f 48/6/101 41/7/104 46/7/101
f 41/7/98 48/6/101 43/6/98
f 52/7/105 44/6/106 51/6/105
f 44/6/99 52/7/105 42/7/99
f 52/7/105 50/6/103 49/7/103
f 50/6/107 52/7/105 51/6/105
f 41/7/1 45/7/1 46/7/1
f 45/7/1 41/7/1 42/7/1
f 45/7/1 42/7/1 49/7/1
f 49/7/1 42/7/1 52/7/1
f 55/6/108 54/8/109 53/8/110
f 54/8/111 55/6/112 56/6/113
f 59/8/114 58/6/115 57/6/116
f 58/6/117 59/8/118 60/8/119
f 63/6/120 62/8/121 61/8/122
f 62/8/121 63/6/120 64/6/123
f 64/6/124 53/8/125 62/8/121
f 53/8/125 64/6/124 55/6/108
f 64/6/126 56/6/127 55/6/128
f 56/6/127 64/6/126 58/6/129
f 58/6/129 64/6/126 63/6/130
f 58/6/129 63/6/130 57/6/131
f 59/8/132 63/6/133 61/8/122
f 63/6/134 59/8/135 57/6/136
f 54/8/1 62/8/1 53/8/1
f 62/8/1 54/8/1 60/8/1
f 62/8/1 60/8/1 61/8/1
f 61/8/1 60/8/1 59/8/1
f 56/6/113 60/8/119 54/8/109
f 60/8/119 56/6/113 58/6/115
f 67/6/137 66/9/138 65/9/137
f 66/9/138 67/6/137 68/6/138
f 70/6/139 65/9/140 69/9/139
f 65/9/137 70/6/139 67/6/137
f 68/6/141 71/9/142 66/9/138
f 71/9/142 68/6/138 72/6/142
f 72/6/142 73/9/143 71/9/142
f 73/9/143 72/6/142 74/6/143
f 71/9/1 65/9/1 66/9/1
f 65/9/1 71/9/1 69/9/1
f 69/9/1 71/9/1 73/9/1
f 69/9/1 73/9/1 75/9/1
f 76/6/144 69/9/139 75/9/145
f 69/9/139 76/6/145 70/6/139
f 73/9/143 76/6/145 75/9/145
f 76/6/145 73/9/143 74/6/143
f 79/10/146 78/10/147 77/11/148
f 78/10/147 79/10/146 41/6/146
f 78/10/147 41/6/146 42/6/147
f 77/11/149 78/10/150 79/10/151
f 41/6/151 79/10/151 78/10/150
f 42/6/150 41/6/151 78/10/150
f 81/11/152 49/6/153 80/10/153
f 49/6/154 81/11/152 52/6/155
f 52/6/155 81/11/152 82/10/155
f 80/10/156 49/6/156 81/11/157
f 52/6/158 81/11/157 49/6/156
f 82/10/158 81/11/157 52/6/158
f 82/10/155 42/6/147 52/6/155
f 42/6/147 82/10/155 83/11/159
f 42/6/147 83/11/159 78/10/147
f 52/6/158 42/6/150 82/10/158
f 83/11/160 82/10/158 42/6/150
f 78/10/150 83/11/160 42/6/150
f 46/6/161 85/11/162 84/10/161
f 85/11/162 46/6/161 41/6/146
f 85/11/162 41/6/163 79/10/146
f 84/10/164 85/11/165 46/6/164
f 41/6/151 46/6/164 85/11/165
f 79/10/151 41/6/151 85/11/165
f 80/10/153 87/10/166 86/11/167
f 87/10/166 80/10/153 49/6/153
f 87/10/166 49/6/153 45/6/166
f 86/11/168 87/10/169 80/10/156
f 49/6/156 80/10/156 87/10/169
f 45/6/169 49/6/156 87/10/169
f 45/6/166 88/11/170 87/10/166
f 88/11/170 45/6/166 46/6/161
f 88/11/170 46/6/161 84/10/161
f 87/10/169 88/11/171 45/6/169
f 46/6/164 45/6/169 88/11/171
f 84/10/164 46/6/164 88/11/171
f 91/10/172 90/10/173 89/11/174
f 90/10/173 91/10/172 75/6/172
f 90/10/173 75/6/172 69/6/173
f 89/11/175 90/10/176 91/10/177
f 75/6/177 91/10/177 90/10/176
f 69/6/176 75/6/177 90/10/176
f 65/6/178 93/11/179 92/10/178
f 93/11/179 65/6/178 66/6/180
f 93/11/179 66/6/180 94/10/180
f 92/10/181 93/11/182 65/6/181
f 66/6/183 65/6/181 93/11/182
f 94/10/183 66/6/183 93/11/182
f 97/10/184 96/10/185 95/11/186
f 96/10/185 97/10/184 71/6/184
f 96/10/185 71/6/184 73/6/185
f 95/11/187 96/10/188 97/10/189
f 71/6/189 97/10/189 96/10/188
f 73/6/188 71/6/189 96/10/188
f 98/11/190 75/6/191 91/10/172
f 75/6/172 98/11/190 73/6/185
f 73/6/192 98/11/190 96/10/185
f 91/10/177 75/6/193 98/11/194
f 73/6/188 98/11/194 75/6/177
f 96/10/188 98/11/194 73/6/195
f 94/10/180 97/10/184 99/11/196
f 97/10/184 94/10/180 66/6/180
f 97/10/184 66/6/180 71/6/184
f 99/11/197 97/10/189 94/10/183
f 66/6/183 94/10/183 97/10/189
f 71/6/189 66/6/183 97/10/189
f 90/10/173 92/10/178 100/11/198
f 92/10/178 90/10/173 69/6/173
f 92/10/178 69/6/173 65/6/178
f 100/11/199 92/10/181 90/10/176
f 69/6/176 90/10/176 92/10/181
f 65/6/181 69/6/176 92/10/181
f 102/11/152 61/6/154 101/10/153
f 61/6/200 102/11/152 59/6/155
f 59/6/155 102/11/152 103/10/155
f 101/10/156 61/6/156 102/11/157
f 59/6/158 102/11/157 61/6/156
f 103/10/158 102/11/157 59/6/158
f 103/10/155 60/6/147 59/6/155
f 60/6/147 103/10/155 104/11/201
f 60/6/147 104/11/201 105/10/147
f 59/6/158 60/6/150 103/10/158
f 104/11/160 103/10/158 60/6/150
f 105/10/150 104/11/160 60/6/150
f 62/6/202 107/11/170 106/10/202
f 107/11/170 62/6/166 53/6/161
f 107/11/170 53/6/203 108/10/161
f 106/10/204 107/11/171 62/6/204
f 53/6/164 62/6/169 107/11/171
f 108/10/164 53/6/164 107/11/171
f 110/10/146 105/10/147 109/11/148
f 105/10/147 110/10/146 54/6/146
f 105/10/147 54/6/146 60/6/147
f 109/11/149 105/10/150 110/10/151
f 54/6/151 110/10/151 105/10/150
f 60/6/150 54/6/151 105/10/150
f 101/10/153 106/10/166 111/11/167
f 106/10/166 101/10/153 61/6/153
f 106/10/166 61/6/153 62/6/166
f 111/11/168 106/10/169 101/10/156
f 61/6/156 101/10/156 106/10/169
f 62/6/169 61/6/156 106/10/169
f 53/6/161 112/11/162 108/10/161
f 112/11/205 53/6/161 54/6/206
f 112/11/162 54/6/163 110/10/163
f 108/10/164 112/11/165 53/6/164
f 54/6/151 53/6/164 112/11/207
f 110/10/151 54/6/208 112/11/165
