# Blender 4.1.1
# www.blender.org
mtllib tree.mtl
o tree
v -17.076075 -0.217703 -3.863037
v -17.076075 -0.217703 -4.044595
v -17.166855 -0.217703 -3.772258
v -17.166855 -0.217703 -4.135373
v -17.348412 -0.217703 -3.772258
v -17.348412 -0.217703 -4.135373
v -17.439190 -0.217703 -3.863037
v -17.439190 -0.217703 -4.044595
v -17.166855 0.111018 -3.999205
v -17.166855 0.111018 -3.908426
v -17.212244 0.111018 -3.863037
v -17.212244 0.111018 -4.044595
v -17.303022 0.111018 -4.044595
v -17.348412 0.111018 -3.999205
v -17.348412 0.111018 -3.908426
v -17.303022 0.111018 -3.863037
v -17.371105 0.604137 -4.010552
v -17.371105 0.604137 -3.897079
v -17.314369 0.604137 -3.840342
v -17.144159 0.604137 -4.010552
v -17.144159 0.604137 -3.897079
v -17.314369 0.604137 -4.067289
v -17.200895 0.604137 -4.067289
v -17.200895 0.604137 -3.840342
v -17.107584 0.228384 -3.998188
v -17.134844 0.228384 -3.932376
v -17.134844 0.228384 -4.064001
v -17.200657 0.228384 -4.091261
v -17.200657 0.228384 -3.905115
v -17.266470 0.228384 -4.064001
v -17.266470 0.228384 -3.932376
v -17.293730 0.228384 -3.998188
v -17.054867 0.109101 -3.998188
v -17.097567 0.109101 -4.101278
v -17.097567 0.109101 -3.895098
v -17.200657 0.109101 -3.852397
v -17.200657 0.109101 -4.143979
v -17.303745 0.109101 -3.895098
v -17.303745 0.109101 -4.101278
v -17.346449 0.109101 -3.998188
v -17.040363 0.604137 -3.562249
v -17.492506 0.604137 -3.562249
v -17.133051 1.147643 -3.722790
v -17.399818 1.147643 -3.722790
v -17.040363 0.604137 -4.345383
v -16.814293 0.604137 -3.953815
v -17.133051 1.147643 -4.184842
v -16.999668 1.147643 -3.953815
v -17.492506 0.604137 -4.345383
v -17.399818 1.147643 -4.184842
v -17.533199 1.147643 -3.953815
v -17.718576 0.604137 -3.953815
v -17.005728 1.731559 -3.953815
v -17.136082 1.731559 -3.728038
v -17.206512 2.344026 -3.953816
v -17.236473 2.344026 -3.901921
v -17.326357 2.344026 -3.953816
v -17.296396 2.344026 -3.901921
v -17.527140 1.731559 -3.953815
v -17.396788 1.731559 -3.728038
v -17.396788 1.731559 -4.179594
v -17.136082 1.731559 -4.179594
v -17.296396 2.344026 -4.005710
v -17.236473 2.344026 -4.005710
v -16.948088 1.147643 -4.137613
v -16.948088 1.147643 -3.770018
v -17.120565 1.731559 -4.038034
v -17.120565 1.731559 -3.869598
v -17.266434 1.147643 -4.321412
v -17.266434 1.731559 -4.122252
v -17.266434 1.147643 -3.586220
v -17.266434 1.731559 -3.785379
v -17.584782 1.147643 -3.770018
v -17.412304 1.731559 -3.869598
v -17.584782 1.147643 -4.137613
v -17.412304 1.731559 -4.038034
v -17.266434 0.434583 -3.476104
v -17.517374 0.519360 -3.519176
v -17.015495 0.519360 -3.519176
v -17.517374 0.519360 -4.388455
v -17.680145 0.434583 -4.192671
v -17.768312 0.519360 -3.953815
v -17.680145 0.434583 -3.714960
v -16.764557 0.519360 -3.953815
v -16.852724 0.434583 -3.714960
v -17.266434 0.434583 -4.431527
v -17.015495 0.519360 -4.388455
v -16.852724 0.434583 -4.192671
v -17.460627 1.009795 -4.290166
v -17.266434 1.078719 -4.361846
v -17.619801 1.078719 -4.157831
v -16.913069 1.078719 -4.157831
v -16.878052 1.009795 -3.953815
v -16.913069 1.078719 -3.749800
v -17.460627 1.009795 -3.617466
v -17.619801 1.078719 -3.749800
v -17.266434 1.078719 -3.545784
v -17.654818 1.009795 -3.953815
v -17.072243 1.009795 -3.617466
v -17.072243 1.009795 -4.290166
v -17.411125 1.682676 -4.204430
v -17.504980 1.633794 -4.091540
v -17.555819 1.682676 -3.953815
v -17.504980 1.633794 -3.816091
v -17.411125 1.682676 -3.703202
v -17.121742 1.682676 -4.204430
v -17.027889 1.633794 -4.091540
v -16.977051 1.682676 -3.953815
v -17.266434 1.633794 -3.678366
v -17.121742 1.682676 -3.703202
v -17.266434 1.633794 -4.229265
v -17.027889 1.633794 -3.816091
vn -0.0000 -1.0000 -0.0000
vn 0.8851 0.2942 -0.3607
vn 0.8812 0.2944 0.3698
vn 0.8812 0.2944 -0.3698
vn 0.8851 0.2942 0.3607
vn 0.3607 0.2942 0.8850
vn 0.8850 0.2942 0.3608
vn 0.3608 0.2943 0.8850
vn 0.3698 0.2944 0.8812
vn 0.3607 0.2942 -0.8850
vn 0.3698 0.2944 -0.8812
vn 0.8850 0.2942 -0.3608
vn -0.3607 0.2942 -0.8851
vn 0.3698 0.2944 -0.8813
vn -0.3698 0.2944 -0.8812
vn 0.3607 0.2942 -0.8851
vn -0.8813 0.2944 0.3698
vn -0.8851 0.2942 -0.3607
vn -0.8812 0.2944 -0.3698
vn -0.8851 0.2942 0.3607
vn 0.3607 0.2942 0.8851
vn -0.3698 0.2944 0.8813
vn -0.3607 0.2942 0.8851
vn -0.3608 0.2943 -0.8850
vn -0.3607 0.2942 -0.8850
vn -0.8850 0.2942 -0.3608
vn -0.8812 0.2944 0.3698
vn -0.3607 0.2942 0.8850
vn -0.8850 0.2942 0.3608
vn -0.3608 0.2942 0.8850
vn -0.3698 0.2944 0.8812
vn -0.9230 -0.0513 -0.3813
vn -0.9223 -0.0512 0.3829
vn -0.9223 -0.0513 -0.3829
vn -0.9223 -0.0513 0.3829
vn -0.9230 -0.0513 0.3813
vn -0.3814 -0.0512 0.9230
vn -0.9223 -0.0513 0.3830
vn -0.9230 -0.0512 0.3814
vn -0.3814 -0.0513 0.9230
vn -0.3830 -0.0512 0.9223
vn 0.9223 -0.0512 0.3829
vn 0.9230 -0.0513 -0.3813
vn 0.9223 -0.0513 -0.3829
vn 0.9230 -0.0513 0.3813
vn -0.3829 -0.0513 -0.9223
vn 0.3813 -0.0513 -0.9230
vn -0.3813 -0.0513 -0.9230
vn -0.3829 -0.0512 -0.9223
vn 0.3829 -0.0513 -0.9223
vn 0.9223 -0.0513 0.3830
vn 0.3814 -0.0513 0.9230
vn 0.9230 -0.0512 0.3814
vn 0.9223 -0.0512 0.3830
vn 0.3830 -0.0513 0.9223
vn -0.3814 -0.0513 -0.9230
vn -0.9223 -0.0512 -0.3830
vn -0.3830 -0.0513 -0.9223
vn -0.9223 -0.0513 -0.3830
vn -0.9230 -0.0512 -0.3814
vn 0.9223 -0.0513 -0.3830
vn 0.3814 -0.0513 -0.9230
vn 0.3830 -0.0512 -0.9223
vn 0.3814 -0.0512 -0.9230
vn 0.9230 -0.0512 -0.3814
vn 0.3829 -0.0513 0.9223
vn -0.3813 -0.0513 0.9230
vn 0.3813 -0.0513 0.9230
vn 0.3829 -0.0512 0.9223
vn -0.3829 -0.0513 0.9223
vn -0.0000 1.0000 -0.0000
vn 0.6468 0.4042 -0.6467
vn 0.9147 0.4042 -0.0000
vn 0.9147 0.4042 -0.0001
vn 0.6468 0.4042 -0.6468
vn 0.9146 0.4043 -0.0001
vn -0.0000 0.4042 0.9147
vn -0.6468 0.4042 0.6468
vn -0.6467 0.4043 0.6468
vn -0.9147 0.4042 -0.0000
vn -0.6468 0.4042 0.6467
vn -0.9146 0.4043 -0.0000
vn -0.9147 0.4042 0.0001
vn -0.0000 0.4042 -0.9147
vn 0.6467 0.4042 -0.6468
vn 0.6467 0.4043 -0.6468
vn 0.6467 0.4042 0.6468
vn 0.6468 0.4042 0.6468
vn -0.0000 0.4043 0.9146
vn -0.6467 0.4042 -0.6468
vn -0.6468 0.4042 -0.6468
vn -0.0000 0.4043 -0.9146
vn 0.9146 0.4043 0.0001
vn 0.9147 0.4042 0.0001
vn 0.6468 0.4042 0.6467
vn -0.9147 0.4042 -0.0001
vn -0.6468 0.4042 -0.6467
vn 0.4732 0.3228 0.8197
vn -0.4732 0.3228 0.8197
vn 0.4732 0.3228 -0.8197
vn 0.9465 0.3228 -0.0000
vn -0.4732 0.3228 -0.8197
vn -0.9465 0.3228 -0.0000
vn -0.4732 0.3228 0.8196
vn -0.4733 0.3228 -0.8197
vn 0.6877 0.7260 -0.0000
vn 0.4751 0.3115 0.8229
vn 0.9503 0.3115 -0.0000
vn 0.3438 0.7260 0.5956
vn -0.9502 0.3115 -0.0000
vn -0.3439 0.7260 0.5956
vn -0.6877 0.7260 -0.0001
vn -0.3438 0.7260 0.5956
vn -0.9503 0.3115 -0.0000
vn -0.4751 0.3115 0.8229
vn -0.3439 0.7260 -0.5956
vn 0.4751 0.3115 -0.8229
vn -0.4751 0.3115 -0.8229
vn 0.3439 0.7260 -0.5956
vn 0.3438 0.7260 -0.5956
vn 0.9502 0.3115 -0.0000
vn 0.6877 0.7260 0.0001
vn 0.3439 0.7259 -0.5956
vn 0.3439 0.7259 0.5956
vn 0.6877 0.7259 -0.0000
vn -0.3439 0.7259 0.5956
vn -0.3439 0.7259 -0.5956
vn -0.6877 0.7259 -0.0000
vn -0.3438 0.7260 -0.5956
vn -0.3439 0.7260 -0.5955
vn -0.6877 0.7260 -0.0000
vn 0.3439 0.7260 0.5956
vn 0.8197 0.3228 -0.4732
vn 0.8197 0.3228 0.4732
vn -0.0000 0.3228 -0.9465
vn 0.8196 0.3228 0.4732
vn -0.0000 0.3228 0.9465
vn -0.8196 0.3228 0.4732
vn -0.8197 0.3228 0.4732
vn -0.8196 0.3228 -0.4732
vn -0.8197 0.3228 -0.4732
vn -0.8197 0.3228 -0.4733
vn 0.4313 0.5060 0.7470
vn -0.4313 0.5060 0.7470
vn -0.0000 0.4530 0.8915
vn -0.0000 -0.4530 -0.8915
vn 0.4313 -0.5060 -0.7470
vn -0.4313 -0.5060 -0.7470
vn -0.7721 0.4530 -0.4458
vn -0.4312 0.5060 -0.7470
vn -0.4313 0.5060 -0.7470
vn -0.4313 0.5060 -0.7469
vn -0.8625 0.5060 -0.0000
vn 0.4313 -0.5060 0.7470
vn 0.7721 -0.4530 0.4458
vn 0.8625 -0.5060 -0.0000
vn -0.7721 0.4530 0.4458
vn 0.7721 -0.4530 -0.4458
vn 0.8625 0.5060 -0.0000
vn 0.7721 0.4530 0.4458
vn 0.4312 0.5060 0.7470
vn 0.7721 0.4530 0.4457
vn 0.4313 0.5061 0.7469
vn -0.8625 -0.5060 -0.0000
vn -0.7721 -0.4530 -0.4458
vn -0.4313 -0.5060 -0.7469
vn -0.7721 -0.4530 -0.4457
vn 0.4313 0.5060 -0.7470
vn -0.0000 0.4530 -0.8915
vn -0.0000 -0.4530 0.8915
vn -0.4313 -0.5060 0.7470
vn 0.4313 0.5060 -0.7469
vn 0.7721 0.4530 -0.4457
vn 0.7721 0.4530 -0.4458
vn -0.4313 -0.5060 0.7469
vn -0.7721 -0.4530 0.4457
vn -0.4313 -0.5061 0.7469
vn -0.7721 -0.4530 0.4458
vn -0.7470 0.5060 -0.4313
vn -0.0000 0.5060 -0.8625
vn -0.4458 0.4530 -0.7721
vn 0.4458 -0.4530 0.7721
vn -0.0000 -0.5060 0.8625
vn 0.7470 -0.5060 0.4313
vn 0.7470 0.5060 -0.4312
vn 0.8915 0.4530 -0.0000
vn 0.7470 0.5060 -0.4313
vn 0.7470 0.5060 0.4313
vn 0.7470 0.5060 0.4312
vn -0.7470 -0.5060 0.4312
vn -0.8915 -0.4530 -0.0000
vn -0.7470 -0.5060 -0.4313
vn -0.7470 -0.5060 0.4313
vn -0.7470 -0.5060 -0.4312
vn -0.0000 0.5060 0.8625
vn -0.7470 0.5060 0.4313
vn -0.4458 0.4530 0.7721
vn 0.4458 -0.4530 -0.7721
vn 0.7470 -0.5060 -0.4313
vn -0.0000 -0.5060 -0.8625
vn -0.8915 0.4530 -0.0000
vn 0.8915 -0.4530 -0.0000
vn 0.4458 0.4530 0.7721
vn -0.4458 -0.4530 -0.7721
vn 0.4458 0.4530 -0.7721
vn -0.4458 -0.4530 0.7721
vn 0.4313 -0.5060 0.7469
vn 0.7721 -0.4530 0.4457
vn -0.7721 0.4529 0.4458
vn 0.7721 -0.4529 -0.4457
vn 0.4313 -0.5060 -0.7469
vn 0.7721 0.4529 -0.4458
vn -0.7721 -0.4529 0.4458
vt 0.593750 0.025000
vt 0.593750 0.104996
vt 0.593750 0.225000
vt 0.093750 0.475000
vt 0.093750 0.275000
vt 0.093750 0.425000
vt 0.093750 0.348778
vt 0.093750 0.338765
vt 0.093750 0.344099
vt 0.093750 0.375000
vt 0.093750 0.325000
s 0
usemtl colormap.002
f 3/1/1 2/1/1 1/1/1
f 2/1/1 3/1/1 4/1/1
f 4/1/1 3/1/1 5/1/1
f 4/1/1 5/1/1 6/1/1
f 6/1/1 5/1/1 7/1/1
f 6/1/1 7/1/1 8/1/1
f 9/2/2 1/1/3 2/1/4
f 1/1/3 9/2/2 10/2/5
f 11/2/6 1/1/3 10/2/7
f 1/1/3 11/2/8 3/1/9
f 12/2/10 2/1/4 4/1/11
f 2/1/4 12/2/10 9/2/12
f 13/2/13 4/1/14 6/1/15
f 4/1/14 13/2/13 12/2/16
f 7/1/17 14/2/18 8/1/19
f 14/2/18 7/1/17 15/2/20
f 11/2/21 5/1/22 3/1/9
f 5/1/22 11/2/21 16/2/23
f 8/1/19 13/2/24 6/1/15
f 13/2/25 8/1/19 14/2/26
f 7/1/27 16/2/28 15/2/29
f 16/2/30 7/1/27 5/1/31
f 14/2/32 18/3/33 17/3/34
f 18/3/35 14/2/32 15/2/36
f 16/2/37 18/3/38 15/2/39
f 18/3/38 16/2/40 19/3/41
f 21/3/42 9/2/43 20/3/44
f 9/2/43 21/3/42 10/2/45
f 22/3/46 12/2/47 13/2/48
f 12/2/47 22/3/49 23/3/50
f 21/3/51 11/2/52 10/2/53
f 11/2/52 21/3/54 24/3/55
f 13/2/56 17/3/57 22/3/58
f 17/3/59 13/2/56 14/2/60
f 20/3/61 12/2/62 23/3/63
f 12/2/64 20/3/61 9/2/65
f 24/3/66 16/2/67 11/2/68
f 16/2/67 24/3/69 19/3/70
f 27/4/71 26/4/71 25/4/71
f 26/4/71 27/4/71 28/4/71
f 26/4/71 28/4/71 29/4/71
f 29/4/71 28/4/71 30/4/71
f 29/4/71 30/4/71 31/4/71
f 31/4/71 30/4/71 32/4/71
f 35/5/1 34/5/1 33/5/1
f 34/5/1 35/5/1 36/5/1
f 34/5/1 36/5/1 37/5/1
f 37/5/1 36/5/1 38/5/1
f 37/5/1 38/5/1 39/5/1
f 39/5/1 38/5/1 40/5/1
f 27/4/72 33/5/73 34/5/72
f 33/5/74 27/4/75 25/4/76
f 29/4/77 38/5/78 36/5/77
f 38/5/78 29/4/77 31/4/79
f 40/5/80 31/4/81 32/4/82
f 31/4/78 40/5/83 38/5/78
f 28/4/84 34/5/75 37/5/84
f 34/5/85 28/4/84 27/4/86
f 26/4/87 36/5/77 35/5/87
f 36/5/77 26/4/88 29/4/89
f 30/4/90 37/5/84 39/5/90
f 37/5/84 30/4/91 28/4/92
f 26/4/88 33/5/93 25/4/94
f 33/5/73 26/4/95 35/5/95
f 40/5/96 30/4/91 39/5/91
f 30/4/97 40/5/82 32/4/80
f 43/6/98 42/7/99 41/7/98
f 42/7/99 43/6/98 44/6/99
f 47/6/100 46/7/101 45/7/100
f 46/7/101 47/6/100 48/6/101
f 50/6/102 45/7/100 49/7/102
f 45/7/100 50/6/102 47/6/100
f 48/6/101 41/7/98 46/7/101
f 41/7/98 48/6/101 43/6/98
f 52/7/103 44/6/99 51/6/103
f 44/6/99 52/7/103 42/7/104
f 52/7/103 50/6/105 49/7/102
f 50/6/102 52/7/103 51/6/103
f 41/7/1 45/7/1 46/7/1
f 45/7/1 41/7/1 42/7/1
f 45/7/1 42/7/1 49/7/1
f 49/7/1 42/7/1 52/7/1
f 55/6/106 54/8/107 53/8/108
f 54/8/107 55/6/106 56/6/109
f 59/8/110 58/6/111 57/6/112
f 58/6/113 59/8/114 60/8/115
f 63/6/116 62/8/117 61/8/118
f 62/8/117 63/6/116 64/6/119
f 64/6/120 53/8/121 62/8/117
f 53/8/121 64/6/119 55/6/122
f 64/6/123 56/6/124 55/6/125
f 56/6/124 64/6/123 58/6/126
f 58/6/126 64/6/123 63/6/127
f 58/6/126 63/6/127 57/6/128
f 59/8/110 63/6/129 61/8/118
f 63/6/130 59/8/110 57/6/131
f 54/8/1 62/8/1 53/8/1
f 62/8/1 54/8/1 60/8/1
f 62/8/1 60/8/1 61/8/1
f 61/8/1 60/8/1 59/8/1
f 56/6/132 60/8/115 54/8/107
f 60/8/115 56/6/132 58/6/111
f 67/6/133 66/9/134 65/9/133
f 66/9/134 67/6/133 68/6/134
f 70/6/135 65/9/133 69/9/135
f 65/9/133 70/6/135 67/6/133
f 68/6/136 71/9/137 66/9/134
f 71/9/137 68/6/134 72/6/137
f 72/6/137 73/9/138 71/9/137
f 73/9/139 72/6/137 74/6/139
f 71/9/1 65/9/1 66/9/1
f 65/9/1 71/9/1 69/9/1
f 69/9/1 71/9/1 73/9/1
f 69/9/1 73/9/1 75/9/1
f 76/6/140 69/9/135 75/9/141
f 69/9/135 76/6/142 70/6/135
f 73/9/139 76/6/141 75/9/141
f 76/6/141 73/9/139 74/6/139
f 79/10/143 78/10/144 77/11/145
f 78/10/144 79/10/143 41/6/143
f 78/10/144 41/6/143 42/6/144
f 77/11/146 78/10/147 79/10/148
f 41/6/148 79/10/148 78/10/147
f 42/6/147 41/6/148 78/10/147
f 81/11/149 49/6/150 80/10/151
f 49/6/152 81/11/149 52/6/153
f 52/6/153 81/11/149 82/10/153
f 80/10/154 49/6/154 81/11/155
f 52/6/156 81/11/155 49/6/154
f 82/10/156 81/11/155 52/6/156
f 82/10/153 42/6/144 52/6/153
f 42/6/144 82/10/153 83/11/157
f 42/6/144 83/11/157 78/10/144
f 52/6/156 42/6/147 82/10/156
f 83/11/158 82/10/156 42/6/147
f 78/10/147 83/11/158 42/6/147
f 46/6/159 85/11/160 84/10/159
f 85/11/160 46/6/159 41/6/161
f 85/11/162 41/6/163 79/10/143
f 84/10/164 85/11/165 46/6/164
f 41/6/148 46/6/164 85/11/165
f 79/10/148 41/6/166 85/11/167
f 80/10/151 87/10/168 86/11/169
f 87/10/168 80/10/151 49/6/151
f 87/10/168 49/6/151 45/6/168
f 86/11/170 87/10/171 80/10/154
f 49/6/154 80/10/154 87/10/171
f 45/6/171 49/6/154 87/10/171
f 45/6/172 88/11/173 87/10/168
f 88/11/174 45/6/168 46/6/159
f 88/11/174 46/6/159 84/10/159
f 87/10/175 88/11/176 45/6/177
f 46/6/164 45/6/171 88/11/178
f 84/10/164 46/6/164 88/11/178
f 91/10/179 90/10/180 89/11/181
f 90/10/180 91/10/179 75/6/179
f 90/10/180 75/6/179 69/6/180
f 89/11/182 90/10/183 91/10/184
f 75/6/184 91/10/184 90/10/183
f 69/6/183 75/6/184 90/10/183
f 65/6/185 93/11/186 92/10/187
f 93/11/186 65/6/187 66/6/188
f 93/11/186 66/6/189 94/10/188
f 92/10/190 93/11/191 65/6/190
f 66/6/192 65/6/193 93/11/191
f 94/10/194 66/6/194 93/11/191
f 97/10/195 96/10/196 95/11/197
f 96/10/196 97/10/195 71/6/195
f 96/10/196 71/6/195 73/6/196
f 95/11/198 96/10/199 97/10/200
f 71/6/200 97/10/200 96/10/199
f 73/6/199 71/6/200 96/10/199
f 98/11/201 75/6/179 91/10/179
f 75/6/179 98/11/201 73/6/196
f 73/6/196 98/11/201 96/10/196
f 91/10/184 75/6/184 98/11/202
f 73/6/199 98/11/202 75/6/184
f 96/10/199 98/11/202 73/6/199
f 94/10/188 97/10/195 99/11/203
f 97/10/195 94/10/188 66/6/188
f 97/10/195 66/6/188 71/6/195
f 99/11/204 97/10/200 94/10/192
f 66/6/192 94/10/192 97/10/200
f 71/6/200 66/6/192 97/10/200
f 90/10/180 92/10/187 100/11/205
f 92/10/187 90/10/180 69/6/180
f 92/10/187 69/6/180 65/6/187
f 100/11/206 92/10/193 90/10/183
f 69/6/183 90/10/183 92/10/193
f 65/6/193 69/6/183 92/10/193
f 102/11/149 61/6/152 101/10/151
f 61/6/151 102/11/149 59/6/153
f 59/6/153 102/11/149 103/10/153
f 101/10/154 61/6/207 102/11/208
f 59/6/156 102/11/155 61/6/154
f 103/10/156 102/11/155 59/6/156
f 103/10/153 60/6/144 59/6/153
f 60/6/144 103/10/153 104/11/157
f 60/6/144 104/11/209 105/10/144
f 59/6/156 60/6/147 103/10/156
f 104/11/158 103/10/156 60/6/147
f 105/10/147 104/11/210 60/6/211
f 62/6/168 107/11/174 106/10/168
f 107/11/212 62/6/168 53/6/159
f 107/11/173 53/6/159 108/10/159
f 106/10/171 107/11/178 62/6/171
f 53/6/164 62/6/171 107/11/213
f 108/10/164 53/6/164 107/11/176
f 110/10/143 105/10/144 109/11/145
f 105/10/144 110/10/143 54/6/143
f 105/10/144 54/6/143 60/6/144
f 109/11/146 105/10/147 110/10/148
f 54/6/148 110/10/148 105/10/147
f 60/6/147 54/6/148 105/10/147
f 101/10/151 106/10/168 111/11/169
f 106/10/168 101/10/151 61/6/151
f 106/10/168 61/6/151 62/6/168
f 111/11/170 106/10/171 101/10/154
f 61/6/154 101/10/154 106/10/171
f 62/6/171 61/6/154 106/10/171
f 53/6/159 112/11/162 108/10/159
f 112/11/160 53/6/159 54/6/143
f 112/11/160 54/6/143 110/10/143
f 108/10/164 112/11/167 53/6/164
f 54/6/148 53/6/164 112/11/165
f 110/10/148 54/6/148 112/11/165
f 3/1/1 2/1/1 1/1/1
f 2/1/1 3/1/1 4/1/1
f 4/1/1 3/1/1 5/1/1
f 4/1/1 5/1/1 6/1/1
f 6/1/1 5/1/1 7/1/1
f 6/1/1 7/1/1 8/1/1
f 9/2/2 1/1/3 2/1/4
f 1/1/3 9/2/2 10/2/5
f 11/2/6 1/1/3 10/2/7
f 1/1/3 11/2/8 3/1/9
f 12/2/10 2/1/4 4/1/11
f 2/1/4 12/2/10 9/2/12
f 13/2/13 4/1/14 6/1/15
f 4/1/14 13/2/13 12/2/16
f 7/1/17 14/2/18 8/1/19
f 14/2/18 7/1/17 15/2/20
f 11/2/21 5/1/22 3/1/9
f 5/1/22 11/2/21 16/2/23
f 8/1/19 13/2/24 6/1/15
f 13/2/25 8/1/19 14/2/26
f 7/1/27 16/2/28 15/2/29
f 16/2/30 7/1/27 5/1/31
f 14/2/32 18/3/33 17/3/34
f 18/3/35 14/2/32 15/2/36
f 16/2/37 18/3/38 15/2/39
f 18/3/38 16/2/40 19/3/41
f 21/3/42 9/2/43 20/3/44
f 9/2/43 21/3/42 10/2/45
f 22/3/46 12/2/47 13/2/48
f 12/2/47 22/3/49 23/3/50
f 21/3/51 11/2/52 10/2/53
f 11/2/52 21/3/54 24/3/55
f 13/2/56 17/3/57 22/3/58
f 17/3/59 13/2/56 14/2/60
f 20/3/61 12/2/62 23/3/63
f 12/2/64 20/3/61 9/2/65
f 24/3/66 16/2/67 11/2/68
f 16/2/67 24/3/69 19/3/70
f 27/4/71 26/4/71 25/4/71
f 26/4/71 27/4/71 28/4/71
f 26/4/71 28/4/71 29/4/71
f 29/4/71 28/4/71 30/4/71
f 29/4/71 30/4/71 31/4/71
f 31/4/71 30/4/71 32/4/71
f 35/5/1 34/5/1 33/5/1
f 34/5/1 35/5/1 36/5/1
f 34/5/1 36/5/1 37/5/1
f 37/5/1 36/5/1 38/5/1
f 37/5/1 38/5/1 39/5/1
f 39/5/1 38/5/1 40/5/1
f 27/4/72 33/5/73 34/5/72
f 33/5/74 27/4/75 25/4/76
f 29/4/77 38/5/78 36/5/77
f 38/5/78 29/4/77 31/4/79
f 40/5/80 31/4/81 32/4/82
f 31/4/78 40/5/83 38/5/78
f 28/4/84 34/5/75 37/5/84
f 34/5/85 28/4/84 27/4/86
f 26/4/87 36/5/77 35/5/87
f 36/5/77 26/4/88 29/4/89
f 30/4/90 37/5/84 39/5/90
f 37/5/84 30/4/91 28/4/92
f 26/4/88 33/5/93 25/4/94
f 33/5/73 26/4/95 35/5/95
f 40/5/96 30/4/91 39/5/91
f 30/4/97 40/5/82 32/4/80
f 43/6/98 42/7/99 41/7/98
f 42/7/99 43/6/98 44/6/99
f 47/6/100 46/7/101 45/7/100
f 46/7/101 47/6/100 48/6/101
f 50/6/102 45/7/100 49/7/102
f 45/7/100 50/6/102 47/6/100
f 48/6/101 41/7/98 46/7/101
f 41/7/98 48/6/101 43/6/98
f 52/7/103 44/6/99 51/6/103
f 44/6/99 52/7/103 42/7/104
f 52/7/103 50/6/105 49/7/102
f 50/6/102 52/7/103 51/6/103
f 41/7/1 45/7/1 46/7/1
f 45/7/1 41/7/1 42/7/1
f 45/7/1 42/7/1 49/7/1
f 49/7/1 42/7/1 52/7/1
f 55/6/106 54/8/107 53/8/108
f 54/8/107 55/6/106 56/6/109
f 59/8/110 58/6/111 57/6/112
f 58/6/113 59/8/114 60/8/115
f 63/6/116 62/8/117 61/8/118
f 62/8/117 63/6/116 64/6/119
f 64/6/120 53/8/121 62/8/117
f 53/8/121 64/6/119 55/6/122
f 64/6/123 56/6/124 55/6/125
f 56/6/124 64/6/123 58/6/126
f 58/6/126 64/6/123 63/6/127
f 58/6/126 63/6/127 57/6/128
f 59/8/110 63/6/129 61/8/118
f 63/6/130 59/8/110 57/6/131
f 54/8/1 62/8/1 53/8/1
f 62/8/1 54/8/1 60/8/1
f 62/8/1 60/8/1 61/8/1
f 61/8/1 60/8/1 59/8/1
f 56/6/132 60/8/115 54/8/107
f 60/8/115 56/6/132 58/6/111
f 67/6/133 66/9/134 65/9/133
f 66/9/134 67/6/133 68/6/134
f 70/6/135 65/9/133 69/9/135
f 65/9/133 70/6/135 67/6/133
f 68/6/136 71/9/137 66/9/134
f 71/9/137 68/6/134 72/6/137
f 72/6/137 73/9/138 71/9/137
f 73/9/139 72/6/137 74/6/139
f 71/9/1 65/9/1 66/9/1
f 65/9/1 71/9/1 69/9/1
f 69/9/1 71/9/1 73/9/1
f 69/9/1 73/9/1 75/9/1
f 76/6/140 69/9/135 75/9/141
f 69/9/135 76/6/142 70/6/135
f 73/9/139 76/6/141 75/9/141
f 76/6/141 73/9/139 74/6/139
f 79/10/143 78/10/144 77/11/145
f 78/10/144 79/10/143 41/6/143
f 78/10/144 41/6/143 42/6/144
f 77/11/146 78/10/147 79/10/148
f 41/6/148 79/10/148 78/10/147
f 42/6/147 41/6/148 78/10/147
f 81/11/149 49/6/150 80/10/151
f 49/6/152 81/11/149 52/6/153
f 52/6/153 81/11/149 82/10/153
f 80/10/154 49/6/154 81/11/155
f 52/6/156 81/11/155 49/6/154
f 82/10/156 81/11/155 52/6/156
f 82/10/153 42/6/144 52/6/153
f 42/6/144 82/10/153 83/11/157
f 42/6/144 83/11/157 78/10/144
f 52/6/156 42/6/147 82/10/156
f 83/11/158 82/10/156 42/6/147
f 78/10/147 83/11/158 42/6/147
f 46/6/159 85/11/160 84/10/159
f 85/11/160 46/6/159 41/6/161
f 85/11/162 41/6/163 79/10/143
f 84/10/164 85/11/165 46/6/164
f 41/6/148 46/6/164 85/11/165
f 79/10/148 41/6/166 85/11/167
f 80/10/151 87/10/168 86/11/169
f 87/10/168 80/10/151 49/6/151
f 87/10/168 49/6/151 45/6/168
f 86/11/170 87/10/171 80/10/154
f 49/6/154 80/10/154 87/10/171
f 45/6/171 49/6/154 87/10/171
f 45/6/172 88/11/173 87/10/168
f 88/11/174 45/6/168 46/6/159
f 88/11/174 46/6/159 84/10/159
f 87/10/175 88/11/176 45/6/177
f 46/6/164 45/6/171 88/11/178
f 84/10/164 46/6/164 88/11/178
f 91/10/179 90/10/180 89/11/181
f 90/10/180 91/10/179 75/6/179
f 90/10/180 75/6/179 69/6/180
f 89/11/182 90/10/183 91/10/184
f 75/6/184 91/10/184 90/10/183
f 69/6/183 75/6/184 90/10/183
f 65/6/185 93/11/186 92/10/187
f 93/11/186 65/6/187 66/6/188
f 93/11/186 66/6/189 94/10/188
f 92/10/190 93/11/191 65/6/190
f 66/6/192 65/6/193 93/11/191
f 94/10/194 66/6/194 93/11/191
f 97/10/195 96/10/196 95/11/197
f 96/10/196 97/10/195 71/6/195
f 96/10/196 71/6/195 73/6/196
f 95/11/198 96/10/199 97/10/200
f 71/6/200 97/10/200 96/10/199
f 73/6/199 71/6/200 96/10/199
f 98/11/201 75/6/179 91/10/179
f 75/6/179 98/11/201 73/6/196
f 73/6/196 98/11/201 96/10/196
f 91/10/184 75/6/184 98/11/202
f 73/6/199 98/11/202 75/6/184
f 96/10/199 98/11/202 73/6/199
f 94/10/188 97/10/195 99/11/203
f 97/10/195 94/10/188 66/6/188
f 97/10/195 66/6/188 71/6/195
f 99/11/204 97/10/200 94/10/192
f 66/6/192 94/10/192 97/10/200
f 71/6/200 66/6/192 97/10/200
f 90/10/180 92/10/187 100/11/205
f 92/10/187 90/10/180 69/6/180
f 92/10/187 69/6/180 65/6/187
f 100/11/206 92/10/193 90/10/183
f 69/6/183 90/10/183 92/10/193
f 65/6/193 69/6/183 92/10/193
f 102/11/149 61/6/152 101/10/151
f 61/6/151 102/11/149 59/6/153
f 59/6/153 102/11/149 103/10/153
f 101/10/154 61/6/207 102/11/208
f 59/6/156 102/11/155 61/6/154
f 103/10/156 102/11/155 59/6/156
f 103/10/153 60/6/144 59/6/153
f 60/6/144 103/10/153 104/11/157
f 60/6/144 104/11/209 105/10/144
f 59/6/156 60/6/147 103/10/156
f 104/11/158 103/10/156 60/6/147
f 105/10/147 104/11/210 60/6/211
f 62/6/168 107/11/174 106/10/168
f 107/11/212 62/6/168 53/6/159
f 107/11/173 53/6/159 108/10/159
f 106/10/171 107/11/178 62/6/171
f 53/6/164 62/6/171 107/11/213
f 108/10/164 53/6/164 107/11/176
f 110/10/143 105/10/144 109/11/145
f 105/10/144 110/10/143 54/6/143
f 105/10/144 54/6/143 60/6/144
f 109/11/146 105/10/147 110/10/148
f 54/6/148 110/10/148 105/10/147
f 60/6/147 54/6/148 105/10/147
f 101/10/151 106/10/168 111/11/169
f 106/10/168 101/10/151 61/6/151
f 106/10/168 61/6/151 62/6/168
f 111/11/170 106/10/171 101/10/154
f 61/6/154 101/10/154 106/10/171
f 62/6/171 61/6/154 106/10/171
f 53/6/159 112/11/162 108/10/159
f 112/11/160 53/6/159 54/6/143
f 112/11/160 54/6/143 110/10/143
f 108/10/164 112/11/167 53/6/164
f 54/6/148 53/6/164 112/11/165
f 110/10/148 54/6/148 112/11/165
