# Blender 4.1.1
# www.blender.org
mtllib cliff_waterfallTop_stone.mtl
o cliff_waterfallTop_stone
v 0.727008 0.461899 0.778156
v 0.260008 0.461899 0.778156
v 0.710508 0.461899 0.711031
v 0.276508 0.461899 0.711031
v 0.743508 0.392775 0.845281
v 0.243508 0.392775 0.845281
v 0.743508 -0.488101 0.845281
v 0.576842 -0.488101 0.845281
v 0.410175 -0.488101 0.845281
v 0.243508 -0.488101 0.845281
v 0.493508 -0.488101 0.811031
v -0.006492 -0.488101 0.711031
v -0.006492 0.511899 0.711031
v -0.006492 -0.488101 0.879531
v -0.006492 0.511899 0.879531
v 0.826841 -0.488101 0.811031
v 0.826841 0.511899 0.811031
v 0.743508 0.461899 0.845281
v 0.799819 0.511899 0.822137
v 0.993508 -0.488101 0.711031
v 0.214508 0.511899 0.711031
v 0.114508 0.511899 0.711031
v 0.993508 0.511899 0.711031
v 0.872508 0.511899 0.711031
v 0.772508 0.511899 0.711031
v 0.993508 -0.488101 0.879531
v 0.993508 0.511899 0.879531
v 0.243508 0.461899 0.845281
v 0.160175 -0.488101 0.811031
v 0.160175 0.511899 0.811031
v 0.187197 0.511899 0.822137
v 0.993508 0.411899 0.979531
v -0.006492 0.411899 0.979531
vn -0.0000 1.0000 -0.0000
vn -0.0000 0.6967 0.7174
vn -0.0000 -0.0000 1.0000
vn -0.0000 -1.0000 -0.0000
vn -1.0000 -0.0000 -0.0000
vn 0.3801 -0.0000 0.9249
vn -0.0000 -0.0000 -1.0000
vn -0.3801 -0.0000 0.9249
vn 0.9711 -0.0000 0.2387
vn 1.0000 -0.0000 -0.0000
vn -0.9711 -0.0000 0.2387
vn -0.2791 0.6790 0.6790
vn 0.2791 0.6790 0.6790
vn 0.6204 0.7693 0.1525
vn -0.6204 0.7693 0.1525
vn -0.6203 0.7694 0.1525
vn -0.6204 0.7693 0.1526
vt -8.543307 -19.685040
vt 9.192913 -17.042320
vt -9.192913 -17.042320
vt 8.543307 -19.685040
vt 9.192913 38.704620
vt -9.842520 34.911221
vt 9.842520 34.911221
vt -9.192913 38.704620
vt 9.842520 34.680191
vt 3.280840 0.000000
vt 9.842520 0.000000
vt -3.280840 0.000000
vt -9.842520 34.680191
vt -9.842520 0.000000
vt -13.051180 0.000000
vt -19.685040 39.370079
vt -19.685040 0.000000
vt -13.051180 39.370079
vt 18.124680 39.370079
vt 14.577550 -0.000000
vt 18.124680 -0.000000
vt 14.577550 34.680191
vt 14.577550 37.401569
vt 16.974461 39.370079
vt 19.685040 39.370079
vt -19.685040 0.000000
vt 19.685040 0.000000
vt 8.543307 37.401569
vt 10.984250 39.370079
vt 14.921260 39.370079
vt -8.543307 37.401569
vt -14.921260 39.370079
vt -10.984250 39.370079
vt 13.245880 39.370079
vt 6.151614 0.000000
vt 13.245880 0.000000
vt 6.151614 39.370079
vt 11.633900 37.401569
vt 11.633900 34.680191
vt 14.355280 37.401569
vt 13.123360 -15.748030
vt 19.685040 -19.685040
vt 19.685040 -13.051180
vt -19.685040 -19.685040
vt 9.842520 -14.399610
vt 0.000000 -15.748030
vt 3.280840 -14.399610
vt -3.280840 -14.399610
vt -9.842520 -14.399610
vt -13.123360 -15.748030
vt -19.685040 -13.051180
vt 13.051180 39.370079
vt 19.685040 0.000000
vt 13.051180 0.000000
vt -11.633900 37.401569
vt -14.355280 37.401569
vt -11.633900 34.680191
vt -14.577550 34.680191
vt -18.124680 -0.000000
vt -14.577550 -0.000000
vt -18.124680 39.370079
vt -14.577550 37.401569
vt -16.974461 39.370079
vt -6.151614 39.370079
vt -13.245880 0.000000
vt -6.151614 0.000000
vt -13.245880 39.370079
vt 14.921260 -19.685040
vt 6.151614 42.180401
vt 14.742520 36.817558
vt 13.245880 42.180401
vt -14.921260 -19.685040
vt -13.245880 42.180401
vt -14.742520 36.817558
vt -6.151614 42.180401
vt 12.059490 -15.310780
vt 10.984250 -19.685040
vt -10.984250 -19.685040
vt -12.059490 -15.310780
vt 16.493999 36.973579
vt 14.355280 33.892391
vt 17.076670 33.892391
vt 11.633900 33.892391
vt 11.989530 36.973579
vt -16.493999 36.973579
vt -11.633900 33.892391
vt -11.989530 36.973579
vt -17.076670 33.892391
vt -14.355280 33.892391
s 0
usemtl water.003
f 3/1/1 2/2/1 1/3/1
f 2/2/1 3/1/1 4/4/1
f 1/5/2 6/6/2 5/7/2
f 6/6/2 1/5/2 2/8/2
f 5/9/3 8/10/3 7/11/3
f 8/10/3 5/9/3 9/12/3
f 6/13/3 9/12/3 5/9/3
f 9/12/3 6/13/3 10/14/3
usemtl _defaultMat.005
f 9/2/4 11/1/4 8/4/4
usemtl stone.045
f 14/15/5 13/16/5 12/17/5
f 13/16/5 14/15/5 15/18/5
f 17/19/6 7/20/6 16/21/6
f 7/20/6 17/19/6 5/22/6
f 5/22/6 17/19/6 18/23/6
f 18/23/6 17/19/6 19/24/6
f 13/25/7 20/26/7 12/27/7
f 20/26/7 13/25/7 4/28/7
f 4/28/7 13/25/7 21/29/7
f 21/29/7 13/25/7 22/30/7
f 3/31/7 20/26/7 4/28/7
f 20/26/7 3/31/7 23/16/7
f 23/16/7 3/31/7 24/32/7
f 24/32/7 3/31/7 25/33/7
f 27/34/8 16/35/8 26/36/8
f 16/35/8 27/34/8 17/37/8
f 28/38/9 6/39/9 2/40/9
f 16/41/4 20/42/4 26/43/4
f 20/42/4 16/41/4 12/44/4
f 12/44/4 16/41/4 7/45/4
f 12/44/4 7/45/4 11/46/4
f 11/46/4 7/45/4 8/47/4
f 12/44/4 11/46/4 9/48/4
f 12/44/4 9/48/4 10/49/4
f 12/44/4 10/49/4 29/50/4
f 12/44/4 29/50/4 14/51/4
f 27/52/10 20/53/10 23/25/10
f 20/53/10 27/52/10 26/54/10
f 18/55/11 1/56/11 5/57/11
f 6/58/8 29/59/8 10/60/8
f 29/59/8 6/58/8 30/61/8
f 30/61/8 6/58/8 28/62/8
f 30/61/8 28/62/8 31/63/8
f 30/64/6 14/65/6 29/66/6
f 14/65/6 30/64/6 15/67/6
usemtl grass.037
f 22/68/1 15/43/1 30/41/1
f 15/43/1 22/68/1 13/42/1
f 17/69/12 32/70/12 27/71/12
f 24/72/1 27/51/1 23/44/1
f 27/51/1 24/72/1 17/50/1
f 15/73/13 33/74/13 30/75/13
usemtl dirt.028
f 22/68/1 31/76/1 21/77/1
f 31/76/1 22/68/1 30/41/1
f 25/78/1 17/50/1 24/72/1
f 17/50/1 25/78/1 19/79/1
usemtl dirtDark.001
f 21/80/14 2/81/14 4/82/14
f 2/81/14 21/80/14 28/83/14
f 28/83/14 21/80/14 31/84/14
f 25/85/15 18/86/15 19/87/15
f 18/86/15 25/85/15 3/88/15
f 18/86/16 3/88/17 1/89/15
