# Blender 4.1.1
# www.blender.org
mtllib tree.003.mtl
o tree.003
v -18.064489 -4.675250 -1.225817
v -18.064489 -4.675250 -1.417894
v -18.160528 -4.675250 -1.129779
v -18.160528 -4.675250 -1.513933
v -18.352604 -4.675250 -1.129779
v -18.352604 -4.675250 -1.513933
v -18.448645 -4.675250 -1.225817
v -18.448645 -4.675250 -1.417894
v -18.160528 -4.327483 -1.369875
v -18.160528 -4.327483 -1.273836
v -18.208548 -4.327483 -1.225817
v -18.208548 -4.327483 -1.417894
v -18.304586 -4.327483 -1.417894
v -18.352604 -4.327483 -1.369875
v -18.352604 -4.327483 -1.273836
v -18.304586 -4.327483 -1.225817
v -18.376616 -3.805793 -1.381880
v -18.376616 -3.805793 -1.261832
v -18.316591 -3.805793 -1.201807
v -18.136518 -3.805793 -1.381880
v -18.136518 -3.805793 -1.261832
v -18.316591 -3.805793 -1.441904
v -18.196543 -3.805793 -1.441904
v -18.196543 -3.805793 -1.201807
v -18.097824 -4.203316 -1.368799
v -18.126663 -4.203316 -1.299174
v -18.126663 -4.203316 -1.438425
v -18.196289 -4.203316 -1.467265
v -18.196289 -4.203316 -1.270334
v -18.265915 -4.203316 -1.438425
v -18.265915 -4.203316 -1.299174
v -18.294756 -4.203316 -1.368799
v -18.042051 -4.329511 -1.368799
v -18.087227 -4.329511 -1.477862
v -18.087227 -4.329511 -1.259737
v -18.196289 -4.329511 -1.214561
v -18.196289 -4.329511 -1.523037
v -18.305351 -4.329511 -1.259737
v -18.305351 -4.329511 -1.477862
v -18.350529 -4.329511 -1.368799
v -18.026709 -3.805793 -0.907602
v -18.505049 -3.805793 -0.907602
v -18.124767 -3.230796 -1.077444
v -18.406990 -3.230796 -1.077444
v -18.026709 -3.805793 -1.736110
v -17.787540 -3.805793 -1.321856
v -18.124767 -3.230796 -1.566267
v -17.983656 -3.230796 -1.321856
v -18.505049 -3.805793 -1.736110
v -18.406990 -3.230796 -1.566267
v -18.548100 -3.230796 -1.321856
v -18.744219 -3.805793 -1.321856
v -17.990067 -2.613048 -1.321856
v -18.127974 -2.613048 -1.082996
v -18.202484 -1.965096 -1.321856
v -18.234182 -1.965096 -1.266955
v -18.329273 -1.965096 -1.321856
v -18.297577 -1.965096 -1.266955
v -18.541689 -2.613048 -1.321856
v -18.403784 -2.613048 -1.082996
v -18.403784 -2.613048 -1.560715
v -18.127974 -2.613048 -1.560715
v -18.297577 -1.965096 -1.376757
v -18.234182 -1.965096 -1.376757
v -17.929087 -3.230796 -1.516303
v -17.929087 -3.230796 -1.127409
v -18.111557 -2.613048 -1.410954
v -18.111557 -2.613048 -1.232758
v -18.265879 -3.230796 -1.710750
v -18.265879 -2.613048 -1.500051
v -18.265879 -3.230796 -0.932962
v -18.265879 -2.613048 -1.143660
v -18.602671 -3.230796 -1.127409
v -18.420200 -2.613048 -1.232758
v -18.602671 -3.230796 -1.516303
v -18.420200 -2.613048 -1.410954
v -18.265879 -3.985170 -0.816466
v -18.531357 -3.895481 -0.862034
v -18.000399 -3.895481 -0.862034
v -18.531357 -3.895482 -1.781678
v -18.703560 -3.985170 -1.574551
v -18.796835 -3.895481 -1.321856
v -18.703560 -3.985170 -1.069161
v -17.734922 -3.895481 -1.321856
v -17.828197 -3.985170 -1.069161
v -18.265879 -3.985170 -1.827246
v -18.000399 -3.895482 -1.781678
v -17.828197 -3.985170 -1.574551
v -18.471323 -3.376631 -1.677693
v -18.265879 -3.303713 -1.753528
v -18.639719 -3.303713 -1.537692
v -17.892040 -3.303713 -1.537692
v -17.854992 -3.376631 -1.321856
v -17.892040 -3.303713 -1.106020
v -18.471323 -3.376631 -0.966018
v -18.639719 -3.303713 -1.106020
v -18.265879 -3.303713 -0.890184
v -18.676765 -3.376631 -1.321856
v -18.060436 -3.376631 -0.966018
v -18.060436 -3.376631 -1.677693
v -18.418953 -2.664763 -1.586990
v -18.518246 -2.716478 -1.467560
v -18.572029 -2.664763 -1.321856
v -18.518246 -2.716478 -1.176152
v -18.418953 -2.664763 -1.056722
v -18.112803 -2.664763 -1.586990
v -18.013512 -2.716478 -1.467560
v -17.959728 -2.664763 -1.321856
v -18.265879 -2.716478 -1.030447
v -18.112803 -2.664763 -1.056722
v -18.265879 -2.716478 -1.613264
v -18.013512 -2.716478 -1.176152
vn -0.0000 -1.0000 -0.0000
vn 0.8851 0.2942 -0.3607
vn 0.8813 0.2944 0.3698
vn 0.8812 0.2944 -0.3698
vn 0.8812 0.2944 0.3698
vn 0.8851 0.2942 0.3607
vn 0.3607 0.2942 0.8850
vn 0.8850 0.2942 0.3608
vn 0.3608 0.2943 0.8850
vn 0.3698 0.2944 0.8812
vn 0.3608 0.2942 -0.8850
vn 0.3698 0.2944 -0.8812
vn 0.3607 0.2942 -0.8850
vn 0.8850 0.2942 -0.3608
vn -0.3607 0.2942 -0.8851
vn -0.3698 0.2944 -0.8812
vn 0.3607 0.2942 -0.8851
vn -0.8813 0.2944 0.3698
vn -0.8851 0.2942 -0.3607
vn -0.8812 0.2944 -0.3698
vn -0.8851 0.2942 0.3607
vn 0.3607 0.2942 0.8851
vn -0.3698 0.2944 0.8813
vn -0.3698 0.2944 0.8812
vn -0.3607 0.2942 0.8851
vn -0.3607 0.2942 -0.8850
vn -0.3608 0.2942 -0.8850
vn -0.8812 0.2944 0.3698
vn -0.3608 0.2942 0.8850
vn -0.8850 0.2942 0.3607
vn -0.3607 0.2942 0.8850
vn -0.9230 -0.0513 -0.3813
vn -0.9223 -0.0512 0.3829
vn -0.9223 -0.0513 -0.3829
vn -0.9223 -0.0513 0.3829
vn -0.9230 -0.0513 0.3813
vn -0.3814 -0.0512 0.9230
vn -0.9223 -0.0513 0.3830
vn -0.9230 -0.0512 0.3813
vn -0.3814 -0.0513 0.9230
vn -0.3830 -0.0512 0.9223
vn 0.9223 -0.0512 0.3829
vn 0.9230 -0.0513 -0.3813
vn 0.9223 -0.0513 -0.3829
vn 0.9230 -0.0513 0.3813
vn -0.3829 -0.0513 -0.9223
vn 0.3813 -0.0513 -0.9230
vn -0.3813 -0.0513 -0.9230
vn -0.3829 -0.0512 -0.9223
vn 0.3829 -0.0513 -0.9223
vn 0.9223 -0.0513 0.3830
vn 0.3814 -0.0513 0.9230
vn 0.9230 -0.0512 0.3814
vn 0.9223 -0.0512 0.3830
vn 0.3830 -0.0513 0.9223
vn -0.3814 -0.0513 -0.9230
vn -0.9223 -0.0512 -0.3830
vn -0.3830 -0.0513 -0.9223
vn -0.9223 -0.0513 -0.3830
vn 0.9223 -0.0513 -0.3830
vn 0.3830 -0.0512 -0.9223
vn 0.3814 -0.0512 -0.9230
vn 0.9230 -0.0512 -0.3814
vn 0.3829 -0.0513 0.9223
vn -0.3813 -0.0513 0.9230
vn 0.3813 -0.0513 0.9230
vn 0.3829 -0.0512 0.9223
vn -0.3829 -0.0513 0.9223
vn -0.0000 1.0000 -0.0000
vn 0.6468 0.4042 -0.6467
vn 0.9147 0.4042 -0.0000
vn 0.9147 0.4042 -0.0001
vn 0.6468 0.4042 -0.6468
vn 0.9146 0.4043 -0.0001
vn -0.0000 0.4042 0.9147
vn -0.6467 0.4042 0.6468
vn -0.6468 0.4042 0.6468
vn -0.6467 0.4043 0.6468
vn -0.9147 0.4042 -0.0000
vn -0.9146 0.4043 -0.0000
vn -0.0000 0.4042 -0.9147
vn 0.6467 0.4042 -0.6468
vn 0.6467 0.4043 -0.6468
vn 0.6468 0.4042 0.6468
vn 0.6467 0.4042 0.6468
vn -0.0000 0.4043 0.9146
vn -0.6468 0.4042 -0.6468
vn -0.6467 0.4042 -0.6468
vn -0.0000 0.4042 -0.9146
vn 0.9146 0.4043 0.0001
vn 0.9147 0.4042 0.0001
vn 0.6468 0.4042 0.6467
vn -0.6468 0.4042 -0.6467
vn -0.9146 0.4043 -0.0001
vn -0.9147 0.4042 -0.0001
vn 0.4732 0.3228 0.8197
vn -0.4732 0.3228 0.8197
vn 0.4732 0.3228 -0.8197
vn 0.9465 0.3228 -0.0000
vn 0.4732 0.3228 -0.8196
vn -0.4732 0.3228 -0.8197
vn 0.4733 0.3228 0.8197
vn -0.9465 0.3228 -0.0000
vn -0.4732 0.3228 0.8196
vn -0.4733 0.3228 -0.8197
vn -0.4732 0.3228 -0.8196
vn 0.6877 0.7260 -0.0000
vn 0.4751 0.3115 0.8229
vn 0.9503 0.3115 -0.0000
vn 0.4752 0.3116 0.8229
vn 0.6877 0.7260 -0.0001
vn 0.3439 0.7260 0.5956
vn -0.9502 0.3115 0.0001
vn -0.3438 0.7260 0.5956
vn -0.6877 0.7260 -0.0000
vn -0.9503 0.3115 -0.0000
vn -0.4752 0.3115 0.8229
vn -0.3439 0.7260 -0.5956
vn 0.4751 0.3115 -0.8229
vn -0.4751 0.3115 -0.8229
vn 0.3439 0.7260 -0.5956
vn 0.3438 0.7260 -0.5956
vn 0.9502 0.3115 -0.0000
vn 0.9502 0.3115 -0.0001
vn 0.3439 0.7259 -0.5956
vn 0.3439 0.7259 0.5956
vn 0.6877 0.7259 -0.0000
vn -0.3439 0.7259 0.5956
vn -0.3439 0.7259 -0.5956
vn -0.6877 0.7259 -0.0000
vn -0.9502 0.3115 -0.0000
vn -0.4752 0.3115 -0.8229
vn -0.3438 0.7260 -0.5956
vn -0.9502 0.3115 -0.0001
vn -0.4751 0.3115 0.8229
vn -0.3439 0.7260 0.5956
vn 0.8197 0.3228 -0.4732
vn 0.8197 0.3228 0.4732
vn -0.0000 0.3228 -0.9465
vn 0.8197 0.3228 -0.4733
vn 0.8196 0.3228 0.4732
vn -0.0000 0.3228 0.9465
vn 0.8197 0.3228 0.4733
vn -0.8196 0.3228 0.4732
vn -0.8197 0.3228 0.4732
vn -0.8197 0.3228 0.4733
vn -0.8196 0.3228 -0.4732
vn -0.8197 0.3228 -0.4732
vn -0.8197 0.3228 -0.4733
vn 0.4313 0.5060 0.7470
vn -0.4313 0.5060 0.7470
vn -0.0000 0.4530 0.8915
vn -0.0000 -0.4530 -0.8915
vn 0.4313 -0.5060 -0.7470
vn -0.4313 -0.5060 -0.7470
vn -0.7721 0.4530 -0.4458
vn -0.4313 0.5060 -0.7470
vn -0.4313 0.5060 -0.7469
vn -0.8625 0.5060 -0.0000
vn -0.7721 0.4529 -0.4458
vn 0.4313 -0.5060 0.7470
vn 0.7721 -0.4530 0.4458
vn 0.8625 -0.5060 -0.0000
vn 0.7721 -0.4529 0.4458
vn -0.7721 0.4530 0.4458
vn 0.7721 -0.4530 -0.4458
vn 0.4312 -0.5060 -0.7470
vn 0.8625 0.5060 -0.0000
vn 0.7721 0.4530 0.4458
vn 0.4313 0.5060 0.7469
vn 0.4312 0.5060 0.7470
vn -0.8625 -0.5060 -0.0000
vn -0.7721 -0.4530 -0.4458
vn -0.4312 -0.5060 -0.7470
vn 0.4313 0.5060 -0.7470
vn -0.0000 0.4530 -0.8915
vn -0.0000 -0.4530 0.8915
vn -0.4313 -0.5060 0.7470
vn 0.7721 0.4530 -0.4458
vn -0.7721 -0.4530 0.4458
vn -0.4312 -0.5060 0.7470
vn -0.7470 0.5060 -0.4313
vn -0.0000 0.5060 -0.8625
vn -0.4458 0.4530 -0.7721
vn 0.4458 -0.4530 0.7721
vn -0.0000 -0.5060 0.8625
vn 0.7470 -0.5060 0.4313
vn 0.7470 0.5060 -0.4313
vn 0.8915 0.4530 -0.0000
vn 0.7470 0.5060 0.4313
vn -0.7470 -0.5060 0.4313
vn -0.8915 -0.4530 -0.0000
vn -0.7470 -0.5060 -0.4313
vn -0.0000 0.5060 0.8625
vn -0.7470 0.5060 0.4313
vn -0.4458 0.4530 0.7721
vn 0.4458 -0.4530 -0.7721
vn 0.7470 -0.5060 -0.4313
vn -0.0000 -0.5060 -0.8625
vn -0.8915 0.4530 -0.0000
vn -0.7470 0.5061 -0.4312
vn -0.7470 0.5060 0.4312
vn 0.7470 -0.5060 0.4312
vn 0.8915 -0.4530 -0.0000
vn 0.7470 -0.5060 -0.4312
vn 0.7470 -0.5061 -0.4312
vn 0.4458 0.4530 0.7721
vn -0.4458 -0.4530 -0.7721
vn 0.4458 0.4530 -0.7721
vn -0.4458 -0.4530 0.7721
vn -0.7721 0.4530 -0.4457
vn -0.4313 0.5061 -0.7469
vn -0.4312 0.5060 -0.7470
vn -0.4313 0.5060 0.7469
vn -0.7721 0.4530 0.4457
vn 0.4313 -0.5060 -0.7469
vn 0.4313 0.5060 -0.7469
vn 0.7721 0.4530 -0.4457
vn 0.7721 0.4529 -0.4458
vn -0.4313 -0.5060 0.7469
vn -0.7721 -0.4530 0.4457
vn -0.4313 -0.5061 0.7469
vn -0.7721 -0.4529 0.4458
vn 0.7721 0.4529 0.4458
vn 0.7721 0.4530 0.4457
vn 0.4313 0.5061 0.7469
vn -0.7721 -0.4529 -0.4458
vn -0.4313 -0.5060 -0.7469
vn -0.7721 -0.4530 -0.4457
vt 0.593750 0.025000
vt 0.593750 0.104996
vt 0.593750 0.225000
vt 0.093750 0.475000
vt 0.093750 0.275000
vt 0.093750 0.425000
vt 0.093750 0.348778
vt 0.093750 0.338765
vt 0.093750 0.344099
vt 0.093750 0.375000
vt 0.093750 0.325000
s 0
usemtl colormap.002
f 3/1/1 2/1/1 1/1/1
f 2/1/1 3/1/1 4/1/1
f 4/1/1 3/1/1 5/1/1
f 4/1/1 5/1/1 6/1/1
f 6/1/1 5/1/1 7/1/1
f 6/1/1 7/1/1 8/1/1
f 9/2/2 1/1/3 2/1/4
f 1/1/5 9/2/2 10/2/6
f 11/2/7 1/1/5 10/2/8
f 1/1/5 11/2/9 3/1/10
f 12/2/11 2/1/4 4/1/12
f 2/1/4 12/2/13 9/2/14
f 13/2/15 4/1/12 6/1/16
f 4/1/12 13/2/15 12/2/17
f 7/1/18 14/2/19 8/1/20
f 14/2/19 7/1/18 15/2/21
f 11/2/22 5/1/23 3/1/10
f 5/1/24 11/2/22 16/2/25
f 8/1/20 13/2/26 6/1/16
f 13/2/27 8/1/20 14/2/19
f 7/1/28 16/2/29 15/2/30
f 16/2/31 7/1/28 5/1/24
f 14/2/32 18/3/33 17/3/34
f 18/3/35 14/2/32 15/2/36
f 16/2/37 18/3/38 15/2/39
f 18/3/38 16/2/40 19/3/41
f 21/3/42 9/2/43 20/3/44
f 9/2/43 21/3/42 10/2/45
f 22/3/46 12/2/47 13/2/48
f 12/2/47 22/3/49 23/3/50
f 21/3/51 11/2/52 10/2/53
f 11/2/52 21/3/54 24/3/55
f 13/2/56 17/3/57 22/3/58
f 17/3/59 13/2/56 14/2/32
f 20/3/60 12/2/47 23/3/61
f 12/2/62 20/3/60 9/2/63
f 24/3/64 16/2/65 11/2/66
f 16/2/65 24/3/67 19/3/68
f 27/4/69 26/4/69 25/4/69
f 26/4/69 27/4/69 28/4/69
f 26/4/69 28/4/69 29/4/69
f 29/4/69 28/4/69 30/4/69
f 29/4/69 30/4/69 31/4/69
f 31/4/69 30/4/69 32/4/69
f 35/5/1 34/5/1 33/5/1
f 34/5/1 35/5/1 36/5/1
f 34/5/1 36/5/1 37/5/1
f 37/5/1 36/5/1 38/5/1
f 37/5/1 38/5/1 39/5/1
f 39/5/1 38/5/1 40/5/1
f 27/4/70 33/5/71 34/5/70
f 33/5/72 27/4/73 25/4/74
f 29/4/75 38/5/76 36/5/75
f 38/5/77 29/4/75 31/4/78
f 40/5/79 31/4/77 32/4/80
f 31/4/77 40/5/79 38/5/77
f 28/4/81 34/5/82 37/5/81
f 34/5/73 28/4/81 27/4/83
f 26/4/84 36/5/75 35/5/85
f 36/5/75 26/4/84 29/4/86
f 30/4/87 37/5/81 39/5/88
f 37/5/81 30/4/88 28/4/89
f 26/4/84 33/5/90 25/4/91
f 33/5/71 26/4/92 35/5/92
f 40/5/79 30/4/93 39/5/87
f 30/4/87 40/5/94 32/4/95
f 43/6/96 42/7/97 41/7/96
f 42/7/97 43/6/96 44/6/97
f 47/6/98 46/7/99 45/7/100
f 46/7/99 47/6/98 48/6/99
f 50/6/101 45/7/98 49/7/101
f 45/7/98 50/6/101 47/6/98
f 48/6/99 41/7/96 46/7/99
f 41/7/102 48/6/99 43/6/102
f 52/7/103 44/6/97 51/6/103
f 44/6/97 52/7/103 42/7/104
f 52/7/103 50/6/105 49/7/106
f 50/6/101 52/7/103 51/6/103
f 41/7/1 45/7/1 46/7/1
f 45/7/1 41/7/1 42/7/1
f 45/7/1 42/7/1 49/7/1
f 49/7/1 42/7/1 52/7/1
f 55/6/107 54/8/108 53/8/109
f 54/8/110 55/6/111 56/6/112
f 59/8/113 58/6/114 57/6/115
f 58/6/114 59/8/116 60/8/117
f 63/6/118 62/8/119 61/8/120
f 62/8/119 63/6/118 64/6/121
f 64/6/122 53/8/123 62/8/119
f 53/8/124 64/6/122 55/6/107
f 64/6/125 56/6/126 55/6/127
f 56/6/126 64/6/125 58/6/128
f 58/6/128 64/6/125 63/6/129
f 58/6/128 63/6/129 57/6/130
f 59/8/131 63/6/118 61/8/132
f 63/6/133 59/8/134 57/6/115
f 54/8/1 62/8/1 53/8/1
f 62/8/1 54/8/1 60/8/1
f 62/8/1 60/8/1 61/8/1
f 61/8/1 60/8/1 59/8/1
f 56/6/112 60/8/135 54/8/108
f 60/8/135 56/6/112 58/6/136
f 67/6/137 66/9/138 65/9/137
f 66/9/138 67/6/137 68/6/138
f 70/6/139 65/9/137 69/9/139
f 65/9/137 70/6/139 67/6/140
f 68/6/141 71/9/142 66/9/138
f 71/9/142 68/6/143 72/6/142
f 72/6/142 73/9/144 71/9/142
f 73/9/145 72/6/142 74/6/146
f 71/9/1 65/9/1 66/9/1
f 65/9/1 71/9/1 69/9/1
f 69/9/1 71/9/1 73/9/1
f 69/9/1 73/9/1 75/9/1
f 76/6/147 69/9/139 75/9/148
f 69/9/139 76/6/149 70/6/139
f 73/9/145 76/6/148 75/9/148
f 76/6/148 73/9/145 74/6/145
f 79/10/150 78/10/151 77/11/152
f 78/10/151 79/10/150 41/6/150
f 78/10/151 41/6/150 42/6/151
f 77/11/153 78/10/154 79/10/155
f 41/6/155 79/10/155 78/10/154
f 42/6/154 41/6/155 78/10/154
f 81/11/156 49/6/157 80/10/157
f 49/6/158 81/11/156 52/6/159
f 52/6/159 81/11/160 82/10/159
f 80/10/161 49/6/161 81/11/162
f 52/6/163 81/11/162 49/6/161
f 82/10/163 81/11/164 52/6/163
f 82/10/159 42/6/151 52/6/159
f 42/6/151 82/10/159 83/11/165
f 42/6/151 83/11/165 78/10/151
f 52/6/163 42/6/154 82/10/163
f 83/11/166 82/10/163 42/6/154
f 78/10/154 83/11/166 42/6/167
f 46/6/168 85/11/169 84/10/168
f 85/11/169 46/6/168 41/6/170
f 85/11/169 41/6/171 79/10/150
f 84/10/172 85/11/173 46/6/172
f 41/6/155 46/6/172 85/11/173
f 79/10/155 41/6/174 85/11/173
f 80/10/157 87/10/175 86/11/176
f 87/10/175 80/10/157 49/6/157
f 87/10/175 49/6/157 45/6/175
f 86/11/177 87/10/178 80/10/161
f 49/6/161 80/10/161 87/10/178
f 45/6/178 49/6/161 87/10/178
f 45/6/175 88/11/179 87/10/175
f 88/11/179 45/6/175 46/6/168
f 88/11/179 46/6/168 84/10/168
f 87/10/178 88/11/180 45/6/181
f 46/6/172 45/6/178 88/11/180
f 84/10/172 46/6/172 88/11/180
f 91/10/182 90/10/183 89/11/184
f 90/10/183 91/10/182 75/6/182
f 90/10/183 75/6/182 69/6/183
f 89/11/185 90/10/186 91/10/187
f 75/6/187 91/10/187 90/10/186
f 69/6/186 75/6/187 90/10/186
f 65/6/188 93/11/189 92/10/188
f 93/11/189 65/6/188 66/6/190
f 93/11/189 66/6/190 94/10/190
f 92/10/191 93/11/192 65/6/191
f 66/6/193 65/6/191 93/11/192
f 94/10/193 66/6/193 93/11/192
f 97/10/194 96/10/195 95/11/196
f 96/10/195 97/10/194 71/6/194
f 96/10/195 71/6/194 73/6/195
f 95/11/197 96/10/198 97/10/199
f 71/6/199 97/10/199 96/10/198
f 73/6/198 71/6/199 96/10/198
f 98/11/200 75/6/201 91/10/182
f 75/6/182 98/11/200 73/6/195
f 73/6/202 98/11/200 96/10/195
f 91/10/203 75/6/203 98/11/204
f 73/6/198 98/11/204 75/6/187
f 96/10/205 98/11/204 73/6/206
f 94/10/190 97/10/194 99/11/207
f 97/10/194 94/10/190 66/6/190
f 97/10/194 66/6/190 71/6/194
f 99/11/208 97/10/199 94/10/193
f 66/6/193 94/10/193 97/10/199
f 71/6/199 66/6/193 97/10/199
f 90/10/183 92/10/188 100/11/209
f 92/10/188 90/10/183 69/6/183
f 92/10/188 69/6/183 65/6/188
f 100/11/210 92/10/191 90/10/186
f 69/6/186 90/10/186 92/10/191
f 65/6/191 69/6/186 92/10/191
f 102/11/211 61/6/212 101/10/157
f 61/6/213 102/11/156 59/6/159
f 59/6/159 102/11/156 103/10/159
f 101/10/161 61/6/161 102/11/162
f 59/6/163 102/11/162 61/6/161
f 103/10/163 102/11/162 59/6/163
f 103/10/159 60/6/151 59/6/159
f 60/6/151 103/10/159 104/11/165
f 60/6/214 104/11/215 105/10/151
f 59/6/163 60/6/154 103/10/163
f 104/11/166 103/10/163 60/6/154
f 105/10/154 104/11/166 60/6/216
f 62/6/217 107/11/218 106/10/175
f 107/11/179 62/6/175 53/6/168
f 107/11/219 53/6/168 108/10/168
f 106/10/220 107/11/221 62/6/222
f 53/6/172 62/6/178 107/11/180
f 108/10/172 53/6/172 107/11/223
f 110/10/150 105/10/151 109/11/152
f 105/10/151 110/10/150 54/6/150
f 105/10/151 54/6/150 60/6/151
f 109/11/153 105/10/154 110/10/155
f 54/6/155 110/10/155 105/10/154
f 60/6/154 54/6/155 105/10/154
f 101/10/157 106/10/175 111/11/176
f 106/10/175 101/10/157 61/6/157
f 106/10/175 61/6/157 62/6/175
f 111/11/177 106/10/178 101/10/161
f 61/6/161 101/10/161 106/10/178
f 62/6/178 61/6/161 106/10/178
f 53/6/168 112/11/224 108/10/168
f 112/11/169 53/6/168 54/6/171
f 112/11/225 54/6/226 110/10/170
f 108/10/172 112/11/227 53/6/172
f 54/6/155 53/6/172 112/11/173
f 110/10/228 54/6/228 112/11/229
f 3/1/1 2/1/1 1/1/1
f 2/1/1 3/1/1 4/1/1
f 4/1/1 3/1/1 5/1/1
f 4/1/1 5/1/1 6/1/1
f 6/1/1 5/1/1 7/1/1
f 6/1/1 7/1/1 8/1/1
f 9/2/2 1/1/3 2/1/4
f 1/1/5 9/2/2 10/2/6
f 11/2/7 1/1/5 10/2/8
f 1/1/5 11/2/9 3/1/10
f 12/2/11 2/1/4 4/1/12
f 2/1/4 12/2/13 9/2/14
f 13/2/15 4/1/12 6/1/16
f 4/1/12 13/2/15 12/2/17
f 7/1/18 14/2/19 8/1/20
f 14/2/19 7/1/18 15/2/21
f 11/2/22 5/1/23 3/1/10
f 5/1/24 11/2/22 16/2/25
f 8/1/20 13/2/26 6/1/16
f 13/2/27 8/1/20 14/2/19
f 7/1/28 16/2/29 15/2/30
f 16/2/31 7/1/28 5/1/24
f 14/2/32 18/3/33 17/3/34
f 18/3/35 14/2/32 15/2/36
f 16/2/37 18/3/38 15/2/39
f 18/3/38 16/2/40 19/3/41
f 21/3/42 9/2/43 20/3/44
f 9/2/43 21/3/42 10/2/45
f 22/3/46 12/2/47 13/2/48
f 12/2/47 22/3/49 23/3/50
f 21/3/51 11/2/52 10/2/53
f 11/2/52 21/3/54 24/3/55
f 13/2/56 17/3/57 22/3/58
f 17/3/59 13/2/56 14/2/32
f 20/3/60 12/2/47 23/3/61
f 12/2/62 20/3/60 9/2/63
f 24/3/64 16/2/65 11/2/66
f 16/2/65 24/3/67 19/3/68
f 27/4/69 26/4/69 25/4/69
f 26/4/69 27/4/69 28/4/69
f 26/4/69 28/4/69 29/4/69
f 29/4/69 28/4/69 30/4/69
f 29/4/69 30/4/69 31/4/69
f 31/4/69 30/4/69 32/4/69
f 35/5/1 34/5/1 33/5/1
f 34/5/1 35/5/1 36/5/1
f 34/5/1 36/5/1 37/5/1
f 37/5/1 36/5/1 38/5/1
f 37/5/1 38/5/1 39/5/1
f 39/5/1 38/5/1 40/5/1
f 27/4/70 33/5/71 34/5/70
f 33/5/72 27/4/73 25/4/74
f 29/4/75 38/5/76 36/5/75
f 38/5/77 29/4/75 31/4/78
f 40/5/79 31/4/77 32/4/80
f 31/4/77 40/5/79 38/5/77
f 28/4/81 34/5/82 37/5/81
f 34/5/73 28/4/81 27/4/83
f 26/4/84 36/5/75 35/5/85
f 36/5/75 26/4/84 29/4/86
f 30/4/87 37/5/81 39/5/88
f 37/5/81 30/4/88 28/4/89
f 26/4/84 33/5/90 25/4/91
f 33/5/71 26/4/92 35/5/92
f 40/5/79 30/4/93 39/5/87
f 30/4/87 40/5/94 32/4/95
f 43/6/96 42/7/97 41/7/96
f 42/7/97 43/6/96 44/6/97
f 47/6/98 46/7/99 45/7/100
f 46/7/99 47/6/98 48/6/99
f 50/6/101 45/7/98 49/7/101
f 45/7/98 50/6/101 47/6/98
f 48/6/99 41/7/96 46/7/99
f 41/7/102 48/6/99 43/6/102
f 52/7/103 44/6/97 51/6/103
f 44/6/97 52/7/103 42/7/104
f 52/7/103 50/6/105 49/7/106
f 50/6/101 52/7/103 51/6/103
f 41/7/1 45/7/1 46/7/1
f 45/7/1 41/7/1 42/7/1
f 45/7/1 42/7/1 49/7/1
f 49/7/1 42/7/1 52/7/1
f 55/6/107 54/8/108 53/8/109
f 54/8/110 55/6/111 56/6/112
f 59/8/113 58/6/114 57/6/115
f 58/6/114 59/8/116 60/8/117
f 63/6/118 62/8/119 61/8/120
f 62/8/119 63/6/118 64/6/121
f 64/6/122 53/8/123 62/8/119
f 53/8/124 64/6/122 55/6/107
f 64/6/125 56/6/126 55/6/127
f 56/6/126 64/6/125 58/6/128
f 58/6/128 64/6/125 63/6/129
f 58/6/128 63/6/129 57/6/130
f 59/8/131 63/6/118 61/8/132
f 63/6/133 59/8/134 57/6/115
f 54/8/1 62/8/1 53/8/1
f 62/8/1 54/8/1 60/8/1
f 62/8/1 60/8/1 61/8/1
f 61/8/1 60/8/1 59/8/1
f 56/6/112 60/8/135 54/8/108
f 60/8/135 56/6/112 58/6/136
f 67/6/137 66/9/138 65/9/137
f 66/9/138 67/6/137 68/6/138
f 70/6/139 65/9/137 69/9/139
f 65/9/137 70/6/139 67/6/140
f 68/6/141 71/9/142 66/9/138
f 71/9/142 68/6/143 72/6/142
f 72/6/142 73/9/144 71/9/142
f 73/9/145 72/6/142 74/6/146
f 71/9/1 65/9/1 66/9/1
f 65/9/1 71/9/1 69/9/1
f 69/9/1 71/9/1 73/9/1
f 69/9/1 73/9/1 75/9/1
f 76/6/147 69/9/139 75/9/148
f 69/9/139 76/6/149 70/6/139
f 73/9/145 76/6/148 75/9/148
f 76/6/148 73/9/145 74/6/145
f 79/10/150 78/10/151 77/11/152
f 78/10/151 79/10/150 41/6/150
f 78/10/151 41/6/150 42/6/151
f 77/11/153 78/10/154 79/10/155
f 41/6/155 79/10/155 78/10/154
f 42/6/154 41/6/155 78/10/154
f 81/11/156 49/6/157 80/10/157
f 49/6/158 81/11/156 52/6/159
f 52/6/159 81/11/160 82/10/159
f 80/10/161 49/6/161 81/11/162
f 52/6/163 81/11/162 49/6/161
f 82/10/163 81/11/164 52/6/163
f 82/10/159 42/6/151 52/6/159
f 42/6/151 82/10/159 83/11/165
f 42/6/151 83/11/165 78/10/151
f 52/6/163 42/6/154 82/10/163
f 83/11/166 82/10/163 42/6/154
f 78/10/154 83/11/166 42/6/167
f 46/6/168 85/11/169 84/10/168
f 85/11/169 46/6/168 41/6/170
f 85/11/169 41/6/171 79/10/150
f 84/10/172 85/11/173 46/6/172
f 41/6/155 46/6/172 85/11/173
f 79/10/155 41/6/174 85/11/173
f 80/10/157 87/10/175 86/11/176
f 87/10/175 80/10/157 49/6/157
f 87/10/175 49/6/157 45/6/175
f 86/11/177 87/10/178 80/10/161
f 49/6/161 80/10/161 87/10/178
f 45/6/178 49/6/161 87/10/178
f 45/6/175 88/11/179 87/10/175
f 88/11/179 45/6/175 46/6/168
f 88/11/179 46/6/168 84/10/168
f 87/10/178 88/11/180 45/6/181
f 46/6/172 45/6/178 88/11/180
f 84/10/172 46/6/172 88/11/180
f 91/10/182 90/10/183 89/11/184
f 90/10/183 91/10/182 75/6/182
f 90/10/183 75/6/182 69/6/183
f 89/11/185 90/10/186 91/10/187
f 75/6/187 91/10/187 90/10/186
f 69/6/186 75/6/187 90/10/186
f 65/6/188 93/11/189 92/10/188
f 93/11/189 65/6/188 66/6/190
f 93/11/189 66/6/190 94/10/190
f 92/10/191 93/11/192 65/6/191
f 66/6/193 65/6/191 93/11/192
f 94/10/193 66/6/193 93/11/192
f 97/10/194 96/10/195 95/11/196
f 96/10/195 97/10/194 71/6/194
f 96/10/195 71/6/194 73/6/195
f 95/11/197 96/10/198 97/10/199
f 71/6/199 97/10/199 96/10/198
f 73/6/198 71/6/199 96/10/198
f 98/11/200 75/6/201 91/10/182
f 75/6/182 98/11/200 73/6/195
f 73/6/202 98/11/200 96/10/195
f 91/10/203 75/6/203 98/11/204
f 73/6/198 98/11/204 75/6/187
f 96/10/205 98/11/204 73/6/206
f 94/10/190 97/10/194 99/11/207
f 97/10/194 94/10/190 66/6/190
f 97/10/194 66/6/190 71/6/194
f 99/11/208 97/10/199 94/10/193
f 66/6/193 94/10/193 97/10/199
f 71/6/199 66/6/193 97/10/199
f 90/10/183 92/10/188 100/11/209
f 92/10/188 90/10/183 69/6/183
f 92/10/188 69/6/183 65/6/188
f 100/11/210 92/10/191 90/10/186
f 69/6/186 90/10/186 92/10/191
f 65/6/191 69/6/186 92/10/191
f 102/11/211 61/6/212 101/10/157
f 61/6/213 102/11/156 59/6/159
f 59/6/159 102/11/156 103/10/159
f 101/10/161 61/6/161 102/11/162
f 59/6/163 102/11/162 61/6/161
f 103/10/163 102/11/162 59/6/163
f 103/10/159 60/6/151 59/6/159
f 60/6/151 103/10/159 104/11/165
f 60/6/214 104/11/215 105/10/151
f 59/6/163 60/6/154 103/10/163
f 104/11/166 103/10/163 60/6/154
f 105/10/154 104/11/166 60/6/216
f 62/6/217 107/11/218 106/10/175
f 107/11/179 62/6/175 53/6/168
f 107/11/219 53/6/168 108/10/168
f 106/10/220 107/11/221 62/6/222
f 53/6/172 62/6/178 107/11/180
f 108/10/172 53/6/172 107/11/223
f 110/10/150 105/10/151 109/11/152
f 105/10/151 110/10/150 54/6/150
f 105/10/151 54/6/150 60/6/151
f 109/11/153 105/10/154 110/10/155
f 54/6/155 110/10/155 105/10/154
f 60/6/154 54/6/155 105/10/154
f 101/10/157 106/10/175 111/11/176
f 106/10/175 101/10/157 61/6/157
f 106/10/175 61/6/157 62/6/175
f 111/11/177 106/10/178 101/10/161
f 61/6/161 101/10/161 106/10/178
f 62/6/178 61/6/161 106/10/178
f 53/6/168 112/11/224 108/10/168
f 112/11/169 53/6/168 54/6/171
f 112/11/225 54/6/226 110/10/170
f 108/10/172 112/11/227 53/6/172
f 54/6/155 53/6/172 112/11/173
f 110/10/228 54/6/228 112/11/229
