# Blender 4.1.1
# www.blender.org
mtllib tree.064.mtl
o tree.064
v 6.881939 -0.217703 5.848620
v 7.057726 -0.217703 5.894034
v 6.816753 -0.217703 5.738022
v 7.168326 -0.217703 5.828847
v 6.862166 -0.217703 5.562235
v 7.213739 -0.217703 5.653061
v 6.972766 -0.217703 5.497048
v 7.148552 -0.217703 5.542460
v 7.036486 0.111018 5.794787
v 6.948593 0.111018 5.772081
v 6.915999 0.111018 5.716781
v 7.091786 0.111018 5.762194
v 7.114492 0.111018 5.674301
v 7.081899 0.111018 5.619001
v 6.994006 0.111018 5.596294
v 6.938706 0.111018 5.628888
v 7.098563 0.604137 5.599866
v 6.988696 0.604137 5.571483
v 6.919571 0.604137 5.612225
v 7.041796 0.604137 5.819599
v 6.931929 0.604137 5.791216
v 7.139304 0.604137 5.668991
v 7.110921 0.604137 5.778857
v 6.891188 0.604137 5.722092
v 7.020677 0.228384 5.851919
v 6.963775 0.228384 5.809063
v 7.091216 0.228384 5.841987
v 7.134071 0.228384 5.785085
v 6.953843 0.228384 5.738524
v 7.124139 0.228384 5.714545
v 6.996698 0.228384 5.681623
v 7.067237 0.228384 5.671690
v 7.007490 0.109101 5.902961
v 7.117984 0.109101 5.887403
v 6.918358 0.109101 5.835832
v 6.902801 0.109101 5.725338
v 7.185114 0.109101 5.798271
v 6.969930 0.109101 5.636206
v 7.169555 0.109101 5.687778
v 7.080423 0.109101 5.620647
v 6.581781 0.604137 5.807961
v 6.694874 0.604137 5.370192
v 6.760402 1.147643 5.758376
v 6.827128 1.147643 5.500090
v 7.340021 0.604137 6.003846
v 6.904354 0.604137 6.124789
v 7.207767 1.147643 5.873948
v 6.950722 1.147643 5.945305
v 7.453115 0.604137 5.566076
v 7.274492 1.147643 5.615662
v 7.084174 1.147643 5.428733
v 7.130541 0.604137 5.249249
v 6.952238 1.731559 5.939438
v 6.766242 1.731559 5.756755
v 7.002459 2.344026 5.745036
v 6.959708 2.344026 5.703048
v 7.032435 2.344026 5.629001
v 6.974697 2.344026 5.645030
v 7.082657 1.731559 5.434600
v 6.831451 1.731559 5.504335
v 7.268654 1.731559 5.617283
v 7.203444 1.731559 5.869702
v 7.075186 2.344026 5.670990
v 7.060198 2.344026 5.729008
v 7.115775 1.147643 6.041220
v 6.759864 1.147643 5.949273
v 7.062502 1.731559 5.849318
v 6.899420 1.731559 5.807186
v 7.373358 1.147643 5.778965
v 7.180530 1.731559 5.729150
v 6.661537 1.147643 5.595073
v 6.854365 1.731559 5.644888
v 6.919120 1.147643 5.332818
v 6.972393 1.731559 5.524720
v 7.275031 1.147643 5.424765
v 7.135475 1.731559 5.566851
v 6.554921 0.434584 5.567530
v 6.659391 0.519360 5.335340
v 6.533857 0.519360 5.821265
v 7.501038 0.519360 5.552773
v 7.352191 0.434584 5.346204
v 7.142982 0.519360 5.201094
v 6.889665 0.434584 5.226714
v 6.891913 0.519360 6.172944
v 6.682703 0.434584 6.027834
v 7.479974 0.434584 5.806508
v 7.375504 0.519360 6.038697
v 7.145230 0.434584 6.147324
v 7.391679 1.009795 5.583131
v 7.412508 1.078719 5.789079
v 7.303364 1.078719 5.395916
v 7.126591 1.078719 6.080182
v 6.920302 1.009795 6.063056
v 6.731530 1.078719 5.978122
v 6.740362 1.009795 5.414869
v 6.908304 1.078719 5.293856
v 6.622386 1.078719 5.584958
v 7.114594 1.009795 5.310981
v 6.643217 1.009795 5.790907
v 7.294533 1.009795 5.959168
v 7.296287 1.682677 5.609612
v 7.210461 1.633794 5.490504
v 7.089830 1.682677 5.406834
v 6.943768 1.633794 5.421607
v 6.810992 1.682677 5.484241
v 7.223904 1.682677 5.889797
v 7.091127 1.633794 5.952432
v 6.945064 1.682677 5.967204
v 6.750754 1.633794 5.618121
v 6.738609 1.682677 5.764425
v 7.284141 1.633794 5.755917
v 6.824433 1.633794 5.883533
vn -0.0000 -1.0000 -0.0000
vn 0.1278 0.2942 0.9471
vn -0.5784 0.2944 0.7607
vn 0.1376 0.2944 0.9457
vn -0.5784 0.2944 0.7608
vn 0.1278 0.2942 0.9472
vn -0.5706 0.2942 0.7667
vn -0.9471 0.2942 0.1279
vn -0.5785 0.2944 0.7607
vn -0.5707 0.2942 0.7667
vn -0.9471 0.2943 0.1279
vn -0.9457 0.2944 0.1376
vn 0.7667 0.2942 0.5707
vn 0.7607 0.2944 0.5785
vn 0.7667 0.2942 0.5706
vn 0.1279 0.2942 0.9471
vn 0.9472 0.2942 -0.1278
vn 0.7607 0.2944 0.5784
vn 0.9457 0.2944 -0.1376
vn -0.1376 0.2944 -0.9457
vn 0.5706 0.2942 -0.7667
vn 0.5784 0.2944 -0.7608
vn -0.1278 0.2942 -0.9472
vn -0.9472 0.2942 0.1278
vn -0.7607 0.2944 -0.5784
vn -0.7667 0.2942 -0.5706
vn 0.5785 0.2944 -0.7607
vn 0.9471 0.2943 -0.1279
vn 0.9471 0.2942 -0.1279
vn 0.5707 0.2942 -0.7667
vn -0.7667 0.2942 -0.5707
vn -0.1279 0.2942 -0.9471
vn -0.7607 0.2944 -0.5785
vn 0.6001 -0.0513 -0.7983
vn -0.1401 -0.0512 -0.9888
vn 0.6015 -0.0513 -0.7972
vn -0.1401 -0.0513 -0.9888
vn -0.1383 -0.0513 -0.9891
vn -0.7983 -0.0512 -0.6001
vn -0.1384 -0.0512 -0.9891
vn -0.7983 -0.0513 -0.6001
vn -0.7972 -0.0512 -0.6015
vn -0.6015 -0.0512 0.7972
vn 0.1383 -0.0513 0.9891
vn 0.1401 -0.0513 0.9888
vn -0.6001 -0.0513 0.7983
vn 0.9888 -0.0513 -0.1401
vn 0.7983 -0.0513 0.6001
vn 0.9891 -0.0513 -0.1383
vn 0.9888 -0.0512 -0.1401
vn 0.7972 -0.0513 0.6015
vn -0.6015 -0.0513 0.7972
vn -0.9891 -0.0513 0.1383
vn -0.9891 -0.0513 0.1384
vn -0.9888 -0.0513 0.1401
vn 0.9891 -0.0513 -0.1384
vn 0.6015 -0.0512 -0.7972
vn 0.7972 -0.0512 0.6015
vn 0.7983 -0.0512 0.6001
vn 0.1384 -0.0512 0.9891
vn -0.9888 -0.0512 0.1401
vn -0.7972 -0.0513 -0.6015
vn -0.0000 1.0000 -0.0000
vn 0.4644 0.4042 0.7880
vn -0.2288 0.4042 0.8856
vn -0.2287 0.4043 0.8856
vn -0.8856 0.4042 -0.2288
vn -0.4645 0.4042 -0.7880
vn -0.4644 0.4043 -0.7879
vn 0.2288 0.4042 -0.8856
vn -0.4644 0.4042 -0.7880
vn 0.2288 0.4043 -0.8856
vn 0.8856 0.4042 0.2288
vn 0.4645 0.4042 0.7880
vn 0.4644 0.4043 0.7880
vn -0.7880 0.4042 0.4644
vn -0.8856 0.4043 -0.2288
vn 0.7880 0.4042 -0.4644
vn 0.8856 0.4042 0.2287
vn 0.8856 0.4043 0.2288
vn -0.7880 0.4042 0.4645
vn -0.2288 0.4043 0.8856
vn 0.7880 0.4042 -0.4645
vn -0.9120 0.3228 0.2532
vn -0.6753 0.3228 -0.6632
vn 0.6752 0.3228 0.6632
vn -0.2367 0.3228 0.9164
vn 0.9120 0.3228 -0.2532
vn 0.6753 0.3228 0.6632
vn -0.2368 0.3228 0.9164
vn 0.2367 0.3228 -0.9164
vn -0.6752 0.3228 -0.6632
vn 0.2368 0.3228 -0.9164
vn -0.1720 0.7260 0.6659
vn -0.9156 0.3115 0.2542
vn -0.2377 0.3115 0.9200
vn -0.6627 0.7260 0.1839
vn 0.2377 0.3115 -0.9200
vn -0.4907 0.7260 -0.4819
vn 0.1721 0.7260 -0.6659
vn -0.6779 0.3115 -0.6659
vn 0.6627 0.7260 -0.1840
vn 0.6779 0.3115 0.6659
vn 0.9156 0.3115 -0.2542
vn 0.6779 0.3115 0.6658
vn 0.4906 0.7260 0.4820
vn 0.4907 0.7260 0.4819
vn -0.1721 0.7260 0.6659
vn 0.4906 0.7259 0.4819
vn -0.6627 0.7259 0.1840
vn -0.1721 0.7259 0.6659
vn 0.4907 0.7259 0.4819
vn -0.4906 0.7259 -0.4819
vn -0.4907 0.7259 -0.4819
vn 0.6627 0.7259 -0.1840
vn 0.1721 0.7259 -0.6659
vn 0.2377 0.3116 -0.9200
vn 0.6627 0.7260 -0.1839
vn 0.6626 0.7260 -0.1840
vn 0.1720 0.7260 -0.6658
vn -0.6627 0.7260 0.1840
vn -0.6779 0.3115 -0.6658
vn -0.4906 0.7260 -0.4820
vn 0.2532 0.3228 0.9120
vn -0.6632 0.3228 0.6752
vn 0.9164 0.3228 0.2368
vn 0.9164 0.3228 0.2367
vn -0.9164 0.3228 -0.2367
vn -0.2532 0.3228 -0.9120
vn -0.9164 0.3228 -0.2368
vn 0.6632 0.3228 -0.6752
vn -0.8311 0.5060 0.2307
vn -0.6153 0.5060 -0.6044
vn -0.8632 0.4530 -0.2230
vn -0.6154 0.5060 -0.6044
vn 0.8632 -0.4530 0.2230
vn 0.6154 -0.5060 0.6044
vn 0.8311 -0.5060 -0.2307
vn 0.6247 0.4530 -0.6360
vn 0.8311 0.5060 -0.2307
vn 0.2157 0.5060 -0.8351
vn -0.8311 -0.5060 0.2307
vn -0.6247 -0.4530 0.6361
vn -0.2157 -0.5060 0.8351
vn -0.6247 -0.4530 0.6360
vn -0.2385 0.4530 -0.8590
vn 0.6153 -0.5060 0.6044
vn 0.2385 -0.4530 0.8590
vn -0.2157 0.5060 0.8351
vn -0.6247 0.4530 0.6360
vn 0.2157 -0.5060 -0.8351
vn 0.6247 -0.4530 -0.6360
vn 0.6153 0.5060 0.6044
vn 0.8632 0.4530 0.2230
vn 0.6154 0.5060 0.6044
vn -0.8632 -0.4530 -0.2230
vn -0.6154 -0.5060 -0.6044
vn 0.2385 0.4530 0.8590
vn -0.2385 -0.4530 -0.8590
vn -0.6153 -0.5060 -0.6044
vn 0.6044 0.5060 -0.6153
vn 0.8351 0.5060 0.2157
vn 0.8590 0.4530 -0.2385
vn 0.6044 0.5060 -0.6154
vn -0.8590 -0.4530 0.2385
vn -0.8351 -0.5060 -0.2157
vn -0.6044 -0.5060 0.6153
vn -0.6044 -0.5060 0.6154
vn 0.2307 0.5060 0.8311
vn -0.2230 0.4530 0.8632
vn -0.6044 0.5060 0.6153
vn -0.6044 0.5060 0.6154
vn -0.2307 -0.5060 -0.8311
vn 0.2230 -0.4530 -0.8632
vn 0.6044 -0.5060 -0.6154
vn -0.8351 0.5060 -0.2157
vn -0.2307 0.5060 -0.8311
vn -0.6360 0.4530 -0.6247
vn 0.6360 -0.4530 0.6247
vn 0.2307 -0.5060 0.8311
vn 0.8351 -0.5060 0.2157
vn 0.2230 0.4530 -0.8632
vn -0.2230 -0.4530 0.8632
vn -0.8590 0.4530 0.2385
vn 0.8590 -0.4530 -0.2385
vn 0.6044 -0.5060 -0.6153
vn 0.6360 0.4530 0.6247
vn -0.6360 -0.4530 -0.6247
vn 0.6247 0.4530 -0.6361
vn 0.6247 0.4529 -0.6361
vn -0.6247 -0.4529 0.6361
vn -0.2385 0.4529 -0.8591
vn 0.2385 -0.4529 0.8590
vn 0.2385 -0.4529 0.8591
vn -0.6247 0.4530 0.6361
vn 0.6247 -0.4529 -0.6361
vt 0.593750 0.025000
vt 0.593750 0.104996
vt 0.593750 0.225000
vt 0.093750 0.475000
vt 0.093750 0.275000
vt 0.093750 0.425000
vt 0.093750 0.348778
vt 0.093750 0.338765
vt 0.093750 0.344099
vt 0.093750 0.375000
vt 0.093750 0.325000
s 0
usemtl colormap.002
f 3/1/1 2/1/1 1/1/1
f 2/1/1 3/1/1 4/1/1
f 4/1/1 3/1/1 5/1/1
f 4/1/1 5/1/1 6/1/1
f 6/1/1 5/1/1 7/1/1
f 6/1/1 7/1/1 8/1/1
f 9/2/2 1/1/3 2/1/4
f 1/1/5 9/2/6 10/2/7
f 11/2/8 1/1/9 10/2/10
f 1/1/9 11/2/11 3/1/12
f 12/2/13 2/1/4 4/1/14
f 2/1/4 12/2/15 9/2/16
f 13/2/17 4/1/18 6/1/19
f 4/1/18 13/2/17 12/2/15
f 7/1/20 14/2/21 8/1/22
f 14/2/21 7/1/20 15/2/23
f 11/2/24 5/1/25 3/1/12
f 5/1/25 11/2/24 16/2/26
f 8/1/27 13/2/28 6/1/19
f 13/2/29 8/1/27 14/2/30
f 7/1/20 16/2/31 15/2/32
f 16/2/31 7/1/20 5/1/33
f 14/2/34 18/3/35 17/3/36
f 18/3/37 14/2/34 15/2/38
f 16/2/39 18/3/37 15/2/40
f 18/3/37 16/2/41 19/3/42
f 21/3/43 9/2/44 20/3/45
f 9/2/44 21/3/43 10/2/46
f 22/3/47 12/2/48 13/2/49
f 12/2/48 22/3/50 23/3/51
f 21/3/52 11/2/53 10/2/46
f 11/2/54 21/3/43 24/3/55
f 13/2/56 17/3/57 22/3/47
f 17/3/36 13/2/56 14/2/34
f 20/3/45 12/2/48 23/3/58
f 12/2/59 20/3/45 9/2/60
f 24/3/55 16/2/41 11/2/53
f 16/2/41 24/3/61 19/3/62
f 27/4/63 26/4/63 25/4/63
f 26/4/63 27/4/63 28/4/63
f 26/4/63 28/4/63 29/4/63
f 29/4/63 28/4/63 30/4/63
f 29/4/63 30/4/63 31/4/63
f 31/4/63 30/4/63 32/4/63
f 35/5/1 34/5/1 33/5/1
f 34/5/1 35/5/1 36/5/1
f 34/5/1 36/5/1 37/5/1
f 37/5/1 36/5/1 38/5/1
f 37/5/1 38/5/1 39/5/1
f 39/5/1 38/5/1 40/5/1
f 27/4/64 33/5/65 34/5/64
f 33/5/65 27/4/64 25/4/66
f 29/4/67 38/5/68 36/5/67
f 38/5/68 29/4/67 31/4/69
f 40/5/70 31/4/71 32/4/72
f 31/4/71 40/5/70 38/5/71
f 28/4/73 34/5/64 37/5/73
f 34/5/74 28/4/73 27/4/75
f 26/4/76 36/5/67 35/5/76
f 36/5/67 26/4/76 29/4/77
f 30/4/78 37/5/79 39/5/78
f 37/5/73 30/4/78 28/4/80
f 26/4/81 33/5/82 25/4/65
f 33/5/65 26/4/76 35/5/81
f 40/5/70 30/4/78 39/5/78
f 30/4/83 40/5/72 32/4/70
f 43/6/84 42/7/85 41/7/84
f 42/7/85 43/6/84 44/6/85
f 47/6/86 46/7/87 45/7/86
f 46/7/87 47/6/86 48/6/87
f 50/6/88 45/7/89 49/7/88
f 45/7/89 50/6/88 47/6/89
f 48/6/90 41/7/84 46/7/90
f 41/7/84 48/6/87 43/6/84
f 52/7/91 44/6/92 51/6/91
f 44/6/92 52/7/91 42/7/92
f 52/7/93 50/6/88 49/7/88
f 50/6/88 52/7/93 51/6/93
f 41/7/1 45/7/1 46/7/1
f 45/7/1 41/7/1 42/7/1
f 45/7/1 42/7/1 49/7/1
f 49/7/1 42/7/1 52/7/1
f 55/6/94 54/8/95 53/8/96
f 54/8/95 55/6/94 56/6/97
f 59/8/98 58/6/99 57/6/100
f 58/6/99 59/8/98 60/8/101
f 63/6/102 62/8/103 61/8/104
f 62/8/105 63/6/102 64/6/106
f 64/6/107 53/8/96 62/8/103
f 53/8/96 64/6/107 55/6/108
f 64/6/109 56/6/110 55/6/111
f 56/6/110 64/6/112 58/6/113
f 58/6/114 64/6/109 63/6/115
f 58/6/113 63/6/115 57/6/116
f 59/8/117 63/6/118 61/8/104
f 63/6/119 59/8/98 57/6/120
f 54/8/1 62/8/1 53/8/1
f 62/8/1 54/8/1 60/8/1
f 62/8/1 60/8/1 61/8/1
f 61/8/1 60/8/1 59/8/1
f 56/6/121 60/8/101 54/8/95
f 60/8/122 56/6/121 58/6/123
f 67/6/124 66/9/125 65/9/124
f 66/9/125 67/6/124 68/6/125
f 70/6/126 65/9/124 69/9/126
f 65/9/124 70/6/127 67/6/124
f 68/6/125 71/9/128 66/9/125
f 71/9/128 68/6/125 72/6/128
f 72/6/128 73/9/129 71/9/128
f 73/9/129 72/6/130 74/6/129
f 71/9/1 65/9/1 66/9/1
f 65/9/1 71/9/1 69/9/1
f 69/9/1 71/9/1 73/9/1
f 69/9/1 73/9/1 75/9/1
f 76/6/131 69/9/127 75/9/131
f 69/9/127 76/6/131 70/6/127
f 73/9/129 76/6/131 75/9/131
f 76/6/131 73/9/129 74/6/129
f 79/10/132 78/10/133 77/11/134
f 78/10/135 79/10/132 41/6/132
f 78/10/135 41/6/132 42/6/135
f 77/11/136 78/10/137 79/10/138
f 41/6/138 79/10/138 78/10/137
f 42/6/137 41/6/138 78/10/137
f 81/11/139 49/6/140 80/10/140
f 49/6/140 81/11/139 52/6/141
f 52/6/141 81/11/139 82/10/141
f 80/10/142 49/6/142 81/11/143
f 52/6/144 81/11/145 49/6/142
f 82/10/144 81/11/143 52/6/144
f 82/10/141 42/6/135 52/6/141
f 42/6/135 82/10/141 83/11/146
f 42/6/133 83/11/146 78/10/135
f 52/6/144 42/6/147 82/10/144
f 83/11/148 82/10/144 42/6/147
f 78/10/137 83/11/148 42/6/147
f 46/6/149 85/11/150 84/10/149
f 85/11/150 46/6/149 41/6/132
f 85/11/150 41/6/132 79/10/132
f 84/10/151 85/11/152 46/6/151
f 41/6/138 46/6/151 85/11/152
f 79/10/138 41/6/138 85/11/152
f 80/10/140 87/10/153 86/11/154
f 87/10/155 80/10/140 49/6/140
f 87/10/155 49/6/140 45/6/155
f 86/11/156 87/10/157 80/10/142
f 49/6/142 80/10/142 87/10/157
f 45/6/157 49/6/142 87/10/157
f 45/6/153 88/11/158 87/10/155
f 88/11/158 45/6/155 46/6/149
f 88/11/158 46/6/149 84/10/149
f 87/10/157 88/11/159 45/6/160
f 46/6/151 45/6/160 88/11/159
f 84/10/151 46/6/151 88/11/159
f 91/10/161 90/10/162 89/11/163
f 90/10/162 91/10/164 75/6/164
f 90/10/162 75/6/164 69/6/162
f 89/11/165 90/10/166 91/10/167
f 75/6/167 91/10/168 90/10/166
f 69/6/166 75/6/167 90/10/166
f 65/6/169 93/11/170 92/10/169
f 93/11/170 65/6/169 66/6/171
f 93/11/170 66/6/171 94/10/172
f 92/10/173 93/11/174 65/6/173
f 66/6/175 65/6/173 93/11/174
f 94/10/175 66/6/175 93/11/174
f 97/10/176 96/10/177 95/11/178
f 96/10/177 97/10/176 71/6/176
f 96/10/177 71/6/176 73/6/177
f 95/11/179 96/10/180 97/10/181
f 71/6/181 97/10/181 96/10/180
f 73/6/180 71/6/181 96/10/180
f 98/11/182 75/6/161 91/10/164
f 75/6/161 98/11/182 73/6/177
f 73/6/177 98/11/182 96/10/177
f 91/10/168 75/6/167 98/11/183
f 73/6/180 98/11/183 75/6/168
f 96/10/180 98/11/183 73/6/180
f 94/10/171 97/10/176 99/11/184
f 97/10/176 94/10/172 66/6/172
f 97/10/176 66/6/172 71/6/176
f 99/11/185 97/10/181 94/10/186
f 66/6/186 94/10/175 97/10/181
f 71/6/181 66/6/186 97/10/181
f 90/10/162 92/10/169 100/11/187
f 92/10/169 90/10/162 69/6/162
f 92/10/169 69/6/162 65/6/169
f 100/11/188 92/10/173 90/10/166
f 69/6/166 90/10/166 92/10/173
f 65/6/173 69/6/166 92/10/173
f 102/11/189 61/6/140 101/10/140
f 61/6/140 102/11/139 59/6/141
f 59/6/141 102/11/190 103/10/141
f 101/10/142 61/6/142 102/11/143
f 59/6/144 102/11/145 61/6/142
f 103/10/144 102/11/191 59/6/144
f 103/10/141 60/6/135 59/6/141
f 60/6/135 103/10/141 104/11/146
f 60/6/133 104/11/192 105/10/135
f 59/6/144 60/6/147 103/10/144
f 104/11/193 103/10/144 60/6/137
f 105/10/147 104/11/194 60/6/147
f 62/6/155 107/11/158 106/10/155
f 107/11/158 62/6/155 53/6/149
f 107/11/158 53/6/149 108/10/149
f 106/10/157 107/11/159 62/6/160
f 53/6/151 62/6/160 107/11/159
f 108/10/151 53/6/151 107/11/159
f 110/10/132 105/10/133 109/11/134
f 105/10/135 110/10/132 54/6/132
f 105/10/135 54/6/132 60/6/135
f 109/11/136 105/10/137 110/10/138
f 54/6/138 110/10/138 105/10/137
f 60/6/137 54/6/138 105/10/137
f 101/10/140 106/10/153 111/11/154
f 106/10/155 101/10/140 61/6/140
f 106/10/155 61/6/140 62/6/155
f 111/11/156 106/10/157 101/10/142
f 61/6/142 101/10/142 106/10/157
f 62/6/157 61/6/142 106/10/157
f 53/6/149 112/11/195 108/10/149
f 112/11/150 53/6/149 54/6/132
f 112/11/195 54/6/132 110/10/132
f 108/10/151 112/11/152 53/6/151
f 54/6/138 53/6/151 112/11/152
f 110/10/138 54/6/138 112/11/196
f 3/1/1 2/1/1 1/1/1
f 2/1/1 3/1/1 4/1/1
f 4/1/1 3/1/1 5/1/1
f 4/1/1 5/1/1 6/1/1
f 6/1/1 5/1/1 7/1/1
f 6/1/1 7/1/1 8/1/1
f 9/2/2 1/1/3 2/1/4
f 1/1/5 9/2/6 10/2/7
f 11/2/8 1/1/9 10/2/10
f 1/1/9 11/2/11 3/1/12
f 12/2/13 2/1/4 4/1/14
f 2/1/4 12/2/15 9/2/16
f 13/2/17 4/1/18 6/1/19
f 4/1/18 13/2/17 12/2/15
f 7/1/20 14/2/21 8/1/22
f 14/2/21 7/1/20 15/2/23
f 11/2/24 5/1/25 3/1/12
f 5/1/25 11/2/24 16/2/26
f 8/1/27 13/2/28 6/1/19
f 13/2/29 8/1/27 14/2/30
f 7/1/20 16/2/31 15/2/32
f 16/2/31 7/1/20 5/1/33
f 14/2/34 18/3/35 17/3/36
f 18/3/37 14/2/34 15/2/38
f 16/2/39 18/3/37 15/2/40
f 18/3/37 16/2/41 19/3/42
f 21/3/43 9/2/44 20/3/45
f 9/2/44 21/3/43 10/2/46
f 22/3/47 12/2/48 13/2/49
f 12/2/48 22/3/50 23/3/51
f 21/3/52 11/2/53 10/2/46
f 11/2/54 21/3/43 24/3/55
f 13/2/56 17/3/57 22/3/47
f 17/3/36 13/2/56 14/2/34
f 20/3/45 12/2/48 23/3/58
f 12/2/59 20/3/45 9/2/60
f 24/3/55 16/2/41 11/2/53
f 16/2/41 24/3/61 19/3/62
f 27/4/63 26/4/63 25/4/63
f 26/4/63 27/4/63 28/4/63
f 26/4/63 28/4/63 29/4/63
f 29/4/63 28/4/63 30/4/63
f 29/4/63 30/4/63 31/4/63
f 31/4/63 30/4/63 32/4/63
f 35/5/1 34/5/1 33/5/1
f 34/5/1 35/5/1 36/5/1
f 34/5/1 36/5/1 37/5/1
f 37/5/1 36/5/1 38/5/1
f 37/5/1 38/5/1 39/5/1
f 39/5/1 38/5/1 40/5/1
f 27/4/64 33/5/65 34/5/64
f 33/5/65 27/4/64 25/4/66
f 29/4/67 38/5/68 36/5/67
f 38/5/68 29/4/67 31/4/69
f 40/5/70 31/4/71 32/4/72
f 31/4/71 40/5/70 38/5/71
f 28/4/73 34/5/64 37/5/73
f 34/5/74 28/4/73 27/4/75
f 26/4/76 36/5/67 35/5/76
f 36/5/67 26/4/76 29/4/77
f 30/4/78 37/5/79 39/5/78
f 37/5/73 30/4/78 28/4/80
f 26/4/81 33/5/82 25/4/65
f 33/5/65 26/4/76 35/5/81
f 40/5/70 30/4/78 39/5/78
f 30/4/83 40/5/72 32/4/70
f 43/6/84 42/7/85 41/7/84
f 42/7/85 43/6/84 44/6/85
f 47/6/86 46/7/87 45/7/86
f 46/7/87 47/6/86 48/6/87
f 50/6/88 45/7/89 49/7/88
f 45/7/89 50/6/88 47/6/89
f 48/6/90 41/7/84 46/7/90
f 41/7/84 48/6/87 43/6/84
f 52/7/91 44/6/92 51/6/91
f 44/6/92 52/7/91 42/7/92
f 52/7/93 50/6/88 49/7/88
f 50/6/88 52/7/93 51/6/93
f 41/7/1 45/7/1 46/7/1
f 45/7/1 41/7/1 42/7/1
f 45/7/1 42/7/1 49/7/1
f 49/7/1 42/7/1 52/7/1
f 55/6/94 54/8/95 53/8/96
f 54/8/95 55/6/94 56/6/97
f 59/8/98 58/6/99 57/6/100
f 58/6/99 59/8/98 60/8/101
f 63/6/102 62/8/103 61/8/104
f 62/8/105 63/6/102 64/6/106
f 64/6/107 53/8/96 62/8/103
f 53/8/96 64/6/107 55/6/108
f 64/6/109 56/6/110 55/6/111
f 56/6/110 64/6/112 58/6/113
f 58/6/114 64/6/109 63/6/115
f 58/6/113 63/6/115 57/6/116
f 59/8/117 63/6/118 61/8/104
f 63/6/119 59/8/98 57/6/120
f 54/8/1 62/8/1 53/8/1
f 62/8/1 54/8/1 60/8/1
f 62/8/1 60/8/1 61/8/1
f 61/8/1 60/8/1 59/8/1
f 56/6/121 60/8/101 54/8/95
f 60/8/122 56/6/121 58/6/123
f 67/6/124 66/9/125 65/9/124
f 66/9/125 67/6/124 68/6/125
f 70/6/126 65/9/124 69/9/126
f 65/9/124 70/6/127 67/6/124
f 68/6/125 71/9/128 66/9/125
f 71/9/128 68/6/125 72/6/128
f 72/6/128 73/9/129 71/9/128
f 73/9/129 72/6/130 74/6/129
f 71/9/1 65/9/1 66/9/1
f 65/9/1 71/9/1 69/9/1
f 69/9/1 71/9/1 73/9/1
f 69/9/1 73/9/1 75/9/1
f 76/6/131 69/9/127 75/9/131
f 69/9/127 76/6/131 70/6/127
f 73/9/129 76/6/131 75/9/131
f 76/6/131 73/9/129 74/6/129
f 79/10/132 78/10/133 77/11/134
f 78/10/135 79/10/132 41/6/132
f 78/10/135 41/6/132 42/6/135
f 77/11/136 78/10/137 79/10/138
f 41/6/138 79/10/138 78/10/137
f 42/6/137 41/6/138 78/10/137
f 81/11/139 49/6/140 80/10/140
f 49/6/140 81/11/139 52/6/141
f 52/6/141 81/11/139 82/10/141
f 80/10/142 49/6/142 81/11/143
f 52/6/144 81/11/145 49/6/142
f 82/10/144 81/11/143 52/6/144
f 82/10/141 42/6/135 52/6/141
f 42/6/135 82/10/141 83/11/146
f 42/6/133 83/11/146 78/10/135
f 52/6/144 42/6/147 82/10/144
f 83/11/148 82/10/144 42/6/147
f 78/10/137 83/11/148 42/6/147
f 46/6/149 85/11/150 84/10/149
f 85/11/150 46/6/149 41/6/132
f 85/11/150 41/6/132 79/10/132
f 84/10/151 85/11/152 46/6/151
f 41/6/138 46/6/151 85/11/152
f 79/10/138 41/6/138 85/11/152
f 80/10/140 87/10/153 86/11/154
f 87/10/155 80/10/140 49/6/140
f 87/10/155 49/6/140 45/6/155
f 86/11/156 87/10/157 80/10/142
f 49/6/142 80/10/142 87/10/157
f 45/6/157 49/6/142 87/10/157
f 45/6/153 88/11/158 87/10/155
f 88/11/158 45/6/155 46/6/149
f 88/11/158 46/6/149 84/10/149
f 87/10/157 88/11/159 45/6/160
f 46/6/151 45/6/160 88/11/159
f 84/10/151 46/6/151 88/11/159
f 91/10/161 90/10/162 89/11/163
f 90/10/162 91/10/164 75/6/164
f 90/10/162 75/6/164 69/6/162
f 89/11/165 90/10/166 91/10/167
f 75/6/167 91/10/168 90/10/166
f 69/6/166 75/6/167 90/10/166
f 65/6/169 93/11/170 92/10/169
f 93/11/170 65/6/169 66/6/171
f 93/11/170 66/6/171 94/10/172
f 92/10/173 93/11/174 65/6/173
f 66/6/175 65/6/173 93/11/174
f 94/10/175 66/6/175 93/11/174
f 97/10/176 96/10/177 95/11/178
f 96/10/177 97/10/176 71/6/176
f 96/10/177 71/6/176 73/6/177
f 95/11/179 96/10/180 97/10/181
f 71/6/181 97/10/181 96/10/180
f 73/6/180 71/6/181 96/10/180
f 98/11/182 75/6/161 91/10/164
f 75/6/161 98/11/182 73/6/177
f 73/6/177 98/11/182 96/10/177
f 91/10/168 75/6/167 98/11/183
f 73/6/180 98/11/183 75/6/168
f 96/10/180 98/11/183 73/6/180
f 94/10/171 97/10/176 99/11/184
f 97/10/176 94/10/172 66/6/172
f 97/10/176 66/6/172 71/6/176
f 99/11/185 97/10/181 94/10/186
f 66/6/186 94/10/175 97/10/181
f 71/6/181 66/6/186 97/10/181
f 90/10/162 92/10/169 100/11/187
f 92/10/169 90/10/162 69/6/162
f 92/10/169 69/6/162 65/6/169
f 100/11/188 92/10/173 90/10/166
f 69/6/166 90/10/166 92/10/173
f 65/6/173 69/6/166 92/10/173
f 102/11/189 61/6/140 101/10/140
f 61/6/140 102/11/139 59/6/141
f 59/6/141 102/11/190 103/10/141
f 101/10/142 61/6/142 102/11/143
f 59/6/144 102/11/145 61/6/142
f 103/10/144 102/11/191 59/6/144
f 103/10/141 60/6/135 59/6/141
f 60/6/135 103/10/141 104/11/146
f 60/6/133 104/11/192 105/10/135
f 59/6/144 60/6/147 103/10/144
f 104/11/193 103/10/144 60/6/137
f 105/10/147 104/11/194 60/6/147
f 62/6/155 107/11/158 106/10/155
f 107/11/158 62/6/155 53/6/149
f 107/11/158 53/6/149 108/10/149
f 106/10/157 107/11/159 62/6/160
f 53/6/151 62/6/160 107/11/159
f 108/10/151 53/6/151 107/11/159
f 110/10/132 105/10/133 109/11/134
f 105/10/135 110/10/132 54/6/132
f 105/10/135 54/6/132 60/6/135
f 109/11/136 105/10/137 110/10/138
f 54/6/138 110/10/138 105/10/137
f 60/6/137 54/6/138 105/10/137
f 101/10/140 106/10/153 111/11/154
f 106/10/155 101/10/140 61/6/140
f 106/10/155 61/6/140 62/6/155
f 111/11/156 106/10/157 101/10/142
f 61/6/142 101/10/142 106/10/157
f 62/6/157 61/6/142 106/10/157
f 53/6/149 112/11/195 108/10/149
f 112/11/150 53/6/149 54/6/132
f 112/11/195 54/6/132 110/10/132
f 108/10/151 112/11/152 53/6/151
f 54/6/138 53/6/151 112/11/152
f 110/10/138 54/6/138 112/11/196
