# Blender 4.1.1
# www.blender.org
mtllib tree.038.mtl
o tree.038
v -18.604530 -0.382804 -15.849687
v -18.386698 -0.382804 -15.964374
v -18.770790 -0.382804 -15.901258
v -18.335125 -0.382804 -16.130634
v -18.885479 -0.382804 -16.119091
v -18.449814 -0.382804 -16.348467
v -18.833906 -0.382804 -16.285351
v -18.616074 -0.382804 -16.400040
v -18.498501 0.062918 -16.044619
v -18.607416 0.062918 -15.987274
v -18.690546 0.062918 -16.013062
v -18.472713 0.062918 -16.127748
v -18.530058 0.062918 -16.236664
v -18.613188 0.062918 -16.262451
v -18.722103 0.062918 -16.205107
v -18.747890 0.062918 -16.121977
v -18.613909 0.731552 -16.296848
v -18.750053 0.731552 -16.225168
v -18.782288 0.731552 -16.121256
v -18.470549 0.731552 -16.024557
v -18.606695 0.731552 -15.952878
v -18.509996 0.731552 -16.264614
v -18.438316 0.731552 -16.128469
v -18.710608 0.731552 -15.985110
v -18.462280 0.222058 -15.972865
v -18.558462 0.222058 -15.963999
v -18.400539 0.222058 -16.047144
v -18.409405 0.222058 -16.143326
v -18.632742 0.222058 -16.025740
v -18.483685 0.222058 -16.205069
v -18.641607 0.222058 -16.121922
v -18.579866 0.222058 -16.196201
v -18.428980 0.060318 -15.909614
v -18.332266 0.060318 -16.025967
v -18.579639 0.060318 -15.895726
v -18.695992 0.060318 -15.992439
v -18.346153 0.060318 -16.176628
v -18.709881 0.060318 -16.143099
v -18.462507 0.060318 -16.273340
v -18.613167 0.060318 -16.259453
v -18.942856 0.731552 -15.616837
v -19.228470 0.731552 -16.159315
v -18.808790 1.468507 -15.829454
v -18.977303 1.468507 -16.149519
v -18.003256 0.731552 -16.111530
v -18.330250 0.731552 -15.592944
v -18.254421 1.468507 -16.121326
v -18.447350 1.468507 -15.815358
v -18.288868 0.731552 -16.654011
v -18.422934 1.468507 -16.441391
v -18.784374 1.468507 -16.455488
v -18.901474 0.731552 -16.677902
v -18.451178 2.260255 -15.822629
v -18.804407 2.260255 -15.836405
v -18.578009 3.090716 -16.063528
v -18.659199 3.090716 -16.066694
v -18.653713 3.090716 -16.207317
v -18.697050 3.090716 -16.138590
v -18.780546 2.260255 -16.448217
v -18.969091 2.260255 -16.149199
v -18.427317 2.260255 -16.434441
v -18.262632 2.260255 -16.121647
v -18.572525 3.090716 -16.204151
v -18.534674 3.090716 -16.132257
v -18.194246 1.468507 -15.869575
v -18.635286 1.468507 -15.637369
v -18.422672 2.260255 -16.013609
v -18.624762 2.260255 -15.907209
v -18.174822 1.468507 -16.367628
v -18.413773 2.260255 -16.241821
v -19.056902 1.468507 -15.903218
v -18.817951 2.260255 -16.029024
v -19.037477 1.468507 -16.401272
v -18.809052 2.260255 -16.257238
v -18.596437 1.468507 -16.633478
v -18.606962 2.260255 -16.363638
v -19.189018 0.501649 -15.833659
v -19.295856 0.616601 -16.161943
v -18.978827 0.616601 -15.559792
v -18.252897 0.616601 -16.711056
v -18.590618 0.501649 -16.782673
v -18.932892 0.616601 -16.737576
v -19.163776 0.501649 -16.480909
v -18.298832 0.616601 -15.533271
v -18.641106 0.501649 -15.488173
v -18.042706 0.501649 -16.437187
v -17.935867 0.616601 -16.108904
v -18.067947 0.501649 -15.789937
v -18.334978 1.281595 -16.580881
v -18.126308 1.375051 -16.393171
v -18.594301 1.375051 -16.688263
v -18.147869 1.375051 -15.840330
v -18.370525 1.281595 -15.669442
v -18.637423 1.375051 -15.582582
v -19.142082 1.281595 -16.155947
v -19.083855 1.375051 -16.430515
v -19.105415 1.375051 -15.877675
v -18.861198 1.281595 -16.601404
v -18.896746 1.281595 -15.689964
v -18.089642 1.281595 -16.114901
v -18.406576 2.193974 -16.467333
v -18.601307 2.127692 -16.508629
v -18.798662 2.193974 -16.482624
v -18.931789 2.127692 -16.334631
v -19.007948 2.193974 -16.150715
v -18.223776 2.193974 -16.120132
v -18.299934 2.127692 -15.936215
v -18.433062 2.193974 -15.788221
v -18.946344 2.127692 -15.961426
v -18.825148 2.193974 -15.803513
v -18.285379 2.127692 -16.309422
v -18.630417 2.127692 -15.762218
vn -0.0000 -1.0000 -0.0000
vn 0.7315 0.2942 0.6151
vn 0.0834 0.2944 0.9520
vn 0.7377 0.2944 0.6075
vn 0.0932 0.2942 0.9512
vn -0.6151 0.2942 0.7315
vn 0.0833 0.2944 0.9520
vn 0.0931 0.2942 0.9512
vn -0.6075 0.2944 0.7378
vn 0.9512 0.2942 -0.0931
vn 0.7378 0.2944 0.6075
vn 0.9520 0.2944 -0.0833
vn 0.9512 0.2942 -0.0930
vn 0.6151 0.2942 -0.7315
vn 0.9520 0.2944 -0.0834
vn 0.6075 0.2944 -0.7377
vn 0.6152 0.2942 -0.7315
vn 0.9512 0.2942 -0.0932
vn -0.7377 0.2944 -0.6075
vn -0.0932 0.2942 -0.9512
vn -0.0834 0.2944 -0.9520
vn -0.7315 0.2942 -0.6151
vn -0.9520 0.2944 0.0834
vn -0.6075 0.2944 0.7377
vn -0.6152 0.2942 0.7315
vn -0.9512 0.2942 0.0932
vn -0.0833 0.2944 -0.9520
vn 0.6151 0.2943 -0.7315
vn 0.6075 0.2944 -0.7378
vn -0.0931 0.2942 -0.9512
vn -0.7378 0.2944 -0.6075
vn -0.9512 0.2942 0.0931
vn -0.9520 0.2944 0.0833
vn -0.0926 -0.0513 -0.9944
vn -0.7685 -0.0512 -0.6377
vn -0.0908 -0.0513 -0.9945
vn -0.7686 -0.0513 -0.6377
vn -0.7674 -0.0513 -0.6391
vn -0.9944 -0.0512 0.0925
vn -0.7674 -0.0512 -0.6391
vn -0.9944 -0.0513 0.0925
vn -0.9946 -0.0512 0.0908
vn 0.0908 -0.0512 0.9945
vn 0.7674 -0.0513 0.6391
vn 0.7685 -0.0513 0.6377
vn 0.0926 -0.0513 0.9944
vn 0.6377 -0.0513 -0.7685
vn 0.9944 -0.0513 -0.0926
vn 0.6391 -0.0513 -0.7674
vn 0.6377 -0.0512 -0.7686
vn 0.9945 -0.0513 -0.0909
vn 0.0908 -0.0513 0.9945
vn -0.6391 -0.0513 0.7674
vn 0.0925 -0.0512 0.9944
vn -0.6391 -0.0513 0.7675
vn 0.0908 -0.0512 0.9946
vn -0.6377 -0.0513 0.7686
vn -0.0908 -0.0512 -0.9946
vn 0.6377 -0.0513 -0.7686
vn -0.0908 -0.0513 -0.9946
vn -0.0925 -0.0513 -0.9944
vn 0.7686 -0.0513 0.6377
vn 0.9946 -0.0512 -0.0908
vn 0.9944 -0.0512 -0.0925
vn 0.7674 -0.0512 0.6391
vn -0.6377 -0.0513 0.7685
vn -0.9944 -0.0513 0.0926
vn -0.6377 -0.0512 0.7686
vn -0.9945 -0.0513 0.0909
vn -0.0000 1.0000 -0.0000
vn 0.8736 0.4042 0.2710
vn 0.4261 0.4042 0.8094
vn 0.4262 0.4042 0.8093
vn 0.4261 0.4043 0.8093
vn -0.8094 0.4042 0.4261
vn -0.8736 0.4042 -0.2710
vn -0.8736 0.4043 -0.2710
vn -0.4261 0.4042 -0.8093
vn -0.4261 0.4043 -0.8093
vn -0.4262 0.4042 -0.8093
vn 0.8094 0.4042 -0.4261
vn 0.8093 0.4042 -0.4261
vn 0.8736 0.4043 0.2710
vn -0.2710 0.4042 0.8736
vn -0.8093 0.4042 0.4262
vn -0.8093 0.4042 0.4261
vn -0.8093 0.4043 0.4261
vn 0.2710 0.4042 -0.8736
vn 0.8093 0.4043 -0.4261
vn -0.4261 0.4042 -0.8094
vn -0.5048 0.3228 0.8006
vn -0.9458 0.3228 -0.0369
vn 0.9457 0.3228 0.0369
vn 0.4409 0.3228 0.8375
vn 0.9458 0.3228 0.0369
vn 0.5048 0.3228 -0.8006
vn -0.4409 0.3228 -0.8375
vn -0.9457 0.3228 -0.0369
vn 0.3204 0.7260 0.6085
vn -0.5068 0.3115 0.8038
vn 0.4427 0.3115 0.8408
vn -0.3669 0.7260 0.5817
vn -0.4427 0.3115 -0.8408
vn -0.6872 0.7260 -0.0268
vn -0.3203 0.7260 -0.6086
vn -0.9495 0.3115 -0.0370
vn 0.3668 0.7260 -0.5817
vn 0.9495 0.3115 0.0370
vn 0.5069 0.3115 -0.8038
vn 0.3668 0.7260 -0.5818
vn 0.6872 0.7260 0.0268
vn 0.6872 0.7260 0.0267
vn 0.3204 0.7260 0.6086
vn -0.3668 0.7259 0.5818
vn 0.3204 0.7259 0.6086
vn -0.3668 0.7259 0.5817
vn 0.6872 0.7259 0.0268
vn -0.6872 0.7259 -0.0268
vn 0.3668 0.7259 -0.5817
vn 0.3668 0.7259 -0.5818
vn -0.3204 0.7259 -0.6086
vn -0.4427 0.3116 -0.8408
vn 0.5068 0.3115 -0.8038
vn -0.3204 0.7260 -0.6085
vn -0.3668 0.7260 0.5817
vn -0.5069 0.3115 0.8038
vn -0.3668 0.7260 0.5818
vn -0.6872 0.7260 -0.0269
vn 0.8006 0.3228 0.5048
vn -0.0369 0.3228 0.9457
vn -0.0369 0.3228 0.9458
vn 0.8375 0.3228 -0.4409
vn -0.8375 0.3228 0.4409
vn -0.8006 0.3228 -0.5048
vn 0.0369 0.3228 -0.9457
vn 0.0369 0.3228 -0.9458
vn -0.4600 0.5060 0.7296
vn -0.8619 0.5060 -0.0336
vn -0.7889 0.4529 0.4153
vn 0.7889 -0.4529 -0.4153
vn 0.8619 -0.5060 0.0336
vn 0.4600 -0.5060 -0.7296
vn 0.0347 0.4530 -0.8909
vn 0.4600 0.5060 -0.7296
vn -0.4018 0.5060 -0.7632
vn -0.4600 -0.5060 0.7296
vn -0.0347 -0.4530 0.8909
vn 0.4018 -0.5060 0.7632
vn -0.0347 -0.4530 0.8908
vn -0.7541 0.4530 -0.4755
vn 0.7541 -0.4530 0.4755
vn 0.4018 0.5060 0.7632
vn -0.0347 0.4530 0.8909
vn -0.4600 0.5061 0.7296
vn -0.4018 -0.5060 -0.7632
vn 0.0347 -0.4530 -0.8909
vn 0.4601 -0.5060 -0.7296
vn 0.4601 0.5060 -0.7296
vn 0.8619 0.5060 0.0336
vn 0.7889 0.4529 -0.4153
vn -0.7889 -0.4529 0.4153
vn -0.8619 -0.5060 -0.0336
vn -0.4601 -0.5060 0.7296
vn 0.7541 0.4530 0.4755
vn -0.7541 -0.4530 -0.4755
vn 0.0336 0.5060 -0.8619
vn 0.7632 0.5060 -0.4018
vn 0.4755 0.4529 -0.7541
vn -0.4755 -0.4529 0.7541
vn -0.7632 -0.5060 0.4018
vn -0.0336 -0.5060 0.8619
vn 0.7296 0.5060 0.4601
vn 0.4153 0.4529 0.7889
vn 0.4153 0.4530 0.7889
vn -0.0336 0.5060 0.8619
vn -0.0336 0.5061 0.8618
vn -0.7296 -0.5060 -0.4600
vn -0.4153 -0.4530 -0.7889
vn 0.0336 -0.5060 -0.8619
vn -0.7632 0.5060 0.4018
vn -0.7296 0.5060 -0.4600
vn -0.8908 0.4530 -0.0347
vn -0.7296 0.5060 -0.4601
vn 0.8908 -0.4530 0.0347
vn 0.7296 -0.5060 0.4600
vn 0.7632 -0.5060 -0.4018
vn 0.7296 -0.5060 0.4601
vn -0.4153 0.4529 -0.7889
vn -0.4153 0.4530 -0.7889
vn 0.4154 -0.4529 0.7889
vn 0.4153 -0.4530 0.7889
vn -0.7632 0.5061 0.4018
vn -0.4755 0.4530 0.7541
vn 0.4755 -0.4530 -0.7541
vn 0.7296 0.5060 0.4600
vn 0.8909 0.4530 0.0347
vn -0.8908 -0.4530 -0.0347
vn -0.7296 -0.5060 -0.4601
vn 0.0347 0.4529 -0.8909
vn -0.0347 -0.4529 0.8909
vn 0.4018 0.5061 0.7632
vn 0.4019 0.5060 0.7632
vn -0.4019 -0.5060 -0.7632
vn -0.7542 -0.4530 -0.4755
vn 0.7889 0.4530 -0.4153
vn -0.7889 -0.4530 0.4153
vn -0.0347 0.4530 0.8908
vn -0.0347 0.4529 0.8909
vn 0.0347 -0.4530 -0.8908
vn 0.0347 -0.4529 -0.8909
vt 0.593750 0.025000
vt 0.593750 0.104996
vt 0.593750 0.225000
vt 0.093750 0.475000
vt 0.093750 0.275000
vt 0.093750 0.425000
vt 0.093750 0.348778
vt 0.093750 0.338765
vt 0.093750 0.344099
vt 0.093750 0.375000
vt 0.093750 0.325000
s 0
usemtl colormap.041
f 3/1/1 2/1/1 1/1/1
f 2/1/1 3/1/1 4/1/1
f 4/1/1 3/1/1 5/1/1
f 4/1/1 5/1/1 6/1/1
f 6/1/1 5/1/1 7/1/1
f 6/1/1 7/1/1 8/1/1
f 9/2/2 1/1/3 2/1/4
f 1/1/3 9/2/2 10/2/5
f 11/2/6 1/1/7 10/2/8
f 1/1/7 11/2/6 3/1/9
f 12/2/10 2/1/11 4/1/12
f 2/1/4 12/2/13 9/2/2
f 13/2/14 4/1/15 6/1/16
f 4/1/15 13/2/17 12/2/18
f 7/1/19 14/2/20 8/1/21
f 14/2/20 7/1/19 15/2/22
f 11/2/6 5/1/23 3/1/24
f 5/1/23 11/2/25 16/2/26
f 8/1/27 13/2/28 6/1/29
f 13/2/14 8/1/27 14/2/30
f 7/1/31 16/2/32 15/2/22
f 16/2/32 7/1/19 5/1/33
f 14/2/34 18/3/35 17/3/36
f 18/3/37 14/2/34 15/2/38
f 16/2/39 18/3/37 15/2/40
f 18/3/37 16/2/41 19/3/42
f 21/3/43 9/2/44 20/3/45
f 9/2/44 21/3/43 10/2/46
f 22/3/47 12/2/48 13/2/49
f 12/2/48 22/3/50 23/3/51
f 21/3/52 11/2/53 10/2/54
f 11/2/55 21/3/56 24/3/57
f 13/2/49 17/3/58 22/3/59
f 17/3/60 13/2/49 14/2/61
f 20/3/62 12/2/48 23/3/63
f 12/2/64 20/3/62 9/2/65
f 24/3/66 16/2/67 11/2/53
f 16/2/67 24/3/68 19/3/69
f 27/4/70 26/4/70 25/4/70
f 26/4/70 27/4/70 28/4/70
f 26/4/70 28/4/70 29/4/70
f 29/4/70 28/4/70 30/4/70
f 29/4/70 30/4/70 31/4/70
f 31/4/70 30/4/70 32/4/70
f 35/5/1 34/5/1 33/5/1
f 34/5/1 35/5/1 36/5/1
f 34/5/1 36/5/1 37/5/1
f 37/5/1 36/5/1 38/5/1
f 37/5/1 38/5/1 39/5/1
f 39/5/1 38/5/1 40/5/1
f 27/4/71 33/5/72 34/5/71
f 33/5/73 27/4/71 25/4/74
f 29/4/75 38/5/76 36/5/75
f 38/5/76 29/4/75 31/4/77
f 40/5/78 31/4/76 32/4/79
f 31/4/76 40/5/80 38/5/76
f 28/4/81 34/5/71 37/5/82
f 34/5/71 28/4/81 27/4/83
f 26/4/84 36/5/85 35/5/84
f 36/5/86 26/4/84 29/4/87
f 30/4/88 37/5/82 39/5/88
f 37/5/82 30/4/88 28/4/89
f 26/4/84 33/5/74 25/4/72
f 33/5/72 26/4/84 35/5/84
f 40/5/90 30/4/88 39/5/88
f 30/4/88 40/5/79 32/4/78
f 43/6/91 42/7/92 41/7/91
f 42/7/92 43/6/91 44/6/92
f 47/6/93 46/7/94 45/7/93
f 46/7/94 47/6/95 48/6/94
f 50/6/96 45/7/95 49/7/96
f 45/7/95 50/6/96 47/6/95
f 48/6/94 41/7/91 46/7/94
f 41/7/91 48/6/94 43/6/91
f 52/7/97 44/6/92 51/6/97
f 44/6/98 52/7/97 42/7/98
f 52/7/97 50/6/96 49/7/96
f 50/6/96 52/7/97 51/6/97
f 41/7/1 45/7/1 46/7/1
f 45/7/1 41/7/1 42/7/1
f 45/7/1 42/7/1 49/7/1
f 49/7/1 42/7/1 52/7/1
f 55/6/99 54/8/100 53/8/101
f 54/8/100 55/6/99 56/6/102
f 59/8/103 58/6/104 57/6/105
f 58/6/104 59/8/103 60/8/106
f 63/6/107 62/8/108 61/8/109
f 62/8/108 63/6/110 64/6/111
f 64/6/111 53/8/101 62/8/108
f 53/8/101 64/6/112 55/6/113
f 64/6/111 56/6/114 55/6/115
f 56/6/116 64/6/117 58/6/118
f 58/6/104 64/6/117 63/6/119
f 58/6/118 63/6/120 57/6/121
f 59/8/122 63/6/107 61/8/123
f 63/6/107 59/8/103 57/6/124
f 54/8/1 62/8/1 53/8/1
f 62/8/1 54/8/1 60/8/1
f 62/8/1 60/8/1 61/8/1
f 61/8/1 60/8/1 59/8/1
f 56/6/125 60/8/106 54/8/126
f 60/8/106 56/6/127 58/6/128
f 67/6/129 66/9/130 65/9/129
f 66/9/130 67/6/129 68/6/131
f 70/6/132 65/9/129 69/9/132
f 65/9/129 70/6/132 67/6/129
f 68/6/130 71/9/133 66/9/130
f 71/9/133 68/6/131 72/6/133
f 72/6/133 73/9/134 71/9/133
f 73/9/134 72/6/133 74/6/134
f 71/9/1 65/9/1 66/9/1
f 65/9/1 71/9/1 69/9/1
f 69/9/1 71/9/1 73/9/1
f 69/9/1 73/9/1 75/9/1
f 76/6/135 69/9/132 75/9/135
f 69/9/132 76/6/136 70/6/132
f 73/9/134 76/6/135 75/9/135
f 76/6/135 73/9/134 74/6/134
f 79/10/137 78/10/138 77/11/139
f 78/10/138 79/10/137 41/6/137
f 78/10/138 41/6/137 42/6/138
f 77/11/140 78/10/141 79/10/142
f 41/6/142 79/10/142 78/10/141
f 42/6/141 41/6/142 78/10/141
f 81/11/143 49/6/144 80/10/144
f 49/6/144 81/11/143 52/6/145
f 52/6/145 81/11/143 82/10/145
f 80/10/146 49/6/146 81/11/147
f 52/6/148 81/11/147 49/6/146
f 82/10/148 81/11/149 52/6/148
f 82/10/145 42/6/138 52/6/145
f 42/6/138 82/10/145 83/11/150
f 42/6/138 83/11/150 78/10/138
f 52/6/148 42/6/141 82/10/148
f 83/11/151 82/10/148 42/6/141
f 78/10/141 83/11/151 42/6/141
f 46/6/152 85/11/153 84/10/152
f 85/11/153 46/6/152 41/6/137
f 85/11/153 41/6/154 79/10/137
f 84/10/155 85/11/156 46/6/155
f 41/6/157 46/6/155 85/11/156
f 79/10/142 41/6/142 85/11/156
f 80/10/158 87/10/159 86/11/160
f 87/10/159 80/10/144 49/6/144
f 87/10/159 49/6/144 45/6/159
f 86/11/161 87/10/162 80/10/163
f 49/6/146 80/10/146 87/10/162
f 45/6/162 49/6/146 87/10/162
f 45/6/159 88/11/164 87/10/159
f 88/11/164 45/6/159 46/6/152
f 88/11/164 46/6/152 84/10/152
f 87/10/162 88/11/165 45/6/162
f 46/6/155 45/6/162 88/11/165
f 84/10/155 46/6/155 88/11/165
f 91/10/166 90/10/167 89/11/168
f 90/10/167 91/10/166 75/6/166
f 90/10/167 75/6/166 69/6/167
f 89/11/169 90/10/170 91/10/171
f 75/6/171 91/10/171 90/10/170
f 69/6/170 75/6/171 90/10/170
f 65/6/172 93/11/173 92/10/172
f 93/11/174 65/6/172 66/6/175
f 93/11/174 66/6/176 94/10/175
f 92/10/177 93/11/178 65/6/177
f 66/6/179 65/6/177 93/11/178
f 94/10/179 66/6/179 93/11/178
f 97/10/180 96/10/181 95/11/182
f 96/10/181 97/10/180 71/6/180
f 96/10/183 71/6/180 73/6/181
f 95/11/184 96/10/185 97/10/186
f 71/6/186 97/10/186 96/10/185
f 73/6/185 71/6/186 96/10/187
f 98/11/188 75/6/166 91/10/166
f 75/6/166 98/11/189 73/6/181
f 73/6/181 98/11/189 96/10/183
f 91/10/171 75/6/171 98/11/190
f 73/6/185 98/11/191 75/6/171
f 96/10/185 98/11/191 73/6/185
f 94/10/175 97/10/192 99/11/193
f 97/10/180 94/10/175 66/6/175
f 97/10/180 66/6/175 71/6/180
f 99/11/194 97/10/186 94/10/179
f 66/6/179 94/10/179 97/10/186
f 71/6/186 66/6/179 97/10/186
f 90/10/167 92/10/195 100/11/196
f 92/10/195 90/10/167 69/6/167
f 92/10/172 69/6/167 65/6/172
f 100/11/197 92/10/177 90/10/170
f 69/6/170 90/10/170 92/10/177
f 65/6/198 69/6/170 92/10/198
f 102/11/199 61/6/144 101/10/144
f 61/6/144 102/11/143 59/6/145
f 59/6/145 102/11/199 103/10/145
f 101/10/146 61/6/163 102/11/200
f 59/6/148 102/11/147 61/6/163
f 103/10/148 102/11/200 59/6/148
f 103/10/145 60/6/138 59/6/145
f 60/6/138 103/10/145 104/11/150
f 60/6/138 104/11/150 105/10/138
f 59/6/148 60/6/141 103/10/148
f 104/11/151 103/10/148 60/6/141
f 105/10/141 104/11/151 60/6/141
f 62/6/159 107/11/164 106/10/159
f 107/11/164 62/6/159 53/6/152
f 107/11/164 53/6/201 108/10/202
f 106/10/162 107/11/165 62/6/162
f 53/6/155 62/6/162 107/11/165
f 108/10/203 53/6/203 107/11/204
f 110/10/137 105/10/138 109/11/139
f 105/10/138 110/10/137 54/6/137
f 105/10/138 54/6/137 60/6/138
f 109/11/140 105/10/141 110/10/142
f 54/6/142 110/10/142 105/10/141
f 60/6/141 54/6/142 105/10/141
f 101/10/144 106/10/159 111/11/205
f 106/10/159 101/10/144 61/6/144
f 106/10/159 61/6/144 62/6/159
f 111/11/206 106/10/162 101/10/146
f 61/6/146 101/10/146 106/10/162
f 62/6/162 61/6/146 106/10/162
f 53/6/152 112/11/153 108/10/152
f 112/11/207 53/6/152 54/6/154
f 112/11/208 54/6/137 110/10/137
f 108/10/155 112/11/156 53/6/155
f 54/6/142 53/6/155 112/11/209
f 110/10/142 54/6/142 112/11/210
f 3/1/1 2/1/1 1/1/1
f 2/1/1 3/1/1 4/1/1
f 4/1/1 3/1/1 5/1/1
f 4/1/1 5/1/1 6/1/1
f 6/1/1 5/1/1 7/1/1
f 6/1/1 7/1/1 8/1/1
f 9/2/2 1/1/3 2/1/4
f 1/1/3 9/2/2 10/2/5
f 11/2/6 1/1/7 10/2/8
f 1/1/7 11/2/6 3/1/9
f 12/2/10 2/1/11 4/1/12
f 2/1/4 12/2/13 9/2/2
f 13/2/14 4/1/15 6/1/16
f 4/1/15 13/2/17 12/2/18
f 7/1/19 14/2/20 8/1/21
f 14/2/20 7/1/19 15/2/22
f 11/2/6 5/1/23 3/1/24
f 5/1/23 11/2/25 16/2/26
f 8/1/27 13/2/28 6/1/29
f 13/2/14 8/1/27 14/2/30
f 7/1/31 16/2/32 15/2/22
f 16/2/32 7/1/19 5/1/33
f 14/2/34 18/3/35 17/3/36
f 18/3/37 14/2/34 15/2/38
f 16/2/39 18/3/37 15/2/40
f 18/3/37 16/2/41 19/3/42
f 21/3/43 9/2/44 20/3/45
f 9/2/44 21/3/43 10/2/46
f 22/3/47 12/2/48 13/2/49
f 12/2/48 22/3/50 23/3/51
f 21/3/52 11/2/53 10/2/54
f 11/2/55 21/3/56 24/3/57
f 13/2/49 17/3/58 22/3/59
f 17/3/60 13/2/49 14/2/61
f 20/3/62 12/2/48 23/3/63
f 12/2/64 20/3/62 9/2/65
f 24/3/66 16/2/67 11/2/53
f 16/2/67 24/3/68 19/3/69
f 27/4/70 26/4/70 25/4/70
f 26/4/70 27/4/70 28/4/70
f 26/4/70 28/4/70 29/4/70
f 29/4/70 28/4/70 30/4/70
f 29/4/70 30/4/70 31/4/70
f 31/4/70 30/4/70 32/4/70
f 35/5/1 34/5/1 33/5/1
f 34/5/1 35/5/1 36/5/1
f 34/5/1 36/5/1 37/5/1
f 37/5/1 36/5/1 38/5/1
f 37/5/1 38/5/1 39/5/1
f 39/5/1 38/5/1 40/5/1
f 27/4/71 33/5/72 34/5/71
f 33/5/73 27/4/71 25/4/74
f 29/4/75 38/5/76 36/5/75
f 38/5/76 29/4/75 31/4/77
f 40/5/78 31/4/76 32/4/79
f 31/4/76 40/5/80 38/5/76
f 28/4/81 34/5/71 37/5/82
f 34/5/71 28/4/81 27/4/83
f 26/4/84 36/5/85 35/5/84
f 36/5/86 26/4/84 29/4/87
f 30/4/88 37/5/82 39/5/88
f 37/5/82 30/4/88 28/4/89
f 26/4/84 33/5/74 25/4/72
f 33/5/72 26/4/84 35/5/84
f 40/5/90 30/4/88 39/5/88
f 30/4/88 40/5/79 32/4/78
f 43/6/91 42/7/92 41/7/91
f 42/7/92 43/6/91 44/6/92
f 47/6/93 46/7/94 45/7/93
f 46/7/94 47/6/95 48/6/94
f 50/6/96 45/7/95 49/7/96
f 45/7/95 50/6/96 47/6/95
f 48/6/94 41/7/91 46/7/94
f 41/7/91 48/6/94 43/6/91
f 52/7/97 44/6/92 51/6/97
f 44/6/98 52/7/97 42/7/98
f 52/7/97 50/6/96 49/7/96
f 50/6/96 52/7/97 51/6/97
f 41/7/1 45/7/1 46/7/1
f 45/7/1 41/7/1 42/7/1
f 45/7/1 42/7/1 49/7/1
f 49/7/1 42/7/1 52/7/1
f 55/6/99 54/8/100 53/8/101
f 54/8/100 55/6/99 56/6/102
f 59/8/103 58/6/104 57/6/105
f 58/6/104 59/8/103 60/8/106
f 63/6/107 62/8/108 61/8/109
f 62/8/108 63/6/110 64/6/111
f 64/6/111 53/8/101 62/8/108
f 53/8/101 64/6/112 55/6/113
f 64/6/111 56/6/114 55/6/115
f 56/6/116 64/6/117 58/6/118
f 58/6/104 64/6/117 63/6/119
f 58/6/118 63/6/120 57/6/121
f 59/8/122 63/6/107 61/8/123
f 63/6/107 59/8/103 57/6/124
f 54/8/1 62/8/1 53/8/1
f 62/8/1 54/8/1 60/8/1
f 62/8/1 60/8/1 61/8/1
f 61/8/1 60/8/1 59/8/1
f 56/6/125 60/8/106 54/8/126
f 60/8/106 56/6/127 58/6/128
f 67/6/129 66/9/130 65/9/129
f 66/9/130 67/6/129 68/6/131
f 70/6/132 65/9/129 69/9/132
f 65/9/129 70/6/132 67/6/129
f 68/6/130 71/9/133 66/9/130
f 71/9/133 68/6/131 72/6/133
f 72/6/133 73/9/134 71/9/133
f 73/9/134 72/6/133 74/6/134
f 71/9/1 65/9/1 66/9/1
f 65/9/1 71/9/1 69/9/1
f 69/9/1 71/9/1 73/9/1
f 69/9/1 73/9/1 75/9/1
f 76/6/135 69/9/132 75/9/135
f 69/9/132 76/6/136 70/6/132
f 73/9/134 76/6/135 75/9/135
f 76/6/135 73/9/134 74/6/134
f 79/10/137 78/10/138 77/11/139
f 78/10/138 79/10/137 41/6/137
f 78/10/138 41/6/137 42/6/138
f 77/11/140 78/10/141 79/10/142
f 41/6/142 79/10/142 78/10/141
f 42/6/141 41/6/142 78/10/141
f 81/11/143 49/6/144 80/10/144
f 49/6/144 81/11/143 52/6/145
f 52/6/145 81/11/143 82/10/145
f 80/10/146 49/6/146 81/11/147
f 52/6/148 81/11/147 49/6/146
f 82/10/148 81/11/149 52/6/148
f 82/10/145 42/6/138 52/6/145
f 42/6/138 82/10/145 83/11/150
f 42/6/138 83/11/150 78/10/138
f 52/6/148 42/6/141 82/10/148
f 83/11/151 82/10/148 42/6/141
f 78/10/141 83/11/151 42/6/141
f 46/6/152 85/11/153 84/10/152
f 85/11/153 46/6/152 41/6/137
f 85/11/153 41/6/154 79/10/137
f 84/10/155 85/11/156 46/6/155
f 41/6/157 46/6/155 85/11/156
f 79/10/142 41/6/142 85/11/156
f 80/10/158 87/10/159 86/11/160
f 87/10/159 80/10/144 49/6/144
f 87/10/159 49/6/144 45/6/159
f 86/11/161 87/10/162 80/10/163
f 49/6/146 80/10/146 87/10/162
f 45/6/162 49/6/146 87/10/162
f 45/6/159 88/11/164 87/10/159
f 88/11/164 45/6/159 46/6/152
f 88/11/164 46/6/152 84/10/152
f 87/10/162 88/11/165 45/6/162
f 46/6/155 45/6/162 88/11/165
f 84/10/155 46/6/155 88/11/165
f 91/10/166 90/10/167 89/11/168
f 90/10/167 91/10/166 75/6/166
f 90/10/167 75/6/166 69/6/167
f 89/11/169 90/10/170 91/10/171
f 75/6/171 91/10/171 90/10/170
f 69/6/170 75/6/171 90/10/170
f 65/6/172 93/11/173 92/10/172
f 93/11/174 65/6/172 66/6/175
f 93/11/174 66/6/176 94/10/175
f 92/10/177 93/11/178 65/6/177
f 66/6/179 65/6/177 93/11/178
f 94/10/179 66/6/179 93/11/178
f 97/10/180 96/10/181 95/11/182
f 96/10/181 97/10/180 71/6/180
f 96/10/183 71/6/180 73/6/181
f 95/11/184 96/10/185 97/10/186
f 71/6/186 97/10/186 96/10/185
f 73/6/185 71/6/186 96/10/187
f 98/11/188 75/6/166 91/10/166
f 75/6/166 98/11/189 73/6/181
f 73/6/181 98/11/189 96/10/183
f 91/10/171 75/6/171 98/11/190
f 73/6/185 98/11/191 75/6/171
f 96/10/185 98/11/191 73/6/185
f 94/10/175 97/10/192 99/11/193
f 97/10/180 94/10/175 66/6/175
f 97/10/180 66/6/175 71/6/180
f 99/11/194 97/10/186 94/10/179
f 66/6/179 94/10/179 97/10/186
f 71/6/186 66/6/179 97/10/186
f 90/10/167 92/10/195 100/11/196
f 92/10/195 90/10/167 69/6/167
f 92/10/172 69/6/167 65/6/172
f 100/11/197 92/10/177 90/10/170
f 69/6/170 90/10/170 92/10/177
f 65/6/198 69/6/170 92/10/198
f 102/11/199 61/6/144 101/10/144
f 61/6/144 102/11/143 59/6/145
f 59/6/145 102/11/199 103/10/145
f 101/10/146 61/6/163 102/11/200
f 59/6/148 102/11/147 61/6/163
f 103/10/148 102/11/200 59/6/148
f 103/10/145 60/6/138 59/6/145
f 60/6/138 103/10/145 104/11/150
f 60/6/138 104/11/150 105/10/138
f 59/6/148 60/6/141 103/10/148
f 104/11/151 103/10/148 60/6/141
f 105/10/141 104/11/151 60/6/141
f 62/6/159 107/11/164 106/10/159
f 107/11/164 62/6/159 53/6/152
f 107/11/164 53/6/201 108/10/202
f 106/10/162 107/11/165 62/6/162
f 53/6/155 62/6/162 107/11/165
f 108/10/203 53/6/203 107/11/204
f 110/10/137 105/10/138 109/11/139
f 105/10/138 110/10/137 54/6/137
f 105/10/138 54/6/137 60/6/138
f 109/11/140 105/10/141 110/10/142
f 54/6/142 110/10/142 105/10/141
f 60/6/141 54/6/142 105/10/141
f 101/10/144 106/10/159 111/11/205
f 106/10/159 101/10/144 61/6/144
f 106/10/159 61/6/144 62/6/159
f 111/11/206 106/10/162 101/10/146
f 61/6/146 101/10/146 106/10/162
f 62/6/162 61/6/146 106/10/162
f 53/6/152 112/11/153 108/10/152
f 112/11/207 53/6/152 54/6/154
f 112/11/208 54/6/137 110/10/137
f 108/10/155 112/11/156 53/6/155
f 54/6/142 53/6/155 112/11/209
f 110/10/142 54/6/142 112/11/210
