# Blender 4.1.1
# www.blender.org
mtllib tree.060.mtl
o tree.060
v -15.635996 -0.217703 3.411474
v -15.463594 -0.217703 3.468401
v -15.693734 -0.217703 3.296809
v -15.348929 -0.217703 3.410663
v -15.636807 -0.217703 3.124407
v -15.292003 -0.217703 3.238261
v -15.522142 -0.217703 3.066669
v -15.349741 -0.217703 3.123596
v -15.478230 0.111018 3.367968
v -15.564433 0.111018 3.339505
v -15.593301 0.111018 3.282172
v -15.420899 0.111018 3.339099
v -15.392436 0.111018 3.252898
v -15.421304 0.111018 3.195566
v -15.507505 0.111018 3.167103
v -15.564838 0.111018 3.195971
v -15.403414 0.604137 3.177573
v -15.511166 0.604137 3.141994
v -15.582829 0.604137 3.178080
v -15.474572 0.604137 3.393076
v -15.582323 0.604137 3.357497
v -15.367327 0.604137 3.249239
v -15.402906 0.604137 3.356990
v -15.618410 0.604137 3.285832
v -15.497781 0.228384 3.423930
v -15.551726 0.228384 3.377409
v -15.426740 0.228384 3.418679
v -15.380218 0.228384 3.364733
v -15.556978 0.228384 3.306368
v -15.385469 0.228384 3.293692
v -15.510456 0.228384 3.252421
v -15.439415 0.228384 3.247171
v -15.514311 0.109101 3.473989
v -15.403030 0.109101 3.465765
v -15.598812 0.109101 3.401118
v -15.607037 0.109101 3.289838
v -15.330158 0.109101 3.381263
v -15.534165 0.109101 3.205336
v -15.338384 0.109101 3.269982
v -15.422885 0.109101 3.197111
v -15.932813 0.604137 3.351074
v -15.791045 0.604137 2.921732
v -15.751306 1.147643 3.313397
v -15.667664 1.147643 3.060083
v -15.189171 0.604137 3.596622
v -15.631876 0.604137 3.688519
v -15.312554 1.147643 3.458271
v -15.573752 1.147643 3.512491
v -15.047403 0.604137 3.167280
v -15.228910 1.147643 3.204958
v -15.406465 1.147643 3.005863
v -15.348341 0.604137 2.829835
v -15.571852 1.731559 3.506737
v -15.745372 1.731559 3.312165
v -15.508896 2.344026 3.316078
v -15.548779 2.344026 3.271356
v -15.471320 2.344026 3.202277
v -15.529991 2.344026 3.214456
v -15.408365 1.731559 3.011618
v -15.663629 1.731559 3.064606
v -15.234844 1.731559 3.206189
v -15.316587 1.731559 3.453749
v -15.431437 2.344026 3.246998
v -15.450225 2.344026 3.303899
v -15.415396 1.147643 3.619100
v -15.764454 1.147643 3.503842
v -15.455874 1.731559 3.424098
v -15.615816 1.731559 3.371285
v -15.141049 1.147643 3.374435
v -15.330166 1.731559 3.311990
v -15.839168 1.147643 3.143919
v -15.650050 1.731559 3.206365
v -15.564821 1.147643 2.899254
v -15.524343 1.731559 3.094257
v -15.215762 1.147643 3.014513
v -15.364400 1.731559 3.147069
v -15.943730 0.434584 3.109393
v -15.824149 0.519360 2.884613
v -15.981510 0.519360 3.361183
v -14.998706 0.519360 3.157172
v -15.133580 0.434583 2.941221
v -15.332747 0.519360 2.782607
v -15.587203 0.434583 2.791436
v -15.647470 0.519360 3.735747
v -15.846637 0.434583 3.577133
v -15.036486 0.434583 3.408962
v -15.156067 0.519360 3.633742
v -15.393015 0.434583 3.726918
v -15.109831 1.009795 3.180239
v -15.102653 1.078719 3.387114
v -15.185585 1.078719 2.987599
v -15.407177 1.078719 3.658692
v -15.611884 1.009795 3.627976
v -15.794633 1.078719 3.530755
v -15.748609 1.009795 2.969317
v -15.573039 1.078719 2.859663
v -15.877564 1.078719 3.131241
v -15.368333 1.009795 2.890379
v -15.870385 1.009795 3.338115
v -15.231607 1.009795 3.549038
v -15.206765 1.682676 3.200361
v -15.284534 1.633794 3.075843
v -15.399373 1.682676 2.984386
v -15.546093 1.633794 2.989477
v -15.682716 1.682676 3.043203
v -15.297500 1.682676 3.475152
v -15.434125 1.633794 3.528877
v -15.580843 1.682676 3.533968
v -15.751667 1.633794 3.172812
v -15.773452 1.682676 3.317994
v -15.228549 1.633794 3.345543
v -15.695683 1.633794 3.442511
vn -0.0000 -1.0000 -0.0000
vn 0.0650 0.2942 0.9535
vn -0.6274 0.2944 0.7209
vn 0.0748 0.2944 0.9527
vn -0.6200 0.2942 0.7274
vn -0.9535 0.2942 0.0651
vn -0.6275 0.2944 0.7208
vn -0.6201 0.2942 0.7273
vn -0.9535 0.2943 0.0650
vn -0.9527 0.2944 0.0748
vn 0.7273 0.2942 0.6201
vn 0.7208 0.2944 0.6275
vn 0.0749 0.2944 0.9527
vn 0.0651 0.2942 0.9535
vn 0.9535 0.2942 -0.0650
vn 0.7209 0.2944 0.6274
vn 0.9527 0.2944 -0.0748
vn 0.7274 0.2942 0.6200
vn -0.0748 0.2944 -0.9528
vn 0.6200 0.2942 -0.7274
vn 0.6274 0.2944 -0.7209
vn -0.0748 0.2944 -0.9527
vn -0.0650 0.2942 -0.9535
vn -0.9535 0.2942 0.0650
vn -0.7209 0.2944 -0.6274
vn -0.7274 0.2942 -0.6200
vn 0.6275 0.2944 -0.7208
vn 0.9535 0.2943 -0.0651
vn 0.9527 0.2944 -0.0749
vn 0.9535 0.2942 -0.0651
vn 0.6201 0.2942 -0.7273
vn -0.7273 0.2942 -0.6201
vn -0.0651 0.2942 -0.9535
vn -0.7208 0.2944 -0.6275
vn 0.6515 -0.0513 -0.7569
vn -0.0744 -0.0512 -0.9959
vn 0.6528 -0.0513 -0.7558
vn -0.0744 -0.0513 -0.9959
vn -0.0727 -0.0513 -0.9960
vn -0.7569 -0.0512 -0.6515
vn -0.0745 -0.0513 -0.9959
vn -0.0727 -0.0512 -0.9960
vn -0.7569 -0.0513 -0.6515
vn -0.7557 -0.0512 -0.6529
vn -0.6528 -0.0512 0.7558
vn 0.0727 -0.0513 0.9960
vn 0.0744 -0.0513 0.9959
vn -0.6515 -0.0513 0.7569
vn 0.9959 -0.0513 -0.0744
vn 0.7569 -0.0513 0.6515
vn 0.9960 -0.0513 -0.0727
vn 0.9959 -0.0512 -0.0744
vn 0.7558 -0.0513 0.6528
vn -0.6529 -0.0513 0.7557
vn -0.9960 -0.0513 0.0727
vn -0.6515 -0.0512 0.7569
vn -0.6529 -0.0512 0.7557
vn -0.9959 -0.0513 0.0745
vn 0.6529 -0.0512 -0.7557
vn 0.9959 -0.0513 -0.0745
vn 0.6529 -0.0513 -0.7557
vn 0.9960 -0.0513 -0.0728
vn 0.6515 -0.0512 -0.7569
vn 0.0745 -0.0513 0.9959
vn 0.7557 -0.0512 0.6529
vn 0.7569 -0.0512 0.6515
vn 0.0727 -0.0512 0.9960
vn -0.9959 -0.0513 0.0744
vn -0.9959 -0.0512 0.0744
vn -0.7558 -0.0513 -0.6528
vn -0.0000 1.0000 -0.0000
vn 0.4113 0.4042 0.8170
vn -0.2868 0.4042 0.8686
vn -0.2868 0.4042 0.8685
vn -0.2868 0.4043 0.8685
vn -0.8685 0.4042 -0.2868
vn -0.4114 0.4042 -0.8169
vn -0.4113 0.4042 -0.8170
vn -0.8685 0.4042 -0.2869
vn -0.4113 0.4042 -0.8169
vn 0.2868 0.4042 -0.8685
vn 0.2868 0.4043 -0.8685
vn 0.8685 0.4042 0.2868
vn 0.4114 0.4042 0.8169
vn 0.4114 0.4043 0.8169
vn -0.8170 0.4042 0.4113
vn -0.8686 0.4042 -0.2867
vn -0.8169 0.4042 0.4114
vn -0.8685 0.4042 -0.2867
vn 0.8170 0.4042 -0.4114
vn 0.8686 0.4042 0.2867
vn 0.8169 0.4042 -0.4114
vn 0.8686 0.4042 0.2868
vn 0.8170 0.4042 -0.4113
vn 0.8685 0.4043 0.2868
vn -0.9267 0.3228 0.1924
vn -0.6300 0.3228 -0.7064
vn 0.6299 0.3228 0.7064
vn -0.2968 0.3228 0.8988
vn -0.2967 0.3228 0.8987
vn 0.9267 0.3228 -0.1924
vn 0.6300 0.3228 0.7064
vn 0.9267 0.3228 -0.1923
vn -0.2968 0.3228 0.8987
vn 0.2968 0.3228 -0.8988
vn -0.6299 0.3228 -0.7064
vn 0.2968 0.3228 -0.8987
vn -0.2156 0.7260 0.6531
vn -0.9304 0.3115 0.1931
vn -0.2980 0.3115 0.9023
vn -0.9304 0.3115 0.1932
vn -0.6734 0.7260 0.1397
vn 0.2979 0.3115 -0.9023
vn -0.4578 0.7260 -0.5132
vn 0.2157 0.7260 -0.6530
vn -0.6325 0.3115 -0.7092
vn 0.6734 0.7260 -0.1398
vn 0.6325 0.3115 0.7092
vn 0.9304 0.3115 -0.1931
vn 0.4577 0.7260 0.5133
vn 0.4578 0.7260 0.5132
vn -0.2979 0.3115 0.9023
vn -0.2157 0.7260 0.6530
vn 0.4577 0.7259 0.5133
vn -0.6734 0.7259 0.1398
vn -0.2157 0.7259 0.6531
vn -0.6734 0.7260 0.1398
vn -0.4577 0.7260 -0.5133
vn -0.4577 0.7259 -0.5133
vn 0.6734 0.7259 -0.1398
vn 0.2157 0.7259 -0.6531
vn 0.2980 0.3116 -0.9023
vn 0.6733 0.7260 -0.1398
vn 0.2980 0.3115 -0.9023
vn 0.2156 0.7260 -0.6530
vn 0.1924 0.3228 0.9267
vn -0.7064 0.3228 0.6300
vn 0.8987 0.3228 0.2968
vn -0.7064 0.3228 0.6299
vn -0.8987 0.3228 -0.2968
vn -0.8987 0.3228 -0.2967
vn -0.1924 0.3228 -0.9267
vn 0.7064 0.3228 -0.6299
vn 0.8987 0.3228 0.2967
vn 0.7064 0.3228 -0.6300
vn 0.8988 0.3228 0.2967
vn -0.8445 0.5060 0.1753
vn -0.5741 0.5060 -0.6437
vn -0.8466 0.4530 -0.2795
vn 0.8466 -0.4530 0.2795
vn 0.5741 -0.5060 0.6437
vn 0.8445 -0.5060 -0.1753
vn 0.6654 0.4530 -0.5934
vn 0.8445 0.5060 -0.1753
vn 0.2704 0.5060 -0.8190
vn -0.8445 -0.5060 0.1753
vn -0.6654 -0.4530 0.5934
vn -0.2704 -0.5060 0.8190
vn -0.1812 0.4530 -0.8729
vn 0.1812 -0.4530 0.8729
vn -0.2704 0.5060 0.8190
vn -0.6654 0.4530 0.5934
vn 0.2704 -0.5060 -0.8190
vn 0.6654 -0.4530 -0.5934
vn 0.5741 0.5060 0.6437
vn 0.8466 0.4530 0.2795
vn -0.8466 -0.4530 -0.2795
vn -0.5741 -0.5060 -0.6437
vn 0.1812 0.4530 0.8729
vn -0.1812 -0.4530 -0.8729
vn 0.6437 0.5060 -0.5741
vn 0.8190 0.5060 0.2704
vn 0.8729 0.4530 -0.1812
vn 0.8190 0.5060 0.2705
vn -0.8729 -0.4530 0.1812
vn -0.8190 -0.5060 -0.2704
vn -0.6437 -0.5060 0.5741
vn -0.8190 -0.5060 -0.2705
vn 0.1753 0.5060 0.8445
vn -0.2795 0.4530 0.8466
vn -0.6437 0.5060 0.5741
vn -0.1753 -0.5060 -0.8445
vn 0.2795 -0.4530 -0.8466
vn 0.6437 -0.5060 -0.5741
vn 0.2795 -0.4529 -0.8466
vn -0.8190 0.5060 -0.2704
vn -0.1753 0.5060 -0.8445
vn -0.5934 0.4530 -0.6654
vn 0.5934 -0.4530 0.6654
vn 0.1753 -0.5060 0.8445
vn 0.8190 -0.5060 0.2704
vn 0.2795 0.4529 -0.8466
vn 0.2795 0.4530 -0.8466
vn -0.2795 -0.4529 0.8466
vn -0.2795 -0.4530 0.8466
vn -0.8729 0.4530 0.1812
vn 0.8729 -0.4530 -0.1812
vn 0.5934 0.4530 0.6654
vn -0.5934 -0.4530 -0.6654
vn -0.6654 -0.4529 0.5934
vn 0.1812 0.4529 0.8729
vn -0.8466 0.4529 -0.2795
vn -0.2705 0.5060 0.8190
vn -0.6654 0.4529 0.5934
vn -0.8445 0.5061 0.1753
vn 0.2705 -0.5060 -0.8190
vn 0.6654 -0.4529 -0.5934
vt 0.593750 0.025000
vt 0.593750 0.104996
vt 0.593750 0.225000
vt 0.093750 0.475000
vt 0.093750 0.275000
vt 0.093750 0.425000
vt 0.093750 0.348778
vt 0.093750 0.338765
vt 0.093750 0.344099
vt 0.093750 0.375000
vt 0.093750 0.325000
s 0
usemtl colormap.002
f 3/1/1 2/1/1 1/1/1
f 2/1/1 3/1/1 4/1/1
f 4/1/1 3/1/1 5/1/1
f 4/1/1 5/1/1 6/1/1
f 6/1/1 5/1/1 7/1/1
f 6/1/1 7/1/1 8/1/1
f 9/2/2 1/1/3 2/1/4
f 1/1/3 9/2/2 10/2/5
f 11/2/6 1/1/7 10/2/8
f 1/1/7 11/2/9 3/1/10
f 12/2/11 2/1/4 4/1/12
f 2/1/13 12/2/11 9/2/14
f 13/2/15 4/1/16 6/1/17
f 4/1/16 13/2/15 12/2/18
f 7/1/19 14/2/20 8/1/21
f 14/2/20 7/1/22 15/2/23
f 11/2/24 5/1/25 3/1/10
f 5/1/25 11/2/24 16/2/26
f 8/1/27 13/2/28 6/1/29
f 13/2/30 8/1/27 14/2/31
f 7/1/22 16/2/32 15/2/33
f 16/2/32 7/1/22 5/1/34
f 14/2/35 18/3/36 17/3/37
f 18/3/38 14/2/35 15/2/39
f 16/2/40 18/3/41 15/2/42
f 18/3/41 16/2/43 19/3/44
f 21/3/45 9/2/46 20/3/47
f 9/2/46 21/3/45 10/2/48
f 22/3/49 12/2/50 13/2/51
f 12/2/50 22/3/52 23/3/53
f 21/3/54 11/2/55 10/2/56
f 11/2/55 21/3/57 24/3/58
f 13/2/51 17/3/59 22/3/60
f 17/3/61 13/2/62 14/2/63
f 20/3/64 12/2/50 23/3/65
f 12/2/66 20/3/64 9/2/67
f 24/3/68 16/2/43 11/2/55
f 16/2/43 24/3/69 19/3/70
f 27/4/71 26/4/71 25/4/71
f 26/4/71 27/4/71 28/4/71
f 26/4/71 28/4/71 29/4/71
f 29/4/71 28/4/71 30/4/71
f 29/4/71 30/4/71 31/4/71
f 31/4/71 30/4/71 32/4/71
f 35/5/1 34/5/1 33/5/1
f 34/5/1 35/5/1 36/5/1
f 34/5/1 36/5/1 37/5/1
f 37/5/1 36/5/1 38/5/1
f 37/5/1 38/5/1 39/5/1
f 39/5/1 38/5/1 40/5/1
f 27/4/72 33/5/73 34/5/72
f 33/5/74 27/4/72 25/4/75
f 29/4/76 38/5/77 36/5/76
f 38/5/78 29/4/79 31/4/80
f 40/5/81 31/4/80 32/4/82
f 31/4/78 40/5/81 38/5/80
f 28/4/83 34/5/84 37/5/83
f 34/5/84 28/4/83 27/4/85
f 26/4/86 36/5/76 35/5/86
f 36/5/87 26/4/88 29/4/89
f 30/4/90 37/5/91 39/5/92
f 37/5/93 30/4/94 28/4/95
f 26/4/88 33/5/75 25/4/74
f 33/5/74 26/4/88 35/5/88
f 40/5/81 30/4/92 39/5/92
f 30/4/92 40/5/82 32/4/81
f 43/6/96 42/7/97 41/7/96
f 42/7/97 43/6/96 44/6/97
f 47/6/98 46/7/99 45/7/98
f 46/7/99 47/6/98 48/6/100
f 50/6/101 45/7/102 49/7/101
f 45/7/102 50/6/103 47/6/102
f 48/6/104 41/7/96 46/7/104
f 41/7/96 48/6/104 43/6/96
f 52/7/105 44/6/106 51/6/107
f 44/6/106 52/7/105 42/7/106
f 52/7/107 50/6/101 49/7/101
f 50/6/101 52/7/107 51/6/107
f 41/7/1 45/7/1 46/7/1
f 45/7/1 41/7/1 42/7/1
f 45/7/1 42/7/1 49/7/1
f 49/7/1 42/7/1 52/7/1
f 55/6/108 54/8/109 53/8/110
f 54/8/111 55/6/108 56/6/112
f 59/8/113 58/6/114 57/6/115
f 58/6/114 59/8/113 60/8/116
f 63/6/117 62/8/118 61/8/119
f 62/8/118 63/6/117 64/6/120
f 64/6/121 53/8/122 62/8/118
f 53/8/122 64/6/121 55/6/123
f 64/6/124 56/6/125 55/6/126
f 56/6/127 64/6/124 58/6/128
f 58/6/129 64/6/124 63/6/130
f 58/6/129 63/6/130 57/6/131
f 59/8/132 63/6/117 61/8/119
f 63/6/133 59/8/134 57/6/135
f 54/8/1 62/8/1 53/8/1
f 62/8/1 54/8/1 60/8/1
f 62/8/1 60/8/1 61/8/1
f 61/8/1 60/8/1 59/8/1
f 56/6/127 60/8/116 54/8/109
f 60/8/116 56/6/127 58/6/128
f 67/6/136 66/9/137 65/9/136
f 66/9/137 67/6/136 68/6/137
f 70/6/138 65/9/136 69/9/138
f 65/9/136 70/6/138 67/6/136
f 68/6/139 71/9/140 66/9/139
f 71/9/141 68/6/137 72/6/141
f 72/6/140 73/9/142 71/9/140
f 73/9/142 72/6/140 74/6/142
f 71/9/1 65/9/1 66/9/1
f 65/9/1 71/9/1 69/9/1
f 69/9/1 71/9/1 73/9/1
f 69/9/1 73/9/1 75/9/1
f 76/6/143 69/9/144 75/9/143
f 69/9/144 76/6/145 70/6/146
f 73/9/142 76/6/145 75/9/145
f 76/6/145 73/9/142 74/6/142
f 79/10/147 78/10/148 77/11/149
f 78/10/148 79/10/147 41/6/147
f 78/10/148 41/6/147 42/6/148
f 77/11/150 78/10/151 79/10/152
f 41/6/152 79/10/152 78/10/151
f 42/6/151 41/6/152 78/10/151
f 81/11/153 49/6/154 80/10/154
f 49/6/154 81/11/153 52/6/155
f 52/6/155 81/11/153 82/10/155
f 80/10/156 49/6/156 81/11/157
f 52/6/158 81/11/157 49/6/156
f 82/10/158 81/11/157 52/6/158
f 82/10/155 42/6/148 52/6/155
f 42/6/148 82/10/155 83/11/159
f 42/6/148 83/11/159 78/10/148
f 52/6/158 42/6/151 82/10/158
f 83/11/160 82/10/158 42/6/151
f 78/10/151 83/11/160 42/6/151
f 46/6/161 85/11/162 84/10/161
f 85/11/162 46/6/161 41/6/147
f 85/11/162 41/6/147 79/10/147
f 84/10/163 85/11/164 46/6/163
f 41/6/152 46/6/163 85/11/164
f 79/10/152 41/6/152 85/11/164
f 80/10/154 87/10/165 86/11/166
f 87/10/165 80/10/154 49/6/154
f 87/10/165 49/6/154 45/6/165
f 86/11/167 87/10/168 80/10/156
f 49/6/156 80/10/156 87/10/168
f 45/6/168 49/6/156 87/10/168
f 45/6/165 88/11/169 87/10/165
f 88/11/169 45/6/165 46/6/161
f 88/11/169 46/6/161 84/10/161
f 87/10/168 88/11/170 45/6/168
f 46/6/163 45/6/168 88/11/170
f 84/10/163 46/6/163 88/11/170
f 91/10/171 90/10/172 89/11/173
f 90/10/172 91/10/171 75/6/171
f 90/10/174 75/6/171 69/6/174
f 89/11/175 90/10/176 91/10/177
f 75/6/177 91/10/177 90/10/176
f 69/6/176 75/6/177 90/10/178
f 65/6/179 93/11/180 92/10/179
f 93/11/180 65/6/179 66/6/181
f 93/11/180 66/6/181 94/10/181
f 92/10/182 93/11/183 65/6/182
f 66/6/184 65/6/182 93/11/183
f 94/10/184 66/6/184 93/11/185
f 97/10/186 96/10/187 95/11/188
f 96/10/187 97/10/186 71/6/186
f 96/10/187 71/6/186 73/6/187
f 95/11/189 96/10/190 97/10/191
f 71/6/191 97/10/191 96/10/190
f 73/6/190 71/6/191 96/10/190
f 98/11/192 75/6/171 91/10/171
f 75/6/171 98/11/193 73/6/187
f 73/6/187 98/11/193 96/10/187
f 91/10/177 75/6/177 98/11/194
f 73/6/190 98/11/195 75/6/177
f 96/10/190 98/11/195 73/6/190
f 94/10/181 97/10/186 99/11/196
f 97/10/186 94/10/181 66/6/181
f 97/10/186 66/6/181 71/6/186
f 99/11/197 97/10/191 94/10/184
f 66/6/184 94/10/184 97/10/191
f 71/6/191 66/6/184 97/10/191
f 90/10/172 92/10/179 100/11/198
f 92/10/179 90/10/172 69/6/172
f 92/10/179 69/6/172 65/6/179
f 100/11/199 92/10/182 90/10/176
f 69/6/176 90/10/176 92/10/182
f 65/6/182 69/6/176 92/10/182
f 102/11/153 61/6/154 101/10/154
f 61/6/154 102/11/153 59/6/155
f 59/6/155 102/11/153 103/10/155
f 101/10/156 61/6/156 102/11/200
f 59/6/158 102/11/157 61/6/156
f 103/10/158 102/11/157 59/6/158
f 103/10/155 60/6/148 59/6/155
f 60/6/148 103/10/155 104/11/159
f 60/6/148 104/11/159 105/10/148
f 59/6/158 60/6/151 103/10/158
f 104/11/160 103/10/158 60/6/151
f 105/10/151 104/11/160 60/6/151
f 62/6/165 107/11/169 106/10/165
f 107/11/169 62/6/165 53/6/161
f 107/11/201 53/6/161 108/10/161
f 106/10/168 107/11/170 62/6/168
f 53/6/163 62/6/168 107/11/170
f 108/10/163 53/6/163 107/11/170
f 110/10/147 105/10/148 109/11/202
f 105/10/148 110/10/147 54/6/147
f 105/10/148 54/6/147 60/6/148
f 109/11/150 105/10/151 110/10/152
f 54/6/152 110/10/152 105/10/151
f 60/6/151 54/6/152 105/10/151
f 101/10/154 106/10/165 111/11/166
f 106/10/165 101/10/154 61/6/154
f 106/10/165 61/6/154 62/6/165
f 111/11/167 106/10/168 101/10/156
f 61/6/156 101/10/156 106/10/168
f 62/6/168 61/6/156 106/10/168
f 53/6/203 112/11/204 108/10/203
f 112/11/162 53/6/161 54/6/147
f 112/11/162 54/6/205 110/10/147
f 108/10/206 112/11/207 53/6/206
f 54/6/152 53/6/163 112/11/164
f 110/10/152 54/6/152 112/11/164
f 3/1/1 2/1/1 1/1/1
f 2/1/1 3/1/1 4/1/1
f 4/1/1 3/1/1 5/1/1
f 4/1/1 5/1/1 6/1/1
f 6/1/1 5/1/1 7/1/1
f 6/1/1 7/1/1 8/1/1
f 9/2/2 1/1/3 2/1/4
f 1/1/3 9/2/2 10/2/5
f 11/2/6 1/1/7 10/2/8
f 1/1/7 11/2/9 3/1/10
f 12/2/11 2/1/4 4/1/12
f 2/1/13 12/2/11 9/2/14
f 13/2/15 4/1/16 6/1/17
f 4/1/16 13/2/15 12/2/18
f 7/1/19 14/2/20 8/1/21
f 14/2/20 7/1/22 15/2/23
f 11/2/24 5/1/25 3/1/10
f 5/1/25 11/2/24 16/2/26
f 8/1/27 13/2/28 6/1/29
f 13/2/30 8/1/27 14/2/31
f 7/1/22 16/2/32 15/2/33
f 16/2/32 7/1/22 5/1/34
f 14/2/35 18/3/36 17/3/37
f 18/3/38 14/2/35 15/2/39
f 16/2/40 18/3/41 15/2/42
f 18/3/41 16/2/43 19/3/44
f 21/3/45 9/2/46 20/3/47
f 9/2/46 21/3/45 10/2/48
f 22/3/49 12/2/50 13/2/51
f 12/2/50 22/3/52 23/3/53
f 21/3/54 11/2/55 10/2/56
f 11/2/55 21/3/57 24/3/58
f 13/2/51 17/3/59 22/3/60
f 17/3/61 13/2/62 14/2/63
f 20/3/64 12/2/50 23/3/65
f 12/2/66 20/3/64 9/2/67
f 24/3/68 16/2/43 11/2/55
f 16/2/43 24/3/69 19/3/70
f 27/4/71 26/4/71 25/4/71
f 26/4/71 27/4/71 28/4/71
f 26/4/71 28/4/71 29/4/71
f 29/4/71 28/4/71 30/4/71
f 29/4/71 30/4/71 31/4/71
f 31/4/71 30/4/71 32/4/71
f 35/5/1 34/5/1 33/5/1
f 34/5/1 35/5/1 36/5/1
f 34/5/1 36/5/1 37/5/1
f 37/5/1 36/5/1 38/5/1
f 37/5/1 38/5/1 39/5/1
f 39/5/1 38/5/1 40/5/1
f 27/4/72 33/5/73 34/5/72
f 33/5/74 27/4/72 25/4/75
f 29/4/76 38/5/77 36/5/76
f 38/5/78 29/4/79 31/4/80
f 40/5/81 31/4/80 32/4/82
f 31/4/78 40/5/81 38/5/80
f 28/4/83 34/5/84 37/5/83
f 34/5/84 28/4/83 27/4/85
f 26/4/86 36/5/76 35/5/86
f 36/5/87 26/4/88 29/4/89
f 30/4/90 37/5/91 39/5/92
f 37/5/93 30/4/94 28/4/95
f 26/4/88 33/5/75 25/4/74
f 33/5/74 26/4/88 35/5/88
f 40/5/81 30/4/92 39/5/92
f 30/4/92 40/5/82 32/4/81
f 43/6/96 42/7/97 41/7/96
f 42/7/97 43/6/96 44/6/97
f 47/6/98 46/7/99 45/7/98
f 46/7/99 47/6/98 48/6/100
f 50/6/101 45/7/102 49/7/101
f 45/7/102 50/6/103 47/6/102
f 48/6/104 41/7/96 46/7/104
f 41/7/96 48/6/104 43/6/96
f 52/7/105 44/6/106 51/6/107
f 44/6/106 52/7/105 42/7/106
f 52/7/107 50/6/101 49/7/101
f 50/6/101 52/7/107 51/6/107
f 41/7/1 45/7/1 46/7/1
f 45/7/1 41/7/1 42/7/1
f 45/7/1 42/7/1 49/7/1
f 49/7/1 42/7/1 52/7/1
f 55/6/108 54/8/109 53/8/110
f 54/8/111 55/6/108 56/6/112
f 59/8/113 58/6/114 57/6/115
f 58/6/114 59/8/113 60/8/116
f 63/6/117 62/8/118 61/8/119
f 62/8/118 63/6/117 64/6/120
f 64/6/121 53/8/122 62/8/118
f 53/8/122 64/6/121 55/6/123
f 64/6/124 56/6/125 55/6/126
f 56/6/127 64/6/124 58/6/128
f 58/6/129 64/6/124 63/6/130
f 58/6/129 63/6/130 57/6/131
f 59/8/132 63/6/117 61/8/119
f 63/6/133 59/8/134 57/6/135
f 54/8/1 62/8/1 53/8/1
f 62/8/1 54/8/1 60/8/1
f 62/8/1 60/8/1 61/8/1
f 61/8/1 60/8/1 59/8/1
f 56/6/127 60/8/116 54/8/109
f 60/8/116 56/6/127 58/6/128
f 67/6/136 66/9/137 65/9/136
f 66/9/137 67/6/136 68/6/137
f 70/6/138 65/9/136 69/9/138
f 65/9/136 70/6/138 67/6/136
f 68/6/139 71/9/140 66/9/139
f 71/9/141 68/6/137 72/6/141
f 72/6/140 73/9/142 71/9/140
f 73/9/142 72/6/140 74/6/142
f 71/9/1 65/9/1 66/9/1
f 65/9/1 71/9/1 69/9/1
f 69/9/1 71/9/1 73/9/1
f 69/9/1 73/9/1 75/9/1
f 76/6/143 69/9/144 75/9/143
f 69/9/144 76/6/145 70/6/146
f 73/9/142 76/6/145 75/9/145
f 76/6/145 73/9/142 74/6/142
f 79/10/147 78/10/148 77/11/149
f 78/10/148 79/10/147 41/6/147
f 78/10/148 41/6/147 42/6/148
f 77/11/150 78/10/151 79/10/152
f 41/6/152 79/10/152 78/10/151
f 42/6/151 41/6/152 78/10/151
f 81/11/153 49/6/154 80/10/154
f 49/6/154 81/11/153 52/6/155
f 52/6/155 81/11/153 82/10/155
f 80/10/156 49/6/156 81/11/157
f 52/6/158 81/11/157 49/6/156
f 82/10/158 81/11/157 52/6/158
f 82/10/155 42/6/148 52/6/155
f 42/6/148 82/10/155 83/11/159
f 42/6/148 83/11/159 78/10/148
f 52/6/158 42/6/151 82/10/158
f 83/11/160 82/10/158 42/6/151
f 78/10/151 83/11/160 42/6/151
f 46/6/161 85/11/162 84/10/161
f 85/11/162 46/6/161 41/6/147
f 85/11/162 41/6/147 79/10/147
f 84/10/163 85/11/164 46/6/163
f 41/6/152 46/6/163 85/11/164
f 79/10/152 41/6/152 85/11/164
f 80/10/154 87/10/165 86/11/166
f 87/10/165 80/10/154 49/6/154
f 87/10/165 49/6/154 45/6/165
f 86/11/167 87/10/168 80/10/156
f 49/6/156 80/10/156 87/10/168
f 45/6/168 49/6/156 87/10/168
f 45/6/165 88/11/169 87/10/165
f 88/11/169 45/6/165 46/6/161
f 88/11/169 46/6/161 84/10/161
f 87/10/168 88/11/170 45/6/168
f 46/6/163 45/6/168 88/11/170
f 84/10/163 46/6/163 88/11/170
f 91/10/171 90/10/172 89/11/173
f 90/10/172 91/10/171 75/6/171
f 90/10/174 75/6/171 69/6/174
f 89/11/175 90/10/176 91/10/177
f 75/6/177 91/10/177 90/10/176
f 69/6/176 75/6/177 90/10/178
f 65/6/179 93/11/180 92/10/179
f 93/11/180 65/6/179 66/6/181
f 93/11/180 66/6/181 94/10/181
f 92/10/182 93/11/183 65/6/182
f 66/6/184 65/6/182 93/11/183
f 94/10/184 66/6/184 93/11/185
f 97/10/186 96/10/187 95/11/188
f 96/10/187 97/10/186 71/6/186
f 96/10/187 71/6/186 73/6/187
f 95/11/189 96/10/190 97/10/191
f 71/6/191 97/10/191 96/10/190
f 73/6/190 71/6/191 96/10/190
f 98/11/192 75/6/171 91/10/171
f 75/6/171 98/11/193 73/6/187
f 73/6/187 98/11/193 96/10/187
f 91/10/177 75/6/177 98/11/194
f 73/6/190 98/11/195 75/6/177
f 96/10/190 98/11/195 73/6/190
f 94/10/181 97/10/186 99/11/196
f 97/10/186 94/10/181 66/6/181
f 97/10/186 66/6/181 71/6/186
f 99/11/197 97/10/191 94/10/184
f 66/6/184 94/10/184 97/10/191
f 71/6/191 66/6/184 97/10/191
f 90/10/172 92/10/179 100/11/198
f 92/10/179 90/10/172 69/6/172
f 92/10/179 69/6/172 65/6/179
f 100/11/199 92/10/182 90/10/176
f 69/6/176 90/10/176 92/10/182
f 65/6/182 69/6/176 92/10/182
f 102/11/153 61/6/154 101/10/154
f 61/6/154 102/11/153 59/6/155
f 59/6/155 102/11/153 103/10/155
f 101/10/156 61/6/156 102/11/200
f 59/6/158 102/11/157 61/6/156
f 103/10/158 102/11/157 59/6/158
f 103/10/155 60/6/148 59/6/155
f 60/6/148 103/10/155 104/11/159
f 60/6/148 104/11/159 105/10/148
f 59/6/158 60/6/151 103/10/158
f 104/11/160 103/10/158 60/6/151
f 105/10/151 104/11/160 60/6/151
f 62/6/165 107/11/169 106/10/165
f 107/11/169 62/6/165 53/6/161
f 107/11/201 53/6/161 108/10/161
f 106/10/168 107/11/170 62/6/168
f 53/6/163 62/6/168 107/11/170
f 108/10/163 53/6/163 107/11/170
f 110/10/147 105/10/148 109/11/202
f 105/10/148 110/10/147 54/6/147
f 105/10/148 54/6/147 60/6/148
f 109/11/150 105/10/151 110/10/152
f 54/6/152 110/10/152 105/10/151
f 60/6/151 54/6/152 105/10/151
f 101/10/154 106/10/165 111/11/166
f 106/10/165 101/10/154 61/6/154
f 106/10/165 61/6/154 62/6/165
f 111/11/167 106/10/168 101/10/156
f 61/6/156 101/10/156 106/10/168
f 62/6/168 61/6/156 106/10/168
f 53/6/203 112/11/204 108/10/203
f 112/11/162 53/6/161 54/6/147
f 112/11/162 54/6/205 110/10/147
f 108/10/206 112/11/207 53/6/206
f 54/6/152 53/6/163 112/11/164
f 110/10/152 54/6/152 112/11/164
