# Blender 4.1.1
# www.blender.org
mtllib cliff_cornerLarge_stone.mtl
o cliff_cornerLarge_stone
v 0.383395 0.174719 -1.398859
v 0.383395 1.174719 -1.398859
v 0.488020 0.174719 -1.084984
v 0.488020 1.174719 -1.084984
v 0.801895 1.174719 -0.980359
v 0.801895 1.174719 -1.398859
v 0.801895 0.174719 -0.980359
v 0.801895 0.174719 -1.398859
vn -0.9487 -0.0000 0.3162
vn 0.9487 -0.0000 -0.3162
vn -0.0000 1.0000 -0.0000
vn -0.0000 -1.0000 -0.0000
vn -0.3162 -0.0000 0.9487
vn 0.3162 -0.0000 -0.9487
vn -0.0000 -0.0000 -1.0000
vn -0.0000 -0.0000 1.0000
vn 1.0000 -0.0000 -0.0000
vn -1.0000 -0.0000 -0.0000
vt -4.634480 0.000000
vt -17.660200 39.370079
vt -17.660200 0.000000
vt -4.634480 39.370079
vt -19.685040 -19.685040
vt -7.327756 -7.327756
vt -19.685040 -3.208662
vt -3.208661 -19.685040
vt 7.327756 -7.327756
vt 19.685040 -19.685040
vt 19.685040 -3.208662
vt 3.208661 -19.685040
vt 17.660200 39.370079
vt 4.634480 0.000000
vt 17.660200 0.000000
vt 4.634480 39.370079
vt -3.208661 39.370079
vt -19.685040 0.000000
vt -3.208661 0.000000
vt -19.685040 39.370079
vt 3.208661 39.370079
vt 19.685040 0.000000
vt 19.685040 39.370079
vt 3.208661 0.000000
s 0
usemtl stone.031
f 3/1/1 2/2/1 1/3/1
f 2/2/1 3/1/1 4/4/1
f 1/3/2 2/2/2 3/1/2
f 4/4/2 3/1/2 2/2/2
f 6/5/3 4/6/3 5/7/3
f 4/6/3 6/5/3 2/8/3
f 5/7/4 4/6/4 6/5/4
f 2/8/4 6/5/4 4/6/4
f 3/9/4 8/10/4 7/11/4
f 8/10/4 3/9/4 1/12/4
f 7/11/3 8/10/3 3/9/3
f 1/12/3 3/9/3 8/10/3
f 5/13/5 3/14/5 7/15/5
f 3/14/5 5/13/5 4/16/5
f 7/15/6 3/14/6 5/13/6
f 4/16/6 5/13/6 3/14/6
f 2/17/7 8/18/7 1/19/7
f 8/18/7 2/17/7 6/20/7
f 1/19/8 8/18/8 2/17/8
f 6/20/8 2/17/8 8/18/8
f 5/21/9 8/22/9 6/23/9
f 8/22/9 5/21/9 7/24/9
f 6/23/10 8/22/10 5/21/10
f 7/24/10 5/21/10 8/22/10
