# Blender 4.1.1
# www.blender.org
mtllib tree.022.mtl
o tree.022
v 4.771759 -0.382804 -21.134596
v 4.969919 -0.382804 -21.280668
v 4.599643 -0.382804 -21.160641
v 4.995963 -0.382804 -21.452784
v 4.453572 -0.382804 -21.358801
v 4.849891 -0.382804 -21.650944
v 4.479616 -0.382804 -21.530916
v 4.677775 -0.382804 -21.676989
v 4.847343 0.062918 -21.343231
v 4.748263 0.062918 -21.270195
v 4.662205 0.062918 -21.283216
v 4.860365 0.062918 -21.429289
v 4.787329 0.062918 -21.528368
v 4.701271 0.062918 -21.541389
v 4.602191 0.062918 -21.468353
v 4.589170 0.062918 -21.382296
v 4.695397 0.731552 -21.575289
v 4.571548 0.731552 -21.483995
v 4.555270 0.731552 -21.376423
v 4.877987 0.731552 -21.327589
v 4.754137 0.731552 -21.236296
v 4.802969 0.731552 -21.559011
v 4.894264 0.731552 -21.435162
v 4.646564 0.731552 -21.252573
v 4.893919 0.222058 -21.277723
v 4.800156 0.222058 -21.254528
v 4.943817 0.222058 -21.360426
v 4.920620 0.222058 -21.454187
v 4.717453 0.222058 -21.304426
v 4.837918 0.222058 -21.504087
v 4.694257 0.222058 -21.398188
v 4.744155 0.222058 -21.480890
v 4.936332 0.060318 -21.220184
v 5.014494 0.060318 -21.349731
v 4.789461 0.060318 -21.183849
v 4.659914 0.060318 -21.262011
v 4.978159 0.060318 -21.496603
v 4.623580 0.060318 -21.408882
v 4.848613 0.060318 -21.574764
v 4.701741 0.060318 -21.538429
v 4.472198 0.731552 -20.853622
v 4.108428 0.731552 -21.347109
v 4.572847 1.468507 -21.083948
v 4.358221 1.468507 -21.375107
v 5.326943 0.731552 -21.483688
v 5.081455 0.731552 -20.921911
v 5.077150 1.468507 -21.455690
v 4.932311 1.468507 -21.124239
v 4.963173 0.731552 -21.977177
v 4.862524 1.468507 -21.746851
v 4.503060 1.468507 -21.706558
v 4.353916 0.731552 -21.908886
v 4.927436 2.260255 -21.130854
v 4.576137 2.260255 -21.091476
v 4.765896 3.090716 -21.349997
v 4.685151 3.090716 -21.340946
v 4.669475 3.090716 -21.480801
v 4.636940 3.090716 -21.406349
v 4.507936 2.260255 -21.699945
v 4.366386 2.260255 -21.376022
v 4.859234 2.260255 -21.739321
v 5.068985 2.260255 -21.454775
v 4.750220 3.090716 -21.489851
v 4.798430 3.090716 -21.424450
v 5.174415 1.468507 -21.215816
v 4.773206 1.468507 -20.920069
v 4.926964 2.260255 -21.323948
v 4.743125 2.260255 -21.188433
v 5.118895 1.468507 -21.711147
v 4.901524 2.260255 -21.550915
v 4.316476 1.468507 -21.119652
v 4.533847 2.260255 -21.279884
v 4.260956 1.468507 -21.614983
v 4.508407 2.260255 -21.506851
v 4.662165 1.468507 -21.910730
v 4.692245 2.260255 -21.642365
v 4.196291 0.501649 -21.031057
v 4.041410 0.616601 -21.339598
v 4.445194 0.616601 -20.791826
v 4.990177 0.616601 -22.038973
v 4.645534 0.501649 -22.059111
v 4.313901 0.616601 -21.963169
v 4.124139 0.501649 -21.674770
v 5.121470 0.616601 -20.867628
v 4.789838 0.501649 -20.771688
v 5.239080 0.501649 -21.799740
v 5.393961 0.616601 -21.491201
v 5.311232 0.501649 -21.156029
v 4.928555 1.281595 -21.897957
v 5.163028 1.375051 -21.743679
v 4.656058 1.375051 -21.965218
v 5.224656 1.375051 -21.193861
v 5.030158 1.281595 -20.991501
v 4.779313 1.375051 -20.865582
v 4.194343 1.281595 -21.356739
v 4.210716 1.375051 -21.636936
v 4.272343 1.375051 -21.087118
v 4.405213 1.281595 -21.839296
v 4.506815 1.281595 -20.932840
v 5.241028 1.281595 -21.474060
v 4.874804 2.193974 -21.774952
v 4.676083 2.127692 -21.786564
v 4.484863 2.193974 -21.731245
v 4.375445 2.127692 -21.564953
v 4.327744 2.193974 -21.371691
v 5.107627 2.193974 -21.459106
v 5.059925 2.127692 -21.265846
v 4.950508 2.193974 -21.099554
v 4.417048 2.127692 -21.193787
v 4.560566 2.193974 -21.055845
v 5.018322 2.127692 -21.637011
v 4.759288 2.127692 -21.044233
vn -0.0000 -1.0000 -0.0000
vn 0.8155 0.2942 0.4984
vn 0.2253 0.2944 0.9288
vn 0.8205 0.2944 0.4899
vn 0.2349 0.2942 0.9264
vn -0.4983 0.2942 0.8155
vn 0.2252 0.2944 0.9288
vn 0.2348 0.2942 0.9265
vn -0.4984 0.2943 0.8155
vn -0.4899 0.2944 0.8206
vn 0.9264 0.2942 -0.2348
vn 0.8206 0.2944 0.4899
vn 0.9288 0.2944 -0.2252
vn 0.9265 0.2942 -0.2348
vn 0.8155 0.2942 0.4983
vn 0.4984 0.2942 -0.8155
vn 0.9288 0.2944 -0.2253
vn 0.4900 0.2944 -0.8205
vn 0.9287 0.2944 -0.2253
vn -0.8205 0.2944 -0.4900
vn -0.2349 0.2942 -0.9264
vn -0.2253 0.2944 -0.9288
vn -0.8155 0.2942 -0.4984
vn -0.4984 0.2942 0.8155
vn -0.9288 0.2944 0.2253
vn -0.4900 0.2944 0.8205
vn -0.9264 0.2942 0.2349
vn -0.2252 0.2944 -0.9288
vn 0.4984 0.2943 -0.8155
vn 0.4899 0.2944 -0.8206
vn 0.4983 0.2942 -0.8155
vn -0.2348 0.2942 -0.9265
vn -0.8205 0.2944 -0.4899
vn -0.9265 0.2942 0.2348
vn -0.8155 0.2942 -0.4983
vn -0.8206 0.2944 -0.4899
vn -0.9288 0.2944 0.2252
vn -0.2407 -0.0513 -0.9692
vn -0.8555 -0.0512 -0.5152
vn -0.2390 -0.0513 -0.9697
vn -0.8555 -0.0513 -0.5152
vn -0.2408 -0.0513 -0.9692
vn -0.8546 -0.0513 -0.5167
vn -0.9692 -0.0512 0.2407
vn -0.8556 -0.0513 -0.5152
vn -0.8546 -0.0512 -0.5167
vn -0.9692 -0.0513 0.2407
vn -0.9697 -0.0512 0.2390
vn 0.2390 -0.0512 0.9697
vn 0.8546 -0.0513 0.5167
vn 0.8555 -0.0513 0.5152
vn 0.2407 -0.0513 0.9692
vn 0.5152 -0.0513 -0.8555
vn 0.9692 -0.0513 -0.2408
vn 0.5167 -0.0513 -0.8546
vn 0.5152 -0.0512 -0.8555
vn 0.9697 -0.0513 -0.2390
vn 0.2390 -0.0513 0.9697
vn -0.5167 -0.0513 0.8546
vn -0.5152 -0.0513 0.8556
vn 0.5167 -0.0512 -0.8546
vn -0.2390 -0.0512 -0.9697
vn 0.5152 -0.0512 -0.8556
vn -0.2407 -0.0512 -0.9692
vn 0.8556 -0.0513 0.5152
vn 0.9692 -0.0513 -0.2407
vn 0.9697 -0.0512 -0.2390
vn 0.9692 -0.0512 -0.2407
vn 0.8546 -0.0512 0.5167
vn -0.5152 -0.0513 0.8555
vn -0.5152 -0.0512 0.8555
vn -0.9697 -0.0513 0.2390
vn -0.0000 1.0000 -0.0000
vn 0.9044 0.4042 0.1369
vn 0.5427 0.4042 0.7362
vn 0.5427 0.4043 0.7362
vn -0.7363 0.4042 0.5427
vn -0.9044 0.4042 -0.1368
vn -0.7363 0.4043 0.5427
vn -0.5427 0.4042 -0.7362
vn -0.9044 0.4042 -0.1369
vn -0.5427 0.4043 -0.7362
vn 0.7363 0.4042 -0.5427
vn 0.9044 0.4042 0.1368
vn 0.9044 0.4043 0.1368
vn -0.1369 0.4042 0.9044
vn -0.7362 0.4042 0.5427
vn 0.1369 0.4042 -0.9044
vn 0.7362 0.4042 -0.5427
vn 0.7362 0.4043 -0.5427
vn -0.1368 0.4042 0.9044
vn 0.5427 0.4043 0.7363
vn 0.5427 0.4042 0.7363
vn -0.1368 0.4043 0.9044
vn -0.5427 0.4042 -0.7363
vn 0.1368 0.4042 -0.9044
vn -0.3790 0.3228 0.8673
vn -0.9406 0.3228 0.1054
vn 0.9406 0.3228 -0.1054
vn 0.5616 0.3228 0.7619
vn 0.5616 0.3228 0.7618
vn 0.3790 0.3228 -0.8673
vn -0.5616 0.3228 -0.7618
vn -0.5616 0.3228 -0.7619
vn 0.4081 0.7260 0.5536
vn -0.3805 0.3115 0.8707
vn 0.5638 0.3115 0.7649
vn -0.2754 0.7260 0.6302
vn -0.5638 0.3115 -0.7649
vn -0.6834 0.7260 0.0767
vn -0.4080 0.7260 -0.5536
vn -0.6834 0.7260 0.0766
vn -0.9443 0.3115 0.1058
vn 0.2753 0.7260 -0.6302
vn 0.9443 0.3115 -0.1059
vn 0.3805 0.3115 -0.8707
vn 0.2754 0.7260 -0.6302
vn 0.6835 0.7260 -0.0766
vn 0.6834 0.7260 -0.0766
vn 0.9443 0.3115 -0.1058
vn 0.6834 0.7260 -0.0767
vn 0.4080 0.7260 0.5536
vn 0.6835 0.7259 -0.0766
vn -0.2754 0.7259 0.6302
vn 0.4080 0.7259 0.5536
vn -0.6835 0.7259 0.0766
vn -0.6835 0.7260 0.0766
vn 0.2754 0.7259 -0.6302
vn -0.4080 0.7259 -0.5536
vn -0.5638 0.3116 -0.7649
vn 0.3805 0.3115 -0.8708
vn -0.2753 0.7260 0.6302
vn -0.9443 0.3115 0.1059
vn 0.8673 0.3228 0.3790
vn 0.1054 0.3228 0.9406
vn 0.7618 0.3228 -0.5616
vn 0.7619 0.3228 -0.5616
vn -0.7618 0.3228 0.5616
vn -0.8673 0.3228 -0.3790
vn -0.7619 0.3228 0.5616
vn -0.1054 0.3228 -0.9406
vn -0.3454 0.5060 0.7904
vn -0.8571 0.5060 0.0961
vn -0.7176 0.4530 0.5290
vn -0.8572 0.5060 0.0961
vn 0.7176 -0.4530 -0.5290
vn 0.8572 -0.5060 -0.0961
vn 0.3454 -0.5060 -0.7904
vn -0.0993 0.4530 -0.8860
vn 0.3454 0.5060 -0.7903
vn 0.3454 0.5060 -0.7904
vn -0.5118 0.5060 -0.6943
vn -0.3454 -0.5060 0.7904
vn -0.3454 -0.5060 0.7903
vn 0.0993 -0.4530 0.8860
vn 0.5118 -0.5060 0.6943
vn -0.8169 0.4530 -0.3570
vn 0.8571 -0.5060 -0.0961
vn 0.8169 -0.4530 0.3570
vn 0.5118 0.5060 0.6943
vn 0.0993 0.4530 0.8860
vn -0.3454 0.5060 0.7903
vn -0.5118 -0.5060 -0.6943
vn -0.0993 -0.4530 -0.8860
vn 0.3454 -0.5060 -0.7903
vn 0.8571 0.5060 -0.0961
vn 0.7176 0.4530 -0.5290
vn 0.8572 0.5060 -0.0961
vn -0.7176 -0.4530 0.5290
vn -0.8572 -0.5060 0.0961
vn 0.8169 0.4530 0.3570
vn -0.8169 -0.4530 -0.3570
vn -0.8571 -0.5060 0.0961
vn -0.0961 0.5060 -0.8572
vn 0.6943 0.5060 -0.5118
vn 0.3570 0.4530 -0.8169
vn -0.0961 0.5060 -0.8571
vn -0.3570 -0.4530 0.8169
vn -0.6943 -0.5060 0.5118
vn 0.0961 -0.5060 0.8572
vn 0.0961 -0.5061 0.8571
vn 0.7903 0.5060 0.3454
vn 0.5290 0.4530 0.7176
vn 0.7904 0.5060 0.3454
vn 0.0961 0.5061 0.8571
vn 0.0961 0.5060 0.8571
vn 0.0961 0.5060 0.8572
vn -0.7904 -0.5060 -0.3454
vn -0.5290 -0.4530 -0.7176
vn -0.7903 -0.5060 -0.3454
vn -0.0961 -0.5060 -0.8572
vn -0.6943 0.5060 0.5118
vn -0.7903 0.5060 -0.3454
vn -0.8860 0.4530 0.0993
vn -0.7904 0.5060 -0.3454
vn 0.8860 -0.4530 -0.0993
vn 0.7904 -0.5060 0.3454
vn 0.6943 -0.5060 -0.5118
vn -0.5290 0.4529 -0.7176
vn -0.5290 0.4530 -0.7176
vn -0.7903 0.5060 -0.3453
vn 0.5290 -0.4530 0.7176
vn 0.7903 -0.5060 0.3454
vn -0.3570 0.4529 0.8169
vn 0.3570 -0.4529 -0.8170
vn -0.0961 -0.5060 -0.8571
vn 0.8860 0.4530 -0.0993
vn -0.8860 -0.4530 0.0993
vn -0.0993 0.4529 -0.8860
vn 0.0993 -0.4529 0.8860
vn 0.8170 0.4529 0.3570
vn -0.8170 -0.4529 -0.3570
vn -0.7176 0.4529 0.5290
vn 0.7176 -0.4529 -0.5290
vn -0.7176 -0.4529 0.5290
vn 0.0993 0.4529 0.8860
vn -0.0993 -0.4529 -0.8860
vt 0.593750 0.025000
vt 0.593750 0.104996
vt 0.593750 0.225000
vt 0.093750 0.475000
vt 0.093750 0.275000
vt 0.093750 0.425000
vt 0.093750 0.348778
vt 0.093750 0.338765
vt 0.093750 0.344099
vt 0.093750 0.375000
vt 0.093750 0.325000
s 0
usemtl colormap.025
f 3/1/1 2/1/1 1/1/1
f 2/1/1 3/1/1 4/1/1
f 4/1/1 3/1/1 5/1/1
f 4/1/1 5/1/1 6/1/1
f 6/1/1 5/1/1 7/1/1
f 6/1/1 7/1/1 8/1/1
f 9/2/2 1/1/3 2/1/4
f 1/1/3 9/2/2 10/2/5
f 11/2/6 1/1/7 10/2/8
f 1/1/7 11/2/9 3/1/10
f 12/2/11 2/1/12 4/1/13
f 2/1/4 12/2/14 9/2/15
f 13/2/16 4/1/17 6/1/18
f 4/1/19 13/2/16 12/2/11
f 7/1/20 14/2/21 8/1/22
f 14/2/21 7/1/20 15/2/23
f 11/2/24 5/1/25 3/1/26
f 5/1/25 11/2/24 16/2/27
f 8/1/28 13/2/29 6/1/30
f 13/2/31 8/1/28 14/2/32
f 7/1/33 16/2/34 15/2/35
f 16/2/34 7/1/36 5/1/37
f 14/2/38 18/3/39 17/3/40
f 18/3/41 14/2/42 15/2/43
f 16/2/44 18/3/45 15/2/46
f 18/3/45 16/2/47 19/3/48
f 21/3/49 9/2/50 20/3/51
f 9/2/50 21/3/49 10/2/52
f 22/3/53 12/2/54 13/2/55
f 12/2/54 22/3/56 23/3/57
f 21/3/58 11/2/59 10/2/52
f 11/2/59 21/3/49 24/3/60
f 13/2/61 17/3/62 22/3/63
f 17/3/40 13/2/55 14/2/64
f 20/3/65 12/2/66 23/3/67
f 12/2/68 20/3/65 9/2/69
f 24/3/70 16/2/47 11/2/59
f 16/2/47 24/3/71 19/3/72
f 27/4/73 26/4/73 25/4/73
f 26/4/73 27/4/73 28/4/73
f 26/4/73 28/4/73 29/4/73
f 29/4/73 28/4/73 30/4/73
f 29/4/73 30/4/73 31/4/73
f 31/4/73 30/4/73 32/4/73
f 35/5/1 34/5/1 33/5/1
f 34/5/1 35/5/1 36/5/1
f 34/5/1 36/5/1 37/5/1
f 37/5/1 36/5/1 38/5/1
f 37/5/1 38/5/1 39/5/1
f 39/5/1 38/5/1 40/5/1
f 27/4/74 33/5/75 34/5/74
f 33/5/75 27/4/74 25/4/76
f 29/4/77 38/5/78 36/5/79
f 38/5/78 29/4/77 31/4/78
f 40/5/80 31/4/81 32/4/82
f 31/4/81 40/5/80 38/5/81
f 28/4/83 34/5/84 37/5/83
f 34/5/84 28/4/83 27/4/85
f 26/4/86 36/5/87 35/5/86
f 36/5/87 26/4/86 29/4/87
f 30/4/88 37/5/89 39/5/88
f 37/5/89 30/4/88 28/4/90
f 26/4/91 33/5/92 25/4/93
f 33/5/93 26/4/94 35/5/91
f 40/5/95 30/4/96 39/5/96
f 30/4/96 40/5/82 32/4/95
f 43/6/97 42/7/98 41/7/97
f 42/7/98 43/6/97 44/6/98
f 47/6/99 46/7/100 45/7/99
f 46/7/100 47/6/99 48/6/101
f 50/6/102 45/7/99 49/7/102
f 45/7/99 50/6/102 47/6/99
f 48/6/100 41/7/97 46/7/100
f 41/7/97 48/6/100 43/6/97
f 52/7/103 44/6/98 51/6/103
f 44/6/98 52/7/104 42/7/98
f 52/7/104 50/6/102 49/7/102
f 50/6/102 52/7/103 51/6/104
f 41/7/1 45/7/1 46/7/1
f 45/7/1 41/7/1 42/7/1
f 45/7/1 42/7/1 49/7/1
f 49/7/1 42/7/1 52/7/1
f 55/6/105 54/8/106 53/8/107
f 54/8/106 55/6/105 56/6/108
f 59/8/109 58/6/110 57/6/111
f 58/6/112 59/8/109 60/8/113
f 63/6/114 62/8/115 61/8/116
f 62/8/115 63/6/117 64/6/118
f 64/6/119 53/8/107 62/8/120
f 53/8/107 64/6/121 55/6/122
f 64/6/123 56/6/124 55/6/125
f 56/6/124 64/6/123 58/6/126
f 58/6/127 64/6/123 63/6/128
f 58/6/126 63/6/128 57/6/129
f 59/8/130 63/6/117 61/8/131
f 63/6/114 59/8/109 57/6/111
f 54/8/1 62/8/1 53/8/1
f 62/8/1 54/8/1 60/8/1
f 62/8/1 60/8/1 61/8/1
f 61/8/1 60/8/1 59/8/1
f 56/6/132 60/8/133 54/8/106
f 60/8/133 56/6/132 58/6/127
f 67/6/134 66/9/135 65/9/134
f 66/9/135 67/6/134 68/6/135
f 70/6/136 65/9/134 69/9/137
f 65/9/134 70/6/137 67/6/134
f 68/6/135 71/9/138 66/9/135
f 71/9/138 68/6/135 72/6/138
f 72/6/138 73/9/139 71/9/140
f 73/9/139 72/6/140 74/6/139
f 71/9/1 65/9/1 66/9/1
f 65/9/1 71/9/1 69/9/1
f 69/9/1 71/9/1 73/9/1
f 69/9/1 73/9/1 75/9/1
f 76/6/141 69/9/136 75/9/141
f 69/9/136 76/6/141 70/6/136
f 73/9/139 76/6/141 75/9/141
f 76/6/141 73/9/139 74/6/139
f 79/10/142 78/10/143 77/11/144
f 78/10/145 79/10/142 41/6/142
f 78/10/145 41/6/142 42/6/145
f 77/11/146 78/10/147 79/10/148
f 41/6/148 79/10/148 78/10/147
f 42/6/147 41/6/148 78/10/147
f 81/11/149 49/6/150 80/10/151
f 49/6/150 81/11/149 52/6/152
f 52/6/152 81/11/149 82/10/152
f 80/10/153 49/6/154 81/11/155
f 52/6/156 81/11/155 49/6/153
f 82/10/156 81/11/155 52/6/156
f 82/10/152 42/6/145 52/6/152
f 42/6/145 82/10/152 83/11/157
f 42/6/145 83/11/157 78/10/145
f 52/6/156 42/6/158 82/10/156
f 83/11/159 82/10/156 42/6/147
f 78/10/147 83/11/159 42/6/158
f 46/6/160 85/11/161 84/10/160
f 85/11/161 46/6/160 41/6/162
f 85/11/161 41/6/162 79/10/142
f 84/10/163 85/11/164 46/6/163
f 41/6/148 46/6/163 85/11/164
f 79/10/148 41/6/165 85/11/164
f 80/10/151 87/10/166 86/11/167
f 87/10/168 80/10/151 49/6/151
f 87/10/168 49/6/151 45/6/168
f 86/11/169 87/10/170 80/10/153
f 49/6/153 80/10/153 87/10/170
f 45/6/170 49/6/154 87/10/170
f 45/6/166 88/11/171 87/10/168
f 88/11/171 45/6/168 46/6/160
f 88/11/171 46/6/160 84/10/160
f 87/10/170 88/11/172 45/6/173
f 46/6/163 45/6/170 88/11/172
f 84/10/163 46/6/163 88/11/172
f 91/10/174 90/10/175 89/11/176
f 90/10/175 91/10/174 75/6/174
f 90/10/175 75/6/177 69/6/175
f 89/11/178 90/10/179 91/10/180
f 75/6/180 91/10/180 90/10/179
f 69/6/179 75/6/181 90/10/179
f 65/6/182 93/11/183 92/10/184
f 93/11/183 65/6/184 66/6/185
f 93/11/183 66/6/186 94/10/187
f 92/10/188 93/11/189 65/6/190
f 66/6/191 65/6/188 93/11/189
f 94/10/191 66/6/191 93/11/189
f 97/10/192 96/10/193 95/11/194
f 96/10/195 97/10/192 71/6/192
f 96/10/195 71/6/192 73/6/195
f 95/11/196 96/10/197 97/10/198
f 71/6/198 97/10/198 96/10/197
f 73/6/197 71/6/198 96/10/197
f 98/11/199 75/6/177 91/10/174
f 75/6/177 98/11/200 73/6/195
f 73/6/201 98/11/200 96/10/195
f 91/10/180 75/6/180 98/11/202
f 73/6/197 98/11/202 75/6/180
f 96/10/197 98/11/202 73/6/203
f 94/10/187 97/10/192 99/11/204
f 97/10/192 94/10/186 66/6/186
f 97/10/192 66/6/187 71/6/192
f 99/11/205 97/10/198 94/10/191
f 66/6/206 94/10/206 97/10/198
f 71/6/198 66/6/191 97/10/198
f 90/10/175 92/10/182 100/11/207
f 92/10/184 90/10/175 69/6/175
f 92/10/184 69/6/175 65/6/184
f 100/11/208 92/10/188 90/10/179
f 69/6/179 90/10/179 92/10/188
f 65/6/188 69/6/179 92/10/188
f 102/11/149 61/6/150 101/10/151
f 61/6/150 102/11/149 59/6/152
f 59/6/152 102/11/209 103/10/152
f 101/10/153 61/6/153 102/11/210
f 59/6/156 102/11/155 61/6/153
f 103/10/156 102/11/210 59/6/156
f 103/10/152 60/6/145 59/6/152
f 60/6/145 103/10/152 104/11/157
f 60/6/143 104/11/157 105/10/145
f 59/6/156 60/6/158 103/10/156
f 104/11/159 103/10/156 60/6/158
f 105/10/147 104/11/159 60/6/158
f 62/6/168 107/11/171 106/10/168
f 107/11/171 62/6/168 53/6/160
f 107/11/211 53/6/160 108/10/160
f 106/10/170 107/11/172 62/6/173
f 53/6/163 62/6/170 107/11/172
f 108/10/163 53/6/163 107/11/212
f 110/10/142 105/10/145 109/11/213
f 105/10/145 110/10/142 54/6/142
f 105/10/145 54/6/142 60/6/145
f 109/11/214 105/10/147 110/10/148
f 54/6/148 110/10/148 105/10/147
f 60/6/147 54/6/148 105/10/147
f 101/10/151 106/10/166 111/11/167
f 106/10/168 101/10/151 61/6/151
f 106/10/168 61/6/151 62/6/168
f 111/11/215 106/10/170 101/10/153
f 61/6/153 101/10/153 106/10/170
f 62/6/170 61/6/154 106/10/170
f 53/6/160 112/11/216 108/10/160
f 112/11/216 53/6/160 54/6/142
f 112/11/161 54/6/162 110/10/142
f 108/10/163 112/11/217 53/6/163
f 54/6/148 53/6/163 112/11/164
f 110/10/148 54/6/148 112/11/217
f 3/1/1 2/1/1 1/1/1
f 2/1/1 3/1/1 4/1/1
f 4/1/1 3/1/1 5/1/1
f 4/1/1 5/1/1 6/1/1
f 6/1/1 5/1/1 7/1/1
f 6/1/1 7/1/1 8/1/1
f 9/2/2 1/1/3 2/1/4
f 1/1/3 9/2/2 10/2/5
f 11/2/6 1/1/7 10/2/8
f 1/1/7 11/2/9 3/1/10
f 12/2/11 2/1/12 4/1/13
f 2/1/4 12/2/14 9/2/15
f 13/2/16 4/1/17 6/1/18
f 4/1/19 13/2/16 12/2/11
f 7/1/20 14/2/21 8/1/22
f 14/2/21 7/1/20 15/2/23
f 11/2/24 5/1/25 3/1/26
f 5/1/25 11/2/24 16/2/27
f 8/1/28 13/2/29 6/1/30
f 13/2/31 8/1/28 14/2/32
f 7/1/33 16/2/34 15/2/35
f 16/2/34 7/1/36 5/1/37
f 14/2/38 18/3/39 17/3/40
f 18/3/41 14/2/42 15/2/43
f 16/2/44 18/3/45 15/2/46
f 18/3/45 16/2/47 19/3/48
f 21/3/49 9/2/50 20/3/51
f 9/2/50 21/3/49 10/2/52
f 22/3/53 12/2/54 13/2/55
f 12/2/54 22/3/56 23/3/57
f 21/3/58 11/2/59 10/2/52
f 11/2/59 21/3/49 24/3/60
f 13/2/61 17/3/62 22/3/63
f 17/3/40 13/2/55 14/2/64
f 20/3/65 12/2/66 23/3/67
f 12/2/68 20/3/65 9/2/69
f 24/3/70 16/2/47 11/2/59
f 16/2/47 24/3/71 19/3/72
f 27/4/73 26/4/73 25/4/73
f 26/4/73 27/4/73 28/4/73
f 26/4/73 28/4/73 29/4/73
f 29/4/73 28/4/73 30/4/73
f 29/4/73 30/4/73 31/4/73
f 31/4/73 30/4/73 32/4/73
f 35/5/1 34/5/1 33/5/1
f 34/5/1 35/5/1 36/5/1
f 34/5/1 36/5/1 37/5/1
f 37/5/1 36/5/1 38/5/1
f 37/5/1 38/5/1 39/5/1
f 39/5/1 38/5/1 40/5/1
f 27/4/74 33/5/75 34/5/74
f 33/5/75 27/4/74 25/4/76
f 29/4/77 38/5/78 36/5/79
f 38/5/78 29/4/77 31/4/78
f 40/5/80 31/4/81 32/4/82
f 31/4/81 40/5/80 38/5/81
f 28/4/83 34/5/84 37/5/83
f 34/5/84 28/4/83 27/4/85
f 26/4/86 36/5/87 35/5/86
f 36/5/87 26/4/86 29/4/87
f 30/4/88 37/5/89 39/5/88
f 37/5/89 30/4/88 28/4/90
f 26/4/91 33/5/92 25/4/93
f 33/5/93 26/4/94 35/5/91
f 40/5/95 30/4/96 39/5/96
f 30/4/96 40/5/82 32/4/95
f 43/6/97 42/7/98 41/7/97
f 42/7/98 43/6/97 44/6/98
f 47/6/99 46/7/100 45/7/99
f 46/7/100 47/6/99 48/6/101
f 50/6/102 45/7/99 49/7/102
f 45/7/99 50/6/102 47/6/99
f 48/6/100 41/7/97 46/7/100
f 41/7/97 48/6/100 43/6/97
f 52/7/103 44/6/98 51/6/103
f 44/6/98 52/7/104 42/7/98
f 52/7/104 50/6/102 49/7/102
f 50/6/102 52/7/103 51/6/104
f 41/7/1 45/7/1 46/7/1
f 45/7/1 41/7/1 42/7/1
f 45/7/1 42/7/1 49/7/1
f 49/7/1 42/7/1 52/7/1
f 55/6/105 54/8/106 53/8/107
f 54/8/106 55/6/105 56/6/108
f 59/8/109 58/6/110 57/6/111
f 58/6/112 59/8/109 60/8/113
f 63/6/114 62/8/115 61/8/116
f 62/8/115 63/6/117 64/6/118
f 64/6/119 53/8/107 62/8/120
f 53/8/107 64/6/121 55/6/122
f 64/6/123 56/6/124 55/6/125
f 56/6/124 64/6/123 58/6/126
f 58/6/127 64/6/123 63/6/128
f 58/6/126 63/6/128 57/6/129
f 59/8/130 63/6/117 61/8/131
f 63/6/114 59/8/109 57/6/111
f 54/8/1 62/8/1 53/8/1
f 62/8/1 54/8/1 60/8/1
f 62/8/1 60/8/1 61/8/1
f 61/8/1 60/8/1 59/8/1
f 56/6/132 60/8/133 54/8/106
f 60/8/133 56/6/132 58/6/127
f 67/6/134 66/9/135 65/9/134
f 66/9/135 67/6/134 68/6/135
f 70/6/136 65/9/134 69/9/137
f 65/9/134 70/6/137 67/6/134
f 68/6/135 71/9/138 66/9/135
f 71/9/138 68/6/135 72/6/138
f 72/6/138 73/9/139 71/9/140
f 73/9/139 72/6/140 74/6/139
f 71/9/1 65/9/1 66/9/1
f 65/9/1 71/9/1 69/9/1
f 69/9/1 71/9/1 73/9/1
f 69/9/1 73/9/1 75/9/1
f 76/6/141 69/9/136 75/9/141
f 69/9/136 76/6/141 70/6/136
f 73/9/139 76/6/141 75/9/141
f 76/6/141 73/9/139 74/6/139
f 79/10/142 78/10/143 77/11/144
f 78/10/145 79/10/142 41/6/142
f 78/10/145 41/6/142 42/6/145
f 77/11/146 78/10/147 79/10/148
f 41/6/148 79/10/148 78/10/147
f 42/6/147 41/6/148 78/10/147
f 81/11/149 49/6/150 80/10/151
f 49/6/150 81/11/149 52/6/152
f 52/6/152 81/11/149 82/10/152
f 80/10/153 49/6/154 81/11/155
f 52/6/156 81/11/155 49/6/153
f 82/10/156 81/11/155 52/6/156
f 82/10/152 42/6/145 52/6/152
f 42/6/145 82/10/152 83/11/157
f 42/6/145 83/11/157 78/10/145
f 52/6/156 42/6/158 82/10/156
f 83/11/159 82/10/156 42/6/147
f 78/10/147 83/11/159 42/6/158
f 46/6/160 85/11/161 84/10/160
f 85/11/161 46/6/160 41/6/162
f 85/11/161 41/6/162 79/10/142
f 84/10/163 85/11/164 46/6/163
f 41/6/148 46/6/163 85/11/164
f 79/10/148 41/6/165 85/11/164
f 80/10/151 87/10/166 86/11/167
f 87/10/168 80/10/151 49/6/151
f 87/10/168 49/6/151 45/6/168
f 86/11/169 87/10/170 80/10/153
f 49/6/153 80/10/153 87/10/170
f 45/6/170 49/6/154 87/10/170
f 45/6/166 88/11/171 87/10/168
f 88/11/171 45/6/168 46/6/160
f 88/11/171 46/6/160 84/10/160
f 87/10/170 88/11/172 45/6/173
f 46/6/163 45/6/170 88/11/172
f 84/10/163 46/6/163 88/11/172
f 91/10/174 90/10/175 89/11/176
f 90/10/175 91/10/174 75/6/174
f 90/10/175 75/6/177 69/6/175
f 89/11/178 90/10/179 91/10/180
f 75/6/180 91/10/180 90/10/179
f 69/6/179 75/6/181 90/10/179
f 65/6/182 93/11/183 92/10/184
f 93/11/183 65/6/184 66/6/185
f 93/11/183 66/6/186 94/10/187
f 92/10/188 93/11/189 65/6/190
f 66/6/191 65/6/188 93/11/189
f 94/10/191 66/6/191 93/11/189
f 97/10/192 96/10/193 95/11/194
f 96/10/195 97/10/192 71/6/192
f 96/10/195 71/6/192 73/6/195
f 95/11/196 96/10/197 97/10/198
f 71/6/198 97/10/198 96/10/197
f 73/6/197 71/6/198 96/10/197
f 98/11/199 75/6/177 91/10/174
f 75/6/177 98/11/200 73/6/195
f 73/6/201 98/11/200 96/10/195
f 91/10/180 75/6/180 98/11/202
f 73/6/197 98/11/202 75/6/180
f 96/10/197 98/11/202 73/6/203
f 94/10/187 97/10/192 99/11/204
f 97/10/192 94/10/186 66/6/186
f 97/10/192 66/6/187 71/6/192
f 99/11/205 97/10/198 94/10/191
f 66/6/206 94/10/206 97/10/198
f 71/6/198 66/6/191 97/10/198
f 90/10/175 92/10/182 100/11/207
f 92/10/184 90/10/175 69/6/175
f 92/10/184 69/6/175 65/6/184
f 100/11/208 92/10/188 90/10/179
f 69/6/179 90/10/179 92/10/188
f 65/6/188 69/6/179 92/10/188
f 102/11/149 61/6/150 101/10/151
f 61/6/150 102/11/149 59/6/152
f 59/6/152 102/11/209 103/10/152
f 101/10/153 61/6/153 102/11/210
f 59/6/156 102/11/155 61/6/153
f 103/10/156 102/11/210 59/6/156
f 103/10/152 60/6/145 59/6/152
f 60/6/145 103/10/152 104/11/157
f 60/6/143 104/11/157 105/10/145
f 59/6/156 60/6/158 103/10/156
f 104/11/159 103/10/156 60/6/158
f 105/10/147 104/11/159 60/6/158
f 62/6/168 107/11/171 106/10/168
f 107/11/171 62/6/168 53/6/160
f 107/11/211 53/6/160 108/10/160
f 106/10/170 107/11/172 62/6/173
f 53/6/163 62/6/170 107/11/172
f 108/10/163 53/6/163 107/11/212
f 110/10/142 105/10/145 109/11/213
f 105/10/145 110/10/142 54/6/142
f 105/10/145 54/6/142 60/6/145
f 109/11/214 105/10/147 110/10/148
f 54/6/148 110/10/148 105/10/147
f 60/6/147 54/6/148 105/10/147
f 101/10/151 106/10/166 111/11/167
f 106/10/168 101/10/151 61/6/151
f 106/10/168 61/6/151 62/6/168
f 111/11/215 106/10/170 101/10/153
f 61/6/153 101/10/153 106/10/170
f 62/6/170 61/6/154 106/10/170
f 53/6/160 112/11/216 108/10/160
f 112/11/216 53/6/160 54/6/142
f 112/11/161 54/6/162 110/10/142
f 108/10/163 112/11/217 53/6/163
f 54/6/148 53/6/163 112/11/164
f 110/10/148 54/6/148 112/11/217
