# Blender 4.1.1
# www.blender.org
mtllib tree.025.mtl
o tree.025
v -0.971612 -4.675250 5.296124
v -0.812463 -4.675250 5.188583
v -1.104957 -4.675250 5.270321
v -0.786659 -4.675250 5.055238
v -1.212499 -4.675250 5.111172
v -0.894201 -4.675250 4.896089
v -1.186695 -4.675250 4.977827
v -1.027546 -4.675250 4.870285
v -0.906021 -4.327483 5.135894
v -0.985595 -4.327483 5.189665
v -1.052268 -4.327483 5.176763
v -0.893119 -4.327483 5.069221
v -0.946890 -4.327483 4.989647
v -1.013562 -4.327483 4.976745
v -1.093137 -4.327483 5.030515
v -1.106039 -4.327483 5.097188
v -1.017058 -3.805793 4.950130
v -1.116526 -3.805793 5.017343
v -1.132654 -3.805793 5.100684
v -0.882631 -3.805793 5.149066
v -0.982099 -3.805793 5.216280
v -0.933717 -3.805793 4.966257
v -0.866504 -3.805793 5.065725
v -1.065440 -3.805793 5.200152
v -0.871805 -4.203316 5.188450
v -0.945642 -4.203316 5.203537
v -0.830263 -4.203316 5.125572
v -0.845349 -4.203316 5.051735
v -1.008520 -4.203316 5.161994
v -0.908228 -4.203316 5.010192
v -1.023607 -4.203316 5.088158
v -0.982064 -4.203316 5.025279
v -0.840579 -4.329511 5.234662
v -0.775506 -4.329511 5.136168
v -0.956238 -4.329511 5.258293
v -1.054731 -4.329511 5.193221
v -0.799138 -4.329511 5.020509
v -1.078363 -4.329511 5.077561
v -0.897632 -4.329511 4.955436
v -1.013291 -4.329511 4.979068
v -1.214122 -3.805793 5.505593
v -1.481938 -3.805793 5.109256
v -1.128298 -3.230796 5.329252
v -1.286310 -3.230796 5.095412
v -0.527646 -3.805793 5.041722
v -0.736976 -3.805793 5.471826
v -0.723274 -3.230796 5.055566
v -0.846780 -3.230796 5.309330
v -0.795463 -3.805793 4.645385
v -0.881287 -3.230796 4.821726
v -1.162805 -3.230796 4.841649
v -1.272609 -3.805793 4.679152
v -0.850369 -2.613048 5.304018
v -1.125492 -2.613048 5.323488
v -0.969299 -1.965096 5.128016
v -1.032535 -1.965096 5.132491
v -1.040286 -1.965096 5.022962
v -1.068028 -1.965096 5.079964
v -1.159216 -2.613048 4.846961
v -1.279916 -2.613048 5.094959
v -0.884092 -2.613048 4.827490
v -0.729669 -2.613048 5.056019
v -0.977050 -1.965096 5.018487
v -0.941556 -1.965096 5.071014
v -0.655114 -3.230796 5.245676
v -0.977339 -3.230796 5.463413
v -0.844566 -2.613048 5.153471
v -0.992213 -2.613048 5.253240
v -0.682567 -3.230796 4.857752
v -0.857145 -2.613048 4.975719
v -1.327018 -3.230796 5.293226
v -1.152439 -2.613048 5.175258
v -1.354471 -3.230796 4.905302
v -1.165019 -2.613048 4.997508
v -1.032245 -3.230796 4.687565
v -1.017372 -2.613048 4.897738
v -1.423543 -3.985170 5.358450
v -1.534424 -3.895481 5.112971
v -1.237149 -3.895481 5.552905
v -0.772436 -3.895481 4.598073
v -1.040469 -3.985170 4.571360
v -1.302068 -3.895481 4.635555
v -1.459219 -3.985170 4.854321
v -0.707516 -3.895481 5.515423
v -0.969116 -3.985170 5.579618
v -0.586042 -3.985170 4.792528
v -0.475160 -3.895481 5.038008
v -0.550365 -3.985170 5.296657
v -0.824981 -3.376631 4.706036
v -0.647122 -3.303713 4.833801
v -1.035265 -3.303713 4.644894
v -0.616650 -3.303713 5.264396
v -0.774742 -3.376631 5.415936
v -0.974320 -3.303713 5.506084
v -1.414653 -3.376631 5.104495
v -1.392935 -3.303713 4.886581
v -1.362462 -3.303713 5.317177
v -1.234842 -3.376631 4.735042
v -1.184603 -3.376631 5.444942
v -0.594931 -3.376631 5.046484
v -0.870815 -2.664763 4.800210
v -1.025364 -2.716478 4.784807
v -1.176202 -2.664763 4.821822
v -1.266816 -2.716478 4.947963
v -1.310179 -2.664763 5.097101
v -0.699406 -2.664763 5.053877
v -0.742769 -2.716478 5.203015
v -0.833382 -2.664763 5.329156
v -1.246244 -2.716478 5.238645
v -1.138769 -2.664763 5.350768
v -0.763340 -2.716478 4.912333
v -0.984221 -2.716478 5.366170
vn -0.0000 -1.0000 -0.0000
vn 0.7944 0.2942 0.5314
vn 0.1870 0.2944 0.9372
vn 0.7998 0.2944 0.5231
vn 0.1967 0.2942 0.9353
vn -0.5313 0.2942 0.7944
vn 0.1966 0.2942 0.9353
vn -0.5313 0.2943 0.7944
vn -0.5231 0.2944 0.7998
vn 0.9353 0.2942 -0.1966
vn 0.9372 0.2944 -0.1870
vn 0.7944 0.2942 0.5313
vn 0.5314 0.2942 -0.7944
vn 0.5232 0.2944 -0.7998
vn 0.9353 0.2942 -0.1967
vn -0.7998 0.2944 -0.5232
vn -0.1967 0.2942 -0.9353
vn -0.1870 0.2944 -0.9372
vn -0.7944 0.2942 -0.5314
vn -0.5314 0.2942 0.7944
vn -0.9372 0.2944 0.1870
vn -0.9353 0.2942 0.1967
vn 0.5313 0.2943 -0.7944
vn 0.5231 0.2944 -0.7998
vn 0.5313 0.2942 -0.7944
vn -0.1966 0.2942 -0.9353
vn -0.7998 0.2944 -0.5231
vn -0.9353 0.2942 0.1966
vn -0.7944 0.2942 -0.5313
vn -0.2009 -0.0513 -0.9783
vn -0.8337 -0.0512 -0.5498
vn -0.1991 -0.0513 -0.9786
vn -0.8337 -0.0513 -0.5498
vn -0.2008 -0.0513 -0.9783
vn -0.8327 -0.0513 -0.5513
vn -0.9783 -0.0512 0.2008
vn -0.8328 -0.0512 -0.5513
vn -0.9783 -0.0513 0.2008
vn -0.9786 -0.0512 0.1991
vn 0.1991 -0.0512 0.9786
vn 0.8327 -0.0513 0.5513
vn 0.8337 -0.0513 0.5498
vn 0.2009 -0.0513 0.9783
vn 0.5498 -0.0513 -0.8337
vn 0.9783 -0.0513 -0.2009
vn 0.5513 -0.0513 -0.8327
vn 0.9783 -0.0513 -0.2008
vn 0.5498 -0.0512 -0.8337
vn 0.9786 -0.0513 -0.1991
vn 0.1991 -0.0513 0.9786
vn -0.5513 -0.0513 0.8328
vn 0.2008 -0.0512 0.9783
vn -0.5512 -0.0513 0.8328
vn -0.5498 -0.0513 0.8337
vn 0.5513 -0.0513 -0.8328
vn -0.1991 -0.0512 -0.9786
vn -0.2008 -0.0512 -0.9783
vn 0.9786 -0.0512 -0.1991
vn 0.9783 -0.0512 -0.2008
vn 0.8328 -0.0512 0.5513
vn -0.5513 -0.0513 0.8327
vn -0.9783 -0.0513 0.2009
vn -0.5498 -0.0512 0.8337
vn -0.9786 -0.0513 0.1991
vn -0.0000 1.0000 -0.0000
vn 0.8980 0.4042 0.1738
vn 0.5121 0.4042 0.7578
vn 0.5121 0.4042 0.7579
vn 0.5121 0.4043 0.7578
vn -0.7579 0.4042 0.5121
vn -0.8980 0.4042 -0.1737
vn -0.8980 0.4042 -0.1738
vn -0.8980 0.4043 -0.1737
vn -0.5121 0.4042 -0.7578
vn -0.5121 0.4043 -0.7578
vn -0.5121 0.4042 -0.7579
vn 0.7579 0.4042 -0.5121
vn 0.8980 0.4042 0.1737
vn 0.8980 0.4043 0.1737
vn -0.1738 0.4042 0.8980
vn -0.7578 0.4042 0.5121
vn 0.1738 0.4042 -0.8980
vn 0.7578 0.4042 -0.5121
vn 0.7578 0.4043 -0.5121
vn -0.1737 0.4042 0.8980
vn 0.5121 0.4043 0.7579
vn 0.1737 0.4042 -0.8980
vn -0.5121 0.4043 -0.7579
vn -0.4142 0.3228 0.8510
vn -0.9441 0.3228 0.0668
vn 0.9441 0.3228 -0.0668
vn 0.5299 0.3228 0.7842
vn 0.4142 0.3228 -0.8510
vn -0.5299 0.3228 -0.7842
vn 0.3851 0.7260 0.5698
vn -0.4158 0.3115 0.8544
vn 0.5320 0.3115 0.7874
vn -0.3010 0.7260 0.6184
vn -0.5320 0.3115 -0.7873
vn -0.6860 0.7260 0.0486
vn -0.3850 0.7260 -0.5699
vn -0.9479 0.3115 0.0671
vn 0.3009 0.7260 -0.6184
vn 0.9479 0.3115 -0.0671
vn 0.4159 0.3115 -0.8544
vn 0.6860 0.7260 -0.0485
vn 0.6860 0.7260 -0.0486
vn 0.5320 0.3115 0.7873
vn 0.3850 0.7260 0.5699
vn 0.6860 0.7259 -0.0485
vn -0.3009 0.7259 0.6184
vn 0.3850 0.7259 0.5699
vn -0.3010 0.7259 0.6184
vn -0.6860 0.7259 0.0485
vn 0.3010 0.7259 -0.6184
vn 0.3009 0.7259 -0.6184
vn -0.3850 0.7259 -0.5699
vn -0.5320 0.3116 -0.7873
vn 0.3010 0.7260 -0.6184
vn 0.4158 0.3115 -0.8544
vn 0.3009 0.7260 -0.6183
vn -0.3850 0.7260 -0.5698
vn -0.3009 0.7260 0.6184
vn -0.4159 0.3115 0.8544
vn -0.6860 0.7260 0.0485
vn 0.8510 0.3228 0.4142
vn 0.0668 0.3228 0.9441
vn 0.7842 0.3228 -0.5299
vn -0.7842 0.3228 0.5299
vn -0.8510 0.3228 -0.4142
vn -0.0668 0.3228 -0.9441
vn -0.3775 0.5060 0.7755
vn -0.8604 0.5060 0.0609
vn -0.7387 0.4530 0.4992
vn 0.7387 -0.4530 -0.4992
vn 0.8604 -0.5060 -0.0609
vn 0.3775 -0.5060 -0.7755
vn 0.3774 -0.5060 -0.7755
vn -0.0629 0.4530 -0.8893
vn 0.3775 0.5060 -0.7755
vn 0.3774 0.5060 -0.7755
vn -0.4829 0.5060 -0.7147
vn -0.3775 -0.5060 0.7755
vn 0.0629 -0.4530 0.8893
vn 0.4829 -0.5060 0.7147
vn -0.3775 -0.5060 0.7756
vn -0.8016 0.4530 -0.3901
vn 0.8016 -0.4530 0.3901
vn 0.4829 0.5060 0.7147
vn 0.0629 0.4530 0.8893
vn -0.3774 0.5060 0.7755
vn -0.4829 -0.5060 -0.7147
vn -0.0629 -0.4530 -0.8893
vn -0.4829 -0.5060 -0.7146
vn 0.3775 -0.5060 -0.7756
vn 0.8604 0.5060 -0.0609
vn 0.7387 0.4530 -0.4992
vn 0.3775 0.5060 -0.7756
vn -0.7387 -0.4530 0.4992
vn -0.8604 -0.5060 0.0609
vn 0.8016 0.4530 0.3902
vn 0.8016 0.4530 0.3901
vn 0.4829 0.5060 0.7146
vn -0.8016 -0.4530 -0.3902
vn -0.8016 -0.4530 -0.3901
vn -0.0609 0.5060 -0.8604
vn 0.7147 0.5060 -0.4829
vn 0.3902 0.4530 -0.8016
vn -0.3901 -0.4530 0.8016
vn -0.7147 -0.5060 0.4829
vn 0.0609 -0.5060 0.8604
vn 0.7755 0.5060 0.3775
vn 0.4992 0.4530 0.7387
vn 0.7756 0.5060 0.3775
vn 0.0609 0.5060 0.8604
vn -0.7755 -0.5060 -0.3775
vn -0.4992 -0.4530 -0.7387
vn -0.0609 -0.5060 -0.8604
vn -0.7147 0.5060 0.4829
vn -0.7755 0.5060 -0.3775
vn -0.8893 0.4530 0.0629
vn -0.7756 0.5060 -0.3775
vn 0.8893 -0.4530 -0.0629
vn 0.7756 -0.5060 0.3775
vn 0.7147 -0.5060 -0.4829
vn -0.4992 0.4530 -0.7387
vn 0.4992 -0.4530 0.7387
vn 0.7755 -0.5060 0.3775
vn -0.7146 0.5060 0.4829
vn -0.3902 0.4530 0.8016
vn 0.3901 -0.4530 -0.8016
vn 0.8893 0.4530 -0.0629
vn -0.8893 -0.4530 0.0629
vn -0.7756 -0.5060 -0.3775
vn -0.7146 -0.5060 0.4829
vn 0.4829 -0.5060 0.7146
vn -0.8016 0.4530 -0.3902
vn 0.8016 -0.4530 0.3902
vn -0.3775 0.5060 0.7756
vt 0.593750 0.025000
vt 0.593750 0.104996
vt 0.593750 0.225000
vt 0.093750 0.475000
vt 0.093750 0.275000
vt 0.093750 0.425000
vt 0.093750 0.348778
vt 0.093750 0.338765
vt 0.093750 0.344099
vt 0.093750 0.375000
vt 0.093750 0.325000
s 0
usemtl colormap.002
f 3/1/1 2/1/1 1/1/1
f 2/1/1 3/1/1 4/1/1
f 4/1/1 3/1/1 5/1/1
f 4/1/1 5/1/1 6/1/1
f 6/1/1 5/1/1 7/1/1
f 6/1/1 7/1/1 8/1/1
f 9/2/2 1/1/3 2/1/4
f 1/1/3 9/2/2 10/2/5
f 11/2/6 1/1/3 10/2/7
f 1/1/3 11/2/8 3/1/9
f 12/2/10 2/1/4 4/1/11
f 2/1/4 12/2/10 9/2/12
f 13/2/13 4/1/11 6/1/14
f 4/1/11 13/2/13 12/2/15
f 7/1/16 14/2/17 8/1/18
f 14/2/17 7/1/16 15/2/19
f 11/2/20 5/1/21 3/1/9
f 5/1/21 11/2/20 16/2/22
f 8/1/18 13/2/23 6/1/24
f 13/2/25 8/1/18 14/2/26
f 7/1/27 16/2/28 15/2/29
f 16/2/28 7/1/27 5/1/21
f 14/2/30 18/3/31 17/3/32
f 18/3/33 14/2/34 15/2/35
f 16/2/36 18/3/33 15/2/37
f 18/3/33 16/2/38 19/3/39
f 21/3/40 9/2/41 20/3/42
f 9/2/41 21/3/40 10/2/43
f 22/3/44 12/2/45 13/2/46
f 12/2/47 22/3/48 23/3/49
f 21/3/50 11/2/51 10/2/52
f 11/2/53 21/3/40 24/3/54
f 13/2/55 17/3/56 22/3/44
f 17/3/32 13/2/55 14/2/57
f 20/3/42 12/2/47 23/3/58
f 12/2/59 20/3/42 9/2/60
f 24/3/54 16/2/38 11/2/61
f 16/2/62 24/3/63 19/3/64
f 27/4/65 26/4/65 25/4/65
f 26/4/65 27/4/65 28/4/65
f 26/4/65 28/4/65 29/4/65
f 29/4/65 28/4/65 30/4/65
f 29/4/65 30/4/65 31/4/65
f 31/4/65 30/4/65 32/4/65
f 35/5/1 34/5/1 33/5/1
f 34/5/1 35/5/1 36/5/1
f 34/5/1 36/5/1 37/5/1
f 37/5/1 36/5/1 38/5/1
f 37/5/1 38/5/1 39/5/1
f 39/5/1 38/5/1 40/5/1
f 27/4/66 33/5/67 34/5/66
f 33/5/68 27/4/66 25/4/69
f 29/4/70 38/5/71 36/5/70
f 38/5/72 29/4/70 31/4/73
f 40/5/74 31/4/72 32/4/75
f 31/4/72 40/5/76 38/5/72
f 28/4/77 34/5/78 37/5/77
f 34/5/78 28/4/77 27/4/79
f 26/4/80 36/5/81 35/5/80
f 36/5/70 26/4/80 29/4/81
f 30/4/82 37/5/77 39/5/82
f 37/5/83 30/4/82 28/4/84
f 26/4/85 33/5/86 25/4/68
f 33/5/68 26/4/80 35/5/80
f 40/5/76 30/4/87 39/5/87
f 30/4/87 40/5/88 32/4/76
f 43/6/89 42/7/90 41/7/89
f 42/7/90 43/6/89 44/6/90
f 47/6/91 46/7/92 45/7/91
f 46/7/92 47/6/91 48/6/92
f 50/6/93 45/7/91 49/7/93
f 45/7/91 50/6/93 47/6/91
f 48/6/92 41/7/89 46/7/92
f 41/7/89 48/6/92 43/6/89
f 52/7/94 44/6/90 51/6/94
f 44/6/90 52/7/94 42/7/90
f 52/7/94 50/6/93 49/7/93
f 50/6/93 52/7/94 51/6/94
f 41/7/1 45/7/1 46/7/1
f 45/7/1 41/7/1 42/7/1
f 45/7/1 42/7/1 49/7/1
f 49/7/1 42/7/1 52/7/1
f 55/6/95 54/8/96 53/8/97
f 54/8/96 55/6/95 56/6/98
f 59/8/99 58/6/100 57/6/101
f 58/6/100 59/8/99 60/8/102
f 63/6/103 62/8/104 61/8/105
f 62/8/104 63/6/103 64/6/106
f 64/6/107 53/8/108 62/8/104
f 53/8/108 64/6/107 55/6/109
f 64/6/110 56/6/111 55/6/112
f 56/6/113 64/6/110 58/6/114
f 58/6/114 64/6/110 63/6/115
f 58/6/114 63/6/116 57/6/117
f 59/8/118 63/6/119 61/8/120
f 63/6/121 59/8/99 57/6/122
f 54/8/1 62/8/1 53/8/1
f 62/8/1 54/8/1 60/8/1
f 62/8/1 60/8/1 61/8/1
f 61/8/1 60/8/1 59/8/1
f 56/6/123 60/8/102 54/8/124
f 60/8/102 56/6/123 58/6/125
f 67/6/126 66/9/127 65/9/126
f 66/9/127 67/6/126 68/6/127
f 70/6/128 65/9/126 69/9/128
f 65/9/126 70/6/128 67/6/126
f 68/6/127 71/9/129 66/9/127
f 71/9/129 68/6/127 72/6/129
f 72/6/129 73/9/130 71/9/129
f 73/9/130 72/6/129 74/6/130
f 71/9/1 65/9/1 66/9/1
f 65/9/1 71/9/1 69/9/1
f 69/9/1 71/9/1 73/9/1
f 69/9/1 73/9/1 75/9/1
f 76/6/131 69/9/128 75/9/131
f 69/9/128 76/6/131 70/6/128
f 73/9/130 76/6/131 75/9/131
f 76/6/131 73/9/130 74/6/130
f 79/10/132 78/10/133 77/11/134
f 78/10/133 79/10/132 41/6/132
f 78/10/133 41/6/132 42/6/133
f 77/11/135 78/10/136 79/10/137
f 41/6/137 79/10/137 78/10/136
f 42/6/136 41/6/138 78/10/136
f 81/11/139 49/6/140 80/10/140
f 49/6/141 81/11/139 52/6/142
f 52/6/142 81/11/139 82/10/142
f 80/10/143 49/6/143 81/11/144
f 52/6/145 81/11/144 49/6/146
f 82/10/145 81/11/144 52/6/145
f 82/10/142 42/6/133 52/6/142
f 42/6/133 82/10/142 83/11/147
f 42/6/133 83/11/147 78/10/133
f 52/6/145 42/6/136 82/10/145
f 83/11/148 82/10/145 42/6/136
f 78/10/136 83/11/148 42/6/136
f 46/6/149 85/11/150 84/10/149
f 85/11/150 46/6/149 41/6/151
f 85/11/150 41/6/151 79/10/132
f 84/10/152 85/11/153 46/6/154
f 41/6/155 46/6/152 85/11/153
f 79/10/155 41/6/138 85/11/153
f 80/10/140 87/10/156 86/11/157
f 87/10/156 80/10/158 49/6/158
f 87/10/156 49/6/140 45/6/156
f 86/11/159 87/10/160 80/10/143
f 49/6/143 80/10/143 87/10/160
f 45/6/160 49/6/143 87/10/160
f 45/6/156 88/11/161 87/10/156
f 88/11/162 45/6/156 46/6/163
f 88/11/161 46/6/163 84/10/149
f 87/10/160 88/11/164 45/6/160
f 46/6/152 45/6/160 88/11/165
f 84/10/152 46/6/152 88/11/164
f 91/10/166 90/10/167 89/11/168
f 90/10/167 91/10/166 75/6/166
f 90/10/167 75/6/166 69/6/167
f 89/11/169 90/10/170 91/10/171
f 75/6/171 91/10/171 90/10/170
f 69/6/170 75/6/171 90/10/170
f 65/6/172 93/11/173 92/10/174
f 93/11/173 65/6/174 66/6/175
f 93/11/173 66/6/175 94/10/175
f 92/10/176 93/11/177 65/6/176
f 66/6/178 65/6/176 93/11/177
f 94/10/178 66/6/178 93/11/177
f 97/10/179 96/10/180 95/11/181
f 96/10/182 97/10/179 71/6/179
f 96/10/182 71/6/179 73/6/182
f 95/11/183 96/10/184 97/10/185
f 71/6/185 97/10/185 96/10/184
f 73/6/184 71/6/185 96/10/184
f 98/11/186 75/6/166 91/10/166
f 75/6/166 98/11/186 73/6/182
f 73/6/180 98/11/186 96/10/182
f 91/10/171 75/6/171 98/11/187
f 73/6/188 98/11/187 75/6/171
f 96/10/188 98/11/187 73/6/188
f 94/10/175 97/10/189 99/11/190
f 97/10/179 94/10/175 66/6/175
f 97/10/179 66/6/175 71/6/179
f 99/11/191 97/10/185 94/10/178
f 66/6/178 94/10/178 97/10/185
f 71/6/185 66/6/178 97/10/185
f 90/10/167 92/10/172 100/11/192
f 92/10/174 90/10/167 69/6/167
f 92/10/174 69/6/167 65/6/174
f 100/11/193 92/10/194 90/10/170
f 69/6/170 90/10/170 92/10/194
f 65/6/194 69/6/195 92/10/194
f 102/11/139 61/6/141 101/10/158
f 61/6/141 102/11/139 59/6/142
f 59/6/142 102/11/139 103/10/142
f 101/10/146 61/6/143 102/11/144
f 59/6/145 102/11/144 61/6/146
f 103/10/145 102/11/144 59/6/196
f 103/10/142 60/6/133 59/6/142
f 60/6/133 103/10/142 104/11/197
f 60/6/133 104/11/197 105/10/133
f 59/6/145 60/6/136 103/10/145
f 104/11/198 103/10/145 60/6/136
f 105/10/136 104/11/198 60/6/136
f 62/6/156 107/11/161 106/10/156
f 107/11/161 62/6/156 53/6/163
f 107/11/162 53/6/163 108/10/149
f 106/10/160 107/11/164 62/6/160
f 53/6/152 62/6/160 107/11/164
f 108/10/152 53/6/152 107/11/165
f 110/10/132 105/10/133 109/11/134
f 105/10/133 110/10/199 54/6/199
f 105/10/133 54/6/199 60/6/133
f 109/11/135 105/10/136 110/10/137
f 54/6/137 110/10/137 105/10/136
f 60/6/136 54/6/137 105/10/136
f 101/10/140 106/10/156 111/11/157
f 106/10/156 101/10/140 61/6/140
f 106/10/156 61/6/140 62/6/156
f 111/11/159 106/10/160 101/10/143
f 61/6/143 101/10/143 106/10/160
f 62/6/160 61/6/143 106/10/160
f 53/6/149 112/11/150 108/10/149
f 112/11/150 53/6/149 54/6/151
f 112/11/150 54/6/151 110/10/199
f 108/10/152 112/11/153 53/6/152
f 54/6/155 53/6/152 112/11/153
f 110/10/155 54/6/137 112/11/153
f 3/1/1 2/1/1 1/1/1
f 2/1/1 3/1/1 4/1/1
f 4/1/1 3/1/1 5/1/1
f 4/1/1 5/1/1 6/1/1
f 6/1/1 5/1/1 7/1/1
f 6/1/1 7/1/1 8/1/1
f 9/2/2 1/1/3 2/1/4
f 1/1/3 9/2/2 10/2/5
f 11/2/6 1/1/3 10/2/7
f 1/1/3 11/2/8 3/1/9
f 12/2/10 2/1/4 4/1/11
f 2/1/4 12/2/10 9/2/12
f 13/2/13 4/1/11 6/1/14
f 4/1/11 13/2/13 12/2/15
f 7/1/16 14/2/17 8/1/18
f 14/2/17 7/1/16 15/2/19
f 11/2/20 5/1/21 3/1/9
f 5/1/21 11/2/20 16/2/22
f 8/1/18 13/2/23 6/1/24
f 13/2/25 8/1/18 14/2/26
f 7/1/27 16/2/28 15/2/29
f 16/2/28 7/1/27 5/1/21
f 14/2/30 18/3/31 17/3/32
f 18/3/33 14/2/34 15/2/35
f 16/2/36 18/3/33 15/2/37
f 18/3/33 16/2/38 19/3/39
f 21/3/40 9/2/41 20/3/42
f 9/2/41 21/3/40 10/2/43
f 22/3/44 12/2/45 13/2/46
f 12/2/47 22/3/48 23/3/49
f 21/3/50 11/2/51 10/2/52
f 11/2/53 21/3/40 24/3/54
f 13/2/55 17/3/56 22/3/44
f 17/3/32 13/2/55 14/2/57
f 20/3/42 12/2/47 23/3/58
f 12/2/59 20/3/42 9/2/60
f 24/3/54 16/2/38 11/2/61
f 16/2/62 24/3/63 19/3/64
f 27/4/65 26/4/65 25/4/65
f 26/4/65 27/4/65 28/4/65
f 26/4/65 28/4/65 29/4/65
f 29/4/65 28/4/65 30/4/65
f 29/4/65 30/4/65 31/4/65
f 31/4/65 30/4/65 32/4/65
f 35/5/1 34/5/1 33/5/1
f 34/5/1 35/5/1 36/5/1
f 34/5/1 36/5/1 37/5/1
f 37/5/1 36/5/1 38/5/1
f 37/5/1 38/5/1 39/5/1
f 39/5/1 38/5/1 40/5/1
f 27/4/66 33/5/67 34/5/66
f 33/5/68 27/4/66 25/4/69
f 29/4/70 38/5/71 36/5/70
f 38/5/72 29/4/70 31/4/73
f 40/5/74 31/4/72 32/4/75
f 31/4/72 40/5/76 38/5/72
f 28/4/77 34/5/78 37/5/77
f 34/5/78 28/4/77 27/4/79
f 26/4/80 36/5/81 35/5/80
f 36/5/70 26/4/80 29/4/81
f 30/4/82 37/5/77 39/5/82
f 37/5/83 30/4/82 28/4/84
f 26/4/85 33/5/86 25/4/68
f 33/5/68 26/4/80 35/5/80
f 40/5/76 30/4/87 39/5/87
f 30/4/87 40/5/88 32/4/76
f 43/6/89 42/7/90 41/7/89
f 42/7/90 43/6/89 44/6/90
f 47/6/91 46/7/92 45/7/91
f 46/7/92 47/6/91 48/6/92
f 50/6/93 45/7/91 49/7/93
f 45/7/91 50/6/93 47/6/91
f 48/6/92 41/7/89 46/7/92
f 41/7/89 48/6/92 43/6/89
f 52/7/94 44/6/90 51/6/94
f 44/6/90 52/7/94 42/7/90
f 52/7/94 50/6/93 49/7/93
f 50/6/93 52/7/94 51/6/94
f 41/7/1 45/7/1 46/7/1
f 45/7/1 41/7/1 42/7/1
f 45/7/1 42/7/1 49/7/1
f 49/7/1 42/7/1 52/7/1
f 55/6/95 54/8/96 53/8/97
f 54/8/96 55/6/95 56/6/98
f 59/8/99 58/6/100 57/6/101
f 58/6/100 59/8/99 60/8/102
f 63/6/103 62/8/104 61/8/105
f 62/8/104 63/6/103 64/6/106
f 64/6/107 53/8/108 62/8/104
f 53/8/108 64/6/107 55/6/109
f 64/6/110 56/6/111 55/6/112
f 56/6/113 64/6/110 58/6/114
f 58/6/114 64/6/110 63/6/115
f 58/6/114 63/6/116 57/6/117
f 59/8/118 63/6/119 61/8/120
f 63/6/121 59/8/99 57/6/122
f 54/8/1 62/8/1 53/8/1
f 62/8/1 54/8/1 60/8/1
f 62/8/1 60/8/1 61/8/1
f 61/8/1 60/8/1 59/8/1
f 56/6/123 60/8/102 54/8/124
f 60/8/102 56/6/123 58/6/125
f 67/6/126 66/9/127 65/9/126
f 66/9/127 67/6/126 68/6/127
f 70/6/128 65/9/126 69/9/128
f 65/9/126 70/6/128 67/6/126
f 68/6/127 71/9/129 66/9/127
f 71/9/129 68/6/127 72/6/129
f 72/6/129 73/9/130 71/9/129
f 73/9/130 72/6/129 74/6/130
f 71/9/1 65/9/1 66/9/1
f 65/9/1 71/9/1 69/9/1
f 69/9/1 71/9/1 73/9/1
f 69/9/1 73/9/1 75/9/1
f 76/6/131 69/9/128 75/9/131
f 69/9/128 76/6/131 70/6/128
f 73/9/130 76/6/131 75/9/131
f 76/6/131 73/9/130 74/6/130
f 79/10/132 78/10/133 77/11/134
f 78/10/133 79/10/132 41/6/132
f 78/10/133 41/6/132 42/6/133
f 77/11/135 78/10/136 79/10/137
f 41/6/137 79/10/137 78/10/136
f 42/6/136 41/6/138 78/10/136
f 81/11/139 49/6/140 80/10/140
f 49/6/141 81/11/139 52/6/142
f 52/6/142 81/11/139 82/10/142
f 80/10/143 49/6/143 81/11/144
f 52/6/145 81/11/144 49/6/146
f 82/10/145 81/11/144 52/6/145
f 82/10/142 42/6/133 52/6/142
f 42/6/133 82/10/142 83/11/147
f 42/6/133 83/11/147 78/10/133
f 52/6/145 42/6/136 82/10/145
f 83/11/148 82/10/145 42/6/136
f 78/10/136 83/11/148 42/6/136
f 46/6/149 85/11/150 84/10/149
f 85/11/150 46/6/149 41/6/151
f 85/11/150 41/6/151 79/10/132
f 84/10/152 85/11/153 46/6/154
f 41/6/155 46/6/152 85/11/153
f 79/10/155 41/6/138 85/11/153
f 80/10/140 87/10/156 86/11/157
f 87/10/156 80/10/158 49/6/158
f 87/10/156 49/6/140 45/6/156
f 86/11/159 87/10/160 80/10/143
f 49/6/143 80/10/143 87/10/160
f 45/6/160 49/6/143 87/10/160
f 45/6/156 88/11/161 87/10/156
f 88/11/162 45/6/156 46/6/163
f 88/11/161 46/6/163 84/10/149
f 87/10/160 88/11/164 45/6/160
f 46/6/152 45/6/160 88/11/165
f 84/10/152 46/6/152 88/11/164
f 91/10/166 90/10/167 89/11/168
f 90/10/167 91/10/166 75/6/166
f 90/10/167 75/6/166 69/6/167
f 89/11/169 90/10/170 91/10/171
f 75/6/171 91/10/171 90/10/170
f 69/6/170 75/6/171 90/10/170
f 65/6/172 93/11/173 92/10/174
f 93/11/173 65/6/174 66/6/175
f 93/11/173 66/6/175 94/10/175
f 92/10/176 93/11/177 65/6/176
f 66/6/178 65/6/176 93/11/177
f 94/10/178 66/6/178 93/11/177
f 97/10/179 96/10/180 95/11/181
f 96/10/182 97/10/179 71/6/179
f 96/10/182 71/6/179 73/6/182
f 95/11/183 96/10/184 97/10/185
f 71/6/185 97/10/185 96/10/184
f 73/6/184 71/6/185 96/10/184
f 98/11/186 75/6/166 91/10/166
f 75/6/166 98/11/186 73/6/182
f 73/6/180 98/11/186 96/10/182
f 91/10/171 75/6/171 98/11/187
f 73/6/188 98/11/187 75/6/171
f 96/10/188 98/11/187 73/6/188
f 94/10/175 97/10/189 99/11/190
f 97/10/179 94/10/175 66/6/175
f 97/10/179 66/6/175 71/6/179
f 99/11/191 97/10/185 94/10/178
f 66/6/178 94/10/178 97/10/185
f 71/6/185 66/6/178 97/10/185
f 90/10/167 92/10/172 100/11/192
f 92/10/174 90/10/167 69/6/167
f 92/10/174 69/6/167 65/6/174
f 100/11/193 92/10/194 90/10/170
f 69/6/170 90/10/170 92/10/194
f 65/6/194 69/6/195 92/10/194
f 102/11/139 61/6/141 101/10/158
f 61/6/141 102/11/139 59/6/142
f 59/6/142 102/11/139 103/10/142
f 101/10/146 61/6/143 102/11/144
f 59/6/145 102/11/144 61/6/146
f 103/10/145 102/11/144 59/6/196
f 103/10/142 60/6/133 59/6/142
f 60/6/133 103/10/142 104/11/197
f 60/6/133 104/11/197 105/10/133
f 59/6/145 60/6/136 103/10/145
f 104/11/198 103/10/145 60/6/136
f 105/10/136 104/11/198 60/6/136
f 62/6/156 107/11/161 106/10/156
f 107/11/161 62/6/156 53/6/163
f 107/11/162 53/6/163 108/10/149
f 106/10/160 107/11/164 62/6/160
f 53/6/152 62/6/160 107/11/164
f 108/10/152 53/6/152 107/11/165
f 110/10/132 105/10/133 109/11/134
f 105/10/133 110/10/199 54/6/199
f 105/10/133 54/6/199 60/6/133
f 109/11/135 105/10/136 110/10/137
f 54/6/137 110/10/137 105/10/136
f 60/6/136 54/6/137 105/10/136
f 101/10/140 106/10/156 111/11/157
f 106/10/156 101/10/140 61/6/140
f 106/10/156 61/6/140 62/6/156
f 111/11/159 106/10/160 101/10/143
f 61/6/143 101/10/143 106/10/160
f 62/6/160 61/6/143 106/10/160
f 53/6/149 112/11/150 108/10/149
f 112/11/150 53/6/149 54/6/151
f 112/11/150 54/6/151 110/10/199
f 108/10/152 112/11/153 53/6/152
f 54/6/155 53/6/152 112/11/153
f 110/10/155 54/6/137 112/11/153
