# Blender 4.1.1
# www.blender.org
mtllib tree.051.mtl
o tree.051
v -7.833037 -4.675250 7.744266
v -7.667108 -4.675250 7.841018
v -7.867625 -4.675250 7.612924
v -7.535767 -4.675250 7.806430
v -7.770872 -4.675250 7.446996
v -7.439014 -4.675250 7.640501
v -7.639531 -4.675250 7.412407
v -7.473602 -4.675250 7.509161
v -7.660213 -4.327483 7.733866
v -7.743178 -4.327483 7.685489
v -7.760473 -4.327483 7.619819
v -7.594543 -4.327483 7.716572
v -7.546166 -4.327483 7.633607
v -7.563460 -4.327483 7.567937
v -7.646426 -4.327483 7.519560
v -7.712096 -4.327483 7.536854
v -7.540996 -3.805793 7.553242
v -7.644701 -3.805793 7.492772
v -7.726790 -3.805793 7.514389
v -7.661938 -3.805793 7.760654
v -7.765643 -3.805793 7.700183
v -7.519379 -3.805793 7.635331
v -7.579849 -3.805793 7.739037
v -7.787261 -3.805793 7.618095
v -7.692728 -4.203316 7.787492
v -7.738348 -4.203316 7.727506
v -7.618053 -4.203316 7.797649
v -7.558068 -4.203316 7.752029
v -7.728189 -4.203316 7.652831
v -7.547910 -4.203316 7.677355
v -7.668204 -4.203316 7.607211
v -7.593530 -4.203316 7.617369
v -7.720822 -4.329511 7.835671
v -7.603850 -4.329511 7.851583
v -7.792282 -4.329511 7.741709
v -7.776370 -4.329511 7.624737
v -7.509888 -4.329511 7.780123
v -7.682407 -4.329511 7.553277
v -7.493976 -4.329511 7.663152
v -7.565436 -4.329511 7.569189
v -8.126964 -3.805793 7.616611
v -7.886014 -3.805793 7.203390
v -7.930849 -3.230796 7.617455
v -7.788688 -3.230796 7.373652
v -7.411243 -3.805793 8.033948
v -7.889578 -3.805793 8.031890
v -7.508571 -3.230796 7.863685
v -7.790790 -3.230796 7.862471
v -7.170294 -3.805793 7.620726
v -7.366410 -3.230796 7.619883
v -7.506468 -3.230796 7.374866
v -7.407680 -3.805793 7.205447
v -7.787560 -2.613048 7.856933
v -7.924438 -2.613048 7.617483
v -7.680562 -1.965096 7.673433
v -7.712023 -1.965096 7.618396
v -7.616695 -1.965096 7.563904
v -7.680089 -1.965096 7.563632
v -7.509697 -2.613048 7.380405
v -7.785506 -2.613048 7.379218
v -7.372820 -2.613048 7.619855
v -7.511752 -2.613048 7.858119
v -7.585235 -1.965096 7.618942
v -7.617168 -1.965096 7.673706
v -7.650301 -3.230796 8.007559
v -7.986254 -3.230796 7.811665
v -7.649395 -2.613048 7.796863
v -7.803332 -2.613048 7.707102
v -7.312676 -3.230796 7.814562
v -7.494692 -2.613048 7.708429
v -7.984581 -3.230796 7.422775
v -7.802566 -2.613048 7.528908
v -7.646956 -3.230796 7.229778
v -7.647862 -2.613048 7.440475
v -7.311003 -3.230796 7.425672
v -7.493926 -2.613048 7.530235
v -8.085218 -3.985170 7.364094
v -7.912127 -3.895481 7.157709
v -8.179581 -3.895481 7.616385
v -7.117678 -3.895482 7.620952
v -7.209866 -3.985170 7.367858
v -7.381176 -3.895481 7.159993
v -7.646455 -3.985170 7.113283
v -7.916082 -3.895481 8.077345
v -8.087392 -3.985170 7.869479
v -7.212039 -3.985170 7.873244
v -7.385131 -3.895482 8.079628
v -7.650803 -3.985170 8.124054
v -7.237746 -3.376631 7.620436
v -7.275722 -3.303713 7.836111
v -7.273865 -3.303713 7.404443
v -7.650486 -3.303713 8.050337
v -7.855601 -3.376631 7.973619
v -8.023393 -3.303713 7.832895
v -7.852540 -3.376631 7.261950
v -7.646772 -3.303713 7.187001
v -8.021536 -3.303713 7.401227
v -7.441657 -3.376631 7.263718
v -8.059511 -3.376631 7.616901
v -7.444718 -3.376631 7.975387
v -7.342481 -2.664763 7.619986
v -7.395638 -2.716478 7.474051
v -7.494414 -2.664763 7.354195
v -7.647375 -2.716478 7.327263
v -7.800563 -2.664763 7.352879
v -7.496695 -2.664763 7.884459
v -7.649882 -2.716478 7.910074
v -7.802843 -2.664763 7.883142
v -7.900367 -2.716478 7.471880
v -7.954776 -2.664763 7.617352
v -7.396891 -2.716478 7.765457
v -7.901620 -2.716478 7.763287
vn -0.0000 -1.0000 -0.0000
vn -0.1343 0.2942 0.9463
vn -0.7633 0.2944 0.5750
vn -0.1245 0.2944 0.9475
vn -0.7574 0.2942 0.5829
vn -0.9463 0.2942 -0.1342
vn -0.7634 0.2944 0.5750
vn -0.7575 0.2942 0.5828
vn -0.9475 0.2944 -0.1244
vn 0.5828 0.2942 0.7574
vn -0.1244 0.2944 0.9475
vn 0.5750 0.2944 0.7634
vn -0.1342 0.2942 0.9463
vn 0.9463 0.2942 0.1343
vn 0.5750 0.2944 0.7633
vn 0.9475 0.2944 0.1245
vn 0.5829 0.2942 0.7574
vn 0.1245 0.2944 -0.9475
vn 0.7574 0.2942 -0.5829
vn 0.7633 0.2944 -0.5750
vn 0.1343 0.2942 -0.9463
vn -0.9463 0.2942 -0.1343
vn -0.5750 0.2944 -0.7633
vn -0.9475 0.2944 -0.1245
vn -0.5829 0.2942 -0.7574
vn 0.9463 0.2943 0.1342
vn 0.9475 0.2944 0.1244
vn 0.9463 0.2942 0.1342
vn 0.7575 0.2942 -0.5828
vn 0.1244 0.2944 -0.9475
vn -0.5828 0.2942 -0.7574
vn 0.1342 0.2942 -0.9463
vn -0.5750 0.2944 -0.7634
vn 0.7943 -0.0513 -0.6053
vn 0.1338 -0.0512 -0.9897
vn 0.7954 -0.0513 -0.6039
vn 0.1338 -0.0513 -0.9897
vn 0.1355 -0.0513 -0.9894
vn -0.6053 -0.0512 -0.7944
vn 0.1337 -0.0513 -0.9897
vn 0.1355 -0.0512 -0.9895
vn -0.6052 -0.0513 -0.7944
vn -0.6038 -0.0512 -0.7955
vn -0.7954 -0.0512 0.6039
vn -0.1356 -0.0513 0.9894
vn -0.1338 -0.0513 0.9897
vn -0.1355 -0.0513 0.9894
vn -0.7943 -0.0513 0.6053
vn 0.9897 -0.0513 0.1338
vn 0.6053 -0.0513 0.7944
vn 0.9894 -0.0513 0.1356
vn 0.6053 -0.0513 0.7943
vn 0.9897 -0.0512 0.1338
vn 0.6039 -0.0513 0.7954
vn -0.7955 -0.0513 0.6038
vn -0.9895 -0.0513 -0.1355
vn -0.7944 -0.0513 0.6052
vn -0.9897 -0.0513 -0.1337
vn 0.9895 -0.0513 0.1355
vn 0.7955 -0.0512 -0.6038
vn 0.9897 -0.0513 0.1337
vn 0.7955 -0.0513 -0.6038
vn 0.7944 -0.0513 -0.6052
vn -0.1337 -0.0513 0.9897
vn 0.6038 -0.0512 0.7955
vn 0.6053 -0.0512 0.7944
vn -0.1355 -0.0512 0.9895
vn -0.9897 -0.0513 -0.1338
vn -0.6053 -0.0513 -0.7943
vn -0.9894 -0.0513 -0.1356
vn -0.9897 -0.0512 -0.1338
vn -0.6039 -0.0513 -0.7954
vn -0.0000 1.0000 -0.0000
vn 0.2329 0.4042 0.8845
vn -0.4607 0.4042 0.7902
vn -0.4607 0.4043 0.7901
vn -0.7901 0.4042 -0.4608
vn -0.2330 0.4042 -0.8845
vn -0.2330 0.4043 -0.8845
vn 0.4607 0.4042 -0.7902
vn -0.2329 0.4042 -0.8845
vn 0.4607 0.4043 -0.7901
vn 0.7901 0.4042 0.4608
vn 0.2330 0.4042 0.8845
vn 0.2330 0.4043 0.8845
vn -0.8845 0.4042 0.2329
vn -0.7902 0.4042 -0.4607
vn -0.7901 0.4043 -0.4607
vn 0.8845 0.4042 -0.2329
vn 0.7902 0.4042 0.4607
vn 0.7901 0.4043 0.4607
vn -0.8845 0.4042 0.2330
vn -0.4608 0.4043 0.7901
vn -0.4608 0.4042 0.7901
vn 0.4608 0.4042 -0.7901
vn 0.8845 0.4042 -0.2330
vn -0.9465 0.3228 -0.0041
vn -0.4697 0.3228 -0.8217
vn 0.4697 0.3228 0.8217
vn -0.4767 0.3228 0.8176
vn 0.9465 0.3228 0.0041
vn -0.4768 0.3228 0.8176
vn 0.4767 0.3228 -0.8176
vn 0.4768 0.3228 -0.8176
vn -0.3464 0.7260 0.5941
vn -0.9502 0.3115 -0.0041
vn -0.4787 0.3115 0.8209
vn -0.6877 0.7260 -0.0030
vn 0.4786 0.3115 -0.8209
vn -0.3413 0.7260 -0.5970
vn 0.3465 0.7260 -0.5941
vn 0.4787 0.3115 -0.8209
vn -0.4716 0.3115 -0.8250
vn 0.6877 0.7260 0.0029
vn 0.4716 0.3115 0.8250
vn 0.9502 0.3115 0.0041
vn 0.3413 0.7260 0.5971
vn 0.3413 0.7260 0.5970
vn -0.4786 0.3115 0.8209
vn -0.3465 0.7260 0.5941
vn 0.3413 0.7259 0.5971
vn -0.6877 0.7259 -0.0029
vn -0.3465 0.7259 0.5941
vn -0.6877 0.7259 -0.0030
vn -0.3413 0.7259 -0.5971
vn 0.6877 0.7259 0.0030
vn 0.3465 0.7259 -0.5941
vn 0.4787 0.3116 -0.8209
vn 0.6877 0.7260 0.0030
vn 0.3464 0.7260 -0.5941
vn -0.6877 0.7260 -0.0029
vn -0.3413 0.7260 -0.5971
vn -0.0041 0.3228 0.9464
vn -0.8217 0.3228 0.4697
vn -0.0041 0.3228 0.9465
vn 0.8176 0.3228 0.4768
vn -0.8176 0.3228 -0.4767
vn -0.8176 0.3228 -0.4768
vn 0.0041 0.3228 -0.9464
vn 0.0041 0.3228 -0.9465
vn 0.8217 0.3228 -0.4697
vn 0.8176 0.3228 0.4767
vn -0.8625 0.5060 -0.0037
vn -0.4280 0.5060 -0.7488
vn -0.7702 0.4530 -0.4491
vn -0.4281 0.5060 -0.7488
vn 0.7702 -0.4530 0.4491
vn 0.4280 -0.5060 0.7488
vn 0.8625 -0.5060 0.0037
vn 0.4281 -0.5060 0.7488
vn 0.7740 0.4530 -0.4424
vn 0.8625 0.5060 0.0037
vn 0.4345 0.5060 -0.7451
vn -0.8625 -0.5060 -0.0037
vn -0.7740 -0.4530 0.4424
vn -0.4345 -0.5060 0.7451
vn 0.0038 0.4530 -0.8915
vn -0.0038 -0.4530 0.8915
vn -0.4345 0.5060 0.7451
vn -0.7740 0.4530 0.4424
vn 0.4345 -0.5060 -0.7451
vn 0.7740 -0.4530 -0.4424
vn 0.4280 0.5060 0.7488
vn 0.7702 0.4530 0.4491
vn 0.4281 0.5060 0.7488
vn -0.7702 -0.4530 -0.4491
vn -0.4280 -0.5060 -0.7488
vn -0.4281 -0.5060 -0.7488
vn -0.0038 0.4530 0.8915
vn 0.0038 -0.4530 -0.8915
vn 0.7488 0.5060 -0.4280
vn 0.7451 0.5060 0.4345
vn 0.8915 0.4530 0.0038
vn -0.8915 -0.4530 -0.0038
vn -0.7451 -0.5060 -0.4345
vn -0.7488 -0.5060 0.4280
vn -0.0037 0.5060 0.8625
vn -0.4491 0.4530 0.7702
vn -0.7488 0.5060 0.4280
vn 0.0037 -0.5060 -0.8625
vn 0.4491 -0.4530 -0.7702
vn 0.7488 -0.5060 -0.4281
vn 0.7488 -0.5060 -0.4280
vn -0.7451 0.5060 -0.4345
vn 0.0037 0.5060 -0.8625
vn -0.4424 0.4530 -0.7740
vn 0.4424 -0.4529 0.7740
vn -0.0037 -0.5060 0.8625
vn 0.7451 -0.5060 0.4345
vn 0.4491 0.4530 -0.7702
vn -0.7488 -0.5060 0.4281
vn -0.4491 -0.4530 0.7702
vn -0.8915 0.4530 -0.0038
vn 0.8915 -0.4530 0.0038
vn 0.4424 0.4529 0.7740
vn -0.4424 -0.4529 -0.7740
vn -0.4280 -0.5061 -0.7488
vn 0.7702 0.4529 0.4491
vn -0.7702 -0.4529 -0.4491
vn -0.7740 0.4529 0.4424
vn 0.7740 -0.4529 -0.4424
vt 0.593750 0.025000
vt 0.593750 0.104996
vt 0.593750 0.225000
vt 0.093750 0.475000
vt 0.093750 0.275000
vt 0.093750 0.425000
vt 0.093750 0.348778
vt 0.093750 0.338765
vt 0.093750 0.344099
vt 0.093750 0.375000
vt 0.093750 0.325000
s 0
usemtl colormap.002
f 3/1/1 2/1/1 1/1/1
f 2/1/1 3/1/1 4/1/1
f 4/1/1 3/1/1 5/1/1
f 4/1/1 5/1/1 6/1/1
f 6/1/1 5/1/1 7/1/1
f 6/1/1 7/1/1 8/1/1
f 9/2/2 1/1/3 2/1/4
f 1/1/3 9/2/2 10/2/5
f 11/2/6 1/1/7 10/2/8
f 1/1/7 11/2/6 3/1/9
f 12/2/10 2/1/11 4/1/12
f 2/1/11 12/2/10 9/2/13
f 13/2/14 4/1/15 6/1/16
f 4/1/15 13/2/14 12/2/17
f 7/1/18 14/2/19 8/1/20
f 14/2/19 7/1/18 15/2/21
f 11/2/22 5/1/23 3/1/24
f 5/1/23 11/2/22 16/2/25
f 8/1/20 13/2/26 6/1/27
f 13/2/28 8/1/20 14/2/29
f 7/1/30 16/2/31 15/2/32
f 16/2/31 7/1/30 5/1/33
f 14/2/34 18/3/35 17/3/36
f 18/3/37 14/2/34 15/2/38
f 16/2/39 18/3/40 15/2/41
f 18/3/40 16/2/42 19/3/43
f 21/3/44 9/2/45 20/3/46
f 9/2/47 21/3/44 10/2/48
f 22/3/49 12/2/50 13/2/51
f 12/2/52 22/3/53 23/3/54
f 21/3/55 11/2/56 10/2/57
f 11/2/56 21/3/44 24/3/58
f 13/2/59 17/3/60 22/3/61
f 17/3/62 13/2/59 14/2/63
f 20/3/64 12/2/50 23/3/65
f 12/2/66 20/3/64 9/2/67
f 24/3/68 16/2/69 11/2/70
f 16/2/69 24/3/71 19/3/72
f 27/4/73 26/4/73 25/4/73
f 26/4/73 27/4/73 28/4/73
f 26/4/73 28/4/73 29/4/73
f 29/4/73 28/4/73 30/4/73
f 29/4/73 30/4/73 31/4/73
f 31/4/73 30/4/73 32/4/73
f 35/5/1 34/5/1 33/5/1
f 34/5/1 35/5/1 36/5/1
f 34/5/1 36/5/1 37/5/1
f 37/5/1 36/5/1 38/5/1
f 37/5/1 38/5/1 39/5/1
f 39/5/1 38/5/1 40/5/1
f 27/4/74 33/5/75 34/5/74
f 33/5/75 27/4/74 25/4/76
f 29/4/77 38/5/78 36/5/77
f 38/5/78 29/4/77 31/4/79
f 40/5/80 31/4/81 32/4/82
f 31/4/81 40/5/80 38/5/81
f 28/4/83 34/5/84 37/5/83
f 34/5/84 28/4/83 27/4/85
f 26/4/86 36/5/87 35/5/86
f 36/5/87 26/4/86 29/4/88
f 30/4/89 37/5/90 39/5/89
f 37/5/90 30/4/89 28/4/91
f 26/4/92 33/5/93 25/4/94
f 33/5/94 26/4/92 35/5/92
f 40/5/95 30/4/96 39/5/96
f 30/4/96 40/5/82 32/4/95
f 43/6/97 42/7/98 41/7/97
f 42/7/98 43/6/97 44/6/98
f 47/6/99 46/7/100 45/7/99
f 46/7/100 47/6/99 48/6/100
f 50/6/101 45/7/99 49/7/101
f 45/7/99 50/6/101 47/6/99
f 48/6/102 41/7/97 46/7/102
f 41/7/97 48/6/102 43/6/97
f 52/7/103 44/6/98 51/6/103
f 44/6/98 52/7/103 42/7/98
f 52/7/104 50/6/101 49/7/101
f 50/6/101 52/7/104 51/6/104
f 41/7/1 45/7/1 46/7/1
f 45/7/1 41/7/1 42/7/1
f 45/7/1 42/7/1 49/7/1
f 49/7/1 42/7/1 52/7/1
f 55/6/105 54/8/106 53/8/107
f 54/8/106 55/6/105 56/6/108
f 59/8/109 58/6/110 57/6/111
f 58/6/110 59/8/112 60/8/113
f 63/6/114 62/8/115 61/8/116
f 62/8/115 63/6/114 64/6/117
f 64/6/118 53/8/119 62/8/115
f 53/8/119 64/6/118 55/6/120
f 64/6/121 56/6/122 55/6/123
f 56/6/124 64/6/121 58/6/125
f 58/6/125 64/6/121 63/6/126
f 58/6/125 63/6/114 57/6/127
f 59/8/128 63/6/129 61/8/116
f 63/6/114 59/8/112 57/6/130
f 54/8/1 62/8/1 53/8/1
f 62/8/1 54/8/1 60/8/1
f 62/8/1 60/8/1 61/8/1
f 61/8/1 60/8/1 59/8/1
f 56/6/131 60/8/113 54/8/106
f 60/8/113 56/6/131 58/6/132
f 67/6/133 66/9/134 65/9/135
f 66/9/134 67/6/135 68/6/134
f 70/6/136 65/9/133 69/9/136
f 65/9/135 70/6/136 67/6/135
f 68/6/134 71/9/137 66/9/134
f 71/9/137 68/6/134 72/6/137
f 72/6/138 73/9/139 71/9/138
f 73/9/140 72/6/138 74/6/140
f 71/9/1 65/9/1 66/9/1
f 65/9/1 71/9/1 69/9/1
f 69/9/1 71/9/1 73/9/1
f 69/9/1 73/9/1 75/9/1
f 76/6/141 69/9/142 75/9/141
f 69/9/142 76/6/141 70/6/142
f 73/9/140 76/6/141 75/9/141
f 76/6/141 73/9/140 74/6/140
f 79/10/143 78/10/144 77/11/145
f 78/10/144 79/10/143 41/6/143
f 78/10/146 41/6/143 42/6/146
f 77/11/147 78/10/148 79/10/149
f 41/6/149 79/10/149 78/10/148
f 42/6/150 41/6/149 78/10/150
f 81/11/151 49/6/152 80/10/152
f 49/6/152 81/11/151 52/6/153
f 52/6/153 81/11/151 82/10/153
f 80/10/154 49/6/154 81/11/155
f 52/6/156 81/11/155 49/6/154
f 82/10/156 81/11/155 52/6/156
f 82/10/153 42/6/144 52/6/153
f 42/6/146 82/10/153 83/11/157
f 42/6/144 83/11/157 78/10/146
f 52/6/156 42/6/148 82/10/156
f 83/11/158 82/10/156 42/6/148
f 78/10/148 83/11/158 42/6/148
f 46/6/159 85/11/160 84/10/159
f 85/11/160 46/6/159 41/6/143
f 85/11/160 41/6/143 79/10/143
f 84/10/161 85/11/162 46/6/161
f 41/6/149 46/6/161 85/11/162
f 79/10/149 41/6/149 85/11/162
f 80/10/152 87/10/163 86/11/164
f 87/10/163 80/10/152 49/6/152
f 87/10/165 49/6/152 45/6/165
f 86/11/166 87/10/167 80/10/154
f 49/6/154 80/10/154 87/10/168
f 45/6/168 49/6/154 87/10/168
f 45/6/163 88/11/169 87/10/165
f 88/11/169 45/6/165 46/6/159
f 88/11/169 46/6/159 84/10/159
f 87/10/167 88/11/170 45/6/167
f 46/6/161 45/6/167 88/11/170
f 84/10/161 46/6/161 88/11/170
f 91/10/171 90/10/172 89/11/173
f 90/10/172 91/10/171 75/6/171
f 90/10/172 75/6/171 69/6/172
f 89/11/174 90/10/175 91/10/176
f 75/6/176 91/10/176 90/10/175
f 69/6/175 75/6/176 90/10/175
f 65/6/177 93/11/178 92/10/177
f 93/11/178 65/6/177 66/6/179
f 93/11/178 66/6/179 94/10/179
f 92/10/180 93/11/181 65/6/180
f 66/6/182 65/6/180 93/11/181
f 94/10/183 66/6/183 93/11/181
f 97/10/184 96/10/185 95/11/186
f 96/10/185 97/10/184 71/6/184
f 96/10/185 71/6/184 73/6/185
f 95/11/187 96/10/188 97/10/189
f 71/6/189 97/10/189 96/10/188
f 73/6/188 71/6/189 96/10/188
f 98/11/190 75/6/171 91/10/171
f 75/6/171 98/11/190 73/6/185
f 73/6/185 98/11/190 96/10/185
f 91/10/191 75/6/176 98/11/192
f 73/6/188 98/11/192 75/6/191
f 96/10/188 98/11/192 73/6/188
f 94/10/179 97/10/184 99/11/193
f 97/10/184 94/10/179 66/6/179
f 97/10/184 66/6/179 71/6/184
f 99/11/194 97/10/189 94/10/183
f 66/6/183 94/10/183 97/10/189
f 71/6/189 66/6/183 97/10/189
f 90/10/172 92/10/177 100/11/195
f 92/10/177 90/10/172 69/6/172
f 92/10/177 69/6/172 65/6/177
f 100/11/196 92/10/180 90/10/175
f 69/6/175 90/10/175 92/10/180
f 65/6/180 69/6/175 92/10/180
f 102/11/151 61/6/152 101/10/152
f 61/6/152 102/11/151 59/6/153
f 59/6/153 102/11/151 103/10/153
f 101/10/154 61/6/154 102/11/155
f 59/6/156 102/11/155 61/6/154
f 103/10/156 102/11/155 59/6/156
f 103/10/153 60/6/144 59/6/153
f 60/6/146 103/10/153 104/11/157
f 60/6/144 104/11/157 105/10/146
f 59/6/156 60/6/148 103/10/156
f 104/11/158 103/10/156 60/6/148
f 105/10/148 104/11/158 60/6/148
f 62/6/163 107/11/169 106/10/163
f 107/11/169 62/6/165 53/6/159
f 107/11/169 53/6/159 108/10/159
f 106/10/167 107/11/170 62/6/197
f 53/6/161 62/6/167 107/11/170
f 108/10/161 53/6/161 107/11/170
f 110/10/143 105/10/144 109/11/145
f 105/10/144 110/10/143 54/6/143
f 105/10/146 54/6/143 60/6/146
f 109/11/147 105/10/148 110/10/149
f 54/6/149 110/10/149 105/10/148
f 60/6/150 54/6/149 105/10/150
f 101/10/152 106/10/163 111/11/198
f 106/10/163 101/10/152 61/6/152
f 106/10/165 61/6/152 62/6/163
f 111/11/199 106/10/168 101/10/154
f 61/6/154 101/10/154 106/10/167
f 62/6/167 61/6/154 106/10/167
f 53/6/159 112/11/160 108/10/159
f 112/11/160 53/6/159 54/6/143
f 112/11/200 54/6/143 110/10/143
f 108/10/161 112/11/162 53/6/161
f 54/6/149 53/6/161 112/11/162
f 110/10/149 54/6/149 112/11/201
f 3/1/1 2/1/1 1/1/1
f 2/1/1 3/1/1 4/1/1
f 4/1/1 3/1/1 5/1/1
f 4/1/1 5/1/1 6/1/1
f 6/1/1 5/1/1 7/1/1
f 6/1/1 7/1/1 8/1/1
f 9/2/2 1/1/3 2/1/4
f 1/1/3 9/2/2 10/2/5
f 11/2/6 1/1/7 10/2/8
f 1/1/7 11/2/6 3/1/9
f 12/2/10 2/1/11 4/1/12
f 2/1/11 12/2/10 9/2/13
f 13/2/14 4/1/15 6/1/16
f 4/1/15 13/2/14 12/2/17
f 7/1/18 14/2/19 8/1/20
f 14/2/19 7/1/18 15/2/21
f 11/2/22 5/1/23 3/1/24
f 5/1/23 11/2/22 16/2/25
f 8/1/20 13/2/26 6/1/27
f 13/2/28 8/1/20 14/2/29
f 7/1/30 16/2/31 15/2/32
f 16/2/31 7/1/30 5/1/33
f 14/2/34 18/3/35 17/3/36
f 18/3/37 14/2/34 15/2/38
f 16/2/39 18/3/40 15/2/41
f 18/3/40 16/2/42 19/3/43
f 21/3/44 9/2/45 20/3/46
f 9/2/47 21/3/44 10/2/48
f 22/3/49 12/2/50 13/2/51
f 12/2/52 22/3/53 23/3/54
f 21/3/55 11/2/56 10/2/57
f 11/2/56 21/3/44 24/3/58
f 13/2/59 17/3/60 22/3/61
f 17/3/62 13/2/59 14/2/63
f 20/3/64 12/2/50 23/3/65
f 12/2/66 20/3/64 9/2/67
f 24/3/68 16/2/69 11/2/70
f 16/2/69 24/3/71 19/3/72
f 27/4/73 26/4/73 25/4/73
f 26/4/73 27/4/73 28/4/73
f 26/4/73 28/4/73 29/4/73
f 29/4/73 28/4/73 30/4/73
f 29/4/73 30/4/73 31/4/73
f 31/4/73 30/4/73 32/4/73
f 35/5/1 34/5/1 33/5/1
f 34/5/1 35/5/1 36/5/1
f 34/5/1 36/5/1 37/5/1
f 37/5/1 36/5/1 38/5/1
f 37/5/1 38/5/1 39/5/1
f 39/5/1 38/5/1 40/5/1
f 27/4/74 33/5/75 34/5/74
f 33/5/75 27/4/74 25/4/76
f 29/4/77 38/5/78 36/5/77
f 38/5/78 29/4/77 31/4/79
f 40/5/80 31/4/81 32/4/82
f 31/4/81 40/5/80 38/5/81
f 28/4/83 34/5/84 37/5/83
f 34/5/84 28/4/83 27/4/85
f 26/4/86 36/5/87 35/5/86
f 36/5/87 26/4/86 29/4/88
f 30/4/89 37/5/90 39/5/89
f 37/5/90 30/4/89 28/4/91
f 26/4/92 33/5/93 25/4/94
f 33/5/94 26/4/92 35/5/92
f 40/5/95 30/4/96 39/5/96
f 30/4/96 40/5/82 32/4/95
f 43/6/97 42/7/98 41/7/97
f 42/7/98 43/6/97 44/6/98
f 47/6/99 46/7/100 45/7/99
f 46/7/100 47/6/99 48/6/100
f 50/6/101 45/7/99 49/7/101
f 45/7/99 50/6/101 47/6/99
f 48/6/102 41/7/97 46/7/102
f 41/7/97 48/6/102 43/6/97
f 52/7/103 44/6/98 51/6/103
f 44/6/98 52/7/103 42/7/98
f 52/7/104 50/6/101 49/7/101
f 50/6/101 52/7/104 51/6/104
f 41/7/1 45/7/1 46/7/1
f 45/7/1 41/7/1 42/7/1
f 45/7/1 42/7/1 49/7/1
f 49/7/1 42/7/1 52/7/1
f 55/6/105 54/8/106 53/8/107
f 54/8/106 55/6/105 56/6/108
f 59/8/109 58/6/110 57/6/111
f 58/6/110 59/8/112 60/8/113
f 63/6/114 62/8/115 61/8/116
f 62/8/115 63/6/114 64/6/117
f 64/6/118 53/8/119 62/8/115
f 53/8/119 64/6/118 55/6/120
f 64/6/121 56/6/122 55/6/123
f 56/6/124 64/6/121 58/6/125
f 58/6/125 64/6/121 63/6/126
f 58/6/125 63/6/114 57/6/127
f 59/8/128 63/6/129 61/8/116
f 63/6/114 59/8/112 57/6/130
f 54/8/1 62/8/1 53/8/1
f 62/8/1 54/8/1 60/8/1
f 62/8/1 60/8/1 61/8/1
f 61/8/1 60/8/1 59/8/1
f 56/6/131 60/8/113 54/8/106
f 60/8/113 56/6/131 58/6/132
f 67/6/133 66/9/134 65/9/135
f 66/9/134 67/6/135 68/6/134
f 70/6/136 65/9/133 69/9/136
f 65/9/135 70/6/136 67/6/135
f 68/6/134 71/9/137 66/9/134
f 71/9/137 68/6/134 72/6/137
f 72/6/138 73/9/139 71/9/138
f 73/9/140 72/6/138 74/6/140
f 71/9/1 65/9/1 66/9/1
f 65/9/1 71/9/1 69/9/1
f 69/9/1 71/9/1 73/9/1
f 69/9/1 73/9/1 75/9/1
f 76/6/141 69/9/142 75/9/141
f 69/9/142 76/6/141 70/6/142
f 73/9/140 76/6/141 75/9/141
f 76/6/141 73/9/140 74/6/140
f 79/10/143 78/10/144 77/11/145
f 78/10/144 79/10/143 41/6/143
f 78/10/146 41/6/143 42/6/146
f 77/11/147 78/10/148 79/10/149
f 41/6/149 79/10/149 78/10/148
f 42/6/150 41/6/149 78/10/150
f 81/11/151 49/6/152 80/10/152
f 49/6/152 81/11/151 52/6/153
f 52/6/153 81/11/151 82/10/153
f 80/10/154 49/6/154 81/11/155
f 52/6/156 81/11/155 49/6/154
f 82/10/156 81/11/155 52/6/156
f 82/10/153 42/6/144 52/6/153
f 42/6/146 82/10/153 83/11/157
f 42/6/144 83/11/157 78/10/146
f 52/6/156 42/6/148 82/10/156
f 83/11/158 82/10/156 42/6/148
f 78/10/148 83/11/158 42/6/148
f 46/6/159 85/11/160 84/10/159
f 85/11/160 46/6/159 41/6/143
f 85/11/160 41/6/143 79/10/143
f 84/10/161 85/11/162 46/6/161
f 41/6/149 46/6/161 85/11/162
f 79/10/149 41/6/149 85/11/162
f 80/10/152 87/10/163 86/11/164
f 87/10/163 80/10/152 49/6/152
f 87/10/165 49/6/152 45/6/165
f 86/11/166 87/10/167 80/10/154
f 49/6/154 80/10/154 87/10/168
f 45/6/168 49/6/154 87/10/168
f 45/6/163 88/11/169 87/10/165
f 88/11/169 45/6/165 46/6/159
f 88/11/169 46/6/159 84/10/159
f 87/10/167 88/11/170 45/6/167
f 46/6/161 45/6/167 88/11/170
f 84/10/161 46/6/161 88/11/170
f 91/10/171 90/10/172 89/11/173
f 90/10/172 91/10/171 75/6/171
f 90/10/172 75/6/171 69/6/172
f 89/11/174 90/10/175 91/10/176
f 75/6/176 91/10/176 90/10/175
f 69/6/175 75/6/176 90/10/175
f 65/6/177 93/11/178 92/10/177
f 93/11/178 65/6/177 66/6/179
f 93/11/178 66/6/179 94/10/179
f 92/10/180 93/11/181 65/6/180
f 66/6/182 65/6/180 93/11/181
f 94/10/183 66/6/183 93/11/181
f 97/10/184 96/10/185 95/11/186
f 96/10/185 97/10/184 71/6/184
f 96/10/185 71/6/184 73/6/185
f 95/11/187 96/10/188 97/10/189
f 71/6/189 97/10/189 96/10/188
f 73/6/188 71/6/189 96/10/188
f 98/11/190 75/6/171 91/10/171
f 75/6/171 98/11/190 73/6/185
f 73/6/185 98/11/190 96/10/185
f 91/10/191 75/6/176 98/11/192
f 73/6/188 98/11/192 75/6/191
f 96/10/188 98/11/192 73/6/188
f 94/10/179 97/10/184 99/11/193
f 97/10/184 94/10/179 66/6/179
f 97/10/184 66/6/179 71/6/184
f 99/11/194 97/10/189 94/10/183
f 66/6/183 94/10/183 97/10/189
f 71/6/189 66/6/183 97/10/189
f 90/10/172 92/10/177 100/11/195
f 92/10/177 90/10/172 69/6/172
f 92/10/177 69/6/172 65/6/177
f 100/11/196 92/10/180 90/10/175
f 69/6/175 90/10/175 92/10/180
f 65/6/180 69/6/175 92/10/180
f 102/11/151 61/6/152 101/10/152
f 61/6/152 102/11/151 59/6/153
f 59/6/153 102/11/151 103/10/153
f 101/10/154 61/6/154 102/11/155
f 59/6/156 102/11/155 61/6/154
f 103/10/156 102/11/155 59/6/156
f 103/10/153 60/6/144 59/6/153
f 60/6/146 103/10/153 104/11/157
f 60/6/144 104/11/157 105/10/146
f 59/6/156 60/6/148 103/10/156
f 104/11/158 103/10/156 60/6/148
f 105/10/148 104/11/158 60/6/148
f 62/6/163 107/11/169 106/10/163
f 107/11/169 62/6/165 53/6/159
f 107/11/169 53/6/159 108/10/159
f 106/10/167 107/11/170 62/6/197
f 53/6/161 62/6/167 107/11/170
f 108/10/161 53/6/161 107/11/170
f 110/10/143 105/10/144 109/11/145
f 105/10/144 110/10/143 54/6/143
f 105/10/146 54/6/143 60/6/146
f 109/11/147 105/10/148 110/10/149
f 54/6/149 110/10/149 105/10/148
f 60/6/150 54/6/149 105/10/150
f 101/10/152 106/10/163 111/11/198
f 106/10/163 101/10/152 61/6/152
f 106/10/165 61/6/152 62/6/163
f 111/11/199 106/10/168 101/10/154
f 61/6/154 101/10/154 106/10/167
f 62/6/167 61/6/154 106/10/167
f 53/6/159 112/11/160 108/10/159
f 112/11/160 53/6/159 54/6/143
f 112/11/200 54/6/143 110/10/143
f 108/10/161 112/11/162 53/6/161
f 54/6/149 53/6/161 112/11/162
f 110/10/149 54/6/149 112/11/201
