# Blender 4.1.1
# www.blender.org
mtllib rock-flat.mtl
o rock-flat
v 14.149923 -4.479208 -14.596475
v 13.885880 -4.581947 -14.139144
v 13.719554 -4.710021 -15.341893
v 16.884117 -4.581947 -11.270693
v 17.640673 -4.581947 -12.581091
v 17.890860 -4.710021 -11.523590
v 18.501406 -4.710021 -12.581091
v 17.236294 -4.760880 -12.849297
v 17.470890 -4.443185 -14.596475
v 16.907455 -4.416694 -16.307549
v 18.495285 -4.710021 -5.359183
v 16.884115 -4.506699 -11.270693
v 17.890858 -4.710021 -11.523590
v 15.984366 -4.453873 -12.159225
v 16.729330 -4.581947 -12.849297
v 17.671961 -4.581946 -3.235614
v 16.895018 -4.453872 -0.639042
v 17.974573 -4.581946 -0.149333
v -17.714069 -4.453873 -9.702021
v -7.689453 -4.453873 -15.489736
v -17.714069 -4.453872 1.873407
v -7.689453 -4.453871 7.661121
v -1.663145 -4.453873 -12.010445
v 0.501260 -4.453872 2.932210
v 5.223901 -4.453873 -16.941086
v 7.483028 -4.453872 6.099281
v 9.762083 -4.710020 6.992827
v 8.637309 -4.581945 6.535494
v 10.246151 -4.710020 6.646267
v 11.180395 -4.581945 4.714821
v 7.598709 -4.581945 7.279057
v 4.992545 -4.710021 -19.300642
v 13.719554 -4.710021 -16.307549
v 15.966689 -4.402659 -16.266996
v -7.689453 -4.581947 -16.675169
v -4.549628 -4.581947 -14.862391
v -1.782470 -4.710021 -14.450208
v -3.011636 -4.710021 -15.159865
v -18.740686 -4.581947 -10.294739
v -15.860177 -4.581947 -11.957802
v -10.930109 -4.581947 -14.804176
v -12.468102 -4.710021 -15.101652
v -15.864045 -4.710021 -13.141004
v -7.689453 -4.581945 8.846557
v -13.642974 -4.581945 5.409290
v -19.767305 -4.710020 3.058842
v -15.693306 -4.710020 5.410966
v -19.767305 -4.710021 -5.185491
v -18.740686 -4.581946 -5.773741
v -3.480723 -4.710020 7.602081
v -5.531055 -4.581945 7.600404
v 0.614030 -4.710020 5.237973
v 5.383323 -4.581945 6.274116
v 4.185460 -4.710020 6.858044
v -12.816836 -4.710021 -15.705678
v -12.468102 -4.710021 -15.101649
v -10.286753 -4.710021 -20.087906
v -6.424413 -4.710019 15.650146
v -5.226594 -4.710021 -20.087906
v -14.014656 -4.710019 15.650146
v -17.809776 -4.710019 9.076801
v -15.864045 -4.710021 -13.141004
v -19.300259 -4.710021 -13.141004
v -19.767305 -4.710020 3.058842
v -21.830341 -4.710021 -8.758774
v -3.480723 -4.710020 7.602081
v -2.629292 -4.710019 9.076801
v -3.011636 -4.710021 -15.159865
v -2.696513 -4.710021 -15.705678
v 0.614030 -4.710020 5.237973
v -1.782470 -4.710021 -14.450208
v 4.992545 -4.710021 -19.300642
v 4.185460 -4.710020 6.858044
v 5.340912 -4.710019 10.378349
v 3.746960 -4.710020 7.617544
v 8.528814 -4.710019 10.378349
v 9.762083 -4.710020 6.992829
v 10.122765 -4.710020 7.617544
v 9.998229 -4.537155 6.670483
v 10.879143 -4.710020 7.742641
v 18.469383 -4.710020 7.742641
v 17.890858 -4.710021 -11.523590
v 18.501406 -4.710021 -12.581091
v 18.495285 -4.710021 -5.359183
v 22.264503 -4.710020 1.169299
v -20.464096 -4.581947 -8.758774
v -18.740686 -4.581946 -5.773741
v -18.617140 -4.581947 -11.957802
v -19.767305 -4.710021 -5.185491
v -19.300259 -4.710021 -13.141004
v -15.864045 -4.710021 -13.141004
v 9.262031 -4.581945 7.617544
v 10.122765 -4.710020 7.617544
v 8.528814 -4.710019 10.378349
v 5.340912 -4.710019 10.378349
v 8.098448 -4.581945 9.632934
v 5.771277 -4.581945 9.632934
v 4.607694 -4.581945 7.617544
v 5.383323 -4.581945 6.274116
v 7.598709 -4.581945 7.279059
v 3.746960 -4.710020 7.617544
v 4.185460 -4.710020 6.858044
v 14.638740 -4.581945 5.278066
v 15.432867 -4.581946 4.333309
v 13.693978 -4.581946 4.483937
v 14.488110 -4.581946 3.539178
v 15.128564 -4.535373 4.359668
v 14.612376 -4.535373 4.973761
v 14.514471 -4.535373 3.843483
v 13.998285 -4.535373 4.457577
v 5.838140 -4.453873 -13.765917
v 6.044540 -4.453873 -14.982719
v 4.621337 -4.453873 -13.972316
v 4.827737 -4.453873 -15.189121
v 5.795479 -4.407301 -14.805899
v 5.661318 -4.407301 -14.014977
v 5.004559 -4.407301 -14.940058
v 4.870398 -4.407301 -14.149138
v -12.181663 -4.581945 7.505806
v -13.317202 -4.581945 7.022319
v -12.665150 -4.581945 8.641346
v -13.800692 -4.581945 8.157859
v -13.203094 -4.535373 7.305649
v -12.464992 -4.535373 7.619914
v -13.517363 -4.535373 8.043748
v -12.779260 -4.535373 8.358017
v -12.816836 -4.710021 -15.705678
v -10.286756 -4.710021 -20.087906
v -11.450592 -4.581947 -15.705678
v -9.603634 -4.581947 -18.904703
v -4.062757 -4.581947 -15.705678
v -3.011636 -4.710021 -15.159865
v -2.696513 -4.710021 -15.705678
v -5.909716 -4.581947 -18.904703
v -5.226594 -4.710021 -20.087906
v -17.809776 -4.710019 9.076801
v -15.760411 -4.581945 9.076801
v -13.642974 -4.581945 5.409290
v -6.424413 -4.710019 15.650144
v -14.014656 -4.710019 15.650144
v -7.449096 -4.581945 13.875342
v -12.989972 -4.581945 13.875342
v -4.678658 -4.581945 9.076801
v -2.629292 -4.710019 9.076801
v -5.531055 -4.581945 7.600404
v -3.480723 -4.710020 7.602081
v -7.689453 -4.581945 8.846554
v 10.552260 -4.440427 6.974323
v 11.180395 -4.606094 5.418170
v 10.879143 -4.710020 7.742641
v 11.903825 -4.446928 6.504770
v 18.469383 -4.710020 7.742641
v 17.444702 -4.433741 5.967841
v 17.671961 -4.581946 -3.235614
v 18.495285 -4.710021 -5.359183
v 20.215139 -4.581946 1.169299
v 22.264503 -4.710020 1.169299
v 17.974573 -4.581946 -0.149334
vn -0.4196 0.9069 -0.0385
vn 0.1466 0.9856 0.0847
vn -0.0265 0.9785 0.2045
vn -0.0107 0.9841 0.1775
vn -0.4570 0.8839 0.0994
vn -0.3001 0.9380 -0.1733
vn 0.1469 0.9876 0.0556
vn 0.5332 0.8302 -0.1627
vn -0.1527 0.9655 -0.2108
vn -0.0108 0.9998 0.0190
vn 0.1934 0.9809 -0.0190
vn 0.0338 0.9991 0.0251
vn 0.1161 0.9915 -0.0586
vn 0.1284 0.9917 -0.0100
vn 0.1293 0.9916 -0.0102
vn 0.1232 0.9923 -0.0121
vn -0.1934 -0.9809 0.0190
vn -0.0338 -0.9991 -0.0251
vn -0.1161 -0.9915 0.0586
vn -0.1284 -0.9917 0.0100
vn -0.1293 -0.9916 0.0102
vn -0.1232 -0.9923 0.0121
vn -0.0000 1.0000 -0.0000
vn -0.0000 -1.0000 -0.0000
vn 0.0721 0.9923 0.1007
vn -0.0721 -0.9923 -0.1007
vn 0.0383 0.9930 -0.1116
vn 0.0608 -0.3201 -0.9454
vn -0.0056 0.9999 0.0125
vn 0.1798 0.9836 0.0115
vn -0.0383 -0.9930 0.1116
vn -0.0608 0.3201 0.9454
vn 0.0056 -0.9999 -0.0125
vn -0.1798 -0.9836 -0.0115
vn 0.0619 0.9923 -0.1072
vn -0.0619 -0.9923 0.1072
vn -0.0721 0.9923 -0.1007
vn 0.0721 -0.9923 0.1007
vn -0.0619 0.9923 -0.1072
vn 0.0619 -0.9923 0.1072
vn -0.0619 0.9923 0.1072
vn 0.0619 -0.9923 -0.1072
vn -0.1238 0.9923 -0.0000
vn 0.1238 -0.9923 -0.0000
vn 0.0619 0.9923 0.1072
vn -0.0619 -0.9923 -0.1072
vn -0.0511 0.9923 0.1127
vn 0.0511 -0.9923 -0.1127
vn 0.6852 -0.7190 0.1164
vn -0.1691 -0.9854 -0.0200
vn 0.0916 -0.9956 -0.0181
vn -0.3297 -0.9440 0.0099
vn -0.0780 -0.9959 -0.0450
vn -0.0932 0.9942 0.0538
vn -0.0932 0.9942 -0.0538
vn -0.0000 0.9942 -0.1076
vn 0.1466 0.9856 -0.0847
vn -0.0000 0.9856 0.1693
vn -0.1466 0.9856 -0.0847
vn -0.1466 0.9856 0.0847
vn 0.1614 0.9775 0.1356
vn -0.1356 0.9775 0.1614
vn 0.1356 0.9775 -0.1614
vn -0.1614 0.9775 -0.1356
vn 0.2078 0.9775 0.0353
vn -0.0353 0.9775 0.2078
vn 0.0353 0.9775 -0.2078
vn -0.2078 0.9775 -0.0353
vn 0.0826 0.9775 -0.1939
vn 0.1939 0.9775 0.0826
vn -0.1939 0.9775 -0.0826
vn -0.0826 0.9775 0.1939
vn 0.0932 0.9942 0.0538
vn 0.0932 0.9942 -0.0538
vn -0.0623 0.9974 -0.0360
vn -0.0000 0.9974 0.0720
vn -0.0623 0.9974 0.0360
vn 0.0623 0.9974 0.0360
vn 0.0623 0.9974 -0.0360
vn 0.4805 0.8711 0.1012
vn -0.2337 0.9722 0.0132
vn -0.0000 0.9881 0.1538
vn 0.0193 0.9746 0.2231
vn -0.0794 0.9925 -0.0925
vn -0.0048 0.9997 -0.0246
vn 0.0136 0.9996 -0.0230
vn 0.1592 0.9853 0.0615
vt 0.843750 0.025000
vt 0.843750 0.225000
vt 0.843750 0.125000
vt 0.843750 0.201471
vt 0.843750 0.204452
vt 0.843750 0.206129
vt 0.843750 0.213235
vt 0.843750 0.122076
vt 0.843750 0.165840
vt 0.843750 0.223550
s 0
usemtl colormap.003
f 3/1/1 2/2/1 1/2/1
f 6/1/2 5/2/2 4/2/2
f 5/2/2 6/1/2 7/1/2
f 8/2/3 1/2/3 2/2/3
f 1/2/4 8/2/4 9/2/4
f 9/2/5 8/2/5 5/2/5
f 5/2/6 8/2/6 4/2/6
f 7/1/7 9/2/7 5/2/7
f 9/2/8 7/1/8 10/1/8
f 1/2/9 10/1/9 3/1/9
f 10/1/10 1/2/10 9/2/10
f 13/1/11 12/3/11 11/1/11
f 14/2/12 11/1/12 12/3/12
f 14/2/13 12/3/13 15/3/13
f 14/2/14 16/3/14 11/1/14
f 17/2/15 16/3/15 14/2/15
f 16/3/16 17/2/16 18/3/16
f 11/1/17 12/3/17 13/1/17
f 12/3/18 11/1/18 14/2/18
f 15/3/19 12/3/19 14/2/19
f 11/1/20 16/3/20 14/2/20
f 14/2/21 16/3/21 17/2/21
f 18/3/22 17/2/22 16/3/22
f 21/2/23 20/2/23 19/2/23
f 20/2/23 21/2/23 22/2/23
f 20/2/23 22/2/23 23/2/23
f 23/2/23 22/2/23 24/2/23
f 23/2/23 24/2/23 25/2/23
f 25/2/23 24/2/23 26/2/23
f 25/2/23 26/2/23 14/2/23
f 14/2/23 26/2/23 17/2/23
f 19/2/24 20/2/24 21/2/24
f 22/2/24 21/2/24 20/2/24
f 23/2/24 22/2/24 20/2/24
f 24/2/24 22/2/24 23/2/24
f 25/2/24 24/2/24 23/2/24
f 26/2/24 24/2/24 25/2/24
f 14/2/24 26/2/24 25/2/24
f 17/2/24 26/2/24 14/2/24
f 29/1/25 28/3/25 27/1/25
f 28/3/25 29/1/25 30/3/25
f 26/2/25 28/3/25 30/3/25
f 28/3/25 26/2/25 31/3/25
f 26/2/25 30/3/25 17/2/25
f 17/2/25 30/3/25 18/3/25
f 27/1/26 28/3/26 29/1/26
f 30/3/26 29/1/26 28/3/26
f 30/3/26 28/3/26 26/2/26
f 31/3/26 26/2/26 28/3/26
f 17/2/26 30/3/26 26/2/26
f 18/3/26 30/3/26 17/2/26
f 25/2/27 33/1/27 32/1/27
f 33/1/28 25/2/28 34/3/28
f 14/2/29 34/3/29 25/2/29
f 34/3/30 14/2/30 15/3/30
f 32/1/31 33/1/31 25/2/31
f 34/3/32 25/2/32 33/1/32
f 25/2/33 34/3/33 14/2/33
f 15/3/34 14/2/34 34/3/34
f 20/2/35 36/3/35 35/3/35
f 23/2/35 36/3/35 20/2/35
f 37/1/35 36/3/35 23/2/35
f 36/3/35 37/1/35 38/1/35
f 35/3/36 36/3/36 20/2/36
f 20/2/36 36/3/36 23/2/36
f 23/2/36 36/3/36 37/1/36
f 38/1/36 37/1/36 36/3/36
f 23/2/37 32/1/37 37/1/37
f 32/1/37 23/2/37 25/2/37
f 37/1/38 32/1/38 23/2/38
f 25/2/38 23/2/38 32/1/38
f 19/2/39 40/3/39 39/3/39
f 40/3/39 19/2/39 41/3/39
f 20/2/39 41/3/39 19/2/39
f 41/3/39 20/2/39 35/3/39
f 42/1/39 40/3/39 41/3/39
f 40/3/39 42/1/39 43/1/39
f 39/3/40 40/3/40 19/2/40
f 41/3/40 19/2/40 40/3/40
f 19/2/40 41/3/40 20/2/40
f 35/3/40 20/2/40 41/3/40
f 41/3/40 40/3/40 42/1/40
f 43/1/40 42/1/40 40/3/40
f 22/2/41 45/3/41 44/3/41
f 21/2/41 45/3/41 22/2/41
f 46/1/41 45/3/41 21/2/41
f 45/3/41 46/1/41 47/1/41
f 44/3/42 45/3/42 22/2/42
f 22/2/42 45/3/42 21/2/42
f 21/2/42 45/3/42 46/1/42
f 47/1/42 46/1/42 45/3/42
f 21/2/43 48/1/43 46/1/43
f 48/1/43 21/2/43 49/3/43
f 49/3/43 21/2/43 19/2/43
f 49/3/43 19/2/43 39/3/43
f 46/1/44 48/1/44 21/2/44
f 49/3/44 21/2/44 48/1/44
f 19/2/44 21/2/44 49/3/44
f 39/3/44 19/2/44 49/3/44
f 52/1/45 51/3/45 50/1/45
f 51/3/45 52/1/45 24/2/45
f 51/3/45 24/2/45 44/3/45
f 44/3/45 24/2/45 22/2/45
f 50/1/46 51/3/46 52/1/46
f 24/2/46 52/1/46 51/3/46
f 44/3/46 24/2/46 51/3/46
f 22/2/46 24/2/46 44/3/46
f 26/2/47 53/3/47 31/3/47
f 24/2/47 53/3/47 26/2/47
f 52/1/47 53/3/47 24/2/47
f 53/3/47 52/1/47 54/1/47
f 31/3/48 53/3/48 26/2/48
f 26/2/48 53/3/48 24/2/48
f 24/2/48 53/3/48 52/1/48
f 54/1/48 52/1/48 53/3/48
f 57/4/24 56/4/24 55/4/24
f 58/4/24 56/4/24 57/4/24
f 58/4/24 57/4/24 59/4/24
f 60/4/24 56/4/24 58/4/24
f 47/4/24 56/4/24 60/4/24
f 60/4/24 61/4/24 47/4/24
f 47/4/24 62/4/24 56/4/24
f 47/4/24 63/4/24 62/4/24
f 64/4/24 63/4/24 47/4/24
f 48/4/24 63/4/24 64/4/24
f 63/4/24 48/4/24 65/4/24
f 58/4/24 59/4/24 66/5/24
f 58/4/24 66/5/24 67/4/24
f 59/4/24 68/6/24 66/5/24
f 68/6/24 59/4/24 69/4/24
f 68/6/24 70/7/24 66/5/24
f 70/7/24 68/6/24 71/7/24
f 70/7/24 71/7/24 72/2/24
f 70/7/24 72/2/24 73/8/24
f 74/1/24 73/8/24 72/2/24
f 73/8/24 74/1/24 75/1/24
f 74/1/24 72/2/24 33/2/24
f 74/1/24 33/2/24 76/1/24
f 76/1/24 33/2/24 77/3/24
f 78/1/24 76/1/24 77/3/24
f 77/3/49 33/2/49 79/9/49
f 79/9/50 33/2/50 80/4/50
f 80/4/24 33/2/24 81/4/24
f 81/4/51 33/2/51 10/2/51
f 81/4/52 10/2/52 82/10/52
f 83/2/53 82/10/53 10/2/53
f 81/4/24 82/10/24 84/7/24
f 81/4/24 84/7/24 85/4/24
f 87/2/23 39/2/23 86/2/23
f 39/2/23 88/2/23 86/2/23
f 88/2/23 39/2/23 40/2/23
f 87/2/54 65/1/54 89/1/54
f 65/1/54 87/2/54 86/2/54
f 86/2/55 90/1/55 65/1/55
f 90/1/55 86/2/55 88/2/55
f 88/2/56 91/1/56 90/1/56
f 91/1/56 88/2/56 40/2/56
f 93/1/57 28/2/57 92/2/57
f 28/2/57 93/1/57 77/1/57
f 96/2/58 95/1/58 94/1/58
f 95/1/58 96/2/58 97/2/58
f 93/1/2 96/2/2 94/1/2
f 96/2/2 93/1/2 92/2/2
f 97/2/23 99/2/23 98/2/23
f 99/2/23 97/2/23 100/2/23
f 100/2/23 97/2/23 96/2/23
f 100/2/23 96/2/23 28/2/23
f 28/2/23 96/2/23 92/2/23
f 98/2/59 102/1/59 101/1/59
f 102/1/59 98/2/59 99/2/59
f 97/2/60 101/1/60 95/1/60
f 101/1/60 97/2/60 98/2/60
f 105/1/24 104/1/24 103/1/24
f 104/1/24 105/1/24 106/1/24
f 109/2/23 108/2/23 107/2/23
f 108/2/23 109/2/23 110/2/23
f 107/2/61 103/1/61 104/1/61
f 103/1/61 107/2/61 108/2/61
f 108/2/62 105/1/62 103/1/62
f 105/1/62 108/2/62 110/2/62
f 109/2/63 104/1/63 106/1/63
f 104/1/63 109/2/63 107/2/63
f 105/1/64 109/2/64 106/1/64
f 109/2/64 105/1/64 110/2/64
f 113/1/24 112/1/24 111/1/24
f 112/1/24 113/1/24 114/1/24
f 117/2/23 116/2/23 115/2/23
f 116/2/23 117/2/23 118/2/23
f 115/2/65 111/1/65 112/1/65
f 111/1/65 115/2/65 116/2/65
f 116/2/66 113/1/66 111/1/66
f 113/1/66 116/2/66 118/2/66
f 117/2/67 112/1/67 114/1/67
f 112/1/67 117/2/67 115/2/67
f 113/1/68 117/2/68 114/1/68
f 117/2/68 113/1/68 118/2/68
f 121/1/24 120/1/24 119/1/24
f 120/1/24 121/1/24 122/1/24
f 125/2/23 124/2/23 123/2/23
f 124/2/23 125/2/23 126/2/23
f 123/2/69 119/1/69 120/1/69
f 119/1/69 123/2/69 124/2/69
f 124/2/70 121/1/70 119/1/70
f 121/1/70 124/2/70 126/2/70
f 125/2/71 120/1/71 122/1/71
f 120/1/71 125/2/71 123/2/71
f 121/1/72 125/2/72 122/1/72
f 125/2/72 121/1/72 126/2/72
f 129/3/55 128/1/55 127/1/55
f 128/1/55 129/3/55 130/3/55
f 132/1/73 131/3/73 36/3/73
f 131/3/73 132/1/73 133/1/73
f 41/3/23 130/3/23 129/3/23
f 130/3/23 41/3/23 35/3/23
f 130/3/23 35/3/23 134/3/23
f 134/3/23 35/3/23 36/3/23
f 134/3/23 36/3/23 131/3/23
f 129/3/54 42/1/54 41/3/54
f 42/1/54 129/3/54 127/1/54
f 130/3/56 135/1/56 128/1/56
f 135/1/56 130/3/56 134/3/56
f 133/1/74 134/3/74 131/3/74
f 134/3/74 133/1/74 135/1/74
f 137/3/75 47/1/75 136/1/75
f 47/1/75 137/3/75 138/3/75
f 141/3/76 140/1/76 139/1/76
f 140/1/76 141/3/76 142/3/76
f 140/1/77 137/3/77 136/1/77
f 137/3/77 140/1/77 142/3/77
f 139/1/78 143/3/78 141/3/78
f 143/3/78 139/1/78 144/1/78
f 143/3/79 146/1/79 145/3/79
f 146/1/79 143/3/79 144/1/79
f 142/3/23 138/3/23 137/3/23
f 138/3/23 142/3/23 147/3/23
f 147/3/23 142/3/23 141/3/23
f 147/3/23 141/3/23 145/3/23
f 145/3/23 141/3/23 143/3/23
f 150/1/80 149/3/80 148/1/80
f 149/3/81 150/1/81 151/3/81
f 153/3/82 150/1/82 152/1/82
f 150/1/83 153/3/83 151/3/83
f 156/3/79 155/1/79 154/3/79
f 155/1/79 156/3/79 157/1/79
f 151/3/84 158/3/84 149/3/84
f 158/3/85 151/3/85 153/3/85
f 158/3/86 153/3/86 156/3/86
f 156/3/23 154/3/23 158/3/23
f 152/1/87 156/3/87 153/3/87
f 156/3/78 152/1/78 157/1/78
f 3/1/1 2/2/1 1/2/1
f 6/1/2 5/2/2 4/2/2
f 5/2/2 6/1/2 7/1/2
f 8/2/3 1/2/3 2/2/3
f 1/2/4 8/2/4 9/2/4
f 9/2/5 8/2/5 5/2/5
f 5/2/6 8/2/6 4/2/6
f 7/1/7 9/2/7 5/2/7
f 9/2/8 7/1/8 10/1/8
f 1/2/9 10/1/9 3/1/9
f 10/1/10 1/2/10 9/2/10
f 13/1/11 12/3/11 11/1/11
f 14/2/12 11/1/12 12/3/12
f 14/2/13 12/3/13 15/3/13
f 14/2/14 16/3/14 11/1/14
f 17/2/15 16/3/15 14/2/15
f 16/3/16 17/2/16 18/3/16
f 11/1/17 12/3/17 13/1/17
f 12/3/18 11/1/18 14/2/18
f 15/3/19 12/3/19 14/2/19
f 11/1/20 16/3/20 14/2/20
f 14/2/21 16/3/21 17/2/21
f 18/3/22 17/2/22 16/3/22
f 21/2/23 20/2/23 19/2/23
f 20/2/23 21/2/23 22/2/23
f 20/2/23 22/2/23 23/2/23
f 23/2/23 22/2/23 24/2/23
f 23/2/23 24/2/23 25/2/23
f 25/2/23 24/2/23 26/2/23
f 25/2/23 26/2/23 14/2/23
f 14/2/23 26/2/23 17/2/23
f 19/2/24 20/2/24 21/2/24
f 22/2/24 21/2/24 20/2/24
f 23/2/24 22/2/24 20/2/24
f 24/2/24 22/2/24 23/2/24
f 25/2/24 24/2/24 23/2/24
f 26/2/24 24/2/24 25/2/24
f 14/2/24 26/2/24 25/2/24
f 17/2/24 26/2/24 14/2/24
f 29/1/25 28/3/25 27/1/25
f 28/3/25 29/1/25 30/3/25
f 26/2/25 28/3/25 30/3/25
f 28/3/25 26/2/25 31/3/25
f 26/2/25 30/3/25 17/2/25
f 17/2/25 30/3/25 18/3/25
f 27/1/26 28/3/26 29/1/26
f 30/3/26 29/1/26 28/3/26
f 30/3/26 28/3/26 26/2/26
f 31/3/26 26/2/26 28/3/26
f 17/2/26 30/3/26 26/2/26
f 18/3/26 30/3/26 17/2/26
f 25/2/27 33/1/27 32/1/27
f 33/1/28 25/2/28 34/3/28
f 14/2/29 34/3/29 25/2/29
f 34/3/30 14/2/30 15/3/30
f 32/1/31 33/1/31 25/2/31
f 34/3/32 25/2/32 33/1/32
f 25/2/33 34/3/33 14/2/33
f 15/3/34 14/2/34 34/3/34
f 20/2/35 36/3/35 35/3/35
f 23/2/35 36/3/35 20/2/35
f 37/1/35 36/3/35 23/2/35
f 36/3/35 37/1/35 38/1/35
f 35/3/36 36/3/36 20/2/36
f 20/2/36 36/3/36 23/2/36
f 23/2/36 36/3/36 37/1/36
f 38/1/36 37/1/36 36/3/36
f 23/2/37 32/1/37 37/1/37
f 32/1/37 23/2/37 25/2/37
f 37/1/38 32/1/38 23/2/38
f 25/2/38 23/2/38 32/1/38
f 19/2/39 40/3/39 39/3/39
f 40/3/39 19/2/39 41/3/39
f 20/2/39 41/3/39 19/2/39
f 41/3/39 20/2/39 35/3/39
f 42/1/39 40/3/39 41/3/39
f 40/3/39 42/1/39 43/1/39
f 39/3/40 40/3/40 19/2/40
f 41/3/40 19/2/40 40/3/40
f 19/2/40 41/3/40 20/2/40
f 35/3/40 20/2/40 41/3/40
f 41/3/40 40/3/40 42/1/40
f 43/1/40 42/1/40 40/3/40
f 22/2/41 45/3/41 44/3/41
f 21/2/41 45/3/41 22/2/41
f 46/1/41 45/3/41 21/2/41
f 45/3/41 46/1/41 47/1/41
f 44/3/42 45/3/42 22/2/42
f 22/2/42 45/3/42 21/2/42
f 21/2/42 45/3/42 46/1/42
f 47/1/42 46/1/42 45/3/42
f 21/2/43 48/1/43 46/1/43
f 48/1/43 21/2/43 49/3/43
f 49/3/43 21/2/43 19/2/43
f 49/3/43 19/2/43 39/3/43
f 46/1/44 48/1/44 21/2/44
f 49/3/44 21/2/44 48/1/44
f 19/2/44 21/2/44 49/3/44
f 39/3/44 19/2/44 49/3/44
f 52/1/45 51/3/45 50/1/45
f 51/3/45 52/1/45 24/2/45
f 51/3/45 24/2/45 44/3/45
f 44/3/45 24/2/45 22/2/45
f 50/1/46 51/3/46 52/1/46
f 24/2/46 52/1/46 51/3/46
f 44/3/46 24/2/46 51/3/46
f 22/2/46 24/2/46 44/3/46
f 26/2/47 53/3/47 31/3/47
f 24/2/47 53/3/47 26/2/47
f 52/1/47 53/3/47 24/2/47
f 53/3/47 52/1/47 54/1/47
f 31/3/48 53/3/48 26/2/48
f 26/2/48 53/3/48 24/2/48
f 24/2/48 53/3/48 52/1/48
f 54/1/48 52/1/48 53/3/48
f 57/4/24 56/4/24 55/4/24
f 58/4/24 56/4/24 57/4/24
f 58/4/24 57/4/24 59/4/24
f 60/4/24 56/4/24 58/4/24
f 47/4/24 56/4/24 60/4/24
f 60/4/24 61/4/24 47/4/24
f 47/4/24 62/4/24 56/4/24
f 47/4/24 63/4/24 62/4/24
f 64/4/24 63/4/24 47/4/24
f 48/4/24 63/4/24 64/4/24
f 63/4/24 48/4/24 65/4/24
f 58/4/24 59/4/24 66/5/24
f 58/4/24 66/5/24 67/4/24
f 59/4/24 68/6/24 66/5/24
f 68/6/24 59/4/24 69/4/24
f 68/6/24 70/7/24 66/5/24
f 70/7/24 68/6/24 71/7/24
f 70/7/24 71/7/24 72/2/24
f 70/7/24 72/2/24 73/8/24
f 74/1/24 73/8/24 72/2/24
f 73/8/24 74/1/24 75/1/24
f 74/1/24 72/2/24 33/2/24
f 74/1/24 33/2/24 76/1/24
f 76/1/24 33/2/24 77/3/24
f 78/1/24 76/1/24 77/3/24
f 77/3/49 33/2/49 79/9/49
f 79/9/50 33/2/50 80/4/50
f 80/4/24 33/2/24 81/4/24
f 81/4/51 33/2/51 10/2/51
f 81/4/52 10/2/52 82/10/52
f 83/2/53 82/10/53 10/2/53
f 81/4/24 82/10/24 84/7/24
f 81/4/24 84/7/24 85/4/24
f 87/2/23 39/2/23 86/2/23
f 39/2/23 88/2/23 86/2/23
f 88/2/23 39/2/23 40/2/23
f 87/2/54 65/1/54 89/1/54
f 65/1/54 87/2/54 86/2/54
f 86/2/55 90/1/55 65/1/55
f 90/1/55 86/2/55 88/2/55
f 88/2/56 91/1/56 90/1/56
f 91/1/56 88/2/56 40/2/56
f 93/1/57 28/2/57 92/2/57
f 28/2/57 93/1/57 77/1/57
f 96/2/58 95/1/58 94/1/58
f 95/1/58 96/2/58 97/2/58
f 93/1/2 96/2/2 94/1/2
f 96/2/2 93/1/2 92/2/2
f 97/2/23 99/2/23 98/2/23
f 99/2/23 97/2/23 100/2/23
f 100/2/23 97/2/23 96/2/23
f 100/2/23 96/2/23 28/2/23
f 28/2/23 96/2/23 92/2/23
f 98/2/59 102/1/59 101/1/59
f 102/1/59 98/2/59 99/2/59
f 97/2/60 101/1/60 95/1/60
f 101/1/60 97/2/60 98/2/60
f 105/1/24 104/1/24 103/1/24
f 104/1/24 105/1/24 106/1/24
f 109/2/23 108/2/23 107/2/23
f 108/2/23 109/2/23 110/2/23
f 107/2/61 103/1/61 104/1/61
f 103/1/61 107/2/61 108/2/61
f 108/2/62 105/1/62 103/1/62
f 105/1/62 108/2/62 110/2/62
f 109/2/63 104/1/63 106/1/63
f 104/1/63 109/2/63 107/2/63
f 105/1/64 109/2/64 106/1/64
f 109/2/64 105/1/64 110/2/64
f 113/1/24 112/1/24 111/1/24
f 112/1/24 113/1/24 114/1/24
f 117/2/23 116/2/23 115/2/23
f 116/2/23 117/2/23 118/2/23
f 115/2/65 111/1/65 112/1/65
f 111/1/65 115/2/65 116/2/65
f 116/2/66 113/1/66 111/1/66
f 113/1/66 116/2/66 118/2/66
f 117/2/67 112/1/67 114/1/67
f 112/1/67 117/2/67 115/2/67
f 113/1/68 117/2/68 114/1/68
f 117/2/68 113/1/68 118/2/68
f 121/1/24 120/1/24 119/1/24
f 120/1/24 121/1/24 122/1/24
f 125/2/23 124/2/23 123/2/23
f 124/2/23 125/2/23 126/2/23
f 123/2/69 119/1/69 120/1/69
f 119/1/69 123/2/69 124/2/69
f 124/2/70 121/1/70 119/1/70
f 121/1/70 124/2/70 126/2/70
f 125/2/71 120/1/71 122/1/71
f 120/1/71 125/2/71 123/2/71
f 121/1/72 125/2/72 122/1/72
f 125/2/72 121/1/72 126/2/72
f 129/3/55 128/1/55 127/1/55
f 128/1/55 129/3/55 130/3/55
f 132/1/73 131/3/73 36/3/73
f 131/3/73 132/1/73 133/1/73
f 41/3/23 130/3/23 129/3/23
f 130/3/23 41/3/23 35/3/23
f 130/3/23 35/3/23 134/3/23
f 134/3/23 35/3/23 36/3/23
f 134/3/23 36/3/23 131/3/23
f 129/3/54 42/1/54 41/3/54
f 42/1/54 129/3/54 127/1/54
f 130/3/56 135/1/56 128/1/56
f 135/1/56 130/3/56 134/3/56
f 133/1/74 134/3/74 131/3/74
f 134/3/74 133/1/74 135/1/74
f 137/3/75 47/1/75 136/1/75
f 47/1/75 137/3/75 138/3/75
f 141/3/76 140/1/76 139/1/76
f 140/1/76 141/3/76 142/3/76
f 140/1/77 137/3/77 136/1/77
f 137/3/77 140/1/77 142/3/77
f 139/1/78 143/3/78 141/3/78
f 143/3/78 139/1/78 144/1/78
f 143/3/79 146/1/79 145/3/79
f 146/1/79 143/3/79 144/1/79
f 142/3/23 138/3/23 137/3/23
f 138/3/23 142/3/23 147/3/23
f 147/3/23 142/3/23 141/3/23
f 147/3/23 141/3/23 145/3/23
f 145/3/23 141/3/23 143/3/23
f 150/1/80 149/3/80 148/1/80
f 149/3/81 150/1/81 151/3/81
f 153/3/82 150/1/82 152/1/82
f 150/1/83 153/3/83 151/3/83
f 156/3/79 155/1/79 154/3/79
f 155/1/79 156/3/79 157/1/79
f 151/3/84 158/3/84 149/3/84
f 158/3/85 151/3/85 153/3/85
f 158/3/86 153/3/86 156/3/86
f 156/3/23 154/3/23 158/3/23
f 152/1/87 156/3/87 153/3/87
f 156/3/78 152/1/78 157/1/78
