# Blender 4.1.1
# www.blender.org
mtllib tree.047.mtl
o tree.047
v -6.713776 -0.295190 -18.673393
v -6.499138 -0.295190 -18.552834
v -6.760815 -0.295190 -18.840992
v -6.331539 -0.295190 -18.599873
v -6.640255 -0.295190 -19.055630
v -6.210979 -0.295190 -18.814510
v -6.472656 -0.295190 -19.102669
v -6.258018 -0.295190 -18.982109
v -6.492518 0.150532 -18.690292
v -6.599837 0.150532 -18.750572
v -6.623356 0.150532 -18.834372
v -6.408718 0.150532 -18.713812
v -6.348438 0.150532 -18.821131
v -6.371957 0.150532 -18.904930
v -6.479277 0.150532 -18.965210
v -6.563076 0.150532 -18.941690
v -6.343472 0.819166 -18.924225
v -6.477621 0.819166 -18.999575
v -6.582371 0.819166 -18.970175
v -6.494173 0.819166 -18.655928
v -6.628322 0.819166 -18.731277
v -6.314073 0.819166 -18.819475
v -6.389423 0.819166 -18.685328
v -6.657721 0.819166 -18.836027
v -6.533076 0.309673 -18.620899
v -6.592778 0.309673 -18.696827
v -6.437171 0.309673 -18.609425
v -6.361242 0.309673 -18.669127
v -6.581304 0.309673 -18.792732
v -6.349768 0.309673 -18.765032
v -6.505375 0.309673 -18.852434
v -6.409470 0.309673 -18.840961
v -6.568083 0.147933 -18.558575
v -6.417855 0.147933 -18.540602
v -6.661601 0.147933 -18.677511
v -6.643627 0.147933 -18.827740
v -6.298919 0.147933 -18.634119
v -6.524691 0.147933 -18.921257
v -6.280945 0.147933 -18.784348
v -6.374463 0.147933 -18.903284
v -7.093082 0.819166 -18.830908
v -6.792845 0.819166 -19.365433
v -6.841743 1.556122 -18.833879
v -6.664601 1.556122 -19.149252
v -6.167260 0.819166 -18.310883
v -6.780290 0.819166 -18.303633
v -6.295504 1.556122 -18.527061
v -6.657194 1.556122 -18.522785
v -5.867023 0.819166 -18.845406
v -6.118362 1.556122 -18.842434
v -6.302911 1.556122 -19.153528
v -6.179815 0.819166 -19.372681
v -6.653170 2.347869 -18.529949
v -6.833527 2.347869 -18.833977
v -6.519843 3.178330 -18.767317
v -6.561297 3.178330 -18.837196
v -6.440262 3.178330 -18.908997
v -6.521507 3.178330 -18.908037
v -6.306935 2.347869 -19.146364
v -6.660409 2.347869 -19.142185
v -6.126578 2.347869 -18.842337
v -6.299695 2.347869 -18.534130
v -6.398808 3.178330 -18.839117
v -6.438598 3.178330 -18.768276
v -6.474159 1.556122 -18.339758
v -6.908731 1.556122 -18.583855
v -6.477352 2.347869 -18.609785
v -6.676478 2.347869 -18.721632
v -6.045480 1.556122 -18.594061
v -6.280927 2.347869 -18.726309
v -6.914625 1.556122 -19.082253
v -6.679178 2.347869 -18.950005
v -6.485946 1.556122 -19.336555
v -6.482753 2.347869 -19.066528
v -6.051373 1.556122 -19.092461
v -6.283627 2.347869 -18.954681
v -7.044804 0.589264 -19.155373
v -6.827252 0.704215 -19.423431
v -7.160516 0.704215 -18.830111
v -5.799589 0.704215 -18.846203
v -5.922959 0.589264 -19.168638
v -6.146789 0.704215 -19.431479
v -6.487711 0.589264 -19.485855
v -6.813316 0.704215 -18.244835
v -7.037145 0.589264 -18.507675
v -5.915300 0.589264 -18.520941
v -6.132853 0.704215 -18.252882
v -6.472394 0.589264 -18.190460
v -5.953469 1.369209 -18.844383
v -5.997677 1.462665 -18.567211
v -6.004219 1.462665 -19.120434
v -6.473511 1.462665 -18.284935
v -6.737952 1.369209 -18.379009
v -6.955886 1.462665 -18.555882
v -6.748736 1.369209 -19.291079
v -6.486594 1.462665 -19.391378
v -6.962428 1.462665 -19.109102
v -6.222153 1.369209 -19.297304
v -7.006636 1.369209 -18.831930
v -6.211369 1.369209 -18.385235
v -6.087696 2.281588 -18.842796
v -6.158832 2.215307 -19.028713
v -6.287892 2.281588 -19.180267
v -6.484468 2.215307 -19.211620
v -6.680248 2.281588 -19.175627
v -6.279856 2.281588 -18.500687
v -6.475636 2.215307 -18.464693
v -6.672213 2.281588 -18.496046
v -6.805689 2.215307 -19.021065
v -6.872409 2.281588 -18.833517
v -6.154416 2.215307 -18.655251
v -6.801273 2.215307 -18.647600
vn -0.0000 -1.0000 -0.0000
vn -0.1190 0.2942 0.9483
vn -0.7540 0.2944 0.5873
vn -0.1092 0.2944 0.9494
vn -0.7479 0.2942 0.5951
vn -0.9483 0.2942 -0.1189
vn -0.7540 0.2944 0.5872
vn -0.7480 0.2942 0.5950
vn -0.9494 0.2944 -0.1091
vn 0.5950 0.2942 0.7479
vn -0.1091 0.2944 0.9494
vn 0.5872 0.2944 0.7540
vn 0.5950 0.2942 0.7480
vn -0.1189 0.2942 0.9483
vn 0.9483 0.2942 0.1190
vn 0.5873 0.2944 0.7540
vn 0.9494 0.2944 0.1092
vn 0.5873 0.2944 0.7539
vn 0.5951 0.2942 0.7479
vn 0.1092 0.2944 -0.9494
vn 0.7479 0.2942 -0.5951
vn 0.7540 0.2944 -0.5873
vn 0.1190 0.2942 -0.9483
vn -0.9483 0.2942 -0.1190
vn -0.5873 0.2944 -0.7540
vn -0.9494 0.2944 -0.1092
vn -0.5873 0.2944 -0.7539
vn -0.5951 0.2942 -0.7479
vn 0.7540 0.2944 -0.5872
vn 0.9483 0.2942 0.1189
vn 0.9494 0.2944 0.1091
vn 0.7480 0.2942 -0.5950
vn 0.1091 0.2944 -0.9494
vn -0.5950 0.2942 -0.7480
vn 0.1189 0.2942 -0.9483
vn -0.5950 0.2942 -0.7479
vn -0.5872 0.2944 -0.7540
vn 0.7845 -0.0513 -0.6180
vn 0.1178 -0.0512 -0.9917
vn 0.7856 -0.0513 -0.6166
vn 0.1178 -0.0513 -0.9917
vn 0.1196 -0.0513 -0.9915
vn -0.6180 -0.0512 -0.7845
vn 0.1195 -0.0512 -0.9915
vn -0.6180 -0.0513 -0.7845
vn -0.6166 -0.0512 -0.7856
vn -0.7856 -0.0512 0.6166
vn -0.1196 -0.0513 0.9915
vn -0.1178 -0.0513 0.9917
vn -0.7845 -0.0513 0.6180
vn 0.9917 -0.0513 0.1178
vn 0.6180 -0.0513 0.7845
vn 0.9915 -0.0513 0.1196
vn 0.9917 -0.0512 0.1178
vn 0.6166 -0.0513 0.7856
vn -0.7856 -0.0513 0.6166
vn -0.9915 -0.0513 -0.1195
vn -0.9917 -0.0513 -0.1178
vn 0.9915 -0.0513 0.1195
vn 0.7856 -0.0512 -0.6166
vn 0.6166 -0.0512 0.7856
vn 0.6180 -0.0512 0.7845
vn -0.1195 -0.0512 0.9915
vn -0.9915 -0.0513 -0.1196
vn -0.9917 -0.0512 -0.1178
vn -0.6166 -0.0513 -0.7856
vn -0.0000 1.0000 -0.0000
vn 0.2471 0.4042 0.8806
vn -0.4479 0.4042 0.7975
vn -0.4479 0.4043 0.7975
vn -0.7975 0.4042 -0.4480
vn -0.2472 0.4042 -0.8806
vn -0.2472 0.4043 -0.8806
vn 0.4479 0.4042 -0.7975
vn -0.2471 0.4042 -0.8806
vn 0.7975 0.4042 0.4480
vn 0.2472 0.4042 0.8806
vn 0.2472 0.4043 0.8806
vn -0.8806 0.4042 0.2471
vn -0.7975 0.4042 -0.4479
vn -0.8806 0.4042 0.2472
vn -0.7975 0.4043 -0.4479
vn 0.8807 0.4042 -0.2471
vn 0.7975 0.4042 0.4479
vn 0.8806 0.4042 -0.2471
vn 0.7975 0.4043 0.4479
vn -0.4479 0.4043 0.7974
vn -0.4480 0.4042 0.7975
vn 0.4480 0.4042 -0.7975
vn 0.8806 0.4042 -0.2472
vn 0.4480 0.4043 -0.7974
vn -0.9464 0.3228 0.0112
vn -0.4829 0.3228 -0.8140
vn 0.4829 0.3228 0.8140
vn -0.4635 0.3228 0.8252
vn 0.9464 0.3228 -0.0112
vn 0.4635 0.3228 -0.8252
vn -0.3368 0.7260 0.5996
vn -0.9502 0.3115 0.0112
vn -0.4654 0.3115 0.8285
vn -0.9502 0.3115 0.0113
vn -0.3368 0.7259 0.5997
vn -0.6877 0.7259 0.0081
vn 0.4654 0.3115 -0.8285
vn -0.3509 0.7260 -0.5915
vn 0.3369 0.7260 -0.5996
vn -0.4848 0.3115 -0.8173
vn 0.6877 0.7260 -0.0082
vn 0.4848 0.3115 0.8173
vn 0.9502 0.3115 -0.0112
vn 0.4848 0.3115 0.8172
vn 0.3509 0.7260 0.5915
vn -0.4653 0.3115 0.8285
vn -0.3369 0.7260 0.5996
vn 0.3509 0.7259 0.5915
vn -0.6877 0.7259 0.0082
vn -0.3368 0.7259 0.5996
vn -0.3509 0.7259 -0.5915
vn 0.6877 0.7259 -0.0081
vn 0.6877 0.7259 -0.0082
vn 0.3368 0.7259 -0.5996
vn 0.4654 0.3116 -0.8285
vn 0.6877 0.7260 -0.0081
vn 0.6876 0.7260 -0.0081
vn 0.3368 0.7260 -0.5996
vn -0.6877 0.7260 0.0082
vn -0.4848 0.3115 -0.8172
vn -0.3508 0.7260 -0.5915
vn 0.0112 0.3228 0.9464
vn -0.8140 0.3228 0.4829
vn 0.8252 0.3228 0.4635
vn -0.8252 0.3228 -0.4635
vn -0.0112 0.3228 -0.9464
vn 0.8140 0.3228 -0.4829
vn -0.8625 0.5060 0.0102
vn -0.4401 0.5060 -0.7418
vn -0.7773 0.4530 -0.4366
vn 0.7773 -0.4530 0.4366
vn 0.4401 -0.5060 0.7418
vn 0.8625 -0.5060 -0.0102
vn 0.7668 0.4530 -0.4549
vn 0.8625 0.5060 -0.0102
vn 0.8624 0.5060 -0.0102
vn 0.4224 0.5060 -0.7520
vn -0.8625 -0.5060 0.0102
vn -0.7668 -0.4530 0.4549
vn -0.4224 -0.5060 0.7520
vn -0.0105 0.4530 -0.8915
vn -0.0105 0.4529 -0.8915
vn 0.0105 -0.4530 0.8915
vn 0.0105 -0.4529 0.8915
vn -0.4224 0.5060 0.7520
vn -0.7668 0.4530 0.4549
vn -0.8624 0.5060 0.0102
vn 0.4224 -0.5060 -0.7520
vn 0.7668 -0.4530 -0.4549
vn 0.4401 0.5060 0.7418
vn 0.7773 0.4530 0.4366
vn -0.7773 -0.4530 -0.4366
vn -0.4401 -0.5060 -0.7418
vn 0.0105 0.4530 0.8915
vn -0.4224 0.5061 0.7520
vn -0.0105 -0.4530 -0.8915
vn 0.7418 0.5060 -0.4401
vn 0.7520 0.5060 0.4224
vn 0.8915 0.4530 -0.0105
vn -0.8915 -0.4530 0.0105
vn -0.7520 -0.5060 -0.4224
vn -0.7418 -0.5060 0.4401
vn 0.0102 0.5060 0.8625
vn -0.4366 0.4529 0.7773
vn -0.4366 0.4530 0.7773
vn -0.7418 0.5061 0.4400
vn -0.7418 0.5060 0.4401
vn -0.0102 -0.5060 -0.8625
vn 0.4366 -0.4529 -0.7773
vn 0.7418 -0.5060 -0.4401
vn 0.4366 -0.4530 -0.7773
vn -0.7520 0.5060 -0.4224
vn -0.0102 0.5060 -0.8625
vn -0.4549 0.4530 -0.7668
vn 0.4549 -0.4530 0.7668
vn 0.0102 -0.5060 0.8625
vn 0.7520 -0.5060 0.4224
vn 0.7520 -0.5061 0.4224
vn 0.4366 0.4530 -0.7773
vn 0.7418 0.5061 -0.4401
vn -0.4366 -0.4530 0.7773
vn 0.0102 -0.5060 0.8624
vn -0.8915 0.4530 0.0105
vn 0.8915 -0.4530 -0.0105
vn 0.4549 0.4530 0.7668
vn -0.4549 -0.4530 -0.7668
vn 0.8624 0.5061 -0.0102
vn 0.7668 0.4529 -0.4549
vn -0.7668 -0.4529 0.4549
vn -0.0106 0.4529 -0.8915
vn 0.0106 -0.4529 0.8915
vn 0.4401 0.5061 0.7418
vn -0.4401 -0.5061 -0.7418
vn -0.4400 0.5060 -0.7418
vn -0.7667 0.4530 0.4549
vn 0.7667 -0.4530 -0.4549
vn 0.4224 -0.5061 -0.7520
vt 0.593750 0.025000
vt 0.593750 0.104996
vt 0.593750 0.225000
vt 0.093750 0.475000
vt 0.093750 0.275000
vt 0.093750 0.425000
vt 0.093750 0.348778
vt 0.093750 0.338765
vt 0.093750 0.344099
vt 0.093750 0.375000
vt 0.093750 0.325000
s 0
usemtl colormap.050
f 3/1/1 2/1/1 1/1/1
f 2/1/1 3/1/1 4/1/1
f 4/1/1 3/1/1 5/1/1
f 4/1/1 5/1/1 6/1/1
f 6/1/1 5/1/1 7/1/1
f 6/1/1 7/1/1 8/1/1
f 9/2/2 1/1/3 2/1/4
f 1/1/3 9/2/2 10/2/5
f 11/2/6 1/1/7 10/2/8
f 1/1/7 11/2/6 3/1/9
f 12/2/10 2/1/11 4/1/12
f 2/1/11 12/2/13 9/2/14
f 13/2/15 4/1/16 6/1/17
f 4/1/18 13/2/15 12/2/19
f 7/1/20 14/2/21 8/1/22
f 14/2/21 7/1/20 15/2/23
f 11/2/24 5/1/25 3/1/26
f 5/1/27 11/2/24 16/2/28
f 8/1/29 13/2/30 6/1/31
f 13/2/30 8/1/29 14/2/32
f 7/1/33 16/2/34 15/2/35
f 16/2/36 7/1/33 5/1/37
f 14/2/38 18/3/39 17/3/40
f 18/3/41 14/2/38 15/2/42
f 16/2/43 18/3/41 15/2/44
f 18/3/41 16/2/45 19/3/46
f 21/3/47 9/2/48 20/3/49
f 9/2/48 21/3/47 10/2/50
f 22/3/51 12/2/52 13/2/53
f 12/2/52 22/3/54 23/3/55
f 21/3/56 11/2/57 10/2/50
f 11/2/57 21/3/47 24/3/58
f 13/2/59 17/3/60 22/3/51
f 17/3/40 13/2/59 14/2/38
f 20/3/49 12/2/52 23/3/61
f 12/2/62 20/3/49 9/2/63
f 24/3/58 16/2/45 11/2/64
f 16/2/45 24/3/65 19/3/66
f 27/4/67 26/4/67 25/4/67
f 26/4/67 27/4/67 28/4/67
f 26/4/67 28/4/67 29/4/67
f 29/4/67 28/4/67 30/4/67
f 29/4/67 30/4/67 31/4/67
f 31/4/67 30/4/67 32/4/67
f 35/5/1 34/5/1 33/5/1
f 34/5/1 35/5/1 36/5/1
f 34/5/1 36/5/1 37/5/1
f 37/5/1 36/5/1 38/5/1
f 37/5/1 38/5/1 39/5/1
f 39/5/1 38/5/1 40/5/1
f 27/4/68 33/5/69 34/5/68
f 33/5/69 27/4/68 25/4/70
f 29/4/71 38/5/72 36/5/71
f 38/5/72 29/4/71 31/4/73
f 40/5/74 31/4/75 32/4/74
f 31/4/75 40/5/74 38/5/75
f 28/4/76 34/5/77 37/5/76
f 34/5/77 28/4/76 27/4/78
f 26/4/79 36/5/80 35/5/79
f 36/5/80 26/4/81 29/4/82
f 30/4/83 37/5/84 39/5/85
f 37/5/84 30/4/85 28/4/86
f 26/4/81 33/5/87 25/4/88
f 33/5/88 26/4/81 35/5/81
f 40/5/89 30/4/90 39/5/90
f 30/4/90 40/5/91 32/4/89
f 43/6/92 42/7/93 41/7/92
f 42/7/93 43/6/92 44/6/93
f 47/6/94 46/7/95 45/7/94
f 46/7/95 47/6/94 48/6/95
f 50/6/96 45/7/94 49/7/96
f 45/7/94 50/6/96 47/6/94
f 48/6/95 41/7/92 46/7/95
f 41/7/92 48/6/95 43/6/92
f 52/7/97 44/6/93 51/6/97
f 44/6/93 52/7/97 42/7/93
f 52/7/97 50/6/96 49/7/96
f 50/6/96 52/7/97 51/6/97
f 41/7/1 45/7/1 46/7/1
f 45/7/1 41/7/1 42/7/1
f 45/7/1 42/7/1 49/7/1
f 49/7/1 42/7/1 52/7/1
f 55/6/98 54/8/99 53/8/100
f 54/8/101 55/6/102 56/6/103
f 59/8/104 58/6/105 57/6/106
f 58/6/105 59/8/104 60/8/107
f 63/6/108 62/8/109 61/8/110
f 62/8/111 63/6/108 64/6/112
f 64/6/112 53/8/113 62/8/109
f 53/8/100 64/6/112 55/6/114
f 64/6/115 56/6/116 55/6/117
f 56/6/103 64/6/115 58/6/118
f 58/6/118 64/6/115 63/6/119
f 58/6/118 63/6/120 57/6/121
f 59/8/122 63/6/123 61/8/110
f 63/6/124 59/8/104 57/6/125
f 54/8/1 62/8/1 53/8/1
f 62/8/1 54/8/1 60/8/1
f 62/8/1 60/8/1 61/8/1
f 61/8/1 60/8/1 59/8/1
f 56/6/126 60/8/107 54/8/99
f 60/8/127 56/6/126 58/6/128
f 67/6/129 66/9/130 65/9/129
f 66/9/130 67/6/129 68/6/130
f 70/6/131 65/9/129 69/9/131
f 65/9/129 70/6/131 67/6/129
f 68/6/130 71/9/132 66/9/130
f 71/9/132 68/6/130 72/6/132
f 72/6/132 73/9/133 71/9/132
f 73/9/133 72/6/132 74/6/133
f 71/9/1 65/9/1 66/9/1
f 65/9/1 71/9/1 69/9/1
f 69/9/1 71/9/1 73/9/1
f 69/9/1 73/9/1 75/9/1
f 76/6/134 69/9/131 75/9/134
f 69/9/131 76/6/134 70/6/131
f 73/9/133 76/6/134 75/9/134
f 76/6/134 73/9/133 74/6/133
f 79/10/135 78/10/136 77/11/137
f 78/10/136 79/10/135 41/6/135
f 78/10/136 41/6/135 42/6/136
f 77/11/138 78/10/139 79/10/140
f 41/6/140 79/10/140 78/10/139
f 42/6/139 41/6/140 78/10/139
f 81/11/141 49/6/142 80/10/142
f 49/6/143 81/11/141 52/6/144
f 52/6/144 81/11/141 82/10/144
f 80/10/145 49/6/145 81/11/146
f 52/6/147 81/11/146 49/6/145
f 82/10/147 81/11/146 52/6/147
f 82/10/144 42/6/136 52/6/144
f 42/6/136 82/10/144 83/11/148
f 42/6/136 83/11/149 78/10/136
f 52/6/147 42/6/139 82/10/147
f 83/11/150 82/10/147 42/6/139
f 78/10/139 83/11/151 42/6/139
f 46/6/152 85/11/153 84/10/152
f 85/11/153 46/6/152 41/6/154
f 85/11/153 41/6/154 79/10/135
f 84/10/155 85/11/156 46/6/155
f 41/6/140 46/6/155 85/11/156
f 79/10/140 41/6/140 85/11/156
f 80/10/142 87/10/157 86/11/158
f 87/10/157 80/10/142 49/6/142
f 87/10/157 49/6/142 45/6/157
f 86/11/159 87/10/160 80/10/145
f 49/6/145 80/10/145 87/10/160
f 45/6/160 49/6/145 87/10/160
f 45/6/157 88/11/161 87/10/157
f 88/11/161 45/6/157 46/6/152
f 88/11/161 46/6/162 84/10/152
f 87/10/160 88/11/163 45/6/160
f 46/6/155 45/6/160 88/11/163
f 84/10/155 46/6/155 88/11/163
f 91/10/164 90/10/165 89/11/166
f 90/10/165 91/10/164 75/6/164
f 90/10/165 75/6/164 69/6/165
f 89/11/167 90/10/168 91/10/169
f 75/6/169 91/10/169 90/10/168
f 69/6/168 75/6/169 90/10/168
f 65/6/170 93/11/171 92/10/170
f 93/11/172 65/6/170 66/6/173
f 93/11/172 66/6/174 94/10/174
f 92/10/175 93/11/176 65/6/175
f 66/6/177 65/6/175 93/11/178
f 94/10/177 66/6/177 93/11/176
f 97/10/179 96/10/180 95/11/181
f 96/10/180 97/10/179 71/6/179
f 96/10/180 71/6/179 73/6/180
f 95/11/182 96/10/183 97/10/184
f 71/6/184 97/10/184 96/10/183
f 73/6/183 71/6/185 96/10/183
f 98/11/186 75/6/187 91/10/164
f 75/6/164 98/11/186 73/6/180
f 73/6/180 98/11/186 96/10/180
f 91/10/169 75/6/169 98/11/188
f 73/6/183 98/11/188 75/6/169
f 96/10/183 98/11/188 73/6/189
f 94/10/174 97/10/179 99/11/190
f 97/10/179 94/10/174 66/6/174
f 97/10/179 66/6/174 71/6/179
f 99/11/191 97/10/184 94/10/177
f 66/6/177 94/10/177 97/10/184
f 71/6/184 66/6/177 97/10/184
f 90/10/165 92/10/170 100/11/192
f 92/10/170 90/10/165 69/6/165
f 92/10/170 69/6/165 65/6/170
f 100/11/193 92/10/175 90/10/168
f 69/6/168 90/10/168 92/10/175
f 65/6/175 69/6/168 92/10/175
f 102/11/141 61/6/142 101/10/142
f 61/6/194 102/11/141 59/6/144
f 59/6/144 102/11/195 103/10/144
f 101/10/145 61/6/145 102/11/146
f 59/6/147 102/11/146 61/6/145
f 103/10/147 102/11/196 59/6/147
f 103/10/144 60/6/136 59/6/144
f 60/6/136 103/10/144 104/11/148
f 60/6/136 104/11/197 105/10/136
f 59/6/147 60/6/139 103/10/147
f 104/11/151 103/10/147 60/6/139
f 105/10/139 104/11/198 60/6/139
f 62/6/199 107/11/161 106/10/157
f 107/11/161 62/6/157 53/6/152
f 107/11/161 53/6/162 108/10/152
f 106/10/200 107/11/163 62/6/200
f 53/6/155 62/6/160 107/11/163
f 108/10/155 53/6/155 107/11/163
f 110/10/135 105/10/201 109/11/137
f 105/10/136 110/10/135 54/6/135
f 105/10/136 54/6/135 60/6/136
f 109/11/138 105/10/139 110/10/140
f 54/6/140 110/10/140 105/10/139
f 60/6/139 54/6/140 105/10/139
f 101/10/142 106/10/157 111/11/158
f 106/10/157 101/10/142 61/6/142
f 106/10/157 61/6/142 62/6/157
f 111/11/159 106/10/160 101/10/145
f 61/6/145 101/10/145 106/10/160
f 62/6/160 61/6/145 106/10/160
f 53/6/162 112/11/202 108/10/152
f 112/11/153 53/6/152 54/6/135
f 112/11/153 54/6/154 110/10/135
f 108/10/155 112/11/203 53/6/204
f 54/6/140 53/6/155 112/11/156
f 110/10/140 54/6/140 112/11/156
f 3/1/1 2/1/1 1/1/1
f 2/1/1 3/1/1 4/1/1
f 4/1/1 3/1/1 5/1/1
f 4/1/1 5/1/1 6/1/1
f 6/1/1 5/1/1 7/1/1
f 6/1/1 7/1/1 8/1/1
f 9/2/2 1/1/3 2/1/4
f 1/1/3 9/2/2 10/2/5
f 11/2/6 1/1/7 10/2/8
f 1/1/7 11/2/6 3/1/9
f 12/2/10 2/1/11 4/1/12
f 2/1/11 12/2/13 9/2/14
f 13/2/15 4/1/16 6/1/17
f 4/1/18 13/2/15 12/2/19
f 7/1/20 14/2/21 8/1/22
f 14/2/21 7/1/20 15/2/23
f 11/2/24 5/1/25 3/1/26
f 5/1/27 11/2/24 16/2/28
f 8/1/29 13/2/30 6/1/31
f 13/2/30 8/1/29 14/2/32
f 7/1/33 16/2/34 15/2/35
f 16/2/36 7/1/33 5/1/37
f 14/2/38 18/3/39 17/3/40
f 18/3/41 14/2/38 15/2/42
f 16/2/43 18/3/41 15/2/44
f 18/3/41 16/2/45 19/3/46
f 21/3/47 9/2/48 20/3/49
f 9/2/48 21/3/47 10/2/50
f 22/3/51 12/2/52 13/2/53
f 12/2/52 22/3/54 23/3/55
f 21/3/56 11/2/57 10/2/50
f 11/2/57 21/3/47 24/3/58
f 13/2/59 17/3/60 22/3/51
f 17/3/40 13/2/59 14/2/38
f 20/3/49 12/2/52 23/3/61
f 12/2/62 20/3/49 9/2/63
f 24/3/58 16/2/45 11/2/64
f 16/2/45 24/3/65 19/3/66
f 27/4/67 26/4/67 25/4/67
f 26/4/67 27/4/67 28/4/67
f 26/4/67 28/4/67 29/4/67
f 29/4/67 28/4/67 30/4/67
f 29/4/67 30/4/67 31/4/67
f 31/4/67 30/4/67 32/4/67
f 35/5/1 34/5/1 33/5/1
f 34/5/1 35/5/1 36/5/1
f 34/5/1 36/5/1 37/5/1
f 37/5/1 36/5/1 38/5/1
f 37/5/1 38/5/1 39/5/1
f 39/5/1 38/5/1 40/5/1
f 27/4/68 33/5/69 34/5/68
f 33/5/69 27/4/68 25/4/70
f 29/4/71 38/5/72 36/5/71
f 38/5/72 29/4/71 31/4/73
f 40/5/74 31/4/75 32/4/74
f 31/4/75 40/5/74 38/5/75
f 28/4/76 34/5/77 37/5/76
f 34/5/77 28/4/76 27/4/78
f 26/4/79 36/5/80 35/5/79
f 36/5/80 26/4/81 29/4/82
f 30/4/83 37/5/84 39/5/85
f 37/5/84 30/4/85 28/4/86
f 26/4/81 33/5/87 25/4/88
f 33/5/88 26/4/81 35/5/81
f 40/5/89 30/4/90 39/5/90
f 30/4/90 40/5/91 32/4/89
f 43/6/92 42/7/93 41/7/92
f 42/7/93 43/6/92 44/6/93
f 47/6/94 46/7/95 45/7/94
f 46/7/95 47/6/94 48/6/95
f 50/6/96 45/7/94 49/7/96
f 45/7/94 50/6/96 47/6/94
f 48/6/95 41/7/92 46/7/95
f 41/7/92 48/6/95 43/6/92
f 52/7/97 44/6/93 51/6/97
f 44/6/93 52/7/97 42/7/93
f 52/7/97 50/6/96 49/7/96
f 50/6/96 52/7/97 51/6/97
f 41/7/1 45/7/1 46/7/1
f 45/7/1 41/7/1 42/7/1
f 45/7/1 42/7/1 49/7/1
f 49/7/1 42/7/1 52/7/1
f 55/6/98 54/8/99 53/8/100
f 54/8/101 55/6/102 56/6/103
f 59/8/104 58/6/105 57/6/106
f 58/6/105 59/8/104 60/8/107
f 63/6/108 62/8/109 61/8/110
f 62/8/111 63/6/108 64/6/112
f 64/6/112 53/8/113 62/8/109
f 53/8/100 64/6/112 55/6/114
f 64/6/115 56/6/116 55/6/117
f 56/6/103 64/6/115 58/6/118
f 58/6/118 64/6/115 63/6/119
f 58/6/118 63/6/120 57/6/121
f 59/8/122 63/6/123 61/8/110
f 63/6/124 59/8/104 57/6/125
f 54/8/1 62/8/1 53/8/1
f 62/8/1 54/8/1 60/8/1
f 62/8/1 60/8/1 61/8/1
f 61/8/1 60/8/1 59/8/1
f 56/6/126 60/8/107 54/8/99
f 60/8/127 56/6/126 58/6/128
f 67/6/129 66/9/130 65/9/129
f 66/9/130 67/6/129 68/6/130
f 70/6/131 65/9/129 69/9/131
f 65/9/129 70/6/131 67/6/129
f 68/6/130 71/9/132 66/9/130
f 71/9/132 68/6/130 72/6/132
f 72/6/132 73/9/133 71/9/132
f 73/9/133 72/6/132 74/6/133
f 71/9/1 65/9/1 66/9/1
f 65/9/1 71/9/1 69/9/1
f 69/9/1 71/9/1 73/9/1
f 69/9/1 73/9/1 75/9/1
f 76/6/134 69/9/131 75/9/134
f 69/9/131 76/6/134 70/6/131
f 73/9/133 76/6/134 75/9/134
f 76/6/134 73/9/133 74/6/133
f 79/10/135 78/10/136 77/11/137
f 78/10/136 79/10/135 41/6/135
f 78/10/136 41/6/135 42/6/136
f 77/11/138 78/10/139 79/10/140
f 41/6/140 79/10/140 78/10/139
f 42/6/139 41/6/140 78/10/139
f 81/11/141 49/6/142 80/10/142
f 49/6/143 81/11/141 52/6/144
f 52/6/144 81/11/141 82/10/144
f 80/10/145 49/6/145 81/11/146
f 52/6/147 81/11/146 49/6/145
f 82/10/147 81/11/146 52/6/147
f 82/10/144 42/6/136 52/6/144
f 42/6/136 82/10/144 83/11/148
f 42/6/136 83/11/149 78/10/136
f 52/6/147 42/6/139 82/10/147
f 83/11/150 82/10/147 42/6/139
f 78/10/139 83/11/151 42/6/139
f 46/6/152 85/11/153 84/10/152
f 85/11/153 46/6/152 41/6/154
f 85/11/153 41/6/154 79/10/135
f 84/10/155 85/11/156 46/6/155
f 41/6/140 46/6/155 85/11/156
f 79/10/140 41/6/140 85/11/156
f 80/10/142 87/10/157 86/11/158
f 87/10/157 80/10/142 49/6/142
f 87/10/157 49/6/142 45/6/157
f 86/11/159 87/10/160 80/10/145
f 49/6/145 80/10/145 87/10/160
f 45/6/160 49/6/145 87/10/160
f 45/6/157 88/11/161 87/10/157
f 88/11/161 45/6/157 46/6/152
f 88/11/161 46/6/162 84/10/152
f 87/10/160 88/11/163 45/6/160
f 46/6/155 45/6/160 88/11/163
f 84/10/155 46/6/155 88/11/163
f 91/10/164 90/10/165 89/11/166
f 90/10/165 91/10/164 75/6/164
f 90/10/165 75/6/164 69/6/165
f 89/11/167 90/10/168 91/10/169
f 75/6/169 91/10/169 90/10/168
f 69/6/168 75/6/169 90/10/168
f 65/6/170 93/11/171 92/10/170
f 93/11/172 65/6/170 66/6/173
f 93/11/172 66/6/174 94/10/174
f 92/10/175 93/11/176 65/6/175
f 66/6/177 65/6/175 93/11/178
f 94/10/177 66/6/177 93/11/176
f 97/10/179 96/10/180 95/11/181
f 96/10/180 97/10/179 71/6/179
f 96/10/180 71/6/179 73/6/180
f 95/11/182 96/10/183 97/10/184
f 71/6/184 97/10/184 96/10/183
f 73/6/183 71/6/185 96/10/183
f 98/11/186 75/6/187 91/10/164
f 75/6/164 98/11/186 73/6/180
f 73/6/180 98/11/186 96/10/180
f 91/10/169 75/6/169 98/11/188
f 73/6/183 98/11/188 75/6/169
f 96/10/183 98/11/188 73/6/189
f 94/10/174 97/10/179 99/11/190
f 97/10/179 94/10/174 66/6/174
f 97/10/179 66/6/174 71/6/179
f 99/11/191 97/10/184 94/10/177
f 66/6/177 94/10/177 97/10/184
f 71/6/184 66/6/177 97/10/184
f 90/10/165 92/10/170 100/11/192
f 92/10/170 90/10/165 69/6/165
f 92/10/170 69/6/165 65/6/170
f 100/11/193 92/10/175 90/10/168
f 69/6/168 90/10/168 92/10/175
f 65/6/175 69/6/168 92/10/175
f 102/11/141 61/6/142 101/10/142
f 61/6/194 102/11/141 59/6/144
f 59/6/144 102/11/195 103/10/144
f 101/10/145 61/6/145 102/11/146
f 59/6/147 102/11/146 61/6/145
f 103/10/147 102/11/196 59/6/147
f 103/10/144 60/6/136 59/6/144
f 60/6/136 103/10/144 104/11/148
f 60/6/136 104/11/197 105/10/136
f 59/6/147 60/6/139 103/10/147
f 104/11/151 103/10/147 60/6/139
f 105/10/139 104/11/198 60/6/139
f 62/6/199 107/11/161 106/10/157
f 107/11/161 62/6/157 53/6/152
f 107/11/161 53/6/162 108/10/152
f 106/10/200 107/11/163 62/6/200
f 53/6/155 62/6/160 107/11/163
f 108/10/155 53/6/155 107/11/163
f 110/10/135 105/10/201 109/11/137
f 105/10/136 110/10/135 54/6/135
f 105/10/136 54/6/135 60/6/136
f 109/11/138 105/10/139 110/10/140
f 54/6/140 110/10/140 105/10/139
f 60/6/139 54/6/140 105/10/139
f 101/10/142 106/10/157 111/11/158
f 106/10/157 101/10/142 61/6/142
f 106/10/157 61/6/142 62/6/157
f 111/11/159 106/10/160 101/10/145
f 61/6/145 101/10/145 106/10/160
f 62/6/160 61/6/145 106/10/160
f 53/6/162 112/11/202 108/10/152
f 112/11/153 53/6/152 54/6/135
f 112/11/153 54/6/154 110/10/135
f 108/10/155 112/11/203 53/6/204
f 54/6/140 53/6/155 112/11/156
f 110/10/140 54/6/140 112/11/156
