# Blender 4.1.1
# www.blender.org
mtllib tree.023.mtl
o tree.023
v 4.259308 -0.217703 -16.133400
v 4.405452 -0.217703 -16.241129
v 4.132372 -0.217703 -16.152607
v 4.424659 -0.217703 -16.368063
v 4.024644 -0.217703 -16.298752
v 4.316931 -0.217703 -16.514208
v 4.043852 -0.217703 -16.425686
v 4.189995 -0.217703 -16.533415
v 4.315052 0.111018 -16.287268
v 4.241980 0.111018 -16.233404
v 4.178512 0.111018 -16.243008
v 4.324656 0.111018 -16.350737
v 4.270792 0.111018 -16.423807
v 4.207324 0.111018 -16.433411
v 4.134252 0.111018 -16.379547
v 4.124648 0.111018 -16.316078
v 4.202991 0.604137 -16.458412
v 4.111652 0.604137 -16.391083
v 4.099647 0.604137 -16.311747
v 4.337652 0.604137 -16.275732
v 4.246312 0.604137 -16.208403
v 4.282326 0.604137 -16.446407
v 4.349656 0.604137 -16.355066
v 4.166977 0.604137 -16.220407
v 4.349401 0.228384 -16.238956
v 4.280251 0.228384 -16.221849
v 4.386201 0.228384 -16.299950
v 4.369094 0.228384 -16.369099
v 4.219257 0.228384 -16.258650
v 4.308101 0.228384 -16.405901
v 4.202151 0.228384 -16.327799
v 4.238951 0.228384 -16.388792
v 4.380682 0.109101 -16.196522
v 4.438326 0.109101 -16.292063
v 4.272363 0.109101 -16.169724
v 4.176823 0.109101 -16.227367
v 4.411529 0.109101 -16.400381
v 4.150026 0.109101 -16.335686
v 4.315988 0.109101 -16.458025
v 4.207670 0.109101 -16.431227
v 4.038382 0.604137 -15.926181
v 3.770100 0.604137 -16.290129
v 4.112610 1.147643 -16.096046
v 3.954323 1.147643 -16.310778
v 4.668758 0.604137 -16.390856
v 4.487710 0.604137 -15.976544
v 4.484535 1.147643 -16.370207
v 4.377716 1.147643 -16.125761
v 4.400477 0.604137 -16.754805
v 4.326248 1.147643 -16.584938
v 4.061142 1.147643 -16.555223
v 3.951148 0.604137 -16.704439
v 4.374120 1.731559 -16.130640
v 4.115036 1.731559 -16.101599
v 4.254984 2.344026 -16.292257
v 4.195435 2.344026 -16.285583
v 4.183874 2.344026 -16.388725
v 4.159879 2.344026 -16.333818
v 4.064738 1.731559 -16.550346
v 3.960345 1.731559 -16.311453
v 4.323822 1.731559 -16.579386
v 4.478513 1.731559 -16.369532
v 4.243423 2.344026 -16.395401
v 4.278979 2.344026 -16.347168
v 4.556268 1.147643 -16.193300
v 4.260375 1.147643 -15.975185
v 4.373773 1.731559 -16.273046
v 4.238191 1.731559 -16.173103
v 4.515322 1.147643 -16.558607
v 4.355011 1.731559 -16.440435
v 3.923536 1.147643 -16.122377
v 4.083848 1.731559 -16.240549
v 3.882590 1.147643 -16.487686
v 4.065086 1.731559 -16.407938
v 4.178483 1.147643 -16.705801
v 4.200667 1.731559 -16.507879
v 3.834899 0.434583 -16.057039
v 3.720674 0.519360 -16.284588
v 4.018466 0.519360 -15.880606
v 4.420392 0.519360 -16.800379
v 4.166217 0.434583 -16.815231
v 3.921637 0.519360 -16.744474
v 3.781687 0.434583 -16.531778
v 4.517221 0.519360 -15.936510
v 4.272642 0.434583 -15.865754
v 4.603959 0.434583 -16.623945
v 4.718184 0.519360 -16.396397
v 4.657171 0.434583 -16.149206
v 4.374946 1.009795 -16.696381
v 4.547870 1.078719 -16.582600
v 4.173978 1.078719 -16.745985
v 4.593321 1.078719 -16.177107
v 4.449878 1.009795 -16.027866
v 4.264880 1.078719 -15.935000
v 3.833462 1.009795 -16.297230
v 3.845538 1.078719 -16.503876
v 3.890988 1.078719 -16.098385
v 3.988980 1.009795 -16.653118
v 4.063912 1.009795 -15.984604
v 4.605395 1.009795 -16.383755
v 4.335305 1.682676 -16.605663
v 4.188747 1.633794 -16.614227
v 4.047722 1.682676 -16.573429
v 3.967026 1.633794 -16.450788
v 3.931846 1.682676 -16.308258
v 4.507012 1.682676 -16.372726
v 4.471831 1.633794 -16.230196
v 4.391136 1.682676 -16.107555
v 3.997709 1.633794 -16.177053
v 4.103553 1.682676 -16.075321
v 4.441149 1.633794 -16.503931
v 4.250111 1.633794 -16.066757
vn -0.0000 -1.0000 -0.0000
vn 0.8155 0.2942 0.4984
vn 0.2253 0.2944 0.9288
vn 0.8205 0.2944 0.4899
vn 0.2349 0.2942 0.9264
vn -0.4983 0.2942 0.8155
vn 0.2252 0.2944 0.9288
vn 0.2348 0.2942 0.9265
vn -0.4983 0.2943 0.8155
vn -0.4899 0.2944 0.8206
vn 0.9265 0.2942 -0.2348
vn 0.9288 0.2944 -0.2252
vn 0.4984 0.2942 -0.8155
vn 0.9288 0.2944 -0.2253
vn 0.4900 0.2944 -0.8205
vn 0.9287 0.2944 -0.2253
vn 0.9264 0.2942 -0.2349
vn -0.8205 0.2944 -0.4900
vn -0.2349 0.2942 -0.9264
vn -0.2253 0.2944 -0.9288
vn -0.8155 0.2942 -0.4984
vn -0.4984 0.2942 0.8155
vn -0.9288 0.2944 0.2253
vn -0.4900 0.2944 0.8205
vn -0.9287 0.2944 0.2253
vn -0.9264 0.2942 0.2349
vn -0.2252 0.2944 -0.9288
vn 0.4983 0.2943 -0.8155
vn 0.4899 0.2944 -0.8206
vn 0.4983 0.2942 -0.8155
vn -0.2348 0.2942 -0.9265
vn -0.8205 0.2944 -0.4899
vn -0.9265 0.2942 0.2347
vn -0.9265 0.2942 0.2348
vn -0.8206 0.2944 -0.4899
vn -0.9288 0.2944 0.2252
vn -0.2407 -0.0513 -0.9692
vn -0.8555 -0.0512 -0.5152
vn -0.2390 -0.0513 -0.9697
vn -0.8555 -0.0513 -0.5152
vn -0.8546 -0.0513 -0.5167
vn -0.9692 -0.0512 0.2407
vn -0.8556 -0.0513 -0.5152
vn -0.8546 -0.0512 -0.5167
vn -0.9692 -0.0513 0.2407
vn -0.9697 -0.0512 0.2390
vn 0.2390 -0.0512 0.9697
vn 0.8546 -0.0513 0.5167
vn 0.8555 -0.0513 0.5152
vn 0.2408 -0.0513 0.9692
vn 0.5152 -0.0513 -0.8555
vn 0.9692 -0.0513 -0.2408
vn 0.5167 -0.0513 -0.8546
vn 0.9692 -0.0513 -0.2407
vn 0.5152 -0.0512 -0.8555
vn 0.9697 -0.0513 -0.2390
vn 0.2390 -0.0513 0.9697
vn -0.5167 -0.0513 0.8546
vn 0.2407 -0.0512 0.9692
vn -0.5152 -0.0513 0.8556
vn -0.2390 -0.0512 -0.9697
vn 0.5152 -0.0513 -0.8556
vn 0.8556 -0.0513 0.5152
vn 0.9697 -0.0512 -0.2390
vn 0.9692 -0.0512 -0.2407
vn 0.8546 -0.0512 0.5167
vn -0.5152 -0.0513 0.8555
vn -0.9692 -0.0513 0.2408
vn -0.5152 -0.0512 0.8555
vn -0.9697 -0.0513 0.2390
vn -0.0000 1.0000 -0.0000
vn 0.9044 0.4042 0.1369
vn 0.5427 0.4042 0.7362
vn -0.7363 0.4042 0.5427
vn -0.9044 0.4042 -0.1368
vn -0.7363 0.4043 0.5427
vn -0.5427 0.4042 -0.7362
vn -0.9044 0.4042 -0.1369
vn -0.5427 0.4043 -0.7362
vn 0.7363 0.4042 -0.5427
vn 0.9044 0.4042 0.1368
vn 0.9043 0.4043 0.1368
vn -0.1369 0.4042 0.9044
vn -0.7362 0.4042 0.5427
vn 0.1369 0.4042 -0.9044
vn 0.7362 0.4042 -0.5427
vn 0.7362 0.4043 -0.5427
vn -0.1368 0.4042 0.9044
vn 0.5427 0.4043 0.7363
vn 0.5427 0.4042 0.7363
vn -0.1368 0.4043 0.9044
vn -0.5427 0.4042 -0.7363
vn 0.1368 0.4042 -0.9044
vn -0.3790 0.3228 0.8673
vn -0.9406 0.3228 0.1054
vn 0.9406 0.3228 -0.1054
vn 0.5616 0.3228 0.7619
vn 0.5616 0.3228 0.7618
vn 0.3790 0.3228 -0.8673
vn -0.5616 0.3228 -0.7619
vn -0.5616 0.3228 -0.7618
vn 0.4081 0.7260 0.5536
vn -0.3805 0.3115 0.8708
vn 0.5638 0.3115 0.7649
vn -0.3805 0.3115 0.8707
vn -0.2754 0.7260 0.6302
vn -0.5638 0.3115 -0.7649
vn -0.6834 0.7260 0.0767
vn -0.4080 0.7260 -0.5536
vn -0.6834 0.7260 0.0766
vn -0.9443 0.3115 0.1058
vn 0.2753 0.7260 -0.6302
vn 0.9443 0.3115 -0.1059
vn 0.3805 0.3115 -0.8707
vn 0.6835 0.7260 -0.0766
vn 0.6834 0.7260 -0.0766
vn 0.9443 0.3115 -0.1058
vn 0.6835 0.7260 -0.0767
vn 0.4080 0.7260 0.5536
vn -0.2754 0.7259 0.6302
vn 0.6835 0.7259 -0.0766
vn -0.6835 0.7259 0.0766
vn 0.2754 0.7259 -0.6302
vn -0.4081 0.7259 -0.5536
vn -0.5638 0.3116 -0.7649
vn 0.2754 0.7260 -0.6302
vn 0.3805 0.3115 -0.8708
vn -0.4081 0.7260 -0.5535
vn -0.2753 0.7260 0.6302
vn -0.9443 0.3115 0.1059
vn 0.8673 0.3228 0.3790
vn 0.1054 0.3228 0.9406
vn 0.7618 0.3228 -0.5616
vn 0.7619 0.3228 -0.5616
vn -0.7618 0.3228 0.5616
vn -0.7619 0.3228 0.5616
vn -0.8673 0.3228 -0.3790
vn -0.1054 0.3228 -0.9406
vn -0.3454 0.5060 0.7904
vn -0.8572 0.5060 0.0961
vn -0.7176 0.4529 0.5290
vn -0.8571 0.5060 0.0961
vn -0.3454 0.5060 0.7903
vn 0.7176 -0.4529 -0.5290
vn 0.8572 -0.5060 -0.0961
vn 0.3454 -0.5060 -0.7904
vn 0.3454 -0.5060 -0.7903
vn -0.0993 0.4529 -0.8860
vn 0.3454 0.5060 -0.7904
vn 0.3454 0.5060 -0.7903
vn -0.0993 0.4530 -0.8860
vn -0.5118 0.5060 -0.6943
vn -0.5118 0.5061 -0.6942
vn -0.3454 -0.5060 0.7904
vn 0.0993 -0.4529 0.8860
vn 0.5118 -0.5060 0.6943
vn 0.0993 -0.4530 0.8860
vn 0.5118 -0.5061 0.6943
vn -0.8169 0.4530 -0.3570
vn 0.8571 -0.5060 -0.0961
vn 0.8169 -0.4530 0.3570
vn 0.5118 0.5060 0.6943
vn 0.0993 0.4530 0.8860
vn -0.3454 0.5061 0.7903
vn -0.5118 -0.5060 -0.6943
vn -0.0993 -0.4530 -0.8860
vn 0.8572 0.5060 -0.0961
vn 0.7176 0.4529 -0.5290
vn -0.7176 -0.4529 0.5290
vn -0.8572 -0.5060 0.0961
vn -0.3454 -0.5060 0.7903
vn 0.8571 0.5060 -0.0961
vn 0.8169 0.4530 0.3570
vn -0.8169 -0.4530 -0.3570
vn -0.8571 -0.5060 0.0961
vn -0.0961 0.5061 -0.8571
vn 0.6943 0.5061 -0.5118
vn 0.3570 0.4530 -0.8169
vn 0.6943 0.5060 -0.5118
vn -0.0961 0.5060 -0.8572
vn -0.3570 -0.4530 0.8169
vn -0.6943 -0.5060 0.5118
vn 0.0961 -0.5061 0.8571
vn 0.0961 -0.5060 0.8572
vn 0.7903 0.5060 0.3454
vn 0.5290 0.4530 0.7176
vn 0.7904 0.5060 0.3454
vn 0.0961 0.5060 0.8571
vn 0.0961 0.5060 0.8572
vn -0.7903 -0.5060 -0.3454
vn -0.5290 -0.4530 -0.7176
vn -0.7903 -0.5061 -0.3454
vn -0.0961 -0.5060 -0.8572
vn -0.7904 -0.5060 -0.3454
vn -0.6943 0.5060 0.5118
vn -0.7903 0.5060 -0.3454
vn -0.8860 0.4530 0.0993
vn -0.7904 0.5060 -0.3454
vn 0.8860 -0.4530 -0.0993
vn 0.7904 -0.5060 0.3454
vn 0.6943 -0.5060 -0.5118
vn -0.5290 0.4530 -0.7176
vn -0.0961 0.5060 -0.8571
vn -0.5290 0.4529 -0.7176
vn 0.0961 -0.5060 0.8571
vn 0.5290 -0.4530 0.7176
vn 0.5290 -0.4529 0.7176
vn -0.3570 0.4530 0.8169
vn 0.3570 -0.4530 -0.8169
vn -0.0961 -0.5060 -0.8571
vn 0.8860 0.4530 -0.0993
vn -0.8860 -0.4530 0.0993
vn 0.8170 0.4529 0.3570
vn -0.8170 -0.4529 -0.3570
vn -0.7176 0.4530 0.5290
vn 0.7176 -0.4530 -0.5290
vn 0.7176 0.4530 -0.5290
vn -0.7176 -0.4530 0.5290
vn 0.0993 0.4529 0.8860
vn 0.3454 -0.5061 -0.7903
vt 0.593750 0.025000
vt 0.593750 0.104996
vt 0.593750 0.225000
vt 0.093750 0.475000
vt 0.093750 0.275000
vt 0.093750 0.425000
vt 0.093750 0.348778
vt 0.093750 0.338765
vt 0.093750 0.344099
vt 0.093750 0.375000
vt 0.093750 0.325000
s 0
usemtl colormap.002
f 3/1/1 2/1/1 1/1/1
f 2/1/1 3/1/1 4/1/1
f 4/1/1 3/1/1 5/1/1
f 4/1/1 5/1/1 6/1/1
f 6/1/1 5/1/1 7/1/1
f 6/1/1 7/1/1 8/1/1
f 9/2/2 1/1/3 2/1/4
f 1/1/3 9/2/2 10/2/5
f 11/2/6 1/1/7 10/2/8
f 1/1/7 11/2/9 3/1/10
f 12/2/11 2/1/4 4/1/12
f 2/1/4 12/2/11 9/2/2
f 13/2/13 4/1/14 6/1/15
f 4/1/16 13/2/13 12/2/17
f 7/1/18 14/2/19 8/1/20
f 14/2/19 7/1/18 15/2/21
f 11/2/22 5/1/23 3/1/24
f 5/1/25 11/2/22 16/2/26
f 8/1/27 13/2/28 6/1/29
f 13/2/30 8/1/27 14/2/31
f 7/1/32 16/2/33 15/2/21
f 16/2/34 7/1/35 5/1/36
f 14/2/37 18/3/38 17/3/39
f 18/3/40 14/2/37 15/2/41
f 16/2/42 18/3/43 15/2/44
f 18/3/43 16/2/45 19/3/46
f 21/3/47 9/2/48 20/3/49
f 9/2/48 21/3/47 10/2/50
f 22/3/51 12/2/52 13/2/53
f 12/2/54 22/3/55 23/3/56
f 21/3/57 11/2/58 10/2/59
f 11/2/58 21/3/47 24/3/60
f 13/2/53 17/3/61 22/3/62
f 17/3/39 13/2/53 14/2/37
f 20/3/63 12/2/54 23/3/64
f 12/2/65 20/3/63 9/2/66
f 24/3/67 16/2/68 11/2/58
f 16/2/68 24/3/69 19/3/70
f 27/4/71 26/4/71 25/4/71
f 26/4/71 27/4/71 28/4/71
f 26/4/71 28/4/71 29/4/71
f 29/4/71 28/4/71 30/4/71
f 29/4/71 30/4/71 31/4/71
f 31/4/71 30/4/71 32/4/71
f 35/5/1 34/5/1 33/5/1
f 34/5/1 35/5/1 36/5/1
f 34/5/1 36/5/1 37/5/1
f 37/5/1 36/5/1 38/5/1
f 37/5/1 38/5/1 39/5/1
f 39/5/1 38/5/1 40/5/1
f 27/4/72 33/5/73 34/5/72
f 33/5/73 27/4/72 25/4/73
f 29/4/74 38/5/75 36/5/76
f 38/5/75 29/4/74 31/4/75
f 40/5/77 31/4/78 32/4/79
f 31/4/78 40/5/77 38/5/78
f 28/4/80 34/5/81 37/5/80
f 34/5/81 28/4/80 27/4/82
f 26/4/83 36/5/84 35/5/83
f 36/5/74 26/4/83 29/4/84
f 30/4/85 37/5/86 39/5/85
f 37/5/86 30/4/85 28/4/87
f 26/4/88 33/5/89 25/4/90
f 33/5/90 26/4/91 35/5/88
f 40/5/92 30/4/93 39/5/93
f 30/4/93 40/5/79 32/4/92
f 43/6/94 42/7/95 41/7/94
f 42/7/95 43/6/94 44/6/95
f 47/6/96 46/7/97 45/7/96
f 46/7/98 47/6/96 48/6/98
f 50/6/99 45/7/96 49/7/99
f 45/7/96 50/6/99 47/6/96
f 48/6/97 41/7/94 46/7/97
f 41/7/94 48/6/97 43/6/94
f 52/7/100 44/6/95 51/6/101
f 44/6/95 52/7/101 42/7/95
f 52/7/100 50/6/99 49/7/99
f 50/6/99 52/7/101 51/6/100
f 41/7/1 45/7/1 46/7/1
f 45/7/1 41/7/1 42/7/1
f 45/7/1 42/7/1 49/7/1
f 49/7/1 42/7/1 52/7/1
f 55/6/102 54/8/103 53/8/104
f 54/8/105 55/6/102 56/6/106
f 59/8/107 58/6/108 57/6/109
f 58/6/110 59/8/107 60/8/111
f 63/6/112 62/8/113 61/8/114
f 62/8/113 63/6/112 64/6/115
f 64/6/116 53/8/104 62/8/117
f 53/8/104 64/6/118 55/6/119
f 64/6/115 56/6/120 55/6/119
f 56/6/120 64/6/121 58/6/122
f 58/6/122 64/6/121 63/6/123
f 58/6/122 63/6/123 57/6/124
f 59/8/125 63/6/126 61/8/127
f 63/6/112 59/8/107 57/6/128
f 54/8/1 62/8/1 53/8/1
f 62/8/1 54/8/1 60/8/1
f 62/8/1 60/8/1 61/8/1
f 61/8/1 60/8/1 59/8/1
f 56/6/129 60/8/130 54/8/105
f 60/8/130 56/6/120 58/6/122
f 67/6/131 66/9/132 65/9/131
f 66/9/132 67/6/131 68/6/132
f 70/6/133 65/9/131 69/9/134
f 65/9/131 70/6/134 67/6/131
f 68/6/132 71/9/135 66/9/132
f 71/9/135 68/6/132 72/6/135
f 72/6/136 73/9/137 71/9/136
f 73/9/137 72/6/136 74/6/137
f 71/9/1 65/9/1 66/9/1
f 65/9/1 71/9/1 69/9/1
f 69/9/1 71/9/1 73/9/1
f 69/9/1 73/9/1 75/9/1
f 76/6/138 69/9/133 75/9/138
f 69/9/133 76/6/138 70/6/133
f 73/9/137 76/6/138 75/9/138
f 76/6/138 73/9/137 74/6/137
f 79/10/139 78/10/140 77/11/141
f 78/10/142 79/10/143 41/6/139
f 78/10/140 41/6/139 42/6/140
f 77/11/144 78/10/145 79/10/146
f 41/6/147 79/10/147 78/10/145
f 42/6/145 41/6/147 78/10/145
f 81/11/148 49/6/149 80/10/149
f 49/6/150 81/11/151 52/6/152
f 52/6/153 81/11/151 82/10/152
f 80/10/154 49/6/154 81/11/155
f 52/6/156 81/11/157 49/6/154
f 82/10/156 81/11/157 52/6/158
f 82/10/152 42/6/140 52/6/152
f 42/6/140 82/10/152 83/11/159
f 42/6/140 83/11/159 78/10/140
f 52/6/156 42/6/160 82/10/156
f 83/11/161 82/10/156 42/6/145
f 78/10/145 83/11/161 42/6/160
f 46/6/162 85/11/163 84/10/162
f 85/11/163 46/6/162 41/6/143
f 85/11/163 41/6/164 79/10/139
f 84/10/165 85/11/166 46/6/165
f 41/6/146 46/6/165 85/11/166
f 79/10/146 41/6/146 85/11/166
f 80/10/149 87/10/167 86/11/168
f 87/10/167 80/10/149 49/6/149
f 87/10/167 49/6/149 45/6/167
f 86/11/169 87/10/170 80/10/154
f 49/6/154 80/10/154 87/10/170
f 45/6/170 49/6/171 87/10/170
f 45/6/172 88/11/173 87/10/167
f 88/11/173 45/6/167 46/6/162
f 88/11/173 46/6/162 84/10/162
f 87/10/170 88/11/174 45/6/175
f 46/6/165 45/6/170 88/11/174
f 84/10/165 46/6/165 88/11/174
f 91/10/176 90/10/177 89/11/178
f 90/10/179 91/10/180 75/6/180
f 90/10/179 75/6/180 69/6/179
f 89/11/181 90/10/182 91/10/183
f 75/6/184 91/10/184 90/10/182
f 69/6/182 75/6/184 90/10/182
f 65/6/185 93/11/186 92/10/187
f 93/11/186 65/6/187 66/6/188
f 93/11/186 66/6/188 94/10/189
f 92/10/190 93/11/191 65/6/192
f 66/6/193 65/6/194 93/11/191
f 94/10/193 66/6/193 93/11/191
f 97/10/195 96/10/196 95/11/197
f 96/10/198 97/10/195 71/6/195
f 96/10/198 71/6/195 73/6/198
f 95/11/199 96/10/200 97/10/201
f 71/6/201 97/10/201 96/10/200
f 73/6/200 71/6/201 96/10/200
f 98/11/202 75/6/203 91/10/180
f 75/6/203 98/11/204 73/6/198
f 73/6/198 98/11/204 96/10/198
f 91/10/184 75/6/205 98/11/206
f 73/6/200 98/11/207 75/6/184
f 96/10/200 98/11/206 73/6/200
f 94/10/189 97/10/195 99/11/208
f 97/10/195 94/10/189 66/6/189
f 97/10/195 66/6/189 71/6/195
f 99/11/209 97/10/201 94/10/210
f 66/6/210 94/10/193 97/10/201
f 71/6/201 66/6/210 97/10/201
f 90/10/179 92/10/185 100/11/211
f 92/10/187 90/10/179 69/6/179
f 92/10/187 69/6/179 65/6/187
f 100/11/212 92/10/194 90/10/182
f 69/6/182 90/10/182 92/10/194
f 65/6/194 69/6/182 92/10/194
f 102/11/148 61/6/149 101/10/149
f 61/6/150 102/11/151 59/6/152
f 59/6/152 102/11/151 103/10/152
f 101/10/154 61/6/154 102/11/157
f 59/6/156 102/11/157 61/6/154
f 103/10/156 102/11/157 59/6/156
f 103/10/152 60/6/140 59/6/152
f 60/6/140 103/10/152 104/11/159
f 60/6/142 104/11/159 105/10/140
f 59/6/156 60/6/145 103/10/156
f 104/11/161 103/10/156 60/6/145
f 105/10/145 104/11/161 60/6/160
f 62/6/172 107/11/173 106/10/167
f 107/11/173 62/6/167 53/6/162
f 107/11/213 53/6/162 108/10/162
f 106/10/170 107/11/174 62/6/175
f 53/6/165 62/6/170 107/11/174
f 108/10/165 53/6/165 107/11/214
f 110/10/139 105/10/142 109/11/215
f 105/10/140 110/10/139 54/6/139
f 105/10/140 54/6/139 60/6/140
f 109/11/216 105/10/145 110/10/146
f 54/6/146 110/10/146 105/10/145
f 60/6/145 54/6/146 105/10/145
f 101/10/149 106/10/172 111/11/217
f 106/10/167 101/10/149 61/6/149
f 106/10/167 61/6/149 62/6/167
f 111/11/218 106/10/170 101/10/154
f 61/6/154 101/10/154 106/10/170
f 62/6/170 61/6/171 106/10/170
f 53/6/162 112/11/163 108/10/162
f 112/11/219 53/6/162 54/6/139
f 112/11/163 54/6/164 110/10/143
f 108/10/165 112/11/166 53/6/165
f 54/6/146 53/6/165 112/11/166
f 110/10/147 54/6/220 112/11/166
f 3/1/1 2/1/1 1/1/1
f 2/1/1 3/1/1 4/1/1
f 4/1/1 3/1/1 5/1/1
f 4/1/1 5/1/1 6/1/1
f 6/1/1 5/1/1 7/1/1
f 6/1/1 7/1/1 8/1/1
f 9/2/2 1/1/3 2/1/4
f 1/1/3 9/2/2 10/2/5
f 11/2/6 1/1/7 10/2/8
f 1/1/7 11/2/9 3/1/10
f 12/2/11 2/1/4 4/1/12
f 2/1/4 12/2/11 9/2/2
f 13/2/13 4/1/14 6/1/15
f 4/1/16 13/2/13 12/2/17
f 7/1/18 14/2/19 8/1/20
f 14/2/19 7/1/18 15/2/21
f 11/2/22 5/1/23 3/1/24
f 5/1/25 11/2/22 16/2/26
f 8/1/27 13/2/28 6/1/29
f 13/2/30 8/1/27 14/2/31
f 7/1/32 16/2/33 15/2/21
f 16/2/34 7/1/35 5/1/36
f 14/2/37 18/3/38 17/3/39
f 18/3/40 14/2/37 15/2/41
f 16/2/42 18/3/43 15/2/44
f 18/3/43 16/2/45 19/3/46
f 21/3/47 9/2/48 20/3/49
f 9/2/48 21/3/47 10/2/50
f 22/3/51 12/2/52 13/2/53
f 12/2/54 22/3/55 23/3/56
f 21/3/57 11/2/58 10/2/59
f 11/2/58 21/3/47 24/3/60
f 13/2/53 17/3/61 22/3/62
f 17/3/39 13/2/53 14/2/37
f 20/3/63 12/2/54 23/3/64
f 12/2/65 20/3/63 9/2/66
f 24/3/67 16/2/68 11/2/58
f 16/2/68 24/3/69 19/3/70
f 27/4/71 26/4/71 25/4/71
f 26/4/71 27/4/71 28/4/71
f 26/4/71 28/4/71 29/4/71
f 29/4/71 28/4/71 30/4/71
f 29/4/71 30/4/71 31/4/71
f 31/4/71 30/4/71 32/4/71
f 35/5/1 34/5/1 33/5/1
f 34/5/1 35/5/1 36/5/1
f 34/5/1 36/5/1 37/5/1
f 37/5/1 36/5/1 38/5/1
f 37/5/1 38/5/1 39/5/1
f 39/5/1 38/5/1 40/5/1
f 27/4/72 33/5/73 34/5/72
f 33/5/73 27/4/72 25/4/73
f 29/4/74 38/5/75 36/5/76
f 38/5/75 29/4/74 31/4/75
f 40/5/77 31/4/78 32/4/79
f 31/4/78 40/5/77 38/5/78
f 28/4/80 34/5/81 37/5/80
f 34/5/81 28/4/80 27/4/82
f 26/4/83 36/5/84 35/5/83
f 36/5/74 26/4/83 29/4/84
f 30/4/85 37/5/86 39/5/85
f 37/5/86 30/4/85 28/4/87
f 26/4/88 33/5/89 25/4/90
f 33/5/90 26/4/91 35/5/88
f 40/5/92 30/4/93 39/5/93
f 30/4/93 40/5/79 32/4/92
f 43/6/94 42/7/95 41/7/94
f 42/7/95 43/6/94 44/6/95
f 47/6/96 46/7/97 45/7/96
f 46/7/98 47/6/96 48/6/98
f 50/6/99 45/7/96 49/7/99
f 45/7/96 50/6/99 47/6/96
f 48/6/97 41/7/94 46/7/97
f 41/7/94 48/6/97 43/6/94
f 52/7/100 44/6/95 51/6/101
f 44/6/95 52/7/101 42/7/95
f 52/7/100 50/6/99 49/7/99
f 50/6/99 52/7/101 51/6/100
f 41/7/1 45/7/1 46/7/1
f 45/7/1 41/7/1 42/7/1
f 45/7/1 42/7/1 49/7/1
f 49/7/1 42/7/1 52/7/1
f 55/6/102 54/8/103 53/8/104
f 54/8/105 55/6/102 56/6/106
f 59/8/107 58/6/108 57/6/109
f 58/6/110 59/8/107 60/8/111
f 63/6/112 62/8/113 61/8/114
f 62/8/113 63/6/112 64/6/115
f 64/6/116 53/8/104 62/8/117
f 53/8/104 64/6/118 55/6/119
f 64/6/115 56/6/120 55/6/119
f 56/6/120 64/6/121 58/6/122
f 58/6/122 64/6/121 63/6/123
f 58/6/122 63/6/123 57/6/124
f 59/8/125 63/6/126 61/8/127
f 63/6/112 59/8/107 57/6/128
f 54/8/1 62/8/1 53/8/1
f 62/8/1 54/8/1 60/8/1
f 62/8/1 60/8/1 61/8/1
f 61/8/1 60/8/1 59/8/1
f 56/6/129 60/8/130 54/8/105
f 60/8/130 56/6/120 58/6/122
f 67/6/131 66/9/132 65/9/131
f 66/9/132 67/6/131 68/6/132
f 70/6/133 65/9/131 69/9/134
f 65/9/131 70/6/134 67/6/131
f 68/6/132 71/9/135 66/9/132
f 71/9/135 68/6/132 72/6/135
f 72/6/136 73/9/137 71/9/136
f 73/9/137 72/6/136 74/6/137
f 71/9/1 65/9/1 66/9/1
f 65/9/1 71/9/1 69/9/1
f 69/9/1 71/9/1 73/9/1
f 69/9/1 73/9/1 75/9/1
f 76/6/138 69/9/133 75/9/138
f 69/9/133 76/6/138 70/6/133
f 73/9/137 76/6/138 75/9/138
f 76/6/138 73/9/137 74/6/137
f 79/10/139 78/10/140 77/11/141
f 78/10/142 79/10/143 41/6/139
f 78/10/140 41/6/139 42/6/140
f 77/11/144 78/10/145 79/10/146
f 41/6/147 79/10/147 78/10/145
f 42/6/145 41/6/147 78/10/145
f 81/11/148 49/6/149 80/10/149
f 49/6/150 81/11/151 52/6/152
f 52/6/153 81/11/151 82/10/152
f 80/10/154 49/6/154 81/11/155
f 52/6/156 81/11/157 49/6/154
f 82/10/156 81/11/157 52/6/158
f 82/10/152 42/6/140 52/6/152
f 42/6/140 82/10/152 83/11/159
f 42/6/140 83/11/159 78/10/140
f 52/6/156 42/6/160 82/10/156
f 83/11/161 82/10/156 42/6/145
f 78/10/145 83/11/161 42/6/160
f 46/6/162 85/11/163 84/10/162
f 85/11/163 46/6/162 41/6/143
f 85/11/163 41/6/164 79/10/139
f 84/10/165 85/11/166 46/6/165
f 41/6/146 46/6/165 85/11/166
f 79/10/146 41/6/146 85/11/166
f 80/10/149 87/10/167 86/11/168
f 87/10/167 80/10/149 49/6/149
f 87/10/167 49/6/149 45/6/167
f 86/11/169 87/10/170 80/10/154
f 49/6/154 80/10/154 87/10/170
f 45/6/170 49/6/171 87/10/170
f 45/6/172 88/11/173 87/10/167
f 88/11/173 45/6/167 46/6/162
f 88/11/173 46/6/162 84/10/162
f 87/10/170 88/11/174 45/6/175
f 46/6/165 45/6/170 88/11/174
f 84/10/165 46/6/165 88/11/174
f 91/10/176 90/10/177 89/11/178
f 90/10/179 91/10/180 75/6/180
f 90/10/179 75/6/180 69/6/179
f 89/11/181 90/10/182 91/10/183
f 75/6/184 91/10/184 90/10/182
f 69/6/182 75/6/184 90/10/182
f 65/6/185 93/11/186 92/10/187
f 93/11/186 65/6/187 66/6/188
f 93/11/186 66/6/188 94/10/189
f 92/10/190 93/11/191 65/6/192
f 66/6/193 65/6/194 93/11/191
f 94/10/193 66/6/193 93/11/191
f 97/10/195 96/10/196 95/11/197
f 96/10/198 97/10/195 71/6/195
f 96/10/198 71/6/195 73/6/198
f 95/11/199 96/10/200 97/10/201
f 71/6/201 97/10/201 96/10/200
f 73/6/200 71/6/201 96/10/200
f 98/11/202 75/6/203 91/10/180
f 75/6/203 98/11/204 73/6/198
f 73/6/198 98/11/204 96/10/198
f 91/10/184 75/6/205 98/11/206
f 73/6/200 98/11/207 75/6/184
f 96/10/200 98/11/206 73/6/200
f 94/10/189 97/10/195 99/11/208
f 97/10/195 94/10/189 66/6/189
f 97/10/195 66/6/189 71/6/195
f 99/11/209 97/10/201 94/10/210
f 66/6/210 94/10/193 97/10/201
f 71/6/201 66/6/210 97/10/201
f 90/10/179 92/10/185 100/11/211
f 92/10/187 90/10/179 69/6/179
f 92/10/187 69/6/179 65/6/187
f 100/11/212 92/10/194 90/10/182
f 69/6/182 90/10/182 92/10/194
f 65/6/194 69/6/182 92/10/194
f 102/11/148 61/6/149 101/10/149
f 61/6/150 102/11/151 59/6/152
f 59/6/152 102/11/151 103/10/152
f 101/10/154 61/6/154 102/11/157
f 59/6/156 102/11/157 61/6/154
f 103/10/156 102/11/157 59/6/156
f 103/10/152 60/6/140 59/6/152
f 60/6/140 103/10/152 104/11/159
f 60/6/142 104/11/159 105/10/140
f 59/6/156 60/6/145 103/10/156
f 104/11/161 103/10/156 60/6/145
f 105/10/145 104/11/161 60/6/160
f 62/6/172 107/11/173 106/10/167
f 107/11/173 62/6/167 53/6/162
f 107/11/213 53/6/162 108/10/162
f 106/10/170 107/11/174 62/6/175
f 53/6/165 62/6/170 107/11/174
f 108/10/165 53/6/165 107/11/214
f 110/10/139 105/10/142 109/11/215
f 105/10/140 110/10/139 54/6/139
f 105/10/140 54/6/139 60/6/140
f 109/11/216 105/10/145 110/10/146
f 54/6/146 110/10/146 105/10/145
f 60/6/145 54/6/146 105/10/145
f 101/10/149 106/10/172 111/11/217
f 106/10/167 101/10/149 61/6/149
f 106/10/167 61/6/149 62/6/167
f 111/11/218 106/10/170 101/10/154
f 61/6/154 101/10/154 106/10/170
f 62/6/170 61/6/171 106/10/170
f 53/6/162 112/11/163 108/10/162
f 112/11/219 53/6/162 54/6/139
f 112/11/163 54/6/164 110/10/143
f 108/10/165 112/11/166 53/6/165
f 54/6/146 53/6/165 112/11/166
f 110/10/147 54/6/220 112/11/166
