# Blender 4.1.1
# www.blender.org
mtllib tree.038.mtl
o tree.038
v -14.516021 -4.675250 -12.366261
v -14.346061 -4.675250 -12.455744
v -14.645742 -4.675250 -12.406499
v -14.305822 -4.675250 -12.585465
v -14.735226 -4.675250 -12.576459
v -14.395306 -4.675250 -12.755425
v -14.694987 -4.675250 -12.706181
v -14.525027 -4.675250 -12.795665
v -14.433293 -4.327483 -12.518353
v -14.518272 -4.327483 -12.473612
v -14.583133 -4.327483 -12.493731
v -14.413173 -4.327483 -12.583214
v -14.457915 -4.327483 -12.668194
v -14.522776 -4.327483 -12.688313
v -14.607755 -4.327483 -12.643572
v -14.627875 -4.327483 -12.578711
v -14.523338 -3.805793 -12.715151
v -14.629562 -3.805793 -12.659225
v -14.654713 -3.805793 -12.578148
v -14.411484 -3.805793 -12.502701
v -14.517710 -3.805793 -12.446774
v -14.442263 -3.805793 -12.690001
v -14.386335 -3.805793 -12.583776
v -14.598785 -3.805793 -12.471923
v -14.405033 -4.203316 -12.462369
v -14.480077 -4.203316 -12.455451
v -14.356860 -4.203316 -12.520324
v -14.363777 -4.203316 -12.595368
v -14.538033 -4.203316 -12.503623
v -14.421733 -4.203316 -12.643541
v -14.544950 -4.203316 -12.578668
v -14.496778 -4.203316 -12.636623
v -14.379050 -4.329511 -12.413018
v -14.303591 -4.329511 -12.503800
v -14.496600 -4.329511 -12.402183
v -14.587381 -4.329511 -12.477641
v -14.314426 -4.329511 -12.621351
v -14.598219 -4.329511 -12.595191
v -14.405210 -4.329511 -12.696810
v -14.522759 -4.329511 -12.685974
v -14.779993 -3.805793 -12.184584
v -15.002839 -3.805793 -12.607843
v -14.675391 -3.230796 -12.350475
v -14.806870 -3.230796 -12.600200
v -14.046886 -3.805793 -12.570560
v -14.302018 -3.805793 -12.165942
v -14.242854 -3.230796 -12.578203
v -14.393383 -3.230796 -12.339477
v -14.269731 -3.805793 -12.993821
v -14.374333 -3.230796 -12.827929
v -14.656341 -3.230796 -12.838927
v -14.747706 -3.805793 -13.012462
v -14.396370 -2.613048 -12.345150
v -14.671971 -2.613048 -12.355898
v -14.495328 -1.965096 -12.533107
v -14.558675 -1.965096 -12.535578
v -14.554395 -1.965096 -12.645296
v -14.588208 -1.965096 -12.591673
v -14.653354 -2.613048 -12.833255
v -14.800464 -2.613048 -12.599950
v -14.377753 -2.613048 -12.822505
v -14.249261 -2.613048 -12.578453
v -14.491049 -1.965096 -12.642826
v -14.461516 -1.965096 -12.586732
v -14.195904 -3.230796 -12.381779
v -14.540018 -3.230796 -12.200604
v -14.374129 -2.613048 -12.494159
v -14.531806 -2.613048 -12.411142
v -14.180748 -3.230796 -12.770376
v -14.367186 -2.613048 -12.672217
v -14.868976 -3.230796 -12.408029
v -14.682539 -2.613048 -12.506186
v -14.853821 -3.230796 -12.796626
v -14.675595 -2.613048 -12.684246
v -14.509706 -3.230796 -12.977801
v -14.517919 -2.613048 -12.767262
v -14.972057 -3.985170 -12.353756
v -15.055416 -3.895481 -12.609894
v -14.808059 -3.895481 -12.140076
v -14.241665 -3.895482 -13.038329
v -14.505166 -3.985170 -13.094208
v -14.772220 -3.895481 -13.059021
v -14.952363 -3.985170 -12.858762
v -14.277505 -3.895481 -12.119383
v -14.544559 -3.985170 -12.084196
v -14.077666 -3.985170 -12.824648
v -13.994308 -3.895482 -12.568511
v -14.097362 -3.985170 -12.319642
v -14.305707 -3.376631 -12.936763
v -14.142897 -3.303713 -12.790306
v -14.508039 -3.303713 -13.020546
v -14.159719 -3.303713 -12.358961
v -14.333443 -3.376631 -12.225629
v -14.541684 -3.303713 -12.157858
v -14.935436 -3.376631 -12.605215
v -14.890005 -3.303713 -12.819443
v -14.906828 -3.303713 -12.388099
v -14.716282 -3.376631 -12.952776
v -14.744017 -3.376631 -12.241640
v -14.114287 -3.376631 -12.573190
v -14.361570 -2.664763 -12.848169
v -14.513506 -2.716478 -12.880389
v -14.667489 -2.664763 -12.860100
v -14.771359 -2.716478 -12.744631
v -14.830780 -2.664763 -12.601133
v -14.218944 -2.664763 -12.577271
v -14.278365 -2.716478 -12.433774
v -14.382236 -2.664763 -12.318304
v -14.782715 -2.716478 -12.453444
v -14.688153 -2.664763 -12.330235
v -14.267009 -2.716478 -12.724961
v -14.536219 -2.716478 -12.298015
vn -0.0000 -1.0000 -0.0000
vn 0.7315 0.2942 0.6151
vn 0.0834 0.2944 0.9520
vn 0.7377 0.2944 0.6075
vn 0.0932 0.2942 0.9512
vn -0.6151 0.2942 0.7315
vn 0.0833 0.2944 0.9520
vn 0.0931 0.2942 0.9512
vn -0.6151 0.2943 0.7315
vn -0.6075 0.2944 0.7378
vn 0.9512 0.2942 -0.0931
vn 0.7378 0.2944 0.6075
vn 0.9520 0.2944 -0.0833
vn 0.6151 0.2942 -0.7315
vn 0.9520 0.2944 -0.0834
vn 0.6075 0.2944 -0.7377
vn 0.9512 0.2942 -0.0932
vn -0.7377 0.2944 -0.6075
vn -0.0932 0.2942 -0.9512
vn -0.0834 0.2944 -0.9520
vn -0.7315 0.2942 -0.6151
vn -0.9520 0.2944 0.0834
vn -0.6075 0.2944 0.7377
vn -0.9512 0.2942 0.0932
vn -0.0833 0.2944 -0.9520
vn 0.6151 0.2943 -0.7315
vn 0.6075 0.2944 -0.7378
vn -0.0931 0.2942 -0.9512
vn -0.7378 0.2944 -0.6075
vn -0.9512 0.2942 0.0931
vn -0.9520 0.2944 0.0833
vn -0.0926 -0.0513 -0.9944
vn -0.7685 -0.0512 -0.6377
vn -0.0908 -0.0513 -0.9945
vn -0.7686 -0.0513 -0.6377
vn -0.7674 -0.0513 -0.6391
vn -0.9944 -0.0512 0.0925
vn -0.7685 -0.0513 -0.6377
vn -0.7674 -0.0512 -0.6391
vn -0.9944 -0.0513 0.0925
vn -0.9946 -0.0512 0.0908
vn 0.0908 -0.0512 0.9945
vn 0.7674 -0.0513 0.6391
vn 0.7685 -0.0513 0.6377
vn 0.0926 -0.0513 0.9944
vn 0.6377 -0.0513 -0.7685
vn 0.9944 -0.0513 -0.0926
vn 0.6391 -0.0513 -0.7674
vn 0.6377 -0.0512 -0.7685
vn 0.9945 -0.0513 -0.0908
vn 0.0908 -0.0513 0.9945
vn -0.6391 -0.0513 0.7674
vn 0.0925 -0.0512 0.9944
vn -0.6390 -0.0513 0.7675
vn 0.0908 -0.0512 0.9946
vn -0.6377 -0.0513 0.7686
vn 0.6391 -0.0512 -0.7675
vn -0.0908 -0.0512 -0.9946
vn 0.6377 -0.0512 -0.7686
vn -0.0925 -0.0513 -0.9944
vn 0.7686 -0.0513 0.6377
vn 0.9944 -0.0513 -0.0925
vn 0.9946 -0.0512 -0.0908
vn 0.7675 -0.0512 0.6390
vn -0.9944 -0.0513 0.0926
vn -0.6377 -0.0512 0.7685
vn -0.9945 -0.0513 0.0908
vn -0.0000 1.0000 -0.0000
vn 0.8736 0.4042 0.2710
vn 0.4261 0.4042 0.8093
vn 0.4261 0.4043 0.8093
vn -0.8094 0.4042 0.4261
vn -0.8736 0.4042 -0.2709
vn -0.8093 0.4042 0.4261
vn -0.8736 0.4042 -0.2710
vn -0.8736 0.4043 -0.2710
vn -0.4262 0.4042 -0.8093
vn -0.4261 0.4043 -0.8093
vn -0.4261 0.4042 -0.8093
vn 0.8094 0.4042 -0.4261
vn 0.8093 0.4042 -0.4261
vn 0.8736 0.4042 0.2709
vn 0.8736 0.4043 0.2709
vn -0.2710 0.4042 0.8736
vn 0.2710 0.4042 -0.8736
vn 0.8093 0.4043 -0.4261
vn 0.4261 0.4042 0.8094
vn -0.4261 0.4042 -0.8094
vn -0.5048 0.3228 0.8006
vn -0.9458 0.3228 -0.0369
vn 0.9457 0.3228 0.0369
vn 0.4410 0.3228 0.8375
vn 0.4409 0.3228 0.8375
vn 0.9458 0.3228 0.0369
vn 0.5048 0.3228 -0.8006
vn -0.4409 0.3228 -0.8375
vn -0.9457 0.3228 -0.0369
vn 0.3204 0.7260 0.6085
vn -0.5068 0.3115 0.8038
vn 0.4427 0.3115 0.8408
vn -0.3669 0.7260 0.5817
vn -0.4427 0.3115 -0.8408
vn -0.6872 0.7260 -0.0268
vn -0.3203 0.7260 -0.6086
vn -0.9495 0.3115 -0.0370
vn 0.3668 0.7260 -0.5817
vn 0.9495 0.3115 0.0370
vn 0.5069 0.3115 -0.8038
vn 0.3668 0.7260 -0.5818
vn 0.6872 0.7260 0.0268
vn 0.6872 0.7260 0.0267
vn 0.3204 0.7260 0.6086
vn 0.6872 0.7259 0.0268
vn -0.3668 0.7259 0.5818
vn 0.3204 0.7259 0.6086
vn -0.3668 0.7259 0.5817
vn -0.6872 0.7259 -0.0268
vn 0.3668 0.7259 -0.5817
vn 0.3668 0.7259 -0.5818
vn -0.3204 0.7259 -0.6086
vn 0.5068 0.3115 -0.8038
vn -0.3204 0.7260 -0.6085
vn -0.3668 0.7260 0.5818
vn -0.6872 0.7260 -0.0269
vn 0.8006 0.3228 0.5048
vn -0.0369 0.3228 0.9457
vn -0.0369 0.3228 0.9458
vn 0.8375 0.3228 -0.4409
vn -0.8375 0.3228 0.4409
vn -0.8006 0.3228 -0.5048
vn 0.0369 0.3228 -0.9457
vn -0.4600 0.5060 0.7296
vn -0.8619 0.5060 -0.0336
vn -0.7889 0.4530 0.4153
vn 0.7889 -0.4529 -0.4153
vn 0.8619 -0.5060 0.0336
vn 0.4600 -0.5060 -0.7296
vn 0.0347 0.4530 -0.8908
vn 0.4600 0.5061 -0.7296
vn 0.4600 0.5060 -0.7296
vn 0.0347 0.4530 -0.8909
vn -0.4018 0.5060 -0.7632
vn -0.4600 -0.5060 0.7296
vn -0.0347 -0.4530 0.8908
vn 0.4018 -0.5060 0.7632
vn -0.0347 -0.4530 0.8909
vn -0.7541 0.4530 -0.4755
vn 0.7541 -0.4530 0.4755
vn 0.4018 0.5060 0.7632
vn -0.0347 0.4530 0.8909
vn -0.4018 -0.5060 -0.7632
vn 0.0347 -0.4530 -0.8909
vn 0.4601 -0.5060 -0.7296
vn 0.4601 0.5060 -0.7296
vn 0.8619 0.5060 0.0336
vn 0.7889 0.4529 -0.4153
vn -0.7889 -0.4529 0.4153
vn -0.8619 -0.5060 -0.0336
vn -0.4601 -0.5060 0.7296
vn 0.7541 0.4530 0.4755
vn 0.4018 0.5061 0.7632
vn -0.7541 -0.4530 -0.4755
vn 0.0336 0.5060 -0.8619
vn 0.7632 0.5060 -0.4018
vn 0.4755 0.4530 -0.7541
vn -0.4755 -0.4530 0.7541
vn -0.7632 -0.5060 0.4018
vn -0.0336 -0.5060 0.8619
vn -0.0336 -0.5060 0.8618
vn 0.7296 0.5060 0.4601
vn 0.4153 0.4529 0.7889
vn 0.4153 0.4530 0.7889
vn -0.0336 0.5060 0.8619
vn -0.0336 0.5060 0.8618
vn -0.7296 -0.5060 -0.4600
vn -0.4153 -0.4530 -0.7889
vn 0.0336 -0.5060 -0.8619
vn -0.7632 0.5060 0.4018
vn -0.7296 0.5060 -0.4600
vn -0.8909 0.4530 -0.0347
vn -0.7296 0.5060 -0.4601
vn 0.8909 -0.4530 0.0347
vn 0.7296 -0.5060 0.4601
vn 0.7632 -0.5060 -0.4018
vn 0.7296 -0.5060 0.4600
vn -0.4153 0.4530 -0.7889
vn -0.4153 0.4529 -0.7889
vn 0.4153 -0.4530 0.7889
vn -0.4755 0.4530 0.7541
vn 0.4755 -0.4530 -0.7541
vn 0.7296 0.5060 0.4600
vn 0.8908 0.4530 0.0347
vn -0.8909 -0.4530 -0.0347
vn -0.7296 -0.5060 -0.4601
vn 0.0347 0.4529 -0.8909
vn -0.0347 -0.4529 0.8909
vn 0.7541 0.4529 0.4755
vn -0.7541 -0.4529 -0.4755
vn -0.4601 0.5060 0.7296
vn 0.7889 -0.4530 -0.4153
vn -0.4600 -0.5061 0.7296
vn -0.0347 0.4530 0.8908
vn -0.0347 0.4529 0.8909
vn 0.0347 -0.4530 -0.8908
vn -0.4018 -0.5061 -0.7632
vn 0.0347 -0.4529 -0.8909
vt 0.593750 0.025000
vt 0.593750 0.104996
vt 0.593750 0.225000
vt 0.093750 0.475000
vt 0.093750 0.275000
vt 0.093750 0.425000
vt 0.093750 0.348778
vt 0.093750 0.338765
vt 0.093750 0.344099
vt 0.093750 0.375000
vt 0.093750 0.325000
s 0
usemtl colormap.002
f 3/1/1 2/1/1 1/1/1
f 2/1/1 3/1/1 4/1/1
f 4/1/1 3/1/1 5/1/1
f 4/1/1 5/1/1 6/1/1
f 6/1/1 5/1/1 7/1/1
f 6/1/1 7/1/1 8/1/1
f 9/2/2 1/1/3 2/1/4
f 1/1/3 9/2/2 10/2/5
f 11/2/6 1/1/7 10/2/8
f 1/1/7 11/2/9 3/1/10
f 12/2/11 2/1/12 4/1/13
f 2/1/4 12/2/11 9/2/2
f 13/2/14 4/1/15 6/1/16
f 4/1/15 13/2/14 12/2/17
f 7/1/18 14/2/19 8/1/20
f 14/2/19 7/1/18 15/2/21
f 11/2/6 5/1/22 3/1/23
f 5/1/22 11/2/6 16/2/24
f 8/1/25 13/2/26 6/1/27
f 13/2/26 8/1/25 14/2/28
f 7/1/29 16/2/30 15/2/21
f 16/2/30 7/1/29 5/1/31
f 14/2/32 18/3/33 17/3/34
f 18/3/35 14/2/32 15/2/36
f 16/2/37 18/3/38 15/2/39
f 18/3/35 16/2/40 19/3/41
f 21/3/42 9/2/43 20/3/44
f 9/2/43 21/3/42 10/2/45
f 22/3/46 12/2/47 13/2/48
f 12/2/47 22/3/49 23/3/50
f 21/3/51 11/2/52 10/2/53
f 11/2/54 21/3/55 24/3/56
f 13/2/57 17/3/58 22/3/59
f 17/3/34 13/2/48 14/2/60
f 20/3/61 12/2/62 23/3/63
f 12/2/47 20/3/61 9/2/64
f 24/3/56 16/2/65 11/2/52
f 16/2/65 24/3/66 19/3/67
f 27/4/68 26/4/68 25/4/68
f 26/4/68 27/4/68 28/4/68
f 26/4/68 28/4/68 29/4/68
f 29/4/68 28/4/68 30/4/68
f 29/4/68 30/4/68 31/4/68
f 31/4/68 30/4/68 32/4/68
f 35/5/1 34/5/1 33/5/1
f 34/5/1 35/5/1 36/5/1
f 34/5/1 36/5/1 37/5/1
f 37/5/1 36/5/1 38/5/1
f 37/5/1 38/5/1 39/5/1
f 39/5/1 38/5/1 40/5/1
f 27/4/69 33/5/70 34/5/69
f 33/5/70 27/4/69 25/4/71
f 29/4/72 38/5/73 36/5/74
f 38/5/75 29/4/72 31/4/76
f 40/5/77 31/4/75 32/4/78
f 31/4/75 40/5/79 38/5/75
f 28/4/80 34/5/69 37/5/81
f 34/5/82 28/4/81 27/4/83
f 26/4/84 36/5/74 35/5/84
f 36/5/74 26/4/84 29/4/74
f 30/4/85 37/5/81 39/5/85
f 37/5/81 30/4/85 28/4/86
f 26/4/84 33/5/71 25/4/87
f 33/5/87 26/4/84 35/5/84
f 40/5/88 30/4/85 39/5/85
f 30/4/85 40/5/78 32/4/88
f 43/6/89 42/7/90 41/7/89
f 42/7/90 43/6/89 44/6/90
f 47/6/91 46/7/92 45/7/91
f 46/7/93 47/6/94 48/6/93
f 50/6/95 45/7/94 49/7/95
f 45/7/94 50/6/95 47/6/94
f 48/6/93 41/7/89 46/7/93
f 41/7/89 48/6/93 43/6/89
f 52/7/96 44/6/90 51/6/96
f 44/6/97 52/7/96 42/7/97
f 52/7/96 50/6/95 49/7/95
f 50/6/95 52/7/96 51/6/96
f 41/7/1 45/7/1 46/7/1
f 45/7/1 41/7/1 42/7/1
f 45/7/1 42/7/1 49/7/1
f 49/7/1 42/7/1 52/7/1
f 55/6/98 54/8/99 53/8/100
f 54/8/99 55/6/98 56/6/101
f 59/8/102 58/6/103 57/6/104
f 58/6/103 59/8/102 60/8/105
f 63/6/106 62/8/107 61/8/108
f 62/8/107 63/6/109 64/6/110
f 64/6/110 53/8/100 62/8/107
f 53/8/100 64/6/111 55/6/112
f 64/6/113 56/6/114 55/6/115
f 56/6/116 64/6/113 58/6/117
f 58/6/117 64/6/113 63/6/118
f 58/6/117 63/6/119 57/6/120
f 59/8/102 63/6/106 61/8/121
f 63/6/106 59/8/102 57/6/122
f 54/8/1 62/8/1 53/8/1
f 62/8/1 54/8/1 60/8/1
f 62/8/1 60/8/1 61/8/1
f 61/8/1 60/8/1 59/8/1
f 56/6/123 60/8/105 54/8/99
f 60/8/105 56/6/123 58/6/124
f 67/6/125 66/9/126 65/9/125
f 66/9/126 67/6/125 68/6/127
f 70/6/128 65/9/125 69/9/128
f 65/9/125 70/6/128 67/6/125
f 68/6/126 71/9/129 66/9/126
f 71/9/129 68/6/127 72/6/129
f 72/6/129 73/9/130 71/9/129
f 73/9/130 72/6/129 74/6/130
f 71/9/1 65/9/1 66/9/1
f 65/9/1 71/9/1 69/9/1
f 69/9/1 71/9/1 73/9/1
f 69/9/1 73/9/1 75/9/1
f 76/6/131 69/9/128 75/9/131
f 69/9/128 76/6/131 70/6/128
f 73/9/130 76/6/131 75/9/131
f 76/6/131 73/9/130 74/6/130
f 79/10/132 78/10/133 77/11/134
f 78/10/133 79/10/132 41/6/132
f 78/10/133 41/6/132 42/6/133
f 77/11/135 78/10/136 79/10/137
f 41/6/137 79/10/137 78/10/136
f 42/6/136 41/6/137 78/10/136
f 81/11/138 49/6/139 80/10/140
f 49/6/140 81/11/141 52/6/142
f 52/6/142 81/11/141 82/10/142
f 80/10/143 49/6/143 81/11/144
f 52/6/145 81/11/146 49/6/143
f 82/10/145 81/11/146 52/6/145
f 82/10/142 42/6/133 52/6/142
f 42/6/133 82/10/142 83/11/147
f 42/6/133 83/11/147 78/10/133
f 52/6/145 42/6/136 82/10/145
f 83/11/148 82/10/145 42/6/136
f 78/10/136 83/11/148 42/6/136
f 46/6/149 85/11/150 84/10/149
f 85/11/150 46/6/149 41/6/132
f 85/11/150 41/6/132 79/10/132
f 84/10/151 85/11/152 46/6/151
f 41/6/153 46/6/151 85/11/152
f 79/10/137 41/6/137 85/11/152
f 80/10/154 87/10/155 86/11/156
f 87/10/155 80/10/140 49/6/140
f 87/10/155 49/6/140 45/6/155
f 86/11/157 87/10/158 80/10/159
f 49/6/143 80/10/143 87/10/158
f 45/6/158 49/6/143 87/10/158
f 45/6/155 88/11/160 87/10/155
f 88/11/160 45/6/155 46/6/161
f 88/11/160 46/6/149 84/10/149
f 87/10/158 88/11/162 45/6/158
f 46/6/151 45/6/158 88/11/162
f 84/10/151 46/6/151 88/11/162
f 91/10/163 90/10/164 89/11/165
f 90/10/164 91/10/163 75/6/163
f 90/10/164 75/6/163 69/6/164
f 89/11/166 90/10/167 91/10/168
f 75/6/168 91/10/168 90/10/167
f 69/6/167 75/6/169 90/10/167
f 65/6/170 93/11/171 92/10/170
f 93/11/172 65/6/170 66/6/173
f 93/11/172 66/6/174 94/10/173
f 92/10/175 93/11/176 65/6/175
f 66/6/177 65/6/175 93/11/176
f 94/10/177 66/6/177 93/11/176
f 97/10/178 96/10/179 95/11/180
f 96/10/179 97/10/178 71/6/178
f 96/10/181 71/6/178 73/6/179
f 95/11/182 96/10/183 97/10/184
f 71/6/184 97/10/184 96/10/183
f 73/6/185 71/6/184 96/10/185
f 98/11/186 75/6/163 91/10/163
f 75/6/163 98/11/187 73/6/181
f 73/6/179 98/11/186 96/10/179
f 91/10/168 75/6/168 98/11/188
f 73/6/185 98/11/188 75/6/168
f 96/10/185 98/11/188 73/6/185
f 94/10/173 97/10/178 99/11/189
f 97/10/178 94/10/173 66/6/173
f 97/10/178 66/6/173 71/6/178
f 99/11/190 97/10/184 94/10/177
f 66/6/177 94/10/177 97/10/184
f 71/6/184 66/6/177 97/10/184
f 90/10/164 92/10/191 100/11/192
f 92/10/191 90/10/164 69/6/164
f 92/10/170 69/6/164 65/6/170
f 100/11/193 92/10/194 90/10/167
f 69/6/167 90/10/167 92/10/175
f 65/6/194 69/6/167 92/10/194
f 102/11/141 61/6/140 101/10/140
f 61/6/139 102/11/141 59/6/142
f 59/6/142 102/11/195 103/10/142
f 101/10/143 61/6/143 102/11/146
f 59/6/145 102/11/146 61/6/159
f 103/10/145 102/11/196 59/6/145
f 103/10/142 60/6/133 59/6/142
f 60/6/133 103/10/142 104/11/147
f 60/6/133 104/11/147 105/10/133
f 59/6/145 60/6/136 103/10/145
f 104/11/148 103/10/145 60/6/136
f 105/10/136 104/11/148 60/6/136
f 62/6/155 107/11/197 106/10/155
f 107/11/160 62/6/155 53/6/161
f 107/11/197 53/6/149 108/10/149
f 106/10/158 107/11/162 62/6/158
f 53/6/151 62/6/158 107/11/162
f 108/10/151 53/6/151 107/11/198
f 110/10/132 105/10/133 109/11/134
f 105/10/133 110/10/199 54/6/199
f 105/10/133 54/6/132 60/6/133
f 109/11/200 105/10/136 110/10/137
f 54/6/137 110/10/137 105/10/136
f 60/6/136 54/6/137 105/10/136
f 101/10/154 106/10/155 111/11/156
f 106/10/155 101/10/140 61/6/140
f 106/10/155 61/6/140 62/6/155
f 111/11/157 106/10/158 101/10/159
f 61/6/143 101/10/143 106/10/158
f 62/6/158 61/6/201 106/10/158
f 53/6/149 112/11/202 108/10/149
f 112/11/150 53/6/149 54/6/132
f 112/11/203 54/6/132 110/10/199
f 108/10/151 112/11/204 53/6/205
f 54/6/137 53/6/151 112/11/152
f 110/10/137 54/6/153 112/11/206
f 3/1/1 2/1/1 1/1/1
f 2/1/1 3/1/1 4/1/1
f 4/1/1 3/1/1 5/1/1
f 4/1/1 5/1/1 6/1/1
f 6/1/1 5/1/1 7/1/1
f 6/1/1 7/1/1 8/1/1
f 9/2/2 1/1/3 2/1/4
f 1/1/3 9/2/2 10/2/5
f 11/2/6 1/1/7 10/2/8
f 1/1/7 11/2/9 3/1/10
f 12/2/11 2/1/12 4/1/13
f 2/1/4 12/2/11 9/2/2
f 13/2/14 4/1/15 6/1/16
f 4/1/15 13/2/14 12/2/17
f 7/1/18 14/2/19 8/1/20
f 14/2/19 7/1/18 15/2/21
f 11/2/6 5/1/22 3/1/23
f 5/1/22 11/2/6 16/2/24
f 8/1/25 13/2/26 6/1/27
f 13/2/26 8/1/25 14/2/28
f 7/1/29 16/2/30 15/2/21
f 16/2/30 7/1/29 5/1/31
f 14/2/32 18/3/33 17/3/34
f 18/3/35 14/2/32 15/2/36
f 16/2/37 18/3/38 15/2/39
f 18/3/35 16/2/40 19/3/41
f 21/3/42 9/2/43 20/3/44
f 9/2/43 21/3/42 10/2/45
f 22/3/46 12/2/47 13/2/48
f 12/2/47 22/3/49 23/3/50
f 21/3/51 11/2/52 10/2/53
f 11/2/54 21/3/55 24/3/56
f 13/2/57 17/3/58 22/3/59
f 17/3/34 13/2/48 14/2/60
f 20/3/61 12/2/62 23/3/63
f 12/2/47 20/3/61 9/2/64
f 24/3/56 16/2/65 11/2/52
f 16/2/65 24/3/66 19/3/67
f 27/4/68 26/4/68 25/4/68
f 26/4/68 27/4/68 28/4/68
f 26/4/68 28/4/68 29/4/68
f 29/4/68 28/4/68 30/4/68
f 29/4/68 30/4/68 31/4/68
f 31/4/68 30/4/68 32/4/68
f 35/5/1 34/5/1 33/5/1
f 34/5/1 35/5/1 36/5/1
f 34/5/1 36/5/1 37/5/1
f 37/5/1 36/5/1 38/5/1
f 37/5/1 38/5/1 39/5/1
f 39/5/1 38/5/1 40/5/1
f 27/4/69 33/5/70 34/5/69
f 33/5/70 27/4/69 25/4/71
f 29/4/72 38/5/73 36/5/74
f 38/5/75 29/4/72 31/4/76
f 40/5/77 31/4/75 32/4/78
f 31/4/75 40/5/79 38/5/75
f 28/4/80 34/5/69 37/5/81
f 34/5/82 28/4/81 27/4/83
f 26/4/84 36/5/74 35/5/84
f 36/5/74 26/4/84 29/4/74
f 30/4/85 37/5/81 39/5/85
f 37/5/81 30/4/85 28/4/86
f 26/4/84 33/5/71 25/4/87
f 33/5/87 26/4/84 35/5/84
f 40/5/88 30/4/85 39/5/85
f 30/4/85 40/5/78 32/4/88
f 43/6/89 42/7/90 41/7/89
f 42/7/90 43/6/89 44/6/90
f 47/6/91 46/7/92 45/7/91
f 46/7/93 47/6/94 48/6/93
f 50/6/95 45/7/94 49/7/95
f 45/7/94 50/6/95 47/6/94
f 48/6/93 41/7/89 46/7/93
f 41/7/89 48/6/93 43/6/89
f 52/7/96 44/6/90 51/6/96
f 44/6/97 52/7/96 42/7/97
f 52/7/96 50/6/95 49/7/95
f 50/6/95 52/7/96 51/6/96
f 41/7/1 45/7/1 46/7/1
f 45/7/1 41/7/1 42/7/1
f 45/7/1 42/7/1 49/7/1
f 49/7/1 42/7/1 52/7/1
f 55/6/98 54/8/99 53/8/100
f 54/8/99 55/6/98 56/6/101
f 59/8/102 58/6/103 57/6/104
f 58/6/103 59/8/102 60/8/105
f 63/6/106 62/8/107 61/8/108
f 62/8/107 63/6/109 64/6/110
f 64/6/110 53/8/100 62/8/107
f 53/8/100 64/6/111 55/6/112
f 64/6/113 56/6/114 55/6/115
f 56/6/116 64/6/113 58/6/117
f 58/6/117 64/6/113 63/6/118
f 58/6/117 63/6/119 57/6/120
f 59/8/102 63/6/106 61/8/121
f 63/6/106 59/8/102 57/6/122
f 54/8/1 62/8/1 53/8/1
f 62/8/1 54/8/1 60/8/1
f 62/8/1 60/8/1 61/8/1
f 61/8/1 60/8/1 59/8/1
f 56/6/123 60/8/105 54/8/99
f 60/8/105 56/6/123 58/6/124
f 67/6/125 66/9/126 65/9/125
f 66/9/126 67/6/125 68/6/127
f 70/6/128 65/9/125 69/9/128
f 65/9/125 70/6/128 67/6/125
f 68/6/126 71/9/129 66/9/126
f 71/9/129 68/6/127 72/6/129
f 72/6/129 73/9/130 71/9/129
f 73/9/130 72/6/129 74/6/130
f 71/9/1 65/9/1 66/9/1
f 65/9/1 71/9/1 69/9/1
f 69/9/1 71/9/1 73/9/1
f 69/9/1 73/9/1 75/9/1
f 76/6/131 69/9/128 75/9/131
f 69/9/128 76/6/131 70/6/128
f 73/9/130 76/6/131 75/9/131
f 76/6/131 73/9/130 74/6/130
f 79/10/132 78/10/133 77/11/134
f 78/10/133 79/10/132 41/6/132
f 78/10/133 41/6/132 42/6/133
f 77/11/135 78/10/136 79/10/137
f 41/6/137 79/10/137 78/10/136
f 42/6/136 41/6/137 78/10/136
f 81/11/138 49/6/139 80/10/140
f 49/6/140 81/11/141 52/6/142
f 52/6/142 81/11/141 82/10/142
f 80/10/143 49/6/143 81/11/144
f 52/6/145 81/11/146 49/6/143
f 82/10/145 81/11/146 52/6/145
f 82/10/142 42/6/133 52/6/142
f 42/6/133 82/10/142 83/11/147
f 42/6/133 83/11/147 78/10/133
f 52/6/145 42/6/136 82/10/145
f 83/11/148 82/10/145 42/6/136
f 78/10/136 83/11/148 42/6/136
f 46/6/149 85/11/150 84/10/149
f 85/11/150 46/6/149 41/6/132
f 85/11/150 41/6/132 79/10/132
f 84/10/151 85/11/152 46/6/151
f 41/6/153 46/6/151 85/11/152
f 79/10/137 41/6/137 85/11/152
f 80/10/154 87/10/155 86/11/156
f 87/10/155 80/10/140 49/6/140
f 87/10/155 49/6/140 45/6/155
f 86/11/157 87/10/158 80/10/159
f 49/6/143 80/10/143 87/10/158
f 45/6/158 49/6/143 87/10/158
f 45/6/155 88/11/160 87/10/155
f 88/11/160 45/6/155 46/6/161
f 88/11/160 46/6/149 84/10/149
f 87/10/158 88/11/162 45/6/158
f 46/6/151 45/6/158 88/11/162
f 84/10/151 46/6/151 88/11/162
f 91/10/163 90/10/164 89/11/165
f 90/10/164 91/10/163 75/6/163
f 90/10/164 75/6/163 69/6/164
f 89/11/166 90/10/167 91/10/168
f 75/6/168 91/10/168 90/10/167
f 69/6/167 75/6/169 90/10/167
f 65/6/170 93/11/171 92/10/170
f 93/11/172 65/6/170 66/6/173
f 93/11/172 66/6/174 94/10/173
f 92/10/175 93/11/176 65/6/175
f 66/6/177 65/6/175 93/11/176
f 94/10/177 66/6/177 93/11/176
f 97/10/178 96/10/179 95/11/180
f 96/10/179 97/10/178 71/6/178
f 96/10/181 71/6/178 73/6/179
f 95/11/182 96/10/183 97/10/184
f 71/6/184 97/10/184 96/10/183
f 73/6/185 71/6/184 96/10/185
f 98/11/186 75/6/163 91/10/163
f 75/6/163 98/11/187 73/6/181
f 73/6/179 98/11/186 96/10/179
f 91/10/168 75/6/168 98/11/188
f 73/6/185 98/11/188 75/6/168
f 96/10/185 98/11/188 73/6/185
f 94/10/173 97/10/178 99/11/189
f 97/10/178 94/10/173 66/6/173
f 97/10/178 66/6/173 71/6/178
f 99/11/190 97/10/184 94/10/177
f 66/6/177 94/10/177 97/10/184
f 71/6/184 66/6/177 97/10/184
f 90/10/164 92/10/191 100/11/192
f 92/10/191 90/10/164 69/6/164
f 92/10/170 69/6/164 65/6/170
f 100/11/193 92/10/194 90/10/167
f 69/6/167 90/10/167 92/10/175
f 65/6/194 69/6/167 92/10/194
f 102/11/141 61/6/140 101/10/140
f 61/6/139 102/11/141 59/6/142
f 59/6/142 102/11/195 103/10/142
f 101/10/143 61/6/143 102/11/146
f 59/6/145 102/11/146 61/6/159
f 103/10/145 102/11/196 59/6/145
f 103/10/142 60/6/133 59/6/142
f 60/6/133 103/10/142 104/11/147
f 60/6/133 104/11/147 105/10/133
f 59/6/145 60/6/136 103/10/145
f 104/11/148 103/10/145 60/6/136
f 105/10/136 104/11/148 60/6/136
f 62/6/155 107/11/197 106/10/155
f 107/11/160 62/6/155 53/6/161
f 107/11/197 53/6/149 108/10/149
f 106/10/158 107/11/162 62/6/158
f 53/6/151 62/6/158 107/11/162
f 108/10/151 53/6/151 107/11/198
f 110/10/132 105/10/133 109/11/134
f 105/10/133 110/10/199 54/6/199
f 105/10/133 54/6/132 60/6/133
f 109/11/200 105/10/136 110/10/137
f 54/6/137 110/10/137 105/10/136
f 60/6/136 54/6/137 105/10/136
f 101/10/154 106/10/155 111/11/156
f 106/10/155 101/10/140 61/6/140
f 106/10/155 61/6/140 62/6/155
f 111/11/157 106/10/158 101/10/159
f 61/6/143 101/10/143 106/10/158
f 62/6/158 61/6/201 106/10/158
f 53/6/149 112/11/202 108/10/149
f 112/11/150 53/6/149 54/6/132
f 112/11/203 54/6/132 110/10/199
f 108/10/151 112/11/204 53/6/205
f 54/6/137 53/6/151 112/11/152
f 110/10/137 54/6/153 112/11/206
