# Blender 4.1.1
# www.blender.org
mtllib tree.031.mtl
o tree.031
v -3.310452 -4.606890 6.875428
v -3.151303 -4.606890 6.767887
v -3.443797 -4.606890 6.849624
v -3.125499 -4.606890 6.634541
v -3.551339 -4.606890 6.690475
v -3.233041 -4.606890 6.475392
v -3.525535 -4.606890 6.557130
v -3.366386 -4.606890 6.449588
v -3.244861 -4.259123 6.715197
v -3.324435 -4.259123 6.768968
v -3.391108 -4.259123 6.756066
v -3.231959 -4.259123 6.648525
v -3.285729 -4.259123 6.568950
v -3.352402 -4.259123 6.556048
v -3.431977 -4.259123 6.609819
v -3.444879 -4.259123 6.676492
v -3.355898 -3.737433 6.529433
v -3.455366 -3.737433 6.596647
v -3.471494 -3.737433 6.679987
v -3.221471 -3.737433 6.728370
v -3.320939 -3.737433 6.795583
v -3.272557 -3.737433 6.545561
v -3.205344 -3.737433 6.645029
v -3.404280 -3.737433 6.779456
v -3.210645 -4.134956 6.767754
v -3.284482 -4.134956 6.782841
v -3.169102 -4.134956 6.704875
v -3.184189 -4.134956 6.631039
v -3.347360 -4.134956 6.741298
v -3.247067 -4.134956 6.589496
v -3.362447 -4.134956 6.667461
v -3.320904 -4.134956 6.604583
v -3.179419 -4.261151 6.813965
v -3.114346 -4.261151 6.715472
v -3.295078 -4.261151 6.837597
v -3.393571 -4.261151 6.772524
v -3.137978 -4.261151 6.599812
v -3.417203 -4.261151 6.656865
v -3.236472 -4.261151 6.534739
v -3.352130 -4.261151 6.558372
v -3.552962 -3.737433 7.084897
v -3.820778 -3.737433 6.688560
v -3.467138 -3.162436 6.908556
v -3.625150 -3.162436 6.674716
v -2.866486 -3.737433 6.621025
v -3.075816 -3.737433 7.051130
v -3.062114 -3.162436 6.634870
v -3.185620 -3.162436 6.888633
v -3.134302 -3.737433 6.224689
v -3.220127 -3.162436 6.401029
v -3.501645 -3.162436 6.420952
v -3.611449 -3.737433 6.258455
v -3.189209 -2.544689 6.883321
v -3.464332 -2.544689 6.902792
v -3.308138 -1.896736 6.707319
v -3.371375 -1.896736 6.711794
v -3.379126 -1.896736 6.602266
v -3.406868 -1.896736 6.659268
v -3.498055 -2.544689 6.426264
v -3.618755 -2.544689 6.674263
v -3.222932 -2.544689 6.406794
v -3.068509 -2.544689 6.635322
v -3.315890 -1.896736 6.597790
v -3.280396 -1.896736 6.650317
v -2.993954 -3.162436 6.824979
v -3.316180 -3.162436 7.042716
v -3.183406 -2.544689 6.732774
v -3.331053 -2.544689 6.832543
v -3.021407 -3.162436 6.437056
v -3.195985 -2.544689 6.555023
v -3.665858 -3.162436 6.872529
v -3.491279 -2.544689 6.754562
v -3.693311 -3.162436 6.484606
v -3.503859 -2.544689 6.576811
v -3.371085 -3.162436 6.266869
v -3.356211 -2.544689 6.477041
v -3.762383 -3.916811 6.937754
v -3.873264 -3.827122 6.692274
v -3.575989 -3.827122 7.132208
v -3.111276 -3.827122 6.177377
v -3.379309 -3.916811 6.150663
v -3.640908 -3.827122 6.214859
v -3.798059 -3.916811 6.433624
v -3.046356 -3.827122 7.094727
v -3.307956 -3.916811 7.158922
v -2.924882 -3.916811 6.371831
v -2.814000 -3.827122 6.617311
v -2.889205 -3.916811 6.875960
v -3.163821 -3.308271 6.285340
v -2.985962 -3.235354 6.413105
v -3.374105 -3.235354 6.224197
v -2.955489 -3.235354 6.843700
v -3.113582 -3.308271 6.995240
v -3.313159 -3.235354 7.085388
v -3.753493 -3.308271 6.683798
v -3.731775 -3.235354 6.465885
v -3.701302 -3.235354 6.896481
v -3.573682 -3.308271 6.314345
v -3.523443 -3.308271 7.024246
v -2.933771 -3.308271 6.625787
v -3.209656 -2.596404 6.379514
v -3.364204 -2.648118 6.364111
v -3.515042 -2.596404 6.401126
v -3.605656 -2.648118 6.527267
v -3.649019 -2.596404 6.676405
v -3.038245 -2.596404 6.633181
v -3.081609 -2.648118 6.782318
v -3.172222 -2.596404 6.908459
v -3.585084 -2.648118 6.817949
v -3.477609 -2.596404 6.930071
v -3.102180 -2.648118 6.491637
v -3.323061 -2.648118 6.945475
vn -0.0000 -1.0000 -0.0000
vn 0.7944 0.2942 0.5314
vn 0.1870 0.2944 0.9372
vn 0.7998 0.2944 0.5231
vn 0.1967 0.2942 0.9353
vn -0.5313 0.2942 0.7944
vn 0.1966 0.2942 0.9353
vn -0.5313 0.2943 0.7944
vn -0.5231 0.2944 0.7998
vn 0.9353 0.2942 -0.1966
vn 0.9372 0.2944 -0.1870
vn 0.7944 0.2942 0.5313
vn 0.5314 0.2942 -0.7944
vn 0.5231 0.2944 -0.7998
vn 0.9353 0.2942 -0.1967
vn -0.7998 0.2944 -0.5232
vn -0.1967 0.2942 -0.9353
vn -0.1870 0.2944 -0.9372
vn -0.7998 0.2944 -0.5231
vn -0.7944 0.2942 -0.5314
vn -0.5314 0.2942 0.7944
vn -0.9372 0.2944 0.1870
vn -0.9353 0.2942 0.1967
vn 0.5313 0.2943 -0.7944
vn 0.5313 0.2942 -0.7944
vn -0.1966 0.2942 -0.9353
vn -0.9353 0.2942 0.1966
vn -0.7944 0.2942 -0.5313
vn -0.2009 -0.0513 -0.9783
vn -0.8337 -0.0512 -0.5498
vn -0.1991 -0.0513 -0.9786
vn -0.8337 -0.0513 -0.5498
vn -0.8327 -0.0513 -0.5513
vn -0.9783 -0.0512 0.2008
vn -0.8328 -0.0512 -0.5513
vn -0.9783 -0.0513 0.2008
vn -0.9786 -0.0512 0.1991
vn 0.1991 -0.0512 0.9786
vn 0.8327 -0.0513 0.5513
vn 0.8337 -0.0513 0.5498
vn 0.2009 -0.0513 0.9783
vn 0.5498 -0.0513 -0.8337
vn 0.9783 -0.0513 -0.2009
vn 0.5513 -0.0513 -0.8327
vn 0.5498 -0.0512 -0.8337
vn 0.9786 -0.0513 -0.1991
vn 0.1991 -0.0513 0.9786
vn -0.5512 -0.0513 0.8328
vn 0.2008 -0.0512 0.9783
vn -0.5513 -0.0513 0.8328
vn -0.5498 -0.0513 0.8337
vn 0.5513 -0.0513 -0.8328
vn -0.1991 -0.0512 -0.9786
vn 0.5512 -0.0513 -0.8328
vn -0.2008 -0.0512 -0.9783
vn 0.9783 -0.0513 -0.2008
vn 0.9786 -0.0512 -0.1991
vn 0.9783 -0.0512 -0.2008
vn 0.8328 -0.0512 0.5513
vn -0.9783 -0.0513 0.2009
vn -0.5513 -0.0513 0.8327
vn -0.5498 -0.0512 0.8337
vn -0.9786 -0.0513 0.1991
vn -0.0000 1.0000 -0.0000
vn 0.8980 0.4042 0.1738
vn 0.5121 0.4042 0.7578
vn 0.5121 0.4043 0.7578
vn -0.7579 0.4042 0.5121
vn -0.8980 0.4042 -0.1737
vn -0.8980 0.4042 -0.1738
vn -0.8980 0.4043 -0.1738
vn -0.5121 0.4042 -0.7579
vn -0.5121 0.4043 -0.7578
vn -0.5121 0.4042 -0.7578
vn 0.7579 0.4042 -0.5121
vn 0.8980 0.4042 0.1737
vn 0.8980 0.4043 0.1737
vn -0.1738 0.4042 0.8980
vn -0.7578 0.4043 0.5121
vn 0.1738 0.4042 -0.8980
vn 0.7578 0.4042 -0.5121
vn 0.7578 0.4043 -0.5121
vn -0.1737 0.4042 0.8980
vn 0.5121 0.4043 0.7579
vn 0.5121 0.4042 0.7579
vn 0.1737 0.4042 -0.8980
vn -0.5121 0.4043 -0.7579
vn -0.4142 0.3228 0.8510
vn -0.9441 0.3228 0.0668
vn 0.9441 0.3228 -0.0668
vn 0.5299 0.3228 0.7842
vn 0.4142 0.3228 -0.8510
vn -0.5299 0.3228 -0.7842
vn 0.3851 0.7260 0.5698
vn -0.4158 0.3115 0.8544
vn 0.5320 0.3115 0.7874
vn -0.3010 0.7260 0.6184
vn -0.5320 0.3115 -0.7873
vn -0.6860 0.7260 0.0486
vn -0.3850 0.7260 -0.5699
vn -0.9479 0.3115 0.0671
vn 0.3009 0.7260 -0.6184
vn 0.9479 0.3115 -0.0671
vn 0.4159 0.3115 -0.8544
vn 0.6860 0.7260 -0.0485
vn 0.6860 0.7260 -0.0486
vn 0.5320 0.3115 0.7873
vn 0.3850 0.7260 0.5699
vn 0.6860 0.7259 -0.0485
vn -0.3009 0.7259 0.6184
vn 0.3850 0.7259 0.5699
vn -0.3010 0.7259 0.6184
vn -0.6860 0.7259 0.0485
vn 0.3010 0.7259 -0.6184
vn -0.3850 0.7259 -0.5699
vn -0.5320 0.3116 -0.7873
vn 0.3010 0.7260 -0.6184
vn 0.4158 0.3115 -0.8544
vn 0.3009 0.7260 -0.6183
vn -0.3850 0.7260 -0.5698
vn -0.3009 0.7260 0.6184
vn -0.4159 0.3115 0.8544
vn -0.6860 0.7260 0.0485
vn 0.8510 0.3228 0.4142
vn 0.0668 0.3228 0.9441
vn 0.7842 0.3228 -0.5299
vn -0.7842 0.3228 0.5299
vn -0.8510 0.3228 -0.4142
vn -0.0668 0.3228 -0.9441
vn -0.3775 0.5060 0.7755
vn -0.8604 0.5060 0.0609
vn -0.7387 0.4530 0.4992
vn 0.7387 -0.4530 -0.4992
vn 0.8604 -0.5060 -0.0609
vn 0.3775 -0.5060 -0.7755
vn -0.0629 0.4530 -0.8893
vn 0.3774 0.5060 -0.7755
vn 0.3775 0.5060 -0.7756
vn -0.4829 0.5060 -0.7147
vn -0.3775 -0.5060 0.7756
vn -0.3775 -0.5060 0.7755
vn 0.0629 -0.4530 0.8893
vn 0.4829 -0.5060 0.7147
vn -0.8016 0.4530 -0.3902
vn 0.8016 -0.4530 0.3902
vn 0.4829 0.5060 0.7147
vn 0.0629 0.4529 0.8893
vn 0.0629 0.4530 0.8893
vn -0.3774 0.5060 0.7755
vn -0.4829 -0.5060 -0.7147
vn -0.0629 -0.4530 -0.8893
vn 0.3775 -0.5060 -0.7756
vn 0.8604 0.5060 -0.0609
vn 0.7387 0.4530 -0.4992
vn 0.3775 0.5060 -0.7755
vn -0.7387 -0.4530 0.4992
vn -0.8604 -0.5060 0.0609
vn 0.8016 0.4530 0.3901
vn 0.4829 0.5060 0.7146
vn 0.8016 0.4530 0.3902
vn -0.8016 -0.4530 -0.3901
vn -0.8016 -0.4530 -0.3902
vn -0.0609 0.5060 -0.8604
vn 0.7146 0.5060 -0.4829
vn 0.3901 0.4530 -0.8016
vn 0.7147 0.5060 -0.4829
vn -0.3901 -0.4530 0.8016
vn -0.7147 -0.5060 0.4829
vn 0.0609 -0.5060 0.8604
vn 0.7755 0.5060 0.3775
vn 0.4992 0.4530 0.7387
vn 0.7756 0.5060 0.3775
vn 0.0609 0.5060 0.8604
vn -0.7755 -0.5060 -0.3775
vn -0.4992 -0.4530 -0.7387
vn -0.0609 -0.5060 -0.8604
vn -0.7147 0.5060 0.4829
vn -0.7755 0.5060 -0.3775
vn -0.8893 0.4530 0.0629
vn -0.7756 0.5060 -0.3775
vn 0.8893 -0.4530 -0.0629
vn 0.7756 -0.5060 0.3775
vn 0.7147 -0.5060 -0.4829
vn -0.4992 0.4530 -0.7387
vn -0.7755 0.5060 -0.3774
vn 0.4992 -0.4530 0.7387
vn 0.7755 -0.5060 0.3775
vn 0.7755 -0.5060 0.3774
vn -0.7146 0.5060 0.4829
vn -0.3901 0.4530 0.8016
vn 0.3901 -0.4530 -0.8016
vn 0.7755 0.5060 0.3774
vn 0.8893 0.4530 -0.0629
vn -0.8893 -0.4530 0.0629
vn -0.7756 -0.5060 -0.3775
vn -0.0629 0.4529 -0.8893
vn 0.0629 -0.4529 0.8893
vn -0.8016 0.4529 -0.3901
vn 0.8016 -0.4529 0.3901
vn -0.3775 0.5060 0.7756
vn -0.3774 -0.5060 0.7755
vn -0.0629 -0.4529 -0.8893
vt 0.593750 0.025000
vt 0.593750 0.104996
vt 0.593750 0.225000
vt 0.093750 0.475000
vt 0.093750 0.275000
vt 0.093750 0.425000
vt 0.093750 0.348778
vt 0.093750 0.338765
vt 0.093750 0.344099
vt 0.093750 0.375000
vt 0.093750 0.325000
s 0
usemtl colormap.002
f 3/1/1 2/1/1 1/1/1
f 2/1/1 3/1/1 4/1/1
f 4/1/1 3/1/1 5/1/1
f 4/1/1 5/1/1 6/1/1
f 6/1/1 5/1/1 7/1/1
f 6/1/1 7/1/1 8/1/1
f 9/2/2 1/1/3 2/1/4
f 1/1/3 9/2/2 10/2/5
f 11/2/6 1/1/3 10/2/7
f 1/1/3 11/2/8 3/1/9
f 12/2/10 2/1/4 4/1/11
f 2/1/4 12/2/10 9/2/12
f 13/2/13 4/1/11 6/1/14
f 4/1/11 13/2/13 12/2/15
f 7/1/16 14/2/17 8/1/18
f 14/2/17 7/1/19 15/2/20
f 11/2/21 5/1/22 3/1/9
f 5/1/22 11/2/21 16/2/23
f 8/1/18 13/2/24 6/1/14
f 13/2/25 8/1/18 14/2/26
f 7/1/19 16/2/27 15/2/28
f 16/2/27 7/1/19 5/1/22
f 14/2/29 18/3/30 17/3/31
f 18/3/32 14/2/29 15/2/33
f 16/2/34 18/3/32 15/2/35
f 18/3/32 16/2/36 19/3/37
f 21/3/38 9/2/39 20/3/40
f 9/2/39 21/3/38 10/2/41
f 22/3/42 12/2/43 13/2/44
f 12/2/43 22/3/45 23/3/46
f 21/3/47 11/2/48 10/2/49
f 11/2/50 21/3/38 24/3/51
f 13/2/52 17/3/53 22/3/42
f 17/3/31 13/2/54 14/2/55
f 20/3/40 12/2/56 23/3/57
f 12/2/58 20/3/40 9/2/59
f 24/3/51 16/2/60 11/2/61
f 16/2/36 24/3/62 19/3/63
f 27/4/64 26/4/64 25/4/64
f 26/4/64 27/4/64 28/4/64
f 26/4/64 28/4/64 29/4/64
f 29/4/64 28/4/64 30/4/64
f 29/4/64 30/4/64 31/4/64
f 31/4/64 30/4/64 32/4/64
f 35/5/1 34/5/1 33/5/1
f 34/5/1 35/5/1 36/5/1
f 34/5/1 36/5/1 37/5/1
f 37/5/1 36/5/1 38/5/1
f 37/5/1 38/5/1 39/5/1
f 39/5/1 38/5/1 40/5/1
f 27/4/65 33/5/66 34/5/65
f 33/5/66 27/4/65 25/4/67
f 29/4/68 38/5/69 36/5/68
f 38/5/70 29/4/68 31/4/71
f 40/5/72 31/4/70 32/4/73
f 31/4/70 40/5/74 38/5/70
f 28/4/75 34/5/76 37/5/75
f 34/5/76 28/4/75 27/4/77
f 26/4/78 36/5/68 35/5/78
f 36/5/68 26/4/78 29/4/79
f 30/4/80 37/5/81 39/5/80
f 37/5/75 30/4/80 28/4/82
f 26/4/83 33/5/84 25/4/85
f 33/5/85 26/4/83 35/5/83
f 40/5/72 30/4/86 39/5/86
f 30/4/86 40/5/87 32/4/72
f 43/6/88 42/7/89 41/7/88
f 42/7/89 43/6/88 44/6/89
f 47/6/90 46/7/91 45/7/90
f 46/7/91 47/6/90 48/6/91
f 50/6/92 45/7/90 49/7/92
f 45/7/90 50/6/92 47/6/90
f 48/6/91 41/7/88 46/7/91
f 41/7/88 48/6/91 43/6/88
f 52/7/93 44/6/89 51/6/93
f 44/6/89 52/7/93 42/7/89
f 52/7/93 50/6/92 49/7/92
f 50/6/92 52/7/93 51/6/93
f 41/7/1 45/7/1 46/7/1
f 45/7/1 41/7/1 42/7/1
f 45/7/1 42/7/1 49/7/1
f 49/7/1 42/7/1 52/7/1
f 55/6/94 54/8/95 53/8/96
f 54/8/95 55/6/94 56/6/97
f 59/8/98 58/6/99 57/6/100
f 58/6/99 59/8/98 60/8/101
f 63/6/102 62/8/103 61/8/104
f 62/8/103 63/6/102 64/6/105
f 64/6/106 53/8/107 62/8/103
f 53/8/107 64/6/106 55/6/108
f 64/6/109 56/6/110 55/6/111
f 56/6/112 64/6/109 58/6/113
f 58/6/113 64/6/109 63/6/114
f 58/6/113 63/6/102 57/6/115
f 59/8/116 63/6/117 61/8/118
f 63/6/119 59/8/98 57/6/120
f 54/8/1 62/8/1 53/8/1
f 62/8/1 54/8/1 60/8/1
f 62/8/1 60/8/1 61/8/1
f 61/8/1 60/8/1 59/8/1
f 56/6/121 60/8/101 54/8/122
f 60/8/101 56/6/121 58/6/123
f 67/6/124 66/9/125 65/9/124
f 66/9/125 67/6/124 68/6/125
f 70/6/126 65/9/124 69/9/126
f 65/9/124 70/6/126 67/6/124
f 68/6/125 71/9/127 66/9/125
f 71/9/127 68/6/125 72/6/127
f 72/6/127 73/9/128 71/9/127
f 73/9/128 72/6/127 74/6/128
f 71/9/1 65/9/1 66/9/1
f 65/9/1 71/9/1 69/9/1
f 69/9/1 71/9/1 73/9/1
f 69/9/1 73/9/1 75/9/1
f 76/6/129 69/9/126 75/9/129
f 69/9/126 76/6/129 70/6/126
f 73/9/128 76/6/129 75/9/129
f 76/6/129 73/9/128 74/6/128
f 79/10/130 78/10/131 77/11/132
f 78/10/131 79/10/130 41/6/130
f 78/10/131 41/6/130 42/6/131
f 77/11/133 78/10/134 79/10/135
f 41/6/135 79/10/135 78/10/134
f 42/6/134 41/6/135 78/10/134
f 81/11/136 49/6/137 80/10/138
f 49/6/137 81/11/136 52/6/139
f 52/6/139 81/11/136 82/10/139
f 80/10/140 49/6/141 81/11/142
f 52/6/143 81/11/142 49/6/140
f 82/10/143 81/11/142 52/6/143
f 82/10/139 42/6/131 52/6/139
f 42/6/131 82/10/139 83/11/144
f 42/6/131 83/11/144 78/10/131
f 52/6/143 42/6/134 82/10/143
f 83/11/145 82/10/143 42/6/134
f 78/10/134 83/11/145 42/6/134
f 46/6/146 85/11/147 84/10/146
f 85/11/148 46/6/146 41/6/149
f 85/11/148 41/6/130 79/10/130
f 84/10/150 85/11/151 46/6/150
f 41/6/152 46/6/150 85/11/151
f 79/10/152 41/6/135 85/11/151
f 80/10/137 87/10/153 86/11/154
f 87/10/153 80/10/138 49/6/138
f 87/10/153 49/6/155 45/6/153
f 86/11/156 87/10/157 80/10/141
f 49/6/141 80/10/141 87/10/157
f 45/6/157 49/6/141 87/10/157
f 45/6/153 88/11/158 87/10/153
f 88/11/158 45/6/153 46/6/159
f 88/11/160 46/6/146 84/10/146
f 87/10/157 88/11/161 45/6/157
f 46/6/150 45/6/157 88/11/161
f 84/10/150 46/6/150 88/11/162
f 91/10/163 90/10/164 89/11/165
f 90/10/166 91/10/163 75/6/163
f 90/10/166 75/6/163 69/6/166
f 89/11/167 90/10/168 91/10/169
f 75/6/169 91/10/169 90/10/168
f 69/6/168 75/6/169 90/10/168
f 65/6/170 93/11/171 92/10/172
f 93/11/171 65/6/172 66/6/173
f 93/11/171 66/6/173 94/10/173
f 92/10/174 93/11/175 65/6/174
f 66/6/176 65/6/174 93/11/175
f 94/10/176 66/6/176 93/11/175
f 97/10/177 96/10/178 95/11/179
f 96/10/180 97/10/177 71/6/177
f 96/10/180 71/6/177 73/6/180
f 95/11/181 96/10/182 97/10/183
f 71/6/183 97/10/183 96/10/182
f 73/6/182 71/6/183 96/10/182
f 98/11/184 75/6/163 91/10/163
f 75/6/163 98/11/184 73/6/180
f 73/6/185 98/11/184 96/10/180
f 91/10/169 75/6/169 98/11/186
f 73/6/187 98/11/186 75/6/169
f 96/10/187 98/11/186 73/6/188
f 94/10/173 97/10/189 99/11/190
f 97/10/177 94/10/173 66/6/173
f 97/10/177 66/6/173 71/6/177
f 99/11/191 97/10/183 94/10/176
f 66/6/176 94/10/176 97/10/183
f 71/6/183 66/6/176 97/10/183
f 90/10/166 92/10/192 100/11/193
f 92/10/172 90/10/166 69/6/166
f 92/10/172 69/6/166 65/6/172
f 100/11/194 92/10/195 90/10/168
f 69/6/168 90/10/168 92/10/195
f 65/6/195 69/6/168 92/10/195
f 102/11/196 61/6/137 101/10/138
f 61/6/137 102/11/136 59/6/139
f 59/6/139 102/11/196 103/10/139
f 101/10/140 61/6/141 102/11/142
f 59/6/143 102/11/142 61/6/140
f 103/10/143 102/11/197 59/6/143
f 103/10/139 60/6/131 59/6/139
f 60/6/131 103/10/139 104/11/144
f 60/6/131 104/11/198 105/10/131
f 59/6/143 60/6/134 103/10/143
f 104/11/145 103/10/143 60/6/134
f 105/10/134 104/11/199 60/6/134
f 62/6/153 107/11/160 106/10/153
f 107/11/160 62/6/153 53/6/159
f 107/11/158 53/6/159 108/10/146
f 106/10/157 107/11/162 62/6/157
f 53/6/150 62/6/157 107/11/162
f 108/10/150 53/6/150 107/11/162
f 110/10/130 105/10/131 109/11/132
f 105/10/131 110/10/200 54/6/200
f 105/10/131 54/6/130 60/6/131
f 109/11/133 105/10/134 110/10/135
f 54/6/135 110/10/152 105/10/134
f 60/6/134 54/6/135 105/10/134
f 101/10/155 106/10/153 111/11/154
f 106/10/153 101/10/138 61/6/138
f 106/10/153 61/6/155 62/6/153
f 111/11/156 106/10/157 101/10/141
f 61/6/140 101/10/140 106/10/157
f 62/6/157 61/6/201 106/10/157
f 53/6/146 112/11/148 108/10/146
f 112/11/148 53/6/146 54/6/149
f 112/11/147 54/6/130 110/10/200
f 108/10/150 112/11/202 53/6/150
f 54/6/152 53/6/150 112/11/151
f 110/10/152 54/6/135 112/11/202
f 3/1/1 2/1/1 1/1/1
f 2/1/1 3/1/1 4/1/1
f 4/1/1 3/1/1 5/1/1
f 4/1/1 5/1/1 6/1/1
f 6/1/1 5/1/1 7/1/1
f 6/1/1 7/1/1 8/1/1
f 9/2/2 1/1/3 2/1/4
f 1/1/3 9/2/2 10/2/5
f 11/2/6 1/1/3 10/2/7
f 1/1/3 11/2/8 3/1/9
f 12/2/10 2/1/4 4/1/11
f 2/1/4 12/2/10 9/2/12
f 13/2/13 4/1/11 6/1/14
f 4/1/11 13/2/13 12/2/15
f 7/1/16 14/2/17 8/1/18
f 14/2/17 7/1/19 15/2/20
f 11/2/21 5/1/22 3/1/9
f 5/1/22 11/2/21 16/2/23
f 8/1/18 13/2/24 6/1/14
f 13/2/25 8/1/18 14/2/26
f 7/1/19 16/2/27 15/2/28
f 16/2/27 7/1/19 5/1/22
f 14/2/29 18/3/30 17/3/31
f 18/3/32 14/2/29 15/2/33
f 16/2/34 18/3/32 15/2/35
f 18/3/32 16/2/36 19/3/37
f 21/3/38 9/2/39 20/3/40
f 9/2/39 21/3/38 10/2/41
f 22/3/42 12/2/43 13/2/44
f 12/2/43 22/3/45 23/3/46
f 21/3/47 11/2/48 10/2/49
f 11/2/50 21/3/38 24/3/51
f 13/2/52 17/3/53 22/3/42
f 17/3/31 13/2/54 14/2/55
f 20/3/40 12/2/56 23/3/57
f 12/2/58 20/3/40 9/2/59
f 24/3/51 16/2/60 11/2/61
f 16/2/36 24/3/62 19/3/63
f 27/4/64 26/4/64 25/4/64
f 26/4/64 27/4/64 28/4/64
f 26/4/64 28/4/64 29/4/64
f 29/4/64 28/4/64 30/4/64
f 29/4/64 30/4/64 31/4/64
f 31/4/64 30/4/64 32/4/64
f 35/5/1 34/5/1 33/5/1
f 34/5/1 35/5/1 36/5/1
f 34/5/1 36/5/1 37/5/1
f 37/5/1 36/5/1 38/5/1
f 37/5/1 38/5/1 39/5/1
f 39/5/1 38/5/1 40/5/1
f 27/4/65 33/5/66 34/5/65
f 33/5/66 27/4/65 25/4/67
f 29/4/68 38/5/69 36/5/68
f 38/5/70 29/4/68 31/4/71
f 40/5/72 31/4/70 32/4/73
f 31/4/70 40/5/74 38/5/70
f 28/4/75 34/5/76 37/5/75
f 34/5/76 28/4/75 27/4/77
f 26/4/78 36/5/68 35/5/78
f 36/5/68 26/4/78 29/4/79
f 30/4/80 37/5/81 39/5/80
f 37/5/75 30/4/80 28/4/82
f 26/4/83 33/5/84 25/4/85
f 33/5/85 26/4/83 35/5/83
f 40/5/72 30/4/86 39/5/86
f 30/4/86 40/5/87 32/4/72
f 43/6/88 42/7/89 41/7/88
f 42/7/89 43/6/88 44/6/89
f 47/6/90 46/7/91 45/7/90
f 46/7/91 47/6/90 48/6/91
f 50/6/92 45/7/90 49/7/92
f 45/7/90 50/6/92 47/6/90
f 48/6/91 41/7/88 46/7/91
f 41/7/88 48/6/91 43/6/88
f 52/7/93 44/6/89 51/6/93
f 44/6/89 52/7/93 42/7/89
f 52/7/93 50/6/92 49/7/92
f 50/6/92 52/7/93 51/6/93
f 41/7/1 45/7/1 46/7/1
f 45/7/1 41/7/1 42/7/1
f 45/7/1 42/7/1 49/7/1
f 49/7/1 42/7/1 52/7/1
f 55/6/94 54/8/95 53/8/96
f 54/8/95 55/6/94 56/6/97
f 59/8/98 58/6/99 57/6/100
f 58/6/99 59/8/98 60/8/101
f 63/6/102 62/8/103 61/8/104
f 62/8/103 63/6/102 64/6/105
f 64/6/106 53/8/107 62/8/103
f 53/8/107 64/6/106 55/6/108
f 64/6/109 56/6/110 55/6/111
f 56/6/112 64/6/109 58/6/113
f 58/6/113 64/6/109 63/6/114
f 58/6/113 63/6/102 57/6/115
f 59/8/116 63/6/117 61/8/118
f 63/6/119 59/8/98 57/6/120
f 54/8/1 62/8/1 53/8/1
f 62/8/1 54/8/1 60/8/1
f 62/8/1 60/8/1 61/8/1
f 61/8/1 60/8/1 59/8/1
f 56/6/121 60/8/101 54/8/122
f 60/8/101 56/6/121 58/6/123
f 67/6/124 66/9/125 65/9/124
f 66/9/125 67/6/124 68/6/125
f 70/6/126 65/9/124 69/9/126
f 65/9/124 70/6/126 67/6/124
f 68/6/125 71/9/127 66/9/125
f 71/9/127 68/6/125 72/6/127
f 72/6/127 73/9/128 71/9/127
f 73/9/128 72/6/127 74/6/128
f 71/9/1 65/9/1 66/9/1
f 65/9/1 71/9/1 69/9/1
f 69/9/1 71/9/1 73/9/1
f 69/9/1 73/9/1 75/9/1
f 76/6/129 69/9/126 75/9/129
f 69/9/126 76/6/129 70/6/126
f 73/9/128 76/6/129 75/9/129
f 76/6/129 73/9/128 74/6/128
f 79/10/130 78/10/131 77/11/132
f 78/10/131 79/10/130 41/6/130
f 78/10/131 41/6/130 42/6/131
f 77/11/133 78/10/134 79/10/135
f 41/6/135 79/10/135 78/10/134
f 42/6/134 41/6/135 78/10/134
f 81/11/136 49/6/137 80/10/138
f 49/6/137 81/11/136 52/6/139
f 52/6/139 81/11/136 82/10/139
f 80/10/140 49/6/141 81/11/142
f 52/6/143 81/11/142 49/6/140
f 82/10/143 81/11/142 52/6/143
f 82/10/139 42/6/131 52/6/139
f 42/6/131 82/10/139 83/11/144
f 42/6/131 83/11/144 78/10/131
f 52/6/143 42/6/134 82/10/143
f 83/11/145 82/10/143 42/6/134
f 78/10/134 83/11/145 42/6/134
f 46/6/146 85/11/147 84/10/146
f 85/11/148 46/6/146 41/6/149
f 85/11/148 41/6/130 79/10/130
f 84/10/150 85/11/151 46/6/150
f 41/6/152 46/6/150 85/11/151
f 79/10/152 41/6/135 85/11/151
f 80/10/137 87/10/153 86/11/154
f 87/10/153 80/10/138 49/6/138
f 87/10/153 49/6/155 45/6/153
f 86/11/156 87/10/157 80/10/141
f 49/6/141 80/10/141 87/10/157
f 45/6/157 49/6/141 87/10/157
f 45/6/153 88/11/158 87/10/153
f 88/11/158 45/6/153 46/6/159
f 88/11/160 46/6/146 84/10/146
f 87/10/157 88/11/161 45/6/157
f 46/6/150 45/6/157 88/11/161
f 84/10/150 46/6/150 88/11/162
f 91/10/163 90/10/164 89/11/165
f 90/10/166 91/10/163 75/6/163
f 90/10/166 75/6/163 69/6/166
f 89/11/167 90/10/168 91/10/169
f 75/6/169 91/10/169 90/10/168
f 69/6/168 75/6/169 90/10/168
f 65/6/170 93/11/171 92/10/172
f 93/11/171 65/6/172 66/6/173
f 93/11/171 66/6/173 94/10/173
f 92/10/174 93/11/175 65/6/174
f 66/6/176 65/6/174 93/11/175
f 94/10/176 66/6/176 93/11/175
f 97/10/177 96/10/178 95/11/179
f 96/10/180 97/10/177 71/6/177
f 96/10/180 71/6/177 73/6/180
f 95/11/181 96/10/182 97/10/183
f 71/6/183 97/10/183 96/10/182
f 73/6/182 71/6/183 96/10/182
f 98/11/184 75/6/163 91/10/163
f 75/6/163 98/11/184 73/6/180
f 73/6/185 98/11/184 96/10/180
f 91/10/169 75/6/169 98/11/186
f 73/6/187 98/11/186 75/6/169
f 96/10/187 98/11/186 73/6/188
f 94/10/173 97/10/189 99/11/190
f 97/10/177 94/10/173 66/6/173
f 97/10/177 66/6/173 71/6/177
f 99/11/191 97/10/183 94/10/176
f 66/6/176 94/10/176 97/10/183
f 71/6/183 66/6/176 97/10/183
f 90/10/166 92/10/192 100/11/193
f 92/10/172 90/10/166 69/6/166
f 92/10/172 69/6/166 65/6/172
f 100/11/194 92/10/195 90/10/168
f 69/6/168 90/10/168 92/10/195
f 65/6/195 69/6/168 92/10/195
f 102/11/196 61/6/137 101/10/138
f 61/6/137 102/11/136 59/6/139
f 59/6/139 102/11/196 103/10/139
f 101/10/140 61/6/141 102/11/142
f 59/6/143 102/11/142 61/6/140
f 103/10/143 102/11/197 59/6/143
f 103/10/139 60/6/131 59/6/139
f 60/6/131 103/10/139 104/11/144
f 60/6/131 104/11/198 105/10/131
f 59/6/143 60/6/134 103/10/143
f 104/11/145 103/10/143 60/6/134
f 105/10/134 104/11/199 60/6/134
f 62/6/153 107/11/160 106/10/153
f 107/11/160 62/6/153 53/6/159
f 107/11/158 53/6/159 108/10/146
f 106/10/157 107/11/162 62/6/157
f 53/6/150 62/6/157 107/11/162
f 108/10/150 53/6/150 107/11/162
f 110/10/130 105/10/131 109/11/132
f 105/10/131 110/10/200 54/6/200
f 105/10/131 54/6/130 60/6/131
f 109/11/133 105/10/134 110/10/135
f 54/6/135 110/10/152 105/10/134
f 60/6/134 54/6/135 105/10/134
f 101/10/155 106/10/153 111/11/154
f 106/10/153 101/10/138 61/6/138
f 106/10/153 61/6/155 62/6/153
f 111/11/156 106/10/157 101/10/141
f 61/6/140 101/10/140 106/10/157
f 62/6/157 61/6/201 106/10/157
f 53/6/146 112/11/148 108/10/146
f 112/11/148 53/6/146 54/6/149
f 112/11/147 54/6/130 110/10/200
f 108/10/150 112/11/202 53/6/150
f 54/6/152 53/6/150 112/11/151
f 110/10/152 54/6/135 112/11/202
