# Blender 4.1.1
# www.blender.org
mtllib tree.031.mtl
o tree.031
v -3.129187 -0.217703 6.498929
v -2.978754 -0.217703 6.397277
v -3.255229 -0.217703 6.474538
v -2.954363 -0.217703 6.271234
v -3.356882 -0.217703 6.324105
v -3.056015 -0.217703 6.120801
v -3.332491 -0.217703 6.198062
v -3.182058 -0.217703 6.096411
v -3.067188 0.111018 6.347473
v -3.142405 0.111018 6.398299
v -3.205426 0.111018 6.386104
v -3.054993 0.111018 6.284452
v -3.105819 0.111018 6.209236
v -3.168840 0.111018 6.197041
v -3.244056 0.111018 6.247867
v -3.256252 0.111018 6.310888
v -3.172145 0.604137 6.171883
v -3.266165 0.604137 6.235415
v -3.281409 0.604137 6.314192
v -3.045080 0.604137 6.359924
v -3.139100 0.604137 6.423457
v -3.093368 0.604137 6.187127
v -3.029835 0.604137 6.281147
v -3.217877 0.604137 6.408213
v -3.034847 0.228384 6.397151
v -3.104639 0.228384 6.411412
v -2.995579 0.228384 6.337717
v -3.009839 0.228384 6.267923
v -3.164074 0.228384 6.372145
v -3.069274 0.228384 6.228656
v -3.178335 0.228384 6.302351
v -3.139067 0.228384 6.242917
v -3.005330 0.109101 6.440832
v -2.943821 0.109101 6.347733
v -3.114655 0.109101 6.463170
v -3.207754 0.109101 6.401660
v -2.966159 0.109101 6.238407
v -3.230092 0.109101 6.292336
v -3.059259 0.109101 6.176898
v -3.168583 0.109101 6.199236
v -3.358416 0.604137 6.696925
v -3.611565 0.604137 6.322294
v -3.277292 1.147643 6.530242
v -3.426651 1.147643 6.309209
v -2.709536 0.604137 6.258459
v -2.907402 0.604137 6.665008
v -2.894450 1.147643 6.271545
v -3.011192 1.147643 6.511410
v -2.962685 0.604137 5.883828
v -3.043809 1.147643 6.050511
v -3.309909 1.147643 6.069343
v -3.413700 0.604137 5.915745
v -3.014584 1.731559 6.506389
v -3.274640 1.731559 6.524794
v -3.127001 2.344026 6.340027
v -3.186774 2.344026 6.344257
v -3.194100 2.344026 6.240727
v -3.220324 2.344026 6.294607
v -3.306516 1.731559 6.074364
v -3.420606 1.731559 6.308780
v -3.046461 1.731559 6.055960
v -2.900495 1.731559 6.271973
v -3.134327 2.344026 6.236496
v -3.100777 2.344026 6.286146
v -2.830023 1.147643 6.451243
v -3.134601 1.147643 6.657055
v -3.009099 1.731559 6.364087
v -3.148660 1.731559 6.458393
v -2.855972 1.147643 6.084564
v -3.020989 1.731559 6.196071
v -3.465129 1.147643 6.496189
v -3.300112 1.731559 6.384682
v -3.491078 1.147643 6.129510
v -3.312002 1.731559 6.216666
v -3.186500 1.147643 5.923698
v -3.172441 1.731559 6.122360
v -3.556367 0.434583 6.557841
v -3.661176 0.519360 6.325805
v -3.380181 0.519360 6.741646
v -2.940920 0.519360 5.839108
v -3.194274 0.434583 5.813857
v -3.441546 0.519360 5.874536
v -3.590090 0.434583 6.081321
v -2.879555 0.519360 6.706217
v -3.126827 0.434583 6.766897
v -2.764734 0.434583 6.022912
v -2.659924 0.519360 6.254948
v -2.731011 0.434583 6.499432
v -2.990587 1.009795 5.941157
v -2.822469 1.078719 6.061925
v -3.189354 1.078719 5.883364
v -2.793665 1.078719 6.468939
v -2.943099 1.009795 6.612179
v -3.131747 1.078719 6.697390
v -3.547965 1.009795 6.317794
v -3.527436 1.078719 6.111815
v -3.498632 1.078719 6.518828
v -3.378001 1.009795 5.968574
v -3.330514 1.009795 6.639596
v -2.773136 1.009795 6.262959
v -3.033911 1.682676 6.030174
v -3.179995 1.633794 6.015615
v -3.322573 1.682676 6.050602
v -3.408224 1.633794 6.169836
v -3.449212 1.682676 6.310805
v -2.871889 1.682676 6.269948
v -2.912877 1.633794 6.410918
v -2.998528 1.682676 6.530151
v -3.388779 1.633794 6.444598
v -3.287190 1.682676 6.550579
v -2.932322 1.633794 6.136156
v -3.141106 1.633794 6.565139
vn -0.0000 -1.0000 -0.0000
vn 0.7944 0.2942 0.5314
vn 0.1870 0.2944 0.9372
vn 0.7998 0.2944 0.5231
vn 0.1967 0.2942 0.9353
vn -0.5313 0.2942 0.7944
vn 0.1966 0.2942 0.9353
vn -0.5313 0.2943 0.7944
vn -0.5231 0.2944 0.7998
vn 0.9353 0.2942 -0.1966
vn 0.9372 0.2944 -0.1870
vn 0.7944 0.2942 0.5313
vn 0.5314 0.2942 -0.7944
vn 0.5231 0.2944 -0.7998
vn 0.9353 0.2942 -0.1967
vn -0.7998 0.2944 -0.5232
vn -0.1967 0.2942 -0.9353
vn -0.1870 0.2944 -0.9372
vn -0.7944 0.2942 -0.5314
vn -0.5314 0.2942 0.7944
vn -0.9372 0.2944 0.1870
vn -0.9353 0.2942 0.1967
vn 0.5313 0.2943 -0.7944
vn 0.5313 0.2942 -0.7944
vn -0.1966 0.2942 -0.9353
vn -0.7998 0.2944 -0.5231
vn -0.9353 0.2942 0.1966
vn -0.7944 0.2942 -0.5313
vn -0.2008 -0.0513 -0.9783
vn -0.8337 -0.0512 -0.5498
vn -0.1991 -0.0513 -0.9786
vn -0.8337 -0.0513 -0.5498
vn -0.2009 -0.0513 -0.9783
vn -0.8327 -0.0513 -0.5513
vn -0.9783 -0.0512 0.2008
vn -0.8328 -0.0512 -0.5513
vn -0.9783 -0.0513 0.2008
vn -0.9786 -0.0512 0.1990
vn 0.1991 -0.0512 0.9786
vn 0.8327 -0.0513 0.5513
vn 0.8337 -0.0513 0.5498
vn 0.2009 -0.0513 0.9783
vn 0.5498 -0.0513 -0.8337
vn 0.9783 -0.0513 -0.2008
vn 0.5513 -0.0513 -0.8327
vn 0.9783 -0.0513 -0.2009
vn 0.5498 -0.0512 -0.8337
vn 0.9786 -0.0513 -0.1991
vn 0.1991 -0.0513 0.9786
vn -0.5513 -0.0513 0.8328
vn 0.2008 -0.0513 0.9783
vn -0.5498 -0.0512 0.8337
vn 0.5513 -0.0513 -0.8328
vn -0.1991 -0.0512 -0.9786
vn 0.9786 -0.0512 -0.1991
vn 0.9783 -0.0512 -0.2008
vn 0.8328 -0.0512 0.5512
vn -0.5498 -0.0513 0.8337
vn -0.9783 -0.0513 0.2009
vn -0.5513 -0.0513 0.8327
vn -0.9786 -0.0513 0.1991
vn -0.0000 1.0000 -0.0000
vn 0.8980 0.4042 0.1738
vn 0.5121 0.4042 0.7578
vn 0.5121 0.4042 0.7579
vn 0.5121 0.4043 0.7578
vn -0.7579 0.4042 0.5121
vn -0.8980 0.4042 -0.1737
vn -0.8980 0.4043 -0.1737
vn -0.5121 0.4042 -0.7579
vn -0.8980 0.4042 -0.1738
vn -0.5121 0.4043 -0.7578
vn -0.5121 0.4042 -0.7578
vn 0.7579 0.4042 -0.5121
vn 0.8980 0.4042 0.1737
vn 0.8980 0.4043 0.1737
vn -0.1738 0.4042 0.8980
vn -0.7578 0.4042 0.5121
vn 0.1738 0.4042 -0.8980
vn 0.7578 0.4042 -0.5121
vn 0.7578 0.4043 -0.5121
vn -0.1737 0.4042 0.8980
vn 0.5121 0.4043 0.7579
vn 0.1737 0.4042 -0.8980
vn -0.5121 0.4043 -0.7579
vn -0.4142 0.3228 0.8510
vn -0.9441 0.3228 0.0668
vn 0.9441 0.3228 -0.0668
vn 0.5299 0.3228 0.7842
vn 0.4142 0.3228 -0.8510
vn -0.5299 0.3228 -0.7842
vn 0.3851 0.7260 0.5698
vn -0.4158 0.3115 0.8544
vn 0.5320 0.3115 0.7874
vn -0.3010 0.7260 0.6184
vn -0.5320 0.3115 -0.7873
vn -0.6860 0.7260 0.0486
vn -0.3850 0.7260 -0.5699
vn -0.9479 0.3115 0.0671
vn 0.3009 0.7260 -0.6184
vn 0.9479 0.3115 -0.0671
vn 0.4159 0.3115 -0.8544
vn 0.6860 0.7260 -0.0485
vn 0.6860 0.7260 -0.0486
vn 0.5320 0.3115 0.7873
vn 0.3850 0.7260 0.5699
vn 0.6860 0.7259 -0.0485
vn -0.3009 0.7260 0.6184
vn 0.3850 0.7259 0.5699
vn -0.3010 0.7259 0.6184
vn -0.6860 0.7259 0.0485
vn -0.6860 0.7260 0.0485
vn 0.3010 0.7259 -0.6184
vn -0.3850 0.7259 -0.5699
vn 0.3010 0.7260 -0.6184
vn 0.4158 0.3115 -0.8544
vn 0.3009 0.7260 -0.6183
vn -0.3850 0.7260 -0.5698
vn -0.4159 0.3115 0.8544
vn 0.8510 0.3228 0.4142
vn 0.0668 0.3228 0.9441
vn 0.7842 0.3228 -0.5299
vn -0.7842 0.3228 0.5299
vn -0.8510 0.3228 -0.4142
vn -0.0668 0.3228 -0.9441
vn -0.3775 0.5060 0.7755
vn -0.8604 0.5060 0.0609
vn -0.7387 0.4530 0.4992
vn -0.3775 0.5060 0.7756
vn 0.7387 -0.4530 -0.4992
vn 0.8604 -0.5060 -0.0609
vn 0.3775 -0.5060 -0.7755
vn -0.0629 0.4530 -0.8893
vn 0.3775 0.5060 -0.7755
vn 0.3775 0.5060 -0.7756
vn 0.3774 0.5060 -0.7755
vn -0.4829 0.5060 -0.7147
vn -0.4829 0.5060 -0.7146
vn -0.3775 -0.5060 0.7756
vn -0.3775 -0.5060 0.7755
vn 0.0629 -0.4530 0.8893
vn 0.4829 -0.5060 0.7147
vn 0.4829 -0.5060 0.7146
vn -0.8016 0.4530 -0.3902
vn -0.8016 0.4530 -0.3901
vn 0.8016 -0.4530 0.3902
vn 0.8016 -0.4530 0.3901
vn 0.4829 0.5060 0.7147
vn 0.0629 0.4530 0.8893
vn -0.3774 0.5061 0.7755
vn -0.4829 -0.5060 -0.7147
vn -0.0629 -0.4530 -0.8893
vn 0.3775 -0.5060 -0.7756
vn 0.8604 0.5060 -0.0609
vn 0.7387 0.4530 -0.4992
vn -0.7387 -0.4530 0.4992
vn -0.8604 -0.5060 0.0609
vn -0.3774 -0.5060 0.7755
vn 0.8016 0.4530 0.3902
vn 0.8016 0.4530 0.3901
vn 0.4829 0.5060 0.7146
vn 0.8016 0.4529 0.3902
vn -0.8016 -0.4530 -0.3902
vn -0.8016 -0.4530 -0.3901
vn -0.0609 0.5060 -0.8604
vn 0.7146 0.5060 -0.4829
vn 0.3901 0.4530 -0.8016
vn 0.7147 0.5060 -0.4829
vn -0.3901 -0.4530 0.8016
vn -0.7147 -0.5060 0.4829
vn 0.0609 -0.5060 0.8604
vn 0.7755 0.5060 0.3775
vn 0.4992 0.4530 0.7387
vn 0.7756 0.5060 0.3775
vn 0.0609 0.5060 0.8604
vn -0.7755 -0.5060 -0.3775
vn -0.4992 -0.4530 -0.7387
vn -0.0609 -0.5060 -0.8604
vn -0.7147 0.5060 0.4829
vn -0.7755 0.5060 -0.3774
vn -0.8893 0.4530 0.0629
vn -0.7756 0.5060 -0.3775
vn 0.8893 -0.4530 -0.0629
vn 0.7756 -0.5060 0.3775
vn 0.7147 -0.5060 -0.4829
vn -0.4992 0.4530 -0.7387
vn -0.7755 0.5060 -0.3775
vn 0.4992 -0.4530 0.7387
vn 0.7755 -0.5060 0.3775
vn -0.7146 0.5060 0.4829
vn -0.3901 0.4530 0.8016
vn 0.3901 -0.4530 -0.8016
vn 0.8893 0.4530 -0.0629
vn -0.8893 -0.4530 0.0629
vn -0.7756 -0.5060 -0.3775
vn 0.8016 -0.4529 0.3902
vn -0.3774 0.5060 0.7755
vn -0.4829 -0.5060 -0.7146
vt 0.593750 0.025000
vt 0.593750 0.104996
vt 0.593750 0.225000
vt 0.093750 0.475000
vt 0.093750 0.275000
vt 0.093750 0.425000
vt 0.093750 0.348778
vt 0.093750 0.338765
vt 0.093750 0.344099
vt 0.093750 0.375000
vt 0.093750 0.325000
s 0
usemtl colormap.002
f 3/1/1 2/1/1 1/1/1
f 2/1/1 3/1/1 4/1/1
f 4/1/1 3/1/1 5/1/1
f 4/1/1 5/1/1 6/1/1
f 6/1/1 5/1/1 7/1/1
f 6/1/1 7/1/1 8/1/1
f 9/2/2 1/1/3 2/1/4
f 1/1/3 9/2/2 10/2/5
f 11/2/6 1/1/3 10/2/7
f 1/1/3 11/2/8 3/1/9
f 12/2/10 2/1/4 4/1/11
f 2/1/4 12/2/10 9/2/12
f 13/2/13 4/1/11 6/1/14
f 4/1/11 13/2/13 12/2/15
f 7/1/16 14/2/17 8/1/18
f 14/2/17 7/1/16 15/2/19
f 11/2/20 5/1/21 3/1/9
f 5/1/21 11/2/20 16/2/22
f 8/1/18 13/2/23 6/1/14
f 13/2/24 8/1/18 14/2/25
f 7/1/26 16/2/27 15/2/28
f 16/2/27 7/1/26 5/1/21
f 14/2/29 18/3/30 17/3/31
f 18/3/32 14/2/33 15/2/34
f 16/2/35 18/3/32 15/2/36
f 18/3/32 16/2/37 19/3/38
f 21/3/39 9/2/40 20/3/41
f 9/2/40 21/3/39 10/2/42
f 22/3/43 12/2/44 13/2/45
f 12/2/46 22/3/47 23/3/48
f 21/3/49 11/2/50 10/2/51
f 11/2/50 21/3/39 24/3/52
f 13/2/53 17/3/54 22/3/43
f 17/3/31 13/2/53 14/2/29
f 20/3/41 12/2/44 23/3/55
f 12/2/56 20/3/41 9/2/57
f 24/3/58 16/2/59 11/2/60
f 16/2/59 24/3/52 19/3/61
f 27/4/62 26/4/62 25/4/62
f 26/4/62 27/4/62 28/4/62
f 26/4/62 28/4/62 29/4/62
f 29/4/62 28/4/62 30/4/62
f 29/4/62 30/4/62 31/4/62
f 31/4/62 30/4/62 32/4/62
f 35/5/1 34/5/1 33/5/1
f 34/5/1 35/5/1 36/5/1
f 34/5/1 36/5/1 37/5/1
f 37/5/1 36/5/1 38/5/1
f 37/5/1 38/5/1 39/5/1
f 39/5/1 38/5/1 40/5/1
f 27/4/63 33/5/64 34/5/63
f 33/5/65 27/4/63 25/4/66
f 29/4/67 38/5/68 36/5/67
f 38/5/68 29/4/67 31/4/69
f 40/5/70 31/4/71 32/4/72
f 31/4/71 40/5/73 38/5/71
f 28/4/74 34/5/63 37/5/74
f 34/5/75 28/4/74 27/4/76
f 26/4/77 36/5/67 35/5/77
f 36/5/67 26/4/77 29/4/78
f 30/4/79 37/5/80 39/5/79
f 37/5/80 30/4/79 28/4/81
f 26/4/82 33/5/83 25/4/65
f 33/5/65 26/4/82 35/5/82
f 40/5/70 30/4/84 39/5/84
f 30/4/84 40/5/85 32/4/70
f 43/6/86 42/7/87 41/7/86
f 42/7/87 43/6/86 44/6/87
f 47/6/88 46/7/89 45/7/88
f 46/7/89 47/6/88 48/6/89
f 50/6/90 45/7/88 49/7/90
f 45/7/88 50/6/90 47/6/88
f 48/6/89 41/7/86 46/7/89
f 41/7/86 48/6/89 43/6/86
f 52/7/91 44/6/87 51/6/91
f 44/6/87 52/7/91 42/7/87
f 52/7/91 50/6/90 49/7/90
f 50/6/90 52/7/91 51/6/91
f 41/7/1 45/7/1 46/7/1
f 45/7/1 41/7/1 42/7/1
f 45/7/1 42/7/1 49/7/1
f 49/7/1 42/7/1 52/7/1
f 55/6/92 54/8/93 53/8/94
f 54/8/93 55/6/92 56/6/95
f 59/8/96 58/6/97 57/6/98
f 58/6/97 59/8/96 60/8/99
f 63/6/100 62/8/101 61/8/102
f 62/8/101 63/6/100 64/6/103
f 64/6/104 53/8/105 62/8/101
f 53/8/105 64/6/104 55/6/106
f 64/6/107 56/6/108 55/6/109
f 56/6/110 64/6/107 58/6/111
f 58/6/112 64/6/107 63/6/113
f 58/6/111 63/6/100 57/6/114
f 59/8/96 63/6/115 61/8/116
f 63/6/117 59/8/96 57/6/118
f 54/8/1 62/8/1 53/8/1
f 62/8/1 54/8/1 60/8/1
f 62/8/1 60/8/1 61/8/1
f 61/8/1 60/8/1 59/8/1
f 56/6/108 60/8/99 54/8/119
f 60/8/99 56/6/108 58/6/112
f 67/6/120 66/9/121 65/9/120
f 66/9/121 67/6/120 68/6/121
f 70/6/122 65/9/120 69/9/122
f 65/9/120 70/6/122 67/6/120
f 68/6/121 71/9/123 66/9/121
f 71/9/123 68/6/121 72/6/123
f 72/6/123 73/9/124 71/9/123
f 73/9/124 72/6/123 74/6/124
f 71/9/1 65/9/1 66/9/1
f 65/9/1 71/9/1 69/9/1
f 69/9/1 71/9/1 73/9/1
f 69/9/1 73/9/1 75/9/1
f 76/6/125 69/9/122 75/9/125
f 69/9/122 76/6/125 70/6/122
f 73/9/124 76/6/125 75/9/125
f 76/6/125 73/9/124 74/6/124
f 79/10/126 78/10/127 77/11/128
f 78/10/127 79/10/126 41/6/126
f 78/10/127 41/6/129 42/6/127
f 77/11/130 78/10/131 79/10/132
f 41/6/132 79/10/132 78/10/131
f 42/6/131 41/6/132 78/10/131
f 81/11/133 49/6/134 80/10/135
f 49/6/136 81/11/133 52/6/137
f 52/6/138 81/11/133 82/10/137
f 80/10/139 49/6/140 81/11/141
f 52/6/142 81/11/141 49/6/139
f 82/10/142 81/11/141 52/6/143
f 82/10/137 42/6/127 52/6/137
f 42/6/127 82/10/137 83/11/144
f 42/6/127 83/11/145 78/10/127
f 52/6/142 42/6/131 82/10/142
f 83/11/146 82/10/142 42/6/131
f 78/10/131 83/11/147 42/6/131
f 46/6/148 85/11/149 84/10/148
f 85/11/149 46/6/148 41/6/126
f 85/11/149 41/6/150 79/10/126
f 84/10/151 85/11/152 46/6/151
f 41/6/153 46/6/151 85/11/152
f 79/10/153 41/6/132 85/11/152
f 80/10/134 87/10/154 86/11/155
f 87/10/154 80/10/135 49/6/135
f 87/10/154 49/6/134 45/6/154
f 86/11/156 87/10/157 80/10/140
f 49/6/140 80/10/139 87/10/157
f 45/6/157 49/6/158 87/10/157
f 45/6/154 88/11/159 87/10/154
f 88/11/160 45/6/154 46/6/161
f 88/11/162 46/6/161 84/10/148
f 87/10/157 88/11/163 45/6/157
f 46/6/151 45/6/157 88/11/164
f 84/10/151 46/6/151 88/11/163
f 91/10/165 90/10/166 89/11/167
f 90/10/168 91/10/165 75/6/165
f 90/10/168 75/6/165 69/6/168
f 89/11/169 90/10/170 91/10/171
f 75/6/171 91/10/171 90/10/170
f 69/6/170 75/6/171 90/10/170
f 65/6/172 93/11/173 92/10/174
f 93/11/173 65/6/174 66/6/175
f 93/11/173 66/6/175 94/10/175
f 92/10/176 93/11/177 65/6/176
f 66/6/178 65/6/176 93/11/177
f 94/10/178 66/6/178 93/11/177
f 97/10/179 96/10/180 95/11/181
f 96/10/182 97/10/179 71/6/179
f 96/10/182 71/6/179 73/6/182
f 95/11/183 96/10/184 97/10/185
f 71/6/185 97/10/185 96/10/184
f 73/6/184 71/6/185 96/10/184
f 98/11/186 75/6/165 91/10/165
f 75/6/165 98/11/186 73/6/182
f 73/6/187 98/11/186 96/10/182
f 91/10/171 75/6/171 98/11/188
f 73/6/189 98/11/188 75/6/171
f 96/10/189 98/11/188 73/6/189
f 94/10/175 97/10/190 99/11/191
f 97/10/179 94/10/175 66/6/175
f 97/10/179 66/6/175 71/6/179
f 99/11/192 97/10/185 94/10/178
f 66/6/178 94/10/178 97/10/185
f 71/6/185 66/6/178 97/10/185
f 90/10/168 92/10/172 100/11/193
f 92/10/174 90/10/168 69/6/168
f 92/10/174 69/6/168 65/6/174
f 100/11/194 92/10/195 90/10/170
f 69/6/170 90/10/170 92/10/195
f 65/6/195 69/6/170 92/10/195
f 102/11/133 61/6/136 101/10/135
f 61/6/136 102/11/133 59/6/137
f 59/6/137 102/11/133 103/10/137
f 101/10/139 61/6/158 102/11/141
f 59/6/142 102/11/141 61/6/139
f 103/10/142 102/11/141 59/6/142
f 103/10/137 60/6/127 59/6/137
f 60/6/127 103/10/137 104/11/145
f 60/6/127 104/11/145 105/10/127
f 59/6/142 60/6/131 103/10/142
f 104/11/147 103/10/142 60/6/131
f 105/10/131 104/11/196 60/6/131
f 62/6/154 107/11/160 106/10/154
f 107/11/159 62/6/154 53/6/161
f 107/11/160 53/6/161 108/10/148
f 106/10/157 107/11/164 62/6/157
f 53/6/151 62/6/157 107/11/163
f 108/10/151 53/6/151 107/11/164
f 110/10/126 105/10/127 109/11/128
f 105/10/127 110/10/129 54/6/129
f 105/10/127 54/6/129 60/6/127
f 109/11/130 105/10/131 110/10/132
f 54/6/132 110/10/153 105/10/131
f 60/6/131 54/6/132 105/10/131
f 101/10/134 106/10/154 111/11/155
f 106/10/154 101/10/134 61/6/135
f 106/10/154 61/6/135 62/6/154
f 111/11/156 106/10/157 101/10/140
f 61/6/140 101/10/140 106/10/157
f 62/6/157 61/6/140 106/10/157
f 53/6/148 112/11/149 108/10/148
f 112/11/149 53/6/148 54/6/197
f 112/11/149 54/6/126 110/10/126
f 108/10/151 112/11/152 53/6/198
f 54/6/153 53/6/151 112/11/152
f 110/10/153 54/6/132 112/11/152
f 3/1/1 2/1/1 1/1/1
f 2/1/1 3/1/1 4/1/1
f 4/1/1 3/1/1 5/1/1
f 4/1/1 5/1/1 6/1/1
f 6/1/1 5/1/1 7/1/1
f 6/1/1 7/1/1 8/1/1
f 9/2/2 1/1/3 2/1/4
f 1/1/3 9/2/2 10/2/5
f 11/2/6 1/1/3 10/2/7
f 1/1/3 11/2/8 3/1/9
f 12/2/10 2/1/4 4/1/11
f 2/1/4 12/2/10 9/2/12
f 13/2/13 4/1/11 6/1/14
f 4/1/11 13/2/13 12/2/15
f 7/1/16 14/2/17 8/1/18
f 14/2/17 7/1/16 15/2/19
f 11/2/20 5/1/21 3/1/9
f 5/1/21 11/2/20 16/2/22
f 8/1/18 13/2/23 6/1/14
f 13/2/24 8/1/18 14/2/25
f 7/1/26 16/2/27 15/2/28
f 16/2/27 7/1/26 5/1/21
f 14/2/29 18/3/30 17/3/31
f 18/3/32 14/2/33 15/2/34
f 16/2/35 18/3/32 15/2/36
f 18/3/32 16/2/37 19/3/38
f 21/3/39 9/2/40 20/3/41
f 9/2/40 21/3/39 10/2/42
f 22/3/43 12/2/44 13/2/45
f 12/2/46 22/3/47 23/3/48
f 21/3/49 11/2/50 10/2/51
f 11/2/50 21/3/39 24/3/52
f 13/2/53 17/3/54 22/3/43
f 17/3/31 13/2/53 14/2/29
f 20/3/41 12/2/44 23/3/55
f 12/2/56 20/3/41 9/2/57
f 24/3/58 16/2/59 11/2/60
f 16/2/59 24/3/52 19/3/61
f 27/4/62 26/4/62 25/4/62
f 26/4/62 27/4/62 28/4/62
f 26/4/62 28/4/62 29/4/62
f 29/4/62 28/4/62 30/4/62
f 29/4/62 30/4/62 31/4/62
f 31/4/62 30/4/62 32/4/62
f 35/5/1 34/5/1 33/5/1
f 34/5/1 35/5/1 36/5/1
f 34/5/1 36/5/1 37/5/1
f 37/5/1 36/5/1 38/5/1
f 37/5/1 38/5/1 39/5/1
f 39/5/1 38/5/1 40/5/1
f 27/4/63 33/5/64 34/5/63
f 33/5/65 27/4/63 25/4/66
f 29/4/67 38/5/68 36/5/67
f 38/5/68 29/4/67 31/4/69
f 40/5/70 31/4/71 32/4/72
f 31/4/71 40/5/73 38/5/71
f 28/4/74 34/5/63 37/5/74
f 34/5/75 28/4/74 27/4/76
f 26/4/77 36/5/67 35/5/77
f 36/5/67 26/4/77 29/4/78
f 30/4/79 37/5/80 39/5/79
f 37/5/80 30/4/79 28/4/81
f 26/4/82 33/5/83 25/4/65
f 33/5/65 26/4/82 35/5/82
f 40/5/70 30/4/84 39/5/84
f 30/4/84 40/5/85 32/4/70
f 43/6/86 42/7/87 41/7/86
f 42/7/87 43/6/86 44/6/87
f 47/6/88 46/7/89 45/7/88
f 46/7/89 47/6/88 48/6/89
f 50/6/90 45/7/88 49/7/90
f 45/7/88 50/6/90 47/6/88
f 48/6/89 41/7/86 46/7/89
f 41/7/86 48/6/89 43/6/86
f 52/7/91 44/6/87 51/6/91
f 44/6/87 52/7/91 42/7/87
f 52/7/91 50/6/90 49/7/90
f 50/6/90 52/7/91 51/6/91
f 41/7/1 45/7/1 46/7/1
f 45/7/1 41/7/1 42/7/1
f 45/7/1 42/7/1 49/7/1
f 49/7/1 42/7/1 52/7/1
f 55/6/92 54/8/93 53/8/94
f 54/8/93 55/6/92 56/6/95
f 59/8/96 58/6/97 57/6/98
f 58/6/97 59/8/96 60/8/99
f 63/6/100 62/8/101 61/8/102
f 62/8/101 63/6/100 64/6/103
f 64/6/104 53/8/105 62/8/101
f 53/8/105 64/6/104 55/6/106
f 64/6/107 56/6/108 55/6/109
f 56/6/110 64/6/107 58/6/111
f 58/6/112 64/6/107 63/6/113
f 58/6/111 63/6/100 57/6/114
f 59/8/96 63/6/115 61/8/116
f 63/6/117 59/8/96 57/6/118
f 54/8/1 62/8/1 53/8/1
f 62/8/1 54/8/1 60/8/1
f 62/8/1 60/8/1 61/8/1
f 61/8/1 60/8/1 59/8/1
f 56/6/108 60/8/99 54/8/119
f 60/8/99 56/6/108 58/6/112
f 67/6/120 66/9/121 65/9/120
f 66/9/121 67/6/120 68/6/121
f 70/6/122 65/9/120 69/9/122
f 65/9/120 70/6/122 67/6/120
f 68/6/121 71/9/123 66/9/121
f 71/9/123 68/6/121 72/6/123
f 72/6/123 73/9/124 71/9/123
f 73/9/124 72/6/123 74/6/124
f 71/9/1 65/9/1 66/9/1
f 65/9/1 71/9/1 69/9/1
f 69/9/1 71/9/1 73/9/1
f 69/9/1 73/9/1 75/9/1
f 76/6/125 69/9/122 75/9/125
f 69/9/122 76/6/125 70/6/122
f 73/9/124 76/6/125 75/9/125
f 76/6/125 73/9/124 74/6/124
f 79/10/126 78/10/127 77/11/128
f 78/10/127 79/10/126 41/6/126
f 78/10/127 41/6/129 42/6/127
f 77/11/130 78/10/131 79/10/132
f 41/6/132 79/10/132 78/10/131
f 42/6/131 41/6/132 78/10/131
f 81/11/133 49/6/134 80/10/135
f 49/6/136 81/11/133 52/6/137
f 52/6/138 81/11/133 82/10/137
f 80/10/139 49/6/140 81/11/141
f 52/6/142 81/11/141 49/6/139
f 82/10/142 81/11/141 52/6/143
f 82/10/137 42/6/127 52/6/137
f 42/6/127 82/10/137 83/11/144
f 42/6/127 83/11/145 78/10/127
f 52/6/142 42/6/131 82/10/142
f 83/11/146 82/10/142 42/6/131
f 78/10/131 83/11/147 42/6/131
f 46/6/148 85/11/149 84/10/148
f 85/11/149 46/6/148 41/6/126
f 85/11/149 41/6/150 79/10/126
f 84/10/151 85/11/152 46/6/151
f 41/6/153 46/6/151 85/11/152
f 79/10/153 41/6/132 85/11/152
f 80/10/134 87/10/154 86/11/155
f 87/10/154 80/10/135 49/6/135
f 87/10/154 49/6/134 45/6/154
f 86/11/156 87/10/157 80/10/140
f 49/6/140 80/10/139 87/10/157
f 45/6/157 49/6/158 87/10/157
f 45/6/154 88/11/159 87/10/154
f 88/11/160 45/6/154 46/6/161
f 88/11/162 46/6/161 84/10/148
f 87/10/157 88/11/163 45/6/157
f 46/6/151 45/6/157 88/11/164
f 84/10/151 46/6/151 88/11/163
f 91/10/165 90/10/166 89/11/167
f 90/10/168 91/10/165 75/6/165
f 90/10/168 75/6/165 69/6/168
f 89/11/169 90/10/170 91/10/171
f 75/6/171 91/10/171 90/10/170
f 69/6/170 75/6/171 90/10/170
f 65/6/172 93/11/173 92/10/174
f 93/11/173 65/6/174 66/6/175
f 93/11/173 66/6/175 94/10/175
f 92/10/176 93/11/177 65/6/176
f 66/6/178 65/6/176 93/11/177
f 94/10/178 66/6/178 93/11/177
f 97/10/179 96/10/180 95/11/181
f 96/10/182 97/10/179 71/6/179
f 96/10/182 71/6/179 73/6/182
f 95/11/183 96/10/184 97/10/185
f 71/6/185 97/10/185 96/10/184
f 73/6/184 71/6/185 96/10/184
f 98/11/186 75/6/165 91/10/165
f 75/6/165 98/11/186 73/6/182
f 73/6/187 98/11/186 96/10/182
f 91/10/171 75/6/171 98/11/188
f 73/6/189 98/11/188 75/6/171
f 96/10/189 98/11/188 73/6/189
f 94/10/175 97/10/190 99/11/191
f 97/10/179 94/10/175 66/6/175
f 97/10/179 66/6/175 71/6/179
f 99/11/192 97/10/185 94/10/178
f 66/6/178 94/10/178 97/10/185
f 71/6/185 66/6/178 97/10/185
f 90/10/168 92/10/172 100/11/193
f 92/10/174 90/10/168 69/6/168
f 92/10/174 69/6/168 65/6/174
f 100/11/194 92/10/195 90/10/170
f 69/6/170 90/10/170 92/10/195
f 65/6/195 69/6/170 92/10/195
f 102/11/133 61/6/136 101/10/135
f 61/6/136 102/11/133 59/6/137
f 59/6/137 102/11/133 103/10/137
f 101/10/139 61/6/158 102/11/141
f 59/6/142 102/11/141 61/6/139
f 103/10/142 102/11/141 59/6/142
f 103/10/137 60/6/127 59/6/137
f 60/6/127 103/10/137 104/11/145
f 60/6/127 104/11/145 105/10/127
f 59/6/142 60/6/131 103/10/142
f 104/11/147 103/10/142 60/6/131
f 105/10/131 104/11/196 60/6/131
f 62/6/154 107/11/160 106/10/154
f 107/11/159 62/6/154 53/6/161
f 107/11/160 53/6/161 108/10/148
f 106/10/157 107/11/164 62/6/157
f 53/6/151 62/6/157 107/11/163
f 108/10/151 53/6/151 107/11/164
f 110/10/126 105/10/127 109/11/128
f 105/10/127 110/10/129 54/6/129
f 105/10/127 54/6/129 60/6/127
f 109/11/130 105/10/131 110/10/132
f 54/6/132 110/10/153 105/10/131
f 60/6/131 54/6/132 105/10/131
f 101/10/134 106/10/154 111/11/155
f 106/10/154 101/10/134 61/6/135
f 106/10/154 61/6/135 62/6/154
f 111/11/156 106/10/157 101/10/140
f 61/6/140 101/10/140 106/10/157
f 62/6/157 61/6/140 106/10/157
f 53/6/148 112/11/149 108/10/148
f 112/11/149 53/6/148 54/6/197
f 112/11/149 54/6/126 110/10/126
f 108/10/151 112/11/152 53/6/198
f 54/6/153 53/6/151 112/11/152
f 110/10/153 54/6/132 112/11/152
