# Blender 4.1.1
# www.blender.org
mtllib tree.062.mtl
o tree.062
v -6.368858 -0.282319 8.013810
v -6.218426 -0.282319 7.912158
v -6.494901 -0.282319 7.989419
v -6.194035 -0.282319 7.786116
v -6.596553 -0.282319 7.838987
v -6.295687 -0.282319 7.635683
v -6.572162 -0.282319 7.712944
v -6.421730 -0.282319 7.611292
v -6.306860 0.046402 7.862355
v -6.382076 0.046402 7.913181
v -6.445097 0.046402 7.900986
v -6.294665 0.046402 7.799334
v -6.345490 0.046402 7.724117
v -6.408512 0.046402 7.711922
v -6.483728 0.046402 7.762748
v -6.495923 0.046402 7.825769
v -6.411816 0.539521 7.686765
v -6.505836 0.539521 7.750297
v -6.521081 0.539521 7.829073
v -6.284751 0.539521 7.874806
v -6.378772 0.539521 7.938338
v -6.333039 0.539521 7.702009
v -6.269507 0.539521 7.796030
v -6.457548 0.539521 7.923094
v -6.274518 0.163768 7.912033
v -6.344310 0.163768 7.926294
v -6.235250 0.163768 7.852598
v -6.249511 0.163768 7.782805
v -6.403745 0.163768 7.887026
v -6.308946 0.163768 7.743538
v -6.418006 0.163768 7.817233
v -6.378739 0.163768 7.757799
v -6.245002 0.044485 7.955714
v -6.183492 0.044485 7.862614
v -6.354327 0.044485 7.978052
v -6.447426 0.044485 7.916542
v -6.205831 0.044485 7.753289
v -6.469764 0.044485 7.807217
v -6.298930 0.044485 7.691780
v -6.408255 0.044485 7.714118
v -6.598088 0.539521 8.211807
v -6.851236 0.539521 7.837176
v -6.516963 1.083027 8.045124
v -6.666322 1.083027 7.824090
v -5.949207 0.539521 7.773340
v -6.147073 0.539521 8.179890
v -6.134121 1.083027 7.786427
v -6.250863 1.083027 8.026292
v -6.202356 0.539521 7.398709
v -6.283480 1.083027 7.565392
v -6.549581 1.083027 7.584224
v -6.653371 0.539521 7.430627
v -6.254256 1.666943 8.021271
v -6.514311 1.666943 8.039675
v -6.366672 2.279410 7.854908
v -6.426445 2.279410 7.859138
v -6.433772 2.279410 7.755609
v -6.459994 2.279410 7.809488
v -6.546188 1.666943 7.589245
v -6.660277 1.666943 7.823662
v -6.286132 1.666943 7.570841
v -6.140166 1.666943 7.786854
v -6.373999 2.279410 7.751378
v -6.340449 2.279410 7.801028
v -6.069695 1.083027 7.966125
v -6.374272 1.083027 8.171937
v -6.248771 1.666943 7.878969
v -6.388331 1.666943 7.973275
v -6.095644 1.083027 7.599446
v -6.260661 1.666943 7.710953
v -6.704800 1.083027 8.011070
v -6.539783 1.666943 7.899564
v -6.730750 1.083027 7.644392
v -6.551673 1.666943 7.731547
v -6.426171 1.083027 7.438580
v -6.412112 1.666943 7.637242
v -6.796039 0.369968 8.072723
v -6.900848 0.454744 7.840687
v -6.619853 0.454744 8.256528
v -6.180591 0.454744 7.353989
v -6.433945 0.369968 7.328739
v -6.681217 0.454744 7.389418
v -6.829762 0.369968 7.596203
v -6.119226 0.454744 8.221099
v -6.366499 0.369968 8.281778
v -6.004405 0.369968 7.537794
v -5.899596 0.454744 7.769829
v -5.970682 0.369968 8.014314
v -6.230258 0.945179 7.456039
v -6.062140 1.014103 7.576807
v -6.429026 1.014103 7.398245
v -6.033336 1.014103 7.983820
v -6.182771 0.945179 8.127061
v -6.371418 1.014103 8.212271
v -6.787636 0.945179 7.832675
v -6.767107 1.014103 7.626697
v -6.738304 1.014103 8.033710
v -6.617673 0.945179 7.483456
v -6.570185 0.945179 8.154478
v -6.012807 0.945179 7.777841
v -6.273582 1.618061 7.545055
v -6.419667 1.569178 7.530497
v -6.562244 1.618061 7.565484
v -6.647895 1.569178 7.684717
v -6.688884 1.618061 7.825687
v -6.111560 1.618061 7.784830
v -6.152548 1.569178 7.925800
v -6.238199 1.618061 8.045033
v -6.628451 1.569178 7.959479
v -6.526862 1.618061 8.065461
v -6.171994 1.569178 7.651038
v -6.380777 1.569178 8.080021
vn -0.0000 -1.0000 -0.0000
vn 0.7944 0.2942 0.5314
vn 0.1870 0.2944 0.9372
vn 0.7998 0.2944 0.5231
vn 0.1967 0.2942 0.9353
vn -0.5313 0.2942 0.7944
vn 0.1966 0.2942 0.9353
vn -0.5231 0.2944 0.7998
vn 0.9353 0.2942 -0.1966
vn 0.9372 0.2944 -0.1870
vn 0.7944 0.2942 0.5313
vn 0.5314 0.2942 -0.7944
vn 0.5231 0.2944 -0.7998
vn 0.9353 0.2942 -0.1967
vn -0.7998 0.2944 -0.5232
vn -0.1967 0.2942 -0.9353
vn -0.1870 0.2944 -0.9372
vn -0.7998 0.2944 -0.5231
vn -0.7944 0.2942 -0.5314
vn -0.5314 0.2942 0.7944
vn -0.9372 0.2944 0.1870
vn -0.5232 0.2944 0.7998
vn -0.9353 0.2942 0.1967
vn 0.5313 0.2943 -0.7944
vn 0.5313 0.2942 -0.7944
vn -0.1966 0.2942 -0.9353
vn -0.9353 0.2942 0.1966
vn -0.7944 0.2942 -0.5313
vn -0.2008 -0.0513 -0.9783
vn -0.8337 -0.0512 -0.5498
vn -0.1991 -0.0513 -0.9786
vn -0.8337 -0.0513 -0.5498
vn -0.8327 -0.0513 -0.5513
vn -0.9783 -0.0512 0.2008
vn -0.8328 -0.0512 -0.5512
vn -0.9783 -0.0513 0.2008
vn -0.9786 -0.0512 0.1991
vn 0.1991 -0.0512 0.9786
vn 0.8327 -0.0513 0.5513
vn 0.8337 -0.0513 0.5498
vn 0.2009 -0.0513 0.9783
vn 0.5498 -0.0513 -0.8337
vn 0.9783 -0.0513 -0.2008
vn 0.5513 -0.0513 -0.8327
vn 0.9783 -0.0513 -0.2009
vn 0.5498 -0.0512 -0.8337
vn 0.9786 -0.0513 -0.1991
vn 0.1991 -0.0513 0.9786
vn -0.5512 -0.0513 0.8328
vn 0.2008 -0.0512 0.9783
vn -0.5513 -0.0513 0.8328
vn -0.5498 -0.0513 0.8337
vn 0.5513 -0.0513 -0.8328
vn -0.1991 -0.0512 -0.9786
vn 0.5512 -0.0513 -0.8328
vn -0.2008 -0.0512 -0.9783
vn 0.9786 -0.0512 -0.1990
vn 0.9783 -0.0512 -0.2008
vn 0.8328 -0.0512 0.5512
vn -0.9783 -0.0513 0.2009
vn -0.5513 -0.0513 0.8327
vn -0.5498 -0.0512 0.8337
vn -0.9786 -0.0513 0.1991
vn -0.0000 1.0000 -0.0000
vn 0.8980 0.4042 0.1738
vn 0.5121 0.4042 0.7578
vn 0.5121 0.4042 0.7579
vn 0.5121 0.4043 0.7578
vn -0.7579 0.4042 0.5121
vn -0.8980 0.4042 -0.1738
vn -0.8980 0.4042 -0.1737
vn -0.8980 0.4043 -0.1737
vn -0.5121 0.4042 -0.7579
vn -0.5121 0.4043 -0.7578
vn -0.5121 0.4042 -0.7578
vn 0.7579 0.4042 -0.5121
vn 0.8980 0.4042 0.1737
vn 0.8980 0.4043 0.1737
vn -0.1738 0.4042 0.8980
vn -0.7578 0.4042 0.5121
vn -0.7578 0.4043 0.5121
vn 0.1738 0.4042 -0.8980
vn 0.7578 0.4042 -0.5121
vn 0.7578 0.4043 -0.5121
vn -0.1737 0.4042 0.8980
vn 0.5121 0.4043 0.7579
vn 0.1737 0.4042 -0.8980
vn -0.5121 0.4043 -0.7579
vn -0.4142 0.3228 0.8510
vn -0.9441 0.3228 0.0668
vn 0.9441 0.3228 -0.0668
vn 0.5299 0.3228 0.7842
vn 0.4142 0.3228 -0.8510
vn -0.5299 0.3228 -0.7842
vn 0.3851 0.7260 0.5698
vn -0.4158 0.3115 0.8544
vn 0.5320 0.3115 0.7874
vn -0.3010 0.7260 0.6184
vn -0.5320 0.3115 -0.7873
vn -0.6860 0.7260 0.0486
vn -0.3850 0.7260 -0.5699
vn -0.9479 0.3115 0.0671
vn 0.3009 0.7260 -0.6184
vn 0.9479 0.3115 -0.0671
vn 0.4159 0.3115 -0.8544
vn 0.6860 0.7260 -0.0485
vn 0.6860 0.7260 -0.0486
vn 0.5320 0.3115 0.7873
vn 0.3850 0.7260 0.5699
vn 0.6860 0.7259 -0.0485
vn -0.3009 0.7259 0.6184
vn 0.3850 0.7259 0.5699
vn -0.3010 0.7259 0.6184
vn -0.6860 0.7259 0.0485
vn 0.3010 0.7259 -0.6184
vn 0.3009 0.7259 -0.6184
vn -0.3850 0.7259 -0.5699
vn -0.5320 0.3116 -0.7873
vn 0.3010 0.7260 -0.6184
vn 0.4158 0.3115 -0.8544
vn 0.3009 0.7260 -0.6183
vn -0.3850 0.7260 -0.5698
vn -0.3009 0.7260 0.6184
vn -0.4159 0.3115 0.8544
vn -0.6860 0.7260 0.0485
vn 0.8510 0.3228 0.4142
vn 0.0668 0.3228 0.9441
vn 0.7842 0.3228 -0.5299
vn -0.7842 0.3228 0.5299
vn -0.8510 0.3228 -0.4142
vn -0.0668 0.3228 -0.9441
vn -0.3775 0.5060 0.7755
vn -0.8604 0.5060 0.0609
vn -0.7387 0.4530 0.4992
vn -0.3775 0.5060 0.7756
vn 0.7387 -0.4530 -0.4992
vn 0.8604 -0.5060 -0.0609
vn 0.3775 -0.5060 -0.7755
vn -0.0629 0.4530 -0.8893
vn 0.3774 0.5060 -0.7755
vn 0.3775 0.5060 -0.7756
vn -0.4829 0.5060 -0.7147
vn -0.3775 -0.5060 0.7756
vn -0.3775 -0.5060 0.7755
vn 0.0629 -0.4530 0.8893
vn 0.4829 -0.5060 0.7147
vn -0.8016 0.4530 -0.3901
vn 0.8016 -0.4530 0.3901
vn 0.4829 0.5060 0.7147
vn 0.0629 0.4529 0.8893
vn 0.0629 0.4530 0.8893
vn -0.3774 0.5060 0.7755
vn -0.4829 -0.5060 -0.7147
vn -0.0629 -0.4529 -0.8893
vn 0.3775 -0.5060 -0.7756
vn -0.0629 -0.4530 -0.8893
vn 0.3775 0.5060 -0.7755
vn 0.8604 0.5060 -0.0609
vn 0.7387 0.4530 -0.4992
vn -0.7387 -0.4530 0.4992
vn -0.8604 -0.5060 0.0609
vn 0.8016 0.4530 0.3902
vn 0.8016 0.4530 0.3901
vn 0.4829 0.5060 0.7146
vn -0.8016 -0.4530 -0.3902
vn -0.8016 -0.4530 -0.3901
vn -0.0609 0.5060 -0.8604
vn 0.7146 0.5060 -0.4829
vn 0.3901 0.4530 -0.8016
vn 0.7147 0.5060 -0.4829
vn -0.3902 -0.4530 0.8016
vn -0.7147 -0.5060 0.4829
vn 0.0609 -0.5060 0.8604
vn 0.7755 0.5060 0.3774
vn 0.4991 0.4530 0.7387
vn 0.7756 0.5060 0.3775
vn 0.4992 0.4530 0.7387
vn 0.0609 0.5060 0.8604
vn -0.7755 -0.5060 -0.3775
vn -0.4991 -0.4530 -0.7387
vn -0.0609 -0.5060 -0.8604
vn -0.4992 -0.4530 -0.7387
vn -0.7147 0.5060 0.4829
vn -0.7755 0.5060 -0.3774
vn -0.8893 0.4530 0.0629
vn -0.7756 0.5060 -0.3775
vn 0.8893 -0.4530 -0.0629
vn 0.7756 -0.5060 0.3775
vn 0.7147 -0.5060 -0.4829
vn -0.4992 0.4530 -0.7387
vn 0.4992 -0.4530 0.7387
vn 0.7755 -0.5060 0.3775
vn 0.7755 -0.5060 0.3774
vn -0.7146 0.5060 0.4829
vn -0.3901 0.4530 0.8016
vn 0.3901 -0.4530 -0.8016
vn 0.8893 0.4530 -0.0629
vn -0.8893 -0.4530 0.0629
vn -0.7756 -0.5060 -0.3775
vn -0.0629 0.4529 -0.8893
vn 0.3774 0.5060 -0.7756
vn 0.0629 -0.4529 0.8893
vn -0.8016 0.4530 -0.3902
vn 0.8016 -0.4530 0.3902
vn 0.4829 0.5061 0.7146
vn 0.3774 -0.5060 -0.7755
vn 0.3774 -0.5061 -0.7755
vn 0.7387 0.4529 -0.4992
vn -0.7387 -0.4529 0.4992
vn -0.3774 -0.5060 0.7755
vn -0.3774 0.5061 0.7755
vn -0.4829 -0.5060 -0.7146
vn -0.4829 -0.5061 -0.7146
vt 0.593750 0.025000
vt 0.593750 0.104996
vt 0.593750 0.225000
vt 0.093750 0.475000
vt 0.093750 0.275000
vt 0.093750 0.425000
vt 0.093750 0.348778
vt 0.093750 0.338765
vt 0.093750 0.344099
vt 0.093750 0.375000
vt 0.093750 0.325000
s 0
usemtl colormap.002
f 3/1/1 2/1/1 1/1/1
f 2/1/1 3/1/1 4/1/1
f 4/1/1 3/1/1 5/1/1
f 4/1/1 5/1/1 6/1/1
f 6/1/1 5/1/1 7/1/1
f 6/1/1 7/1/1 8/1/1
f 9/2/2 1/1/3 2/1/4
f 1/1/3 9/2/2 10/2/5
f 11/2/6 1/1/3 10/2/7
f 1/1/3 11/2/6 3/1/8
f 12/2/9 2/1/4 4/1/10
f 2/1/4 12/2/9 9/2/11
f 13/2/12 4/1/10 6/1/13
f 4/1/10 13/2/12 12/2/14
f 7/1/15 14/2/16 8/1/17
f 14/2/16 7/1/18 15/2/19
f 11/2/20 5/1/21 3/1/22
f 5/1/21 11/2/20 16/2/23
f 8/1/17 13/2/24 6/1/13
f 13/2/25 8/1/17 14/2/26
f 7/1/18 16/2/27 15/2/28
f 16/2/27 7/1/18 5/1/21
f 14/2/29 18/3/30 17/3/31
f 18/3/32 14/2/29 15/2/33
f 16/2/34 18/3/32 15/2/35
f 18/3/32 16/2/36 19/3/37
f 21/3/38 9/2/39 20/3/40
f 9/2/39 21/3/38 10/2/41
f 22/3/42 12/2/43 13/2/44
f 12/2/45 22/3/46 23/3/47
f 21/3/48 11/2/49 10/2/50
f 11/2/51 21/3/38 24/3/52
f 13/2/53 17/3/54 22/3/42
f 17/3/31 13/2/55 14/2/56
f 20/3/40 12/2/43 23/3/57
f 12/2/58 20/3/40 9/2/59
f 24/3/52 16/2/60 11/2/61
f 16/2/60 24/3/62 19/3/63
f 27/4/64 26/4/64 25/4/64
f 26/4/64 27/4/64 28/4/64
f 26/4/64 28/4/64 29/4/64
f 29/4/64 28/4/64 30/4/64
f 29/4/64 30/4/64 31/4/64
f 31/4/64 30/4/64 32/4/64
f 35/5/1 34/5/1 33/5/1
f 34/5/1 35/5/1 36/5/1
f 34/5/1 36/5/1 37/5/1
f 37/5/1 36/5/1 38/5/1
f 37/5/1 38/5/1 39/5/1
f 39/5/1 38/5/1 40/5/1
f 27/4/65 33/5/66 34/5/65
f 33/5/67 27/4/65 25/4/68
f 29/4/69 38/5/70 36/5/69
f 38/5/71 29/4/69 31/4/72
f 40/5/73 31/4/70 32/4/74
f 31/4/70 40/5/75 38/5/70
f 28/4/76 34/5/65 37/5/76
f 34/5/77 28/4/76 27/4/78
f 26/4/79 36/5/69 35/5/79
f 36/5/80 26/4/79 29/4/81
f 30/4/82 37/5/83 39/5/82
f 37/5/83 30/4/82 28/4/84
f 26/4/85 33/5/86 25/4/67
f 33/5/67 26/4/85 35/5/85
f 40/5/73 30/4/87 39/5/87
f 30/4/87 40/5/88 32/4/73
f 43/6/89 42/7/90 41/7/89
f 42/7/90 43/6/89 44/6/90
f 47/6/91 46/7/92 45/7/91
f 46/7/92 47/6/91 48/6/92
f 50/6/93 45/7/91 49/7/93
f 45/7/91 50/6/93 47/6/91
f 48/6/92 41/7/89 46/7/92
f 41/7/89 48/6/92 43/6/89
f 52/7/94 44/6/90 51/6/94
f 44/6/90 52/7/94 42/7/90
f 52/7/94 50/6/93 49/7/93
f 50/6/93 52/7/94 51/6/94
f 41/7/1 45/7/1 46/7/1
f 45/7/1 41/7/1 42/7/1
f 45/7/1 42/7/1 49/7/1
f 49/7/1 42/7/1 52/7/1
f 55/6/95 54/8/96 53/8/97
f 54/8/96 55/6/95 56/6/98
f 59/8/99 58/6/100 57/6/101
f 58/6/100 59/8/99 60/8/102
f 63/6/103 62/8/104 61/8/105
f 62/8/104 63/6/103 64/6/106
f 64/6/107 53/8/108 62/8/104
f 53/8/108 64/6/107 55/6/109
f 64/6/110 56/6/111 55/6/112
f 56/6/113 64/6/110 58/6/114
f 58/6/114 64/6/110 63/6/115
f 58/6/114 63/6/116 57/6/117
f 59/8/118 63/6/119 61/8/120
f 63/6/121 59/8/99 57/6/122
f 54/8/1 62/8/1 53/8/1
f 62/8/1 54/8/1 60/8/1
f 62/8/1 60/8/1 61/8/1
f 61/8/1 60/8/1 59/8/1
f 56/6/123 60/8/102 54/8/124
f 60/8/102 56/6/123 58/6/125
f 67/6/126 66/9/127 65/9/126
f 66/9/127 67/6/126 68/6/127
f 70/6/128 65/9/126 69/9/128
f 65/9/126 70/6/128 67/6/126
f 68/6/127 71/9/129 66/9/127
f 71/9/129 68/6/127 72/6/129
f 72/6/129 73/9/130 71/9/129
f 73/9/130 72/6/129 74/6/130
f 71/9/1 65/9/1 66/9/1
f 65/9/1 71/9/1 69/9/1
f 69/9/1 71/9/1 73/9/1
f 69/9/1 73/9/1 75/9/1
f 76/6/131 69/9/128 75/9/131
f 69/9/128 76/6/131 70/6/128
f 73/9/130 76/6/131 75/9/131
f 76/6/131 73/9/130 74/6/130
f 79/10/132 78/10/133 77/11/134
f 78/10/133 79/10/135 41/6/135
f 78/10/133 41/6/132 42/6/133
f 77/11/136 78/10/137 79/10/138
f 41/6/138 79/10/138 78/10/137
f 42/6/137 41/6/138 78/10/137
f 81/11/139 49/6/140 80/10/141
f 49/6/140 81/11/139 52/6/142
f 52/6/142 81/11/139 82/10/142
f 80/10/143 49/6/144 81/11/145
f 52/6/146 81/11/145 49/6/143
f 82/10/146 81/11/145 52/6/146
f 82/10/142 42/6/133 52/6/142
f 42/6/133 82/10/142 83/11/147
f 42/6/133 83/11/147 78/10/133
f 52/6/146 42/6/137 82/10/146
f 83/11/148 82/10/146 42/6/137
f 78/10/137 83/11/148 42/6/137
f 46/6/149 85/11/150 84/10/149
f 85/11/151 46/6/149 41/6/152
f 85/11/151 41/6/132 79/10/132
f 84/10/153 85/11/154 46/6/153
f 41/6/155 46/6/153 85/11/156
f 79/10/138 41/6/138 85/11/156
f 80/10/157 87/10/158 86/11/159
f 87/10/158 80/10/141 49/6/141
f 87/10/158 49/6/157 45/6/158
f 86/11/160 87/10/161 80/10/144
f 49/6/144 80/10/143 87/10/161
f 45/6/161 49/6/144 87/10/161
f 45/6/158 88/11/162 87/10/158
f 88/11/163 45/6/158 46/6/164
f 88/11/162 46/6/149 84/10/149
f 87/10/161 88/11/165 45/6/161
f 46/6/153 45/6/161 88/11/166
f 84/10/153 46/6/153 88/11/165
f 91/10/167 90/10/168 89/11/169
f 90/10/170 91/10/167 75/6/167
f 90/10/170 75/6/167 69/6/170
f 89/11/171 90/10/172 91/10/173
f 75/6/173 91/10/173 90/10/172
f 69/6/172 75/6/173 90/10/172
f 65/6/174 93/11/175 92/10/176
f 93/11/177 65/6/176 66/6/178
f 93/11/177 66/6/178 94/10/178
f 92/10/179 93/11/180 65/6/179
f 66/6/181 65/6/179 93/11/182
f 94/10/181 66/6/181 93/11/182
f 97/10/183 96/10/184 95/11/185
f 96/10/186 97/10/183 71/6/183
f 96/10/186 71/6/183 73/6/186
f 95/11/187 96/10/188 97/10/189
f 71/6/189 97/10/189 96/10/188
f 73/6/188 71/6/189 96/10/188
f 98/11/190 75/6/167 91/10/167
f 75/6/167 98/11/190 73/6/186
f 73/6/184 98/11/190 96/10/186
f 91/10/173 75/6/173 98/11/191
f 73/6/192 98/11/191 75/6/173
f 96/10/192 98/11/191 73/6/193
f 94/10/178 97/10/194 99/11/195
f 97/10/183 94/10/178 66/6/178
f 97/10/183 66/6/178 71/6/183
f 99/11/196 97/10/189 94/10/181
f 66/6/181 94/10/181 97/10/189
f 71/6/189 66/6/181 97/10/189
f 90/10/170 92/10/174 100/11/197
f 92/10/176 90/10/170 69/6/170
f 92/10/176 69/6/170 65/6/176
f 100/11/198 92/10/199 90/10/172
f 69/6/172 90/10/172 92/10/199
f 65/6/199 69/6/172 92/10/199
f 102/11/200 61/6/201 101/10/141
f 61/6/140 102/11/139 59/6/142
f 59/6/142 102/11/200 103/10/142
f 101/10/143 61/6/143 102/11/202
f 59/6/146 102/11/145 61/6/143
f 103/10/146 102/11/202 59/6/146
f 103/10/142 60/6/133 59/6/142
f 60/6/133 103/10/142 104/11/147
f 60/6/133 104/11/203 105/10/133
f 59/6/146 60/6/137 103/10/146
f 104/11/148 103/10/146 60/6/137
f 105/10/137 104/11/204 60/6/137
f 62/6/158 107/11/162 106/10/158
f 107/11/163 62/6/158 53/6/205
f 107/11/163 53/6/164 108/10/149
f 106/10/161 107/11/165 62/6/161
f 53/6/153 62/6/161 107/11/166
f 108/10/153 53/6/153 107/11/165
f 110/10/152 105/10/133 109/11/134
f 105/10/133 110/10/135 54/6/135
f 105/10/133 54/6/152 60/6/133
f 109/11/136 105/10/137 110/10/206
f 54/6/138 110/10/155 105/10/137
f 60/6/137 54/6/207 105/10/137
f 101/10/157 106/10/158 111/11/208
f 106/10/158 101/10/157 61/6/157
f 106/10/158 61/6/140 62/6/158
f 111/11/209 106/10/161 101/10/144
f 61/6/144 101/10/144 106/10/161
f 62/6/161 61/6/210 106/10/161
f 53/6/164 112/11/151 108/10/149
f 112/11/151 53/6/149 54/6/211
f 112/11/150 54/6/152 110/10/135
f 108/10/212 112/11/156 53/6/213
f 54/6/155 53/6/153 112/11/156
f 110/10/155 54/6/138 112/11/156
f 3/1/1 2/1/1 1/1/1
f 2/1/1 3/1/1 4/1/1
f 4/1/1 3/1/1 5/1/1
f 4/1/1 5/1/1 6/1/1
f 6/1/1 5/1/1 7/1/1
f 6/1/1 7/1/1 8/1/1
f 9/2/2 1/1/3 2/1/4
f 1/1/3 9/2/2 10/2/5
f 11/2/6 1/1/3 10/2/7
f 1/1/3 11/2/6 3/1/8
f 12/2/9 2/1/4 4/1/10
f 2/1/4 12/2/9 9/2/11
f 13/2/12 4/1/10 6/1/13
f 4/1/10 13/2/12 12/2/14
f 7/1/15 14/2/16 8/1/17
f 14/2/16 7/1/18 15/2/19
f 11/2/20 5/1/21 3/1/22
f 5/1/21 11/2/20 16/2/23
f 8/1/17 13/2/24 6/1/13
f 13/2/25 8/1/17 14/2/26
f 7/1/18 16/2/27 15/2/28
f 16/2/27 7/1/18 5/1/21
f 14/2/29 18/3/30 17/3/31
f 18/3/32 14/2/29 15/2/33
f 16/2/34 18/3/32 15/2/35
f 18/3/32 16/2/36 19/3/37
f 21/3/38 9/2/39 20/3/40
f 9/2/39 21/3/38 10/2/41
f 22/3/42 12/2/43 13/2/44
f 12/2/45 22/3/46 23/3/47
f 21/3/48 11/2/49 10/2/50
f 11/2/51 21/3/38 24/3/52
f 13/2/53 17/3/54 22/3/42
f 17/3/31 13/2/55 14/2/56
f 20/3/40 12/2/43 23/3/57
f 12/2/58 20/3/40 9/2/59
f 24/3/52 16/2/60 11/2/61
f 16/2/60 24/3/62 19/3/63
f 27/4/64 26/4/64 25/4/64
f 26/4/64 27/4/64 28/4/64
f 26/4/64 28/4/64 29/4/64
f 29/4/64 28/4/64 30/4/64
f 29/4/64 30/4/64 31/4/64
f 31/4/64 30/4/64 32/4/64
f 35/5/1 34/5/1 33/5/1
f 34/5/1 35/5/1 36/5/1
f 34/5/1 36/5/1 37/5/1
f 37/5/1 36/5/1 38/5/1
f 37/5/1 38/5/1 39/5/1
f 39/5/1 38/5/1 40/5/1
f 27/4/65 33/5/66 34/5/65
f 33/5/67 27/4/65 25/4/68
f 29/4/69 38/5/70 36/5/69
f 38/5/71 29/4/69 31/4/72
f 40/5/73 31/4/70 32/4/74
f 31/4/70 40/5/75 38/5/70
f 28/4/76 34/5/65 37/5/76
f 34/5/77 28/4/76 27/4/78
f 26/4/79 36/5/69 35/5/79
f 36/5/80 26/4/79 29/4/81
f 30/4/82 37/5/83 39/5/82
f 37/5/83 30/4/82 28/4/84
f 26/4/85 33/5/86 25/4/67
f 33/5/67 26/4/85 35/5/85
f 40/5/73 30/4/87 39/5/87
f 30/4/87 40/5/88 32/4/73
f 43/6/89 42/7/90 41/7/89
f 42/7/90 43/6/89 44/6/90
f 47/6/91 46/7/92 45/7/91
f 46/7/92 47/6/91 48/6/92
f 50/6/93 45/7/91 49/7/93
f 45/7/91 50/6/93 47/6/91
f 48/6/92 41/7/89 46/7/92
f 41/7/89 48/6/92 43/6/89
f 52/7/94 44/6/90 51/6/94
f 44/6/90 52/7/94 42/7/90
f 52/7/94 50/6/93 49/7/93
f 50/6/93 52/7/94 51/6/94
f 41/7/1 45/7/1 46/7/1
f 45/7/1 41/7/1 42/7/1
f 45/7/1 42/7/1 49/7/1
f 49/7/1 42/7/1 52/7/1
f 55/6/95 54/8/96 53/8/97
f 54/8/96 55/6/95 56/6/98
f 59/8/99 58/6/100 57/6/101
f 58/6/100 59/8/99 60/8/102
f 63/6/103 62/8/104 61/8/105
f 62/8/104 63/6/103 64/6/106
f 64/6/107 53/8/108 62/8/104
f 53/8/108 64/6/107 55/6/109
f 64/6/110 56/6/111 55/6/112
f 56/6/113 64/6/110 58/6/114
f 58/6/114 64/6/110 63/6/115
f 58/6/114 63/6/116 57/6/117
f 59/8/118 63/6/119 61/8/120
f 63/6/121 59/8/99 57/6/122
f 54/8/1 62/8/1 53/8/1
f 62/8/1 54/8/1 60/8/1
f 62/8/1 60/8/1 61/8/1
f 61/8/1 60/8/1 59/8/1
f 56/6/123 60/8/102 54/8/124
f 60/8/102 56/6/123 58/6/125
f 67/6/126 66/9/127 65/9/126
f 66/9/127 67/6/126 68/6/127
f 70/6/128 65/9/126 69/9/128
f 65/9/126 70/6/128 67/6/126
f 68/6/127 71/9/129 66/9/127
f 71/9/129 68/6/127 72/6/129
f 72/6/129 73/9/130 71/9/129
f 73/9/130 72/6/129 74/6/130
f 71/9/1 65/9/1 66/9/1
f 65/9/1 71/9/1 69/9/1
f 69/9/1 71/9/1 73/9/1
f 69/9/1 73/9/1 75/9/1
f 76/6/131 69/9/128 75/9/131
f 69/9/128 76/6/131 70/6/128
f 73/9/130 76/6/131 75/9/131
f 76/6/131 73/9/130 74/6/130
f 79/10/132 78/10/133 77/11/134
f 78/10/133 79/10/135 41/6/135
f 78/10/133 41/6/132 42/6/133
f 77/11/136 78/10/137 79/10/138
f 41/6/138 79/10/138 78/10/137
f 42/6/137 41/6/138 78/10/137
f 81/11/139 49/6/140 80/10/141
f 49/6/140 81/11/139 52/6/142
f 52/6/142 81/11/139 82/10/142
f 80/10/143 49/6/144 81/11/145
f 52/6/146 81/11/145 49/6/143
f 82/10/146 81/11/145 52/6/146
f 82/10/142 42/6/133 52/6/142
f 42/6/133 82/10/142 83/11/147
f 42/6/133 83/11/147 78/10/133
f 52/6/146 42/6/137 82/10/146
f 83/11/148 82/10/146 42/6/137
f 78/10/137 83/11/148 42/6/137
f 46/6/149 85/11/150 84/10/149
f 85/11/151 46/6/149 41/6/152
f 85/11/151 41/6/132 79/10/132
f 84/10/153 85/11/154 46/6/153
f 41/6/155 46/6/153 85/11/156
f 79/10/138 41/6/138 85/11/156
f 80/10/157 87/10/158 86/11/159
f 87/10/158 80/10/141 49/6/141
f 87/10/158 49/6/157 45/6/158
f 86/11/160 87/10/161 80/10/144
f 49/6/144 80/10/143 87/10/161
f 45/6/161 49/6/144 87/10/161
f 45/6/158 88/11/162 87/10/158
f 88/11/163 45/6/158 46/6/164
f 88/11/162 46/6/149 84/10/149
f 87/10/161 88/11/165 45/6/161
f 46/6/153 45/6/161 88/11/166
f 84/10/153 46/6/153 88/11/165
f 91/10/167 90/10/168 89/11/169
f 90/10/170 91/10/167 75/6/167
f 90/10/170 75/6/167 69/6/170
f 89/11/171 90/10/172 91/10/173
f 75/6/173 91/10/173 90/10/172
f 69/6/172 75/6/173 90/10/172
f 65/6/174 93/11/175 92/10/176
f 93/11/177 65/6/176 66/6/178
f 93/11/177 66/6/178 94/10/178
f 92/10/179 93/11/180 65/6/179
f 66/6/181 65/6/179 93/11/182
f 94/10/181 66/6/181 93/11/182
f 97/10/183 96/10/184 95/11/185
f 96/10/186 97/10/183 71/6/183
f 96/10/186 71/6/183 73/6/186
f 95/11/187 96/10/188 97/10/189
f 71/6/189 97/10/189 96/10/188
f 73/6/188 71/6/189 96/10/188
f 98/11/190 75/6/167 91/10/167
f 75/6/167 98/11/190 73/6/186
f 73/6/184 98/11/190 96/10/186
f 91/10/173 75/6/173 98/11/191
f 73/6/192 98/11/191 75/6/173
f 96/10/192 98/11/191 73/6/193
f 94/10/178 97/10/194 99/11/195
f 97/10/183 94/10/178 66/6/178
f 97/10/183 66/6/178 71/6/183
f 99/11/196 97/10/189 94/10/181
f 66/6/181 94/10/181 97/10/189
f 71/6/189 66/6/181 97/10/189
f 90/10/170 92/10/174 100/11/197
f 92/10/176 90/10/170 69/6/170
f 92/10/176 69/6/170 65/6/176
f 100/11/198 92/10/199 90/10/172
f 69/6/172 90/10/172 92/10/199
f 65/6/199 69/6/172 92/10/199
f 102/11/200 61/6/201 101/10/141
f 61/6/140 102/11/139 59/6/142
f 59/6/142 102/11/200 103/10/142
f 101/10/143 61/6/143 102/11/202
f 59/6/146 102/11/145 61/6/143
f 103/10/146 102/11/202 59/6/146
f 103/10/142 60/6/133 59/6/142
f 60/6/133 103/10/142 104/11/147
f 60/6/133 104/11/203 105/10/133
f 59/6/146 60/6/137 103/10/146
f 104/11/148 103/10/146 60/6/137
f 105/10/137 104/11/204 60/6/137
f 62/6/158 107/11/162 106/10/158
f 107/11/163 62/6/158 53/6/205
f 107/11/163 53/6/164 108/10/149
f 106/10/161 107/11/165 62/6/161
f 53/6/153 62/6/161 107/11/166
f 108/10/153 53/6/153 107/11/165
f 110/10/152 105/10/133 109/11/134
f 105/10/133 110/10/135 54/6/135
f 105/10/133 54/6/152 60/6/133
f 109/11/136 105/10/137 110/10/206
f 54/6/138 110/10/155 105/10/137
f 60/6/137 54/6/207 105/10/137
f 101/10/157 106/10/158 111/11/208
f 106/10/158 101/10/157 61/6/157
f 106/10/158 61/6/140 62/6/158
f 111/11/209 106/10/161 101/10/144
f 61/6/144 101/10/144 106/10/161
f 62/6/161 61/6/210 106/10/161
f 53/6/164 112/11/151 108/10/149
f 112/11/151 53/6/149 54/6/211
f 112/11/150 54/6/152 110/10/135
f 108/10/212 112/11/156 53/6/213
f 54/6/155 53/6/153 112/11/156
f 110/10/155 54/6/138 112/11/156
