# Blender 4.1.1
# www.blender.org
mtllib tree.062.mtl
o tree.062
v -6.737827 -4.675250 8.478081
v -6.578679 -4.675250 8.370540
v -6.871173 -4.675250 8.452277
v -6.552875 -4.675250 8.237194
v -6.978714 -4.675250 8.293128
v -6.660416 -4.675250 8.078046
v -6.952910 -4.675250 8.159782
v -6.793762 -4.675250 8.052241
v -6.672236 -4.327483 8.317850
v -6.751811 -4.327483 8.371621
v -6.818483 -4.327483 8.358719
v -6.659335 -4.327483 8.251178
v -6.713106 -4.327483 8.171603
v -6.779778 -4.327483 8.158702
v -6.859353 -4.327483 8.212472
v -6.872254 -4.327483 8.279145
v -6.783274 -3.805793 8.132086
v -6.882742 -3.805793 8.199300
v -6.898870 -3.805793 8.282640
v -6.648847 -3.805793 8.331022
v -6.748315 -3.805793 8.398236
v -6.699933 -3.805793 8.148213
v -6.632720 -3.805793 8.247682
v -6.831656 -3.805793 8.382109
v -6.638021 -4.203316 8.370406
v -6.711857 -4.203316 8.385493
v -6.596478 -4.203316 8.307528
v -6.611565 -4.203316 8.233691
v -6.774735 -4.203316 8.343951
v -6.674444 -4.203316 8.192149
v -6.789823 -4.203316 8.270114
v -6.748280 -4.203316 8.207236
v -6.606795 -4.329511 8.416618
v -6.541721 -4.329511 8.318125
v -6.722454 -4.329511 8.440250
v -6.820947 -4.329511 8.375176
v -6.565354 -4.329511 8.202465
v -6.844579 -4.329511 8.259518
v -6.663847 -4.329511 8.137392
v -6.779507 -4.329511 8.161025
v -6.980338 -3.805793 8.687550
v -7.248154 -3.805793 8.291212
v -6.894514 -3.230796 8.511209
v -7.052526 -3.230796 8.277368
v -6.293862 -3.805793 8.223679
v -6.503192 -3.805793 8.653783
v -6.489490 -3.230796 8.237523
v -6.612995 -3.230796 8.491285
v -6.561678 -3.805793 7.827342
v -6.647502 -3.230796 8.003682
v -6.929021 -3.230796 8.023605
v -7.038824 -3.805793 7.861108
v -6.616585 -2.613048 8.485973
v -6.891707 -2.613048 8.505445
v -6.735515 -1.965096 8.309973
v -6.798750 -1.965096 8.314447
v -6.806502 -1.965096 8.204919
v -6.834244 -1.965096 8.261921
v -6.925431 -2.613048 8.028917
v -7.046131 -2.613048 8.276916
v -6.650309 -2.613048 8.009446
v -6.495885 -2.613048 8.237975
v -6.743266 -1.965096 8.200443
v -6.707772 -1.965096 8.252970
v -6.421330 -3.230796 8.427632
v -6.743555 -3.230796 8.645370
v -6.610782 -2.613048 8.335427
v -6.758429 -2.613048 8.435197
v -6.448782 -3.230796 8.039708
v -6.623361 -2.613048 8.157676
v -7.093234 -3.230796 8.475183
v -6.918655 -2.613048 8.357215
v -7.120687 -3.230796 8.087258
v -6.931234 -2.613048 8.179463
v -6.798461 -3.230796 7.869522
v -6.783587 -2.613048 8.079695
v -7.189759 -3.985170 8.540407
v -7.300641 -3.895481 8.294927
v -7.003364 -3.895481 8.734861
v -6.538652 -3.895481 7.780030
v -6.806685 -3.985170 7.753316
v -7.068284 -3.895481 7.817511
v -7.225436 -3.985170 8.036278
v -6.473732 -3.895481 8.697379
v -6.735332 -3.985170 8.761575
v -6.352258 -3.985170 7.974484
v -6.241376 -3.895481 8.219964
v -6.316581 -3.985170 8.478613
v -6.591197 -3.376631 7.887993
v -6.413338 -3.303713 8.015758
v -6.801481 -3.303713 7.826850
v -6.382865 -3.303713 8.446353
v -6.540958 -3.376631 8.597893
v -6.740535 -3.303713 8.688041
v -7.180869 -3.376631 8.286451
v -7.159151 -3.303713 8.068538
v -7.128678 -3.303713 8.499134
v -7.001058 -3.376631 7.916998
v -6.950819 -3.376631 8.626899
v -6.361147 -3.376631 8.228439
v -6.637031 -2.664763 7.982167
v -6.791579 -2.716478 7.966764
v -6.942418 -2.664763 8.003778
v -7.033031 -2.716478 8.129920
v -7.076395 -2.664763 8.279058
v -6.465621 -2.664763 8.235834
v -6.508985 -2.716478 8.384972
v -6.599598 -2.664763 8.511112
v -7.012460 -2.716478 8.420602
v -6.904985 -2.664763 8.532724
v -6.529556 -2.716478 8.094290
v -6.750437 -2.716478 8.548127
vn -0.0000 -1.0000 -0.0000
vn 0.7944 0.2942 0.5314
vn 0.1870 0.2944 0.9372
vn 0.7998 0.2944 0.5231
vn 0.1967 0.2942 0.9353
vn -0.5313 0.2942 0.7944
vn 0.1966 0.2942 0.9353
vn -0.5313 0.2943 0.7944
vn -0.5231 0.2944 0.7998
vn 0.9353 0.2942 -0.1966
vn 0.9372 0.2944 -0.1870
vn 0.7944 0.2942 0.5313
vn 0.5314 0.2942 -0.7944
vn 0.5231 0.2944 -0.7998
vn 0.9353 0.2942 -0.1967
vn -0.7998 0.2944 -0.5232
vn -0.1967 0.2942 -0.9353
vn -0.1870 0.2944 -0.9372
vn -0.7944 0.2942 -0.5314
vn -0.5314 0.2942 0.7944
vn -0.9372 0.2944 0.1870
vn -0.5232 0.2944 0.7998
vn -0.9353 0.2942 0.1967
vn 0.5313 0.2942 -0.7944
vn -0.1966 0.2942 -0.9353
vn -0.7998 0.2944 -0.5231
vn -0.9353 0.2942 0.1966
vn -0.7944 0.2942 -0.5313
vn -0.2009 -0.0513 -0.9783
vn -0.8337 -0.0512 -0.5498
vn -0.1991 -0.0513 -0.9786
vn -0.8337 -0.0513 -0.5498
vn -0.2008 -0.0513 -0.9783
vn -0.8327 -0.0513 -0.5513
vn -0.9783 -0.0512 0.2008
vn -0.8328 -0.0512 -0.5513
vn -0.9783 -0.0513 0.2008
vn -0.9786 -0.0512 0.1991
vn 0.1991 -0.0512 0.9786
vn 0.8327 -0.0513 0.5513
vn 0.8337 -0.0513 0.5498
vn 0.2009 -0.0513 0.9783
vn 0.5498 -0.0513 -0.8337
vn 0.9783 -0.0513 -0.2008
vn 0.5513 -0.0513 -0.8327
vn 0.5498 -0.0512 -0.8337
vn 0.9786 -0.0513 -0.1991
vn 0.1991 -0.0513 0.9786
vn -0.5513 -0.0513 0.8328
vn 0.2008 -0.0512 0.9783
vn 0.1990 -0.0512 0.9786
vn -0.5498 -0.0513 0.8337
vn 0.5513 -0.0513 -0.8328
vn -0.1991 -0.0512 -0.9786
vn 0.5512 -0.0513 -0.8328
vn 0.9786 -0.0512 -0.1991
vn 0.9783 -0.0512 -0.2008
vn 0.8328 -0.0512 0.5512
vn -0.9783 -0.0513 0.2009
vn -0.5513 -0.0513 0.8327
vn -0.5498 -0.0512 0.8337
vn -0.9786 -0.0513 0.1991
vn -0.0000 1.0000 -0.0000
vn 0.8980 0.4042 0.1738
vn 0.5121 0.4042 0.7579
vn 0.5121 0.4043 0.7578
vn -0.7579 0.4042 0.5121
vn -0.8980 0.4042 -0.1737
vn -0.8980 0.4043 -0.1737
vn -0.5121 0.4042 -0.7579
vn -0.8980 0.4042 -0.1738
vn -0.5121 0.4043 -0.7578
vn -0.5121 0.4042 -0.7578
vn 0.7579 0.4042 -0.5121
vn 0.8980 0.4042 0.1737
vn 0.8980 0.4043 0.1737
vn -0.1738 0.4042 0.8980
vn -0.7578 0.4042 0.5121
vn 0.1738 0.4042 -0.8980
vn 0.7578 0.4042 -0.5121
vn -0.1737 0.4042 0.8980
vn 0.5121 0.4043 0.7579
vn 0.1737 0.4043 -0.8980
vn 0.1737 0.4042 -0.8980
vn -0.4142 0.3228 0.8510
vn -0.9441 0.3228 0.0668
vn 0.9441 0.3228 -0.0668
vn 0.5299 0.3228 0.7842
vn 0.4142 0.3228 -0.8510
vn -0.5299 0.3228 -0.7842
vn 0.3851 0.7260 0.5698
vn -0.4158 0.3115 0.8544
vn 0.5320 0.3115 0.7874
vn -0.3010 0.7260 0.6184
vn -0.5320 0.3115 -0.7873
vn -0.6860 0.7260 0.0486
vn -0.3850 0.7260 -0.5699
vn -0.9479 0.3115 0.0671
vn 0.3009 0.7260 -0.6184
vn 0.9479 0.3115 -0.0671
vn 0.4159 0.3115 -0.8544
vn 0.6860 0.7260 -0.0485
vn 0.6860 0.7260 -0.0486
vn 0.5320 0.3115 0.7873
vn 0.3850 0.7260 0.5699
vn 0.6860 0.7259 -0.0485
vn -0.3009 0.7259 0.6184
vn 0.3850 0.7259 0.5699
vn -0.3010 0.7259 0.6184
vn -0.6860 0.7259 0.0485
vn 0.3010 0.7259 -0.6184
vn 0.3009 0.7259 -0.6184
vn -0.3850 0.7259 -0.5699
vn 0.3010 0.7260 -0.6184
vn 0.4158 0.3115 -0.8544
vn 0.3009 0.7260 -0.6183
vn -0.3850 0.7260 -0.5698
vn -0.3009 0.7260 0.6184
vn -0.4159 0.3115 0.8544
vn -0.6860 0.7260 0.0485
vn 0.8510 0.3228 0.4142
vn 0.0668 0.3228 0.9441
vn 0.7842 0.3228 -0.5299
vn -0.7842 0.3228 0.5299
vn -0.8510 0.3228 -0.4142
vn -0.0668 0.3228 -0.9441
vn -0.3775 0.5060 0.7755
vn -0.8604 0.5060 0.0609
vn -0.7387 0.4530 0.4992
vn -0.3774 0.5060 0.7755
vn 0.7387 -0.4530 -0.4992
vn 0.8604 -0.5060 -0.0609
vn 0.3775 -0.5060 -0.7755
vn 0.3774 -0.5060 -0.7755
vn -0.0629 0.4530 -0.8893
vn 0.3774 0.5060 -0.7755
vn 0.3775 0.5060 -0.7755
vn -0.4829 0.5060 -0.7147
vn -0.3775 -0.5060 0.7755
vn 0.0629 -0.4530 0.8893
vn 0.4829 -0.5060 0.7147
vn -0.3775 -0.5060 0.7756
vn -0.8016 0.4530 -0.3901
vn 0.8016 -0.4530 0.3901
vn 0.8016 -0.4530 0.3902
vn 0.4829 0.5060 0.7146
vn 0.0629 0.4530 0.8893
vn 0.4829 0.5060 0.7147
vn -0.3775 0.5061 0.7755
vn -0.4829 -0.5060 -0.7146
vn -0.0629 -0.4530 -0.8893
vn 0.3775 -0.5060 -0.7756
vn -0.4829 -0.5060 -0.7147
vn 0.8604 0.5060 -0.0609
vn 0.7387 0.4530 -0.4992
vn 0.3775 0.5060 -0.7756
vn -0.7387 -0.4530 0.4992
vn -0.8604 -0.5060 0.0609
vn 0.8016 0.4530 0.3901
vn 0.8016 0.4529 0.3902
vn -0.8016 -0.4530 -0.3901
vn -0.8016 -0.4529 -0.3902
vn -0.0609 0.5060 -0.8604
vn 0.7147 0.5060 -0.4829
vn 0.3902 0.4529 -0.8016
vn -0.3902 -0.4529 0.8016
vn -0.7147 -0.5060 0.4829
vn 0.0609 -0.5060 0.8604
vn 0.7755 0.5060 0.3774
vn 0.4991 0.4530 0.7387
vn 0.7755 0.5060 0.3775
vn 0.4992 0.4530 0.7387
vn 0.7756 0.5060 0.3775
vn 0.0609 0.5060 0.8604
vn -0.7755 -0.5060 -0.3774
vn -0.4991 -0.4530 -0.7387
vn -0.7755 -0.5061 -0.3774
vn -0.0609 -0.5060 -0.8604
vn -0.7755 -0.5060 -0.3775
vn -0.4992 -0.4530 -0.7387
vn -0.7147 0.5060 0.4829
vn -0.7755 0.5060 -0.3775
vn -0.8893 0.4530 0.0629
vn -0.7756 0.5060 -0.3775
vn 0.8893 -0.4530 -0.0629
vn 0.7756 -0.5060 0.3775
vn 0.7147 -0.5060 -0.4829
vn -0.4992 0.4530 -0.7387
vn -0.0609 0.5061 -0.8604
vn -0.4992 0.4529 -0.7387
vn 0.4992 -0.4530 0.7387
vn 0.7755 -0.5060 0.3775
vn 0.4992 -0.4529 0.7387
vn -0.7146 0.5060 0.4829
vn -0.3901 0.4530 0.8016
vn 0.3902 -0.4530 -0.8016
vn 0.8893 0.4530 -0.0629
vn -0.8893 -0.4530 0.0629
vn -0.7756 -0.5060 -0.3775
vn -0.7146 -0.5060 0.4829
vn -0.0629 0.4529 -0.8893
vn 0.0629 -0.4529 0.8893
vn 0.4829 -0.5060 0.7146
vn -0.8016 0.4530 -0.3902
vn 0.8016 0.4530 0.3902
vn -0.8016 -0.4530 -0.3902
vn -0.3775 0.5060 0.7756
vn -0.7387 -0.4529 0.4992
vn -0.3774 0.5061 0.7755
vt 0.593750 0.025000
vt 0.593750 0.104996
vt 0.593750 0.225000
vt 0.093750 0.475000
vt 0.093750 0.275000
vt 0.093750 0.425000
vt 0.093750 0.348778
vt 0.093750 0.338765
vt 0.093750 0.344099
vt 0.093750 0.375000
vt 0.093750 0.325000
s 0
usemtl colormap.002
f 3/1/1 2/1/1 1/1/1
f 2/1/1 3/1/1 4/1/1
f 4/1/1 3/1/1 5/1/1
f 4/1/1 5/1/1 6/1/1
f 6/1/1 5/1/1 7/1/1
f 6/1/1 7/1/1 8/1/1
f 9/2/2 1/1/3 2/1/4
f 1/1/3 9/2/2 10/2/5
f 11/2/6 1/1/3 10/2/7
f 1/1/3 11/2/8 3/1/9
f 12/2/10 2/1/4 4/1/11
f 2/1/4 12/2/10 9/2/12
f 13/2/13 4/1/11 6/1/14
f 4/1/11 13/2/13 12/2/15
f 7/1/16 14/2/17 8/1/18
f 14/2/17 7/1/16 15/2/19
f 11/2/20 5/1/21 3/1/22
f 5/1/21 11/2/20 16/2/23
f 8/1/18 13/2/24 6/1/14
f 13/2/24 8/1/18 14/2/25
f 7/1/26 16/2/27 15/2/28
f 16/2/27 7/1/26 5/1/21
f 14/2/29 18/3/30 17/3/31
f 18/3/32 14/2/33 15/2/34
f 16/2/35 18/3/32 15/2/36
f 18/3/32 16/2/37 19/3/38
f 21/3/39 9/2/40 20/3/41
f 9/2/40 21/3/39 10/2/42
f 22/3/43 12/2/44 13/2/45
f 12/2/44 22/3/46 23/3/47
f 21/3/48 11/2/49 10/2/50
f 11/2/49 21/3/51 24/3/52
f 13/2/53 17/3/54 22/3/46
f 17/3/31 13/2/55 14/2/33
f 20/3/41 12/2/44 23/3/56
f 12/2/57 20/3/41 9/2/58
f 24/3/52 16/2/59 11/2/60
f 16/2/37 24/3/61 19/3/62
f 27/4/63 26/4/63 25/4/63
f 26/4/63 27/4/63 28/4/63
f 26/4/63 28/4/63 29/4/63
f 29/4/63 28/4/63 30/4/63
f 29/4/63 30/4/63 31/4/63
f 31/4/63 30/4/63 32/4/63
f 35/5/1 34/5/1 33/5/1
f 34/5/1 35/5/1 36/5/1
f 34/5/1 36/5/1 37/5/1
f 37/5/1 36/5/1 38/5/1
f 37/5/1 38/5/1 39/5/1
f 39/5/1 38/5/1 40/5/1
f 27/4/64 33/5/65 34/5/64
f 33/5/65 27/4/64 25/4/66
f 29/4/67 38/5/68 36/5/67
f 38/5/68 29/4/67 31/4/69
f 40/5/70 31/4/71 32/4/72
f 31/4/71 40/5/73 38/5/71
f 28/4/74 34/5/75 37/5/74
f 34/5/75 28/4/74 27/4/76
f 26/4/77 36/5/67 35/5/77
f 36/5/67 26/4/77 29/4/78
f 30/4/79 37/5/80 39/5/79
f 37/5/74 30/4/79 28/4/80
f 26/4/81 33/5/82 25/4/65
f 33/5/65 26/4/81 35/5/81
f 40/5/70 30/4/83 39/5/84
f 30/4/84 40/5/72 32/4/70
f 43/6/85 42/7/86 41/7/85
f 42/7/86 43/6/85 44/6/86
f 47/6/87 46/7/88 45/7/87
f 46/7/88 47/6/87 48/6/88
f 50/6/89 45/7/87 49/7/89
f 45/7/87 50/6/89 47/6/87
f 48/6/88 41/7/85 46/7/88
f 41/7/85 48/6/88 43/6/85
f 52/7/90 44/6/86 51/6/90
f 44/6/86 52/7/90 42/7/86
f 52/7/90 50/6/89 49/7/89
f 50/6/89 52/7/90 51/6/90
f 41/7/1 45/7/1 46/7/1
f 45/7/1 41/7/1 42/7/1
f 45/7/1 42/7/1 49/7/1
f 49/7/1 42/7/1 52/7/1
f 55/6/91 54/8/92 53/8/93
f 54/8/92 55/6/91 56/6/94
f 59/8/95 58/6/96 57/6/97
f 58/6/96 59/8/95 60/8/98
f 63/6/99 62/8/100 61/8/101
f 62/8/100 63/6/99 64/6/102
f 64/6/103 53/8/104 62/8/100
f 53/8/104 64/6/103 55/6/105
f 64/6/106 56/6/107 55/6/108
f 56/6/109 64/6/106 58/6/110
f 58/6/110 64/6/106 63/6/111
f 58/6/110 63/6/112 57/6/113
f 59/8/95 63/6/114 61/8/115
f 63/6/116 59/8/95 57/6/117
f 54/8/1 62/8/1 53/8/1
f 62/8/1 54/8/1 60/8/1
f 62/8/1 60/8/1 61/8/1
f 61/8/1 60/8/1 59/8/1
f 56/6/118 60/8/98 54/8/119
f 60/8/98 56/6/118 58/6/120
f 67/6/121 66/9/122 65/9/121
f 66/9/122 67/6/121 68/6/122
f 70/6/123 65/9/121 69/9/123
f 65/9/121 70/6/123 67/6/121
f 68/6/122 71/9/124 66/9/122
f 71/9/124 68/6/122 72/6/124
f 72/6/124 73/9/125 71/9/124
f 73/9/125 72/6/124 74/6/125
f 71/9/1 65/9/1 66/9/1
f 65/9/1 71/9/1 69/9/1
f 69/9/1 71/9/1 73/9/1
f 69/9/1 73/9/1 75/9/1
f 76/6/126 69/9/123 75/9/126
f 69/9/123 76/6/126 70/6/123
f 73/9/125 76/6/126 75/9/126
f 76/6/126 73/9/125 74/6/125
f 79/10/127 78/10/128 77/11/129
f 78/10/128 79/10/127 41/6/130
f 78/10/128 41/6/127 42/6/128
f 77/11/131 78/10/132 79/10/133
f 41/6/134 79/10/134 78/10/132
f 42/6/132 41/6/133 78/10/132
f 81/11/135 49/6/136 80/10/137
f 49/6/136 81/11/135 52/6/138
f 52/6/138 81/11/135 82/10/138
f 80/10/139 49/6/139 81/11/140
f 52/6/141 81/11/140 49/6/142
f 82/10/141 81/11/140 52/6/141
f 82/10/138 42/6/128 52/6/138
f 42/6/128 82/10/138 83/11/143
f 42/6/128 83/11/143 78/10/128
f 52/6/141 42/6/132 82/10/141
f 83/11/144 82/10/141 42/6/132
f 78/10/132 83/11/145 42/6/132
f 46/6/146 85/11/147 84/10/148
f 85/11/147 46/6/148 41/6/130
f 85/11/147 41/6/149 79/10/127
f 84/10/150 85/11/151 46/6/150
f 41/6/152 46/6/153 85/11/151
f 79/10/133 41/6/133 85/11/151
f 80/10/137 87/10/154 86/11/155
f 87/10/154 80/10/137 49/6/137
f 87/10/154 49/6/156 45/6/154
f 86/11/157 87/10/158 80/10/139
f 49/6/139 80/10/139 87/10/158
f 45/6/158 49/6/139 87/10/158
f 45/6/154 88/11/159 87/10/154
f 88/11/159 45/6/154 46/6/146
f 88/11/160 46/6/148 84/10/148
f 87/10/158 88/11/161 45/6/158
f 46/6/153 45/6/158 88/11/161
f 84/10/153 46/6/153 88/11/162
f 91/10/163 90/10/164 89/11/165
f 90/10/164 91/10/163 75/6/163
f 90/10/164 75/6/163 69/6/164
f 89/11/166 90/10/167 91/10/168
f 75/6/168 91/10/168 90/10/167
f 69/6/167 75/6/168 90/10/167
f 65/6/169 93/11/170 92/10/171
f 93/11/172 65/6/173 66/6/174
f 93/11/172 66/6/174 94/10/174
f 92/10/175 93/11/176 65/6/177
f 66/6/178 65/6/179 93/11/180
f 94/10/178 66/6/178 93/11/180
f 97/10/181 96/10/182 95/11/183
f 96/10/184 97/10/181 71/6/181
f 96/10/184 71/6/181 73/6/184
f 95/11/185 96/10/186 97/10/187
f 71/6/187 97/10/187 96/10/186
f 73/6/186 71/6/187 96/10/186
f 98/11/188 75/6/189 91/10/163
f 75/6/163 98/11/190 73/6/184
f 73/6/182 98/11/188 96/10/184
f 91/10/168 75/6/168 98/11/191
f 73/6/192 98/11/193 75/6/168
f 96/10/192 98/11/191 73/6/192
f 94/10/174 97/10/194 99/11/195
f 97/10/181 94/10/174 66/6/174
f 97/10/181 66/6/174 71/6/181
f 99/11/196 97/10/187 94/10/178
f 66/6/178 94/10/178 97/10/187
f 71/6/187 66/6/178 97/10/187
f 90/10/164 92/10/171 100/11/197
f 92/10/173 90/10/164 69/6/164
f 92/10/173 69/6/164 65/6/173
f 100/11/198 92/10/199 90/10/167
f 69/6/167 90/10/167 92/10/199
f 65/6/199 69/6/200 92/10/199
f 102/11/201 61/6/136 101/10/156
f 61/6/136 102/11/135 59/6/138
f 59/6/138 102/11/135 103/10/138
f 101/10/142 61/6/142 102/11/202
f 59/6/141 102/11/140 61/6/142
f 103/10/141 102/11/140 59/6/203
f 103/10/138 60/6/128 59/6/138
f 60/6/128 103/10/138 104/11/143
f 60/6/128 104/11/204 105/10/128
f 59/6/141 60/6/132 103/10/141
f 104/11/144 103/10/141 60/6/132
f 105/10/132 104/11/145 60/6/132
f 62/6/154 107/11/205 106/10/154
f 107/11/205 62/6/154 53/6/146
f 107/11/159 53/6/146 108/10/148
f 106/10/158 107/11/206 62/6/158
f 53/6/153 62/6/158 107/11/206
f 108/10/153 53/6/153 107/11/161
f 110/10/127 105/10/128 109/11/129
f 105/10/128 110/10/127 54/6/207
f 105/10/128 54/6/207 60/6/128
f 109/11/131 105/10/132 110/10/133
f 54/6/133 110/10/133 105/10/132
f 60/6/132 54/6/133 105/10/132
f 101/10/137 106/10/154 111/11/155
f 106/10/154 101/10/137 61/6/137
f 106/10/154 61/6/156 62/6/154
f 111/11/208 106/10/158 101/10/139
f 61/6/139 101/10/139 106/10/158
f 62/6/158 61/6/139 106/10/158
f 53/6/146 112/11/147 108/10/148
f 112/11/147 53/6/148 54/6/209
f 112/11/147 54/6/130 110/10/127
f 108/10/153 112/11/151 53/6/150
f 54/6/152 53/6/153 112/11/151
f 110/10/152 54/6/133 112/11/151
f 3/1/1 2/1/1 1/1/1
f 2/1/1 3/1/1 4/1/1
f 4/1/1 3/1/1 5/1/1
f 4/1/1 5/1/1 6/1/1
f 6/1/1 5/1/1 7/1/1
f 6/1/1 7/1/1 8/1/1
f 9/2/2 1/1/3 2/1/4
f 1/1/3 9/2/2 10/2/5
f 11/2/6 1/1/3 10/2/7
f 1/1/3 11/2/8 3/1/9
f 12/2/10 2/1/4 4/1/11
f 2/1/4 12/2/10 9/2/12
f 13/2/13 4/1/11 6/1/14
f 4/1/11 13/2/13 12/2/15
f 7/1/16 14/2/17 8/1/18
f 14/2/17 7/1/16 15/2/19
f 11/2/20 5/1/21 3/1/22
f 5/1/21 11/2/20 16/2/23
f 8/1/18 13/2/24 6/1/14
f 13/2/24 8/1/18 14/2/25
f 7/1/26 16/2/27 15/2/28
f 16/2/27 7/1/26 5/1/21
f 14/2/29 18/3/30 17/3/31
f 18/3/32 14/2/33 15/2/34
f 16/2/35 18/3/32 15/2/36
f 18/3/32 16/2/37 19/3/38
f 21/3/39 9/2/40 20/3/41
f 9/2/40 21/3/39 10/2/42
f 22/3/43 12/2/44 13/2/45
f 12/2/44 22/3/46 23/3/47
f 21/3/48 11/2/49 10/2/50
f 11/2/49 21/3/51 24/3/52
f 13/2/53 17/3/54 22/3/46
f 17/3/31 13/2/55 14/2/33
f 20/3/41 12/2/44 23/3/56
f 12/2/57 20/3/41 9/2/58
f 24/3/52 16/2/59 11/2/60
f 16/2/37 24/3/61 19/3/62
f 27/4/63 26/4/63 25/4/63
f 26/4/63 27/4/63 28/4/63
f 26/4/63 28/4/63 29/4/63
f 29/4/63 28/4/63 30/4/63
f 29/4/63 30/4/63 31/4/63
f 31/4/63 30/4/63 32/4/63
f 35/5/1 34/5/1 33/5/1
f 34/5/1 35/5/1 36/5/1
f 34/5/1 36/5/1 37/5/1
f 37/5/1 36/5/1 38/5/1
f 37/5/1 38/5/1 39/5/1
f 39/5/1 38/5/1 40/5/1
f 27/4/64 33/5/65 34/5/64
f 33/5/65 27/4/64 25/4/66
f 29/4/67 38/5/68 36/5/67
f 38/5/68 29/4/67 31/4/69
f 40/5/70 31/4/71 32/4/72
f 31/4/71 40/5/73 38/5/71
f 28/4/74 34/5/75 37/5/74
f 34/5/75 28/4/74 27/4/76
f 26/4/77 36/5/67 35/5/77
f 36/5/67 26/4/77 29/4/78
f 30/4/79 37/5/80 39/5/79
f 37/5/74 30/4/79 28/4/80
f 26/4/81 33/5/82 25/4/65
f 33/5/65 26/4/81 35/5/81
f 40/5/70 30/4/83 39/5/84
f 30/4/84 40/5/72 32/4/70
f 43/6/85 42/7/86 41/7/85
f 42/7/86 43/6/85 44/6/86
f 47/6/87 46/7/88 45/7/87
f 46/7/88 47/6/87 48/6/88
f 50/6/89 45/7/87 49/7/89
f 45/7/87 50/6/89 47/6/87
f 48/6/88 41/7/85 46/7/88
f 41/7/85 48/6/88 43/6/85
f 52/7/90 44/6/86 51/6/90
f 44/6/86 52/7/90 42/7/86
f 52/7/90 50/6/89 49/7/89
f 50/6/89 52/7/90 51/6/90
f 41/7/1 45/7/1 46/7/1
f 45/7/1 41/7/1 42/7/1
f 45/7/1 42/7/1 49/7/1
f 49/7/1 42/7/1 52/7/1
f 55/6/91 54/8/92 53/8/93
f 54/8/92 55/6/91 56/6/94
f 59/8/95 58/6/96 57/6/97
f 58/6/96 59/8/95 60/8/98
f 63/6/99 62/8/100 61/8/101
f 62/8/100 63/6/99 64/6/102
f 64/6/103 53/8/104 62/8/100
f 53/8/104 64/6/103 55/6/105
f 64/6/106 56/6/107 55/6/108
f 56/6/109 64/6/106 58/6/110
f 58/6/110 64/6/106 63/6/111
f 58/6/110 63/6/112 57/6/113
f 59/8/95 63/6/114 61/8/115
f 63/6/116 59/8/95 57/6/117
f 54/8/1 62/8/1 53/8/1
f 62/8/1 54/8/1 60/8/1
f 62/8/1 60/8/1 61/8/1
f 61/8/1 60/8/1 59/8/1
f 56/6/118 60/8/98 54/8/119
f 60/8/98 56/6/118 58/6/120
f 67/6/121 66/9/122 65/9/121
f 66/9/122 67/6/121 68/6/122
f 70/6/123 65/9/121 69/9/123
f 65/9/121 70/6/123 67/6/121
f 68/6/122 71/9/124 66/9/122
f 71/9/124 68/6/122 72/6/124
f 72/6/124 73/9/125 71/9/124
f 73/9/125 72/6/124 74/6/125
f 71/9/1 65/9/1 66/9/1
f 65/9/1 71/9/1 69/9/1
f 69/9/1 71/9/1 73/9/1
f 69/9/1 73/9/1 75/9/1
f 76/6/126 69/9/123 75/9/126
f 69/9/123 76/6/126 70/6/123
f 73/9/125 76/6/126 75/9/126
f 76/6/126 73/9/125 74/6/125
f 79/10/127 78/10/128 77/11/129
f 78/10/128 79/10/127 41/6/130
f 78/10/128 41/6/127 42/6/128
f 77/11/131 78/10/132 79/10/133
f 41/6/134 79/10/134 78/10/132
f 42/6/132 41/6/133 78/10/132
f 81/11/135 49/6/136 80/10/137
f 49/6/136 81/11/135 52/6/138
f 52/6/138 81/11/135 82/10/138
f 80/10/139 49/6/139 81/11/140
f 52/6/141 81/11/140 49/6/142
f 82/10/141 81/11/140 52/6/141
f 82/10/138 42/6/128 52/6/138
f 42/6/128 82/10/138 83/11/143
f 42/6/128 83/11/143 78/10/128
f 52/6/141 42/6/132 82/10/141
f 83/11/144 82/10/141 42/6/132
f 78/10/132 83/11/145 42/6/132
f 46/6/146 85/11/147 84/10/148
f 85/11/147 46/6/148 41/6/130
f 85/11/147 41/6/149 79/10/127
f 84/10/150 85/11/151 46/6/150
f 41/6/152 46/6/153 85/11/151
f 79/10/133 41/6/133 85/11/151
f 80/10/137 87/10/154 86/11/155
f 87/10/154 80/10/137 49/6/137
f 87/10/154 49/6/156 45/6/154
f 86/11/157 87/10/158 80/10/139
f 49/6/139 80/10/139 87/10/158
f 45/6/158 49/6/139 87/10/158
f 45/6/154 88/11/159 87/10/154
f 88/11/159 45/6/154 46/6/146
f 88/11/160 46/6/148 84/10/148
f 87/10/158 88/11/161 45/6/158
f 46/6/153 45/6/158 88/11/161
f 84/10/153 46/6/153 88/11/162
f 91/10/163 90/10/164 89/11/165
f 90/10/164 91/10/163 75/6/163
f 90/10/164 75/6/163 69/6/164
f 89/11/166 90/10/167 91/10/168
f 75/6/168 91/10/168 90/10/167
f 69/6/167 75/6/168 90/10/167
f 65/6/169 93/11/170 92/10/171
f 93/11/172 65/6/173 66/6/174
f 93/11/172 66/6/174 94/10/174
f 92/10/175 93/11/176 65/6/177
f 66/6/178 65/6/179 93/11/180
f 94/10/178 66/6/178 93/11/180
f 97/10/181 96/10/182 95/11/183
f 96/10/184 97/10/181 71/6/181
f 96/10/184 71/6/181 73/6/184
f 95/11/185 96/10/186 97/10/187
f 71/6/187 97/10/187 96/10/186
f 73/6/186 71/6/187 96/10/186
f 98/11/188 75/6/189 91/10/163
f 75/6/163 98/11/190 73/6/184
f 73/6/182 98/11/188 96/10/184
f 91/10/168 75/6/168 98/11/191
f 73/6/192 98/11/193 75/6/168
f 96/10/192 98/11/191 73/6/192
f 94/10/174 97/10/194 99/11/195
f 97/10/181 94/10/174 66/6/174
f 97/10/181 66/6/174 71/6/181
f 99/11/196 97/10/187 94/10/178
f 66/6/178 94/10/178 97/10/187
f 71/6/187 66/6/178 97/10/187
f 90/10/164 92/10/171 100/11/197
f 92/10/173 90/10/164 69/6/164
f 92/10/173 69/6/164 65/6/173
f 100/11/198 92/10/199 90/10/167
f 69/6/167 90/10/167 92/10/199
f 65/6/199 69/6/200 92/10/199
f 102/11/201 61/6/136 101/10/156
f 61/6/136 102/11/135 59/6/138
f 59/6/138 102/11/135 103/10/138
f 101/10/142 61/6/142 102/11/202
f 59/6/141 102/11/140 61/6/142
f 103/10/141 102/11/140 59/6/203
f 103/10/138 60/6/128 59/6/138
f 60/6/128 103/10/138 104/11/143
f 60/6/128 104/11/204 105/10/128
f 59/6/141 60/6/132 103/10/141
f 104/11/144 103/10/141 60/6/132
f 105/10/132 104/11/145 60/6/132
f 62/6/154 107/11/205 106/10/154
f 107/11/205 62/6/154 53/6/146
f 107/11/159 53/6/146 108/10/148
f 106/10/158 107/11/206 62/6/158
f 53/6/153 62/6/158 107/11/206
f 108/10/153 53/6/153 107/11/161
f 110/10/127 105/10/128 109/11/129
f 105/10/128 110/10/127 54/6/207
f 105/10/128 54/6/207 60/6/128
f 109/11/131 105/10/132 110/10/133
f 54/6/133 110/10/133 105/10/132
f 60/6/132 54/6/133 105/10/132
f 101/10/137 106/10/154 111/11/155
f 106/10/154 101/10/137 61/6/137
f 106/10/154 61/6/156 62/6/154
f 111/11/208 106/10/158 101/10/139
f 61/6/139 101/10/139 106/10/158
f 62/6/158 61/6/139 106/10/158
f 53/6/146 112/11/147 108/10/148
f 112/11/147 53/6/148 54/6/209
f 112/11/147 54/6/130 110/10/127
f 108/10/153 112/11/151 53/6/150
f 54/6/152 53/6/153 112/11/151
f 110/10/152 54/6/133 112/11/151
