# Blender 4.1.1
# www.blender.org
mtllib tree.030.mtl
o tree.030
v -3.891272 -0.282319 7.014948
v -3.740839 -0.282319 6.913296
v -4.017314 -0.282319 6.990557
v -3.716448 -0.282319 6.787253
v -4.118967 -0.282319 6.840125
v -3.818100 -0.282319 6.636821
v -4.094576 -0.282319 6.714082
v -3.944143 -0.282319 6.612430
v -3.829273 0.046402 6.863492
v -3.904490 0.046402 6.914319
v -3.967511 0.046402 6.902123
v -3.817078 0.046402 6.800471
v -3.867904 0.046402 6.725255
v -3.930925 0.046402 6.713060
v -4.006142 0.046402 6.763886
v -4.018337 0.046402 6.826907
v -3.934230 0.539521 6.687902
v -4.028250 0.539521 6.751435
v -4.043494 0.539521 6.830211
v -3.807165 0.539521 6.875944
v -3.901185 0.539521 6.939476
v -3.855453 0.539521 6.703146
v -3.791920 0.539521 6.797167
v -3.979962 0.539521 6.924232
v -3.796932 0.163768 6.913170
v -3.866724 0.163768 6.927432
v -3.757664 0.163768 6.853736
v -3.771924 0.163768 6.783943
v -3.926159 0.163768 6.888164
v -3.831359 0.163768 6.744676
v -3.940420 0.163768 6.818370
v -3.901152 0.163768 6.758936
v -3.767415 0.044485 6.956851
v -3.705906 0.044485 6.863752
v -3.876740 0.044485 6.979189
v -3.969839 0.044485 6.917680
v -3.728244 0.044485 6.754426
v -3.992177 0.044485 6.808355
v -3.821344 0.044485 6.692918
v -3.930668 0.044485 6.715256
v -4.120501 0.539521 7.212945
v -4.373650 0.539521 6.838314
v -4.039377 1.083027 7.046262
v -4.188736 1.083027 6.825227
v -3.471621 0.539521 6.774478
v -3.669487 0.539521 7.181027
v -3.656535 1.083027 6.787564
v -3.773277 1.083027 7.027430
v -3.724770 0.539521 6.399847
v -3.805894 1.083027 6.566530
v -4.071994 1.083027 6.585362
v -4.175785 0.539521 6.431765
v -3.776669 1.666943 7.022408
v -4.036725 1.666943 7.040813
v -3.889086 2.279410 6.856046
v -3.948858 2.279410 6.860276
v -3.956185 2.279410 6.756746
v -3.982409 2.279410 6.810626
v -4.068601 1.666943 6.590383
v -4.182691 1.666943 6.824800
v -3.808546 1.666943 6.571979
v -3.662580 1.666943 6.787992
v -3.896412 2.279410 6.752516
v -3.862862 2.279410 6.802166
v -3.592108 1.083027 6.967262
v -3.896686 1.083027 7.173075
v -3.771184 1.666943 6.880106
v -3.910745 1.666943 6.974412
v -3.618057 1.083027 6.600584
v -3.783074 1.666943 6.712090
v -4.227214 1.083027 7.012208
v -4.062196 1.666943 6.900702
v -4.253163 1.083027 6.645530
v -4.074087 1.666943 6.732685
v -3.948585 1.083027 6.439717
v -3.934525 1.666943 6.638380
v -4.318452 0.369968 7.073861
v -4.423262 0.454744 6.841825
v -4.142266 0.454744 7.257666
v -3.703005 0.454744 6.355127
v -3.956359 0.369968 6.329876
v -4.203631 0.454744 6.390555
v -4.352175 0.369968 6.597341
v -3.641640 0.454744 7.222237
v -3.888912 0.369968 7.282916
v -3.526818 0.369968 6.538931
v -3.422009 0.454744 6.770967
v -3.493096 0.369968 7.015451
v -3.752672 0.945179 6.457177
v -3.584553 1.014103 6.577945
v -3.951439 1.014103 6.399383
v -3.555750 1.014103 6.984958
v -3.705184 0.945179 7.128198
v -3.893831 1.014103 7.213409
v -4.310050 0.945179 6.833813
v -4.289521 1.014103 6.627834
v -4.260717 1.014103 7.034848
v -4.140086 0.945179 6.484593
v -4.092599 0.945179 7.155616
v -3.535221 0.945179 6.778979
v -3.795996 1.618061 6.546193
v -3.942080 1.569178 6.531634
v -4.084658 1.618061 6.566622
v -4.170309 1.569178 6.685855
v -4.211297 1.618061 6.826825
v -3.633974 1.618061 6.785968
v -3.674962 1.569178 6.926938
v -3.760613 1.618061 7.046170
v -4.150864 1.569178 6.960617
v -4.049275 1.618061 7.066598
v -3.694407 1.569178 6.652175
v -3.903191 1.569178 7.081158
vn -0.0000 -1.0000 -0.0000
vn 0.7944 0.2942 0.5314
vn 0.1870 0.2944 0.9372
vn 0.7998 0.2944 0.5231
vn 0.1967 0.2942 0.9353
vn -0.5313 0.2942 0.7944
vn 0.1966 0.2942 0.9353
vn -0.5313 0.2943 0.7944
vn -0.5231 0.2944 0.7998
vn 0.9353 0.2942 -0.1966
vn 0.9372 0.2944 -0.1870
vn 0.7944 0.2942 0.5313
vn 0.5314 0.2942 -0.7944
vn 0.5231 0.2944 -0.7998
vn 0.9353 0.2942 -0.1967
vn -0.7998 0.2944 -0.5232
vn -0.1967 0.2942 -0.9353
vn -0.1870 0.2944 -0.9372
vn -0.7944 0.2942 -0.5314
vn -0.5314 0.2942 0.7944
vn -0.9372 0.2944 0.1870
vn -0.9353 0.2942 0.1967
vn 0.5313 0.2943 -0.7944
vn 0.5313 0.2942 -0.7944
vn -0.1966 0.2942 -0.9353
vn -0.7998 0.2944 -0.5231
vn -0.9353 0.2942 0.1966
vn -0.7944 0.2942 -0.5313
vn -0.2009 -0.0513 -0.9783
vn -0.8337 -0.0512 -0.5498
vn -0.1991 -0.0513 -0.9786
vn -0.8337 -0.0513 -0.5498
vn -0.8327 -0.0513 -0.5513
vn -0.9783 -0.0512 0.2008
vn -0.8328 -0.0512 -0.5513
vn -0.9783 -0.0513 0.2008
vn -0.9786 -0.0512 0.1991
vn 0.1991 -0.0512 0.9786
vn 0.8327 -0.0513 0.5513
vn 0.8337 -0.0513 0.5498
vn 0.2008 -0.0513 0.9783
vn 0.5498 -0.0513 -0.8337
vn 0.9783 -0.0513 -0.2008
vn 0.5513 -0.0513 -0.8327
vn 0.9783 -0.0513 -0.2009
vn 0.5498 -0.0512 -0.8337
vn 0.9786 -0.0513 -0.1991
vn 0.1991 -0.0513 0.9786
vn -0.5513 -0.0513 0.8328
vn 0.2008 -0.0512 0.9783
vn -0.5498 -0.0513 0.8337
vn 0.5513 -0.0513 -0.8328
vn -0.1991 -0.0512 -0.9786
vn 0.5512 -0.0513 -0.8328
vn -0.2008 -0.0512 -0.9783
vn 0.9786 -0.0512 -0.1991
vn 0.9783 -0.0512 -0.2008
vn 0.8328 -0.0512 0.5512
vn -0.9783 -0.0513 0.2009
vn -0.5513 -0.0513 0.8327
vn -0.5498 -0.0512 0.8337
vn -0.9786 -0.0513 0.1991
vn -0.0000 1.0000 -0.0000
vn 0.8980 0.4042 0.1738
vn 0.5121 0.4042 0.7578
vn 0.5121 0.4042 0.7579
vn 0.5121 0.4043 0.7578
vn -0.7579 0.4042 0.5121
vn -0.8980 0.4042 -0.1738
vn -0.8980 0.4042 -0.1737
vn -0.8980 0.4043 -0.1737
vn -0.5121 0.4042 -0.7579
vn -0.5121 0.4043 -0.7578
vn -0.5121 0.4042 -0.7578
vn 0.7579 0.4042 -0.5121
vn 0.8980 0.4042 0.1737
vn 0.8980 0.4043 0.1737
vn -0.1738 0.4042 0.8980
vn -0.7578 0.4042 0.5121
vn -0.7578 0.4043 0.5121
vn 0.1738 0.4042 -0.8980
vn 0.7578 0.4042 -0.5121
vn 0.7578 0.4043 -0.5121
vn -0.1737 0.4042 0.8980
vn 0.5121 0.4043 0.7579
vn 0.1737 0.4042 -0.8980
vn -0.5121 0.4043 -0.7579
vn -0.4142 0.3228 0.8510
vn -0.9441 0.3228 0.0668
vn 0.9441 0.3228 -0.0668
vn 0.5299 0.3228 0.7842
vn 0.4142 0.3228 -0.8510
vn -0.5299 0.3228 -0.7842
vn 0.3851 0.7260 0.5698
vn -0.4158 0.3115 0.8544
vn 0.5320 0.3115 0.7874
vn -0.3010 0.7260 0.6184
vn -0.5320 0.3115 -0.7873
vn -0.6860 0.7260 0.0486
vn -0.3850 0.7260 -0.5699
vn -0.9479 0.3115 0.0671
vn 0.3009 0.7260 -0.6184
vn 0.9479 0.3115 -0.0671
vn 0.4159 0.3115 -0.8544
vn 0.6860 0.7260 -0.0485
vn 0.6860 0.7260 -0.0486
vn 0.5320 0.3115 0.7873
vn 0.3850 0.7260 0.5699
vn 0.6860 0.7259 -0.0485
vn -0.3009 0.7259 0.6184
vn 0.3850 0.7259 0.5699
vn -0.3010 0.7259 0.6184
vn -0.6860 0.7259 0.0485
vn 0.3010 0.7259 -0.6184
vn 0.3009 0.7259 -0.6184
vn -0.3850 0.7259 -0.5699
vn -0.5320 0.3116 -0.7873
vn 0.3010 0.7260 -0.6184
vn 0.4158 0.3115 -0.8544
vn 0.3009 0.7260 -0.6183
vn -0.3850 0.7260 -0.5698
vn -0.3009 0.7260 0.6184
vn -0.4159 0.3115 0.8544
vn -0.6860 0.7260 0.0485
vn 0.8510 0.3228 0.4142
vn 0.0668 0.3228 0.9441
vn 0.7842 0.3228 -0.5299
vn -0.7842 0.3228 0.5299
vn -0.8510 0.3228 -0.4142
vn -0.0668 0.3228 -0.9441
vn -0.3775 0.5060 0.7755
vn -0.8604 0.5060 0.0609
vn -0.7387 0.4530 0.4992
vn 0.7387 -0.4530 -0.4992
vn 0.8604 -0.5060 -0.0609
vn 0.3775 -0.5060 -0.7755
vn 0.3774 -0.5060 -0.7755
vn -0.0629 0.4530 -0.8893
vn 0.3774 0.5060 -0.7755
vn 0.3775 0.5060 -0.7756
vn -0.4829 0.5060 -0.7147
vn -0.3775 -0.5060 0.7756
vn -0.3775 -0.5060 0.7755
vn 0.0629 -0.4530 0.8893
vn 0.4829 -0.5060 0.7147
vn -0.8016 0.4530 -0.3901
vn -0.8016 0.4530 -0.3902
vn 0.8016 -0.4530 0.3901
vn 0.8016 -0.4530 0.3902
vn 0.4829 0.5060 0.7147
vn 0.0629 0.4530 0.8893
vn -0.3774 0.5060 0.7755
vn -0.3775 0.5060 0.7756
vn -0.4829 -0.5060 -0.7147
vn -0.0629 -0.4530 -0.8893
vn -0.4829 -0.5060 -0.7146
vn 0.3775 -0.5060 -0.7756
vn 0.3775 0.5060 -0.7755
vn 0.8604 0.5060 -0.0609
vn 0.7387 0.4530 -0.4992
vn -0.7387 -0.4530 0.4992
vn -0.8604 -0.5060 0.0609
vn 0.8016 0.4530 0.3902
vn 0.4829 0.5060 0.7146
vn 0.8016 0.4530 0.3901
vn -0.8016 -0.4530 -0.3902
vn -0.0609 0.5060 -0.8604
vn 0.7147 0.5060 -0.4829
vn 0.3902 0.4530 -0.8016
vn -0.3902 -0.4530 0.8016
vn -0.7147 -0.5060 0.4829
vn 0.0609 -0.5060 0.8604
vn 0.7755 0.5060 0.3775
vn 0.4992 0.4530 0.7387
vn 0.7756 0.5060 0.3775
vn 0.0609 0.5060 0.8604
vn -0.7755 -0.5060 -0.3775
vn -0.4992 -0.4530 -0.7387
vn -0.0609 -0.5060 -0.8604
vn -0.7147 0.5060 0.4829
vn -0.7755 0.5060 -0.3775
vn -0.8893 0.4530 0.0629
vn -0.7756 0.5060 -0.3775
vn 0.8893 -0.4530 -0.0629
vn 0.7756 -0.5060 0.3775
vn 0.7147 -0.5060 -0.4829
vn -0.4992 0.4530 -0.7387
vn 0.4992 -0.4530 0.7387
vn 0.7755 -0.5060 0.3775
vn -0.7146 0.5060 0.4829
vn -0.3901 0.4530 0.8016
vn 0.3901 -0.4530 -0.8016
vn 0.8893 0.4530 -0.0629
vn -0.8893 -0.4530 0.0629
vn -0.7756 -0.5060 -0.3775
vn -0.0629 0.4529 -0.8893
vn 0.0629 -0.4529 0.8893
vn -0.8016 0.4529 -0.3901
vn 0.4829 0.5061 0.7146
vn -0.8016 -0.4530 -0.3901
vn -0.3774 0.5061 0.7755
vt 0.593750 0.025000
vt 0.593750 0.104996
vt 0.593750 0.225000
vt 0.093750 0.475000
vt 0.093750 0.275000
vt 0.093750 0.425000
vt 0.093750 0.348778
vt 0.093750 0.338765
vt 0.093750 0.344099
vt 0.093750 0.375000
vt 0.093750 0.325000
s 0
usemtl colormap.002
f 3/1/1 2/1/1 1/1/1
f 2/1/1 3/1/1 4/1/1
f 4/1/1 3/1/1 5/1/1
f 4/1/1 5/1/1 6/1/1
f 6/1/1 5/1/1 7/1/1
f 6/1/1 7/1/1 8/1/1
f 9/2/2 1/1/3 2/1/4
f 1/1/3 9/2/2 10/2/5
f 11/2/6 1/1/3 10/2/7
f 1/1/3 11/2/8 3/1/9
f 12/2/10 2/1/4 4/1/11
f 2/1/4 12/2/10 9/2/12
f 13/2/13 4/1/11 6/1/14
f 4/1/11 13/2/13 12/2/15
f 7/1/16 14/2/17 8/1/18
f 14/2/17 7/1/16 15/2/19
f 11/2/20 5/1/21 3/1/9
f 5/1/21 11/2/20 16/2/22
f 8/1/18 13/2/23 6/1/14
f 13/2/24 8/1/18 14/2/25
f 7/1/26 16/2/27 15/2/28
f 16/2/27 7/1/26 5/1/21
f 14/2/29 18/3/30 17/3/31
f 18/3/32 14/2/29 15/2/33
f 16/2/34 18/3/32 15/2/35
f 18/3/32 16/2/36 19/3/37
f 21/3/38 9/2/39 20/3/40
f 9/2/39 21/3/38 10/2/41
f 22/3/42 12/2/43 13/2/44
f 12/2/45 22/3/46 23/3/47
f 21/3/48 11/2/49 10/2/50
f 11/2/49 21/3/38 24/3/51
f 13/2/52 17/3/53 22/3/42
f 17/3/31 13/2/54 14/2/55
f 20/3/40 12/2/43 23/3/56
f 12/2/57 20/3/40 9/2/58
f 24/3/51 16/2/59 11/2/60
f 16/2/36 24/3/61 19/3/62
f 27/4/63 26/4/63 25/4/63
f 26/4/63 27/4/63 28/4/63
f 26/4/63 28/4/63 29/4/63
f 29/4/63 28/4/63 30/4/63
f 29/4/63 30/4/63 31/4/63
f 31/4/63 30/4/63 32/4/63
f 35/5/1 34/5/1 33/5/1
f 34/5/1 35/5/1 36/5/1
f 34/5/1 36/5/1 37/5/1
f 37/5/1 36/5/1 38/5/1
f 37/5/1 38/5/1 39/5/1
f 39/5/1 38/5/1 40/5/1
f 27/4/64 33/5/65 34/5/64
f 33/5/66 27/4/64 25/4/67
f 29/4/68 38/5/69 36/5/68
f 38/5/70 29/4/68 31/4/71
f 40/5/72 31/4/69 32/4/73
f 31/4/69 40/5/74 38/5/69
f 28/4/75 34/5/64 37/5/75
f 34/5/76 28/4/75 27/4/77
f 26/4/78 36/5/79 35/5/78
f 36/5/79 26/4/78 29/4/80
f 30/4/81 37/5/82 39/5/81
f 37/5/82 30/4/81 28/4/83
f 26/4/84 33/5/85 25/4/66
f 33/5/66 26/4/84 35/5/84
f 40/5/72 30/4/86 39/5/86
f 30/4/86 40/5/87 32/4/72
f 43/6/88 42/7/89 41/7/88
f 42/7/89 43/6/88 44/6/89
f 47/6/90 46/7/91 45/7/90
f 46/7/91 47/6/90 48/6/91
f 50/6/92 45/7/90 49/7/92
f 45/7/90 50/6/92 47/6/90
f 48/6/91 41/7/88 46/7/91
f 41/7/88 48/6/91 43/6/88
f 52/7/93 44/6/89 51/6/93
f 44/6/89 52/7/93 42/7/89
f 52/7/93 50/6/92 49/7/92
f 50/6/92 52/7/93 51/6/93
f 41/7/1 45/7/1 46/7/1
f 45/7/1 41/7/1 42/7/1
f 45/7/1 42/7/1 49/7/1
f 49/7/1 42/7/1 52/7/1
f 55/6/94 54/8/95 53/8/96
f 54/8/95 55/6/94 56/6/97
f 59/8/98 58/6/99 57/6/100
f 58/6/99 59/8/98 60/8/101
f 63/6/102 62/8/103 61/8/104
f 62/8/103 63/6/102 64/6/105
f 64/6/106 53/8/107 62/8/103
f 53/8/107 64/6/106 55/6/108
f 64/6/109 56/6/110 55/6/111
f 56/6/112 64/6/109 58/6/113
f 58/6/113 64/6/109 63/6/114
f 58/6/113 63/6/115 57/6/116
f 59/8/117 63/6/118 61/8/119
f 63/6/120 59/8/98 57/6/121
f 54/8/1 62/8/1 53/8/1
f 62/8/1 54/8/1 60/8/1
f 62/8/1 60/8/1 61/8/1
f 61/8/1 60/8/1 59/8/1
f 56/6/122 60/8/101 54/8/123
f 60/8/101 56/6/122 58/6/124
f 67/6/125 66/9/126 65/9/125
f 66/9/126 67/6/125 68/6/126
f 70/6/127 65/9/125 69/9/127
f 65/9/125 70/6/127 67/6/125
f 68/6/126 71/9/128 66/9/126
f 71/9/128 68/6/126 72/6/128
f 72/6/128 73/9/129 71/9/128
f 73/9/129 72/6/128 74/6/129
f 71/9/1 65/9/1 66/9/1
f 65/9/1 71/9/1 69/9/1
f 69/9/1 71/9/1 73/9/1
f 69/9/1 73/9/1 75/9/1
f 76/6/130 69/9/127 75/9/130
f 69/9/127 76/6/130 70/6/127
f 73/9/129 76/6/130 75/9/130
f 76/6/130 73/9/129 74/6/129
f 79/10/131 78/10/132 77/11/133
f 78/10/132 79/10/131 41/6/131
f 78/10/132 41/6/131 42/6/132
f 77/11/134 78/10/135 79/10/136
f 41/6/136 79/10/136 78/10/135
f 42/6/135 41/6/137 78/10/135
f 81/11/138 49/6/139 80/10/140
f 49/6/139 81/11/138 52/6/141
f 52/6/141 81/11/138 82/10/141
f 80/10/142 49/6/143 81/11/144
f 52/6/145 81/11/144 49/6/142
f 82/10/145 81/11/144 52/6/145
f 82/10/141 42/6/132 52/6/141
f 42/6/132 82/10/141 83/11/146
f 42/6/132 83/11/147 78/10/132
f 52/6/145 42/6/135 82/10/145
f 83/11/148 82/10/145 42/6/135
f 78/10/135 83/11/149 42/6/135
f 46/6/150 85/11/151 84/10/150
f 85/11/151 46/6/150 41/6/152
f 85/11/151 41/6/152 79/10/153
f 84/10/154 85/11/155 46/6/156
f 41/6/157 46/6/154 85/11/155
f 79/10/157 41/6/136 85/11/155
f 80/10/158 87/10/159 86/11/160
f 87/10/159 80/10/140 49/6/140
f 87/10/159 49/6/140 45/6/159
f 86/11/161 87/10/162 80/10/143
f 49/6/143 80/10/142 87/10/162
f 45/6/162 49/6/143 87/10/162
f 45/6/159 88/11/163 87/10/159
f 88/11/163 45/6/159 46/6/164
f 88/11/165 46/6/164 84/10/150
f 87/10/162 88/11/166 45/6/162
f 46/6/154 45/6/162 88/11/166
f 84/10/154 46/6/154 88/11/166
f 91/10/167 90/10/168 89/11/169
f 90/10/168 91/10/167 75/6/167
f 90/10/168 75/6/167 69/6/168
f 89/11/170 90/10/171 91/10/172
f 75/6/172 91/10/172 90/10/171
f 69/6/171 75/6/172 90/10/171
f 65/6/173 93/11/174 92/10/175
f 93/11/174 65/6/175 66/6/176
f 93/11/174 66/6/176 94/10/176
f 92/10/177 93/11/178 65/6/177
f 66/6/179 65/6/177 93/11/178
f 94/10/179 66/6/179 93/11/178
f 97/10/180 96/10/181 95/11/182
f 96/10/183 97/10/180 71/6/180
f 96/10/183 71/6/180 73/6/183
f 95/11/184 96/10/185 97/10/186
f 71/6/186 97/10/186 96/10/185
f 73/6/185 71/6/186 96/10/185
f 98/11/187 75/6/167 91/10/167
f 75/6/167 98/11/187 73/6/183
f 73/6/181 98/11/187 96/10/183
f 91/10/172 75/6/172 98/11/188
f 73/6/189 98/11/188 75/6/172
f 96/10/189 98/11/188 73/6/189
f 94/10/176 97/10/190 99/11/191
f 97/10/180 94/10/176 66/6/176
f 97/10/180 66/6/176 71/6/180
f 99/11/192 97/10/186 94/10/179
f 66/6/179 94/10/179 97/10/186
f 71/6/186 66/6/179 97/10/186
f 90/10/168 92/10/173 100/11/193
f 92/10/175 90/10/168 69/6/168
f 92/10/175 69/6/168 65/6/175
f 100/11/194 92/10/195 90/10/171
f 69/6/171 90/10/171 92/10/195
f 65/6/195 69/6/171 92/10/195
f 102/11/138 61/6/139 101/10/140
f 61/6/139 102/11/138 59/6/141
f 59/6/141 102/11/196 103/10/141
f 101/10/142 61/6/142 102/11/197
f 59/6/145 102/11/144 61/6/142
f 103/10/145 102/11/197 59/6/145
f 103/10/141 60/6/132 59/6/141
f 60/6/132 103/10/141 104/11/146
f 60/6/132 104/11/198 105/10/132
f 59/6/145 60/6/135 103/10/145
f 104/11/148 103/10/145 60/6/135
f 105/10/135 104/11/148 60/6/135
f 62/6/159 107/11/165 106/10/159
f 107/11/163 62/6/159 53/6/164
f 107/11/165 53/6/199 108/10/150
f 106/10/162 107/11/200 62/6/162
f 53/6/154 62/6/162 107/11/166
f 108/10/154 53/6/156 107/11/200
f 110/10/131 105/10/132 109/11/133
f 105/10/132 110/10/131 54/6/153
f 105/10/132 54/6/131 60/6/132
f 109/11/134 105/10/135 110/10/136
f 54/6/136 110/10/136 105/10/135
f 60/6/135 54/6/137 105/10/135
f 101/10/158 106/10/159 111/11/160
f 106/10/159 101/10/140 61/6/140
f 106/10/159 61/6/158 62/6/159
f 111/11/161 106/10/162 101/10/143
f 61/6/143 101/10/142 106/10/162
f 62/6/162 61/6/143 106/10/162
f 53/6/164 112/11/151 108/10/150
f 112/11/151 53/6/150 54/6/201
f 112/11/151 54/6/131 110/10/153
f 108/10/154 112/11/155 53/6/156
f 54/6/157 53/6/154 112/11/155
f 110/10/157 54/6/136 112/11/155
f 3/1/1 2/1/1 1/1/1
f 2/1/1 3/1/1 4/1/1
f 4/1/1 3/1/1 5/1/1
f 4/1/1 5/1/1 6/1/1
f 6/1/1 5/1/1 7/1/1
f 6/1/1 7/1/1 8/1/1
f 9/2/2 1/1/3 2/1/4
f 1/1/3 9/2/2 10/2/5
f 11/2/6 1/1/3 10/2/7
f 1/1/3 11/2/8 3/1/9
f 12/2/10 2/1/4 4/1/11
f 2/1/4 12/2/10 9/2/12
f 13/2/13 4/1/11 6/1/14
f 4/1/11 13/2/13 12/2/15
f 7/1/16 14/2/17 8/1/18
f 14/2/17 7/1/16 15/2/19
f 11/2/20 5/1/21 3/1/9
f 5/1/21 11/2/20 16/2/22
f 8/1/18 13/2/23 6/1/14
f 13/2/24 8/1/18 14/2/25
f 7/1/26 16/2/27 15/2/28
f 16/2/27 7/1/26 5/1/21
f 14/2/29 18/3/30 17/3/31
f 18/3/32 14/2/29 15/2/33
f 16/2/34 18/3/32 15/2/35
f 18/3/32 16/2/36 19/3/37
f 21/3/38 9/2/39 20/3/40
f 9/2/39 21/3/38 10/2/41
f 22/3/42 12/2/43 13/2/44
f 12/2/45 22/3/46 23/3/47
f 21/3/48 11/2/49 10/2/50
f 11/2/49 21/3/38 24/3/51
f 13/2/52 17/3/53 22/3/42
f 17/3/31 13/2/54 14/2/55
f 20/3/40 12/2/43 23/3/56
f 12/2/57 20/3/40 9/2/58
f 24/3/51 16/2/59 11/2/60
f 16/2/36 24/3/61 19/3/62
f 27/4/63 26/4/63 25/4/63
f 26/4/63 27/4/63 28/4/63
f 26/4/63 28/4/63 29/4/63
f 29/4/63 28/4/63 30/4/63
f 29/4/63 30/4/63 31/4/63
f 31/4/63 30/4/63 32/4/63
f 35/5/1 34/5/1 33/5/1
f 34/5/1 35/5/1 36/5/1
f 34/5/1 36/5/1 37/5/1
f 37/5/1 36/5/1 38/5/1
f 37/5/1 38/5/1 39/5/1
f 39/5/1 38/5/1 40/5/1
f 27/4/64 33/5/65 34/5/64
f 33/5/66 27/4/64 25/4/67
f 29/4/68 38/5/69 36/5/68
f 38/5/70 29/4/68 31/4/71
f 40/5/72 31/4/69 32/4/73
f 31/4/69 40/5/74 38/5/69
f 28/4/75 34/5/64 37/5/75
f 34/5/76 28/4/75 27/4/77
f 26/4/78 36/5/79 35/5/78
f 36/5/79 26/4/78 29/4/80
f 30/4/81 37/5/82 39/5/81
f 37/5/82 30/4/81 28/4/83
f 26/4/84 33/5/85 25/4/66
f 33/5/66 26/4/84 35/5/84
f 40/5/72 30/4/86 39/5/86
f 30/4/86 40/5/87 32/4/72
f 43/6/88 42/7/89 41/7/88
f 42/7/89 43/6/88 44/6/89
f 47/6/90 46/7/91 45/7/90
f 46/7/91 47/6/90 48/6/91
f 50/6/92 45/7/90 49/7/92
f 45/7/90 50/6/92 47/6/90
f 48/6/91 41/7/88 46/7/91
f 41/7/88 48/6/91 43/6/88
f 52/7/93 44/6/89 51/6/93
f 44/6/89 52/7/93 42/7/89
f 52/7/93 50/6/92 49/7/92
f 50/6/92 52/7/93 51/6/93
f 41/7/1 45/7/1 46/7/1
f 45/7/1 41/7/1 42/7/1
f 45/7/1 42/7/1 49/7/1
f 49/7/1 42/7/1 52/7/1
f 55/6/94 54/8/95 53/8/96
f 54/8/95 55/6/94 56/6/97
f 59/8/98 58/6/99 57/6/100
f 58/6/99 59/8/98 60/8/101
f 63/6/102 62/8/103 61/8/104
f 62/8/103 63/6/102 64/6/105
f 64/6/106 53/8/107 62/8/103
f 53/8/107 64/6/106 55/6/108
f 64/6/109 56/6/110 55/6/111
f 56/6/112 64/6/109 58/6/113
f 58/6/113 64/6/109 63/6/114
f 58/6/113 63/6/115 57/6/116
f 59/8/117 63/6/118 61/8/119
f 63/6/120 59/8/98 57/6/121
f 54/8/1 62/8/1 53/8/1
f 62/8/1 54/8/1 60/8/1
f 62/8/1 60/8/1 61/8/1
f 61/8/1 60/8/1 59/8/1
f 56/6/122 60/8/101 54/8/123
f 60/8/101 56/6/122 58/6/124
f 67/6/125 66/9/126 65/9/125
f 66/9/126 67/6/125 68/6/126
f 70/6/127 65/9/125 69/9/127
f 65/9/125 70/6/127 67/6/125
f 68/6/126 71/9/128 66/9/126
f 71/9/128 68/6/126 72/6/128
f 72/6/128 73/9/129 71/9/128
f 73/9/129 72/6/128 74/6/129
f 71/9/1 65/9/1 66/9/1
f 65/9/1 71/9/1 69/9/1
f 69/9/1 71/9/1 73/9/1
f 69/9/1 73/9/1 75/9/1
f 76/6/130 69/9/127 75/9/130
f 69/9/127 76/6/130 70/6/127
f 73/9/129 76/6/130 75/9/130
f 76/6/130 73/9/129 74/6/129
f 79/10/131 78/10/132 77/11/133
f 78/10/132 79/10/131 41/6/131
f 78/10/132 41/6/131 42/6/132
f 77/11/134 78/10/135 79/10/136
f 41/6/136 79/10/136 78/10/135
f 42/6/135 41/6/137 78/10/135
f 81/11/138 49/6/139 80/10/140
f 49/6/139 81/11/138 52/6/141
f 52/6/141 81/11/138 82/10/141
f 80/10/142 49/6/143 81/11/144
f 52/6/145 81/11/144 49/6/142
f 82/10/145 81/11/144 52/6/145
f 82/10/141 42/6/132 52/6/141
f 42/6/132 82/10/141 83/11/146
f 42/6/132 83/11/147 78/10/132
f 52/6/145 42/6/135 82/10/145
f 83/11/148 82/10/145 42/6/135
f 78/10/135 83/11/149 42/6/135
f 46/6/150 85/11/151 84/10/150
f 85/11/151 46/6/150 41/6/152
f 85/11/151 41/6/152 79/10/153
f 84/10/154 85/11/155 46/6/156
f 41/6/157 46/6/154 85/11/155
f 79/10/157 41/6/136 85/11/155
f 80/10/158 87/10/159 86/11/160
f 87/10/159 80/10/140 49/6/140
f 87/10/159 49/6/140 45/6/159
f 86/11/161 87/10/162 80/10/143
f 49/6/143 80/10/142 87/10/162
f 45/6/162 49/6/143 87/10/162
f 45/6/159 88/11/163 87/10/159
f 88/11/163 45/6/159 46/6/164
f 88/11/165 46/6/164 84/10/150
f 87/10/162 88/11/166 45/6/162
f 46/6/154 45/6/162 88/11/166
f 84/10/154 46/6/154 88/11/166
f 91/10/167 90/10/168 89/11/169
f 90/10/168 91/10/167 75/6/167
f 90/10/168 75/6/167 69/6/168
f 89/11/170 90/10/171 91/10/172
f 75/6/172 91/10/172 90/10/171
f 69/6/171 75/6/172 90/10/171
f 65/6/173 93/11/174 92/10/175
f 93/11/174 65/6/175 66/6/176
f 93/11/174 66/6/176 94/10/176
f 92/10/177 93/11/178 65/6/177
f 66/6/179 65/6/177 93/11/178
f 94/10/179 66/6/179 93/11/178
f 97/10/180 96/10/181 95/11/182
f 96/10/183 97/10/180 71/6/180
f 96/10/183 71/6/180 73/6/183
f 95/11/184 96/10/185 97/10/186
f 71/6/186 97/10/186 96/10/185
f 73/6/185 71/6/186 96/10/185
f 98/11/187 75/6/167 91/10/167
f 75/6/167 98/11/187 73/6/183
f 73/6/181 98/11/187 96/10/183
f 91/10/172 75/6/172 98/11/188
f 73/6/189 98/11/188 75/6/172
f 96/10/189 98/11/188 73/6/189
f 94/10/176 97/10/190 99/11/191
f 97/10/180 94/10/176 66/6/176
f 97/10/180 66/6/176 71/6/180
f 99/11/192 97/10/186 94/10/179
f 66/6/179 94/10/179 97/10/186
f 71/6/186 66/6/179 97/10/186
f 90/10/168 92/10/173 100/11/193
f 92/10/175 90/10/168 69/6/168
f 92/10/175 69/6/168 65/6/175
f 100/11/194 92/10/195 90/10/171
f 69/6/171 90/10/171 92/10/195
f 65/6/195 69/6/171 92/10/195
f 102/11/138 61/6/139 101/10/140
f 61/6/139 102/11/138 59/6/141
f 59/6/141 102/11/196 103/10/141
f 101/10/142 61/6/142 102/11/197
f 59/6/145 102/11/144 61/6/142
f 103/10/145 102/11/197 59/6/145
f 103/10/141 60/6/132 59/6/141
f 60/6/132 103/10/141 104/11/146
f 60/6/132 104/11/198 105/10/132
f 59/6/145 60/6/135 103/10/145
f 104/11/148 103/10/145 60/6/135
f 105/10/135 104/11/148 60/6/135
f 62/6/159 107/11/165 106/10/159
f 107/11/163 62/6/159 53/6/164
f 107/11/165 53/6/199 108/10/150
f 106/10/162 107/11/200 62/6/162
f 53/6/154 62/6/162 107/11/166
f 108/10/154 53/6/156 107/11/200
f 110/10/131 105/10/132 109/11/133
f 105/10/132 110/10/131 54/6/153
f 105/10/132 54/6/131 60/6/132
f 109/11/134 105/10/135 110/10/136
f 54/6/136 110/10/136 105/10/135
f 60/6/135 54/6/137 105/10/135
f 101/10/158 106/10/159 111/11/160
f 106/10/159 101/10/140 61/6/140
f 106/10/159 61/6/158 62/6/159
f 111/11/161 106/10/162 101/10/143
f 61/6/143 101/10/142 106/10/162
f 62/6/162 61/6/143 106/10/162
f 53/6/164 112/11/151 108/10/150
f 112/11/151 53/6/150 54/6/201
f 112/11/151 54/6/131 110/10/153
f 108/10/154 112/11/155 53/6/156
f 54/6/157 53/6/154 112/11/155
f 110/10/157 54/6/136 112/11/155
