# Blender 4.1.1
# www.blender.org
mtllib tree.070.mtl
o tree.070
v 3.131369 -0.382804 6.522659
v 3.369723 -0.382804 6.584235
v 3.042980 -0.382804 6.372694
v 3.519688 -0.382804 6.495846
v 3.104557 -0.382804 6.134340
v 3.581264 -0.382804 6.257493
v 3.254522 -0.382804 6.045951
v 3.492876 -0.382804 6.107527
v 3.340923 0.062918 6.449664
v 3.221745 0.062918 6.418876
v 3.177551 0.062918 6.343893
v 3.415905 0.062918 6.405470
v 3.446693 0.062918 6.286293
v 3.402499 0.062918 6.211310
v 3.283322 0.062918 6.180522
v 3.208339 0.062918 6.224716
v 3.425093 0.731552 6.185365
v 3.276122 0.731552 6.146879
v 3.182394 0.731552 6.202122
v 3.348123 0.731552 6.483307
v 3.199152 0.731552 6.444821
v 3.480336 0.731552 6.279093
v 3.441851 0.731552 6.428064
v 3.143909 0.731552 6.351093
v 3.319486 0.222058 6.527130
v 3.242331 0.222058 6.469021
v 3.415132 0.222058 6.513662
v 3.473241 0.222058 6.436508
v 3.228864 0.222058 6.373375
v 3.459774 0.222058 6.340862
v 3.286973 0.222058 6.296220
v 3.382619 0.222058 6.282753
v 3.301607 0.060319 6.596339
v 3.451428 0.060319 6.575244
v 3.180750 0.060319 6.505317
v 3.159654 0.060319 6.355495
v 3.542451 0.060319 6.454387
v 3.250677 0.060319 6.234639
v 3.521355 0.060319 6.304566
v 3.400498 0.060319 6.213543
v 2.724375 0.731552 6.467527
v 2.877722 0.731552 5.873943
v 2.966573 1.468507 6.400292
v 3.057048 1.468507 6.050075
v 3.752493 0.731552 6.733132
v 3.161760 0.731552 6.897122
v 3.573167 1.468507 6.557000
v 3.224632 1.468507 6.653755
v 3.905840 0.731552 6.139548
v 3.663642 1.468507 6.206783
v 3.405583 1.468507 5.953321
v 3.468455 0.731552 5.709953
v 3.226687 2.260255 6.645800
v 2.974490 2.260255 6.398094
v 3.294784 3.090716 6.382205
v 3.236818 3.090716 6.325271
v 3.335431 3.090716 6.224870
v 3.257141 3.090716 6.246603
v 3.403528 2.260255 5.961276
v 3.062910 2.260255 6.055832
v 3.655725 2.260255 6.208981
v 3.567305 2.260255 6.551243
v 3.393397 3.090716 6.281804
v 3.373074 3.090716 6.360472
v 3.448433 1.468507 6.783808
v 2.965843 1.468507 6.659136
v 3.376199 2.260255 6.523603
v 3.155071 2.260255 6.466476
v 3.797697 1.468507 6.428210
v 3.536235 2.260255 6.360664
v 2.832518 1.468507 6.178865
v 3.093980 2.260255 6.246411
v 3.181782 1.468507 5.823267
v 3.254016 2.260255 6.083472
v 3.664372 1.468507 5.947939
v 3.475144 2.260255 6.140598
v 2.687955 0.501650 6.141519
v 2.829609 0.616601 5.826687
v 2.659394 0.616601 6.485567
v 3.970821 0.616601 6.121509
v 3.768996 0.501650 5.841417
v 3.485323 0.616601 5.644659
v 3.141844 0.501650 5.679398
v 3.144892 0.616601 6.962417
v 2.861219 0.501650 6.765658
v 3.942260 0.501650 6.465557
v 3.800606 0.616601 6.780388
v 3.488371 0.501650 6.927677
v 3.822538 1.281595 6.162673
v 3.850781 1.375051 6.441924
v 3.702791 1.375051 5.908823
v 3.463098 1.375051 6.836638
v 3.183385 1.281595 6.813418
v 2.927424 1.375051 6.698252
v 2.939400 1.281595 5.934522
v 3.167117 1.375051 5.770437
v 2.779433 1.375051 6.165151
v 3.446830 1.281595 5.793657
v 2.807677 1.281595 6.444403
v 3.690815 1.281595 6.672553
v 3.693193 2.193974 6.198579
v 3.576821 2.127693 6.037078
v 3.413254 2.193974 5.923627
v 3.215204 2.127693 5.943658
v 3.035168 2.193974 6.028585
v 3.595047 2.193974 6.578490
v 3.415012 2.127693 6.663417
v 3.216961 2.193974 6.683448
v 2.953490 2.127693 6.210117
v 2.937022 2.193974 6.408495
v 3.676725 2.127693 6.396958
v 3.053394 2.127693 6.569997
vn -0.0000 -1.0000 -0.0000
vn 0.1278 0.2942 0.9471
vn -0.5784 0.2944 0.7608
vn 0.1376 0.2944 0.9457
vn -0.5784 0.2944 0.7607
vn 0.1278 0.2942 0.9472
vn -0.5706 0.2942 0.7667
vn -0.9471 0.2942 0.1279
vn -0.5785 0.2944 0.7607
vn -0.5707 0.2942 0.7667
vn -0.9471 0.2943 0.1279
vn -0.9457 0.2944 0.1376
vn 0.7667 0.2942 0.5706
vn 0.7607 0.2944 0.5785
vn 0.7667 0.2942 0.5707
vn 0.1279 0.2942 0.9471
vn 0.9471 0.2942 -0.1278
vn 0.7608 0.2944 0.5784
vn 0.9457 0.2944 -0.1376
vn 0.7607 0.2944 0.5784
vn 0.9472 0.2942 -0.1278
vn -0.1376 0.2944 -0.9457
vn 0.5706 0.2942 -0.7667
vn 0.5784 0.2944 -0.7607
vn -0.1278 0.2942 -0.9472
vn -0.9472 0.2942 0.1278
vn -0.7608 0.2944 -0.5784
vn -0.7607 0.2944 -0.5784
vn -0.7667 0.2942 -0.5706
vn 0.5785 0.2944 -0.7607
vn 0.9471 0.2943 -0.1279
vn 0.9471 0.2942 -0.1279
vn 0.5707 0.2942 -0.7667
vn -0.7667 0.2942 -0.5707
vn -0.1279 0.2942 -0.9471
vn -0.7607 0.2944 -0.5785
vn 0.6001 -0.0513 -0.7983
vn -0.1401 -0.0512 -0.9888
vn 0.6015 -0.0513 -0.7972
vn -0.1401 -0.0513 -0.9888
vn -0.1383 -0.0513 -0.9891
vn -0.7983 -0.0512 -0.6001
vn -0.1384 -0.0512 -0.9891
vn -0.7983 -0.0513 -0.6001
vn -0.7972 -0.0512 -0.6015
vn -0.6015 -0.0512 0.7972
vn 0.1383 -0.0513 0.9891
vn 0.1401 -0.0513 0.9888
vn -0.6001 -0.0513 0.7983
vn 0.9888 -0.0513 -0.1401
vn 0.7983 -0.0513 0.6001
vn 0.9891 -0.0513 -0.1383
vn 0.9888 -0.0512 -0.1401
vn 0.7972 -0.0513 0.6015
vn -0.6015 -0.0513 0.7972
vn -0.9891 -0.0513 0.1384
vn -0.6001 -0.0512 0.7983
vn -0.9888 -0.0513 0.1401
vn 0.9891 -0.0513 -0.1384
vn 0.6015 -0.0512 -0.7972
vn 0.6001 -0.0512 -0.7983
vn 0.7972 -0.0512 0.6015
vn 0.7983 -0.0512 0.6001
vn 0.1384 -0.0512 0.9891
vn -0.9891 -0.0513 0.1383
vn -0.9888 -0.0512 0.1401
vn -0.7972 -0.0513 -0.6015
vn -0.0000 1.0000 -0.0000
vn 0.4644 0.4042 0.7880
vn -0.2288 0.4042 0.8856
vn -0.2288 0.4043 0.8856
vn -0.8856 0.4042 -0.2288
vn -0.4645 0.4042 -0.7880
vn -0.4644 0.4043 -0.7880
vn 0.2288 0.4042 -0.8856
vn -0.4644 0.4042 -0.7880
vn 0.2288 0.4043 -0.8856
vn 0.8856 0.4042 0.2288
vn 0.4645 0.4042 0.7880
vn 0.4644 0.4043 0.7880
vn -0.7880 0.4042 0.4644
vn -0.8856 0.4043 -0.2288
vn 0.7880 0.4042 -0.4644
vn 0.8856 0.4043 0.2287
vn -0.7880 0.4042 0.4645
vn 0.7880 0.4042 -0.4645
vn -0.9120 0.3228 0.2532
vn -0.6753 0.3228 -0.6632
vn 0.6752 0.3228 0.6632
vn -0.2367 0.3228 0.9164
vn 0.9120 0.3228 -0.2532
vn 0.6753 0.3228 0.6632
vn -0.2368 0.3228 0.9164
vn 0.2367 0.3228 -0.9164
vn -0.6752 0.3228 -0.6632
vn 0.2368 0.3228 -0.9164
vn -0.1720 0.7260 0.6659
vn -0.9156 0.3115 0.2542
vn -0.2377 0.3115 0.9200
vn -0.6627 0.7260 0.1839
vn 0.2377 0.3115 -0.9200
vn -0.4907 0.7260 -0.4819
vn 0.1721 0.7260 -0.6659
vn -0.6779 0.3115 -0.6659
vn 0.6627 0.7260 -0.1840
vn 0.6779 0.3115 0.6659
vn 0.9156 0.3115 -0.2542
vn 0.6779 0.3115 0.6658
vn 0.4906 0.7260 0.4819
vn 0.4907 0.7260 0.4819
vn -0.1721 0.7260 0.6659
vn 0.4906 0.7259 0.4819
vn -0.6627 0.7259 0.1840
vn -0.1721 0.7259 0.6659
vn 0.4907 0.7259 0.4819
vn -0.4906 0.7259 -0.4819
vn -0.4907 0.7259 -0.4819
vn 0.6627 0.7259 -0.1840
vn 0.1721 0.7259 -0.6659
vn 0.2377 0.3116 -0.9200
vn 0.6627 0.7260 -0.1839
vn 0.6626 0.7260 -0.1840
vn 0.1720 0.7260 -0.6658
vn -0.6627 0.7260 0.1840
vn -0.6779 0.3115 -0.6658
vn -0.4906 0.7260 -0.4820
vn 0.2532 0.3228 0.9120
vn -0.6632 0.3228 0.6752
vn -0.6632 0.3228 0.6753
vn 0.9164 0.3228 0.2367
vn 0.9164 0.3228 0.2368
vn -0.9164 0.3228 -0.2367
vn -0.2532 0.3228 -0.9120
vn -0.9164 0.3228 -0.2368
vn 0.6632 0.3228 -0.6752
vn -0.8311 0.5060 0.2307
vn -0.6153 0.5060 -0.6044
vn -0.8632 0.4530 -0.2230
vn -0.6154 0.5060 -0.6044
vn 0.8632 -0.4530 0.2230
vn 0.6154 -0.5060 0.6044
vn 0.8311 -0.5060 -0.2307
vn 0.6247 0.4530 -0.6360
vn 0.8311 0.5060 -0.2307
vn 0.2157 0.5060 -0.8351
vn -0.8311 -0.5060 0.2307
vn -0.6247 -0.4530 0.6360
vn -0.2157 -0.5060 0.8351
vn -0.2385 0.4530 -0.8590
vn 0.6153 -0.5060 0.6044
vn 0.2385 -0.4530 0.8590
vn -0.2157 0.5060 0.8351
vn -0.6247 0.4530 0.6360
vn 0.2157 -0.5060 -0.8351
vn 0.6247 -0.4530 -0.6360
vn 0.6153 0.5060 0.6044
vn 0.8632 0.4530 0.2230
vn 0.6154 0.5060 0.6044
vn -0.8632 -0.4530 -0.2230
vn -0.6154 -0.5060 -0.6044
vn 0.2385 0.4530 0.8590
vn -0.2385 -0.4530 -0.8590
vn -0.6153 -0.5060 -0.6044
vn 0.6044 0.5060 -0.6154
vn 0.8351 0.5060 0.2157
vn 0.8590 0.4530 -0.2385
vn -0.8590 -0.4530 0.2385
vn -0.8351 -0.5060 -0.2157
vn -0.6044 -0.5060 0.6153
vn -0.6044 -0.5060 0.6154
vn 0.2307 0.5060 0.8311
vn -0.2230 0.4530 0.8632
vn -0.6044 0.5060 0.6153
vn -0.6044 0.5060 0.6154
vn -0.2307 -0.5060 -0.8311
vn 0.2230 -0.4530 -0.8632
vn 0.6044 -0.5060 -0.6154
vn -0.8351 0.5060 -0.2157
vn -0.2307 0.5060 -0.8311
vn -0.6360 0.4530 -0.6247
vn 0.6360 -0.4530 0.6247
vn 0.2307 -0.5060 0.8311
vn 0.8351 -0.5060 0.2157
vn 0.2230 0.4530 -0.8632
vn 0.6044 0.5060 -0.6153
vn -0.2230 -0.4530 0.8632
vn -0.8590 0.4530 0.2385
vn 0.8590 -0.4530 -0.2385
vn 0.6044 -0.5060 -0.6153
vn 0.6360 0.4530 0.6247
vn -0.6360 -0.4530 -0.6247
vn 0.2385 0.4529 0.8591
vn -0.2385 -0.4529 -0.8591
vt 0.593750 0.025000
vt 0.593750 0.104996
vt 0.593750 0.225000
vt 0.093750 0.475000
vt 0.093750 0.275000
vt 0.093750 0.425000
vt 0.093750 0.348778
vt 0.093750 0.338765
vt 0.093750 0.344099
vt 0.093750 0.375000
vt 0.093750 0.325000
s 0
usemtl colormap.073
f 3/1/1 2/1/1 1/1/1
f 2/1/1 3/1/1 4/1/1
f 4/1/1 3/1/1 5/1/1
f 4/1/1 5/1/1 6/1/1
f 6/1/1 5/1/1 7/1/1
f 6/1/1 7/1/1 8/1/1
f 9/2/2 1/1/3 2/1/4
f 1/1/5 9/2/6 10/2/7
f 11/2/8 1/1/9 10/2/10
f 1/1/9 11/2/11 3/1/12
f 12/2/13 2/1/4 4/1/14
f 2/1/4 12/2/15 9/2/16
f 13/2/17 4/1/18 6/1/19
f 4/1/20 13/2/21 12/2/13
f 7/1/22 14/2/23 8/1/24
f 14/2/23 7/1/22 15/2/25
f 11/2/26 5/1/27 3/1/12
f 5/1/28 11/2/26 16/2/29
f 8/1/30 13/2/31 6/1/19
f 13/2/32 8/1/30 14/2/33
f 7/1/22 16/2/34 15/2/35
f 16/2/34 7/1/22 5/1/36
f 14/2/37 18/3/38 17/3/39
f 18/3/40 14/2/37 15/2/41
f 16/2/42 18/3/40 15/2/43
f 18/3/40 16/2/44 19/3/45
f 21/3/46 9/2/47 20/3/48
f 9/2/47 21/3/46 10/2/49
f 22/3/50 12/2/51 13/2/52
f 12/2/51 22/3/53 23/3/54
f 21/3/55 11/2/56 10/2/57
f 11/2/56 21/3/46 24/3/58
f 13/2/59 17/3/60 22/3/50
f 17/3/39 13/2/59 14/2/61
f 20/3/48 12/2/51 23/3/62
f 12/2/63 20/3/48 9/2/64
f 24/3/58 16/2/44 11/2/65
f 16/2/44 24/3/66 19/3/67
f 27/4/68 26/4/68 25/4/68
f 26/4/68 27/4/68 28/4/68
f 26/4/68 28/4/68 29/4/68
f 29/4/68 28/4/68 30/4/68
f 29/4/68 30/4/68 31/4/68
f 31/4/68 30/4/68 32/4/68
f 35/5/1 34/5/1 33/5/1
f 34/5/1 35/5/1 36/5/1
f 34/5/1 36/5/1 37/5/1
f 37/5/1 36/5/1 38/5/1
f 37/5/1 38/5/1 39/5/1
f 39/5/1 38/5/1 40/5/1
f 27/4/69 33/5/70 34/5/69
f 33/5/70 27/4/69 25/4/71
f 29/4/72 38/5/73 36/5/72
f 38/5/73 29/4/72 31/4/74
f 40/5/75 31/4/76 32/4/77
f 31/4/76 40/5/75 38/5/76
f 28/4/78 34/5/79 37/5/78
f 34/5/79 28/4/78 27/4/80
f 26/4/81 36/5/72 35/5/81
f 36/5/72 26/4/81 29/4/82
f 30/4/83 37/5/78 39/5/83
f 37/5/78 30/4/83 28/4/84
f 26/4/85 33/5/71 25/4/70
f 33/5/70 26/4/85 35/5/85
f 40/5/75 30/4/83 39/5/86
f 30/4/86 40/5/77 32/4/75
f 43/6/87 42/7/88 41/7/87
f 42/7/88 43/6/87 44/6/88
f 47/6/89 46/7/90 45/7/89
f 46/7/90 47/6/89 48/6/90
f 50/6/91 45/7/92 49/7/91
f 45/7/92 50/6/91 47/6/92
f 48/6/90 41/7/87 46/7/90
f 41/7/87 48/6/93 43/6/87
f 52/7/94 44/6/95 51/6/94
f 44/6/95 52/7/94 42/7/95
f 52/7/96 50/6/91 49/7/91
f 50/6/91 52/7/94 51/6/96
f 41/7/1 45/7/1 46/7/1
f 45/7/1 41/7/1 42/7/1
f 45/7/1 42/7/1 49/7/1
f 49/7/1 42/7/1 52/7/1
f 55/6/97 54/8/98 53/8/99
f 54/8/98 55/6/97 56/6/100
f 59/8/101 58/6/102 57/6/103
f 58/6/102 59/8/101 60/8/104
f 63/6/105 62/8/106 61/8/107
f 62/8/108 63/6/105 64/6/109
f 64/6/110 53/8/99 62/8/106
f 53/8/99 64/6/110 55/6/111
f 64/6/112 56/6/113 55/6/114
f 56/6/113 64/6/115 58/6/116
f 58/6/117 64/6/112 63/6/118
f 58/6/116 63/6/118 57/6/119
f 59/8/120 63/6/121 61/8/107
f 63/6/122 59/8/101 57/6/123
f 54/8/1 62/8/1 53/8/1
f 62/8/1 54/8/1 60/8/1
f 62/8/1 60/8/1 61/8/1
f 61/8/1 60/8/1 59/8/1
f 56/6/124 60/8/104 54/8/98
f 60/8/125 56/6/124 58/6/126
f 67/6/127 66/9/128 65/9/127
f 66/9/128 67/6/127 68/6/129
f 70/6/130 65/9/127 69/9/131
f 65/9/127 70/6/131 67/6/127
f 68/6/128 71/9/132 66/9/128
f 71/9/132 68/6/128 72/6/132
f 72/6/132 73/9/133 71/9/134
f 73/9/133 72/6/132 74/6/133
f 71/9/1 65/9/1 66/9/1
f 65/9/1 71/9/1 69/9/1
f 69/9/1 71/9/1 73/9/1
f 69/9/1 73/9/1 75/9/1
f 76/6/135 69/9/130 75/9/135
f 69/9/130 76/6/135 70/6/130
f 73/9/133 76/6/135 75/9/135
f 76/6/135 73/9/133 74/6/133
f 79/10/136 78/10/137 77/11/138
f 78/10/139 79/10/136 41/6/136
f 78/10/139 41/6/136 42/6/139
f 77/11/140 78/10/141 79/10/142
f 41/6/142 79/10/142 78/10/141
f 42/6/141 41/6/142 78/10/141
f 81/11/143 49/6/144 80/10/144
f 49/6/144 81/11/143 52/6/145
f 52/6/145 81/11/143 82/10/145
f 80/10/146 49/6/146 81/11/147
f 52/6/148 81/11/147 49/6/146
f 82/10/148 81/11/147 52/6/148
f 82/10/145 42/6/139 52/6/145
f 42/6/139 82/10/145 83/11/149
f 42/6/137 83/11/149 78/10/139
f 52/6/148 42/6/150 82/10/148
f 83/11/151 82/10/148 42/6/150
f 78/10/141 83/11/151 42/6/150
f 46/6/152 85/11/153 84/10/152
f 85/11/153 46/6/152 41/6/136
f 85/11/153 41/6/136 79/10/136
f 84/10/154 85/11/155 46/6/154
f 41/6/142 46/6/154 85/11/155
f 79/10/142 41/6/142 85/11/155
f 80/10/144 87/10/156 86/11/157
f 87/10/158 80/10/144 49/6/144
f 87/10/158 49/6/144 45/6/158
f 86/11/159 87/10/160 80/10/146
f 49/6/146 80/10/146 87/10/160
f 45/6/160 49/6/146 87/10/160
f 45/6/156 88/11/161 87/10/158
f 88/11/161 45/6/158 46/6/152
f 88/11/161 46/6/152 84/10/152
f 87/10/160 88/11/162 45/6/163
f 46/6/154 45/6/163 88/11/162
f 84/10/154 46/6/154 88/11/162
f 91/10/164 90/10/165 89/11/166
f 90/10/165 91/10/164 75/6/164
f 90/10/165 75/6/164 69/6/165
f 89/11/167 90/10/168 91/10/169
f 75/6/169 91/10/170 90/10/168
f 69/6/168 75/6/169 90/10/168
f 65/6/171 93/11/172 92/10/171
f 93/11/172 65/6/171 66/6/173
f 93/11/172 66/6/173 94/10/174
f 92/10/175 93/11/176 65/6/175
f 66/6/177 65/6/175 93/11/176
f 94/10/177 66/6/177 93/11/176
f 97/10/178 96/10/179 95/11/180
f 96/10/179 97/10/178 71/6/178
f 96/10/179 71/6/178 73/6/179
f 95/11/181 96/10/182 97/10/183
f 71/6/183 97/10/183 96/10/182
f 73/6/182 71/6/183 96/10/182
f 98/11/184 75/6/185 91/10/164
f 75/6/185 98/11/184 73/6/179
f 73/6/179 98/11/184 96/10/179
f 91/10/170 75/6/169 98/11/186
f 73/6/182 98/11/186 75/6/170
f 96/10/182 98/11/186 73/6/182
f 94/10/174 97/10/178 99/11/187
f 97/10/178 94/10/174 66/6/174
f 97/10/178 66/6/174 71/6/178
f 99/11/188 97/10/183 94/10/177
f 66/6/177 94/10/177 97/10/183
f 71/6/183 66/6/189 97/10/183
f 90/10/165 92/10/171 100/11/190
f 92/10/171 90/10/165 69/6/165
f 92/10/171 69/6/165 65/6/171
f 100/11/191 92/10/175 90/10/168
f 69/6/168 90/10/168 92/10/175
f 65/6/175 69/6/168 92/10/175
f 102/11/143 61/6/144 101/10/144
f 61/6/144 102/11/143 59/6/145
f 59/6/145 102/11/143 103/10/145
f 101/10/146 61/6/146 102/11/147
f 59/6/148 102/11/147 61/6/146
f 103/10/148 102/11/147 59/6/148
f 103/10/145 60/6/139 59/6/145
f 60/6/139 103/10/145 104/11/149
f 60/6/137 104/11/149 105/10/139
f 59/6/148 60/6/150 103/10/148
f 104/11/151 103/10/148 60/6/150
f 105/10/141 104/11/151 60/6/150
f 62/6/156 107/11/161 106/10/158
f 107/11/161 62/6/158 53/6/152
f 107/11/192 53/6/152 108/10/152
f 106/10/160 107/11/162 62/6/163
f 53/6/154 62/6/160 107/11/162
f 108/10/154 53/6/154 107/11/193
f 110/10/136 105/10/137 109/11/138
f 105/10/139 110/10/136 54/6/136
f 105/10/139 54/6/136 60/6/139
f 109/11/140 105/10/141 110/10/142
f 54/6/142 110/10/142 105/10/141
f 60/6/141 54/6/142 105/10/141
f 101/10/144 106/10/156 111/11/157
f 106/10/158 101/10/144 61/6/144
f 106/10/158 61/6/144 62/6/158
f 111/11/159 106/10/160 101/10/146
f 61/6/146 101/10/146 106/10/160
f 62/6/160 61/6/146 106/10/160
f 53/6/152 112/11/153 108/10/152
f 112/11/153 53/6/152 54/6/136
f 112/11/153 54/6/136 110/10/136
f 108/10/154 112/11/155 53/6/154
f 54/6/142 53/6/154 112/11/155
f 110/10/142 54/6/142 112/11/155
f 3/1/1 2/1/1 1/1/1
f 2/1/1 3/1/1 4/1/1
f 4/1/1 3/1/1 5/1/1
f 4/1/1 5/1/1 6/1/1
f 6/1/1 5/1/1 7/1/1
f 6/1/1 7/1/1 8/1/1
f 9/2/2 1/1/3 2/1/4
f 1/1/5 9/2/6 10/2/7
f 11/2/8 1/1/9 10/2/10
f 1/1/9 11/2/11 3/1/12
f 12/2/13 2/1/4 4/1/14
f 2/1/4 12/2/15 9/2/16
f 13/2/17 4/1/18 6/1/19
f 4/1/20 13/2/21 12/2/13
f 7/1/22 14/2/23 8/1/24
f 14/2/23 7/1/22 15/2/25
f 11/2/26 5/1/27 3/1/12
f 5/1/28 11/2/26 16/2/29
f 8/1/30 13/2/31 6/1/19
f 13/2/32 8/1/30 14/2/33
f 7/1/22 16/2/34 15/2/35
f 16/2/34 7/1/22 5/1/36
f 14/2/37 18/3/38 17/3/39
f 18/3/40 14/2/37 15/2/41
f 16/2/42 18/3/40 15/2/43
f 18/3/40 16/2/44 19/3/45
f 21/3/46 9/2/47 20/3/48
f 9/2/47 21/3/46 10/2/49
f 22/3/50 12/2/51 13/2/52
f 12/2/51 22/3/53 23/3/54
f 21/3/55 11/2/56 10/2/57
f 11/2/56 21/3/46 24/3/58
f 13/2/59 17/3/60 22/3/50
f 17/3/39 13/2/59 14/2/61
f 20/3/48 12/2/51 23/3/62
f 12/2/63 20/3/48 9/2/64
f 24/3/58 16/2/44 11/2/65
f 16/2/44 24/3/66 19/3/67
f 27/4/68 26/4/68 25/4/68
f 26/4/68 27/4/68 28/4/68
f 26/4/68 28/4/68 29/4/68
f 29/4/68 28/4/68 30/4/68
f 29/4/68 30/4/68 31/4/68
f 31/4/68 30/4/68 32/4/68
f 35/5/1 34/5/1 33/5/1
f 34/5/1 35/5/1 36/5/1
f 34/5/1 36/5/1 37/5/1
f 37/5/1 36/5/1 38/5/1
f 37/5/1 38/5/1 39/5/1
f 39/5/1 38/5/1 40/5/1
f 27/4/69 33/5/70 34/5/69
f 33/5/70 27/4/69 25/4/71
f 29/4/72 38/5/73 36/5/72
f 38/5/73 29/4/72 31/4/74
f 40/5/75 31/4/76 32/4/77
f 31/4/76 40/5/75 38/5/76
f 28/4/78 34/5/79 37/5/78
f 34/5/79 28/4/78 27/4/80
f 26/4/81 36/5/72 35/5/81
f 36/5/72 26/4/81 29/4/82
f 30/4/83 37/5/78 39/5/83
f 37/5/78 30/4/83 28/4/84
f 26/4/85 33/5/71 25/4/70
f 33/5/70 26/4/85 35/5/85
f 40/5/75 30/4/83 39/5/86
f 30/4/86 40/5/77 32/4/75
f 43/6/87 42/7/88 41/7/87
f 42/7/88 43/6/87 44/6/88
f 47/6/89 46/7/90 45/7/89
f 46/7/90 47/6/89 48/6/90
f 50/6/91 45/7/92 49/7/91
f 45/7/92 50/6/91 47/6/92
f 48/6/90 41/7/87 46/7/90
f 41/7/87 48/6/93 43/6/87
f 52/7/94 44/6/95 51/6/94
f 44/6/95 52/7/94 42/7/95
f 52/7/96 50/6/91 49/7/91
f 50/6/91 52/7/94 51/6/96
f 41/7/1 45/7/1 46/7/1
f 45/7/1 41/7/1 42/7/1
f 45/7/1 42/7/1 49/7/1
f 49/7/1 42/7/1 52/7/1
f 55/6/97 54/8/98 53/8/99
f 54/8/98 55/6/97 56/6/100
f 59/8/101 58/6/102 57/6/103
f 58/6/102 59/8/101 60/8/104
f 63/6/105 62/8/106 61/8/107
f 62/8/108 63/6/105 64/6/109
f 64/6/110 53/8/99 62/8/106
f 53/8/99 64/6/110 55/6/111
f 64/6/112 56/6/113 55/6/114
f 56/6/113 64/6/115 58/6/116
f 58/6/117 64/6/112 63/6/118
f 58/6/116 63/6/118 57/6/119
f 59/8/120 63/6/121 61/8/107
f 63/6/122 59/8/101 57/6/123
f 54/8/1 62/8/1 53/8/1
f 62/8/1 54/8/1 60/8/1
f 62/8/1 60/8/1 61/8/1
f 61/8/1 60/8/1 59/8/1
f 56/6/124 60/8/104 54/8/98
f 60/8/125 56/6/124 58/6/126
f 67/6/127 66/9/128 65/9/127
f 66/9/128 67/6/127 68/6/129
f 70/6/130 65/9/127 69/9/131
f 65/9/127 70/6/131 67/6/127
f 68/6/128 71/9/132 66/9/128
f 71/9/132 68/6/128 72/6/132
f 72/6/132 73/9/133 71/9/134
f 73/9/133 72/6/132 74/6/133
f 71/9/1 65/9/1 66/9/1
f 65/9/1 71/9/1 69/9/1
f 69/9/1 71/9/1 73/9/1
f 69/9/1 73/9/1 75/9/1
f 76/6/135 69/9/130 75/9/135
f 69/9/130 76/6/135 70/6/130
f 73/9/133 76/6/135 75/9/135
f 76/6/135 73/9/133 74/6/133
f 79/10/136 78/10/137 77/11/138
f 78/10/139 79/10/136 41/6/136
f 78/10/139 41/6/136 42/6/139
f 77/11/140 78/10/141 79/10/142
f 41/6/142 79/10/142 78/10/141
f 42/6/141 41/6/142 78/10/141
f 81/11/143 49/6/144 80/10/144
f 49/6/144 81/11/143 52/6/145
f 52/6/145 81/11/143 82/10/145
f 80/10/146 49/6/146 81/11/147
f 52/6/148 81/11/147 49/6/146
f 82/10/148 81/11/147 52/6/148
f 82/10/145 42/6/139 52/6/145
f 42/6/139 82/10/145 83/11/149
f 42/6/137 83/11/149 78/10/139
f 52/6/148 42/6/150 82/10/148
f 83/11/151 82/10/148 42/6/150
f 78/10/141 83/11/151 42/6/150
f 46/6/152 85/11/153 84/10/152
f 85/11/153 46/6/152 41/6/136
f 85/11/153 41/6/136 79/10/136
f 84/10/154 85/11/155 46/6/154
f 41/6/142 46/6/154 85/11/155
f 79/10/142 41/6/142 85/11/155
f 80/10/144 87/10/156 86/11/157
f 87/10/158 80/10/144 49/6/144
f 87/10/158 49/6/144 45/6/158
f 86/11/159 87/10/160 80/10/146
f 49/6/146 80/10/146 87/10/160
f 45/6/160 49/6/146 87/10/160
f 45/6/156 88/11/161 87/10/158
f 88/11/161 45/6/158 46/6/152
f 88/11/161 46/6/152 84/10/152
f 87/10/160 88/11/162 45/6/163
f 46/6/154 45/6/163 88/11/162
f 84/10/154 46/6/154 88/11/162
f 91/10/164 90/10/165 89/11/166
f 90/10/165 91/10/164 75/6/164
f 90/10/165 75/6/164 69/6/165
f 89/11/167 90/10/168 91/10/169
f 75/6/169 91/10/170 90/10/168
f 69/6/168 75/6/169 90/10/168
f 65/6/171 93/11/172 92/10/171
f 93/11/172 65/6/171 66/6/173
f 93/11/172 66/6/173 94/10/174
f 92/10/175 93/11/176 65/6/175
f 66/6/177 65/6/175 93/11/176
f 94/10/177 66/6/177 93/11/176
f 97/10/178 96/10/179 95/11/180
f 96/10/179 97/10/178 71/6/178
f 96/10/179 71/6/178 73/6/179
f 95/11/181 96/10/182 97/10/183
f 71/6/183 97/10/183 96/10/182
f 73/6/182 71/6/183 96/10/182
f 98/11/184 75/6/185 91/10/164
f 75/6/185 98/11/184 73/6/179
f 73/6/179 98/11/184 96/10/179
f 91/10/170 75/6/169 98/11/186
f 73/6/182 98/11/186 75/6/170
f 96/10/182 98/11/186 73/6/182
f 94/10/174 97/10/178 99/11/187
f 97/10/178 94/10/174 66/6/174
f 97/10/178 66/6/174 71/6/178
f 99/11/188 97/10/183 94/10/177
f 66/6/177 94/10/177 97/10/183
f 71/6/183 66/6/189 97/10/183
f 90/10/165 92/10/171 100/11/190
f 92/10/171 90/10/165 69/6/165
f 92/10/171 69/6/165 65/6/171
f 100/11/191 92/10/175 90/10/168
f 69/6/168 90/10/168 92/10/175
f 65/6/175 69/6/168 92/10/175
f 102/11/143 61/6/144 101/10/144
f 61/6/144 102/11/143 59/6/145
f 59/6/145 102/11/143 103/10/145
f 101/10/146 61/6/146 102/11/147
f 59/6/148 102/11/147 61/6/146
f 103/10/148 102/11/147 59/6/148
f 103/10/145 60/6/139 59/6/145
f 60/6/139 103/10/145 104/11/149
f 60/6/137 104/11/149 105/10/139
f 59/6/148 60/6/150 103/10/148
f 104/11/151 103/10/148 60/6/150
f 105/10/141 104/11/151 60/6/150
f 62/6/156 107/11/161 106/10/158
f 107/11/161 62/6/158 53/6/152
f 107/11/192 53/6/152 108/10/152
f 106/10/160 107/11/162 62/6/163
f 53/6/154 62/6/160 107/11/162
f 108/10/154 53/6/154 107/11/193
f 110/10/136 105/10/137 109/11/138
f 105/10/139 110/10/136 54/6/136
f 105/10/139 54/6/136 60/6/139
f 109/11/140 105/10/141 110/10/142
f 54/6/142 110/10/142 105/10/141
f 60/6/141 54/6/142 105/10/141
f 101/10/144 106/10/156 111/11/157
f 106/10/158 101/10/144 61/6/144
f 106/10/158 61/6/144 62/6/158
f 111/11/159 106/10/160 101/10/146
f 61/6/146 101/10/146 106/10/160
f 62/6/160 61/6/146 106/10/160
f 53/6/152 112/11/153 108/10/152
f 112/11/153 53/6/152 54/6/136
f 112/11/153 54/6/136 110/10/136
f 108/10/154 112/11/155 53/6/154
f 54/6/142 53/6/154 112/11/155
f 110/10/142 54/6/142 112/11/155
