# Blender 4.1.1
# www.blender.org
mtllib tree.034.mtl
o tree.034
v -11.385153 -0.282319 -12.918810
v -11.224501 -0.282319 -13.003393
v -11.507771 -0.282319 -12.956845
v -11.186466 -0.282319 -13.126011
v -11.592352 -0.282319 -13.117497
v -11.271049 -0.282319 -13.286663
v -11.554318 -0.282319 -13.240114
v -11.393666 -0.282319 -13.324697
v -11.306955 0.046402 -13.062573
v -11.387281 0.046402 -13.020282
v -11.448589 0.046402 -13.039300
v -11.287937 0.046402 -13.123882
v -11.330229 0.046402 -13.204207
v -11.391538 0.046402 -13.223226
v -11.471864 0.046402 -13.180934
v -11.490881 0.046402 -13.119626
v -11.392070 0.539521 -13.248593
v -11.492477 0.539521 -13.195729
v -11.516249 0.539521 -13.119094
v -11.286342 0.539521 -13.047778
v -11.386749 0.539521 -12.994914
v -11.315434 0.539521 -13.224821
v -11.262569 0.539521 -13.124414
v -11.463385 0.539521 -13.018687
v -11.280243 0.163768 -13.009655
v -11.351177 0.163768 -13.003117
v -11.234708 0.163768 -13.064436
v -11.241247 0.163768 -13.135370
v -11.405959 0.163768 -13.048651
v -11.296029 0.163768 -13.180906
v -11.412498 0.163768 -13.119585
v -11.366962 0.163768 -13.174366
v -11.255683 0.044485 -12.963008
v -11.184357 0.044485 -13.048818
v -11.366796 0.044485 -12.952766
v -11.452606 0.044485 -13.024092
v -11.194599 0.044485 -13.159931
v -11.462849 0.044485 -13.135203
v -11.280410 0.044485 -13.231256
v -11.391522 0.044485 -13.221015
v -11.634669 0.539521 -12.747084
v -11.845308 0.539521 -13.147162
v -11.535795 1.083027 -12.903890
v -11.660073 1.083027 -13.139938
v -10.941710 0.539521 -13.111921
v -11.182870 0.539521 -12.729463
v -11.126946 1.083027 -13.119146
v -11.269232 1.083027 -12.893495
v -11.152350 0.539521 -13.512002
v -11.251225 1.083027 -13.355194
v -11.517788 1.083027 -13.365591
v -11.604150 0.539521 -13.529622
v -11.272055 1.666943 -12.898855
v -11.532562 1.666943 -12.909016
v -11.365594 2.279410 -13.076520
v -11.425471 2.279410 -13.078855
v -11.421426 2.279410 -13.182565
v -11.453387 2.279410 -13.131878
v -11.514965 1.666943 -13.360229
v -11.654018 1.666943 -13.139702
v -11.254457 1.666943 -13.350068
v -11.133001 1.666943 -13.119382
v -11.361548 2.279410 -13.180229
v -11.333632 2.279410 -13.127208
v -11.082567 1.083027 -12.933477
v -11.407835 1.083027 -12.762226
v -11.251033 1.666943 -13.039704
v -11.400074 1.666943 -12.961234
v -11.068242 1.083027 -13.300794
v -11.244469 1.666943 -13.208012
v -11.718778 1.083027 -12.958290
v -11.542551 1.666943 -13.051073
v -11.704453 1.083027 -13.325606
v -11.535987 1.666943 -13.219381
v -11.379184 1.083027 -13.496860
v -11.386946 1.666943 -13.297852
v -11.816214 0.369968 -12.906991
v -11.895007 0.454744 -13.149101
v -11.661197 0.454744 -12.705012
v -11.125823 0.454744 -13.554072
v -11.374893 0.369968 -13.606891
v -11.627320 0.454744 -13.573631
v -11.797597 0.369968 -13.384339
v -11.159699 0.454744 -12.685454
v -11.412127 0.369968 -12.652194
v -10.970805 0.369968 -13.352094
v -10.892013 0.454744 -13.109984
v -10.989422 0.369968 -12.874744
v -11.186358 0.945179 -13.458069
v -11.032462 1.014103 -13.319633
v -11.377608 1.014103 -13.537263
v -11.048364 1.014103 -12.911911
v -11.212574 0.945179 -12.785880
v -11.409410 1.014103 -12.721821
v -11.781598 0.945179 -13.144678
v -11.738656 1.014103 -13.347174
v -11.754558 1.014103 -12.939453
v -11.574446 0.945179 -13.473205
v -11.600661 0.945179 -12.801016
v -11.005421 0.945179 -13.114407
v -11.239161 1.618061 -13.374327
v -11.382775 1.569178 -13.404782
v -11.528325 1.618061 -13.385604
v -11.626507 1.569178 -13.276459
v -11.682673 1.618061 -13.140821
v -11.104345 1.618061 -13.118265
v -11.160513 1.569178 -12.982626
v -11.258694 1.618061 -12.873480
v -11.637242 1.569178 -13.001219
v -11.547858 1.618061 -12.884758
v -11.149777 1.569178 -13.257867
v -11.404244 1.569178 -12.854303
vn -0.0000 -1.0000 -0.0000
vn 0.7315 0.2942 0.6151
vn 0.0834 0.2944 0.9520
vn 0.7377 0.2944 0.6075
vn 0.0932 0.2942 0.9512
vn -0.6151 0.2942 0.7315
vn 0.0833 0.2944 0.9520
vn 0.0931 0.2942 0.9512
vn -0.6151 0.2943 0.7315
vn -0.6075 0.2944 0.7378
vn 0.9512 0.2942 -0.0931
vn 0.7378 0.2944 0.6075
vn 0.9520 0.2944 -0.0833
vn 0.6151 0.2942 -0.7315
vn 0.9520 0.2944 -0.0834
vn 0.6075 0.2944 -0.7377
vn 0.9512 0.2942 -0.0932
vn -0.7377 0.2944 -0.6075
vn -0.0932 0.2942 -0.9512
vn -0.0834 0.2944 -0.9520
vn -0.7315 0.2942 -0.6151
vn -0.9520 0.2944 0.0834
vn -0.6075 0.2944 0.7377
vn -0.9512 0.2942 0.0932
vn -0.0833 0.2944 -0.9520
vn 0.6151 0.2943 -0.7315
vn 0.6075 0.2944 -0.7378
vn -0.0931 0.2942 -0.9512
vn -0.9512 0.2942 0.0931
vn -0.7378 0.2944 -0.6075
vn -0.9520 0.2944 0.0833
vn -0.0926 -0.0513 -0.9944
vn -0.7685 -0.0512 -0.6377
vn -0.0908 -0.0513 -0.9945
vn -0.7686 -0.0513 -0.6377
vn -0.7674 -0.0513 -0.6391
vn -0.9944 -0.0512 0.0925
vn -0.7674 -0.0512 -0.6391
vn -0.9944 -0.0513 0.0926
vn -0.9945 -0.0512 0.0908
vn 0.0908 -0.0512 0.9945
vn 0.7674 -0.0513 0.6391
vn 0.7685 -0.0513 0.6377
vn 0.0926 -0.0513 0.9944
vn 0.6377 -0.0513 -0.7685
vn 0.9944 -0.0513 -0.0926
vn 0.6391 -0.0513 -0.7674
vn 0.6377 -0.0512 -0.7686
vn 0.9945 -0.0513 -0.0909
vn 0.0908 -0.0513 0.9945
vn -0.6391 -0.0513 0.7674
vn 0.0925 -0.0512 0.9944
vn 0.0908 -0.0512 0.9946
vn -0.6377 -0.0513 0.7686
vn -0.0908 -0.0513 -0.9946
vn 0.6377 -0.0513 -0.7686
vn -0.0925 -0.0513 -0.9944
vn 0.7686 -0.0513 0.6377
vn 0.9944 -0.0513 -0.0925
vn 0.9946 -0.0512 -0.0908
vn 0.9944 -0.0512 -0.0926
vn 0.7675 -0.0512 0.6390
vn -0.6377 -0.0512 0.7685
vn -0.9945 -0.0513 0.0908
vn -0.0000 1.0000 -0.0000
vn 0.8736 0.4042 0.2710
vn 0.4261 0.4042 0.8093
vn 0.4261 0.4042 0.8094
vn 0.4261 0.4043 0.8093
vn -0.8094 0.4042 0.4261
vn -0.8736 0.4042 -0.2710
vn -0.8736 0.4043 -0.2710
vn -0.4261 0.4042 -0.8094
vn -0.4261 0.4043 -0.8093
vn -0.4261 0.4042 -0.8093
vn 0.8094 0.4042 -0.4261
vn 0.8736 0.4042 0.2709
vn 0.8093 0.4042 -0.4261
vn 0.8736 0.4043 0.2709
vn -0.2710 0.4042 0.8736
vn -0.8093 0.4042 0.4261
vn -0.8093 0.4042 0.4262
vn 0.2710 0.4042 -0.8736
vn 0.8093 0.4043 -0.4261
vn 0.2709 0.4042 -0.8736
vn -0.5048 0.3228 0.8006
vn -0.9458 0.3228 -0.0369
vn 0.9457 0.3228 0.0369
vn 0.4409 0.3228 0.8375
vn 0.9458 0.3228 0.0369
vn 0.5048 0.3228 -0.8006
vn -0.4409 0.3228 -0.8375
vn -0.9457 0.3228 -0.0369
vn 0.3204 0.7260 0.6085
vn -0.5068 0.3115 0.8038
vn 0.4427 0.3115 0.8408
vn -0.3669 0.7260 0.5817
vn -0.4427 0.3115 -0.8408
vn -0.6872 0.7260 -0.0268
vn -0.3203 0.7260 -0.6086
vn -0.9495 0.3115 -0.0370
vn 0.3668 0.7260 -0.5818
vn 0.9495 0.3115 0.0370
vn 0.5068 0.3115 -0.8038
vn 0.6872 0.7260 0.0268
vn 0.3203 0.7260 0.6086
vn 0.6872 0.7259 0.0268
vn -0.3668 0.7259 0.5818
vn 0.3204 0.7259 0.6086
vn -0.3668 0.7259 0.5817
vn -0.6872 0.7259 -0.0268
vn 0.3668 0.7259 -0.5817
vn 0.3668 0.7259 -0.5818
vn -0.3204 0.7259 -0.6086
vn 0.3668 0.7260 -0.5817
vn -0.3204 0.7260 -0.6085
vn -0.3668 0.7260 0.5818
vn -0.6872 0.7260 -0.0269
vn 0.8006 0.3228 0.5048
vn -0.0369 0.3228 0.9457
vn -0.0369 0.3228 0.9458
vn 0.8375 0.3228 -0.4409
vn -0.8375 0.3228 0.4409
vn -0.8375 0.3228 0.4410
vn -0.8006 0.3228 -0.5048
vn 0.0369 0.3228 -0.9457
vn 0.0369 0.3228 -0.9458
vn -0.4600 0.5060 0.7296
vn -0.8619 0.5060 -0.0336
vn -0.7889 0.4530 0.4153
vn 0.7889 -0.4530 -0.4153
vn 0.8619 -0.5060 0.0336
vn 0.4600 -0.5060 -0.7296
vn 0.0347 0.4530 -0.8909
vn 0.4600 0.5060 -0.7296
vn -0.4018 0.5060 -0.7632
vn 0.0347 0.4530 -0.8908
vn -0.4600 -0.5060 0.7296
vn -0.0347 -0.4529 0.8909
vn 0.4018 -0.5060 0.7632
vn -0.0347 -0.4530 0.8909
vn -0.4601 -0.5060 0.7296
vn -0.0347 -0.4530 0.8908
vn 0.4018 -0.5061 0.7632
vn -0.7541 0.4530 -0.4755
vn 0.7541 -0.4530 0.4755
vn 0.4018 0.5060 0.7632
vn -0.0347 0.4529 0.8909
vn -0.0347 0.4530 0.8909
vn -0.4018 -0.5060 -0.7632
vn 0.0347 -0.4529 -0.8909
vn 0.4601 -0.5060 -0.7296
vn 0.0347 -0.4530 -0.8909
vn 0.8619 0.5060 0.0336
vn 0.7889 0.4530 -0.4153
vn -0.7889 -0.4530 0.4153
vn -0.8619 -0.5060 -0.0336
vn 0.7541 0.4529 0.4755
vn 0.7541 0.4530 0.4755
vn 0.4018 0.5061 0.7632
vn -0.7541 -0.4529 -0.4755
vn -0.7541 -0.4530 -0.4755
vn 0.0336 0.5060 -0.8619
vn 0.7632 0.5060 -0.4018
vn 0.4755 0.4529 -0.7541
vn -0.4755 -0.4529 0.7541
vn -0.7632 -0.5060 0.4018
vn -0.0336 -0.5060 0.8619
vn 0.7296 0.5060 0.4600
vn 0.4153 0.4529 0.7889
vn 0.7296 0.5060 0.4601
vn 0.4153 0.4530 0.7889
vn -0.0336 0.5061 0.8618
vn -0.0336 0.5060 0.8619
vn -0.7296 -0.5060 -0.4601
vn -0.4153 -0.4529 -0.7889
vn -0.7296 -0.5060 -0.4600
vn 0.0336 -0.5060 -0.8619
vn -0.4153 -0.4530 -0.7889
vn -0.7632 0.5060 0.4018
vn -0.7296 0.5060 -0.4600
vn -0.8909 0.4530 -0.0347
vn -0.7296 0.5060 -0.4601
vn 0.8909 -0.4530 0.0347
vn 0.7296 -0.5060 0.4601
vn 0.7632 -0.5060 -0.4018
vn 0.7296 -0.5060 0.4600
vn -0.4153 0.4530 -0.7889
vn -0.4153 0.4529 -0.7889
vn 0.4153 -0.4530 0.7889
vn 0.4153 -0.4529 0.7889
vn -0.4755 0.4530 0.7541
vn 0.4755 -0.4530 -0.7541
vn 0.8908 0.4530 0.0347
vn -0.8908 -0.4530 -0.0347
vn 0.4600 0.5061 -0.7296
vn 0.0347 0.4529 -0.8909
vn -0.4600 -0.5061 0.7296
vn -0.7541 0.4529 -0.4755
vn 0.7541 -0.4529 0.4755
vn -0.4601 0.5060 0.7296
vn -0.0348 0.4529 0.8909
vn 0.0348 -0.4529 -0.8909
vt 0.593750 0.025000
vt 0.593750 0.104996
vt 0.593750 0.225000
vt 0.093750 0.475000
vt 0.093750 0.275000
vt 0.093750 0.425000
vt 0.093750 0.348778
vt 0.093750 0.338765
vt 0.093750 0.344099
vt 0.093750 0.375000
vt 0.093750 0.325000
s 0
usemtl colormap.002
f 3/1/1 2/1/1 1/1/1
f 2/1/1 3/1/1 4/1/1
f 4/1/1 3/1/1 5/1/1
f 4/1/1 5/1/1 6/1/1
f 6/1/1 5/1/1 7/1/1
f 6/1/1 7/1/1 8/1/1
f 9/2/2 1/1/3 2/1/4
f 1/1/3 9/2/2 10/2/5
f 11/2/6 1/1/7 10/2/8
f 1/1/7 11/2/9 3/1/10
f 12/2/11 2/1/12 4/1/13
f 2/1/4 12/2/11 9/2/2
f 13/2/14 4/1/15 6/1/16
f 4/1/15 13/2/14 12/2/17
f 7/1/18 14/2/19 8/1/20
f 14/2/19 7/1/18 15/2/21
f 11/2/6 5/1/22 3/1/23
f 5/1/22 11/2/6 16/2/24
f 8/1/25 13/2/26 6/1/27
f 13/2/14 8/1/25 14/2/28
f 7/1/18 16/2/29 15/2/21
f 16/2/29 7/1/30 5/1/31
f 14/2/32 18/3/33 17/3/34
f 18/3/35 14/2/32 15/2/36
f 16/2/37 18/3/35 15/2/38
f 18/3/35 16/2/39 19/3/40
f 21/3/41 9/2/42 20/3/43
f 9/2/42 21/3/41 10/2/44
f 22/3/45 12/2/46 13/2/47
f 12/2/46 22/3/48 23/3/49
f 21/3/50 11/2/51 10/2/52
f 11/2/51 21/3/53 24/3/54
f 13/2/47 17/3/55 22/3/56
f 17/3/34 13/2/47 14/2/57
f 20/3/58 12/2/59 23/3/60
f 12/2/61 20/3/58 9/2/62
f 24/3/54 16/2/39 11/2/51
f 16/2/39 24/3/63 19/3/64
f 27/4/65 26/4/65 25/4/65
f 26/4/65 27/4/65 28/4/65
f 26/4/65 28/4/65 29/4/65
f 29/4/65 28/4/65 30/4/65
f 29/4/65 30/4/65 31/4/65
f 31/4/65 30/4/65 32/4/65
f 35/5/1 34/5/1 33/5/1
f 34/5/1 35/5/1 36/5/1
f 34/5/1 36/5/1 37/5/1
f 37/5/1 36/5/1 38/5/1
f 37/5/1 38/5/1 39/5/1
f 39/5/1 38/5/1 40/5/1
f 27/4/66 33/5/67 34/5/66
f 33/5/68 27/4/66 25/4/69
f 29/4/70 38/5/71 36/5/70
f 38/5/71 29/4/70 31/4/72
f 40/5/73 31/4/71 32/4/74
f 31/4/71 40/5/75 38/5/71
f 28/4/76 34/5/66 37/5/76
f 34/5/77 28/4/78 27/4/79
f 26/4/80 36/5/81 35/5/80
f 36/5/82 26/4/80 29/4/82
f 30/4/83 37/5/78 39/5/83
f 37/5/78 30/4/83 28/4/84
f 26/4/80 33/5/69 25/4/68
f 33/5/68 26/4/80 35/5/80
f 40/5/73 30/4/83 39/5/83
f 30/4/85 40/5/74 32/4/75
f 43/6/86 42/7/87 41/7/86
f 42/7/87 43/6/86 44/6/87
f 47/6/88 46/7/89 45/7/88
f 46/7/89 47/6/90 48/6/89
f 50/6/91 45/7/90 49/7/91
f 45/7/90 50/6/91 47/6/90
f 48/6/89 41/7/86 46/7/89
f 41/7/86 48/6/89 43/6/86
f 52/7/92 44/6/87 51/6/92
f 44/6/93 52/7/92 42/7/93
f 52/7/92 50/6/91 49/7/91
f 50/6/91 52/7/92 51/6/92
f 41/7/1 45/7/1 46/7/1
f 45/7/1 41/7/1 42/7/1
f 45/7/1 42/7/1 49/7/1
f 49/7/1 42/7/1 52/7/1
f 55/6/94 54/8/95 53/8/96
f 54/8/95 55/6/94 56/6/97
f 59/8/98 58/6/99 57/6/100
f 58/6/99 59/8/98 60/8/101
f 63/6/102 62/8/103 61/8/104
f 62/8/103 63/6/102 64/6/105
f 64/6/105 53/8/96 62/8/103
f 53/8/96 64/6/105 55/6/106
f 64/6/107 56/6/108 55/6/109
f 56/6/110 64/6/107 58/6/111
f 58/6/111 64/6/107 63/6/112
f 58/6/111 63/6/113 57/6/114
f 59/8/98 63/6/115 61/8/104
f 63/6/115 59/8/98 57/6/116
f 54/8/1 62/8/1 53/8/1
f 62/8/1 54/8/1 60/8/1
f 62/8/1 60/8/1 61/8/1
f 61/8/1 60/8/1 59/8/1
f 56/6/117 60/8/101 54/8/95
f 60/8/101 56/6/117 58/6/118
f 67/6/119 66/9/120 65/9/119
f 66/9/120 67/6/119 68/6/121
f 70/6/122 65/9/119 69/9/122
f 65/9/119 70/6/122 67/6/119
f 68/6/120 71/9/123 66/9/120
f 71/9/123 68/6/121 72/6/124
f 72/6/123 73/9/125 71/9/123
f 73/9/125 72/6/123 74/6/125
f 71/9/1 65/9/1 66/9/1
f 65/9/1 71/9/1 69/9/1
f 69/9/1 71/9/1 73/9/1
f 69/9/1 73/9/1 75/9/1
f 76/6/126 69/9/122 75/9/126
f 69/9/122 76/6/127 70/6/122
f 73/9/125 76/6/126 75/9/126
f 76/6/126 73/9/125 74/6/125
f 79/10/128 78/10/129 77/11/130
f 78/10/129 79/10/128 41/6/128
f 78/10/129 41/6/128 42/6/129
f 77/11/131 78/10/132 79/10/133
f 41/6/133 79/10/133 78/10/132
f 42/6/132 41/6/133 78/10/132
f 81/11/134 49/6/135 80/10/135
f 49/6/135 81/11/134 52/6/136
f 52/6/136 81/11/137 82/10/136
f 80/10/138 49/6/138 81/11/139
f 52/6/140 81/11/141 49/6/142
f 82/10/140 81/11/143 52/6/144
f 82/10/136 42/6/129 52/6/136
f 42/6/129 82/10/136 83/11/145
f 42/6/129 83/11/145 78/10/129
f 52/6/140 42/6/132 82/10/140
f 83/11/146 82/10/140 42/6/132
f 78/10/132 83/11/146 42/6/132
f 46/6/147 85/11/148 84/10/147
f 85/11/149 46/6/147 41/6/128
f 85/11/149 41/6/128 79/10/128
f 84/10/150 85/11/151 46/6/150
f 41/6/152 46/6/150 85/11/153
f 79/10/133 41/6/133 85/11/153
f 80/10/135 87/10/154 86/11/155
f 87/10/154 80/10/135 49/6/135
f 87/10/154 49/6/135 45/6/154
f 86/11/156 87/10/157 80/10/138
f 49/6/138 80/10/138 87/10/157
f 45/6/157 49/6/138 87/10/157
f 45/6/154 88/11/158 87/10/154
f 88/11/159 45/6/154 46/6/160
f 88/11/158 46/6/147 84/10/147
f 87/10/157 88/11/161 45/6/157
f 46/6/150 45/6/157 88/11/162
f 84/10/150 46/6/150 88/11/161
f 91/10/163 90/10/164 89/11/165
f 90/10/164 91/10/163 75/6/163
f 90/10/164 75/6/163 69/6/164
f 89/11/166 90/10/167 91/10/168
f 75/6/168 91/10/168 90/10/167
f 69/6/167 75/6/168 90/10/167
f 65/6/169 93/11/170 92/10/171
f 93/11/172 65/6/169 66/6/173
f 93/11/172 66/6/174 94/10/174
f 92/10/175 93/11/176 65/6/177
f 66/6/178 65/6/177 93/11/179
f 94/10/178 66/6/178 93/11/179
f 97/10/180 96/10/181 95/11/182
f 96/10/181 97/10/180 71/6/180
f 96/10/183 71/6/180 73/6/183
f 95/11/184 96/10/185 97/10/186
f 71/6/186 97/10/186 96/10/185
f 73/6/187 71/6/186 96/10/185
f 98/11/188 75/6/163 91/10/163
f 75/6/163 98/11/189 73/6/183
f 73/6/181 98/11/188 96/10/183
f 91/10/168 75/6/168 98/11/190
f 73/6/187 98/11/191 75/6/168
f 96/10/187 98/11/190 73/6/187
f 94/10/174 97/10/180 99/11/192
f 97/10/180 94/10/174 66/6/174
f 97/10/180 66/6/174 71/6/180
f 99/11/193 97/10/186 94/10/178
f 66/6/178 94/10/178 97/10/186
f 71/6/186 66/6/178 97/10/186
f 90/10/164 92/10/169 100/11/194
f 92/10/169 90/10/164 69/6/164
f 92/10/171 69/6/164 65/6/171
f 100/11/195 92/10/177 90/10/167
f 69/6/167 90/10/167 92/10/175
f 65/6/177 69/6/167 92/10/175
f 102/11/137 61/6/196 101/10/135
f 61/6/135 102/11/134 59/6/136
f 59/6/136 102/11/197 103/10/136
f 101/10/138 61/6/198 102/11/143
f 59/6/140 102/11/141 61/6/142
f 103/10/140 102/11/141 59/6/140
f 103/10/136 60/6/129 59/6/136
f 60/6/129 103/10/136 104/11/199
f 60/6/129 104/11/145 105/10/129
f 59/6/140 60/6/132 103/10/140
f 104/11/200 103/10/140 60/6/132
f 105/10/132 104/11/146 60/6/132
f 62/6/154 107/11/159 106/10/154
f 107/11/159 62/6/154 53/6/147
f 107/11/159 53/6/160 108/10/147
f 106/10/157 107/11/162 62/6/157
f 53/6/150 62/6/157 107/11/162
f 108/10/150 53/6/150 107/11/162
f 110/10/128 105/10/129 109/11/130
f 105/10/129 110/10/128 54/6/128
f 105/10/129 54/6/201 60/6/129
f 109/11/131 105/10/132 110/10/133
f 54/6/133 110/10/133 105/10/132
f 60/6/132 54/6/133 105/10/132
f 101/10/135 106/10/154 111/11/155
f 106/10/154 101/10/135 61/6/135
f 106/10/154 61/6/135 62/6/154
f 111/11/156 106/10/157 101/10/138
f 61/6/138 101/10/138 106/10/157
f 62/6/157 61/6/198 106/10/157
f 53/6/147 112/11/202 108/10/147
f 112/11/149 53/6/147 54/6/128
f 112/11/148 54/6/128 110/10/128
f 108/10/150 112/11/203 53/6/150
f 54/6/152 53/6/150 112/11/153
f 110/10/133 54/6/133 112/11/151
f 3/1/1 2/1/1 1/1/1
f 2/1/1 3/1/1 4/1/1
f 4/1/1 3/1/1 5/1/1
f 4/1/1 5/1/1 6/1/1
f 6/1/1 5/1/1 7/1/1
f 6/1/1 7/1/1 8/1/1
f 9/2/2 1/1/3 2/1/4
f 1/1/3 9/2/2 10/2/5
f 11/2/6 1/1/7 10/2/8
f 1/1/7 11/2/9 3/1/10
f 12/2/11 2/1/12 4/1/13
f 2/1/4 12/2/11 9/2/2
f 13/2/14 4/1/15 6/1/16
f 4/1/15 13/2/14 12/2/17
f 7/1/18 14/2/19 8/1/20
f 14/2/19 7/1/18 15/2/21
f 11/2/6 5/1/22 3/1/23
f 5/1/22 11/2/6 16/2/24
f 8/1/25 13/2/26 6/1/27
f 13/2/14 8/1/25 14/2/28
f 7/1/18 16/2/29 15/2/21
f 16/2/29 7/1/30 5/1/31
f 14/2/32 18/3/33 17/3/34
f 18/3/35 14/2/32 15/2/36
f 16/2/37 18/3/35 15/2/38
f 18/3/35 16/2/39 19/3/40
f 21/3/41 9/2/42 20/3/43
f 9/2/42 21/3/41 10/2/44
f 22/3/45 12/2/46 13/2/47
f 12/2/46 22/3/48 23/3/49
f 21/3/50 11/2/51 10/2/52
f 11/2/51 21/3/53 24/3/54
f 13/2/47 17/3/55 22/3/56
f 17/3/34 13/2/47 14/2/57
f 20/3/58 12/2/59 23/3/60
f 12/2/61 20/3/58 9/2/62
f 24/3/54 16/2/39 11/2/51
f 16/2/39 24/3/63 19/3/64
f 27/4/65 26/4/65 25/4/65
f 26/4/65 27/4/65 28/4/65
f 26/4/65 28/4/65 29/4/65
f 29/4/65 28/4/65 30/4/65
f 29/4/65 30/4/65 31/4/65
f 31/4/65 30/4/65 32/4/65
f 35/5/1 34/5/1 33/5/1
f 34/5/1 35/5/1 36/5/1
f 34/5/1 36/5/1 37/5/1
f 37/5/1 36/5/1 38/5/1
f 37/5/1 38/5/1 39/5/1
f 39/5/1 38/5/1 40/5/1
f 27/4/66 33/5/67 34/5/66
f 33/5/68 27/4/66 25/4/69
f 29/4/70 38/5/71 36/5/70
f 38/5/71 29/4/70 31/4/72
f 40/5/73 31/4/71 32/4/74
f 31/4/71 40/5/75 38/5/71
f 28/4/76 34/5/66 37/5/76
f 34/5/77 28/4/78 27/4/79
f 26/4/80 36/5/81 35/5/80
f 36/5/82 26/4/80 29/4/82
f 30/4/83 37/5/78 39/5/83
f 37/5/78 30/4/83 28/4/84
f 26/4/80 33/5/69 25/4/68
f 33/5/68 26/4/80 35/5/80
f 40/5/73 30/4/83 39/5/83
f 30/4/85 40/5/74 32/4/75
f 43/6/86 42/7/87 41/7/86
f 42/7/87 43/6/86 44/6/87
f 47/6/88 46/7/89 45/7/88
f 46/7/89 47/6/90 48/6/89
f 50/6/91 45/7/90 49/7/91
f 45/7/90 50/6/91 47/6/90
f 48/6/89 41/7/86 46/7/89
f 41/7/86 48/6/89 43/6/86
f 52/7/92 44/6/87 51/6/92
f 44/6/93 52/7/92 42/7/93
f 52/7/92 50/6/91 49/7/91
f 50/6/91 52/7/92 51/6/92
f 41/7/1 45/7/1 46/7/1
f 45/7/1 41/7/1 42/7/1
f 45/7/1 42/7/1 49/7/1
f 49/7/1 42/7/1 52/7/1
f 55/6/94 54/8/95 53/8/96
f 54/8/95 55/6/94 56/6/97
f 59/8/98 58/6/99 57/6/100
f 58/6/99 59/8/98 60/8/101
f 63/6/102 62/8/103 61/8/104
f 62/8/103 63/6/102 64/6/105
f 64/6/105 53/8/96 62/8/103
f 53/8/96 64/6/105 55/6/106
f 64/6/107 56/6/108 55/6/109
f 56/6/110 64/6/107 58/6/111
f 58/6/111 64/6/107 63/6/112
f 58/6/111 63/6/113 57/6/114
f 59/8/98 63/6/115 61/8/104
f 63/6/115 59/8/98 57/6/116
f 54/8/1 62/8/1 53/8/1
f 62/8/1 54/8/1 60/8/1
f 62/8/1 60/8/1 61/8/1
f 61/8/1 60/8/1 59/8/1
f 56/6/117 60/8/101 54/8/95
f 60/8/101 56/6/117 58/6/118
f 67/6/119 66/9/120 65/9/119
f 66/9/120 67/6/119 68/6/121
f 70/6/122 65/9/119 69/9/122
f 65/9/119 70/6/122 67/6/119
f 68/6/120 71/9/123 66/9/120
f 71/9/123 68/6/121 72/6/124
f 72/6/123 73/9/125 71/9/123
f 73/9/125 72/6/123 74/6/125
f 71/9/1 65/9/1 66/9/1
f 65/9/1 71/9/1 69/9/1
f 69/9/1 71/9/1 73/9/1
f 69/9/1 73/9/1 75/9/1
f 76/6/126 69/9/122 75/9/126
f 69/9/122 76/6/127 70/6/122
f 73/9/125 76/6/126 75/9/126
f 76/6/126 73/9/125 74/6/125
f 79/10/128 78/10/129 77/11/130
f 78/10/129 79/10/128 41/6/128
f 78/10/129 41/6/128 42/6/129
f 77/11/131 78/10/132 79/10/133
f 41/6/133 79/10/133 78/10/132
f 42/6/132 41/6/133 78/10/132
f 81/11/134 49/6/135 80/10/135
f 49/6/135 81/11/134 52/6/136
f 52/6/136 81/11/137 82/10/136
f 80/10/138 49/6/138 81/11/139
f 52/6/140 81/11/141 49/6/142
f 82/10/140 81/11/143 52/6/144
f 82/10/136 42/6/129 52/6/136
f 42/6/129 82/10/136 83/11/145
f 42/6/129 83/11/145 78/10/129
f 52/6/140 42/6/132 82/10/140
f 83/11/146 82/10/140 42/6/132
f 78/10/132 83/11/146 42/6/132
f 46/6/147 85/11/148 84/10/147
f 85/11/149 46/6/147 41/6/128
f 85/11/149 41/6/128 79/10/128
f 84/10/150 85/11/151 46/6/150
f 41/6/152 46/6/150 85/11/153
f 79/10/133 41/6/133 85/11/153
f 80/10/135 87/10/154 86/11/155
f 87/10/154 80/10/135 49/6/135
f 87/10/154 49/6/135 45/6/154
f 86/11/156 87/10/157 80/10/138
f 49/6/138 80/10/138 87/10/157
f 45/6/157 49/6/138 87/10/157
f 45/6/154 88/11/158 87/10/154
f 88/11/159 45/6/154 46/6/160
f 88/11/158 46/6/147 84/10/147
f 87/10/157 88/11/161 45/6/157
f 46/6/150 45/6/157 88/11/162
f 84/10/150 46/6/150 88/11/161
f 91/10/163 90/10/164 89/11/165
f 90/10/164 91/10/163 75/6/163
f 90/10/164 75/6/163 69/6/164
f 89/11/166 90/10/167 91/10/168
f 75/6/168 91/10/168 90/10/167
f 69/6/167 75/6/168 90/10/167
f 65/6/169 93/11/170 92/10/171
f 93/11/172 65/6/169 66/6/173
f 93/11/172 66/6/174 94/10/174
f 92/10/175 93/11/176 65/6/177
f 66/6/178 65/6/177 93/11/179
f 94/10/178 66/6/178 93/11/179
f 97/10/180 96/10/181 95/11/182
f 96/10/181 97/10/180 71/6/180
f 96/10/183 71/6/180 73/6/183
f 95/11/184 96/10/185 97/10/186
f 71/6/186 97/10/186 96/10/185
f 73/6/187 71/6/186 96/10/185
f 98/11/188 75/6/163 91/10/163
f 75/6/163 98/11/189 73/6/183
f 73/6/181 98/11/188 96/10/183
f 91/10/168 75/6/168 98/11/190
f 73/6/187 98/11/191 75/6/168
f 96/10/187 98/11/190 73/6/187
f 94/10/174 97/10/180 99/11/192
f 97/10/180 94/10/174 66/6/174
f 97/10/180 66/6/174 71/6/180
f 99/11/193 97/10/186 94/10/178
f 66/6/178 94/10/178 97/10/186
f 71/6/186 66/6/178 97/10/186
f 90/10/164 92/10/169 100/11/194
f 92/10/169 90/10/164 69/6/164
f 92/10/171 69/6/164 65/6/171
f 100/11/195 92/10/177 90/10/167
f 69/6/167 90/10/167 92/10/175
f 65/6/177 69/6/167 92/10/175
f 102/11/137 61/6/196 101/10/135
f 61/6/135 102/11/134 59/6/136
f 59/6/136 102/11/197 103/10/136
f 101/10/138 61/6/198 102/11/143
f 59/6/140 102/11/141 61/6/142
f 103/10/140 102/11/141 59/6/140
f 103/10/136 60/6/129 59/6/136
f 60/6/129 103/10/136 104/11/199
f 60/6/129 104/11/145 105/10/129
f 59/6/140 60/6/132 103/10/140
f 104/11/200 103/10/140 60/6/132
f 105/10/132 104/11/146 60/6/132
f 62/6/154 107/11/159 106/10/154
f 107/11/159 62/6/154 53/6/147
f 107/11/159 53/6/160 108/10/147
f 106/10/157 107/11/162 62/6/157
f 53/6/150 62/6/157 107/11/162
f 108/10/150 53/6/150 107/11/162
f 110/10/128 105/10/129 109/11/130
f 105/10/129 110/10/128 54/6/128
f 105/10/129 54/6/201 60/6/129
f 109/11/131 105/10/132 110/10/133
f 54/6/133 110/10/133 105/10/132
f 60/6/132 54/6/133 105/10/132
f 101/10/135 106/10/154 111/11/155
f 106/10/154 101/10/135 61/6/135
f 106/10/154 61/6/135 62/6/154
f 111/11/156 106/10/157 101/10/138
f 61/6/138 101/10/138 106/10/157
f 62/6/157 61/6/198 106/10/157
f 53/6/147 112/11/202 108/10/147
f 112/11/149 53/6/147 54/6/128
f 112/11/148 54/6/128 110/10/128
f 108/10/150 112/11/203 53/6/150
f 54/6/152 53/6/150 112/11/153
f 110/10/133 54/6/133 112/11/151
