# Blender 4.1.1
# www.blender.org
mtllib iron-fence-border-column.007.mtl
o iron-fence-border-column.001
v 13.820729 -2.964949 -7.718971
v 13.820729 -2.869370 -7.718971
v 13.820729 -2.964949 -7.910129
v 13.820729 -2.869370 -7.910129
v 13.629572 -2.869370 -7.718971
v 13.629572 -2.964949 -7.718971
v 13.629572 -2.869370 -7.910129
v 13.629572 -2.964949 -7.910129
v 13.820729 -4.444326 -7.910129
v 13.820729 -4.234052 -7.910129
v 13.629572 -4.444326 -7.910129
v 13.629572 -4.234052 -7.910129
v 13.803526 -3.003181 -7.736175
v 13.803526 -3.003181 -7.892925
v 13.803526 -4.195820 -7.736175
v 13.803526 -4.195820 -7.892925
v 13.629572 -4.444326 -7.718971
v 13.629572 -4.234052 -7.718971
v 13.820729 -4.234052 -7.718971
v 13.646775 -4.195820 -7.736175
v 13.646775 -3.003181 -7.736175
v 13.820729 -4.444326 -7.718971
v 13.646775 -3.003181 -7.892925
v 13.646775 -4.195820 -7.892925
v 14.031004 -3.003181 -7.771539
v 13.987994 -2.869370 -7.814550
v 14.031004 -3.003181 -7.857561
v 13.944983 -3.003181 -7.771539
v 13.944983 -3.003181 -7.857561
v 14.016667 -3.079644 -7.785876
v 14.016667 -3.079644 -7.843224
v 13.959320 -3.079644 -7.785876
v 13.959320 -3.079644 -7.843224
v 14.508901 -3.003181 -7.771540
v 14.465891 -2.869370 -7.814550
v 14.508901 -3.003181 -7.857561
v 14.422879 -3.003181 -7.771540
v 14.422879 -3.003181 -7.857561
v 14.494565 -3.079644 -7.785876
v 14.494565 -3.079644 -7.843224
v 14.437217 -3.079644 -7.785876
v 14.437217 -3.079644 -7.843224
v 15.464695 -3.003181 -7.771540
v 15.421683 -2.869370 -7.814550
v 15.464695 -3.003181 -7.857561
v 15.378673 -3.003181 -7.771540
v 15.378673 -3.003181 -7.857561
v 15.450357 -3.079644 -7.785876
v 15.450357 -3.079644 -7.843224
v 15.393009 -3.079644 -7.785876
v 15.393009 -3.079644 -7.843224
v 14.269953 -3.003181 -7.771539
v 14.226942 -2.869370 -7.814550
v 14.269953 -3.003181 -7.857561
v 14.183932 -3.003181 -7.771539
v 14.183932 -3.003181 -7.857561
v 14.255616 -3.079644 -7.785876
v 14.255616 -3.079644 -7.843224
v 14.198268 -3.079644 -7.785876
v 14.198268 -3.079644 -7.843224
v 14.986798 -3.003181 -7.771540
v 14.943788 -2.869370 -7.814550
v 14.986798 -3.003181 -7.857561
v 14.900776 -3.003181 -7.771540
v 14.900776 -3.003181 -7.857561
v 14.972462 -3.079644 -7.785876
v 14.972462 -3.079644 -7.843224
v 14.915113 -3.079644 -7.785876
v 14.915113 -3.079644 -7.843224
v 14.747849 -3.003181 -7.771540
v 14.704839 -2.869370 -7.814550
v 14.747849 -3.003181 -7.857561
v 14.661829 -3.003181 -7.771540
v 14.661829 -3.003181 -7.857561
v 14.733513 -3.079644 -7.785876
v 14.733513 -3.079644 -7.843224
v 14.676166 -3.079644 -7.785876
v 14.676166 -3.079644 -7.843224
v 15.225746 -3.003181 -7.771540
v 15.182736 -2.869370 -7.814550
v 15.225746 -3.003181 -7.857561
v 15.139725 -3.003181 -7.771540
v 15.139725 -3.003181 -7.857561
v 15.211409 -3.079644 -7.785876
v 15.211409 -3.079644 -7.843224
v 15.154062 -3.079644 -7.785876
v 15.154062 -3.079644 -7.843224
v 13.820729 -4.272284 -7.732352
v 13.820729 -4.272284 -7.896748
v 15.541158 -4.272284 -7.732352
v 15.541158 -4.272284 -7.896749
v 13.820729 -4.310515 -7.910129
v 15.541158 -4.310515 -7.910130
v 15.541158 -4.444326 -7.718972
v 13.820729 -4.444326 -7.718971
v 15.541158 -4.310515 -7.718971
v 13.820729 -4.310515 -7.718971
v 13.820729 -4.444326 -7.910129
v 15.541158 -4.444326 -7.910130
v 13.959320 -4.272284 -7.843224
v 14.016667 -4.272284 -7.843224
v 13.959320 -4.272284 -7.785876
v 14.016667 -4.272284 -7.785876
v 14.437217 -4.272284 -7.843224
v 14.494565 -4.272284 -7.843224
v 14.437217 -4.272284 -7.785876
v 14.494565 -4.272284 -7.785876
v 15.393009 -4.272284 -7.843224
v 15.450357 -4.272284 -7.843224
v 15.393009 -4.272284 -7.785877
v 15.450357 -4.272284 -7.785877
v 14.198268 -4.272284 -7.843224
v 14.255616 -4.272284 -7.843224
v 14.198268 -4.272284 -7.785876
v 14.255616 -4.272284 -7.785876
v 14.915113 -4.272284 -7.843224
v 14.972462 -4.272284 -7.843224
v 14.915113 -4.272284 -7.785876
v 14.972462 -4.272284 -7.785876
v 14.676166 -4.272284 -7.843224
v 14.733513 -4.272284 -7.843224
v 14.676166 -4.272284 -7.785876
v 14.733513 -4.272284 -7.785876
v 15.154062 -4.272284 -7.843224
v 15.211409 -4.272284 -7.843224
v 15.154062 -4.272284 -7.785877
v 15.211409 -4.272284 -7.785877
v 13.803526 -3.251687 -7.800213
v 13.803526 -3.309035 -7.800213
v 13.803526 -3.251687 -7.828887
v 13.803526 -3.309035 -7.828887
v 15.541158 -3.309035 -7.800213
v 15.541158 -3.251687 -7.800213
v 15.541158 -3.309035 -7.828887
v 15.541158 -3.251687 -7.828887
v 15.541158 -4.042893 -7.800213
v 15.541158 -3.985545 -7.800213
v 15.541158 -4.042893 -7.828887
v 15.541158 -3.985545 -7.828887
v 13.803526 -3.985545 -7.800213
v 13.803526 -4.042893 -7.800213
v 13.803526 -3.985545 -7.828887
v 13.803526 -4.042893 -7.828887
vn 0.9837 -0.1800 -0.0000
vn 1.0000 -0.0000 -0.0000
vn -1.0000 -0.0000 -0.0000
vn -0.9837 -0.1800 -0.0000
vn -0.0000 -0.0000 -1.0000
vn -0.0000 0.1800 -0.9837
vn 0.9119 -0.4103 -0.0000
vn 0.9837 -0.1801 -0.0000
vn -0.9837 0.1800 -0.0000
vn 0.9836 0.1801 -0.0000
vn 0.9119 0.4103 -0.0000
vn -0.0000 -0.0000 1.0000
vn -0.0000 0.1800 0.9837
vn -0.0000 -0.1801 -0.9836
vn -0.0000 -0.4104 -0.9119
vn -0.0000 -0.4103 -0.9119
vn -0.0000 -0.1801 -0.9837
vn -0.0000 0.4104 0.9119
vn -0.0000 0.1801 0.9836
vn -0.9836 -0.1801 -0.0000
vn -0.9119 -0.4103 -0.0000
vn -0.9837 -0.1801 -0.0000
vn -0.9119 0.4103 -0.0000
vn -0.9837 0.1801 -0.0000
vn -0.0000 -0.1801 0.9836
vn -0.0000 -0.4104 0.9119
vn -0.0000 -0.1800 -0.9837
vn -0.0000 -0.1800 0.9837
vn -0.0000 0.4103 -0.9119
vn -0.0000 0.1801 -0.9837
vn -0.0000 0.1801 -0.9836
vn -0.0000 0.4104 -0.9119
vn -0.0000 1.0000 -0.0000
vn -0.0000 -1.0000 -0.0000
vn 0.9837 0.1800 -0.0000
vn 0.9987 0.0519 -0.0000
vn 0.9520 0.3060 -0.0000
vn -0.0000 0.3060 0.9520
vn -0.0000 0.0519 0.9987
vn -0.9987 0.0519 -0.0000
vn -0.9520 0.3060 -0.0000
vn -0.0000 0.3060 -0.9520
vn -0.0000 0.0519 -0.9987
vn 0.9829 -0.1843 -0.0000
vn 0.9987 0.0518 -0.0000
vn -0.9987 0.0518 -0.0000
vn -0.9829 -0.1843 -0.0000
vn -0.0000 0.0518 0.9987
vn -0.0000 -0.1843 0.9829
vn -0.0000 0.0518 -0.9987
vn -0.0000 -0.1843 -0.9829
vn -0.0000 0.3304 -0.9439
vn -0.0000 0.1676 -0.9859
vn -0.0000 0.1675 0.9859
vn -1.0000 -0.0000 -0.0001
vn -1.0000 -0.0000 0.0001
vn -0.0000 0.1675 -0.9859
vn -0.0000 0.3304 0.9439
vn -0.0000 0.1676 0.9859
vn 1.0000 -0.0000 -0.0001
vn 1.0000 -0.0000 0.0003
vt 0.843750 0.212863
vt 0.843750 0.225000
vt 0.843750 0.025000
vt 0.843750 0.051702
vt 0.843750 0.208008
vt 0.843750 0.056557
vt 0.843750 0.198298
vt 0.843750 0.180556
vt 0.593750 0.448298
vt 0.593750 0.296847
vt 0.531250 0.375000
s 0
usemtl colormap.001
f 3/1/1 2/2/2 1/1/1
f 2/2/2 3/1/1 4/2/2
f 7/2/3 6/1/4 5/2/3
f 6/1/4 7/2/3 8/1/4
f 11/3/5 10/4/6 9/3/5
f 10/4/6 11/3/5 12/4/6
f 13/5/7 3/1/8 1/1/8
f 3/1/8 13/5/7 14/5/7
f 16/6/2 13/5/2 15/6/2
f 13/5/2 16/6/2 14/5/2
f 18/4/9 11/3/3 17/3/3
f 11/3/3 18/4/9 12/4/9
f 10/4/10 15/6/11 19/4/10
f 15/6/11 10/4/10 16/6/11
f 13/5/12 20/6/12 15/6/12
f 20/6/12 13/5/12 21/5/12
f 19/4/13 17/3/12 22/3/12
f 17/3/12 19/4/13 18/4/13
f 8/1/14 14/5/15 23/5/15
f 14/5/16 8/1/17 3/1/17
f 15/6/18 18/4/19 19/4/19
f 18/4/19 15/6/18 20/6/18
f 8/1/20 21/5/21 6/1/20
f 21/5/21 8/1/22 23/5/21
f 20/6/23 12/4/24 18/4/24
f 12/4/24 20/6/23 24/6/23
f 23/5/5 16/6/5 24/6/5
f 16/6/5 23/5/5 14/5/5
f 23/5/3 20/6/3 21/5/3
f 20/6/3 23/5/3 24/6/3
f 1/1/25 21/5/26 13/5/26
f 21/5/26 1/1/25 6/1/25
f 7/2/5 3/1/27 8/1/27
f 3/1/27 7/2/5 4/2/5
f 2/2/12 6/1/28 1/1/28
f 6/1/28 2/2/12 5/2/12
f 24/6/29 10/4/30 12/4/30
f 10/4/31 24/6/32 16/6/32
f 2/2/33 7/2/33 5/2/33
f 7/2/33 2/2/33 4/2/33
f 9/3/34 17/3/34 11/3/34
f 17/3/34 9/3/34 22/3/34
f 9/3/2 19/4/35 22/3/2
f 19/4/35 9/3/2 10/4/35
f 27/5/36 26/2/37 25/5/36
f 26/2/38 28/5/39 25/5/39
f 29/5/40 28/5/40 26/2/41
f 26/2/42 27/5/43 29/5/43
f 30/7/44 27/5/45 25/5/45
f 27/5/45 30/7/44 31/7/44
f 29/5/46 32/7/47 28/5/46
f 32/7/47 29/5/46 33/7/47
f 25/5/48 32/7/49 30/7/49
f 32/7/49 25/5/48 28/5/48
f 29/5/50 31/7/51 33/7/51
f 31/7/51 29/5/50 27/5/50
f 36/5/36 35/2/37 34/5/36
f 35/2/38 37/5/39 34/5/39
f 38/5/40 37/5/40 35/2/41
f 35/2/42 36/5/43 38/5/43
f 39/7/44 36/5/45 34/5/45
f 36/5/45 39/7/44 40/7/44
f 38/5/46 41/7/47 37/5/46
f 41/7/47 38/5/46 42/7/47
f 34/5/48 41/7/49 39/7/49
f 41/7/49 34/5/48 37/5/48
f 38/5/50 40/7/51 42/7/51
f 40/7/51 38/5/50 36/5/50
f 45/5/36 44/2/37 43/5/36
f 44/2/38 46/5/39 43/5/39
f 47/5/40 46/5/40 44/2/41
f 44/2/42 45/5/43 47/5/43
f 48/7/44 45/5/45 43/5/45
f 45/5/45 48/7/44 49/7/44
f 47/5/46 50/7/47 46/5/46
f 50/7/47 47/5/46 51/7/47
f 43/5/48 50/7/49 48/7/49
f 50/7/49 43/5/48 46/5/48
f 47/5/50 49/7/51 51/7/51
f 49/7/51 47/5/50 45/5/50
f 54/5/36 53/2/37 52/5/36
f 53/2/38 55/5/39 52/5/39
f 56/5/40 55/5/40 53/2/41
f 53/2/42 54/5/43 56/5/43
f 57/7/44 54/5/45 52/5/45
f 54/5/45 57/7/44 58/7/44
f 56/5/46 59/7/47 55/5/46
f 59/7/47 56/5/46 60/7/47
f 52/5/48 59/7/49 57/7/49
f 59/7/49 52/5/48 55/5/48
f 56/5/50 58/7/51 60/7/51
f 58/7/51 56/5/50 54/5/50
f 63/5/36 62/2/37 61/5/36
f 62/2/38 64/5/39 61/5/39
f 65/5/40 64/5/40 62/2/41
f 62/2/42 63/5/43 65/5/43
f 66/7/44 63/5/45 61/5/45
f 63/5/45 66/7/44 67/7/44
f 65/5/46 68/7/47 64/5/46
f 68/7/47 65/5/46 69/7/47
f 61/5/48 68/7/49 66/7/49
f 68/7/49 61/5/48 64/5/48
f 65/5/50 67/7/51 69/7/51
f 67/7/51 65/5/50 63/5/50
f 72/5/36 71/2/37 70/5/36
f 71/2/38 73/5/39 70/5/39
f 74/5/40 73/5/40 71/2/41
f 71/2/42 72/5/43 74/5/43
f 75/7/44 72/5/45 70/5/45
f 72/5/45 75/7/44 76/7/44
f 74/5/46 77/7/47 73/5/46
f 77/7/47 74/5/46 78/7/47
f 70/5/48 77/7/49 75/7/49
f 77/7/49 70/5/48 73/5/48
f 74/5/50 76/7/51 78/7/51
f 76/7/51 74/5/50 72/5/50
f 81/5/36 80/2/37 79/5/36
f 80/2/38 82/5/39 79/5/39
f 83/5/40 82/5/40 80/2/41
f 80/2/42 81/5/43 83/5/43
f 84/7/44 81/5/45 79/5/45
f 81/5/45 84/7/44 85/7/44
f 83/5/46 86/7/47 82/5/46
f 86/7/47 83/5/46 87/7/47
f 79/5/48 86/7/49 84/7/49
f 86/7/49 79/5/48 82/5/48
f 83/5/50 85/7/51 87/7/51
f 85/7/51 83/5/50 81/5/50
f 90/2/33 89/2/33 88/2/33
f 89/2/33 90/2/33 91/2/33
f 89/2/52 93/8/53 92/8/53
f 93/8/53 89/2/52 91/2/52
f 96/8/54 95/3/12 94/3/12
f 95/3/12 96/8/54 97/8/54
f 99/3/34 95/3/34 98/3/34
f 95/3/34 99/3/34 94/3/34
f 88/2/55 95/3/55 97/8/55
f 95/3/3 88/2/3 98/3/3
f 98/3/3 88/2/3 89/2/3
f 98/3/56 89/2/56 92/8/56
f 92/8/57 99/3/5 98/3/5
f 99/3/5 92/8/57 93/8/57
f 90/2/58 97/8/59 96/8/59
f 97/8/59 90/2/58 88/2/58
f 99/3/2 96/8/2 94/3/2
f 96/8/60 99/3/60 90/2/60
f 90/2/2 99/3/2 91/2/2
f 91/2/61 99/3/61 93/8/61
f 33/9/5 101/10/5 100/10/5
f 101/10/5 33/9/5 31/9/5
f 101/10/34 102/10/34 100/10/34
f 102/10/34 101/10/34 103/10/34
f 30/9/12 102/10/12 103/10/12
f 102/10/12 30/9/12 32/9/12
f 101/10/2 30/9/2 103/10/2
f 30/9/2 101/10/2 31/9/2
f 33/9/3 102/10/3 32/9/3
f 102/10/3 33/9/3 100/10/3
f 42/9/5 105/10/5 104/10/5
f 105/10/5 42/9/5 40/9/5
f 105/10/34 106/10/34 104/10/34
f 106/10/34 105/10/34 107/10/34
f 39/9/12 106/10/12 107/10/12
f 106/10/12 39/9/12 41/9/12
f 105/10/2 39/9/2 107/10/2
f 39/9/2 105/10/2 40/9/2
f 42/9/3 106/10/3 41/9/3
f 106/10/3 42/9/3 104/10/3
f 51/9/5 109/10/5 108/10/5
f 109/10/5 51/9/5 49/9/5
f 109/10/34 110/10/34 108/10/34
f 110/10/34 109/10/34 111/10/34
f 48/9/12 110/10/12 111/10/12
f 110/10/12 48/9/12 50/9/12
f 109/10/2 48/9/2 111/10/2
f 48/9/2 109/10/2 49/9/2
f 51/9/3 110/10/3 50/9/3
f 110/10/3 51/9/3 108/10/3
f 60/9/5 113/10/5 112/10/5
f 113/10/5 60/9/5 58/9/5
f 113/10/34 114/10/34 112/10/34
f 114/10/34 113/10/34 115/10/34
f 57/9/12 114/10/12 115/10/12
f 114/10/12 57/9/12 59/9/12
f 113/10/2 57/9/2 115/10/2
f 57/9/2 113/10/2 58/9/2
f 60/9/3 114/10/3 59/9/3
f 114/10/3 60/9/3 112/10/3
f 69/9/5 117/10/5 116/10/5
f 117/10/5 69/9/5 67/9/5
f 117/10/34 118/10/34 116/10/34
f 118/10/34 117/10/34 119/10/34
f 66/9/12 118/10/12 119/10/12
f 118/10/12 66/9/12 68/9/12
f 117/10/2 66/9/2 119/10/2
f 66/9/2 117/10/2 67/9/2
f 69/9/3 118/10/3 68/9/3
f 118/10/3 69/9/3 116/10/3
f 78/9/5 121/10/5 120/10/5
f 121/10/5 78/9/5 76/9/5
f 121/10/34 122/10/34 120/10/34
f 122/10/34 121/10/34 123/10/34
f 75/9/12 122/10/12 123/10/12
f 122/10/12 75/9/12 77/9/12
f 121/10/2 75/9/2 123/10/2
f 75/9/2 121/10/2 76/9/2
f 78/9/3 122/10/3 77/9/3
f 122/10/3 78/9/3 120/10/3
f 87/9/5 125/10/5 124/10/5
f 125/10/5 87/9/5 85/9/5
f 125/10/34 126/10/34 124/10/34
f 126/10/34 125/10/34 127/10/34
f 84/9/12 126/10/12 127/10/12
f 126/10/12 84/9/12 86/9/12
f 125/10/2 84/9/2 127/10/2
f 84/9/2 125/10/2 85/9/2
f 87/9/3 126/10/3 86/9/3
f 126/10/3 87/9/3 124/10/3
f 130/11/3 129/11/3 128/11/3
f 129/11/3 130/11/3 131/11/3
f 134/11/2 133/11/2 132/11/2
f 133/11/2 134/11/2 135/11/2
f 130/11/5 134/11/5 131/11/5
f 134/11/5 130/11/5 135/11/5
f 134/11/34 129/11/34 131/11/34
f 129/11/34 134/11/34 132/11/34
f 133/11/33 130/11/33 128/11/33
f 130/11/33 133/11/33 135/11/33
f 133/11/12 129/11/12 132/11/12
f 129/11/12 133/11/12 128/11/12
f 138/11/2 137/11/2 136/11/2
f 137/11/2 138/11/2 139/11/2
f 142/11/3 141/11/3 140/11/3
f 141/11/3 142/11/3 143/11/3
f 137/11/33 142/11/33 140/11/33
f 142/11/33 137/11/33 139/11/33
f 137/11/12 141/11/12 136/11/12
f 141/11/12 137/11/12 140/11/12
f 138/11/34 141/11/34 143/11/34
f 141/11/34 138/11/34 136/11/34
f 142/11/5 138/11/5 143/11/5
f 138/11/5 142/11/5 139/11/5
f 3/1/1 2/2/2 1/1/1
f 2/2/2 3/1/1 4/2/2
f 7/2/3 6/1/4 5/2/3
f 6/1/4 7/2/3 8/1/4
f 11/3/5 10/4/6 9/3/5
f 10/4/6 11/3/5 12/4/6
f 13/5/7 3/1/8 1/1/8
f 3/1/8 13/5/7 14/5/7
f 16/6/2 13/5/2 15/6/2
f 13/5/2 16/6/2 14/5/2
f 18/4/9 11/3/3 17/3/3
f 11/3/3 18/4/9 12/4/9
f 10/4/10 15/6/11 19/4/10
f 15/6/11 10/4/10 16/6/11
f 13/5/12 20/6/12 15/6/12
f 20/6/12 13/5/12 21/5/12
f 19/4/13 17/3/12 22/3/12
f 17/3/12 19/4/13 18/4/13
f 8/1/14 14/5/15 23/5/15
f 14/5/16 8/1/17 3/1/17
f 15/6/18 18/4/19 19/4/19
f 18/4/19 15/6/18 20/6/18
f 8/1/20 21/5/21 6/1/20
f 21/5/21 8/1/22 23/5/21
f 20/6/23 12/4/24 18/4/24
f 12/4/24 20/6/23 24/6/23
f 23/5/5 16/6/5 24/6/5
f 16/6/5 23/5/5 14/5/5
f 23/5/3 20/6/3 21/5/3
f 20/6/3 23/5/3 24/6/3
f 1/1/25 21/5/26 13/5/26
f 21/5/26 1/1/25 6/1/25
f 7/2/5 3/1/27 8/1/27
f 3/1/27 7/2/5 4/2/5
f 2/2/12 6/1/28 1/1/28
f 6/1/28 2/2/12 5/2/12
f 24/6/29 10/4/30 12/4/30
f 10/4/31 24/6/32 16/6/32
f 2/2/33 7/2/33 5/2/33
f 7/2/33 2/2/33 4/2/33
f 9/3/34 17/3/34 11/3/34
f 17/3/34 9/3/34 22/3/34
f 9/3/2 19/4/35 22/3/2
f 19/4/35 9/3/2 10/4/35
f 27/5/36 26/2/37 25/5/36
f 26/2/38 28/5/39 25/5/39
f 29/5/40 28/5/40 26/2/41
f 26/2/42 27/5/43 29/5/43
f 30/7/44 27/5/45 25/5/45
f 27/5/45 30/7/44 31/7/44
f 29/5/46 32/7/47 28/5/46
f 32/7/47 29/5/46 33/7/47
f 25/5/48 32/7/49 30/7/49
f 32/7/49 25/5/48 28/5/48
f 29/5/50 31/7/51 33/7/51
f 31/7/51 29/5/50 27/5/50
f 36/5/36 35/2/37 34/5/36
f 35/2/38 37/5/39 34/5/39
f 38/5/40 37/5/40 35/2/41
f 35/2/42 36/5/43 38/5/43
f 39/7/44 36/5/45 34/5/45
f 36/5/45 39/7/44 40/7/44
f 38/5/46 41/7/47 37/5/46
f 41/7/47 38/5/46 42/7/47
f 34/5/48 41/7/49 39/7/49
f 41/7/49 34/5/48 37/5/48
f 38/5/50 40/7/51 42/7/51
f 40/7/51 38/5/50 36/5/50
f 45/5/36 44/2/37 43/5/36
f 44/2/38 46/5/39 43/5/39
f 47/5/40 46/5/40 44/2/41
f 44/2/42 45/5/43 47/5/43
f 48/7/44 45/5/45 43/5/45
f 45/5/45 48/7/44 49/7/44
f 47/5/46 50/7/47 46/5/46
f 50/7/47 47/5/46 51/7/47
f 43/5/48 50/7/49 48/7/49
f 50/7/49 43/5/48 46/5/48
f 47/5/50 49/7/51 51/7/51
f 49/7/51 47/5/50 45/5/50
f 54/5/36 53/2/37 52/5/36
f 53/2/38 55/5/39 52/5/39
f 56/5/40 55/5/40 53/2/41
f 53/2/42 54/5/43 56/5/43
f 57/7/44 54/5/45 52/5/45
f 54/5/45 57/7/44 58/7/44
f 56/5/46 59/7/47 55/5/46
f 59/7/47 56/5/46 60/7/47
f 52/5/48 59/7/49 57/7/49
f 59/7/49 52/5/48 55/5/48
f 56/5/50 58/7/51 60/7/51
f 58/7/51 56/5/50 54/5/50
f 63/5/36 62/2/37 61/5/36
f 62/2/38 64/5/39 61/5/39
f 65/5/40 64/5/40 62/2/41
f 62/2/42 63/5/43 65/5/43
f 66/7/44 63/5/45 61/5/45
f 63/5/45 66/7/44 67/7/44
f 65/5/46 68/7/47 64/5/46
f 68/7/47 65/5/46 69/7/47
f 61/5/48 68/7/49 66/7/49
f 68/7/49 61/5/48 64/5/48
f 65/5/50 67/7/51 69/7/51
f 67/7/51 65/5/50 63/5/50
f 72/5/36 71/2/37 70/5/36
f 71/2/38 73/5/39 70/5/39
f 74/5/40 73/5/40 71/2/41
f 71/2/42 72/5/43 74/5/43
f 75/7/44 72/5/45 70/5/45
f 72/5/45 75/7/44 76/7/44
f 74/5/46 77/7/47 73/5/46
f 77/7/47 74/5/46 78/7/47
f 70/5/48 77/7/49 75/7/49
f 77/7/49 70/5/48 73/5/48
f 74/5/50 76/7/51 78/7/51
f 76/7/51 74/5/50 72/5/50
f 81/5/36 80/2/37 79/5/36
f 80/2/38 82/5/39 79/5/39
f 83/5/40 82/5/40 80/2/41
f 80/2/42 81/5/43 83/5/43
f 84/7/44 81/5/45 79/5/45
f 81/5/45 84/7/44 85/7/44
f 83/5/46 86/7/47 82/5/46
f 86/7/47 83/5/46 87/7/47
f 79/5/48 86/7/49 84/7/49
f 86/7/49 79/5/48 82/5/48
f 83/5/50 85/7/51 87/7/51
f 85/7/51 83/5/50 81/5/50
f 90/2/33 89/2/33 88/2/33
f 89/2/33 90/2/33 91/2/33
f 89/2/52 93/8/53 92/8/53
f 93/8/53 89/2/52 91/2/52
f 96/8/54 95/3/12 94/3/12
f 95/3/12 96/8/54 97/8/54
f 99/3/34 95/3/34 98/3/34
f 95/3/34 99/3/34 94/3/34
f 88/2/55 95/3/55 97/8/55
f 95/3/3 88/2/3 98/3/3
f 98/3/3 88/2/3 89/2/3
f 98/3/56 89/2/56 92/8/56
f 92/8/57 99/3/5 98/3/5
f 99/3/5 92/8/57 93/8/57
f 90/2/58 97/8/59 96/8/59
f 97/8/59 90/2/58 88/2/58
f 99/3/2 96/8/2 94/3/2
f 96/8/60 99/3/60 90/2/60
f 90/2/2 99/3/2 91/2/2
f 91/2/61 99/3/61 93/8/61
f 33/9/5 101/10/5 100/10/5
f 101/10/5 33/9/5 31/9/5
f 101/10/34 102/10/34 100/10/34
f 102/10/34 101/10/34 103/10/34
f 30/9/12 102/10/12 103/10/12
f 102/10/12 30/9/12 32/9/12
f 101/10/2 30/9/2 103/10/2
f 30/9/2 101/10/2 31/9/2
f 33/9/3 102/10/3 32/9/3
f 102/10/3 33/9/3 100/10/3
f 42/9/5 105/10/5 104/10/5
f 105/10/5 42/9/5 40/9/5
f 105/10/34 106/10/34 104/10/34
f 106/10/34 105/10/34 107/10/34
f 39/9/12 106/10/12 107/10/12
f 106/10/12 39/9/12 41/9/12
f 105/10/2 39/9/2 107/10/2
f 39/9/2 105/10/2 40/9/2
f 42/9/3 106/10/3 41/9/3
f 106/10/3 42/9/3 104/10/3
f 51/9/5 109/10/5 108/10/5
f 109/10/5 51/9/5 49/9/5
f 109/10/34 110/10/34 108/10/34
f 110/10/34 109/10/34 111/10/34
f 48/9/12 110/10/12 111/10/12
f 110/10/12 48/9/12 50/9/12
f 109/10/2 48/9/2 111/10/2
f 48/9/2 109/10/2 49/9/2
f 51/9/3 110/10/3 50/9/3
f 110/10/3 51/9/3 108/10/3
f 60/9/5 113/10/5 112/10/5
f 113/10/5 60/9/5 58/9/5
f 113/10/34 114/10/34 112/10/34
f 114/10/34 113/10/34 115/10/34
f 57/9/12 114/10/12 115/10/12
f 114/10/12 57/9/12 59/9/12
f 113/10/2 57/9/2 115/10/2
f 57/9/2 113/10/2 58/9/2
f 60/9/3 114/10/3 59/9/3
f 114/10/3 60/9/3 112/10/3
f 69/9/5 117/10/5 116/10/5
f 117/10/5 69/9/5 67/9/5
f 117/10/34 118/10/34 116/10/34
f 118/10/34 117/10/34 119/10/34
f 66/9/12 118/10/12 119/10/12
f 118/10/12 66/9/12 68/9/12
f 117/10/2 66/9/2 119/10/2
f 66/9/2 117/10/2 67/9/2
f 69/9/3 118/10/3 68/9/3
f 118/10/3 69/9/3 116/10/3
f 78/9/5 121/10/5 120/10/5
f 121/10/5 78/9/5 76/9/5
f 121/10/34 122/10/34 120/10/34
f 122/10/34 121/10/34 123/10/34
f 75/9/12 122/10/12 123/10/12
f 122/10/12 75/9/12 77/9/12
f 121/10/2 75/9/2 123/10/2
f 75/9/2 121/10/2 76/9/2
f 78/9/3 122/10/3 77/9/3
f 122/10/3 78/9/3 120/10/3
f 87/9/5 125/10/5 124/10/5
f 125/10/5 87/9/5 85/9/5
f 125/10/34 126/10/34 124/10/34
f 126/10/34 125/10/34 127/10/34
f 84/9/12 126/10/12 127/10/12
f 126/10/12 84/9/12 86/9/12
f 125/10/2 84/9/2 127/10/2
f 84/9/2 125/10/2 85/9/2
f 87/9/3 126/10/3 86/9/3
f 126/10/3 87/9/3 124/10/3
f 130/11/3 129/11/3 128/11/3
f 129/11/3 130/11/3 131/11/3
f 134/11/2 133/11/2 132/11/2
f 133/11/2 134/11/2 135/11/2
f 130/11/5 134/11/5 131/11/5
f 134/11/5 130/11/5 135/11/5
f 134/11/34 129/11/34 131/11/34
f 129/11/34 134/11/34 132/11/34
f 133/11/33 130/11/33 128/11/33
f 130/11/33 133/11/33 135/11/33
f 133/11/12 129/11/12 132/11/12
f 129/11/12 133/11/12 128/11/12
f 138/11/2 137/11/2 136/11/2
f 137/11/2 138/11/2 139/11/2
f 142/11/3 141/11/3 140/11/3
f 141/11/3 142/11/3 143/11/3
f 137/11/33 142/11/33 140/11/33
f 142/11/33 137/11/33 139/11/33
f 137/11/12 141/11/12 136/11/12
f 141/11/12 137/11/12 140/11/12
f 138/11/34 141/11/34 143/11/34
f 141/11/34 138/11/34 136/11/34
f 142/11/5 138/11/5 143/11/5
f 138/11/5 142/11/5 139/11/5
