# Blender 4.1.1
# www.blender.org
mtllib tree.037.mtl
o tree.037
v -14.559933 -0.282319 -11.247308
v -14.399281 -0.282319 -11.331889
v -14.682549 -0.282319 -11.285342
v -14.361246 -0.282319 -11.454507
v -14.767133 -0.282319 -11.445993
v -14.445829 -0.282319 -11.615159
v -14.729098 -0.282319 -11.568611
v -14.568446 -0.282319 -11.653193
v -14.481736 0.046402 -11.391070
v -14.562061 0.046402 -11.348779
v -14.623369 0.046402 -11.367796
v -14.462718 0.046402 -11.452379
v -14.505010 0.046402 -11.532704
v -14.566318 0.046402 -11.551723
v -14.646643 0.046402 -11.509431
v -14.665661 0.046402 -11.448122
v -14.566850 0.539521 -11.577089
v -14.667256 0.539521 -11.524226
v -14.691030 0.539521 -11.447591
v -14.461121 0.539521 -11.376275
v -14.561529 0.539521 -11.323411
v -14.490214 0.539521 -11.553318
v -14.437349 0.539521 -11.452910
v -14.638165 0.539521 -11.347183
v -14.455023 0.163768 -11.338152
v -14.525957 0.163768 -11.331613
v -14.409489 0.163768 -11.392934
v -14.416027 0.163768 -11.463868
v -14.580739 0.163768 -11.377148
v -14.470809 0.163768 -11.509402
v -14.587277 0.163768 -11.448082
v -14.541743 0.163768 -11.502864
v -14.430464 0.044485 -11.291504
v -14.359138 0.044485 -11.377315
v -14.541575 0.044485 -11.281261
v -14.627386 0.044485 -11.352588
v -14.369379 0.044485 -11.488427
v -14.637630 0.044485 -11.463700
v -14.455191 0.044485 -11.559753
v -14.566302 0.044485 -11.549511
v -14.809448 0.539521 -11.075580
v -15.020090 0.539521 -11.475659
v -14.710575 1.083027 -11.232387
v -14.834853 1.083027 -11.468435
v -14.116491 0.539521 -11.440418
v -14.357651 0.539521 -11.057960
v -14.301726 1.083027 -11.447642
v -14.444012 1.083027 -11.221991
v -14.327131 0.539521 -11.840498
v -14.426004 1.083027 -11.683692
v -14.692568 1.083027 -11.694088
v -14.778930 0.539521 -11.858119
v -14.446835 1.666943 -11.227352
v -14.707342 1.666943 -11.237513
v -14.540373 2.279410 -11.405016
v -14.600251 2.279410 -11.407351
v -14.596206 2.279410 -11.511062
v -14.628166 2.279410 -11.460374
v -14.689745 1.666943 -11.688725
v -14.828797 1.666943 -11.468199
v -14.429237 1.666943 -11.678566
v -14.307782 1.666943 -11.447879
v -14.536329 2.279410 -11.508727
v -14.508413 2.279410 -11.455704
v -14.257347 1.083027 -11.261975
v -14.582616 1.083027 -11.090723
v -14.425812 1.666943 -11.368200
v -14.574854 1.666943 -11.289731
v -14.243022 1.083027 -11.629291
v -14.419249 1.666943 -11.536509
v -14.893558 1.083027 -11.286787
v -14.717331 1.666943 -11.379569
v -14.879232 1.083027 -11.654103
v -14.710768 1.666943 -11.547878
v -14.553965 1.083027 -11.825355
v -14.561727 1.666943 -11.626347
v -14.990994 0.369968 -11.235487
v -15.069787 0.454744 -11.477597
v -14.835978 0.454744 -11.033509
v -14.300603 0.454744 -11.882568
v -14.549673 0.369968 -11.935388
v -14.802100 0.454744 -11.902127
v -14.972378 0.369968 -11.712836
v -14.334479 0.454744 -11.013950
v -14.586907 0.369968 -10.980690
v -14.145586 0.369968 -11.680591
v -14.066792 0.454744 -11.438480
v -14.164202 0.369968 -11.203242
v -14.361137 0.945179 -11.786566
v -14.207243 1.014103 -11.648129
v -14.552389 1.014103 -11.865760
v -14.223145 1.014103 -11.240407
v -14.387354 0.945179 -11.114377
v -14.584191 1.014103 -11.050318
v -14.956379 0.945179 -11.473174
v -14.913436 1.014103 -11.675671
v -14.929337 1.014103 -11.267949
v -14.749227 0.945179 -11.801702
v -14.775442 0.945179 -11.129513
v -14.180202 0.945179 -11.442904
v -14.413941 1.618061 -11.702824
v -14.557555 1.569178 -11.733279
v -14.703106 1.618061 -11.714101
v -14.801288 1.569178 -11.604955
v -14.857454 1.618061 -11.469316
v -14.279125 1.618061 -11.446761
v -14.335293 1.569178 -11.311123
v -14.433475 1.618061 -11.201977
v -14.812021 1.569178 -11.329716
v -14.722639 1.618061 -11.213254
v -14.324558 1.569178 -11.586362
v -14.579024 1.569178 -11.182798
vn -0.0000 -1.0000 -0.0000
vn 0.7315 0.2942 0.6151
vn 0.0834 0.2944 0.9520
vn 0.7377 0.2944 0.6075
vn 0.7315 0.2942 0.6152
vn 0.0932 0.2942 0.9512
vn -0.6151 0.2942 0.7315
vn 0.0833 0.2944 0.9520
vn 0.0931 0.2942 0.9512
vn -0.6075 0.2944 0.7378
vn 0.9512 0.2942 -0.0931
vn 0.9520 0.2944 -0.0833
vn 0.7378 0.2944 0.6075
vn 0.6151 0.2942 -0.7315
vn 0.9520 0.2944 -0.0834
vn 0.6075 0.2944 -0.7377
vn 0.9512 0.2942 -0.0933
vn -0.7377 0.2944 -0.6075
vn -0.0932 0.2942 -0.9512
vn -0.0834 0.2944 -0.9520
vn -0.7315 0.2942 -0.6151
vn -0.9520 0.2944 0.0834
vn -0.6075 0.2944 0.7377
vn -0.6152 0.2942 0.7315
vn -0.9512 0.2942 0.0932
vn -0.0833 0.2944 -0.9520
vn 0.6151 0.2943 -0.7315
vn 0.6075 0.2944 -0.7378
vn -0.0931 0.2942 -0.9512
vn -0.9512 0.2942 0.0931
vn -0.7378 0.2944 -0.6075
vn -0.9520 0.2944 0.0833
vn -0.0926 -0.0513 -0.9944
vn -0.7685 -0.0512 -0.6377
vn -0.0908 -0.0513 -0.9945
vn -0.7686 -0.0513 -0.6377
vn -0.7674 -0.0513 -0.6391
vn -0.9944 -0.0512 0.0926
vn -0.7675 -0.0512 -0.6390
vn -0.9944 -0.0513 0.0925
vn -0.9946 -0.0512 0.0908
vn 0.0908 -0.0512 0.9945
vn 0.7674 -0.0513 0.6391
vn 0.7685 -0.0513 0.6377
vn 0.0909 -0.0512 0.9945
vn 0.0926 -0.0513 0.9944
vn 0.6377 -0.0513 -0.7685
vn 0.9944 -0.0513 -0.0926
vn 0.6391 -0.0513 -0.7674
vn 0.6377 -0.0512 -0.7686
vn 0.9945 -0.0513 -0.0909
vn 0.0908 -0.0513 0.9945
vn -0.6391 -0.0513 0.7675
vn -0.6391 -0.0513 0.7674
vn 0.0908 -0.0512 0.9946
vn -0.6377 -0.0513 0.7686
vn 0.6391 -0.0513 -0.7675
vn -0.0908 -0.0512 -0.9946
vn 0.6377 -0.0513 -0.7686
vn -0.0925 -0.0512 -0.9944
vn 0.7686 -0.0513 0.6377
vn 0.9944 -0.0513 -0.0925
vn 0.9946 -0.0512 -0.0908
vn 0.9944 -0.0512 -0.0926
vn 0.7675 -0.0512 0.6390
vn -0.6377 -0.0513 0.7685
vn -0.9944 -0.0513 0.0926
vn -0.6377 -0.0512 0.7685
vn -0.9945 -0.0513 0.0908
vn -0.0000 1.0000 -0.0000
vn 0.8736 0.4042 0.2710
vn 0.4261 0.4042 0.8093
vn 0.4261 0.4043 0.8093
vn -0.8094 0.4042 0.4261
vn -0.8736 0.4042 -0.2710
vn -0.8736 0.4042 -0.2709
vn -0.8093 0.4042 0.4261
vn -0.8736 0.4043 -0.2709
vn -0.4262 0.4042 -0.8093
vn -0.4261 0.4043 -0.8093
vn -0.4261 0.4042 -0.8093
vn 0.8094 0.4042 -0.4261
vn 0.8736 0.4043 0.2710
vn -0.2710 0.4042 0.8736
vn -0.8093 0.4042 0.4262
vn -0.8093 0.4043 0.4261
vn 0.2710 0.4042 -0.8736
vn 0.8093 0.4042 -0.4261
vn 0.8093 0.4043 -0.4261
vn 0.4261 0.4042 0.8094
vn -0.4261 0.4042 -0.8094
vn 0.2709 0.4042 -0.8736
vn -0.5048 0.3228 0.8006
vn -0.9458 0.3228 -0.0369
vn 0.9457 0.3228 0.0369
vn 0.4409 0.3228 0.8375
vn 0.9458 0.3228 0.0369
vn 0.5048 0.3228 -0.8006
vn -0.4409 0.3228 -0.8375
vn -0.9457 0.3228 -0.0369
vn 0.3204 0.7260 0.6085
vn -0.5068 0.3115 0.8038
vn 0.4427 0.3115 0.8408
vn -0.3669 0.7260 0.5817
vn -0.4427 0.3115 -0.8408
vn -0.6872 0.7260 -0.0268
vn -0.3204 0.7260 -0.6086
vn -0.9495 0.3115 -0.0370
vn 0.3668 0.7260 -0.5817
vn 0.9495 0.3115 0.0370
vn 0.5069 0.3115 -0.8038
vn 0.3668 0.7260 -0.5818
vn 0.6872 0.7260 0.0269
vn 0.6872 0.7260 0.0268
vn 0.6872 0.7260 0.0267
vn 0.3204 0.7260 0.6086
vn 0.6872 0.7259 0.0268
vn -0.3668 0.7259 0.5818
vn 0.3204 0.7259 0.6086
vn -0.3668 0.7259 0.5817
vn -0.6872 0.7259 -0.0268
vn 0.3668 0.7259 -0.5817
vn 0.3668 0.7259 -0.5818
vn -0.3204 0.7259 -0.6086
vn -0.4427 0.3116 -0.8408
vn 0.5068 0.3115 -0.8038
vn -0.3204 0.7260 -0.6085
vn -0.3668 0.7260 0.5818
vn -0.5069 0.3115 0.8038
vn -0.6872 0.7260 -0.0269
vn 0.8006 0.3228 0.5048
vn -0.0369 0.3228 0.9457
vn -0.0369 0.3228 0.9458
vn 0.8375 0.3228 -0.4409
vn -0.8375 0.3228 0.4409
vn -0.8375 0.3228 0.4410
vn -0.8006 0.3228 -0.5048
vn 0.0369 0.3228 -0.9457
vn 0.8375 0.3228 -0.4410
vn 0.0369 0.3228 -0.9458
vn -0.4600 0.5060 0.7296
vn -0.8619 0.5060 -0.0336
vn -0.7889 0.4530 0.4153
vn 0.7889 -0.4529 -0.4153
vn 0.8619 -0.5060 0.0336
vn 0.4600 -0.5060 -0.7296
vn 0.0347 0.4530 -0.8909
vn 0.4600 0.5060 -0.7296
vn -0.4018 0.5060 -0.7632
vn 0.0347 0.4529 -0.8909
vn -0.4600 -0.5060 0.7296
vn -0.0347 -0.4530 0.8909
vn 0.4018 -0.5060 0.7632
vn -0.4601 -0.5060 0.7296
vn -0.0347 -0.4529 0.8909
vn -0.7541 0.4530 -0.4755
vn 0.7541 -0.4530 0.4755
vn 0.4018 0.5060 0.7632
vn -0.0347 0.4530 0.8908
vn -0.0347 0.4530 0.8909
vn -0.4600 0.5061 0.7296
vn -0.4018 -0.5060 -0.7632
vn 0.0347 -0.4530 -0.8908
vn 0.4601 -0.5060 -0.7296
vn 0.0347 -0.4529 -0.8909
vn 0.8619 0.5060 0.0336
vn 0.7889 0.4530 -0.4153
vn -0.7889 -0.4530 0.4153
vn -0.8619 -0.5060 -0.0336
vn 0.7541 0.4530 0.4755
vn 0.4018 0.5061 0.7632
vn -0.7541 -0.4530 -0.4755
vn 0.0336 0.5060 -0.8619
vn 0.7632 0.5060 -0.4018
vn 0.4755 0.4529 -0.7541
vn -0.4755 -0.4529 0.7541
vn -0.7632 -0.5060 0.4018
vn -0.0336 -0.5060 0.8619
vn -0.0336 -0.5061 0.8618
vn 0.7296 0.5060 0.4600
vn 0.4153 0.4530 0.7889
vn 0.7296 0.5060 0.4601
vn -0.0336 0.5060 0.8619
vn -0.0336 0.5061 0.8618
vn -0.7296 -0.5060 -0.4600
vn -0.4153 -0.4530 -0.7889
vn 0.0336 -0.5060 -0.8619
vn -0.7632 0.5060 0.4018
vn -0.7296 0.5061 -0.4600
vn -0.8908 0.4530 -0.0347
vn -0.7296 0.5060 -0.4600
vn -0.7296 0.5060 -0.4601
vn 0.8908 -0.4530 0.0347
vn 0.7296 -0.5060 0.4600
vn 0.7632 -0.5060 -0.4018
vn 0.7296 -0.5060 0.4601
vn -0.4153 0.4530 -0.7889
vn 0.0336 0.5061 -0.8618
vn 0.4153 -0.4530 0.7889
vn 0.4154 -0.4530 0.7889
vn 0.7296 -0.5061 0.4600
vn -0.4755 0.4530 0.7541
vn 0.4755 -0.4530 -0.7541
vn 0.8909 0.4530 0.0347
vn -0.8909 -0.4530 -0.0347
vn -0.7296 -0.5060 -0.4601
vn 0.4600 0.5061 -0.7296
vn -0.7541 0.4529 -0.4755
vn -0.8618 0.5061 -0.0336
vn 0.7541 -0.4529 0.4755
vn 0.8618 -0.5061 0.0336
vn -0.8618 -0.5061 -0.0336
vn -0.7889 0.4529 0.4153
vn 0.4601 0.5060 -0.7296
vn 0.7889 0.4529 -0.4153
vn -0.7889 -0.4529 0.4153
vn -0.4600 -0.5061 0.7296
vn -0.0347 0.4529 0.8909
vt 0.593750 0.025000
vt 0.593750 0.104996
vt 0.593750 0.225000
vt 0.093750 0.475000
vt 0.093750 0.275000
vt 0.093750 0.425000
vt 0.093750 0.348778
vt 0.093750 0.338765
vt 0.093750 0.344099
vt 0.093750 0.375000
vt 0.093750 0.325000
s 0
usemtl colormap.002
f 3/1/1 2/1/1 1/1/1
f 2/1/1 3/1/1 4/1/1
f 4/1/1 3/1/1 5/1/1
f 4/1/1 5/1/1 6/1/1
f 6/1/1 5/1/1 7/1/1
f 6/1/1 7/1/1 8/1/1
f 9/2/2 1/1/3 2/1/4
f 1/1/3 9/2/5 10/2/6
f 11/2/7 1/1/8 10/2/9
f 1/1/8 11/2/7 3/1/10
f 12/2/11 2/1/4 4/1/12
f 2/1/13 12/2/11 9/2/2
f 13/2/14 4/1/15 6/1/16
f 4/1/15 13/2/14 12/2/17
f 7/1/18 14/2/19 8/1/20
f 14/2/19 7/1/18 15/2/21
f 11/2/7 5/1/22 3/1/23
f 5/1/22 11/2/24 16/2/25
f 8/1/26 13/2/27 6/1/28
f 13/2/14 8/1/26 14/2/29
f 7/1/18 16/2/30 15/2/21
f 16/2/30 7/1/31 5/1/32
f 14/2/33 18/3/34 17/3/35
f 18/3/36 14/2/33 15/2/37
f 16/2/38 18/3/36 15/2/39
f 18/3/36 16/2/40 19/3/41
f 21/3/42 9/2/43 20/3/44
f 9/2/43 21/3/45 10/2/46
f 22/3/47 12/2/48 13/2/49
f 12/2/48 22/3/50 23/3/51
f 21/3/52 11/2/53 10/2/46
f 11/2/54 21/3/55 24/3/56
f 13/2/57 17/3/58 22/3/59
f 17/3/35 13/2/49 14/2/60
f 20/3/61 12/2/62 23/3/63
f 12/2/64 20/3/61 9/2/65
f 24/3/66 16/2/67 11/2/54
f 16/2/67 24/3/68 19/3/69
f 27/4/70 26/4/70 25/4/70
f 26/4/70 27/4/70 28/4/70
f 26/4/70 28/4/70 29/4/70
f 29/4/70 28/4/70 30/4/70
f 29/4/70 30/4/70 31/4/70
f 31/4/70 30/4/70 32/4/70
f 35/5/1 34/5/1 33/5/1
f 34/5/1 35/5/1 36/5/1
f 34/5/1 36/5/1 37/5/1
f 37/5/1 36/5/1 38/5/1
f 37/5/1 38/5/1 39/5/1
f 39/5/1 38/5/1 40/5/1
f 27/4/71 33/5/72 34/5/71
f 33/5/72 27/4/71 25/4/73
f 29/4/74 38/5/75 36/5/74
f 38/5/76 29/4/77 31/4/78
f 40/5/79 31/4/75 32/4/80
f 31/4/75 40/5/81 38/5/75
f 28/4/82 34/5/71 37/5/82
f 34/5/71 28/4/82 27/4/83
f 26/4/84 36/5/77 35/5/84
f 36/5/85 26/4/84 29/4/86
f 30/4/87 37/5/88 39/5/87
f 37/5/88 30/4/87 28/4/89
f 26/4/84 33/5/73 25/4/72
f 33/5/90 26/4/84 35/5/84
f 40/5/91 30/4/92 39/5/87
f 30/4/87 40/5/80 32/4/91
f 43/6/93 42/7/94 41/7/93
f 42/7/94 43/6/93 44/6/94
f 47/6/95 46/7/96 45/7/95
f 46/7/96 47/6/97 48/6/96
f 50/6/98 45/7/97 49/7/98
f 45/7/97 50/6/98 47/6/97
f 48/6/96 41/7/93 46/7/96
f 41/7/93 48/6/96 43/6/93
f 52/7/99 44/6/94 51/6/99
f 44/6/100 52/7/99 42/7/100
f 52/7/99 50/6/98 49/7/98
f 50/6/98 52/7/99 51/6/99
f 41/7/1 45/7/1 46/7/1
f 45/7/1 41/7/1 42/7/1
f 45/7/1 42/7/1 49/7/1
f 49/7/1 42/7/1 52/7/1
f 55/6/101 54/8/102 53/8/103
f 54/8/102 55/6/101 56/6/104
f 59/8/105 58/6/106 57/6/107
f 58/6/106 59/8/105 60/8/108
f 63/6/109 62/8/110 61/8/111
f 62/8/110 63/6/112 64/6/113
f 64/6/114 53/8/103 62/8/110
f 53/8/103 64/6/115 55/6/116
f 64/6/117 56/6/118 55/6/119
f 56/6/120 64/6/117 58/6/121
f 58/6/121 64/6/117 63/6/122
f 58/6/121 63/6/123 57/6/124
f 59/8/125 63/6/109 61/8/126
f 63/6/109 59/8/105 57/6/127
f 54/8/1 62/8/1 53/8/1
f 62/8/1 54/8/1 60/8/1
f 62/8/1 60/8/1 61/8/1
f 61/8/1 60/8/1 59/8/1
f 56/6/128 60/8/108 54/8/129
f 60/8/108 56/6/128 58/6/130
f 67/6/131 66/9/132 65/9/131
f 66/9/132 67/6/131 68/6/133
f 70/6/134 65/9/131 69/9/134
f 65/9/131 70/6/134 67/6/131
f 68/6/132 71/9/135 66/9/132
f 71/9/136 68/6/133 72/6/136
f 72/6/135 73/9/137 71/9/135
f 73/9/137 72/6/135 74/6/137
f 71/9/1 65/9/1 66/9/1
f 65/9/1 71/9/1 69/9/1
f 69/9/1 71/9/1 73/9/1
f 69/9/1 73/9/1 75/9/1
f 76/6/138 69/9/134 75/9/138
f 69/9/139 76/6/140 70/6/139
f 73/9/137 76/6/138 75/9/138
f 76/6/138 73/9/137 74/6/137
f 79/10/141 78/10/142 77/11/143
f 78/10/142 79/10/141 41/6/141
f 78/10/142 41/6/141 42/6/142
f 77/11/144 78/10/145 79/10/146
f 41/6/146 79/10/146 78/10/145
f 42/6/145 41/6/146 78/10/145
f 81/11/147 49/6/148 80/10/148
f 49/6/148 81/11/147 52/6/149
f 52/6/149 81/11/150 82/10/149
f 80/10/151 49/6/151 81/11/152
f 52/6/153 81/11/152 49/6/154
f 82/10/153 81/11/155 52/6/153
f 82/10/149 42/6/142 52/6/149
f 42/6/142 82/10/149 83/11/156
f 42/6/142 83/11/156 78/10/142
f 52/6/153 42/6/145 82/10/153
f 83/11/157 82/10/153 42/6/145
f 78/10/145 83/11/157 42/6/145
f 46/6/158 85/11/159 84/10/158
f 85/11/160 46/6/158 41/6/141
f 85/11/159 41/6/161 79/10/141
f 84/10/162 85/11/163 46/6/162
f 41/6/164 46/6/162 85/11/165
f 79/10/146 41/6/146 85/11/163
f 80/10/148 87/10/166 86/11/167
f 87/10/166 80/10/148 49/6/148
f 87/10/166 49/6/148 45/6/166
f 86/11/168 87/10/169 80/10/151
f 49/6/151 80/10/151 87/10/169
f 45/6/169 49/6/151 87/10/169
f 45/6/166 88/11/170 87/10/166
f 88/11/170 45/6/166 46/6/158
f 88/11/170 46/6/171 84/10/158
f 87/10/169 88/11/172 45/6/169
f 46/6/162 45/6/169 88/11/172
f 84/10/162 46/6/162 88/11/172
f 91/10/173 90/10/174 89/11/175
f 90/10/174 91/10/173 75/6/173
f 90/10/174 75/6/173 69/6/174
f 89/11/176 90/10/177 91/10/178
f 75/6/178 91/10/178 90/10/177
f 69/6/177 75/6/179 90/10/177
f 65/6/180 93/11/181 92/10/182
f 93/11/181 65/6/182 66/6/183
f 93/11/181 66/6/184 94/10/183
f 92/10/185 93/11/186 65/6/185
f 66/6/187 65/6/185 93/11/186
f 94/10/187 66/6/187 93/11/186
f 97/10/188 96/10/189 95/11/190
f 96/10/191 97/10/188 71/6/188
f 96/10/192 71/6/188 73/6/192
f 95/11/193 96/10/194 97/10/195
f 71/6/195 97/10/195 96/10/196
f 73/6/196 71/6/195 96/10/196
f 98/11/197 75/6/173 91/10/173
f 75/6/198 98/11/197 73/6/191
f 73/6/191 98/11/197 96/10/191
f 91/10/178 75/6/178 98/11/199
f 73/6/194 98/11/199 75/6/178
f 96/10/194 98/11/200 73/6/201
f 94/10/183 97/10/188 99/11/202
f 97/10/188 94/10/183 66/6/183
f 97/10/188 66/6/183 71/6/188
f 99/11/203 97/10/195 94/10/187
f 66/6/187 94/10/187 97/10/195
f 71/6/195 66/6/187 97/10/195
f 90/10/174 92/10/180 100/11/204
f 92/10/182 90/10/174 69/6/174
f 92/10/182 69/6/174 65/6/180
f 100/11/205 92/10/206 90/10/177
f 69/6/177 90/10/177 92/10/206
f 65/6/185 69/6/177 92/10/185
f 102/11/150 61/6/148 101/10/148
f 61/6/207 102/11/147 59/6/149
f 59/6/149 102/11/150 103/10/149
f 101/10/151 61/6/151 102/11/155
f 59/6/153 102/11/152 61/6/151
f 103/10/153 102/11/155 59/6/153
f 103/10/149 60/6/142 59/6/149
f 60/6/142 103/10/149 104/11/208
f 60/6/209 104/11/156 105/10/142
f 59/6/153 60/6/145 103/10/153
f 104/11/210 103/10/153 60/6/145
f 105/10/145 104/11/157 60/6/211
f 62/6/166 107/11/170 106/10/166
f 107/11/170 62/6/166 53/6/158
f 107/11/170 53/6/158 108/10/158
f 106/10/169 107/11/172 62/6/212
f 53/6/162 62/6/169 107/11/172
f 108/10/162 53/6/162 107/11/172
f 110/10/141 105/10/142 109/11/213
f 105/10/142 110/10/141 54/6/141
f 105/10/142 54/6/141 60/6/142
f 109/11/144 105/10/145 110/10/146
f 54/6/146 110/10/146 105/10/145
f 60/6/145 54/6/146 105/10/145
f 101/10/214 106/10/166 111/11/215
f 106/10/166 101/10/148 61/6/148
f 106/10/166 61/6/148 62/6/166
f 111/11/216 106/10/169 101/10/154
f 61/6/151 101/10/154 106/10/169
f 62/6/169 61/6/217 106/10/169
f 53/6/158 112/11/218 108/10/158
f 112/11/159 53/6/158 54/6/161
f 112/11/160 54/6/141 110/10/141
f 108/10/162 112/11/165 53/6/162
f 54/6/164 53/6/162 112/11/163
f 110/10/146 54/6/146 112/11/165
f 3/1/1 2/1/1 1/1/1
f 2/1/1 3/1/1 4/1/1
f 4/1/1 3/1/1 5/1/1
f 4/1/1 5/1/1 6/1/1
f 6/1/1 5/1/1 7/1/1
f 6/1/1 7/1/1 8/1/1
f 9/2/2 1/1/3 2/1/4
f 1/1/3 9/2/5 10/2/6
f 11/2/7 1/1/8 10/2/9
f 1/1/8 11/2/7 3/1/10
f 12/2/11 2/1/4 4/1/12
f 2/1/13 12/2/11 9/2/2
f 13/2/14 4/1/15 6/1/16
f 4/1/15 13/2/14 12/2/17
f 7/1/18 14/2/19 8/1/20
f 14/2/19 7/1/18 15/2/21
f 11/2/7 5/1/22 3/1/23
f 5/1/22 11/2/24 16/2/25
f 8/1/26 13/2/27 6/1/28
f 13/2/14 8/1/26 14/2/29
f 7/1/18 16/2/30 15/2/21
f 16/2/30 7/1/31 5/1/32
f 14/2/33 18/3/34 17/3/35
f 18/3/36 14/2/33 15/2/37
f 16/2/38 18/3/36 15/2/39
f 18/3/36 16/2/40 19/3/41
f 21/3/42 9/2/43 20/3/44
f 9/2/43 21/3/45 10/2/46
f 22/3/47 12/2/48 13/2/49
f 12/2/48 22/3/50 23/3/51
f 21/3/52 11/2/53 10/2/46
f 11/2/54 21/3/55 24/3/56
f 13/2/57 17/3/58 22/3/59
f 17/3/35 13/2/49 14/2/60
f 20/3/61 12/2/62 23/3/63
f 12/2/64 20/3/61 9/2/65
f 24/3/66 16/2/67 11/2/54
f 16/2/67 24/3/68 19/3/69
f 27/4/70 26/4/70 25/4/70
f 26/4/70 27/4/70 28/4/70
f 26/4/70 28/4/70 29/4/70
f 29/4/70 28/4/70 30/4/70
f 29/4/70 30/4/70 31/4/70
f 31/4/70 30/4/70 32/4/70
f 35/5/1 34/5/1 33/5/1
f 34/5/1 35/5/1 36/5/1
f 34/5/1 36/5/1 37/5/1
f 37/5/1 36/5/1 38/5/1
f 37/5/1 38/5/1 39/5/1
f 39/5/1 38/5/1 40/5/1
f 27/4/71 33/5/72 34/5/71
f 33/5/72 27/4/71 25/4/73
f 29/4/74 38/5/75 36/5/74
f 38/5/76 29/4/77 31/4/78
f 40/5/79 31/4/75 32/4/80
f 31/4/75 40/5/81 38/5/75
f 28/4/82 34/5/71 37/5/82
f 34/5/71 28/4/82 27/4/83
f 26/4/84 36/5/77 35/5/84
f 36/5/85 26/4/84 29/4/86
f 30/4/87 37/5/88 39/5/87
f 37/5/88 30/4/87 28/4/89
f 26/4/84 33/5/73 25/4/72
f 33/5/90 26/4/84 35/5/84
f 40/5/91 30/4/92 39/5/87
f 30/4/87 40/5/80 32/4/91
f 43/6/93 42/7/94 41/7/93
f 42/7/94 43/6/93 44/6/94
f 47/6/95 46/7/96 45/7/95
f 46/7/96 47/6/97 48/6/96
f 50/6/98 45/7/97 49/7/98
f 45/7/97 50/6/98 47/6/97
f 48/6/96 41/7/93 46/7/96
f 41/7/93 48/6/96 43/6/93
f 52/7/99 44/6/94 51/6/99
f 44/6/100 52/7/99 42/7/100
f 52/7/99 50/6/98 49/7/98
f 50/6/98 52/7/99 51/6/99
f 41/7/1 45/7/1 46/7/1
f 45/7/1 41/7/1 42/7/1
f 45/7/1 42/7/1 49/7/1
f 49/7/1 42/7/1 52/7/1
f 55/6/101 54/8/102 53/8/103
f 54/8/102 55/6/101 56/6/104
f 59/8/105 58/6/106 57/6/107
f 58/6/106 59/8/105 60/8/108
f 63/6/109 62/8/110 61/8/111
f 62/8/110 63/6/112 64/6/113
f 64/6/114 53/8/103 62/8/110
f 53/8/103 64/6/115 55/6/116
f 64/6/117 56/6/118 55/6/119
f 56/6/120 64/6/117 58/6/121
f 58/6/121 64/6/117 63/6/122
f 58/6/121 63/6/123 57/6/124
f 59/8/125 63/6/109 61/8/126
f 63/6/109 59/8/105 57/6/127
f 54/8/1 62/8/1 53/8/1
f 62/8/1 54/8/1 60/8/1
f 62/8/1 60/8/1 61/8/1
f 61/8/1 60/8/1 59/8/1
f 56/6/128 60/8/108 54/8/129
f 60/8/108 56/6/128 58/6/130
f 67/6/131 66/9/132 65/9/131
f 66/9/132 67/6/131 68/6/133
f 70/6/134 65/9/131 69/9/134
f 65/9/131 70/6/134 67/6/131
f 68/6/132 71/9/135 66/9/132
f 71/9/136 68/6/133 72/6/136
f 72/6/135 73/9/137 71/9/135
f 73/9/137 72/6/135 74/6/137
f 71/9/1 65/9/1 66/9/1
f 65/9/1 71/9/1 69/9/1
f 69/9/1 71/9/1 73/9/1
f 69/9/1 73/9/1 75/9/1
f 76/6/138 69/9/134 75/9/138
f 69/9/139 76/6/140 70/6/139
f 73/9/137 76/6/138 75/9/138
f 76/6/138 73/9/137 74/6/137
f 79/10/141 78/10/142 77/11/143
f 78/10/142 79/10/141 41/6/141
f 78/10/142 41/6/141 42/6/142
f 77/11/144 78/10/145 79/10/146
f 41/6/146 79/10/146 78/10/145
f 42/6/145 41/6/146 78/10/145
f 81/11/147 49/6/148 80/10/148
f 49/6/148 81/11/147 52/6/149
f 52/6/149 81/11/150 82/10/149
f 80/10/151 49/6/151 81/11/152
f 52/6/153 81/11/152 49/6/154
f 82/10/153 81/11/155 52/6/153
f 82/10/149 42/6/142 52/6/149
f 42/6/142 82/10/149 83/11/156
f 42/6/142 83/11/156 78/10/142
f 52/6/153 42/6/145 82/10/153
f 83/11/157 82/10/153 42/6/145
f 78/10/145 83/11/157 42/6/145
f 46/6/158 85/11/159 84/10/158
f 85/11/160 46/6/158 41/6/141
f 85/11/159 41/6/161 79/10/141
f 84/10/162 85/11/163 46/6/162
f 41/6/164 46/6/162 85/11/165
f 79/10/146 41/6/146 85/11/163
f 80/10/148 87/10/166 86/11/167
f 87/10/166 80/10/148 49/6/148
f 87/10/166 49/6/148 45/6/166
f 86/11/168 87/10/169 80/10/151
f 49/6/151 80/10/151 87/10/169
f 45/6/169 49/6/151 87/10/169
f 45/6/166 88/11/170 87/10/166
f 88/11/170 45/6/166 46/6/158
f 88/11/170 46/6/171 84/10/158
f 87/10/169 88/11/172 45/6/169
f 46/6/162 45/6/169 88/11/172
f 84/10/162 46/6/162 88/11/172
f 91/10/173 90/10/174 89/11/175
f 90/10/174 91/10/173 75/6/173
f 90/10/174 75/6/173 69/6/174
f 89/11/176 90/10/177 91/10/178
f 75/6/178 91/10/178 90/10/177
f 69/6/177 75/6/179 90/10/177
f 65/6/180 93/11/181 92/10/182
f 93/11/181 65/6/182 66/6/183
f 93/11/181 66/6/184 94/10/183
f 92/10/185 93/11/186 65/6/185
f 66/6/187 65/6/185 93/11/186
f 94/10/187 66/6/187 93/11/186
f 97/10/188 96/10/189 95/11/190
f 96/10/191 97/10/188 71/6/188
f 96/10/192 71/6/188 73/6/192
f 95/11/193 96/10/194 97/10/195
f 71/6/195 97/10/195 96/10/196
f 73/6/196 71/6/195 96/10/196
f 98/11/197 75/6/173 91/10/173
f 75/6/198 98/11/197 73/6/191
f 73/6/191 98/11/197 96/10/191
f 91/10/178 75/6/178 98/11/199
f 73/6/194 98/11/199 75/6/178
f 96/10/194 98/11/200 73/6/201
f 94/10/183 97/10/188 99/11/202
f 97/10/188 94/10/183 66/6/183
f 97/10/188 66/6/183 71/6/188
f 99/11/203 97/10/195 94/10/187
f 66/6/187 94/10/187 97/10/195
f 71/6/195 66/6/187 97/10/195
f 90/10/174 92/10/180 100/11/204
f 92/10/182 90/10/174 69/6/174
f 92/10/182 69/6/174 65/6/180
f 100/11/205 92/10/206 90/10/177
f 69/6/177 90/10/177 92/10/206
f 65/6/185 69/6/177 92/10/185
f 102/11/150 61/6/148 101/10/148
f 61/6/207 102/11/147 59/6/149
f 59/6/149 102/11/150 103/10/149
f 101/10/151 61/6/151 102/11/155
f 59/6/153 102/11/152 61/6/151
f 103/10/153 102/11/155 59/6/153
f 103/10/149 60/6/142 59/6/149
f 60/6/142 103/10/149 104/11/208
f 60/6/209 104/11/156 105/10/142
f 59/6/153 60/6/145 103/10/153
f 104/11/210 103/10/153 60/6/145
f 105/10/145 104/11/157 60/6/211
f 62/6/166 107/11/170 106/10/166
f 107/11/170 62/6/166 53/6/158
f 107/11/170 53/6/158 108/10/158
f 106/10/169 107/11/172 62/6/212
f 53/6/162 62/6/169 107/11/172
f 108/10/162 53/6/162 107/11/172
f 110/10/141 105/10/142 109/11/213
f 105/10/142 110/10/141 54/6/141
f 105/10/142 54/6/141 60/6/142
f 109/11/144 105/10/145 110/10/146
f 54/6/146 110/10/146 105/10/145
f 60/6/145 54/6/146 105/10/145
f 101/10/214 106/10/166 111/11/215
f 106/10/166 101/10/148 61/6/148
f 106/10/166 61/6/148 62/6/166
f 111/11/216 106/10/169 101/10/154
f 61/6/151 101/10/154 106/10/169
f 62/6/169 61/6/217 106/10/169
f 53/6/158 112/11/218 108/10/158
f 112/11/159 53/6/158 54/6/161
f 112/11/160 54/6/141 110/10/141
f 108/10/162 112/11/165 53/6/162
f 54/6/164 53/6/162 112/11/163
f 110/10/146 54/6/146 112/11/165
