# Blender 4.1.1
# www.blender.org
mtllib tree.008.mtl
o tree.008
v -23.153677 -0.295190 -9.899683
v -23.153677 -0.295190 -10.145863
v -23.276768 -0.295190 -9.776593
v -23.276768 -0.295190 -10.268952
v -23.522945 -0.295190 -9.776593
v -23.522945 -0.295190 -10.268952
v -23.646036 -0.295190 -9.899683
v -23.646036 -0.295190 -10.145863
v -23.276768 0.150532 -10.084317
v -23.276768 0.150532 -9.961228
v -23.338312 0.150532 -9.899683
v -23.338312 0.150532 -10.145863
v -23.461401 0.150532 -10.145863
v -23.522945 0.150532 -10.084317
v -23.522945 0.150532 -9.961228
v -23.461401 0.150532 -9.899683
v -23.553719 0.819166 -10.099704
v -23.553719 0.819166 -9.945842
v -23.476788 0.819166 -9.868911
v -23.245995 0.819166 -10.099704
v -23.245995 0.819166 -9.945842
v -23.476788 0.819166 -10.176635
v -23.322926 0.819166 -10.176635
v -23.322926 0.819166 -9.868911
v -23.196402 0.309673 -10.082939
v -23.233364 0.309673 -9.993702
v -23.233364 0.309673 -10.172176
v -23.322601 0.309673 -10.209139
v -23.322601 0.309673 -9.956739
v -23.411839 0.309673 -10.172176
v -23.411839 0.309673 -9.993702
v -23.448803 0.309673 -10.082939
v -23.124920 0.147933 -10.082939
v -23.182819 0.147933 -10.222721
v -23.182819 0.147933 -9.943157
v -23.322601 0.147933 -9.885257
v -23.322601 0.147933 -10.280621
v -23.462383 0.147933 -9.943157
v -23.462383 0.147933 -10.222721
v -23.520285 0.147933 -10.082939
v -23.105255 0.819166 -9.491837
v -23.718328 0.819166 -9.491837
v -23.230934 1.556122 -9.709518
v -23.592649 1.556122 -9.709518
v -23.105255 0.819166 -10.553709
v -22.798719 0.819166 -10.022773
v -23.230934 1.556122 -10.336028
v -23.050076 1.556122 -10.022773
v -23.718328 0.819166 -10.553709
v -23.592649 1.556122 -10.336028
v -23.773506 1.556122 -10.022773
v -24.024864 0.819166 -10.022773
v -23.058292 2.347869 -10.022773
v -23.235043 2.347869 -9.716634
v -23.330542 3.178330 -10.022773
v -23.371166 3.178330 -9.952408
v -23.493042 3.178330 -10.022773
v -23.452417 3.178330 -9.952408
v -23.765289 2.347869 -10.022773
v -23.588541 2.347869 -9.716634
v -23.588541 2.347869 -10.328912
v -23.235043 2.347869 -10.328912
v -23.452417 3.178330 -10.093138
v -23.371166 3.178330 -10.093138
v -22.980135 1.556122 -10.271990
v -22.980135 1.556122 -9.773557
v -23.214003 2.347869 -10.136967
v -23.214003 2.347869 -9.908579
v -23.411791 1.556122 -10.521206
v -23.411791 2.347869 -10.251161
v -23.411791 1.556122 -9.524340
v -23.411791 2.347869 -9.794385
v -23.843447 1.556122 -9.773557
v -23.609581 2.347869 -9.908579
v -23.843447 1.556122 -10.271990
v -23.609581 2.347869 -10.136967
v -23.411791 0.589264 -9.375031
v -23.752047 0.704215 -9.433434
v -23.071535 0.704215 -9.433434
v -23.752047 0.704215 -10.612112
v -23.972754 0.589264 -10.346644
v -24.092302 0.704215 -10.022773
v -23.972754 0.589264 -9.698901
v -22.731281 0.704215 -10.022773
v -22.850830 0.589264 -9.698901
v -23.411791 0.589264 -10.670515
v -23.071535 0.704215 -10.612112
v -22.850830 0.589264 -10.346644
v -23.675102 1.369209 -10.478839
v -23.411791 1.462665 -10.576034
v -23.890930 1.462665 -10.299403
v -22.932653 1.462665 -10.299403
v -22.885172 1.369209 -10.022773
v -22.932653 1.462665 -9.746142
v -23.675102 1.369209 -9.566707
v -23.890930 1.462665 -9.746142
v -23.411791 1.462665 -9.469512
v -23.938412 1.369209 -10.022773
v -23.148481 1.369209 -9.566707
v -23.148481 1.369209 -10.478839
v -23.607983 2.281588 -10.362587
v -23.735243 2.215307 -10.209517
v -23.804174 2.281588 -10.022773
v -23.735243 2.215307 -9.836028
v -23.607983 2.281588 -9.682959
v -23.215599 2.281588 -10.362587
v -23.088341 2.215307 -10.209517
v -23.019407 2.281588 -10.022773
v -23.411791 2.215307 -9.649283
v -23.215599 2.281588 -9.682959
v -23.411791 2.215307 -10.396262
v -23.088341 2.215307 -9.836028
vn -0.0000 -1.0000 -0.0000
vn 0.8851 0.2942 -0.3607
vn 0.8813 0.2944 0.3698
vn 0.8812 0.2944 -0.3698
vn 0.8812 0.2944 0.3698
vn 0.8851 0.2942 0.3607
vn 0.3608 0.2942 0.8850
vn 0.8850 0.2942 0.3607
vn 0.3607 0.2942 0.8850
vn 0.3698 0.2944 0.8812
vn 0.3607 0.2942 -0.8850
vn 0.3698 0.2944 -0.8812
vn 0.3608 0.2942 -0.8850
vn 0.8850 0.2942 -0.3607
vn -0.3607 0.2942 -0.8851
vn 0.3698 0.2944 -0.8813
vn -0.3698 0.2944 -0.8812
vn 0.3607 0.2942 -0.8851
vn -0.8813 0.2944 0.3698
vn -0.8851 0.2942 -0.3607
vn -0.8812 0.2944 -0.3698
vn -0.8851 0.2942 0.3607
vn 0.3607 0.2942 0.8851
vn -0.3698 0.2944 0.8813
vn -0.3698 0.2944 0.8812
vn -0.3607 0.2942 0.8851
vn -0.3607 0.2942 -0.8850
vn -0.8850 0.2942 -0.3608
vn -0.8812 0.2944 0.3698
vn -0.3607 0.2942 0.8850
vn -0.8850 0.2942 0.3608
vn -0.9230 -0.0513 -0.3813
vn -0.9223 -0.0512 0.3829
vn -0.9223 -0.0513 -0.3829
vn -0.9223 -0.0513 0.3829
vn -0.9230 -0.0513 0.3813
vn -0.3814 -0.0513 0.9230
vn -0.9223 -0.0513 0.3830
vn -0.9230 -0.0512 0.3813
vn -0.3813 -0.0513 0.9230
vn -0.3830 -0.0512 0.9223
vn 0.9223 -0.0512 0.3829
vn 0.9230 -0.0513 -0.3813
vn 0.9223 -0.0513 -0.3829
vn 0.9230 -0.0513 0.3813
vn -0.3829 -0.0513 -0.9223
vn 0.3813 -0.0513 -0.9230
vn -0.3813 -0.0513 -0.9230
vn -0.3829 -0.0512 -0.9223
vn 0.3829 -0.0513 -0.9223
vn 0.9223 -0.0513 0.3830
vn 0.3814 -0.0513 0.9230
vn 0.3813 -0.0513 0.9230
vn 0.9223 -0.0512 0.3830
vn 0.3830 -0.0512 0.9223
vn -0.9223 -0.0512 -0.3830
vn -0.3830 -0.0512 -0.9223
vn -0.9223 -0.0513 -0.3830
vn -0.3814 -0.0513 -0.9230
vn 0.9223 -0.0513 -0.3830
vn 0.3830 -0.0512 -0.9223
vn 0.3814 -0.0512 -0.9230
vn 0.9230 -0.0512 -0.3813
vn 0.3829 -0.0513 0.9223
vn 0.3829 -0.0512 0.9223
vn -0.3829 -0.0513 0.9223
vn -0.0000 1.0000 -0.0000
vn 0.6468 0.4042 -0.6468
vn 0.9147 0.4042 -0.0000
vn 0.6468 0.4042 -0.6467
vn 0.9146 0.4043 -0.0000
vn -0.0000 0.4042 0.9147
vn -0.6467 0.4042 0.6468
vn -0.6467 0.4043 0.6468
vn -0.9147 0.4042 -0.0000
vn -0.6468 0.4042 0.6468
vn -0.9146 0.4043 -0.0000
vn -0.6468 0.4042 0.6467
vn -0.0000 0.4042 -0.9147
vn 0.6467 0.4042 -0.6468
vn 0.6467 0.4043 -0.6468
vn 0.6468 0.4042 0.6468
vn 0.6467 0.4042 0.6468
vn -0.0000 0.4043 0.9146
vn -0.6468 0.4042 -0.6468
vn -0.6467 0.4042 -0.6468
vn -0.0000 0.4043 -0.9146
vn 0.6468 0.4042 0.6467
vn -0.6468 0.4042 -0.6467
vn 0.4732 0.3228 0.8197
vn -0.4732 0.3228 0.8197
vn 0.4732 0.3228 -0.8197
vn 0.9465 0.3228 -0.0000
vn -0.4732 0.3228 -0.8197
vn 0.4733 0.3228 0.8197
vn -0.9465 0.3228 -0.0000
vn -0.4733 0.3228 0.8197
vn -0.4733 0.3228 -0.8197
vn 0.6877 0.7260 -0.0000
vn 0.4751 0.3115 0.8229
vn 0.9503 0.3115 -0.0000
vn 0.6877 0.7260 -0.0001
vn 0.3438 0.7260 0.5956
vn -0.9502 0.3115 -0.0000
vn -0.3438 0.7260 0.5956
vn -0.6877 0.7260 -0.0001
vn -0.4751 0.3115 0.8229
vn -0.3439 0.7260 -0.5956
vn 0.4751 0.3115 -0.8229
vn -0.4751 0.3115 -0.8229
vn 0.3439 0.7260 -0.5956
vn 0.3438 0.7260 -0.5956
vn 0.9502 0.3115 -0.0000
vn 0.9502 0.3115 -0.0001
vn 0.3439 0.7259 -0.5956
vn 0.3439 0.7259 0.5956
vn 0.6877 0.7259 -0.0000
vn -0.3439 0.7259 0.5956
vn -0.3439 0.7259 -0.5956
vn -0.6877 0.7259 -0.0000
vn -0.9502 0.3116 -0.0000
vn -0.3438 0.7260 -0.5956
vn -0.3439 0.7260 -0.5955
vn -0.6877 0.7260 -0.0000
vn 0.3439 0.7260 0.5956
vn -0.3439 0.7260 0.5956
vn 0.8197 0.3228 -0.4732
vn 0.8197 0.3228 0.4732
vn -0.0000 0.3228 -0.9465
vn 0.8196 0.3228 -0.4732
vn 0.8196 0.3228 0.4732
vn -0.0000 0.3228 0.9465
vn -0.8196 0.3228 0.4732
vn -0.8197 0.3228 0.4732
vn -0.8196 0.3228 -0.4732
vn -0.8197 0.3228 -0.4732
vn 0.4313 0.5060 0.7470
vn -0.4313 0.5060 0.7470
vn -0.0000 0.4530 0.8915
vn -0.0000 -0.4530 -0.8915
vn 0.4313 -0.5060 -0.7470
vn -0.4313 -0.5060 -0.7470
vn -0.7721 0.4530 -0.4458
vn -0.4313 0.5060 -0.7470
vn -0.8625 0.5060 -0.0000
vn 0.4313 -0.5060 0.7470
vn 0.7721 -0.4530 0.4458
vn 0.8625 -0.5060 -0.0000
vn -0.7721 0.4530 0.4458
vn 0.7721 -0.4530 -0.4458
vn 0.8625 0.5060 -0.0000
vn 0.7721 0.4530 0.4458
vn 0.4313 0.5060 0.7469
vn -0.8625 -0.5060 -0.0000
vn -0.7721 -0.4530 -0.4458
vn 0.4313 0.5060 -0.7470
vn -0.0000 0.4530 -0.8915
vn -0.0000 -0.4530 0.8915
vn -0.4313 -0.5060 0.7470
vn 0.7721 0.4530 -0.4458
vn -0.7721 -0.4530 0.4458
vn -0.4313 -0.5060 0.7469
vn -0.7470 0.5060 -0.4313
vn -0.0000 0.5060 -0.8625
vn -0.4458 0.4530 -0.7721
vn 0.4458 -0.4530 0.7721
vn -0.0000 -0.5060 0.8625
vn 0.7470 -0.5060 0.4313
vn 0.7470 0.5060 -0.4312
vn 0.8915 0.4530 -0.0000
vn 0.7470 0.5060 -0.4313
vn 0.7470 0.5060 0.4313
vn 0.7470 0.5060 0.4312
vn -0.7470 -0.5060 0.4313
vn -0.8915 -0.4530 -0.0000
vn -0.7470 -0.5060 -0.4313
vn -0.0000 0.5060 0.8625
vn -0.7470 0.5060 0.4313
vn -0.4458 0.4530 0.7721
vn 0.4458 -0.4530 -0.7721
vn 0.7470 -0.5060 -0.4313
vn -0.0000 -0.5060 -0.8625
vn -0.0000 -0.5061 -0.8625
vn -0.8915 0.4530 -0.0000
vn -0.7469 0.5060 -0.4313
vn 0.8915 -0.4530 -0.0000
vn 0.4458 0.4530 0.7721
vn -0.4458 -0.4529 -0.7721
vn 0.4458 0.4530 -0.7721
vn -0.4458 -0.4530 0.7721
vn -0.7721 0.4529 0.4458
vn 0.4312 -0.5060 -0.7470
vn 0.4313 0.5060 -0.7469
vn 0.7721 0.4530 -0.4457
vn -0.7721 -0.4530 0.4457
vn -0.4313 -0.5061 0.7469
vn 0.7721 0.4530 0.4457
vn -0.7721 -0.4530 -0.4457
vt 0.593750 0.025000
vt 0.593750 0.104996
vt 0.593750 0.225000
vt 0.093750 0.475000
vt 0.093750 0.275000
vt 0.093750 0.425000
vt 0.093750 0.348778
vt 0.093750 0.338765
vt 0.093750 0.344099
vt 0.093750 0.375000
vt 0.093750 0.325000
s 0
usemtl colormap.011
f 3/1/1 2/1/1 1/1/1
f 2/1/1 3/1/1 4/1/1
f 4/1/1 3/1/1 5/1/1
f 4/1/1 5/1/1 6/1/1
f 6/1/1 5/1/1 7/1/1
f 6/1/1 7/1/1 8/1/1
f 9/2/2 1/1/3 2/1/4
f 1/1/5 9/2/2 10/2/6
f 11/2/7 1/1/5 10/2/8
f 1/1/5 11/2/9 3/1/10
f 12/2/11 2/1/4 4/1/12
f 2/1/4 12/2/13 9/2/14
f 13/2/15 4/1/16 6/1/17
f 4/1/12 13/2/15 12/2/18
f 7/1/19 14/2/20 8/1/21
f 14/2/20 7/1/19 15/2/22
f 11/2/23 5/1/24 3/1/10
f 5/1/25 11/2/23 16/2/26
f 8/1/21 13/2/27 6/1/17
f 13/2/27 8/1/21 14/2/28
f 7/1/29 16/2/30 15/2/31
f 16/2/30 7/1/29 5/1/25
f 14/2/32 18/3/33 17/3/34
f 18/3/35 14/2/32 15/2/36
f 16/2/37 18/3/38 15/2/39
f 18/3/38 16/2/40 19/3/41
f 21/3/42 9/2/43 20/3/44
f 9/2/43 21/3/42 10/2/45
f 22/3/46 12/2/47 13/2/48
f 12/2/47 22/3/49 23/3/50
f 21/3/51 11/2/52 10/2/45
f 11/2/53 21/3/54 24/3/55
f 13/2/48 17/3/56 22/3/57
f 17/3/58 13/2/59 14/2/32
f 20/3/60 12/2/47 23/3/61
f 12/2/62 20/3/60 9/2/63
f 24/3/64 16/2/40 11/2/53
f 16/2/40 24/3/65 19/3/66
f 27/4/67 26/4/67 25/4/67
f 26/4/67 27/4/67 28/4/67
f 26/4/67 28/4/67 29/4/67
f 29/4/67 28/4/67 30/4/67
f 29/4/67 30/4/67 31/4/67
f 31/4/67 30/4/67 32/4/67
f 35/5/1 34/5/1 33/5/1
f 34/5/1 35/5/1 36/5/1
f 34/5/1 36/5/1 37/5/1
f 37/5/1 36/5/1 38/5/1
f 37/5/1 38/5/1 39/5/1
f 39/5/1 38/5/1 40/5/1
f 27/4/68 33/5/69 34/5/70
f 33/5/69 27/4/68 25/4/71
f 29/4/72 38/5/73 36/5/72
f 38/5/73 29/4/72 31/4/74
f 40/5/75 31/4/76 32/4/77
f 31/4/78 40/5/75 38/5/78
f 28/4/79 34/5/80 37/5/79
f 34/5/80 28/4/79 27/4/81
f 26/4/82 36/5/72 35/5/83
f 36/5/72 26/4/83 29/4/84
f 30/4/85 37/5/79 39/5/86
f 37/5/79 30/4/86 28/4/87
f 26/4/82 33/5/71 25/4/69
f 33/5/69 26/4/88 35/5/88
f 40/5/75 30/4/89 39/5/89
f 30/4/85 40/5/77 32/4/75
f 43/6/90 42/7/91 41/7/90
f 42/7/91 43/6/90 44/6/91
f 47/6/92 46/7/93 45/7/92
f 46/7/93 47/6/92 48/6/93
f 50/6/94 45/7/92 49/7/94
f 45/7/92 50/6/94 47/6/92
f 48/6/93 41/7/95 46/7/93
f 41/7/90 48/6/93 43/6/90
f 52/7/96 44/6/97 51/6/96
f 44/6/91 52/7/96 42/7/91
f 52/7/96 50/6/94 49/7/94
f 50/6/98 52/7/96 51/6/96
f 41/7/1 45/7/1 46/7/1
f 45/7/1 41/7/1 42/7/1
f 45/7/1 42/7/1 49/7/1
f 49/7/1 42/7/1 52/7/1
f 55/6/99 54/8/100 53/8/101
f 54/8/100 55/6/102 56/6/103
f 59/8/104 58/6/105 57/6/106
f 58/6/105 59/8/104 60/8/107
f 63/6/108 62/8/109 61/8/110
f 62/8/109 63/6/108 64/6/111
f 64/6/112 53/8/113 62/8/109
f 53/8/114 64/6/112 55/6/99
f 64/6/115 56/6/116 55/6/117
f 56/6/116 64/6/115 58/6/118
f 58/6/118 64/6/115 63/6/119
f 58/6/118 63/6/119 57/6/120
f 59/8/121 63/6/122 61/8/110
f 63/6/123 59/8/104 57/6/124
f 54/8/1 62/8/1 53/8/1
f 62/8/1 54/8/1 60/8/1
f 62/8/1 60/8/1 61/8/1
f 61/8/1 60/8/1 59/8/1
f 56/6/125 60/8/107 54/8/100
f 60/8/107 56/6/125 58/6/126
f 67/6/127 66/9/128 65/9/127
f 66/9/128 67/6/127 68/6/128
f 70/6/129 65/9/130 69/9/129
f 65/9/127 70/6/129 67/6/127
f 68/6/131 71/9/132 66/9/128
f 71/9/132 68/6/128 72/6/132
f 72/6/132 73/9/133 71/9/132
f 73/9/134 72/6/132 74/6/134
f 71/9/1 65/9/1 66/9/1
f 65/9/1 71/9/1 69/9/1
f 69/9/1 71/9/1 73/9/1
f 69/9/1 73/9/1 75/9/1
f 76/6/135 69/9/129 75/9/136
f 69/9/129 76/6/136 70/6/129
f 73/9/134 76/6/136 75/9/136
f 76/6/136 73/9/134 74/6/134
f 79/10/137 78/10/138 77/11/139
f 78/10/138 79/10/137 41/6/137
f 78/10/138 41/6/137 42/6/138
f 77/11/140 78/10/141 79/10/142
f 41/6/142 79/10/142 78/10/141
f 42/6/141 41/6/142 78/10/141
f 81/11/143 49/6/144 80/10/144
f 49/6/144 81/11/143 52/6/145
f 52/6/145 81/11/143 82/10/145
f 80/10/146 49/6/146 81/11/147
f 52/6/148 81/11/147 49/6/146
f 82/10/148 81/11/147 52/6/148
f 82/10/145 42/6/138 52/6/145
f 42/6/138 82/10/145 83/11/149
f 42/6/138 83/11/149 78/10/138
f 52/6/148 42/6/141 82/10/148
f 83/11/150 82/10/148 42/6/141
f 78/10/141 83/11/150 42/6/141
f 46/6/151 85/11/152 84/10/151
f 85/11/152 46/6/151 41/6/137
f 85/11/152 41/6/153 79/10/137
f 84/10/154 85/11/155 46/6/154
f 41/6/142 46/6/154 85/11/155
f 79/10/142 41/6/142 85/11/155
f 80/10/144 87/10/156 86/11/157
f 87/10/156 80/10/144 49/6/144
f 87/10/156 49/6/144 45/6/156
f 86/11/158 87/10/159 80/10/146
f 49/6/146 80/10/146 87/10/159
f 45/6/159 49/6/146 87/10/159
f 45/6/156 88/11/160 87/10/156
f 88/11/160 45/6/156 46/6/151
f 88/11/160 46/6/151 84/10/151
f 87/10/159 88/11/161 45/6/162
f 46/6/154 45/6/159 88/11/161
f 84/10/154 46/6/154 88/11/161
f 91/10/163 90/10/164 89/11/165
f 90/10/164 91/10/163 75/6/163
f 90/10/164 75/6/163 69/6/164
f 89/11/166 90/10/167 91/10/168
f 75/6/168 91/10/168 90/10/167
f 69/6/167 75/6/168 90/10/167
f 65/6/169 93/11/170 92/10/171
f 93/11/170 65/6/171 66/6/172
f 93/11/170 66/6/173 94/10/173
f 92/10/174 93/11/175 65/6/174
f 66/6/176 65/6/174 93/11/175
f 94/10/176 66/6/176 93/11/175
f 97/10/177 96/10/178 95/11/179
f 96/10/178 97/10/177 71/6/177
f 96/10/178 71/6/177 73/6/178
f 95/11/180 96/10/181 97/10/182
f 71/6/182 97/10/182 96/10/181
f 73/6/181 71/6/183 96/10/181
f 98/11/184 75/6/185 91/10/163
f 75/6/163 98/11/184 73/6/178
f 73/6/178 98/11/184 96/10/178
f 91/10/168 75/6/168 98/11/186
f 73/6/181 98/11/186 75/6/168
f 96/10/181 98/11/186 73/6/181
f 94/10/172 97/10/177 99/11/187
f 97/10/177 94/10/172 66/6/172
f 97/10/177 66/6/172 71/6/177
f 99/11/188 97/10/182 94/10/176
f 66/6/176 94/10/176 97/10/182
f 71/6/182 66/6/176 97/10/182
f 90/10/164 92/10/171 100/11/189
f 92/10/171 90/10/164 69/6/164
f 92/10/171 69/6/164 65/6/171
f 100/11/190 92/10/174 90/10/167
f 69/6/167 90/10/167 92/10/174
f 65/6/174 69/6/167 92/10/174
f 102/11/143 61/6/144 101/10/144
f 61/6/144 102/11/143 59/6/145
f 59/6/145 102/11/143 103/10/145
f 101/10/146 61/6/146 102/11/147
f 59/6/148 102/11/147 61/6/146
f 103/10/148 102/11/147 59/6/148
f 103/10/145 60/6/138 59/6/145
f 60/6/138 103/10/145 104/11/149
f 60/6/138 104/11/191 105/10/138
f 59/6/148 60/6/192 103/10/148
f 104/11/150 103/10/148 60/6/141
f 105/10/141 104/11/150 60/6/141
f 62/6/193 107/11/194 106/10/156
f 107/11/160 62/6/156 53/6/151
f 107/11/160 53/6/151 108/10/151
f 106/10/159 107/11/195 62/6/196
f 53/6/154 62/6/159 107/11/161
f 108/10/154 53/6/154 107/11/161
f 110/10/137 105/10/138 109/11/139
f 105/10/138 110/10/137 54/6/137
f 105/10/138 54/6/137 60/6/138
f 109/11/140 105/10/141 110/10/142
f 54/6/142 110/10/142 105/10/141
f 60/6/141 54/6/142 105/10/141
f 101/10/144 106/10/156 111/11/157
f 106/10/156 101/10/144 61/6/144
f 106/10/156 61/6/144 62/6/156
f 111/11/158 106/10/159 101/10/146
f 61/6/146 101/10/146 106/10/159
f 62/6/159 61/6/146 106/10/159
f 53/6/151 112/11/152 108/10/151
f 112/11/152 53/6/151 54/6/137
f 112/11/197 54/6/153 110/10/137
f 108/10/154 112/11/155 53/6/154
f 54/6/142 53/6/154 112/11/155
f 110/10/142 54/6/142 112/11/198
f 3/1/1 2/1/1 1/1/1
f 2/1/1 3/1/1 4/1/1
f 4/1/1 3/1/1 5/1/1
f 4/1/1 5/1/1 6/1/1
f 6/1/1 5/1/1 7/1/1
f 6/1/1 7/1/1 8/1/1
f 9/2/2 1/1/3 2/1/4
f 1/1/5 9/2/2 10/2/6
f 11/2/7 1/1/5 10/2/8
f 1/1/5 11/2/9 3/1/10
f 12/2/11 2/1/4 4/1/12
f 2/1/4 12/2/13 9/2/14
f 13/2/15 4/1/16 6/1/17
f 4/1/12 13/2/15 12/2/18
f 7/1/19 14/2/20 8/1/21
f 14/2/20 7/1/19 15/2/22
f 11/2/23 5/1/24 3/1/10
f 5/1/25 11/2/23 16/2/26
f 8/1/21 13/2/27 6/1/17
f 13/2/27 8/1/21 14/2/28
f 7/1/29 16/2/30 15/2/31
f 16/2/30 7/1/29 5/1/25
f 14/2/32 18/3/33 17/3/34
f 18/3/35 14/2/32 15/2/36
f 16/2/37 18/3/38 15/2/39
f 18/3/38 16/2/40 19/3/41
f 21/3/42 9/2/43 20/3/44
f 9/2/43 21/3/42 10/2/45
f 22/3/46 12/2/47 13/2/48
f 12/2/47 22/3/49 23/3/50
f 21/3/51 11/2/52 10/2/45
f 11/2/53 21/3/54 24/3/55
f 13/2/48 17/3/56 22/3/57
f 17/3/58 13/2/59 14/2/32
f 20/3/60 12/2/47 23/3/61
f 12/2/62 20/3/60 9/2/63
f 24/3/64 16/2/40 11/2/53
f 16/2/40 24/3/65 19/3/66
f 27/4/67 26/4/67 25/4/67
f 26/4/67 27/4/67 28/4/67
f 26/4/67 28/4/67 29/4/67
f 29/4/67 28/4/67 30/4/67
f 29/4/67 30/4/67 31/4/67
f 31/4/67 30/4/67 32/4/67
f 35/5/1 34/5/1 33/5/1
f 34/5/1 35/5/1 36/5/1
f 34/5/1 36/5/1 37/5/1
f 37/5/1 36/5/1 38/5/1
f 37/5/1 38/5/1 39/5/1
f 39/5/1 38/5/1 40/5/1
f 27/4/68 33/5/69 34/5/70
f 33/5/69 27/4/68 25/4/71
f 29/4/72 38/5/73 36/5/72
f 38/5/73 29/4/72 31/4/74
f 40/5/75 31/4/76 32/4/77
f 31/4/78 40/5/75 38/5/78
f 28/4/79 34/5/80 37/5/79
f 34/5/80 28/4/79 27/4/81
f 26/4/82 36/5/72 35/5/83
f 36/5/72 26/4/83 29/4/84
f 30/4/85 37/5/79 39/5/86
f 37/5/79 30/4/86 28/4/87
f 26/4/82 33/5/71 25/4/69
f 33/5/69 26/4/88 35/5/88
f 40/5/75 30/4/89 39/5/89
f 30/4/85 40/5/77 32/4/75
f 43/6/90 42/7/91 41/7/90
f 42/7/91 43/6/90 44/6/91
f 47/6/92 46/7/93 45/7/92
f 46/7/93 47/6/92 48/6/93
f 50/6/94 45/7/92 49/7/94
f 45/7/92 50/6/94 47/6/92
f 48/6/93 41/7/95 46/7/93
f 41/7/90 48/6/93 43/6/90
f 52/7/96 44/6/97 51/6/96
f 44/6/91 52/7/96 42/7/91
f 52/7/96 50/6/94 49/7/94
f 50/6/98 52/7/96 51/6/96
f 41/7/1 45/7/1 46/7/1
f 45/7/1 41/7/1 42/7/1
f 45/7/1 42/7/1 49/7/1
f 49/7/1 42/7/1 52/7/1
f 55/6/99 54/8/100 53/8/101
f 54/8/100 55/6/102 56/6/103
f 59/8/104 58/6/105 57/6/106
f 58/6/105 59/8/104 60/8/107
f 63/6/108 62/8/109 61/8/110
f 62/8/109 63/6/108 64/6/111
f 64/6/112 53/8/113 62/8/109
f 53/8/114 64/6/112 55/6/99
f 64/6/115 56/6/116 55/6/117
f 56/6/116 64/6/115 58/6/118
f 58/6/118 64/6/115 63/6/119
f 58/6/118 63/6/119 57/6/120
f 59/8/121 63/6/122 61/8/110
f 63/6/123 59/8/104 57/6/124
f 54/8/1 62/8/1 53/8/1
f 62/8/1 54/8/1 60/8/1
f 62/8/1 60/8/1 61/8/1
f 61/8/1 60/8/1 59/8/1
f 56/6/125 60/8/107 54/8/100
f 60/8/107 56/6/125 58/6/126
f 67/6/127 66/9/128 65/9/127
f 66/9/128 67/6/127 68/6/128
f 70/6/129 65/9/130 69/9/129
f 65/9/127 70/6/129 67/6/127
f 68/6/131 71/9/132 66/9/128
f 71/9/132 68/6/128 72/6/132
f 72/6/132 73/9/133 71/9/132
f 73/9/134 72/6/132 74/6/134
f 71/9/1 65/9/1 66/9/1
f 65/9/1 71/9/1 69/9/1
f 69/9/1 71/9/1 73/9/1
f 69/9/1 73/9/1 75/9/1
f 76/6/135 69/9/129 75/9/136
f 69/9/129 76/6/136 70/6/129
f 73/9/134 76/6/136 75/9/136
f 76/6/136 73/9/134 74/6/134
f 79/10/137 78/10/138 77/11/139
f 78/10/138 79/10/137 41/6/137
f 78/10/138 41/6/137 42/6/138
f 77/11/140 78/10/141 79/10/142
f 41/6/142 79/10/142 78/10/141
f 42/6/141 41/6/142 78/10/141
f 81/11/143 49/6/144 80/10/144
f 49/6/144 81/11/143 52/6/145
f 52/6/145 81/11/143 82/10/145
f 80/10/146 49/6/146 81/11/147
f 52/6/148 81/11/147 49/6/146
f 82/10/148 81/11/147 52/6/148
f 82/10/145 42/6/138 52/6/145
f 42/6/138 82/10/145 83/11/149
f 42/6/138 83/11/149 78/10/138
f 52/6/148 42/6/141 82/10/148
f 83/11/150 82/10/148 42/6/141
f 78/10/141 83/11/150 42/6/141
f 46/6/151 85/11/152 84/10/151
f 85/11/152 46/6/151 41/6/137
f 85/11/152 41/6/153 79/10/137
f 84/10/154 85/11/155 46/6/154
f 41/6/142 46/6/154 85/11/155
f 79/10/142 41/6/142 85/11/155
f 80/10/144 87/10/156 86/11/157
f 87/10/156 80/10/144 49/6/144
f 87/10/156 49/6/144 45/6/156
f 86/11/158 87/10/159 80/10/146
f 49/6/146 80/10/146 87/10/159
f 45/6/159 49/6/146 87/10/159
f 45/6/156 88/11/160 87/10/156
f 88/11/160 45/6/156 46/6/151
f 88/11/160 46/6/151 84/10/151
f 87/10/159 88/11/161 45/6/162
f 46/6/154 45/6/159 88/11/161
f 84/10/154 46/6/154 88/11/161
f 91/10/163 90/10/164 89/11/165
f 90/10/164 91/10/163 75/6/163
f 90/10/164 75/6/163 69/6/164
f 89/11/166 90/10/167 91/10/168
f 75/6/168 91/10/168 90/10/167
f 69/6/167 75/6/168 90/10/167
f 65/6/169 93/11/170 92/10/171
f 93/11/170 65/6/171 66/6/172
f 93/11/170 66/6/173 94/10/173
f 92/10/174 93/11/175 65/6/174
f 66/6/176 65/6/174 93/11/175
f 94/10/176 66/6/176 93/11/175
f 97/10/177 96/10/178 95/11/179
f 96/10/178 97/10/177 71/6/177
f 96/10/178 71/6/177 73/6/178
f 95/11/180 96/10/181 97/10/182
f 71/6/182 97/10/182 96/10/181
f 73/6/181 71/6/183 96/10/181
f 98/11/184 75/6/185 91/10/163
f 75/6/163 98/11/184 73/6/178
f 73/6/178 98/11/184 96/10/178
f 91/10/168 75/6/168 98/11/186
f 73/6/181 98/11/186 75/6/168
f 96/10/181 98/11/186 73/6/181
f 94/10/172 97/10/177 99/11/187
f 97/10/177 94/10/172 66/6/172
f 97/10/177 66/6/172 71/6/177
f 99/11/188 97/10/182 94/10/176
f 66/6/176 94/10/176 97/10/182
f 71/6/182 66/6/176 97/10/182
f 90/10/164 92/10/171 100/11/189
f 92/10/171 90/10/164 69/6/164
f 92/10/171 69/6/164 65/6/171
f 100/11/190 92/10/174 90/10/167
f 69/6/167 90/10/167 92/10/174
f 65/6/174 69/6/167 92/10/174
f 102/11/143 61/6/144 101/10/144
f 61/6/144 102/11/143 59/6/145
f 59/6/145 102/11/143 103/10/145
f 101/10/146 61/6/146 102/11/147
f 59/6/148 102/11/147 61/6/146
f 103/10/148 102/11/147 59/6/148
f 103/10/145 60/6/138 59/6/145
f 60/6/138 103/10/145 104/11/149
f 60/6/138 104/11/191 105/10/138
f 59/6/148 60/6/192 103/10/148
f 104/11/150 103/10/148 60/6/141
f 105/10/141 104/11/150 60/6/141
f 62/6/193 107/11/194 106/10/156
f 107/11/160 62/6/156 53/6/151
f 107/11/160 53/6/151 108/10/151
f 106/10/159 107/11/195 62/6/196
f 53/6/154 62/6/159 107/11/161
f 108/10/154 53/6/154 107/11/161
f 110/10/137 105/10/138 109/11/139
f 105/10/138 110/10/137 54/6/137
f 105/10/138 54/6/137 60/6/138
f 109/11/140 105/10/141 110/10/142
f 54/6/142 110/10/142 105/10/141
f 60/6/141 54/6/142 105/10/141
f 101/10/144 106/10/156 111/11/157
f 106/10/156 101/10/144 61/6/144
f 106/10/156 61/6/144 62/6/156
f 111/11/158 106/10/159 101/10/146
f 61/6/146 101/10/146 106/10/159
f 62/6/159 61/6/146 106/10/159
f 53/6/151 112/11/152 108/10/151
f 112/11/152 53/6/151 54/6/137
f 112/11/197 54/6/153 110/10/137
f 108/10/154 112/11/155 53/6/154
f 54/6/142 53/6/154 112/11/155
f 110/10/142 54/6/142 112/11/198
