# Blender 4.1.1
# www.blender.org
mtllib iron-fence-border-column.011.mtl
o iron-fence-border-column.009
v 20.133011 1.809235 -9.889440
v 20.133011 1.931736 -9.889440
v 20.133011 1.809235 -10.134441
v 20.133011 1.931736 -10.134441
v 19.888010 1.931736 -9.889440
v 19.888010 1.809235 -9.889440
v 19.888010 1.931736 -10.134441
v 19.888010 1.809235 -10.134441
v 20.133011 -0.086837 -10.134441
v 20.133011 0.182666 -10.134441
v 19.888010 -0.086837 -10.134441
v 19.888010 0.182666 -10.134441
v 20.110962 1.760234 -9.911489
v 20.110962 1.760234 -10.112391
v 20.110962 0.231666 -9.911489
v 20.110962 0.231666 -10.112391
v 19.888010 -0.086837 -9.889440
v 19.888010 0.182666 -9.889440
v 20.133011 0.182666 -9.889440
v 19.910059 0.231666 -9.911489
v 19.910059 1.760234 -9.911489
v 20.133011 -0.086837 -9.889440
v 19.910059 1.760234 -10.112391
v 19.910059 0.231666 -10.112391
v 20.402514 1.760234 -9.956815
v 20.347389 1.931736 -10.011941
v 20.402514 1.760234 -10.067066
v 20.292263 1.760234 -9.956815
v 20.292263 1.760234 -10.067066
v 20.384138 1.662233 -9.975190
v 20.384138 1.662233 -10.048691
v 20.310638 1.662233 -9.975190
v 20.310638 1.662233 -10.048691
v 21.015018 1.760234 -9.956816
v 20.959894 1.931736 -10.011941
v 21.015018 1.760234 -10.067066
v 20.904768 1.760234 -9.956816
v 20.904768 1.760234 -10.067066
v 20.996645 1.662233 -9.975190
v 20.996645 1.662233 -10.048691
v 20.923143 1.662233 -9.975190
v 20.923143 1.662233 -10.048691
v 22.240030 1.760234 -9.956816
v 22.184904 1.931736 -10.011941
v 22.240030 1.760234 -10.067066
v 22.129780 1.760234 -9.956816
v 22.129780 1.760234 -10.067066
v 22.221655 1.662233 -9.975190
v 22.221655 1.662233 -10.048691
v 22.148153 1.662233 -9.975190
v 22.148153 1.662233 -10.048691
v 20.708767 1.760234 -9.956815
v 20.653641 1.931736 -10.011941
v 20.708767 1.760234 -10.067066
v 20.598516 1.760234 -9.956815
v 20.598516 1.760234 -10.067066
v 20.690392 1.662233 -9.975190
v 20.690392 1.662233 -10.048691
v 20.616890 1.662233 -9.975190
v 20.616890 1.662233 -10.048691
v 21.627525 1.760234 -9.956816
v 21.572399 1.931736 -10.011941
v 21.627525 1.760234 -10.067066
v 21.517273 1.760234 -9.956816
v 21.517273 1.760234 -10.067066
v 21.609150 1.662233 -9.975190
v 21.609150 1.662233 -10.048691
v 21.535648 1.662233 -9.975190
v 21.535648 1.662233 -10.048691
v 21.321272 1.760234 -9.956816
v 21.266146 1.931736 -10.011941
v 21.321272 1.760234 -10.067066
v 21.211021 1.760234 -9.956816
v 21.211021 1.760234 -10.067066
v 21.302896 1.662233 -9.975190
v 21.302896 1.662233 -10.048691
v 21.229397 1.662233 -9.975190
v 21.229397 1.662233 -10.048691
v 21.933777 1.760234 -9.956816
v 21.878653 1.931736 -10.011941
v 21.933777 1.760234 -10.067066
v 21.823526 1.760234 -9.956816
v 21.823526 1.760234 -10.067066
v 21.915401 1.662233 -9.975190
v 21.915401 1.662233 -10.048691
v 21.841902 1.662233 -9.975190
v 21.841902 1.662233 -10.048691
v 20.133011 0.133665 -9.906590
v 20.133011 0.133665 -10.117291
v 22.338032 0.133665 -9.906590
v 22.338030 0.133665 -10.117292
v 20.133011 0.084665 -10.134441
v 22.338030 0.084665 -10.134442
v 22.338032 -0.086837 -9.889441
v 20.133011 -0.086837 -9.889440
v 22.338032 0.084665 -9.889440
v 20.133011 0.084665 -9.889440
v 20.133011 -0.086837 -10.134441
v 22.338030 -0.086837 -10.134442
v 20.310638 0.133665 -10.048691
v 20.384138 0.133665 -10.048691
v 20.310638 0.133665 -9.975190
v 20.384138 0.133665 -9.975190
v 20.923143 0.133665 -10.048691
v 20.996645 0.133665 -10.048691
v 20.923143 0.133665 -9.975190
v 20.996645 0.133665 -9.975190
v 22.148153 0.133665 -10.048691
v 22.221655 0.133665 -10.048691
v 22.148153 0.133665 -9.975191
v 22.221655 0.133665 -9.975191
v 20.616890 0.133665 -10.048691
v 20.690392 0.133665 -10.048691
v 20.616890 0.133665 -9.975190
v 20.690392 0.133665 -9.975190
v 21.535648 0.133665 -10.048691
v 21.609150 0.133665 -10.048691
v 21.535648 0.133665 -9.975190
v 21.609150 0.133665 -9.975190
v 21.229397 0.133665 -10.048691
v 21.302896 0.133665 -10.048691
v 21.229397 0.133665 -9.975190
v 21.302896 0.133665 -9.975190
v 21.841902 0.133665 -10.048691
v 21.915401 0.133665 -10.048691
v 21.841902 0.133665 -9.975191
v 21.915401 0.133665 -9.975191
v 20.110962 1.441731 -9.993566
v 20.110962 1.368231 -9.993566
v 20.110962 1.441731 -10.030315
v 20.110962 1.368231 -10.030315
v 22.338030 1.368231 -9.993566
v 22.338030 1.441731 -9.993566
v 22.338030 1.368231 -10.030316
v 22.338030 1.441731 -10.030316
v 22.338030 0.427668 -9.993566
v 22.338030 0.501168 -9.993566
v 22.338030 0.427668 -10.030316
v 22.338030 0.501168 -10.030316
v 20.110962 0.501168 -9.993566
v 20.110962 0.427668 -9.993566
v 20.110962 0.501168 -10.030315
v 20.110962 0.427668 -10.030315
vn 0.9837 -0.1800 -0.0000
vn 1.0000 -0.0000 -0.0000
vn -1.0000 -0.0000 -0.0000
vn -0.9837 -0.1800 -0.0000
vn -0.0000 -0.0000 -1.0000
vn -0.0000 0.1800 -0.9837
vn 0.9119 -0.4103 -0.0000
vn 0.9836 -0.1801 -0.0000
vn -0.9837 0.1800 -0.0000
vn 0.9837 0.1801 -0.0000
vn 0.9119 0.4103 -0.0000
vn 0.9836 0.1801 -0.0000
vn -0.0000 -0.0000 1.0000
vn -0.0000 0.1800 0.9837
vn -0.0000 -0.1801 -0.9836
vn -0.0000 -0.4104 -0.9119
vn -0.0000 -0.4103 -0.9119
vn -0.0000 -0.1801 -0.9837
vn -0.0000 0.4104 0.9119
vn -0.0000 0.1801 0.9836
vn -0.9837 -0.1801 -0.0000
vn -0.9119 -0.4103 -0.0000
vn -0.9836 -0.1801 -0.0000
vn -0.9119 0.4103 -0.0000
vn -0.9837 0.1801 -0.0000
vn -0.9836 0.1801 -0.0000
vn -0.0000 -0.1801 0.9836
vn -0.0000 -0.4104 0.9119
vn -0.0000 -0.1800 -0.9837
vn -0.0000 -0.1800 0.9837
vn -0.0000 0.4103 -0.9119
vn -0.0000 0.1801 -0.9837
vn -0.0000 0.1801 -0.9836
vn -0.0000 0.4104 -0.9119
vn -0.0000 1.0000 -0.0000
vn -0.0000 -1.0000 -0.0000
vn 0.9837 0.1800 -0.0000
vn 0.9987 0.0519 -0.0000
vn 0.9520 0.3060 -0.0000
vn -0.0000 0.3060 0.9520
vn -0.0000 0.0519 0.9987
vn -0.9987 0.0519 -0.0000
vn -0.9520 0.3060 -0.0000
vn -0.0000 0.3060 -0.9520
vn -0.0000 0.0519 -0.9987
vn 0.9829 -0.1843 -0.0000
vn 0.9987 0.0518 -0.0000
vn -0.9987 0.0518 -0.0000
vn -0.9829 -0.1843 -0.0000
vn -0.0000 0.0518 0.9987
vn -0.0000 -0.1843 0.9829
vn -0.0000 0.0518 -0.9987
vn -0.0000 -0.1843 -0.9829
vn -0.0000 0.3303 -0.9439
vn -0.0000 0.1676 -0.9859
vn -0.0000 0.1675 -0.9859
vn -0.0000 0.1675 0.9859
vn -0.0000 0.3304 0.9439
vn -0.0000 0.1676 0.9859
vn -0.0000 0.3303 0.9439
vn 1.0000 -0.0000 0.0002
vt 0.843750 0.212863
vt 0.843750 0.225000
vt 0.843750 0.025000
vt 0.843750 0.051702
vt 0.843750 0.208008
vt 0.843750 0.056557
vt 0.843750 0.198298
vt 0.843750 0.180556
vt 0.593750 0.448298
vt 0.593750 0.296847
vt 0.531250 0.375000
s 0
usemtl colormap.125
f 3/1/1 2/2/2 1/1/1
f 2/2/2 3/1/1 4/2/2
f 7/2/3 6/1/4 5/2/3
f 6/1/4 7/2/3 8/1/4
f 11/3/5 10/4/6 9/3/5
f 10/4/6 11/3/5 12/4/6
f 13/5/7 3/1/8 1/1/8
f 3/1/8 13/5/7 14/5/7
f 16/6/2 13/5/2 15/6/2
f 13/5/2 16/6/2 14/5/2
f 18/4/9 11/3/3 17/3/3
f 11/3/3 18/4/9 12/4/9
f 10/4/10 15/6/11 19/4/10
f 15/6/11 10/4/12 16/6/11
f 13/5/13 20/6/13 15/6/13
f 20/6/13 13/5/13 21/5/13
f 19/4/14 17/3/13 22/3/13
f 17/3/13 19/4/14 18/4/14
f 8/1/15 14/5/16 23/5/16
f 14/5/17 8/1/18 3/1/18
f 15/6/19 18/4/20 19/4/20
f 18/4/20 15/6/19 20/6/19
f 8/1/21 21/5/22 6/1/21
f 21/5/22 8/1/23 23/5/22
f 20/6/24 12/4/25 18/4/25
f 12/4/26 20/6/24 24/6/24
f 23/5/5 16/6/5 24/6/5
f 16/6/5 23/5/5 14/5/5
f 23/5/3 20/6/3 21/5/3
f 20/6/3 23/5/3 24/6/3
f 1/1/27 21/5/28 13/5/28
f 21/5/28 1/1/27 6/1/27
f 7/2/5 3/1/29 8/1/29
f 3/1/29 7/2/5 4/2/5
f 2/2/13 6/1/30 1/1/30
f 6/1/30 2/2/13 5/2/13
f 24/6/31 10/4/32 12/4/32
f 10/4/33 24/6/34 16/6/34
f 2/2/35 7/2/35 5/2/35
f 7/2/35 2/2/35 4/2/35
f 9/3/36 17/3/36 11/3/36
f 17/3/36 9/3/36 22/3/36
f 9/3/2 19/4/37 22/3/2
f 19/4/37 9/3/2 10/4/37
f 27/5/38 26/2/39 25/5/38
f 26/2/40 28/5/41 25/5/41
f 29/5/42 28/5/42 26/2/43
f 26/2/44 27/5/45 29/5/45
f 30/7/46 27/5/47 25/5/47
f 27/5/47 30/7/46 31/7/46
f 29/5/48 32/7/49 28/5/48
f 32/7/49 29/5/48 33/7/49
f 25/5/50 32/7/51 30/7/51
f 32/7/51 25/5/50 28/5/50
f 29/5/52 31/7/53 33/7/53
f 31/7/53 29/5/52 27/5/52
f 36/5/38 35/2/39 34/5/38
f 35/2/40 37/5/41 34/5/41
f 38/5/42 37/5/42 35/2/43
f 35/2/44 36/5/45 38/5/45
f 39/7/46 36/5/47 34/5/47
f 36/5/47 39/7/46 40/7/46
f 38/5/48 41/7/49 37/5/48
f 41/7/49 38/5/48 42/7/49
f 34/5/50 41/7/51 39/7/51
f 41/7/51 34/5/50 37/5/50
f 38/5/52 40/7/53 42/7/53
f 40/7/53 38/5/52 36/5/52
f 45/5/38 44/2/39 43/5/38
f 44/2/40 46/5/41 43/5/41
f 47/5/42 46/5/42 44/2/43
f 44/2/44 45/5/45 47/5/45
f 48/7/46 45/5/47 43/5/47
f 45/5/47 48/7/46 49/7/46
f 47/5/48 50/7/49 46/5/48
f 50/7/49 47/5/48 51/7/49
f 43/5/50 50/7/51 48/7/51
f 50/7/51 43/5/50 46/5/50
f 47/5/52 49/7/53 51/7/53
f 49/7/53 47/5/52 45/5/52
f 54/5/38 53/2/39 52/5/38
f 53/2/40 55/5/41 52/5/41
f 56/5/42 55/5/42 53/2/43
f 53/2/44 54/5/45 56/5/45
f 57/7/46 54/5/47 52/5/47
f 54/5/47 57/7/46 58/7/46
f 56/5/48 59/7/49 55/5/48
f 59/7/49 56/5/48 60/7/49
f 52/5/50 59/7/51 57/7/51
f 59/7/51 52/5/50 55/5/50
f 56/5/52 58/7/53 60/7/53
f 58/7/53 56/5/52 54/5/52
f 63/5/38 62/2/39 61/5/38
f 62/2/40 64/5/41 61/5/41
f 65/5/42 64/5/42 62/2/43
f 62/2/44 63/5/45 65/5/45
f 66/7/46 63/5/47 61/5/47
f 63/5/47 66/7/46 67/7/46
f 65/5/48 68/7/49 64/5/48
f 68/7/49 65/5/48 69/7/49
f 61/5/50 68/7/51 66/7/51
f 68/7/51 61/5/50 64/5/50
f 65/5/52 67/7/53 69/7/53
f 67/7/53 65/5/52 63/5/52
f 72/5/38 71/2/39 70/5/38
f 71/2/40 73/5/41 70/5/41
f 74/5/42 73/5/42 71/2/43
f 71/2/44 72/5/45 74/5/45
f 75/7/46 72/5/47 70/5/47
f 72/5/47 75/7/46 76/7/46
f 74/5/48 77/7/49 73/5/48
f 77/7/49 74/5/48 78/7/49
f 70/5/41 77/7/51 75/7/51
f 77/7/51 70/5/50 73/5/50
f 74/5/52 76/7/53 78/7/53
f 76/7/53 74/5/52 72/5/52
f 81/5/38 80/2/39 79/5/38
f 80/2/40 82/5/41 79/5/41
f 83/5/42 82/5/42 80/2/43
f 80/2/44 81/5/45 83/5/45
f 84/7/46 81/5/47 79/5/47
f 81/5/47 84/7/46 85/7/46
f 83/5/48 86/7/49 82/5/48
f 86/7/49 83/5/48 87/7/49
f 79/5/41 86/7/51 84/7/51
f 86/7/51 79/5/50 82/5/50
f 83/5/52 85/7/53 87/7/53
f 85/7/53 83/5/52 81/5/52
f 90/2/35 89/2/35 88/2/35
f 89/2/35 90/2/35 91/2/35
f 89/2/54 93/8/55 92/8/55
f 93/8/56 89/2/54 91/2/54
f 96/8/57 95/3/13 94/3/13
f 95/3/13 96/8/57 97/8/57
f 99/3/36 95/3/36 98/3/36
f 95/3/36 99/3/36 94/3/36
f 88/2/3 95/3/3 97/8/3
f 95/3/3 88/2/3 98/3/3
f 98/3/3 88/2/3 89/2/3
f 98/3/3 89/2/3 92/8/3
f 92/8/56 99/3/5 98/3/5
f 99/3/5 92/8/56 93/8/56
f 90/2/58 97/8/59 96/8/59
f 97/8/57 90/2/60 88/2/60
f 99/3/2 96/8/2 94/3/2
f 96/8/2 99/3/2 90/2/2
f 90/2/2 99/3/2 91/2/2
f 91/2/61 99/3/61 93/8/61
f 33/9/5 101/10/5 100/10/5
f 101/10/5 33/9/5 31/9/5
f 101/10/36 102/10/36 100/10/36
f 102/10/36 101/10/36 103/10/36
f 30/9/13 102/10/13 103/10/13
f 102/10/13 30/9/13 32/9/13
f 101/10/2 30/9/2 103/10/2
f 30/9/2 101/10/2 31/9/2
f 33/9/3 102/10/3 32/9/3
f 102/10/3 33/9/3 100/10/3
f 42/9/5 105/10/5 104/10/5
f 105/10/5 42/9/5 40/9/5
f 105/10/36 106/10/36 104/10/36
f 106/10/36 105/10/36 107/10/36
f 39/9/13 106/10/13 107/10/13
f 106/10/13 39/9/13 41/9/13
f 105/10/2 39/9/2 107/10/2
f 39/9/2 105/10/2 40/9/2
f 42/9/3 106/10/3 41/9/3
f 106/10/3 42/9/3 104/10/3
f 51/9/5 109/10/5 108/10/5
f 109/10/5 51/9/5 49/9/5
f 109/10/36 110/10/36 108/10/36
f 110/10/36 109/10/36 111/10/36
f 48/9/13 110/10/13 111/10/13
f 110/10/13 48/9/13 50/9/13
f 109/10/2 48/9/2 111/10/2
f 48/9/2 109/10/2 49/9/2
f 51/9/3 110/10/3 50/9/3
f 110/10/3 51/9/3 108/10/3
f 60/9/5 113/10/5 112/10/5
f 113/10/5 60/9/5 58/9/5
f 113/10/36 114/10/36 112/10/36
f 114/10/36 113/10/36 115/10/36
f 57/9/13 114/10/13 115/10/13
f 114/10/13 57/9/13 59/9/13
f 113/10/2 57/9/2 115/10/2
f 57/9/2 113/10/2 58/9/2
f 60/9/3 114/10/3 59/9/3
f 114/10/3 60/9/3 112/10/3
f 69/9/5 117/10/5 116/10/5
f 117/10/5 69/9/5 67/9/5
f 117/10/36 118/10/36 116/10/36
f 118/10/36 117/10/36 119/10/36
f 66/9/13 118/10/13 119/10/13
f 118/10/13 66/9/13 68/9/13
f 117/10/2 66/9/2 119/10/2
f 66/9/2 117/10/2 67/9/2
f 69/9/3 118/10/3 68/9/3
f 118/10/3 69/9/3 116/10/3
f 78/9/5 121/10/5 120/10/5
f 121/10/5 78/9/5 76/9/5
f 121/10/36 122/10/36 120/10/36
f 122/10/36 121/10/36 123/10/36
f 75/9/13 122/10/13 123/10/13
f 122/10/13 75/9/13 77/9/13
f 121/10/2 75/9/2 123/10/2
f 75/9/2 121/10/2 76/9/2
f 78/9/3 122/10/3 77/9/3
f 122/10/3 78/9/3 120/10/3
f 87/9/5 125/10/5 124/10/5
f 125/10/5 87/9/5 85/9/5
f 125/10/36 126/10/36 124/10/36
f 126/10/36 125/10/36 127/10/36
f 84/9/13 126/10/13 127/10/13
f 126/10/13 84/9/13 86/9/13
f 125/10/2 84/9/2 127/10/2
f 84/9/2 125/10/2 85/9/2
f 87/9/3 126/10/3 86/9/3
f 126/10/3 87/9/3 124/10/3
f 130/11/3 129/11/3 128/11/3
f 129/11/3 130/11/3 131/11/3
f 134/11/2 133/11/2 132/11/2
f 133/11/2 134/11/2 135/11/2
f 130/11/5 134/11/5 131/11/5
f 134/11/5 130/11/5 135/11/5
f 134/11/36 129/11/36 131/11/36
f 129/11/36 134/11/36 132/11/36
f 133/11/35 130/11/35 128/11/35
f 130/11/35 133/11/35 135/11/35
f 133/11/13 129/11/13 132/11/13
f 129/11/13 133/11/13 128/11/13
f 138/11/2 137/11/2 136/11/2
f 137/11/2 138/11/2 139/11/2
f 142/11/3 141/11/3 140/11/3
f 141/11/3 142/11/3 143/11/3
f 137/11/35 142/11/35 140/11/35
f 142/11/35 137/11/35 139/11/35
f 137/11/13 141/11/13 136/11/13
f 141/11/13 137/11/13 140/11/13
f 138/11/36 141/11/36 143/11/36
f 141/11/36 138/11/36 136/11/36
f 142/11/5 138/11/5 143/11/5
f 138/11/5 142/11/5 139/11/5
f 3/1/1 2/2/2 1/1/1
f 2/2/2 3/1/1 4/2/2
f 7/2/3 6/1/4 5/2/3
f 6/1/4 7/2/3 8/1/4
f 11/3/5 10/4/6 9/3/5
f 10/4/6 11/3/5 12/4/6
f 13/5/7 3/1/8 1/1/8
f 3/1/8 13/5/7 14/5/7
f 16/6/2 13/5/2 15/6/2
f 13/5/2 16/6/2 14/5/2
f 18/4/9 11/3/3 17/3/3
f 11/3/3 18/4/9 12/4/9
f 10/4/10 15/6/11 19/4/10
f 15/6/11 10/4/12 16/6/11
f 13/5/13 20/6/13 15/6/13
f 20/6/13 13/5/13 21/5/13
f 19/4/14 17/3/13 22/3/13
f 17/3/13 19/4/14 18/4/14
f 8/1/15 14/5/16 23/5/16
f 14/5/17 8/1/18 3/1/18
f 15/6/19 18/4/20 19/4/20
f 18/4/20 15/6/19 20/6/19
f 8/1/21 21/5/22 6/1/21
f 21/5/22 8/1/23 23/5/22
f 20/6/24 12/4/25 18/4/25
f 12/4/26 20/6/24 24/6/24
f 23/5/5 16/6/5 24/6/5
f 16/6/5 23/5/5 14/5/5
f 23/5/3 20/6/3 21/5/3
f 20/6/3 23/5/3 24/6/3
f 1/1/27 21/5/28 13/5/28
f 21/5/28 1/1/27 6/1/27
f 7/2/5 3/1/29 8/1/29
f 3/1/29 7/2/5 4/2/5
f 2/2/13 6/1/30 1/1/30
f 6/1/30 2/2/13 5/2/13
f 24/6/31 10/4/32 12/4/32
f 10/4/33 24/6/34 16/6/34
f 2/2/35 7/2/35 5/2/35
f 7/2/35 2/2/35 4/2/35
f 9/3/36 17/3/36 11/3/36
f 17/3/36 9/3/36 22/3/36
f 9/3/2 19/4/37 22/3/2
f 19/4/37 9/3/2 10/4/37
f 27/5/38 26/2/39 25/5/38
f 26/2/40 28/5/41 25/5/41
f 29/5/42 28/5/42 26/2/43
f 26/2/44 27/5/45 29/5/45
f 30/7/46 27/5/47 25/5/47
f 27/5/47 30/7/46 31/7/46
f 29/5/48 32/7/49 28/5/48
f 32/7/49 29/5/48 33/7/49
f 25/5/50 32/7/51 30/7/51
f 32/7/51 25/5/50 28/5/50
f 29/5/52 31/7/53 33/7/53
f 31/7/53 29/5/52 27/5/52
f 36/5/38 35/2/39 34/5/38
f 35/2/40 37/5/41 34/5/41
f 38/5/42 37/5/42 35/2/43
f 35/2/44 36/5/45 38/5/45
f 39/7/46 36/5/47 34/5/47
f 36/5/47 39/7/46 40/7/46
f 38/5/48 41/7/49 37/5/48
f 41/7/49 38/5/48 42/7/49
f 34/5/50 41/7/51 39/7/51
f 41/7/51 34/5/50 37/5/50
f 38/5/52 40/7/53 42/7/53
f 40/7/53 38/5/52 36/5/52
f 45/5/38 44/2/39 43/5/38
f 44/2/40 46/5/41 43/5/41
f 47/5/42 46/5/42 44/2/43
f 44/2/44 45/5/45 47/5/45
f 48/7/46 45/5/47 43/5/47
f 45/5/47 48/7/46 49/7/46
f 47/5/48 50/7/49 46/5/48
f 50/7/49 47/5/48 51/7/49
f 43/5/50 50/7/51 48/7/51
f 50/7/51 43/5/50 46/5/50
f 47/5/52 49/7/53 51/7/53
f 49/7/53 47/5/52 45/5/52
f 54/5/38 53/2/39 52/5/38
f 53/2/40 55/5/41 52/5/41
f 56/5/42 55/5/42 53/2/43
f 53/2/44 54/5/45 56/5/45
f 57/7/46 54/5/47 52/5/47
f 54/5/47 57/7/46 58/7/46
f 56/5/48 59/7/49 55/5/48
f 59/7/49 56/5/48 60/7/49
f 52/5/50 59/7/51 57/7/51
f 59/7/51 52/5/50 55/5/50
f 56/5/52 58/7/53 60/7/53
f 58/7/53 56/5/52 54/5/52
f 63/5/38 62/2/39 61/5/38
f 62/2/40 64/5/41 61/5/41
f 65/5/42 64/5/42 62/2/43
f 62/2/44 63/5/45 65/5/45
f 66/7/46 63/5/47 61/5/47
f 63/5/47 66/7/46 67/7/46
f 65/5/48 68/7/49 64/5/48
f 68/7/49 65/5/48 69/7/49
f 61/5/50 68/7/51 66/7/51
f 68/7/51 61/5/50 64/5/50
f 65/5/52 67/7/53 69/7/53
f 67/7/53 65/5/52 63/5/52
f 72/5/38 71/2/39 70/5/38
f 71/2/40 73/5/41 70/5/41
f 74/5/42 73/5/42 71/2/43
f 71/2/44 72/5/45 74/5/45
f 75/7/46 72/5/47 70/5/47
f 72/5/47 75/7/46 76/7/46
f 74/5/48 77/7/49 73/5/48
f 77/7/49 74/5/48 78/7/49
f 70/5/41 77/7/51 75/7/51
f 77/7/51 70/5/50 73/5/50
f 74/5/52 76/7/53 78/7/53
f 76/7/53 74/5/52 72/5/52
f 81/5/38 80/2/39 79/5/38
f 80/2/40 82/5/41 79/5/41
f 83/5/42 82/5/42 80/2/43
f 80/2/44 81/5/45 83/5/45
f 84/7/46 81/5/47 79/5/47
f 81/5/47 84/7/46 85/7/46
f 83/5/48 86/7/49 82/5/48
f 86/7/49 83/5/48 87/7/49
f 79/5/41 86/7/51 84/7/51
f 86/7/51 79/5/50 82/5/50
f 83/5/52 85/7/53 87/7/53
f 85/7/53 83/5/52 81/5/52
f 90/2/35 89/2/35 88/2/35
f 89/2/35 90/2/35 91/2/35
f 89/2/54 93/8/55 92/8/55
f 93/8/56 89/2/54 91/2/54
f 96/8/57 95/3/13 94/3/13
f 95/3/13 96/8/57 97/8/57
f 99/3/36 95/3/36 98/3/36
f 95/3/36 99/3/36 94/3/36
f 88/2/3 95/3/3 97/8/3
f 95/3/3 88/2/3 98/3/3
f 98/3/3 88/2/3 89/2/3
f 98/3/3 89/2/3 92/8/3
f 92/8/56 99/3/5 98/3/5
f 99/3/5 92/8/56 93/8/56
f 90/2/58 97/8/59 96/8/59
f 97/8/57 90/2/60 88/2/60
f 99/3/2 96/8/2 94/3/2
f 96/8/2 99/3/2 90/2/2
f 90/2/2 99/3/2 91/2/2
f 91/2/61 99/3/61 93/8/61
f 33/9/5 101/10/5 100/10/5
f 101/10/5 33/9/5 31/9/5
f 101/10/36 102/10/36 100/10/36
f 102/10/36 101/10/36 103/10/36
f 30/9/13 102/10/13 103/10/13
f 102/10/13 30/9/13 32/9/13
f 101/10/2 30/9/2 103/10/2
f 30/9/2 101/10/2 31/9/2
f 33/9/3 102/10/3 32/9/3
f 102/10/3 33/9/3 100/10/3
f 42/9/5 105/10/5 104/10/5
f 105/10/5 42/9/5 40/9/5
f 105/10/36 106/10/36 104/10/36
f 106/10/36 105/10/36 107/10/36
f 39/9/13 106/10/13 107/10/13
f 106/10/13 39/9/13 41/9/13
f 105/10/2 39/9/2 107/10/2
f 39/9/2 105/10/2 40/9/2
f 42/9/3 106/10/3 41/9/3
f 106/10/3 42/9/3 104/10/3
f 51/9/5 109/10/5 108/10/5
f 109/10/5 51/9/5 49/9/5
f 109/10/36 110/10/36 108/10/36
f 110/10/36 109/10/36 111/10/36
f 48/9/13 110/10/13 111/10/13
f 110/10/13 48/9/13 50/9/13
f 109/10/2 48/9/2 111/10/2
f 48/9/2 109/10/2 49/9/2
f 51/9/3 110/10/3 50/9/3
f 110/10/3 51/9/3 108/10/3
f 60/9/5 113/10/5 112/10/5
f 113/10/5 60/9/5 58/9/5
f 113/10/36 114/10/36 112/10/36
f 114/10/36 113/10/36 115/10/36
f 57/9/13 114/10/13 115/10/13
f 114/10/13 57/9/13 59/9/13
f 113/10/2 57/9/2 115/10/2
f 57/9/2 113/10/2 58/9/2
f 60/9/3 114/10/3 59/9/3
f 114/10/3 60/9/3 112/10/3
f 69/9/5 117/10/5 116/10/5
f 117/10/5 69/9/5 67/9/5
f 117/10/36 118/10/36 116/10/36
f 118/10/36 117/10/36 119/10/36
f 66/9/13 118/10/13 119/10/13
f 118/10/13 66/9/13 68/9/13
f 117/10/2 66/9/2 119/10/2
f 66/9/2 117/10/2 67/9/2
f 69/9/3 118/10/3 68/9/3
f 118/10/3 69/9/3 116/10/3
f 78/9/5 121/10/5 120/10/5
f 121/10/5 78/9/5 76/9/5
f 121/10/36 122/10/36 120/10/36
f 122/10/36 121/10/36 123/10/36
f 75/9/13 122/10/13 123/10/13
f 122/10/13 75/9/13 77/9/13
f 121/10/2 75/9/2 123/10/2
f 75/9/2 121/10/2 76/9/2
f 78/9/3 122/10/3 77/9/3
f 122/10/3 78/9/3 120/10/3
f 87/9/5 125/10/5 124/10/5
f 125/10/5 87/9/5 85/9/5
f 125/10/36 126/10/36 124/10/36
f 126/10/36 125/10/36 127/10/36
f 84/9/13 126/10/13 127/10/13
f 126/10/13 84/9/13 86/9/13
f 125/10/2 84/9/2 127/10/2
f 84/9/2 125/10/2 85/9/2
f 87/9/3 126/10/3 86/9/3
f 126/10/3 87/9/3 124/10/3
f 130/11/3 129/11/3 128/11/3
f 129/11/3 130/11/3 131/11/3
f 134/11/2 133/11/2 132/11/2
f 133/11/2 134/11/2 135/11/2
f 130/11/5 134/11/5 131/11/5
f 134/11/5 130/11/5 135/11/5
f 134/11/36 129/11/36 131/11/36
f 129/11/36 134/11/36 132/11/36
f 133/11/35 130/11/35 128/11/35
f 130/11/35 133/11/35 135/11/35
f 133/11/13 129/11/13 132/11/13
f 129/11/13 133/11/13 128/11/13
f 138/11/2 137/11/2 136/11/2
f 137/11/2 138/11/2 139/11/2
f 142/11/3 141/11/3 140/11/3
f 141/11/3 142/11/3 143/11/3
f 137/11/35 142/11/35 140/11/35
f 142/11/35 137/11/35 139/11/35
f 137/11/13 141/11/13 136/11/13
f 141/11/13 137/11/13 140/11/13
f 138/11/36 141/11/36 143/11/36
f 141/11/36 138/11/36 136/11/36
f 142/11/5 138/11/5 143/11/5
f 138/11/5 142/11/5 139/11/5
