# Blender 4.1.1
# www.blender.org
mtllib tree.043.mtl
o tree.043
v -5.669856 -0.382804 -18.085670
v -5.455218 -0.382804 -17.965111
v -5.716895 -0.382804 -18.253269
v -5.287619 -0.382804 -18.012150
v -5.596334 -0.382804 -18.467907
v -5.167058 -0.382804 -18.226788
v -5.428735 -0.382804 -18.514946
v -5.214097 -0.382804 -18.394386
v -5.448597 0.062918 -18.102570
v -5.555916 0.062918 -18.162849
v -5.579436 0.062918 -18.246649
v -5.364798 0.062918 -18.126089
v -5.304518 0.062918 -18.233408
v -5.328037 0.062918 -18.317207
v -5.435356 0.062918 -18.377487
v -5.519156 0.062918 -18.353968
v -5.299552 0.731552 -18.336502
v -5.433701 0.731552 -18.411852
v -5.538450 0.731552 -18.382452
v -5.450253 0.731552 -18.068205
v -5.584401 0.731552 -18.143555
v -5.270153 0.731552 -18.231752
v -5.345503 0.731552 -18.097605
v -5.613801 0.731552 -18.248304
v -5.489156 0.222058 -18.033176
v -5.548858 0.222058 -18.109104
v -5.393250 0.222058 -18.021702
v -5.317322 0.222058 -18.081404
v -5.537384 0.222058 -18.205009
v -5.305847 0.222058 -18.177309
v -5.461454 0.222058 -18.264711
v -5.365549 0.222058 -18.253239
v -5.524162 0.060318 -17.970852
v -5.373935 0.060318 -17.952879
v -5.617681 0.060318 -18.089788
v -5.599707 0.060318 -18.240017
v -5.254998 0.060318 -18.046396
v -5.480771 0.060318 -18.333534
v -5.237025 0.060318 -18.196625
v -5.330543 0.060318 -18.315561
v -6.049161 0.731552 -18.243185
v -5.748924 0.731552 -18.777710
v -5.797822 1.468507 -18.246157
v -5.620681 1.468507 -18.561529
v -5.123339 0.731552 -17.723160
v -5.736369 0.731552 -17.715910
v -5.251583 1.468507 -17.939339
v -5.613273 1.468507 -17.935062
v -4.823102 0.731552 -18.257683
v -5.074442 1.468507 -18.254711
v -5.258991 1.468507 -18.565805
v -5.135894 0.731552 -18.784958
v -5.609249 2.260255 -17.942226
v -5.789606 2.260255 -18.246254
v -5.475923 3.090716 -18.179594
v -5.517377 3.090716 -18.249474
v -5.396341 3.090716 -18.321274
v -5.477586 3.090716 -18.320314
v -5.263015 2.260255 -18.558641
v -5.616488 2.260255 -18.554462
v -5.082658 2.260255 -18.254614
v -5.255775 2.260255 -17.946407
v -5.354887 3.090716 -18.251394
v -5.394678 3.090716 -18.180553
v -5.430239 1.468507 -17.752035
v -5.864811 1.468507 -17.996132
v -5.433432 2.260255 -18.022062
v -5.632557 2.260255 -18.133909
v -5.001560 1.468507 -18.006338
v -5.237006 2.260255 -18.138586
v -5.870704 1.468507 -18.494530
v -5.635258 2.260255 -18.362282
v -5.442025 1.468507 -18.748833
v -5.438832 2.260255 -18.478806
v -5.007453 1.468507 -18.504738
v -5.239707 2.260255 -18.366959
v -6.000884 0.501649 -18.567650
v -5.783331 0.616601 -18.835709
v -6.116595 0.616601 -18.242388
v -4.755669 0.616601 -18.258480
v -4.879039 0.501649 -18.580915
v -5.102868 0.616601 -18.843756
v -5.443790 0.501649 -18.898132
v -5.769395 0.616601 -17.657112
v -5.993225 0.501649 -17.919952
v -4.871380 0.501649 -17.933218
v -5.088932 0.616601 -17.665159
v -5.428473 0.501649 -17.602737
v -4.909549 1.281595 -18.256660
v -4.953757 1.375051 -17.979488
v -4.960298 1.375051 -18.532711
v -5.429590 1.375051 -17.697212
v -5.694031 1.281595 -17.791286
v -5.911965 1.375051 -17.968159
v -5.704816 1.281595 -18.703356
v -5.442673 1.375051 -18.803656
v -5.918507 1.375051 -18.521379
v -5.178233 1.281595 -18.709581
v -5.962715 1.281595 -18.244207
v -5.167448 1.281595 -17.797512
v -5.043776 2.193974 -18.255074
v -5.114911 2.127692 -18.440990
v -5.243972 2.193974 -18.592545
v -5.440548 2.127692 -18.623898
v -5.636328 2.193974 -18.587904
v -5.235936 2.193974 -17.912964
v -5.431716 2.127692 -17.876970
v -5.628292 2.193974 -17.908323
v -5.761768 2.127692 -18.433342
v -5.828488 2.193974 -18.245794
v -5.110495 2.127692 -18.067528
v -5.757352 2.127692 -18.059877
vn -0.0000 -1.0000 -0.0000
vn -0.1190 0.2942 0.9483
vn -0.7540 0.2944 0.5873
vn -0.1092 0.2944 0.9494
vn -0.7479 0.2942 0.5951
vn -0.9483 0.2942 -0.1189
vn -0.7540 0.2944 0.5872
vn -0.7480 0.2942 0.5950
vn -0.9494 0.2944 -0.1091
vn 0.5950 0.2942 0.7480
vn -0.1091 0.2944 0.9494
vn 0.5872 0.2944 0.7540
vn -0.1189 0.2942 0.9483
vn 0.9483 0.2942 0.1190
vn 0.5873 0.2944 0.7540
vn 0.9494 0.2944 0.1092
vn 0.5951 0.2942 0.7479
vn 0.1092 0.2944 -0.9494
vn 0.7479 0.2942 -0.5951
vn 0.7540 0.2944 -0.5873
vn 0.1190 0.2942 -0.9483
vn -0.9483 0.2942 -0.1190
vn -0.5873 0.2944 -0.7540
vn -0.9494 0.2944 -0.1092
vn -0.5873 0.2944 -0.7539
vn -0.5951 0.2942 -0.7479
vn 0.7540 0.2944 -0.5872
vn 0.9483 0.2942 0.1189
vn 0.9494 0.2944 0.1091
vn 0.7480 0.2942 -0.5950
vn 0.1091 0.2944 -0.9494
vn -0.5950 0.2942 -0.7480
vn 0.1189 0.2942 -0.9483
vn -0.5950 0.2942 -0.7479
vn -0.5872 0.2944 -0.7540
vn 0.7845 -0.0513 -0.6180
vn 0.1178 -0.0512 -0.9917
vn 0.7856 -0.0513 -0.6166
vn 0.1178 -0.0513 -0.9917
vn 0.1196 -0.0513 -0.9915
vn -0.6180 -0.0512 -0.7845
vn 0.1195 -0.0512 -0.9915
vn -0.6180 -0.0513 -0.7845
vn -0.6166 -0.0512 -0.7856
vn -0.7856 -0.0512 0.6166
vn -0.1196 -0.0513 0.9915
vn -0.1178 -0.0513 0.9917
vn -0.7845 -0.0513 0.6180
vn 0.9917 -0.0513 0.1178
vn 0.6180 -0.0513 0.7845
vn 0.9915 -0.0513 0.1196
vn 0.9917 -0.0512 0.1178
vn 0.6166 -0.0513 0.7856
vn -0.7856 -0.0513 0.6166
vn -0.9915 -0.0513 -0.1195
vn -0.9917 -0.0513 -0.1178
vn 0.9915 -0.0513 0.1195
vn 0.7856 -0.0512 -0.6166
vn 0.6166 -0.0512 0.7856
vn 0.6180 -0.0512 0.7845
vn -0.1195 -0.0512 0.9915
vn -0.9915 -0.0513 -0.1196
vn -0.9917 -0.0512 -0.1178
vn -0.6166 -0.0513 -0.7856
vn -0.0000 1.0000 -0.0000
vn 0.2471 0.4042 0.8806
vn -0.4479 0.4042 0.7975
vn -0.4479 0.4043 0.7975
vn -0.7975 0.4042 -0.4480
vn -0.2472 0.4042 -0.8806
vn -0.2472 0.4043 -0.8806
vn 0.4479 0.4042 -0.7975
vn -0.2471 0.4042 -0.8806
vn 0.7975 0.4042 0.4480
vn 0.2472 0.4042 0.8806
vn 0.2472 0.4043 0.8806
vn -0.8807 0.4042 0.2471
vn -0.7975 0.4042 -0.4479
vn -0.8806 0.4042 0.2471
vn -0.7975 0.4043 -0.4479
vn 0.8807 0.4042 -0.2471
vn 0.7975 0.4042 0.4479
vn 0.8806 0.4042 -0.2471
vn 0.7975 0.4043 0.4479
vn -0.8806 0.4042 0.2472
vn -0.4479 0.4043 0.7974
vn -0.4480 0.4042 0.7975
vn 0.4480 0.4042 -0.7975
vn 0.8806 0.4042 -0.2472
vn 0.4480 0.4043 -0.7974
vn -0.9464 0.3228 0.0112
vn -0.4829 0.3228 -0.8140
vn 0.4829 0.3228 0.8140
vn -0.4635 0.3228 0.8252
vn 0.9464 0.3228 -0.0112
vn 0.4635 0.3228 -0.8252
vn -0.3368 0.7260 0.5996
vn -0.9502 0.3115 0.0112
vn -0.4654 0.3115 0.8285
vn -0.9502 0.3115 0.0113
vn -0.3368 0.7260 0.5997
vn -0.6877 0.7260 0.0081
vn 0.4654 0.3115 -0.8285
vn -0.3509 0.7260 -0.5915
vn 0.3369 0.7260 -0.5996
vn -0.4848 0.3115 -0.8173
vn 0.6877 0.7260 -0.0082
vn 0.4848 0.3115 0.8173
vn 0.9502 0.3115 -0.0112
vn 0.4848 0.3115 0.8172
vn 0.3509 0.7260 0.5915
vn -0.4653 0.3115 0.8285
vn -0.3369 0.7260 0.5996
vn 0.3509 0.7259 0.5915
vn -0.6877 0.7259 0.0082
vn -0.3368 0.7259 0.5996
vn -0.6877 0.7259 0.0081
vn -0.3509 0.7259 -0.5915
vn 0.6877 0.7260 -0.0081
vn 0.6877 0.7259 -0.0082
vn 0.3368 0.7259 -0.5996
vn 0.4654 0.3116 -0.8285
vn 0.6876 0.7260 -0.0081
vn 0.3368 0.7260 -0.5996
vn -0.6877 0.7260 0.0082
vn -0.3508 0.7260 -0.5915
vn 0.0112 0.3228 0.9464
vn -0.8140 0.3228 0.4829
vn 0.8252 0.3228 0.4635
vn -0.8252 0.3228 -0.4635
vn -0.0112 0.3228 -0.9464
vn 0.8140 0.3228 -0.4829
vn -0.8625 0.5060 0.0102
vn -0.4401 0.5060 -0.7418
vn -0.7773 0.4530 -0.4366
vn 0.7773 -0.4530 0.4366
vn 0.4401 -0.5060 0.7418
vn 0.8625 -0.5060 -0.0102
vn 0.7668 0.4530 -0.4549
vn 0.8624 0.5060 -0.0102
vn 0.8625 0.5060 -0.0102
vn 0.4224 0.5060 -0.7520
vn 0.7668 0.4529 -0.4549
vn -0.8625 -0.5060 0.0102
vn -0.7668 -0.4530 0.4549
vn -0.4224 -0.5060 0.7520
vn -0.7668 -0.4529 0.4549
vn -0.0105 0.4530 -0.8915
vn -0.0105 0.4529 -0.8915
vn 0.0105 -0.4530 0.8915
vn 0.0105 -0.4529 0.8915
vn -0.4224 0.5060 0.7520
vn -0.7668 0.4530 0.4549
vn -0.8624 0.5060 0.0102
vn 0.4224 -0.5060 -0.7520
vn 0.7668 -0.4530 -0.4549
vn 0.4401 0.5060 0.7418
vn 0.7773 0.4530 0.4366
vn -0.7773 -0.4530 -0.4366
vn -0.4401 -0.5060 -0.7418
vn 0.0105 0.4530 0.8915
vn -0.4224 0.5061 0.7520
vn -0.0105 -0.4530 -0.8915
vn 0.7418 0.5060 -0.4401
vn 0.7520 0.5060 0.4224
vn 0.8915 0.4530 -0.0105
vn -0.8915 -0.4530 0.0105
vn -0.7520 -0.5060 -0.4224
vn -0.7418 -0.5060 0.4401
vn 0.0102 0.5060 0.8625
vn -0.4366 0.4529 0.7773
vn -0.4366 0.4530 0.7773
vn -0.7418 0.5061 0.4400
vn -0.7418 0.5060 0.4401
vn -0.0102 -0.5060 -0.8625
vn 0.4366 -0.4529 -0.7773
vn 0.7418 -0.5060 -0.4401
vn 0.4366 -0.4530 -0.7773
vn -0.7520 0.5060 -0.4224
vn -0.0102 0.5060 -0.8625
vn -0.4549 0.4530 -0.7668
vn 0.4549 -0.4530 0.7668
vn 0.0102 -0.5060 0.8625
vn 0.7520 -0.5060 0.4224
vn 0.4366 0.4530 -0.7773
vn 0.7418 0.5061 -0.4401
vn 0.4366 0.4529 -0.7773
vn -0.4366 -0.4530 0.7773
vn -0.4366 -0.4529 0.7773
vn -0.8915 0.4530 0.0105
vn 0.8915 -0.4530 -0.0105
vn 0.4549 0.4530 0.7668
vn -0.4549 -0.4530 -0.7668
vn -0.0106 0.4529 -0.8915
vn 0.0106 -0.4529 0.8915
vn 0.4401 0.5061 0.7418
vn -0.4401 -0.5061 -0.7418
vn -0.4400 0.5060 -0.7418
vn 0.7773 0.4529 0.4366
vn 0.7667 -0.4530 -0.4549
vn 0.4224 -0.5061 -0.7520
vt 0.593750 0.025000
vt 0.593750 0.104996
vt 0.593750 0.225000
vt 0.093750 0.475000
vt 0.093750 0.275000
vt 0.093750 0.425000
vt 0.093750 0.348778
vt 0.093750 0.338765
vt 0.093750 0.344099
vt 0.093750 0.375000
vt 0.093750 0.325000
s 0
usemtl colormap.046
f 3/1/1 2/1/1 1/1/1
f 2/1/1 3/1/1 4/1/1
f 4/1/1 3/1/1 5/1/1
f 4/1/1 5/1/1 6/1/1
f 6/1/1 5/1/1 7/1/1
f 6/1/1 7/1/1 8/1/1
f 9/2/2 1/1/3 2/1/4
f 1/1/3 9/2/2 10/2/5
f 11/2/6 1/1/7 10/2/8
f 1/1/7 11/2/6 3/1/9
f 12/2/10 2/1/11 4/1/12
f 2/1/11 12/2/10 9/2/13
f 13/2/14 4/1/15 6/1/16
f 4/1/15 13/2/14 12/2/17
f 7/1/18 14/2/19 8/1/20
f 14/2/19 7/1/18 15/2/21
f 11/2/22 5/1/23 3/1/24
f 5/1/25 11/2/22 16/2/26
f 8/1/27 13/2/28 6/1/29
f 13/2/28 8/1/27 14/2/30
f 7/1/31 16/2/32 15/2/33
f 16/2/34 7/1/31 5/1/35
f 14/2/36 18/3/37 17/3/38
f 18/3/39 14/2/36 15/2/40
f 16/2/41 18/3/39 15/2/42
f 18/3/39 16/2/43 19/3/44
f 21/3/45 9/2/46 20/3/47
f 9/2/46 21/3/45 10/2/48
f 22/3/49 12/2/50 13/2/51
f 12/2/50 22/3/52 23/3/53
f 21/3/54 11/2/55 10/2/48
f 11/2/55 21/3/45 24/3/56
f 13/2/57 17/3/58 22/3/49
f 17/3/38 13/2/57 14/2/36
f 20/3/47 12/2/50 23/3/59
f 12/2/60 20/3/47 9/2/61
f 24/3/56 16/2/43 11/2/62
f 16/2/43 24/3/63 19/3/64
f 27/4/65 26/4/65 25/4/65
f 26/4/65 27/4/65 28/4/65
f 26/4/65 28/4/65 29/4/65
f 29/4/65 28/4/65 30/4/65
f 29/4/65 30/4/65 31/4/65
f 31/4/65 30/4/65 32/4/65
f 35/5/1 34/5/1 33/5/1
f 34/5/1 35/5/1 36/5/1
f 34/5/1 36/5/1 37/5/1
f 37/5/1 36/5/1 38/5/1
f 37/5/1 38/5/1 39/5/1
f 39/5/1 38/5/1 40/5/1
f 27/4/66 33/5/67 34/5/66
f 33/5/67 27/4/66 25/4/68
f 29/4/69 38/5/70 36/5/69
f 38/5/70 29/4/69 31/4/71
f 40/5/72 31/4/73 32/4/72
f 31/4/73 40/5/72 38/5/73
f 28/4/74 34/5/75 37/5/74
f 34/5/75 28/4/74 27/4/76
f 26/4/77 36/5/78 35/5/79
f 36/5/78 26/4/79 29/4/80
f 30/4/81 37/5/82 39/5/83
f 37/5/82 30/4/83 28/4/84
f 26/4/85 33/5/86 25/4/87
f 33/5/87 26/4/85 35/5/85
f 40/5/88 30/4/89 39/5/89
f 30/4/89 40/5/90 32/4/88
f 43/6/91 42/7/92 41/7/91
f 42/7/92 43/6/91 44/6/92
f 47/6/93 46/7/94 45/7/93
f 46/7/94 47/6/93 48/6/94
f 50/6/95 45/7/93 49/7/95
f 45/7/93 50/6/95 47/6/93
f 48/6/94 41/7/91 46/7/94
f 41/7/91 48/6/94 43/6/91
f 52/7/96 44/6/92 51/6/96
f 44/6/92 52/7/96 42/7/92
f 52/7/96 50/6/95 49/7/95
f 50/6/95 52/7/96 51/6/96
f 41/7/1 45/7/1 46/7/1
f 45/7/1 41/7/1 42/7/1
f 45/7/1 42/7/1 49/7/1
f 49/7/1 42/7/1 52/7/1
f 55/6/97 54/8/98 53/8/99
f 54/8/100 55/6/101 56/6/102
f 59/8/103 58/6/104 57/6/105
f 58/6/104 59/8/103 60/8/106
f 63/6/107 62/8/108 61/8/109
f 62/8/110 63/6/107 64/6/111
f 64/6/111 53/8/112 62/8/108
f 53/8/99 64/6/111 55/6/113
f 64/6/114 56/6/115 55/6/116
f 56/6/117 64/6/114 58/6/118
f 58/6/118 64/6/114 63/6/119
f 58/6/118 63/6/120 57/6/121
f 59/8/122 63/6/119 61/8/109
f 63/6/123 59/8/103 57/6/124
f 54/8/1 62/8/1 53/8/1
f 62/8/1 54/8/1 60/8/1
f 62/8/1 60/8/1 61/8/1
f 61/8/1 60/8/1 59/8/1
f 56/6/125 60/8/106 54/8/98
f 60/8/106 56/6/125 58/6/126
f 67/6/127 66/9/128 65/9/127
f 66/9/128 67/6/127 68/6/128
f 70/6/129 65/9/127 69/9/129
f 65/9/127 70/6/129 67/6/127
f 68/6/128 71/9/130 66/9/128
f 71/9/130 68/6/128 72/6/130
f 72/6/130 73/9/131 71/9/130
f 73/9/131 72/6/130 74/6/131
f 71/9/1 65/9/1 66/9/1
f 65/9/1 71/9/1 69/9/1
f 69/9/1 71/9/1 73/9/1
f 69/9/1 73/9/1 75/9/1
f 76/6/132 69/9/129 75/9/132
f 69/9/129 76/6/132 70/6/129
f 73/9/131 76/6/132 75/9/132
f 76/6/132 73/9/131 74/6/131
f 79/10/133 78/10/134 77/11/135
f 78/10/134 79/10/133 41/6/133
f 78/10/134 41/6/133 42/6/134
f 77/11/136 78/10/137 79/10/138
f 41/6/138 79/10/138 78/10/137
f 42/6/137 41/6/138 78/10/137
f 81/11/139 49/6/140 80/10/141
f 49/6/140 81/11/139 52/6/142
f 52/6/142 81/11/143 82/10/142
f 80/10/144 49/6/144 81/11/145
f 52/6/146 81/11/145 49/6/144
f 82/10/146 81/11/147 52/6/146
f 82/10/142 42/6/134 52/6/142
f 42/6/134 82/10/142 83/11/148
f 42/6/134 83/11/149 78/10/134
f 52/6/146 42/6/137 82/10/146
f 83/11/150 82/10/146 42/6/137
f 78/10/137 83/11/151 42/6/137
f 46/6/152 85/11/153 84/10/152
f 85/11/153 46/6/152 41/6/154
f 85/11/153 41/6/154 79/10/133
f 84/10/155 85/11/156 46/6/155
f 41/6/138 46/6/155 85/11/156
f 79/10/138 41/6/138 85/11/156
f 80/10/141 87/10/157 86/11/158
f 87/10/157 80/10/141 49/6/141
f 87/10/157 49/6/141 45/6/157
f 86/11/159 87/10/160 80/10/144
f 49/6/144 80/10/144 87/10/160
f 45/6/160 49/6/144 87/10/160
f 45/6/157 88/11/161 87/10/157
f 88/11/161 45/6/157 46/6/152
f 88/11/161 46/6/162 84/10/152
f 87/10/160 88/11/163 45/6/160
f 46/6/155 45/6/160 88/11/163
f 84/10/155 46/6/155 88/11/163
f 91/10/164 90/10/165 89/11/166
f 90/10/165 91/10/164 75/6/164
f 90/10/165 75/6/164 69/6/165
f 89/11/167 90/10/168 91/10/169
f 75/6/169 91/10/169 90/10/168
f 69/6/168 75/6/169 90/10/168
f 65/6/170 93/11/171 92/10/170
f 93/11/172 65/6/170 66/6/173
f 93/11/172 66/6/174 94/10/174
f 92/10/175 93/11/176 65/6/175
f 66/6/177 65/6/175 93/11/178
f 94/10/177 66/6/177 93/11/178
f 97/10/179 96/10/180 95/11/181
f 96/10/180 97/10/179 71/6/179
f 96/10/180 71/6/179 73/6/180
f 95/11/182 96/10/183 97/10/184
f 71/6/184 97/10/184 96/10/183
f 73/6/183 71/6/184 96/10/183
f 98/11/185 75/6/186 91/10/164
f 75/6/164 98/11/187 73/6/180
f 73/6/180 98/11/185 96/10/180
f 91/10/169 75/6/169 98/11/188
f 73/6/183 98/11/189 75/6/169
f 96/10/183 98/11/188 73/6/183
f 94/10/174 97/10/179 99/11/190
f 97/10/179 94/10/174 66/6/174
f 97/10/179 66/6/174 71/6/179
f 99/11/191 97/10/184 94/10/177
f 66/6/177 94/10/177 97/10/184
f 71/6/184 66/6/177 97/10/184
f 90/10/165 92/10/170 100/11/192
f 92/10/170 90/10/165 69/6/165
f 92/10/170 69/6/165 65/6/170
f 100/11/193 92/10/175 90/10/168
f 69/6/168 90/10/168 92/10/175
f 65/6/175 69/6/168 92/10/175
f 102/11/139 61/6/140 101/10/141
f 61/6/140 102/11/139 59/6/142
f 59/6/142 102/11/139 103/10/142
f 101/10/144 61/6/144 102/11/145
f 59/6/146 102/11/145 61/6/144
f 103/10/146 102/11/145 59/6/146
f 103/10/142 60/6/134 59/6/142
f 60/6/134 103/10/142 104/11/149
f 60/6/134 104/11/194 105/10/134
f 59/6/146 60/6/137 103/10/146
f 104/11/151 103/10/146 60/6/137
f 105/10/137 104/11/195 60/6/137
f 62/6/196 107/11/161 106/10/157
f 107/11/161 62/6/157 53/6/152
f 107/11/161 53/6/162 108/10/152
f 106/10/197 107/11/163 62/6/197
f 53/6/155 62/6/160 107/11/163
f 108/10/155 53/6/155 107/11/163
f 110/10/133 105/10/198 109/11/135
f 105/10/134 110/10/133 54/6/133
f 105/10/134 54/6/133 60/6/134
f 109/11/136 105/10/137 110/10/138
f 54/6/138 110/10/138 105/10/137
f 60/6/137 54/6/138 105/10/137
f 101/10/141 106/10/157 111/11/199
f 106/10/157 101/10/141 61/6/141
f 106/10/157 61/6/141 62/6/157
f 111/11/159 106/10/160 101/10/144
f 61/6/144 101/10/144 106/10/160
f 62/6/160 61/6/144 106/10/160
f 53/6/152 112/11/153 108/10/152
f 112/11/153 53/6/152 54/6/133
f 112/11/153 54/6/154 110/10/133
f 108/10/155 112/11/200 53/6/201
f 54/6/138 53/6/155 112/11/156
f 110/10/138 54/6/138 112/11/156
f 3/1/1 2/1/1 1/1/1
f 2/1/1 3/1/1 4/1/1
f 4/1/1 3/1/1 5/1/1
f 4/1/1 5/1/1 6/1/1
f 6/1/1 5/1/1 7/1/1
f 6/1/1 7/1/1 8/1/1
f 9/2/2 1/1/3 2/1/4
f 1/1/3 9/2/2 10/2/5
f 11/2/6 1/1/7 10/2/8
f 1/1/7 11/2/6 3/1/9
f 12/2/10 2/1/11 4/1/12
f 2/1/11 12/2/10 9/2/13
f 13/2/14 4/1/15 6/1/16
f 4/1/15 13/2/14 12/2/17
f 7/1/18 14/2/19 8/1/20
f 14/2/19 7/1/18 15/2/21
f 11/2/22 5/1/23 3/1/24
f 5/1/25 11/2/22 16/2/26
f 8/1/27 13/2/28 6/1/29
f 13/2/28 8/1/27 14/2/30
f 7/1/31 16/2/32 15/2/33
f 16/2/34 7/1/31 5/1/35
f 14/2/36 18/3/37 17/3/38
f 18/3/39 14/2/36 15/2/40
f 16/2/41 18/3/39 15/2/42
f 18/3/39 16/2/43 19/3/44
f 21/3/45 9/2/46 20/3/47
f 9/2/46 21/3/45 10/2/48
f 22/3/49 12/2/50 13/2/51
f 12/2/50 22/3/52 23/3/53
f 21/3/54 11/2/55 10/2/48
f 11/2/55 21/3/45 24/3/56
f 13/2/57 17/3/58 22/3/49
f 17/3/38 13/2/57 14/2/36
f 20/3/47 12/2/50 23/3/59
f 12/2/60 20/3/47 9/2/61
f 24/3/56 16/2/43 11/2/62
f 16/2/43 24/3/63 19/3/64
f 27/4/65 26/4/65 25/4/65
f 26/4/65 27/4/65 28/4/65
f 26/4/65 28/4/65 29/4/65
f 29/4/65 28/4/65 30/4/65
f 29/4/65 30/4/65 31/4/65
f 31/4/65 30/4/65 32/4/65
f 35/5/1 34/5/1 33/5/1
f 34/5/1 35/5/1 36/5/1
f 34/5/1 36/5/1 37/5/1
f 37/5/1 36/5/1 38/5/1
f 37/5/1 38/5/1 39/5/1
f 39/5/1 38/5/1 40/5/1
f 27/4/66 33/5/67 34/5/66
f 33/5/67 27/4/66 25/4/68
f 29/4/69 38/5/70 36/5/69
f 38/5/70 29/4/69 31/4/71
f 40/5/72 31/4/73 32/4/72
f 31/4/73 40/5/72 38/5/73
f 28/4/74 34/5/75 37/5/74
f 34/5/75 28/4/74 27/4/76
f 26/4/77 36/5/78 35/5/79
f 36/5/78 26/4/79 29/4/80
f 30/4/81 37/5/82 39/5/83
f 37/5/82 30/4/83 28/4/84
f 26/4/85 33/5/86 25/4/87
f 33/5/87 26/4/85 35/5/85
f 40/5/88 30/4/89 39/5/89
f 30/4/89 40/5/90 32/4/88
f 43/6/91 42/7/92 41/7/91
f 42/7/92 43/6/91 44/6/92
f 47/6/93 46/7/94 45/7/93
f 46/7/94 47/6/93 48/6/94
f 50/6/95 45/7/93 49/7/95
f 45/7/93 50/6/95 47/6/93
f 48/6/94 41/7/91 46/7/94
f 41/7/91 48/6/94 43/6/91
f 52/7/96 44/6/92 51/6/96
f 44/6/92 52/7/96 42/7/92
f 52/7/96 50/6/95 49/7/95
f 50/6/95 52/7/96 51/6/96
f 41/7/1 45/7/1 46/7/1
f 45/7/1 41/7/1 42/7/1
f 45/7/1 42/7/1 49/7/1
f 49/7/1 42/7/1 52/7/1
f 55/6/97 54/8/98 53/8/99
f 54/8/100 55/6/101 56/6/102
f 59/8/103 58/6/104 57/6/105
f 58/6/104 59/8/103 60/8/106
f 63/6/107 62/8/108 61/8/109
f 62/8/110 63/6/107 64/6/111
f 64/6/111 53/8/112 62/8/108
f 53/8/99 64/6/111 55/6/113
f 64/6/114 56/6/115 55/6/116
f 56/6/117 64/6/114 58/6/118
f 58/6/118 64/6/114 63/6/119
f 58/6/118 63/6/120 57/6/121
f 59/8/122 63/6/119 61/8/109
f 63/6/123 59/8/103 57/6/124
f 54/8/1 62/8/1 53/8/1
f 62/8/1 54/8/1 60/8/1
f 62/8/1 60/8/1 61/8/1
f 61/8/1 60/8/1 59/8/1
f 56/6/125 60/8/106 54/8/98
f 60/8/106 56/6/125 58/6/126
f 67/6/127 66/9/128 65/9/127
f 66/9/128 67/6/127 68/6/128
f 70/6/129 65/9/127 69/9/129
f 65/9/127 70/6/129 67/6/127
f 68/6/128 71/9/130 66/9/128
f 71/9/130 68/6/128 72/6/130
f 72/6/130 73/9/131 71/9/130
f 73/9/131 72/6/130 74/6/131
f 71/9/1 65/9/1 66/9/1
f 65/9/1 71/9/1 69/9/1
f 69/9/1 71/9/1 73/9/1
f 69/9/1 73/9/1 75/9/1
f 76/6/132 69/9/129 75/9/132
f 69/9/129 76/6/132 70/6/129
f 73/9/131 76/6/132 75/9/132
f 76/6/132 73/9/131 74/6/131
f 79/10/133 78/10/134 77/11/135
f 78/10/134 79/10/133 41/6/133
f 78/10/134 41/6/133 42/6/134
f 77/11/136 78/10/137 79/10/138
f 41/6/138 79/10/138 78/10/137
f 42/6/137 41/6/138 78/10/137
f 81/11/139 49/6/140 80/10/141
f 49/6/140 81/11/139 52/6/142
f 52/6/142 81/11/143 82/10/142
f 80/10/144 49/6/144 81/11/145
f 52/6/146 81/11/145 49/6/144
f 82/10/146 81/11/147 52/6/146
f 82/10/142 42/6/134 52/6/142
f 42/6/134 82/10/142 83/11/148
f 42/6/134 83/11/149 78/10/134
f 52/6/146 42/6/137 82/10/146
f 83/11/150 82/10/146 42/6/137
f 78/10/137 83/11/151 42/6/137
f 46/6/152 85/11/153 84/10/152
f 85/11/153 46/6/152 41/6/154
f 85/11/153 41/6/154 79/10/133
f 84/10/155 85/11/156 46/6/155
f 41/6/138 46/6/155 85/11/156
f 79/10/138 41/6/138 85/11/156
f 80/10/141 87/10/157 86/11/158
f 87/10/157 80/10/141 49/6/141
f 87/10/157 49/6/141 45/6/157
f 86/11/159 87/10/160 80/10/144
f 49/6/144 80/10/144 87/10/160
f 45/6/160 49/6/144 87/10/160
f 45/6/157 88/11/161 87/10/157
f 88/11/161 45/6/157 46/6/152
f 88/11/161 46/6/162 84/10/152
f 87/10/160 88/11/163 45/6/160
f 46/6/155 45/6/160 88/11/163
f 84/10/155 46/6/155 88/11/163
f 91/10/164 90/10/165 89/11/166
f 90/10/165 91/10/164 75/6/164
f 90/10/165 75/6/164 69/6/165
f 89/11/167 90/10/168 91/10/169
f 75/6/169 91/10/169 90/10/168
f 69/6/168 75/6/169 90/10/168
f 65/6/170 93/11/171 92/10/170
f 93/11/172 65/6/170 66/6/173
f 93/11/172 66/6/174 94/10/174
f 92/10/175 93/11/176 65/6/175
f 66/6/177 65/6/175 93/11/178
f 94/10/177 66/6/177 93/11/178
f 97/10/179 96/10/180 95/11/181
f 96/10/180 97/10/179 71/6/179
f 96/10/180 71/6/179 73/6/180
f 95/11/182 96/10/183 97/10/184
f 71/6/184 97/10/184 96/10/183
f 73/6/183 71/6/184 96/10/183
f 98/11/185 75/6/186 91/10/164
f 75/6/164 98/11/187 73/6/180
f 73/6/180 98/11/185 96/10/180
f 91/10/169 75/6/169 98/11/188
f 73/6/183 98/11/189 75/6/169
f 96/10/183 98/11/188 73/6/183
f 94/10/174 97/10/179 99/11/190
f 97/10/179 94/10/174 66/6/174
f 97/10/179 66/6/174 71/6/179
f 99/11/191 97/10/184 94/10/177
f 66/6/177 94/10/177 97/10/184
f 71/6/184 66/6/177 97/10/184
f 90/10/165 92/10/170 100/11/192
f 92/10/170 90/10/165 69/6/165
f 92/10/170 69/6/165 65/6/170
f 100/11/193 92/10/175 90/10/168
f 69/6/168 90/10/168 92/10/175
f 65/6/175 69/6/168 92/10/175
f 102/11/139 61/6/140 101/10/141
f 61/6/140 102/11/139 59/6/142
f 59/6/142 102/11/139 103/10/142
f 101/10/144 61/6/144 102/11/145
f 59/6/146 102/11/145 61/6/144
f 103/10/146 102/11/145 59/6/146
f 103/10/142 60/6/134 59/6/142
f 60/6/134 103/10/142 104/11/149
f 60/6/134 104/11/194 105/10/134
f 59/6/146 60/6/137 103/10/146
f 104/11/151 103/10/146 60/6/137
f 105/10/137 104/11/195 60/6/137
f 62/6/196 107/11/161 106/10/157
f 107/11/161 62/6/157 53/6/152
f 107/11/161 53/6/162 108/10/152
f 106/10/197 107/11/163 62/6/197
f 53/6/155 62/6/160 107/11/163
f 108/10/155 53/6/155 107/11/163
f 110/10/133 105/10/198 109/11/135
f 105/10/134 110/10/133 54/6/133
f 105/10/134 54/6/133 60/6/134
f 109/11/136 105/10/137 110/10/138
f 54/6/138 110/10/138 105/10/137
f 60/6/137 54/6/138 105/10/137
f 101/10/141 106/10/157 111/11/199
f 106/10/157 101/10/141 61/6/141
f 106/10/157 61/6/141 62/6/157
f 111/11/159 106/10/160 101/10/144
f 61/6/144 101/10/144 106/10/160
f 62/6/160 61/6/144 106/10/160
f 53/6/152 112/11/153 108/10/152
f 112/11/153 53/6/152 54/6/133
f 112/11/153 54/6/154 110/10/133
f 108/10/155 112/11/200 53/6/201
f 54/6/138 53/6/155 112/11/156
f 110/10/138 54/6/138 112/11/156
