# Blender 4.1.1
# www.blender.org
mtllib tree.011.mtl
o tree.011
v -23.152491 -0.382804 -6.232718
v -23.152491 -0.382804 -6.478898
v -23.275581 -0.382804 -6.109629
v -23.275581 -0.382804 -6.601987
v -23.521759 -0.382804 -6.109629
v -23.521759 -0.382804 -6.601987
v -23.644850 -0.382804 -6.232718
v -23.644850 -0.382804 -6.478898
v -23.275581 0.062918 -6.417353
v -23.275581 0.062918 -6.294263
v -23.337126 0.062918 -6.232718
v -23.337126 0.062918 -6.478898
v -23.460215 0.062918 -6.478898
v -23.521759 0.062918 -6.417353
v -23.521759 0.062918 -6.294263
v -23.460215 0.062918 -6.232718
v -23.552532 0.731552 -6.432739
v -23.552532 0.731552 -6.278877
v -23.475601 0.731552 -6.201946
v -23.244808 0.731552 -6.432739
v -23.244808 0.731552 -6.278877
v -23.475601 0.731552 -6.509670
v -23.321739 0.731552 -6.509670
v -23.321739 0.731552 -6.201946
v -23.195215 0.222058 -6.415974
v -23.232178 0.222058 -6.326737
v -23.232178 0.222058 -6.505211
v -23.321415 0.222058 -6.542174
v -23.321415 0.222058 -6.289774
v -23.410652 0.222058 -6.505211
v -23.410652 0.222058 -6.326737
v -23.447617 0.222058 -6.415974
v -23.123734 0.060318 -6.415974
v -23.181633 0.060318 -6.555756
v -23.181633 0.060318 -6.276192
v -23.321415 0.060318 -6.218292
v -23.321415 0.060318 -6.613656
v -23.461197 0.060318 -6.276192
v -23.461197 0.060318 -6.555756
v -23.519098 0.060318 -6.415974
v -23.104069 0.731552 -5.824871
v -23.717142 0.731552 -5.824871
v -23.229748 1.468507 -6.042553
v -23.591463 1.468507 -6.042553
v -23.104069 0.731552 -6.886744
v -22.797533 0.731552 -6.355808
v -23.229748 1.468507 -6.669063
v -23.048889 1.468507 -6.355808
v -23.717142 0.731552 -6.886744
v -23.591463 1.468507 -6.669063
v -23.772320 1.468507 -6.355808
v -24.023678 0.731552 -6.355808
v -23.057106 2.260255 -6.355808
v -23.233856 2.260255 -6.049669
v -23.329355 3.090716 -6.355808
v -23.369980 3.090716 -6.285443
v -23.491856 3.090716 -6.355808
v -23.451231 3.090716 -6.285443
v -23.764103 2.260255 -6.355808
v -23.587355 2.260255 -6.049669
v -23.587355 2.260255 -6.661947
v -23.233856 2.260255 -6.661947
v -23.451231 3.090716 -6.426173
v -23.369980 3.090716 -6.426173
v -22.978949 1.468507 -6.605024
v -22.978949 1.468507 -6.106591
v -23.212816 2.260255 -6.470002
v -23.212816 2.260255 -6.241614
v -23.410604 1.468507 -6.854241
v -23.410604 2.260255 -6.584196
v -23.410604 1.468507 -5.857375
v -23.410604 2.260255 -6.127420
v -23.842260 1.468507 -6.106591
v -23.608395 2.260255 -6.241614
v -23.842260 1.468507 -6.605024
v -23.608395 2.260255 -6.470002
v -23.410604 0.501649 -5.708065
v -23.750860 0.616601 -5.766468
v -23.070349 0.616601 -5.766468
v -23.750860 0.616601 -6.945148
v -23.971567 0.501649 -6.679679
v -24.091116 0.616601 -6.355808
v -23.971567 0.501649 -6.031937
v -22.730095 0.616601 -6.355808
v -22.849644 0.501649 -6.031937
v -23.410604 0.501649 -7.003551
v -23.070349 0.616601 -6.945148
v -22.849644 0.501649 -6.679679
v -23.673916 1.281595 -6.811874
v -23.410604 1.375051 -6.909069
v -23.889744 1.375051 -6.632438
v -22.931467 1.375051 -6.632438
v -22.883986 1.281595 -6.355808
v -22.931467 1.375051 -6.079177
v -23.673916 1.281595 -5.899742
v -23.889744 1.375051 -6.079177
v -23.410604 1.375051 -5.802547
v -23.937225 1.281595 -6.355808
v -23.147295 1.281595 -5.899742
v -23.147295 1.281595 -6.811874
v -23.606796 2.193974 -6.695622
v -23.734056 2.127692 -6.542552
v -23.802988 2.193974 -6.355808
v -23.734056 2.127692 -6.169063
v -23.606796 2.193974 -6.015994
v -23.214413 2.193974 -6.695622
v -23.087154 2.127692 -6.542552
v -23.018221 2.193974 -6.355808
v -23.410604 2.127692 -5.982318
v -23.214413 2.193974 -6.015994
v -23.410604 2.127692 -6.729297
v -23.087154 2.127692 -6.169063
vn -0.0000 -1.0000 -0.0000
vn 0.8851 0.2942 -0.3607
vn 0.8812 0.2944 0.3698
vn 0.8812 0.2944 -0.3698
vn 0.8851 0.2942 0.3607
vn 0.3607 0.2942 0.8850
vn 0.8850 0.2942 0.3608
vn 0.3607 0.2943 0.8850
vn 0.3698 0.2944 0.8812
vn 0.3607 0.2942 -0.8850
vn 0.3698 0.2944 -0.8812
vn 0.8850 0.2942 -0.3608
vn -0.3607 0.2942 -0.8851
vn 0.3698 0.2944 -0.8813
vn -0.3698 0.2944 -0.8812
vn 0.3607 0.2942 -0.8851
vn -0.8813 0.2944 0.3698
vn -0.8851 0.2942 -0.3607
vn -0.8812 0.2944 -0.3698
vn -0.8851 0.2942 0.3607
vn 0.3607 0.2942 0.8851
vn -0.3698 0.2944 0.8813
vn -0.3698 0.2944 0.8812
vn -0.3607 0.2942 0.8851
vn -0.3607 0.2942 -0.8850
vn -0.3608 0.2942 -0.8850
vn -0.8850 0.2942 -0.3607
vn -0.8812 0.2944 0.3698
vn -0.3608 0.2942 0.8850
vn -0.8850 0.2942 0.3607
vn -0.3607 0.2942 0.8850
vn -0.9230 -0.0513 -0.3813
vn -0.9223 -0.0512 0.3829
vn -0.9223 -0.0513 -0.3829
vn -0.9223 -0.0513 0.3829
vn -0.9230 -0.0513 0.3813
vn -0.3814 -0.0512 0.9230
vn -0.9223 -0.0513 0.3830
vn -0.9230 -0.0512 0.3813
vn -0.3813 -0.0513 0.9230
vn -0.3830 -0.0512 0.9223
vn 0.9223 -0.0512 0.3829
vn 0.9230 -0.0513 -0.3813
vn 0.9223 -0.0513 -0.3829
vn 0.9230 -0.0513 0.3813
vn -0.3829 -0.0513 -0.9223
vn 0.3813 -0.0513 -0.9230
vn -0.3813 -0.0513 -0.9230
vn -0.3829 -0.0512 -0.9223
vn 0.3829 -0.0513 -0.9223
vn 0.9223 -0.0513 0.3830
vn 0.3814 -0.0513 0.9230
vn 0.3813 -0.0513 0.9230
vn 0.9223 -0.0512 0.3830
vn 0.3830 -0.0513 0.9223
vn -0.9223 -0.0512 -0.3830
vn -0.3830 -0.0513 -0.9223
vn -0.9223 -0.0513 -0.3830
vn -0.3814 -0.0513 -0.9230
vn 0.9223 -0.0513 -0.3830
vn 0.3830 -0.0512 -0.9223
vn 0.3814 -0.0512 -0.9230
vn 0.9230 -0.0512 -0.3813
vn 0.3829 -0.0513 0.9223
vn 0.3829 -0.0512 0.9223
vn -0.3829 -0.0513 0.9223
vn -0.0000 1.0000 -0.0000
vn 0.6468 0.4042 -0.6468
vn 0.9147 0.4042 -0.0000
vn 0.6468 0.4042 -0.6467
vn 0.9146 0.4043 -0.0000
vn -0.0000 0.4042 0.9147
vn -0.6467 0.4042 0.6468
vn -0.6468 0.4042 0.6468
vn -0.6467 0.4043 0.6468
vn -0.9147 0.4042 -0.0000
vn -0.9146 0.4043 -0.0000
vn -0.6468 0.4042 0.6467
vn -0.0000 0.4042 -0.9147
vn 0.6467 0.4042 -0.6468
vn 0.6467 0.4043 -0.6468
vn 0.6468 0.4042 0.6468
vn 0.6467 0.4042 0.6468
vn -0.0000 0.4043 0.9146
vn -0.6468 0.4042 -0.6468
vn -0.6467 0.4042 -0.6468
vn -0.0000 0.4043 -0.9146
vn 0.6468 0.4042 0.6467
vn -0.6468 0.4042 -0.6467
vn 0.4732 0.3228 0.8197
vn -0.4732 0.3228 0.8197
vn 0.4732 0.3228 -0.8196
vn 0.9465 0.3228 -0.0000
vn 0.4732 0.3228 -0.8197
vn -0.4732 0.3228 -0.8197
vn 0.4733 0.3228 0.8197
vn -0.9465 0.3228 -0.0000
vn -0.4733 0.3228 0.8197
vn -0.4733 0.3228 -0.8197
vn 0.6877 0.7260 -0.0000
vn 0.4751 0.3115 0.8229
vn 0.9503 0.3115 -0.0000
vn 0.3438 0.7260 0.5956
vn -0.9502 0.3115 0.0001
vn -0.3438 0.7260 0.5956
vn -0.6877 0.7260 -0.0000
vn -0.9503 0.3115 -0.0000
vn -0.4752 0.3115 0.8229
vn -0.3439 0.7260 -0.5956
vn 0.4751 0.3115 -0.8229
vn -0.4751 0.3115 -0.8229
vn 0.3439 0.7260 -0.5956
vn 0.3438 0.7260 -0.5956
vn 0.9502 0.3115 -0.0000
vn 0.6877 0.7260 0.0001
vn 0.3439 0.7259 -0.5956
vn 0.3439 0.7259 0.5956
vn -0.3439 0.7259 0.5956
vn -0.3439 0.7259 -0.5956
vn -0.9502 0.3116 -0.0000
vn -0.3438 0.7260 -0.5956
vn -0.4752 0.3115 -0.8229
vn -0.9502 0.3115 -0.0001
vn 0.3439 0.7260 0.5956
vn -0.4751 0.3115 0.8229
vn -0.3439 0.7260 0.5956
vn 0.8197 0.3228 -0.4732
vn 0.8197 0.3228 0.4732
vn -0.0000 0.3228 -0.9465
vn 0.8197 0.3228 -0.4733
vn 0.8196 0.3228 0.4732
vn -0.0000 0.3228 0.9465
vn 0.8197 0.3228 0.4733
vn -0.8196 0.3228 0.4732
vn -0.8197 0.3228 0.4732
vn -0.8196 0.3228 -0.4732
vn -0.8197 0.3228 -0.4732
vn 0.4313 0.5060 0.7470
vn -0.4313 0.5060 0.7470
vn -0.0000 0.4530 0.8915
vn -0.0000 -0.4530 -0.8915
vn 0.4313 -0.5060 -0.7470
vn -0.4313 -0.5060 -0.7470
vn -0.7721 0.4530 -0.4458
vn -0.4313 0.5060 -0.7470
vn -0.8625 0.5060 -0.0000
vn 0.4313 -0.5060 0.7470
vn 0.7721 -0.4529 0.4458
vn 0.8625 -0.5060 -0.0000
vn 0.7721 -0.4530 0.4458
vn -0.7721 0.4530 0.4458
vn 0.7721 -0.4530 -0.4458
vn 0.8625 0.5060 -0.0000
vn 0.7721 0.4530 0.4458
vn 0.4313 0.5060 0.7469
vn -0.8625 -0.5060 -0.0000
vn -0.7721 -0.4530 -0.4458
vn 0.4313 0.5060 -0.7470
vn -0.0000 0.4530 -0.8915
vn -0.0000 -0.4530 0.8915
vn -0.4313 -0.5060 0.7470
vn 0.7721 0.4530 -0.4458
vn -0.7721 -0.4530 0.4458
vn -0.7470 0.5060 -0.4313
vn -0.0000 0.5060 -0.8625
vn -0.4458 0.4530 -0.7721
vn 0.4458 -0.4530 0.7721
vn -0.0000 -0.5060 0.8625
vn 0.7470 -0.5060 0.4313
vn 0.7470 0.5060 -0.4313
vn 0.8915 0.4530 -0.0000
vn 0.7470 0.5060 0.4313
vn -0.7470 -0.5060 0.4313
vn -0.8915 -0.4530 -0.0000
vn -0.7470 -0.5060 -0.4313
vn -0.0000 0.5060 0.8625
vn -0.7470 0.5060 0.4313
vn -0.4458 0.4530 0.7721
vn 0.4458 -0.4530 -0.7721
vn 0.7470 -0.5060 -0.4313
vn -0.0000 -0.5060 -0.8625
vn -0.8915 0.4530 -0.0000
vn -0.7469 0.5061 -0.4313
vn 0.8915 -0.4530 -0.0000
vn 0.4458 0.4530 0.7721
vn -0.4458 -0.4530 -0.7721
vn 0.4458 0.4530 -0.7721
vn -0.4458 -0.4530 0.7721
vn -0.7721 0.4529 -0.4458
vn -0.4312 0.5060 -0.7470
vn 0.4312 -0.5060 0.7470
vn -0.4312 0.5060 0.7470
vn 0.4312 -0.5060 -0.7470
vn 0.7721 -0.4529 -0.4458
vn -0.4313 -0.5060 -0.7469
vn -0.0000 0.4529 -0.8915
vn -0.0000 -0.4529 0.8915
vn 0.4312 0.5060 0.7470
vt 0.593750 0.025000
vt 0.593750 0.104996
vt 0.593750 0.225000
vt 0.093750 0.475000
vt 0.093750 0.275000
vt 0.093750 0.425000
vt 0.093750 0.348778
vt 0.093750 0.338765
vt 0.093750 0.344099
vt 0.093750 0.375000
vt 0.093750 0.325000
s 0
usemtl colormap.014
f 3/1/1 2/1/1 1/1/1
f 2/1/1 3/1/1 4/1/1
f 4/1/1 3/1/1 5/1/1
f 4/1/1 5/1/1 6/1/1
f 6/1/1 5/1/1 7/1/1
f 6/1/1 7/1/1 8/1/1
f 9/2/2 1/1/3 2/1/4
f 1/1/3 9/2/2 10/2/5
f 11/2/6 1/1/3 10/2/7
f 1/1/3 11/2/8 3/1/9
f 12/2/10 2/1/4 4/1/11
f 2/1/4 12/2/10 9/2/12
f 13/2/13 4/1/14 6/1/15
f 4/1/11 13/2/13 12/2/16
f 7/1/17 14/2/18 8/1/19
f 14/2/18 7/1/17 15/2/20
f 11/2/21 5/1/22 3/1/9
f 5/1/23 11/2/21 16/2/24
f 8/1/19 13/2/25 6/1/15
f 13/2/26 8/1/19 14/2/27
f 7/1/28 16/2/29 15/2/30
f 16/2/31 7/1/28 5/1/23
f 14/2/32 18/3/33 17/3/34
f 18/3/35 14/2/32 15/2/36
f 16/2/37 18/3/38 15/2/39
f 18/3/38 16/2/40 19/3/41
f 21/3/42 9/2/43 20/3/44
f 9/2/43 21/3/42 10/2/45
f 22/3/46 12/2/47 13/2/48
f 12/2/47 22/3/49 23/3/50
f 21/3/51 11/2/52 10/2/45
f 11/2/53 21/3/54 24/3/55
f 13/2/48 17/3/56 22/3/57
f 17/3/58 13/2/59 14/2/32
f 20/3/60 12/2/47 23/3/61
f 12/2/62 20/3/60 9/2/63
f 24/3/64 16/2/40 11/2/53
f 16/2/40 24/3/65 19/3/66
f 27/4/67 26/4/67 25/4/67
f 26/4/67 27/4/67 28/4/67
f 26/4/67 28/4/67 29/4/67
f 29/4/67 28/4/67 30/4/67
f 29/4/67 30/4/67 31/4/67
f 31/4/67 30/4/67 32/4/67
f 35/5/1 34/5/1 33/5/1
f 34/5/1 35/5/1 36/5/1
f 34/5/1 36/5/1 37/5/1
f 37/5/1 36/5/1 38/5/1
f 37/5/1 38/5/1 39/5/1
f 39/5/1 38/5/1 40/5/1
f 27/4/68 33/5/69 34/5/70
f 33/5/69 27/4/68 25/4/71
f 29/4/72 38/5/73 36/5/72
f 38/5/74 29/4/72 31/4/75
f 40/5/76 31/4/74 32/4/77
f 31/4/78 40/5/76 38/5/78
f 28/4/79 34/5/80 37/5/79
f 34/5/80 28/4/79 27/4/81
f 26/4/82 36/5/72 35/5/83
f 36/5/72 26/4/83 29/4/84
f 30/4/85 37/5/79 39/5/86
f 37/5/79 30/4/85 28/4/87
f 26/4/82 33/5/71 25/4/69
f 33/5/69 26/4/88 35/5/88
f 40/5/76 30/4/89 39/5/89
f 30/4/85 40/5/77 32/4/76
f 43/6/90 42/7/91 41/7/90
f 42/7/91 43/6/90 44/6/91
f 47/6/92 46/7/93 45/7/92
f 46/7/93 47/6/94 48/6/93
f 50/6/95 45/7/94 49/7/95
f 45/7/94 50/6/95 47/6/94
f 48/6/93 41/7/90 46/7/93
f 41/7/96 48/6/93 43/6/96
f 52/7/97 44/6/98 51/6/97
f 44/6/91 52/7/97 42/7/91
f 52/7/97 50/6/95 49/7/95
f 50/6/99 52/7/97 51/6/97
f 41/7/1 45/7/1 46/7/1
f 45/7/1 41/7/1 42/7/1
f 45/7/1 42/7/1 49/7/1
f 49/7/1 42/7/1 52/7/1
f 55/6/100 54/8/101 53/8/102
f 54/8/101 55/6/100 56/6/103
f 59/8/104 58/6/105 57/6/106
f 58/6/105 59/8/107 60/8/108
f 63/6/109 62/8/110 61/8/111
f 62/8/110 63/6/109 64/6/112
f 64/6/113 53/8/114 62/8/110
f 53/8/114 64/6/113 55/6/115
f 64/6/116 56/6/117 55/6/100
f 56/6/117 64/6/116 58/6/118
f 58/6/118 64/6/116 63/6/119
f 58/6/118 63/6/119 57/6/106
f 59/8/120 63/6/121 61/8/122
f 63/6/121 59/8/123 57/6/106
f 54/8/1 62/8/1 53/8/1
f 62/8/1 54/8/1 60/8/1
f 62/8/1 60/8/1 61/8/1
f 61/8/1 60/8/1 59/8/1
f 56/6/124 60/8/125 54/8/101
f 60/8/125 56/6/124 58/6/126
f 67/6/127 66/9/128 65/9/127
f 66/9/128 67/6/127 68/6/128
f 70/6/129 65/9/127 69/9/129
f 65/9/127 70/6/129 67/6/130
f 68/6/131 71/9/132 66/9/128
f 71/9/132 68/6/133 72/6/132
f 72/6/132 73/9/134 71/9/132
f 73/9/135 72/6/132 74/6/135
f 71/9/1 65/9/1 66/9/1
f 65/9/1 71/9/1 69/9/1
f 69/9/1 71/9/1 73/9/1
f 69/9/1 73/9/1 75/9/1
f 76/6/136 69/9/129 75/9/137
f 69/9/129 76/6/137 70/6/129
f 73/9/135 76/6/137 75/9/137
f 76/6/137 73/9/135 74/6/135
f 79/10/138 78/10/139 77/11/140
f 78/10/139 79/10/138 41/6/138
f 78/10/139 41/6/138 42/6/139
f 77/11/141 78/10/142 79/10/143
f 41/6/143 79/10/143 78/10/142
f 42/6/142 41/6/143 78/10/142
f 81/11/144 49/6/145 80/10/145
f 49/6/145 81/11/144 52/6/146
f 52/6/146 81/11/144 82/10/146
f 80/10/147 49/6/147 81/11/148
f 52/6/149 81/11/150 49/6/147
f 82/10/149 81/11/150 52/6/149
f 82/10/146 42/6/139 52/6/146
f 42/6/139 82/10/146 83/11/151
f 42/6/139 83/11/151 78/10/139
f 52/6/149 42/6/142 82/10/149
f 83/11/152 82/10/149 42/6/142
f 78/10/142 83/11/152 42/6/142
f 46/6/153 85/11/154 84/10/153
f 85/11/154 46/6/153 41/6/138
f 85/11/154 41/6/155 79/10/138
f 84/10/156 85/11/157 46/6/156
f 41/6/143 46/6/156 85/11/157
f 79/10/143 41/6/143 85/11/157
f 80/10/145 87/10/158 86/11/159
f 87/10/158 80/10/145 49/6/145
f 87/10/158 49/6/145 45/6/158
f 86/11/160 87/10/161 80/10/147
f 49/6/147 80/10/147 87/10/161
f 45/6/161 49/6/147 87/10/161
f 45/6/158 88/11/162 87/10/158
f 88/11/162 45/6/158 46/6/153
f 88/11/162 46/6/153 84/10/153
f 87/10/161 88/11/163 45/6/161
f 46/6/156 45/6/161 88/11/163
f 84/10/156 46/6/156 88/11/163
f 91/10/164 90/10/165 89/11/166
f 90/10/165 91/10/164 75/6/164
f 90/10/165 75/6/164 69/6/165
f 89/11/167 90/10/168 91/10/169
f 75/6/169 91/10/169 90/10/168
f 69/6/168 75/6/169 90/10/168
f 65/6/170 93/11/171 92/10/170
f 93/11/171 65/6/170 66/6/172
f 93/11/171 66/6/172 94/10/172
f 92/10/173 93/11/174 65/6/173
f 66/6/175 65/6/173 93/11/174
f 94/10/175 66/6/175 93/11/174
f 97/10/176 96/10/177 95/11/178
f 96/10/177 97/10/176 71/6/176
f 96/10/177 71/6/176 73/6/177
f 95/11/179 96/10/180 97/10/181
f 71/6/181 97/10/181 96/10/180
f 73/6/180 71/6/181 96/10/180
f 98/11/182 75/6/183 91/10/164
f 75/6/164 98/11/182 73/6/177
f 73/6/177 98/11/182 96/10/177
f 91/10/169 75/6/169 98/11/184
f 73/6/180 98/11/184 75/6/169
f 96/10/180 98/11/184 73/6/180
f 94/10/172 97/10/176 99/11/185
f 97/10/176 94/10/172 66/6/172
f 97/10/176 66/6/172 71/6/176
f 99/11/186 97/10/181 94/10/175
f 66/6/175 94/10/175 97/10/181
f 71/6/181 66/6/175 97/10/181
f 90/10/165 92/10/170 100/11/187
f 92/10/170 90/10/165 69/6/165
f 92/10/170 69/6/165 65/6/170
f 100/11/188 92/10/173 90/10/168
f 69/6/168 90/10/168 92/10/173
f 65/6/173 69/6/168 92/10/173
f 102/11/189 61/6/190 101/10/145
f 61/6/145 102/11/144 59/6/146
f 59/6/146 102/11/144 103/10/146
f 101/10/147 61/6/191 102/11/148
f 59/6/149 102/11/150 61/6/147
f 103/10/149 102/11/150 59/6/149
f 103/10/146 60/6/139 59/6/146
f 60/6/139 103/10/146 104/11/151
f 60/6/192 104/11/151 105/10/139
f 59/6/149 60/6/142 103/10/149
f 104/11/152 103/10/149 60/6/142
f 105/10/193 104/11/194 60/6/193
f 62/6/158 107/11/162 106/10/158
f 107/11/162 62/6/158 53/6/153
f 107/11/162 53/6/153 108/10/153
f 106/10/161 107/11/163 62/6/161
f 53/6/156 62/6/161 107/11/163
f 108/10/156 53/6/156 107/11/163
f 110/10/138 105/10/139 109/11/140
f 105/10/139 110/10/138 54/6/138
f 105/10/139 54/6/138 60/6/139
f 109/11/141 105/10/142 110/10/143
f 54/6/143 110/10/143 105/10/142
f 60/6/142 54/6/195 105/10/142
f 101/10/145 106/10/158 111/11/196
f 106/10/158 101/10/145 61/6/145
f 106/10/158 61/6/145 62/6/158
f 111/11/197 106/10/161 101/10/147
f 61/6/147 101/10/147 106/10/161
f 62/6/161 61/6/147 106/10/161
f 53/6/153 112/11/154 108/10/153
f 112/11/154 53/6/153 54/6/138
f 112/11/154 54/6/198 110/10/138
f 108/10/156 112/11/157 53/6/156
f 54/6/143 53/6/156 112/11/157
f 110/10/143 54/6/143 112/11/157
f 3/1/1 2/1/1 1/1/1
f 2/1/1 3/1/1 4/1/1
f 4/1/1 3/1/1 5/1/1
f 4/1/1 5/1/1 6/1/1
f 6/1/1 5/1/1 7/1/1
f 6/1/1 7/1/1 8/1/1
f 9/2/2 1/1/3 2/1/4
f 1/1/3 9/2/2 10/2/5
f 11/2/6 1/1/3 10/2/7
f 1/1/3 11/2/8 3/1/9
f 12/2/10 2/1/4 4/1/11
f 2/1/4 12/2/10 9/2/12
f 13/2/13 4/1/14 6/1/15
f 4/1/11 13/2/13 12/2/16
f 7/1/17 14/2/18 8/1/19
f 14/2/18 7/1/17 15/2/20
f 11/2/21 5/1/22 3/1/9
f 5/1/23 11/2/21 16/2/24
f 8/1/19 13/2/25 6/1/15
f 13/2/26 8/1/19 14/2/27
f 7/1/28 16/2/29 15/2/30
f 16/2/31 7/1/28 5/1/23
f 14/2/32 18/3/33 17/3/34
f 18/3/35 14/2/32 15/2/36
f 16/2/37 18/3/38 15/2/39
f 18/3/38 16/2/40 19/3/41
f 21/3/42 9/2/43 20/3/44
f 9/2/43 21/3/42 10/2/45
f 22/3/46 12/2/47 13/2/48
f 12/2/47 22/3/49 23/3/50
f 21/3/51 11/2/52 10/2/45
f 11/2/53 21/3/54 24/3/55
f 13/2/48 17/3/56 22/3/57
f 17/3/58 13/2/59 14/2/32
f 20/3/60 12/2/47 23/3/61
f 12/2/62 20/3/60 9/2/63
f 24/3/64 16/2/40 11/2/53
f 16/2/40 24/3/65 19/3/66
f 27/4/67 26/4/67 25/4/67
f 26/4/67 27/4/67 28/4/67
f 26/4/67 28/4/67 29/4/67
f 29/4/67 28/4/67 30/4/67
f 29/4/67 30/4/67 31/4/67
f 31/4/67 30/4/67 32/4/67
f 35/5/1 34/5/1 33/5/1
f 34/5/1 35/5/1 36/5/1
f 34/5/1 36/5/1 37/5/1
f 37/5/1 36/5/1 38/5/1
f 37/5/1 38/5/1 39/5/1
f 39/5/1 38/5/1 40/5/1
f 27/4/68 33/5/69 34/5/70
f 33/5/69 27/4/68 25/4/71
f 29/4/72 38/5/73 36/5/72
f 38/5/74 29/4/72 31/4/75
f 40/5/76 31/4/74 32/4/77
f 31/4/78 40/5/76 38/5/78
f 28/4/79 34/5/80 37/5/79
f 34/5/80 28/4/79 27/4/81
f 26/4/82 36/5/72 35/5/83
f 36/5/72 26/4/83 29/4/84
f 30/4/85 37/5/79 39/5/86
f 37/5/79 30/4/85 28/4/87
f 26/4/82 33/5/71 25/4/69
f 33/5/69 26/4/88 35/5/88
f 40/5/76 30/4/89 39/5/89
f 30/4/85 40/5/77 32/4/76
f 43/6/90 42/7/91 41/7/90
f 42/7/91 43/6/90 44/6/91
f 47/6/92 46/7/93 45/7/92
f 46/7/93 47/6/94 48/6/93
f 50/6/95 45/7/94 49/7/95
f 45/7/94 50/6/95 47/6/94
f 48/6/93 41/7/90 46/7/93
f 41/7/96 48/6/93 43/6/96
f 52/7/97 44/6/98 51/6/97
f 44/6/91 52/7/97 42/7/91
f 52/7/97 50/6/95 49/7/95
f 50/6/99 52/7/97 51/6/97
f 41/7/1 45/7/1 46/7/1
f 45/7/1 41/7/1 42/7/1
f 45/7/1 42/7/1 49/7/1
f 49/7/1 42/7/1 52/7/1
f 55/6/100 54/8/101 53/8/102
f 54/8/101 55/6/100 56/6/103
f 59/8/104 58/6/105 57/6/106
f 58/6/105 59/8/107 60/8/108
f 63/6/109 62/8/110 61/8/111
f 62/8/110 63/6/109 64/6/112
f 64/6/113 53/8/114 62/8/110
f 53/8/114 64/6/113 55/6/115
f 64/6/116 56/6/117 55/6/100
f 56/6/117 64/6/116 58/6/118
f 58/6/118 64/6/116 63/6/119
f 58/6/118 63/6/119 57/6/106
f 59/8/120 63/6/121 61/8/122
f 63/6/121 59/8/123 57/6/106
f 54/8/1 62/8/1 53/8/1
f 62/8/1 54/8/1 60/8/1
f 62/8/1 60/8/1 61/8/1
f 61/8/1 60/8/1 59/8/1
f 56/6/124 60/8/125 54/8/101
f 60/8/125 56/6/124 58/6/126
f 67/6/127 66/9/128 65/9/127
f 66/9/128 67/6/127 68/6/128
f 70/6/129 65/9/127 69/9/129
f 65/9/127 70/6/129 67/6/130
f 68/6/131 71/9/132 66/9/128
f 71/9/132 68/6/133 72/6/132
f 72/6/132 73/9/134 71/9/132
f 73/9/135 72/6/132 74/6/135
f 71/9/1 65/9/1 66/9/1
f 65/9/1 71/9/1 69/9/1
f 69/9/1 71/9/1 73/9/1
f 69/9/1 73/9/1 75/9/1
f 76/6/136 69/9/129 75/9/137
f 69/9/129 76/6/137 70/6/129
f 73/9/135 76/6/137 75/9/137
f 76/6/137 73/9/135 74/6/135
f 79/10/138 78/10/139 77/11/140
f 78/10/139 79/10/138 41/6/138
f 78/10/139 41/6/138 42/6/139
f 77/11/141 78/10/142 79/10/143
f 41/6/143 79/10/143 78/10/142
f 42/6/142 41/6/143 78/10/142
f 81/11/144 49/6/145 80/10/145
f 49/6/145 81/11/144 52/6/146
f 52/6/146 81/11/144 82/10/146
f 80/10/147 49/6/147 81/11/148
f 52/6/149 81/11/150 49/6/147
f 82/10/149 81/11/150 52/6/149
f 82/10/146 42/6/139 52/6/146
f 42/6/139 82/10/146 83/11/151
f 42/6/139 83/11/151 78/10/139
f 52/6/149 42/6/142 82/10/149
f 83/11/152 82/10/149 42/6/142
f 78/10/142 83/11/152 42/6/142
f 46/6/153 85/11/154 84/10/153
f 85/11/154 46/6/153 41/6/138
f 85/11/154 41/6/155 79/10/138
f 84/10/156 85/11/157 46/6/156
f 41/6/143 46/6/156 85/11/157
f 79/10/143 41/6/143 85/11/157
f 80/10/145 87/10/158 86/11/159
f 87/10/158 80/10/145 49/6/145
f 87/10/158 49/6/145 45/6/158
f 86/11/160 87/10/161 80/10/147
f 49/6/147 80/10/147 87/10/161
f 45/6/161 49/6/147 87/10/161
f 45/6/158 88/11/162 87/10/158
f 88/11/162 45/6/158 46/6/153
f 88/11/162 46/6/153 84/10/153
f 87/10/161 88/11/163 45/6/161
f 46/6/156 45/6/161 88/11/163
f 84/10/156 46/6/156 88/11/163
f 91/10/164 90/10/165 89/11/166
f 90/10/165 91/10/164 75/6/164
f 90/10/165 75/6/164 69/6/165
f 89/11/167 90/10/168 91/10/169
f 75/6/169 91/10/169 90/10/168
f 69/6/168 75/6/169 90/10/168
f 65/6/170 93/11/171 92/10/170
f 93/11/171 65/6/170 66/6/172
f 93/11/171 66/6/172 94/10/172
f 92/10/173 93/11/174 65/6/173
f 66/6/175 65/6/173 93/11/174
f 94/10/175 66/6/175 93/11/174
f 97/10/176 96/10/177 95/11/178
f 96/10/177 97/10/176 71/6/176
f 96/10/177 71/6/176 73/6/177
f 95/11/179 96/10/180 97/10/181
f 71/6/181 97/10/181 96/10/180
f 73/6/180 71/6/181 96/10/180
f 98/11/182 75/6/183 91/10/164
f 75/6/164 98/11/182 73/6/177
f 73/6/177 98/11/182 96/10/177
f 91/10/169 75/6/169 98/11/184
f 73/6/180 98/11/184 75/6/169
f 96/10/180 98/11/184 73/6/180
f 94/10/172 97/10/176 99/11/185
f 97/10/176 94/10/172 66/6/172
f 97/10/176 66/6/172 71/6/176
f 99/11/186 97/10/181 94/10/175
f 66/6/175 94/10/175 97/10/181
f 71/6/181 66/6/175 97/10/181
f 90/10/165 92/10/170 100/11/187
f 92/10/170 90/10/165 69/6/165
f 92/10/170 69/6/165 65/6/170
f 100/11/188 92/10/173 90/10/168
f 69/6/168 90/10/168 92/10/173
f 65/6/173 69/6/168 92/10/173
f 102/11/189 61/6/190 101/10/145
f 61/6/145 102/11/144 59/6/146
f 59/6/146 102/11/144 103/10/146
f 101/10/147 61/6/191 102/11/148
f 59/6/149 102/11/150 61/6/147
f 103/10/149 102/11/150 59/6/149
f 103/10/146 60/6/139 59/6/146
f 60/6/139 103/10/146 104/11/151
f 60/6/192 104/11/151 105/10/139
f 59/6/149 60/6/142 103/10/149
f 104/11/152 103/10/149 60/6/142
f 105/10/193 104/11/194 60/6/193
f 62/6/158 107/11/162 106/10/158
f 107/11/162 62/6/158 53/6/153
f 107/11/162 53/6/153 108/10/153
f 106/10/161 107/11/163 62/6/161
f 53/6/156 62/6/161 107/11/163
f 108/10/156 53/6/156 107/11/163
f 110/10/138 105/10/139 109/11/140
f 105/10/139 110/10/138 54/6/138
f 105/10/139 54/6/138 60/6/139
f 109/11/141 105/10/142 110/10/143
f 54/6/143 110/10/143 105/10/142
f 60/6/142 54/6/195 105/10/142
f 101/10/145 106/10/158 111/11/196
f 106/10/158 101/10/145 61/6/145
f 106/10/158 61/6/145 62/6/158
f 111/11/197 106/10/161 101/10/147
f 61/6/147 101/10/147 106/10/161
f 62/6/161 61/6/147 106/10/161
f 53/6/153 112/11/154 108/10/153
f 112/11/154 53/6/153 54/6/138
f 112/11/154 54/6/198 110/10/138
f 108/10/156 112/11/157 53/6/156
f 54/6/143 53/6/156 112/11/157
f 110/10/143 54/6/143 112/11/157
