# Blender 4.1.1
# www.blender.org
mtllib path_short.002.mtl
o path_short.002
v -0.400694 -0.013377 -1.347511
v -0.630650 -0.013377 -1.347511
v -0.400694 -0.013377 -1.117555
v -0.630650 -0.013377 -1.117555
v -0.630650 -0.001879 -1.313017
v -0.400694 -0.001879 -1.313017
v -0.630650 -0.001879 -1.152049
v -0.400694 -0.001879 -1.152049
vn 0.5386 -0.1351 0.8317
vn -0.5386 -0.1351 -0.8316
vn 0.5386 -0.1350 -0.8317
vn -0.5386 -0.1350 0.8317
vn -0.6728 0.7303 0.1185
vn 0.6728 0.7303 -0.1185
vn -0.6728 0.7303 -0.1185
vn 0.6728 0.7303 0.1185
vt -3.937008 3.937008
vt 3.937008 -3.937008
vt 3.937008 3.937008
vt -3.937008 -3.937008
vt 2.755906 -3.937008
vt -2.755906 3.937008
vt -2.755906 -3.937008
vt 2.755906 3.937008
vt 3.937008 0.000000
vt -2.755906 0.393701
vt -3.937008 0.000000
vt 2.755906 0.393701
vt -3.937008 0.000000
vt 3.937008 0.000000
vt -3.937008 -3.734974
vt 3.937008 -2.489982
vt -3.937008 -2.489982
vt 3.937008 -3.734974
s 1
usemtl border.003
f 3/1/1 2/2/2 1/3/3
f 2/2/2 3/1/1 4/4/4
f 7/5/5 6/6/6 5/7/7
f 6/6/6 7/5/5 8/8/8
f 4/9/4 5/10/7 2/11/2
f 5/10/7 4/9/4 7/12/5
f 6/12/6 3/13/1 1/14/3
f 3/13/1 6/12/6 8/10/8
usemtl wood.002
f 4/15/4 8/16/8 7/17/5
f 8/16/8 4/15/4 3/18/1
f 5/16/7 1/15/3 2/18/2
f 1/15/3 5/16/7 6/17/6
