# Blender 4.1.1
# www.blender.org
mtllib tree.065.mtl
o tree.065
v 6.118180 -4.675250 6.038813
v 6.304152 -4.675250 6.086857
v 6.049216 -4.675250 5.921805
v 6.421159 -4.675250 6.017893
v 6.097260 -4.675250 5.735834
v 6.469203 -4.675250 5.831922
v 6.214268 -4.675250 5.666870
v 6.400240 -4.675250 5.714914
v 6.281681 -4.327482 5.981861
v 6.188695 -4.327482 5.957839
v 6.154213 -4.327482 5.899334
v 6.340185 -4.327482 5.947379
v 6.364207 -4.327482 5.854393
v 6.329725 -4.327482 5.795889
v 6.236739 -4.327482 5.771867
v 6.178235 -4.327482 5.806349
v 6.347354 -3.805792 5.775645
v 6.231121 -3.805792 5.745618
v 6.157991 -3.805792 5.788720
v 6.287299 -3.805792 6.008110
v 6.171066 -3.805792 5.978082
v 6.390456 -3.805792 5.848775
v 6.360428 -3.805792 5.965007
v 6.127964 -3.805792 5.904952
v 6.264956 -4.203316 6.042302
v 6.204757 -4.203316 5.996963
v 6.339582 -4.203316 6.031794
v 6.384920 -4.203316 5.971595
v 6.194249 -4.203316 5.922337
v 6.374413 -4.203316 5.896969
v 6.239587 -4.203316 5.862139
v 6.314214 -4.203316 5.851631
v 6.251005 -4.329511 6.096301
v 6.367900 -4.329511 6.079842
v 6.156709 -4.329511 6.025282
v 6.140249 -4.329511 5.908387
v 6.438920 -4.329511 5.985546
v 6.211268 -4.329511 5.814091
v 6.422460 -4.329511 5.868650
v 6.328164 -4.329511 5.797631
v 5.800630 -3.805792 5.995798
v 5.920276 -3.805792 5.532664
v 5.989601 -3.230796 5.943339
v 6.060193 -3.230796 5.670088
v 6.602802 -3.805792 6.203032
v 6.141892 -3.805792 6.330982
v 6.462885 -3.230796 6.065608
v 6.190947 -3.230796 6.141099
v 6.722448 -3.805792 5.739898
v 6.533477 -3.230796 5.792356
v 6.332131 -3.230796 5.594597
v 6.381185 -3.805792 5.404714
v 6.192551 -2.613048 6.134892
v 5.995778 -2.613048 5.941624
v 6.245682 -1.965095 5.929227
v 6.200454 -1.965095 5.884805
v 6.277395 -1.965095 5.806468
v 6.216311 -1.965095 5.823426
v 6.330527 -2.613048 5.600804
v 6.064766 -2.613048 5.674580
v 6.527300 -2.613048 5.794071
v 6.458312 -2.613048 6.061115
v 6.322623 -1.965095 5.850891
v 6.306767 -1.965095 5.912270
v 6.365564 -3.230796 6.242571
v 5.989032 -3.230796 6.145297
v 6.309205 -2.613048 6.039550
v 6.136673 -2.613048 5.994978
v 6.638071 -3.230796 5.965121
v 6.434070 -2.613048 5.912420
v 5.885007 -3.230796 5.770574
v 6.089008 -2.613048 5.823276
v 6.157514 -3.230796 5.493125
v 6.213874 -2.613048 5.696146
v 6.534046 -3.230796 5.590398
v 6.386405 -2.613048 5.740717
v 5.772214 -3.985170 5.741435
v 5.882738 -3.895481 5.495793
v 5.749930 -3.895481 6.009873
v 6.773149 -3.895481 5.725823
v 6.615678 -3.985170 5.507286
v 6.394347 -3.895481 5.353769
v 6.126353 -3.985170 5.380874
v 6.128731 -3.895481 6.381927
v 5.907400 -3.985170 6.228409
v 6.750864 -3.985170 5.994260
v 6.640341 -3.895481 6.239902
v 6.396725 -3.985170 6.354822
v 6.657453 -3.376631 5.757941
v 6.679489 -3.303713 5.975821
v 6.564022 -3.303713 5.559879
v 6.377007 -3.303713 6.283791
v 6.158765 -3.376631 6.265673
v 5.959056 -3.303713 6.175817
v 5.968400 -3.376631 5.579930
v 6.146072 -3.303713 5.451905
v 5.843588 -3.303713 5.759874
v 6.364314 -3.376631 5.470023
v 5.865625 -3.376631 5.977756
v 6.554678 -3.376631 6.155766
v 6.556534 -2.664763 5.785956
v 6.465736 -2.716478 5.659947
v 6.338116 -2.664763 5.571429
v 6.183590 -2.716478 5.587058
v 6.043121 -2.664763 5.653321
v 6.479957 -2.664763 6.082375
v 6.339487 -2.716478 6.148638
v 6.184962 -2.664763 6.164267
v 5.979393 -2.716478 5.794958
v 5.966544 -2.664763 5.949739
v 6.543684 -2.716478 5.940737
v 6.057342 -2.716478 6.075748
vn -0.0000 -1.0000 -0.0000
vn 0.1278 0.2942 0.9472
vn -0.5784 0.2944 0.7608
vn 0.1376 0.2944 0.9457
vn -0.5784 0.2944 0.7607
vn -0.5706 0.2942 0.7667
vn -0.9471 0.2942 0.1279
vn -0.5785 0.2944 0.7607
vn -0.5707 0.2942 0.7667
vn -0.9471 0.2943 0.1279
vn -0.9457 0.2944 0.1376
vn 0.7667 0.2942 0.5707
vn 0.7607 0.2944 0.5785
vn 0.1279 0.2942 0.9471
vn 0.9472 0.2942 -0.1278
vn 0.7607 0.2944 0.5784
vn 0.9457 0.2944 -0.1376
vn 0.7667 0.2942 0.5706
vn -0.1376 0.2944 -0.9457
vn 0.5706 0.2942 -0.7667
vn 0.5784 0.2944 -0.7607
vn -0.1278 0.2942 -0.9472
vn -0.9472 0.2942 0.1278
vn -0.7607 0.2944 -0.5784
vn -0.7667 0.2942 -0.5706
vn 0.5785 0.2944 -0.7607
vn 0.9471 0.2943 -0.1279
vn 0.9471 0.2942 -0.1279
vn 0.5707 0.2942 -0.7667
vn -0.7667 0.2942 -0.5707
vn -0.1279 0.2942 -0.9471
vn -0.7607 0.2944 -0.5785
vn 0.6001 -0.0513 -0.7983
vn -0.1401 -0.0512 -0.9888
vn 0.6015 -0.0513 -0.7972
vn -0.1401 -0.0513 -0.9888
vn -0.1383 -0.0513 -0.9891
vn -0.7983 -0.0512 -0.6001
vn -0.1384 -0.0512 -0.9891
vn -0.7983 -0.0513 -0.6001
vn -0.7972 -0.0512 -0.6015
vn -0.6015 -0.0512 0.7972
vn 0.1383 -0.0513 0.9891
vn 0.1401 -0.0513 0.9888
vn -0.6001 -0.0513 0.7983
vn 0.9888 -0.0513 -0.1401
vn 0.7983 -0.0513 0.6001
vn 0.9891 -0.0513 -0.1383
vn 0.9888 -0.0512 -0.1401
vn 0.7972 -0.0513 0.6015
vn -0.6015 -0.0513 0.7972
vn -0.9891 -0.0513 0.1384
vn -0.6001 -0.0512 0.7983
vn -0.9888 -0.0513 0.1401
vn 0.9891 -0.0513 -0.1384
vn 0.6015 -0.0512 -0.7972
vn 0.7972 -0.0512 0.6015
vn 0.7983 -0.0512 0.6001
vn 0.1384 -0.0512 0.9891
vn -0.9891 -0.0513 0.1383
vn -0.9888 -0.0512 0.1401
vn -0.7972 -0.0513 -0.6015
vn -0.0000 1.0000 -0.0000
vn 0.4644 0.4042 0.7880
vn -0.2288 0.4042 0.8856
vn -0.2288 0.4043 0.8856
vn -0.8856 0.4042 -0.2288
vn -0.4645 0.4042 -0.7880
vn -0.4644 0.4043 -0.7880
vn 0.2288 0.4042 -0.8856
vn -0.4644 0.4042 -0.7880
vn 0.2288 0.4043 -0.8856
vn 0.8856 0.4042 0.2288
vn 0.4645 0.4042 0.7880
vn 0.4645 0.4043 0.7879
vn -0.7880 0.4042 0.4644
vn -0.8856 0.4043 -0.2287
vn 0.7880 0.4042 -0.4644
vn 0.8856 0.4043 0.2288
vn -0.7880 0.4042 0.4645
vn 0.7880 0.4042 -0.4645
vn -0.9120 0.3228 0.2532
vn -0.6753 0.3228 -0.6632
vn 0.6752 0.3228 0.6632
vn -0.2367 0.3228 0.9164
vn 0.9120 0.3228 -0.2532
vn 0.6753 0.3228 0.6632
vn -0.2368 0.3228 0.9164
vn 0.2367 0.3228 -0.9164
vn -0.6752 0.3228 -0.6632
vn 0.2368 0.3228 -0.9164
vn -0.1720 0.7260 0.6659
vn -0.9156 0.3115 0.2542
vn -0.2377 0.3115 0.9200
vn -0.6627 0.7260 0.1839
vn 0.2377 0.3115 -0.9200
vn -0.4907 0.7260 -0.4819
vn 0.1721 0.7260 -0.6659
vn -0.6779 0.3115 -0.6659
vn 0.6627 0.7260 -0.1840
vn 0.6779 0.3115 0.6659
vn 0.9156 0.3115 -0.2542
vn 0.6779 0.3115 0.6658
vn 0.4906 0.7260 0.4819
vn 0.4907 0.7260 0.4819
vn -0.1721 0.7260 0.6659
vn 0.4906 0.7259 0.4819
vn -0.6627 0.7259 0.1840
vn -0.1721 0.7259 0.6659
vn 0.4907 0.7259 0.4819
vn -0.4906 0.7259 -0.4819
vn -0.4907 0.7259 -0.4819
vn 0.6627 0.7259 -0.1840
vn 0.1721 0.7259 -0.6659
vn 0.2377 0.3116 -0.9200
vn 0.6627 0.7260 -0.1839
vn 0.6626 0.7260 -0.1840
vn 0.1720 0.7260 -0.6658
vn -0.6627 0.7260 0.1840
vn -0.6779 0.3115 -0.6658
vn -0.4906 0.7260 -0.4820
vn 0.2532 0.3228 0.9120
vn -0.6632 0.3228 0.6752
vn -0.6632 0.3228 0.6753
vn 0.9164 0.3228 0.2367
vn 0.9164 0.3228 0.2368
vn -0.9164 0.3228 -0.2367
vn -0.2532 0.3228 -0.9120
vn -0.9164 0.3228 -0.2368
vn 0.6632 0.3228 -0.6752
vn -0.8311 0.5060 0.2307
vn -0.6153 0.5060 -0.6044
vn -0.8632 0.4530 -0.2230
vn -0.6154 0.5060 -0.6044
vn 0.8632 -0.4530 0.2230
vn 0.6154 -0.5060 0.6044
vn 0.8311 -0.5060 -0.2307
vn 0.6247 0.4530 -0.6360
vn 0.8311 0.5060 -0.2307
vn 0.2157 0.5060 -0.8351
vn -0.8311 -0.5060 0.2307
vn -0.6247 -0.4530 0.6360
vn -0.2157 -0.5060 0.8351
vn -0.2385 0.4530 -0.8590
vn 0.6153 -0.5060 0.6044
vn 0.2385 -0.4530 0.8590
vn -0.2157 0.5060 0.8351
vn -0.6247 0.4530 0.6360
vn -0.6247 0.4530 0.6361
vn 0.2157 -0.5060 -0.8351
vn 0.6247 -0.4530 -0.6360
vn 0.6247 -0.4530 -0.6361
vn 0.6153 0.5060 0.6044
vn 0.8632 0.4530 0.2230
vn 0.6154 0.5060 0.6044
vn -0.8632 -0.4530 -0.2230
vn -0.6154 -0.5060 -0.6044
vn 0.2385 0.4530 0.8590
vn 0.2385 0.4529 0.8591
vn -0.6153 -0.5060 -0.6044
vn -0.2385 -0.4530 -0.8590
vn -0.2385 -0.4529 -0.8591
vn 0.6044 0.5060 -0.6153
vn 0.8351 0.5060 0.2157
vn 0.8590 0.4530 -0.2385
vn 0.6044 0.5060 -0.6154
vn -0.8590 -0.4530 0.2385
vn -0.8351 -0.5060 -0.2157
vn -0.6044 -0.5060 0.6153
vn -0.6044 -0.5060 0.6154
vn 0.2307 0.5060 0.8311
vn -0.2230 0.4530 0.8632
vn -0.6044 0.5060 0.6153
vn -0.6044 0.5060 0.6154
vn -0.2307 -0.5060 -0.8311
vn 0.2230 -0.4530 -0.8632
vn 0.6044 -0.5060 -0.6154
vn 0.6044 -0.5060 -0.6153
vn -0.8351 0.5060 -0.2157
vn -0.2307 0.5060 -0.8311
vn -0.6361 0.4530 -0.6247
vn 0.6361 -0.4530 0.6247
vn 0.2307 -0.5060 0.8311
vn 0.8351 -0.5060 0.2157
vn 0.2230 0.4530 -0.8632
vn -0.2230 -0.4530 0.8632
vn -0.8590 0.4530 0.2385
vn 0.8590 -0.4530 -0.2385
vn 0.6360 0.4530 0.6247
vn -0.6360 -0.4530 -0.6247
vn 0.6247 0.4529 -0.6361
vn -0.6247 -0.4529 0.6361
vn -0.6247 -0.4530 0.6361
vt 0.593750 0.025000
vt 0.593750 0.104996
vt 0.593750 0.225000
vt 0.093750 0.475000
vt 0.093750 0.275000
vt 0.093750 0.425000
vt 0.093750 0.348778
vt 0.093750 0.338765
vt 0.093750 0.344099
vt 0.093750 0.375000
vt 0.093750 0.325000
s 0
usemtl colormap.002
f 3/1/1 2/1/1 1/1/1
f 2/1/1 3/1/1 4/1/1
f 4/1/1 3/1/1 5/1/1
f 4/1/1 5/1/1 6/1/1
f 6/1/1 5/1/1 7/1/1
f 6/1/1 7/1/1 8/1/1
f 9/2/2 1/1/3 2/1/4
f 1/1/5 9/2/2 10/2/6
f 11/2/7 1/1/8 10/2/9
f 1/1/8 11/2/10 3/1/11
f 12/2/12 2/1/4 4/1/13
f 2/1/4 12/2/12 9/2/14
f 13/2/15 4/1/16 6/1/17
f 4/1/16 13/2/15 12/2/18
f 7/1/19 14/2/20 8/1/21
f 14/2/20 7/1/19 15/2/22
f 11/2/23 5/1/24 3/1/11
f 5/1/24 11/2/23 16/2/25
f 8/1/26 13/2/27 6/1/17
f 13/2/28 8/1/26 14/2/29
f 7/1/19 16/2/30 15/2/31
f 16/2/30 7/1/19 5/1/32
f 14/2/33 18/3/34 17/3/35
f 18/3/36 14/2/33 15/2/37
f 16/2/38 18/3/36 15/2/39
f 18/3/36 16/2/40 19/3/41
f 21/3/42 9/2/43 20/3/44
f 9/2/43 21/3/42 10/2/45
f 22/3/46 12/2/47 13/2/48
f 12/2/47 22/3/49 23/3/50
f 21/3/51 11/2/52 10/2/53
f 11/2/52 21/3/42 24/3/54
f 13/2/55 17/3/56 22/3/46
f 17/3/35 13/2/55 14/2/33
f 20/3/44 12/2/47 23/3/57
f 12/2/58 20/3/44 9/2/59
f 24/3/54 16/2/40 11/2/60
f 16/2/40 24/3/61 19/3/62
f 27/4/63 26/4/63 25/4/63
f 26/4/63 27/4/63 28/4/63
f 26/4/63 28/4/63 29/4/63
f 29/4/63 28/4/63 30/4/63
f 29/4/63 30/4/63 31/4/63
f 31/4/63 30/4/63 32/4/63
f 35/5/1 34/5/1 33/5/1
f 34/5/1 35/5/1 36/5/1
f 34/5/1 36/5/1 37/5/1
f 37/5/1 36/5/1 38/5/1
f 37/5/1 38/5/1 39/5/1
f 39/5/1 38/5/1 40/5/1
f 27/4/64 33/5/65 34/5/64
f 33/5/65 27/4/64 25/4/66
f 29/4/67 38/5/68 36/5/67
f 38/5/68 29/4/67 31/4/69
f 40/5/70 31/4/71 32/4/72
f 31/4/71 40/5/70 38/5/71
f 28/4/73 34/5/64 37/5/73
f 34/5/74 28/4/73 27/4/75
f 26/4/76 36/5/67 35/5/76
f 36/5/67 26/4/76 29/4/77
f 30/4/78 37/5/73 39/5/78
f 37/5/73 30/4/78 28/4/79
f 26/4/80 33/5/66 25/4/65
f 33/5/65 26/4/76 35/5/80
f 40/5/70 30/4/78 39/5/81
f 30/4/78 40/5/72 32/4/70
f 43/6/82 42/7/83 41/7/82
f 42/7/83 43/6/82 44/6/83
f 47/6/84 46/7/85 45/7/84
f 46/7/85 47/6/84 48/6/85
f 50/6/86 45/7/87 49/7/86
f 45/7/87 50/6/86 47/6/87
f 48/6/88 41/7/82 46/7/85
f 41/7/82 48/6/88 43/6/82
f 52/7/89 44/6/90 51/6/89
f 44/6/90 52/7/89 42/7/90
f 52/7/91 50/6/86 49/7/86
f 50/6/86 52/7/91 51/6/91
f 41/7/1 45/7/1 46/7/1
f 45/7/1 41/7/1 42/7/1
f 45/7/1 42/7/1 49/7/1
f 49/7/1 42/7/1 52/7/1
f 55/6/92 54/8/93 53/8/94
f 54/8/93 55/6/92 56/6/95
f 59/8/96 58/6/97 57/6/98
f 58/6/97 59/8/96 60/8/99
f 63/6/100 62/8/101 61/8/102
f 62/8/103 63/6/100 64/6/104
f 64/6/105 53/8/94 62/8/101
f 53/8/94 64/6/105 55/6/106
f 64/6/107 56/6/108 55/6/109
f 56/6/108 64/6/110 58/6/111
f 58/6/112 64/6/107 63/6/113
f 58/6/111 63/6/113 57/6/114
f 59/8/115 63/6/116 61/8/102
f 63/6/117 59/8/96 57/6/118
f 54/8/1 62/8/1 53/8/1
f 62/8/1 54/8/1 60/8/1
f 62/8/1 60/8/1 61/8/1
f 61/8/1 60/8/1 59/8/1
f 56/6/119 60/8/99 54/8/93
f 60/8/120 56/6/119 58/6/121
f 67/6/122 66/9/123 65/9/122
f 66/9/123 67/6/122 68/6/124
f 70/6/125 65/9/122 69/9/126
f 65/9/122 70/6/125 67/6/122
f 68/6/123 71/9/127 66/9/123
f 71/9/127 68/6/123 72/6/127
f 72/6/127 73/9/128 71/9/129
f 73/9/128 72/6/129 74/6/128
f 71/9/1 65/9/1 66/9/1
f 65/9/1 71/9/1 69/9/1
f 69/9/1 71/9/1 73/9/1
f 69/9/1 73/9/1 75/9/1
f 76/6/130 69/9/125 75/9/130
f 69/9/125 76/6/130 70/6/125
f 73/9/128 76/6/130 75/9/130
f 76/6/130 73/9/128 74/6/128
f 79/10/131 78/10/132 77/11/133
f 78/10/134 79/10/131 41/6/131
f 78/10/134 41/6/131 42/6/134
f 77/11/135 78/10/136 79/10/137
f 41/6/137 79/10/137 78/10/136
f 42/6/136 41/6/137 78/10/136
f 81/11/138 49/6/139 80/10/139
f 49/6/139 81/11/138 52/6/140
f 52/6/140 81/11/138 82/10/140
f 80/10/141 49/6/141 81/11/142
f 52/6/143 81/11/142 49/6/141
f 82/10/143 81/11/142 52/6/143
f 82/10/140 42/6/134 52/6/140
f 42/6/134 82/10/140 83/11/144
f 42/6/132 83/11/144 78/10/134
f 52/6/143 42/6/145 82/10/143
f 83/11/146 82/10/143 42/6/145
f 78/10/145 83/11/146 42/6/145
f 46/6/147 85/11/148 84/10/147
f 85/11/148 46/6/147 41/6/131
f 85/11/149 41/6/131 79/10/131
f 84/10/150 85/11/151 46/6/150
f 41/6/137 46/6/150 85/11/151
f 79/10/137 41/6/137 85/11/152
f 80/10/139 87/10/153 86/11/154
f 87/10/155 80/10/139 49/6/139
f 87/10/155 49/6/139 45/6/155
f 86/11/156 87/10/157 80/10/141
f 49/6/141 80/10/141 87/10/157
f 45/6/157 49/6/141 87/10/157
f 45/6/153 88/11/158 87/10/155
f 88/11/158 45/6/155 46/6/147
f 88/11/159 46/6/147 84/10/147
f 87/10/160 88/11/161 45/6/160
f 46/6/150 45/6/157 88/11/161
f 84/10/150 46/6/150 88/11/162
f 91/10/163 90/10/164 89/11/165
f 90/10/164 91/10/166 75/6/166
f 90/10/164 75/6/166 69/6/164
f 89/11/167 90/10/168 91/10/169
f 75/6/170 91/10/170 90/10/168
f 69/6/168 75/6/169 90/10/168
f 65/6/171 93/11/172 92/10/171
f 93/11/172 65/6/171 66/6/173
f 93/11/172 66/6/173 94/10/174
f 92/10/175 93/11/176 65/6/175
f 66/6/177 65/6/175 93/11/176
f 94/10/177 66/6/178 93/11/176
f 97/10/179 96/10/180 95/11/181
f 96/10/180 97/10/179 71/6/179
f 96/10/180 71/6/179 73/6/180
f 95/11/182 96/10/183 97/10/184
f 71/6/184 97/10/184 96/10/183
f 73/6/183 71/6/184 96/10/183
f 98/11/185 75/6/163 91/10/166
f 75/6/163 98/11/185 73/6/180
f 73/6/180 98/11/185 96/10/180
f 91/10/170 75/6/169 98/11/186
f 73/6/183 98/11/186 75/6/170
f 96/10/183 98/11/186 73/6/183
f 94/10/173 97/10/179 99/11/187
f 97/10/179 94/10/174 66/6/174
f 97/10/179 66/6/174 71/6/179
f 99/11/188 97/10/184 94/10/178
f 66/6/177 94/10/177 97/10/184
f 71/6/184 66/6/178 97/10/184
f 90/10/164 92/10/171 100/11/189
f 92/10/171 90/10/164 69/6/164
f 92/10/171 69/6/164 65/6/171
f 100/11/190 92/10/175 90/10/168
f 69/6/168 90/10/168 92/10/175
f 65/6/175 69/6/168 92/10/175
f 102/11/191 61/6/139 101/10/139
f 61/6/139 102/11/191 59/6/140
f 59/6/140 102/11/138 103/10/140
f 101/10/141 61/6/141 102/11/192
f 59/6/143 102/11/193 61/6/141
f 103/10/143 102/11/142 59/6/143
f 103/10/140 60/6/134 59/6/140
f 60/6/134 103/10/140 104/11/144
f 60/6/132 104/11/144 105/10/134
f 59/6/143 60/6/145 103/10/143
f 104/11/146 103/10/143 60/6/145
f 105/10/136 104/11/146 60/6/145
f 62/6/153 107/11/158 106/10/155
f 107/11/158 62/6/155 53/6/147
f 107/11/158 53/6/147 108/10/147
f 106/10/160 107/11/161 62/6/160
f 53/6/150 62/6/157 107/11/161
f 108/10/150 53/6/150 107/11/161
f 110/10/131 105/10/132 109/11/133
f 105/10/134 110/10/131 54/6/131
f 105/10/134 54/6/131 60/6/134
f 109/11/135 105/10/136 110/10/137
f 54/6/137 110/10/137 105/10/136
f 60/6/136 54/6/137 105/10/136
f 101/10/139 106/10/153 111/11/154
f 106/10/155 101/10/139 61/6/139
f 106/10/155 61/6/139 62/6/155
f 111/11/156 106/10/157 101/10/141
f 61/6/141 101/10/141 106/10/157
f 62/6/157 61/6/141 106/10/157
f 53/6/147 112/11/148 108/10/147
f 112/11/148 53/6/147 54/6/131
f 112/11/148 54/6/131 110/10/131
f 108/10/150 112/11/151 53/6/150
f 54/6/137 53/6/150 112/11/151
f 110/10/137 54/6/137 112/11/151
f 3/1/1 2/1/1 1/1/1
f 2/1/1 3/1/1 4/1/1
f 4/1/1 3/1/1 5/1/1
f 4/1/1 5/1/1 6/1/1
f 6/1/1 5/1/1 7/1/1
f 6/1/1 7/1/1 8/1/1
f 9/2/2 1/1/3 2/1/4
f 1/1/5 9/2/2 10/2/6
f 11/2/7 1/1/8 10/2/9
f 1/1/8 11/2/10 3/1/11
f 12/2/12 2/1/4 4/1/13
f 2/1/4 12/2/12 9/2/14
f 13/2/15 4/1/16 6/1/17
f 4/1/16 13/2/15 12/2/18
f 7/1/19 14/2/20 8/1/21
f 14/2/20 7/1/19 15/2/22
f 11/2/23 5/1/24 3/1/11
f 5/1/24 11/2/23 16/2/25
f 8/1/26 13/2/27 6/1/17
f 13/2/28 8/1/26 14/2/29
f 7/1/19 16/2/30 15/2/31
f 16/2/30 7/1/19 5/1/32
f 14/2/33 18/3/34 17/3/35
f 18/3/36 14/2/33 15/2/37
f 16/2/38 18/3/36 15/2/39
f 18/3/36 16/2/40 19/3/41
f 21/3/42 9/2/43 20/3/44
f 9/2/43 21/3/42 10/2/45
f 22/3/46 12/2/47 13/2/48
f 12/2/47 22/3/49 23/3/50
f 21/3/51 11/2/52 10/2/53
f 11/2/52 21/3/42 24/3/54
f 13/2/55 17/3/56 22/3/46
f 17/3/35 13/2/55 14/2/33
f 20/3/44 12/2/47 23/3/57
f 12/2/58 20/3/44 9/2/59
f 24/3/54 16/2/40 11/2/60
f 16/2/40 24/3/61 19/3/62
f 27/4/63 26/4/63 25/4/63
f 26/4/63 27/4/63 28/4/63
f 26/4/63 28/4/63 29/4/63
f 29/4/63 28/4/63 30/4/63
f 29/4/63 30/4/63 31/4/63
f 31/4/63 30/4/63 32/4/63
f 35/5/1 34/5/1 33/5/1
f 34/5/1 35/5/1 36/5/1
f 34/5/1 36/5/1 37/5/1
f 37/5/1 36/5/1 38/5/1
f 37/5/1 38/5/1 39/5/1
f 39/5/1 38/5/1 40/5/1
f 27/4/64 33/5/65 34/5/64
f 33/5/65 27/4/64 25/4/66
f 29/4/67 38/5/68 36/5/67
f 38/5/68 29/4/67 31/4/69
f 40/5/70 31/4/71 32/4/72
f 31/4/71 40/5/70 38/5/71
f 28/4/73 34/5/64 37/5/73
f 34/5/74 28/4/73 27/4/75
f 26/4/76 36/5/67 35/5/76
f 36/5/67 26/4/76 29/4/77
f 30/4/78 37/5/73 39/5/78
f 37/5/73 30/4/78 28/4/79
f 26/4/80 33/5/66 25/4/65
f 33/5/65 26/4/76 35/5/80
f 40/5/70 30/4/78 39/5/81
f 30/4/78 40/5/72 32/4/70
f 43/6/82 42/7/83 41/7/82
f 42/7/83 43/6/82 44/6/83
f 47/6/84 46/7/85 45/7/84
f 46/7/85 47/6/84 48/6/85
f 50/6/86 45/7/87 49/7/86
f 45/7/87 50/6/86 47/6/87
f 48/6/88 41/7/82 46/7/85
f 41/7/82 48/6/88 43/6/82
f 52/7/89 44/6/90 51/6/89
f 44/6/90 52/7/89 42/7/90
f 52/7/91 50/6/86 49/7/86
f 50/6/86 52/7/91 51/6/91
f 41/7/1 45/7/1 46/7/1
f 45/7/1 41/7/1 42/7/1
f 45/7/1 42/7/1 49/7/1
f 49/7/1 42/7/1 52/7/1
f 55/6/92 54/8/93 53/8/94
f 54/8/93 55/6/92 56/6/95
f 59/8/96 58/6/97 57/6/98
f 58/6/97 59/8/96 60/8/99
f 63/6/100 62/8/101 61/8/102
f 62/8/103 63/6/100 64/6/104
f 64/6/105 53/8/94 62/8/101
f 53/8/94 64/6/105 55/6/106
f 64/6/107 56/6/108 55/6/109
f 56/6/108 64/6/110 58/6/111
f 58/6/112 64/6/107 63/6/113
f 58/6/111 63/6/113 57/6/114
f 59/8/115 63/6/116 61/8/102
f 63/6/117 59/8/96 57/6/118
f 54/8/1 62/8/1 53/8/1
f 62/8/1 54/8/1 60/8/1
f 62/8/1 60/8/1 61/8/1
f 61/8/1 60/8/1 59/8/1
f 56/6/119 60/8/99 54/8/93
f 60/8/120 56/6/119 58/6/121
f 67/6/122 66/9/123 65/9/122
f 66/9/123 67/6/122 68/6/124
f 70/6/125 65/9/122 69/9/126
f 65/9/122 70/6/125 67/6/122
f 68/6/123 71/9/127 66/9/123
f 71/9/127 68/6/123 72/6/127
f 72/6/127 73/9/128 71/9/129
f 73/9/128 72/6/129 74/6/128
f 71/9/1 65/9/1 66/9/1
f 65/9/1 71/9/1 69/9/1
f 69/9/1 71/9/1 73/9/1
f 69/9/1 73/9/1 75/9/1
f 76/6/130 69/9/125 75/9/130
f 69/9/125 76/6/130 70/6/125
f 73/9/128 76/6/130 75/9/130
f 76/6/130 73/9/128 74/6/128
f 79/10/131 78/10/132 77/11/133
f 78/10/134 79/10/131 41/6/131
f 78/10/134 41/6/131 42/6/134
f 77/11/135 78/10/136 79/10/137
f 41/6/137 79/10/137 78/10/136
f 42/6/136 41/6/137 78/10/136
f 81/11/138 49/6/139 80/10/139
f 49/6/139 81/11/138 52/6/140
f 52/6/140 81/11/138 82/10/140
f 80/10/141 49/6/141 81/11/142
f 52/6/143 81/11/142 49/6/141
f 82/10/143 81/11/142 52/6/143
f 82/10/140 42/6/134 52/6/140
f 42/6/134 82/10/140 83/11/144
f 42/6/132 83/11/144 78/10/134
f 52/6/143 42/6/145 82/10/143
f 83/11/146 82/10/143 42/6/145
f 78/10/145 83/11/146 42/6/145
f 46/6/147 85/11/148 84/10/147
f 85/11/148 46/6/147 41/6/131
f 85/11/149 41/6/131 79/10/131
f 84/10/150 85/11/151 46/6/150
f 41/6/137 46/6/150 85/11/151
f 79/10/137 41/6/137 85/11/152
f 80/10/139 87/10/153 86/11/154
f 87/10/155 80/10/139 49/6/139
f 87/10/155 49/6/139 45/6/155
f 86/11/156 87/10/157 80/10/141
f 49/6/141 80/10/141 87/10/157
f 45/6/157 49/6/141 87/10/157
f 45/6/153 88/11/158 87/10/155
f 88/11/158 45/6/155 46/6/147
f 88/11/159 46/6/147 84/10/147
f 87/10/160 88/11/161 45/6/160
f 46/6/150 45/6/157 88/11/161
f 84/10/150 46/6/150 88/11/162
f 91/10/163 90/10/164 89/11/165
f 90/10/164 91/10/166 75/6/166
f 90/10/164 75/6/166 69/6/164
f 89/11/167 90/10/168 91/10/169
f 75/6/170 91/10/170 90/10/168
f 69/6/168 75/6/169 90/10/168
f 65/6/171 93/11/172 92/10/171
f 93/11/172 65/6/171 66/6/173
f 93/11/172 66/6/173 94/10/174
f 92/10/175 93/11/176 65/6/175
f 66/6/177 65/6/175 93/11/176
f 94/10/177 66/6/178 93/11/176
f 97/10/179 96/10/180 95/11/181
f 96/10/180 97/10/179 71/6/179
f 96/10/180 71/6/179 73/6/180
f 95/11/182 96/10/183 97/10/184
f 71/6/184 97/10/184 96/10/183
f 73/6/183 71/6/184 96/10/183
f 98/11/185 75/6/163 91/10/166
f 75/6/163 98/11/185 73/6/180
f 73/6/180 98/11/185 96/10/180
f 91/10/170 75/6/169 98/11/186
f 73/6/183 98/11/186 75/6/170
f 96/10/183 98/11/186 73/6/183
f 94/10/173 97/10/179 99/11/187
f 97/10/179 94/10/174 66/6/174
f 97/10/179 66/6/174 71/6/179
f 99/11/188 97/10/184 94/10/178
f 66/6/177 94/10/177 97/10/184
f 71/6/184 66/6/178 97/10/184
f 90/10/164 92/10/171 100/11/189
f 92/10/171 90/10/164 69/6/164
f 92/10/171 69/6/164 65/6/171
f 100/11/190 92/10/175 90/10/168
f 69/6/168 90/10/168 92/10/175
f 65/6/175 69/6/168 92/10/175
f 102/11/191 61/6/139 101/10/139
f 61/6/139 102/11/191 59/6/140
f 59/6/140 102/11/138 103/10/140
f 101/10/141 61/6/141 102/11/192
f 59/6/143 102/11/193 61/6/141
f 103/10/143 102/11/142 59/6/143
f 103/10/140 60/6/134 59/6/140
f 60/6/134 103/10/140 104/11/144
f 60/6/132 104/11/144 105/10/134
f 59/6/143 60/6/145 103/10/143
f 104/11/146 103/10/143 60/6/145
f 105/10/136 104/11/146 60/6/145
f 62/6/153 107/11/158 106/10/155
f 107/11/158 62/6/155 53/6/147
f 107/11/158 53/6/147 108/10/147
f 106/10/160 107/11/161 62/6/160
f 53/6/150 62/6/157 107/11/161
f 108/10/150 53/6/150 107/11/161
f 110/10/131 105/10/132 109/11/133
f 105/10/134 110/10/131 54/6/131
f 105/10/134 54/6/131 60/6/134
f 109/11/135 105/10/136 110/10/137
f 54/6/137 110/10/137 105/10/136
f 60/6/136 54/6/137 105/10/136
f 101/10/139 106/10/153 111/11/154
f 106/10/155 101/10/139 61/6/139
f 106/10/155 61/6/139 62/6/155
f 111/11/156 106/10/157 101/10/141
f 61/6/141 101/10/141 106/10/157
f 62/6/157 61/6/141 106/10/157
f 53/6/147 112/11/148 108/10/147
f 112/11/148 53/6/147 54/6/131
f 112/11/148 54/6/131 110/10/131
f 108/10/150 112/11/151 53/6/150
f 54/6/137 53/6/150 112/11/151
f 110/10/137 54/6/137 112/11/151
