# Blender 4.1.1
# www.blender.org
mtllib tree.044.mtl
o tree.044
v -7.733432 -4.675250 -15.969748
v -7.565964 -4.675250 -15.875683
v -7.770133 -4.675250 -16.100513
v -7.435198 -4.675250 -15.912384
v -7.676068 -4.675250 -16.267981
v -7.341132 -4.675250 -16.079851
v -7.545301 -4.675250 -16.304682
v -7.377834 -4.675250 -16.210617
v -7.560798 -4.327483 -15.982932
v -7.644532 -4.327483 -16.029964
v -7.662883 -4.327483 -16.095348
v -7.495415 -4.327483 -16.001284
v -7.448383 -4.327483 -16.085016
v -7.466733 -4.327483 -16.150400
v -7.550467 -4.327483 -16.197432
v -7.615850 -4.327483 -16.179081
v -7.444509 -3.805793 -16.165455
v -7.549176 -3.805793 -16.224245
v -7.630905 -3.805793 -16.201305
v -7.562090 -3.805793 -15.956120
v -7.666757 -3.805793 -16.014910
v -7.421570 -3.805793 -16.083725
v -7.480361 -3.805793 -15.979058
v -7.689695 -3.805793 -16.096640
v -7.592443 -4.203316 -15.928789
v -7.639025 -4.203316 -15.988030
v -7.517615 -4.203316 -15.919837
v -7.458373 -4.203316 -15.966418
v -7.630072 -4.203316 -16.062859
v -7.449420 -4.203316 -16.041246
v -7.570830 -4.203316 -16.109440
v -7.496002 -4.203316 -16.100489
v -7.619757 -4.329511 -15.880162
v -7.502544 -4.329511 -15.866138
v -7.692723 -4.329511 -15.972960
v -7.678699 -4.329511 -16.090174
v -7.409746 -4.329511 -15.939104
v -7.585901 -4.329511 -16.163139
v -7.395722 -4.329511 -16.056318
v -7.468688 -4.329511 -16.149115
v -8.029379 -3.805793 -16.092646
v -7.795124 -3.805793 -16.509699
v -7.833275 -3.230796 -16.094963
v -7.695064 -3.230796 -16.341028
v -7.307022 -3.805793 -15.686905
v -7.785327 -3.805793 -15.681248
v -7.407082 -3.230796 -15.855575
v -7.689283 -3.230796 -15.852238
v -7.072767 -3.805793 -16.103956
v -7.268870 -3.230796 -16.101639
v -7.412861 -3.230796 -16.344364
v -7.316817 -3.805793 -16.515354
v -7.686144 -2.613048 -15.857827
v -7.826865 -2.613048 -16.095039
v -7.582119 -1.965096 -16.043030
v -7.614462 -1.965096 -16.097551
v -7.520027 -1.965096 -16.153572
v -7.583417 -1.965096 -16.152824
v -7.416001 -2.613048 -16.338774
v -7.691792 -2.613048 -16.335514
v -7.275280 -2.613048 -16.101562
v -7.410353 -2.613048 -15.861090
v -7.487683 -1.965096 -16.099051
v -7.518728 -1.965096 -16.043777
v -7.546474 -3.230796 -15.709434
v -7.885542 -3.230796 -15.899886
v -7.548966 -2.613048 -15.920118
v -7.704330 -2.613048 -16.007385
v -7.212005 -3.230796 -15.907849
v -7.395708 -2.613048 -16.011034
v -7.890140 -3.230796 -16.288752
v -7.706437 -2.613048 -16.185568
v -7.555671 -3.230796 -16.487167
v -7.553179 -2.613048 -16.276484
v -7.216603 -3.230796 -16.296717
v -7.397815 -2.613048 -16.189217
v -7.991710 -3.985170 -16.345802
v -7.821970 -3.895481 -16.554951
v -8.081992 -3.895481 -16.092024
v -7.020153 -3.895481 -16.104578
v -7.116410 -3.985170 -16.356153
v -7.291049 -3.895481 -16.561230
v -7.557048 -3.985170 -16.603657
v -7.811095 -3.895481 -15.635372
v -7.985735 -3.985170 -15.840448
v -7.110435 -3.985170 -15.850799
v -7.280176 -3.895481 -15.641650
v -7.545097 -3.985170 -15.592947
v -7.140215 -3.376631 -16.103159
v -7.174707 -3.303713 -15.886901
v -7.179812 -3.303713 -16.318542
v -7.545969 -3.303713 -15.666659
v -7.752294 -3.376631 -15.740059
v -7.922333 -3.303713 -15.878060
v -7.760708 -3.376631 -16.451685
v -7.556177 -3.303713 -16.529943
v -7.927437 -3.303713 -16.309702
v -7.349851 -3.376631 -16.456543
v -7.961930 -3.376631 -16.093443
v -7.341436 -3.376631 -15.744917
v -7.244943 -2.664763 -16.101921
v -7.300446 -2.716478 -16.246979
v -7.401143 -2.664763 -16.365227
v -7.554518 -2.716478 -16.389690
v -7.707272 -2.664763 -16.361607
v -7.394873 -2.664763 -15.834996
v -7.547627 -2.716478 -15.806912
v -7.701002 -2.664763 -15.831375
v -7.805145 -2.716478 -16.241013
v -7.857202 -2.664763 -16.094681
v -7.297000 -2.716478 -15.955591
v -7.801700 -2.716478 -15.949622
vn -0.0000 -1.0000 -0.0000
vn -0.1190 0.2942 0.9483
vn -0.7540 0.2944 0.5873
vn -0.1092 0.2944 0.9494
vn -0.7539 0.2944 0.5873
vn -0.7479 0.2942 0.5951
vn -0.9483 0.2942 -0.1189
vn -0.7540 0.2944 0.5872
vn -0.7480 0.2942 0.5950
vn -0.9483 0.2943 -0.1189
vn -0.9494 0.2944 -0.1091
vn 0.5950 0.2942 0.7480
vn -0.1091 0.2944 0.9494
vn 0.5872 0.2944 0.7540
vn 0.5950 0.2942 0.7479
vn -0.1189 0.2942 0.9483
vn 0.9483 0.2942 0.1190
vn 0.5873 0.2944 0.7540
vn 0.9494 0.2944 0.1092
vn 0.5951 0.2942 0.7479
vn 0.1092 0.2944 -0.9494
vn 0.7479 0.2942 -0.5951
vn 0.7540 0.2944 -0.5873
vn 0.1190 0.2942 -0.9483
vn -0.9483 0.2942 -0.1190
vn -0.5873 0.2944 -0.7540
vn -0.9494 0.2944 -0.1092
vn -0.5872 0.2944 -0.7540
vn -0.5950 0.2942 -0.7479
vn 0.7540 0.2944 -0.5872
vn 0.9483 0.2943 0.1189
vn 0.9494 0.2944 0.1091
vn 0.9483 0.2942 0.1189
vn 0.7480 0.2942 -0.5950
vn 0.1091 0.2944 -0.9494
vn -0.5950 0.2942 -0.7480
vn 0.1189 0.2942 -0.9483
vn 0.7845 -0.0513 -0.6180
vn 0.1178 -0.0512 -0.9917
vn 0.7856 -0.0513 -0.6166
vn 0.1178 -0.0513 -0.9917
vn 0.1196 -0.0513 -0.9915
vn -0.6180 -0.0513 -0.7845
vn 0.1195 -0.0512 -0.9915
vn 0.1177 -0.0513 -0.9917
vn -0.6166 -0.0512 -0.7856
vn -0.7856 -0.0512 0.6166
vn -0.1196 -0.0513 0.9915
vn -0.1178 -0.0513 0.9917
vn -0.7845 -0.0513 0.6180
vn 0.9917 -0.0513 0.1178
vn 0.6180 -0.0513 0.7845
vn 0.9915 -0.0513 0.1196
vn 0.9917 -0.0512 0.1178
vn 0.6166 -0.0513 0.7856
vn -0.7856 -0.0513 0.6166
vn -0.9915 -0.0513 -0.1195
vn -0.9917 -0.0512 -0.1178
vn 0.9915 -0.0513 0.1195
vn 0.7856 -0.0512 -0.6166
vn -0.1177 -0.0513 0.9917
vn 0.6166 -0.0512 0.7856
vn 0.6180 -0.0512 0.7845
vn -0.1195 -0.0512 0.9915
vn -0.9917 -0.0513 -0.1178
vn -0.9915 -0.0513 -0.1196
vn -0.6166 -0.0513 -0.7856
vn -0.0000 1.0000 -0.0000
vn 0.2471 0.4042 0.8806
vn -0.4479 0.4042 0.7975
vn 0.2471 0.4042 0.8807
vn -0.7975 0.4042 -0.4480
vn -0.2472 0.4042 -0.8806
vn -0.2472 0.4043 -0.8806
vn 0.4479 0.4042 -0.7975
vn -0.2471 0.4042 -0.8807
vn -0.2471 0.4042 -0.8806
vn -0.2471 0.4043 -0.8806
vn 0.7975 0.4042 0.4480
vn 0.2472 0.4042 0.8806
vn 0.2472 0.4043 0.8806
vn -0.8806 0.4042 0.2472
vn -0.7975 0.4042 -0.4479
vn -0.8806 0.4042 0.2471
vn -0.8807 0.4042 0.2471
vn 0.8806 0.4042 -0.2471
vn 0.7975 0.4042 0.4479
vn 0.7975 0.4043 0.4479
vn -0.4479 0.4043 0.7974
vn -0.4480 0.4042 0.7975
vn 0.8806 0.4042 -0.2472
vn 0.4479 0.4043 -0.7975
vn 0.4480 0.4042 -0.7975
vn -0.9464 0.3228 0.0112
vn -0.4829 0.3228 -0.8140
vn 0.4829 0.3228 0.8140
vn -0.4635 0.3228 0.8252
vn 0.9464 0.3228 -0.0112
vn 0.4635 0.3228 -0.8252
vn -0.3368 0.7260 0.5996
vn -0.9502 0.3115 0.0112
vn -0.4654 0.3115 0.8285
vn -0.6877 0.7260 0.0081
vn 0.4654 0.3115 -0.8285
vn -0.3509 0.7260 -0.5915
vn 0.3369 0.7260 -0.5996
vn -0.4848 0.3115 -0.8173
vn 0.6877 0.7260 -0.0082
vn 0.4848 0.3115 0.8173
vn 0.9502 0.3115 -0.0112
vn 0.4848 0.3115 0.8172
vn 0.3509 0.7260 0.5915
vn -0.4653 0.3115 0.8285
vn -0.3369 0.7260 0.5996
vn 0.3509 0.7259 0.5915
vn -0.6877 0.7259 0.0082
vn -0.3368 0.7259 0.5996
vn -0.6877 0.7259 0.0081
vn -0.3509 0.7259 -0.5915
vn 0.6877 0.7259 -0.0081
vn 0.6877 0.7259 -0.0082
vn 0.3368 0.7259 -0.5996
vn 0.6877 0.7260 -0.0081
vn 0.9502 0.3115 -0.0113
vn 0.6876 0.7260 -0.0081
vn 0.3368 0.7260 -0.5996
vn -0.6877 0.7260 0.0082
vn -0.4848 0.3115 -0.8172
vn -0.3508 0.7260 -0.5915
vn 0.0112 0.3228 0.9464
vn -0.8140 0.3228 0.4829
vn 0.8252 0.3228 0.4635
vn -0.8252 0.3228 -0.4635
vn -0.0112 0.3228 -0.9464
vn 0.8140 0.3228 -0.4829
vn -0.8625 0.5060 0.0102
vn -0.4401 0.5060 -0.7418
vn -0.7773 0.4530 -0.4366
vn 0.7773 -0.4530 0.4366
vn 0.4401 -0.5060 0.7418
vn 0.8625 -0.5060 -0.0102
vn 0.7668 0.4530 -0.4549
vn 0.8624 0.5060 -0.0102
vn 0.8625 0.5060 -0.0102
vn 0.4224 0.5060 -0.7520
vn 0.7668 0.4529 -0.4549
vn -0.8625 -0.5060 0.0102
vn -0.7668 -0.4530 0.4549
vn -0.4224 -0.5060 0.7520
vn -0.7668 -0.4529 0.4549
vn -0.0105 0.4530 -0.8915
vn -0.0106 0.4529 -0.8915
vn 0.0105 -0.4529 0.8915
vn 0.0106 -0.4529 0.8915
vn -0.4224 0.5060 0.7520
vn -0.7668 0.4530 0.4549
vn -0.8624 0.5060 0.0102
vn 0.4224 -0.5060 -0.7520
vn 0.7668 -0.4530 -0.4549
vn 0.4401 0.5060 0.7418
vn 0.7773 0.4530 0.4366
vn -0.7773 -0.4530 -0.4366
vn -0.4401 -0.5060 -0.7418
vn 0.4401 0.5061 0.7418
vn 0.0105 0.4530 0.8915
vn 0.0105 0.4529 0.8915
vn -0.0105 -0.4530 -0.8915
vn -0.4400 -0.5061 -0.7418
vn -0.0105 -0.4529 -0.8915
vn 0.7418 0.5060 -0.4401
vn 0.7520 0.5060 0.4224
vn 0.8915 0.4530 -0.0105
vn -0.8915 -0.4530 0.0105
vn -0.7520 -0.5060 -0.4224
vn -0.7418 -0.5060 0.4401
vn 0.0102 0.5060 0.8625
vn -0.4366 0.4530 0.7773
vn -0.7418 0.5060 0.4401
vn -0.7418 0.5061 0.4400
vn -0.0102 -0.5060 -0.8625
vn 0.4366 -0.4530 -0.7773
vn -0.0102 -0.5060 -0.8624
vn 0.7418 -0.5060 -0.4401
vn 0.4366 -0.4529 -0.7773
vn -0.7520 0.5060 -0.4224
vn -0.0102 0.5060 -0.8625
vn -0.4549 0.4529 -0.7668
vn 0.4549 -0.4529 0.7668
vn 0.0102 -0.5060 0.8625
vn 0.7520 -0.5060 0.4224
vn 0.4366 0.4530 -0.7773
vn 0.7418 0.5061 -0.4400
vn -0.0102 0.5061 -0.8624
vn -0.7418 -0.5060 0.4400
vn -0.4366 -0.4530 0.7773
vn 0.0102 -0.5061 0.8624
vn -0.8915 0.4530 0.0105
vn 0.8915 -0.4530 -0.0105
vn 0.0102 0.5060 0.8624
vn 0.4549 0.4530 0.7668
vn -0.4549 -0.4530 -0.7668
vn 0.0105 -0.4530 0.8915
vn -0.4224 0.5061 0.7520
vn -0.4401 -0.5061 -0.7418
vn -0.7773 0.4529 -0.4366
vn 0.7773 -0.4529 0.4366
vn 0.7773 0.4529 0.4366
vn -0.7773 -0.4529 -0.4366
vn -0.8624 -0.5060 0.0102
vt 0.593750 0.025000
vt 0.593750 0.104996
vt 0.593750 0.225000
vt 0.093750 0.475000
vt 0.093750 0.275000
vt 0.093750 0.425000
vt 0.093750 0.348778
vt 0.093750 0.338765
vt 0.093750 0.344099
vt 0.093750 0.375000
vt 0.093750 0.325000
s 0
usemtl colormap.002
f 3/1/1 2/1/1 1/1/1
f 2/1/1 3/1/1 4/1/1
f 4/1/1 3/1/1 5/1/1
f 4/1/1 5/1/1 6/1/1
f 6/1/1 5/1/1 7/1/1
f 6/1/1 7/1/1 8/1/1
f 9/2/2 1/1/3 2/1/4
f 1/1/5 9/2/2 10/2/6
f 11/2/7 1/1/8 10/2/9
f 1/1/8 11/2/10 3/1/11
f 12/2/12 2/1/13 4/1/14
f 2/1/13 12/2/15 9/2/16
f 13/2/17 4/1/18 6/1/19
f 4/1/18 13/2/17 12/2/20
f 7/1/21 14/2/22 8/1/23
f 14/2/22 7/1/21 15/2/24
f 11/2/25 5/1/26 3/1/27
f 5/1/28 11/2/25 16/2/29
f 8/1/30 13/2/31 6/1/32
f 13/2/33 8/1/30 14/2/34
f 7/1/35 16/2/36 15/2/37
f 16/2/36 7/1/35 5/1/28
f 14/2/38 18/3/39 17/3/40
f 18/3/41 14/2/38 15/2/42
f 16/2/43 18/3/41 15/2/44
f 18/3/45 16/2/43 19/3/46
f 21/3/47 9/2/48 20/3/49
f 9/2/48 21/3/47 10/2/50
f 22/3/51 12/2/52 13/2/53
f 12/2/52 22/3/54 23/3/55
f 21/3/56 11/2/57 10/2/50
f 11/2/57 21/3/47 24/3/58
f 13/2/59 17/3/60 22/3/51
f 17/3/40 13/2/59 14/2/38
f 20/3/61 12/2/52 23/3/62
f 12/2/63 20/3/61 9/2/64
f 24/3/65 16/2/43 11/2/66
f 16/2/43 24/3/58 19/3/67
f 27/4/68 26/4/68 25/4/68
f 26/4/68 27/4/68 28/4/68
f 26/4/68 28/4/68 29/4/68
f 29/4/68 28/4/68 30/4/68
f 29/4/68 30/4/68 31/4/68
f 31/4/68 30/4/68 32/4/68
f 35/5/1 34/5/1 33/5/1
f 34/5/1 35/5/1 36/5/1
f 34/5/1 36/5/1 37/5/1
f 37/5/1 36/5/1 38/5/1
f 37/5/1 38/5/1 39/5/1
f 39/5/1 38/5/1 40/5/1
f 27/4/69 33/5/70 34/5/69
f 33/5/70 27/4/71 25/4/70
f 29/4/72 38/5/73 36/5/72
f 38/5/73 29/4/72 31/4/74
f 40/5/75 31/4/76 32/4/75
f 31/4/77 40/5/75 38/5/78
f 28/4/79 34/5/80 37/5/79
f 34/5/80 28/4/79 27/4/81
f 26/4/82 36/5/83 35/5/84
f 36/5/83 26/4/85 29/4/83
f 30/4/86 37/5/87 39/5/86
f 37/5/87 30/4/86 28/4/88
f 26/4/82 33/5/89 25/4/90
f 33/5/90 26/4/82 35/5/82
f 40/5/75 30/4/91 39/5/91
f 30/4/91 40/5/92 32/4/93
f 43/6/94 42/7/95 41/7/94
f 42/7/95 43/6/94 44/6/95
f 47/6/96 46/7/97 45/7/96
f 46/7/97 47/6/96 48/6/97
f 50/6/98 45/7/96 49/7/98
f 45/7/96 50/6/98 47/6/96
f 48/6/97 41/7/94 46/7/97
f 41/7/94 48/6/97 43/6/94
f 52/7/99 44/6/95 51/6/99
f 44/6/95 52/7/99 42/7/95
f 52/7/99 50/6/98 49/7/98
f 50/6/98 52/7/99 51/6/99
f 41/7/1 45/7/1 46/7/1
f 45/7/1 41/7/1 42/7/1
f 45/7/1 42/7/1 49/7/1
f 49/7/1 42/7/1 52/7/1
f 55/6/100 54/8/101 53/8/102
f 54/8/101 55/6/100 56/6/103
f 59/8/104 58/6/105 57/6/106
f 58/6/105 59/8/104 60/8/107
f 63/6/108 62/8/109 61/8/110
f 62/8/111 63/6/108 64/6/112
f 64/6/112 53/8/113 62/8/109
f 53/8/102 64/6/112 55/6/114
f 64/6/115 56/6/116 55/6/117
f 56/6/118 64/6/115 58/6/119
f 58/6/119 64/6/115 63/6/120
f 58/6/119 63/6/121 57/6/122
f 59/8/104 63/6/123 61/8/124
f 63/6/125 59/8/104 57/6/126
f 54/8/1 62/8/1 53/8/1
f 62/8/1 54/8/1 60/8/1
f 62/8/1 60/8/1 61/8/1
f 61/8/1 60/8/1 59/8/1
f 56/6/127 60/8/107 54/8/101
f 60/8/128 56/6/127 58/6/129
f 67/6/130 66/9/131 65/9/130
f 66/9/131 67/6/130 68/6/131
f 70/6/132 65/9/130 69/9/132
f 65/9/130 70/6/132 67/6/130
f 68/6/131 71/9/133 66/9/131
f 71/9/133 68/6/131 72/6/133
f 72/6/133 73/9/134 71/9/133
f 73/9/134 72/6/133 74/6/134
f 71/9/1 65/9/1 66/9/1
f 65/9/1 71/9/1 69/9/1
f 69/9/1 71/9/1 73/9/1
f 69/9/1 73/9/1 75/9/1
f 76/6/135 69/9/132 75/9/135
f 69/9/132 76/6/135 70/6/132
f 73/9/134 76/6/135 75/9/135
f 76/6/135 73/9/134 74/6/134
f 79/10/136 78/10/137 77/11/138
f 78/10/137 79/10/136 41/6/136
f 78/10/137 41/6/136 42/6/137
f 77/11/139 78/10/140 79/10/141
f 41/6/141 79/10/141 78/10/140
f 42/6/140 41/6/141 78/10/140
f 81/11/142 49/6/143 80/10/144
f 49/6/143 81/11/142 52/6/145
f 52/6/145 81/11/146 82/10/145
f 80/10/147 49/6/147 81/11/148
f 52/6/149 81/11/148 49/6/147
f 82/10/149 81/11/150 52/6/149
f 82/10/145 42/6/137 52/6/145
f 42/6/137 82/10/145 83/11/151
f 42/6/137 83/11/152 78/10/137
f 52/6/149 42/6/140 82/10/149
f 83/11/153 82/10/149 42/6/140
f 78/10/140 83/11/154 42/6/140
f 46/6/155 85/11/156 84/10/155
f 85/11/156 46/6/155 41/6/157
f 85/11/156 41/6/136 79/10/136
f 84/10/158 85/11/159 46/6/158
f 41/6/141 46/6/158 85/11/159
f 79/10/141 41/6/141 85/11/159
f 80/10/144 87/10/160 86/11/161
f 87/10/160 80/10/144 49/6/144
f 87/10/160 49/6/144 45/6/160
f 86/11/162 87/10/163 80/10/147
f 49/6/147 80/10/147 87/10/163
f 45/6/163 49/6/147 87/10/163
f 45/6/164 88/11/165 87/10/160
f 88/11/165 45/6/160 46/6/155
f 88/11/166 46/6/155 84/10/155
f 87/10/163 88/11/167 45/6/168
f 46/6/158 45/6/163 88/11/167
f 84/10/158 46/6/158 88/11/169
f 91/10/170 90/10/171 89/11/172
f 90/10/171 91/10/170 75/6/170
f 90/10/171 75/6/170 69/6/171
f 89/11/173 90/10/174 91/10/175
f 75/6/175 91/10/175 90/10/174
f 69/6/174 75/6/175 90/10/174
f 65/6/176 93/11/177 92/10/176
f 93/11/177 65/6/176 66/6/178
f 93/11/177 66/6/179 94/10/178
f 92/10/180 93/11/181 65/6/182
f 66/6/183 65/6/180 93/11/184
f 94/10/183 66/6/183 93/11/181
f 97/10/185 96/10/186 95/11/187
f 96/10/186 97/10/185 71/6/185
f 96/10/186 71/6/185 73/6/186
f 95/11/188 96/10/189 97/10/190
f 71/6/190 97/10/190 96/10/189
f 73/6/189 71/6/190 96/10/189
f 98/11/191 75/6/192 91/10/170
f 75/6/170 98/11/191 73/6/186
f 73/6/193 98/11/191 96/10/186
f 91/10/194 75/6/175 98/11/195
f 73/6/189 98/11/195 75/6/175
f 96/10/196 98/11/195 73/6/196
f 94/10/178 97/10/185 99/11/197
f 97/10/185 94/10/178 66/6/178
f 97/10/185 66/6/178 71/6/185
f 99/11/198 97/10/190 94/10/183
f 66/6/183 94/10/183 97/10/190
f 71/6/190 66/6/183 97/10/190
f 90/10/171 92/10/199 100/11/200
f 92/10/176 90/10/171 69/6/171
f 92/10/176 69/6/171 65/6/176
f 100/11/201 92/10/180 90/10/174
f 69/6/174 90/10/174 92/10/180
f 65/6/180 69/6/174 92/10/180
f 102/11/142 61/6/143 101/10/144
f 61/6/143 102/11/142 59/6/145
f 59/6/145 102/11/146 103/10/145
f 101/10/147 61/6/147 102/11/148
f 59/6/149 102/11/148 61/6/147
f 103/10/149 102/11/150 59/6/149
f 103/10/145 60/6/137 59/6/145
f 60/6/137 103/10/145 104/11/151
f 60/6/137 104/11/152 105/10/137
f 59/6/149 60/6/140 103/10/149
f 104/11/202 103/10/149 60/6/140
f 105/10/140 104/11/154 60/6/140
f 62/6/160 107/11/165 106/10/160
f 107/11/165 62/6/160 53/6/203
f 107/11/165 53/6/155 108/10/155
f 106/10/163 107/11/167 62/6/204
f 53/6/158 62/6/163 107/11/167
f 108/10/158 53/6/158 107/11/167
f 110/10/136 105/10/137 109/11/205
f 105/10/137 110/10/136 54/6/136
f 105/10/137 54/6/136 60/6/137
f 109/11/206 105/10/140 110/10/141
f 54/6/141 110/10/141 105/10/140
f 60/6/140 54/6/141 105/10/140
f 101/10/144 106/10/160 111/11/207
f 106/10/160 101/10/144 61/6/144
f 106/10/160 61/6/144 62/6/160
f 111/11/208 106/10/163 101/10/147
f 61/6/147 101/10/147 106/10/163
f 62/6/163 61/6/209 106/10/163
f 53/6/155 112/11/156 108/10/155
f 112/11/156 53/6/155 54/6/157
f 112/11/156 54/6/157 110/10/136
f 108/10/158 112/11/159 53/6/158
f 54/6/141 53/6/158 112/11/159
f 110/10/141 54/6/141 112/11/159
f 3/1/1 2/1/1 1/1/1
f 2/1/1 3/1/1 4/1/1
f 4/1/1 3/1/1 5/1/1
f 4/1/1 5/1/1 6/1/1
f 6/1/1 5/1/1 7/1/1
f 6/1/1 7/1/1 8/1/1
f 9/2/2 1/1/3 2/1/4
f 1/1/5 9/2/2 10/2/6
f 11/2/7 1/1/8 10/2/9
f 1/1/8 11/2/10 3/1/11
f 12/2/12 2/1/13 4/1/14
f 2/1/13 12/2/15 9/2/16
f 13/2/17 4/1/18 6/1/19
f 4/1/18 13/2/17 12/2/20
f 7/1/21 14/2/22 8/1/23
f 14/2/22 7/1/21 15/2/24
f 11/2/25 5/1/26 3/1/27
f 5/1/28 11/2/25 16/2/29
f 8/1/30 13/2/31 6/1/32
f 13/2/33 8/1/30 14/2/34
f 7/1/35 16/2/36 15/2/37
f 16/2/36 7/1/35 5/1/28
f 14/2/38 18/3/39 17/3/40
f 18/3/41 14/2/38 15/2/42
f 16/2/43 18/3/41 15/2/44
f 18/3/45 16/2/43 19/3/46
f 21/3/47 9/2/48 20/3/49
f 9/2/48 21/3/47 10/2/50
f 22/3/51 12/2/52 13/2/53
f 12/2/52 22/3/54 23/3/55
f 21/3/56 11/2/57 10/2/50
f 11/2/57 21/3/47 24/3/58
f 13/2/59 17/3/60 22/3/51
f 17/3/40 13/2/59 14/2/38
f 20/3/61 12/2/52 23/3/62
f 12/2/63 20/3/61 9/2/64
f 24/3/65 16/2/43 11/2/66
f 16/2/43 24/3/58 19/3/67
f 27/4/68 26/4/68 25/4/68
f 26/4/68 27/4/68 28/4/68
f 26/4/68 28/4/68 29/4/68
f 29/4/68 28/4/68 30/4/68
f 29/4/68 30/4/68 31/4/68
f 31/4/68 30/4/68 32/4/68
f 35/5/1 34/5/1 33/5/1
f 34/5/1 35/5/1 36/5/1
f 34/5/1 36/5/1 37/5/1
f 37/5/1 36/5/1 38/5/1
f 37/5/1 38/5/1 39/5/1
f 39/5/1 38/5/1 40/5/1
f 27/4/69 33/5/70 34/5/69
f 33/5/70 27/4/71 25/4/70
f 29/4/72 38/5/73 36/5/72
f 38/5/73 29/4/72 31/4/74
f 40/5/75 31/4/76 32/4/75
f 31/4/77 40/5/75 38/5/78
f 28/4/79 34/5/80 37/5/79
f 34/5/80 28/4/79 27/4/81
f 26/4/82 36/5/83 35/5/84
f 36/5/83 26/4/85 29/4/83
f 30/4/86 37/5/87 39/5/86
f 37/5/87 30/4/86 28/4/88
f 26/4/82 33/5/89 25/4/90
f 33/5/90 26/4/82 35/5/82
f 40/5/75 30/4/91 39/5/91
f 30/4/91 40/5/92 32/4/93
f 43/6/94 42/7/95 41/7/94
f 42/7/95 43/6/94 44/6/95
f 47/6/96 46/7/97 45/7/96
f 46/7/97 47/6/96 48/6/97
f 50/6/98 45/7/96 49/7/98
f 45/7/96 50/6/98 47/6/96
f 48/6/97 41/7/94 46/7/97
f 41/7/94 48/6/97 43/6/94
f 52/7/99 44/6/95 51/6/99
f 44/6/95 52/7/99 42/7/95
f 52/7/99 50/6/98 49/7/98
f 50/6/98 52/7/99 51/6/99
f 41/7/1 45/7/1 46/7/1
f 45/7/1 41/7/1 42/7/1
f 45/7/1 42/7/1 49/7/1
f 49/7/1 42/7/1 52/7/1
f 55/6/100 54/8/101 53/8/102
f 54/8/101 55/6/100 56/6/103
f 59/8/104 58/6/105 57/6/106
f 58/6/105 59/8/104 60/8/107
f 63/6/108 62/8/109 61/8/110
f 62/8/111 63/6/108 64/6/112
f 64/6/112 53/8/113 62/8/109
f 53/8/102 64/6/112 55/6/114
f 64/6/115 56/6/116 55/6/117
f 56/6/118 64/6/115 58/6/119
f 58/6/119 64/6/115 63/6/120
f 58/6/119 63/6/121 57/6/122
f 59/8/104 63/6/123 61/8/124
f 63/6/125 59/8/104 57/6/126
f 54/8/1 62/8/1 53/8/1
f 62/8/1 54/8/1 60/8/1
f 62/8/1 60/8/1 61/8/1
f 61/8/1 60/8/1 59/8/1
f 56/6/127 60/8/107 54/8/101
f 60/8/128 56/6/127 58/6/129
f 67/6/130 66/9/131 65/9/130
f 66/9/131 67/6/130 68/6/131
f 70/6/132 65/9/130 69/9/132
f 65/9/130 70/6/132 67/6/130
f 68/6/131 71/9/133 66/9/131
f 71/9/133 68/6/131 72/6/133
f 72/6/133 73/9/134 71/9/133
f 73/9/134 72/6/133 74/6/134
f 71/9/1 65/9/1 66/9/1
f 65/9/1 71/9/1 69/9/1
f 69/9/1 71/9/1 73/9/1
f 69/9/1 73/9/1 75/9/1
f 76/6/135 69/9/132 75/9/135
f 69/9/132 76/6/135 70/6/132
f 73/9/134 76/6/135 75/9/135
f 76/6/135 73/9/134 74/6/134
f 79/10/136 78/10/137 77/11/138
f 78/10/137 79/10/136 41/6/136
f 78/10/137 41/6/136 42/6/137
f 77/11/139 78/10/140 79/10/141
f 41/6/141 79/10/141 78/10/140
f 42/6/140 41/6/141 78/10/140
f 81/11/142 49/6/143 80/10/144
f 49/6/143 81/11/142 52/6/145
f 52/6/145 81/11/146 82/10/145
f 80/10/147 49/6/147 81/11/148
f 52/6/149 81/11/148 49/6/147
f 82/10/149 81/11/150 52/6/149
f 82/10/145 42/6/137 52/6/145
f 42/6/137 82/10/145 83/11/151
f 42/6/137 83/11/152 78/10/137
f 52/6/149 42/6/140 82/10/149
f 83/11/153 82/10/149 42/6/140
f 78/10/140 83/11/154 42/6/140
f 46/6/155 85/11/156 84/10/155
f 85/11/156 46/6/155 41/6/157
f 85/11/156 41/6/136 79/10/136
f 84/10/158 85/11/159 46/6/158
f 41/6/141 46/6/158 85/11/159
f 79/10/141 41/6/141 85/11/159
f 80/10/144 87/10/160 86/11/161
f 87/10/160 80/10/144 49/6/144
f 87/10/160 49/6/144 45/6/160
f 86/11/162 87/10/163 80/10/147
f 49/6/147 80/10/147 87/10/163
f 45/6/163 49/6/147 87/10/163
f 45/6/164 88/11/165 87/10/160
f 88/11/165 45/6/160 46/6/155
f 88/11/166 46/6/155 84/10/155
f 87/10/163 88/11/167 45/6/168
f 46/6/158 45/6/163 88/11/167
f 84/10/158 46/6/158 88/11/169
f 91/10/170 90/10/171 89/11/172
f 90/10/171 91/10/170 75/6/170
f 90/10/171 75/6/170 69/6/171
f 89/11/173 90/10/174 91/10/175
f 75/6/175 91/10/175 90/10/174
f 69/6/174 75/6/175 90/10/174
f 65/6/176 93/11/177 92/10/176
f 93/11/177 65/6/176 66/6/178
f 93/11/177 66/6/179 94/10/178
f 92/10/180 93/11/181 65/6/182
f 66/6/183 65/6/180 93/11/184
f 94/10/183 66/6/183 93/11/181
f 97/10/185 96/10/186 95/11/187
f 96/10/186 97/10/185 71/6/185
f 96/10/186 71/6/185 73/6/186
f 95/11/188 96/10/189 97/10/190
f 71/6/190 97/10/190 96/10/189
f 73/6/189 71/6/190 96/10/189
f 98/11/191 75/6/192 91/10/170
f 75/6/170 98/11/191 73/6/186
f 73/6/193 98/11/191 96/10/186
f 91/10/194 75/6/175 98/11/195
f 73/6/189 98/11/195 75/6/175
f 96/10/196 98/11/195 73/6/196
f 94/10/178 97/10/185 99/11/197
f 97/10/185 94/10/178 66/6/178
f 97/10/185 66/6/178 71/6/185
f 99/11/198 97/10/190 94/10/183
f 66/6/183 94/10/183 97/10/190
f 71/6/190 66/6/183 97/10/190
f 90/10/171 92/10/199 100/11/200
f 92/10/176 90/10/171 69/6/171
f 92/10/176 69/6/171 65/6/176
f 100/11/201 92/10/180 90/10/174
f 69/6/174 90/10/174 92/10/180
f 65/6/180 69/6/174 92/10/180
f 102/11/142 61/6/143 101/10/144
f 61/6/143 102/11/142 59/6/145
f 59/6/145 102/11/146 103/10/145
f 101/10/147 61/6/147 102/11/148
f 59/6/149 102/11/148 61/6/147
f 103/10/149 102/11/150 59/6/149
f 103/10/145 60/6/137 59/6/145
f 60/6/137 103/10/145 104/11/151
f 60/6/137 104/11/152 105/10/137
f 59/6/149 60/6/140 103/10/149
f 104/11/202 103/10/149 60/6/140
f 105/10/140 104/11/154 60/6/140
f 62/6/160 107/11/165 106/10/160
f 107/11/165 62/6/160 53/6/203
f 107/11/165 53/6/155 108/10/155
f 106/10/163 107/11/167 62/6/204
f 53/6/158 62/6/163 107/11/167
f 108/10/158 53/6/158 107/11/167
f 110/10/136 105/10/137 109/11/205
f 105/10/137 110/10/136 54/6/136
f 105/10/137 54/6/136 60/6/137
f 109/11/206 105/10/140 110/10/141
f 54/6/141 110/10/141 105/10/140
f 60/6/140 54/6/141 105/10/140
f 101/10/144 106/10/160 111/11/207
f 106/10/160 101/10/144 61/6/144
f 106/10/160 61/6/144 62/6/160
f 111/11/208 106/10/163 101/10/147
f 61/6/147 101/10/147 106/10/163
f 62/6/163 61/6/209 106/10/163
f 53/6/155 112/11/156 108/10/155
f 112/11/156 53/6/155 54/6/157
f 112/11/156 54/6/157 110/10/136
f 108/10/158 112/11/159 53/6/158
f 54/6/141 53/6/158 112/11/159
f 110/10/141 54/6/141 112/11/159
