# Blender 4.1.1
# www.blender.org
mtllib tree.014.mtl
o tree.014
v -17.804567 -4.675250 -10.319883
v -17.647640 -4.675250 -10.430642
v -17.938412 -4.675250 -10.342966
v -17.624557 -4.675250 -10.564485
v -18.049170 -4.675250 -10.499894
v -17.735317 -4.675250 -10.721413
v -18.026087 -4.675250 -10.633737
v -17.869160 -4.675250 -10.744495
v -17.742252 -4.327483 -10.481416
v -17.820715 -4.327483 -10.426036
v -17.887638 -4.327483 -10.437578
v -17.730711 -4.327483 -10.548338
v -17.786091 -4.327483 -10.626801
v -17.853012 -4.327483 -10.638343
v -17.931475 -4.327483 -10.582963
v -17.943016 -4.327483 -10.516041
v -17.857050 -3.805793 -10.664881
v -17.955128 -3.805793 -10.595656
v -17.969555 -3.805793 -10.512005
v -17.718599 -3.805793 -10.468722
v -17.816679 -3.805793 -10.399498
v -17.773397 -3.805793 -10.650454
v -17.704172 -3.805793 -10.552374
v -17.900330 -3.805793 -10.413925
v -17.706974 -4.203316 -10.429567
v -17.780489 -4.203316 -10.412980
v -17.666721 -4.203316 -10.493278
v -17.683306 -4.203316 -10.566792
v -17.844198 -4.203316 -10.453234
v -17.747019 -4.203316 -10.607046
v -17.860786 -4.203316 -10.526749
v -17.820532 -4.203316 -10.590460
v -17.674814 -4.329511 -10.384001
v -17.611759 -4.329511 -10.483799
v -17.789967 -4.329511 -10.358019
v -17.889765 -4.329511 -10.421073
v -17.637741 -4.329511 -10.598952
v -17.915747 -4.329511 -10.536227
v -17.737539 -4.329511 -10.662007
v -17.852692 -4.329511 -10.636025
v -18.042763 -3.805792 -10.105520
v -18.318594 -3.805792 -10.496323
v -17.960546 -3.230796 -10.283572
v -18.123287 -3.230796 -10.514148
v -17.365873 -3.805793 -10.583272
v -17.566404 -3.805793 -10.148994
v -17.561180 -3.230796 -10.565447
v -17.679493 -3.230796 -10.309222
v -17.641703 -3.805793 -10.974074
v -17.723921 -3.230796 -10.796022
v -18.004974 -3.230796 -10.770372
v -18.118063 -3.805793 -10.930600
v -17.683189 -2.613048 -10.314460
v -17.957859 -2.613048 -10.289392
v -17.805677 -1.965096 -10.488005
v -17.868809 -1.965096 -10.482244
v -17.878788 -1.965096 -10.591591
v -17.905365 -1.965096 -10.534036
v -18.001278 -2.613048 -10.765135
v -18.116903 -2.613048 -10.514730
v -17.726608 -2.613048 -10.790202
v -17.567564 -2.613048 -10.564865
v -17.815657 -1.965096 -10.597352
v -17.779102 -1.965096 -10.545559
v -17.489164 -3.230796 -10.376765
v -17.806889 -3.230796 -10.152514
v -17.680452 -2.613048 -10.465095
v -17.826036 -2.613048 -10.362339
v -17.524508 -3.230796 -10.764050
v -17.696648 -2.613048 -10.642552
v -18.159958 -3.230796 -10.315546
v -17.987818 -2.613048 -10.437043
v -18.195305 -3.230796 -10.702830
v -18.004015 -2.613048 -10.614501
v -17.877579 -3.230796 -10.927082
v -17.858429 -2.613048 -10.717256
v -18.255136 -3.985170 -10.248369
v -18.370993 -3.895481 -10.491541
v -18.064821 -3.895481 -10.057750
v -17.619646 -3.895482 -11.021845
v -17.888166 -3.985170 -11.043096
v -18.148405 -3.895482 -10.973588
v -18.301069 -3.985170 -10.751668
v -17.536062 -3.895481 -10.106007
v -17.796301 -3.985170 -10.036499
v -17.429331 -3.985170 -10.831225
v -17.313475 -3.895482 -10.588054
v -17.383398 -3.985170 -10.327927
v -17.669981 -3.376631 -10.912834
v -17.489557 -3.303714 -10.788716
v -17.881466 -3.303713 -10.969684
v -17.450325 -3.303713 -10.358831
v -17.605299 -3.376631 -10.204103
v -17.802999 -3.303713 -10.109912
v -18.251419 -3.376631 -10.502454
v -18.234140 -3.303713 -10.720763
v -18.194908 -3.303713 -10.290878
v -18.079166 -3.376631 -10.875490
v -18.014484 -3.376631 -10.166760
v -17.433046 -3.376631 -10.577141
v -17.713888 -2.664763 -10.817746
v -17.868719 -2.716478 -10.830000
v -18.018772 -2.664763 -10.789922
v -18.106798 -2.716478 -10.661962
v -18.147118 -2.664763 -10.511972
v -17.537350 -2.664763 -10.567622
v -17.577669 -2.716478 -10.417632
v -17.665693 -2.664763 -10.289673
v -18.080313 -2.716478 -10.371759
v -17.970577 -2.664763 -10.261848
v -17.604153 -2.716478 -10.707836
v -17.815748 -2.716478 -10.249595
vn -0.0000 -1.0000 -0.0000
vn 0.8050 0.2942 0.5151
vn 0.2061 0.2944 0.9332
vn 0.8102 0.2944 0.5068
vn 0.8051 0.2942 0.5151
vn 0.2157 0.2942 0.9311
vn -0.5150 0.2942 0.8051
vn 0.2060 0.2944 0.9332
vn 0.2156 0.2942 0.9311
vn -0.5150 0.2943 0.8051
vn -0.5067 0.2944 0.8103
vn 0.9311 0.2942 -0.2156
vn 0.8103 0.2944 0.5067
vn 0.9332 0.2944 -0.2061
vn 0.5151 0.2942 -0.8050
vn 0.5068 0.2944 -0.8103
vn 0.5152 0.2942 -0.8050
vn 0.9311 0.2942 -0.2157
vn -0.8103 0.2944 -0.5068
vn -0.2157 0.2942 -0.9311
vn -0.2061 0.2944 -0.9332
vn -0.8050 0.2942 -0.5151
vn -0.5151 0.2942 0.8050
vn -0.9332 0.2944 0.2061
vn -0.5068 0.2944 0.8102
vn -0.9311 0.2942 0.2157
vn -0.2060 0.2944 -0.9332
vn 0.5150 0.2943 -0.8051
vn 0.5067 0.2944 -0.8103
vn 0.5151 0.2942 -0.8051
vn -0.2156 0.2942 -0.9311
vn -0.8103 0.2944 -0.5067
vn -0.8051 0.2942 -0.5150
vn -0.9311 0.2942 0.2156
vn -0.9332 0.2944 0.2060
vn -0.2207 -0.0513 -0.9740
vn -0.8447 -0.0512 -0.5327
vn -0.2190 -0.0513 -0.9744
vn -0.8447 -0.0513 -0.5327
vn -0.8438 -0.0513 -0.5342
vn -0.9740 -0.0512 0.2207
vn -0.8448 -0.0513 -0.5327
vn -0.8438 -0.0512 -0.5342
vn -0.9740 -0.0513 0.2207
vn -0.9744 -0.0512 0.2189
vn 0.2190 -0.0512 0.9744
vn 0.8438 -0.0513 0.5342
vn 0.8447 -0.0513 0.5327
vn 0.8438 -0.0513 0.5343
vn 0.2207 -0.0513 0.9740
vn 0.5327 -0.0513 -0.8447
vn 0.9740 -0.0513 -0.2207
vn 0.5342 -0.0513 -0.8438
vn 0.5327 -0.0512 -0.8447
vn 0.9744 -0.0513 -0.2190
vn 0.2189 -0.0513 0.9744
vn -0.5342 -0.0513 0.8438
vn 0.2207 -0.0512 0.9740
vn 0.2189 -0.0512 0.9744
vn -0.5327 -0.0512 0.8448
vn -0.2189 -0.0512 -0.9744
vn 0.5327 -0.0513 -0.8448
vn -0.2189 -0.0513 -0.9744
vn -0.2207 -0.0512 -0.9740
vn 0.8448 -0.0513 0.5327
vn 0.9744 -0.0512 -0.2189
vn 0.9740 -0.0512 -0.2207
vn 0.8438 -0.0512 0.5342
vn -0.5327 -0.0513 0.8447
vn -0.5327 -0.0512 0.8447
vn -0.9744 -0.0513 0.2190
vn -0.0000 1.0000 -0.0000
vn 0.9014 0.4042 0.1555
vn 0.5274 0.4042 0.7473
vn 0.9013 0.4042 0.1555
vn 0.5275 0.4042 0.7472
vn 0.9014 0.4042 0.1554
vn 0.5275 0.4043 0.7472
vn -0.7473 0.4042 0.5274
vn -0.9014 0.4042 -0.1554
vn -0.9013 0.4043 -0.1554
vn -0.5275 0.4042 -0.7473
vn -0.9014 0.4042 -0.1555
vn -0.5274 0.4043 -0.7472
vn -0.5274 0.4042 -0.7473
vn -0.9013 0.4042 -0.1555
vn 0.7473 0.4042 -0.5274
vn 0.9013 0.4043 0.1555
vn -0.1555 0.4042 0.9014
vn -0.1555 0.4042 0.9013
vn -0.7473 0.4042 0.5275
vn -0.7472 0.4042 0.5275
vn 0.1555 0.4042 -0.9014
vn 0.7473 0.4042 -0.5275
vn 0.1555 0.4042 -0.9013
vn 0.7472 0.4042 -0.5275
vn -0.1554 0.4042 0.9014
vn -0.1554 0.4042 0.9013
vn 0.1554 0.4042 -0.9014
vn -0.5274 0.4043 -0.7473
vn -0.3968 0.3228 0.8593
vn -0.9426 0.3228 0.0860
vn 0.9425 0.3228 -0.0860
vn 0.5458 0.3228 0.7733
vn 0.9426 0.3228 -0.0860
vn 0.5458 0.3228 0.7732
vn 0.3968 0.3228 -0.8593
vn -0.5458 0.3228 -0.7733
vn -0.5458 0.3228 -0.7732
vn -0.9425 0.3228 0.0860
vn 0.3966 0.7260 0.5618
vn -0.3983 0.3115 0.8627
vn 0.5479 0.3115 0.7764
vn -0.3984 0.3115 0.8627
vn 0.3966 0.7260 0.5619
vn -0.2884 0.7260 0.6244
vn -0.5480 0.3115 -0.7763
vn -0.6849 0.7260 0.0626
vn -0.3965 0.7260 -0.5619
vn -0.6849 0.7260 0.0625
vn -0.9463 0.3115 0.0863
vn 0.2883 0.7260 -0.6244
vn 0.9463 0.3115 -0.0864
vn 0.3984 0.3115 -0.8627
vn 0.6849 0.7260 -0.0625
vn 0.5480 0.3115 0.7763
vn 0.9463 0.3115 -0.0863
vn 0.3965 0.7260 0.5619
vn 0.6849 0.7259 -0.0625
vn -0.2883 0.7259 0.6244
vn 0.3966 0.7259 0.5619
vn -0.6849 0.7259 0.0625
vn 0.2883 0.7259 -0.6244
vn -0.3965 0.7259 -0.5619
vn -0.5479 0.3116 -0.7763
vn 0.2883 0.7260 -0.6243
vn -0.5479 0.3115 -0.7764
vn -0.3965 0.7260 -0.5618
vn -0.2883 0.7260 0.6244
vn -0.9463 0.3115 0.0864
vn 0.8593 0.3228 0.3968
vn 0.0860 0.3228 0.9425
vn 0.0860 0.3228 0.9426
vn 0.7733 0.3228 -0.5457
vn 0.7733 0.3228 -0.5458
vn -0.7732 0.3228 0.5458
vn -0.7733 0.3228 0.5458
vn -0.8593 0.3228 -0.3968
vn -0.0860 0.3228 -0.9425
vn 0.7732 0.3228 -0.5458
vn -0.0860 0.3228 -0.9426
vn -0.3616 0.5060 0.7831
vn -0.8589 0.5060 0.0784
vn -0.7284 0.4530 0.5141
vn -0.8590 0.5060 0.0784
vn 0.7284 -0.4530 -0.5141
vn 0.8590 -0.5060 -0.0784
vn 0.3616 -0.5060 -0.7831
vn -0.0810 0.4530 -0.8878
vn 0.3616 0.5060 -0.7831
vn -0.4974 0.5060 -0.7047
vn -0.3616 -0.5060 0.7831
vn 0.0810 -0.4530 0.8878
vn 0.4974 -0.5060 0.7047
vn -0.8094 0.4530 -0.3737
vn -0.8094 0.4530 -0.3738
vn 0.8589 -0.5060 -0.0784
vn 0.8094 -0.4530 0.3737
vn 0.8094 -0.4530 0.3738
vn 0.4974 0.5060 0.7047
vn 0.0810 0.4530 0.8878
vn 0.0810 0.4529 0.8878
vn -0.4974 -0.5060 -0.7047
vn -0.0810 -0.4530 -0.8878
vn -0.0810 -0.4529 -0.8878
vn 0.8589 0.5060 -0.0784
vn 0.7284 0.4530 -0.5141
vn 0.8590 0.5060 -0.0784
vn -0.7284 -0.4530 0.5141
vn -0.8590 -0.5060 0.0784
vn 0.8094 0.4530 0.3738
vn 0.8094 0.4530 0.3737
vn -0.8094 -0.4530 -0.3738
vn -0.8589 -0.5060 0.0784
vn -0.8094 -0.4530 -0.3737
vn -0.0784 0.5060 -0.8589
vn 0.7047 0.5060 -0.4974
vn 0.3738 0.4530 -0.8094
vn -0.0784 0.5060 -0.8590
vn -0.3738 -0.4530 0.8094
vn -0.7047 -0.5060 0.4974
vn 0.0784 -0.5060 0.8590
vn 0.0784 -0.5060 0.8589
vn 0.7831 0.5060 0.3616
vn 0.5141 0.4530 0.7284
vn 0.0784 0.5061 0.8589
vn 0.0784 0.5060 0.8590
vn -0.7831 -0.5060 -0.3616
vn -0.5141 -0.4530 -0.7284
vn -0.0784 -0.5060 -0.8590
vn -0.0784 -0.5060 -0.8589
vn -0.7047 0.5060 0.4974
vn -0.7830 0.5060 -0.3616
vn -0.8878 0.4530 0.0810
vn -0.7831 0.5060 -0.3616
vn 0.8878 -0.4530 -0.0810
vn 0.7831 -0.5060 0.3616
vn 0.7047 -0.5060 -0.4974
vn -0.5141 0.4530 -0.7284
vn -0.5141 0.4529 -0.7284
vn 0.5141 -0.4529 0.7284
vn 0.0784 0.5060 0.8589
vn -0.3737 0.4530 0.8094
vn 0.3737 -0.4530 -0.8094
vn 0.8878 0.4530 -0.0810
vn -0.8878 -0.4530 0.0810
vn -0.7047 -0.5061 0.4974
vn -0.8094 0.4529 -0.3738
vn 0.8094 -0.4529 0.3738
vn 0.8094 0.4529 0.3738
vn -0.4973 -0.5060 -0.7047
vn -0.7284 0.4529 0.5141
vn 0.0810 0.4529 0.8879
vn -0.0810 -0.4529 -0.8879
vt 0.593750 0.025000
vt 0.593750 0.104996
vt 0.593750 0.225000
vt 0.093750 0.475000
vt 0.093750 0.275000
vt 0.093750 0.425000
vt 0.093750 0.348778
vt 0.093750 0.338765
vt 0.093750 0.344099
vt 0.093750 0.375000
vt 0.093750 0.325000
s 0
usemtl colormap.002
f 3/1/1 2/1/1 1/1/1
f 2/1/1 3/1/1 4/1/1
f 4/1/1 3/1/1 5/1/1
f 4/1/1 5/1/1 6/1/1
f 6/1/1 5/1/1 7/1/1
f 6/1/1 7/1/1 8/1/1
f 9/2/2 1/1/3 2/1/4
f 1/1/3 9/2/5 10/2/6
f 11/2/7 1/1/8 10/2/9
f 1/1/8 11/2/10 3/1/11
f 12/2/12 2/1/13 4/1/14
f 2/1/13 12/2/12 9/2/5
f 13/2/15 4/1/14 6/1/16
f 4/1/14 13/2/17 12/2/18
f 7/1/19 14/2/20 8/1/21
f 14/2/20 7/1/19 15/2/22
f 11/2/23 5/1/24 3/1/25
f 5/1/24 11/2/23 16/2/26
f 8/1/27 13/2/28 6/1/29
f 13/2/30 8/1/27 14/2/31
f 7/1/32 16/2/26 15/2/33
f 16/2/34 7/1/32 5/1/35
f 14/2/36 18/3/37 17/3/38
f 18/3/39 14/2/36 15/2/40
f 16/2/41 18/3/42 15/2/43
f 18/3/42 16/2/44 19/3/45
f 21/3/46 9/2/47 20/3/48
f 9/2/49 21/3/46 10/2/50
f 22/3/51 12/2/52 13/2/53
f 12/2/52 22/3/54 23/3/55
f 21/3/56 11/2/57 10/2/58
f 11/2/57 21/3/59 24/3/60
f 13/2/53 17/3/61 22/3/62
f 17/3/63 13/2/53 14/2/64
f 20/3/65 12/2/52 23/3/66
f 12/2/67 20/3/65 9/2/68
f 24/3/69 16/2/44 11/2/57
f 16/2/44 24/3/70 19/3/71
f 27/4/72 26/4/72 25/4/72
f 26/4/72 27/4/72 28/4/72
f 26/4/72 28/4/72 29/4/72
f 29/4/72 28/4/72 30/4/72
f 29/4/72 30/4/72 31/4/72
f 31/4/72 30/4/72 32/4/72
f 35/5/1 34/5/1 33/5/1
f 34/5/1 35/5/1 36/5/1
f 34/5/1 36/5/1 37/5/1
f 37/5/1 36/5/1 38/5/1
f 37/5/1 38/5/1 39/5/1
f 39/5/1 38/5/1 40/5/1
f 27/4/73 33/5/74 34/5/75
f 33/5/76 27/4/77 25/4/78
f 29/4/79 38/5/80 36/5/79
f 38/5/80 29/4/79 31/4/81
f 40/5/82 31/4/83 32/4/84
f 31/4/83 40/5/85 38/5/86
f 28/4/87 34/5/73 37/5/87
f 34/5/73 28/4/87 27/4/88
f 26/4/89 36/5/79 35/5/90
f 36/5/91 26/4/89 29/4/92
f 30/4/93 37/5/94 39/5/95
f 37/5/94 30/4/93 28/4/96
f 26/4/97 33/5/74 25/4/74
f 33/5/74 26/4/98 35/5/97
f 40/5/85 30/4/99 39/5/99
f 30/4/99 40/5/100 32/4/85
f 43/6/101 42/7/102 41/7/101
f 42/7/102 43/6/101 44/6/102
f 47/6/103 46/7/104 45/7/103
f 46/7/104 47/6/105 48/6/106
f 50/6/107 45/7/105 49/7/107
f 45/7/105 50/6/107 47/6/105
f 48/6/104 41/7/101 46/7/104
f 41/7/101 48/6/104 43/6/101
f 52/7/108 44/6/102 51/6/109
f 44/6/110 52/7/108 42/7/110
f 52/7/108 50/6/107 49/7/107
f 50/6/107 52/7/108 51/6/108
f 41/7/1 45/7/1 46/7/1
f 45/7/1 41/7/1 42/7/1
f 45/7/1 42/7/1 49/7/1
f 49/7/1 42/7/1 52/7/1
f 55/6/111 54/8/112 53/8/113
f 54/8/114 55/6/115 56/6/116
f 59/8/117 58/6/118 57/6/119
f 58/6/120 59/8/117 60/8/121
f 63/6/122 62/8/123 61/8/124
f 62/8/123 63/6/122 64/6/125
f 64/6/125 53/8/126 62/8/127
f 53/8/113 64/6/125 55/6/128
f 64/6/129 56/6/130 55/6/131
f 56/6/130 64/6/129 58/6/132
f 58/6/132 64/6/129 63/6/133
f 58/6/120 63/6/133 57/6/134
f 59/8/135 63/6/122 61/8/124
f 63/6/136 59/8/137 57/6/138
f 54/8/1 62/8/1 53/8/1
f 62/8/1 54/8/1 60/8/1
f 62/8/1 60/8/1 61/8/1
f 61/8/1 60/8/1 59/8/1
f 56/6/139 60/8/140 54/8/114
f 60/8/140 56/6/139 58/6/120
f 67/6/141 66/9/142 65/9/141
f 66/9/142 67/6/141 68/6/143
f 70/6/144 65/9/141 69/9/144
f 65/9/141 70/6/145 67/6/141
f 68/6/142 71/9/146 66/9/142
f 71/9/147 68/6/143 72/6/147
f 72/6/147 73/9/148 71/9/147
f 73/9/148 72/6/147 74/6/148
f 71/9/1 65/9/1 66/9/1
f 65/9/1 71/9/1 69/9/1
f 69/9/1 71/9/1 73/9/1
f 69/9/1 73/9/1 75/9/1
f 76/6/149 69/9/150 75/9/149
f 69/9/145 76/6/151 70/6/145
f 73/9/148 76/6/149 75/9/149
f 76/6/149 73/9/148 74/6/148
f 79/10/152 78/10/153 77/11/154
f 78/10/155 79/10/152 41/6/152
f 78/10/155 41/6/152 42/6/155
f 77/11/156 78/10/157 79/10/158
f 41/6/158 79/10/158 78/10/157
f 42/6/157 41/6/158 78/10/157
f 81/11/159 49/6/160 80/10/160
f 49/6/160 81/11/159 52/6/161
f 52/6/161 81/11/159 82/10/161
f 80/10/162 49/6/162 81/11/163
f 52/6/164 81/11/163 49/6/162
f 82/10/164 81/11/163 52/6/164
f 82/10/161 42/6/155 52/6/161
f 42/6/155 82/10/161 83/11/165
f 42/6/155 83/11/166 78/10/155
f 52/6/164 42/6/167 82/10/164
f 83/11/168 82/10/164 42/6/167
f 78/10/157 83/11/169 42/6/167
f 46/6/170 85/11/171 84/10/170
f 85/11/171 46/6/170 41/6/152
f 85/11/172 41/6/152 79/10/152
f 84/10/173 85/11/174 46/6/173
f 41/6/158 46/6/173 85/11/174
f 79/10/158 41/6/158 85/11/175
f 80/10/160 87/10/176 86/11/177
f 87/10/178 80/10/160 49/6/160
f 87/10/178 49/6/160 45/6/178
f 86/11/179 87/10/180 80/10/162
f 49/6/162 80/10/162 87/10/180
f 45/6/180 49/6/162 87/10/180
f 45/6/178 88/11/181 87/10/178
f 88/11/181 45/6/178 46/6/170
f 88/11/182 46/6/170 84/10/170
f 87/10/180 88/11/183 45/6/184
f 46/6/173 45/6/180 88/11/185
f 84/10/173 46/6/173 88/11/185
f 91/10/186 90/10/187 89/11/188
f 90/10/187 91/10/189 75/6/189
f 90/10/187 75/6/189 69/6/187
f 89/11/190 90/10/191 91/10/192
f 75/6/193 91/10/193 90/10/191
f 69/6/191 75/6/192 90/10/191
f 65/6/194 93/11/195 92/10/194
f 93/11/195 65/6/194 66/6/196
f 93/11/195 66/6/196 94/10/197
f 92/10/198 93/11/199 65/6/198
f 66/6/200 65/6/198 93/11/199
f 94/10/200 66/6/201 93/11/199
f 97/10/202 96/10/203 95/11/204
f 96/10/205 97/10/202 71/6/202
f 96/10/205 71/6/202 73/6/205
f 95/11/206 96/10/207 97/10/208
f 71/6/208 97/10/208 96/10/207
f 73/6/207 71/6/208 96/10/207
f 98/11/209 75/6/186 91/10/189
f 75/6/186 98/11/210 73/6/205
f 73/6/205 98/11/210 96/10/205
f 91/10/192 75/6/192 98/11/211
f 73/6/207 98/11/211 75/6/192
f 96/10/207 98/11/211 73/6/207
f 94/10/212 97/10/202 99/11/213
f 97/10/202 94/10/197 66/6/197
f 97/10/202 66/6/197 71/6/202
f 99/11/214 97/10/208 94/10/201
f 66/6/200 94/10/200 97/10/208
f 71/6/208 66/6/201 97/10/208
f 90/10/187 92/10/194 100/11/215
f 92/10/194 90/10/187 69/6/187
f 92/10/194 69/6/187 65/6/194
f 100/11/216 92/10/198 90/10/191
f 69/6/191 90/10/191 92/10/198
f 65/6/198 69/6/217 92/10/198
f 102/11/159 61/6/160 101/10/160
f 61/6/160 102/11/159 59/6/161
f 59/6/161 102/11/159 103/10/161
f 101/10/162 61/6/162 102/11/163
f 59/6/164 102/11/163 61/6/162
f 103/10/164 102/11/163 59/6/164
f 103/10/161 60/6/155 59/6/161
f 60/6/155 103/10/161 104/11/218
f 60/6/153 104/11/166 105/10/155
f 59/6/164 60/6/167 103/10/164
f 104/11/219 103/10/164 60/6/157
f 105/10/167 104/11/168 60/6/167
f 62/6/176 107/11/182 106/10/178
f 107/11/182 62/6/178 53/6/170
f 107/11/220 53/6/170 108/10/170
f 106/10/184 107/11/185 62/6/184
f 53/6/173 62/6/180 107/11/185
f 108/10/173 53/6/221 107/11/183
f 110/10/152 105/10/153 109/11/222
f 105/10/155 110/10/152 54/6/152
f 105/10/155 54/6/152 60/6/155
f 109/11/156 105/10/157 110/10/158
f 54/6/158 110/10/158 105/10/157
f 60/6/157 54/6/158 105/10/157
f 101/10/160 106/10/176 111/11/177
f 106/10/178 101/10/160 61/6/160
f 106/10/178 61/6/160 62/6/178
f 111/11/179 106/10/180 101/10/162
f 61/6/162 101/10/162 106/10/180
f 62/6/180 61/6/162 106/10/180
f 53/6/170 112/11/172 108/10/170
f 112/11/171 53/6/170 54/6/152
f 112/11/223 54/6/152 110/10/152
f 108/10/173 112/11/224 53/6/173
f 54/6/158 53/6/173 112/11/174
f 110/10/158 54/6/158 112/11/224
f 3/1/1 2/1/1 1/1/1
f 2/1/1 3/1/1 4/1/1
f 4/1/1 3/1/1 5/1/1
f 4/1/1 5/1/1 6/1/1
f 6/1/1 5/1/1 7/1/1
f 6/1/1 7/1/1 8/1/1
f 9/2/2 1/1/3 2/1/4
f 1/1/3 9/2/5 10/2/6
f 11/2/7 1/1/8 10/2/9
f 1/1/8 11/2/10 3/1/11
f 12/2/12 2/1/13 4/1/14
f 2/1/13 12/2/12 9/2/5
f 13/2/15 4/1/14 6/1/16
f 4/1/14 13/2/17 12/2/18
f 7/1/19 14/2/20 8/1/21
f 14/2/20 7/1/19 15/2/22
f 11/2/23 5/1/24 3/1/25
f 5/1/24 11/2/23 16/2/26
f 8/1/27 13/2/28 6/1/29
f 13/2/30 8/1/27 14/2/31
f 7/1/32 16/2/26 15/2/33
f 16/2/34 7/1/32 5/1/35
f 14/2/36 18/3/37 17/3/38
f 18/3/39 14/2/36 15/2/40
f 16/2/41 18/3/42 15/2/43
f 18/3/42 16/2/44 19/3/45
f 21/3/46 9/2/47 20/3/48
f 9/2/49 21/3/46 10/2/50
f 22/3/51 12/2/52 13/2/53
f 12/2/52 22/3/54 23/3/55
f 21/3/56 11/2/57 10/2/58
f 11/2/57 21/3/59 24/3/60
f 13/2/53 17/3/61 22/3/62
f 17/3/63 13/2/53 14/2/64
f 20/3/65 12/2/52 23/3/66
f 12/2/67 20/3/65 9/2/68
f 24/3/69 16/2/44 11/2/57
f 16/2/44 24/3/70 19/3/71
f 27/4/72 26/4/72 25/4/72
f 26/4/72 27/4/72 28/4/72
f 26/4/72 28/4/72 29/4/72
f 29/4/72 28/4/72 30/4/72
f 29/4/72 30/4/72 31/4/72
f 31/4/72 30/4/72 32/4/72
f 35/5/1 34/5/1 33/5/1
f 34/5/1 35/5/1 36/5/1
f 34/5/1 36/5/1 37/5/1
f 37/5/1 36/5/1 38/5/1
f 37/5/1 38/5/1 39/5/1
f 39/5/1 38/5/1 40/5/1
f 27/4/73 33/5/74 34/5/75
f 33/5/76 27/4/77 25/4/78
f 29/4/79 38/5/80 36/5/79
f 38/5/80 29/4/79 31/4/81
f 40/5/82 31/4/83 32/4/84
f 31/4/83 40/5/85 38/5/86
f 28/4/87 34/5/73 37/5/87
f 34/5/73 28/4/87 27/4/88
f 26/4/89 36/5/79 35/5/90
f 36/5/91 26/4/89 29/4/92
f 30/4/93 37/5/94 39/5/95
f 37/5/94 30/4/93 28/4/96
f 26/4/97 33/5/74 25/4/74
f 33/5/74 26/4/98 35/5/97
f 40/5/85 30/4/99 39/5/99
f 30/4/99 40/5/100 32/4/85
f 43/6/101 42/7/102 41/7/101
f 42/7/102 43/6/101 44/6/102
f 47/6/103 46/7/104 45/7/103
f 46/7/104 47/6/105 48/6/106
f 50/6/107 45/7/105 49/7/107
f 45/7/105 50/6/107 47/6/105
f 48/6/104 41/7/101 46/7/104
f 41/7/101 48/6/104 43/6/101
f 52/7/108 44/6/102 51/6/109
f 44/6/110 52/7/108 42/7/110
f 52/7/108 50/6/107 49/7/107
f 50/6/107 52/7/108 51/6/108
f 41/7/1 45/7/1 46/7/1
f 45/7/1 41/7/1 42/7/1
f 45/7/1 42/7/1 49/7/1
f 49/7/1 42/7/1 52/7/1
f 55/6/111 54/8/112 53/8/113
f 54/8/114 55/6/115 56/6/116
f 59/8/117 58/6/118 57/6/119
f 58/6/120 59/8/117 60/8/121
f 63/6/122 62/8/123 61/8/124
f 62/8/123 63/6/122 64/6/125
f 64/6/125 53/8/126 62/8/127
f 53/8/113 64/6/125 55/6/128
f 64/6/129 56/6/130 55/6/131
f 56/6/130 64/6/129 58/6/132
f 58/6/132 64/6/129 63/6/133
f 58/6/120 63/6/133 57/6/134
f 59/8/135 63/6/122 61/8/124
f 63/6/136 59/8/137 57/6/138
f 54/8/1 62/8/1 53/8/1
f 62/8/1 54/8/1 60/8/1
f 62/8/1 60/8/1 61/8/1
f 61/8/1 60/8/1 59/8/1
f 56/6/139 60/8/140 54/8/114
f 60/8/140 56/6/139 58/6/120
f 67/6/141 66/9/142 65/9/141
f 66/9/142 67/6/141 68/6/143
f 70/6/144 65/9/141 69/9/144
f 65/9/141 70/6/145 67/6/141
f 68/6/142 71/9/146 66/9/142
f 71/9/147 68/6/143 72/6/147
f 72/6/147 73/9/148 71/9/147
f 73/9/148 72/6/147 74/6/148
f 71/9/1 65/9/1 66/9/1
f 65/9/1 71/9/1 69/9/1
f 69/9/1 71/9/1 73/9/1
f 69/9/1 73/9/1 75/9/1
f 76/6/149 69/9/150 75/9/149
f 69/9/145 76/6/151 70/6/145
f 73/9/148 76/6/149 75/9/149
f 76/6/149 73/9/148 74/6/148
f 79/10/152 78/10/153 77/11/154
f 78/10/155 79/10/152 41/6/152
f 78/10/155 41/6/152 42/6/155
f 77/11/156 78/10/157 79/10/158
f 41/6/158 79/10/158 78/10/157
f 42/6/157 41/6/158 78/10/157
f 81/11/159 49/6/160 80/10/160
f 49/6/160 81/11/159 52/6/161
f 52/6/161 81/11/159 82/10/161
f 80/10/162 49/6/162 81/11/163
f 52/6/164 81/11/163 49/6/162
f 82/10/164 81/11/163 52/6/164
f 82/10/161 42/6/155 52/6/161
f 42/6/155 82/10/161 83/11/165
f 42/6/155 83/11/166 78/10/155
f 52/6/164 42/6/167 82/10/164
f 83/11/168 82/10/164 42/6/167
f 78/10/157 83/11/169 42/6/167
f 46/6/170 85/11/171 84/10/170
f 85/11/171 46/6/170 41/6/152
f 85/11/172 41/6/152 79/10/152
f 84/10/173 85/11/174 46/6/173
f 41/6/158 46/6/173 85/11/174
f 79/10/158 41/6/158 85/11/175
f 80/10/160 87/10/176 86/11/177
f 87/10/178 80/10/160 49/6/160
f 87/10/178 49/6/160 45/6/178
f 86/11/179 87/10/180 80/10/162
f 49/6/162 80/10/162 87/10/180
f 45/6/180 49/6/162 87/10/180
f 45/6/178 88/11/181 87/10/178
f 88/11/181 45/6/178 46/6/170
f 88/11/182 46/6/170 84/10/170
f 87/10/180 88/11/183 45/6/184
f 46/6/173 45/6/180 88/11/185
f 84/10/173 46/6/173 88/11/185
f 91/10/186 90/10/187 89/11/188
f 90/10/187 91/10/189 75/6/189
f 90/10/187 75/6/189 69/6/187
f 89/11/190 90/10/191 91/10/192
f 75/6/193 91/10/193 90/10/191
f 69/6/191 75/6/192 90/10/191
f 65/6/194 93/11/195 92/10/194
f 93/11/195 65/6/194 66/6/196
f 93/11/195 66/6/196 94/10/197
f 92/10/198 93/11/199 65/6/198
f 66/6/200 65/6/198 93/11/199
f 94/10/200 66/6/201 93/11/199
f 97/10/202 96/10/203 95/11/204
f 96/10/205 97/10/202 71/6/202
f 96/10/205 71/6/202 73/6/205
f 95/11/206 96/10/207 97/10/208
f 71/6/208 97/10/208 96/10/207
f 73/6/207 71/6/208 96/10/207
f 98/11/209 75/6/186 91/10/189
f 75/6/186 98/11/210 73/6/205
f 73/6/205 98/11/210 96/10/205
f 91/10/192 75/6/192 98/11/211
f 73/6/207 98/11/211 75/6/192
f 96/10/207 98/11/211 73/6/207
f 94/10/212 97/10/202 99/11/213
f 97/10/202 94/10/197 66/6/197
f 97/10/202 66/6/197 71/6/202
f 99/11/214 97/10/208 94/10/201
f 66/6/200 94/10/200 97/10/208
f 71/6/208 66/6/201 97/10/208
f 90/10/187 92/10/194 100/11/215
f 92/10/194 90/10/187 69/6/187
f 92/10/194 69/6/187 65/6/194
f 100/11/216 92/10/198 90/10/191
f 69/6/191 90/10/191 92/10/198
f 65/6/198 69/6/217 92/10/198
f 102/11/159 61/6/160 101/10/160
f 61/6/160 102/11/159 59/6/161
f 59/6/161 102/11/159 103/10/161
f 101/10/162 61/6/162 102/11/163
f 59/6/164 102/11/163 61/6/162
f 103/10/164 102/11/163 59/6/164
f 103/10/161 60/6/155 59/6/161
f 60/6/155 103/10/161 104/11/218
f 60/6/153 104/11/166 105/10/155
f 59/6/164 60/6/167 103/10/164
f 104/11/219 103/10/164 60/6/157
f 105/10/167 104/11/168 60/6/167
f 62/6/176 107/11/182 106/10/178
f 107/11/182 62/6/178 53/6/170
f 107/11/220 53/6/170 108/10/170
f 106/10/184 107/11/185 62/6/184
f 53/6/173 62/6/180 107/11/185
f 108/10/173 53/6/221 107/11/183
f 110/10/152 105/10/153 109/11/222
f 105/10/155 110/10/152 54/6/152
f 105/10/155 54/6/152 60/6/155
f 109/11/156 105/10/157 110/10/158
f 54/6/158 110/10/158 105/10/157
f 60/6/157 54/6/158 105/10/157
f 101/10/160 106/10/176 111/11/177
f 106/10/178 101/10/160 61/6/160
f 106/10/178 61/6/160 62/6/178
f 111/11/179 106/10/180 101/10/162
f 61/6/162 101/10/162 106/10/180
f 62/6/180 61/6/162 106/10/180
f 53/6/170 112/11/172 108/10/170
f 112/11/171 53/6/170 54/6/152
f 112/11/223 54/6/152 110/10/152
f 108/10/173 112/11/224 53/6/173
f 54/6/158 53/6/173 112/11/174
f 110/10/158 54/6/158 112/11/224
