# Blender 4.1.1
# www.blender.org
mtllib tree.014.mtl
o tree.014
v -16.829514 -0.282319 -9.754659
v -16.681181 -0.282319 -9.859352
v -16.956026 -0.282319 -9.776478
v -16.659361 -0.282319 -9.985865
v -17.060719 -0.282319 -9.924811
v -16.764055 -0.282319 -10.134198
v -17.038900 -0.282319 -10.051324
v -16.890568 -0.282319 -10.156017
v -16.770611 0.046402 -9.907345
v -16.844776 0.046402 -9.854999
v -16.908033 0.046402 -9.865908
v -16.759701 0.046402 -9.970602
v -16.812048 0.046402 -10.044768
v -16.875303 0.046402 -10.055677
v -16.949471 0.046402 -10.003331
v -16.960381 0.046402 -9.940074
v -16.879120 0.539521 -10.080763
v -16.971827 0.539521 -10.015329
v -16.985464 0.539521 -9.936258
v -16.748253 0.539521 -9.895347
v -16.840960 0.539521 -9.829914
v -16.800051 0.539521 -10.067125
v -16.734615 0.539521 -9.974418
v -16.920031 0.539521 -9.843551
v -16.737265 0.163768 -9.858335
v -16.806753 0.163768 -9.842658
v -16.699215 0.163768 -9.918558
v -16.714893 0.163768 -9.988046
v -16.866974 0.163768 -9.880707
v -16.775116 0.163768 -10.026095
v -16.882652 0.163768 -9.950195
v -16.844603 0.163768 -10.010417
v -16.706865 0.044485 -9.815266
v -16.647264 0.044485 -9.909597
v -16.815712 0.044485 -9.790707
v -16.910046 0.044485 -9.850307
v -16.671824 0.044485 -10.018445
v -16.934605 0.044485 -9.959155
v -16.766155 0.044485 -10.078047
v -16.875002 0.044485 -10.053487
v -17.054663 0.539521 -9.552036
v -17.315388 0.539521 -9.921435
v -16.976950 1.083027 -9.720337
v -17.130777 1.083027 -9.938284
v -16.414845 0.539521 -10.003623
v -16.604393 0.539521 -9.593129
v -16.599455 1.083027 -9.986774
v -16.711287 1.083027 -9.744582
v -16.675568 0.539521 -10.373022
v -16.753283 1.083027 -10.204721
v -17.018944 1.083027 -10.180477
v -17.125839 0.539521 -10.331929
v -16.714781 1.666943 -9.749533
v -16.974409 1.666943 -9.725839
v -16.830563 2.279410 -9.913573
v -16.890236 2.279410 -9.908127
v -16.899670 2.279410 -10.011486
v -16.924789 2.279410 -9.957084
v -17.015450 1.666943 -10.175526
v -17.124743 1.666943 -9.938835
v -16.755823 1.666943 -10.199220
v -16.605488 1.666943 -9.986224
v -16.839994 2.279410 -10.016932
v -16.805441 2.279410 -9.967976
v -16.531382 1.083027 -9.808426
v -16.831707 1.083027 -9.596456
v -16.712194 1.666943 -9.891917
v -16.849806 1.666943 -9.794790
v -16.564791 1.083027 -10.174500
v -16.727503 1.666943 -10.059657
v -17.165440 1.083027 -9.750559
v -17.002728 1.666943 -9.865402
v -17.198851 1.083027 -10.116633
v -17.018036 1.666943 -10.033142
v -16.898525 1.083027 -10.328604
v -16.880424 1.666943 -10.130268
v -17.255405 0.369968 -9.687061
v -17.364916 0.454744 -9.916916
v -17.075514 0.454744 -9.506882
v -16.654718 0.454744 -10.418177
v -16.908533 0.369968 -10.438264
v -17.154520 0.454744 -10.372563
v -17.298822 0.369968 -10.162796
v -16.575712 0.454744 -9.552495
v -16.821699 0.369968 -9.486794
v -16.474827 0.369968 -10.237997
v -16.365314 0.454744 -10.008143
v -16.431408 0.369968 -9.762262
v -16.702297 0.945179 -10.315136
v -16.531755 1.014103 -10.197816
v -16.902201 1.014103 -10.368872
v -16.494671 1.014103 -9.791473
v -16.641157 0.945179 -9.645221
v -16.828032 1.014103 -9.556188
v -17.251892 0.945179 -9.927231
v -17.235559 1.014103 -10.133585
v -17.198477 1.014103 -9.727242
v -17.089073 0.945179 -10.279838
v -17.027933 0.945179 -9.609922
v -16.478340 0.945179 -9.997828
v -16.743799 1.618061 -10.225256
v -16.890150 1.569178 -10.236838
v -17.031986 1.618061 -10.198956
v -17.115191 1.569178 -10.078004
v -17.153303 1.618061 -9.936229
v -16.576929 1.618061 -9.988831
v -16.615040 1.569178 -9.847055
v -16.698244 1.618061 -9.726104
v -17.090157 1.569178 -9.803695
v -16.986431 1.618061 -9.699802
v -16.640074 1.569178 -10.121365
v -16.840080 1.569178 -9.688220
vn -0.0000 -1.0000 -0.0000
vn 0.8050 0.2942 0.5151
vn 0.2061 0.2944 0.9332
vn 0.8103 0.2944 0.5068
vn 0.2157 0.2942 0.9311
vn -0.5150 0.2942 0.8051
vn 0.2060 0.2944 0.9332
vn 0.2156 0.2942 0.9311
vn -0.5150 0.2943 0.8051
vn -0.5067 0.2944 0.8103
vn 0.9311 0.2942 -0.2156
vn 0.8103 0.2944 0.5067
vn 0.9332 0.2944 -0.2060
vn 0.8051 0.2942 0.5150
vn 0.5151 0.2942 -0.8050
vn 0.9332 0.2944 -0.2061
vn 0.5068 0.2944 -0.8103
vn 0.9311 0.2942 -0.2157
vn -0.8103 0.2944 -0.5068
vn -0.2157 0.2942 -0.9311
vn -0.2061 0.2944 -0.9332
vn -0.8102 0.2944 -0.5068
vn -0.8050 0.2942 -0.5152
vn -0.5151 0.2942 0.8050
vn -0.9332 0.2944 0.2061
vn -0.5068 0.2944 0.8102
vn -0.9311 0.2942 0.2157
vn -0.2060 0.2944 -0.9332
vn 0.5150 0.2942 -0.8051
vn 0.5067 0.2944 -0.8103
vn 0.5150 0.2943 -0.8051
vn -0.2156 0.2942 -0.9311
vn -0.8103 0.2944 -0.5067
vn -0.9311 0.2942 0.2156
vn -0.8051 0.2942 -0.5150
vn -0.9332 0.2944 0.2060
vn -0.2208 -0.0513 -0.9740
vn -0.8447 -0.0512 -0.5327
vn -0.2190 -0.0513 -0.9744
vn -0.8447 -0.0513 -0.5327
vn -0.2207 -0.0513 -0.9740
vn -0.8438 -0.0513 -0.5342
vn -0.9740 -0.0512 0.2207
vn -0.8448 -0.0513 -0.5327
vn -0.8438 -0.0512 -0.5342
vn -0.9740 -0.0513 0.2206
vn -0.9744 -0.0512 0.2189
vn 0.2190 -0.0512 0.9744
vn 0.8438 -0.0513 0.5342
vn 0.8447 -0.0513 0.5328
vn 0.2207 -0.0513 0.9740
vn 0.5327 -0.0513 -0.8447
vn 0.9740 -0.0513 -0.2207
vn 0.5342 -0.0513 -0.8438
vn 0.5327 -0.0512 -0.8447
vn 0.9744 -0.0513 -0.2190
vn 0.2190 -0.0513 0.9744
vn -0.5342 -0.0513 0.8438
vn 0.2207 -0.0512 0.9740
vn 0.2189 -0.0512 0.9744
vn -0.5327 -0.0513 0.8448
vn -0.2189 -0.0512 -0.9744
vn 0.5327 -0.0513 -0.8448
vn 0.8448 -0.0513 0.5327
vn 0.9744 -0.0512 -0.2190
vn 0.9740 -0.0512 -0.2207
vn 0.8438 -0.0512 0.5342
vn -0.5327 -0.0513 0.8447
vn -0.9740 -0.0513 0.2207
vn -0.9740 -0.0513 0.2208
vn -0.5327 -0.0512 0.8447
vn -0.9744 -0.0513 0.2190
vn -0.0000 1.0000 -0.0000
vn 0.9014 0.4042 0.1555
vn 0.5274 0.4042 0.7473
vn 0.9013 0.4042 0.1555
vn 0.5275 0.4042 0.7473
vn 0.5275 0.4043 0.7472
vn -0.7473 0.4042 0.5274
vn -0.9014 0.4042 -0.1555
vn -0.9014 0.4042 -0.1554
vn -0.9013 0.4043 -0.1554
vn -0.5275 0.4042 -0.7473
vn -0.5275 0.4043 -0.7472
vn -0.5274 0.4042 -0.7473
vn -0.9013 0.4042 -0.1555
vn 0.7473 0.4042 -0.5274
vn 0.9014 0.4042 0.1554
vn 0.9013 0.4043 0.1554
vn -0.1555 0.4042 0.9014
vn -0.1555 0.4042 0.9013
vn -0.7473 0.4042 0.5275
vn -0.7472 0.4042 0.5275
vn 0.1555 0.4042 -0.9014
vn 0.7473 0.4042 -0.5275
vn 0.1555 0.4042 -0.9013
vn 0.7473 0.4043 -0.5274
vn -0.1554 0.4042 0.9014
vn -0.1554 0.4042 0.9013
vn 0.1554 0.4042 -0.9014
vn -0.5274 0.4043 -0.7473
vn -0.3968 0.3228 0.8593
vn -0.9426 0.3228 0.0860
vn 0.9425 0.3228 -0.0860
vn 0.5458 0.3228 0.7733
vn 0.9426 0.3228 -0.0860
vn 0.3968 0.3228 -0.8593
vn -0.5458 0.3228 -0.7733
vn -0.9425 0.3228 0.0860
vn -0.5457 0.3228 -0.7733
vn 0.3966 0.7260 0.5619
vn -0.3984 0.3115 0.8627
vn 0.5479 0.3115 0.7764
vn -0.3983 0.3115 0.8627
vn 0.3966 0.7259 0.5619
vn -0.2884 0.7259 0.6244
vn -0.5480 0.3115 -0.7763
vn -0.6849 0.7260 0.0626
vn -0.3966 0.7260 -0.5619
vn -0.6849 0.7260 0.0625
vn -0.9463 0.3115 0.0864
vn 0.2883 0.7260 -0.6244
vn 0.9463 0.3115 -0.0864
vn 0.3984 0.3115 -0.8627
vn 0.2883 0.7259 -0.6244
vn 0.6849 0.7259 -0.0625
vn 0.6849 0.7260 -0.0625
vn 0.5480 0.3115 0.7764
vn 0.9463 0.3115 -0.0863
vn 0.5480 0.3116 0.7763
vn 0.6849 0.7260 -0.0626
vn 0.3965 0.7260 0.5619
vn -0.2883 0.7259 0.6244
vn 0.3965 0.7259 0.5619
vn -0.6849 0.7259 0.0625
vn -0.3965 0.7260 -0.5619
vn -0.5479 0.3115 -0.7763
vn 0.2883 0.7260 -0.6243
vn -0.5479 0.3115 -0.7764
vn -0.3965 0.7260 -0.5618
vn -0.2883 0.7260 0.6244
vn 0.8593 0.3228 0.3968
vn 0.0860 0.3228 0.9425
vn 0.0860 0.3228 0.9426
vn 0.7733 0.3228 -0.5458
vn -0.7732 0.3228 0.5458
vn -0.7733 0.3228 0.5458
vn -0.8593 0.3228 -0.3968
vn -0.0860 0.3228 -0.9425
vn 0.7732 0.3228 -0.5458
vn -0.0860 0.3228 -0.9426
vn -0.3616 0.5060 0.7831
vn -0.8589 0.5060 0.0784
vn -0.7284 0.4530 0.5141
vn -0.8590 0.5060 0.0784
vn 0.7284 -0.4530 -0.5141
vn 0.8590 -0.5060 -0.0784
vn 0.3616 -0.5060 -0.7831
vn -0.0810 0.4530 -0.8878
vn 0.3616 0.5060 -0.7831
vn -0.4974 0.5060 -0.7047
vn -0.3616 -0.5060 0.7831
vn 0.0810 -0.4530 0.8878
vn 0.4974 -0.5060 0.7047
vn -0.8094 0.4530 -0.3738
vn -0.8094 0.4530 -0.3737
vn 0.8589 -0.5060 -0.0784
vn 0.8094 -0.4530 0.3738
vn 0.8094 -0.4530 0.3737
vn 0.4974 0.5060 0.7047
vn 0.0810 0.4530 0.8878
vn -0.3616 0.5061 0.7830
vn -0.4974 -0.5060 -0.7047
vn -0.0810 -0.4530 -0.8878
vn 0.8589 0.5060 -0.0784
vn 0.7284 0.4530 -0.5141
vn 0.8590 0.5060 -0.0784
vn -0.7284 -0.4530 0.5141
vn -0.8590 -0.5060 0.0784
vn 0.8094 0.4530 0.3737
vn 0.8094 0.4530 0.3738
vn 0.4974 0.5061 0.7047
vn -0.8589 -0.5060 0.0784
vn -0.8094 -0.4530 -0.3737
vn -0.8094 -0.4530 -0.3738
vn -0.0784 0.5060 -0.8590
vn 0.7047 0.5060 -0.4974
vn 0.3738 0.4529 -0.8094
vn -0.3738 -0.4529 0.8094
vn -0.7047 -0.5060 0.4974
vn 0.0784 -0.5060 0.8590
vn 0.0784 -0.5060 0.8589
vn 0.7831 0.5060 0.3616
vn 0.5141 0.4530 0.7284
vn 0.0784 0.5060 0.8589
vn 0.0784 0.5060 0.8590
vn -0.7831 -0.5060 -0.3616
vn -0.5141 -0.4530 -0.7284
vn -0.0784 -0.5060 -0.8590
vn -0.5141 -0.4529 -0.7284
vn -0.7047 0.5060 0.4974
vn -0.7830 0.5060 -0.3616
vn -0.8878 0.4530 0.0810
vn -0.7831 0.5060 -0.3616
vn 0.8878 -0.4530 -0.0810
vn 0.7831 -0.5060 0.3616
vn 0.7047 -0.5060 -0.4974
vn -0.5141 0.4530 -0.7284
vn -0.0784 0.5060 -0.8589
vn 0.5141 -0.4530 0.7284
vn 0.5141 -0.4529 0.7284
vn -0.3737 0.4529 0.8094
vn 0.3737 -0.4529 -0.8094
vn -0.0784 -0.5060 -0.8589
vn 0.8878 0.4530 -0.0810
vn -0.8878 -0.4530 0.0810
vn -0.0810 0.4529 -0.8879
vn 0.3616 0.5061 -0.7830
vn 0.0810 -0.4529 0.8879
vn -0.8094 0.4529 -0.3737
vn 0.8094 -0.4529 0.3737
vn 0.8589 -0.5061 -0.0783
vn 0.8094 0.4529 0.3737
vn 0.4973 0.5060 0.7047
vn -0.8094 -0.4529 -0.3737
vn -0.4973 -0.5060 -0.7047
vn -0.7284 0.4529 0.5141
vn 0.7284 -0.4529 -0.5141
vn 0.0810 0.4529 0.8879
vn -0.0810 -0.4529 -0.8879
vn -0.0810 -0.4529 -0.8878
vt 0.593750 0.025000
vt 0.593750 0.104996
vt 0.593750 0.225000
vt 0.093750 0.475000
vt 0.093750 0.275000
vt 0.093750 0.425000
vt 0.093750 0.348778
vt 0.093750 0.338765
vt 0.093750 0.344099
vt 0.093750 0.375000
vt 0.093750 0.325000
s 0
usemtl colormap.002
f 3/1/1 2/1/1 1/1/1
f 2/1/1 3/1/1 4/1/1
f 4/1/1 3/1/1 5/1/1
f 4/1/1 5/1/1 6/1/1
f 6/1/1 5/1/1 7/1/1
f 6/1/1 7/1/1 8/1/1
f 9/2/2 1/1/3 2/1/4
f 1/1/3 9/2/2 10/2/5
f 11/2/6 1/1/7 10/2/8
f 1/1/7 11/2/9 3/1/10
f 12/2/11 2/1/12 4/1/13
f 2/1/12 12/2/11 9/2/14
f 13/2/15 4/1/16 6/1/17
f 4/1/16 13/2/15 12/2/18
f 7/1/19 14/2/20 8/1/21
f 14/2/20 7/1/22 15/2/23
f 11/2/24 5/1/25 3/1/26
f 5/1/25 11/2/24 16/2/27
f 8/1/28 13/2/29 6/1/30
f 13/2/31 8/1/28 14/2/32
f 7/1/33 16/2/34 15/2/35
f 16/2/34 7/1/33 5/1/36
f 14/2/37 18/3/38 17/3/39
f 18/3/40 14/2/41 15/2/42
f 16/2/43 18/3/44 15/2/45
f 18/3/40 16/2/46 19/3/47
f 21/3/48 9/2/49 20/3/50
f 9/2/49 21/3/48 10/2/51
f 22/3/52 12/2/53 13/2/54
f 12/2/53 22/3/55 23/3/56
f 21/3/57 11/2/58 10/2/59
f 11/2/58 21/3/60 24/3/61
f 13/2/54 17/3/62 22/3/63
f 17/3/39 13/2/54 14/2/41
f 20/3/64 12/2/53 23/3/65
f 12/2/66 20/3/64 9/2/67
f 24/3/68 16/2/69 11/2/58
f 16/2/70 24/3/71 19/3/72
f 27/4/73 26/4/73 25/4/73
f 26/4/73 27/4/73 28/4/73
f 26/4/73 28/4/73 29/4/73
f 29/4/73 28/4/73 30/4/73
f 29/4/73 30/4/73 31/4/73
f 31/4/73 30/4/73 32/4/73
f 35/5/1 34/5/1 33/5/1
f 34/5/1 35/5/1 36/5/1
f 34/5/1 36/5/1 37/5/1
f 37/5/1 36/5/1 38/5/1
f 37/5/1 38/5/1 39/5/1
f 39/5/1 38/5/1 40/5/1
f 27/4/74 33/5/75 34/5/76
f 33/5/77 27/4/74 25/4/78
f 29/4/79 38/5/80 36/5/79
f 38/5/81 29/4/79 31/4/82
f 40/5/83 31/4/80 32/4/84
f 31/4/80 40/5/85 38/5/86
f 28/4/87 34/5/88 37/5/87
f 34/5/88 28/4/87 27/4/89
f 26/4/90 36/5/79 35/5/91
f 36/5/92 26/4/90 29/4/93
f 30/4/94 37/5/95 39/5/96
f 37/5/87 30/4/96 28/4/97
f 26/4/98 33/5/75 25/4/75
f 33/5/75 26/4/99 35/5/98
f 40/5/85 30/4/100 39/5/100
f 30/4/100 40/5/101 32/4/85
f 43/6/102 42/7/103 41/7/102
f 42/7/103 43/6/102 44/6/103
f 47/6/104 46/7/105 45/7/104
f 46/7/105 47/6/106 48/6/105
f 50/6/107 45/7/106 49/7/107
f 45/7/106 50/6/107 47/6/106
f 48/6/105 41/7/102 46/7/105
f 41/7/102 48/6/105 43/6/102
f 52/7/108 44/6/103 51/6/108
f 44/6/109 52/7/108 42/7/109
f 52/7/108 50/6/107 49/7/107
f 50/6/107 52/7/110 51/6/108
f 41/7/1 45/7/1 46/7/1
f 45/7/1 41/7/1 42/7/1
f 45/7/1 42/7/1 49/7/1
f 49/7/1 42/7/1 52/7/1
f 55/6/111 54/8/112 53/8/113
f 54/8/114 55/6/115 56/6/116
f 59/8/117 58/6/118 57/6/119
f 58/6/120 59/8/117 60/8/121
f 63/6/122 62/8/123 61/8/124
f 62/8/123 63/6/125 64/6/126
f 64/6/127 53/8/128 62/8/129
f 53/8/130 64/6/131 55/6/132
f 64/6/127 56/6/133 55/6/134
f 56/6/133 64/6/126 58/6/135
f 58/6/135 64/6/126 63/6/125
f 58/6/120 63/6/125 57/6/136
f 59/8/137 63/6/122 61/8/124
f 63/6/138 59/8/139 57/6/140
f 54/8/1 62/8/1 53/8/1
f 62/8/1 54/8/1 60/8/1
f 62/8/1 60/8/1 61/8/1
f 61/8/1 60/8/1 59/8/1
f 56/6/141 60/8/121 54/8/112
f 60/8/121 56/6/141 58/6/120
f 67/6/142 66/9/143 65/9/142
f 66/9/143 67/6/142 68/6/144
f 70/6/145 65/9/142 69/9/145
f 65/9/142 70/6/145 67/6/142
f 68/6/143 71/9/146 66/9/143
f 71/9/146 68/6/144 72/6/147
f 72/6/147 73/9/148 71/9/147
f 73/9/148 72/6/147 74/6/148
f 71/9/1 65/9/1 66/9/1
f 65/9/1 71/9/1 69/9/1
f 69/9/1 71/9/1 73/9/1
f 69/9/1 73/9/1 75/9/1
f 76/6/149 69/9/150 75/9/149
f 69/9/150 76/6/151 70/6/145
f 73/9/148 76/6/149 75/9/149
f 76/6/149 73/9/148 74/6/148
f 79/10/152 78/10/153 77/11/154
f 78/10/155 79/10/152 41/6/152
f 78/10/155 41/6/152 42/6/155
f 77/11/156 78/10/157 79/10/158
f 41/6/158 79/10/158 78/10/157
f 42/6/157 41/6/158 78/10/157
f 81/11/159 49/6/160 80/10/160
f 49/6/160 81/11/159 52/6/161
f 52/6/161 81/11/159 82/10/161
f 80/10/162 49/6/162 81/11/163
f 52/6/164 81/11/163 49/6/162
f 82/10/164 81/11/163 52/6/164
f 82/10/161 42/6/155 52/6/161
f 42/6/155 82/10/161 83/11/165
f 42/6/155 83/11/166 78/10/155
f 52/6/164 42/6/167 82/10/164
f 83/11/168 82/10/164 42/6/157
f 78/10/157 83/11/169 42/6/167
f 46/6/170 85/11/171 84/10/170
f 85/11/171 46/6/170 41/6/152
f 85/11/171 41/6/172 79/10/152
f 84/10/173 85/11/174 46/6/173
f 41/6/158 46/6/173 85/11/174
f 79/10/158 41/6/158 85/11/174
f 80/10/160 87/10/175 86/11/176
f 87/10/177 80/10/160 49/6/160
f 87/10/177 49/6/160 45/6/177
f 86/11/178 87/10/179 80/10/162
f 49/6/162 80/10/162 87/10/179
f 45/6/179 49/6/162 87/10/179
f 45/6/175 88/11/180 87/10/177
f 88/11/181 45/6/177 46/6/170
f 88/11/180 46/6/182 84/10/170
f 87/10/183 88/11/184 45/6/183
f 46/6/173 45/6/183 88/11/185
f 84/10/173 46/6/173 88/11/184
f 91/10/186 90/10/187 89/11/188
f 90/10/187 91/10/186 75/6/186
f 90/10/187 75/6/186 69/6/187
f 89/11/189 90/10/190 91/10/191
f 75/6/191 91/10/191 90/10/190
f 69/6/190 75/6/192 90/10/190
f 65/6/193 93/11/194 92/10/193
f 93/11/194 65/6/193 66/6/195
f 93/11/194 66/6/195 94/10/196
f 92/10/197 93/11/198 65/6/197
f 66/6/199 65/6/197 93/11/198
f 94/10/199 66/6/199 93/11/200
f 97/10/201 96/10/202 95/11/203
f 96/10/204 97/10/201 71/6/201
f 96/10/204 71/6/201 73/6/204
f 95/11/205 96/10/206 97/10/207
f 71/6/207 97/10/207 96/10/206
f 73/6/206 71/6/207 96/10/206
f 98/11/208 75/6/209 91/10/186
f 75/6/209 98/11/208 73/6/204
f 73/6/204 98/11/208 96/10/204
f 91/10/191 75/6/192 98/11/210
f 73/6/206 98/11/210 75/6/191
f 96/10/206 98/11/211 73/6/206
f 94/10/196 97/10/201 99/11/212
f 97/10/201 94/10/196 66/6/196
f 97/10/201 66/6/195 71/6/201
f 99/11/213 97/10/207 94/10/199
f 66/6/199 94/10/199 97/10/207
f 71/6/207 66/6/214 97/10/207
f 90/10/187 92/10/193 100/11/215
f 92/10/193 90/10/187 69/6/187
f 92/10/193 69/6/187 65/6/193
f 100/11/216 92/10/197 90/10/190
f 69/6/190 90/10/190 92/10/197
f 65/6/197 69/6/190 92/10/197
f 102/11/217 61/6/160 101/10/160
f 61/6/218 102/11/159 59/6/161
f 59/6/161 102/11/159 103/10/161
f 101/10/162 61/6/162 102/11/219
f 59/6/164 102/11/163 61/6/162
f 103/10/164 102/11/163 59/6/164
f 103/10/161 60/6/155 59/6/161
f 60/6/155 103/10/161 104/11/220
f 60/6/153 104/11/165 105/10/155
f 59/6/164 60/6/167 103/10/164
f 104/11/221 103/10/164 60/6/157
f 105/10/167 104/11/168 60/6/222
f 62/6/177 107/11/180 106/10/177
f 107/11/223 62/6/177 53/6/170
f 107/11/181 53/6/224 108/10/224
f 106/10/179 107/11/184 62/6/183
f 53/6/173 62/6/179 107/11/225
f 108/10/173 53/6/226 107/11/185
f 110/10/152 105/10/153 109/11/227
f 105/10/155 110/10/152 54/6/152
f 105/10/155 54/6/152 60/6/155
f 109/11/228 105/10/157 110/10/158
f 54/6/158 110/10/158 105/10/157
f 60/6/157 54/6/158 105/10/157
f 101/10/160 106/10/175 111/11/176
f 106/10/175 101/10/160 61/6/160
f 106/10/177 61/6/160 62/6/177
f 111/11/178 106/10/179 101/10/162
f 61/6/162 101/10/162 106/10/179
f 62/6/179 61/6/162 106/10/179
f 53/6/170 112/11/229 108/10/170
f 112/11/171 53/6/170 54/6/172
f 112/11/171 54/6/152 110/10/152
f 108/10/173 112/11/230 53/6/173
f 54/6/158 53/6/173 112/11/174
f 110/10/158 54/6/158 112/11/231
f 3/1/1 2/1/1 1/1/1
f 2/1/1 3/1/1 4/1/1
f 4/1/1 3/1/1 5/1/1
f 4/1/1 5/1/1 6/1/1
f 6/1/1 5/1/1 7/1/1
f 6/1/1 7/1/1 8/1/1
f 9/2/2 1/1/3 2/1/4
f 1/1/3 9/2/2 10/2/5
f 11/2/6 1/1/7 10/2/8
f 1/1/7 11/2/9 3/1/10
f 12/2/11 2/1/12 4/1/13
f 2/1/12 12/2/11 9/2/14
f 13/2/15 4/1/16 6/1/17
f 4/1/16 13/2/15 12/2/18
f 7/1/19 14/2/20 8/1/21
f 14/2/20 7/1/22 15/2/23
f 11/2/24 5/1/25 3/1/26
f 5/1/25 11/2/24 16/2/27
f 8/1/28 13/2/29 6/1/30
f 13/2/31 8/1/28 14/2/32
f 7/1/33 16/2/34 15/2/35
f 16/2/34 7/1/33 5/1/36
f 14/2/37 18/3/38 17/3/39
f 18/3/40 14/2/41 15/2/42
f 16/2/43 18/3/44 15/2/45
f 18/3/40 16/2/46 19/3/47
f 21/3/48 9/2/49 20/3/50
f 9/2/49 21/3/48 10/2/51
f 22/3/52 12/2/53 13/2/54
f 12/2/53 22/3/55 23/3/56
f 21/3/57 11/2/58 10/2/59
f 11/2/58 21/3/60 24/3/61
f 13/2/54 17/3/62 22/3/63
f 17/3/39 13/2/54 14/2/41
f 20/3/64 12/2/53 23/3/65
f 12/2/66 20/3/64 9/2/67
f 24/3/68 16/2/69 11/2/58
f 16/2/70 24/3/71 19/3/72
f 27/4/73 26/4/73 25/4/73
f 26/4/73 27/4/73 28/4/73
f 26/4/73 28/4/73 29/4/73
f 29/4/73 28/4/73 30/4/73
f 29/4/73 30/4/73 31/4/73
f 31/4/73 30/4/73 32/4/73
f 35/5/1 34/5/1 33/5/1
f 34/5/1 35/5/1 36/5/1
f 34/5/1 36/5/1 37/5/1
f 37/5/1 36/5/1 38/5/1
f 37/5/1 38/5/1 39/5/1
f 39/5/1 38/5/1 40/5/1
f 27/4/74 33/5/75 34/5/76
f 33/5/77 27/4/74 25/4/78
f 29/4/79 38/5/80 36/5/79
f 38/5/81 29/4/79 31/4/82
f 40/5/83 31/4/80 32/4/84
f 31/4/80 40/5/85 38/5/86
f 28/4/87 34/5/88 37/5/87
f 34/5/88 28/4/87 27/4/89
f 26/4/90 36/5/79 35/5/91
f 36/5/92 26/4/90 29/4/93
f 30/4/94 37/5/95 39/5/96
f 37/5/87 30/4/96 28/4/97
f 26/4/98 33/5/75 25/4/75
f 33/5/75 26/4/99 35/5/98
f 40/5/85 30/4/100 39/5/100
f 30/4/100 40/5/101 32/4/85
f 43/6/102 42/7/103 41/7/102
f 42/7/103 43/6/102 44/6/103
f 47/6/104 46/7/105 45/7/104
f 46/7/105 47/6/106 48/6/105
f 50/6/107 45/7/106 49/7/107
f 45/7/106 50/6/107 47/6/106
f 48/6/105 41/7/102 46/7/105
f 41/7/102 48/6/105 43/6/102
f 52/7/108 44/6/103 51/6/108
f 44/6/109 52/7/108 42/7/109
f 52/7/108 50/6/107 49/7/107
f 50/6/107 52/7/110 51/6/108
f 41/7/1 45/7/1 46/7/1
f 45/7/1 41/7/1 42/7/1
f 45/7/1 42/7/1 49/7/1
f 49/7/1 42/7/1 52/7/1
f 55/6/111 54/8/112 53/8/113
f 54/8/114 55/6/115 56/6/116
f 59/8/117 58/6/118 57/6/119
f 58/6/120 59/8/117 60/8/121
f 63/6/122 62/8/123 61/8/124
f 62/8/123 63/6/125 64/6/126
f 64/6/127 53/8/128 62/8/129
f 53/8/130 64/6/131 55/6/132
f 64/6/127 56/6/133 55/6/134
f 56/6/133 64/6/126 58/6/135
f 58/6/135 64/6/126 63/6/125
f 58/6/120 63/6/125 57/6/136
f 59/8/137 63/6/122 61/8/124
f 63/6/138 59/8/139 57/6/140
f 54/8/1 62/8/1 53/8/1
f 62/8/1 54/8/1 60/8/1
f 62/8/1 60/8/1 61/8/1
f 61/8/1 60/8/1 59/8/1
f 56/6/141 60/8/121 54/8/112
f 60/8/121 56/6/141 58/6/120
f 67/6/142 66/9/143 65/9/142
f 66/9/143 67/6/142 68/6/144
f 70/6/145 65/9/142 69/9/145
f 65/9/142 70/6/145 67/6/142
f 68/6/143 71/9/146 66/9/143
f 71/9/146 68/6/144 72/6/147
f 72/6/147 73/9/148 71/9/147
f 73/9/148 72/6/147 74/6/148
f 71/9/1 65/9/1 66/9/1
f 65/9/1 71/9/1 69/9/1
f 69/9/1 71/9/1 73/9/1
f 69/9/1 73/9/1 75/9/1
f 76/6/149 69/9/150 75/9/149
f 69/9/150 76/6/151 70/6/145
f 73/9/148 76/6/149 75/9/149
f 76/6/149 73/9/148 74/6/148
f 79/10/152 78/10/153 77/11/154
f 78/10/155 79/10/152 41/6/152
f 78/10/155 41/6/152 42/6/155
f 77/11/156 78/10/157 79/10/158
f 41/6/158 79/10/158 78/10/157
f 42/6/157 41/6/158 78/10/157
f 81/11/159 49/6/160 80/10/160
f 49/6/160 81/11/159 52/6/161
f 52/6/161 81/11/159 82/10/161
f 80/10/162 49/6/162 81/11/163
f 52/6/164 81/11/163 49/6/162
f 82/10/164 81/11/163 52/6/164
f 82/10/161 42/6/155 52/6/161
f 42/6/155 82/10/161 83/11/165
f 42/6/155 83/11/166 78/10/155
f 52/6/164 42/6/167 82/10/164
f 83/11/168 82/10/164 42/6/157
f 78/10/157 83/11/169 42/6/167
f 46/6/170 85/11/171 84/10/170
f 85/11/171 46/6/170 41/6/152
f 85/11/171 41/6/172 79/10/152
f 84/10/173 85/11/174 46/6/173
f 41/6/158 46/6/173 85/11/174
f 79/10/158 41/6/158 85/11/174
f 80/10/160 87/10/175 86/11/176
f 87/10/177 80/10/160 49/6/160
f 87/10/177 49/6/160 45/6/177
f 86/11/178 87/10/179 80/10/162
f 49/6/162 80/10/162 87/10/179
f 45/6/179 49/6/162 87/10/179
f 45/6/175 88/11/180 87/10/177
f 88/11/181 45/6/177 46/6/170
f 88/11/180 46/6/182 84/10/170
f 87/10/183 88/11/184 45/6/183
f 46/6/173 45/6/183 88/11/185
f 84/10/173 46/6/173 88/11/184
f 91/10/186 90/10/187 89/11/188
f 90/10/187 91/10/186 75/6/186
f 90/10/187 75/6/186 69/6/187
f 89/11/189 90/10/190 91/10/191
f 75/6/191 91/10/191 90/10/190
f 69/6/190 75/6/192 90/10/190
f 65/6/193 93/11/194 92/10/193
f 93/11/194 65/6/193 66/6/195
f 93/11/194 66/6/195 94/10/196
f 92/10/197 93/11/198 65/6/197
f 66/6/199 65/6/197 93/11/198
f 94/10/199 66/6/199 93/11/200
f 97/10/201 96/10/202 95/11/203
f 96/10/204 97/10/201 71/6/201
f 96/10/204 71/6/201 73/6/204
f 95/11/205 96/10/206 97/10/207
f 71/6/207 97/10/207 96/10/206
f 73/6/206 71/6/207 96/10/206
f 98/11/208 75/6/209 91/10/186
f 75/6/209 98/11/208 73/6/204
f 73/6/204 98/11/208 96/10/204
f 91/10/191 75/6/192 98/11/210
f 73/6/206 98/11/210 75/6/191
f 96/10/206 98/11/211 73/6/206
f 94/10/196 97/10/201 99/11/212
f 97/10/201 94/10/196 66/6/196
f 97/10/201 66/6/195 71/6/201
f 99/11/213 97/10/207 94/10/199
f 66/6/199 94/10/199 97/10/207
f 71/6/207 66/6/214 97/10/207
f 90/10/187 92/10/193 100/11/215
f 92/10/193 90/10/187 69/6/187
f 92/10/193 69/6/187 65/6/193
f 100/11/216 92/10/197 90/10/190
f 69/6/190 90/10/190 92/10/197
f 65/6/197 69/6/190 92/10/197
f 102/11/217 61/6/160 101/10/160
f 61/6/218 102/11/159 59/6/161
f 59/6/161 102/11/159 103/10/161
f 101/10/162 61/6/162 102/11/219
f 59/6/164 102/11/163 61/6/162
f 103/10/164 102/11/163 59/6/164
f 103/10/161 60/6/155 59/6/161
f 60/6/155 103/10/161 104/11/220
f 60/6/153 104/11/165 105/10/155
f 59/6/164 60/6/167 103/10/164
f 104/11/221 103/10/164 60/6/157
f 105/10/167 104/11/168 60/6/222
f 62/6/177 107/11/180 106/10/177
f 107/11/223 62/6/177 53/6/170
f 107/11/181 53/6/224 108/10/224
f 106/10/179 107/11/184 62/6/183
f 53/6/173 62/6/179 107/11/225
f 108/10/173 53/6/226 107/11/185
f 110/10/152 105/10/153 109/11/227
f 105/10/155 110/10/152 54/6/152
f 105/10/155 54/6/152 60/6/155
f 109/11/228 105/10/157 110/10/158
f 54/6/158 110/10/158 105/10/157
f 60/6/157 54/6/158 105/10/157
f 101/10/160 106/10/175 111/11/176
f 106/10/175 101/10/160 61/6/160
f 106/10/177 61/6/160 62/6/177
f 111/11/178 106/10/179 101/10/162
f 61/6/162 101/10/162 106/10/179
f 62/6/179 61/6/162 106/10/179
f 53/6/170 112/11/229 108/10/170
f 112/11/171 53/6/170 54/6/172
f 112/11/171 54/6/152 110/10/152
f 108/10/173 112/11/230 53/6/173
f 54/6/158 53/6/173 112/11/174
f 110/10/158 54/6/158 112/11/231
