# Blender 4.1.1
# www.blender.org
mtllib tree.010.mtl
o tree.010
v -17.075199 -0.282319 -5.432444
v -17.075199 -0.282319 -5.614002
v -17.165979 -0.282319 -5.341665
v -17.165979 -0.282319 -5.704781
v -17.347536 -0.282319 -5.341665
v -17.347536 -0.282319 -5.704781
v -17.438316 -0.282319 -5.432444
v -17.438316 -0.282319 -5.614002
v -17.165979 0.046402 -5.568612
v -17.165979 0.046402 -5.477833
v -17.211369 0.046402 -5.432444
v -17.211369 0.046402 -5.614002
v -17.302147 0.046402 -5.614002
v -17.347536 0.046402 -5.568612
v -17.347536 0.046402 -5.477833
v -17.302147 0.046402 -5.432444
v -17.370232 0.539521 -5.579959
v -17.370232 0.539521 -5.466486
v -17.313494 0.539521 -5.409749
v -17.143284 0.539521 -5.579959
v -17.143284 0.539521 -5.466486
v -17.313494 0.539521 -5.636696
v -17.200020 0.539521 -5.636696
v -17.200020 0.539521 -5.409749
v -17.106709 0.163768 -5.567595
v -17.133968 0.163768 -5.501783
v -17.133968 0.163768 -5.633408
v -17.199781 0.163768 -5.660668
v -17.199781 0.163768 -5.474523
v -17.265594 0.163768 -5.633408
v -17.265594 0.163768 -5.501783
v -17.292856 0.163768 -5.567595
v -17.053991 0.044485 -5.567595
v -17.096693 0.044485 -5.670685
v -17.096693 0.044485 -5.464506
v -17.199781 0.044485 -5.421805
v -17.199781 0.044485 -5.713387
v -17.302872 0.044485 -5.464506
v -17.302872 0.044485 -5.670685
v -17.345573 0.044485 -5.567595
v -17.039488 0.539521 -5.131656
v -17.491631 0.539521 -5.131656
v -17.132177 1.083027 -5.292197
v -17.398943 1.083027 -5.292197
v -17.039488 0.539521 -5.914789
v -16.813417 0.539521 -5.523223
v -17.132177 1.083027 -5.754249
v -16.998793 1.083027 -5.523223
v -17.491631 0.539521 -5.914789
v -17.398943 1.083027 -5.754249
v -17.532326 1.083027 -5.523223
v -17.717703 0.539521 -5.523223
v -17.004852 1.666943 -5.523223
v -17.135206 1.666943 -5.297445
v -17.205637 2.279410 -5.523223
v -17.235598 2.279410 -5.471328
v -17.325481 2.279410 -5.523223
v -17.295521 2.279410 -5.471328
v -17.526264 1.666943 -5.523223
v -17.395912 1.666943 -5.297445
v -17.395912 1.666943 -5.749001
v -17.135206 1.666943 -5.749001
v -17.295521 2.279410 -5.575118
v -17.235598 2.279410 -5.575118
v -16.947212 1.083027 -5.707020
v -16.947212 1.083027 -5.339425
v -17.119690 1.666943 -5.607441
v -17.119690 1.666943 -5.439005
v -17.265558 1.083027 -5.890819
v -17.265558 1.666943 -5.691659
v -17.265558 1.083027 -5.155627
v -17.265558 1.666943 -5.354786
v -17.583906 1.083027 -5.339425
v -17.411430 1.666943 -5.439005
v -17.583906 1.083027 -5.707020
v -17.411430 1.666943 -5.607441
v -17.265558 0.369968 -5.045511
v -17.516499 0.454744 -5.088583
v -17.014620 0.454744 -5.088583
v -17.516499 0.454744 -5.957862
v -17.679270 0.369968 -5.762078
v -17.767437 0.454744 -5.523223
v -17.679270 0.369968 -5.284367
v -16.763681 0.454744 -5.523223
v -16.851849 0.369968 -5.284367
v -17.265558 0.369968 -6.000934
v -17.014620 0.454744 -5.957862
v -16.851849 0.369968 -5.762078
v -17.459751 0.945179 -5.859573
v -17.265558 1.014103 -5.931254
v -17.618925 1.014103 -5.727238
v -16.912193 1.014103 -5.727238
v -16.877176 0.945179 -5.523223
v -16.912193 1.014103 -5.319207
v -17.459751 0.945179 -5.186873
v -17.618925 1.014103 -5.319207
v -17.265558 1.014103 -5.115191
v -17.653944 0.945179 -5.523223
v -17.071367 0.945179 -5.186873
v -17.071367 0.945179 -5.859573
v -17.410252 1.618061 -5.773837
v -17.504107 1.569178 -5.660947
v -17.554943 1.618061 -5.523223
v -17.504107 1.569178 -5.385498
v -17.410252 1.618061 -5.272609
v -17.120867 1.618061 -5.773837
v -17.027014 1.569178 -5.660947
v -16.976175 1.618061 -5.523223
v -17.265558 1.569178 -5.247774
v -17.120867 1.618061 -5.272609
v -17.265558 1.569178 -5.798672
v -17.027014 1.569178 -5.385498
vn -0.0000 -1.0000 -0.0000
vn 0.8851 0.2942 -0.3607
vn 0.8812 0.2944 0.3698
vn 0.8812 0.2944 -0.3698
vn 0.8851 0.2942 0.3607
vn 0.3608 0.2943 0.8850
vn 0.3607 0.2942 0.8850
vn 0.3698 0.2944 0.8812
vn 0.3607 0.2942 -0.8850
vn 0.3698 0.2944 -0.8812
vn 0.8812 0.2945 -0.3698
vn 0.3608 0.2942 -0.8850
vn -0.3607 0.2942 -0.8851
vn 0.3698 0.2944 -0.8813
vn -0.3698 0.2944 -0.8812
vn 0.3607 0.2942 -0.8851
vn -0.8813 0.2944 0.3698
vn -0.8851 0.2942 -0.3607
vn -0.8812 0.2944 -0.3698
vn -0.8851 0.2942 0.3607
vn 0.3607 0.2942 0.8851
vn -0.3698 0.2944 0.8813
vn -0.3698 0.2944 0.8812
vn -0.3607 0.2942 0.8851
vn -0.3607 0.2942 -0.8850
vn -0.3608 0.2943 -0.8850
vn -0.8812 0.2944 0.3698
vn -0.3608 0.2942 0.8850
vn -0.3607 0.2942 0.8850
vn -0.9230 -0.0513 -0.3813
vn -0.9223 -0.0512 0.3829
vn -0.9223 -0.0513 -0.3829
vn -0.9223 -0.0513 0.3829
vn -0.9230 -0.0513 0.3813
vn -0.3814 -0.0512 0.9230
vn -0.9223 -0.0513 0.3830
vn -0.9230 -0.0512 0.3813
vn -0.3813 -0.0513 0.9230
vn -0.3830 -0.0512 0.9223
vn 0.9223 -0.0512 0.3829
vn 0.9230 -0.0513 -0.3813
vn 0.9223 -0.0513 -0.3829
vn 0.9230 -0.0513 0.3813
vn -0.3829 -0.0513 -0.9223
vn 0.3813 -0.0513 -0.9230
vn -0.3813 -0.0513 -0.9230
vn -0.3829 -0.0512 -0.9223
vn 0.3829 -0.0513 -0.9223
vn 0.9223 -0.0513 0.3830
vn 0.3814 -0.0513 0.9230
vn 0.3813 -0.0513 0.9230
vn 0.9223 -0.0512 0.3830
vn 0.3830 -0.0513 0.9223
vn -0.9223 -0.0512 -0.3830
vn -0.3830 -0.0513 -0.9223
vn -0.9223 -0.0513 -0.3830
vn -0.3814 -0.0513 -0.9230
vn 0.9223 -0.0513 -0.3830
vn 0.3830 -0.0512 -0.9223
vn 0.3814 -0.0512 -0.9230
vn 0.9230 -0.0512 -0.3813
vn 0.3829 -0.0513 0.9223
vn 0.3829 -0.0512 0.9223
vn -0.3829 -0.0513 0.9223
vn -0.0000 1.0000 -0.0000
vn 0.6468 0.4042 -0.6467
vn 0.9147 0.4042 -0.0000
vn 0.9147 0.4042 -0.0001
vn 0.6468 0.4042 -0.6468
vn 0.9146 0.4043 -0.0001
vn -0.0000 0.4042 0.9147
vn -0.6467 0.4042 0.6468
vn -0.6467 0.4043 0.6468
vn -0.9147 0.4042 -0.0000
vn -0.6468 0.4042 0.6467
vn -0.9146 0.4043 -0.0000
vn -0.6468 0.4042 0.6468
vn -0.0000 0.4042 -0.9147
vn 0.6467 0.4042 -0.6468
vn 0.6468 0.4042 0.6468
vn 0.6467 0.4042 0.6468
vn -0.6468 0.4042 -0.6468
vn -0.6467 0.4042 -0.6468
vn -0.0000 0.4042 -0.9146
vn 0.9146 0.4043 0.0001
vn 0.9147 0.4042 0.0001
vn 0.6468 0.4042 0.6467
vn -0.9147 0.4042 -0.0001
vn -0.6468 0.4042 -0.6467
vn 0.4732 0.3228 0.8197
vn -0.4732 0.3228 0.8197
vn 0.4732 0.3228 -0.8197
vn 0.9465 0.3228 -0.0000
vn 0.4732 0.3228 -0.8196
vn -0.4732 0.3228 -0.8197
vn -0.9465 0.3228 -0.0000
vn 0.6877 0.7260 -0.0000
vn 0.4751 0.3115 0.8229
vn 0.9503 0.3115 -0.0000
vn 0.4752 0.3115 0.8229
vn 0.6877 0.7260 -0.0001
vn 0.3439 0.7260 0.5956
vn -0.9502 0.3115 -0.0000
vn -0.3439 0.7260 0.5956
vn -0.6877 0.7260 -0.0001
vn -0.3438 0.7260 0.5956
vn -0.9503 0.3115 -0.0000
vn -0.4751 0.3115 0.8229
vn -0.3439 0.7260 -0.5956
vn 0.4751 0.3115 -0.8229
vn -0.4751 0.3115 -0.8229
vn 0.3439 0.7260 -0.5956
vn 0.3438 0.7260 -0.5956
vn 0.9502 0.3115 -0.0000
vn 0.3439 0.7259 -0.5956
vn 0.3439 0.7259 0.5956
vn 0.6877 0.7259 -0.0000
vn -0.3439 0.7259 0.5956
vn -0.3439 0.7259 -0.5956
vn -0.6877 0.7259 -0.0000
vn -0.3438 0.7260 -0.5956
vn -0.3439 0.7260 -0.5955
vn -0.6877 0.7260 -0.0000
vn 0.8197 0.3228 -0.4732
vn 0.8197 0.3228 0.4732
vn -0.0000 0.3228 -0.9465
vn 0.8196 0.3228 -0.4732
vn -0.0000 0.3228 0.9465
vn 0.8197 0.3228 0.4733
vn -0.8196 0.3228 0.4732
vn -0.8197 0.3228 0.4733
vn -0.8196 0.3228 -0.4732
vn -0.8197 0.3228 -0.4732
vn -0.8197 0.3228 0.4732
vn 0.4313 0.5060 0.7470
vn -0.4313 0.5060 0.7470
vn -0.0000 0.4530 0.8915
vn -0.0000 -0.4530 -0.8915
vn 0.4313 -0.5060 -0.7470
vn -0.4313 -0.5060 -0.7470
vn -0.7721 0.4530 -0.4458
vn -0.4313 0.5060 -0.7469
vn -0.4313 0.5060 -0.7470
vn -0.8625 0.5060 -0.0000
vn -0.7721 0.4529 -0.4458
vn 0.4313 -0.5060 0.7470
vn 0.7721 -0.4530 0.4458
vn 0.8625 -0.5060 -0.0000
vn 0.7721 -0.4529 0.4458
vn -0.8626 0.5060 -0.0000
vn -0.7721 0.4530 0.4458
vn 0.7721 -0.4530 -0.4458
vn 0.4313 -0.5060 -0.7469
vn 0.8625 0.5060 -0.0000
vn 0.7721 0.4530 0.4458
vn 0.4313 0.5060 0.7469
vn 0.4312 0.5060 0.7470
vn -0.8625 -0.5060 -0.0000
vn -0.7721 -0.4530 -0.4458
vn -0.4312 -0.5060 -0.7470
vn 0.4313 0.5060 -0.7470
vn -0.0000 0.4529 -0.8915
vn -0.0000 -0.4530 0.8915
vn -0.4313 -0.5060 0.7470
vn 0.4312 0.5060 -0.7470
vn 0.7721 0.4530 -0.4458
vn -0.7721 -0.4530 0.4458
vn -0.4312 -0.5060 0.7470
vn -0.7470 0.5060 -0.4313
vn -0.0000 0.5060 -0.8625
vn -0.4458 0.4530 -0.7721
vn 0.4458 -0.4530 0.7721
vn -0.0000 -0.5060 0.8625
vn 0.7470 -0.5060 0.4313
vn 0.7470 0.5060 -0.4313
vn 0.8915 0.4530 -0.0000
vn 0.7470 0.5060 0.4313
vn 0.7469 0.5060 0.4313
vn -0.7470 -0.5060 0.4313
vn -0.8915 -0.4530 -0.0000
vn -0.7470 -0.5060 -0.4313
vn -0.0000 0.5060 0.8625
vn -0.7470 0.5060 0.4313
vn -0.4458 0.4530 0.7721
vn 0.4458 -0.4530 -0.7721
vn 0.7470 -0.5060 -0.4313
vn -0.0000 -0.5060 -0.8625
vn -0.8915 0.4530 -0.0000
vn -0.7469 0.5061 -0.4313
vn 0.8915 -0.4530 -0.0000
vn 0.4458 0.4529 0.7721
vn -0.4458 -0.4529 -0.7721
vn 0.4458 0.4530 -0.7721
vn -0.4458 -0.4530 0.7721
vn -0.0000 -0.5061 0.8625
vn -0.7470 -0.5060 0.4312
vn -0.7721 0.4530 -0.4457
vn -0.4313 0.5061 -0.7469
vn -0.4312 0.5060 -0.7470
vn 0.4313 -0.5060 0.7469
vn 0.7721 -0.4530 0.4457
vn 0.8625 -0.5061 -0.0000
vn -0.4313 0.5060 0.7469
vn -0.7721 0.4530 0.4457
vn 0.4312 -0.5060 -0.7470
vn 0.7721 -0.4530 -0.4457
vn 0.4313 -0.5061 -0.7469
vn 0.7721 0.4529 -0.4458
vn -0.7721 -0.4529 0.4458
vn -0.0000 0.4530 -0.8915
vn -0.0000 -0.4529 0.8915
vn 0.7721 0.4529 0.4458
vn 0.4313 0.5061 0.7469
vn -0.7721 -0.4529 -0.4458
vt 0.593750 0.025000
vt 0.593750 0.104996
vt 0.593750 0.225000
vt 0.093750 0.475000
vt 0.093750 0.275000
vt 0.093750 0.425000
vt 0.093750 0.348778
vt 0.093750 0.338765
vt 0.093750 0.344099
vt 0.093750 0.375000
vt 0.093750 0.325000
s 0
usemtl colormap.002
f 3/1/1 2/1/1 1/1/1
f 2/1/1 3/1/1 4/1/1
f 4/1/1 3/1/1 5/1/1
f 4/1/1 5/1/1 6/1/1
f 6/1/1 5/1/1 7/1/1
f 6/1/1 7/1/1 8/1/1
f 9/2/2 1/1/3 2/1/4
f 1/1/3 9/2/2 10/2/5
f 11/2/6 1/1/3 10/2/5
f 1/1/3 11/2/7 3/1/8
f 12/2/9 2/1/4 4/1/10
f 2/1/11 12/2/12 9/2/2
f 13/2/13 4/1/14 6/1/15
f 4/1/10 13/2/13 12/2/16
f 7/1/17 14/2/18 8/1/19
f 14/2/18 7/1/17 15/2/20
f 11/2/21 5/1/22 3/1/8
f 5/1/23 11/2/21 16/2/24
f 8/1/19 13/2/25 6/1/15
f 13/2/26 8/1/19 14/2/18
f 7/1/27 16/2/28 15/2/20
f 16/2/29 7/1/27 5/1/23
f 14/2/30 18/3/31 17/3/32
f 18/3/33 14/2/30 15/2/34
f 16/2/35 18/3/36 15/2/37
f 18/3/36 16/2/38 19/3/39
f 21/3/40 9/2/41 20/3/42
f 9/2/41 21/3/40 10/2/43
f 22/3/44 12/2/45 13/2/46
f 12/2/45 22/3/47 23/3/48
f 21/3/49 11/2/50 10/2/43
f 11/2/51 21/3/52 24/3/53
f 13/2/46 17/3/54 22/3/55
f 17/3/56 13/2/57 14/2/30
f 20/3/58 12/2/45 23/3/59
f 12/2/60 20/3/58 9/2/61
f 24/3/62 16/2/38 11/2/51
f 16/2/38 24/3/63 19/3/64
f 27/4/65 26/4/65 25/4/65
f 26/4/65 27/4/65 28/4/65
f 26/4/65 28/4/65 29/4/65
f 29/4/65 28/4/65 30/4/65
f 29/4/65 30/4/65 31/4/65
f 31/4/65 30/4/65 32/4/65
f 35/5/1 34/5/1 33/5/1
f 34/5/1 35/5/1 36/5/1
f 34/5/1 36/5/1 37/5/1
f 37/5/1 36/5/1 38/5/1
f 37/5/1 38/5/1 39/5/1
f 39/5/1 38/5/1 40/5/1
f 27/4/66 33/5/67 34/5/66
f 33/5/68 27/4/69 25/4/70
f 29/4/71 38/5/72 36/5/71
f 38/5/72 29/4/71 31/4/73
f 40/5/74 31/4/75 32/4/76
f 31/4/77 40/5/74 38/5/75
f 28/4/78 34/5/69 37/5/78
f 34/5/79 28/4/78 27/4/79
f 26/4/80 36/5/71 35/5/81
f 36/5/71 26/4/81 29/4/71
f 30/4/82 37/5/78 39/5/83
f 37/5/78 30/4/83 28/4/84
f 26/4/80 33/5/85 25/4/86
f 33/5/67 26/4/87 35/5/87
f 40/5/88 30/4/82 39/5/82
f 30/4/89 40/5/76 32/4/74
f 43/6/90 42/7/91 41/7/90
f 42/7/91 43/6/90 44/6/91
f 47/6/92 46/7/93 45/7/94
f 46/7/93 47/6/92 48/6/93
f 50/6/95 45/7/92 49/7/95
f 45/7/92 50/6/95 47/6/92
f 48/6/93 41/7/90 46/7/93
f 41/7/90 48/6/93 43/6/90
f 52/7/96 44/6/91 51/6/96
f 44/6/91 52/7/96 42/7/91
f 52/7/96 50/6/95 49/7/95
f 50/6/95 52/7/96 51/6/96
f 41/7/1 45/7/1 46/7/1
f 45/7/1 41/7/1 42/7/1
f 45/7/1 42/7/1 49/7/1
f 49/7/1 42/7/1 52/7/1
f 55/6/97 54/8/98 53/8/99
f 54/8/100 55/6/101 56/6/102
f 59/8/103 58/6/104 57/6/105
f 58/6/106 59/8/107 60/8/108
f 63/6/109 62/8/110 61/8/111
f 62/8/110 63/6/109 64/6/112
f 64/6/113 53/8/114 62/8/110
f 53/8/114 64/6/113 55/6/97
f 64/6/115 56/6/116 55/6/117
f 56/6/116 64/6/115 58/6/118
f 58/6/118 64/6/115 63/6/119
f 58/6/118 63/6/119 57/6/120
f 59/8/103 63/6/121 61/8/111
f 63/6/122 59/8/103 57/6/123
f 54/8/1 62/8/1 53/8/1
f 62/8/1 54/8/1 60/8/1
f 62/8/1 60/8/1 61/8/1
f 61/8/1 60/8/1 59/8/1
f 56/6/102 60/8/108 54/8/98
f 60/8/108 56/6/102 58/6/104
f 67/6/124 66/9/125 65/9/124
f 66/9/125 67/6/124 68/6/125
f 70/6/126 65/9/127 69/9/126
f 65/9/124 70/6/126 67/6/124
f 68/6/125 71/9/128 66/9/125
f 71/9/128 68/6/129 72/6/128
f 72/6/128 73/9/130 71/9/128
f 73/9/131 72/6/128 74/6/131
f 71/9/1 65/9/1 66/9/1
f 65/9/1 71/9/1 69/9/1
f 69/9/1 71/9/1 73/9/1
f 69/9/1 73/9/1 75/9/1
f 76/6/132 69/9/126 75/9/132
f 69/9/126 76/6/133 70/6/126
f 73/9/134 76/6/133 75/9/133
f 76/6/133 73/9/134 74/6/134
f 79/10/135 78/10/136 77/11/137
f 78/10/136 79/10/135 41/6/135
f 78/10/136 41/6/135 42/6/136
f 77/11/138 78/10/139 79/10/140
f 41/6/140 79/10/140 78/10/139
f 42/6/139 41/6/140 78/10/139
f 81/11/141 49/6/142 80/10/143
f 49/6/143 81/11/141 52/6/144
f 52/6/144 81/11/145 82/10/144
f 80/10/146 49/6/146 81/11/147
f 52/6/148 81/11/147 49/6/146
f 82/10/148 81/11/149 52/6/148
f 82/10/150 42/6/136 52/6/144
f 42/6/136 82/10/144 83/11/151
f 42/6/136 83/11/151 78/10/136
f 52/6/148 42/6/139 82/10/148
f 83/11/152 82/10/148 42/6/139
f 78/10/139 83/11/152 42/6/153
f 46/6/154 85/11/155 84/10/154
f 85/11/155 46/6/154 41/6/156
f 85/11/155 41/6/157 79/10/157
f 84/10/158 85/11/159 46/6/158
f 41/6/140 46/6/158 85/11/159
f 79/10/140 41/6/160 85/11/159
f 80/10/143 87/10/161 86/11/162
f 87/10/161 80/10/143 49/6/143
f 87/10/161 49/6/143 45/6/161
f 86/11/163 87/10/164 80/10/146
f 49/6/146 80/10/146 87/10/164
f 45/6/164 49/6/146 87/10/164
f 45/6/165 88/11/166 87/10/161
f 88/11/166 45/6/161 46/6/154
f 88/11/166 46/6/154 84/10/154
f 87/10/164 88/11/167 45/6/168
f 46/6/158 45/6/164 88/11/167
f 84/10/158 46/6/158 88/11/167
f 91/10/169 90/10/170 89/11/171
f 90/10/170 91/10/169 75/6/169
f 90/10/170 75/6/169 69/6/170
f 89/11/172 90/10/173 91/10/174
f 75/6/174 91/10/174 90/10/173
f 69/6/173 75/6/174 90/10/173
f 65/6/175 93/11/176 92/10/175
f 93/11/176 65/6/175 66/6/177
f 93/11/176 66/6/178 94/10/177
f 92/10/179 93/11/180 65/6/179
f 66/6/181 65/6/179 93/11/180
f 94/10/181 66/6/181 93/11/180
f 97/10/182 96/10/183 95/11/184
f 96/10/183 97/10/182 71/6/182
f 96/10/183 71/6/182 73/6/183
f 95/11/185 96/10/186 97/10/187
f 71/6/187 97/10/187 96/10/186
f 73/6/186 71/6/187 96/10/186
f 98/11/188 75/6/169 91/10/169
f 75/6/189 98/11/188 73/6/183
f 73/6/183 98/11/188 96/10/183
f 91/10/174 75/6/174 98/11/190
f 73/6/186 98/11/190 75/6/174
f 96/10/186 98/11/190 73/6/186
f 94/10/177 97/10/182 99/11/191
f 97/10/182 94/10/177 66/6/177
f 97/10/182 66/6/177 71/6/182
f 99/11/192 97/10/187 94/10/181
f 66/6/181 94/10/181 97/10/187
f 71/6/187 66/6/181 97/10/187
f 90/10/170 92/10/175 100/11/193
f 92/10/175 90/10/170 69/6/170
f 92/10/175 69/6/170 65/6/175
f 100/11/194 92/10/179 90/10/173
f 69/6/173 90/10/173 92/10/179
f 65/6/179 69/6/195 92/10/196
f 102/11/197 61/6/198 101/10/143
f 61/6/199 102/11/141 59/6/144
f 59/6/144 102/11/141 103/10/144
f 101/10/146 61/6/200 102/11/201
f 59/6/148 102/11/147 61/6/146
f 103/10/148 102/11/147 59/6/202
f 103/10/144 60/6/136 59/6/144
f 60/6/136 103/10/144 104/11/151
f 60/6/203 104/11/204 105/10/136
f 59/6/148 60/6/205 103/10/148
f 104/11/152 103/10/148 60/6/139
f 105/10/153 104/11/206 60/6/207
f 62/6/161 107/11/166 106/10/161
f 107/11/166 62/6/161 53/6/154
f 107/11/208 53/6/154 108/10/154
f 106/10/164 107/11/167 62/6/164
f 53/6/158 62/6/164 107/11/167
f 108/10/158 53/6/158 107/11/209
f 110/10/135 105/10/136 109/11/137
f 105/10/136 110/10/135 54/6/135
f 105/10/136 54/6/135 60/6/136
f 109/11/138 105/10/139 110/10/140
f 54/6/140 110/10/140 105/10/139
f 60/6/139 54/6/140 105/10/139
f 101/10/143 106/10/161 111/11/210
f 106/10/161 101/10/143 61/6/143
f 106/10/161 61/6/143 62/6/161
f 111/11/211 106/10/164 101/10/146
f 61/6/146 101/10/146 106/10/164
f 62/6/164 61/6/146 106/10/164
f 53/6/154 112/11/212 108/10/154
f 112/11/155 53/6/154 54/6/135
f 112/11/155 54/6/213 110/10/135
f 108/10/158 112/11/214 53/6/158
f 54/6/140 53/6/158 112/11/159
f 110/10/140 54/6/140 112/11/159
f 3/1/1 2/1/1 1/1/1
f 2/1/1 3/1/1 4/1/1
f 4/1/1 3/1/1 5/1/1
f 4/1/1 5/1/1 6/1/1
f 6/1/1 5/1/1 7/1/1
f 6/1/1 7/1/1 8/1/1
f 9/2/2 1/1/3 2/1/4
f 1/1/3 9/2/2 10/2/5
f 11/2/6 1/1/3 10/2/5
f 1/1/3 11/2/7 3/1/8
f 12/2/9 2/1/4 4/1/10
f 2/1/11 12/2/12 9/2/2
f 13/2/13 4/1/14 6/1/15
f 4/1/10 13/2/13 12/2/16
f 7/1/17 14/2/18 8/1/19
f 14/2/18 7/1/17 15/2/20
f 11/2/21 5/1/22 3/1/8
f 5/1/23 11/2/21 16/2/24
f 8/1/19 13/2/25 6/1/15
f 13/2/26 8/1/19 14/2/18
f 7/1/27 16/2/28 15/2/20
f 16/2/29 7/1/27 5/1/23
f 14/2/30 18/3/31 17/3/32
f 18/3/33 14/2/30 15/2/34
f 16/2/35 18/3/36 15/2/37
f 18/3/36 16/2/38 19/3/39
f 21/3/40 9/2/41 20/3/42
f 9/2/41 21/3/40 10/2/43
f 22/3/44 12/2/45 13/2/46
f 12/2/45 22/3/47 23/3/48
f 21/3/49 11/2/50 10/2/43
f 11/2/51 21/3/52 24/3/53
f 13/2/46 17/3/54 22/3/55
f 17/3/56 13/2/57 14/2/30
f 20/3/58 12/2/45 23/3/59
f 12/2/60 20/3/58 9/2/61
f 24/3/62 16/2/38 11/2/51
f 16/2/38 24/3/63 19/3/64
f 27/4/65 26/4/65 25/4/65
f 26/4/65 27/4/65 28/4/65
f 26/4/65 28/4/65 29/4/65
f 29/4/65 28/4/65 30/4/65
f 29/4/65 30/4/65 31/4/65
f 31/4/65 30/4/65 32/4/65
f 35/5/1 34/5/1 33/5/1
f 34/5/1 35/5/1 36/5/1
f 34/5/1 36/5/1 37/5/1
f 37/5/1 36/5/1 38/5/1
f 37/5/1 38/5/1 39/5/1
f 39/5/1 38/5/1 40/5/1
f 27/4/66 33/5/67 34/5/66
f 33/5/68 27/4/69 25/4/70
f 29/4/71 38/5/72 36/5/71
f 38/5/72 29/4/71 31/4/73
f 40/5/74 31/4/75 32/4/76
f 31/4/77 40/5/74 38/5/75
f 28/4/78 34/5/69 37/5/78
f 34/5/79 28/4/78 27/4/79
f 26/4/80 36/5/71 35/5/81
f 36/5/71 26/4/81 29/4/71
f 30/4/82 37/5/78 39/5/83
f 37/5/78 30/4/83 28/4/84
f 26/4/80 33/5/85 25/4/86
f 33/5/67 26/4/87 35/5/87
f 40/5/88 30/4/82 39/5/82
f 30/4/89 40/5/76 32/4/74
f 43/6/90 42/7/91 41/7/90
f 42/7/91 43/6/90 44/6/91
f 47/6/92 46/7/93 45/7/94
f 46/7/93 47/6/92 48/6/93
f 50/6/95 45/7/92 49/7/95
f 45/7/92 50/6/95 47/6/92
f 48/6/93 41/7/90 46/7/93
f 41/7/90 48/6/93 43/6/90
f 52/7/96 44/6/91 51/6/96
f 44/6/91 52/7/96 42/7/91
f 52/7/96 50/6/95 49/7/95
f 50/6/95 52/7/96 51/6/96
f 41/7/1 45/7/1 46/7/1
f 45/7/1 41/7/1 42/7/1
f 45/7/1 42/7/1 49/7/1
f 49/7/1 42/7/1 52/7/1
f 55/6/97 54/8/98 53/8/99
f 54/8/100 55/6/101 56/6/102
f 59/8/103 58/6/104 57/6/105
f 58/6/106 59/8/107 60/8/108
f 63/6/109 62/8/110 61/8/111
f 62/8/110 63/6/109 64/6/112
f 64/6/113 53/8/114 62/8/110
f 53/8/114 64/6/113 55/6/97
f 64/6/115 56/6/116 55/6/117
f 56/6/116 64/6/115 58/6/118
f 58/6/118 64/6/115 63/6/119
f 58/6/118 63/6/119 57/6/120
f 59/8/103 63/6/121 61/8/111
f 63/6/122 59/8/103 57/6/123
f 54/8/1 62/8/1 53/8/1
f 62/8/1 54/8/1 60/8/1
f 62/8/1 60/8/1 61/8/1
f 61/8/1 60/8/1 59/8/1
f 56/6/102 60/8/108 54/8/98
f 60/8/108 56/6/102 58/6/104
f 67/6/124 66/9/125 65/9/124
f 66/9/125 67/6/124 68/6/125
f 70/6/126 65/9/127 69/9/126
f 65/9/124 70/6/126 67/6/124
f 68/6/125 71/9/128 66/9/125
f 71/9/128 68/6/129 72/6/128
f 72/6/128 73/9/130 71/9/128
f 73/9/131 72/6/128 74/6/131
f 71/9/1 65/9/1 66/9/1
f 65/9/1 71/9/1 69/9/1
f 69/9/1 71/9/1 73/9/1
f 69/9/1 73/9/1 75/9/1
f 76/6/132 69/9/126 75/9/132
f 69/9/126 76/6/133 70/6/126
f 73/9/134 76/6/133 75/9/133
f 76/6/133 73/9/134 74/6/134
f 79/10/135 78/10/136 77/11/137
f 78/10/136 79/10/135 41/6/135
f 78/10/136 41/6/135 42/6/136
f 77/11/138 78/10/139 79/10/140
f 41/6/140 79/10/140 78/10/139
f 42/6/139 41/6/140 78/10/139
f 81/11/141 49/6/142 80/10/143
f 49/6/143 81/11/141 52/6/144
f 52/6/144 81/11/145 82/10/144
f 80/10/146 49/6/146 81/11/147
f 52/6/148 81/11/147 49/6/146
f 82/10/148 81/11/149 52/6/148
f 82/10/150 42/6/136 52/6/144
f 42/6/136 82/10/144 83/11/151
f 42/6/136 83/11/151 78/10/136
f 52/6/148 42/6/139 82/10/148
f 83/11/152 82/10/148 42/6/139
f 78/10/139 83/11/152 42/6/153
f 46/6/154 85/11/155 84/10/154
f 85/11/155 46/6/154 41/6/156
f 85/11/155 41/6/157 79/10/157
f 84/10/158 85/11/159 46/6/158
f 41/6/140 46/6/158 85/11/159
f 79/10/140 41/6/160 85/11/159
f 80/10/143 87/10/161 86/11/162
f 87/10/161 80/10/143 49/6/143
f 87/10/161 49/6/143 45/6/161
f 86/11/163 87/10/164 80/10/146
f 49/6/146 80/10/146 87/10/164
f 45/6/164 49/6/146 87/10/164
f 45/6/165 88/11/166 87/10/161
f 88/11/166 45/6/161 46/6/154
f 88/11/166 46/6/154 84/10/154
f 87/10/164 88/11/167 45/6/168
f 46/6/158 45/6/164 88/11/167
f 84/10/158 46/6/158 88/11/167
f 91/10/169 90/10/170 89/11/171
f 90/10/170 91/10/169 75/6/169
f 90/10/170 75/6/169 69/6/170
f 89/11/172 90/10/173 91/10/174
f 75/6/174 91/10/174 90/10/173
f 69/6/173 75/6/174 90/10/173
f 65/6/175 93/11/176 92/10/175
f 93/11/176 65/6/175 66/6/177
f 93/11/176 66/6/178 94/10/177
f 92/10/179 93/11/180 65/6/179
f 66/6/181 65/6/179 93/11/180
f 94/10/181 66/6/181 93/11/180
f 97/10/182 96/10/183 95/11/184
f 96/10/183 97/10/182 71/6/182
f 96/10/183 71/6/182 73/6/183
f 95/11/185 96/10/186 97/10/187
f 71/6/187 97/10/187 96/10/186
f 73/6/186 71/6/187 96/10/186
f 98/11/188 75/6/169 91/10/169
f 75/6/189 98/11/188 73/6/183
f 73/6/183 98/11/188 96/10/183
f 91/10/174 75/6/174 98/11/190
f 73/6/186 98/11/190 75/6/174
f 96/10/186 98/11/190 73/6/186
f 94/10/177 97/10/182 99/11/191
f 97/10/182 94/10/177 66/6/177
f 97/10/182 66/6/177 71/6/182
f 99/11/192 97/10/187 94/10/181
f 66/6/181 94/10/181 97/10/187
f 71/6/187 66/6/181 97/10/187
f 90/10/170 92/10/175 100/11/193
f 92/10/175 90/10/170 69/6/170
f 92/10/175 69/6/170 65/6/175
f 100/11/194 92/10/179 90/10/173
f 69/6/173 90/10/173 92/10/179
f 65/6/179 69/6/195 92/10/196
f 102/11/197 61/6/198 101/10/143
f 61/6/199 102/11/141 59/6/144
f 59/6/144 102/11/141 103/10/144
f 101/10/146 61/6/200 102/11/201
f 59/6/148 102/11/147 61/6/146
f 103/10/148 102/11/147 59/6/202
f 103/10/144 60/6/136 59/6/144
f 60/6/136 103/10/144 104/11/151
f 60/6/203 104/11/204 105/10/136
f 59/6/148 60/6/205 103/10/148
f 104/11/152 103/10/148 60/6/139
f 105/10/153 104/11/206 60/6/207
f 62/6/161 107/11/166 106/10/161
f 107/11/166 62/6/161 53/6/154
f 107/11/208 53/6/154 108/10/154
f 106/10/164 107/11/167 62/6/164
f 53/6/158 62/6/164 107/11/167
f 108/10/158 53/6/158 107/11/209
f 110/10/135 105/10/136 109/11/137
f 105/10/136 110/10/135 54/6/135
f 105/10/136 54/6/135 60/6/136
f 109/11/138 105/10/139 110/10/140
f 54/6/140 110/10/140 105/10/139
f 60/6/139 54/6/140 105/10/139
f 101/10/143 106/10/161 111/11/210
f 106/10/161 101/10/143 61/6/143
f 106/10/161 61/6/143 62/6/161
f 111/11/211 106/10/164 101/10/146
f 61/6/146 101/10/146 106/10/164
f 62/6/164 61/6/146 106/10/164
f 53/6/154 112/11/212 108/10/154
f 112/11/155 53/6/154 54/6/135
f 112/11/155 54/6/213 110/10/135
f 108/10/158 112/11/214 53/6/158
f 54/6/140 53/6/158 112/11/159
f 110/10/140 54/6/140 112/11/159
