# Blender 4.1.1
# www.blender.org
mtllib tree.010.mtl
o tree.010
v -18.064489 -4.675250 -5.747241
v -18.064489 -4.675250 -5.939319
v -18.160528 -4.675250 -5.651203
v -18.160528 -4.675250 -6.035357
v -18.352604 -4.675250 -5.651203
v -18.352604 -4.675250 -6.035357
v -18.448645 -4.675250 -5.747241
v -18.448645 -4.675250 -5.939319
v -18.160528 -4.327483 -5.891299
v -18.160528 -4.327483 -5.795260
v -18.208548 -4.327483 -5.747241
v -18.208548 -4.327483 -5.939319
v -18.304586 -4.327483 -5.939319
v -18.352604 -4.327483 -5.891299
v -18.352604 -4.327483 -5.795260
v -18.304586 -4.327483 -5.747241
v -18.376616 -3.805793 -5.903304
v -18.376616 -3.805793 -5.783256
v -18.316591 -3.805793 -5.723232
v -18.136518 -3.805793 -5.903304
v -18.136518 -3.805793 -5.783256
v -18.316591 -3.805793 -5.963328
v -18.196543 -3.805793 -5.963328
v -18.196543 -3.805793 -5.723232
v -18.097824 -4.203316 -5.890224
v -18.126663 -4.203316 -5.820598
v -18.126663 -4.203316 -5.959849
v -18.196289 -4.203316 -5.988689
v -18.196289 -4.203316 -5.791758
v -18.265915 -4.203316 -5.959849
v -18.265915 -4.203316 -5.820598
v -18.294756 -4.203316 -5.890224
v -18.042051 -4.329511 -5.890224
v -18.087227 -4.329511 -5.999286
v -18.087227 -4.329511 -5.781161
v -18.196289 -4.329511 -5.735986
v -18.196289 -4.329511 -6.044462
v -18.305351 -4.329511 -5.781161
v -18.305351 -4.329511 -5.999286
v -18.350529 -4.329511 -5.890224
v -18.026709 -3.805793 -5.429026
v -18.505049 -3.805793 -5.429026
v -18.124767 -3.230796 -5.598868
v -18.406990 -3.230796 -5.598868
v -18.026709 -3.805793 -6.257534
v -17.787540 -3.805793 -5.843280
v -18.124767 -3.230796 -6.087692
v -17.983656 -3.230796 -5.843280
v -18.505049 -3.805793 -6.257534
v -18.406990 -3.230796 -6.087692
v -18.548100 -3.230796 -5.843280
v -18.744219 -3.805793 -5.843280
v -17.990067 -2.613048 -5.843280
v -18.127974 -2.613048 -5.604421
v -18.202484 -1.965096 -5.843280
v -18.234182 -1.965096 -5.788379
v -18.329273 -1.965096 -5.843280
v -18.297577 -1.965096 -5.788379
v -18.541689 -2.613048 -5.843280
v -18.403784 -2.613048 -5.604421
v -18.403784 -2.613048 -6.082139
v -18.127974 -2.613048 -6.082139
v -18.297577 -1.965096 -5.898181
v -18.234182 -1.965096 -5.898181
v -17.929087 -3.230796 -6.037727
v -17.929087 -3.230796 -5.648833
v -18.111557 -2.613048 -5.932378
v -18.111557 -2.613048 -5.754182
v -18.265879 -3.230796 -6.232174
v -18.265879 -2.613048 -6.021476
v -18.265879 -3.230796 -5.454386
v -18.265879 -2.613048 -5.665085
v -18.602671 -3.230796 -5.648833
v -18.420200 -2.613048 -5.754182
v -18.602671 -3.230796 -6.037727
v -18.420200 -2.613048 -5.932378
v -18.265879 -3.985170 -5.337890
v -18.531357 -3.895481 -5.383458
v -18.000399 -3.895481 -5.383458
v -18.531357 -3.895482 -6.303102
v -18.703560 -3.985170 -6.095975
v -18.796835 -3.895481 -5.843280
v -18.703560 -3.985170 -5.590585
v -17.734922 -3.895481 -5.843280
v -17.828197 -3.985170 -5.590585
v -18.265879 -3.985170 -6.348670
v -18.000399 -3.895482 -6.303102
v -17.828197 -3.985170 -6.095975
v -18.471323 -3.376631 -6.199118
v -18.265879 -3.303713 -6.274952
v -18.639719 -3.303713 -6.059116
v -17.892040 -3.303713 -6.059116
v -17.854992 -3.376631 -5.843280
v -17.892040 -3.303713 -5.627444
v -18.471323 -3.376631 -5.487442
v -18.639719 -3.303713 -5.627444
v -18.265879 -3.303713 -5.411608
v -18.676765 -3.376631 -5.843280
v -18.060436 -3.376631 -5.487442
v -18.060436 -3.376631 -6.199118
v -18.418953 -2.664763 -6.108415
v -18.518246 -2.716478 -5.988984
v -18.572029 -2.664763 -5.843280
v -18.518246 -2.716478 -5.697576
v -18.418953 -2.664763 -5.578146
v -18.112803 -2.664763 -6.108415
v -18.013512 -2.716478 -5.988984
v -17.959728 -2.664763 -5.843280
v -18.265879 -2.716478 -5.551871
v -18.112803 -2.664763 -5.578146
v -18.265879 -2.716478 -6.134688
v -18.013512 -2.716478 -5.697576
vn -0.0000 -1.0000 -0.0000
vn 0.8851 0.2942 -0.3607
vn 0.8813 0.2944 0.3698
vn 0.8812 0.2944 -0.3698
vn 0.8812 0.2944 0.3698
vn 0.8851 0.2942 0.3607
vn 0.3607 0.2942 0.8850
vn 0.8850 0.2942 0.3608
vn 0.3607 0.2943 0.8850
vn 0.3698 0.2944 0.8812
vn 0.3608 0.2942 -0.8850
vn 0.3698 0.2944 -0.8812
vn 0.3607 0.2942 -0.8850
vn 0.8850 0.2942 -0.3608
vn -0.3607 0.2942 -0.8851
vn -0.3698 0.2944 -0.8812
vn 0.3607 0.2942 -0.8851
vn -0.8813 0.2944 0.3698
vn -0.8851 0.2942 -0.3607
vn -0.8812 0.2944 -0.3698
vn -0.8851 0.2942 0.3607
vn 0.3607 0.2942 0.8851
vn -0.3698 0.2944 0.8813
vn -0.3698 0.2944 0.8812
vn -0.3607 0.2942 0.8851
vn -0.3607 0.2942 -0.8850
vn -0.3608 0.2942 -0.8850
vn -0.8812 0.2944 0.3698
vn -0.3608 0.2942 0.8850
vn -0.8850 0.2942 0.3607
vn -0.3607 0.2942 0.8850
vn -0.9230 -0.0513 -0.3813
vn -0.9223 -0.0512 0.3829
vn -0.9223 -0.0513 -0.3829
vn -0.9223 -0.0513 0.3829
vn -0.9230 -0.0513 0.3813
vn -0.3814 -0.0512 0.9230
vn -0.9223 -0.0513 0.3830
vn -0.9230 -0.0512 0.3813
vn -0.3814 -0.0513 0.9230
vn -0.3830 -0.0512 0.9223
vn 0.9223 -0.0512 0.3829
vn 0.9230 -0.0513 -0.3813
vn 0.9223 -0.0513 -0.3829
vn 0.9230 -0.0513 0.3813
vn -0.3829 -0.0513 -0.9223
vn 0.3813 -0.0513 -0.9230
vn -0.3813 -0.0513 -0.9230
vn -0.3829 -0.0512 -0.9223
vn 0.3829 -0.0513 -0.9223
vn 0.9223 -0.0513 0.3830
vn 0.3814 -0.0513 0.9230
vn 0.9230 -0.0513 0.3814
vn 0.9223 -0.0512 0.3830
vn 0.3830 -0.0513 0.9223
vn -0.3814 -0.0513 -0.9230
vn -0.9223 -0.0512 -0.3830
vn -0.3830 -0.0513 -0.9223
vn -0.9223 -0.0513 -0.3830
vn 0.9223 -0.0513 -0.3830
vn 0.3830 -0.0512 -0.9223
vn 0.3814 -0.0512 -0.9230
vn 0.9230 -0.0512 -0.3814
vn 0.3829 -0.0513 0.9223
vn -0.3813 -0.0513 0.9230
vn 0.3813 -0.0513 0.9230
vn 0.3829 -0.0512 0.9223
vn -0.3829 -0.0513 0.9223
vn -0.0000 1.0000 -0.0000
vn 0.6468 0.4042 -0.6467
vn 0.9147 0.4042 -0.0000
vn 0.9147 0.4042 -0.0001
vn 0.6468 0.4042 -0.6468
vn 0.9146 0.4043 -0.0001
vn -0.0000 0.4042 0.9147
vn -0.6467 0.4042 0.6468
vn -0.6468 0.4042 0.6468
vn -0.6467 0.4043 0.6468
vn -0.9147 0.4042 -0.0000
vn -0.9146 0.4043 -0.0000
vn -0.0000 0.4042 -0.9147
vn 0.6467 0.4043 -0.6468
vn 0.6468 0.4042 0.6468
vn 0.6467 0.4042 0.6468
vn -0.0000 0.4043 0.9146
vn -0.6468 0.4042 -0.6468
vn -0.6467 0.4042 -0.6468
vn 0.9146 0.4043 -0.0000
vn 0.9147 0.4042 0.0001
vn 0.6468 0.4042 0.6467
vn -0.6468 0.4042 -0.6467
vn 0.4732 0.3228 0.8197
vn -0.4732 0.3228 0.8197
vn 0.4732 0.3228 -0.8197
vn 0.9465 0.3228 -0.0000
vn 0.4732 0.3228 -0.8196
vn -0.4732 0.3228 -0.8197
vn 0.4733 0.3228 0.8197
vn -0.9465 0.3228 -0.0000
vn -0.4732 0.3228 0.8196
vn -0.4733 0.3228 -0.8197
vn 0.6877 0.7260 -0.0000
vn 0.4751 0.3115 0.8229
vn 0.9503 0.3115 -0.0000
vn 0.4752 0.3116 0.8229
vn 0.6877 0.7260 -0.0001
vn 0.3439 0.7260 0.5956
vn -0.9502 0.3115 0.0001
vn -0.3438 0.7260 0.5956
vn -0.6877 0.7260 -0.0000
vn -0.9503 0.3115 -0.0000
vn -0.4752 0.3115 0.8229
vn -0.3439 0.7260 -0.5956
vn 0.4751 0.3115 -0.8229
vn -0.4751 0.3115 -0.8229
vn 0.3439 0.7260 -0.5956
vn 0.3438 0.7260 -0.5956
vn 0.9502 0.3115 -0.0000
vn 0.9502 0.3115 -0.0001
vn 0.3439 0.7259 -0.5956
vn 0.3439 0.7259 0.5956
vn 0.6877 0.7259 -0.0000
vn -0.3439 0.7259 0.5956
vn -0.3439 0.7259 -0.5956
vn -0.6877 0.7259 -0.0000
vn -0.9502 0.3115 -0.0000
vn -0.4752 0.3115 -0.8229
vn -0.3438 0.7260 -0.5956
vn -0.9502 0.3115 -0.0001
vn -0.4751 0.3115 0.8229
vn -0.3439 0.7260 0.5956
vn 0.8197 0.3228 -0.4732
vn 0.8197 0.3228 0.4732
vn -0.0000 0.3228 -0.9465
vn 0.8197 0.3228 -0.4733
vn 0.8196 0.3228 0.4732
vn -0.0000 0.3228 0.9465
vn 0.8197 0.3228 0.4733
vn -0.8196 0.3228 0.4732
vn -0.8197 0.3228 0.4732
vn -0.8197 0.3228 0.4733
vn -0.8196 0.3228 -0.4732
vn -0.8197 0.3228 -0.4732
vn -0.8197 0.3228 -0.4733
vn 0.4313 0.5060 0.7470
vn -0.4313 0.5060 0.7470
vn -0.0000 0.4530 0.8915
vn -0.0000 -0.4530 -0.8915
vn 0.4313 -0.5060 -0.7470
vn -0.4313 -0.5060 -0.7470
vn -0.7721 0.4530 -0.4458
vn -0.4312 0.5060 -0.7470
vn -0.4313 0.5060 -0.7470
vn -0.4313 0.5060 -0.7469
vn -0.8625 0.5060 -0.0000
vn -0.7721 0.4529 -0.4458
vn 0.4313 -0.5060 0.7470
vn 0.7721 -0.4530 0.4458
vn 0.8625 -0.5060 -0.0000
vn 0.7721 -0.4529 0.4458
vn -0.7721 0.4530 0.4458
vn 0.7721 -0.4530 -0.4458
vn 0.4312 -0.5060 -0.7470
vn 0.8625 0.5060 -0.0000
vn 0.7721 0.4530 0.4458
vn 0.4313 0.5061 0.7469
vn 0.4312 0.5060 0.7470
vn -0.8625 -0.5060 -0.0000
vn -0.7721 -0.4530 -0.4458
vn -0.4312 -0.5060 -0.7470
vn 0.4313 0.5060 -0.7470
vn -0.0000 0.4530 -0.8915
vn -0.0000 -0.4530 0.8915
vn -0.4313 -0.5060 0.7470
vn 0.4312 0.5060 -0.7470
vn 0.7721 0.4530 -0.4458
vn -0.4312 -0.5060 0.7470
vn -0.7721 -0.4530 0.4458
vn -0.7470 0.5060 -0.4313
vn -0.0000 0.5060 -0.8625
vn -0.4458 0.4530 -0.7721
vn 0.4458 -0.4530 0.7721
vn -0.0000 -0.5060 0.8625
vn 0.7470 -0.5060 0.4313
vn 0.7470 0.5060 -0.4313
vn 0.8915 0.4530 -0.0000
vn 0.7470 0.5060 0.4313
vn -0.7470 -0.5060 0.4313
vn -0.8915 -0.4530 -0.0000
vn -0.7470 -0.5060 -0.4313
vn -0.0000 0.5060 0.8625
vn -0.7470 0.5060 0.4313
vn -0.4458 0.4530 0.7721
vn 0.4458 -0.4530 -0.7721
vn 0.7470 -0.5060 -0.4313
vn -0.0000 -0.5060 -0.8625
vn -0.8915 0.4530 -0.0000
vn -0.7470 0.5061 -0.4312
vn -0.7470 0.5060 0.4312
vn 0.7470 -0.5060 0.4312
vn 0.8915 -0.4530 -0.0000
vn 0.7470 -0.5060 -0.4312
vn 0.7470 -0.5061 -0.4312
vn 0.4458 0.4530 0.7721
vn -0.4458 -0.4530 -0.7721
vn 0.4458 0.4530 -0.7721
vn -0.4458 -0.4530 0.7721
vn -0.7721 0.4530 -0.4457
vn -0.4313 0.5061 -0.7469
vn 0.4313 -0.5060 0.7469
vn 0.7721 -0.4530 0.4457
vn -0.4313 0.5060 0.7469
vn -0.7721 0.4530 0.4457
vn 0.4313 -0.5060 -0.7469
vn 0.7721 -0.4530 -0.4457
vn 0.4313 0.5061 -0.7469
vn 0.7721 0.4530 -0.4457
vn 0.7721 0.4529 -0.4458
vn -0.4313 -0.5061 0.7469
vn -0.7721 -0.4530 0.4457
vn -0.7721 -0.4529 0.4458
vn 0.7721 0.4529 0.4458
vn 0.7721 0.4530 0.4457
vn 0.4313 0.5060 0.7469
vn -0.7721 -0.4529 -0.4458
vn -0.4313 -0.5060 -0.7469
vn -0.4313 -0.5061 -0.7469
vn -0.7721 -0.4530 -0.4457
vt 0.593750 0.025000
vt 0.593750 0.104996
vt 0.593750 0.225000
vt 0.093750 0.475000
vt 0.093750 0.275000
vt 0.093750 0.425000
vt 0.093750 0.348778
vt 0.093750 0.338765
vt 0.093750 0.344099
vt 0.093750 0.375000
vt 0.093750 0.325000
s 0
usemtl colormap.002
f 3/1/1 2/1/1 1/1/1
f 2/1/1 3/1/1 4/1/1
f 4/1/1 3/1/1 5/1/1
f 4/1/1 5/1/1 6/1/1
f 6/1/1 5/1/1 7/1/1
f 6/1/1 7/1/1 8/1/1
f 9/2/2 1/1/3 2/1/4
f 1/1/5 9/2/2 10/2/6
f 11/2/7 1/1/5 10/2/8
f 1/1/5 11/2/9 3/1/10
f 12/2/11 2/1/4 4/1/12
f 2/1/4 12/2/13 9/2/14
f 13/2/15 4/1/12 6/1/16
f 4/1/12 13/2/15 12/2/17
f 7/1/18 14/2/19 8/1/20
f 14/2/19 7/1/18 15/2/21
f 11/2/22 5/1/23 3/1/10
f 5/1/24 11/2/22 16/2/25
f 8/1/20 13/2/26 6/1/16
f 13/2/27 8/1/20 14/2/19
f 7/1/28 16/2/29 15/2/30
f 16/2/31 7/1/28 5/1/24
f 14/2/32 18/3/33 17/3/34
f 18/3/35 14/2/32 15/2/36
f 16/2/37 18/3/38 15/2/39
f 18/3/38 16/2/40 19/3/41
f 21/3/42 9/2/43 20/3/44
f 9/2/43 21/3/42 10/2/45
f 22/3/46 12/2/47 13/2/48
f 12/2/47 22/3/49 23/3/50
f 21/3/51 11/2/52 10/2/53
f 11/2/52 21/3/54 24/3/55
f 13/2/56 17/3/57 22/3/58
f 17/3/59 13/2/56 14/2/32
f 20/3/60 12/2/47 23/3/61
f 12/2/62 20/3/60 9/2/63
f 24/3/64 16/2/65 11/2/66
f 16/2/65 24/3/67 19/3/68
f 27/4/69 26/4/69 25/4/69
f 26/4/69 27/4/69 28/4/69
f 26/4/69 28/4/69 29/4/69
f 29/4/69 28/4/69 30/4/69
f 29/4/69 30/4/69 31/4/69
f 31/4/69 30/4/69 32/4/69
f 35/5/1 34/5/1 33/5/1
f 34/5/1 35/5/1 36/5/1
f 34/5/1 36/5/1 37/5/1
f 37/5/1 36/5/1 38/5/1
f 37/5/1 38/5/1 39/5/1
f 39/5/1 38/5/1 40/5/1
f 27/4/70 33/5/71 34/5/70
f 33/5/72 27/4/73 25/4/74
f 29/4/75 38/5/76 36/5/75
f 38/5/77 29/4/75 31/4/78
f 40/5/79 31/4/77 32/4/80
f 31/4/77 40/5/79 38/5/77
f 28/4/81 34/5/73 37/5/81
f 34/5/73 28/4/81 27/4/82
f 26/4/83 36/5/75 35/5/84
f 36/5/75 26/4/83 29/4/85
f 30/4/86 37/5/81 39/5/87
f 37/5/81 30/4/87 28/4/81
f 26/4/83 33/5/88 25/4/89
f 33/5/71 26/4/90 35/5/90
f 40/5/79 30/4/91 39/5/86
f 30/4/86 40/5/80 32/4/79
f 43/6/92 42/7/93 41/7/92
f 42/7/93 43/6/92 44/6/93
f 47/6/94 46/7/95 45/7/96
f 46/7/95 47/6/94 48/6/95
f 50/6/97 45/7/94 49/7/97
f 45/7/94 50/6/97 47/6/94
f 48/6/95 41/7/92 46/7/95
f 41/7/98 48/6/95 43/6/98
f 52/7/99 44/6/93 51/6/99
f 44/6/93 52/7/99 42/7/100
f 52/7/99 50/6/101 49/7/97
f 50/6/97 52/7/99 51/6/99
f 41/7/1 45/7/1 46/7/1
f 45/7/1 41/7/1 42/7/1
f 45/7/1 42/7/1 49/7/1
f 49/7/1 42/7/1 52/7/1
f 55/6/102 54/8/103 53/8/104
f 54/8/105 55/6/106 56/6/107
f 59/8/108 58/6/109 57/6/110
f 58/6/109 59/8/111 60/8/112
f 63/6/113 62/8/114 61/8/115
f 62/8/114 63/6/113 64/6/116
f 64/6/117 53/8/118 62/8/114
f 53/8/119 64/6/117 55/6/102
f 64/6/120 56/6/121 55/6/122
f 56/6/121 64/6/120 58/6/123
f 58/6/123 64/6/120 63/6/124
f 58/6/123 63/6/124 57/6/125
f 59/8/126 63/6/113 61/8/127
f 63/6/128 59/8/129 57/6/110
f 54/8/1 62/8/1 53/8/1
f 62/8/1 54/8/1 60/8/1
f 62/8/1 60/8/1 61/8/1
f 61/8/1 60/8/1 59/8/1
f 56/6/107 60/8/130 54/8/103
f 60/8/130 56/6/107 58/6/131
f 67/6/132 66/9/133 65/9/132
f 66/9/133 67/6/132 68/6/133
f 70/6/134 65/9/132 69/9/134
f 65/9/132 70/6/134 67/6/135
f 68/6/136 71/9/137 66/9/133
f 71/9/137 68/6/138 72/6/137
f 72/6/137 73/9/139 71/9/137
f 73/9/140 72/6/137 74/6/141
f 71/9/1 65/9/1 66/9/1
f 65/9/1 71/9/1 69/9/1
f 69/9/1 71/9/1 73/9/1
f 69/9/1 73/9/1 75/9/1
f 76/6/142 69/9/134 75/9/143
f 69/9/134 76/6/144 70/6/134
f 73/9/140 76/6/143 75/9/143
f 76/6/143 73/9/140 74/6/140
f 79/10/145 78/10/146 77/11/147
f 78/10/146 79/10/145 41/6/145
f 78/10/146 41/6/145 42/6/146
f 77/11/148 78/10/149 79/10/150
f 41/6/150 79/10/150 78/10/149
f 42/6/149 41/6/150 78/10/149
f 81/11/151 49/6/152 80/10/153
f 49/6/154 81/11/151 52/6/155
f 52/6/155 81/11/156 82/10/155
f 80/10/157 49/6/157 81/11/158
f 52/6/159 81/11/158 49/6/157
f 82/10/159 81/11/160 52/6/159
f 82/10/155 42/6/146 52/6/155
f 42/6/146 82/10/155 83/11/161
f 42/6/146 83/11/161 78/10/146
f 52/6/159 42/6/149 82/10/159
f 83/11/162 82/10/159 42/6/149
f 78/10/149 83/11/162 42/6/163
f 46/6/164 85/11/165 84/10/164
f 85/11/165 46/6/164 41/6/166
f 85/11/165 41/6/167 79/10/145
f 84/10/168 85/11/169 46/6/168
f 41/6/150 46/6/168 85/11/169
f 79/10/150 41/6/170 85/11/169
f 80/10/153 87/10/171 86/11/172
f 87/10/171 80/10/153 49/6/153
f 87/10/171 49/6/153 45/6/171
f 86/11/173 87/10/174 80/10/157
f 49/6/157 80/10/157 87/10/174
f 45/6/174 49/6/157 87/10/174
f 45/6/175 88/11/176 87/10/171
f 88/11/176 45/6/171 46/6/164
f 88/11/176 46/6/164 84/10/164
f 87/10/177 88/11/178 45/6/177
f 46/6/168 45/6/174 88/11/178
f 84/10/168 46/6/168 88/11/178
f 91/10/179 90/10/180 89/11/181
f 90/10/180 91/10/179 75/6/179
f 90/10/180 75/6/179 69/6/180
f 89/11/182 90/10/183 91/10/184
f 75/6/184 91/10/184 90/10/183
f 69/6/183 75/6/184 90/10/183
f 65/6/185 93/11/186 92/10/185
f 93/11/186 65/6/185 66/6/187
f 93/11/186 66/6/187 94/10/187
f 92/10/188 93/11/189 65/6/188
f 66/6/190 65/6/188 93/11/189
f 94/10/190 66/6/190 93/11/189
f 97/10/191 96/10/192 95/11/193
f 96/10/192 97/10/191 71/6/191
f 96/10/192 71/6/191 73/6/192
f 95/11/194 96/10/195 97/10/196
f 71/6/196 97/10/196 96/10/195
f 73/6/195 71/6/196 96/10/195
f 98/11/197 75/6/198 91/10/179
f 75/6/179 98/11/197 73/6/192
f 73/6/199 98/11/197 96/10/192
f 91/10/200 75/6/200 98/11/201
f 73/6/195 98/11/201 75/6/184
f 96/10/202 98/11/201 73/6/203
f 94/10/187 97/10/191 99/11/204
f 97/10/191 94/10/187 66/6/187
f 97/10/191 66/6/187 71/6/191
f 99/11/205 97/10/196 94/10/190
f 66/6/190 94/10/190 97/10/196
f 71/6/196 66/6/190 97/10/196
f 90/10/180 92/10/185 100/11/206
f 92/10/185 90/10/180 69/6/180
f 92/10/185 69/6/180 65/6/185
f 100/11/207 92/10/188 90/10/183
f 69/6/183 90/10/183 92/10/188
f 65/6/188 69/6/183 92/10/188
f 102/11/208 61/6/209 101/10/154
f 61/6/152 102/11/151 59/6/155
f 59/6/155 102/11/151 103/10/155
f 101/10/157 61/6/210 102/11/211
f 59/6/159 102/11/158 61/6/157
f 103/10/159 102/11/158 59/6/159
f 103/10/155 60/6/146 59/6/155
f 60/6/146 103/10/155 104/11/161
f 60/6/212 104/11/213 105/10/146
f 59/6/159 60/6/214 103/10/159
f 104/11/162 103/10/159 60/6/149
f 105/10/149 104/11/215 60/6/214
f 62/6/216 107/11/217 106/10/171
f 107/11/176 62/6/171 53/6/164
f 107/11/218 53/6/164 108/10/164
f 106/10/219 107/11/220 62/6/219
f 53/6/168 62/6/174 107/11/178
f 108/10/168 53/6/168 107/11/221
f 110/10/145 105/10/146 109/11/147
f 105/10/146 110/10/145 54/6/145
f 105/10/146 54/6/145 60/6/146
f 109/11/148 105/10/149 110/10/150
f 54/6/150 110/10/150 105/10/149
f 60/6/149 54/6/150 105/10/149
f 101/10/153 106/10/171 111/11/172
f 106/10/171 101/10/153 61/6/153
f 106/10/171 61/6/153 62/6/171
f 111/11/173 106/10/174 101/10/157
f 61/6/157 101/10/157 106/10/174
f 62/6/174 61/6/157 106/10/174
f 53/6/164 112/11/222 108/10/164
f 112/11/165 53/6/164 54/6/167
f 112/11/223 54/6/166 110/10/224
f 108/10/168 112/11/225 53/6/168
f 54/6/150 53/6/168 112/11/169
f 110/10/226 54/6/227 112/11/228
f 3/1/1 2/1/1 1/1/1
f 2/1/1 3/1/1 4/1/1
f 4/1/1 3/1/1 5/1/1
f 4/1/1 5/1/1 6/1/1
f 6/1/1 5/1/1 7/1/1
f 6/1/1 7/1/1 8/1/1
f 9/2/2 1/1/3 2/1/4
f 1/1/5 9/2/2 10/2/6
f 11/2/7 1/1/5 10/2/8
f 1/1/5 11/2/9 3/1/10
f 12/2/11 2/1/4 4/1/12
f 2/1/4 12/2/13 9/2/14
f 13/2/15 4/1/12 6/1/16
f 4/1/12 13/2/15 12/2/17
f 7/1/18 14/2/19 8/1/20
f 14/2/19 7/1/18 15/2/21
f 11/2/22 5/1/23 3/1/10
f 5/1/24 11/2/22 16/2/25
f 8/1/20 13/2/26 6/1/16
f 13/2/27 8/1/20 14/2/19
f 7/1/28 16/2/29 15/2/30
f 16/2/31 7/1/28 5/1/24
f 14/2/32 18/3/33 17/3/34
f 18/3/35 14/2/32 15/2/36
f 16/2/37 18/3/38 15/2/39
f 18/3/38 16/2/40 19/3/41
f 21/3/42 9/2/43 20/3/44
f 9/2/43 21/3/42 10/2/45
f 22/3/46 12/2/47 13/2/48
f 12/2/47 22/3/49 23/3/50
f 21/3/51 11/2/52 10/2/53
f 11/2/52 21/3/54 24/3/55
f 13/2/56 17/3/57 22/3/58
f 17/3/59 13/2/56 14/2/32
f 20/3/60 12/2/47 23/3/61
f 12/2/62 20/3/60 9/2/63
f 24/3/64 16/2/65 11/2/66
f 16/2/65 24/3/67 19/3/68
f 27/4/69 26/4/69 25/4/69
f 26/4/69 27/4/69 28/4/69
f 26/4/69 28/4/69 29/4/69
f 29/4/69 28/4/69 30/4/69
f 29/4/69 30/4/69 31/4/69
f 31/4/69 30/4/69 32/4/69
f 35/5/1 34/5/1 33/5/1
f 34/5/1 35/5/1 36/5/1
f 34/5/1 36/5/1 37/5/1
f 37/5/1 36/5/1 38/5/1
f 37/5/1 38/5/1 39/5/1
f 39/5/1 38/5/1 40/5/1
f 27/4/70 33/5/71 34/5/70
f 33/5/72 27/4/73 25/4/74
f 29/4/75 38/5/76 36/5/75
f 38/5/77 29/4/75 31/4/78
f 40/5/79 31/4/77 32/4/80
f 31/4/77 40/5/79 38/5/77
f 28/4/81 34/5/73 37/5/81
f 34/5/73 28/4/81 27/4/82
f 26/4/83 36/5/75 35/5/84
f 36/5/75 26/4/83 29/4/85
f 30/4/86 37/5/81 39/5/87
f 37/5/81 30/4/87 28/4/81
f 26/4/83 33/5/88 25/4/89
f 33/5/71 26/4/90 35/5/90
f 40/5/79 30/4/91 39/5/86
f 30/4/86 40/5/80 32/4/79
f 43/6/92 42/7/93 41/7/92
f 42/7/93 43/6/92 44/6/93
f 47/6/94 46/7/95 45/7/96
f 46/7/95 47/6/94 48/6/95
f 50/6/97 45/7/94 49/7/97
f 45/7/94 50/6/97 47/6/94
f 48/6/95 41/7/92 46/7/95
f 41/7/98 48/6/95 43/6/98
f 52/7/99 44/6/93 51/6/99
f 44/6/93 52/7/99 42/7/100
f 52/7/99 50/6/101 49/7/97
f 50/6/97 52/7/99 51/6/99
f 41/7/1 45/7/1 46/7/1
f 45/7/1 41/7/1 42/7/1
f 45/7/1 42/7/1 49/7/1
f 49/7/1 42/7/1 52/7/1
f 55/6/102 54/8/103 53/8/104
f 54/8/105 55/6/106 56/6/107
f 59/8/108 58/6/109 57/6/110
f 58/6/109 59/8/111 60/8/112
f 63/6/113 62/8/114 61/8/115
f 62/8/114 63/6/113 64/6/116
f 64/6/117 53/8/118 62/8/114
f 53/8/119 64/6/117 55/6/102
f 64/6/120 56/6/121 55/6/122
f 56/6/121 64/6/120 58/6/123
f 58/6/123 64/6/120 63/6/124
f 58/6/123 63/6/124 57/6/125
f 59/8/126 63/6/113 61/8/127
f 63/6/128 59/8/129 57/6/110
f 54/8/1 62/8/1 53/8/1
f 62/8/1 54/8/1 60/8/1
f 62/8/1 60/8/1 61/8/1
f 61/8/1 60/8/1 59/8/1
f 56/6/107 60/8/130 54/8/103
f 60/8/130 56/6/107 58/6/131
f 67/6/132 66/9/133 65/9/132
f 66/9/133 67/6/132 68/6/133
f 70/6/134 65/9/132 69/9/134
f 65/9/132 70/6/134 67/6/135
f 68/6/136 71/9/137 66/9/133
f 71/9/137 68/6/138 72/6/137
f 72/6/137 73/9/139 71/9/137
f 73/9/140 72/6/137 74/6/141
f 71/9/1 65/9/1 66/9/1
f 65/9/1 71/9/1 69/9/1
f 69/9/1 71/9/1 73/9/1
f 69/9/1 73/9/1 75/9/1
f 76/6/142 69/9/134 75/9/143
f 69/9/134 76/6/144 70/6/134
f 73/9/140 76/6/143 75/9/143
f 76/6/143 73/9/140 74/6/140
f 79/10/145 78/10/146 77/11/147
f 78/10/146 79/10/145 41/6/145
f 78/10/146 41/6/145 42/6/146
f 77/11/148 78/10/149 79/10/150
f 41/6/150 79/10/150 78/10/149
f 42/6/149 41/6/150 78/10/149
f 81/11/151 49/6/152 80/10/153
f 49/6/154 81/11/151 52/6/155
f 52/6/155 81/11/156 82/10/155
f 80/10/157 49/6/157 81/11/158
f 52/6/159 81/11/158 49/6/157
f 82/10/159 81/11/160 52/6/159
f 82/10/155 42/6/146 52/6/155
f 42/6/146 82/10/155 83/11/161
f 42/6/146 83/11/161 78/10/146
f 52/6/159 42/6/149 82/10/159
f 83/11/162 82/10/159 42/6/149
f 78/10/149 83/11/162 42/6/163
f 46/6/164 85/11/165 84/10/164
f 85/11/165 46/6/164 41/6/166
f 85/11/165 41/6/167 79/10/145
f 84/10/168 85/11/169 46/6/168
f 41/6/150 46/6/168 85/11/169
f 79/10/150 41/6/170 85/11/169
f 80/10/153 87/10/171 86/11/172
f 87/10/171 80/10/153 49/6/153
f 87/10/171 49/6/153 45/6/171
f 86/11/173 87/10/174 80/10/157
f 49/6/157 80/10/157 87/10/174
f 45/6/174 49/6/157 87/10/174
f 45/6/175 88/11/176 87/10/171
f 88/11/176 45/6/171 46/6/164
f 88/11/176 46/6/164 84/10/164
f 87/10/177 88/11/178 45/6/177
f 46/6/168 45/6/174 88/11/178
f 84/10/168 46/6/168 88/11/178
f 91/10/179 90/10/180 89/11/181
f 90/10/180 91/10/179 75/6/179
f 90/10/180 75/6/179 69/6/180
f 89/11/182 90/10/183 91/10/184
f 75/6/184 91/10/184 90/10/183
f 69/6/183 75/6/184 90/10/183
f 65/6/185 93/11/186 92/10/185
f 93/11/186 65/6/185 66/6/187
f 93/11/186 66/6/187 94/10/187
f 92/10/188 93/11/189 65/6/188
f 66/6/190 65/6/188 93/11/189
f 94/10/190 66/6/190 93/11/189
f 97/10/191 96/10/192 95/11/193
f 96/10/192 97/10/191 71/6/191
f 96/10/192 71/6/191 73/6/192
f 95/11/194 96/10/195 97/10/196
f 71/6/196 97/10/196 96/10/195
f 73/6/195 71/6/196 96/10/195
f 98/11/197 75/6/198 91/10/179
f 75/6/179 98/11/197 73/6/192
f 73/6/199 98/11/197 96/10/192
f 91/10/200 75/6/200 98/11/201
f 73/6/195 98/11/201 75/6/184
f 96/10/202 98/11/201 73/6/203
f 94/10/187 97/10/191 99/11/204
f 97/10/191 94/10/187 66/6/187
f 97/10/191 66/6/187 71/6/191
f 99/11/205 97/10/196 94/10/190
f 66/6/190 94/10/190 97/10/196
f 71/6/196 66/6/190 97/10/196
f 90/10/180 92/10/185 100/11/206
f 92/10/185 90/10/180 69/6/180
f 92/10/185 69/6/180 65/6/185
f 100/11/207 92/10/188 90/10/183
f 69/6/183 90/10/183 92/10/188
f 65/6/188 69/6/183 92/10/188
f 102/11/208 61/6/209 101/10/154
f 61/6/152 102/11/151 59/6/155
f 59/6/155 102/11/151 103/10/155
f 101/10/157 61/6/210 102/11/211
f 59/6/159 102/11/158 61/6/157
f 103/10/159 102/11/158 59/6/159
f 103/10/155 60/6/146 59/6/155
f 60/6/146 103/10/155 104/11/161
f 60/6/212 104/11/213 105/10/146
f 59/6/159 60/6/214 103/10/159
f 104/11/162 103/10/159 60/6/149
f 105/10/149 104/11/215 60/6/214
f 62/6/216 107/11/217 106/10/171
f 107/11/176 62/6/171 53/6/164
f 107/11/218 53/6/164 108/10/164
f 106/10/219 107/11/220 62/6/219
f 53/6/168 62/6/174 107/11/178
f 108/10/168 53/6/168 107/11/221
f 110/10/145 105/10/146 109/11/147
f 105/10/146 110/10/145 54/6/145
f 105/10/146 54/6/145 60/6/146
f 109/11/148 105/10/149 110/10/150
f 54/6/150 110/10/150 105/10/149
f 60/6/149 54/6/150 105/10/149
f 101/10/153 106/10/171 111/11/172
f 106/10/171 101/10/153 61/6/153
f 106/10/171 61/6/153 62/6/171
f 111/11/173 106/10/174 101/10/157
f 61/6/157 101/10/157 106/10/174
f 62/6/174 61/6/157 106/10/174
f 53/6/164 112/11/222 108/10/164
f 112/11/165 53/6/164 54/6/167
f 112/11/223 54/6/166 110/10/224
f 108/10/168 112/11/225 53/6/168
f 54/6/150 53/6/168 112/11/169
f 110/10/226 54/6/227 112/11/228
