# Blender 4.1.1
# www.blender.org
mtllib iron-fence-border-column.006.mtl
o iron-fence-border-column.006
v 13.063783 1.334315 -0.948288
v 13.063783 1.424660 -0.948288
v 13.063783 1.334315 -1.128978
v 13.063783 1.424660 -1.128978
v 12.883095 1.424660 -0.948288
v 12.883095 1.334315 -0.948288
v 12.883095 1.424660 -1.128978
v 12.883095 1.334315 -1.128978
v 13.063783 -0.064042 -1.128978
v 13.063783 0.134716 -1.128978
v 12.883095 -0.064042 -1.128978
v 12.883095 0.134716 -1.128978
v 13.047522 1.298177 -0.964550
v 13.047522 1.298177 -1.112715
v 13.047522 0.170854 -0.964550
v 13.047522 0.170854 -1.112716
v 12.883095 -0.064042 -0.948288
v 12.883095 0.134716 -0.948288
v 13.063783 0.134716 -0.948288
v 12.899356 0.170854 -0.964550
v 12.899356 1.298177 -0.964550
v 13.063783 -0.064042 -0.948288
v 12.899356 1.298177 -1.112715
v 12.899356 0.170854 -1.112715
v 13.262542 1.298177 -0.997978
v 13.221888 1.424660 -1.038633
v 13.262542 1.298177 -1.079288
v 13.181231 1.298177 -0.997978
v 13.181231 1.298177 -1.079288
v 13.248990 1.225901 -1.011529
v 13.248990 1.225901 -1.065736
v 13.194784 1.225901 -1.011529
v 13.194784 1.225901 -1.065736
v 13.714266 1.298177 -0.997978
v 13.673612 1.424660 -1.038633
v 13.714266 1.298177 -1.079288
v 13.632956 1.298177 -0.997978
v 13.632956 1.298177 -1.079288
v 13.700715 1.225901 -1.011529
v 13.700715 1.225901 -1.065736
v 13.646507 1.225901 -1.011529
v 13.646507 1.225901 -1.065736
v 14.617715 1.298177 -0.997978
v 14.577059 1.424660 -1.038633
v 14.617715 1.298177 -1.079288
v 14.536404 1.298177 -0.997978
v 14.536404 1.298177 -1.079288
v 14.604163 1.225901 -1.011530
v 14.604163 1.225901 -1.065736
v 14.549955 1.225901 -1.011530
v 14.549955 1.225901 -1.065736
v 13.488404 1.298177 -0.997978
v 13.447749 1.424660 -1.038633
v 13.488404 1.298177 -1.079288
v 13.407095 1.298177 -0.997978
v 13.407095 1.298177 -1.079288
v 13.474853 1.225901 -1.011529
v 13.474853 1.225901 -1.065736
v 13.420645 1.225901 -1.011529
v 13.420645 1.225901 -1.065736
v 14.165991 1.298177 -0.997978
v 14.125336 1.424660 -1.038633
v 14.165991 1.298177 -1.079288
v 14.084680 1.298177 -0.997978
v 14.084680 1.298177 -1.079288
v 14.152439 1.225901 -1.011530
v 14.152439 1.225901 -1.065736
v 14.098231 1.225901 -1.011529
v 14.098231 1.225901 -1.065736
v 13.940128 1.298177 -0.997978
v 13.899472 1.424660 -1.038633
v 13.940128 1.298177 -1.079288
v 13.858818 1.298177 -0.997978
v 13.858818 1.298177 -1.079288
v 13.926577 1.225901 -1.011529
v 13.926577 1.225901 -1.065736
v 13.872371 1.225901 -1.011529
v 13.872371 1.225901 -1.065736
v 14.391852 1.298177 -0.997978
v 14.351198 1.424660 -1.038633
v 14.391852 1.298177 -1.079288
v 14.310542 1.298177 -0.997978
v 14.310542 1.298177 -1.079288
v 14.378301 1.225901 -1.011530
v 14.378301 1.225901 -1.065736
v 14.324094 1.225901 -1.011530
v 14.324094 1.225901 -1.065736
v 13.063783 0.098578 -0.960936
v 13.063783 0.098578 -1.116329
v 14.689990 0.098578 -0.960937
v 14.689990 0.098578 -1.116330
v 13.063783 0.062440 -1.128978
v 14.689990 0.062440 -1.128978
v 14.689990 -0.064042 -0.948288
v 13.063783 -0.064042 -0.948288
v 14.689990 0.062440 -0.948288
v 13.063783 0.062440 -0.948288
v 13.063783 -0.064042 -1.128978
v 14.689990 -0.064042 -1.128978
v 13.194784 0.098578 -1.065736
v 13.248990 0.098578 -1.065736
v 13.194784 0.098578 -1.011529
v 13.248990 0.098578 -1.011529
v 13.646507 0.098578 -1.065736
v 13.700715 0.098578 -1.065736
v 13.646507 0.098578 -1.011530
v 13.700715 0.098578 -1.011530
v 14.549955 0.098578 -1.065737
v 14.604163 0.098578 -1.065737
v 14.549955 0.098578 -1.011530
v 14.604163 0.098578 -1.011530
v 13.420645 0.098578 -1.065736
v 13.474853 0.098578 -1.065736
v 13.420645 0.098578 -1.011529
v 13.474853 0.098578 -1.011529
v 14.098231 0.098578 -1.065736
v 14.152439 0.098578 -1.065736
v 14.098231 0.098578 -1.011530
v 14.152439 0.098578 -1.011530
v 13.872371 0.098578 -1.065736
v 13.926577 0.098578 -1.065736
v 13.872371 0.098578 -1.011530
v 13.926577 0.098578 -1.011530
v 14.324094 0.098578 -1.065737
v 14.378301 0.098578 -1.065737
v 14.324094 0.098578 -1.011530
v 14.378301 0.098578 -1.011530
v 13.047522 1.063280 -1.025081
v 13.047522 1.009073 -1.025081
v 13.047522 1.063280 -1.052185
v 13.047522 1.009073 -1.052185
v 14.689990 1.009073 -1.025081
v 14.689990 1.063280 -1.025081
v 14.689990 1.009073 -1.052185
v 14.689990 1.063280 -1.052185
v 14.689990 0.315406 -1.025081
v 14.689990 0.369613 -1.025081
v 14.689990 0.315406 -1.052185
v 14.689990 0.369613 -1.052185
v 13.047522 0.369613 -1.025081
v 13.047522 0.315406 -1.025081
v 13.047522 0.369613 -1.052185
v 13.047522 0.315406 -1.052185
vn 0.9837 -0.1800 -0.0000
vn 1.0000 -0.0000 -0.0000
vn -1.0000 -0.0000 -0.0000
vn -0.9837 -0.1800 -0.0000
vn -0.0000 -0.0000 -1.0000
vn -0.0000 0.1800 -0.9837
vn 0.9119 -0.4103 -0.0000
vn 0.9836 -0.1801 -0.0000
vn 0.9837 -0.1801 -0.0000
vn -0.9837 0.1800 -0.0000
vn 0.9836 0.1801 -0.0000
vn 0.9119 0.4103 -0.0000
vn -0.0000 -0.0000 1.0000
vn -0.0000 0.1800 0.9837
vn -0.0000 -0.1801 -0.9836
vn -0.0000 -0.4104 -0.9119
vn -0.0000 0.4104 0.9119
vn -0.0000 0.1801 0.9836
vn -0.9837 -0.1801 -0.0000
vn -0.9119 -0.4103 -0.0000
vn -0.9119 0.4103 -0.0000
vn -0.9837 0.1801 -0.0000
vn -0.0000 -0.1801 0.9836
vn -0.0000 -0.4104 0.9119
vn -0.0000 -0.1800 -0.9837
vn -0.0000 -0.1800 0.9837
vn -0.0000 0.4104 -0.9119
vn -0.0000 0.1801 -0.9836
vn -0.0000 1.0000 -0.0000
vn -0.0000 -1.0000 -0.0000
vn 0.9837 0.1800 -0.0000
vn 0.9987 0.0519 -0.0000
vn 0.9520 0.3060 -0.0000
vn -0.0000 0.3060 0.9520
vn -0.0000 0.0519 0.9987
vn -0.9987 0.0519 -0.0000
vn -0.9520 0.3060 -0.0000
vn -0.0000 0.3060 -0.9520
vn -0.0000 0.0519 -0.9987
vn 0.9829 -0.1843 -0.0000
vn 0.9987 0.0518 -0.0000
vn -0.9987 0.0518 -0.0000
vn -0.9829 -0.1843 -0.0000
vn -0.0000 0.0518 0.9987
vn -0.0000 -0.1843 0.9829
vn -0.0000 0.0518 -0.9987
vn -0.0000 -0.1843 -0.9829
vn -0.0000 0.3303 -0.9439
vn -0.0000 0.1676 -0.9859
vn -0.0000 0.3304 -0.9439
vn -0.0000 0.1675 0.9859
vn -1.0000 -0.0000 0.0003
vn -1.0000 -0.0000 -0.0001
vn -0.0000 0.1675 -0.9859
vn -0.0000 0.3303 0.9439
vn -0.0000 0.1676 0.9859
vn 1.0000 -0.0000 -0.0001
vt 0.843750 0.212863
vt 0.843750 0.225000
vt 0.843750 0.025000
vt 0.843750 0.051702
vt 0.843750 0.208008
vt 0.843750 0.056557
vt 0.843750 0.198298
vt 0.843750 0.180556
vt 0.593750 0.448298
vt 0.593750 0.296847
vt 0.531250 0.375000
s 0
usemtl colormap.001
f 3/1/1 2/2/2 1/1/1
f 2/2/2 3/1/1 4/2/2
f 7/2/3 6/1/4 5/2/3
f 6/1/4 7/2/3 8/1/4
f 11/3/5 10/4/6 9/3/5
f 10/4/6 11/3/5 12/4/6
f 13/5/7 3/1/8 1/1/8
f 3/1/9 13/5/7 14/5/7
f 16/6/2 13/5/2 15/6/2
f 13/5/2 16/6/2 14/5/2
f 18/4/10 11/3/3 17/3/3
f 11/3/3 18/4/10 12/4/10
f 10/4/11 15/6/12 19/4/11
f 15/6/12 10/4/11 16/6/12
f 13/5/13 20/6/13 15/6/13
f 20/6/13 13/5/13 21/5/13
f 19/4/14 17/3/13 22/3/13
f 17/3/13 19/4/14 18/4/14
f 8/1/15 14/5/16 23/5/16
f 14/5/16 8/1/15 3/1/15
f 15/6/17 18/4/18 19/4/18
f 18/4/18 15/6/17 20/6/17
f 8/1/19 21/5/20 6/1/19
f 21/5/20 8/1/19 23/5/20
f 20/6/21 12/4/22 18/4/22
f 12/4/22 20/6/21 24/6/21
f 23/5/5 16/6/5 24/6/5
f 16/6/5 23/5/5 14/5/5
f 23/5/3 20/6/3 21/5/3
f 20/6/3 23/5/3 24/6/3
f 1/1/23 21/5/24 13/5/24
f 21/5/24 1/1/23 6/1/23
f 7/2/5 3/1/25 8/1/25
f 3/1/25 7/2/5 4/2/5
f 2/2/13 6/1/26 1/1/26
f 6/1/26 2/2/13 5/2/13
f 24/6/27 10/4/28 12/4/28
f 10/4/28 24/6/27 16/6/27
f 2/2/29 7/2/29 5/2/29
f 7/2/29 2/2/29 4/2/29
f 9/3/30 17/3/30 11/3/30
f 17/3/30 9/3/30 22/3/30
f 9/3/2 19/4/31 22/3/2
f 19/4/31 9/3/2 10/4/31
f 27/5/32 26/2/33 25/5/32
f 26/2/34 28/5/35 25/5/35
f 29/5/36 28/5/36 26/2/37
f 26/2/38 27/5/39 29/5/39
f 30/7/40 27/5/41 25/5/41
f 27/5/41 30/7/40 31/7/40
f 29/5/42 32/7/43 28/5/42
f 32/7/43 29/5/42 33/7/43
f 25/5/44 32/7/45 30/7/45
f 32/7/45 25/5/44 28/5/44
f 29/5/46 31/7/47 33/7/47
f 31/7/47 29/5/46 27/5/46
f 36/5/32 35/2/33 34/5/32
f 35/2/34 37/5/35 34/5/35
f 38/5/36 37/5/36 35/2/37
f 35/2/38 36/5/39 38/5/39
f 39/7/40 36/5/41 34/5/41
f 36/5/41 39/7/40 40/7/40
f 38/5/42 41/7/43 37/5/42
f 41/7/43 38/5/42 42/7/43
f 34/5/44 41/7/45 39/7/45
f 41/7/45 34/5/44 37/5/44
f 38/5/46 40/7/47 42/7/47
f 40/7/47 38/5/46 36/5/46
f 45/5/32 44/2/33 43/5/32
f 44/2/34 46/5/35 43/5/35
f 47/5/36 46/5/36 44/2/37
f 44/2/38 45/5/39 47/5/39
f 48/7/40 45/5/41 43/5/41
f 45/5/41 48/7/40 49/7/40
f 47/5/42 50/7/43 46/5/42
f 50/7/43 47/5/42 51/7/43
f 43/5/44 50/7/45 48/7/45
f 50/7/45 43/5/44 46/5/44
f 47/5/46 49/7/47 51/7/47
f 49/7/47 47/5/46 45/5/46
f 54/5/32 53/2/33 52/5/32
f 53/2/34 55/5/35 52/5/35
f 56/5/36 55/5/36 53/2/37
f 53/2/38 54/5/39 56/5/39
f 57/7/40 54/5/41 52/5/41
f 54/5/41 57/7/40 58/7/40
f 56/5/36 59/7/43 55/5/36
f 59/7/43 56/5/36 60/7/43
f 52/5/44 59/7/45 57/7/45
f 59/7/45 52/5/44 55/5/44
f 56/5/46 58/7/47 60/7/47
f 58/7/47 56/5/46 54/5/46
f 63/5/32 62/2/33 61/5/32
f 62/2/34 64/5/35 61/5/35
f 65/5/36 64/5/36 62/2/37
f 62/2/38 63/5/39 65/5/39
f 66/7/40 63/5/41 61/5/41
f 63/5/41 66/7/40 67/7/40
f 65/5/42 68/7/43 64/5/42
f 68/7/43 65/5/42 69/7/43
f 61/5/44 68/7/45 66/7/45
f 68/7/45 61/5/44 64/5/44
f 65/5/46 67/7/47 69/7/47
f 67/7/47 65/5/46 63/5/46
f 72/5/32 71/2/33 70/5/32
f 71/2/34 73/5/35 70/5/35
f 74/5/36 73/5/36 71/2/37
f 71/2/38 72/5/39 74/5/39
f 75/7/40 72/5/41 70/5/41
f 72/5/41 75/7/40 76/7/40
f 74/5/42 77/7/43 73/5/42
f 77/7/43 74/5/42 78/7/43
f 70/5/44 77/7/45 75/7/45
f 77/7/45 70/5/44 73/5/44
f 74/5/46 76/7/47 78/7/47
f 76/7/47 74/5/46 72/5/46
f 81/5/32 80/2/33 79/5/32
f 80/2/34 82/5/35 79/5/35
f 83/5/36 82/5/36 80/2/37
f 80/2/38 81/5/39 83/5/39
f 84/7/40 81/5/41 79/5/41
f 81/5/41 84/7/40 85/7/40
f 83/5/42 86/7/43 82/5/42
f 86/7/43 83/5/42 87/7/43
f 79/5/44 86/7/45 84/7/45
f 86/7/45 79/5/44 82/5/44
f 83/5/46 85/7/47 87/7/47
f 85/7/47 83/5/46 81/5/46
f 90/2/29 89/2/29 88/2/29
f 89/2/29 90/2/29 91/2/29
f 89/2/48 93/8/49 92/8/49
f 93/8/49 89/2/50 91/2/50
f 96/8/51 95/3/13 94/3/13
f 95/3/13 96/8/51 97/8/51
f 99/3/30 95/3/30 98/3/30
f 95/3/30 99/3/30 94/3/30
f 88/2/52 95/3/52 97/8/52
f 95/3/3 88/2/3 98/3/3
f 98/3/3 88/2/3 89/2/3
f 98/3/53 89/2/53 92/8/53
f 92/8/54 99/3/5 98/3/5
f 99/3/5 92/8/54 93/8/54
f 90/2/55 97/8/56 96/8/56
f 97/8/56 90/2/55 88/2/55
f 99/3/2 96/8/2 94/3/2
f 96/8/2 99/3/2 90/2/2
f 90/2/2 99/3/2 91/2/2
f 91/2/57 99/3/57 93/8/57
f 33/9/5 101/10/5 100/10/5
f 101/10/5 33/9/5 31/9/5
f 101/10/30 102/10/30 100/10/30
f 102/10/30 101/10/30 103/10/30
f 30/9/13 102/10/13 103/10/13
f 102/10/13 30/9/13 32/9/13
f 101/10/2 30/9/2 103/10/2
f 30/9/2 101/10/2 31/9/2
f 33/9/3 102/10/3 32/9/3
f 102/10/3 33/9/3 100/10/3
f 42/9/5 105/10/5 104/10/5
f 105/10/5 42/9/5 40/9/5
f 105/10/30 106/10/30 104/10/30
f 106/10/30 105/10/30 107/10/30
f 39/9/13 106/10/13 107/10/13
f 106/10/13 39/9/13 41/9/13
f 105/10/2 39/9/2 107/10/2
f 39/9/2 105/10/2 40/9/2
f 42/9/3 106/10/3 41/9/3
f 106/10/3 42/9/3 104/10/3
f 51/9/5 109/10/5 108/10/5
f 109/10/5 51/9/5 49/9/5
f 109/10/30 110/10/30 108/10/30
f 110/10/30 109/10/30 111/10/30
f 48/9/13 110/10/13 111/10/13
f 110/10/13 48/9/13 50/9/13
f 109/10/2 48/9/2 111/10/2
f 48/9/2 109/10/2 49/9/2
f 51/9/3 110/10/3 50/9/3
f 110/10/3 51/9/3 108/10/3
f 60/9/5 113/10/5 112/10/5
f 113/10/5 60/9/5 58/9/5
f 113/10/30 114/10/30 112/10/30
f 114/10/30 113/10/30 115/10/30
f 57/9/13 114/10/13 115/10/13
f 114/10/13 57/9/13 59/9/13
f 113/10/2 57/9/2 115/10/2
f 57/9/2 113/10/2 58/9/2
f 60/9/3 114/10/3 59/9/3
f 114/10/3 60/9/3 112/10/3
f 69/9/5 117/10/5 116/10/5
f 117/10/5 69/9/5 67/9/5
f 117/10/30 118/10/30 116/10/30
f 118/10/30 117/10/30 119/10/30
f 66/9/13 118/10/13 119/10/13
f 118/10/13 66/9/13 68/9/13
f 117/10/2 66/9/2 119/10/2
f 66/9/2 117/10/2 67/9/2
f 69/9/3 118/10/3 68/9/3
f 118/10/3 69/9/3 116/10/3
f 78/9/5 121/10/5 120/10/5
f 121/10/5 78/9/5 76/9/5
f 121/10/30 122/10/30 120/10/30
f 122/10/30 121/10/30 123/10/30
f 75/9/13 122/10/13 123/10/13
f 122/10/13 75/9/13 77/9/13
f 121/10/2 75/9/2 123/10/2
f 75/9/2 121/10/2 76/9/2
f 78/9/3 122/10/3 77/9/3
f 122/10/3 78/9/3 120/10/3
f 87/9/5 125/10/5 124/10/5
f 125/10/5 87/9/5 85/9/5
f 125/10/30 126/10/30 124/10/30
f 126/10/30 125/10/30 127/10/30
f 84/9/13 126/10/13 127/10/13
f 126/10/13 84/9/13 86/9/13
f 125/10/2 84/9/2 127/10/2
f 84/9/2 125/10/2 85/9/2
f 87/9/3 126/10/3 86/9/3
f 126/10/3 87/9/3 124/10/3
f 130/11/3 129/11/3 128/11/3
f 129/11/3 130/11/3 131/11/3
f 134/11/2 133/11/2 132/11/2
f 133/11/2 134/11/2 135/11/2
f 130/11/5 134/11/5 131/11/5
f 134/11/5 130/11/5 135/11/5
f 134/11/30 129/11/30 131/11/30
f 129/11/30 134/11/30 132/11/30
f 133/11/29 130/11/29 128/11/29
f 130/11/29 133/11/29 135/11/29
f 133/11/13 129/11/13 132/11/13
f 129/11/13 133/11/13 128/11/13
f 138/11/2 137/11/2 136/11/2
f 137/11/2 138/11/2 139/11/2
f 142/11/3 141/11/3 140/11/3
f 141/11/3 142/11/3 143/11/3
f 137/11/29 142/11/29 140/11/29
f 142/11/29 137/11/29 139/11/29
f 137/11/13 141/11/13 136/11/13
f 141/11/13 137/11/13 140/11/13
f 138/11/30 141/11/30 143/11/30
f 141/11/30 138/11/30 136/11/30
f 142/11/5 138/11/5 143/11/5
f 138/11/5 142/11/5 139/11/5
f 3/1/1 2/2/2 1/1/1
f 2/2/2 3/1/1 4/2/2
f 7/2/3 6/1/4 5/2/3
f 6/1/4 7/2/3 8/1/4
f 11/3/5 10/4/6 9/3/5
f 10/4/6 11/3/5 12/4/6
f 13/5/7 3/1/8 1/1/8
f 3/1/9 13/5/7 14/5/7
f 16/6/2 13/5/2 15/6/2
f 13/5/2 16/6/2 14/5/2
f 18/4/10 11/3/3 17/3/3
f 11/3/3 18/4/10 12/4/10
f 10/4/11 15/6/12 19/4/11
f 15/6/12 10/4/11 16/6/12
f 13/5/13 20/6/13 15/6/13
f 20/6/13 13/5/13 21/5/13
f 19/4/14 17/3/13 22/3/13
f 17/3/13 19/4/14 18/4/14
f 8/1/15 14/5/16 23/5/16
f 14/5/16 8/1/15 3/1/15
f 15/6/17 18/4/18 19/4/18
f 18/4/18 15/6/17 20/6/17
f 8/1/19 21/5/20 6/1/19
f 21/5/20 8/1/19 23/5/20
f 20/6/21 12/4/22 18/4/22
f 12/4/22 20/6/21 24/6/21
f 23/5/5 16/6/5 24/6/5
f 16/6/5 23/5/5 14/5/5
f 23/5/3 20/6/3 21/5/3
f 20/6/3 23/5/3 24/6/3
f 1/1/23 21/5/24 13/5/24
f 21/5/24 1/1/23 6/1/23
f 7/2/5 3/1/25 8/1/25
f 3/1/25 7/2/5 4/2/5
f 2/2/13 6/1/26 1/1/26
f 6/1/26 2/2/13 5/2/13
f 24/6/27 10/4/28 12/4/28
f 10/4/28 24/6/27 16/6/27
f 2/2/29 7/2/29 5/2/29
f 7/2/29 2/2/29 4/2/29
f 9/3/30 17/3/30 11/3/30
f 17/3/30 9/3/30 22/3/30
f 9/3/2 19/4/31 22/3/2
f 19/4/31 9/3/2 10/4/31
f 27/5/32 26/2/33 25/5/32
f 26/2/34 28/5/35 25/5/35
f 29/5/36 28/5/36 26/2/37
f 26/2/38 27/5/39 29/5/39
f 30/7/40 27/5/41 25/5/41
f 27/5/41 30/7/40 31/7/40
f 29/5/42 32/7/43 28/5/42
f 32/7/43 29/5/42 33/7/43
f 25/5/44 32/7/45 30/7/45
f 32/7/45 25/5/44 28/5/44
f 29/5/46 31/7/47 33/7/47
f 31/7/47 29/5/46 27/5/46
f 36/5/32 35/2/33 34/5/32
f 35/2/34 37/5/35 34/5/35
f 38/5/36 37/5/36 35/2/37
f 35/2/38 36/5/39 38/5/39
f 39/7/40 36/5/41 34/5/41
f 36/5/41 39/7/40 40/7/40
f 38/5/42 41/7/43 37/5/42
f 41/7/43 38/5/42 42/7/43
f 34/5/44 41/7/45 39/7/45
f 41/7/45 34/5/44 37/5/44
f 38/5/46 40/7/47 42/7/47
f 40/7/47 38/5/46 36/5/46
f 45/5/32 44/2/33 43/5/32
f 44/2/34 46/5/35 43/5/35
f 47/5/36 46/5/36 44/2/37
f 44/2/38 45/5/39 47/5/39
f 48/7/40 45/5/41 43/5/41
f 45/5/41 48/7/40 49/7/40
f 47/5/42 50/7/43 46/5/42
f 50/7/43 47/5/42 51/7/43
f 43/5/44 50/7/45 48/7/45
f 50/7/45 43/5/44 46/5/44
f 47/5/46 49/7/47 51/7/47
f 49/7/47 47/5/46 45/5/46
f 54/5/32 53/2/33 52/5/32
f 53/2/34 55/5/35 52/5/35
f 56/5/36 55/5/36 53/2/37
f 53/2/38 54/5/39 56/5/39
f 57/7/40 54/5/41 52/5/41
f 54/5/41 57/7/40 58/7/40
f 56/5/36 59/7/43 55/5/36
f 59/7/43 56/5/36 60/7/43
f 52/5/44 59/7/45 57/7/45
f 59/7/45 52/5/44 55/5/44
f 56/5/46 58/7/47 60/7/47
f 58/7/47 56/5/46 54/5/46
f 63/5/32 62/2/33 61/5/32
f 62/2/34 64/5/35 61/5/35
f 65/5/36 64/5/36 62/2/37
f 62/2/38 63/5/39 65/5/39
f 66/7/40 63/5/41 61/5/41
f 63/5/41 66/7/40 67/7/40
f 65/5/42 68/7/43 64/5/42
f 68/7/43 65/5/42 69/7/43
f 61/5/44 68/7/45 66/7/45
f 68/7/45 61/5/44 64/5/44
f 65/5/46 67/7/47 69/7/47
f 67/7/47 65/5/46 63/5/46
f 72/5/32 71/2/33 70/5/32
f 71/2/34 73/5/35 70/5/35
f 74/5/36 73/5/36 71/2/37
f 71/2/38 72/5/39 74/5/39
f 75/7/40 72/5/41 70/5/41
f 72/5/41 75/7/40 76/7/40
f 74/5/42 77/7/43 73/5/42
f 77/7/43 74/5/42 78/7/43
f 70/5/44 77/7/45 75/7/45
f 77/7/45 70/5/44 73/5/44
f 74/5/46 76/7/47 78/7/47
f 76/7/47 74/5/46 72/5/46
f 81/5/32 80/2/33 79/5/32
f 80/2/34 82/5/35 79/5/35
f 83/5/36 82/5/36 80/2/37
f 80/2/38 81/5/39 83/5/39
f 84/7/40 81/5/41 79/5/41
f 81/5/41 84/7/40 85/7/40
f 83/5/42 86/7/43 82/5/42
f 86/7/43 83/5/42 87/7/43
f 79/5/44 86/7/45 84/7/45
f 86/7/45 79/5/44 82/5/44
f 83/5/46 85/7/47 87/7/47
f 85/7/47 83/5/46 81/5/46
f 90/2/29 89/2/29 88/2/29
f 89/2/29 90/2/29 91/2/29
f 89/2/48 93/8/49 92/8/49
f 93/8/49 89/2/50 91/2/50
f 96/8/51 95/3/13 94/3/13
f 95/3/13 96/8/51 97/8/51
f 99/3/30 95/3/30 98/3/30
f 95/3/30 99/3/30 94/3/30
f 88/2/52 95/3/52 97/8/52
f 95/3/3 88/2/3 98/3/3
f 98/3/3 88/2/3 89/2/3
f 98/3/53 89/2/53 92/8/53
f 92/8/54 99/3/5 98/3/5
f 99/3/5 92/8/54 93/8/54
f 90/2/55 97/8/56 96/8/56
f 97/8/56 90/2/55 88/2/55
f 99/3/2 96/8/2 94/3/2
f 96/8/2 99/3/2 90/2/2
f 90/2/2 99/3/2 91/2/2
f 91/2/57 99/3/57 93/8/57
f 33/9/5 101/10/5 100/10/5
f 101/10/5 33/9/5 31/9/5
f 101/10/30 102/10/30 100/10/30
f 102/10/30 101/10/30 103/10/30
f 30/9/13 102/10/13 103/10/13
f 102/10/13 30/9/13 32/9/13
f 101/10/2 30/9/2 103/10/2
f 30/9/2 101/10/2 31/9/2
f 33/9/3 102/10/3 32/9/3
f 102/10/3 33/9/3 100/10/3
f 42/9/5 105/10/5 104/10/5
f 105/10/5 42/9/5 40/9/5
f 105/10/30 106/10/30 104/10/30
f 106/10/30 105/10/30 107/10/30
f 39/9/13 106/10/13 107/10/13
f 106/10/13 39/9/13 41/9/13
f 105/10/2 39/9/2 107/10/2
f 39/9/2 105/10/2 40/9/2
f 42/9/3 106/10/3 41/9/3
f 106/10/3 42/9/3 104/10/3
f 51/9/5 109/10/5 108/10/5
f 109/10/5 51/9/5 49/9/5
f 109/10/30 110/10/30 108/10/30
f 110/10/30 109/10/30 111/10/30
f 48/9/13 110/10/13 111/10/13
f 110/10/13 48/9/13 50/9/13
f 109/10/2 48/9/2 111/10/2
f 48/9/2 109/10/2 49/9/2
f 51/9/3 110/10/3 50/9/3
f 110/10/3 51/9/3 108/10/3
f 60/9/5 113/10/5 112/10/5
f 113/10/5 60/9/5 58/9/5
f 113/10/30 114/10/30 112/10/30
f 114/10/30 113/10/30 115/10/30
f 57/9/13 114/10/13 115/10/13
f 114/10/13 57/9/13 59/9/13
f 113/10/2 57/9/2 115/10/2
f 57/9/2 113/10/2 58/9/2
f 60/9/3 114/10/3 59/9/3
f 114/10/3 60/9/3 112/10/3
f 69/9/5 117/10/5 116/10/5
f 117/10/5 69/9/5 67/9/5
f 117/10/30 118/10/30 116/10/30
f 118/10/30 117/10/30 119/10/30
f 66/9/13 118/10/13 119/10/13
f 118/10/13 66/9/13 68/9/13
f 117/10/2 66/9/2 119/10/2
f 66/9/2 117/10/2 67/9/2
f 69/9/3 118/10/3 68/9/3
f 118/10/3 69/9/3 116/10/3
f 78/9/5 121/10/5 120/10/5
f 121/10/5 78/9/5 76/9/5
f 121/10/30 122/10/30 120/10/30
f 122/10/30 121/10/30 123/10/30
f 75/9/13 122/10/13 123/10/13
f 122/10/13 75/9/13 77/9/13
f 121/10/2 75/9/2 123/10/2
f 75/9/2 121/10/2 76/9/2
f 78/9/3 122/10/3 77/9/3
f 122/10/3 78/9/3 120/10/3
f 87/9/5 125/10/5 124/10/5
f 125/10/5 87/9/5 85/9/5
f 125/10/30 126/10/30 124/10/30
f 126/10/30 125/10/30 127/10/30
f 84/9/13 126/10/13 127/10/13
f 126/10/13 84/9/13 86/9/13
f 125/10/2 84/9/2 127/10/2
f 84/9/2 125/10/2 85/9/2
f 87/9/3 126/10/3 86/9/3
f 126/10/3 87/9/3 124/10/3
f 130/11/3 129/11/3 128/11/3
f 129/11/3 130/11/3 131/11/3
f 134/11/2 133/11/2 132/11/2
f 133/11/2 134/11/2 135/11/2
f 130/11/5 134/11/5 131/11/5
f 134/11/5 130/11/5 135/11/5
f 134/11/30 129/11/30 131/11/30
f 129/11/30 134/11/30 132/11/30
f 133/11/29 130/11/29 128/11/29
f 130/11/29 133/11/29 135/11/29
f 133/11/13 129/11/13 132/11/13
f 129/11/13 133/11/13 128/11/13
f 138/11/2 137/11/2 136/11/2
f 137/11/2 138/11/2 139/11/2
f 142/11/3 141/11/3 140/11/3
f 141/11/3 142/11/3 143/11/3
f 137/11/29 142/11/29 140/11/29
f 142/11/29 137/11/29 139/11/29
f 137/11/13 141/11/13 136/11/13
f 141/11/13 137/11/13 140/11/13
f 138/11/30 141/11/30 143/11/30
f 141/11/30 138/11/30 136/11/30
f 142/11/5 138/11/5 143/11/5
f 138/11/5 142/11/5 139/11/5
