# Blender 4.1.1
# www.blender.org
mtllib tree.074.mtl
o tree.073
v 9.643144 -0.295190 -21.270039
v 9.841304 -0.295190 -21.416111
v 9.471028 -0.295190 -21.296083
v 9.867348 -0.295190 -21.588226
v 9.324957 -0.295190 -21.494244
v 9.721276 -0.295190 -21.786386
v 9.351001 -0.295190 -21.666359
v 9.549161 -0.295190 -21.812431
v 9.718728 0.150532 -21.478674
v 9.619648 0.150532 -21.405638
v 9.533590 0.150532 -21.418659
v 9.731750 0.150532 -21.564732
v 9.658714 0.150532 -21.663811
v 9.572657 0.150532 -21.676832
v 9.473577 0.150532 -21.603796
v 9.460554 0.150532 -21.517738
v 9.566782 0.819166 -21.710732
v 9.442932 0.819166 -21.619438
v 9.426655 0.819166 -21.511866
v 9.749372 0.819166 -21.463032
v 9.625522 0.819166 -21.371738
v 9.674355 0.819166 -21.694454
v 9.765650 0.819166 -21.570604
v 9.517950 0.819166 -21.388016
v 9.765304 0.309673 -21.413166
v 9.671540 0.309673 -21.389971
v 9.815202 0.309673 -21.495869
v 9.792006 0.309673 -21.589630
v 9.588839 0.309673 -21.439869
v 9.709303 0.309673 -21.639530
v 9.565642 0.309673 -21.533630
v 9.615541 0.309673 -21.616333
v 9.807717 0.147933 -21.355627
v 9.885879 0.147933 -21.485174
v 9.660846 0.147933 -21.319292
v 9.531300 0.147933 -21.397453
v 9.849545 0.147933 -21.632046
v 9.494965 0.147933 -21.544325
v 9.719998 0.147933 -21.710207
v 9.573127 0.147933 -21.673872
v 9.343583 0.819166 -20.989065
v 8.979814 0.819166 -21.482552
v 9.444232 1.556122 -21.219391
v 9.229607 1.556122 -21.510550
v 10.198328 0.819166 -21.619131
v 9.952841 0.819166 -21.057354
v 9.948535 1.556122 -21.591133
v 9.803697 1.556122 -21.259682
v 9.834558 0.819166 -22.112619
v 9.733910 1.556122 -21.882294
v 9.374445 1.556122 -21.842001
v 9.225301 0.819166 -22.044329
v 9.798820 2.347869 -21.266296
v 9.447522 2.347869 -21.226919
v 9.637281 3.178330 -21.485439
v 9.556536 3.178330 -21.476389
v 9.540860 3.178330 -21.616243
v 9.508326 3.178330 -21.541792
v 9.379320 2.347869 -21.835388
v 9.237772 2.347869 -21.511465
v 9.730619 2.347869 -21.874763
v 9.940370 2.347869 -21.590218
v 9.621605 3.178330 -21.625294
v 9.669815 3.178330 -21.559893
v 10.045800 1.556122 -21.351259
v 9.644591 1.556122 -21.055511
v 9.798349 2.347869 -21.459391
v 9.614511 2.347869 -21.323875
v 9.990280 1.556122 -21.846590
v 9.772909 2.347869 -21.686357
v 9.187861 1.556122 -21.255095
v 9.405232 2.347869 -21.415327
v 9.132340 1.556122 -21.750425
v 9.379792 2.347869 -21.642294
v 9.533550 1.556122 -22.046173
v 9.563630 2.347869 -21.777807
v 9.067677 0.589264 -21.166500
v 8.912795 0.704215 -21.475040
v 9.316580 0.704215 -20.927269
v 9.861562 0.704215 -22.174416
v 9.516918 0.589264 -22.194553
v 9.185287 0.704215 -22.098614
v 8.995524 0.589264 -21.810213
v 9.992855 0.704215 -21.003071
v 9.661222 0.589264 -20.907131
v 10.110465 0.589264 -21.935183
v 10.265347 0.704215 -21.626644
v 10.182617 0.589264 -21.291471
v 9.799941 1.369209 -22.033400
v 10.034412 1.462665 -21.879122
v 9.527443 1.462665 -22.100660
v 10.096041 1.462665 -21.329304
v 9.901544 1.369209 -21.126944
v 9.650699 1.462665 -21.001024
v 9.065728 1.369209 -21.492182
v 9.082101 1.462665 -21.772379
v 9.143728 1.462665 -21.222561
v 9.276598 1.369209 -21.974739
v 9.378201 1.369209 -21.068283
v 10.112413 1.369209 -21.609503
v 9.746190 2.281588 -21.910395
v 9.547467 2.215307 -21.922007
v 9.356248 2.281588 -21.866688
v 9.246831 2.215307 -21.700396
v 9.199129 2.281588 -21.507133
v 9.979012 2.281588 -21.594549
v 9.931311 2.215307 -21.401289
v 9.821894 2.281588 -21.234997
v 9.288434 2.215307 -21.329229
v 9.431952 2.281588 -21.191288
v 9.889708 2.215307 -21.772453
v 9.630673 2.215307 -21.179676
vn -0.0000 -1.0000 -0.0000
vn 0.8155 0.2942 0.4984
vn 0.2253 0.2944 0.9288
vn 0.8205 0.2944 0.4900
vn 0.2253 0.2944 0.9287
vn 0.2349 0.2942 0.9264
vn -0.4983 0.2942 0.8155
vn 0.2252 0.2944 0.9288
vn 0.2348 0.2942 0.9265
vn -0.4899 0.2944 0.8206
vn 0.9265 0.2942 -0.2348
vn 0.8206 0.2944 0.4899
vn 0.9288 0.2944 -0.2252
vn 0.8205 0.2944 0.4899
vn 0.9265 0.2942 -0.2347
vn 0.4984 0.2942 -0.8155
vn 0.9288 0.2944 -0.2253
vn 0.4900 0.2944 -0.8205
vn 0.9287 0.2944 -0.2253
vn 0.9264 0.2942 -0.2349
vn -0.8205 0.2944 -0.4900
vn -0.2349 0.2942 -0.9264
vn -0.2253 0.2944 -0.9288
vn -0.8155 0.2942 -0.4984
vn -0.4984 0.2942 0.8155
vn -0.9288 0.2944 0.2253
vn -0.4900 0.2944 0.8205
vn -0.9264 0.2942 0.2349
vn -0.2252 0.2944 -0.9288
vn 0.4984 0.2943 -0.8155
vn 0.4899 0.2944 -0.8206
vn 0.4983 0.2943 -0.8155
vn -0.2348 0.2942 -0.9265
vn -0.8205 0.2945 -0.4899
vn -0.9265 0.2942 0.2347
vn -0.9264 0.2942 0.2348
vn -0.8206 0.2944 -0.4899
vn -0.9288 0.2944 0.2252
vn -0.2407 -0.0513 -0.9692
vn -0.8555 -0.0512 -0.5152
vn -0.2390 -0.0513 -0.9697
vn -0.8555 -0.0513 -0.5152
vn -0.8546 -0.0513 -0.5167
vn -0.9692 -0.0512 0.2407
vn -0.8556 -0.0513 -0.5151
vn -0.8547 -0.0512 -0.5167
vn -0.8556 -0.0513 -0.5152
vn -0.9692 -0.0513 0.2407
vn -0.9697 -0.0512 0.2390
vn 0.2390 -0.0512 0.9697
vn 0.8546 -0.0513 0.5167
vn 0.8555 -0.0513 0.5152
vn 0.2408 -0.0513 0.9692
vn 0.5152 -0.0513 -0.8555
vn 0.9692 -0.0513 -0.2408
vn 0.5167 -0.0513 -0.8546
vn 0.9692 -0.0513 -0.2407
vn 0.5152 -0.0512 -0.8555
vn 0.9697 -0.0513 -0.2390
vn 0.2390 -0.0513 0.9697
vn -0.5167 -0.0513 0.8546
vn 0.2407 -0.0512 0.9692
vn -0.5152 -0.0513 0.8556
vn -0.2390 -0.0512 -0.9697
vn 0.5152 -0.0513 -0.8556
vn -0.2407 -0.0512 -0.9692
vn 0.9693 -0.0513 -0.2407
vn 0.9697 -0.0512 -0.2390
vn 0.9692 -0.0512 -0.2407
vn 0.8556 -0.0513 0.5151
vn 0.8547 -0.0512 0.5167
vn -0.5152 -0.0513 0.8555
vn -0.9692 -0.0513 0.2408
vn -0.5152 -0.0512 0.8555
vn -0.9697 -0.0513 0.2390
vn -0.0000 1.0000 -0.0000
vn 0.9044 0.4042 0.1369
vn 0.5427 0.4042 0.7362
vn 0.5427 0.4043 0.7362
vn -0.7363 0.4042 0.5427
vn -0.9044 0.4042 -0.1368
vn -0.9043 0.4043 -0.1368
vn -0.5427 0.4042 -0.7362
vn -0.9044 0.4042 -0.1369
vn -0.5427 0.4043 -0.7362
vn 0.7363 0.4042 -0.5427
vn 0.9044 0.4042 0.1368
vn 0.7362 0.4042 -0.5427
vn 0.9043 0.4043 0.1368
vn -0.1369 0.4042 0.9044
vn -0.7362 0.4042 0.5427
vn -0.1369 0.4043 0.9044
vn -0.7362 0.4043 0.5427
vn 0.1369 0.4042 -0.9044
vn 0.7362 0.4043 -0.5427
vn -0.1368 0.4042 0.9044
vn 0.5427 0.4043 0.7363
vn 0.5427 0.4042 0.7363
vn -0.1368 0.4043 0.9044
vn -0.5427 0.4042 -0.7363
vn 0.1368 0.4042 -0.9044
vn -0.3790 0.3228 0.8673
vn -0.9406 0.3228 0.1054
vn 0.9406 0.3228 -0.1054
vn 0.5616 0.3228 0.7618
vn 0.3790 0.3228 -0.8673
vn 0.5616 0.3228 0.7619
vn -0.5616 0.3228 -0.7619
vn -0.5616 0.3228 -0.7618
vn 0.4081 0.7260 0.5536
vn -0.3805 0.3115 0.8708
vn 0.5638 0.3115 0.7649
vn -0.3805 0.3115 0.8707
vn -0.2754 0.7260 0.6302
vn -0.5638 0.3115 -0.7649
vn -0.6835 0.7260 0.0766
vn -0.4080 0.7260 -0.5536
vn -0.6834 0.7260 0.0766
vn -0.9443 0.3115 0.1058
vn 0.2754 0.7260 -0.6302
vn 0.9443 0.3115 -0.1059
vn 0.3805 0.3115 -0.8707
vn 0.2753 0.7260 -0.6302
vn 0.6835 0.7260 -0.0766
vn 0.6834 0.7260 -0.0766
vn 0.9443 0.3115 -0.1058
vn 0.4080 0.7260 0.5536
vn 0.6835 0.7259 -0.0766
vn 0.4081 0.7259 0.5536
vn -0.2754 0.7259 0.6302
vn -0.6835 0.7259 0.0766
vn 0.2754 0.7259 -0.6302
vn -0.4080 0.7259 -0.5536
vn -0.5638 0.3116 -0.7649
vn 0.3805 0.3115 -0.8708
vn 0.2753 0.7260 -0.6301
vn -0.4080 0.7260 -0.5535
vn -0.2753 0.7260 0.6302
vn -0.9443 0.3115 0.1059
vn -0.6835 0.7260 0.0765
vn 0.8673 0.3228 0.3790
vn 0.1054 0.3228 0.9406
vn 0.7618 0.3228 -0.5616
vn 0.7619 0.3228 -0.5616
vn -0.7618 0.3228 0.5616
vn -0.8673 0.3228 -0.3790
vn -0.7619 0.3228 0.5616
vn -0.1054 0.3228 -0.9406
vn -0.3454 0.5060 0.7903
vn -0.8571 0.5060 0.0961
vn -0.7176 0.4530 0.5290
vn -0.8572 0.5060 0.0961
vn -0.3454 0.5060 0.7904
vn 0.7176 -0.4530 -0.5290
vn 0.8572 -0.5060 -0.0961
vn 0.3454 -0.5060 -0.7903
vn 0.3454 -0.5060 -0.7904
vn -0.0993 0.4529 -0.8860
vn 0.3454 0.5060 -0.7904
vn 0.3454 0.5061 -0.7903
vn -0.0993 0.4530 -0.8860
vn -0.5118 0.5060 -0.6943
vn -0.3454 -0.5060 0.7904
vn 0.0993 -0.4530 0.8860
vn 0.5118 -0.5060 0.6943
vn 0.0993 -0.4529 0.8860
vn -0.8169 0.4530 -0.3570
vn 0.8571 -0.5060 -0.0961
vn 0.8169 -0.4530 0.3570
vn 0.5118 0.5060 0.6943
vn 0.0993 0.4530 0.8860
vn -0.5118 -0.5060 -0.6943
vn -0.0993 -0.4530 -0.8860
vn 0.8571 0.5060 -0.0961
vn 0.7176 0.4530 -0.5290
vn 0.8572 0.5060 -0.0961
vn -0.7176 -0.4530 0.5290
vn -0.8572 -0.5060 0.0961
vn -0.3454 -0.5060 0.7903
vn 0.8169 0.4530 0.3570
vn -0.8169 -0.4530 -0.3570
vn -0.8571 -0.5060 0.0961
vn -0.0961 0.5060 -0.8572
vn 0.6943 0.5060 -0.5118
vn 0.3570 0.4530 -0.8169
vn -0.0961 0.5060 -0.8571
vn -0.3570 -0.4530 0.8169
vn -0.6943 -0.5060 0.5118
vn 0.0961 -0.5060 0.8572
vn 0.0961 -0.5060 0.8571
vn 0.7903 0.5060 0.3454
vn 0.5290 0.4530 0.7176
vn 0.7904 0.5060 0.3454
vn 0.5290 0.4529 0.7176
vn 0.0961 0.5060 0.8571
vn 0.0961 0.5061 0.8571
vn -0.7903 -0.5060 -0.3454
vn -0.5290 -0.4530 -0.7176
vn -0.7903 -0.5061 -0.3454
vn -0.0961 -0.5060 -0.8572
vn -0.7904 -0.5060 -0.3454
vn -0.5290 -0.4529 -0.7176
vn -0.0961 -0.5060 -0.8571
vn -0.6943 0.5060 0.5118
vn -0.7903 0.5060 -0.3454
vn -0.8860 0.4530 0.0993
vn -0.7904 0.5060 -0.3454
vn 0.8860 -0.4530 -0.0993
vn 0.7904 -0.5060 0.3454
vn 0.6943 -0.5060 -0.5118
vn -0.5290 0.4530 -0.7176
vn -0.0961 0.5061 -0.8571
vn -0.5290 0.4529 -0.7176
vn 0.5290 -0.4530 0.7176
vn 0.5290 -0.4529 0.7176
vn -0.6943 0.5061 0.5118
vn -0.3570 0.4530 0.8169
vn 0.0961 0.5060 0.8572
vn 0.3570 -0.4530 -0.8169
vn -0.0961 -0.5061 -0.8571
vn 0.8860 0.4530 -0.0993
vn -0.8860 -0.4530 0.0993
vn 0.3454 0.5060 -0.7903
vn -0.5118 0.5061 -0.6943
vn 0.5118 -0.5061 0.6943
vn -0.8169 0.4529 -0.3570
vn 0.8169 -0.4529 0.3570
vn 0.5118 0.5061 0.6943
vn 0.7176 -0.4529 -0.5290
vn -0.7176 -0.4529 0.5290
vn 0.0993 0.4529 0.8860
vn -0.3454 0.5061 0.7903
vn -0.0993 -0.4529 -0.8860
vt 0.593750 0.025000
vt 0.593750 0.104996
vt 0.593750 0.225000
vt 0.093750 0.475000
vt 0.093750 0.275000
vt 0.093750 0.425000
vt 0.093750 0.348778
vt 0.093750 0.338765
vt 0.093750 0.344099
vt 0.093750 0.375000
vt 0.093750 0.325000
s 0
usemtl colormap.089
f 3/1/1 2/1/1 1/1/1
f 2/1/1 3/1/1 4/1/1
f 4/1/1 3/1/1 5/1/1
f 4/1/1 5/1/1 6/1/1
f 6/1/1 5/1/1 7/1/1
f 6/1/1 7/1/1 8/1/1
f 9/2/2 1/1/3 2/1/4
f 1/1/5 9/2/2 10/2/6
f 11/2/7 1/1/8 10/2/9
f 1/1/8 11/2/7 3/1/10
f 12/2/11 2/1/12 4/1/13
f 2/1/14 12/2/15 9/2/2
f 13/2/16 4/1/17 6/1/18
f 4/1/19 13/2/16 12/2/20
f 7/1/21 14/2/22 8/1/23
f 14/2/22 7/1/21 15/2/24
f 11/2/25 5/1/26 3/1/27
f 5/1/26 11/2/25 16/2/28
f 8/1/29 13/2/30 6/1/31
f 13/2/32 8/1/29 14/2/33
f 7/1/34 16/2/35 15/2/24
f 16/2/36 7/1/37 5/1/38
f 14/2/39 18/3/40 17/3/41
f 18/3/42 14/2/39 15/2/43
f 16/2/44 18/3/45 15/2/46
f 18/3/47 16/2/48 19/3/49
f 21/3/50 9/2/51 20/3/52
f 9/2/51 21/3/50 10/2/53
f 22/3/54 12/2/55 13/2/56
f 12/2/57 22/3/58 23/3/59
f 21/3/60 11/2/61 10/2/62
f 11/2/61 21/3/50 24/3/63
f 13/2/56 17/3/64 22/3/65
f 17/3/41 13/2/56 14/2/66
f 20/3/52 12/2/67 23/3/68
f 12/2/69 20/3/70 9/2/71
f 24/3/72 16/2/73 11/2/61
f 16/2/48 24/3/74 19/3/75
f 27/4/76 26/4/76 25/4/76
f 26/4/76 27/4/76 28/4/76
f 26/4/76 28/4/76 29/4/76
f 29/4/76 28/4/76 30/4/76
f 29/4/76 30/4/76 31/4/76
f 31/4/76 30/4/76 32/4/76
f 35/5/1 34/5/1 33/5/1
f 34/5/1 35/5/1 36/5/1
f 34/5/1 36/5/1 37/5/1
f 37/5/1 36/5/1 38/5/1
f 37/5/1 38/5/1 39/5/1
f 39/5/1 38/5/1 40/5/1
f 27/4/77 33/5/78 34/5/77
f 33/5/78 27/4/77 25/4/79
f 29/4/80 38/5/81 36/5/80
f 38/5/81 29/4/80 31/4/82
f 40/5/83 31/4/84 32/4/85
f 31/4/84 40/5/83 38/5/84
f 28/4/86 34/5/87 37/5/86
f 34/5/87 28/4/88 27/4/89
f 26/4/90 36/5/91 35/5/92
f 36/5/91 26/4/90 29/4/93
f 30/4/94 37/5/88 39/5/94
f 37/5/88 30/4/94 28/4/95
f 26/4/96 33/5/97 25/4/98
f 33/5/98 26/4/99 35/5/96
f 40/5/100 30/4/101 39/5/101
f 30/4/101 40/5/85 32/4/100
f 43/6/102 42/7/103 41/7/102
f 42/7/103 43/6/102 44/6/103
f 47/6/104 46/7/105 45/7/104
f 46/7/105 47/6/104 48/6/105
f 50/6/106 45/7/104 49/7/106
f 45/7/104 50/6/106 47/6/104
f 48/6/107 41/7/102 46/7/107
f 41/7/102 48/6/107 43/6/102
f 52/7/108 44/6/103 51/6/109
f 44/6/103 52/7/109 42/7/103
f 52/7/108 50/6/106 49/7/106
f 50/6/106 52/7/109 51/6/108
f 41/7/1 45/7/1 46/7/1
f 45/7/1 41/7/1 42/7/1
f 45/7/1 42/7/1 49/7/1
f 49/7/1 42/7/1 52/7/1
f 55/6/110 54/8/111 53/8/112
f 54/8/113 55/6/110 56/6/114
f 59/8/115 58/6/116 57/6/117
f 58/6/118 59/8/115 60/8/119
f 63/6/120 62/8/121 61/8/122
f 62/8/121 63/6/123 64/6/124
f 64/6/125 53/8/112 62/8/126
f 53/8/112 64/6/124 55/6/127
f 64/6/128 56/6/114 55/6/129
f 56/6/130 64/6/128 58/6/131
f 58/6/131 64/6/124 63/6/132
f 58/6/116 63/6/132 57/6/133
f 59/8/134 63/6/120 61/8/135
f 63/6/136 59/8/115 57/6/137
f 54/8/1 62/8/1 53/8/1
f 62/8/1 54/8/1 60/8/1
f 62/8/1 60/8/1 61/8/1
f 61/8/1 60/8/1 59/8/1
f 56/6/138 60/8/139 54/8/113
f 60/8/119 56/6/138 58/6/140
f 67/6/141 66/9/142 65/9/141
f 66/9/142 67/6/141 68/6/142
f 70/6/143 65/9/141 69/9/144
f 65/9/141 70/6/144 67/6/141
f 68/6/142 71/9/145 66/9/142
f 71/9/145 68/6/142 72/6/145
f 72/6/145 73/9/146 71/9/147
f 73/9/146 72/6/147 74/6/146
f 71/9/1 65/9/1 66/9/1
f 65/9/1 71/9/1 69/9/1
f 69/9/1 71/9/1 73/9/1
f 69/9/1 73/9/1 75/9/1
f 76/6/148 69/9/143 75/9/148
f 69/9/143 76/6/148 70/6/143
f 73/9/146 76/6/148 75/9/148
f 76/6/148 73/9/146 74/6/146
f 79/10/149 78/10/150 77/11/151
f 78/10/152 79/10/153 41/6/153
f 78/10/152 41/6/153 42/6/152
f 77/11/154 78/10/155 79/10/156
f 41/6/157 79/10/157 78/10/155
f 42/6/155 41/6/156 78/10/155
f 81/11/158 49/6/159 80/10/159
f 49/6/160 81/11/161 52/6/162
f 52/6/162 81/11/158 82/10/162
f 80/10/163 49/6/163 81/11/164
f 52/6/165 81/11/164 49/6/163
f 82/10/165 81/11/166 52/6/165
f 82/10/162 42/6/152 52/6/162
f 42/6/152 82/10/162 83/11/167
f 42/6/150 83/11/167 78/10/152
f 52/6/165 42/6/168 82/10/165
f 83/11/169 82/10/165 42/6/168
f 78/10/155 83/11/169 42/6/168
f 46/6/170 85/11/171 84/10/170
f 85/11/171 46/6/170 41/6/149
f 85/11/171 41/6/149 79/10/153
f 84/10/172 85/11/173 46/6/172
f 41/6/157 46/6/172 85/11/173
f 79/10/157 41/6/157 85/11/173
f 80/10/159 87/10/174 86/11/175
f 87/10/176 80/10/159 49/6/159
f 87/10/176 49/6/159 45/6/176
f 86/11/177 87/10/178 80/10/179
f 49/6/163 80/10/163 87/10/178
f 45/6/178 49/6/179 87/10/178
f 45/6/174 88/11/180 87/10/176
f 88/11/180 45/6/176 46/6/170
f 88/11/180 46/6/170 84/10/170
f 87/10/178 88/11/181 45/6/182
f 46/6/172 45/6/178 88/11/181
f 84/10/172 46/6/172 88/11/181
f 91/10/183 90/10/184 89/11/185
f 90/10/184 91/10/186 75/6/186
f 90/10/184 75/6/183 69/6/184
f 89/11/187 90/10/188 91/10/189
f 75/6/190 91/10/190 90/10/188
f 69/6/188 75/6/190 90/10/188
f 65/6/191 93/11/192 92/10/193
f 93/11/194 65/6/193 66/6/195
f 93/11/192 66/6/196 94/10/195
f 92/10/197 93/11/198 65/6/199
f 66/6/200 65/6/201 93/11/202
f 94/10/200 66/6/203 93/11/198
f 97/10/204 96/10/205 95/11/206
f 96/10/207 97/10/204 71/6/204
f 96/10/207 71/6/204 73/6/207
f 95/11/208 96/10/209 97/10/210
f 71/6/210 97/10/210 96/10/209
f 73/6/209 71/6/210 96/10/209
f 98/11/211 75/6/212 91/10/186
f 75/6/186 98/11/211 73/6/207
f 73/6/207 98/11/213 96/10/207
f 91/10/189 75/6/190 98/11/214
f 73/6/209 98/11/214 75/6/189
f 96/10/209 98/11/215 73/6/209
f 94/10/195 97/10/216 99/11/217
f 97/10/204 94/10/218 66/6/218
f 97/10/204 66/6/195 71/6/204
f 99/11/219 97/10/210 94/10/203
f 66/6/200 94/10/200 97/10/210
f 71/6/210 66/6/220 97/10/210
f 90/10/184 92/10/191 100/11/221
f 92/10/193 90/10/184 69/6/184
f 92/10/193 69/6/184 65/6/193
f 100/11/222 92/10/201 90/10/188
f 69/6/188 90/10/188 92/10/201
f 65/6/201 69/6/188 92/10/201
f 102/11/158 61/6/159 101/10/159
f 61/6/223 102/11/161 59/6/162
f 59/6/224 102/11/161 103/10/162
f 101/10/163 61/6/163 102/11/166
f 59/6/165 102/11/164 61/6/163
f 103/10/225 102/11/164 59/6/225
f 103/10/162 60/6/152 59/6/162
f 60/6/152 103/10/162 104/11/167
f 60/6/152 104/11/226 105/10/152
f 59/6/165 60/6/155 103/10/165
f 104/11/169 103/10/165 60/6/168
f 105/10/155 104/11/227 60/6/155
f 62/6/174 107/11/180 106/10/176
f 107/11/180 62/6/176 53/6/170
f 107/11/180 53/6/228 108/10/170
f 106/10/182 107/11/181 62/6/182
f 53/6/172 62/6/178 107/11/181
f 108/10/172 53/6/172 107/11/181
f 110/10/153 105/10/150 109/11/151
f 105/10/152 110/10/153 54/6/153
f 105/10/152 54/6/153 60/6/152
f 109/11/229 105/10/155 110/10/157
f 54/6/157 110/10/157 105/10/155
f 60/6/155 54/6/157 105/10/155
f 101/10/159 106/10/174 111/11/175
f 106/10/176 101/10/159 61/6/159
f 106/10/176 61/6/159 62/6/176
f 111/11/230 106/10/178 101/10/163
f 61/6/163 101/10/163 106/10/178
f 62/6/178 61/6/179 106/10/178
f 53/6/170 112/11/231 108/10/170
f 112/11/171 53/6/170 54/6/232
f 112/11/231 54/6/153 110/10/153
f 108/10/172 112/11/233 53/6/172
f 54/6/157 53/6/172 112/11/173
f 110/10/157 54/6/157 112/11/233
f 3/1/1 2/1/1 1/1/1
f 2/1/1 3/1/1 4/1/1
f 4/1/1 3/1/1 5/1/1
f 4/1/1 5/1/1 6/1/1
f 6/1/1 5/1/1 7/1/1
f 6/1/1 7/1/1 8/1/1
f 9/2/2 1/1/3 2/1/4
f 1/1/5 9/2/2 10/2/6
f 11/2/7 1/1/8 10/2/9
f 1/1/8 11/2/7 3/1/10
f 12/2/11 2/1/12 4/1/13
f 2/1/14 12/2/15 9/2/2
f 13/2/16 4/1/17 6/1/18
f 4/1/19 13/2/16 12/2/20
f 7/1/21 14/2/22 8/1/23
f 14/2/22 7/1/21 15/2/24
f 11/2/25 5/1/26 3/1/27
f 5/1/26 11/2/25 16/2/28
f 8/1/29 13/2/30 6/1/31
f 13/2/32 8/1/29 14/2/33
f 7/1/34 16/2/35 15/2/24
f 16/2/36 7/1/37 5/1/38
f 14/2/39 18/3/40 17/3/41
f 18/3/42 14/2/39 15/2/43
f 16/2/44 18/3/45 15/2/46
f 18/3/47 16/2/48 19/3/49
f 21/3/50 9/2/51 20/3/52
f 9/2/51 21/3/50 10/2/53
f 22/3/54 12/2/55 13/2/56
f 12/2/57 22/3/58 23/3/59
f 21/3/60 11/2/61 10/2/62
f 11/2/61 21/3/50 24/3/63
f 13/2/56 17/3/64 22/3/65
f 17/3/41 13/2/56 14/2/66
f 20/3/52 12/2/67 23/3/68
f 12/2/69 20/3/70 9/2/71
f 24/3/72 16/2/73 11/2/61
f 16/2/48 24/3/74 19/3/75
f 27/4/76 26/4/76 25/4/76
f 26/4/76 27/4/76 28/4/76
f 26/4/76 28/4/76 29/4/76
f 29/4/76 28/4/76 30/4/76
f 29/4/76 30/4/76 31/4/76
f 31/4/76 30/4/76 32/4/76
f 35/5/1 34/5/1 33/5/1
f 34/5/1 35/5/1 36/5/1
f 34/5/1 36/5/1 37/5/1
f 37/5/1 36/5/1 38/5/1
f 37/5/1 38/5/1 39/5/1
f 39/5/1 38/5/1 40/5/1
f 27/4/77 33/5/78 34/5/77
f 33/5/78 27/4/77 25/4/79
f 29/4/80 38/5/81 36/5/80
f 38/5/81 29/4/80 31/4/82
f 40/5/83 31/4/84 32/4/85
f 31/4/84 40/5/83 38/5/84
f 28/4/86 34/5/87 37/5/86
f 34/5/87 28/4/88 27/4/89
f 26/4/90 36/5/91 35/5/92
f 36/5/91 26/4/90 29/4/93
f 30/4/94 37/5/88 39/5/94
f 37/5/88 30/4/94 28/4/95
f 26/4/96 33/5/97 25/4/98
f 33/5/98 26/4/99 35/5/96
f 40/5/100 30/4/101 39/5/101
f 30/4/101 40/5/85 32/4/100
f 43/6/102 42/7/103 41/7/102
f 42/7/103 43/6/102 44/6/103
f 47/6/104 46/7/105 45/7/104
f 46/7/105 47/6/104 48/6/105
f 50/6/106 45/7/104 49/7/106
f 45/7/104 50/6/106 47/6/104
f 48/6/107 41/7/102 46/7/107
f 41/7/102 48/6/107 43/6/102
f 52/7/108 44/6/103 51/6/109
f 44/6/103 52/7/109 42/7/103
f 52/7/108 50/6/106 49/7/106
f 50/6/106 52/7/109 51/6/108
f 41/7/1 45/7/1 46/7/1
f 45/7/1 41/7/1 42/7/1
f 45/7/1 42/7/1 49/7/1
f 49/7/1 42/7/1 52/7/1
f 55/6/110 54/8/111 53/8/112
f 54/8/113 55/6/110 56/6/114
f 59/8/115 58/6/116 57/6/117
f 58/6/118 59/8/115 60/8/119
f 63/6/120 62/8/121 61/8/122
f 62/8/121 63/6/123 64/6/124
f 64/6/125 53/8/112 62/8/126
f 53/8/112 64/6/124 55/6/127
f 64/6/128 56/6/114 55/6/129
f 56/6/130 64/6/128 58/6/131
f 58/6/131 64/6/124 63/6/132
f 58/6/116 63/6/132 57/6/133
f 59/8/134 63/6/120 61/8/135
f 63/6/136 59/8/115 57/6/137
f 54/8/1 62/8/1 53/8/1
f 62/8/1 54/8/1 60/8/1
f 62/8/1 60/8/1 61/8/1
f 61/8/1 60/8/1 59/8/1
f 56/6/138 60/8/139 54/8/113
f 60/8/119 56/6/138 58/6/140
f 67/6/141 66/9/142 65/9/141
f 66/9/142 67/6/141 68/6/142
f 70/6/143 65/9/141 69/9/144
f 65/9/141 70/6/144 67/6/141
f 68/6/142 71/9/145 66/9/142
f 71/9/145 68/6/142 72/6/145
f 72/6/145 73/9/146 71/9/147
f 73/9/146 72/6/147 74/6/146
f 71/9/1 65/9/1 66/9/1
f 65/9/1 71/9/1 69/9/1
f 69/9/1 71/9/1 73/9/1
f 69/9/1 73/9/1 75/9/1
f 76/6/148 69/9/143 75/9/148
f 69/9/143 76/6/148 70/6/143
f 73/9/146 76/6/148 75/9/148
f 76/6/148 73/9/146 74/6/146
f 79/10/149 78/10/150 77/11/151
f 78/10/152 79/10/153 41/6/153
f 78/10/152 41/6/153 42/6/152
f 77/11/154 78/10/155 79/10/156
f 41/6/157 79/10/157 78/10/155
f 42/6/155 41/6/156 78/10/155
f 81/11/158 49/6/159 80/10/159
f 49/6/160 81/11/161 52/6/162
f 52/6/162 81/11/158 82/10/162
f 80/10/163 49/6/163 81/11/164
f 52/6/165 81/11/164 49/6/163
f 82/10/165 81/11/166 52/6/165
f 82/10/162 42/6/152 52/6/162
f 42/6/152 82/10/162 83/11/167
f 42/6/150 83/11/167 78/10/152
f 52/6/165 42/6/168 82/10/165
f 83/11/169 82/10/165 42/6/168
f 78/10/155 83/11/169 42/6/168
f 46/6/170 85/11/171 84/10/170
f 85/11/171 46/6/170 41/6/149
f 85/11/171 41/6/149 79/10/153
f 84/10/172 85/11/173 46/6/172
f 41/6/157 46/6/172 85/11/173
f 79/10/157 41/6/157 85/11/173
f 80/10/159 87/10/174 86/11/175
f 87/10/176 80/10/159 49/6/159
f 87/10/176 49/6/159 45/6/176
f 86/11/177 87/10/178 80/10/179
f 49/6/163 80/10/163 87/10/178
f 45/6/178 49/6/179 87/10/178
f 45/6/174 88/11/180 87/10/176
f 88/11/180 45/6/176 46/6/170
f 88/11/180 46/6/170 84/10/170
f 87/10/178 88/11/181 45/6/182
f 46/6/172 45/6/178 88/11/181
f 84/10/172 46/6/172 88/11/181
f 91/10/183 90/10/184 89/11/185
f 90/10/184 91/10/186 75/6/186
f 90/10/184 75/6/183 69/6/184
f 89/11/187 90/10/188 91/10/189
f 75/6/190 91/10/190 90/10/188
f 69/6/188 75/6/190 90/10/188
f 65/6/191 93/11/192 92/10/193
f 93/11/194 65/6/193 66/6/195
f 93/11/192 66/6/196 94/10/195
f 92/10/197 93/11/198 65/6/199
f 66/6/200 65/6/201 93/11/202
f 94/10/200 66/6/203 93/11/198
f 97/10/204 96/10/205 95/11/206
f 96/10/207 97/10/204 71/6/204
f 96/10/207 71/6/204 73/6/207
f 95/11/208 96/10/209 97/10/210
f 71/6/210 97/10/210 96/10/209
f 73/6/209 71/6/210 96/10/209
f 98/11/211 75/6/212 91/10/186
f 75/6/186 98/11/211 73/6/207
f 73/6/207 98/11/213 96/10/207
f 91/10/189 75/6/190 98/11/214
f 73/6/209 98/11/214 75/6/189
f 96/10/209 98/11/215 73/6/209
f 94/10/195 97/10/216 99/11/217
f 97/10/204 94/10/218 66/6/218
f 97/10/204 66/6/195 71/6/204
f 99/11/219 97/10/210 94/10/203
f 66/6/200 94/10/200 97/10/210
f 71/6/210 66/6/220 97/10/210
f 90/10/184 92/10/191 100/11/221
f 92/10/193 90/10/184 69/6/184
f 92/10/193 69/6/184 65/6/193
f 100/11/222 92/10/201 90/10/188
f 69/6/188 90/10/188 92/10/201
f 65/6/201 69/6/188 92/10/201
f 102/11/158 61/6/159 101/10/159
f 61/6/223 102/11/161 59/6/162
f 59/6/224 102/11/161 103/10/162
f 101/10/163 61/6/163 102/11/166
f 59/6/165 102/11/164 61/6/163
f 103/10/225 102/11/164 59/6/225
f 103/10/162 60/6/152 59/6/162
f 60/6/152 103/10/162 104/11/167
f 60/6/152 104/11/226 105/10/152
f 59/6/165 60/6/155 103/10/165
f 104/11/169 103/10/165 60/6/168
f 105/10/155 104/11/227 60/6/155
f 62/6/174 107/11/180 106/10/176
f 107/11/180 62/6/176 53/6/170
f 107/11/180 53/6/228 108/10/170
f 106/10/182 107/11/181 62/6/182
f 53/6/172 62/6/178 107/11/181
f 108/10/172 53/6/172 107/11/181
f 110/10/153 105/10/150 109/11/151
f 105/10/152 110/10/153 54/6/153
f 105/10/152 54/6/153 60/6/152
f 109/11/229 105/10/155 110/10/157
f 54/6/157 110/10/157 105/10/155
f 60/6/155 54/6/157 105/10/155
f 101/10/159 106/10/174 111/11/175
f 106/10/176 101/10/159 61/6/159
f 106/10/176 61/6/159 62/6/176
f 111/11/230 106/10/178 101/10/163
f 61/6/163 101/10/163 106/10/178
f 62/6/178 61/6/179 106/10/178
f 53/6/170 112/11/231 108/10/170
f 112/11/171 53/6/170 54/6/232
f 112/11/231 54/6/153 110/10/153
f 108/10/172 112/11/233 53/6/172
f 54/6/157 53/6/172 112/11/173
f 110/10/157 54/6/157 112/11/233
