# Blender 4.1.1
# www.blender.org
mtllib tree.029.mtl
o tree.029
v -4.676777 -0.282319 7.545738
v -4.526343 -0.282319 7.444086
v -4.802819 -0.282319 7.521347
v -4.501953 -0.282319 7.318043
v -4.904471 -0.282319 7.370914
v -4.603605 -0.282319 7.167611
v -4.880081 -0.282319 7.244871
v -4.729647 -0.282319 7.143219
v -4.614778 0.046402 7.394282
v -4.689994 0.046402 7.445108
v -4.753016 0.046402 7.432913
v -4.602582 0.046402 7.331261
v -4.653409 0.046402 7.256044
v -4.716430 0.046402 7.243849
v -4.791646 0.046402 7.294675
v -4.803842 0.046402 7.357697
v -4.719734 0.539521 7.218692
v -4.813755 0.539521 7.282224
v -4.828999 0.539521 7.361001
v -4.592669 0.539521 7.406733
v -4.686690 0.539521 7.470265
v -4.640958 0.539521 7.233936
v -4.577425 0.539521 7.327957
v -4.765467 0.539521 7.455021
v -4.582436 0.163768 7.443960
v -4.652229 0.163768 7.458221
v -4.543169 0.163768 7.384525
v -4.557429 0.163768 7.314733
v -4.711664 0.163768 7.418953
v -4.616864 0.163768 7.275465
v -4.725924 0.163768 7.349160
v -4.686656 0.163768 7.289726
v -4.552920 0.044485 7.487641
v -4.491411 0.044485 7.394541
v -4.662244 0.044485 7.509979
v -4.755344 0.044485 7.448469
v -4.513749 0.044485 7.285216
v -4.777682 0.044485 7.339144
v -4.606848 0.044485 7.223707
v -4.716173 0.044485 7.246045
v -4.906005 0.539521 7.743734
v -5.159154 0.539521 7.369103
v -4.824882 1.083027 7.577051
v -4.974240 1.083027 7.356018
v -4.257125 0.539521 7.305267
v -4.454991 0.539521 7.711817
v -4.442040 1.083027 7.318354
v -4.558781 1.083027 7.558219
v -4.510274 0.539521 6.930636
v -4.591399 1.083027 7.097320
v -4.857499 1.083027 7.116151
v -4.961289 0.539521 6.962554
v -4.562174 1.666943 7.553198
v -4.822230 1.666943 7.571602
v -4.674590 2.279410 7.386836
v -4.734363 2.279410 7.391066
v -4.741690 2.279410 7.287536
v -4.767913 2.279410 7.341415
v -4.854106 1.666943 7.121172
v -4.968196 1.666943 7.355589
v -4.594050 1.666943 7.102768
v -4.448084 1.666943 7.318781
v -4.681917 2.279410 7.283305
v -4.648367 2.279410 7.332955
v -4.377613 1.083027 7.498052
v -4.682191 1.083027 7.703864
v -4.556689 1.666943 7.410896
v -4.696250 1.666943 7.505202
v -4.403562 1.083027 7.131373
v -4.568579 1.666943 7.242880
v -5.012718 1.083027 7.542997
v -4.847701 1.666943 7.431491
v -5.038668 1.083027 7.176319
v -4.859591 1.666943 7.263474
v -4.734090 1.083027 6.970507
v -4.720030 1.666943 7.169169
v -5.103957 0.369968 7.604650
v -5.208766 0.454744 7.372614
v -4.927771 0.454744 7.788455
v -4.488509 0.454744 6.885916
v -4.741863 0.369968 6.860666
v -4.989135 0.454744 6.921345
v -5.137680 0.369968 7.128130
v -4.427145 0.454744 7.753026
v -4.674417 0.369968 7.813705
v -4.312324 0.369968 7.069721
v -4.207514 0.454744 7.301756
v -4.278601 0.369968 7.546241
v -4.538177 0.945179 6.987966
v -4.370058 1.014103 7.108734
v -4.736944 1.014103 6.930172
v -4.341255 1.014103 7.515748
v -4.490689 0.945179 7.658988
v -4.679336 1.014103 7.744198
v -5.095554 0.945179 7.364603
v -5.075026 1.014103 7.158624
v -5.046222 1.014103 7.565637
v -4.925591 0.945179 7.015383
v -4.878104 0.945179 7.686405
v -4.320725 0.945179 7.309768
v -4.581501 1.618061 7.076982
v -4.727585 1.569178 7.062424
v -4.870162 1.618061 7.097411
v -4.955813 1.569178 7.216644
v -4.996802 1.618061 7.357614
v -4.419478 1.618061 7.316757
v -4.460467 1.569178 7.457727
v -4.546118 1.618061 7.576960
v -4.936368 1.569178 7.491406
v -4.834780 1.618061 7.597388
v -4.479911 1.569178 7.182965
v -4.688695 1.569178 7.611948
vn -0.0000 -1.0000 -0.0000
vn 0.7944 0.2942 0.5314
vn 0.1870 0.2944 0.9372
vn 0.7998 0.2944 0.5232
vn 0.1967 0.2942 0.9353
vn -0.5313 0.2942 0.7944
vn 0.1966 0.2942 0.9353
vn -0.5313 0.2943 0.7944
vn -0.5231 0.2944 0.7998
vn 0.9353 0.2942 -0.1966
vn 0.7998 0.2944 0.5231
vn 0.9372 0.2944 -0.1870
vn 0.7944 0.2942 0.5313
vn 0.5314 0.2942 -0.7944
vn 0.5231 0.2944 -0.7998
vn 0.9353 0.2942 -0.1967
vn -0.7998 0.2944 -0.5232
vn -0.1967 0.2942 -0.9353
vn -0.1870 0.2944 -0.9372
vn -0.7944 0.2942 -0.5314
vn -0.5314 0.2942 0.7944
vn -0.9372 0.2944 0.1870
vn -0.9353 0.2942 0.1967
vn 0.5313 0.2942 -0.7944
vn -0.1966 0.2942 -0.9353
vn -0.7998 0.2944 -0.5231
vn -0.9353 0.2942 0.1966
vn -0.7944 0.2942 -0.5313
vn -0.2008 -0.0513 -0.9783
vn -0.8337 -0.0512 -0.5498
vn -0.1991 -0.0513 -0.9786
vn -0.8337 -0.0513 -0.5498
vn -0.8327 -0.0513 -0.5513
vn -0.9783 -0.0512 0.2008
vn -0.8328 -0.0512 -0.5513
vn -0.9783 -0.0513 0.2008
vn -0.9786 -0.0512 0.1991
vn 0.1991 -0.0512 0.9786
vn 0.8327 -0.0513 0.5513
vn 0.8337 -0.0513 0.5498
vn 0.2009 -0.0513 0.9783
vn 0.5498 -0.0513 -0.8337
vn 0.9783 -0.0513 -0.2009
vn 0.5513 -0.0513 -0.8327
vn 0.9783 -0.0513 -0.2008
vn 0.5498 -0.0512 -0.8337
vn 0.9786 -0.0513 -0.1991
vn 0.1991 -0.0513 0.9786
vn -0.5513 -0.0513 0.8328
vn 0.2008 -0.0513 0.9783
vn -0.5498 -0.0513 0.8337
vn 0.5513 -0.0513 -0.8328
vn -0.1991 -0.0512 -0.9786
vn 0.5512 -0.0513 -0.8328
vn -0.2008 -0.0512 -0.9783
vn 0.9786 -0.0512 -0.1991
vn 0.9783 -0.0512 -0.2008
vn 0.8328 -0.0512 0.5513
vn -0.9783 -0.0513 0.2009
vn -0.5513 -0.0513 0.8327
vn -0.5498 -0.0512 0.8337
vn -0.9786 -0.0513 0.1991
vn -0.0000 1.0000 -0.0000
vn 0.8980 0.4042 0.1738
vn 0.5121 0.4042 0.7578
vn 0.5121 0.4042 0.7579
vn 0.5121 0.4043 0.7578
vn -0.7579 0.4042 0.5121
vn -0.8980 0.4042 -0.1737
vn -0.8980 0.4042 -0.1738
vn -0.8980 0.4043 -0.1737
vn -0.5121 0.4042 -0.7579
vn -0.5121 0.4043 -0.7578
vn -0.5121 0.4042 -0.7578
vn 0.7579 0.4042 -0.5121
vn 0.8980 0.4042 0.1737
vn 0.8980 0.4043 0.1737
vn -0.1738 0.4042 0.8980
vn -0.7578 0.4042 0.5121
vn -0.7578 0.4043 0.5121
vn 0.1738 0.4042 -0.8980
vn 0.7578 0.4042 -0.5121
vn 0.7578 0.4043 -0.5121
vn -0.1737 0.4042 0.8980
vn 0.5121 0.4043 0.7579
vn 0.1737 0.4042 -0.8980
vn -0.5121 0.4043 -0.7579
vn -0.4142 0.3228 0.8510
vn -0.9441 0.3228 0.0668
vn 0.9441 0.3228 -0.0668
vn 0.5299 0.3228 0.7842
vn 0.4142 0.3228 -0.8510
vn -0.5299 0.3228 -0.7842
vn 0.3851 0.7260 0.5698
vn -0.4158 0.3115 0.8544
vn 0.5320 0.3115 0.7874
vn -0.3010 0.7260 0.6184
vn -0.5320 0.3115 -0.7873
vn -0.6860 0.7260 0.0486
vn -0.3850 0.7260 -0.5699
vn -0.9479 0.3115 0.0671
vn 0.3009 0.7260 -0.6184
vn 0.9479 0.3115 -0.0671
vn 0.4159 0.3115 -0.8544
vn 0.6860 0.7260 -0.0485
vn 0.6860 0.7260 -0.0486
vn 0.5320 0.3115 0.7873
vn 0.3850 0.7260 0.5699
vn 0.6860 0.7259 -0.0485
vn -0.3009 0.7259 0.6184
vn 0.3850 0.7259 0.5699
vn -0.3010 0.7259 0.6184
vn -0.6860 0.7259 0.0485
vn 0.3010 0.7259 -0.6184
vn 0.3009 0.7259 -0.6184
vn -0.3850 0.7259 -0.5699
vn -0.5320 0.3116 -0.7873
vn 0.3010 0.7260 -0.6184
vn 0.4158 0.3115 -0.8544
vn 0.3009 0.7260 -0.6183
vn -0.3850 0.7260 -0.5698
vn -0.3009 0.7260 0.6184
vn -0.4159 0.3115 0.8544
vn -0.6860 0.7260 0.0485
vn 0.8510 0.3228 0.4142
vn 0.0668 0.3228 0.9441
vn 0.7842 0.3228 -0.5299
vn -0.7842 0.3228 0.5299
vn -0.8510 0.3228 -0.4142
vn -0.0668 0.3228 -0.9441
vn -0.3775 0.5060 0.7755
vn -0.8604 0.5060 0.0609
vn -0.7387 0.4530 0.4992
vn 0.7387 -0.4530 -0.4992
vn 0.8604 -0.5060 -0.0609
vn 0.3775 -0.5060 -0.7755
vn 0.3774 -0.5060 -0.7755
vn -0.0629 0.4529 -0.8893
vn 0.3774 0.5060 -0.7755
vn 0.3775 0.5060 -0.7756
vn -0.0629 0.4530 -0.8893
vn -0.4829 0.5060 -0.7147
vn -0.3775 -0.5060 0.7756
vn -0.3775 -0.5060 0.7755
vn 0.0629 -0.4529 0.8893
vn 0.4829 -0.5060 0.7147
vn 0.0629 -0.4530 0.8893
vn -0.8016 0.4530 -0.3902
vn -0.8016 0.4530 -0.3901
vn 0.8016 -0.4530 0.3902
vn 0.8016 -0.4530 0.3901
vn 0.4829 0.5060 0.7147
vn 0.0629 0.4530 0.8893
vn -0.3774 0.5060 0.7755
vn -0.4829 -0.5060 -0.7147
vn -0.0629 -0.4530 -0.8893
vn -0.4829 -0.5060 -0.7146
vn 0.3775 -0.5060 -0.7756
vn 0.3775 0.5060 -0.7755
vn 0.8604 0.5060 -0.0609
vn 0.7387 0.4530 -0.4992
vn -0.7387 -0.4530 0.4992
vn -0.8604 -0.5060 0.0609
vn 0.8016 0.4530 0.3902
vn 0.8016 0.4530 0.3901
vn 0.4829 0.5060 0.7146
vn -0.8016 -0.4530 -0.3902
vn -0.8016 -0.4530 -0.3901
vn -0.0609 0.5060 -0.8604
vn 0.7147 0.5060 -0.4829
vn 0.3902 0.4530 -0.8016
vn -0.3902 -0.4530 0.8016
vn -0.7147 -0.5060 0.4829
vn 0.0609 -0.5060 0.8604
vn 0.7755 0.5060 0.3775
vn 0.4992 0.4530 0.7387
vn 0.7756 0.5060 0.3775
vn 0.0609 0.5060 0.8604
vn -0.7755 -0.5060 -0.3775
vn -0.4992 -0.4530 -0.7387
vn -0.0609 -0.5060 -0.8604
vn -0.7147 0.5060 0.4829
vn -0.7755 0.5060 -0.3775
vn -0.8893 0.4530 0.0629
vn -0.7756 0.5060 -0.3775
vn 0.8893 -0.4530 -0.0629
vn 0.7756 -0.5060 0.3775
vn 0.7147 -0.5060 -0.4829
vn -0.4992 0.4529 -0.7387
vn -0.4992 0.4530 -0.7387
vn 0.4992 -0.4529 0.7387
vn 0.7755 -0.5060 0.3775
vn 0.4992 -0.4530 0.7387
vn -0.7146 0.5060 0.4829
vn -0.3901 0.4530 0.8016
vn 0.3901 -0.4530 -0.8016
vn 0.8893 0.4530 -0.0629
vn -0.8893 -0.4530 0.0629
vn -0.7756 -0.5060 -0.3775
vn 0.4829 -0.5060 0.7146
vn -0.8016 0.4529 -0.3902
vn -0.3775 0.5060 0.7756
vn -0.0629 -0.4529 -0.8893
vt 0.593750 0.025000
vt 0.593750 0.104996
vt 0.593750 0.225000
vt 0.093750 0.475000
vt 0.093750 0.275000
vt 0.093750 0.425000
vt 0.093750 0.348778
vt 0.093750 0.338765
vt 0.093750 0.344099
vt 0.093750 0.375000
vt 0.093750 0.325000
s 0
usemtl colormap.002
f 3/1/1 2/1/1 1/1/1
f 2/1/1 3/1/1 4/1/1
f 4/1/1 3/1/1 5/1/1
f 4/1/1 5/1/1 6/1/1
f 6/1/1 5/1/1 7/1/1
f 6/1/1 7/1/1 8/1/1
f 9/2/2 1/1/3 2/1/4
f 1/1/3 9/2/2 10/2/5
f 11/2/6 1/1/3 10/2/7
f 1/1/3 11/2/8 3/1/9
f 12/2/10 2/1/11 4/1/12
f 2/1/11 12/2/10 9/2/13
f 13/2/14 4/1/12 6/1/15
f 4/1/12 13/2/14 12/2/16
f 7/1/17 14/2/18 8/1/19
f 14/2/18 7/1/17 15/2/20
f 11/2/21 5/1/22 3/1/9
f 5/1/22 11/2/21 16/2/23
f 8/1/19 13/2/24 6/1/15
f 13/2/24 8/1/19 14/2/25
f 7/1/26 16/2/27 15/2/28
f 16/2/27 7/1/26 5/1/22
f 14/2/29 18/3/30 17/3/31
f 18/3/32 14/2/29 15/2/33
f 16/2/34 18/3/32 15/2/35
f 18/3/32 16/2/36 19/3/37
f 21/3/38 9/2/39 20/3/40
f 9/2/39 21/3/38 10/2/41
f 22/3/42 12/2/43 13/2/44
f 12/2/45 22/3/46 23/3/47
f 21/3/48 11/2/49 10/2/50
f 11/2/49 21/3/38 24/3/51
f 13/2/52 17/3/53 22/3/42
f 17/3/31 13/2/54 14/2/55
f 20/3/40 12/2/45 23/3/56
f 12/2/57 20/3/40 9/2/58
f 24/3/51 16/2/59 11/2/60
f 16/2/59 24/3/61 19/3/62
f 27/4/63 26/4/63 25/4/63
f 26/4/63 27/4/63 28/4/63
f 26/4/63 28/4/63 29/4/63
f 29/4/63 28/4/63 30/4/63
f 29/4/63 30/4/63 31/4/63
f 31/4/63 30/4/63 32/4/63
f 35/5/1 34/5/1 33/5/1
f 34/5/1 35/5/1 36/5/1
f 34/5/1 36/5/1 37/5/1
f 37/5/1 36/5/1 38/5/1
f 37/5/1 38/5/1 39/5/1
f 39/5/1 38/5/1 40/5/1
f 27/4/64 33/5/65 34/5/64
f 33/5/66 27/4/64 25/4/67
f 29/4/68 38/5/69 36/5/68
f 38/5/70 29/4/68 31/4/71
f 40/5/72 31/4/70 32/4/73
f 31/4/70 40/5/74 38/5/70
f 28/4/75 34/5/64 37/5/75
f 34/5/76 28/4/75 27/4/77
f 26/4/78 36/5/68 35/5/78
f 36/5/79 26/4/78 29/4/80
f 30/4/81 37/5/82 39/5/81
f 37/5/82 30/4/81 28/4/83
f 26/4/84 33/5/85 25/4/66
f 33/5/66 26/4/84 35/5/84
f 40/5/72 30/4/86 39/5/86
f 30/4/86 40/5/87 32/4/72
f 43/6/88 42/7/89 41/7/88
f 42/7/89 43/6/88 44/6/89
f 47/6/90 46/7/91 45/7/90
f 46/7/91 47/6/90 48/6/91
f 50/6/92 45/7/90 49/7/92
f 45/7/90 50/6/92 47/6/90
f 48/6/91 41/7/88 46/7/91
f 41/7/88 48/6/91 43/6/88
f 52/7/93 44/6/89 51/6/93
f 44/6/89 52/7/93 42/7/89
f 52/7/93 50/6/92 49/7/92
f 50/6/92 52/7/93 51/6/93
f 41/7/1 45/7/1 46/7/1
f 45/7/1 41/7/1 42/7/1
f 45/7/1 42/7/1 49/7/1
f 49/7/1 42/7/1 52/7/1
f 55/6/94 54/8/95 53/8/96
f 54/8/95 55/6/94 56/6/97
f 59/8/98 58/6/99 57/6/100
f 58/6/99 59/8/98 60/8/101
f 63/6/102 62/8/103 61/8/104
f 62/8/103 63/6/102 64/6/105
f 64/6/106 53/8/107 62/8/103
f 53/8/107 64/6/106 55/6/108
f 64/6/109 56/6/110 55/6/111
f 56/6/112 64/6/109 58/6/113
f 58/6/113 64/6/109 63/6/114
f 58/6/113 63/6/115 57/6/116
f 59/8/117 63/6/118 61/8/119
f 63/6/120 59/8/98 57/6/121
f 54/8/1 62/8/1 53/8/1
f 62/8/1 54/8/1 60/8/1
f 62/8/1 60/8/1 61/8/1
f 61/8/1 60/8/1 59/8/1
f 56/6/122 60/8/101 54/8/123
f 60/8/101 56/6/122 58/6/124
f 67/6/125 66/9/126 65/9/125
f 66/9/126 67/6/125 68/6/126
f 70/6/127 65/9/125 69/9/127
f 65/9/125 70/6/127 67/6/125
f 68/6/126 71/9/128 66/9/126
f 71/9/128 68/6/126 72/6/128
f 72/6/128 73/9/129 71/9/128
f 73/9/129 72/6/128 74/6/129
f 71/9/1 65/9/1 66/9/1
f 65/9/1 71/9/1 69/9/1
f 69/9/1 71/9/1 73/9/1
f 69/9/1 73/9/1 75/9/1
f 76/6/130 69/9/127 75/9/130
f 69/9/127 76/6/130 70/6/127
f 73/9/129 76/6/130 75/9/130
f 76/6/130 73/9/129 74/6/129
f 79/10/131 78/10/132 77/11/133
f 78/10/132 79/10/131 41/6/131
f 78/10/132 41/6/131 42/6/132
f 77/11/134 78/10/135 79/10/136
f 41/6/136 79/10/136 78/10/135
f 42/6/135 41/6/137 78/10/135
f 81/11/138 49/6/139 80/10/140
f 49/6/139 81/11/141 52/6/142
f 52/6/142 81/11/141 82/10/142
f 80/10/143 49/6/144 81/11/145
f 52/6/146 81/11/147 49/6/143
f 82/10/146 81/11/147 52/6/146
f 82/10/142 42/6/132 52/6/142
f 42/6/132 82/10/142 83/11/148
f 42/6/132 83/11/149 78/10/132
f 52/6/146 42/6/135 82/10/146
f 83/11/150 82/10/146 42/6/135
f 78/10/135 83/11/151 42/6/135
f 46/6/152 85/11/153 84/10/152
f 85/11/153 46/6/152 41/6/154
f 85/11/153 41/6/154 79/10/131
f 84/10/155 85/11/156 46/6/157
f 41/6/158 46/6/155 85/11/156
f 79/10/158 41/6/136 85/11/156
f 80/10/159 87/10/160 86/11/161
f 87/10/160 80/10/159 49/6/159
f 87/10/160 49/6/140 45/6/160
f 86/11/162 87/10/163 80/10/144
f 49/6/144 80/10/144 87/10/163
f 45/6/163 49/6/144 87/10/163
f 45/6/160 88/11/164 87/10/160
f 88/11/165 45/6/160 46/6/166
f 88/11/164 46/6/166 84/10/152
f 87/10/163 88/11/167 45/6/163
f 46/6/155 45/6/163 88/11/168
f 84/10/155 46/6/155 88/11/167
f 91/10/169 90/10/170 89/11/171
f 90/10/170 91/10/169 75/6/169
f 90/10/170 75/6/169 69/6/170
f 89/11/172 90/10/173 91/10/174
f 75/6/174 91/10/174 90/10/173
f 69/6/173 75/6/174 90/10/173
f 65/6/175 93/11/176 92/10/177
f 93/11/176 65/6/177 66/6/178
f 93/11/176 66/6/178 94/10/178
f 92/10/179 93/11/180 65/6/179
f 66/6/181 65/6/179 93/11/180
f 94/10/181 66/6/181 93/11/180
f 97/10/182 96/10/183 95/11/184
f 96/10/185 97/10/182 71/6/182
f 96/10/185 71/6/182 73/6/185
f 95/11/186 96/10/187 97/10/188
f 71/6/188 97/10/188 96/10/187
f 73/6/187 71/6/188 96/10/187
f 98/11/189 75/6/169 91/10/169
f 75/6/169 98/11/190 73/6/185
f 73/6/183 98/11/190 96/10/185
f 91/10/174 75/6/174 98/11/191
f 73/6/192 98/11/193 75/6/174
f 96/10/192 98/11/193 73/6/192
f 94/10/178 97/10/194 99/11/195
f 97/10/182 94/10/178 66/6/178
f 97/10/182 66/6/178 71/6/182
f 99/11/196 97/10/188 94/10/181
f 66/6/181 94/10/181 97/10/188
f 71/6/188 66/6/181 97/10/188
f 90/10/170 92/10/175 100/11/197
f 92/10/177 90/10/170 69/6/170
f 92/10/177 69/6/170 65/6/177
f 100/11/198 92/10/199 90/10/173
f 69/6/173 90/10/173 92/10/199
f 65/6/199 69/6/173 92/10/199
f 102/11/141 61/6/139 101/10/140
f 61/6/139 102/11/141 59/6/142
f 59/6/142 102/11/141 103/10/142
f 101/10/143 61/6/143 102/11/145
f 59/6/146 102/11/147 61/6/143
f 103/10/146 102/11/147 59/6/200
f 103/10/142 60/6/132 59/6/142
f 60/6/132 103/10/142 104/11/148
f 60/6/132 104/11/201 105/10/132
f 59/6/146 60/6/135 103/10/146
f 104/11/150 103/10/146 60/6/135
f 105/10/135 104/11/150 60/6/135
f 62/6/160 107/11/165 106/10/160
f 107/11/165 62/6/160 53/6/166
f 107/11/164 53/6/152 108/10/152
f 106/10/163 107/11/168 62/6/163
f 53/6/155 62/6/163 107/11/168
f 108/10/155 53/6/155 107/11/167
f 110/10/131 105/10/132 109/11/133
f 105/10/132 110/10/202 54/6/202
f 105/10/132 54/6/202 60/6/132
f 109/11/134 105/10/135 110/10/136
f 54/6/136 110/10/158 105/10/135
f 60/6/135 54/6/136 105/10/135
f 101/10/159 106/10/160 111/11/161
f 106/10/160 101/10/140 61/6/140
f 106/10/160 61/6/140 62/6/160
f 111/11/162 106/10/163 101/10/144
f 61/6/144 101/10/143 106/10/163
f 62/6/163 61/6/144 106/10/163
f 53/6/152 112/11/153 108/10/152
f 112/11/153 53/6/152 54/6/154
f 112/11/153 54/6/131 110/10/202
f 108/10/155 112/11/203 53/6/155
f 54/6/158 53/6/155 112/11/156
f 110/10/158 54/6/136 112/11/156
f 3/1/1 2/1/1 1/1/1
f 2/1/1 3/1/1 4/1/1
f 4/1/1 3/1/1 5/1/1
f 4/1/1 5/1/1 6/1/1
f 6/1/1 5/1/1 7/1/1
f 6/1/1 7/1/1 8/1/1
f 9/2/2 1/1/3 2/1/4
f 1/1/3 9/2/2 10/2/5
f 11/2/6 1/1/3 10/2/7
f 1/1/3 11/2/8 3/1/9
f 12/2/10 2/1/11 4/1/12
f 2/1/11 12/2/10 9/2/13
f 13/2/14 4/1/12 6/1/15
f 4/1/12 13/2/14 12/2/16
f 7/1/17 14/2/18 8/1/19
f 14/2/18 7/1/17 15/2/20
f 11/2/21 5/1/22 3/1/9
f 5/1/22 11/2/21 16/2/23
f 8/1/19 13/2/24 6/1/15
f 13/2/24 8/1/19 14/2/25
f 7/1/26 16/2/27 15/2/28
f 16/2/27 7/1/26 5/1/22
f 14/2/29 18/3/30 17/3/31
f 18/3/32 14/2/29 15/2/33
f 16/2/34 18/3/32 15/2/35
f 18/3/32 16/2/36 19/3/37
f 21/3/38 9/2/39 20/3/40
f 9/2/39 21/3/38 10/2/41
f 22/3/42 12/2/43 13/2/44
f 12/2/45 22/3/46 23/3/47
f 21/3/48 11/2/49 10/2/50
f 11/2/49 21/3/38 24/3/51
f 13/2/52 17/3/53 22/3/42
f 17/3/31 13/2/54 14/2/55
f 20/3/40 12/2/45 23/3/56
f 12/2/57 20/3/40 9/2/58
f 24/3/51 16/2/59 11/2/60
f 16/2/59 24/3/61 19/3/62
f 27/4/63 26/4/63 25/4/63
f 26/4/63 27/4/63 28/4/63
f 26/4/63 28/4/63 29/4/63
f 29/4/63 28/4/63 30/4/63
f 29/4/63 30/4/63 31/4/63
f 31/4/63 30/4/63 32/4/63
f 35/5/1 34/5/1 33/5/1
f 34/5/1 35/5/1 36/5/1
f 34/5/1 36/5/1 37/5/1
f 37/5/1 36/5/1 38/5/1
f 37/5/1 38/5/1 39/5/1
f 39/5/1 38/5/1 40/5/1
f 27/4/64 33/5/65 34/5/64
f 33/5/66 27/4/64 25/4/67
f 29/4/68 38/5/69 36/5/68
f 38/5/70 29/4/68 31/4/71
f 40/5/72 31/4/70 32/4/73
f 31/4/70 40/5/74 38/5/70
f 28/4/75 34/5/64 37/5/75
f 34/5/76 28/4/75 27/4/77
f 26/4/78 36/5/68 35/5/78
f 36/5/79 26/4/78 29/4/80
f 30/4/81 37/5/82 39/5/81
f 37/5/82 30/4/81 28/4/83
f 26/4/84 33/5/85 25/4/66
f 33/5/66 26/4/84 35/5/84
f 40/5/72 30/4/86 39/5/86
f 30/4/86 40/5/87 32/4/72
f 43/6/88 42/7/89 41/7/88
f 42/7/89 43/6/88 44/6/89
f 47/6/90 46/7/91 45/7/90
f 46/7/91 47/6/90 48/6/91
f 50/6/92 45/7/90 49/7/92
f 45/7/90 50/6/92 47/6/90
f 48/6/91 41/7/88 46/7/91
f 41/7/88 48/6/91 43/6/88
f 52/7/93 44/6/89 51/6/93
f 44/6/89 52/7/93 42/7/89
f 52/7/93 50/6/92 49/7/92
f 50/6/92 52/7/93 51/6/93
f 41/7/1 45/7/1 46/7/1
f 45/7/1 41/7/1 42/7/1
f 45/7/1 42/7/1 49/7/1
f 49/7/1 42/7/1 52/7/1
f 55/6/94 54/8/95 53/8/96
f 54/8/95 55/6/94 56/6/97
f 59/8/98 58/6/99 57/6/100
f 58/6/99 59/8/98 60/8/101
f 63/6/102 62/8/103 61/8/104
f 62/8/103 63/6/102 64/6/105
f 64/6/106 53/8/107 62/8/103
f 53/8/107 64/6/106 55/6/108
f 64/6/109 56/6/110 55/6/111
f 56/6/112 64/6/109 58/6/113
f 58/6/113 64/6/109 63/6/114
f 58/6/113 63/6/115 57/6/116
f 59/8/117 63/6/118 61/8/119
f 63/6/120 59/8/98 57/6/121
f 54/8/1 62/8/1 53/8/1
f 62/8/1 54/8/1 60/8/1
f 62/8/1 60/8/1 61/8/1
f 61/8/1 60/8/1 59/8/1
f 56/6/122 60/8/101 54/8/123
f 60/8/101 56/6/122 58/6/124
f 67/6/125 66/9/126 65/9/125
f 66/9/126 67/6/125 68/6/126
f 70/6/127 65/9/125 69/9/127
f 65/9/125 70/6/127 67/6/125
f 68/6/126 71/9/128 66/9/126
f 71/9/128 68/6/126 72/6/128
f 72/6/128 73/9/129 71/9/128
f 73/9/129 72/6/128 74/6/129
f 71/9/1 65/9/1 66/9/1
f 65/9/1 71/9/1 69/9/1
f 69/9/1 71/9/1 73/9/1
f 69/9/1 73/9/1 75/9/1
f 76/6/130 69/9/127 75/9/130
f 69/9/127 76/6/130 70/6/127
f 73/9/129 76/6/130 75/9/130
f 76/6/130 73/9/129 74/6/129
f 79/10/131 78/10/132 77/11/133
f 78/10/132 79/10/131 41/6/131
f 78/10/132 41/6/131 42/6/132
f 77/11/134 78/10/135 79/10/136
f 41/6/136 79/10/136 78/10/135
f 42/6/135 41/6/137 78/10/135
f 81/11/138 49/6/139 80/10/140
f 49/6/139 81/11/141 52/6/142
f 52/6/142 81/11/141 82/10/142
f 80/10/143 49/6/144 81/11/145
f 52/6/146 81/11/147 49/6/143
f 82/10/146 81/11/147 52/6/146
f 82/10/142 42/6/132 52/6/142
f 42/6/132 82/10/142 83/11/148
f 42/6/132 83/11/149 78/10/132
f 52/6/146 42/6/135 82/10/146
f 83/11/150 82/10/146 42/6/135
f 78/10/135 83/11/151 42/6/135
f 46/6/152 85/11/153 84/10/152
f 85/11/153 46/6/152 41/6/154
f 85/11/153 41/6/154 79/10/131
f 84/10/155 85/11/156 46/6/157
f 41/6/158 46/6/155 85/11/156
f 79/10/158 41/6/136 85/11/156
f 80/10/159 87/10/160 86/11/161
f 87/10/160 80/10/159 49/6/159
f 87/10/160 49/6/140 45/6/160
f 86/11/162 87/10/163 80/10/144
f 49/6/144 80/10/144 87/10/163
f 45/6/163 49/6/144 87/10/163
f 45/6/160 88/11/164 87/10/160
f 88/11/165 45/6/160 46/6/166
f 88/11/164 46/6/166 84/10/152
f 87/10/163 88/11/167 45/6/163
f 46/6/155 45/6/163 88/11/168
f 84/10/155 46/6/155 88/11/167
f 91/10/169 90/10/170 89/11/171
f 90/10/170 91/10/169 75/6/169
f 90/10/170 75/6/169 69/6/170
f 89/11/172 90/10/173 91/10/174
f 75/6/174 91/10/174 90/10/173
f 69/6/173 75/6/174 90/10/173
f 65/6/175 93/11/176 92/10/177
f 93/11/176 65/6/177 66/6/178
f 93/11/176 66/6/178 94/10/178
f 92/10/179 93/11/180 65/6/179
f 66/6/181 65/6/179 93/11/180
f 94/10/181 66/6/181 93/11/180
f 97/10/182 96/10/183 95/11/184
f 96/10/185 97/10/182 71/6/182
f 96/10/185 71/6/182 73/6/185
f 95/11/186 96/10/187 97/10/188
f 71/6/188 97/10/188 96/10/187
f 73/6/187 71/6/188 96/10/187
f 98/11/189 75/6/169 91/10/169
f 75/6/169 98/11/190 73/6/185
f 73/6/183 98/11/190 96/10/185
f 91/10/174 75/6/174 98/11/191
f 73/6/192 98/11/193 75/6/174
f 96/10/192 98/11/193 73/6/192
f 94/10/178 97/10/194 99/11/195
f 97/10/182 94/10/178 66/6/178
f 97/10/182 66/6/178 71/6/182
f 99/11/196 97/10/188 94/10/181
f 66/6/181 94/10/181 97/10/188
f 71/6/188 66/6/181 97/10/188
f 90/10/170 92/10/175 100/11/197
f 92/10/177 90/10/170 69/6/170
f 92/10/177 69/6/170 65/6/177
f 100/11/198 92/10/199 90/10/173
f 69/6/173 90/10/173 92/10/199
f 65/6/199 69/6/173 92/10/199
f 102/11/141 61/6/139 101/10/140
f 61/6/139 102/11/141 59/6/142
f 59/6/142 102/11/141 103/10/142
f 101/10/143 61/6/143 102/11/145
f 59/6/146 102/11/147 61/6/143
f 103/10/146 102/11/147 59/6/200
f 103/10/142 60/6/132 59/6/142
f 60/6/132 103/10/142 104/11/148
f 60/6/132 104/11/201 105/10/132
f 59/6/146 60/6/135 103/10/146
f 104/11/150 103/10/146 60/6/135
f 105/10/135 104/11/150 60/6/135
f 62/6/160 107/11/165 106/10/160
f 107/11/165 62/6/160 53/6/166
f 107/11/164 53/6/152 108/10/152
f 106/10/163 107/11/168 62/6/163
f 53/6/155 62/6/163 107/11/168
f 108/10/155 53/6/155 107/11/167
f 110/10/131 105/10/132 109/11/133
f 105/10/132 110/10/202 54/6/202
f 105/10/132 54/6/202 60/6/132
f 109/11/134 105/10/135 110/10/136
f 54/6/136 110/10/158 105/10/135
f 60/6/135 54/6/136 105/10/135
f 101/10/159 106/10/160 111/11/161
f 106/10/160 101/10/140 61/6/140
f 106/10/160 61/6/140 62/6/160
f 111/11/162 106/10/163 101/10/144
f 61/6/144 101/10/143 106/10/163
f 62/6/163 61/6/144 106/10/163
f 53/6/152 112/11/153 108/10/152
f 112/11/153 53/6/152 54/6/154
f 112/11/153 54/6/131 110/10/202
f 108/10/155 112/11/203 53/6/155
f 54/6/158 53/6/155 112/11/156
f 110/10/158 54/6/136 112/11/156
