# Blender 4.1.1
# www.blender.org
mtllib tree.029.mtl
o tree.029
v -4.947708 -4.675250 7.982888
v -4.788558 -4.675250 7.875347
v -5.081053 -4.675250 7.957084
v -4.762754 -4.675250 7.742001
v -5.188594 -4.675250 7.797936
v -4.870296 -4.675250 7.582853
v -5.162791 -4.675250 7.664590
v -5.003642 -4.675250 7.557048
v -4.882117 -4.327483 7.822657
v -4.961691 -4.327483 7.876428
v -5.028364 -4.327483 7.863526
v -4.869215 -4.327483 7.755985
v -4.922986 -4.327483 7.676411
v -4.989658 -4.327483 7.663509
v -5.069232 -4.327483 7.717279
v -5.082135 -4.327483 7.783952
v -4.993154 -3.805793 7.636894
v -5.092622 -3.805793 7.704107
v -5.108749 -3.805793 7.787448
v -4.858727 -3.805793 7.835830
v -4.958195 -3.805793 7.903043
v -4.909813 -3.805793 7.653021
v -4.842600 -3.805793 7.752489
v -5.041536 -3.805793 7.886916
v -4.847901 -4.203316 7.875214
v -4.921738 -4.203316 7.890301
v -4.806358 -4.203316 7.812335
v -4.821445 -4.203316 7.738499
v -4.984616 -4.203316 7.848758
v -4.884323 -4.203316 7.696956
v -4.999702 -4.203316 7.774921
v -4.958160 -4.203316 7.712043
v -4.816675 -4.329511 7.921425
v -4.751602 -4.329511 7.822932
v -4.932333 -4.329511 7.945057
v -5.030827 -4.329511 7.879984
v -4.775234 -4.329511 7.707273
v -5.054459 -4.329511 7.764325
v -4.873727 -4.329511 7.642200
v -4.989386 -4.329511 7.665832
v -5.190218 -3.805793 8.192357
v -5.458034 -3.805793 7.796020
v -5.104393 -3.230796 8.016016
v -5.262406 -3.230796 7.782176
v -4.503742 -3.805793 7.728486
v -4.713072 -3.805793 8.158590
v -4.699370 -3.230796 7.742330
v -4.822875 -3.230796 7.996093
v -4.771558 -3.805793 7.332149
v -4.857383 -3.230796 7.508489
v -5.138901 -3.230796 7.528412
v -5.248704 -3.805793 7.365915
v -4.826465 -2.613048 7.990781
v -5.101588 -2.613048 8.010252
v -4.945394 -1.965096 7.814780
v -5.008631 -1.965096 7.819254
v -5.016382 -1.965096 7.709726
v -5.044124 -1.965096 7.766728
v -5.135311 -2.613048 7.533724
v -5.256011 -2.613048 7.781723
v -4.860188 -2.613048 7.514254
v -4.705765 -2.613048 7.742783
v -4.953146 -1.965096 7.705251
v -4.917652 -1.965096 7.757777
v -4.631210 -3.230796 7.932439
v -4.953435 -3.230796 8.150177
v -4.820662 -2.613048 7.840234
v -4.968309 -2.613048 7.940004
v -4.658663 -3.230796 7.544516
v -4.833241 -2.613048 7.662483
v -5.303113 -3.230796 7.979990
v -5.128535 -2.613048 7.862022
v -5.330566 -3.230796 7.592066
v -5.141114 -2.613048 7.684271
v -5.008341 -3.230796 7.374330
v -4.993467 -2.613048 7.584502
v -5.399638 -3.985170 8.045214
v -5.510520 -3.895481 7.799734
v -5.213244 -3.895481 8.239669
v -4.748532 -3.895481 7.284837
v -5.016565 -3.985170 7.258124
v -5.278164 -3.895481 7.322319
v -5.435315 -3.985170 7.541085
v -4.683612 -3.895481 8.202187
v -4.945211 -3.985170 8.266382
v -4.562138 -3.985170 7.479291
v -4.451256 -3.895481 7.724771
v -4.526461 -3.985170 7.983420
v -4.801077 -3.376631 7.392800
v -4.623218 -3.303713 7.520565
v -5.011361 -3.303713 7.331657
v -4.592745 -3.303713 7.951160
v -4.750838 -3.376631 8.102700
v -4.950416 -3.303713 8.192848
v -5.390749 -3.376631 7.791258
v -5.369031 -3.303713 7.573346
v -5.338558 -3.303713 8.003941
v -5.210938 -3.376631 7.421805
v -5.160699 -3.376631 8.131706
v -4.571027 -3.376631 7.733247
v -4.846911 -2.664763 7.486974
v -5.001460 -2.716478 7.471571
v -5.152298 -2.664763 7.508586
v -5.242911 -2.716478 7.634727
v -5.286275 -2.664763 7.783865
v -4.675501 -2.664763 7.740641
v -4.718865 -2.716478 7.889779
v -4.809478 -2.664763 8.015920
v -5.222340 -2.716478 7.925409
v -5.114865 -2.664763 8.037531
v -4.739436 -2.716478 7.599097
v -4.960317 -2.716478 8.052935
vn -0.0000 -1.0000 -0.0000
vn 0.7944 0.2942 0.5314
vn 0.1870 0.2944 0.9372
vn 0.7998 0.2944 0.5232
vn 0.1967 0.2942 0.9353
vn -0.5313 0.2942 0.7944
vn 0.1966 0.2942 0.9353
vn -0.5313 0.2943 0.7944
vn -0.5231 0.2944 0.7998
vn 0.9353 0.2942 -0.1966
vn 0.7998 0.2944 0.5231
vn 0.9372 0.2944 -0.1870
vn 0.7944 0.2942 0.5313
vn 0.5314 0.2942 -0.7944
vn 0.5231 0.2944 -0.7998
vn 0.9353 0.2942 -0.1967
vn -0.7998 0.2944 -0.5232
vn -0.1967 0.2942 -0.9353
vn -0.1870 0.2944 -0.9372
vn -0.7944 0.2942 -0.5314
vn -0.5314 0.2942 0.7944
vn -0.9372 0.2944 0.1870
vn -0.9353 0.2942 0.1967
vn 0.5313 0.2943 -0.7944
vn 0.5313 0.2942 -0.7944
vn -0.1966 0.2942 -0.9353
vn -0.7998 0.2944 -0.5231
vn -0.9353 0.2942 0.1966
vn -0.7944 0.2942 -0.5313
vn -0.2008 -0.0513 -0.9783
vn -0.8337 -0.0512 -0.5498
vn -0.1991 -0.0513 -0.9786
vn -0.8337 -0.0513 -0.5498
vn -0.2009 -0.0513 -0.9783
vn -0.8327 -0.0513 -0.5513
vn -0.9783 -0.0512 0.2008
vn -0.8328 -0.0512 -0.5513
vn -0.9783 -0.0513 0.2008
vn -0.9786 -0.0512 0.1991
vn 0.1991 -0.0512 0.9786
vn 0.8327 -0.0513 0.5513
vn 0.8337 -0.0513 0.5498
vn 0.2009 -0.0513 0.9783
vn 0.5498 -0.0513 -0.8337
vn 0.9783 -0.0513 -0.2008
vn 0.5513 -0.0513 -0.8327
vn 0.9783 -0.0513 -0.2009
vn 0.5498 -0.0512 -0.8337
vn 0.9786 -0.0513 -0.1991
vn 0.1991 -0.0513 0.9786
vn -0.5512 -0.0513 0.8328
vn 0.2008 -0.0513 0.9783
vn -0.5498 -0.0513 0.8337
vn 0.5512 -0.0513 -0.8328
vn -0.1991 -0.0512 -0.9786
vn 0.9786 -0.0512 -0.1991
vn 0.9783 -0.0512 -0.2008
vn 0.8328 -0.0512 0.5513
vn -0.5513 -0.0513 0.8327
vn -0.9783 -0.0513 0.2009
vn -0.5498 -0.0512 0.8337
vn -0.9786 -0.0513 0.1991
vn -0.0000 1.0000 -0.0000
vn 0.8980 0.4042 0.1738
vn 0.5121 0.4042 0.7578
vn 0.5121 0.4042 0.7579
vn 0.5121 0.4043 0.7578
vn -0.7579 0.4042 0.5121
vn -0.8980 0.4042 -0.1737
vn -0.8980 0.4042 -0.1738
vn -0.8980 0.4043 -0.1738
vn -0.5121 0.4042 -0.7579
vn -0.5121 0.4043 -0.7578
vn 0.7579 0.4042 -0.5121
vn 0.8980 0.4042 0.1737
vn 0.8980 0.4043 0.1737
vn -0.1738 0.4042 0.8980
vn -0.7578 0.4042 0.5121
vn -0.7578 0.4043 0.5121
vn 0.1738 0.4042 -0.8980
vn 0.7578 0.4042 -0.5121
vn 0.7578 0.4043 -0.5121
vn -0.1737 0.4042 0.8980
vn 0.5121 0.4043 0.7579
vn 0.1737 0.4042 -0.8980
vn -0.5121 0.4043 -0.7579
vn -0.4142 0.3228 0.8510
vn -0.9441 0.3228 0.0668
vn 0.9441 0.3228 -0.0668
vn 0.5299 0.3228 0.7842
vn 0.4142 0.3228 -0.8510
vn -0.5299 0.3228 -0.7842
vn 0.3851 0.7260 0.5698
vn -0.4158 0.3115 0.8544
vn 0.5320 0.3115 0.7874
vn -0.3010 0.7260 0.6184
vn -0.5320 0.3115 -0.7873
vn -0.6860 0.7260 0.0486
vn -0.3850 0.7260 -0.5699
vn -0.9479 0.3115 0.0671
vn 0.3009 0.7260 -0.6184
vn 0.9479 0.3115 -0.0671
vn 0.4159 0.3115 -0.8544
vn 0.6860 0.7260 -0.0485
vn 0.6860 0.7260 -0.0486
vn 0.5320 0.3115 0.7873
vn 0.3850 0.7260 0.5699
vn -0.3009 0.7259 0.6184
vn 0.3850 0.7259 0.5699
vn -0.3010 0.7259 0.6184
vn 0.6860 0.7259 -0.0485
vn -0.6860 0.7259 0.0485
vn 0.3010 0.7259 -0.6184
vn 0.3009 0.7259 -0.6184
vn -0.3850 0.7259 -0.5699
vn -0.5320 0.3116 -0.7873
vn 0.3010 0.7260 -0.6184
vn 0.4158 0.3115 -0.8544
vn 0.3009 0.7260 -0.6183
vn -0.3850 0.7260 -0.5698
vn -0.3009 0.7260 0.6184
vn -0.4159 0.3115 0.8544
vn -0.6860 0.7260 0.0485
vn 0.8510 0.3228 0.4142
vn 0.0668 0.3228 0.9441
vn 0.7842 0.3228 -0.5299
vn -0.7842 0.3228 0.5299
vn -0.8510 0.3228 -0.4142
vn -0.0668 0.3228 -0.9441
vn -0.3775 0.5060 0.7755
vn -0.8604 0.5060 0.0609
vn -0.7387 0.4530 0.4992
vn -0.3775 0.5060 0.7756
vn 0.7387 -0.4530 -0.4992
vn 0.8604 -0.5060 -0.0609
vn 0.3775 -0.5060 -0.7755
vn -0.0629 0.4530 -0.8893
vn 0.3775 0.5060 -0.7755
vn 0.3774 0.5060 -0.7755
vn -0.4829 0.5060 -0.7147
vn -0.3775 -0.5060 0.7756
vn -0.3775 -0.5060 0.7755
vn 0.0629 -0.4530 0.8893
vn 0.4829 -0.5060 0.7147
vn -0.8016 0.4530 -0.3901
vn -0.8016 0.4530 -0.3902
vn 0.8016 -0.4530 0.3901
vn 0.8016 -0.4530 0.3902
vn 0.4829 0.5060 0.7147
vn 0.0629 0.4529 0.8893
vn 0.0629 0.4530 0.8893
vn -0.3774 0.5060 0.7755
vn -0.4829 -0.5060 -0.7147
vn -0.0629 -0.4530 -0.8893
vn 0.3775 -0.5060 -0.7756
vn 0.8604 0.5060 -0.0609
vn 0.7387 0.4530 -0.4992
vn -0.7387 -0.4530 0.4992
vn -0.8604 -0.5060 0.0609
vn -0.3774 -0.5060 0.7755
vn 0.8016 0.4530 0.3902
vn 0.8016 0.4530 0.3901
vn 0.4829 0.5060 0.7146
vn -0.8016 -0.4530 -0.3902
vn -0.8016 -0.4530 -0.3901
vn -0.0609 0.5060 -0.8604
vn 0.7146 0.5060 -0.4829
vn 0.3902 0.4530 -0.8016
vn 0.7147 0.5060 -0.4829
vn -0.3901 -0.4530 0.8016
vn -0.7147 -0.5060 0.4829
vn 0.0609 -0.5060 0.8604
vn 0.7755 0.5060 0.3775
vn 0.4992 0.4530 0.7387
vn 0.7756 0.5060 0.3775
vn 0.0609 0.5060 0.8604
vn -0.7755 -0.5060 -0.3775
vn -0.4992 -0.4530 -0.7387
vn -0.0609 -0.5060 -0.8604
vn -0.7147 0.5060 0.4829
vn -0.7755 0.5060 -0.3775
vn -0.8893 0.4530 0.0629
vn -0.7756 0.5060 -0.3775
vn 0.8893 -0.4530 -0.0629
vn 0.7756 -0.5060 0.3775
vn 0.7147 -0.5060 -0.4829
vn 0.7146 -0.5060 -0.4829
vn -0.4992 0.4530 -0.7387
vn 0.4992 -0.4530 0.7387
vn 0.7755 -0.5060 0.3775
vn -0.3902 0.4530 0.8016
vn 0.3902 -0.4530 -0.8016
vn 0.8893 0.4530 -0.0629
vn -0.8893 -0.4530 0.0629
vn -0.7756 -0.5060 -0.3775
vn 0.3775 0.5060 -0.7756
vn -0.0629 0.4529 -0.8893
vn 0.0629 -0.4529 0.8893
vn 0.4829 0.5061 0.7146
vn 0.7387 -0.4529 -0.4992
vn -0.3774 0.5061 0.7755
vn -0.4829 -0.5060 -0.7146
vn -0.4829 -0.5061 -0.7146
vt 0.593750 0.025000
vt 0.593750 0.104996
vt 0.593750 0.225000
vt 0.093750 0.475000
vt 0.093750 0.275000
vt 0.093750 0.425000
vt 0.093750 0.348778
vt 0.093750 0.338765
vt 0.093750 0.344099
vt 0.093750 0.375000
vt 0.093750 0.325000
s 0
usemtl colormap.002
f 3/1/1 2/1/1 1/1/1
f 2/1/1 3/1/1 4/1/1
f 4/1/1 3/1/1 5/1/1
f 4/1/1 5/1/1 6/1/1
f 6/1/1 5/1/1 7/1/1
f 6/1/1 7/1/1 8/1/1
f 9/2/2 1/1/3 2/1/4
f 1/1/3 9/2/2 10/2/5
f 11/2/6 1/1/3 10/2/7
f 1/1/3 11/2/8 3/1/9
f 12/2/10 2/1/11 4/1/12
f 2/1/11 12/2/10 9/2/13
f 13/2/14 4/1/12 6/1/15
f 4/1/12 13/2/14 12/2/16
f 7/1/17 14/2/18 8/1/19
f 14/2/18 7/1/17 15/2/20
f 11/2/21 5/1/22 3/1/9
f 5/1/22 11/2/21 16/2/23
f 8/1/19 13/2/24 6/1/15
f 13/2/25 8/1/19 14/2/26
f 7/1/27 16/2/28 15/2/29
f 16/2/28 7/1/27 5/1/22
f 14/2/30 18/3/31 17/3/32
f 18/3/33 14/2/34 15/2/35
f 16/2/36 18/3/33 15/2/37
f 18/3/33 16/2/38 19/3/39
f 21/3/40 9/2/41 20/3/42
f 9/2/41 21/3/40 10/2/43
f 22/3/44 12/2/45 13/2/46
f 12/2/47 22/3/48 23/3/49
f 21/3/50 11/2/51 10/2/52
f 11/2/51 21/3/40 24/3/53
f 13/2/54 17/3/55 22/3/44
f 17/3/32 13/2/54 14/2/30
f 20/3/42 12/2/45 23/3/56
f 12/2/57 20/3/42 9/2/58
f 24/3/53 16/2/38 11/2/59
f 16/2/60 24/3/61 19/3/62
f 27/4/63 26/4/63 25/4/63
f 26/4/63 27/4/63 28/4/63
f 26/4/63 28/4/63 29/4/63
f 29/4/63 28/4/63 30/4/63
f 29/4/63 30/4/63 31/4/63
f 31/4/63 30/4/63 32/4/63
f 35/5/1 34/5/1 33/5/1
f 34/5/1 35/5/1 36/5/1
f 34/5/1 36/5/1 37/5/1
f 37/5/1 36/5/1 38/5/1
f 37/5/1 38/5/1 39/5/1
f 39/5/1 38/5/1 40/5/1
f 27/4/64 33/5/65 34/5/64
f 33/5/66 27/4/64 25/4/67
f 29/4/68 38/5/69 36/5/68
f 38/5/70 29/4/68 31/4/71
f 40/5/72 31/4/70 32/4/73
f 31/4/70 40/5/72 38/5/70
f 28/4/74 34/5/75 37/5/74
f 34/5/75 28/4/74 27/4/76
f 26/4/77 36/5/78 35/5/77
f 36/5/78 26/4/77 29/4/79
f 30/4/80 37/5/74 39/5/80
f 37/5/81 30/4/80 28/4/82
f 26/4/83 33/5/84 25/4/66
f 33/5/66 26/4/83 35/5/83
f 40/5/72 30/4/85 39/5/85
f 30/4/85 40/5/86 32/4/72
f 43/6/87 42/7/88 41/7/87
f 42/7/88 43/6/87 44/6/88
f 47/6/89 46/7/90 45/7/89
f 46/7/90 47/6/89 48/6/90
f 50/6/91 45/7/89 49/7/91
f 45/7/89 50/6/91 47/6/89
f 48/6/90 41/7/87 46/7/90
f 41/7/87 48/6/90 43/6/87
f 52/7/92 44/6/88 51/6/92
f 44/6/88 52/7/92 42/7/88
f 52/7/92 50/6/91 49/7/91
f 50/6/91 52/7/92 51/6/92
f 41/7/1 45/7/1 46/7/1
f 45/7/1 41/7/1 42/7/1
f 45/7/1 42/7/1 49/7/1
f 49/7/1 42/7/1 52/7/1
f 55/6/93 54/8/94 53/8/95
f 54/8/94 55/6/93 56/6/96
f 59/8/97 58/6/98 57/6/99
f 58/6/98 59/8/97 60/8/100
f 63/6/101 62/8/102 61/8/103
f 62/8/102 63/6/101 64/6/104
f 64/6/105 53/8/106 62/8/102
f 53/8/106 64/6/105 55/6/107
f 64/6/104 56/6/108 55/6/109
f 56/6/110 64/6/111 58/6/112
f 58/6/112 64/6/111 63/6/113
f 58/6/112 63/6/114 57/6/115
f 59/8/116 63/6/117 61/8/118
f 63/6/119 59/8/97 57/6/120
f 54/8/1 62/8/1 53/8/1
f 62/8/1 54/8/1 60/8/1
f 62/8/1 60/8/1 61/8/1
f 61/8/1 60/8/1 59/8/1
f 56/6/121 60/8/100 54/8/122
f 60/8/100 56/6/121 58/6/123
f 67/6/124 66/9/125 65/9/124
f 66/9/125 67/6/124 68/6/125
f 70/6/126 65/9/124 69/9/126
f 65/9/124 70/6/126 67/6/124
f 68/6/125 71/9/127 66/9/125
f 71/9/127 68/6/125 72/6/127
f 72/6/127 73/9/128 71/9/127
f 73/9/128 72/6/127 74/6/128
f 71/9/1 65/9/1 66/9/1
f 65/9/1 71/9/1 69/9/1
f 69/9/1 71/9/1 73/9/1
f 69/9/1 73/9/1 75/9/1
f 76/6/129 69/9/126 75/9/129
f 69/9/126 76/6/129 70/6/126
f 73/9/128 76/6/129 75/9/129
f 76/6/129 73/9/128 74/6/128
f 79/10/130 78/10/131 77/11/132
f 78/10/131 79/10/133 41/6/130
f 78/10/131 41/6/130 42/6/131
f 77/11/134 78/10/135 79/10/136
f 41/6/136 79/10/136 78/10/135
f 42/6/135 41/6/136 78/10/135
f 81/11/137 49/6/138 80/10/138
f 49/6/139 81/11/137 52/6/140
f 52/6/140 81/11/137 82/10/140
f 80/10/141 49/6/142 81/11/143
f 52/6/144 81/11/143 49/6/141
f 82/10/144 81/11/143 52/6/144
f 82/10/140 42/6/131 52/6/140
f 42/6/131 82/10/140 83/11/145
f 42/6/131 83/11/146 78/10/131
f 52/6/144 42/6/135 82/10/144
f 83/11/147 82/10/144 42/6/135
f 78/10/135 83/11/148 42/6/135
f 46/6/149 85/11/150 84/10/149
f 85/11/151 46/6/149 41/6/152
f 85/11/151 41/6/152 79/10/133
f 84/10/153 85/11/154 46/6/153
f 41/6/155 46/6/153 85/11/154
f 79/10/155 41/6/136 85/11/154
f 80/10/138 87/10/156 86/11/157
f 87/10/156 80/10/138 49/6/138
f 87/10/156 49/6/138 45/6/156
f 86/11/158 87/10/159 80/10/142
f 49/6/142 80/10/142 87/10/159
f 45/6/159 49/6/160 87/10/159
f 45/6/156 88/11/161 87/10/156
f 88/11/162 45/6/156 46/6/163
f 88/11/161 46/6/149 84/10/149
f 87/10/159 88/11/164 45/6/159
f 46/6/153 45/6/159 88/11/165
f 84/10/153 46/6/153 88/11/164
f 91/10/166 90/10/167 89/11/168
f 90/10/169 91/10/166 75/6/166
f 90/10/169 75/6/166 69/6/169
f 89/11/170 90/10/171 91/10/172
f 75/6/172 91/10/172 90/10/171
f 69/6/171 75/6/172 90/10/171
f 65/6/173 93/11/174 92/10/175
f 93/11/174 65/6/175 66/6/176
f 93/11/174 66/6/176 94/10/176
f 92/10/177 93/11/178 65/6/177
f 66/6/179 65/6/177 93/11/178
f 94/10/179 66/6/179 93/11/178
f 97/10/180 96/10/181 95/11/182
f 96/10/183 97/10/180 71/6/180
f 96/10/183 71/6/180 73/6/183
f 95/11/184 96/10/185 97/10/186
f 71/6/186 97/10/186 96/10/185
f 73/6/185 71/6/187 96/10/185
f 98/11/188 75/6/166 91/10/166
f 75/6/166 98/11/188 73/6/183
f 73/6/181 98/11/188 96/10/183
f 91/10/172 75/6/172 98/11/189
f 73/6/190 98/11/189 75/6/172
f 96/10/190 98/11/189 73/6/190
f 94/10/176 97/10/180 99/11/191
f 97/10/180 94/10/176 66/6/176
f 97/10/180 66/6/176 71/6/180
f 99/11/192 97/10/186 94/10/179
f 66/6/179 94/10/179 97/10/186
f 71/6/186 66/6/179 97/10/186
f 90/10/169 92/10/173 100/11/193
f 92/10/175 90/10/169 69/6/169
f 92/10/175 69/6/169 65/6/175
f 100/11/194 92/10/195 90/10/171
f 69/6/171 90/10/171 92/10/195
f 65/6/195 69/6/171 92/10/195
f 102/11/137 61/6/139 101/10/196
f 61/6/139 102/11/137 59/6/140
f 59/6/140 102/11/197 103/10/140
f 101/10/141 61/6/142 102/11/143
f 59/6/144 102/11/143 61/6/141
f 103/10/144 102/11/198 59/6/144
f 103/10/140 60/6/131 59/6/140
f 60/6/131 103/10/140 104/11/145
f 60/6/131 104/11/146 105/10/131
f 59/6/144 60/6/135 103/10/144
f 104/11/147 103/10/144 60/6/135
f 105/10/135 104/11/148 60/6/135
f 62/6/156 107/11/162 106/10/156
f 107/11/161 62/6/156 53/6/163
f 107/11/162 53/6/199 108/10/149
f 106/10/159 107/11/165 62/6/159
f 53/6/153 62/6/159 107/11/164
f 108/10/153 53/6/153 107/11/165
f 110/10/130 105/10/131 109/11/132
f 105/10/131 110/10/133 54/6/133
f 105/10/131 54/6/133 60/6/131
f 109/11/200 105/10/135 110/10/136
f 54/6/136 110/10/136 105/10/135
f 60/6/135 54/6/136 105/10/135
f 101/10/138 106/10/156 111/11/157
f 106/10/156 101/10/196 61/6/196
f 106/10/156 61/6/138 62/6/156
f 111/11/158 106/10/159 101/10/142
f 61/6/141 101/10/141 106/10/159
f 62/6/159 61/6/142 106/10/159
f 53/6/163 112/11/151 108/10/149
f 112/11/151 53/6/149 54/6/201
f 112/11/151 54/6/130 110/10/133
f 108/10/202 112/11/154 53/6/203
f 54/6/155 53/6/153 112/11/154
f 110/10/155 54/6/136 112/11/154
f 3/1/1 2/1/1 1/1/1
f 2/1/1 3/1/1 4/1/1
f 4/1/1 3/1/1 5/1/1
f 4/1/1 5/1/1 6/1/1
f 6/1/1 5/1/1 7/1/1
f 6/1/1 7/1/1 8/1/1
f 9/2/2 1/1/3 2/1/4
f 1/1/3 9/2/2 10/2/5
f 11/2/6 1/1/3 10/2/7
f 1/1/3 11/2/8 3/1/9
f 12/2/10 2/1/11 4/1/12
f 2/1/11 12/2/10 9/2/13
f 13/2/14 4/1/12 6/1/15
f 4/1/12 13/2/14 12/2/16
f 7/1/17 14/2/18 8/1/19
f 14/2/18 7/1/17 15/2/20
f 11/2/21 5/1/22 3/1/9
f 5/1/22 11/2/21 16/2/23
f 8/1/19 13/2/24 6/1/15
f 13/2/25 8/1/19 14/2/26
f 7/1/27 16/2/28 15/2/29
f 16/2/28 7/1/27 5/1/22
f 14/2/30 18/3/31 17/3/32
f 18/3/33 14/2/34 15/2/35
f 16/2/36 18/3/33 15/2/37
f 18/3/33 16/2/38 19/3/39
f 21/3/40 9/2/41 20/3/42
f 9/2/41 21/3/40 10/2/43
f 22/3/44 12/2/45 13/2/46
f 12/2/47 22/3/48 23/3/49
f 21/3/50 11/2/51 10/2/52
f 11/2/51 21/3/40 24/3/53
f 13/2/54 17/3/55 22/3/44
f 17/3/32 13/2/54 14/2/30
f 20/3/42 12/2/45 23/3/56
f 12/2/57 20/3/42 9/2/58
f 24/3/53 16/2/38 11/2/59
f 16/2/60 24/3/61 19/3/62
f 27/4/63 26/4/63 25/4/63
f 26/4/63 27/4/63 28/4/63
f 26/4/63 28/4/63 29/4/63
f 29/4/63 28/4/63 30/4/63
f 29/4/63 30/4/63 31/4/63
f 31/4/63 30/4/63 32/4/63
f 35/5/1 34/5/1 33/5/1
f 34/5/1 35/5/1 36/5/1
f 34/5/1 36/5/1 37/5/1
f 37/5/1 36/5/1 38/5/1
f 37/5/1 38/5/1 39/5/1
f 39/5/1 38/5/1 40/5/1
f 27/4/64 33/5/65 34/5/64
f 33/5/66 27/4/64 25/4/67
f 29/4/68 38/5/69 36/5/68
f 38/5/70 29/4/68 31/4/71
f 40/5/72 31/4/70 32/4/73
f 31/4/70 40/5/72 38/5/70
f 28/4/74 34/5/75 37/5/74
f 34/5/75 28/4/74 27/4/76
f 26/4/77 36/5/78 35/5/77
f 36/5/78 26/4/77 29/4/79
f 30/4/80 37/5/74 39/5/80
f 37/5/81 30/4/80 28/4/82
f 26/4/83 33/5/84 25/4/66
f 33/5/66 26/4/83 35/5/83
f 40/5/72 30/4/85 39/5/85
f 30/4/85 40/5/86 32/4/72
f 43/6/87 42/7/88 41/7/87
f 42/7/88 43/6/87 44/6/88
f 47/6/89 46/7/90 45/7/89
f 46/7/90 47/6/89 48/6/90
f 50/6/91 45/7/89 49/7/91
f 45/7/89 50/6/91 47/6/89
f 48/6/90 41/7/87 46/7/90
f 41/7/87 48/6/90 43/6/87
f 52/7/92 44/6/88 51/6/92
f 44/6/88 52/7/92 42/7/88
f 52/7/92 50/6/91 49/7/91
f 50/6/91 52/7/92 51/6/92
f 41/7/1 45/7/1 46/7/1
f 45/7/1 41/7/1 42/7/1
f 45/7/1 42/7/1 49/7/1
f 49/7/1 42/7/1 52/7/1
f 55/6/93 54/8/94 53/8/95
f 54/8/94 55/6/93 56/6/96
f 59/8/97 58/6/98 57/6/99
f 58/6/98 59/8/97 60/8/100
f 63/6/101 62/8/102 61/8/103
f 62/8/102 63/6/101 64/6/104
f 64/6/105 53/8/106 62/8/102
f 53/8/106 64/6/105 55/6/107
f 64/6/104 56/6/108 55/6/109
f 56/6/110 64/6/111 58/6/112
f 58/6/112 64/6/111 63/6/113
f 58/6/112 63/6/114 57/6/115
f 59/8/116 63/6/117 61/8/118
f 63/6/119 59/8/97 57/6/120
f 54/8/1 62/8/1 53/8/1
f 62/8/1 54/8/1 60/8/1
f 62/8/1 60/8/1 61/8/1
f 61/8/1 60/8/1 59/8/1
f 56/6/121 60/8/100 54/8/122
f 60/8/100 56/6/121 58/6/123
f 67/6/124 66/9/125 65/9/124
f 66/9/125 67/6/124 68/6/125
f 70/6/126 65/9/124 69/9/126
f 65/9/124 70/6/126 67/6/124
f 68/6/125 71/9/127 66/9/125
f 71/9/127 68/6/125 72/6/127
f 72/6/127 73/9/128 71/9/127
f 73/9/128 72/6/127 74/6/128
f 71/9/1 65/9/1 66/9/1
f 65/9/1 71/9/1 69/9/1
f 69/9/1 71/9/1 73/9/1
f 69/9/1 73/9/1 75/9/1
f 76/6/129 69/9/126 75/9/129
f 69/9/126 76/6/129 70/6/126
f 73/9/128 76/6/129 75/9/129
f 76/6/129 73/9/128 74/6/128
f 79/10/130 78/10/131 77/11/132
f 78/10/131 79/10/133 41/6/130
f 78/10/131 41/6/130 42/6/131
f 77/11/134 78/10/135 79/10/136
f 41/6/136 79/10/136 78/10/135
f 42/6/135 41/6/136 78/10/135
f 81/11/137 49/6/138 80/10/138
f 49/6/139 81/11/137 52/6/140
f 52/6/140 81/11/137 82/10/140
f 80/10/141 49/6/142 81/11/143
f 52/6/144 81/11/143 49/6/141
f 82/10/144 81/11/143 52/6/144
f 82/10/140 42/6/131 52/6/140
f 42/6/131 82/10/140 83/11/145
f 42/6/131 83/11/146 78/10/131
f 52/6/144 42/6/135 82/10/144
f 83/11/147 82/10/144 42/6/135
f 78/10/135 83/11/148 42/6/135
f 46/6/149 85/11/150 84/10/149
f 85/11/151 46/6/149 41/6/152
f 85/11/151 41/6/152 79/10/133
f 84/10/153 85/11/154 46/6/153
f 41/6/155 46/6/153 85/11/154
f 79/10/155 41/6/136 85/11/154
f 80/10/138 87/10/156 86/11/157
f 87/10/156 80/10/138 49/6/138
f 87/10/156 49/6/138 45/6/156
f 86/11/158 87/10/159 80/10/142
f 49/6/142 80/10/142 87/10/159
f 45/6/159 49/6/160 87/10/159
f 45/6/156 88/11/161 87/10/156
f 88/11/162 45/6/156 46/6/163
f 88/11/161 46/6/149 84/10/149
f 87/10/159 88/11/164 45/6/159
f 46/6/153 45/6/159 88/11/165
f 84/10/153 46/6/153 88/11/164
f 91/10/166 90/10/167 89/11/168
f 90/10/169 91/10/166 75/6/166
f 90/10/169 75/6/166 69/6/169
f 89/11/170 90/10/171 91/10/172
f 75/6/172 91/10/172 90/10/171
f 69/6/171 75/6/172 90/10/171
f 65/6/173 93/11/174 92/10/175
f 93/11/174 65/6/175 66/6/176
f 93/11/174 66/6/176 94/10/176
f 92/10/177 93/11/178 65/6/177
f 66/6/179 65/6/177 93/11/178
f 94/10/179 66/6/179 93/11/178
f 97/10/180 96/10/181 95/11/182
f 96/10/183 97/10/180 71/6/180
f 96/10/183 71/6/180 73/6/183
f 95/11/184 96/10/185 97/10/186
f 71/6/186 97/10/186 96/10/185
f 73/6/185 71/6/187 96/10/185
f 98/11/188 75/6/166 91/10/166
f 75/6/166 98/11/188 73/6/183
f 73/6/181 98/11/188 96/10/183
f 91/10/172 75/6/172 98/11/189
f 73/6/190 98/11/189 75/6/172
f 96/10/190 98/11/189 73/6/190
f 94/10/176 97/10/180 99/11/191
f 97/10/180 94/10/176 66/6/176
f 97/10/180 66/6/176 71/6/180
f 99/11/192 97/10/186 94/10/179
f 66/6/179 94/10/179 97/10/186
f 71/6/186 66/6/179 97/10/186
f 90/10/169 92/10/173 100/11/193
f 92/10/175 90/10/169 69/6/169
f 92/10/175 69/6/169 65/6/175
f 100/11/194 92/10/195 90/10/171
f 69/6/171 90/10/171 92/10/195
f 65/6/195 69/6/171 92/10/195
f 102/11/137 61/6/139 101/10/196
f 61/6/139 102/11/137 59/6/140
f 59/6/140 102/11/197 103/10/140
f 101/10/141 61/6/142 102/11/143
f 59/6/144 102/11/143 61/6/141
f 103/10/144 102/11/198 59/6/144
f 103/10/140 60/6/131 59/6/140
f 60/6/131 103/10/140 104/11/145
f 60/6/131 104/11/146 105/10/131
f 59/6/144 60/6/135 103/10/144
f 104/11/147 103/10/144 60/6/135
f 105/10/135 104/11/148 60/6/135
f 62/6/156 107/11/162 106/10/156
f 107/11/161 62/6/156 53/6/163
f 107/11/162 53/6/199 108/10/149
f 106/10/159 107/11/165 62/6/159
f 53/6/153 62/6/159 107/11/164
f 108/10/153 53/6/153 107/11/165
f 110/10/130 105/10/131 109/11/132
f 105/10/131 110/10/133 54/6/133
f 105/10/131 54/6/133 60/6/131
f 109/11/200 105/10/135 110/10/136
f 54/6/136 110/10/136 105/10/135
f 60/6/135 54/6/136 105/10/135
f 101/10/138 106/10/156 111/11/157
f 106/10/156 101/10/196 61/6/196
f 106/10/156 61/6/138 62/6/156
f 111/11/158 106/10/159 101/10/142
f 61/6/141 101/10/141 106/10/159
f 62/6/159 61/6/142 106/10/159
f 53/6/163 112/11/151 108/10/149
f 112/11/151 53/6/149 54/6/201
f 112/11/151 54/6/130 110/10/133
f 108/10/202 112/11/154 53/6/203
f 54/6/155 53/6/153 112/11/154
f 110/10/155 54/6/136 112/11/154
