# Blender 4.1.1
# www.blender.org
mtllib tree.027.mtl
o tree.027
v -3.249416 -0.382804 8.142030
v -3.045440 -0.382804 8.004197
v -3.420321 -0.382804 8.108957
v -3.012368 -0.382804 7.833292
v -3.558153 -0.382804 7.904981
v -3.150201 -0.382804 7.629316
v -3.525082 -0.382804 7.734077
v -3.321105 -0.382804 7.596244
v -3.165350 0.062918 7.936667
v -3.267339 0.062918 8.005583
v -3.352791 0.062918 7.989047
v -3.148814 0.062918 7.851214
v -3.217731 0.062918 7.749227
v -3.303183 0.062918 7.732690
v -3.405171 0.062918 7.801607
v -3.421707 0.062918 7.887059
v -3.307663 0.731552 7.698579
v -3.435149 0.731552 7.784724
v -3.455819 0.731552 7.891540
v -3.135373 0.731552 7.953549
v -3.262858 0.731552 8.039695
v -3.200848 0.731552 7.719249
v -3.114703 0.731552 7.846734
v -3.369673 0.731552 8.019025
v -3.121497 0.222058 8.004026
v -3.216131 0.222058 8.023363
v -3.068253 0.222058 7.923438
v -3.087590 0.222058 7.828803
v -3.296720 0.222058 7.970119
v -3.168179 0.222058 7.775559
v -3.316056 0.222058 7.875485
v -3.262813 0.222058 7.794896
v -3.081475 0.060318 8.063254
v -2.998073 0.060318 7.937018
v -3.229712 0.060318 8.093543
v -3.355948 0.060318 8.010140
v -3.028362 0.060318 7.788782
v -3.386236 0.060318 7.861904
v -3.154598 0.060318 7.705379
v -3.302835 0.060318 7.735668
v -3.560234 0.731552 8.410499
v -3.903486 0.731552 7.902526
v -3.450236 1.468507 8.184488
v -3.652756 1.468507 7.884782
v -2.680400 0.731552 7.815969
v -2.948691 0.731552 8.367221
v -2.931130 1.468507 7.833714
v -3.089423 1.468507 8.158954
v -3.023651 0.731552 7.307997
v -3.133650 1.468507 7.534008
v -3.494462 1.468507 7.559542
v -3.635195 0.731552 7.351275
v -3.094023 2.260255 8.152145
v -3.446640 2.260255 8.177100
v -3.246451 3.090716 7.926569
v -3.327499 3.090716 7.932305
v -3.337434 3.090716 7.791926
v -3.372991 3.090716 7.864984
v -3.489862 2.260255 7.566350
v -3.644559 2.260255 7.884202
v -3.137245 2.260255 7.541396
v -2.939326 2.260255 7.834293
v -3.256386 3.090716 7.786191
v -3.210895 3.090716 7.853512
v -2.843771 1.468507 8.077371
v -3.256757 1.468507 8.356438
v -3.086586 2.260255 7.959194
v -3.275820 2.260255 8.087066
v -2.878957 1.468507 7.580182
v -3.102708 2.260255 7.731377
v -3.704929 1.468507 8.138314
v -3.481177 2.260255 7.987119
v -3.740114 1.468507 7.641125
v -3.497300 2.260255 7.759302
v -3.327128 1.468507 7.362058
v -3.308065 2.260255 7.631430
v -3.828642 0.501650 8.221910
v -3.970756 0.616601 7.907287
v -3.589746 0.616601 8.471137
v -2.994139 0.616601 7.247359
v -3.337669 0.501649 7.213121
v -3.672952 0.616601 7.295398
v -3.874368 0.501649 7.575784
v -2.910933 0.616601 8.423098
v -3.246217 0.501649 8.505375
v -2.755244 0.501649 7.496585
v -2.613130 0.616601 7.811209
v -2.709518 0.501649 8.142712
v -3.061485 1.281595 7.385732
v -2.833528 1.375051 7.549484
v -3.330999 1.375051 7.307367
v -2.794472 1.375051 8.101365
v -2.997095 1.281595 8.295588
v -3.252887 1.375051 8.411128
v -3.817249 1.281595 7.896423
v -3.789413 1.375051 7.617131
v -3.750357 1.375051 8.169012
v -3.586791 1.281595 7.422907
v -3.522401 1.281595 8.332765
v -2.766637 1.281595 7.822073
v -3.120229 2.193974 7.506432
v -3.318308 2.127692 7.486690
v -3.511633 2.193974 7.534131
v -3.627770 2.127692 7.695802
v -3.683347 2.193974 7.886947
v -2.900538 2.193974 7.831549
v -2.956115 2.127692 8.022694
v -3.072252 2.193974 8.184364
v -3.601404 2.127692 8.068360
v -3.463657 2.193974 8.212064
v -2.982481 2.127692 7.650136
v -3.265577 2.127692 8.231806
vn -0.0000 -1.0000 -0.0000
vn 0.7944 0.2942 0.5314
vn 0.1870 0.2944 0.9372
vn 0.7998 0.2944 0.5232
vn 0.1967 0.2942 0.9353
vn -0.5313 0.2942 0.7944
vn 0.1966 0.2942 0.9353
vn -0.5313 0.2943 0.7944
vn -0.5231 0.2944 0.7998
vn 0.9353 0.2942 -0.1966
vn 0.7998 0.2944 0.5231
vn 0.9372 0.2944 -0.1870
vn 0.7944 0.2942 0.5313
vn 0.5314 0.2942 -0.7944
vn 0.5232 0.2944 -0.7998
vn 0.9353 0.2942 -0.1967
vn -0.7998 0.2944 -0.5232
vn -0.1967 0.2942 -0.9353
vn -0.1870 0.2944 -0.9372
vn -0.7944 0.2942 -0.5314
vn -0.5314 0.2942 0.7944
vn -0.9372 0.2944 0.1870
vn -0.9353 0.2942 0.1967
vn 0.5313 0.2943 -0.7944
vn 0.5231 0.2944 -0.7998
vn 0.5313 0.2942 -0.7944
vn -0.1966 0.2942 -0.9353
vn -0.7998 0.2944 -0.5231
vn -0.9353 0.2942 0.1966
vn -0.7944 0.2942 -0.5313
vn -0.2009 -0.0513 -0.9783
vn -0.8337 -0.0512 -0.5498
vn -0.1991 -0.0513 -0.9786
vn -0.8337 -0.0513 -0.5498
vn -0.8327 -0.0513 -0.5513
vn -0.9783 -0.0512 0.2008
vn -0.8328 -0.0512 -0.5513
vn -0.9783 -0.0513 0.2008
vn -0.9786 -0.0512 0.1991
vn 0.1991 -0.0512 0.9786
vn 0.8327 -0.0513 0.5513
vn 0.8337 -0.0513 0.5498
vn 0.2008 -0.0513 0.9783
vn 0.5498 -0.0513 -0.8337
vn 0.9783 -0.0513 -0.2008
vn 0.5513 -0.0513 -0.8327
vn 0.9783 -0.0513 -0.2009
vn 0.5498 -0.0512 -0.8337
vn 0.9786 -0.0513 -0.1991
vn 0.1991 -0.0513 0.9786
vn -0.5513 -0.0513 0.8328
vn 0.2008 -0.0512 0.9783
vn -0.5498 -0.0513 0.8337
vn 0.5513 -0.0513 -0.8328
vn -0.1991 -0.0512 -0.9786
vn -0.2008 -0.0512 -0.9783
vn 0.9786 -0.0512 -0.1991
vn 0.9783 -0.0512 -0.2008
vn 0.8328 -0.0512 0.5513
vn -0.9783 -0.0513 0.2009
vn -0.5513 -0.0513 0.8327
vn -0.5498 -0.0512 0.8337
vn -0.9786 -0.0513 0.1991
vn -0.0000 1.0000 -0.0000
vn 0.8980 0.4042 0.1738
vn 0.5121 0.4042 0.7578
vn 0.5121 0.4042 0.7579
vn 0.5121 0.4043 0.7578
vn -0.7579 0.4042 0.5121
vn -0.8980 0.4042 -0.1737
vn -0.8980 0.4042 -0.1738
vn -0.8980 0.4043 -0.1738
vn -0.5121 0.4042 -0.7579
vn -0.5121 0.4043 -0.7578
vn -0.5121 0.4042 -0.7578
vn 0.7579 0.4042 -0.5121
vn 0.8980 0.4042 0.1737
vn 0.8980 0.4043 0.1737
vn -0.1738 0.4042 0.8980
vn -0.7578 0.4042 0.5121
vn -0.7578 0.4043 0.5121
vn 0.1738 0.4042 -0.8980
vn 0.7578 0.4042 -0.5121
vn 0.7578 0.4043 -0.5121
vn -0.1737 0.4042 0.8980
vn 0.5121 0.4043 0.7579
vn 0.1737 0.4042 -0.8980
vn -0.5121 0.4043 -0.7579
vn -0.4142 0.3228 0.8510
vn -0.9441 0.3228 0.0668
vn 0.9441 0.3228 -0.0668
vn 0.5299 0.3228 0.7842
vn 0.4142 0.3228 -0.8510
vn -0.5299 0.3228 -0.7842
vn 0.3851 0.7260 0.5698
vn -0.4158 0.3115 0.8544
vn 0.5320 0.3115 0.7874
vn -0.3010 0.7260 0.6184
vn -0.5320 0.3115 -0.7873
vn -0.6860 0.7260 0.0486
vn -0.3850 0.7260 -0.5699
vn -0.9479 0.3115 0.0671
vn 0.3009 0.7260 -0.6184
vn 0.9479 0.3115 -0.0671
vn 0.4159 0.3115 -0.8544
vn 0.6860 0.7260 -0.0485
vn 0.6860 0.7260 -0.0486
vn 0.5320 0.3115 0.7873
vn 0.3850 0.7260 0.5699
vn 0.6860 0.7259 -0.0485
vn -0.3009 0.7259 0.6184
vn 0.3850 0.7259 0.5699
vn -0.3010 0.7259 0.6184
vn -0.6860 0.7259 0.0485
vn -0.6860 0.7260 0.0485
vn 0.3010 0.7259 -0.6184
vn 0.3009 0.7259 -0.6184
vn -0.3850 0.7259 -0.5699
vn -0.5320 0.3116 -0.7873
vn 0.3010 0.7260 -0.6184
vn 0.4158 0.3115 -0.8544
vn 0.3009 0.7260 -0.6183
vn -0.3850 0.7260 -0.5698
vn -0.3009 0.7260 0.6184
vn -0.4159 0.3115 0.8544
vn 0.8510 0.3228 0.4142
vn 0.0668 0.3228 0.9441
vn 0.7842 0.3228 -0.5299
vn -0.7842 0.3228 0.5299
vn -0.8510 0.3228 -0.4142
vn -0.0668 0.3228 -0.9441
vn -0.3775 0.5060 0.7755
vn -0.8604 0.5060 0.0609
vn -0.7387 0.4530 0.4992
vn 0.7387 -0.4530 -0.4992
vn 0.8604 -0.5060 -0.0609
vn 0.3775 -0.5060 -0.7755
vn 0.3774 -0.5060 -0.7755
vn -0.0629 0.4530 -0.8893
vn 0.3774 0.5060 -0.7755
vn 0.3775 0.5060 -0.7756
vn -0.4829 0.5060 -0.7147
vn -0.3775 -0.5060 0.7756
vn -0.3775 -0.5060 0.7755
vn 0.0629 -0.4530 0.8893
vn 0.4829 -0.5060 0.7147
vn -0.8016 0.4530 -0.3902
vn -0.8016 0.4530 -0.3901
vn 0.8016 -0.4530 0.3902
vn 0.8016 -0.4530 0.3901
vn 0.4829 0.5060 0.7147
vn 0.0629 0.4530 0.8893
vn -0.3774 0.5060 0.7755
vn -0.3775 0.5060 0.7756
vn -0.4829 -0.5060 -0.7147
vn -0.0629 -0.4530 -0.8893
vn 0.3775 -0.5060 -0.7756
vn 0.3775 0.5060 -0.7755
vn 0.8604 0.5060 -0.0609
vn 0.7387 0.4530 -0.4992
vn -0.7387 -0.4530 0.4992
vn -0.8604 -0.5060 0.0609
vn 0.8016 0.4530 0.3901
vn 0.4829 0.5060 0.7146
vn 0.8016 0.4530 0.3902
vn -0.8016 -0.4530 -0.3901
vn -0.0609 0.5060 -0.8604
vn 0.7146 0.5060 -0.4829
vn 0.3901 0.4530 -0.8016
vn 0.7147 0.5060 -0.4829
vn -0.3902 -0.4530 0.8016
vn -0.7147 -0.5060 0.4829
vn 0.0609 -0.5060 0.8604
vn 0.7755 0.5060 0.3775
vn 0.4992 0.4530 0.7387
vn 0.7756 0.5060 0.3775
vn 0.0609 0.5060 0.8604
vn -0.7755 -0.5060 -0.3775
vn -0.4992 -0.4530 -0.7387
vn -0.0609 -0.5060 -0.8604
vn -0.7147 0.5060 0.4829
vn -0.7755 0.5060 -0.3775
vn -0.8893 0.4530 0.0629
vn -0.7756 0.5060 -0.3775
vn 0.8893 -0.4530 -0.0629
vn 0.7756 -0.5060 0.3775
vn 0.7147 -0.5060 -0.4829
vn -0.4992 0.4530 -0.7387
vn 0.4992 -0.4530 0.7387
vn 0.7755 -0.5060 0.3775
vn 0.7755 -0.5060 0.3774
vn -0.7146 0.5061 0.4829
vn -0.3901 0.4530 0.8016
vn 0.3901 -0.4530 -0.8016
vn 0.7755 0.5060 0.3774
vn 0.8893 0.4530 -0.0629
vn -0.8893 -0.4530 0.0629
vn -0.7756 -0.5060 -0.3775
vn -0.0629 0.4529 -0.8893
vn -0.8016 -0.4530 -0.3902
vn -0.3775 0.5061 0.7755
vn -0.4829 -0.5060 -0.7146
vt 0.593750 0.025000
vt 0.593750 0.104996
vt 0.593750 0.225000
vt 0.093750 0.475000
vt 0.093750 0.275000
vt 0.093750 0.425000
vt 0.093750 0.348778
vt 0.093750 0.338765
vt 0.093750 0.344099
vt 0.093750 0.375000
vt 0.093750 0.325000
s 0
usemtl colormap.030
f 3/1/1 2/1/1 1/1/1
f 2/1/1 3/1/1 4/1/1
f 4/1/1 3/1/1 5/1/1
f 4/1/1 5/1/1 6/1/1
f 6/1/1 5/1/1 7/1/1
f 6/1/1 7/1/1 8/1/1
f 9/2/2 1/1/3 2/1/4
f 1/1/3 9/2/2 10/2/5
f 11/2/6 1/1/3 10/2/7
f 1/1/3 11/2/8 3/1/9
f 12/2/10 2/1/11 4/1/12
f 2/1/11 12/2/10 9/2/13
f 13/2/14 4/1/12 6/1/15
f 4/1/12 13/2/14 12/2/16
f 7/1/17 14/2/18 8/1/19
f 14/2/18 7/1/17 15/2/20
f 11/2/21 5/1/22 3/1/9
f 5/1/22 11/2/21 16/2/23
f 8/1/19 13/2/24 6/1/25
f 13/2/26 8/1/19 14/2/27
f 7/1/28 16/2/29 15/2/30
f 16/2/29 7/1/28 5/1/22
f 14/2/31 18/3/32 17/3/33
f 18/3/34 14/2/31 15/2/35
f 16/2/36 18/3/34 15/2/37
f 18/3/34 16/2/38 19/3/39
f 21/3/40 9/2/41 20/3/42
f 9/2/41 21/3/40 10/2/43
f 22/3/44 12/2/45 13/2/46
f 12/2/47 22/3/48 23/3/49
f 21/3/50 11/2/51 10/2/52
f 11/2/51 21/3/40 24/3/53
f 13/2/54 17/3/55 22/3/44
f 17/3/33 13/2/54 14/2/56
f 20/3/42 12/2/45 23/3/57
f 12/2/58 20/3/42 9/2/59
f 24/3/53 16/2/60 11/2/61
f 16/2/38 24/3/62 19/3/63
f 27/4/64 26/4/64 25/4/64
f 26/4/64 27/4/64 28/4/64
f 26/4/64 28/4/64 29/4/64
f 29/4/64 28/4/64 30/4/64
f 29/4/64 30/4/64 31/4/64
f 31/4/64 30/4/64 32/4/64
f 35/5/1 34/5/1 33/5/1
f 34/5/1 35/5/1 36/5/1
f 34/5/1 36/5/1 37/5/1
f 37/5/1 36/5/1 38/5/1
f 37/5/1 38/5/1 39/5/1
f 39/5/1 38/5/1 40/5/1
f 27/4/65 33/5/66 34/5/65
f 33/5/67 27/4/65 25/4/68
f 29/4/69 38/5/70 36/5/69
f 38/5/71 29/4/69 31/4/72
f 40/5/73 31/4/71 32/4/74
f 31/4/71 40/5/75 38/5/71
f 28/4/76 34/5/77 37/5/76
f 34/5/77 28/4/76 27/4/78
f 26/4/79 36/5/69 35/5/79
f 36/5/80 26/4/79 29/4/81
f 30/4/82 37/5/83 39/5/82
f 37/5/76 30/4/82 28/4/84
f 26/4/85 33/5/86 25/4/67
f 33/5/67 26/4/85 35/5/85
f 40/5/73 30/4/87 39/5/87
f 30/4/87 40/5/88 32/4/73
f 43/6/89 42/7/90 41/7/89
f 42/7/90 43/6/89 44/6/90
f 47/6/91 46/7/92 45/7/91
f 46/7/92 47/6/91 48/6/92
f 50/6/93 45/7/91 49/7/93
f 45/7/91 50/6/93 47/6/91
f 48/6/92 41/7/89 46/7/92
f 41/7/89 48/6/92 43/6/89
f 52/7/94 44/6/90 51/6/94
f 44/6/90 52/7/94 42/7/90
f 52/7/94 50/6/93 49/7/93
f 50/6/93 52/7/94 51/6/94
f 41/7/1 45/7/1 46/7/1
f 45/7/1 41/7/1 42/7/1
f 45/7/1 42/7/1 49/7/1
f 49/7/1 42/7/1 52/7/1
f 55/6/95 54/8/96 53/8/97
f 54/8/96 55/6/95 56/6/98
f 59/8/99 58/6/100 57/6/101
f 58/6/100 59/8/99 60/8/102
f 63/6/103 62/8/104 61/8/105
f 62/8/104 63/6/103 64/6/106
f 64/6/107 53/8/108 62/8/104
f 53/8/108 64/6/107 55/6/109
f 64/6/110 56/6/111 55/6/112
f 56/6/113 64/6/110 58/6/114
f 58/6/115 64/6/110 63/6/116
f 58/6/114 63/6/117 57/6/118
f 59/8/119 63/6/120 61/8/121
f 63/6/122 59/8/99 57/6/123
f 54/8/1 62/8/1 53/8/1
f 62/8/1 54/8/1 60/8/1
f 62/8/1 60/8/1 61/8/1
f 61/8/1 60/8/1 59/8/1
f 56/6/124 60/8/102 54/8/125
f 60/8/102 56/6/124 58/6/115
f 67/6/126 66/9/127 65/9/126
f 66/9/127 67/6/126 68/6/127
f 70/6/128 65/9/126 69/9/128
f 65/9/126 70/6/128 67/6/126
f 68/6/127 71/9/129 66/9/127
f 71/9/129 68/6/127 72/6/129
f 72/6/129 73/9/130 71/9/129
f 73/9/130 72/6/129 74/6/130
f 71/9/1 65/9/1 66/9/1
f 65/9/1 71/9/1 69/9/1
f 69/9/1 71/9/1 73/9/1
f 69/9/1 73/9/1 75/9/1
f 76/6/131 69/9/128 75/9/131
f 69/9/128 76/6/131 70/6/128
f 73/9/130 76/6/131 75/9/131
f 76/6/131 73/9/130 74/6/130
f 79/10/132 78/10/133 77/11/134
f 78/10/133 79/10/132 41/6/132
f 78/10/133 41/6/132 42/6/133
f 77/11/135 78/10/136 79/10/137
f 41/6/137 79/10/137 78/10/136
f 42/6/136 41/6/138 78/10/136
f 81/11/139 49/6/140 80/10/141
f 49/6/140 81/11/139 52/6/142
f 52/6/142 81/11/139 82/10/142
f 80/10/143 49/6/144 81/11/145
f 52/6/146 81/11/145 49/6/143
f 82/10/146 81/11/145 52/6/146
f 82/10/142 42/6/133 52/6/142
f 42/6/133 82/10/142 83/11/147
f 42/6/133 83/11/148 78/10/133
f 52/6/146 42/6/136 82/10/146
f 83/11/149 82/10/146 42/6/136
f 78/10/136 83/11/150 42/6/136
f 46/6/151 85/11/152 84/10/151
f 85/11/152 46/6/151 41/6/153
f 85/11/152 41/6/153 79/10/154
f 84/10/155 85/11/156 46/6/155
f 41/6/157 46/6/155 85/11/156
f 79/10/157 41/6/137 85/11/156
f 80/10/158 87/10/159 86/11/160
f 87/10/159 80/10/141 49/6/141
f 87/10/159 49/6/158 45/6/159
f 86/11/161 87/10/162 80/10/144
f 49/6/144 80/10/143 87/10/162
f 45/6/162 49/6/144 87/10/162
f 45/6/159 88/11/163 87/10/159
f 88/11/163 45/6/159 46/6/164
f 88/11/165 46/6/164 84/10/151
f 87/10/162 88/11/166 45/6/162
f 46/6/155 45/6/162 88/11/166
f 84/10/155 46/6/155 88/11/166
f 91/10/167 90/10/168 89/11/169
f 90/10/170 91/10/167 75/6/167
f 90/10/170 75/6/167 69/6/170
f 89/11/171 90/10/172 91/10/173
f 75/6/173 91/10/173 90/10/172
f 69/6/172 75/6/173 90/10/172
f 65/6/174 93/11/175 92/10/176
f 93/11/175 65/6/176 66/6/177
f 93/11/175 66/6/177 94/10/177
f 92/10/178 93/11/179 65/6/178
f 66/6/180 65/6/178 93/11/179
f 94/10/180 66/6/180 93/11/179
f 97/10/181 96/10/182 95/11/183
f 96/10/184 97/10/181 71/6/181
f 96/10/184 71/6/181 73/6/184
f 95/11/185 96/10/186 97/10/187
f 71/6/187 97/10/187 96/10/186
f 73/6/186 71/6/187 96/10/186
f 98/11/188 75/6/167 91/10/167
f 75/6/167 98/11/188 73/6/184
f 73/6/182 98/11/188 96/10/184
f 91/10/173 75/6/173 98/11/189
f 73/6/190 98/11/189 75/6/173
f 96/10/190 98/11/189 73/6/191
f 94/10/177 97/10/192 99/11/193
f 97/10/181 94/10/177 66/6/177
f 97/10/181 66/6/177 71/6/181
f 99/11/194 97/10/187 94/10/180
f 66/6/180 94/10/180 97/10/187
f 71/6/187 66/6/180 97/10/187
f 90/10/170 92/10/195 100/11/196
f 92/10/176 90/10/170 69/6/170
f 92/10/176 69/6/170 65/6/176
f 100/11/197 92/10/198 90/10/172
f 69/6/172 90/10/172 92/10/198
f 65/6/198 69/6/172 92/10/198
f 102/11/199 61/6/140 101/10/141
f 61/6/140 102/11/139 59/6/142
f 59/6/142 102/11/139 103/10/142
f 101/10/143 61/6/144 102/11/145
f 59/6/146 102/11/145 61/6/143
f 103/10/146 102/11/145 59/6/146
f 103/10/142 60/6/133 59/6/142
f 60/6/133 103/10/142 104/11/148
f 60/6/133 104/11/147 105/10/133
f 59/6/146 60/6/136 103/10/146
f 104/11/150 103/10/146 60/6/136
f 105/10/136 104/11/149 60/6/136
f 62/6/159 107/11/165 106/10/159
f 107/11/163 62/6/159 53/6/164
f 107/11/163 53/6/164 108/10/151
f 106/10/162 107/11/200 62/6/162
f 53/6/155 62/6/162 107/11/200
f 108/10/155 53/6/155 107/11/200
f 110/10/132 105/10/133 109/11/134
f 105/10/133 110/10/154 54/6/154
f 105/10/133 54/6/132 60/6/133
f 109/11/135 105/10/136 110/10/137
f 54/6/137 110/10/157 105/10/136
f 60/6/136 54/6/137 105/10/136
f 101/10/158 106/10/159 111/11/160
f 106/10/159 101/10/141 61/6/141
f 106/10/159 61/6/141 62/6/159
f 111/11/161 106/10/162 101/10/144
f 61/6/144 101/10/143 106/10/162
f 62/6/162 61/6/144 106/10/162
f 53/6/151 112/11/152 108/10/151
f 112/11/152 53/6/151 54/6/153
f 112/11/152 54/6/201 110/10/132
f 108/10/155 112/11/156 53/6/202
f 54/6/157 53/6/155 112/11/156
f 110/10/137 54/6/137 112/11/156
f 3/1/1 2/1/1 1/1/1
f 2/1/1 3/1/1 4/1/1
f 4/1/1 3/1/1 5/1/1
f 4/1/1 5/1/1 6/1/1
f 6/1/1 5/1/1 7/1/1
f 6/1/1 7/1/1 8/1/1
f 9/2/2 1/1/3 2/1/4
f 1/1/3 9/2/2 10/2/5
f 11/2/6 1/1/3 10/2/7
f 1/1/3 11/2/8 3/1/9
f 12/2/10 2/1/11 4/1/12
f 2/1/11 12/2/10 9/2/13
f 13/2/14 4/1/12 6/1/15
f 4/1/12 13/2/14 12/2/16
f 7/1/17 14/2/18 8/1/19
f 14/2/18 7/1/17 15/2/20
f 11/2/21 5/1/22 3/1/9
f 5/1/22 11/2/21 16/2/23
f 8/1/19 13/2/24 6/1/25
f 13/2/26 8/1/19 14/2/27
f 7/1/28 16/2/29 15/2/30
f 16/2/29 7/1/28 5/1/22
f 14/2/31 18/3/32 17/3/33
f 18/3/34 14/2/31 15/2/35
f 16/2/36 18/3/34 15/2/37
f 18/3/34 16/2/38 19/3/39
f 21/3/40 9/2/41 20/3/42
f 9/2/41 21/3/40 10/2/43
f 22/3/44 12/2/45 13/2/46
f 12/2/47 22/3/48 23/3/49
f 21/3/50 11/2/51 10/2/52
f 11/2/51 21/3/40 24/3/53
f 13/2/54 17/3/55 22/3/44
f 17/3/33 13/2/54 14/2/56
f 20/3/42 12/2/45 23/3/57
f 12/2/58 20/3/42 9/2/59
f 24/3/53 16/2/60 11/2/61
f 16/2/38 24/3/62 19/3/63
f 27/4/64 26/4/64 25/4/64
f 26/4/64 27/4/64 28/4/64
f 26/4/64 28/4/64 29/4/64
f 29/4/64 28/4/64 30/4/64
f 29/4/64 30/4/64 31/4/64
f 31/4/64 30/4/64 32/4/64
f 35/5/1 34/5/1 33/5/1
f 34/5/1 35/5/1 36/5/1
f 34/5/1 36/5/1 37/5/1
f 37/5/1 36/5/1 38/5/1
f 37/5/1 38/5/1 39/5/1
f 39/5/1 38/5/1 40/5/1
f 27/4/65 33/5/66 34/5/65
f 33/5/67 27/4/65 25/4/68
f 29/4/69 38/5/70 36/5/69
f 38/5/71 29/4/69 31/4/72
f 40/5/73 31/4/71 32/4/74
f 31/4/71 40/5/75 38/5/71
f 28/4/76 34/5/77 37/5/76
f 34/5/77 28/4/76 27/4/78
f 26/4/79 36/5/69 35/5/79
f 36/5/80 26/4/79 29/4/81
f 30/4/82 37/5/83 39/5/82
f 37/5/76 30/4/82 28/4/84
f 26/4/85 33/5/86 25/4/67
f 33/5/67 26/4/85 35/5/85
f 40/5/73 30/4/87 39/5/87
f 30/4/87 40/5/88 32/4/73
f 43/6/89 42/7/90 41/7/89
f 42/7/90 43/6/89 44/6/90
f 47/6/91 46/7/92 45/7/91
f 46/7/92 47/6/91 48/6/92
f 50/6/93 45/7/91 49/7/93
f 45/7/91 50/6/93 47/6/91
f 48/6/92 41/7/89 46/7/92
f 41/7/89 48/6/92 43/6/89
f 52/7/94 44/6/90 51/6/94
f 44/6/90 52/7/94 42/7/90
f 52/7/94 50/6/93 49/7/93
f 50/6/93 52/7/94 51/6/94
f 41/7/1 45/7/1 46/7/1
f 45/7/1 41/7/1 42/7/1
f 45/7/1 42/7/1 49/7/1
f 49/7/1 42/7/1 52/7/1
f 55/6/95 54/8/96 53/8/97
f 54/8/96 55/6/95 56/6/98
f 59/8/99 58/6/100 57/6/101
f 58/6/100 59/8/99 60/8/102
f 63/6/103 62/8/104 61/8/105
f 62/8/104 63/6/103 64/6/106
f 64/6/107 53/8/108 62/8/104
f 53/8/108 64/6/107 55/6/109
f 64/6/110 56/6/111 55/6/112
f 56/6/113 64/6/110 58/6/114
f 58/6/115 64/6/110 63/6/116
f 58/6/114 63/6/117 57/6/118
f 59/8/119 63/6/120 61/8/121
f 63/6/122 59/8/99 57/6/123
f 54/8/1 62/8/1 53/8/1
f 62/8/1 54/8/1 60/8/1
f 62/8/1 60/8/1 61/8/1
f 61/8/1 60/8/1 59/8/1
f 56/6/124 60/8/102 54/8/125
f 60/8/102 56/6/124 58/6/115
f 67/6/126 66/9/127 65/9/126
f 66/9/127 67/6/126 68/6/127
f 70/6/128 65/9/126 69/9/128
f 65/9/126 70/6/128 67/6/126
f 68/6/127 71/9/129 66/9/127
f 71/9/129 68/6/127 72/6/129
f 72/6/129 73/9/130 71/9/129
f 73/9/130 72/6/129 74/6/130
f 71/9/1 65/9/1 66/9/1
f 65/9/1 71/9/1 69/9/1
f 69/9/1 71/9/1 73/9/1
f 69/9/1 73/9/1 75/9/1
f 76/6/131 69/9/128 75/9/131
f 69/9/128 76/6/131 70/6/128
f 73/9/130 76/6/131 75/9/131
f 76/6/131 73/9/130 74/6/130
f 79/10/132 78/10/133 77/11/134
f 78/10/133 79/10/132 41/6/132
f 78/10/133 41/6/132 42/6/133
f 77/11/135 78/10/136 79/10/137
f 41/6/137 79/10/137 78/10/136
f 42/6/136 41/6/138 78/10/136
f 81/11/139 49/6/140 80/10/141
f 49/6/140 81/11/139 52/6/142
f 52/6/142 81/11/139 82/10/142
f 80/10/143 49/6/144 81/11/145
f 52/6/146 81/11/145 49/6/143
f 82/10/146 81/11/145 52/6/146
f 82/10/142 42/6/133 52/6/142
f 42/6/133 82/10/142 83/11/147
f 42/6/133 83/11/148 78/10/133
f 52/6/146 42/6/136 82/10/146
f 83/11/149 82/10/146 42/6/136
f 78/10/136 83/11/150 42/6/136
f 46/6/151 85/11/152 84/10/151
f 85/11/152 46/6/151 41/6/153
f 85/11/152 41/6/153 79/10/154
f 84/10/155 85/11/156 46/6/155
f 41/6/157 46/6/155 85/11/156
f 79/10/157 41/6/137 85/11/156
f 80/10/158 87/10/159 86/11/160
f 87/10/159 80/10/141 49/6/141
f 87/10/159 49/6/158 45/6/159
f 86/11/161 87/10/162 80/10/144
f 49/6/144 80/10/143 87/10/162
f 45/6/162 49/6/144 87/10/162
f 45/6/159 88/11/163 87/10/159
f 88/11/163 45/6/159 46/6/164
f 88/11/165 46/6/164 84/10/151
f 87/10/162 88/11/166 45/6/162
f 46/6/155 45/6/162 88/11/166
f 84/10/155 46/6/155 88/11/166
f 91/10/167 90/10/168 89/11/169
f 90/10/170 91/10/167 75/6/167
f 90/10/170 75/6/167 69/6/170
f 89/11/171 90/10/172 91/10/173
f 75/6/173 91/10/173 90/10/172
f 69/6/172 75/6/173 90/10/172
f 65/6/174 93/11/175 92/10/176
f 93/11/175 65/6/176 66/6/177
f 93/11/175 66/6/177 94/10/177
f 92/10/178 93/11/179 65/6/178
f 66/6/180 65/6/178 93/11/179
f 94/10/180 66/6/180 93/11/179
f 97/10/181 96/10/182 95/11/183
f 96/10/184 97/10/181 71/6/181
f 96/10/184 71/6/181 73/6/184
f 95/11/185 96/10/186 97/10/187
f 71/6/187 97/10/187 96/10/186
f 73/6/186 71/6/187 96/10/186
f 98/11/188 75/6/167 91/10/167
f 75/6/167 98/11/188 73/6/184
f 73/6/182 98/11/188 96/10/184
f 91/10/173 75/6/173 98/11/189
f 73/6/190 98/11/189 75/6/173
f 96/10/190 98/11/189 73/6/191
f 94/10/177 97/10/192 99/11/193
f 97/10/181 94/10/177 66/6/177
f 97/10/181 66/6/177 71/6/181
f 99/11/194 97/10/187 94/10/180
f 66/6/180 94/10/180 97/10/187
f 71/6/187 66/6/180 97/10/187
f 90/10/170 92/10/195 100/11/196
f 92/10/176 90/10/170 69/6/170
f 92/10/176 69/6/170 65/6/176
f 100/11/197 92/10/198 90/10/172
f 69/6/172 90/10/172 92/10/198
f 65/6/198 69/6/172 92/10/198
f 102/11/199 61/6/140 101/10/141
f 61/6/140 102/11/139 59/6/142
f 59/6/142 102/11/139 103/10/142
f 101/10/143 61/6/144 102/11/145
f 59/6/146 102/11/145 61/6/143
f 103/10/146 102/11/145 59/6/146
f 103/10/142 60/6/133 59/6/142
f 60/6/133 103/10/142 104/11/148
f 60/6/133 104/11/147 105/10/133
f 59/6/146 60/6/136 103/10/146
f 104/11/150 103/10/146 60/6/136
f 105/10/136 104/11/149 60/6/136
f 62/6/159 107/11/165 106/10/159
f 107/11/163 62/6/159 53/6/164
f 107/11/163 53/6/164 108/10/151
f 106/10/162 107/11/200 62/6/162
f 53/6/155 62/6/162 107/11/200
f 108/10/155 53/6/155 107/11/200
f 110/10/132 105/10/133 109/11/134
f 105/10/133 110/10/154 54/6/154
f 105/10/133 54/6/132 60/6/133
f 109/11/135 105/10/136 110/10/137
f 54/6/137 110/10/157 105/10/136
f 60/6/136 54/6/137 105/10/136
f 101/10/158 106/10/159 111/11/160
f 106/10/159 101/10/141 61/6/141
f 106/10/159 61/6/141 62/6/159
f 111/11/161 106/10/162 101/10/144
f 61/6/144 101/10/143 106/10/162
f 62/6/162 61/6/144 106/10/162
f 53/6/151 112/11/152 108/10/151
f 112/11/152 53/6/151 54/6/153
f 112/11/152 54/6/201 110/10/132
f 108/10/155 112/11/156 53/6/202
f 54/6/157 53/6/155 112/11/156
f 110/10/137 54/6/137 112/11/156
