# Blender 4.1.1
# www.blender.org
mtllib tree.018.mtl
o tree.018
v -0.132169 -0.282319 -12.895171
v 0.013974 -0.282319 -13.002900
v -0.259105 -0.282319 -12.914379
v 0.033181 -0.282319 -13.129835
v -0.366833 -0.282319 -13.060523
v -0.074547 -0.282319 -13.275979
v -0.347626 -0.282319 -13.187458
v -0.201482 -0.282319 -13.295187
v -0.076426 0.046402 -13.049040
v -0.149498 0.046402 -12.995176
v -0.212966 0.046402 -13.004779
v -0.066822 0.046402 -13.112508
v -0.120686 0.046402 -13.185579
v -0.184154 0.046402 -13.195183
v -0.257226 0.046402 -13.141318
v -0.266830 0.046402 -13.077850
v -0.188486 0.539521 -13.220183
v -0.279826 0.539521 -13.152854
v -0.291831 0.539521 -13.073519
v -0.053826 0.539521 -13.037504
v -0.145166 0.539521 -12.970175
v -0.109151 0.539521 -13.208179
v -0.041821 0.539521 -13.116839
v -0.224500 0.539521 -12.982180
v -0.042077 0.163768 -13.000728
v -0.111227 0.163768 -12.983622
v -0.005277 0.163768 -13.061722
v -0.022384 0.163768 -13.130871
v -0.172220 0.163768 -13.020421
v -0.083377 0.163768 -13.167672
v -0.189327 0.163768 -13.089571
v -0.152527 0.163768 -13.150564
v -0.010796 0.044485 -12.958293
v 0.046848 0.044485 -13.053834
v -0.119114 0.044485 -12.931496
v -0.214655 0.044485 -12.989140
v 0.020051 0.044485 -13.162152
v -0.241452 0.044485 -13.097458
v -0.075489 0.044485 -13.219796
v -0.183808 0.044485 -13.192999
v -0.353096 0.539521 -12.687953
v -0.621377 0.539521 -13.051900
v -0.278868 1.083027 -12.857819
v -0.437154 1.083027 -13.072549
v 0.277280 0.539521 -13.152628
v 0.096232 0.539521 -12.738316
v 0.093057 1.083027 -13.131979
v -0.013762 1.083027 -12.887533
v 0.008999 0.539521 -13.516577
v -0.065230 1.083027 -13.346711
v -0.330335 1.083027 -13.316995
v -0.440330 0.539521 -13.466212
v -0.017357 1.666943 -12.892411
v -0.276441 1.666943 -12.863371
v -0.136493 2.279410 -13.054029
v -0.196043 2.279410 -13.047355
v -0.207604 2.279410 -13.150498
v -0.231598 2.279410 -13.095590
v -0.326740 1.666943 -13.312118
v -0.431132 1.666943 -13.073224
v -0.067656 1.666943 -13.341157
v 0.087035 1.666943 -13.131304
v -0.148054 2.279410 -13.157172
v -0.112499 2.279410 -13.108939
v 0.164791 1.083027 -12.955071
v -0.131102 1.083027 -12.736957
v -0.017705 1.666943 -13.034819
v -0.153287 1.666943 -12.934875
v 0.123844 1.083027 -13.320379
v -0.036467 1.666943 -13.202208
v -0.467941 1.083027 -12.884150
v -0.307630 1.666943 -13.002322
v -0.508888 1.083027 -13.249457
v -0.326392 1.666943 -13.169710
v -0.212995 1.083027 -13.467572
v -0.190811 1.666943 -13.269651
v -0.556578 0.369968 -12.818811
v -0.670803 0.454744 -13.046361
v -0.373012 0.454744 -12.642378
v 0.028914 0.454744 -13.562151
v -0.225261 0.369968 -13.577003
v -0.469841 0.454744 -13.506246
v -0.609791 0.369968 -13.293551
v 0.125743 0.454744 -12.698282
v -0.118836 0.369968 -12.627526
v 0.212481 0.369968 -13.385716
v 0.326706 0.454744 -13.158169
v 0.265693 0.369968 -12.910978
v -0.016531 0.945179 -13.458152
v 0.156392 1.014103 -13.344372
v -0.217499 1.014103 -13.507756
v 0.201843 1.014103 -12.938879
v 0.058401 0.945179 -12.789639
v -0.126598 1.014103 -12.696773
v -0.558015 0.945179 -13.059002
v -0.545940 1.014103 -13.265648
v -0.500490 1.014103 -12.860156
v -0.402498 0.945179 -13.414889
v -0.327566 0.945179 -12.746376
v 0.213918 0.945179 -13.145527
v -0.056173 1.618061 -13.367435
v -0.202731 1.569178 -13.375999
v -0.343756 1.618061 -13.335201
v -0.424451 1.569178 -13.212561
v -0.459632 1.618061 -13.070029
v 0.115534 1.618061 -13.134499
v 0.080354 1.569178 -12.991969
v -0.000341 1.618061 -12.869328
v -0.393769 1.569178 -12.938825
v -0.287924 1.618061 -12.837092
v 0.049672 1.569178 -13.265703
v -0.141366 1.569178 -12.828528
vn -0.0000 -1.0000 -0.0000
vn 0.8155 0.2942 0.4984
vn 0.2253 0.2944 0.9288
vn 0.8205 0.2944 0.4900
vn 0.2253 0.2944 0.9287
vn 0.2348 0.2942 0.9264
vn -0.4983 0.2942 0.8155
vn 0.2252 0.2944 0.9288
vn 0.2348 0.2942 0.9265
vn -0.4983 0.2943 0.8155
vn -0.4899 0.2944 0.8206
vn 0.9265 0.2942 -0.2348
vn 0.8206 0.2944 0.4899
vn 0.9288 0.2944 -0.2252
vn 0.8205 0.2944 0.4899
vn 0.4984 0.2942 -0.8155
vn 0.9288 0.2944 -0.2253
vn 0.4900 0.2944 -0.8205
vn 0.9287 0.2944 -0.2253
vn 0.9264 0.2942 -0.2349
vn -0.8205 0.2944 -0.4900
vn -0.2349 0.2942 -0.9264
vn -0.2253 0.2944 -0.9288
vn -0.8155 0.2942 -0.4984
vn -0.4984 0.2942 0.8155
vn -0.9288 0.2944 0.2253
vn -0.4900 0.2944 0.8205
vn -0.9264 0.2942 0.2349
vn -0.2252 0.2944 -0.9288
vn 0.4983 0.2943 -0.8155
vn 0.4899 0.2944 -0.8206
vn 0.4983 0.2942 -0.8155
vn -0.2348 0.2942 -0.9265
vn -0.8205 0.2944 -0.4899
vn -0.9265 0.2942 0.2348
vn -0.8206 0.2944 -0.4899
vn -0.9288 0.2944 0.2252
vn -0.2407 -0.0513 -0.9692
vn -0.8555 -0.0512 -0.5152
vn -0.2390 -0.0513 -0.9697
vn -0.8555 -0.0513 -0.5152
vn -0.2408 -0.0513 -0.9692
vn -0.8546 -0.0513 -0.5167
vn -0.9692 -0.0512 0.2407
vn -0.8556 -0.0513 -0.5152
vn -0.8546 -0.0512 -0.5167
vn -0.9692 -0.0513 0.2407
vn -0.9697 -0.0512 0.2390
vn 0.2390 -0.0512 0.9697
vn 0.8546 -0.0513 0.5167
vn 0.8555 -0.0513 0.5152
vn 0.2407 -0.0513 0.9692
vn 0.5152 -0.0513 -0.8555
vn 0.9692 -0.0513 -0.2408
vn 0.5167 -0.0513 -0.8546
vn 0.5152 -0.0512 -0.8555
vn 0.9697 -0.0513 -0.2390
vn 0.2390 -0.0513 0.9697
vn -0.5167 -0.0513 0.8547
vn -0.5167 -0.0513 0.8546
vn -0.5152 -0.0513 0.8556
vn -0.2390 -0.0512 -0.9697
vn 0.5152 -0.0513 -0.8556
vn -0.2407 -0.0512 -0.9692
vn 0.8556 -0.0513 0.5152
vn 0.9692 -0.0513 -0.2407
vn 0.9697 -0.0512 -0.2390
vn 0.9692 -0.0512 -0.2407
vn 0.8546 -0.0512 0.5167
vn -0.5152 -0.0513 0.8555
vn -0.9692 -0.0513 0.2408
vn -0.5152 -0.0512 0.8555
vn -0.9697 -0.0513 0.2390
vn -0.0000 1.0000 -0.0000
vn 0.9044 0.4042 0.1369
vn 0.5427 0.4042 0.7362
vn 0.5427 0.4043 0.7362
vn -0.7363 0.4042 0.5427
vn -0.9044 0.4042 -0.1368
vn -0.9044 0.4043 -0.1368
vn -0.5427 0.4042 -0.7362
vn -0.9044 0.4042 -0.1369
vn -0.5427 0.4043 -0.7362
vn 0.7363 0.4042 -0.5427
vn 0.9044 0.4042 0.1368
vn 0.9044 0.4043 0.1368
vn -0.1369 0.4042 0.9044
vn -0.7362 0.4042 0.5427
vn -0.7362 0.4043 0.5427
vn 0.1369 0.4042 -0.9044
vn 0.7362 0.4042 -0.5427
vn 0.7362 0.4043 -0.5427
vn -0.1368 0.4042 0.9044
vn 0.5427 0.4043 0.7363
vn 0.5427 0.4042 0.7363
vn -0.5427 0.4042 -0.7363
vn 0.1368 0.4042 -0.9044
vn -0.3790 0.3228 0.8673
vn -0.9406 0.3228 0.1054
vn 0.9406 0.3228 -0.1054
vn 0.5616 0.3228 0.7619
vn 0.5616 0.3228 0.7618
vn 0.3790 0.3228 -0.8673
vn -0.5616 0.3228 -0.7619
vn -0.5616 0.3228 -0.7618
vn 0.4081 0.7260 0.5536
vn -0.3805 0.3115 0.8707
vn 0.5638 0.3115 0.7649
vn -0.2754 0.7260 0.6302
vn -0.5638 0.3115 -0.7649
vn -0.6835 0.7260 0.0767
vn -0.4080 0.7260 -0.5536
vn -0.6834 0.7260 0.0766
vn -0.9443 0.3115 0.1058
vn 0.2753 0.7260 -0.6302
vn 0.9443 0.3115 -0.1059
vn 0.3805 0.3115 -0.8707
vn 0.6835 0.7260 -0.0766
vn 0.6834 0.7260 -0.0766
vn 0.9443 0.3115 -0.1058
vn 0.6835 0.7260 -0.0767
vn 0.4080 0.7260 0.5536
vn 0.6835 0.7259 -0.0766
vn -0.2754 0.7259 0.6302
vn 0.4081 0.7259 0.5536
vn -0.6835 0.7259 0.0766
vn 0.2754 0.7259 -0.6302
vn -0.4080 0.7259 -0.5536
vn 0.2754 0.7260 -0.6302
vn 0.3805 0.3115 -0.8708
vn 0.2754 0.7260 -0.6301
vn -0.9443 0.3115 0.1059
vn -0.2753 0.7260 0.6302
vn -0.6835 0.7260 0.0766
vn 0.8673 0.3228 0.3790
vn 0.1054 0.3228 0.9406
vn 0.7618 0.3228 -0.5616
vn 0.7619 0.3228 -0.5616
vn -0.7618 0.3228 0.5616
vn -0.8673 0.3228 -0.3790
vn -0.7619 0.3228 0.5616
vn -0.1054 0.3228 -0.9406
vn -0.3454 0.5060 0.7904
vn -0.8571 0.5060 0.0961
vn -0.7176 0.4530 0.5290
vn -0.8572 0.5060 0.0961
vn 0.7176 -0.4530 -0.5290
vn 0.8572 -0.5060 -0.0961
vn 0.3454 -0.5060 -0.7904
vn -0.0993 0.4530 -0.8860
vn 0.3454 0.5060 -0.7903
vn 0.3454 0.5060 -0.7904
vn -0.5118 0.5060 -0.6943
vn -0.3454 -0.5060 0.7904
vn 0.0993 -0.4530 0.8860
vn 0.5118 -0.5060 0.6943
vn -0.8169 0.4530 -0.3570
vn 0.8571 -0.5060 -0.0961
vn 0.8169 -0.4530 0.3570
vn 0.5118 0.5060 0.6943
vn 0.0993 0.4529 0.8860
vn 0.0993 0.4530 0.8860
vn -0.3454 0.5061 0.7903
vn -0.5118 -0.5060 -0.6943
vn -0.0993 -0.4529 -0.8860
vn -0.0993 -0.4530 -0.8860
vn 0.8571 0.5060 -0.0961
vn 0.7176 0.4529 -0.5290
vn 0.8572 0.5060 -0.0961
vn -0.7176 -0.4529 0.5290
vn -0.8572 -0.5060 0.0961
vn -0.3454 -0.5060 0.7903
vn 0.8169 0.4530 0.3570
vn -0.8169 -0.4530 -0.3570
vn -0.8571 -0.5060 0.0961
vn -0.0961 0.5060 -0.8571
vn 0.6943 0.5060 -0.5118
vn 0.3570 0.4530 -0.8169
vn -0.0961 0.5060 -0.8572
vn -0.3570 -0.4530 0.8169
vn -0.6943 -0.5060 0.5118
vn 0.0961 -0.5060 0.8571
vn 0.0961 -0.5060 0.8572
vn 0.7903 0.5060 0.3454
vn 0.5290 0.4530 0.7176
vn 0.7904 0.5060 0.3454
vn 0.0961 0.5060 0.8571
vn 0.0961 0.5061 0.8571
vn 0.0961 0.5060 0.8572
vn -0.7903 -0.5060 -0.3454
vn -0.5290 -0.4530 -0.7176
vn -0.0961 -0.5060 -0.8572
vn -0.7904 -0.5060 -0.3454
vn -0.0961 -0.5060 -0.8571
vn -0.6943 0.5060 0.5118
vn -0.7903 0.5060 -0.3454
vn -0.8860 0.4530 0.0993
vn -0.7904 0.5060 -0.3454
vn 0.8860 -0.4530 -0.0993
vn 0.7904 -0.5060 0.3454
vn 0.6943 -0.5060 -0.5118
vn -0.5290 0.4529 -0.7176
vn -0.5290 0.4530 -0.7176
vn 0.5290 -0.4530 0.7176
vn 0.7903 -0.5060 0.3454
vn -0.3570 0.4529 0.8169
vn 0.3570 -0.4529 -0.8169
vn 0.8860 0.4530 -0.0993
vn -0.8860 -0.4530 0.0993
vn 0.3454 0.5061 -0.7903
vn -0.0993 0.4529 -0.8860
vn 0.0993 -0.4529 0.8860
vn 0.8169 -0.4529 0.3570
vn -0.7176 0.4529 0.5290
vn -0.3454 0.5060 0.7903
vn 0.3454 -0.5061 -0.7903
vn 0.7176 0.4530 -0.5290
vn -0.7176 -0.4530 0.5290
vt 0.593750 0.025000
vt 0.593750 0.104996
vt 0.593750 0.225000
vt 0.093750 0.475000
vt 0.093750 0.275000
vt 0.093750 0.425000
vt 0.093750 0.348778
vt 0.093750 0.338765
vt 0.093750 0.344099
vt 0.093750 0.375000
vt 0.093750 0.325000
s 0
usemtl colormap.002
f 3/1/1 2/1/1 1/1/1
f 2/1/1 3/1/1 4/1/1
f 4/1/1 3/1/1 5/1/1
f 4/1/1 5/1/1 6/1/1
f 6/1/1 5/1/1 7/1/1
f 6/1/1 7/1/1 8/1/1
f 9/2/2 1/1/3 2/1/4
f 1/1/5 9/2/2 10/2/6
f 11/2/7 1/1/8 10/2/9
f 1/1/8 11/2/10 3/1/11
f 12/2/12 2/1/13 4/1/14
f 2/1/15 12/2/12 9/2/2
f 13/2/16 4/1/17 6/1/18
f 4/1/19 13/2/16 12/2/20
f 7/1/21 14/2/22 8/1/23
f 14/2/22 7/1/21 15/2/24
f 11/2/25 5/1/26 3/1/27
f 5/1/26 11/2/25 16/2/28
f 8/1/29 13/2/30 6/1/31
f 13/2/32 8/1/29 14/2/33
f 7/1/34 16/2/35 15/2/24
f 16/2/35 7/1/36 5/1/37
f 14/2/38 18/3/39 17/3/40
f 18/3/41 14/2/42 15/2/43
f 16/2/44 18/3/45 15/2/46
f 18/3/45 16/2/47 19/3/48
f 21/3/49 9/2/50 20/3/51
f 9/2/50 21/3/49 10/2/52
f 22/3/53 12/2/54 13/2/55
f 12/2/54 22/3/56 23/3/57
f 21/3/58 11/2/59 10/2/52
f 11/2/60 21/3/49 24/3/61
f 13/2/55 17/3/62 22/3/63
f 17/3/40 13/2/55 14/2/64
f 20/3/65 12/2/66 23/3/67
f 12/2/68 20/3/65 9/2/69
f 24/3/70 16/2/71 11/2/60
f 16/2/71 24/3/72 19/3/73
f 27/4/74 26/4/74 25/4/74
f 26/4/74 27/4/74 28/4/74
f 26/4/74 28/4/74 29/4/74
f 29/4/74 28/4/74 30/4/74
f 29/4/74 30/4/74 31/4/74
f 31/4/74 30/4/74 32/4/74
f 35/5/1 34/5/1 33/5/1
f 34/5/1 35/5/1 36/5/1
f 34/5/1 36/5/1 37/5/1
f 37/5/1 36/5/1 38/5/1
f 37/5/1 38/5/1 39/5/1
f 39/5/1 38/5/1 40/5/1
f 27/4/75 33/5/76 34/5/75
f 33/5/76 27/4/75 25/4/77
f 29/4/78 38/5/79 36/5/78
f 38/5/79 29/4/78 31/4/80
f 40/5/81 31/4/82 32/4/83
f 31/4/82 40/5/81 38/5/82
f 28/4/84 34/5/85 37/5/84
f 34/5/85 28/4/84 27/4/86
f 26/4/87 36/5/88 35/5/87
f 36/5/88 26/4/87 29/4/89
f 30/4/90 37/5/91 39/5/90
f 37/5/91 30/4/90 28/4/92
f 26/4/93 33/5/94 25/4/95
f 33/5/95 26/4/93 35/5/93
f 40/5/96 30/4/97 39/5/97
f 30/4/97 40/5/83 32/4/96
f 43/6/98 42/7/99 41/7/98
f 42/7/99 43/6/98 44/6/99
f 47/6/100 46/7/101 45/7/100
f 46/7/102 47/6/100 48/6/102
f 50/6/103 45/7/100 49/7/103
f 45/7/100 50/6/103 47/6/100
f 48/6/101 41/7/98 46/7/101
f 41/7/98 48/6/101 43/6/98
f 52/7/104 44/6/99 51/6/105
f 44/6/99 52/7/104 42/7/99
f 52/7/104 50/6/103 49/7/103
f 50/6/103 52/7/105 51/6/104
f 41/7/1 45/7/1 46/7/1
f 45/7/1 41/7/1 42/7/1
f 45/7/1 42/7/1 49/7/1
f 49/7/1 42/7/1 52/7/1
f 55/6/106 54/8/107 53/8/108
f 54/8/107 55/6/106 56/6/109
f 59/8/110 58/6/111 57/6/112
f 58/6/113 59/8/110 60/8/114
f 63/6/115 62/8/116 61/8/117
f 62/8/116 63/6/115 64/6/118
f 64/6/119 53/8/108 62/8/120
f 53/8/108 64/6/121 55/6/122
f 64/6/123 56/6/124 55/6/125
f 56/6/124 64/6/123 58/6/126
f 58/6/126 64/6/123 63/6/127
f 58/6/126 63/6/127 57/6/128
f 59/8/110 63/6/129 61/8/130
f 63/6/131 59/8/110 57/6/112
f 54/8/1 62/8/1 53/8/1
f 62/8/1 54/8/1 60/8/1
f 62/8/1 60/8/1 61/8/1
f 61/8/1 60/8/1 59/8/1
f 56/6/109 60/8/132 54/8/107
f 60/8/132 56/6/133 58/6/134
f 67/6/135 66/9/136 65/9/135
f 66/9/136 67/6/135 68/6/136
f 70/6/137 65/9/135 69/9/138
f 65/9/135 70/6/138 67/6/135
f 68/6/136 71/9/139 66/9/136
f 71/9/139 68/6/136 72/6/139
f 72/6/139 73/9/140 71/9/141
f 73/9/140 72/6/141 74/6/140
f 71/9/1 65/9/1 66/9/1
f 65/9/1 71/9/1 69/9/1
f 69/9/1 71/9/1 73/9/1
f 69/9/1 73/9/1 75/9/1
f 76/6/142 69/9/137 75/9/142
f 69/9/137 76/6/142 70/6/137
f 73/9/140 76/6/142 75/9/142
f 76/6/142 73/9/140 74/6/140
f 79/10/143 78/10/144 77/11/145
f 78/10/146 79/10/143 41/6/143
f 78/10/146 41/6/143 42/6/146
f 77/11/147 78/10/148 79/10/149
f 41/6/149 79/10/149 78/10/148
f 42/6/148 41/6/149 78/10/148
f 81/11/150 49/6/151 80/10/152
f 49/6/151 81/11/150 52/6/153
f 52/6/153 81/11/150 82/10/153
f 80/10/154 49/6/154 81/11/155
f 52/6/156 81/11/155 49/6/154
f 82/10/156 81/11/155 52/6/156
f 82/10/153 42/6/146 52/6/153
f 42/6/146 82/10/153 83/11/157
f 42/6/146 83/11/157 78/10/146
f 52/6/156 42/6/158 82/10/156
f 83/11/159 82/10/156 42/6/158
f 78/10/148 83/11/159 42/6/158
f 46/6/160 85/11/161 84/10/160
f 85/11/162 46/6/160 41/6/163
f 85/11/161 41/6/143 79/10/143
f 84/10/164 85/11/165 46/6/164
f 41/6/149 46/6/164 85/11/166
f 79/10/149 41/6/149 85/11/166
f 80/10/152 87/10/167 86/11/168
f 87/10/169 80/10/152 49/6/152
f 87/10/169 49/6/152 45/6/169
f 86/11/170 87/10/171 80/10/154
f 49/6/154 80/10/154 87/10/171
f 45/6/171 49/6/172 87/10/171
f 45/6/167 88/11/173 87/10/169
f 88/11/173 45/6/169 46/6/160
f 88/11/173 46/6/160 84/10/160
f 87/10/171 88/11/174 45/6/175
f 46/6/164 45/6/171 88/11/174
f 84/10/164 46/6/164 88/11/174
f 91/10/176 90/10/177 89/11/178
f 90/10/177 91/10/179 75/6/179
f 90/10/177 75/6/179 69/6/177
f 89/11/180 90/10/181 91/10/182
f 75/6/183 91/10/183 90/10/181
f 69/6/181 75/6/182 90/10/181
f 65/6/184 93/11/185 92/10/186
f 93/11/185 65/6/186 66/6/187
f 93/11/185 66/6/188 94/10/189
f 92/10/190 93/11/191 65/6/190
f 66/6/192 65/6/193 93/11/191
f 94/10/192 66/6/194 93/11/191
f 97/10/195 96/10/196 95/11/197
f 96/10/198 97/10/195 71/6/195
f 96/10/198 71/6/195 73/6/198
f 95/11/199 96/10/200 97/10/201
f 71/6/201 97/10/201 96/10/200
f 73/6/200 71/6/201 96/10/200
f 98/11/202 75/6/176 91/10/179
f 75/6/176 98/11/203 73/6/198
f 73/6/198 98/11/203 96/10/198
f 91/10/183 75/6/183 98/11/204
f 73/6/200 98/11/204 75/6/183
f 96/10/200 98/11/204 73/6/205
f 94/10/189 97/10/195 99/11/206
f 97/10/195 94/10/189 66/6/189
f 97/10/195 66/6/189 71/6/195
f 99/11/207 97/10/201 94/10/192
f 66/6/194 94/10/192 97/10/201
f 71/6/201 66/6/192 97/10/201
f 90/10/177 92/10/184 100/11/208
f 92/10/186 90/10/177 69/6/177
f 92/10/186 69/6/177 65/6/186
f 100/11/209 92/10/193 90/10/181
f 69/6/181 90/10/181 92/10/193
f 65/6/193 69/6/181 92/10/193
f 102/11/150 61/6/210 101/10/152
f 61/6/210 102/11/150 59/6/153
f 59/6/153 102/11/211 103/10/153
f 101/10/172 61/6/172 102/11/155
f 59/6/156 102/11/155 61/6/154
f 103/10/156 102/11/212 59/6/156
f 103/10/153 60/6/146 59/6/153
f 60/6/146 103/10/153 104/11/157
f 60/6/146 104/11/157 105/10/146
f 59/6/156 60/6/158 103/10/156
f 104/11/159 103/10/156 60/6/158
f 105/10/148 104/11/213 60/6/158
f 62/6/169 107/11/173 106/10/169
f 107/11/173 62/6/169 53/6/160
f 107/11/173 53/6/160 108/10/160
f 106/10/171 107/11/174 62/6/175
f 53/6/164 62/6/171 107/11/174
f 108/10/164 53/6/164 107/11/174
f 110/10/143 105/10/144 109/11/214
f 105/10/146 110/10/143 54/6/143
f 105/10/146 54/6/215 60/6/146
f 109/11/147 105/10/148 110/10/149
f 54/6/149 110/10/149 105/10/148
f 60/6/158 54/6/216 105/10/148
f 101/10/152 106/10/167 111/11/217
f 106/10/169 101/10/152 61/6/152
f 106/10/169 61/6/152 62/6/169
f 111/11/218 106/10/171 101/10/154
f 61/6/172 101/10/154 106/10/171
f 62/6/171 61/6/154 106/10/171
f 53/6/160 112/11/162 108/10/160
f 112/11/162 53/6/160 54/6/163
f 112/11/162 54/6/215 110/10/143
f 108/10/164 112/11/166 53/6/164
f 54/6/149 53/6/164 112/11/166
f 110/10/149 54/6/149 112/11/166
f 3/1/1 2/1/1 1/1/1
f 2/1/1 3/1/1 4/1/1
f 4/1/1 3/1/1 5/1/1
f 4/1/1 5/1/1 6/1/1
f 6/1/1 5/1/1 7/1/1
f 6/1/1 7/1/1 8/1/1
f 9/2/2 1/1/3 2/1/4
f 1/1/5 9/2/2 10/2/6
f 11/2/7 1/1/8 10/2/9
f 1/1/8 11/2/10 3/1/11
f 12/2/12 2/1/13 4/1/14
f 2/1/15 12/2/12 9/2/2
f 13/2/16 4/1/17 6/1/18
f 4/1/19 13/2/16 12/2/20
f 7/1/21 14/2/22 8/1/23
f 14/2/22 7/1/21 15/2/24
f 11/2/25 5/1/26 3/1/27
f 5/1/26 11/2/25 16/2/28
f 8/1/29 13/2/30 6/1/31
f 13/2/32 8/1/29 14/2/33
f 7/1/34 16/2/35 15/2/24
f 16/2/35 7/1/36 5/1/37
f 14/2/38 18/3/39 17/3/40
f 18/3/41 14/2/42 15/2/43
f 16/2/44 18/3/45 15/2/46
f 18/3/45 16/2/47 19/3/48
f 21/3/49 9/2/50 20/3/51
f 9/2/50 21/3/49 10/2/52
f 22/3/53 12/2/54 13/2/55
f 12/2/54 22/3/56 23/3/57
f 21/3/58 11/2/59 10/2/52
f 11/2/60 21/3/49 24/3/61
f 13/2/55 17/3/62 22/3/63
f 17/3/40 13/2/55 14/2/64
f 20/3/65 12/2/66 23/3/67
f 12/2/68 20/3/65 9/2/69
f 24/3/70 16/2/71 11/2/60
f 16/2/71 24/3/72 19/3/73
f 27/4/74 26/4/74 25/4/74
f 26/4/74 27/4/74 28/4/74
f 26/4/74 28/4/74 29/4/74
f 29/4/74 28/4/74 30/4/74
f 29/4/74 30/4/74 31/4/74
f 31/4/74 30/4/74 32/4/74
f 35/5/1 34/5/1 33/5/1
f 34/5/1 35/5/1 36/5/1
f 34/5/1 36/5/1 37/5/1
f 37/5/1 36/5/1 38/5/1
f 37/5/1 38/5/1 39/5/1
f 39/5/1 38/5/1 40/5/1
f 27/4/75 33/5/76 34/5/75
f 33/5/76 27/4/75 25/4/77
f 29/4/78 38/5/79 36/5/78
f 38/5/79 29/4/78 31/4/80
f 40/5/81 31/4/82 32/4/83
f 31/4/82 40/5/81 38/5/82
f 28/4/84 34/5/85 37/5/84
f 34/5/85 28/4/84 27/4/86
f 26/4/87 36/5/88 35/5/87
f 36/5/88 26/4/87 29/4/89
f 30/4/90 37/5/91 39/5/90
f 37/5/91 30/4/90 28/4/92
f 26/4/93 33/5/94 25/4/95
f 33/5/95 26/4/93 35/5/93
f 40/5/96 30/4/97 39/5/97
f 30/4/97 40/5/83 32/4/96
f 43/6/98 42/7/99 41/7/98
f 42/7/99 43/6/98 44/6/99
f 47/6/100 46/7/101 45/7/100
f 46/7/102 47/6/100 48/6/102
f 50/6/103 45/7/100 49/7/103
f 45/7/100 50/6/103 47/6/100
f 48/6/101 41/7/98 46/7/101
f 41/7/98 48/6/101 43/6/98
f 52/7/104 44/6/99 51/6/105
f 44/6/99 52/7/104 42/7/99
f 52/7/104 50/6/103 49/7/103
f 50/6/103 52/7/105 51/6/104
f 41/7/1 45/7/1 46/7/1
f 45/7/1 41/7/1 42/7/1
f 45/7/1 42/7/1 49/7/1
f 49/7/1 42/7/1 52/7/1
f 55/6/106 54/8/107 53/8/108
f 54/8/107 55/6/106 56/6/109
f 59/8/110 58/6/111 57/6/112
f 58/6/113 59/8/110 60/8/114
f 63/6/115 62/8/116 61/8/117
f 62/8/116 63/6/115 64/6/118
f 64/6/119 53/8/108 62/8/120
f 53/8/108 64/6/121 55/6/122
f 64/6/123 56/6/124 55/6/125
f 56/6/124 64/6/123 58/6/126
f 58/6/126 64/6/123 63/6/127
f 58/6/126 63/6/127 57/6/128
f 59/8/110 63/6/129 61/8/130
f 63/6/131 59/8/110 57/6/112
f 54/8/1 62/8/1 53/8/1
f 62/8/1 54/8/1 60/8/1
f 62/8/1 60/8/1 61/8/1
f 61/8/1 60/8/1 59/8/1
f 56/6/109 60/8/132 54/8/107
f 60/8/132 56/6/133 58/6/134
f 67/6/135 66/9/136 65/9/135
f 66/9/136 67/6/135 68/6/136
f 70/6/137 65/9/135 69/9/138
f 65/9/135 70/6/138 67/6/135
f 68/6/136 71/9/139 66/9/136
f 71/9/139 68/6/136 72/6/139
f 72/6/139 73/9/140 71/9/141
f 73/9/140 72/6/141 74/6/140
f 71/9/1 65/9/1 66/9/1
f 65/9/1 71/9/1 69/9/1
f 69/9/1 71/9/1 73/9/1
f 69/9/1 73/9/1 75/9/1
f 76/6/142 69/9/137 75/9/142
f 69/9/137 76/6/142 70/6/137
f 73/9/140 76/6/142 75/9/142
f 76/6/142 73/9/140 74/6/140
f 79/10/143 78/10/144 77/11/145
f 78/10/146 79/10/143 41/6/143
f 78/10/146 41/6/143 42/6/146
f 77/11/147 78/10/148 79/10/149
f 41/6/149 79/10/149 78/10/148
f 42/6/148 41/6/149 78/10/148
f 81/11/150 49/6/151 80/10/152
f 49/6/151 81/11/150 52/6/153
f 52/6/153 81/11/150 82/10/153
f 80/10/154 49/6/154 81/11/155
f 52/6/156 81/11/155 49/6/154
f 82/10/156 81/11/155 52/6/156
f 82/10/153 42/6/146 52/6/153
f 42/6/146 82/10/153 83/11/157
f 42/6/146 83/11/157 78/10/146
f 52/6/156 42/6/158 82/10/156
f 83/11/159 82/10/156 42/6/158
f 78/10/148 83/11/159 42/6/158
f 46/6/160 85/11/161 84/10/160
f 85/11/162 46/6/160 41/6/163
f 85/11/161 41/6/143 79/10/143
f 84/10/164 85/11/165 46/6/164
f 41/6/149 46/6/164 85/11/166
f 79/10/149 41/6/149 85/11/166
f 80/10/152 87/10/167 86/11/168
f 87/10/169 80/10/152 49/6/152
f 87/10/169 49/6/152 45/6/169
f 86/11/170 87/10/171 80/10/154
f 49/6/154 80/10/154 87/10/171
f 45/6/171 49/6/172 87/10/171
f 45/6/167 88/11/173 87/10/169
f 88/11/173 45/6/169 46/6/160
f 88/11/173 46/6/160 84/10/160
f 87/10/171 88/11/174 45/6/175
f 46/6/164 45/6/171 88/11/174
f 84/10/164 46/6/164 88/11/174
f 91/10/176 90/10/177 89/11/178
f 90/10/177 91/10/179 75/6/179
f 90/10/177 75/6/179 69/6/177
f 89/11/180 90/10/181 91/10/182
f 75/6/183 91/10/183 90/10/181
f 69/6/181 75/6/182 90/10/181
f 65/6/184 93/11/185 92/10/186
f 93/11/185 65/6/186 66/6/187
f 93/11/185 66/6/188 94/10/189
f 92/10/190 93/11/191 65/6/190
f 66/6/192 65/6/193 93/11/191
f 94/10/192 66/6/194 93/11/191
f 97/10/195 96/10/196 95/11/197
f 96/10/198 97/10/195 71/6/195
f 96/10/198 71/6/195 73/6/198
f 95/11/199 96/10/200 97/10/201
f 71/6/201 97/10/201 96/10/200
f 73/6/200 71/6/201 96/10/200
f 98/11/202 75/6/176 91/10/179
f 75/6/176 98/11/203 73/6/198
f 73/6/198 98/11/203 96/10/198
f 91/10/183 75/6/183 98/11/204
f 73/6/200 98/11/204 75/6/183
f 96/10/200 98/11/204 73/6/205
f 94/10/189 97/10/195 99/11/206
f 97/10/195 94/10/189 66/6/189
f 97/10/195 66/6/189 71/6/195
f 99/11/207 97/10/201 94/10/192
f 66/6/194 94/10/192 97/10/201
f 71/6/201 66/6/192 97/10/201
f 90/10/177 92/10/184 100/11/208
f 92/10/186 90/10/177 69/6/177
f 92/10/186 69/6/177 65/6/186
f 100/11/209 92/10/193 90/10/181
f 69/6/181 90/10/181 92/10/193
f 65/6/193 69/6/181 92/10/193
f 102/11/150 61/6/210 101/10/152
f 61/6/210 102/11/150 59/6/153
f 59/6/153 102/11/211 103/10/153
f 101/10/172 61/6/172 102/11/155
f 59/6/156 102/11/155 61/6/154
f 103/10/156 102/11/212 59/6/156
f 103/10/153 60/6/146 59/6/153
f 60/6/146 103/10/153 104/11/157
f 60/6/146 104/11/157 105/10/146
f 59/6/156 60/6/158 103/10/156
f 104/11/159 103/10/156 60/6/158
f 105/10/148 104/11/213 60/6/158
f 62/6/169 107/11/173 106/10/169
f 107/11/173 62/6/169 53/6/160
f 107/11/173 53/6/160 108/10/160
f 106/10/171 107/11/174 62/6/175
f 53/6/164 62/6/171 107/11/174
f 108/10/164 53/6/164 107/11/174
f 110/10/143 105/10/144 109/11/214
f 105/10/146 110/10/143 54/6/143
f 105/10/146 54/6/215 60/6/146
f 109/11/147 105/10/148 110/10/149
f 54/6/149 110/10/149 105/10/148
f 60/6/158 54/6/216 105/10/148
f 101/10/152 106/10/167 111/11/217
f 106/10/169 101/10/152 61/6/152
f 106/10/169 61/6/152 62/6/169
f 111/11/218 106/10/171 101/10/154
f 61/6/172 101/10/154 106/10/171
f 62/6/171 61/6/154 106/10/171
f 53/6/160 112/11/162 108/10/160
f 112/11/162 53/6/160 54/6/163
f 112/11/162 54/6/215 110/10/143
f 108/10/164 112/11/166 53/6/164
f 54/6/149 53/6/164 112/11/166
f 110/10/149 54/6/149 112/11/166
