# Blender 4.1.1
# www.blender.org
mtllib fence_wide.001.mtl
o fence_wide.001
v -0.508922 -0.028981 -3.259397
v -0.508922 0.197895 -3.259397
v -0.508922 -0.028981 -3.245785
v -0.508922 0.211507 -3.245785
v -0.508922 0.211507 -3.273010
v -0.508922 0.197895 -3.273010
v -0.508922 -0.028981 -3.273010
v -0.508922 0.197895 -3.608785
v -0.508922 -0.028981 -3.608785
v -0.495309 0.197895 -3.273010
v -0.495309 0.197895 -3.608785
v -1.906475 0.197895 -3.259397
v -1.906475 0.197895 -3.273010
v -1.906475 0.197895 -3.608785
v -1.920088 0.197895 -3.608785
v -1.920088 0.197895 -3.273010
v -0.481697 0.211507 -3.245785
v -0.481697 0.211507 -3.273010
v -0.481697 -0.028981 -3.245785
v -0.495309 -0.028981 -3.608785
v -0.481697 -0.028981 -3.273010
v -1.933700 -0.028981 -3.273010
v -1.920088 -0.028981 -3.273010
v -1.933700 0.211507 -3.273010
v -1.906475 0.211507 -3.273010
v -1.906475 -0.028981 -3.273010
v -0.495309 -0.028981 -3.273010
v -1.906475 -0.028981 -3.259397
v -1.906475 -0.028981 -3.608785
v -1.906475 0.211507 -3.245785
v -1.906475 -0.028981 -3.245785
v -1.933700 -0.028981 -3.245785
v -1.933700 0.211507 -3.245785
v -1.920088 -0.028981 -3.608785
vn -1.0000 -0.0000 -0.0000
vn -0.0000 1.0000 -0.0000
vn -0.0000 -0.0000 1.0000
vn -0.0000 -0.0000 -1.0000
vn 1.0000 -0.0000 -0.0000
vn -0.0000 -0.0001 -1.0000
vn -0.0000 -1.0000 -0.0000
vn -0.9239 -0.0000 0.3827
vn -0.9239 0.2706 -0.2706
vn -0.9239 -0.0000 -0.3827
vn 0.9239 -0.0000 0.3827
vn 0.9239 -0.0000 -0.3827
vn 0.9239 0.2706 0.2706
vt 7.874016 0.000000
vt 7.283465 9.842520
vt 7.283465 0.000000
vt 7.874016 10.433070
vt 6.692914 10.433070
vt 6.692914 9.842520
vt -7.874015 9.842520
vt 6.692914 0.000000
vt -7.874015 0.000000
vt -30.905510 -7.874016
vt -30.314960 6.692914
vt -30.905510 6.692914
vt -30.314960 -7.874016
vt 30.314960 7.283464
vt -30.314960 7.283464
vt 30.314960 6.692914
vt 30.905510 -7.874016
vt 30.314960 -7.874016
vt 30.905510 6.692914
vt -31.496059 6.692914
vt -30.314960 7.874016
vt -31.496059 7.874016
vt 31.496059 10.433070
vt 30.314960 0.000000
vt 31.496059 0.000000
vt 30.314960 10.433070
vt -30.314960 9.842520
vt -30.905510 0.000000
vt -30.314960 0.000000
vt -30.905510 9.842520
vt -7.874016 10.433070
vt -6.692914 0.000000
vt -6.692914 10.433070
vt -7.874016 0.000000
vt 30.905510 0.000000
vt 31.496059 0.000000
vt 30.905510 9.842520
vt 30.314960 9.842520
vt -30.314960 0.000000
vt 30.314960 0.000000
vt -30.314960 10.433070
vt -31.496059 10.433070
vt -31.496059 0.000000
vt -30.905510 0.000000
vt -30.314960 0.000000
vt -6.692914 9.842520
vt 7.874016 0.000000
vt 7.874016 9.842520
vt -6.692914 0.000000
vt -7.283464 9.842520
vt -7.283464 0.000000
vt -7.874016 0.000000
vt 7.874016 0.000000
vt 6.692914 0.000000
vt -31.496059 0.000000
vt -7.874016 9.842520
vt -7.874016 -0.000000
vt 30.314960 7.874016
vt 31.496059 6.692914
vt 31.496059 7.874016
vt 7.874015 0.000000
vt 7.874015 9.842520
vt 30.314960 0.000000
vt 30.905510 0.000000
s 0
usemtl wood.041
f 3/1/1 2/2/1 1/3/1
f 4/4/1 2/2/1 3/1/1
f 5/5/1 2/2/1 4/4/1
f 2/2/1 5/5/1 6/6/1
f 8/7/1 7/8/1 6/6/1
f 7/8/1 8/7/1 9/9/1
f 11/10/2 6/11/2 10/12/2
f 6/11/2 11/10/2 8/13/2
f 6/11/2 12/14/2 2/15/2
f 12/14/2 6/11/2 13/16/2
f 15/17/2 13/16/2 14/18/2
f 13/16/2 15/17/2 16/19/2
f 18/20/2 4/21/2 17/22/2
f 4/21/2 18/20/2 5/11/2
f 17/23/3 3/24/3 19/25/3
f 3/24/3 17/23/3 4/26/3
f 8/27/4 20/28/4 9/29/4
f 20/28/4 8/27/4 11/30/4
f 17/31/5 21/32/5 18/33/5
f 21/32/5 17/31/5 19/34/5
f 24/23/4 23/35/4 22/36/4
f 23/35/4 24/23/4 16/37/4
f 16/37/6 24/23/6 13/38/6
f 13/38/4 24/23/4 25/26/4
f 13/38/4 7/39/4 26/40/4
f 7/39/4 13/38/4 6/27/4
f 5/41/4 10/30/4 6/27/4
f 18/42/4 10/30/4 5/41/4
f 21/43/4 10/30/4 18/42/4
f 10/30/4 21/43/4 27/44/4
f 1/24/3 12/27/3 28/45/3
f 12/27/3 1/24/3 2/38/3
f 13/46/5 29/47/5 14/48/5
f 29/47/5 13/46/5 26/49/5
f 30/31/5 13/46/5 25/33/5
f 13/46/5 30/31/5 12/50/5
f 12/50/5 30/31/5 28/51/5
f 28/51/5 30/31/5 31/52/5
f 32/53/1 24/5/1 22/54/1
f 24/5/1 32/53/1 33/4/1
f 31/45/3 33/42/3 32/55/3
f 33/42/3 31/45/3 30/41/3
f 23/54/1 15/56/1 34/57/1
f 15/56/1 23/54/1 16/6/1
f 28/15/7 7/16/7 1/14/7
f 7/16/7 28/15/7 26/11/7
f 26/11/8 28/15/9 31/21/10
f 34/10/7 26/11/7 31/21/7
f 26/11/7 34/10/7 29/13/7
f 34/10/7 31/21/7 23/12/7
f 23/12/7 31/21/7 32/22/7
f 23/12/7 32/22/7 22/20/7
f 7/16/11 3/58/12 1/14/13
f 20/17/7 3/58/7 7/16/7
f 27/19/7 3/58/7 20/17/7
f 21/59/7 3/58/7 27/19/7
f 3/58/7 21/59/7 19/60/7
f 20/17/7 7/16/7 9/18/7
f 24/59/2 30/58/2 25/16/2
f 30/58/2 24/59/2 33/60/2
f 10/46/5 20/61/5 11/62/5
f 20/61/5 10/46/5 27/32/5
f 15/37/4 29/63/4 34/64/4
f 29/63/4 15/37/4 14/38/4
