# Blender 4.1.1
# www.blender.org
mtllib tree.052.mtl
o tree.052
v -12.987754 -4.606890 5.151917
v -12.814707 -4.606890 5.235277
v -13.032597 -4.606890 5.023714
v -12.686505 -4.606890 5.190434
v -12.949237 -4.606890 4.850668
v -12.603145 -4.606890 5.017388
v -12.821034 -4.606890 4.805825
v -12.647988 -4.606890 4.889185
v -12.816289 -4.259123 5.127913
v -12.902811 -4.259123 5.086234
v -12.925234 -4.259123 5.022132
v -12.752187 -4.259123 5.105492
v -12.710507 -4.259123 5.018970
v -12.732930 -4.259123 4.954868
v -12.819452 -4.259123 4.913188
v -12.883554 -4.259123 4.935610
v -12.711694 -3.737433 4.938447
v -12.819847 -3.737433 4.886348
v -12.899975 -3.737433 4.914374
v -12.815893 -3.737433 5.154754
v -12.924047 -3.737433 5.102655
v -12.683667 -3.737433 5.018574
v -12.735766 -3.737433 5.126728
v -12.952074 -3.737433 5.022528
v -12.844470 -4.134956 5.183938
v -12.894682 -4.134956 5.127738
v -12.769228 -4.134956 5.188172
v -12.713029 -4.134956 5.137961
v -12.890448 -4.134956 5.052495
v -12.708794 -4.134956 5.062718
v -12.834249 -4.134956 5.002285
v -12.759005 -4.134956 5.006519
v -12.868675 -4.261151 5.234184
v -12.750813 -4.261151 5.240817
v -12.947326 -4.261151 5.146152
v -12.940693 -4.261151 5.028291
v -12.662782 -4.261151 5.162166
v -12.852663 -4.261151 4.949640
v -12.656149 -4.261151 5.044304
v -12.734799 -4.261151 4.956273
v -13.290835 -3.737433 5.047852
v -13.083241 -3.737433 4.616907
v -13.095265 -3.162436 5.033219
v -12.972784 -3.162436 4.778960
v -12.544418 -3.737433 5.407416
v -13.021423 -3.737433 5.443106
v -12.654876 -3.162436 5.245363
v -12.936312 -3.162436 5.266421
v -12.336823 -3.737433 4.976472
v -12.532394 -3.162436 4.991105
v -12.691347 -3.162436 4.757903
v -12.606235 -3.737433 4.581217
v -12.933529 -2.544689 5.260645
v -13.088872 -2.544689 5.032741
v -12.841342 -1.896736 5.069275
v -12.877047 -1.896736 5.016892
v -12.786317 -1.896736 4.955049
v -12.849535 -1.896736 4.959779
v -12.694131 -2.544689 4.763679
v -12.969172 -2.544689 4.784257
v -12.538787 -2.544689 4.991583
v -12.658485 -2.544689 5.240066
v -12.750611 -1.896736 5.007432
v -12.778125 -1.896736 5.064545
v -12.784813 -3.162436 5.399971
v -13.135175 -3.162436 5.231195
v -12.800533 -2.544689 5.189860
v -12.961074 -2.544689 5.112525
v -12.463469 -3.162436 5.180938
v -12.653291 -2.544689 5.089497
v -13.164190 -3.162436 4.843386
v -12.974369 -2.544689 4.934827
v -12.842845 -3.162436 4.624352
v -12.827125 -2.544689 4.834463
v -12.492484 -3.162436 4.793128
v -12.666586 -2.544689 4.911798
v -13.269144 -3.916811 4.792827
v -13.112876 -3.827122 4.573429
v -13.343306 -3.827122 5.051777
v -12.284352 -3.827122 4.972546
v -12.396223 -3.916811 4.727515
v -12.583400 -3.827122 4.533813
v -12.851538 -3.916811 4.508180
v -13.044260 -3.827122 5.490510
v -13.231437 -3.916811 5.296808
v -12.358515 -3.916811 5.231496
v -12.514783 -3.827122 5.450894
v -12.776121 -3.916811 5.516143
v -12.404089 -3.308271 4.981504
v -12.424929 -3.235354 5.199503
v -12.457136 -3.235354 4.769034
v -12.781622 -3.235354 5.442631
v -12.992149 -3.308271 5.382336
v -13.170523 -3.235354 5.255289
v -13.045249 -3.308271 4.672644
v -12.846038 -3.235354 4.581693
v -13.202731 -3.235354 4.824820
v -12.635509 -3.308271 4.641987
v -13.223570 -3.308271 5.042819
v -12.582409 -3.308271 5.351679
v -12.508533 -2.596404 4.989319
v -12.573036 -2.648118 4.848034
v -12.680964 -2.596404 4.736345
v -12.835572 -2.648118 4.721565
v -12.986260 -2.596404 4.759188
v -12.641398 -2.596404 5.265136
v -12.792087 -2.648118 5.302758
v -12.946696 -2.596404 5.287978
v -13.076364 -2.648118 4.885693
v -13.119126 -2.596404 5.035004
v -12.551294 -2.648118 5.138630
v -13.054622 -2.648118 5.176290
vn -0.0000 -1.0000 -0.0000
vn -0.0592 0.2942 0.9539
vn -0.7156 0.2944 0.6335
vn -0.0493 0.2944 0.9544
vn -0.7090 0.2942 0.6409
vn -0.9539 0.2942 -0.0591
vn -0.7156 0.2944 0.6334
vn -0.7091 0.2942 0.6408
vn -0.9539 0.2943 -0.0591
vn -0.9544 0.2944 -0.0493
vn 0.6408 0.2942 0.7091
vn 0.6334 0.2944 0.7156
vn -0.0591 0.2942 0.9539
vn 0.9539 0.2942 0.0592
vn 0.6335 0.2944 0.7156
vn 0.9544 0.2944 0.0493
vn 0.6409 0.2942 0.7090
vn 0.0493 0.2944 -0.9544
vn 0.7090 0.2942 -0.6409
vn 0.7156 0.2944 -0.6335
vn 0.0592 0.2942 -0.9539
vn -0.9539 0.2942 -0.0592
vn -0.6335 0.2944 -0.7156
vn -0.6409 0.2942 -0.7090
vn 0.7156 0.2944 -0.6334
vn 0.9539 0.2943 0.0591
vn 0.9539 0.2942 0.0591
vn 0.7091 0.2942 -0.6408
vn -0.6408 0.2942 -0.7091
vn 0.0591 0.2942 -0.9539
vn -0.6334 0.2944 -0.7156
vn 0.7441 -0.0513 -0.6661
vn 0.0553 -0.0512 -0.9972
vn 0.7453 -0.0513 -0.6648
vn 0.0553 -0.0513 -0.9972
vn 0.0571 -0.0513 -0.9971
vn -0.6660 -0.0512 -0.7442
vn 0.0552 -0.0513 -0.9972
vn 0.0570 -0.0512 -0.9971
vn -0.6660 -0.0513 -0.7442
vn -0.6647 -0.0512 -0.7453
vn -0.7453 -0.0512 0.6648
vn -0.0571 -0.0513 0.9971
vn -0.0553 -0.0513 0.9972
vn -0.7441 -0.0513 0.6661
vn 0.9972 -0.0513 0.0553
vn 0.6661 -0.0513 0.7441
vn 0.9971 -0.0513 0.0571
vn 0.9972 -0.0512 0.0553
vn 0.6648 -0.0513 0.7453
vn -0.7453 -0.0513 0.6647
vn -0.9971 -0.0513 -0.0570
vn -0.7453 -0.0512 0.6647
vn -0.9972 -0.0513 -0.0552
vn 0.9971 -0.0513 0.0570
vn 0.7453 -0.0512 -0.6647
vn 0.9972 -0.0513 0.0552
vn 0.7453 -0.0513 -0.6647
vn -0.0552 -0.0513 0.9972
vn 0.6660 -0.0513 0.7442
vn 0.6647 -0.0512 0.7453
vn 0.6660 -0.0512 0.7442
vn -0.0570 -0.0512 0.9971
vn -0.9972 -0.0513 -0.0553
vn -0.6661 -0.0513 -0.7441
vn -0.9971 -0.0513 -0.0571
vn -0.9972 -0.0512 -0.0553
vn -0.6648 -0.0513 -0.7453
vn -0.0000 1.0000 -0.0000
vn 0.3020 0.4042 0.8634
vn -0.3969 0.4042 0.8240
vn -0.3969 0.4042 0.8241
vn -0.8240 0.4042 -0.3970
vn -0.3020 0.4042 -0.8634
vn -0.3020 0.4043 -0.8633
vn 0.3969 0.4042 -0.8240
vn 0.3969 0.4043 -0.8240
vn 0.3969 0.4042 -0.8241
vn 0.8240 0.4042 0.3970
vn 0.3020 0.4043 0.8633
vn -0.8634 0.4042 0.3020
vn -0.8241 0.4042 -0.3969
vn -0.8240 0.4043 -0.3969
vn 0.8634 0.4042 -0.3020
vn 0.8241 0.4042 0.3969
vn 0.8634 0.4042 -0.3019
vn 0.8240 0.4043 0.3970
vn -0.3970 0.4043 0.8240
vn -0.3970 0.4042 0.8240
vn 0.3970 0.4042 -0.8240
vn -0.9438 0.3228 0.0706
vn -0.5331 0.3228 -0.7821
vn 0.5331 0.3228 0.7821
vn -0.4107 0.3228 0.8527
vn 0.9438 0.3228 -0.0706
vn -0.4108 0.3228 0.8527
vn 0.4107 0.3228 -0.8527
vn 0.4108 0.3228 -0.8527
vn -0.2984 0.7260 0.6196
vn -0.9476 0.3115 0.0709
vn -0.4124 0.3115 0.8561
vn -0.6858 0.7260 0.0513
vn 0.4124 0.3115 -0.8561
vn -0.3874 0.7260 -0.5682
vn 0.2985 0.7260 -0.6196
vn -0.5352 0.3115 -0.7852
vn 0.6858 0.7260 -0.0514
vn 0.5352 0.3115 0.7852
vn 0.9476 0.3115 -0.0709
vn 0.5351 0.3115 0.7852
vn 0.6858 0.7260 -0.0513
vn 0.3873 0.7260 0.5683
vn 0.3874 0.7260 0.5683
vn -0.2985 0.7260 0.6196
vn 0.3873 0.7259 0.5683
vn -0.6858 0.7259 0.0513
vn -0.2985 0.7259 0.6196
vn -0.3873 0.7259 -0.5683
vn 0.6858 0.7259 -0.0513
vn 0.2985 0.7259 -0.6196
vn 0.2984 0.7260 -0.6196
vn -0.6858 0.7260 0.0514
vn -0.3873 0.7260 -0.5683
vn 0.0706 0.3228 0.9438
vn -0.7821 0.3228 0.5331
vn 0.8527 0.3228 0.4108
vn -0.7821 0.3228 0.5330
vn -0.8527 0.3228 -0.4107
vn -0.8527 0.3228 -0.4108
vn -0.0706 0.3228 -0.9438
vn 0.7821 0.3228 -0.5330
vn 0.8527 0.3228 0.4107
vn 0.7821 0.3228 -0.5331
vn -0.8601 0.5060 0.0644
vn -0.4858 0.5060 -0.7127
vn -0.8032 0.4530 -0.3869
vn 0.8032 -0.4530 0.3869
vn 0.4858 -0.5060 0.7127
vn 0.8601 -0.5060 -0.0644
vn 0.7367 0.4530 -0.5021
vn 0.8601 0.5060 -0.0644
vn 0.8601 0.5060 -0.0643
vn 0.3743 0.5060 -0.7771
vn -0.8601 -0.5060 0.0644
vn -0.7367 -0.4530 0.5021
vn -0.3743 -0.5060 0.7771
vn -0.0665 0.4530 -0.8890
vn 0.0665 -0.4530 0.8890
vn -0.3743 0.5060 0.7771
vn -0.7367 0.4530 0.5021
vn -0.8601 0.5060 0.0643
vn 0.3743 -0.5060 -0.7771
vn 0.7367 -0.4530 -0.5021
vn 0.4858 0.5060 0.7127
vn 0.8032 0.4530 0.3869
vn -0.8032 -0.4530 -0.3869
vn -0.4858 -0.5060 -0.7127
vn 0.0665 0.4530 0.8890
vn -0.3743 0.5060 0.7770
vn 0.0665 0.4530 0.8891
vn -0.0665 -0.4530 -0.8890
vn -0.0665 -0.4529 -0.8891
vn 0.7127 0.5060 -0.4858
vn 0.7771 0.5060 0.3743
vn 0.8890 0.4530 -0.0665
vn -0.8890 -0.4530 0.0665
vn -0.7771 -0.5060 -0.3743
vn -0.7127 -0.5060 0.4858
vn 0.0643 0.5060 0.8601
vn -0.3869 0.4530 0.8032
vn 0.0644 0.5060 0.8601
vn -0.7127 0.5060 0.4858
vn -0.0644 -0.5060 -0.8601
vn 0.3869 -0.4530 -0.8032
vn -0.0643 -0.5060 -0.8601
vn 0.7127 -0.5060 -0.4858
vn -0.7771 0.5060 -0.3743
vn -0.0644 0.5060 -0.8601
vn -0.5021 0.4530 -0.7367
vn 0.5021 -0.4530 0.7367
vn 0.0644 -0.5060 0.8601
vn 0.7771 -0.5060 0.3743
vn 0.3869 0.4530 -0.8032
vn 0.3869 0.4529 -0.8032
vn -0.3869 -0.4530 0.8032
vn -0.3869 -0.4529 0.8032
vn -0.8891 0.4530 0.0665
vn 0.8891 -0.4529 -0.0665
vn 0.5021 0.4530 0.7367
vn -0.5021 -0.4530 -0.7367
vn 0.8601 0.5061 -0.0643
vn -0.7367 -0.4529 0.5021
vn 0.4858 -0.5061 0.7127
vn -0.8032 0.4529 -0.3869
vn 0.8032 -0.4529 0.3869
vn 0.8601 -0.5060 -0.0643
vn -0.8601 -0.5060 0.0643
vn 0.3743 -0.5060 -0.7770
vt 0.593750 0.025000
vt 0.593750 0.104996
vt 0.593750 0.225000
vt 0.093750 0.475000
vt 0.093750 0.275000
vt 0.093750 0.425000
vt 0.093750 0.348778
vt 0.093750 0.338765
vt 0.093750 0.344099
vt 0.093750 0.375000
vt 0.093750 0.325000
s 0
usemtl colormap.002
f 3/1/1 2/1/1 1/1/1
f 2/1/1 3/1/1 4/1/1
f 4/1/1 3/1/1 5/1/1
f 4/1/1 5/1/1 6/1/1
f 6/1/1 5/1/1 7/1/1
f 6/1/1 7/1/1 8/1/1
f 9/2/2 1/1/3 2/1/4
f 1/1/3 9/2/2 10/2/5
f 11/2/6 1/1/7 10/2/8
f 1/1/7 11/2/9 3/1/10
f 12/2/11 2/1/4 4/1/12
f 2/1/4 12/2/11 9/2/13
f 13/2/14 4/1/15 6/1/16
f 4/1/15 13/2/14 12/2/17
f 7/1/18 14/2/19 8/1/20
f 14/2/19 7/1/18 15/2/21
f 11/2/22 5/1/23 3/1/10
f 5/1/23 11/2/22 16/2/24
f 8/1/25 13/2/26 6/1/16
f 13/2/27 8/1/25 14/2/28
f 7/1/18 16/2/29 15/2/30
f 16/2/29 7/1/18 5/1/31
f 14/2/32 18/3/33 17/3/34
f 18/3/35 14/2/32 15/2/36
f 16/2/37 18/3/38 15/2/39
f 18/3/38 16/2/40 19/3/41
f 21/3/42 9/2/43 20/3/44
f 9/2/43 21/3/42 10/2/45
f 22/3/46 12/2/47 13/2/48
f 12/2/47 22/3/49 23/3/50
f 21/3/51 11/2/52 10/2/45
f 11/2/52 21/3/53 24/3/54
f 13/2/55 17/3/56 22/3/57
f 17/3/58 13/2/55 14/2/32
f 20/3/59 12/2/60 23/3/61
f 12/2/62 20/3/59 9/2/63
f 24/3/64 16/2/65 11/2/66
f 16/2/65 24/3/67 19/3/68
f 27/4/69 26/4/69 25/4/69
f 26/4/69 27/4/69 28/4/69
f 26/4/69 28/4/69 29/4/69
f 29/4/69 28/4/69 30/4/69
f 29/4/69 30/4/69 31/4/69
f 31/4/69 30/4/69 32/4/69
f 35/5/1 34/5/1 33/5/1
f 34/5/1 35/5/1 36/5/1
f 34/5/1 36/5/1 37/5/1
f 37/5/1 36/5/1 38/5/1
f 37/5/1 38/5/1 39/5/1
f 39/5/1 38/5/1 40/5/1
f 27/4/70 33/5/71 34/5/70
f 33/5/72 27/4/70 25/4/71
f 29/4/73 38/5/74 36/5/73
f 38/5/74 29/4/73 31/4/75
f 40/5/76 31/4/74 32/4/77
f 31/4/74 40/5/78 38/5/74
f 28/4/79 34/5/70 37/5/79
f 34/5/70 28/4/79 27/4/80
f 26/4/81 36/5/82 35/5/81
f 36/5/82 26/4/81 29/4/83
f 30/4/84 37/5/85 39/5/84
f 37/5/79 30/4/86 28/4/87
f 26/4/81 33/5/88 25/4/89
f 33/5/89 26/4/81 35/5/81
f 40/5/90 30/4/84 39/5/84
f 30/4/84 40/5/77 32/4/90
f 43/6/91 42/7/92 41/7/91
f 42/7/92 43/6/91 44/6/92
f 47/6/93 46/7/94 45/7/93
f 46/7/94 47/6/93 48/6/94
f 50/6/95 45/7/93 49/7/95
f 45/7/93 50/6/95 47/6/93
f 48/6/96 41/7/91 46/7/96
f 41/7/91 48/6/96 43/6/91
f 52/7/97 44/6/92 51/6/97
f 44/6/92 52/7/98 42/7/92
f 52/7/98 50/6/95 49/7/95
f 50/6/95 52/7/98 51/6/98
f 41/7/1 45/7/1 46/7/1
f 45/7/1 41/7/1 42/7/1
f 45/7/1 42/7/1 49/7/1
f 49/7/1 42/7/1 52/7/1
f 55/6/99 54/8/100 53/8/101
f 54/8/100 55/6/99 56/6/102
f 59/8/103 58/6/104 57/6/105
f 58/6/104 59/8/103 60/8/106
f 63/6/107 62/8/108 61/8/109
f 62/8/110 63/6/111 64/6/112
f 64/6/113 53/8/101 62/8/108
f 53/8/101 64/6/113 55/6/114
f 64/6/115 56/6/116 55/6/117
f 56/6/116 64/6/115 58/6/118
f 58/6/118 64/6/115 63/6/119
f 58/6/118 63/6/111 57/6/120
f 59/8/103 63/6/111 61/8/109
f 63/6/111 59/8/103 57/6/121
f 54/8/1 62/8/1 53/8/1
f 62/8/1 54/8/1 60/8/1
f 62/8/1 60/8/1 61/8/1
f 61/8/1 60/8/1 59/8/1
f 56/6/102 60/8/106 54/8/100
f 60/8/106 56/6/122 58/6/123
f 67/6/124 66/9/125 65/9/124
f 66/9/125 67/6/124 68/6/125
f 70/6/126 65/9/124 69/9/126
f 65/9/124 70/6/126 67/6/124
f 68/6/127 71/9/128 66/9/125
f 71/9/128 68/6/125 72/6/128
f 72/6/129 73/9/130 71/9/129
f 73/9/130 72/6/129 74/6/130
f 71/9/1 65/9/1 66/9/1
f 65/9/1 71/9/1 69/9/1
f 69/9/1 71/9/1 73/9/1
f 69/9/1 73/9/1 75/9/1
f 76/6/131 69/9/132 75/9/133
f 69/9/126 76/6/133 70/6/126
f 73/9/130 76/6/133 75/9/133
f 76/6/133 73/9/130 74/6/130
f 79/10/134 78/10/135 77/11/136
f 78/10/135 79/10/134 41/6/134
f 78/10/135 41/6/134 42/6/135
f 77/11/137 78/10/138 79/10/139
f 41/6/139 79/10/139 78/10/138
f 42/6/138 41/6/139 78/10/138
f 81/11/140 49/6/141 80/10/141
f 49/6/142 81/11/140 52/6/143
f 52/6/143 81/11/140 82/10/143
f 80/10/144 49/6/144 81/11/145
f 52/6/146 81/11/145 49/6/144
f 82/10/146 81/11/145 52/6/146
f 82/10/143 42/6/135 52/6/143
f 42/6/135 82/10/143 83/11/147
f 42/6/135 83/11/147 78/10/135
f 52/6/146 42/6/138 82/10/146
f 83/11/148 82/10/146 42/6/138
f 78/10/138 83/11/148 42/6/138
f 46/6/149 85/11/150 84/10/149
f 85/11/150 46/6/149 41/6/151
f 85/11/150 41/6/151 79/10/151
f 84/10/152 85/11/153 46/6/152
f 41/6/139 46/6/152 85/11/153
f 79/10/139 41/6/139 85/11/153
f 80/10/141 87/10/154 86/11/155
f 87/10/154 80/10/141 49/6/141
f 87/10/154 49/6/141 45/6/154
f 86/11/156 87/10/157 80/10/144
f 49/6/144 80/10/144 87/10/157
f 45/6/157 49/6/144 87/10/157
f 45/6/154 88/11/158 87/10/154
f 88/11/158 45/6/154 46/6/159
f 88/11/160 46/6/149 84/10/149
f 87/10/157 88/11/161 45/6/157
f 46/6/152 45/6/157 88/11/161
f 84/10/152 46/6/152 88/11/162
f 91/10/163 90/10/164 89/11/165
f 90/10/164 91/10/163 75/6/163
f 90/10/164 75/6/163 69/6/164
f 89/11/166 90/10/167 91/10/168
f 75/6/168 91/10/168 90/10/167
f 69/6/167 75/6/168 90/10/167
f 65/6/169 93/11/170 92/10/169
f 93/11/170 65/6/171 66/6/172
f 93/11/170 66/6/172 94/10/172
f 92/10/173 93/11/174 65/6/175
f 66/6/176 65/6/173 93/11/174
f 94/10/176 66/6/176 93/11/174
f 97/10/177 96/10/178 95/11/179
f 96/10/178 97/10/177 71/6/177
f 96/10/178 71/6/177 73/6/178
f 95/11/180 96/10/181 97/10/182
f 71/6/182 97/10/182 96/10/181
f 73/6/181 71/6/182 96/10/181
f 98/11/183 75/6/163 91/10/163
f 75/6/163 98/11/183 73/6/178
f 73/6/178 98/11/184 96/10/178
f 91/10/168 75/6/168 98/11/185
f 73/6/181 98/11/185 75/6/168
f 96/10/181 98/11/186 73/6/181
f 94/10/172 97/10/177 99/11/187
f 97/10/177 94/10/172 66/6/172
f 97/10/177 66/6/172 71/6/177
f 99/11/188 97/10/182 94/10/176
f 66/6/176 94/10/176 97/10/182
f 71/6/182 66/6/176 97/10/182
f 90/10/164 92/10/169 100/11/189
f 92/10/171 90/10/164 69/6/164
f 92/10/171 69/6/164 65/6/171
f 100/11/190 92/10/173 90/10/167
f 69/6/167 90/10/167 92/10/173
f 65/6/173 69/6/167 92/10/173
f 102/11/140 61/6/141 101/10/141
f 61/6/191 102/11/140 59/6/143
f 59/6/143 102/11/140 103/10/143
f 101/10/144 61/6/144 102/11/145
f 59/6/146 102/11/145 61/6/144
f 103/10/146 102/11/192 59/6/146
f 103/10/143 60/6/135 59/6/143
f 60/6/135 103/10/143 104/11/147
f 60/6/135 104/11/147 105/10/135
f 59/6/146 60/6/138 103/10/146
f 104/11/148 103/10/146 60/6/138
f 105/10/138 104/11/148 60/6/193
f 62/6/154 107/11/158 106/10/154
f 107/11/158 62/6/154 53/6/149
f 107/11/158 53/6/149 108/10/149
f 106/10/157 107/11/161 62/6/157
f 53/6/152 62/6/157 107/11/161
f 108/10/152 53/6/152 107/11/161
f 110/10/151 105/10/135 109/11/194
f 105/10/135 110/10/134 54/6/134
f 105/10/135 54/6/151 60/6/135
f 109/11/195 105/10/138 110/10/196
f 54/6/139 110/10/139 105/10/138
f 60/6/138 54/6/196 105/10/138
f 101/10/141 106/10/154 111/11/155
f 106/10/154 101/10/141 61/6/141
f 106/10/154 61/6/142 62/6/154
f 111/11/156 106/10/157 101/10/144
f 61/6/144 101/10/144 106/10/157
f 62/6/157 61/6/197 106/10/157
f 53/6/149 112/11/150 108/10/149
f 112/11/150 53/6/149 54/6/134
f 112/11/150 54/6/134 110/10/134
f 108/10/152 112/11/153 53/6/198
f 54/6/139 53/6/152 112/11/153
f 110/10/139 54/6/139 112/11/153
f 3/1/1 2/1/1 1/1/1
f 2/1/1 3/1/1 4/1/1
f 4/1/1 3/1/1 5/1/1
f 4/1/1 5/1/1 6/1/1
f 6/1/1 5/1/1 7/1/1
f 6/1/1 7/1/1 8/1/1
f 9/2/2 1/1/3 2/1/4
f 1/1/3 9/2/2 10/2/5
f 11/2/6 1/1/7 10/2/8
f 1/1/7 11/2/9 3/1/10
f 12/2/11 2/1/4 4/1/12
f 2/1/4 12/2/11 9/2/13
f 13/2/14 4/1/15 6/1/16
f 4/1/15 13/2/14 12/2/17
f 7/1/18 14/2/19 8/1/20
f 14/2/19 7/1/18 15/2/21
f 11/2/22 5/1/23 3/1/10
f 5/1/23 11/2/22 16/2/24
f 8/1/25 13/2/26 6/1/16
f 13/2/27 8/1/25 14/2/28
f 7/1/18 16/2/29 15/2/30
f 16/2/29 7/1/18 5/1/31
f 14/2/32 18/3/33 17/3/34
f 18/3/35 14/2/32 15/2/36
f 16/2/37 18/3/38 15/2/39
f 18/3/38 16/2/40 19/3/41
f 21/3/42 9/2/43 20/3/44
f 9/2/43 21/3/42 10/2/45
f 22/3/46 12/2/47 13/2/48
f 12/2/47 22/3/49 23/3/50
f 21/3/51 11/2/52 10/2/45
f 11/2/52 21/3/53 24/3/54
f 13/2/55 17/3/56 22/3/57
f 17/3/58 13/2/55 14/2/32
f 20/3/59 12/2/60 23/3/61
f 12/2/62 20/3/59 9/2/63
f 24/3/64 16/2/65 11/2/66
f 16/2/65 24/3/67 19/3/68
f 27/4/69 26/4/69 25/4/69
f 26/4/69 27/4/69 28/4/69
f 26/4/69 28/4/69 29/4/69
f 29/4/69 28/4/69 30/4/69
f 29/4/69 30/4/69 31/4/69
f 31/4/69 30/4/69 32/4/69
f 35/5/1 34/5/1 33/5/1
f 34/5/1 35/5/1 36/5/1
f 34/5/1 36/5/1 37/5/1
f 37/5/1 36/5/1 38/5/1
f 37/5/1 38/5/1 39/5/1
f 39/5/1 38/5/1 40/5/1
f 27/4/70 33/5/71 34/5/70
f 33/5/72 27/4/70 25/4/71
f 29/4/73 38/5/74 36/5/73
f 38/5/74 29/4/73 31/4/75
f 40/5/76 31/4/74 32/4/77
f 31/4/74 40/5/78 38/5/74
f 28/4/79 34/5/70 37/5/79
f 34/5/70 28/4/79 27/4/80
f 26/4/81 36/5/82 35/5/81
f 36/5/82 26/4/81 29/4/83
f 30/4/84 37/5/85 39/5/84
f 37/5/79 30/4/86 28/4/87
f 26/4/81 33/5/88 25/4/89
f 33/5/89 26/4/81 35/5/81
f 40/5/90 30/4/84 39/5/84
f 30/4/84 40/5/77 32/4/90
f 43/6/91 42/7/92 41/7/91
f 42/7/92 43/6/91 44/6/92
f 47/6/93 46/7/94 45/7/93
f 46/7/94 47/6/93 48/6/94
f 50/6/95 45/7/93 49/7/95
f 45/7/93 50/6/95 47/6/93
f 48/6/96 41/7/91 46/7/96
f 41/7/91 48/6/96 43/6/91
f 52/7/97 44/6/92 51/6/97
f 44/6/92 52/7/98 42/7/92
f 52/7/98 50/6/95 49/7/95
f 50/6/95 52/7/98 51/6/98
f 41/7/1 45/7/1 46/7/1
f 45/7/1 41/7/1 42/7/1
f 45/7/1 42/7/1 49/7/1
f 49/7/1 42/7/1 52/7/1
f 55/6/99 54/8/100 53/8/101
f 54/8/100 55/6/99 56/6/102
f 59/8/103 58/6/104 57/6/105
f 58/6/104 59/8/103 60/8/106
f 63/6/107 62/8/108 61/8/109
f 62/8/110 63/6/111 64/6/112
f 64/6/113 53/8/101 62/8/108
f 53/8/101 64/6/113 55/6/114
f 64/6/115 56/6/116 55/6/117
f 56/6/116 64/6/115 58/6/118
f 58/6/118 64/6/115 63/6/119
f 58/6/118 63/6/111 57/6/120
f 59/8/103 63/6/111 61/8/109
f 63/6/111 59/8/103 57/6/121
f 54/8/1 62/8/1 53/8/1
f 62/8/1 54/8/1 60/8/1
f 62/8/1 60/8/1 61/8/1
f 61/8/1 60/8/1 59/8/1
f 56/6/102 60/8/106 54/8/100
f 60/8/106 56/6/122 58/6/123
f 67/6/124 66/9/125 65/9/124
f 66/9/125 67/6/124 68/6/125
f 70/6/126 65/9/124 69/9/126
f 65/9/124 70/6/126 67/6/124
f 68/6/127 71/9/128 66/9/125
f 71/9/128 68/6/125 72/6/128
f 72/6/129 73/9/130 71/9/129
f 73/9/130 72/6/129 74/6/130
f 71/9/1 65/9/1 66/9/1
f 65/9/1 71/9/1 69/9/1
f 69/9/1 71/9/1 73/9/1
f 69/9/1 73/9/1 75/9/1
f 76/6/131 69/9/132 75/9/133
f 69/9/126 76/6/133 70/6/126
f 73/9/130 76/6/133 75/9/133
f 76/6/133 73/9/130 74/6/130
f 79/10/134 78/10/135 77/11/136
f 78/10/135 79/10/134 41/6/134
f 78/10/135 41/6/134 42/6/135
f 77/11/137 78/10/138 79/10/139
f 41/6/139 79/10/139 78/10/138
f 42/6/138 41/6/139 78/10/138
f 81/11/140 49/6/141 80/10/141
f 49/6/142 81/11/140 52/6/143
f 52/6/143 81/11/140 82/10/143
f 80/10/144 49/6/144 81/11/145
f 52/6/146 81/11/145 49/6/144
f 82/10/146 81/11/145 52/6/146
f 82/10/143 42/6/135 52/6/143
f 42/6/135 82/10/143 83/11/147
f 42/6/135 83/11/147 78/10/135
f 52/6/146 42/6/138 82/10/146
f 83/11/148 82/10/146 42/6/138
f 78/10/138 83/11/148 42/6/138
f 46/6/149 85/11/150 84/10/149
f 85/11/150 46/6/149 41/6/151
f 85/11/150 41/6/151 79/10/151
f 84/10/152 85/11/153 46/6/152
f 41/6/139 46/6/152 85/11/153
f 79/10/139 41/6/139 85/11/153
f 80/10/141 87/10/154 86/11/155
f 87/10/154 80/10/141 49/6/141
f 87/10/154 49/6/141 45/6/154
f 86/11/156 87/10/157 80/10/144
f 49/6/144 80/10/144 87/10/157
f 45/6/157 49/6/144 87/10/157
f 45/6/154 88/11/158 87/10/154
f 88/11/158 45/6/154 46/6/159
f 88/11/160 46/6/149 84/10/149
f 87/10/157 88/11/161 45/6/157
f 46/6/152 45/6/157 88/11/161
f 84/10/152 46/6/152 88/11/162
f 91/10/163 90/10/164 89/11/165
f 90/10/164 91/10/163 75/6/163
f 90/10/164 75/6/163 69/6/164
f 89/11/166 90/10/167 91/10/168
f 75/6/168 91/10/168 90/10/167
f 69/6/167 75/6/168 90/10/167
f 65/6/169 93/11/170 92/10/169
f 93/11/170 65/6/171 66/6/172
f 93/11/170 66/6/172 94/10/172
f 92/10/173 93/11/174 65/6/175
f 66/6/176 65/6/173 93/11/174
f 94/10/176 66/6/176 93/11/174
f 97/10/177 96/10/178 95/11/179
f 96/10/178 97/10/177 71/6/177
f 96/10/178 71/6/177 73/6/178
f 95/11/180 96/10/181 97/10/182
f 71/6/182 97/10/182 96/10/181
f 73/6/181 71/6/182 96/10/181
f 98/11/183 75/6/163 91/10/163
f 75/6/163 98/11/183 73/6/178
f 73/6/178 98/11/184 96/10/178
f 91/10/168 75/6/168 98/11/185
f 73/6/181 98/11/185 75/6/168
f 96/10/181 98/11/186 73/6/181
f 94/10/172 97/10/177 99/11/187
f 97/10/177 94/10/172 66/6/172
f 97/10/177 66/6/172 71/6/177
f 99/11/188 97/10/182 94/10/176
f 66/6/176 94/10/176 97/10/182
f 71/6/182 66/6/176 97/10/182
f 90/10/164 92/10/169 100/11/189
f 92/10/171 90/10/164 69/6/164
f 92/10/171 69/6/164 65/6/171
f 100/11/190 92/10/173 90/10/167
f 69/6/167 90/10/167 92/10/173
f 65/6/173 69/6/167 92/10/173
f 102/11/140 61/6/141 101/10/141
f 61/6/191 102/11/140 59/6/143
f 59/6/143 102/11/140 103/10/143
f 101/10/144 61/6/144 102/11/145
f 59/6/146 102/11/145 61/6/144
f 103/10/146 102/11/192 59/6/146
f 103/10/143 60/6/135 59/6/143
f 60/6/135 103/10/143 104/11/147
f 60/6/135 104/11/147 105/10/135
f 59/6/146 60/6/138 103/10/146
f 104/11/148 103/10/146 60/6/138
f 105/10/138 104/11/148 60/6/193
f 62/6/154 107/11/158 106/10/154
f 107/11/158 62/6/154 53/6/149
f 107/11/158 53/6/149 108/10/149
f 106/10/157 107/11/161 62/6/157
f 53/6/152 62/6/157 107/11/161
f 108/10/152 53/6/152 107/11/161
f 110/10/151 105/10/135 109/11/194
f 105/10/135 110/10/134 54/6/134
f 105/10/135 54/6/151 60/6/135
f 109/11/195 105/10/138 110/10/196
f 54/6/139 110/10/139 105/10/138
f 60/6/138 54/6/196 105/10/138
f 101/10/141 106/10/154 111/11/155
f 106/10/154 101/10/141 61/6/141
f 106/10/154 61/6/142 62/6/154
f 111/11/156 106/10/157 101/10/144
f 61/6/144 101/10/144 106/10/157
f 62/6/157 61/6/197 106/10/157
f 53/6/149 112/11/150 108/10/149
f 112/11/150 53/6/149 54/6/134
f 112/11/150 54/6/134 110/10/134
f 108/10/152 112/11/153 53/6/198
f 54/6/139 53/6/152 112/11/153
f 110/10/139 54/6/139 112/11/153
