# Blender 4.1.1
# www.blender.org
mtllib iron-fence-border-column.005.mtl
o iron-fence-border-column.005
v 11.265330 1.334315 -0.948288
v 11.265330 1.424660 -0.948288
v 11.265330 1.334315 -1.128978
v 11.265330 1.424660 -1.128978
v 11.084641 1.424660 -0.948288
v 11.084641 1.334315 -0.948288
v 11.084640 1.424660 -1.128978
v 11.084640 1.334315 -1.128978
v 11.265330 -0.064042 -1.128978
v 11.265330 0.134716 -1.128978
v 11.084640 -0.064042 -1.128978
v 11.084640 0.134716 -1.128978
v 11.249068 1.298177 -0.964550
v 11.249067 1.298177 -1.112715
v 11.249068 0.170854 -0.964550
v 11.249067 0.170854 -1.112716
v 11.084641 -0.064042 -0.948288
v 11.084641 0.134716 -0.948288
v 11.265330 0.134716 -0.948288
v 11.100903 0.170854 -0.964550
v 11.100903 1.298177 -0.964550
v 11.265330 -0.064042 -0.948288
v 11.100903 1.298177 -1.112715
v 11.100903 0.170854 -1.112715
v 11.464088 1.298177 -0.997978
v 11.423433 1.424660 -1.038633
v 11.464088 1.298177 -1.079288
v 11.382778 1.298177 -0.997978
v 11.382778 1.298177 -1.079288
v 11.450537 1.225901 -1.011529
v 11.450537 1.225901 -1.065736
v 11.396330 1.225901 -1.011529
v 11.396330 1.225901 -1.065736
v 11.915812 1.298177 -0.997978
v 11.875157 1.424660 -1.038633
v 11.915812 1.298177 -1.079288
v 11.834502 1.298177 -0.997978
v 11.834502 1.298177 -1.079288
v 11.902262 1.225901 -1.011529
v 11.902262 1.225901 -1.065736
v 11.848054 1.225901 -1.011529
v 11.848054 1.225901 -1.065736
v 12.819261 1.298177 -0.997978
v 12.778605 1.424660 -1.038633
v 12.819261 1.298177 -1.079288
v 12.737951 1.298177 -0.997978
v 12.737951 1.298177 -1.079288
v 12.805709 1.225901 -1.011530
v 12.805709 1.225901 -1.065736
v 12.751501 1.225901 -1.011530
v 12.751501 1.225901 -1.065736
v 11.689951 1.298177 -0.997978
v 11.649295 1.424660 -1.038633
v 11.689951 1.298177 -1.079288
v 11.608640 1.298177 -0.997978
v 11.608640 1.298177 -1.079288
v 11.676399 1.225901 -1.011529
v 11.676399 1.225901 -1.065736
v 11.622192 1.225901 -1.011529
v 11.622192 1.225901 -1.065736
v 12.367537 1.298177 -0.997978
v 12.326881 1.424660 -1.038633
v 12.367537 1.298177 -1.079288
v 12.286226 1.298177 -0.997978
v 12.286226 1.298177 -1.079288
v 12.353985 1.225901 -1.011530
v 12.353985 1.225901 -1.065736
v 12.299778 1.225901 -1.011529
v 12.299778 1.225901 -1.065736
v 12.141675 1.298177 -0.997978
v 12.101019 1.424660 -1.038633
v 12.141675 1.298177 -1.079288
v 12.060365 1.298177 -0.997978
v 12.060365 1.298177 -1.079288
v 12.128122 1.225901 -1.011529
v 12.128122 1.225901 -1.065736
v 12.073916 1.225901 -1.011529
v 12.073916 1.225901 -1.065736
v 12.593398 1.298177 -0.997978
v 12.552744 1.424660 -1.038633
v 12.593398 1.298177 -1.079288
v 12.512089 1.298177 -0.997978
v 12.512089 1.298177 -1.079288
v 12.579846 1.225901 -1.011530
v 12.579846 1.225901 -1.065736
v 12.525640 1.225901 -1.011530
v 12.525640 1.225901 -1.065736
v 11.265330 0.098578 -0.960936
v 11.265330 0.098578 -1.116329
v 12.891538 0.098578 -0.960937
v 12.891536 0.098578 -1.116330
v 11.265330 0.062440 -1.128978
v 12.891536 0.062440 -1.128978
v 12.891538 -0.064042 -0.948288
v 11.265330 -0.064042 -0.948288
v 12.891538 0.062440 -0.948288
v 11.265330 0.062440 -0.948288
v 11.265330 -0.064042 -1.128978
v 12.891536 -0.064042 -1.128978
v 11.396330 0.098578 -1.065736
v 11.450537 0.098578 -1.065736
v 11.396330 0.098578 -1.011529
v 11.450537 0.098578 -1.011529
v 11.848054 0.098578 -1.065736
v 11.902262 0.098578 -1.065736
v 11.848054 0.098578 -1.011530
v 11.902262 0.098578 -1.011530
v 12.751501 0.098578 -1.065737
v 12.805709 0.098578 -1.065737
v 12.751501 0.098578 -1.011530
v 12.805709 0.098578 -1.011530
v 11.622192 0.098578 -1.065736
v 11.676399 0.098578 -1.065736
v 11.622192 0.098578 -1.011529
v 11.676399 0.098578 -1.011529
v 12.299778 0.098578 -1.065736
v 12.353985 0.098578 -1.065736
v 12.299778 0.098578 -1.011530
v 12.353985 0.098578 -1.011530
v 12.073916 0.098578 -1.065736
v 12.128122 0.098578 -1.065736
v 12.073916 0.098578 -1.011530
v 12.128122 0.098578 -1.011530
v 12.525640 0.098578 -1.065737
v 12.579846 0.098578 -1.065737
v 12.525640 0.098578 -1.011530
v 12.579846 0.098578 -1.011530
v 11.249067 1.063280 -1.025081
v 11.249067 1.009073 -1.025081
v 11.249067 1.063280 -1.052185
v 11.249067 1.009073 -1.052185
v 12.891536 1.009073 -1.025081
v 12.891536 1.063280 -1.025081
v 12.891536 1.009073 -1.052185
v 12.891536 1.063280 -1.052185
v 12.891536 0.315406 -1.025081
v 12.891536 0.369613 -1.025081
v 12.891536 0.315406 -1.052185
v 12.891536 0.369613 -1.052185
v 11.249067 0.369613 -1.025081
v 11.249067 0.315406 -1.025081
v 11.249067 0.369613 -1.052185
v 11.249067 0.315406 -1.052185
vn 0.9837 -0.1800 -0.0000
vn 1.0000 -0.0000 -0.0000
vn -1.0000 -0.0000 -0.0000
vn -0.9837 -0.1800 -0.0000
vn -0.0000 -0.0000 -1.0000
vn -0.0000 0.1800 -0.9837
vn 0.9119 -0.4104 -0.0000
vn 0.9836 -0.1801 -0.0000
vn -0.9837 0.1800 -0.0000
vn 0.9836 0.1801 -0.0000
vn 0.9119 0.4104 -0.0000
vn -0.0000 -0.0000 1.0000
vn -0.0000 0.1800 0.9837
vn -0.0000 -0.1801 -0.9836
vn -0.0000 -0.4104 -0.9119
vn -0.0000 0.4104 0.9119
vn -0.0000 0.1801 0.9836
vn -0.9836 -0.1801 -0.0000
vn -0.9119 -0.4104 -0.0000
vn -0.9119 0.4104 -0.0000
vn -0.9836 0.1801 -0.0000
vn -0.0000 -0.1801 0.9836
vn -0.0000 -0.4104 0.9119
vn -0.0000 -0.1800 -0.9837
vn -0.0000 -0.1800 0.9837
vn -0.0000 0.4104 -0.9119
vn -0.0000 0.1801 -0.9836
vn -0.0000 1.0000 -0.0000
vn -0.0000 -1.0000 -0.0000
vn 0.9837 0.1800 -0.0000
vn 0.9987 0.0519 -0.0000
vn 0.9520 0.3060 -0.0000
vn -0.0000 0.3060 0.9520
vn -0.0000 0.0519 0.9987
vn -0.9987 0.0519 -0.0000
vn -0.9520 0.3060 -0.0000
vn -0.0000 0.3060 -0.9520
vn -0.0000 0.0519 -0.9987
vn 0.9829 -0.1843 -0.0000
vn 0.9987 0.0518 -0.0000
vn -0.9987 0.0518 -0.0000
vn -0.9829 -0.1843 -0.0000
vn -0.0000 0.0518 0.9987
vn -0.0000 -0.1843 0.9829
vn -0.0000 0.0518 -0.9987
vn -0.0000 -0.1843 -0.9829
vn -0.0000 0.3303 -0.9439
vn -0.0000 0.1676 -0.9859
vn -0.0000 0.3304 -0.9439
vn -0.0000 0.1675 0.9859
vn -1.0000 -0.0000 0.0003
vn -0.0000 0.1675 -0.9859
vn -0.0000 0.3303 0.9439
vn -0.0000 0.1676 0.9859
vt 0.843750 0.212863
vt 0.843750 0.225000
vt 0.843750 0.025000
vt 0.843750 0.051702
vt 0.843750 0.208008
vt 0.843750 0.056557
vt 0.843750 0.198298
vt 0.843750 0.180556
vt 0.593750 0.448298
vt 0.593750 0.296847
vt 0.531250 0.375000
s 0
usemtl colormap.001
f 3/1/1 2/2/2 1/1/1
f 2/2/2 3/1/1 4/2/2
f 7/2/3 6/1/4 5/2/3
f 6/1/4 7/2/3 8/1/4
f 11/3/5 10/4/6 9/3/5
f 10/4/6 11/3/5 12/4/6
f 13/5/7 3/1/8 1/1/8
f 3/1/8 13/5/7 14/5/7
f 16/6/2 13/5/2 15/6/2
f 13/5/2 16/6/2 14/5/2
f 18/4/9 11/3/3 17/3/3
f 11/3/3 18/4/9 12/4/9
f 10/4/10 15/6/11 19/4/10
f 15/6/11 10/4/10 16/6/11
f 13/5/12 20/6/12 15/6/12
f 20/6/12 13/5/12 21/5/12
f 19/4/13 17/3/12 22/3/12
f 17/3/12 19/4/13 18/4/13
f 8/1/14 14/5/15 23/5/15
f 14/5/15 8/1/14 3/1/14
f 15/6/16 18/4/17 19/4/17
f 18/4/17 15/6/16 20/6/16
f 8/1/18 21/5/19 6/1/18
f 21/5/19 8/1/18 23/5/19
f 20/6/20 12/4/21 18/4/21
f 12/4/21 20/6/20 24/6/20
f 23/5/5 16/6/5 24/6/5
f 16/6/5 23/5/5 14/5/5
f 23/5/3 20/6/3 21/5/3
f 20/6/3 23/5/3 24/6/3
f 1/1/22 21/5/23 13/5/23
f 21/5/23 1/1/22 6/1/22
f 7/2/5 3/1/24 8/1/24
f 3/1/24 7/2/5 4/2/5
f 2/2/12 6/1/25 1/1/25
f 6/1/25 2/2/12 5/2/12
f 24/6/26 10/4/27 12/4/27
f 10/4/27 24/6/26 16/6/26
f 2/2/28 7/2/28 5/2/28
f 7/2/28 2/2/28 4/2/28
f 9/3/29 17/3/29 11/3/29
f 17/3/29 9/3/29 22/3/29
f 9/3/2 19/4/30 22/3/2
f 19/4/30 9/3/2 10/4/30
f 27/5/31 26/2/32 25/5/31
f 26/2/33 28/5/34 25/5/34
f 29/5/35 28/5/35 26/2/36
f 26/2/37 27/5/38 29/5/38
f 30/7/39 27/5/40 25/5/40
f 27/5/40 30/7/39 31/7/39
f 29/5/41 32/7/42 28/5/41
f 32/7/42 29/5/41 33/7/42
f 25/5/43 32/7/44 30/7/44
f 32/7/44 25/5/43 28/5/43
f 29/5/45 31/7/46 33/7/46
f 31/7/46 29/5/45 27/5/45
f 36/5/31 35/2/32 34/5/31
f 35/2/33 37/5/34 34/5/34
f 38/5/35 37/5/35 35/2/36
f 35/2/37 36/5/38 38/5/38
f 39/7/39 36/5/31 34/5/31
f 36/5/31 39/7/39 40/7/39
f 38/5/41 41/7/42 37/5/41
f 41/7/42 38/5/41 42/7/42
f 34/5/43 41/7/44 39/7/44
f 41/7/44 34/5/43 37/5/43
f 38/5/45 40/7/46 42/7/46
f 40/7/46 38/5/45 36/5/45
f 45/5/31 44/2/32 43/5/31
f 44/2/33 46/5/34 43/5/34
f 47/5/35 46/5/35 44/2/36
f 44/2/37 45/5/38 47/5/38
f 48/7/39 45/5/40 43/5/40
f 45/5/40 48/7/39 49/7/39
f 47/5/35 50/7/42 46/5/35
f 50/7/42 47/5/35 51/7/42
f 43/5/43 50/7/44 48/7/44
f 50/7/44 43/5/43 46/5/43
f 47/5/45 49/7/46 51/7/46
f 49/7/46 47/5/45 45/5/45
f 54/5/31 53/2/32 52/5/31
f 53/2/33 55/5/34 52/5/34
f 56/5/35 55/5/35 53/2/36
f 53/2/37 54/5/38 56/5/38
f 57/7/39 54/5/40 52/5/40
f 54/5/40 57/7/39 58/7/39
f 56/5/41 59/7/42 55/5/41
f 59/7/42 56/5/41 60/7/42
f 52/5/43 59/7/44 57/7/44
f 59/7/44 52/5/43 55/5/43
f 56/5/45 58/7/46 60/7/46
f 58/7/46 56/5/45 54/5/45
f 63/5/31 62/2/32 61/5/31
f 62/2/33 64/5/34 61/5/34
f 65/5/35 64/5/35 62/2/36
f 62/2/37 63/5/38 65/5/38
f 66/7/39 63/5/40 61/5/40
f 63/5/40 66/7/39 67/7/39
f 65/5/41 68/7/42 64/5/41
f 68/7/42 65/5/41 69/7/42
f 61/5/43 68/7/44 66/7/44
f 68/7/44 61/5/43 64/5/43
f 65/5/45 67/7/46 69/7/46
f 67/7/46 65/5/45 63/5/45
f 72/5/31 71/2/32 70/5/31
f 71/2/33 73/5/34 70/5/34
f 74/5/35 73/5/35 71/2/36
f 71/2/37 72/5/38 74/5/38
f 75/7/39 72/5/40 70/5/40
f 72/5/40 75/7/39 76/7/39
f 74/5/41 77/7/42 73/5/41
f 77/7/42 74/5/41 78/7/42
f 70/5/43 77/7/44 75/7/44
f 77/7/44 70/5/43 73/5/43
f 74/5/45 76/7/46 78/7/46
f 76/7/46 74/5/45 72/5/45
f 81/5/31 80/2/32 79/5/31
f 80/2/33 82/5/34 79/5/34
f 83/5/35 82/5/35 80/2/36
f 80/2/37 81/5/38 83/5/38
f 84/7/39 81/5/40 79/5/40
f 81/5/40 84/7/39 85/7/39
f 83/5/41 86/7/42 82/5/41
f 86/7/42 83/5/41 87/7/42
f 79/5/43 86/7/44 84/7/44
f 86/7/44 79/5/43 82/5/43
f 83/5/45 85/7/46 87/7/46
f 85/7/46 83/5/45 81/5/45
f 90/2/28 89/2/28 88/2/28
f 89/2/28 90/2/28 91/2/28
f 89/2/47 93/8/48 92/8/48
f 93/8/48 89/2/49 91/2/49
f 96/8/50 95/3/12 94/3/12
f 95/3/12 96/8/50 97/8/50
f 99/3/29 95/3/29 98/3/29
f 95/3/29 99/3/29 94/3/29
f 88/2/51 95/3/51 97/8/51
f 95/3/3 88/2/3 98/3/3
f 98/3/3 88/2/3 89/2/3
f 98/3/3 89/2/3 92/8/3
f 92/8/52 99/3/5 98/3/5
f 99/3/5 92/8/52 93/8/52
f 90/2/53 97/8/54 96/8/54
f 97/8/54 90/2/53 88/2/53
f 99/3/2 96/8/2 94/3/2
f 96/8/2 99/3/2 90/2/2
f 90/2/2 99/3/2 91/2/2
f 91/2/2 99/3/2 93/8/2
f 33/9/5 101/10/5 100/10/5
f 101/10/5 33/9/5 31/9/5
f 101/10/29 102/10/29 100/10/29
f 102/10/29 101/10/29 103/10/29
f 30/9/12 102/10/12 103/10/12
f 102/10/12 30/9/12 32/9/12
f 101/10/2 30/9/2 103/10/2
f 30/9/2 101/10/2 31/9/2
f 33/9/3 102/10/3 32/9/3
f 102/10/3 33/9/3 100/10/3
f 42/9/5 105/10/5 104/10/5
f 105/10/5 42/9/5 40/9/5
f 105/10/29 106/10/29 104/10/29
f 106/10/29 105/10/29 107/10/29
f 39/9/12 106/10/12 107/10/12
f 106/10/12 39/9/12 41/9/12
f 105/10/2 39/9/2 107/10/2
f 39/9/2 105/10/2 40/9/2
f 42/9/3 106/10/3 41/9/3
f 106/10/3 42/9/3 104/10/3
f 51/9/5 109/10/5 108/10/5
f 109/10/5 51/9/5 49/9/5
f 109/10/29 110/10/29 108/10/29
f 110/10/29 109/10/29 111/10/29
f 48/9/12 110/10/12 111/10/12
f 110/10/12 48/9/12 50/9/12
f 109/10/2 48/9/2 111/10/2
f 48/9/2 109/10/2 49/9/2
f 51/9/3 110/10/3 50/9/3
f 110/10/3 51/9/3 108/10/3
f 60/9/5 113/10/5 112/10/5
f 113/10/5 60/9/5 58/9/5
f 113/10/29 114/10/29 112/10/29
f 114/10/29 113/10/29 115/10/29
f 57/9/12 114/10/12 115/10/12
f 114/10/12 57/9/12 59/9/12
f 113/10/2 57/9/2 115/10/2
f 57/9/2 113/10/2 58/9/2
f 60/9/3 114/10/3 59/9/3
f 114/10/3 60/9/3 112/10/3
f 69/9/5 117/10/5 116/10/5
f 117/10/5 69/9/5 67/9/5
f 117/10/29 118/10/29 116/10/29
f 118/10/29 117/10/29 119/10/29
f 66/9/12 118/10/12 119/10/12
f 118/10/12 66/9/12 68/9/12
f 117/10/2 66/9/2 119/10/2
f 66/9/2 117/10/2 67/9/2
f 69/9/3 118/10/3 68/9/3
f 118/10/3 69/9/3 116/10/3
f 78/9/5 121/10/5 120/10/5
f 121/10/5 78/9/5 76/9/5
f 121/10/29 122/10/29 120/10/29
f 122/10/29 121/10/29 123/10/29
f 75/9/12 122/10/12 123/10/12
f 122/10/12 75/9/12 77/9/12
f 121/10/2 75/9/2 123/10/2
f 75/9/2 121/10/2 76/9/2
f 78/9/3 122/10/3 77/9/3
f 122/10/3 78/9/3 120/10/3
f 87/9/5 125/10/5 124/10/5
f 125/10/5 87/9/5 85/9/5
f 125/10/29 126/10/29 124/10/29
f 126/10/29 125/10/29 127/10/29
f 84/9/12 126/10/12 127/10/12
f 126/10/12 84/9/12 86/9/12
f 125/10/2 84/9/2 127/10/2
f 84/9/2 125/10/2 85/9/2
f 87/9/3 126/10/3 86/9/3
f 126/10/3 87/9/3 124/10/3
f 130/11/3 129/11/3 128/11/3
f 129/11/3 130/11/3 131/11/3
f 134/11/2 133/11/2 132/11/2
f 133/11/2 134/11/2 135/11/2
f 130/11/5 134/11/5 131/11/5
f 134/11/5 130/11/5 135/11/5
f 134/11/29 129/11/29 131/11/29
f 129/11/29 134/11/29 132/11/29
f 133/11/28 130/11/28 128/11/28
f 130/11/28 133/11/28 135/11/28
f 133/11/12 129/11/12 132/11/12
f 129/11/12 133/11/12 128/11/12
f 138/11/2 137/11/2 136/11/2
f 137/11/2 138/11/2 139/11/2
f 142/11/3 141/11/3 140/11/3
f 141/11/3 142/11/3 143/11/3
f 137/11/28 142/11/28 140/11/28
f 142/11/28 137/11/28 139/11/28
f 137/11/12 141/11/12 136/11/12
f 141/11/12 137/11/12 140/11/12
f 138/11/29 141/11/29 143/11/29
f 141/11/29 138/11/29 136/11/29
f 142/11/5 138/11/5 143/11/5
f 138/11/5 142/11/5 139/11/5
f 3/1/1 2/2/2 1/1/1
f 2/2/2 3/1/1 4/2/2
f 7/2/3 6/1/4 5/2/3
f 6/1/4 7/2/3 8/1/4
f 11/3/5 10/4/6 9/3/5
f 10/4/6 11/3/5 12/4/6
f 13/5/7 3/1/8 1/1/8
f 3/1/8 13/5/7 14/5/7
f 16/6/2 13/5/2 15/6/2
f 13/5/2 16/6/2 14/5/2
f 18/4/9 11/3/3 17/3/3
f 11/3/3 18/4/9 12/4/9
f 10/4/10 15/6/11 19/4/10
f 15/6/11 10/4/10 16/6/11
f 13/5/12 20/6/12 15/6/12
f 20/6/12 13/5/12 21/5/12
f 19/4/13 17/3/12 22/3/12
f 17/3/12 19/4/13 18/4/13
f 8/1/14 14/5/15 23/5/15
f 14/5/15 8/1/14 3/1/14
f 15/6/16 18/4/17 19/4/17
f 18/4/17 15/6/16 20/6/16
f 8/1/18 21/5/19 6/1/18
f 21/5/19 8/1/18 23/5/19
f 20/6/20 12/4/21 18/4/21
f 12/4/21 20/6/20 24/6/20
f 23/5/5 16/6/5 24/6/5
f 16/6/5 23/5/5 14/5/5
f 23/5/3 20/6/3 21/5/3
f 20/6/3 23/5/3 24/6/3
f 1/1/22 21/5/23 13/5/23
f 21/5/23 1/1/22 6/1/22
f 7/2/5 3/1/24 8/1/24
f 3/1/24 7/2/5 4/2/5
f 2/2/12 6/1/25 1/1/25
f 6/1/25 2/2/12 5/2/12
f 24/6/26 10/4/27 12/4/27
f 10/4/27 24/6/26 16/6/26
f 2/2/28 7/2/28 5/2/28
f 7/2/28 2/2/28 4/2/28
f 9/3/29 17/3/29 11/3/29
f 17/3/29 9/3/29 22/3/29
f 9/3/2 19/4/30 22/3/2
f 19/4/30 9/3/2 10/4/30
f 27/5/31 26/2/32 25/5/31
f 26/2/33 28/5/34 25/5/34
f 29/5/35 28/5/35 26/2/36
f 26/2/37 27/5/38 29/5/38
f 30/7/39 27/5/40 25/5/40
f 27/5/40 30/7/39 31/7/39
f 29/5/41 32/7/42 28/5/41
f 32/7/42 29/5/41 33/7/42
f 25/5/43 32/7/44 30/7/44
f 32/7/44 25/5/43 28/5/43
f 29/5/45 31/7/46 33/7/46
f 31/7/46 29/5/45 27/5/45
f 36/5/31 35/2/32 34/5/31
f 35/2/33 37/5/34 34/5/34
f 38/5/35 37/5/35 35/2/36
f 35/2/37 36/5/38 38/5/38
f 39/7/39 36/5/31 34/5/31
f 36/5/31 39/7/39 40/7/39
f 38/5/41 41/7/42 37/5/41
f 41/7/42 38/5/41 42/7/42
f 34/5/43 41/7/44 39/7/44
f 41/7/44 34/5/43 37/5/43
f 38/5/45 40/7/46 42/7/46
f 40/7/46 38/5/45 36/5/45
f 45/5/31 44/2/32 43/5/31
f 44/2/33 46/5/34 43/5/34
f 47/5/35 46/5/35 44/2/36
f 44/2/37 45/5/38 47/5/38
f 48/7/39 45/5/40 43/5/40
f 45/5/40 48/7/39 49/7/39
f 47/5/35 50/7/42 46/5/35
f 50/7/42 47/5/35 51/7/42
f 43/5/43 50/7/44 48/7/44
f 50/7/44 43/5/43 46/5/43
f 47/5/45 49/7/46 51/7/46
f 49/7/46 47/5/45 45/5/45
f 54/5/31 53/2/32 52/5/31
f 53/2/33 55/5/34 52/5/34
f 56/5/35 55/5/35 53/2/36
f 53/2/37 54/5/38 56/5/38
f 57/7/39 54/5/40 52/5/40
f 54/5/40 57/7/39 58/7/39
f 56/5/41 59/7/42 55/5/41
f 59/7/42 56/5/41 60/7/42
f 52/5/43 59/7/44 57/7/44
f 59/7/44 52/5/43 55/5/43
f 56/5/45 58/7/46 60/7/46
f 58/7/46 56/5/45 54/5/45
f 63/5/31 62/2/32 61/5/31
f 62/2/33 64/5/34 61/5/34
f 65/5/35 64/5/35 62/2/36
f 62/2/37 63/5/38 65/5/38
f 66/7/39 63/5/40 61/5/40
f 63/5/40 66/7/39 67/7/39
f 65/5/41 68/7/42 64/5/41
f 68/7/42 65/5/41 69/7/42
f 61/5/43 68/7/44 66/7/44
f 68/7/44 61/5/43 64/5/43
f 65/5/45 67/7/46 69/7/46
f 67/7/46 65/5/45 63/5/45
f 72/5/31 71/2/32 70/5/31
f 71/2/33 73/5/34 70/5/34
f 74/5/35 73/5/35 71/2/36
f 71/2/37 72/5/38 74/5/38
f 75/7/39 72/5/40 70/5/40
f 72/5/40 75/7/39 76/7/39
f 74/5/41 77/7/42 73/5/41
f 77/7/42 74/5/41 78/7/42
f 70/5/43 77/7/44 75/7/44
f 77/7/44 70/5/43 73/5/43
f 74/5/45 76/7/46 78/7/46
f 76/7/46 74/5/45 72/5/45
f 81/5/31 80/2/32 79/5/31
f 80/2/33 82/5/34 79/5/34
f 83/5/35 82/5/35 80/2/36
f 80/2/37 81/5/38 83/5/38
f 84/7/39 81/5/40 79/5/40
f 81/5/40 84/7/39 85/7/39
f 83/5/41 86/7/42 82/5/41
f 86/7/42 83/5/41 87/7/42
f 79/5/43 86/7/44 84/7/44
f 86/7/44 79/5/43 82/5/43
f 83/5/45 85/7/46 87/7/46
f 85/7/46 83/5/45 81/5/45
f 90/2/28 89/2/28 88/2/28
f 89/2/28 90/2/28 91/2/28
f 89/2/47 93/8/48 92/8/48
f 93/8/48 89/2/49 91/2/49
f 96/8/50 95/3/12 94/3/12
f 95/3/12 96/8/50 97/8/50
f 99/3/29 95/3/29 98/3/29
f 95/3/29 99/3/29 94/3/29
f 88/2/51 95/3/51 97/8/51
f 95/3/3 88/2/3 98/3/3
f 98/3/3 88/2/3 89/2/3
f 98/3/3 89/2/3 92/8/3
f 92/8/52 99/3/5 98/3/5
f 99/3/5 92/8/52 93/8/52
f 90/2/53 97/8/54 96/8/54
f 97/8/54 90/2/53 88/2/53
f 99/3/2 96/8/2 94/3/2
f 96/8/2 99/3/2 90/2/2
f 90/2/2 99/3/2 91/2/2
f 91/2/2 99/3/2 93/8/2
f 33/9/5 101/10/5 100/10/5
f 101/10/5 33/9/5 31/9/5
f 101/10/29 102/10/29 100/10/29
f 102/10/29 101/10/29 103/10/29
f 30/9/12 102/10/12 103/10/12
f 102/10/12 30/9/12 32/9/12
f 101/10/2 30/9/2 103/10/2
f 30/9/2 101/10/2 31/9/2
f 33/9/3 102/10/3 32/9/3
f 102/10/3 33/9/3 100/10/3
f 42/9/5 105/10/5 104/10/5
f 105/10/5 42/9/5 40/9/5
f 105/10/29 106/10/29 104/10/29
f 106/10/29 105/10/29 107/10/29
f 39/9/12 106/10/12 107/10/12
f 106/10/12 39/9/12 41/9/12
f 105/10/2 39/9/2 107/10/2
f 39/9/2 105/10/2 40/9/2
f 42/9/3 106/10/3 41/9/3
f 106/10/3 42/9/3 104/10/3
f 51/9/5 109/10/5 108/10/5
f 109/10/5 51/9/5 49/9/5
f 109/10/29 110/10/29 108/10/29
f 110/10/29 109/10/29 111/10/29
f 48/9/12 110/10/12 111/10/12
f 110/10/12 48/9/12 50/9/12
f 109/10/2 48/9/2 111/10/2
f 48/9/2 109/10/2 49/9/2
f 51/9/3 110/10/3 50/9/3
f 110/10/3 51/9/3 108/10/3
f 60/9/5 113/10/5 112/10/5
f 113/10/5 60/9/5 58/9/5
f 113/10/29 114/10/29 112/10/29
f 114/10/29 113/10/29 115/10/29
f 57/9/12 114/10/12 115/10/12
f 114/10/12 57/9/12 59/9/12
f 113/10/2 57/9/2 115/10/2
f 57/9/2 113/10/2 58/9/2
f 60/9/3 114/10/3 59/9/3
f 114/10/3 60/9/3 112/10/3
f 69/9/5 117/10/5 116/10/5
f 117/10/5 69/9/5 67/9/5
f 117/10/29 118/10/29 116/10/29
f 118/10/29 117/10/29 119/10/29
f 66/9/12 118/10/12 119/10/12
f 118/10/12 66/9/12 68/9/12
f 117/10/2 66/9/2 119/10/2
f 66/9/2 117/10/2 67/9/2
f 69/9/3 118/10/3 68/9/3
f 118/10/3 69/9/3 116/10/3
f 78/9/5 121/10/5 120/10/5
f 121/10/5 78/9/5 76/9/5
f 121/10/29 122/10/29 120/10/29
f 122/10/29 121/10/29 123/10/29
f 75/9/12 122/10/12 123/10/12
f 122/10/12 75/9/12 77/9/12
f 121/10/2 75/9/2 123/10/2
f 75/9/2 121/10/2 76/9/2
f 78/9/3 122/10/3 77/9/3
f 122/10/3 78/9/3 120/10/3
f 87/9/5 125/10/5 124/10/5
f 125/10/5 87/9/5 85/9/5
f 125/10/29 126/10/29 124/10/29
f 126/10/29 125/10/29 127/10/29
f 84/9/12 126/10/12 127/10/12
f 126/10/12 84/9/12 86/9/12
f 125/10/2 84/9/2 127/10/2
f 84/9/2 125/10/2 85/9/2
f 87/9/3 126/10/3 86/9/3
f 126/10/3 87/9/3 124/10/3
f 130/11/3 129/11/3 128/11/3
f 129/11/3 130/11/3 131/11/3
f 134/11/2 133/11/2 132/11/2
f 133/11/2 134/11/2 135/11/2
f 130/11/5 134/11/5 131/11/5
f 134/11/5 130/11/5 135/11/5
f 134/11/29 129/11/29 131/11/29
f 129/11/29 134/11/29 132/11/29
f 133/11/28 130/11/28 128/11/28
f 130/11/28 133/11/28 135/11/28
f 133/11/12 129/11/12 132/11/12
f 129/11/12 133/11/12 128/11/12
f 138/11/2 137/11/2 136/11/2
f 137/11/2 138/11/2 139/11/2
f 142/11/3 141/11/3 140/11/3
f 141/11/3 142/11/3 143/11/3
f 137/11/28 142/11/28 140/11/28
f 142/11/28 137/11/28 139/11/28
f 137/11/12 141/11/12 136/11/12
f 141/11/12 137/11/12 140/11/12
f 138/11/29 141/11/29 143/11/29
f 141/11/29 138/11/29 136/11/29
f 142/11/5 138/11/5 143/11/5
f 138/11/5 142/11/5 139/11/5
