# Blender 4.1.1
# www.blender.org
mtllib tree.001.mtl
o tree.001
v -23.152491 -0.382804 -3.990360
v -23.152491 -0.382804 -4.236539
v -23.275581 -0.382804 -3.867270
v -23.275581 -0.382804 -4.359628
v -23.521759 -0.382804 -3.867270
v -23.521759 -0.382804 -4.359628
v -23.644850 -0.382804 -3.990360
v -23.644850 -0.382804 -4.236539
v -23.275581 0.062918 -4.174994
v -23.275581 0.062918 -4.051904
v -23.337126 0.062918 -3.990360
v -23.337126 0.062918 -4.236539
v -23.460215 0.062918 -4.236539
v -23.521759 0.062918 -4.174994
v -23.521759 0.062918 -4.051904
v -23.460215 0.062918 -3.990360
v -23.552532 0.731552 -4.190380
v -23.552532 0.731552 -4.036518
v -23.475601 0.731552 -3.959587
v -23.244808 0.731552 -4.190380
v -23.244808 0.731552 -4.036518
v -23.475601 0.731552 -4.267311
v -23.321739 0.731552 -4.267311
v -23.321739 0.731552 -3.959587
v -23.195215 0.222058 -4.173615
v -23.232178 0.222058 -4.084378
v -23.232178 0.222058 -4.262852
v -23.321415 0.222058 -4.299816
v -23.321415 0.222058 -4.047415
v -23.410652 0.222058 -4.262852
v -23.410652 0.222058 -4.084378
v -23.447617 0.222058 -4.173615
v -23.123734 0.060318 -4.173615
v -23.181633 0.060318 -4.313397
v -23.181633 0.060318 -4.033833
v -23.321415 0.060318 -3.975934
v -23.321415 0.060318 -4.371297
v -23.461197 0.060318 -4.033833
v -23.461197 0.060318 -4.313397
v -23.519098 0.060318 -4.173615
v -23.104069 0.731552 -3.582513
v -23.717142 0.731552 -3.582513
v -23.229748 1.468507 -3.800195
v -23.591463 1.468507 -3.800195
v -23.104069 0.731552 -4.644386
v -22.797533 0.731552 -4.113449
v -23.229748 1.468507 -4.426704
v -23.048889 1.468507 -4.113449
v -23.717142 0.731552 -4.644386
v -23.591463 1.468507 -4.426704
v -23.772320 1.468507 -4.113449
v -24.023678 0.731552 -4.113449
v -23.057106 2.260255 -4.113449
v -23.233856 2.260255 -3.807310
v -23.329355 3.090716 -4.113450
v -23.369980 3.090716 -4.043084
v -23.491856 3.090716 -4.113450
v -23.451231 3.090716 -4.043084
v -23.764103 2.260255 -4.113449
v -23.587355 2.260255 -3.807310
v -23.587355 2.260255 -4.419588
v -23.233856 2.260255 -4.419588
v -23.451231 3.090716 -4.183815
v -23.369980 3.090716 -4.183815
v -22.978949 1.468507 -4.362666
v -22.978949 1.468507 -3.864233
v -23.212816 2.260255 -4.227643
v -23.212816 2.260255 -3.999255
v -23.410604 1.468507 -4.611883
v -23.410604 2.260255 -4.341837
v -23.410604 1.468507 -3.615016
v -23.410604 2.260255 -3.885062
v -23.842260 1.468507 -3.864233
v -23.608395 2.260255 -3.999255
v -23.842260 1.468507 -4.362666
v -23.608395 2.260255 -4.227643
v -23.410604 0.501649 -3.465707
v -23.750860 0.616601 -3.524110
v -23.070349 0.616601 -3.524110
v -23.750860 0.616601 -4.702789
v -23.971567 0.501649 -4.437320
v -24.091116 0.616601 -4.113449
v -23.971567 0.501649 -3.789578
v -22.730095 0.616601 -4.113449
v -22.849644 0.501649 -3.789578
v -23.410604 0.501649 -4.761192
v -23.070349 0.616601 -4.702789
v -22.849644 0.501649 -4.437320
v -23.673916 1.281595 -4.569516
v -23.410604 1.375051 -4.666710
v -23.889744 1.375051 -4.390079
v -22.931467 1.375051 -4.390079
v -22.883986 1.281595 -4.113449
v -22.931467 1.375051 -3.836819
v -23.673916 1.281595 -3.657383
v -23.889744 1.375051 -3.836819
v -23.410604 1.375051 -3.560188
v -23.937225 1.281595 -4.113449
v -23.147295 1.281595 -3.657383
v -23.147295 1.281595 -4.569516
v -23.606796 2.193974 -4.453264
v -23.734056 2.127692 -4.300194
v -23.802988 2.193974 -4.113449
v -23.734056 2.127692 -3.926705
v -23.606796 2.193974 -3.773635
v -23.214413 2.193974 -4.453264
v -23.087154 2.127692 -4.300194
v -23.018221 2.193974 -4.113449
v -23.410604 2.127692 -3.739960
v -23.214413 2.193974 -3.773635
v -23.410604 2.127692 -4.486938
v -23.087154 2.127692 -3.926705
vn -0.0000 -1.0000 -0.0000
vn 0.8851 0.2942 -0.3607
vn 0.8813 0.2944 0.3698
vn 0.8812 0.2944 -0.3698
vn 0.8812 0.2944 0.3698
vn 0.8851 0.2942 0.3607
vn 0.3607 0.2942 0.8850
vn 0.8850 0.2942 0.3608
vn 0.3607 0.2943 0.8850
vn 0.3698 0.2944 0.8812
vn 0.3607 0.2942 -0.8850
vn 0.3698 0.2944 -0.8812
vn 0.8850 0.2942 -0.3608
vn -0.3607 0.2942 -0.8851
vn 0.3698 0.2944 -0.8813
vn -0.3698 0.2944 -0.8812
vn 0.3607 0.2942 -0.8851
vn -0.8813 0.2944 0.3698
vn -0.8851 0.2942 -0.3607
vn -0.8812 0.2944 -0.3698
vn -0.8851 0.2942 0.3607
vn 0.3607 0.2942 0.8851
vn -0.3698 0.2944 0.8813
vn -0.3698 0.2944 0.8812
vn -0.3607 0.2942 0.8851
vn -0.3607 0.2942 -0.8850
vn -0.3608 0.2942 -0.8850
vn -0.8850 0.2942 -0.3607
vn -0.8812 0.2944 0.3698
vn -0.3608 0.2942 0.8850
vn -0.8850 0.2942 0.3607
vn -0.3607 0.2942 0.8850
vn -0.9230 -0.0513 -0.3813
vn -0.9223 -0.0512 0.3829
vn -0.9223 -0.0513 -0.3829
vn -0.9223 -0.0513 0.3829
vn -0.9230 -0.0513 0.3813
vn -0.3814 -0.0512 0.9230
vn -0.9223 -0.0513 0.3830
vn -0.9230 -0.0512 0.3813
vn -0.3813 -0.0513 0.9230
vn -0.3830 -0.0512 0.9223
vn 0.9223 -0.0512 0.3829
vn 0.9230 -0.0513 -0.3813
vn 0.9223 -0.0513 -0.3829
vn 0.9230 -0.0513 0.3813
vn -0.3829 -0.0513 -0.9223
vn 0.3813 -0.0513 -0.9230
vn -0.3813 -0.0513 -0.9230
vn -0.3829 -0.0512 -0.9223
vn 0.3829 -0.0513 -0.9223
vn 0.9223 -0.0513 0.3830
vn 0.3814 -0.0513 0.9230
vn 0.3813 -0.0513 0.9230
vn 0.9223 -0.0512 0.3830
vn 0.3830 -0.0513 0.9223
vn -0.9223 -0.0512 -0.3830
vn -0.3830 -0.0513 -0.9223
vn -0.9223 -0.0513 -0.3830
vn -0.3814 -0.0513 -0.9230
vn 0.9223 -0.0513 -0.3830
vn 0.3830 -0.0512 -0.9223
vn 0.3814 -0.0512 -0.9230
vn 0.9230 -0.0512 -0.3813
vn 0.3829 -0.0513 0.9223
vn 0.3829 -0.0512 0.9223
vn -0.3829 -0.0513 0.9223
vn -0.0000 1.0000 -0.0000
vn 0.6468 0.4042 -0.6468
vn 0.9147 0.4042 -0.0000
vn 0.6468 0.4042 -0.6467
vn 0.9146 0.4043 -0.0000
vn -0.0000 0.4042 0.9147
vn -0.6467 0.4042 0.6468
vn -0.6467 0.4043 0.6468
vn -0.9147 0.4042 -0.0000
vn -0.6468 0.4042 0.6468
vn -0.9146 0.4043 -0.0000
vn -0.6468 0.4042 0.6467
vn -0.0000 0.4042 -0.9147
vn 0.6467 0.4042 -0.6468
vn 0.6468 0.4042 0.6468
vn 0.6467 0.4042 0.6468
vn -0.0000 0.4043 0.9146
vn -0.6468 0.4042 -0.6468
vn -0.6467 0.4042 -0.6468
vn -0.0000 0.4043 -0.9146
vn 0.6468 0.4042 0.6467
vn -0.6468 0.4042 -0.6467
vn 0.4732 0.3228 0.8197
vn -0.4732 0.3228 0.8197
vn 0.4732 0.3228 -0.8196
vn 0.9465 0.3228 -0.0000
vn 0.4732 0.3228 -0.8197
vn -0.4732 0.3228 -0.8197
vn 0.4733 0.3228 0.8197
vn -0.9465 0.3228 -0.0000
vn -0.4733 0.3228 0.8197
vn -0.4733 0.3228 -0.8197
vn 0.6877 0.7260 -0.0000
vn 0.4751 0.3115 0.8229
vn 0.9503 0.3115 -0.0000
vn 0.3438 0.7260 0.5956
vn -0.9502 0.3115 0.0001
vn -0.3438 0.7260 0.5956
vn -0.6877 0.7260 -0.0000
vn -0.9503 0.3115 -0.0000
vn -0.4752 0.3115 0.8229
vn -0.3439 0.7260 -0.5956
vn 0.4751 0.3115 -0.8229
vn -0.4751 0.3115 -0.8229
vn 0.3439 0.7260 -0.5956
vn 0.3438 0.7260 -0.5956
vn 0.9502 0.3115 -0.0000
vn 0.6877 0.7260 0.0001
vn 0.3439 0.7259 -0.5956
vn 0.3439 0.7259 0.5956
vn -0.3439 0.7259 0.5956
vn -0.3439 0.7259 -0.5956
vn -0.9502 0.3115 -0.0000
vn -0.3438 0.7260 -0.5956
vn -0.4752 0.3115 -0.8229
vn -0.9502 0.3115 -0.0001
vn 0.3439 0.7260 0.5956
vn -0.4751 0.3115 0.8229
vn -0.3439 0.7260 0.5956
vn 0.8197 0.3228 -0.4732
vn 0.8197 0.3228 0.4732
vn -0.0000 0.3228 -0.9465
vn 0.8196 0.3228 -0.4732
vn 0.8197 0.3228 -0.4733
vn 0.8196 0.3228 0.4732
vn -0.0000 0.3228 0.9465
vn 0.8197 0.3228 0.4733
vn -0.8196 0.3228 0.4732
vn -0.8197 0.3228 0.4732
vn -0.8196 0.3228 -0.4732
vn -0.8197 0.3228 -0.4732
vn 0.4313 0.5060 0.7470
vn -0.4313 0.5060 0.7470
vn -0.0000 0.4530 0.8915
vn -0.0000 -0.4530 -0.8915
vn 0.4313 -0.5060 -0.7470
vn -0.4313 -0.5060 -0.7470
vn -0.7721 0.4530 -0.4458
vn -0.4313 0.5060 -0.7470
vn -0.8625 0.5060 -0.0000
vn 0.4313 -0.5060 0.7470
vn 0.7721 -0.4530 0.4458
vn 0.8625 -0.5060 -0.0000
vn -0.7721 0.4530 0.4458
vn 0.7721 -0.4530 -0.4458
vn 0.8625 0.5060 -0.0000
vn 0.7721 0.4530 0.4458
vn 0.4313 0.5060 0.7469
vn -0.8625 -0.5060 -0.0000
vn -0.7721 -0.4530 -0.4458
vn 0.4313 0.5060 -0.7470
vn -0.0000 0.4530 -0.8915
vn -0.0000 -0.4530 0.8915
vn -0.4313 -0.5060 0.7470
vn 0.7721 0.4530 -0.4458
vn -0.7721 -0.4530 0.4458
vn -0.4313 -0.5060 0.7469
vn -0.7470 0.5060 -0.4313
vn -0.0000 0.5060 -0.8625
vn -0.4458 0.4530 -0.7721
vn 0.4458 -0.4530 0.7721
vn -0.0000 -0.5060 0.8625
vn 0.7470 -0.5060 0.4313
vn 0.7470 0.5060 -0.4313
vn 0.8915 0.4530 -0.0000
vn 0.7470 0.5060 0.4313
vn -0.7470 -0.5060 0.4313
vn -0.8915 -0.4530 -0.0000
vn -0.7470 -0.5060 -0.4313
vn -0.0000 0.5060 0.8625
vn -0.7470 0.5060 0.4313
vn -0.4458 0.4530 0.7721
vn 0.4458 -0.4530 -0.7721
vn 0.7470 -0.5060 -0.4313
vn -0.0000 -0.5060 -0.8625
vn -0.8915 0.4530 -0.0000
vn -0.7469 0.5060 -0.4313
vn 0.8915 -0.4530 -0.0000
vn 0.4458 0.4530 0.7721
vn -0.4458 -0.4530 -0.7721
vn 0.4458 0.4530 -0.7721
vn -0.4458 -0.4530 0.7721
vn -0.4312 0.5060 -0.7470
vn 0.4312 -0.5060 0.7470
vn -0.7721 0.4529 0.4458
vn 0.4312 -0.5060 -0.7470
vn 0.7721 -0.4529 -0.4458
vn 0.4312 0.5060 -0.7470
vn -0.4312 -0.5060 0.7470
vn 0.4312 0.5060 0.7470
vt 0.593750 0.025000
vt 0.593750 0.104996
vt 0.593750 0.225000
vt 0.093750 0.475000
vt 0.093750 0.275000
vt 0.093750 0.425000
vt 0.093750 0.348778
vt 0.093750 0.338765
vt 0.093750 0.344099
vt 0.093750 0.375000
vt 0.093750 0.325000
s 0
usemtl colormap.004
f 3/1/1 2/1/1 1/1/1
f 2/1/1 3/1/1 4/1/1
f 4/1/1 3/1/1 5/1/1
f 4/1/1 5/1/1 6/1/1
f 6/1/1 5/1/1 7/1/1
f 6/1/1 7/1/1 8/1/1
f 9/2/2 1/1/3 2/1/4
f 1/1/5 9/2/2 10/2/6
f 11/2/7 1/1/5 10/2/8
f 1/1/5 11/2/9 3/1/10
f 12/2/11 2/1/4 4/1/12
f 2/1/4 12/2/11 9/2/13
f 13/2/14 4/1/15 6/1/16
f 4/1/12 13/2/14 12/2/17
f 7/1/18 14/2/19 8/1/20
f 14/2/19 7/1/18 15/2/21
f 11/2/22 5/1/23 3/1/10
f 5/1/24 11/2/22 16/2/25
f 8/1/20 13/2/26 6/1/16
f 13/2/27 8/1/20 14/2/28
f 7/1/29 16/2/30 15/2/31
f 16/2/32 7/1/29 5/1/24
f 14/2/33 18/3/34 17/3/35
f 18/3/36 14/2/33 15/2/37
f 16/2/38 18/3/39 15/2/40
f 18/3/39 16/2/41 19/3/42
f 21/3/43 9/2/44 20/3/45
f 9/2/44 21/3/43 10/2/46
f 22/3/47 12/2/48 13/2/49
f 12/2/48 22/3/50 23/3/51
f 21/3/52 11/2/53 10/2/46
f 11/2/54 21/3/55 24/3/56
f 13/2/49 17/3/57 22/3/58
f 17/3/59 13/2/60 14/2/33
f 20/3/61 12/2/48 23/3/62
f 12/2/63 20/3/61 9/2/64
f 24/3/65 16/2/41 11/2/54
f 16/2/41 24/3/66 19/3/67
f 27/4/68 26/4/68 25/4/68
f 26/4/68 27/4/68 28/4/68
f 26/4/68 28/4/68 29/4/68
f 29/4/68 28/4/68 30/4/68
f 29/4/68 30/4/68 31/4/68
f 31/4/68 30/4/68 32/4/68
f 35/5/1 34/5/1 33/5/1
f 34/5/1 35/5/1 36/5/1
f 34/5/1 36/5/1 37/5/1
f 37/5/1 36/5/1 38/5/1
f 37/5/1 38/5/1 39/5/1
f 39/5/1 38/5/1 40/5/1
f 27/4/69 33/5/70 34/5/71
f 33/5/70 27/4/69 25/4/72
f 29/4/73 38/5/74 36/5/73
f 38/5/74 29/4/73 31/4/75
f 40/5/76 31/4/77 32/4/78
f 31/4/79 40/5/76 38/5/79
f 28/4/80 34/5/81 37/5/80
f 34/5/81 28/4/80 27/4/81
f 26/4/82 36/5/73 35/5/83
f 36/5/73 26/4/83 29/4/84
f 30/4/85 37/5/80 39/5/86
f 37/5/80 30/4/85 28/4/87
f 26/4/82 33/5/72 25/4/70
f 33/5/70 26/4/88 35/5/88
f 40/5/76 30/4/89 39/5/89
f 30/4/85 40/5/78 32/4/76
f 43/6/90 42/7/91 41/7/90
f 42/7/91 43/6/90 44/6/91
f 47/6/92 46/7/93 45/7/92
f 46/7/93 47/6/94 48/6/93
f 50/6/95 45/7/94 49/7/95
f 45/7/94 50/6/95 47/6/94
f 48/6/93 41/7/90 46/7/93
f 41/7/96 48/6/93 43/6/96
f 52/7/97 44/6/98 51/6/97
f 44/6/91 52/7/97 42/7/91
f 52/7/97 50/6/95 49/7/95
f 50/6/99 52/7/97 51/6/97
f 41/7/1 45/7/1 46/7/1
f 45/7/1 41/7/1 42/7/1
f 45/7/1 42/7/1 49/7/1
f 49/7/1 42/7/1 52/7/1
f 55/6/100 54/8/101 53/8/102
f 54/8/101 55/6/100 56/6/103
f 59/8/104 58/6/105 57/6/106
f 58/6/105 59/8/107 60/8/108
f 63/6/109 62/8/110 61/8/111
f 62/8/110 63/6/109 64/6/112
f 64/6/113 53/8/114 62/8/110
f 53/8/114 64/6/113 55/6/115
f 64/6/116 56/6/117 55/6/100
f 56/6/117 64/6/116 58/6/118
f 58/6/118 64/6/116 63/6/119
f 58/6/118 63/6/119 57/6/106
f 59/8/120 63/6/121 61/8/122
f 63/6/121 59/8/123 57/6/106
f 54/8/1 62/8/1 53/8/1
f 62/8/1 54/8/1 60/8/1
f 62/8/1 60/8/1 61/8/1
f 61/8/1 60/8/1 59/8/1
f 56/6/124 60/8/125 54/8/101
f 60/8/125 56/6/124 58/6/126
f 67/6/127 66/9/128 65/9/127
f 66/9/128 67/6/127 68/6/128
f 70/6/129 65/9/130 69/9/129
f 65/9/127 70/6/129 67/6/131
f 68/6/132 71/9/133 66/9/128
f 71/9/133 68/6/134 72/6/133
f 72/6/133 73/9/135 71/9/133
f 73/9/136 72/6/133 74/6/136
f 71/9/1 65/9/1 66/9/1
f 65/9/1 71/9/1 69/9/1
f 69/9/1 71/9/1 73/9/1
f 69/9/1 73/9/1 75/9/1
f 76/6/137 69/9/129 75/9/138
f 69/9/129 76/6/138 70/6/129
f 73/9/136 76/6/138 75/9/138
f 76/6/138 73/9/136 74/6/136
f 79/10/139 78/10/140 77/11/141
f 78/10/140 79/10/139 41/6/139
f 78/10/140 41/6/139 42/6/140
f 77/11/142 78/10/143 79/10/144
f 41/6/144 79/10/144 78/10/143
f 42/6/143 41/6/144 78/10/143
f 81/11/145 49/6/146 80/10/146
f 49/6/146 81/11/145 52/6/147
f 52/6/147 81/11/145 82/10/147
f 80/10/148 49/6/148 81/11/149
f 52/6/150 81/11/149 49/6/148
f 82/10/150 81/11/149 52/6/150
f 82/10/147 42/6/140 52/6/147
f 42/6/140 82/10/147 83/11/151
f 42/6/140 83/11/151 78/10/140
f 52/6/150 42/6/143 82/10/150
f 83/11/152 82/10/150 42/6/143
f 78/10/143 83/11/152 42/6/143
f 46/6/153 85/11/154 84/10/153
f 85/11/154 46/6/153 41/6/139
f 85/11/154 41/6/155 79/10/139
f 84/10/156 85/11/157 46/6/156
f 41/6/144 46/6/156 85/11/157
f 79/10/144 41/6/144 85/11/157
f 80/10/146 87/10/158 86/11/159
f 87/10/158 80/10/146 49/6/146
f 87/10/158 49/6/146 45/6/158
f 86/11/160 87/10/161 80/10/148
f 49/6/148 80/10/148 87/10/161
f 45/6/161 49/6/148 87/10/161
f 45/6/158 88/11/162 87/10/158
f 88/11/162 45/6/158 46/6/153
f 88/11/162 46/6/153 84/10/153
f 87/10/161 88/11/163 45/6/164
f 46/6/156 45/6/161 88/11/163
f 84/10/156 46/6/156 88/11/163
f 91/10/165 90/10/166 89/11/167
f 90/10/166 91/10/165 75/6/165
f 90/10/166 75/6/165 69/6/166
f 89/11/168 90/10/169 91/10/170
f 75/6/170 91/10/170 90/10/169
f 69/6/169 75/6/170 90/10/169
f 65/6/171 93/11/172 92/10/171
f 93/11/172 65/6/171 66/6/173
f 93/11/172 66/6/173 94/10/173
f 92/10/174 93/11/175 65/6/174
f 66/6/176 65/6/174 93/11/175
f 94/10/176 66/6/176 93/11/175
f 97/10/177 96/10/178 95/11/179
f 96/10/178 97/10/177 71/6/177
f 96/10/178 71/6/177 73/6/178
f 95/11/180 96/10/181 97/10/182
f 71/6/182 97/10/182 96/10/181
f 73/6/181 71/6/182 96/10/181
f 98/11/183 75/6/184 91/10/165
f 75/6/165 98/11/183 73/6/178
f 73/6/178 98/11/183 96/10/178
f 91/10/170 75/6/170 98/11/185
f 73/6/181 98/11/185 75/6/170
f 96/10/181 98/11/185 73/6/181
f 94/10/173 97/10/177 99/11/186
f 97/10/177 94/10/173 66/6/173
f 97/10/177 66/6/173 71/6/177
f 99/11/187 97/10/182 94/10/176
f 66/6/176 94/10/176 97/10/182
f 71/6/182 66/6/176 97/10/182
f 90/10/166 92/10/171 100/11/188
f 92/10/171 90/10/166 69/6/166
f 92/10/171 69/6/166 65/6/171
f 100/11/189 92/10/174 90/10/169
f 69/6/169 90/10/169 92/10/174
f 65/6/174 69/6/169 92/10/174
f 102/11/145 61/6/190 101/10/190
f 61/6/146 102/11/145 59/6/147
f 59/6/147 102/11/145 103/10/147
f 101/10/191 61/6/191 102/11/149
f 59/6/150 102/11/149 61/6/148
f 103/10/150 102/11/149 59/6/150
f 103/10/147 60/6/140 59/6/147
f 60/6/140 103/10/147 104/11/151
f 60/6/140 104/11/192 105/10/140
f 59/6/150 60/6/143 103/10/150
f 104/11/152 103/10/150 60/6/143
f 105/10/193 104/11/194 60/6/193
f 62/6/195 107/11/162 106/10/158
f 107/11/162 62/6/158 53/6/153
f 107/11/162 53/6/153 108/10/153
f 106/10/161 107/11/163 62/6/196
f 53/6/156 62/6/161 107/11/163
f 108/10/156 53/6/156 107/11/163
f 110/10/139 105/10/140 109/11/141
f 105/10/140 110/10/139 54/6/139
f 105/10/140 54/6/139 60/6/140
f 109/11/142 105/10/143 110/10/144
f 54/6/144 110/10/144 105/10/143
f 60/6/143 54/6/144 105/10/143
f 101/10/146 106/10/158 111/11/159
f 106/10/158 101/10/146 61/6/146
f 106/10/158 61/6/146 62/6/158
f 111/11/160 106/10/161 101/10/148
f 61/6/148 101/10/148 106/10/161
f 62/6/161 61/6/148 106/10/161
f 53/6/153 112/11/154 108/10/153
f 112/11/154 53/6/153 54/6/139
f 112/11/154 54/6/197 110/10/139
f 108/10/156 112/11/157 53/6/156
f 54/6/144 53/6/156 112/11/157
f 110/10/144 54/6/144 112/11/157
f 3/1/1 2/1/1 1/1/1
f 2/1/1 3/1/1 4/1/1
f 4/1/1 3/1/1 5/1/1
f 4/1/1 5/1/1 6/1/1
f 6/1/1 5/1/1 7/1/1
f 6/1/1 7/1/1 8/1/1
f 9/2/2 1/1/3 2/1/4
f 1/1/5 9/2/2 10/2/6
f 11/2/7 1/1/5 10/2/8
f 1/1/5 11/2/9 3/1/10
f 12/2/11 2/1/4 4/1/12
f 2/1/4 12/2/11 9/2/13
f 13/2/14 4/1/15 6/1/16
f 4/1/12 13/2/14 12/2/17
f 7/1/18 14/2/19 8/1/20
f 14/2/19 7/1/18 15/2/21
f 11/2/22 5/1/23 3/1/10
f 5/1/24 11/2/22 16/2/25
f 8/1/20 13/2/26 6/1/16
f 13/2/27 8/1/20 14/2/28
f 7/1/29 16/2/30 15/2/31
f 16/2/32 7/1/29 5/1/24
f 14/2/33 18/3/34 17/3/35
f 18/3/36 14/2/33 15/2/37
f 16/2/38 18/3/39 15/2/40
f 18/3/39 16/2/41 19/3/42
f 21/3/43 9/2/44 20/3/45
f 9/2/44 21/3/43 10/2/46
f 22/3/47 12/2/48 13/2/49
f 12/2/48 22/3/50 23/3/51
f 21/3/52 11/2/53 10/2/46
f 11/2/54 21/3/55 24/3/56
f 13/2/49 17/3/57 22/3/58
f 17/3/59 13/2/60 14/2/33
f 20/3/61 12/2/48 23/3/62
f 12/2/63 20/3/61 9/2/64
f 24/3/65 16/2/41 11/2/54
f 16/2/41 24/3/66 19/3/67
f 27/4/68 26/4/68 25/4/68
f 26/4/68 27/4/68 28/4/68
f 26/4/68 28/4/68 29/4/68
f 29/4/68 28/4/68 30/4/68
f 29/4/68 30/4/68 31/4/68
f 31/4/68 30/4/68 32/4/68
f 35/5/1 34/5/1 33/5/1
f 34/5/1 35/5/1 36/5/1
f 34/5/1 36/5/1 37/5/1
f 37/5/1 36/5/1 38/5/1
f 37/5/1 38/5/1 39/5/1
f 39/5/1 38/5/1 40/5/1
f 27/4/69 33/5/70 34/5/71
f 33/5/70 27/4/69 25/4/72
f 29/4/73 38/5/74 36/5/73
f 38/5/74 29/4/73 31/4/75
f 40/5/76 31/4/77 32/4/78
f 31/4/79 40/5/76 38/5/79
f 28/4/80 34/5/81 37/5/80
f 34/5/81 28/4/80 27/4/81
f 26/4/82 36/5/73 35/5/83
f 36/5/73 26/4/83 29/4/84
f 30/4/85 37/5/80 39/5/86
f 37/5/80 30/4/85 28/4/87
f 26/4/82 33/5/72 25/4/70
f 33/5/70 26/4/88 35/5/88
f 40/5/76 30/4/89 39/5/89
f 30/4/85 40/5/78 32/4/76
f 43/6/90 42/7/91 41/7/90
f 42/7/91 43/6/90 44/6/91
f 47/6/92 46/7/93 45/7/92
f 46/7/93 47/6/94 48/6/93
f 50/6/95 45/7/94 49/7/95
f 45/7/94 50/6/95 47/6/94
f 48/6/93 41/7/90 46/7/93
f 41/7/96 48/6/93 43/6/96
f 52/7/97 44/6/98 51/6/97
f 44/6/91 52/7/97 42/7/91
f 52/7/97 50/6/95 49/7/95
f 50/6/99 52/7/97 51/6/97
f 41/7/1 45/7/1 46/7/1
f 45/7/1 41/7/1 42/7/1
f 45/7/1 42/7/1 49/7/1
f 49/7/1 42/7/1 52/7/1
f 55/6/100 54/8/101 53/8/102
f 54/8/101 55/6/100 56/6/103
f 59/8/104 58/6/105 57/6/106
f 58/6/105 59/8/107 60/8/108
f 63/6/109 62/8/110 61/8/111
f 62/8/110 63/6/109 64/6/112
f 64/6/113 53/8/114 62/8/110
f 53/8/114 64/6/113 55/6/115
f 64/6/116 56/6/117 55/6/100
f 56/6/117 64/6/116 58/6/118
f 58/6/118 64/6/116 63/6/119
f 58/6/118 63/6/119 57/6/106
f 59/8/120 63/6/121 61/8/122
f 63/6/121 59/8/123 57/6/106
f 54/8/1 62/8/1 53/8/1
f 62/8/1 54/8/1 60/8/1
f 62/8/1 60/8/1 61/8/1
f 61/8/1 60/8/1 59/8/1
f 56/6/124 60/8/125 54/8/101
f 60/8/125 56/6/124 58/6/126
f 67/6/127 66/9/128 65/9/127
f 66/9/128 67/6/127 68/6/128
f 70/6/129 65/9/130 69/9/129
f 65/9/127 70/6/129 67/6/131
f 68/6/132 71/9/133 66/9/128
f 71/9/133 68/6/134 72/6/133
f 72/6/133 73/9/135 71/9/133
f 73/9/136 72/6/133 74/6/136
f 71/9/1 65/9/1 66/9/1
f 65/9/1 71/9/1 69/9/1
f 69/9/1 71/9/1 73/9/1
f 69/9/1 73/9/1 75/9/1
f 76/6/137 69/9/129 75/9/138
f 69/9/129 76/6/138 70/6/129
f 73/9/136 76/6/138 75/9/138
f 76/6/138 73/9/136 74/6/136
f 79/10/139 78/10/140 77/11/141
f 78/10/140 79/10/139 41/6/139
f 78/10/140 41/6/139 42/6/140
f 77/11/142 78/10/143 79/10/144
f 41/6/144 79/10/144 78/10/143
f 42/6/143 41/6/144 78/10/143
f 81/11/145 49/6/146 80/10/146
f 49/6/146 81/11/145 52/6/147
f 52/6/147 81/11/145 82/10/147
f 80/10/148 49/6/148 81/11/149
f 52/6/150 81/11/149 49/6/148
f 82/10/150 81/11/149 52/6/150
f 82/10/147 42/6/140 52/6/147
f 42/6/140 82/10/147 83/11/151
f 42/6/140 83/11/151 78/10/140
f 52/6/150 42/6/143 82/10/150
f 83/11/152 82/10/150 42/6/143
f 78/10/143 83/11/152 42/6/143
f 46/6/153 85/11/154 84/10/153
f 85/11/154 46/6/153 41/6/139
f 85/11/154 41/6/155 79/10/139
f 84/10/156 85/11/157 46/6/156
f 41/6/144 46/6/156 85/11/157
f 79/10/144 41/6/144 85/11/157
f 80/10/146 87/10/158 86/11/159
f 87/10/158 80/10/146 49/6/146
f 87/10/158 49/6/146 45/6/158
f 86/11/160 87/10/161 80/10/148
f 49/6/148 80/10/148 87/10/161
f 45/6/161 49/6/148 87/10/161
f 45/6/158 88/11/162 87/10/158
f 88/11/162 45/6/158 46/6/153
f 88/11/162 46/6/153 84/10/153
f 87/10/161 88/11/163 45/6/164
f 46/6/156 45/6/161 88/11/163
f 84/10/156 46/6/156 88/11/163
f 91/10/165 90/10/166 89/11/167
f 90/10/166 91/10/165 75/6/165
f 90/10/166 75/6/165 69/6/166
f 89/11/168 90/10/169 91/10/170
f 75/6/170 91/10/170 90/10/169
f 69/6/169 75/6/170 90/10/169
f 65/6/171 93/11/172 92/10/171
f 93/11/172 65/6/171 66/6/173
f 93/11/172 66/6/173 94/10/173
f 92/10/174 93/11/175 65/6/174
f 66/6/176 65/6/174 93/11/175
f 94/10/176 66/6/176 93/11/175
f 97/10/177 96/10/178 95/11/179
f 96/10/178 97/10/177 71/6/177
f 96/10/178 71/6/177 73/6/178
f 95/11/180 96/10/181 97/10/182
f 71/6/182 97/10/182 96/10/181
f 73/6/181 71/6/182 96/10/181
f 98/11/183 75/6/184 91/10/165
f 75/6/165 98/11/183 73/6/178
f 73/6/178 98/11/183 96/10/178
f 91/10/170 75/6/170 98/11/185
f 73/6/181 98/11/185 75/6/170
f 96/10/181 98/11/185 73/6/181
f 94/10/173 97/10/177 99/11/186
f 97/10/177 94/10/173 66/6/173
f 97/10/177 66/6/173 71/6/177
f 99/11/187 97/10/182 94/10/176
f 66/6/176 94/10/176 97/10/182
f 71/6/182 66/6/176 97/10/182
f 90/10/166 92/10/171 100/11/188
f 92/10/171 90/10/166 69/6/166
f 92/10/171 69/6/166 65/6/171
f 100/11/189 92/10/174 90/10/169
f 69/6/169 90/10/169 92/10/174
f 65/6/174 69/6/169 92/10/174
f 102/11/145 61/6/190 101/10/190
f 61/6/146 102/11/145 59/6/147
f 59/6/147 102/11/145 103/10/147
f 101/10/191 61/6/191 102/11/149
f 59/6/150 102/11/149 61/6/148
f 103/10/150 102/11/149 59/6/150
f 103/10/147 60/6/140 59/6/147
f 60/6/140 103/10/147 104/11/151
f 60/6/140 104/11/192 105/10/140
f 59/6/150 60/6/143 103/10/150
f 104/11/152 103/10/150 60/6/143
f 105/10/193 104/11/194 60/6/193
f 62/6/195 107/11/162 106/10/158
f 107/11/162 62/6/158 53/6/153
f 107/11/162 53/6/153 108/10/153
f 106/10/161 107/11/163 62/6/196
f 53/6/156 62/6/161 107/11/163
f 108/10/156 53/6/156 107/11/163
f 110/10/139 105/10/140 109/11/141
f 105/10/140 110/10/139 54/6/139
f 105/10/140 54/6/139 60/6/140
f 109/11/142 105/10/143 110/10/144
f 54/6/144 110/10/144 105/10/143
f 60/6/143 54/6/144 105/10/143
f 101/10/146 106/10/158 111/11/159
f 106/10/158 101/10/146 61/6/146
f 106/10/158 61/6/146 62/6/158
f 111/11/160 106/10/161 101/10/148
f 61/6/148 101/10/148 106/10/161
f 62/6/161 61/6/148 106/10/161
f 53/6/153 112/11/154 108/10/153
f 112/11/154 53/6/153 54/6/139
f 112/11/154 54/6/197 110/10/139
f 108/10/156 112/11/157 53/6/156
f 54/6/144 53/6/156 112/11/157
f 110/10/144 54/6/144 112/11/157
