# Blender 4.1.1
# www.blender.org
mtllib tree.017.mtl
o tree.017
v 0.630936 -0.282319 -13.457689
v 0.777080 -0.282319 -13.565417
v 0.504001 -0.282319 -13.476897
v 0.796287 -0.282319 -13.692353
v 0.396272 -0.282319 -13.623040
v 0.688559 -0.282319 -13.838496
v 0.415480 -0.282319 -13.749976
v 0.561623 -0.282319 -13.857705
v 0.686680 0.046402 -13.611558
v 0.613608 0.046402 -13.557693
v 0.550140 0.046402 -13.567297
v 0.696283 0.046402 -13.675026
v 0.642419 0.046402 -13.748096
v 0.578952 0.046402 -13.757700
v 0.505880 0.046402 -13.703835
v 0.496276 0.046402 -13.640368
v 0.574619 0.539521 -13.782701
v 0.483280 0.539521 -13.715372
v 0.471275 0.539521 -13.636037
v 0.709280 0.539521 -13.600021
v 0.617940 0.539521 -13.532693
v 0.653954 0.539521 -13.770697
v 0.721284 0.539521 -13.679357
v 0.538605 0.539521 -13.544697
v 0.721029 0.163768 -13.563246
v 0.651879 0.163768 -13.546139
v 0.757829 0.163768 -13.624239
v 0.740722 0.163768 -13.693388
v 0.590886 0.163768 -13.582939
v 0.679729 0.163768 -13.730189
v 0.573779 0.163768 -13.652088
v 0.610579 0.163768 -13.713081
v 0.752310 0.044485 -13.520810
v 0.809954 0.044485 -13.616352
v 0.643992 0.044485 -13.494014
v 0.548451 0.044485 -13.551658
v 0.783157 0.044485 -13.724670
v 0.521654 0.044485 -13.659976
v 0.687616 0.044485 -13.782314
v 0.579298 0.044485 -13.755517
v 0.410009 0.539521 -13.250470
v 0.141728 0.539521 -13.614418
v 0.484238 1.083027 -13.420336
v 0.325951 1.083027 -13.635066
v 1.040386 0.539521 -13.715145
v 0.859338 0.539521 -13.300834
v 0.856163 1.083027 -13.694497
v 0.749344 1.083027 -13.450050
v 0.772105 0.539521 -14.079094
v 0.697876 1.083027 -13.909228
v 0.432770 1.083027 -13.879513
v 0.322776 0.539521 -14.028729
v 0.745748 1.666943 -13.454929
v 0.486665 1.666943 -13.425888
v 0.626612 2.279410 -13.616548
v 0.567063 2.279410 -13.609873
v 0.555502 2.279410 -13.713016
v 0.531507 2.279410 -13.658108
v 0.436366 1.666943 -13.874636
v 0.331973 1.666943 -13.635741
v 0.695449 1.666943 -13.903675
v 0.850141 1.666943 -13.693822
v 0.615051 2.279410 -13.719690
v 0.650607 2.279410 -13.671457
v 0.927896 1.083027 -13.517590
v 0.632003 1.083027 -13.299475
v 0.745400 1.666943 -13.597337
v 0.609819 1.666943 -13.497394
v 0.886950 1.083027 -13.882896
v 0.726638 1.666943 -13.764725
v 0.295164 1.083027 -13.446668
v 0.455476 1.666943 -13.564839
v 0.254218 1.083027 -13.811975
v 0.436714 1.666943 -13.732228
v 0.550111 1.083027 -14.030089
v 0.572295 1.666943 -13.832170
v 0.206527 0.369968 -13.381329
v 0.092302 0.454744 -13.608878
v 0.390094 0.454744 -13.204895
v 0.792020 0.454744 -14.124669
v 0.537845 0.369968 -14.139521
v 0.293265 0.454744 -14.068764
v 0.153315 0.369968 -13.856069
v 0.888849 0.454744 -13.260799
v 0.644269 0.369968 -13.190043
v 0.975587 0.369968 -13.948234
v 1.089812 0.454744 -13.720686
v 1.028799 0.369968 -13.473495
v 0.746574 0.945179 -14.020669
v 0.919498 1.014103 -13.906889
v 0.545606 1.014103 -14.070274
v 0.964949 1.014103 -13.501397
v 0.821506 0.945179 -13.352156
v 0.636508 1.014103 -13.259290
v 0.205091 0.945179 -13.621520
v 0.217166 1.014103 -13.828166
v 0.262616 1.014103 -13.422674
v 0.360608 0.945179 -13.977407
v 0.435540 0.945179 -13.308894
v 0.977023 0.945179 -13.708044
v 0.706933 1.618061 -13.929953
v 0.560375 1.569178 -13.938517
v 0.419350 1.618061 -13.897719
v 0.338654 1.569178 -13.775078
v 0.303474 1.618061 -13.632546
v 0.878640 1.618061 -13.697016
v 0.843460 1.569178 -13.554486
v 0.762764 1.618061 -13.431846
v 0.369337 1.569178 -13.501342
v 0.475181 1.618061 -13.399611
v 0.812777 1.569178 -13.828220
v 0.621739 1.569178 -13.391047
vn -0.0000 -1.0000 -0.0000
vn 0.8155 0.2942 0.4984
vn 0.2253 0.2944 0.9288
vn 0.8205 0.2944 0.4900
vn 0.2349 0.2942 0.9264
vn -0.4983 0.2942 0.8155
vn 0.2252 0.2944 0.9288
vn 0.2348 0.2942 0.9265
vn -0.4983 0.2943 0.8155
vn -0.4899 0.2944 0.8206
vn 0.9265 0.2942 -0.2348
vn 0.8206 0.2944 0.4899
vn 0.9288 0.2944 -0.2252
vn 0.8205 0.2944 0.4899
vn 0.4984 0.2942 -0.8155
vn 0.9288 0.2944 -0.2253
vn 0.4900 0.2944 -0.8205
vn 0.9287 0.2944 -0.2253
vn 0.9264 0.2942 -0.2349
vn -0.8205 0.2944 -0.4900
vn -0.2349 0.2942 -0.9264
vn -0.2253 0.2944 -0.9287
vn -0.8155 0.2942 -0.4984
vn -0.4984 0.2942 0.8155
vn -0.9288 0.2944 0.2253
vn -0.4900 0.2944 0.8205
vn -0.9287 0.2944 0.2253
vn -0.9264 0.2942 0.2349
vn -0.2252 0.2944 -0.9288
vn 0.4984 0.2943 -0.8155
vn 0.4899 0.2944 -0.8205
vn 0.4983 0.2942 -0.8155
vn -0.2348 0.2942 -0.9265
vn -0.8205 0.2944 -0.4899
vn -0.9265 0.2942 0.2348
vn -0.8206 0.2944 -0.4899
vn -0.9288 0.2944 0.2252
vn -0.2407 -0.0513 -0.9692
vn -0.8555 -0.0512 -0.5152
vn -0.2390 -0.0513 -0.9697
vn -0.8555 -0.0513 -0.5152
vn -0.2408 -0.0513 -0.9692
vn -0.8546 -0.0513 -0.5167
vn -0.9692 -0.0512 0.2407
vn -0.8556 -0.0513 -0.5152
vn -0.8546 -0.0512 -0.5167
vn -0.9692 -0.0513 0.2407
vn -0.9697 -0.0512 0.2390
vn 0.2390 -0.0512 0.9697
vn 0.8546 -0.0513 0.5167
vn 0.8555 -0.0513 0.5152
vn 0.2408 -0.0513 0.9692
vn 0.5152 -0.0513 -0.8555
vn 0.9692 -0.0513 -0.2408
vn 0.5167 -0.0513 -0.8546
vn 0.9692 -0.0513 -0.2407
vn 0.5152 -0.0512 -0.8555
vn 0.9697 -0.0513 -0.2390
vn 0.2390 -0.0513 0.9697
vn -0.5167 -0.0513 0.8546
vn 0.2407 -0.0512 0.9692
vn -0.5152 -0.0513 0.8556
vn 0.5152 -0.0513 -0.8556
vn -0.2407 -0.0512 -0.9692
vn 0.8556 -0.0513 0.5152
vn 0.9697 -0.0512 -0.2390
vn 0.9692 -0.0512 -0.2407
vn 0.8546 -0.0512 0.5167
vn -0.5152 -0.0513 0.8555
vn -0.9692 -0.0513 0.2408
vn -0.5152 -0.0512 0.8555
vn -0.9697 -0.0513 0.2390
vn -0.0000 1.0000 -0.0000
vn 0.9044 0.4042 0.1369
vn 0.5427 0.4042 0.7362
vn 0.5427 0.4043 0.7362
vn -0.7363 0.4042 0.5427
vn -0.9044 0.4042 -0.1368
vn -0.9044 0.4043 -0.1368
vn -0.5427 0.4042 -0.7362
vn -0.9044 0.4042 -0.1369
vn -0.5427 0.4043 -0.7362
vn 0.7363 0.4042 -0.5427
vn 0.9044 0.4042 0.1368
vn 0.9044 0.4043 0.1368
vn -0.1369 0.4042 0.9044
vn -0.7362 0.4042 0.5427
vn 0.1369 0.4042 -0.9044
vn 0.7362 0.4042 -0.5427
vn 0.7362 0.4043 -0.5427
vn -0.1368 0.4042 0.9044
vn 0.5427 0.4042 0.7363
vn -0.5427 0.4042 -0.7363
vn 0.1368 0.4042 -0.9044
vn -0.3790 0.3228 0.8673
vn -0.9406 0.3228 0.1054
vn 0.9406 0.3228 -0.1054
vn 0.5616 0.3228 0.7619
vn 0.5616 0.3228 0.7618
vn 0.3790 0.3228 -0.8673
vn -0.5616 0.3228 -0.7619
vn -0.5616 0.3228 -0.7618
vn 0.4081 0.7260 0.5536
vn -0.3805 0.3115 0.8708
vn 0.5638 0.3115 0.7649
vn -0.3805 0.3115 0.8707
vn -0.2754 0.7260 0.6302
vn -0.5638 0.3115 -0.7649
vn -0.6835 0.7260 0.0766
vn -0.4080 0.7260 -0.5536
vn -0.6834 0.7260 0.0766
vn -0.9443 0.3115 0.1058
vn 0.2753 0.7260 -0.6302
vn 0.9443 0.3115 -0.1059
vn 0.3805 0.3115 -0.8707
vn 0.6835 0.7260 -0.0766
vn 0.6834 0.7260 -0.0766
vn 0.9443 0.3115 -0.1058
vn 0.6835 0.7260 -0.0767
vn 0.4080 0.7260 0.5536
vn 0.6835 0.7259 -0.0766
vn -0.2754 0.7259 0.6302
vn 0.4081 0.7259 0.5536
vn -0.6835 0.7259 0.0766
vn 0.2754 0.7259 -0.6302
vn -0.4080 0.7259 -0.5536
vn -0.5638 0.3116 -0.7649
vn 0.2754 0.7260 -0.6302
vn 0.3805 0.3115 -0.8708
vn 0.2753 0.7260 -0.6301
vn -0.4080 0.7260 -0.5535
vn -0.9443 0.3115 0.1059
vn -0.9443 0.3116 0.1059
vn -0.2753 0.7260 0.6302
vn -0.6834 0.7260 0.0765
vn 0.8673 0.3228 0.3790
vn 0.1054 0.3228 0.9406
vn 0.7618 0.3228 -0.5616
vn 0.7619 0.3228 -0.5616
vn -0.7618 0.3228 0.5616
vn -0.8673 0.3228 -0.3790
vn -0.7619 0.3228 0.5616
vn -0.1054 0.3228 -0.9406
vn -0.3454 0.5060 0.7903
vn -0.8571 0.5060 0.0961
vn -0.7176 0.4530 0.5290
vn -0.8572 0.5060 0.0961
vn -0.3454 0.5060 0.7904
vn 0.7176 -0.4530 -0.5290
vn 0.8572 -0.5060 -0.0961
vn 0.3454 -0.5060 -0.7903
vn 0.3454 -0.5060 -0.7904
vn -0.0993 0.4530 -0.8860
vn 0.3454 0.5061 -0.7903
vn 0.3454 0.5060 -0.7904
vn -0.5118 0.5060 -0.6943
vn -0.3454 -0.5060 0.7904
vn -0.3454 -0.5060 0.7903
vn 0.0993 -0.4530 0.8860
vn 0.5118 -0.5060 0.6943
vn -0.8169 0.4530 -0.3570
vn 0.8571 -0.5060 -0.0961
vn 0.8169 -0.4530 0.3570
vn 0.5118 0.5060 0.6943
vn 0.0993 0.4530 0.8860
vn -0.5118 -0.5060 -0.6943
vn -0.0993 -0.4530 -0.8860
vn 0.8571 0.5060 -0.0961
vn 0.7176 0.4530 -0.5290
vn 0.8572 0.5060 -0.0961
vn -0.7176 -0.4530 0.5290
vn -0.8572 -0.5060 0.0961
vn 0.8169 0.4530 0.3570
vn -0.8169 -0.4530 -0.3570
vn -0.8571 -0.5060 0.0961
vn -0.0961 0.5060 -0.8572
vn 0.6943 0.5060 -0.5118
vn 0.3570 0.4530 -0.8169
vn -0.0961 0.5060 -0.8571
vn 0.6943 0.5059 -0.5118
vn -0.3570 -0.4529 0.8169
vn -0.6943 -0.5060 0.5118
vn 0.0961 -0.5060 0.8572
vn 0.0961 -0.5060 0.8571
vn 0.7904 0.5060 0.3454
vn 0.5290 0.4530 0.7176
vn 0.0961 0.5061 0.8571
vn 0.5290 0.4529 0.7176
vn 0.0961 0.5060 0.8571
vn 0.0961 0.5060 0.8572
vn -0.7904 -0.5060 -0.3454
vn -0.5290 -0.4530 -0.7176
vn -0.7903 -0.5060 -0.3454
vn -0.0961 -0.5060 -0.8572
vn -0.6943 0.5060 0.5118
vn -0.7903 0.5060 -0.3454
vn -0.8860 0.4530 0.0993
vn -0.7904 0.5060 -0.3454
vn 0.8860 -0.4530 -0.0993
vn 0.7904 -0.5060 0.3454
vn 0.6943 -0.5060 -0.5118
vn -0.5290 0.4530 -0.7176
vn -0.0961 0.5061 -0.8571
vn 0.5290 -0.4530 0.7176
vn -0.3570 0.4530 0.8169
vn 0.3570 -0.4529 -0.8169
vn -0.0961 -0.5060 -0.8571
vn -0.0961 -0.5061 -0.8571
vn 0.7903 0.5060 0.3454
vn 0.8860 0.4530 -0.0993
vn -0.8860 -0.4530 0.0993
vn -0.0993 0.4529 -0.8860
vn 0.3454 0.5060 -0.7903
vn 0.0993 -0.4529 0.8860
vn -0.8571 0.5061 0.0961
vn 0.3454 -0.5061 -0.7903
vt 0.593750 0.025000
vt 0.593750 0.104996
vt 0.593750 0.225000
vt 0.093750 0.475000
vt 0.093750 0.275000
vt 0.093750 0.425000
vt 0.093750 0.348778
vt 0.093750 0.338765
vt 0.093750 0.344099
vt 0.093750 0.375000
vt 0.093750 0.325000
s 0
usemtl colormap.002
f 3/1/1 2/1/1 1/1/1
f 2/1/1 3/1/1 4/1/1
f 4/1/1 3/1/1 5/1/1
f 4/1/1 5/1/1 6/1/1
f 6/1/1 5/1/1 7/1/1
f 6/1/1 7/1/1 8/1/1
f 9/2/2 1/1/3 2/1/4
f 1/1/3 9/2/2 10/2/5
f 11/2/6 1/1/7 10/2/8
f 1/1/7 11/2/9 3/1/10
f 12/2/11 2/1/12 4/1/13
f 2/1/14 12/2/11 9/2/2
f 13/2/15 4/1/16 6/1/17
f 4/1/18 13/2/15 12/2/19
f 7/1/20 14/2/21 8/1/22
f 14/2/21 7/1/20 15/2/23
f 11/2/24 5/1/25 3/1/26
f 5/1/27 11/2/24 16/2/28
f 8/1/29 13/2/30 6/1/31
f 13/2/32 8/1/29 14/2/33
f 7/1/34 16/2/35 15/2/23
f 16/2/35 7/1/36 5/1/37
f 14/2/38 18/3/39 17/3/40
f 18/3/41 14/2/42 15/2/43
f 16/2/44 18/3/45 15/2/46
f 18/3/45 16/2/47 19/3/48
f 21/3/49 9/2/50 20/3/51
f 9/2/50 21/3/49 10/2/52
f 22/3/53 12/2/54 13/2/55
f 12/2/56 22/3/57 23/3/58
f 21/3/59 11/2/60 10/2/61
f 11/2/60 21/3/59 24/3/62
f 13/2/55 17/3/40 22/3/63
f 17/3/40 13/2/55 14/2/64
f 20/3/65 12/2/56 23/3/66
f 12/2/67 20/3/65 9/2/68
f 24/3/69 16/2/70 11/2/60
f 16/2/47 24/3/71 19/3/72
f 27/4/73 26/4/73 25/4/73
f 26/4/73 27/4/73 28/4/73
f 26/4/73 28/4/73 29/4/73
f 29/4/73 28/4/73 30/4/73
f 29/4/73 30/4/73 31/4/73
f 31/4/73 30/4/73 32/4/73
f 35/5/1 34/5/1 33/5/1
f 34/5/1 35/5/1 36/5/1
f 34/5/1 36/5/1 37/5/1
f 37/5/1 36/5/1 38/5/1
f 37/5/1 38/5/1 39/5/1
f 39/5/1 38/5/1 40/5/1
f 27/4/74 33/5/75 34/5/74
f 33/5/75 27/4/74 25/4/76
f 29/4/77 38/5/78 36/5/77
f 38/5/78 29/4/77 31/4/79
f 40/5/80 31/4/81 32/4/82
f 31/4/81 40/5/80 38/5/81
f 28/4/83 34/5/84 37/5/83
f 34/5/84 28/4/83 27/4/85
f 26/4/86 36/5/87 35/5/86
f 36/5/87 26/4/86 29/4/87
f 30/4/88 37/5/89 39/5/88
f 37/5/89 30/4/88 28/4/90
f 26/4/91 33/5/76 25/4/92
f 33/5/92 26/4/91 35/5/91
f 40/5/93 30/4/94 39/5/94
f 30/4/94 40/5/82 32/4/93
f 43/6/95 42/7/96 41/7/95
f 42/7/96 43/6/95 44/6/96
f 47/6/97 46/7/98 45/7/97
f 46/7/99 47/6/97 48/6/99
f 50/6/100 45/7/97 49/7/100
f 45/7/97 50/6/100 47/6/97
f 48/6/98 41/7/95 46/7/98
f 41/7/95 48/6/98 43/6/95
f 52/7/101 44/6/96 51/6/102
f 44/6/96 52/7/101 42/7/96
f 52/7/101 50/6/100 49/7/100
f 50/6/100 52/7/102 51/6/101
f 41/7/1 45/7/1 46/7/1
f 45/7/1 41/7/1 42/7/1
f 45/7/1 42/7/1 49/7/1
f 49/7/1 42/7/1 52/7/1
f 55/6/103 54/8/104 53/8/105
f 54/8/106 55/6/103 56/6/107
f 59/8/108 58/6/109 57/6/110
f 58/6/111 59/8/108 60/8/112
f 63/6/113 62/8/114 61/8/115
f 62/8/114 63/6/113 64/6/116
f 64/6/117 53/8/105 62/8/118
f 53/8/105 64/6/119 55/6/120
f 64/6/121 56/6/122 55/6/123
f 56/6/122 64/6/121 58/6/124
f 58/6/124 64/6/121 63/6/125
f 58/6/124 63/6/125 57/6/126
f 59/8/127 63/6/128 61/8/129
f 63/6/130 59/8/108 57/6/131
f 54/8/1 62/8/1 53/8/1
f 62/8/1 54/8/1 60/8/1
f 62/8/1 60/8/1 61/8/1
f 61/8/1 60/8/1 59/8/1
f 56/6/107 60/8/132 54/8/106
f 60/8/133 56/6/134 58/6/135
f 67/6/136 66/9/137 65/9/136
f 66/9/137 67/6/136 68/6/137
f 70/6/138 65/9/136 69/9/139
f 65/9/136 70/6/139 67/6/136
f 68/6/137 71/9/140 66/9/137
f 71/9/140 68/6/137 72/6/140
f 72/6/140 73/9/141 71/9/142
f 73/9/141 72/6/142 74/6/141
f 71/9/1 65/9/1 66/9/1
f 65/9/1 71/9/1 69/9/1
f 69/9/1 71/9/1 73/9/1
f 69/9/1 73/9/1 75/9/1
f 76/6/143 69/9/138 75/9/143
f 69/9/138 76/6/143 70/6/138
f 73/9/141 76/6/143 75/9/143
f 76/6/143 73/9/141 74/6/141
f 79/10/144 78/10/145 77/11/146
f 78/10/147 79/10/148 41/6/148
f 78/10/147 41/6/148 42/6/147
f 77/11/149 78/10/150 79/10/151
f 41/6/152 79/10/152 78/10/150
f 42/6/150 41/6/152 78/10/150
f 81/11/153 49/6/154 80/10/155
f 49/6/154 81/11/153 52/6/156
f 52/6/156 81/11/153 82/10/156
f 80/10/157 49/6/158 81/11/159
f 52/6/160 81/11/159 49/6/157
f 82/10/160 81/11/159 52/6/160
f 82/10/156 42/6/147 52/6/156
f 42/6/147 82/10/156 83/11/161
f 42/6/145 83/11/161 78/10/147
f 52/6/160 42/6/162 82/10/160
f 83/11/163 82/10/160 42/6/150
f 78/10/150 83/11/163 42/6/162
f 46/6/164 85/11/165 84/10/164
f 85/11/165 46/6/164 41/6/144
f 85/11/165 41/6/144 79/10/148
f 84/10/166 85/11/167 46/6/166
f 41/6/152 46/6/166 85/11/167
f 79/10/152 41/6/152 85/11/167
f 80/10/155 87/10/168 86/11/169
f 87/10/170 80/10/155 49/6/155
f 87/10/170 49/6/155 45/6/170
f 86/11/171 87/10/172 80/10/157
f 49/6/157 80/10/157 87/10/172
f 45/6/172 49/6/158 87/10/172
f 45/6/170 88/11/173 87/10/170
f 88/11/173 45/6/170 46/6/164
f 88/11/173 46/6/164 84/10/164
f 87/10/172 88/11/174 45/6/175
f 46/6/166 45/6/172 88/11/174
f 84/10/166 46/6/166 88/11/174
f 91/10/176 90/10/177 89/11/178
f 90/10/177 91/10/179 75/6/179
f 90/10/180 75/6/176 69/6/177
f 89/11/181 90/10/182 91/10/183
f 75/6/184 91/10/183 90/10/182
f 69/6/182 75/6/183 90/10/182
f 65/6/185 93/11/186 92/10/185
f 93/11/186 65/6/185 66/6/187
f 93/11/188 66/6/189 94/10/190
f 92/10/191 93/11/192 65/6/193
f 66/6/194 65/6/191 93/11/192
f 94/10/194 66/6/194 93/11/192
f 97/10/195 96/10/196 95/11/197
f 96/10/198 97/10/195 71/6/195
f 96/10/198 71/6/195 73/6/198
f 95/11/199 96/10/200 97/10/201
f 71/6/201 97/10/201 96/10/200
f 73/6/200 71/6/201 96/10/200
f 98/11/202 75/6/203 91/10/176
f 75/6/179 98/11/202 73/6/198
f 73/6/198 98/11/202 96/10/198
f 91/10/183 75/6/184 98/11/204
f 73/6/200 98/11/204 75/6/183
f 96/10/200 98/11/204 73/6/200
f 94/10/190 97/10/195 99/11/205
f 97/10/195 94/10/190 66/6/190
f 97/10/195 66/6/189 71/6/195
f 99/11/206 97/10/201 94/10/194
f 66/6/207 94/10/194 97/10/201
f 71/6/201 66/6/208 97/10/201
f 90/10/177 92/10/209 100/11/210
f 92/10/185 90/10/177 69/6/177
f 92/10/185 69/6/177 65/6/185
f 100/11/211 92/10/191 90/10/182
f 69/6/182 90/10/182 92/10/191
f 65/6/191 69/6/182 92/10/191
f 102/11/212 61/6/155 101/10/155
f 61/6/213 102/11/153 59/6/156
f 59/6/156 102/11/212 103/10/156
f 101/10/157 61/6/157 102/11/214
f 59/6/160 102/11/159 61/6/157
f 103/10/160 102/11/214 59/6/160
f 103/10/156 60/6/147 59/6/156
f 60/6/147 103/10/156 104/11/161
f 60/6/147 104/11/161 105/10/147
f 59/6/160 60/6/162 103/10/160
f 104/11/163 103/10/160 60/6/150
f 105/10/150 104/11/163 60/6/162
f 62/6/168 107/11/173 106/10/170
f 107/11/173 62/6/170 53/6/164
f 107/11/173 53/6/164 108/10/164
f 106/10/172 107/11/174 62/6/175
f 53/6/166 62/6/172 107/11/174
f 108/10/166 53/6/166 107/11/174
f 110/10/144 105/10/215 109/11/146
f 105/10/147 110/10/148 54/6/148
f 105/10/147 54/6/144 60/6/147
f 109/11/149 105/10/150 110/10/151
f 54/6/152 110/10/152 105/10/150
f 60/6/162 54/6/216 105/10/150
f 101/10/155 106/10/168 111/11/169
f 106/10/170 101/10/155 61/6/155
f 106/10/170 61/6/155 62/6/170
f 111/11/171 106/10/172 101/10/157
f 61/6/157 101/10/157 106/10/172
f 62/6/172 61/6/158 106/10/172
f 53/6/164 112/11/165 108/10/164
f 112/11/165 53/6/164 54/6/144
f 112/11/165 54/6/144 110/10/148
f 108/10/166 112/11/167 53/6/166
f 54/6/152 53/6/166 112/11/167
f 110/10/152 54/6/152 112/11/167
f 3/1/1 2/1/1 1/1/1
f 2/1/1 3/1/1 4/1/1
f 4/1/1 3/1/1 5/1/1
f 4/1/1 5/1/1 6/1/1
f 6/1/1 5/1/1 7/1/1
f 6/1/1 7/1/1 8/1/1
f 9/2/2 1/1/3 2/1/4
f 1/1/3 9/2/2 10/2/5
f 11/2/6 1/1/7 10/2/8
f 1/1/7 11/2/9 3/1/10
f 12/2/11 2/1/12 4/1/13
f 2/1/14 12/2/11 9/2/2
f 13/2/15 4/1/16 6/1/17
f 4/1/18 13/2/15 12/2/19
f 7/1/20 14/2/21 8/1/22
f 14/2/21 7/1/20 15/2/23
f 11/2/24 5/1/25 3/1/26
f 5/1/27 11/2/24 16/2/28
f 8/1/29 13/2/30 6/1/31
f 13/2/32 8/1/29 14/2/33
f 7/1/34 16/2/35 15/2/23
f 16/2/35 7/1/36 5/1/37
f 14/2/38 18/3/39 17/3/40
f 18/3/41 14/2/42 15/2/43
f 16/2/44 18/3/45 15/2/46
f 18/3/45 16/2/47 19/3/48
f 21/3/49 9/2/50 20/3/51
f 9/2/50 21/3/49 10/2/52
f 22/3/53 12/2/54 13/2/55
f 12/2/56 22/3/57 23/3/58
f 21/3/59 11/2/60 10/2/61
f 11/2/60 21/3/59 24/3/62
f 13/2/55 17/3/40 22/3/63
f 17/3/40 13/2/55 14/2/64
f 20/3/65 12/2/56 23/3/66
f 12/2/67 20/3/65 9/2/68
f 24/3/69 16/2/70 11/2/60
f 16/2/47 24/3/71 19/3/72
f 27/4/73 26/4/73 25/4/73
f 26/4/73 27/4/73 28/4/73
f 26/4/73 28/4/73 29/4/73
f 29/4/73 28/4/73 30/4/73
f 29/4/73 30/4/73 31/4/73
f 31/4/73 30/4/73 32/4/73
f 35/5/1 34/5/1 33/5/1
f 34/5/1 35/5/1 36/5/1
f 34/5/1 36/5/1 37/5/1
f 37/5/1 36/5/1 38/5/1
f 37/5/1 38/5/1 39/5/1
f 39/5/1 38/5/1 40/5/1
f 27/4/74 33/5/75 34/5/74
f 33/5/75 27/4/74 25/4/76
f 29/4/77 38/5/78 36/5/77
f 38/5/78 29/4/77 31/4/79
f 40/5/80 31/4/81 32/4/82
f 31/4/81 40/5/80 38/5/81
f 28/4/83 34/5/84 37/5/83
f 34/5/84 28/4/83 27/4/85
f 26/4/86 36/5/87 35/5/86
f 36/5/87 26/4/86 29/4/87
f 30/4/88 37/5/89 39/5/88
f 37/5/89 30/4/88 28/4/90
f 26/4/91 33/5/76 25/4/92
f 33/5/92 26/4/91 35/5/91
f 40/5/93 30/4/94 39/5/94
f 30/4/94 40/5/82 32/4/93
f 43/6/95 42/7/96 41/7/95
f 42/7/96 43/6/95 44/6/96
f 47/6/97 46/7/98 45/7/97
f 46/7/99 47/6/97 48/6/99
f 50/6/100 45/7/97 49/7/100
f 45/7/97 50/6/100 47/6/97
f 48/6/98 41/7/95 46/7/98
f 41/7/95 48/6/98 43/6/95
f 52/7/101 44/6/96 51/6/102
f 44/6/96 52/7/101 42/7/96
f 52/7/101 50/6/100 49/7/100
f 50/6/100 52/7/102 51/6/101
f 41/7/1 45/7/1 46/7/1
f 45/7/1 41/7/1 42/7/1
f 45/7/1 42/7/1 49/7/1
f 49/7/1 42/7/1 52/7/1
f 55/6/103 54/8/104 53/8/105
f 54/8/106 55/6/103 56/6/107
f 59/8/108 58/6/109 57/6/110
f 58/6/111 59/8/108 60/8/112
f 63/6/113 62/8/114 61/8/115
f 62/8/114 63/6/113 64/6/116
f 64/6/117 53/8/105 62/8/118
f 53/8/105 64/6/119 55/6/120
f 64/6/121 56/6/122 55/6/123
f 56/6/122 64/6/121 58/6/124
f 58/6/124 64/6/121 63/6/125
f 58/6/124 63/6/125 57/6/126
f 59/8/127 63/6/128 61/8/129
f 63/6/130 59/8/108 57/6/131
f 54/8/1 62/8/1 53/8/1
f 62/8/1 54/8/1 60/8/1
f 62/8/1 60/8/1 61/8/1
f 61/8/1 60/8/1 59/8/1
f 56/6/107 60/8/132 54/8/106
f 60/8/133 56/6/134 58/6/135
f 67/6/136 66/9/137 65/9/136
f 66/9/137 67/6/136 68/6/137
f 70/6/138 65/9/136 69/9/139
f 65/9/136 70/6/139 67/6/136
f 68/6/137 71/9/140 66/9/137
f 71/9/140 68/6/137 72/6/140
f 72/6/140 73/9/141 71/9/142
f 73/9/141 72/6/142 74/6/141
f 71/9/1 65/9/1 66/9/1
f 65/9/1 71/9/1 69/9/1
f 69/9/1 71/9/1 73/9/1
f 69/9/1 73/9/1 75/9/1
f 76/6/143 69/9/138 75/9/143
f 69/9/138 76/6/143 70/6/138
f 73/9/141 76/6/143 75/9/143
f 76/6/143 73/9/141 74/6/141
f 79/10/144 78/10/145 77/11/146
f 78/10/147 79/10/148 41/6/148
f 78/10/147 41/6/148 42/6/147
f 77/11/149 78/10/150 79/10/151
f 41/6/152 79/10/152 78/10/150
f 42/6/150 41/6/152 78/10/150
f 81/11/153 49/6/154 80/10/155
f 49/6/154 81/11/153 52/6/156
f 52/6/156 81/11/153 82/10/156
f 80/10/157 49/6/158 81/11/159
f 52/6/160 81/11/159 49/6/157
f 82/10/160 81/11/159 52/6/160
f 82/10/156 42/6/147 52/6/156
f 42/6/147 82/10/156 83/11/161
f 42/6/145 83/11/161 78/10/147
f 52/6/160 42/6/162 82/10/160
f 83/11/163 82/10/160 42/6/150
f 78/10/150 83/11/163 42/6/162
f 46/6/164 85/11/165 84/10/164
f 85/11/165 46/6/164 41/6/144
f 85/11/165 41/6/144 79/10/148
f 84/10/166 85/11/167 46/6/166
f 41/6/152 46/6/166 85/11/167
f 79/10/152 41/6/152 85/11/167
f 80/10/155 87/10/168 86/11/169
f 87/10/170 80/10/155 49/6/155
f 87/10/170 49/6/155 45/6/170
f 86/11/171 87/10/172 80/10/157
f 49/6/157 80/10/157 87/10/172
f 45/6/172 49/6/158 87/10/172
f 45/6/170 88/11/173 87/10/170
f 88/11/173 45/6/170 46/6/164
f 88/11/173 46/6/164 84/10/164
f 87/10/172 88/11/174 45/6/175
f 46/6/166 45/6/172 88/11/174
f 84/10/166 46/6/166 88/11/174
f 91/10/176 90/10/177 89/11/178
f 90/10/177 91/10/179 75/6/179
f 90/10/180 75/6/176 69/6/177
f 89/11/181 90/10/182 91/10/183
f 75/6/184 91/10/183 90/10/182
f 69/6/182 75/6/183 90/10/182
f 65/6/185 93/11/186 92/10/185
f 93/11/186 65/6/185 66/6/187
f 93/11/188 66/6/189 94/10/190
f 92/10/191 93/11/192 65/6/193
f 66/6/194 65/6/191 93/11/192
f 94/10/194 66/6/194 93/11/192
f 97/10/195 96/10/196 95/11/197
f 96/10/198 97/10/195 71/6/195
f 96/10/198 71/6/195 73/6/198
f 95/11/199 96/10/200 97/10/201
f 71/6/201 97/10/201 96/10/200
f 73/6/200 71/6/201 96/10/200
f 98/11/202 75/6/203 91/10/176
f 75/6/179 98/11/202 73/6/198
f 73/6/198 98/11/202 96/10/198
f 91/10/183 75/6/184 98/11/204
f 73/6/200 98/11/204 75/6/183
f 96/10/200 98/11/204 73/6/200
f 94/10/190 97/10/195 99/11/205
f 97/10/195 94/10/190 66/6/190
f 97/10/195 66/6/189 71/6/195
f 99/11/206 97/10/201 94/10/194
f 66/6/207 94/10/194 97/10/201
f 71/6/201 66/6/208 97/10/201
f 90/10/177 92/10/209 100/11/210
f 92/10/185 90/10/177 69/6/177
f 92/10/185 69/6/177 65/6/185
f 100/11/211 92/10/191 90/10/182
f 69/6/182 90/10/182 92/10/191
f 65/6/191 69/6/182 92/10/191
f 102/11/212 61/6/155 101/10/155
f 61/6/213 102/11/153 59/6/156
f 59/6/156 102/11/212 103/10/156
f 101/10/157 61/6/157 102/11/214
f 59/6/160 102/11/159 61/6/157
f 103/10/160 102/11/214 59/6/160
f 103/10/156 60/6/147 59/6/156
f 60/6/147 103/10/156 104/11/161
f 60/6/147 104/11/161 105/10/147
f 59/6/160 60/6/162 103/10/160
f 104/11/163 103/10/160 60/6/150
f 105/10/150 104/11/163 60/6/162
f 62/6/168 107/11/173 106/10/170
f 107/11/173 62/6/170 53/6/164
f 107/11/173 53/6/164 108/10/164
f 106/10/172 107/11/174 62/6/175
f 53/6/166 62/6/172 107/11/174
f 108/10/166 53/6/166 107/11/174
f 110/10/144 105/10/215 109/11/146
f 105/10/147 110/10/148 54/6/148
f 105/10/147 54/6/144 60/6/147
f 109/11/149 105/10/150 110/10/151
f 54/6/152 110/10/152 105/10/150
f 60/6/162 54/6/216 105/10/150
f 101/10/155 106/10/168 111/11/169
f 106/10/170 101/10/155 61/6/155
f 106/10/170 61/6/155 62/6/170
f 111/11/171 106/10/172 101/10/157
f 61/6/157 101/10/157 106/10/172
f 62/6/172 61/6/158 106/10/172
f 53/6/164 112/11/165 108/10/164
f 112/11/165 53/6/164 54/6/144
f 112/11/165 54/6/144 110/10/148
f 108/10/166 112/11/167 53/6/166
f 54/6/152 53/6/166 112/11/167
f 110/10/152 54/6/152 112/11/167
