# Blender 4.1.1
# www.blender.org
mtllib tree.053.mtl
o tree.053
v -13.865360 -4.675250 4.730185
v -13.692314 -4.675250 4.813545
v -13.910204 -4.675250 4.601982
v -13.564112 -4.675250 4.768702
v -13.826843 -4.675250 4.428936
v -13.480752 -4.675250 4.595656
v -13.698642 -4.675250 4.384093
v -13.525595 -4.675250 4.467453
v -13.693896 -4.327483 4.706182
v -13.780418 -4.327483 4.664502
v -13.802841 -4.327483 4.600400
v -13.629794 -4.327483 4.683760
v -13.588115 -4.327483 4.597238
v -13.610538 -4.327483 4.533136
v -13.697060 -4.327483 4.491457
v -13.761162 -4.327483 4.513878
v -13.589301 -3.805793 4.516715
v -13.697454 -3.805793 4.464616
v -13.777582 -3.805793 4.492642
v -13.693501 -3.805793 4.733022
v -13.801655 -3.805793 4.680923
v -13.561275 -3.805793 4.596842
v -13.613374 -3.805793 4.704996
v -13.829681 -3.805793 4.600796
v -13.722077 -4.203316 4.762206
v -13.772288 -4.203316 4.706007
v -13.646835 -4.203316 4.766440
v -13.590636 -4.203316 4.716229
v -13.768055 -4.203316 4.630763
v -13.586401 -4.203316 4.640986
v -13.711855 -4.203316 4.580553
v -13.636612 -4.203316 4.584787
v -13.746283 -4.329511 4.812452
v -13.628421 -4.329511 4.819085
v -13.824933 -4.329511 4.724421
v -13.818300 -4.329511 4.606559
v -13.540389 -4.329511 4.740434
v -13.730270 -4.329511 4.527908
v -13.533756 -4.329511 4.622572
v -13.612407 -4.329511 4.534541
v -14.168443 -3.805793 4.626120
v -13.960848 -3.805793 4.195175
v -13.972873 -3.230796 4.611487
v -13.850391 -3.230796 4.357228
v -13.422026 -3.805793 4.985684
v -13.899031 -3.805793 5.021374
v -13.532482 -3.230796 4.823631
v -13.813919 -3.230796 4.844689
v -13.214431 -3.805793 4.554740
v -13.410001 -3.230796 4.569373
v -13.568954 -3.230796 4.336171
v -13.483841 -3.805793 4.159485
v -13.811136 -2.613048 4.838913
v -13.966479 -2.613048 4.611009
v -13.718949 -1.965096 4.647543
v -13.754654 -1.965096 4.595160
v -13.663924 -1.965096 4.533317
v -13.727141 -1.965096 4.538047
v -13.571737 -2.613048 4.341947
v -13.846779 -2.613048 4.362525
v -13.416394 -2.613048 4.569851
v -13.536093 -2.613048 4.818334
v -13.628219 -1.965096 4.585700
v -13.655731 -1.965096 4.642813
v -13.662419 -3.230796 4.978240
v -14.012782 -3.230796 4.809463
v -13.678141 -2.613048 4.768128
v -13.838680 -2.613048 4.690794
v -13.341075 -3.230796 4.759206
v -13.530897 -2.613048 4.667765
v -14.041798 -3.230796 4.421654
v -13.851975 -2.613048 4.513095
v -13.720452 -3.230796 4.202620
v -13.704731 -2.613048 4.412731
v -13.370091 -3.230796 4.371396
v -13.544193 -2.613048 4.490066
v -14.146750 -3.985170 4.371095
v -13.990483 -3.895481 4.151697
v -14.220913 -3.895481 4.630045
v -13.161960 -3.895482 4.550814
v -13.273830 -3.985170 4.305783
v -13.461007 -3.895481 4.112082
v -13.729145 -3.985170 4.086448
v -13.921866 -3.895481 5.068778
v -14.109043 -3.985170 4.875077
v -13.236121 -3.985170 4.809764
v -13.392390 -3.895482 5.029162
v -13.653728 -3.985170 5.094411
v -13.281695 -3.376631 4.559772
v -13.302535 -3.303713 4.777771
v -13.334744 -3.303713 4.347302
v -13.659229 -3.303713 5.020899
v -13.869757 -3.376631 4.960604
v -14.048129 -3.303713 4.833557
v -13.922856 -3.376631 4.250912
v -13.723644 -3.303713 4.159961
v -14.080338 -3.303713 4.403088
v -13.513115 -3.376631 4.220255
v -14.101177 -3.376631 4.621087
v -13.460015 -3.376631 4.929947
v -13.386140 -2.664763 4.567587
v -13.450644 -2.716478 4.426302
v -13.558570 -2.664763 4.314613
v -13.713180 -2.716478 4.299833
v -13.863868 -2.664763 4.337456
v -13.519006 -2.664763 4.843404
v -13.669694 -2.716478 4.881026
v -13.824304 -2.664763 4.866246
v -13.953971 -2.716478 4.463961
v -13.996734 -2.664763 4.613272
v -13.428901 -2.716478 4.716898
v -13.932229 -2.716478 4.754558
vn -0.0000 -1.0000 -0.0000
vn -0.0592 0.2942 0.9539
vn -0.7156 0.2944 0.6335
vn -0.0493 0.2944 0.9544
vn -0.7090 0.2942 0.6409
vn -0.9539 0.2942 -0.0591
vn -0.7156 0.2944 0.6334
vn -0.7091 0.2942 0.6408
vn -0.9539 0.2943 -0.0591
vn -0.9544 0.2944 -0.0493
vn 0.6408 0.2942 0.7091
vn 0.6334 0.2944 0.7156
vn -0.0591 0.2942 0.9539
vn 0.9539 0.2942 0.0592
vn 0.6335 0.2944 0.7156
vn 0.9544 0.2944 0.0493
vn 0.6409 0.2942 0.7090
vn 0.0493 0.2944 -0.9544
vn 0.7090 0.2942 -0.6409
vn 0.7156 0.2944 -0.6335
vn 0.0592 0.2942 -0.9539
vn -0.9539 0.2942 -0.0592
vn -0.6335 0.2944 -0.7156
vn -0.6409 0.2942 -0.7090
vn 0.7156 0.2944 -0.6334
vn 0.9539 0.2943 0.0591
vn 0.9539 0.2942 0.0591
vn 0.7091 0.2942 -0.6408
vn -0.6408 0.2942 -0.7091
vn 0.0591 0.2942 -0.9539
vn -0.6334 0.2944 -0.7156
vn 0.7441 -0.0513 -0.6661
vn 0.0553 -0.0512 -0.9972
vn 0.7453 -0.0513 -0.6648
vn 0.0553 -0.0513 -0.9972
vn 0.0571 -0.0513 -0.9971
vn -0.6660 -0.0512 -0.7442
vn 0.0552 -0.0513 -0.9972
vn 0.0570 -0.0512 -0.9971
vn -0.6660 -0.0513 -0.7442
vn -0.6647 -0.0512 -0.7453
vn -0.7453 -0.0512 0.6648
vn -0.0570 -0.0513 0.9971
vn -0.0553 -0.0513 0.9972
vn -0.0571 -0.0513 0.9971
vn -0.7441 -0.0513 0.6661
vn 0.9972 -0.0513 0.0553
vn 0.6661 -0.0513 0.7441
vn 0.9971 -0.0513 0.0571
vn 0.9972 -0.0512 0.0553
vn 0.6648 -0.0513 0.7453
vn -0.7453 -0.0513 0.6647
vn -0.9971 -0.0513 -0.0570
vn -0.7453 -0.0512 0.6647
vn -0.9972 -0.0513 -0.0552
vn 0.9971 -0.0513 0.0570
vn 0.7453 -0.0512 -0.6647
vn 0.9972 -0.0513 0.0552
vn 0.7453 -0.0513 -0.6647
vn -0.0552 -0.0513 0.9972
vn 0.6660 -0.0513 0.7442
vn 0.6647 -0.0512 0.7453
vn 0.6660 -0.0512 0.7442
vn -0.0570 -0.0512 0.9971
vn -0.9972 -0.0513 -0.0553
vn -0.6661 -0.0513 -0.7441
vn -0.9971 -0.0513 -0.0571
vn -0.9972 -0.0512 -0.0553
vn -0.6648 -0.0513 -0.7453
vn -0.0000 1.0000 -0.0000
vn 0.3020 0.4042 0.8634
vn -0.3969 0.4042 0.8240
vn -0.3969 0.4043 0.8240
vn -0.8240 0.4042 -0.3970
vn -0.3020 0.4042 -0.8634
vn -0.3020 0.4043 -0.8633
vn 0.3969 0.4042 -0.8240
vn 0.3969 0.4043 -0.8240
vn 0.8240 0.4042 0.3970
vn 0.3020 0.4043 0.8634
vn -0.8634 0.4042 0.3020
vn -0.8240 0.4042 -0.3969
vn -0.8241 0.4042 -0.3969
vn -0.8240 0.4043 -0.3969
vn 0.8634 0.4042 -0.3020
vn 0.8241 0.4042 0.3969
vn 0.8240 0.4042 0.3969
vn 0.8240 0.4043 0.3969
vn -0.3970 0.4043 0.8240
vn -0.3970 0.4042 0.8240
vn 0.3970 0.4042 -0.8240
vn -0.9438 0.3228 0.0706
vn -0.5331 0.3228 -0.7821
vn 0.5331 0.3228 0.7821
vn -0.4107 0.3228 0.8527
vn 0.9438 0.3228 -0.0706
vn -0.4108 0.3228 0.8527
vn 0.4107 0.3228 -0.8527
vn 0.4108 0.3228 -0.8527
vn -0.2984 0.7260 0.6196
vn -0.9476 0.3115 0.0709
vn -0.4124 0.3115 0.8561
vn -0.6858 0.7260 0.0512
vn 0.4124 0.3115 -0.8561
vn -0.3874 0.7260 -0.5683
vn 0.2985 0.7260 -0.6196
vn -0.5352 0.3115 -0.7852
vn 0.6858 0.7260 -0.0514
vn 0.5352 0.3115 0.7852
vn 0.9476 0.3115 -0.0709
vn 0.3873 0.7260 0.5683
vn 0.3874 0.7260 0.5683
vn -0.2985 0.7260 0.6196
vn 0.3873 0.7259 0.5683
vn -0.6858 0.7260 0.0513
vn -0.2985 0.7259 0.6196
vn -0.6858 0.7259 0.0513
vn -0.3873 0.7259 -0.5683
vn 0.6858 0.7259 -0.0513
vn 0.2985 0.7259 -0.6196
vn 0.4124 0.3116 -0.8561
vn 0.6858 0.7260 -0.0513
vn 0.2985 0.7260 -0.6195
vn -0.6858 0.7260 0.0514
vn -0.3873 0.7260 -0.5683
vn 0.0706 0.3228 0.9438
vn -0.7821 0.3228 0.5331
vn 0.8527 0.3228 0.4108
vn -0.7821 0.3228 0.5330
vn -0.8527 0.3228 -0.4107
vn -0.8527 0.3228 -0.4108
vn -0.0706 0.3228 -0.9438
vn 0.7821 0.3228 -0.5331
vn 0.8527 0.3228 0.4107
vn -0.8601 0.5060 0.0643
vn -0.4858 0.5060 -0.7127
vn -0.8032 0.4529 -0.3869
vn -0.8601 0.5060 0.0644
vn 0.8032 -0.4529 0.3869
vn 0.4858 -0.5060 0.7127
vn 0.8601 -0.5060 -0.0644
vn 0.7367 0.4530 -0.5021
vn 0.8601 0.5060 -0.0644
vn 0.3743 0.5060 -0.7771
vn -0.8601 -0.5060 0.0644
vn -0.7367 -0.4530 0.5021
vn -0.3743 -0.5060 0.7771
vn -0.3743 -0.5060 0.7770
vn -0.0665 0.4530 -0.8890
vn 0.0665 -0.4530 0.8890
vn -0.3743 0.5060 0.7771
vn -0.7367 0.4530 0.5021
vn 0.3743 -0.5060 -0.7771
vn 0.7367 -0.4530 -0.5021
vn 0.3743 -0.5060 -0.7770
vn 0.4858 0.5060 0.7127
vn 0.8032 0.4530 0.3869
vn -0.8032 -0.4530 -0.3869
vn -0.4858 -0.5060 -0.7127
vn 0.0665 0.4530 0.8890
vn -0.3743 0.5060 0.7770
vn 0.0665 0.4529 0.8891
vn -0.0665 -0.4530 -0.8890
vn -0.0665 -0.4529 -0.8891
vn 0.7127 0.5060 -0.4858
vn 0.7771 0.5060 0.3743
vn 0.8890 0.4530 -0.0665
vn -0.8890 -0.4530 0.0665
vn -0.7771 -0.5060 -0.3743
vn -0.7127 -0.5060 0.4858
vn 0.0643 0.5060 0.8601
vn -0.3869 0.4530 0.8032
vn 0.0644 0.5060 0.8601
vn -0.7127 0.5060 0.4858
vn -0.0643 -0.5060 -0.8601
vn 0.3869 -0.4530 -0.8032
vn 0.7127 -0.5060 -0.4858
vn -0.0644 -0.5060 -0.8601
vn 0.3869 -0.4529 -0.8032
vn -0.7771 0.5060 -0.3743
vn -0.0643 0.5060 -0.8601
vn -0.5021 0.4530 -0.7367
vn -0.0644 0.5060 -0.8601
vn 0.5021 -0.4530 0.7367
vn 0.0644 -0.5060 0.8601
vn 0.7771 -0.5060 0.3743
vn 0.3869 0.4530 -0.8032
vn 0.3869 0.4529 -0.8032
vn -0.3869 -0.4530 0.8032
vn -0.3869 -0.4529 0.8032
vn -0.7770 0.5060 -0.3743
vn -0.8890 0.4530 0.0665
vn 0.8890 -0.4530 -0.0665
vn 0.5021 0.4530 0.7367
vn -0.5021 -0.4530 -0.7367
vn -0.3743 -0.5061 0.7770
vn 0.4858 -0.5061 0.7127
vn 0.8601 -0.5060 -0.0643
vn 0.8601 0.5060 -0.0643
vn -0.8601 -0.5060 0.0643
vt 0.593750 0.025000
vt 0.593750 0.104996
vt 0.593750 0.225000
vt 0.093750 0.475000
vt 0.093750 0.275000
vt 0.093750 0.425000
vt 0.093750 0.348778
vt 0.093750 0.338765
vt 0.093750 0.344099
vt 0.093750 0.375000
vt 0.093750 0.325000
s 0
usemtl colormap.002
f 3/1/1 2/1/1 1/1/1
f 2/1/1 3/1/1 4/1/1
f 4/1/1 3/1/1 5/1/1
f 4/1/1 5/1/1 6/1/1
f 6/1/1 5/1/1 7/1/1
f 6/1/1 7/1/1 8/1/1
f 9/2/2 1/1/3 2/1/4
f 1/1/3 9/2/2 10/2/5
f 11/2/6 1/1/7 10/2/8
f 1/1/7 11/2/9 3/1/10
f 12/2/11 2/1/4 4/1/12
f 2/1/4 12/2/11 9/2/13
f 13/2/14 4/1/15 6/1/16
f 4/1/15 13/2/14 12/2/17
f 7/1/18 14/2/19 8/1/20
f 14/2/19 7/1/18 15/2/21
f 11/2/22 5/1/23 3/1/10
f 5/1/23 11/2/22 16/2/24
f 8/1/25 13/2/26 6/1/16
f 13/2/27 8/1/25 14/2/28
f 7/1/18 16/2/29 15/2/30
f 16/2/29 7/1/18 5/1/31
f 14/2/32 18/3/33 17/3/34
f 18/3/35 14/2/32 15/2/36
f 16/2/37 18/3/38 15/2/39
f 18/3/38 16/2/40 19/3/41
f 21/3/42 9/2/43 20/3/44
f 9/2/45 21/3/42 10/2/46
f 22/3/47 12/2/48 13/2/49
f 12/2/48 22/3/50 23/3/51
f 21/3/52 11/2/53 10/2/46
f 11/2/53 21/3/54 24/3/55
f 13/2/56 17/3/57 22/3/58
f 17/3/59 13/2/56 14/2/32
f 20/3/60 12/2/61 23/3/62
f 12/2/63 20/3/60 9/2/64
f 24/3/65 16/2/66 11/2/67
f 16/2/66 24/3/68 19/3/69
f 27/4/70 26/4/70 25/4/70
f 26/4/70 27/4/70 28/4/70
f 26/4/70 28/4/70 29/4/70
f 29/4/70 28/4/70 30/4/70
f 29/4/70 30/4/70 31/4/70
f 31/4/70 30/4/70 32/4/70
f 35/5/1 34/5/1 33/5/1
f 34/5/1 35/5/1 36/5/1
f 34/5/1 36/5/1 37/5/1
f 37/5/1 36/5/1 38/5/1
f 37/5/1 38/5/1 39/5/1
f 39/5/1 38/5/1 40/5/1
f 27/4/71 33/5/72 34/5/71
f 33/5/72 27/4/71 25/4/73
f 29/4/74 38/5/75 36/5/74
f 38/5/75 29/4/74 31/4/76
f 40/5/77 31/4/75 32/4/78
f 31/4/75 40/5/77 38/5/75
f 28/4/79 34/5/71 37/5/79
f 34/5/71 28/4/79 27/4/80
f 26/4/81 36/5/82 35/5/81
f 36/5/83 26/4/81 29/4/84
f 30/4/85 37/5/86 39/5/85
f 37/5/87 30/4/85 28/4/88
f 26/4/81 33/5/89 25/4/90
f 33/5/90 26/4/81 35/5/81
f 40/5/91 30/4/85 39/5/85
f 30/4/85 40/5/78 32/4/91
f 43/6/92 42/7/93 41/7/92
f 42/7/93 43/6/92 44/6/93
f 47/6/94 46/7/95 45/7/94
f 46/7/95 47/6/94 48/6/95
f 50/6/96 45/7/94 49/7/96
f 45/7/94 50/6/96 47/6/94
f 48/6/97 41/7/92 46/7/97
f 41/7/92 48/6/97 43/6/92
f 52/7/98 44/6/93 51/6/98
f 44/6/93 52/7/98 42/7/93
f 52/7/99 50/6/96 49/7/96
f 50/6/96 52/7/99 51/6/99
f 41/7/1 45/7/1 46/7/1
f 45/7/1 41/7/1 42/7/1
f 45/7/1 42/7/1 49/7/1
f 49/7/1 42/7/1 52/7/1
f 55/6/100 54/8/101 53/8/102
f 54/8/101 55/6/100 56/6/103
f 59/8/104 58/6/105 57/6/106
f 58/6/105 59/8/104 60/8/107
f 63/6/108 62/8/109 61/8/110
f 62/8/109 63/6/108 64/6/111
f 64/6/112 53/8/102 62/8/109
f 53/8/102 64/6/112 55/6/113
f 64/6/114 56/6/115 55/6/116
f 56/6/117 64/6/114 58/6/118
f 58/6/118 64/6/114 63/6/119
f 58/6/118 63/6/119 57/6/120
f 59/8/121 63/6/122 61/8/110
f 63/6/122 59/8/104 57/6/123
f 54/8/1 62/8/1 53/8/1
f 62/8/1 54/8/1 60/8/1
f 62/8/1 60/8/1 61/8/1
f 61/8/1 60/8/1 59/8/1
f 56/6/115 60/8/107 54/8/101
f 60/8/107 56/6/124 58/6/125
f 67/6/126 66/9/127 65/9/126
f 66/9/127 67/6/126 68/6/127
f 70/6/128 65/9/126 69/9/128
f 65/9/126 70/6/128 67/6/126
f 68/6/129 71/9/130 66/9/127
f 71/9/130 68/6/127 72/6/130
f 72/6/131 73/9/132 71/9/131
f 73/9/132 72/6/131 74/6/132
f 71/9/1 65/9/1 66/9/1
f 65/9/1 71/9/1 69/9/1
f 69/9/1 71/9/1 73/9/1
f 69/9/1 73/9/1 75/9/1
f 76/6/133 69/9/134 75/9/133
f 69/9/134 76/6/133 70/6/128
f 73/9/132 76/6/133 75/9/133
f 76/6/133 73/9/132 74/6/132
f 79/10/135 78/10/136 77/11/137
f 78/10/136 79/10/138 41/6/138
f 78/10/136 41/6/138 42/6/136
f 77/11/139 78/10/140 79/10/141
f 41/6/141 79/10/141 78/10/140
f 42/6/140 41/6/141 78/10/140
f 81/11/142 49/6/143 80/10/143
f 49/6/143 81/11/142 52/6/144
f 52/6/144 81/11/142 82/10/144
f 80/10/145 49/6/145 81/11/146
f 52/6/147 81/11/146 49/6/145
f 82/10/147 81/11/146 52/6/148
f 82/10/144 42/6/136 52/6/144
f 42/6/136 82/10/144 83/11/149
f 42/6/136 83/11/149 78/10/136
f 52/6/147 42/6/140 82/10/147
f 83/11/150 82/10/147 42/6/140
f 78/10/140 83/11/150 42/6/140
f 46/6/151 85/11/152 84/10/151
f 85/11/152 46/6/151 41/6/138
f 85/11/152 41/6/135 79/10/138
f 84/10/153 85/11/154 46/6/155
f 41/6/141 46/6/153 85/11/154
f 79/10/141 41/6/141 85/11/154
f 80/10/143 87/10/156 86/11/157
f 87/10/156 80/10/143 49/6/143
f 87/10/156 49/6/143 45/6/156
f 86/11/158 87/10/159 80/10/145
f 49/6/145 80/10/145 87/10/159
f 45/6/159 49/6/145 87/10/159
f 45/6/156 88/11/160 87/10/156
f 88/11/160 45/6/156 46/6/161
f 88/11/162 46/6/151 84/10/151
f 87/10/159 88/11/163 45/6/159
f 46/6/153 45/6/159 88/11/163
f 84/10/153 46/6/153 88/11/164
f 91/10/165 90/10/166 89/11/167
f 90/10/166 91/10/165 75/6/165
f 90/10/166 75/6/165 69/6/166
f 89/11/168 90/10/169 91/10/170
f 75/6/170 91/10/170 90/10/169
f 69/6/169 75/6/170 90/10/169
f 65/6/171 93/11/172 92/10/173
f 93/11/172 65/6/173 66/6/174
f 93/11/172 66/6/174 94/10/174
f 92/10/175 93/11/176 65/6/175
f 66/6/177 65/6/178 93/11/176
f 94/10/177 66/6/177 93/11/179
f 97/10/180 96/10/181 95/11/182
f 96/10/183 97/10/180 71/6/180
f 96/10/183 71/6/180 73/6/183
f 95/11/184 96/10/185 97/10/186
f 71/6/186 97/10/186 96/10/185
f 73/6/185 71/6/186 96/10/185
f 98/11/187 75/6/165 91/10/165
f 75/6/165 98/11/187 73/6/183
f 73/6/181 98/11/188 96/10/183
f 91/10/170 75/6/170 98/11/189
f 73/6/185 98/11/189 75/6/170
f 96/10/185 98/11/190 73/6/185
f 94/10/174 97/10/191 99/11/192
f 97/10/180 94/10/174 66/6/174
f 97/10/180 66/6/174 71/6/180
f 99/11/193 97/10/186 94/10/177
f 66/6/177 94/10/177 97/10/186
f 71/6/186 66/6/177 97/10/186
f 90/10/166 92/10/171 100/11/194
f 92/10/173 90/10/166 69/6/166
f 92/10/173 69/6/166 65/6/173
f 100/11/195 92/10/178 90/10/169
f 69/6/169 90/10/169 92/10/178
f 65/6/178 69/6/169 92/10/178
f 102/11/142 61/6/143 101/10/143
f 61/6/143 102/11/142 59/6/144
f 59/6/144 102/11/142 103/10/144
f 101/10/145 61/6/145 102/11/146
f 59/6/147 102/11/146 61/6/145
f 103/10/147 102/11/146 59/6/196
f 103/10/144 60/6/136 59/6/144
f 60/6/136 103/10/144 104/11/149
f 60/6/136 104/11/149 105/10/136
f 59/6/147 60/6/140 103/10/147
f 104/11/150 103/10/147 60/6/140
f 105/10/140 104/11/150 60/6/197
f 62/6/156 107/11/160 106/10/156
f 107/11/160 62/6/156 53/6/161
f 107/11/160 53/6/161 108/10/151
f 106/10/159 107/11/163 62/6/159
f 53/6/153 62/6/159 107/11/163
f 108/10/153 53/6/153 107/11/163
f 110/10/135 105/10/136 109/11/137
f 105/10/136 110/10/138 54/6/138
f 105/10/136 54/6/138 60/6/136
f 109/11/139 105/10/140 110/10/198
f 54/6/141 110/10/141 105/10/140
f 60/6/140 54/6/141 105/10/140
f 101/10/143 106/10/156 111/11/157
f 106/10/156 101/10/143 61/6/143
f 106/10/156 61/6/199 62/6/156
f 111/11/158 106/10/159 101/10/145
f 61/6/145 101/10/145 106/10/159
f 62/6/159 61/6/200 106/10/159
f 53/6/151 112/11/152 108/10/151
f 112/11/152 53/6/151 54/6/138
f 112/11/152 54/6/138 110/10/138
f 108/10/153 112/11/154 53/6/155
f 54/6/141 53/6/153 112/11/154
f 110/10/141 54/6/141 112/11/154
f 3/1/1 2/1/1 1/1/1
f 2/1/1 3/1/1 4/1/1
f 4/1/1 3/1/1 5/1/1
f 4/1/1 5/1/1 6/1/1
f 6/1/1 5/1/1 7/1/1
f 6/1/1 7/1/1 8/1/1
f 9/2/2 1/1/3 2/1/4
f 1/1/3 9/2/2 10/2/5
f 11/2/6 1/1/7 10/2/8
f 1/1/7 11/2/9 3/1/10
f 12/2/11 2/1/4 4/1/12
f 2/1/4 12/2/11 9/2/13
f 13/2/14 4/1/15 6/1/16
f 4/1/15 13/2/14 12/2/17
f 7/1/18 14/2/19 8/1/20
f 14/2/19 7/1/18 15/2/21
f 11/2/22 5/1/23 3/1/10
f 5/1/23 11/2/22 16/2/24
f 8/1/25 13/2/26 6/1/16
f 13/2/27 8/1/25 14/2/28
f 7/1/18 16/2/29 15/2/30
f 16/2/29 7/1/18 5/1/31
f 14/2/32 18/3/33 17/3/34
f 18/3/35 14/2/32 15/2/36
f 16/2/37 18/3/38 15/2/39
f 18/3/38 16/2/40 19/3/41
f 21/3/42 9/2/43 20/3/44
f 9/2/45 21/3/42 10/2/46
f 22/3/47 12/2/48 13/2/49
f 12/2/48 22/3/50 23/3/51
f 21/3/52 11/2/53 10/2/46
f 11/2/53 21/3/54 24/3/55
f 13/2/56 17/3/57 22/3/58
f 17/3/59 13/2/56 14/2/32
f 20/3/60 12/2/61 23/3/62
f 12/2/63 20/3/60 9/2/64
f 24/3/65 16/2/66 11/2/67
f 16/2/66 24/3/68 19/3/69
f 27/4/70 26/4/70 25/4/70
f 26/4/70 27/4/70 28/4/70
f 26/4/70 28/4/70 29/4/70
f 29/4/70 28/4/70 30/4/70
f 29/4/70 30/4/70 31/4/70
f 31/4/70 30/4/70 32/4/70
f 35/5/1 34/5/1 33/5/1
f 34/5/1 35/5/1 36/5/1
f 34/5/1 36/5/1 37/5/1
f 37/5/1 36/5/1 38/5/1
f 37/5/1 38/5/1 39/5/1
f 39/5/1 38/5/1 40/5/1
f 27/4/71 33/5/72 34/5/71
f 33/5/72 27/4/71 25/4/73
f 29/4/74 38/5/75 36/5/74
f 38/5/75 29/4/74 31/4/76
f 40/5/77 31/4/75 32/4/78
f 31/4/75 40/5/77 38/5/75
f 28/4/79 34/5/71 37/5/79
f 34/5/71 28/4/79 27/4/80
f 26/4/81 36/5/82 35/5/81
f 36/5/83 26/4/81 29/4/84
f 30/4/85 37/5/86 39/5/85
f 37/5/87 30/4/85 28/4/88
f 26/4/81 33/5/89 25/4/90
f 33/5/90 26/4/81 35/5/81
f 40/5/91 30/4/85 39/5/85
f 30/4/85 40/5/78 32/4/91
f 43/6/92 42/7/93 41/7/92
f 42/7/93 43/6/92 44/6/93
f 47/6/94 46/7/95 45/7/94
f 46/7/95 47/6/94 48/6/95
f 50/6/96 45/7/94 49/7/96
f 45/7/94 50/6/96 47/6/94
f 48/6/97 41/7/92 46/7/97
f 41/7/92 48/6/97 43/6/92
f 52/7/98 44/6/93 51/6/98
f 44/6/93 52/7/98 42/7/93
f 52/7/99 50/6/96 49/7/96
f 50/6/96 52/7/99 51/6/99
f 41/7/1 45/7/1 46/7/1
f 45/7/1 41/7/1 42/7/1
f 45/7/1 42/7/1 49/7/1
f 49/7/1 42/7/1 52/7/1
f 55/6/100 54/8/101 53/8/102
f 54/8/101 55/6/100 56/6/103
f 59/8/104 58/6/105 57/6/106
f 58/6/105 59/8/104 60/8/107
f 63/6/108 62/8/109 61/8/110
f 62/8/109 63/6/108 64/6/111
f 64/6/112 53/8/102 62/8/109
f 53/8/102 64/6/112 55/6/113
f 64/6/114 56/6/115 55/6/116
f 56/6/117 64/6/114 58/6/118
f 58/6/118 64/6/114 63/6/119
f 58/6/118 63/6/119 57/6/120
f 59/8/121 63/6/122 61/8/110
f 63/6/122 59/8/104 57/6/123
f 54/8/1 62/8/1 53/8/1
f 62/8/1 54/8/1 60/8/1
f 62/8/1 60/8/1 61/8/1
f 61/8/1 60/8/1 59/8/1
f 56/6/115 60/8/107 54/8/101
f 60/8/107 56/6/124 58/6/125
f 67/6/126 66/9/127 65/9/126
f 66/9/127 67/6/126 68/6/127
f 70/6/128 65/9/126 69/9/128
f 65/9/126 70/6/128 67/6/126
f 68/6/129 71/9/130 66/9/127
f 71/9/130 68/6/127 72/6/130
f 72/6/131 73/9/132 71/9/131
f 73/9/132 72/6/131 74/6/132
f 71/9/1 65/9/1 66/9/1
f 65/9/1 71/9/1 69/9/1
f 69/9/1 71/9/1 73/9/1
f 69/9/1 73/9/1 75/9/1
f 76/6/133 69/9/134 75/9/133
f 69/9/134 76/6/133 70/6/128
f 73/9/132 76/6/133 75/9/133
f 76/6/133 73/9/132 74/6/132
f 79/10/135 78/10/136 77/11/137
f 78/10/136 79/10/138 41/6/138
f 78/10/136 41/6/138 42/6/136
f 77/11/139 78/10/140 79/10/141
f 41/6/141 79/10/141 78/10/140
f 42/6/140 41/6/141 78/10/140
f 81/11/142 49/6/143 80/10/143
f 49/6/143 81/11/142 52/6/144
f 52/6/144 81/11/142 82/10/144
f 80/10/145 49/6/145 81/11/146
f 52/6/147 81/11/146 49/6/145
f 82/10/147 81/11/146 52/6/148
f 82/10/144 42/6/136 52/6/144
f 42/6/136 82/10/144 83/11/149
f 42/6/136 83/11/149 78/10/136
f 52/6/147 42/6/140 82/10/147
f 83/11/150 82/10/147 42/6/140
f 78/10/140 83/11/150 42/6/140
f 46/6/151 85/11/152 84/10/151
f 85/11/152 46/6/151 41/6/138
f 85/11/152 41/6/135 79/10/138
f 84/10/153 85/11/154 46/6/155
f 41/6/141 46/6/153 85/11/154
f 79/10/141 41/6/141 85/11/154
f 80/10/143 87/10/156 86/11/157
f 87/10/156 80/10/143 49/6/143
f 87/10/156 49/6/143 45/6/156
f 86/11/158 87/10/159 80/10/145
f 49/6/145 80/10/145 87/10/159
f 45/6/159 49/6/145 87/10/159
f 45/6/156 88/11/160 87/10/156
f 88/11/160 45/6/156 46/6/161
f 88/11/162 46/6/151 84/10/151
f 87/10/159 88/11/163 45/6/159
f 46/6/153 45/6/159 88/11/163
f 84/10/153 46/6/153 88/11/164
f 91/10/165 90/10/166 89/11/167
f 90/10/166 91/10/165 75/6/165
f 90/10/166 75/6/165 69/6/166
f 89/11/168 90/10/169 91/10/170
f 75/6/170 91/10/170 90/10/169
f 69/6/169 75/6/170 90/10/169
f 65/6/171 93/11/172 92/10/173
f 93/11/172 65/6/173 66/6/174
f 93/11/172 66/6/174 94/10/174
f 92/10/175 93/11/176 65/6/175
f 66/6/177 65/6/178 93/11/176
f 94/10/177 66/6/177 93/11/179
f 97/10/180 96/10/181 95/11/182
f 96/10/183 97/10/180 71/6/180
f 96/10/183 71/6/180 73/6/183
f 95/11/184 96/10/185 97/10/186
f 71/6/186 97/10/186 96/10/185
f 73/6/185 71/6/186 96/10/185
f 98/11/187 75/6/165 91/10/165
f 75/6/165 98/11/187 73/6/183
f 73/6/181 98/11/188 96/10/183
f 91/10/170 75/6/170 98/11/189
f 73/6/185 98/11/189 75/6/170
f 96/10/185 98/11/190 73/6/185
f 94/10/174 97/10/191 99/11/192
f 97/10/180 94/10/174 66/6/174
f 97/10/180 66/6/174 71/6/180
f 99/11/193 97/10/186 94/10/177
f 66/6/177 94/10/177 97/10/186
f 71/6/186 66/6/177 97/10/186
f 90/10/166 92/10/171 100/11/194
f 92/10/173 90/10/166 69/6/166
f 92/10/173 69/6/166 65/6/173
f 100/11/195 92/10/178 90/10/169
f 69/6/169 90/10/169 92/10/178
f 65/6/178 69/6/169 92/10/178
f 102/11/142 61/6/143 101/10/143
f 61/6/143 102/11/142 59/6/144
f 59/6/144 102/11/142 103/10/144
f 101/10/145 61/6/145 102/11/146
f 59/6/147 102/11/146 61/6/145
f 103/10/147 102/11/146 59/6/196
f 103/10/144 60/6/136 59/6/144
f 60/6/136 103/10/144 104/11/149
f 60/6/136 104/11/149 105/10/136
f 59/6/147 60/6/140 103/10/147
f 104/11/150 103/10/147 60/6/140
f 105/10/140 104/11/150 60/6/197
f 62/6/156 107/11/160 106/10/156
f 107/11/160 62/6/156 53/6/161
f 107/11/160 53/6/161 108/10/151
f 106/10/159 107/11/163 62/6/159
f 53/6/153 62/6/159 107/11/163
f 108/10/153 53/6/153 107/11/163
f 110/10/135 105/10/136 109/11/137
f 105/10/136 110/10/138 54/6/138
f 105/10/136 54/6/138 60/6/136
f 109/11/139 105/10/140 110/10/198
f 54/6/141 110/10/141 105/10/140
f 60/6/140 54/6/141 105/10/140
f 101/10/143 106/10/156 111/11/157
f 106/10/156 101/10/143 61/6/143
f 106/10/156 61/6/199 62/6/156
f 111/11/158 106/10/159 101/10/145
f 61/6/145 101/10/145 106/10/159
f 62/6/159 61/6/200 106/10/159
f 53/6/151 112/11/152 108/10/151
f 112/11/152 53/6/151 54/6/138
f 112/11/152 54/6/138 110/10/138
f 108/10/153 112/11/154 53/6/155
f 54/6/141 53/6/153 112/11/154
f 110/10/141 54/6/141 112/11/154
