# Blender 4.1.1
# www.blender.org
mtllib tree.037.mtl
o tree.037
v -19.741970 -0.382804 -15.250832
v -19.524137 -0.382804 -15.365519
v -19.908230 -0.382804 -15.302403
v -19.472565 -0.382804 -15.531779
v -20.022919 -0.382804 -15.520236
v -19.587254 -0.382804 -15.749612
v -19.971346 -0.382804 -15.686497
v -19.753513 -0.382804 -15.801184
v -19.635941 0.062918 -15.445764
v -19.744856 0.062918 -15.388419
v -19.827986 0.062918 -15.414206
v -19.610153 0.062918 -15.528893
v -19.667498 0.062918 -15.637810
v -19.750628 0.062918 -15.663596
v -19.859543 0.062918 -15.606252
v -19.885330 0.062918 -15.523122
v -19.751348 0.731552 -15.697992
v -19.887493 0.731552 -15.626313
v -19.919727 0.731552 -15.522401
v -19.607988 0.731552 -15.425702
v -19.744135 0.731552 -15.354023
v -19.647436 0.731552 -15.665760
v -19.575756 0.731552 -15.529614
v -19.848047 0.731552 -15.386255
v -19.599720 0.222058 -15.374010
v -19.695902 0.222058 -15.365144
v -19.537979 0.222058 -15.448290
v -19.546844 0.222058 -15.544472
v -19.770182 0.222058 -15.426886
v -19.621124 0.222058 -15.606213
v -19.779047 0.222058 -15.523067
v -19.717306 0.222058 -15.597347
v -19.566420 0.060318 -15.310759
v -19.469706 0.060318 -15.427112
v -19.717079 0.060318 -15.296871
v -19.833431 0.060318 -15.393584
v -19.483593 0.060318 -15.577772
v -19.847321 0.060318 -15.544245
v -19.599947 0.060318 -15.674485
v -19.750607 0.060318 -15.660598
v -20.080296 0.731552 -15.017982
v -20.365910 0.731552 -15.560460
v -19.946230 1.468507 -15.230599
v -20.114742 1.468507 -15.550665
v -19.140696 0.731552 -15.512676
v -19.467690 0.731552 -14.994089
v -19.391861 1.468507 -15.522471
v -19.584789 1.468507 -15.216503
v -19.426308 0.731552 -16.055155
v -19.560373 1.468507 -15.842537
v -19.921814 1.468507 -15.856633
v -20.038914 0.731552 -16.079048
v -19.588617 2.260255 -15.223774
v -19.941847 2.260255 -15.237550
v -19.715448 3.090716 -15.464673
v -19.796638 3.090716 -15.467840
v -19.791153 3.090716 -15.608463
v -19.834490 3.090716 -15.539735
v -19.917986 2.260255 -15.849362
v -20.106531 2.260255 -15.550344
v -19.564756 2.260255 -15.835587
v -19.400072 2.260255 -15.522792
v -19.709965 3.090716 -15.605297
v -19.672113 3.090716 -15.533401
v -19.331686 1.468507 -15.270720
v -19.772726 1.468507 -15.038514
v -19.560112 2.260255 -15.414753
v -19.762201 2.260255 -15.308354
v -19.312262 1.468507 -15.768773
v -19.551212 2.260255 -15.642967
v -20.194342 1.468507 -15.304363
v -19.955391 2.260255 -15.430169
v -20.174917 1.468507 -15.802418
v -19.946491 2.260255 -15.658383
v -19.733877 1.468507 -16.034622
v -19.744402 2.260255 -15.764782
v -20.326458 0.501649 -15.234804
v -20.433296 0.616601 -15.563088
v -20.116266 0.616601 -14.960937
v -19.390337 0.616601 -16.112200
v -19.728058 0.501649 -16.183819
v -20.070332 0.616601 -16.138720
v -20.301216 0.501649 -15.882055
v -19.436272 0.616601 -14.934416
v -19.778545 0.501649 -14.889318
v -19.180145 0.501649 -15.838332
v -19.073307 0.616601 -15.510048
v -19.205387 0.501649 -15.191082
v -19.472418 1.281595 -15.982027
v -19.263748 1.375051 -15.794316
v -19.731741 1.375051 -16.089409
v -19.285309 1.375051 -15.241475
v -19.507965 1.281595 -15.070587
v -19.774862 1.375051 -14.983727
v -20.279522 1.281595 -15.557091
v -20.221294 1.375051 -15.831661
v -20.242855 1.375051 -15.278820
v -19.998638 1.281595 -16.002550
v -20.034185 1.281595 -15.091110
v -19.227081 1.281595 -15.516046
v -19.544016 2.193974 -15.868479
v -19.738747 2.127692 -15.909774
v -19.936102 2.193974 -15.883770
v -20.069229 2.127692 -15.735776
v -20.145388 2.193974 -15.551860
v -19.361216 2.193974 -15.521276
v -19.437374 2.127692 -15.337360
v -19.570501 2.193974 -15.189366
v -20.083784 2.127692 -15.362571
v -19.962587 2.193974 -15.204658
v -19.422819 2.127692 -15.710566
v -19.767857 2.127692 -15.163363
vn -0.0000 -1.0000 -0.0000
vn 0.7315 0.2942 0.6151
vn 0.0834 0.2944 0.9520
vn 0.7377 0.2944 0.6075
vn 0.0932 0.2942 0.9512
vn -0.6151 0.2942 0.7315
vn 0.0833 0.2944 0.9520
vn 0.0931 0.2942 0.9512
vn -0.6151 0.2943 0.7315
vn -0.6075 0.2944 0.7378
vn 0.9512 0.2942 -0.0931
vn 0.7378 0.2944 0.6075
vn 0.9520 0.2944 -0.0833
vn 0.6151 0.2942 -0.7315
vn 0.9520 0.2944 -0.0834
vn 0.6075 0.2944 -0.7377
vn 0.6152 0.2942 -0.7315
vn 0.9512 0.2942 -0.0932
vn -0.7377 0.2944 -0.6075
vn -0.0932 0.2942 -0.9512
vn -0.0834 0.2944 -0.9520
vn -0.7315 0.2942 -0.6151
vn -0.9520 0.2944 0.0834
vn -0.6075 0.2944 0.7377
vn -0.6152 0.2942 0.7315
vn -0.9512 0.2942 0.0932
vn -0.0833 0.2944 -0.9520
vn 0.6151 0.2943 -0.7315
vn 0.6075 0.2944 -0.7378
vn -0.0931 0.2942 -0.9512
vn -0.7378 0.2944 -0.6075
vn -0.9512 0.2942 0.0931
vn -0.9520 0.2944 0.0833
vn -0.0926 -0.0513 -0.9944
vn -0.7685 -0.0512 -0.6377
vn -0.0908 -0.0513 -0.9945
vn -0.7686 -0.0513 -0.6377
vn -0.7674 -0.0513 -0.6391
vn -0.9944 -0.0512 0.0925
vn -0.7674 -0.0512 -0.6391
vn -0.9944 -0.0513 0.0925
vn -0.9946 -0.0512 0.0908
vn 0.0908 -0.0512 0.9945
vn 0.7674 -0.0513 0.6391
vn 0.7685 -0.0513 0.6377
vn 0.0926 -0.0513 0.9944
vn 0.6377 -0.0513 -0.7685
vn 0.9944 -0.0513 -0.0926
vn 0.6391 -0.0513 -0.7674
vn 0.6377 -0.0512 -0.7686
vn 0.9945 -0.0513 -0.0909
vn 0.0908 -0.0513 0.9945
vn -0.6391 -0.0513 0.7674
vn 0.0925 -0.0512 0.9944
vn -0.6391 -0.0513 0.7675
vn 0.0908 -0.0512 0.9946
vn -0.6377 -0.0513 0.7686
vn 0.6391 -0.0513 -0.7675
vn -0.0908 -0.0512 -0.9946
vn 0.6377 -0.0513 -0.7686
vn -0.0926 -0.0512 -0.9944
vn 0.7686 -0.0513 0.6377
vn 0.9946 -0.0512 -0.0908
vn 0.9944 -0.0512 -0.0925
vn 0.7674 -0.0512 0.6391
vn -0.6377 -0.0513 0.7685
vn -0.9944 -0.0513 0.0926
vn -0.6377 -0.0512 0.7686
vn -0.9945 -0.0513 0.0909
vn -0.0000 1.0000 -0.0000
vn 0.8736 0.4042 0.2710
vn 0.4261 0.4042 0.8093
vn 0.4262 0.4042 0.8093
vn 0.8736 0.4042 0.2709
vn 0.4262 0.4043 0.8093
vn -0.8094 0.4042 0.4261
vn -0.8736 0.4042 -0.2710
vn -0.8736 0.4043 -0.2710
vn -0.4261 0.4042 -0.8093
vn -0.4262 0.4042 -0.8093
vn 0.8094 0.4042 -0.4261
vn 0.8093 0.4042 -0.4261
vn 0.8736 0.4043 0.2710
vn -0.2710 0.4042 0.8736
vn -0.8093 0.4042 0.4262
vn -0.8093 0.4042 0.4261
vn -0.8093 0.4043 0.4261
vn 0.2710 0.4042 -0.8736
vn 0.8093 0.4043 -0.4261
vn 0.4261 0.4043 0.8093
vn 0.4261 0.4042 0.8094
vn -0.2710 0.4043 0.8736
vn -0.4261 0.4042 -0.8094
vn -0.4261 0.4043 -0.8093
vn -0.5048 0.3228 0.8006
vn -0.9458 0.3228 -0.0369
vn 0.9457 0.3228 0.0369
vn 0.4409 0.3228 0.8375
vn 0.9458 0.3228 0.0369
vn 0.5048 0.3228 -0.8006
vn -0.4409 0.3228 -0.8375
vn -0.9457 0.3228 -0.0369
vn 0.3204 0.7260 0.6085
vn -0.5068 0.3115 0.8038
vn 0.4427 0.3115 0.8408
vn -0.3669 0.7260 0.5817
vn -0.4427 0.3115 -0.8408
vn -0.6872 0.7260 -0.0268
vn -0.3203 0.7260 -0.6086
vn -0.9495 0.3115 -0.0370
vn 0.3668 0.7260 -0.5817
vn 0.9495 0.3115 0.0370
vn 0.5069 0.3115 -0.8038
vn 0.3668 0.7260 -0.5818
vn 0.6872 0.7260 0.0268
vn 0.9495 0.3115 0.0371
vn 0.6872 0.7260 0.0267
vn 0.3204 0.7260 0.6086
vn 0.6872 0.7259 0.0268
vn -0.3668 0.7259 0.5818
vn 0.3204 0.7259 0.6086
vn -0.3668 0.7259 0.5817
vn -0.6872 0.7259 -0.0268
vn 0.3668 0.7259 -0.5817
vn 0.3668 0.7259 -0.5818
vn -0.3204 0.7259 -0.6086
vn 0.5068 0.3115 -0.8038
vn -0.3204 0.7260 -0.6085
vn -0.3668 0.7260 0.5817
vn -0.5069 0.3115 0.8038
vn -0.3668 0.7260 0.5818
vn -0.6872 0.7260 -0.0269
vn 0.8006 0.3228 0.5048
vn -0.0369 0.3228 0.9457
vn -0.0369 0.3228 0.9458
vn 0.8375 0.3228 -0.4409
vn -0.8375 0.3228 0.4409
vn -0.8006 0.3228 -0.5048
vn 0.0369 0.3228 -0.9457
vn 0.0369 0.3228 -0.9458
vn -0.4600 0.5060 0.7296
vn -0.8619 0.5060 -0.0336
vn -0.7889 0.4530 0.4153
vn 0.7889 -0.4530 -0.4153
vn 0.8619 -0.5060 0.0336
vn 0.4600 -0.5060 -0.7296
vn 0.0347 0.4530 -0.8909
vn 0.4600 0.5060 -0.7296
vn 0.4600 0.5061 -0.7296
vn 0.0347 0.4530 -0.8908
vn -0.4018 0.5060 -0.7632
vn -0.4600 -0.5060 0.7296
vn -0.0347 -0.4530 0.8909
vn 0.4018 -0.5060 0.7632
vn -0.0347 -0.4530 0.8908
vn -0.4601 -0.5060 0.7296
vn -0.7541 0.4530 -0.4755
vn 0.7541 -0.4530 0.4755
vn 0.4018 0.5060 0.7632
vn -0.0347 0.4530 0.8908
vn -0.0347 0.4530 0.8909
vn -0.4018 -0.5060 -0.7632
vn 0.0347 -0.4530 -0.8908
vn 0.4601 -0.5060 -0.7296
vn 0.0347 -0.4530 -0.8909
vn 0.8619 0.5060 0.0336
vn 0.7889 0.4530 -0.4153
vn -0.7889 -0.4530 0.4153
vn -0.8619 -0.5060 -0.0336
vn 0.7541 0.4530 0.4755
vn -0.7541 -0.4530 -0.4755
vn -0.8618 -0.5060 -0.0336
vn 0.0336 0.5060 -0.8619
vn 0.7632 0.5060 -0.4018
vn 0.4755 0.4530 -0.7541
vn -0.4755 -0.4530 0.7541
vn -0.7632 -0.5060 0.4018
vn -0.0336 -0.5060 0.8619
vn 0.7296 0.5060 0.4600
vn 0.4153 0.4530 0.7889
vn 0.7296 0.5060 0.4601
vn -0.0336 0.5061 0.8618
vn -0.0336 0.5060 0.8619
vn -0.7296 -0.5060 -0.4600
vn -0.4153 -0.4530 -0.7889
vn 0.0336 -0.5060 -0.8619
vn -0.7632 0.5060 0.4018
vn -0.7296 0.5060 -0.4600
vn -0.8909 0.4530 -0.0347
vn -0.7296 0.5060 -0.4601
vn 0.8908 -0.4530 0.0347
vn 0.7296 -0.5060 0.4600
vn 0.7632 -0.5060 -0.4018
vn 0.7296 -0.5060 0.4601
vn -0.4153 0.4530 -0.7889
vn 0.4153 -0.4530 0.7889
vn -0.4755 0.4530 0.7541
vn 0.4755 -0.4530 -0.7541
vn 0.8908 0.4530 0.0347
vn -0.8908 -0.4530 -0.0347
vn -0.7296 -0.5060 -0.4601
vn 0.0347 0.4529 -0.8909
vn -0.0347 -0.4529 0.8909
vn 0.4018 0.5061 0.7632
vn 0.4601 0.5060 -0.7296
vn 0.7889 0.4529 -0.4153
vn -0.7889 -0.4529 0.4153
vn -0.0347 0.4529 0.8909
vn -0.4600 0.5061 0.7296
vn 0.0347 -0.4529 -0.8909
vt 0.593750 0.025000
vt 0.593750 0.104996
vt 0.593750 0.225000
vt 0.093750 0.475000
vt 0.093750 0.275000
vt 0.093750 0.425000
vt 0.093750 0.348778
vt 0.093750 0.338765
vt 0.093750 0.344099
vt 0.093750 0.375000
vt 0.093750 0.325000
s 0
usemtl colormap.040
f 3/1/1 2/1/1 1/1/1
f 2/1/1 3/1/1 4/1/1
f 4/1/1 3/1/1 5/1/1
f 4/1/1 5/1/1 6/1/1
f 6/1/1 5/1/1 7/1/1
f 6/1/1 7/1/1 8/1/1
f 9/2/2 1/1/3 2/1/4
f 1/1/3 9/2/2 10/2/5
f 11/2/6 1/1/7 10/2/8
f 1/1/7 11/2/9 3/1/10
f 12/2/11 2/1/12 4/1/13
f 2/1/12 12/2/11 9/2/2
f 13/2/14 4/1/15 6/1/16
f 4/1/15 13/2/17 12/2/18
f 7/1/19 14/2/20 8/1/21
f 14/2/20 7/1/19 15/2/22
f 11/2/6 5/1/23 3/1/24
f 5/1/23 11/2/25 16/2/26
f 8/1/27 13/2/28 6/1/29
f 13/2/14 8/1/27 14/2/30
f 7/1/31 16/2/32 15/2/22
f 16/2/32 7/1/31 5/1/33
f 14/2/34 18/3/35 17/3/36
f 18/3/37 14/2/34 15/2/38
f 16/2/39 18/3/37 15/2/40
f 18/3/37 16/2/41 19/3/42
f 21/3/43 9/2/44 20/3/45
f 9/2/44 21/3/43 10/2/46
f 22/3/47 12/2/48 13/2/49
f 12/2/48 22/3/50 23/3/51
f 21/3/52 11/2/53 10/2/54
f 11/2/55 21/3/56 24/3/57
f 13/2/58 17/3/59 22/3/60
f 17/3/36 13/2/49 14/2/61
f 20/3/62 12/2/48 23/3/63
f 12/2/64 20/3/62 9/2/65
f 24/3/66 16/2/67 11/2/53
f 16/2/67 24/3/68 19/3/69
f 27/4/70 26/4/70 25/4/70
f 26/4/70 27/4/70 28/4/70
f 26/4/70 28/4/70 29/4/70
f 29/4/70 28/4/70 30/4/70
f 29/4/70 30/4/70 31/4/70
f 31/4/70 30/4/70 32/4/70
f 35/5/1 34/5/1 33/5/1
f 34/5/1 35/5/1 36/5/1
f 34/5/1 36/5/1 37/5/1
f 37/5/1 36/5/1 38/5/1
f 37/5/1 38/5/1 39/5/1
f 39/5/1 38/5/1 40/5/1
f 27/4/71 33/5/72 34/5/71
f 33/5/73 27/4/74 25/4/75
f 29/4/76 38/5/77 36/5/76
f 38/5/77 29/4/76 31/4/78
f 40/5/79 31/4/77 32/4/79
f 31/4/77 40/5/80 38/5/77
f 28/4/81 34/5/71 37/5/82
f 34/5/71 28/4/81 27/4/83
f 26/4/84 36/5/85 35/5/84
f 36/5/86 26/4/84 29/4/87
f 30/4/88 37/5/82 39/5/88
f 37/5/82 30/4/88 28/4/89
f 26/4/84 33/5/90 25/4/91
f 33/5/91 26/4/92 35/5/84
f 40/5/93 30/4/88 39/5/88
f 30/4/88 40/5/94 32/4/93
f 43/6/95 42/7/96 41/7/95
f 42/7/96 43/6/95 44/6/96
f 47/6/97 46/7/98 45/7/97
f 46/7/98 47/6/99 48/6/98
f 50/6/100 45/7/99 49/7/100
f 45/7/99 50/6/100 47/6/99
f 48/6/98 41/7/95 46/7/98
f 41/7/95 48/6/98 43/6/95
f 52/7/101 44/6/96 51/6/101
f 44/6/102 52/7/101 42/7/102
f 52/7/101 50/6/100 49/7/100
f 50/6/100 52/7/101 51/6/101
f 41/7/1 45/7/1 46/7/1
f 45/7/1 41/7/1 42/7/1
f 45/7/1 42/7/1 49/7/1
f 49/7/1 42/7/1 52/7/1
f 55/6/103 54/8/104 53/8/105
f 54/8/104 55/6/103 56/6/106
f 59/8/107 58/6/108 57/6/109
f 58/6/108 59/8/107 60/8/110
f 63/6/111 62/8/112 61/8/113
f 62/8/112 63/6/114 64/6/115
f 64/6/115 53/8/105 62/8/116
f 53/8/105 64/6/117 55/6/118
f 64/6/119 56/6/120 55/6/121
f 56/6/122 64/6/119 58/6/123
f 58/6/123 64/6/119 63/6/124
f 58/6/123 63/6/125 57/6/126
f 59/8/107 63/6/111 61/8/127
f 63/6/111 59/8/107 57/6/128
f 54/8/1 62/8/1 53/8/1
f 62/8/1 54/8/1 60/8/1
f 62/8/1 60/8/1 61/8/1
f 61/8/1 60/8/1 59/8/1
f 56/6/129 60/8/110 54/8/130
f 60/8/110 56/6/131 58/6/132
f 67/6/133 66/9/134 65/9/133
f 66/9/134 67/6/133 68/6/135
f 70/6/136 65/9/133 69/9/136
f 65/9/133 70/6/136 67/6/133
f 68/6/134 71/9/137 66/9/134
f 71/9/137 68/6/135 72/6/137
f 72/6/137 73/9/138 71/9/137
f 73/9/138 72/6/137 74/6/138
f 71/9/1 65/9/1 66/9/1
f 65/9/1 71/9/1 69/9/1
f 69/9/1 71/9/1 73/9/1
f 69/9/1 73/9/1 75/9/1
f 76/6/139 69/9/136 75/9/139
f 69/9/136 76/6/140 70/6/136
f 73/9/138 76/6/139 75/9/139
f 76/6/139 73/9/138 74/6/138
f 79/10/141 78/10/142 77/11/143
f 78/10/142 79/10/141 41/6/141
f 78/10/142 41/6/141 42/6/142
f 77/11/144 78/10/145 79/10/146
f 41/6/146 79/10/146 78/10/145
f 42/6/145 41/6/146 78/10/145
f 81/11/147 49/6/148 80/10/148
f 49/6/149 81/11/150 52/6/151
f 52/6/151 81/11/150 82/10/151
f 80/10/152 49/6/152 81/11/153
f 52/6/154 81/11/155 49/6/156
f 82/10/154 81/11/155 52/6/154
f 82/10/151 42/6/142 52/6/151
f 42/6/142 82/10/151 83/11/157
f 42/6/142 83/11/157 78/10/142
f 52/6/154 42/6/145 82/10/154
f 83/11/158 82/10/154 42/6/145
f 78/10/145 83/11/158 42/6/145
f 46/6/159 85/11/160 84/10/159
f 85/11/161 46/6/159 41/6/141
f 85/11/161 41/6/141 79/10/141
f 84/10/162 85/11/163 46/6/162
f 41/6/164 46/6/162 85/11/165
f 79/10/146 41/6/146 85/11/165
f 80/10/148 87/10/166 86/11/167
f 87/10/166 80/10/148 49/6/148
f 87/10/166 49/6/148 45/6/166
f 86/11/168 87/10/169 80/10/152
f 49/6/152 80/10/152 87/10/169
f 45/6/169 49/6/152 87/10/169
f 45/6/166 88/11/170 87/10/166
f 88/11/170 45/6/166 46/6/159
f 88/11/170 46/6/159 84/10/159
f 87/10/169 88/11/171 45/6/172
f 46/6/162 45/6/169 88/11/171
f 84/10/162 46/6/162 88/11/171
f 91/10/173 90/10/174 89/11/175
f 90/10/174 91/10/173 75/6/173
f 90/10/174 75/6/173 69/6/174
f 89/11/176 90/10/177 91/10/178
f 75/6/178 91/10/178 90/10/177
f 69/6/177 75/6/178 90/10/177
f 65/6/179 93/11/180 92/10/181
f 93/11/180 65/6/179 66/6/182
f 93/11/180 66/6/182 94/10/183
f 92/10/184 93/11/185 65/6/184
f 66/6/186 65/6/184 93/11/185
f 94/10/186 66/6/186 93/11/185
f 97/10/187 96/10/188 95/11/189
f 96/10/188 97/10/187 71/6/187
f 96/10/190 71/6/187 73/6/188
f 95/11/191 96/10/192 97/10/193
f 71/6/193 97/10/193 96/10/192
f 73/6/192 71/6/193 96/10/194
f 98/11/195 75/6/173 91/10/173
f 75/6/173 98/11/195 73/6/190
f 73/6/188 98/11/195 96/10/190
f 91/10/178 75/6/178 98/11/196
f 73/6/192 98/11/196 75/6/178
f 96/10/192 98/11/196 73/6/192
f 94/10/183 97/10/187 99/11/197
f 97/10/187 94/10/183 66/6/183
f 97/10/187 66/6/183 71/6/187
f 99/11/198 97/10/193 94/10/186
f 66/6/186 94/10/186 97/10/193
f 71/6/193 66/6/186 97/10/193
f 90/10/174 92/10/179 100/11/199
f 92/10/179 90/10/174 69/6/174
f 92/10/181 69/6/174 65/6/179
f 100/11/200 92/10/201 90/10/177
f 69/6/177 90/10/177 92/10/201
f 65/6/184 69/6/177 92/10/201
f 102/11/202 61/6/148 101/10/148
f 61/6/148 102/11/147 59/6/151
f 59/6/151 102/11/147 103/10/151
f 101/10/152 61/6/152 102/11/203
f 59/6/154 102/11/153 61/6/156
f 103/10/154 102/11/153 59/6/154
f 103/10/151 60/6/142 59/6/151
f 60/6/142 103/10/151 104/11/157
f 60/6/142 104/11/157 105/10/142
f 59/6/154 60/6/145 103/10/154
f 104/11/158 103/10/154 60/6/145
f 105/10/145 104/11/158 60/6/145
f 62/6/166 107/11/170 106/10/166
f 107/11/170 62/6/166 53/6/159
f 107/11/170 53/6/204 108/10/159
f 106/10/169 107/11/171 62/6/169
f 53/6/162 62/6/169 107/11/171
f 108/10/162 53/6/162 107/11/171
f 110/10/141 105/10/142 109/11/143
f 105/10/142 110/10/141 54/6/141
f 105/10/142 54/6/141 60/6/142
f 109/11/144 105/10/145 110/10/146
f 54/6/146 110/10/146 105/10/145
f 60/6/145 54/6/146 105/10/145
f 101/10/205 106/10/166 111/11/206
f 106/10/166 101/10/148 61/6/148
f 106/10/166 61/6/148 62/6/166
f 111/11/207 106/10/169 101/10/152
f 61/6/152 101/10/152 106/10/169
f 62/6/169 61/6/152 106/10/169
f 53/6/159 112/11/208 108/10/159
f 112/11/161 53/6/159 54/6/141
f 112/11/161 54/6/209 110/10/141
f 108/10/162 112/11/210 53/6/162
f 54/6/164 53/6/162 112/11/165
f 110/10/146 54/6/146 112/11/165
f 3/1/1 2/1/1 1/1/1
f 2/1/1 3/1/1 4/1/1
f 4/1/1 3/1/1 5/1/1
f 4/1/1 5/1/1 6/1/1
f 6/1/1 5/1/1 7/1/1
f 6/1/1 7/1/1 8/1/1
f 9/2/2 1/1/3 2/1/4
f 1/1/3 9/2/2 10/2/5
f 11/2/6 1/1/7 10/2/8
f 1/1/7 11/2/9 3/1/10
f 12/2/11 2/1/12 4/1/13
f 2/1/12 12/2/11 9/2/2
f 13/2/14 4/1/15 6/1/16
f 4/1/15 13/2/17 12/2/18
f 7/1/19 14/2/20 8/1/21
f 14/2/20 7/1/19 15/2/22
f 11/2/6 5/1/23 3/1/24
f 5/1/23 11/2/25 16/2/26
f 8/1/27 13/2/28 6/1/29
f 13/2/14 8/1/27 14/2/30
f 7/1/31 16/2/32 15/2/22
f 16/2/32 7/1/31 5/1/33
f 14/2/34 18/3/35 17/3/36
f 18/3/37 14/2/34 15/2/38
f 16/2/39 18/3/37 15/2/40
f 18/3/37 16/2/41 19/3/42
f 21/3/43 9/2/44 20/3/45
f 9/2/44 21/3/43 10/2/46
f 22/3/47 12/2/48 13/2/49
f 12/2/48 22/3/50 23/3/51
f 21/3/52 11/2/53 10/2/54
f 11/2/55 21/3/56 24/3/57
f 13/2/58 17/3/59 22/3/60
f 17/3/36 13/2/49 14/2/61
f 20/3/62 12/2/48 23/3/63
f 12/2/64 20/3/62 9/2/65
f 24/3/66 16/2/67 11/2/53
f 16/2/67 24/3/68 19/3/69
f 27/4/70 26/4/70 25/4/70
f 26/4/70 27/4/70 28/4/70
f 26/4/70 28/4/70 29/4/70
f 29/4/70 28/4/70 30/4/70
f 29/4/70 30/4/70 31/4/70
f 31/4/70 30/4/70 32/4/70
f 35/5/1 34/5/1 33/5/1
f 34/5/1 35/5/1 36/5/1
f 34/5/1 36/5/1 37/5/1
f 37/5/1 36/5/1 38/5/1
f 37/5/1 38/5/1 39/5/1
f 39/5/1 38/5/1 40/5/1
f 27/4/71 33/5/72 34/5/71
f 33/5/73 27/4/74 25/4/75
f 29/4/76 38/5/77 36/5/76
f 38/5/77 29/4/76 31/4/78
f 40/5/79 31/4/77 32/4/79
f 31/4/77 40/5/80 38/5/77
f 28/4/81 34/5/71 37/5/82
f 34/5/71 28/4/81 27/4/83
f 26/4/84 36/5/85 35/5/84
f 36/5/86 26/4/84 29/4/87
f 30/4/88 37/5/82 39/5/88
f 37/5/82 30/4/88 28/4/89
f 26/4/84 33/5/90 25/4/91
f 33/5/91 26/4/92 35/5/84
f 40/5/93 30/4/88 39/5/88
f 30/4/88 40/5/94 32/4/93
f 43/6/95 42/7/96 41/7/95
f 42/7/96 43/6/95 44/6/96
f 47/6/97 46/7/98 45/7/97
f 46/7/98 47/6/99 48/6/98
f 50/6/100 45/7/99 49/7/100
f 45/7/99 50/6/100 47/6/99
f 48/6/98 41/7/95 46/7/98
f 41/7/95 48/6/98 43/6/95
f 52/7/101 44/6/96 51/6/101
f 44/6/102 52/7/101 42/7/102
f 52/7/101 50/6/100 49/7/100
f 50/6/100 52/7/101 51/6/101
f 41/7/1 45/7/1 46/7/1
f 45/7/1 41/7/1 42/7/1
f 45/7/1 42/7/1 49/7/1
f 49/7/1 42/7/1 52/7/1
f 55/6/103 54/8/104 53/8/105
f 54/8/104 55/6/103 56/6/106
f 59/8/107 58/6/108 57/6/109
f 58/6/108 59/8/107 60/8/110
f 63/6/111 62/8/112 61/8/113
f 62/8/112 63/6/114 64/6/115
f 64/6/115 53/8/105 62/8/116
f 53/8/105 64/6/117 55/6/118
f 64/6/119 56/6/120 55/6/121
f 56/6/122 64/6/119 58/6/123
f 58/6/123 64/6/119 63/6/124
f 58/6/123 63/6/125 57/6/126
f 59/8/107 63/6/111 61/8/127
f 63/6/111 59/8/107 57/6/128
f 54/8/1 62/8/1 53/8/1
f 62/8/1 54/8/1 60/8/1
f 62/8/1 60/8/1 61/8/1
f 61/8/1 60/8/1 59/8/1
f 56/6/129 60/8/110 54/8/130
f 60/8/110 56/6/131 58/6/132
f 67/6/133 66/9/134 65/9/133
f 66/9/134 67/6/133 68/6/135
f 70/6/136 65/9/133 69/9/136
f 65/9/133 70/6/136 67/6/133
f 68/6/134 71/9/137 66/9/134
f 71/9/137 68/6/135 72/6/137
f 72/6/137 73/9/138 71/9/137
f 73/9/138 72/6/137 74/6/138
f 71/9/1 65/9/1 66/9/1
f 65/9/1 71/9/1 69/9/1
f 69/9/1 71/9/1 73/9/1
f 69/9/1 73/9/1 75/9/1
f 76/6/139 69/9/136 75/9/139
f 69/9/136 76/6/140 70/6/136
f 73/9/138 76/6/139 75/9/139
f 76/6/139 73/9/138 74/6/138
f 79/10/141 78/10/142 77/11/143
f 78/10/142 79/10/141 41/6/141
f 78/10/142 41/6/141 42/6/142
f 77/11/144 78/10/145 79/10/146
f 41/6/146 79/10/146 78/10/145
f 42/6/145 41/6/146 78/10/145
f 81/11/147 49/6/148 80/10/148
f 49/6/149 81/11/150 52/6/151
f 52/6/151 81/11/150 82/10/151
f 80/10/152 49/6/152 81/11/153
f 52/6/154 81/11/155 49/6/156
f 82/10/154 81/11/155 52/6/154
f 82/10/151 42/6/142 52/6/151
f 42/6/142 82/10/151 83/11/157
f 42/6/142 83/11/157 78/10/142
f 52/6/154 42/6/145 82/10/154
f 83/11/158 82/10/154 42/6/145
f 78/10/145 83/11/158 42/6/145
f 46/6/159 85/11/160 84/10/159
f 85/11/161 46/6/159 41/6/141
f 85/11/161 41/6/141 79/10/141
f 84/10/162 85/11/163 46/6/162
f 41/6/164 46/6/162 85/11/165
f 79/10/146 41/6/146 85/11/165
f 80/10/148 87/10/166 86/11/167
f 87/10/166 80/10/148 49/6/148
f 87/10/166 49/6/148 45/6/166
f 86/11/168 87/10/169 80/10/152
f 49/6/152 80/10/152 87/10/169
f 45/6/169 49/6/152 87/10/169
f 45/6/166 88/11/170 87/10/166
f 88/11/170 45/6/166 46/6/159
f 88/11/170 46/6/159 84/10/159
f 87/10/169 88/11/171 45/6/172
f 46/6/162 45/6/169 88/11/171
f 84/10/162 46/6/162 88/11/171
f 91/10/173 90/10/174 89/11/175
f 90/10/174 91/10/173 75/6/173
f 90/10/174 75/6/173 69/6/174
f 89/11/176 90/10/177 91/10/178
f 75/6/178 91/10/178 90/10/177
f 69/6/177 75/6/178 90/10/177
f 65/6/179 93/11/180 92/10/181
f 93/11/180 65/6/179 66/6/182
f 93/11/180 66/6/182 94/10/183
f 92/10/184 93/11/185 65/6/184
f 66/6/186 65/6/184 93/11/185
f 94/10/186 66/6/186 93/11/185
f 97/10/187 96/10/188 95/11/189
f 96/10/188 97/10/187 71/6/187
f 96/10/190 71/6/187 73/6/188
f 95/11/191 96/10/192 97/10/193
f 71/6/193 97/10/193 96/10/192
f 73/6/192 71/6/193 96/10/194
f 98/11/195 75/6/173 91/10/173
f 75/6/173 98/11/195 73/6/190
f 73/6/188 98/11/195 96/10/190
f 91/10/178 75/6/178 98/11/196
f 73/6/192 98/11/196 75/6/178
f 96/10/192 98/11/196 73/6/192
f 94/10/183 97/10/187 99/11/197
f 97/10/187 94/10/183 66/6/183
f 97/10/187 66/6/183 71/6/187
f 99/11/198 97/10/193 94/10/186
f 66/6/186 94/10/186 97/10/193
f 71/6/193 66/6/186 97/10/193
f 90/10/174 92/10/179 100/11/199
f 92/10/179 90/10/174 69/6/174
f 92/10/181 69/6/174 65/6/179
f 100/11/200 92/10/201 90/10/177
f 69/6/177 90/10/177 92/10/201
f 65/6/184 69/6/177 92/10/201
f 102/11/202 61/6/148 101/10/148
f 61/6/148 102/11/147 59/6/151
f 59/6/151 102/11/147 103/10/151
f 101/10/152 61/6/152 102/11/203
f 59/6/154 102/11/153 61/6/156
f 103/10/154 102/11/153 59/6/154
f 103/10/151 60/6/142 59/6/151
f 60/6/142 103/10/151 104/11/157
f 60/6/142 104/11/157 105/10/142
f 59/6/154 60/6/145 103/10/154
f 104/11/158 103/10/154 60/6/145
f 105/10/145 104/11/158 60/6/145
f 62/6/166 107/11/170 106/10/166
f 107/11/170 62/6/166 53/6/159
f 107/11/170 53/6/204 108/10/159
f 106/10/169 107/11/171 62/6/169
f 53/6/162 62/6/169 107/11/171
f 108/10/162 53/6/162 107/11/171
f 110/10/141 105/10/142 109/11/143
f 105/10/142 110/10/141 54/6/141
f 105/10/142 54/6/141 60/6/142
f 109/11/144 105/10/145 110/10/146
f 54/6/146 110/10/146 105/10/145
f 60/6/145 54/6/146 105/10/145
f 101/10/205 106/10/166 111/11/206
f 106/10/166 101/10/148 61/6/148
f 106/10/166 61/6/148 62/6/166
f 111/11/207 106/10/169 101/10/152
f 61/6/152 101/10/152 106/10/169
f 62/6/169 61/6/152 106/10/169
f 53/6/159 112/11/208 108/10/159
f 112/11/161 53/6/159 54/6/141
f 112/11/161 54/6/209 110/10/141
f 108/10/162 112/11/210 53/6/162
f 54/6/164 53/6/162 112/11/165
f 110/10/146 54/6/146 112/11/165
