# Blender 4.1.1
# www.blender.org
mtllib tree.032.mtl
o tree.032
v -9.732319 -0.217703 -13.790008
v -9.571667 -0.217703 -13.874591
v -9.854937 -0.217703 -13.828042
v -9.533632 -0.217703 -13.997208
v -9.939518 -0.217703 -13.988694
v -9.618214 -0.217703 -14.157860
v -9.901484 -0.217703 -14.111311
v -9.740831 -0.217703 -14.195894
v -9.654120 0.111018 -13.933770
v -9.734447 0.111018 -13.891479
v -9.795755 0.111018 -13.910498
v -9.635103 0.111018 -13.995079
v -9.677395 0.111018 -14.075404
v -9.738704 0.111018 -14.094422
v -9.819030 0.111018 -14.052131
v -9.838047 0.111018 -13.990823
v -9.739235 0.604137 -14.119791
v -9.839643 0.604137 -14.066926
v -9.863414 0.604137 -13.990291
v -9.633508 0.604137 -13.918975
v -9.733915 0.604137 -13.866111
v -9.662600 0.604137 -14.096019
v -9.609735 0.604137 -13.995611
v -9.810551 0.604137 -13.889884
v -9.627409 0.228384 -13.880852
v -9.698343 0.228384 -13.874313
v -9.581874 0.228384 -13.935633
v -9.588413 0.228384 -14.006567
v -9.753124 0.228384 -13.919847
v -9.643194 0.228384 -14.052103
v -9.759663 0.228384 -13.990782
v -9.714128 0.228384 -14.045563
v -9.602849 0.109101 -13.834205
v -9.531523 0.109101 -13.920014
v -9.713962 0.109101 -13.823963
v -9.799772 0.109101 -13.895288
v -9.541765 0.109101 -14.031128
v -9.810014 0.109101 -14.006400
v -9.627576 0.109101 -14.102453
v -9.738688 0.109101 -14.092212
v -9.981835 0.604137 -13.618280
v -10.192474 0.604137 -14.018359
v -9.882960 1.147643 -13.775086
v -10.007239 1.147643 -14.011135
v -9.288877 0.604137 -13.983118
v -9.530036 0.604137 -13.600659
v -9.474113 1.147643 -13.990343
v -9.616398 1.147643 -13.764691
v -9.499516 0.604137 -14.383199
v -9.598391 1.147643 -14.226391
v -9.864954 1.147643 -14.236788
v -9.951315 0.604137 -14.400819
v -9.619221 1.731559 -13.770052
v -9.879728 1.731559 -13.780212
v -9.712759 2.344026 -13.947717
v -9.772636 2.344026 -13.950051
v -9.768592 2.344026 -14.053761
v -9.800552 2.344026 -14.003075
v -9.862131 1.731559 -14.231425
v -10.001184 1.731559 -14.010899
v -9.601623 1.731559 -14.221265
v -9.480167 1.731559 -13.990580
v -9.708714 2.344026 -14.051426
v -9.680799 2.344026 -13.998405
v -9.429733 1.147643 -13.804674
v -9.755001 1.147643 -13.633423
v -9.598199 1.731559 -13.910901
v -9.747240 1.731559 -13.832431
v -9.415407 1.147643 -14.171990
v -9.591635 1.731559 -14.079208
v -10.065944 1.147643 -13.829487
v -9.889717 1.731559 -13.922270
v -10.051619 1.147643 -14.196803
v -9.883153 1.731559 -14.090578
v -9.726350 1.147643 -14.368056
v -9.734112 1.731559 -14.169048
v -10.163381 0.434583 -13.778189
v -10.242172 0.519360 -14.020298
v -10.008362 0.519360 -13.576210
v -9.472989 0.519360 -14.425269
v -9.722059 0.434583 -14.478087
v -9.974486 0.519360 -14.444828
v -10.144763 0.434583 -14.255536
v -9.506866 0.519360 -13.556651
v -9.759293 0.434583 -13.523391
v -9.317971 0.434583 -14.223290
v -9.239179 0.519360 -13.981181
v -9.336588 0.434583 -13.745942
v -9.533524 1.009795 -14.329266
v -9.379628 1.078719 -14.190829
v -9.724774 1.078719 -14.408460
v -9.395529 1.078719 -13.783108
v -9.559739 1.009795 -13.657077
v -9.756577 1.078719 -13.593018
v -10.128764 1.009795 -14.015876
v -10.085822 1.078719 -14.218370
v -10.101723 1.078719 -13.810650
v -9.921612 1.009795 -14.344401
v -9.947827 1.009795 -13.672213
v -9.352588 1.009795 -13.985603
v -9.586327 1.682676 -14.245523
v -9.729941 1.633794 -14.275979
v -9.875490 1.682676 -14.256802
v -9.973673 1.633794 -14.147655
v -10.029840 1.682676 -14.012017
v -9.451511 1.682676 -13.989462
v -9.507678 1.633794 -13.853823
v -9.605860 1.682676 -13.744677
v -9.984408 1.633794 -13.872416
v -9.895024 1.682676 -13.755955
v -9.496943 1.633794 -14.129064
v -9.751410 1.633794 -13.725500
vn -0.0000 -1.0000 -0.0000
vn 0.7315 0.2942 0.6151
vn 0.0834 0.2944 0.9520
vn 0.7377 0.2944 0.6075
vn 0.7315 0.2942 0.6152
vn 0.0932 0.2942 0.9512
vn -0.6151 0.2942 0.7315
vn 0.0833 0.2944 0.9520
vn 0.0931 0.2942 0.9512
vn -0.6151 0.2943 0.7315
vn -0.6075 0.2944 0.7378
vn 0.9512 0.2942 -0.0931
vn 0.7378 0.2944 0.6075
vn 0.9520 0.2944 -0.0833
vn 0.6151 0.2942 -0.7315
vn 0.9520 0.2944 -0.0834
vn 0.6075 0.2944 -0.7377
vn 0.9512 0.2942 -0.0932
vn -0.7377 0.2944 -0.6075
vn -0.0932 0.2942 -0.9512
vn -0.0834 0.2944 -0.9520
vn -0.7315 0.2942 -0.6151
vn -0.9520 0.2944 0.0834
vn -0.6075 0.2944 0.7377
vn -0.9512 0.2942 0.0932
vn -0.0833 0.2944 -0.9520
vn 0.6151 0.2943 -0.7315
vn 0.6075 0.2944 -0.7378
vn -0.0931 0.2942 -0.9512
vn -0.9512 0.2942 0.0931
vn -0.7378 0.2944 -0.6075
vn -0.9520 0.2944 0.0833
vn -0.0926 -0.0513 -0.9944
vn -0.7686 -0.0512 -0.6377
vn -0.0908 -0.0513 -0.9945
vn -0.7686 -0.0513 -0.6377
vn -0.7674 -0.0513 -0.6391
vn -0.9944 -0.0512 0.0926
vn -0.7675 -0.0512 -0.6391
vn -0.9944 -0.0513 0.0925
vn -0.9946 -0.0512 0.0907
vn 0.0909 -0.0512 0.9945
vn 0.7674 -0.0513 0.6391
vn 0.7686 -0.0513 0.6377
vn 0.0908 -0.0512 0.9945
vn 0.0926 -0.0513 0.9944
vn 0.6377 -0.0513 -0.7686
vn 0.9944 -0.0513 -0.0926
vn 0.6391 -0.0513 -0.7674
vn 0.6377 -0.0512 -0.7686
vn 0.9945 -0.0513 -0.0908
vn 0.0908 -0.0513 0.9945
vn -0.6391 -0.0513 0.7674
vn 0.0925 -0.0512 0.9944
vn 0.0908 -0.0512 0.9946
vn -0.6377 -0.0513 0.7686
vn -0.0908 -0.0513 -0.9946
vn -0.0925 -0.0512 -0.9944
vn 0.9944 -0.0513 -0.0925
vn 0.9946 -0.0512 -0.0908
vn 0.9944 -0.0512 -0.0926
vn 0.7675 -0.0512 0.6390
vn -0.9944 -0.0513 0.0926
vn -0.6377 -0.0512 0.7686
vn -0.9945 -0.0513 0.0909
vn -0.0000 1.0000 -0.0000
vn 0.8736 0.4042 0.2710
vn 0.4261 0.4042 0.8093
vn -0.8094 0.4042 0.4261
vn -0.8736 0.4042 -0.2710
vn -0.8736 0.4042 -0.2709
vn -0.8093 0.4042 0.4261
vn -0.8736 0.4043 -0.2709
vn -0.4261 0.4042 -0.8093
vn -0.4261 0.4043 -0.8093
vn -0.4262 0.4042 -0.8093
vn 0.8094 0.4042 -0.4261
vn 0.8736 0.4042 0.2709
vn 0.8093 0.4042 -0.4261
vn 0.8736 0.4043 0.2709
vn -0.2710 0.4042 0.8736
vn 0.2710 0.4042 -0.8736
vn 0.8093 0.4043 -0.4261
vn 0.4261 0.4042 0.8094
vn -0.4261 0.4042 -0.8094
vn 0.2709 0.4042 -0.8736
vn -0.5048 0.3228 0.8006
vn -0.9458 0.3228 -0.0369
vn 0.9457 0.3228 0.0369
vn 0.4409 0.3228 0.8375
vn 0.9458 0.3228 0.0369
vn 0.5048 0.3228 -0.8006
vn -0.4409 0.3228 -0.8375
vn -0.9457 0.3228 -0.0369
vn 0.3204 0.7260 0.6085
vn -0.5068 0.3115 0.8038
vn 0.4427 0.3115 0.8408
vn -0.3669 0.7260 0.5817
vn -0.4427 0.3115 -0.8408
vn -0.6872 0.7260 -0.0268
vn -0.3203 0.7260 -0.6086
vn -0.9495 0.3115 -0.0370
vn 0.3668 0.7260 -0.5818
vn 0.9495 0.3115 0.0370
vn 0.5068 0.3115 -0.8038
vn 0.6872 0.7260 0.0268
vn 0.3204 0.7260 0.6086
vn -0.3668 0.7259 0.5818
vn 0.3204 0.7259 0.6086
vn -0.3668 0.7259 0.5817
vn 0.6872 0.7259 0.0268
vn -0.6872 0.7259 -0.0268
vn 0.3668 0.7259 -0.5817
vn 0.3668 0.7259 -0.5818
vn -0.3204 0.7259 -0.6086
vn 0.3668 0.7260 -0.5817
vn -0.3204 0.7260 -0.6085
vn -0.3668 0.7260 0.5818
vn -0.5069 0.3115 0.8038
vn 0.8006 0.3228 0.5048
vn -0.0369 0.3228 0.9457
vn -0.0369 0.3228 0.9458
vn 0.8375 0.3228 -0.4409
vn -0.8375 0.3228 0.4409
vn -0.8006 0.3228 -0.5048
vn 0.0369 0.3228 -0.9457
vn 0.0369 0.3228 -0.9458
vn -0.4600 0.5060 0.7296
vn -0.8619 0.5060 -0.0336
vn -0.7889 0.4530 0.4153
vn 0.7889 -0.4530 -0.4153
vn 0.8619 -0.5060 0.0336
vn 0.4600 -0.5060 -0.7296
vn 0.0347 0.4530 -0.8909
vn 0.4600 0.5060 -0.7296
vn -0.4018 0.5060 -0.7632
vn -0.4018 0.5061 -0.7632
vn 0.0347 0.4530 -0.8908
vn -0.4600 -0.5060 0.7296
vn -0.0347 -0.4530 0.8909
vn 0.4018 -0.5060 0.7632
vn -0.4601 -0.5060 0.7296
vn -0.0347 -0.4530 0.8908
vn 0.4018 -0.5061 0.7632
vn -0.7541 0.4530 -0.4755
vn 0.7541 -0.4530 0.4755
vn 0.4018 0.5060 0.7632
vn -0.0347 0.4530 0.8909
vn -0.0347 0.4529 0.8909
vn -0.4601 0.5060 0.7296
vn -0.4018 -0.5060 -0.7632
vn 0.0347 -0.4530 -0.8909
vn 0.4601 -0.5060 -0.7296
vn 0.0347 -0.4529 -0.8909
vn 0.8619 0.5060 0.0336
vn 0.7889 0.4530 -0.4153
vn -0.7889 -0.4530 0.4153
vn -0.8619 -0.5060 -0.0336
vn 0.7541 0.4530 0.4755
vn -0.7541 -0.4530 -0.4755
vn 0.0336 0.5060 -0.8619
vn 0.7632 0.5060 -0.4018
vn 0.4755 0.4530 -0.7541
vn -0.4755 -0.4529 0.7541
vn -0.7632 -0.5060 0.4018
vn -0.0336 -0.5060 0.8619
vn 0.7296 0.5060 0.4600
vn 0.4153 0.4530 0.7889
vn -0.0336 0.5060 0.8618
vn -0.0336 0.5060 0.8619
vn -0.7296 -0.5060 -0.4600
vn -0.4153 -0.4530 -0.7889
vn 0.0336 -0.5060 -0.8619
vn -0.7632 0.5060 0.4018
vn -0.7296 0.5060 -0.4600
vn -0.8909 0.4530 -0.0347
vn -0.7296 0.5060 -0.4601
vn 0.8909 -0.4530 0.0347
vn 0.7296 -0.5060 0.4601
vn 0.7632 -0.5060 -0.4018
vn 0.7296 -0.5060 0.4600
vn -0.4153 0.4530 -0.7889
vn 0.4153 -0.4530 0.7889
vn -0.4755 0.4530 0.7541
vn 0.4755 -0.4529 -0.7541
vn 0.8909 0.4530 0.0347
vn 0.7296 0.5060 0.4601
vn -0.8909 -0.4530 -0.0347
vn -0.7296 -0.5060 -0.4601
vn 0.4600 0.5061 -0.7296
vn 0.0348 0.4530 -0.8909
vn -0.0348 -0.4530 0.8908
vn 0.4018 0.5061 0.7632
vn 0.7889 -0.4529 -0.4153
vn -0.0348 0.4530 0.8908
vn 0.0348 -0.4530 -0.8909
vt 0.593750 0.025000
vt 0.593750 0.104996
vt 0.593750 0.225000
vt 0.093750 0.475000
vt 0.093750 0.275000
vt 0.093750 0.425000
vt 0.093750 0.348778
vt 0.093750 0.338765
vt 0.093750 0.344099
vt 0.093750 0.375000
vt 0.093750 0.325000
s 0
usemtl colormap.002
f 3/1/1 2/1/1 1/1/1
f 2/1/1 3/1/1 4/1/1
f 4/1/1 3/1/1 5/1/1
f 4/1/1 5/1/1 6/1/1
f 6/1/1 5/1/1 7/1/1
f 6/1/1 7/1/1 8/1/1
f 9/2/2 1/1/3 2/1/4
f 1/1/3 9/2/5 10/2/6
f 11/2/7 1/1/8 10/2/9
f 1/1/8 11/2/10 3/1/11
f 12/2/12 2/1/13 4/1/14
f 2/1/4 12/2/12 9/2/2
f 13/2/15 4/1/16 6/1/17
f 4/1/16 13/2/15 12/2/18
f 7/1/19 14/2/20 8/1/21
f 14/2/20 7/1/19 15/2/22
f 11/2/7 5/1/23 3/1/24
f 5/1/23 11/2/7 16/2/25
f 8/1/26 13/2/27 6/1/28
f 13/2/15 8/1/26 14/2/29
f 7/1/19 16/2/30 15/2/22
f 16/2/30 7/1/31 5/1/32
f 14/2/33 18/3/34 17/3/35
f 18/3/36 14/2/33 15/2/37
f 16/2/38 18/3/36 15/2/39
f 18/3/36 16/2/40 19/3/41
f 21/3/42 9/2/43 20/3/44
f 9/2/43 21/3/45 10/2/46
f 22/3/47 12/2/48 13/2/49
f 12/2/48 22/3/50 23/3/51
f 21/3/52 11/2/53 10/2/54
f 11/2/53 21/3/55 24/3/56
f 13/2/49 17/3/57 22/3/47
f 17/3/35 13/2/49 14/2/58
f 20/3/44 12/2/59 23/3/60
f 12/2/61 20/3/44 9/2/62
f 24/3/56 16/2/63 11/2/53
f 16/2/63 24/3/64 19/3/65
f 27/4/66 26/4/66 25/4/66
f 26/4/66 27/4/66 28/4/66
f 26/4/66 28/4/66 29/4/66
f 29/4/66 28/4/66 30/4/66
f 29/4/66 30/4/66 31/4/66
f 31/4/66 30/4/66 32/4/66
f 35/5/1 34/5/1 33/5/1
f 34/5/1 35/5/1 36/5/1
f 34/5/1 36/5/1 37/5/1
f 37/5/1 36/5/1 38/5/1
f 37/5/1 38/5/1 39/5/1
f 39/5/1 38/5/1 40/5/1
f 27/4/67 33/5/68 34/5/67
f 33/5/68 27/4/67 25/4/68
f 29/4/69 38/5/70 36/5/69
f 38/5/71 29/4/72 31/4/73
f 40/5/74 31/4/70 32/4/75
f 31/4/70 40/5/76 38/5/70
f 28/4/77 34/5/67 37/5/77
f 34/5/78 28/4/79 27/4/80
f 26/4/81 36/5/72 35/5/81
f 36/5/72 26/4/81 29/4/72
f 30/4/82 37/5/79 39/5/82
f 37/5/79 30/4/82 28/4/83
f 26/4/81 33/5/68 25/4/84
f 33/5/84 26/4/81 35/5/81
f 40/5/85 30/4/82 39/5/82
f 30/4/86 40/5/74 32/4/85
f 43/6/87 42/7/88 41/7/87
f 42/7/88 43/6/87 44/6/88
f 47/6/89 46/7/90 45/7/89
f 46/7/90 47/6/91 48/6/90
f 50/6/92 45/7/91 49/7/92
f 45/7/91 50/6/92 47/6/91
f 48/6/90 41/7/87 46/7/90
f 41/7/87 48/6/90 43/6/87
f 52/7/93 44/6/88 51/6/93
f 44/6/94 52/7/93 42/7/94
f 52/7/93 50/6/92 49/7/92
f 50/6/92 52/7/93 51/6/93
f 41/7/1 45/7/1 46/7/1
f 45/7/1 41/7/1 42/7/1
f 45/7/1 42/7/1 49/7/1
f 49/7/1 42/7/1 52/7/1
f 55/6/95 54/8/96 53/8/97
f 54/8/96 55/6/95 56/6/98
f 59/8/99 58/6/100 57/6/101
f 58/6/100 59/8/99 60/8/102
f 63/6/103 62/8/104 61/8/105
f 62/8/104 63/6/103 64/6/106
f 64/6/106 53/8/97 62/8/104
f 53/8/97 64/6/106 55/6/107
f 64/6/106 56/6/108 55/6/109
f 56/6/110 64/6/111 58/6/112
f 58/6/112 64/6/111 63/6/113
f 58/6/112 63/6/114 57/6/115
f 59/8/99 63/6/116 61/8/105
f 63/6/116 59/8/99 57/6/117
f 54/8/1 62/8/1 53/8/1
f 62/8/1 54/8/1 60/8/1
f 62/8/1 60/8/1 61/8/1
f 61/8/1 60/8/1 59/8/1
f 56/6/118 60/8/102 54/8/119
f 60/8/102 56/6/118 58/6/100
f 67/6/120 66/9/121 65/9/120
f 66/9/121 67/6/120 68/6/122
f 70/6/123 65/9/120 69/9/123
f 65/9/120 70/6/123 67/6/120
f 68/6/121 71/9/124 66/9/121
f 71/9/124 68/6/122 72/6/124
f 72/6/124 73/9/125 71/9/124
f 73/9/125 72/6/124 74/6/125
f 71/9/1 65/9/1 66/9/1
f 65/9/1 71/9/1 69/9/1
f 69/9/1 71/9/1 73/9/1
f 69/9/1 73/9/1 75/9/1
f 76/6/126 69/9/123 75/9/126
f 69/9/123 76/6/127 70/6/123
f 73/9/125 76/6/126 75/9/126
f 76/6/126 73/9/125 74/6/125
f 79/10/128 78/10/129 77/11/130
f 78/10/129 79/10/128 41/6/128
f 78/10/129 41/6/128 42/6/129
f 77/11/131 78/10/132 79/10/133
f 41/6/133 79/10/133 78/10/132
f 42/6/132 41/6/133 78/10/132
f 81/11/134 49/6/135 80/10/135
f 49/6/135 81/11/134 52/6/136
f 52/6/137 81/11/138 82/10/136
f 80/10/139 49/6/139 81/11/140
f 52/6/141 81/11/140 49/6/142
f 82/10/141 81/11/143 52/6/144
f 82/10/136 42/6/129 52/6/136
f 42/6/129 82/10/136 83/11/145
f 42/6/129 83/11/145 78/10/129
f 52/6/141 42/6/132 82/10/141
f 83/11/146 82/10/141 42/6/132
f 78/10/132 83/11/146 42/6/132
f 46/6/147 85/11/148 84/10/147
f 85/11/148 46/6/147 41/6/128
f 85/11/149 41/6/128 79/10/150
f 84/10/151 85/11/152 46/6/151
f 41/6/153 46/6/151 85/11/152
f 79/10/133 41/6/133 85/11/154
f 80/10/135 87/10/155 86/11/156
f 87/10/155 80/10/135 49/6/135
f 87/10/155 49/6/135 45/6/155
f 86/11/157 87/10/158 80/10/139
f 49/6/139 80/10/139 87/10/158
f 45/6/158 49/6/139 87/10/158
f 45/6/155 88/11/159 87/10/155
f 88/11/159 45/6/155 46/6/147
f 88/11/159 46/6/147 84/10/147
f 87/10/158 88/11/160 45/6/158
f 46/6/151 45/6/158 88/11/160
f 84/10/151 46/6/151 88/11/160
f 91/10/161 90/10/162 89/11/163
f 90/10/162 91/10/161 75/6/161
f 90/10/162 75/6/161 69/6/162
f 89/11/164 90/10/165 91/10/166
f 75/6/166 91/10/166 90/10/165
f 69/6/165 75/6/166 90/10/165
f 65/6/167 93/11/168 92/10/167
f 93/11/168 65/6/167 66/6/169
f 93/11/168 66/6/170 94/10/170
f 92/10/171 93/11/172 65/6/171
f 66/6/173 65/6/171 93/11/172
f 94/10/173 66/6/173 93/11/172
f 97/10/174 96/10/175 95/11/176
f 96/10/175 97/10/174 71/6/174
f 96/10/177 71/6/174 73/6/177
f 95/11/178 96/10/179 97/10/180
f 71/6/180 97/10/180 96/10/179
f 73/6/181 71/6/180 96/10/179
f 98/11/182 75/6/161 91/10/161
f 75/6/161 98/11/182 73/6/177
f 73/6/175 98/11/182 96/10/177
f 91/10/166 75/6/166 98/11/183
f 73/6/181 98/11/183 75/6/166
f 96/10/181 98/11/183 73/6/181
f 94/10/170 97/10/174 99/11/184
f 97/10/174 94/10/170 66/6/170
f 97/10/174 66/6/170 71/6/174
f 99/11/185 97/10/180 94/10/173
f 66/6/173 94/10/173 97/10/180
f 71/6/180 66/6/173 97/10/180
f 90/10/162 92/10/167 100/11/186
f 92/10/167 90/10/162 69/6/162
f 92/10/187 69/6/162 65/6/187
f 100/11/188 92/10/171 90/10/165
f 69/6/165 90/10/165 92/10/171
f 65/6/171 69/6/165 92/10/189
f 102/11/134 61/6/135 101/10/135
f 61/6/190 102/11/138 59/6/136
f 59/6/136 102/11/191 103/10/136
f 101/10/139 61/6/139 102/11/140
f 59/6/141 102/11/143 61/6/142
f 103/10/141 102/11/192 59/6/144
f 103/10/136 60/6/129 59/6/136
f 60/6/129 103/10/136 104/11/145
f 60/6/129 104/11/145 105/10/129
f 59/6/141 60/6/132 103/10/141
f 104/11/146 103/10/141 60/6/132
f 105/10/132 104/11/146 60/6/132
f 62/6/155 107/11/159 106/10/155
f 107/11/159 62/6/155 53/6/147
f 107/11/159 53/6/193 108/10/147
f 106/10/158 107/11/160 62/6/158
f 53/6/151 62/6/158 107/11/160
f 108/10/151 53/6/151 107/11/160
f 110/10/128 105/10/129 109/11/130
f 105/10/129 110/10/150 54/6/150
f 105/10/129 54/6/128 60/6/129
f 109/11/194 105/10/132 110/10/133
f 54/6/133 110/10/153 105/10/132
f 60/6/132 54/6/133 105/10/132
f 101/10/135 106/10/155 111/11/156
f 106/10/155 101/10/135 61/6/135
f 106/10/155 61/6/135 62/6/155
f 111/11/157 106/10/158 101/10/139
f 61/6/139 101/10/139 106/10/158
f 62/6/158 61/6/139 106/10/158
f 53/6/193 112/11/195 108/10/147
f 112/11/148 53/6/147 54/6/128
f 112/11/148 54/6/128 110/10/128
f 108/10/151 112/11/196 53/6/151
f 54/6/153 53/6/151 112/11/154
f 110/10/133 54/6/133 112/11/152
f 3/1/1 2/1/1 1/1/1
f 2/1/1 3/1/1 4/1/1
f 4/1/1 3/1/1 5/1/1
f 4/1/1 5/1/1 6/1/1
f 6/1/1 5/1/1 7/1/1
f 6/1/1 7/1/1 8/1/1
f 9/2/2 1/1/3 2/1/4
f 1/1/3 9/2/5 10/2/6
f 11/2/7 1/1/8 10/2/9
f 1/1/8 11/2/10 3/1/11
f 12/2/12 2/1/13 4/1/14
f 2/1/4 12/2/12 9/2/2
f 13/2/15 4/1/16 6/1/17
f 4/1/16 13/2/15 12/2/18
f 7/1/19 14/2/20 8/1/21
f 14/2/20 7/1/19 15/2/22
f 11/2/7 5/1/23 3/1/24
f 5/1/23 11/2/7 16/2/25
f 8/1/26 13/2/27 6/1/28
f 13/2/15 8/1/26 14/2/29
f 7/1/19 16/2/30 15/2/22
f 16/2/30 7/1/31 5/1/32
f 14/2/33 18/3/34 17/3/35
f 18/3/36 14/2/33 15/2/37
f 16/2/38 18/3/36 15/2/39
f 18/3/36 16/2/40 19/3/41
f 21/3/42 9/2/43 20/3/44
f 9/2/43 21/3/45 10/2/46
f 22/3/47 12/2/48 13/2/49
f 12/2/48 22/3/50 23/3/51
f 21/3/52 11/2/53 10/2/54
f 11/2/53 21/3/55 24/3/56
f 13/2/49 17/3/57 22/3/47
f 17/3/35 13/2/49 14/2/58
f 20/3/44 12/2/59 23/3/60
f 12/2/61 20/3/44 9/2/62
f 24/3/56 16/2/63 11/2/53
f 16/2/63 24/3/64 19/3/65
f 27/4/66 26/4/66 25/4/66
f 26/4/66 27/4/66 28/4/66
f 26/4/66 28/4/66 29/4/66
f 29/4/66 28/4/66 30/4/66
f 29/4/66 30/4/66 31/4/66
f 31/4/66 30/4/66 32/4/66
f 35/5/1 34/5/1 33/5/1
f 34/5/1 35/5/1 36/5/1
f 34/5/1 36/5/1 37/5/1
f 37/5/1 36/5/1 38/5/1
f 37/5/1 38/5/1 39/5/1
f 39/5/1 38/5/1 40/5/1
f 27/4/67 33/5/68 34/5/67
f 33/5/68 27/4/67 25/4/68
f 29/4/69 38/5/70 36/5/69
f 38/5/71 29/4/72 31/4/73
f 40/5/74 31/4/70 32/4/75
f 31/4/70 40/5/76 38/5/70
f 28/4/77 34/5/67 37/5/77
f 34/5/78 28/4/79 27/4/80
f 26/4/81 36/5/72 35/5/81
f 36/5/72 26/4/81 29/4/72
f 30/4/82 37/5/79 39/5/82
f 37/5/79 30/4/82 28/4/83
f 26/4/81 33/5/68 25/4/84
f 33/5/84 26/4/81 35/5/81
f 40/5/85 30/4/82 39/5/82
f 30/4/86 40/5/74 32/4/85
f 43/6/87 42/7/88 41/7/87
f 42/7/88 43/6/87 44/6/88
f 47/6/89 46/7/90 45/7/89
f 46/7/90 47/6/91 48/6/90
f 50/6/92 45/7/91 49/7/92
f 45/7/91 50/6/92 47/6/91
f 48/6/90 41/7/87 46/7/90
f 41/7/87 48/6/90 43/6/87
f 52/7/93 44/6/88 51/6/93
f 44/6/94 52/7/93 42/7/94
f 52/7/93 50/6/92 49/7/92
f 50/6/92 52/7/93 51/6/93
f 41/7/1 45/7/1 46/7/1
f 45/7/1 41/7/1 42/7/1
f 45/7/1 42/7/1 49/7/1
f 49/7/1 42/7/1 52/7/1
f 55/6/95 54/8/96 53/8/97
f 54/8/96 55/6/95 56/6/98
f 59/8/99 58/6/100 57/6/101
f 58/6/100 59/8/99 60/8/102
f 63/6/103 62/8/104 61/8/105
f 62/8/104 63/6/103 64/6/106
f 64/6/106 53/8/97 62/8/104
f 53/8/97 64/6/106 55/6/107
f 64/6/106 56/6/108 55/6/109
f 56/6/110 64/6/111 58/6/112
f 58/6/112 64/6/111 63/6/113
f 58/6/112 63/6/114 57/6/115
f 59/8/99 63/6/116 61/8/105
f 63/6/116 59/8/99 57/6/117
f 54/8/1 62/8/1 53/8/1
f 62/8/1 54/8/1 60/8/1
f 62/8/1 60/8/1 61/8/1
f 61/8/1 60/8/1 59/8/1
f 56/6/118 60/8/102 54/8/119
f 60/8/102 56/6/118 58/6/100
f 67/6/120 66/9/121 65/9/120
f 66/9/121 67/6/120 68/6/122
f 70/6/123 65/9/120 69/9/123
f 65/9/120 70/6/123 67/6/120
f 68/6/121 71/9/124 66/9/121
f 71/9/124 68/6/122 72/6/124
f 72/6/124 73/9/125 71/9/124
f 73/9/125 72/6/124 74/6/125
f 71/9/1 65/9/1 66/9/1
f 65/9/1 71/9/1 69/9/1
f 69/9/1 71/9/1 73/9/1
f 69/9/1 73/9/1 75/9/1
f 76/6/126 69/9/123 75/9/126
f 69/9/123 76/6/127 70/6/123
f 73/9/125 76/6/126 75/9/126
f 76/6/126 73/9/125 74/6/125
f 79/10/128 78/10/129 77/11/130
f 78/10/129 79/10/128 41/6/128
f 78/10/129 41/6/128 42/6/129
f 77/11/131 78/10/132 79/10/133
f 41/6/133 79/10/133 78/10/132
f 42/6/132 41/6/133 78/10/132
f 81/11/134 49/6/135 80/10/135
f 49/6/135 81/11/134 52/6/136
f 52/6/137 81/11/138 82/10/136
f 80/10/139 49/6/139 81/11/140
f 52/6/141 81/11/140 49/6/142
f 82/10/141 81/11/143 52/6/144
f 82/10/136 42/6/129 52/6/136
f 42/6/129 82/10/136 83/11/145
f 42/6/129 83/11/145 78/10/129
f 52/6/141 42/6/132 82/10/141
f 83/11/146 82/10/141 42/6/132
f 78/10/132 83/11/146 42/6/132
f 46/6/147 85/11/148 84/10/147
f 85/11/148 46/6/147 41/6/128
f 85/11/149 41/6/128 79/10/150
f 84/10/151 85/11/152 46/6/151
f 41/6/153 46/6/151 85/11/152
f 79/10/133 41/6/133 85/11/154
f 80/10/135 87/10/155 86/11/156
f 87/10/155 80/10/135 49/6/135
f 87/10/155 49/6/135 45/6/155
f 86/11/157 87/10/158 80/10/139
f 49/6/139 80/10/139 87/10/158
f 45/6/158 49/6/139 87/10/158
f 45/6/155 88/11/159 87/10/155
f 88/11/159 45/6/155 46/6/147
f 88/11/159 46/6/147 84/10/147
f 87/10/158 88/11/160 45/6/158
f 46/6/151 45/6/158 88/11/160
f 84/10/151 46/6/151 88/11/160
f 91/10/161 90/10/162 89/11/163
f 90/10/162 91/10/161 75/6/161
f 90/10/162 75/6/161 69/6/162
f 89/11/164 90/10/165 91/10/166
f 75/6/166 91/10/166 90/10/165
f 69/6/165 75/6/166 90/10/165
f 65/6/167 93/11/168 92/10/167
f 93/11/168 65/6/167 66/6/169
f 93/11/168 66/6/170 94/10/170
f 92/10/171 93/11/172 65/6/171
f 66/6/173 65/6/171 93/11/172
f 94/10/173 66/6/173 93/11/172
f 97/10/174 96/10/175 95/11/176
f 96/10/175 97/10/174 71/6/174
f 96/10/177 71/6/174 73/6/177
f 95/11/178 96/10/179 97/10/180
f 71/6/180 97/10/180 96/10/179
f 73/6/181 71/6/180 96/10/179
f 98/11/182 75/6/161 91/10/161
f 75/6/161 98/11/182 73/6/177
f 73/6/175 98/11/182 96/10/177
f 91/10/166 75/6/166 98/11/183
f 73/6/181 98/11/183 75/6/166
f 96/10/181 98/11/183 73/6/181
f 94/10/170 97/10/174 99/11/184
f 97/10/174 94/10/170 66/6/170
f 97/10/174 66/6/170 71/6/174
f 99/11/185 97/10/180 94/10/173
f 66/6/173 94/10/173 97/10/180
f 71/6/180 66/6/173 97/10/180
f 90/10/162 92/10/167 100/11/186
f 92/10/167 90/10/162 69/6/162
f 92/10/187 69/6/162 65/6/187
f 100/11/188 92/10/171 90/10/165
f 69/6/165 90/10/165 92/10/171
f 65/6/171 69/6/165 92/10/189
f 102/11/134 61/6/135 101/10/135
f 61/6/190 102/11/138 59/6/136
f 59/6/136 102/11/191 103/10/136
f 101/10/139 61/6/139 102/11/140
f 59/6/141 102/11/143 61/6/142
f 103/10/141 102/11/192 59/6/144
f 103/10/136 60/6/129 59/6/136
f 60/6/129 103/10/136 104/11/145
f 60/6/129 104/11/145 105/10/129
f 59/6/141 60/6/132 103/10/141
f 104/11/146 103/10/141 60/6/132
f 105/10/132 104/11/146 60/6/132
f 62/6/155 107/11/159 106/10/155
f 107/11/159 62/6/155 53/6/147
f 107/11/159 53/6/193 108/10/147
f 106/10/158 107/11/160 62/6/158
f 53/6/151 62/6/158 107/11/160
f 108/10/151 53/6/151 107/11/160
f 110/10/128 105/10/129 109/11/130
f 105/10/129 110/10/150 54/6/150
f 105/10/129 54/6/128 60/6/129
f 109/11/194 105/10/132 110/10/133
f 54/6/133 110/10/153 105/10/132
f 60/6/132 54/6/133 105/10/132
f 101/10/135 106/10/155 111/11/156
f 106/10/155 101/10/135 61/6/135
f 106/10/155 61/6/135 62/6/155
f 111/11/157 106/10/158 101/10/139
f 61/6/139 101/10/139 106/10/158
f 62/6/158 61/6/139 106/10/158
f 53/6/193 112/11/195 108/10/147
f 112/11/148 53/6/147 54/6/128
f 112/11/148 54/6/128 110/10/128
f 108/10/151 112/11/196 53/6/151
f 54/6/153 53/6/151 112/11/154
f 110/10/133 54/6/133 112/11/152
