# Blender 4.1.1
# www.blender.org
mtllib gravestone-bevel.mtl
o gravestone-bevel
v 12.866741 1.043848 1.486649
v 12.704566 0.982598 1.574339
v 12.758444 1.043848 1.545207
v 12.821199 0.911256 1.511274
v 12.821199 0.332408 1.511274
v 12.704566 0.199816 1.574339
v 13.428438 0.332408 1.182933
v 13.545073 0.199816 1.119868
v 13.545073 0.982598 1.119868
v 13.428438 0.911256 1.182933
v 13.293401 0.911256 1.255950
v 13.005888 1.121908 1.411411
v 12.956238 0.911256 1.438257
v 12.901318 1.190543 1.467953
v 13.056154 1.179051 1.384231
v 13.124819 1.199967 1.347104
v 12.995780 1.297930 1.416876
v 13.382896 1.043848 1.207558
v 13.491194 1.043848 1.149001
v 13.243750 1.121908 1.282797
v 13.348321 1.190543 1.226254
v 13.193483 1.179051 1.309976
v 13.253858 1.297930 1.277331
v 13.124819 1.337237 1.347104
v 12.584230 1.043848 1.223012
v 12.530352 0.982598 1.252145
v 12.692528 1.043848 1.164455
v 12.782023 0.911256 1.116063
v 12.831675 1.121908 1.089216
v 12.646986 0.911256 1.189080
v 12.727103 1.190543 1.145759
v 12.881941 1.179051 1.062037
v 12.646986 0.332408 1.189080
v 12.530352 0.199816 1.252145
v 13.370858 0.199816 0.797674
v 13.254225 0.332408 0.860739
v 12.950605 1.199967 1.024909
v 13.370858 0.982598 0.797674
v 13.254225 0.911256 0.860739
v 13.119186 0.911256 0.933756
v 12.821567 1.297930 1.094682
v 13.208683 1.043848 0.885364
v 13.316980 1.043848 0.826806
v 13.069536 1.121908 0.960602
v 13.174107 1.190543 0.904059
v 13.019270 1.179051 0.987782
v 13.079644 1.297930 0.955137
v 12.950605 1.337237 1.024909
v 13.370173 0.332408 1.075176
v 12.762934 0.332408 1.403517
v 13.370173 0.911256 1.075176
v 13.235135 0.911256 1.148193
v 13.185484 1.121908 1.175039
v 13.135219 1.179051 1.202219
v 13.066553 1.199967 1.239346
v 12.997889 1.179051 1.276474
v 12.947623 1.121908 1.303653
v 12.897972 0.911256 1.330500
v 12.762934 0.911256 1.403517
v 12.705251 0.911256 1.296837
v 12.705251 0.332408 1.296837
v 12.840289 0.911256 1.223820
v 12.889940 1.121908 1.196974
v 12.940206 1.179051 1.169794
v 13.008871 1.199967 1.132667
v 13.077536 1.179051 1.095539
v 13.127801 1.121908 1.068359
v 13.177452 0.911256 1.041513
v 13.312490 0.911256 0.968496
v 13.312490 0.332408 0.968496
v 13.628084 -0.086837 1.144614
v 13.395604 -0.086837 0.714662
v 12.679820 -0.086837 1.657351
v 12.447340 -0.086837 1.227399
v 12.447340 0.104265 1.227399
v 13.395604 0.104265 0.714662
v 13.628084 0.104265 1.144614
v 12.679820 0.104265 1.657351
vn 0.4756 -0.0000 0.8796
vn -0.4756 -0.0000 -0.8796
vn -0.3366 0.9239 0.1820
vn -0.0000 1.0000 -0.0000
vn 0.7618 0.5000 -0.4119
vn 0.8497 0.2588 -0.4594
vn 0.7618 0.4999 -0.4119
vn 0.4399 0.8660 -0.2378
vn 0.4399 0.8660 -0.2379
vn 0.4398 0.8661 -0.2378
vn 0.4398 0.8661 -0.2377
vn 0.0001 1.0000 -0.0000
vn -0.4398 0.8661 0.2378
vn -0.0001 1.0000 -0.0000
vn -0.4398 0.8661 0.2377
vn -0.7618 0.5001 0.4119
vn -0.4399 0.8660 0.2378
vn -0.7618 0.5000 0.4119
vn -0.8497 0.2588 0.4594
vn -0.7618 0.4999 0.4119
vn 0.3366 0.9239 -0.1820
vn -0.8796 -0.0000 0.4756
vn -0.0000 -1.0000 -0.0000
vn -0.8497 -0.2588 0.4594
vn -0.7618 -0.5000 0.4119
vn -0.4399 -0.8660 0.2378
vn -0.0001 -1.0000 -0.0000
vn -0.4398 -0.8661 0.2378
vn 0.4398 -0.8661 -0.2378
vn 0.0001 -1.0000 -0.0000
vn 0.4399 -0.8660 -0.2378
vn 0.7618 -0.5000 -0.4119
vn 0.8497 -0.2588 -0.4594
vn 0.8796 -0.0000 -0.4756
vn 0.8797 -0.0000 -0.4756
vn -0.7618 -0.5001 0.4119
vn 0.8127 0.3826 -0.4395
vn 0.8127 0.3827 -0.4394
vn 0.3367 0.9239 -0.1820
vn 0.3366 0.9239 -0.1821
vn -0.8127 0.3827 0.4394
vn -0.8127 0.3827 0.4395
vn -0.3367 0.9239 0.1820
vn -0.3366 0.9239 0.1821
vn -0.4631 0.2282 -0.8564
vn 0.4004 0.5397 0.7406
vn 0.4631 0.2283 0.8564
vn 0.4630 0.2283 0.8564
vn -0.8564 0.2283 0.4631
vn -0.7406 0.5397 0.4004
vn -0.8564 0.2282 0.4631
vn 0.7406 0.5397 -0.4004
vn 0.8564 0.2283 -0.4630
vn 0.8564 0.2283 -0.4631
vn -0.4004 0.5397 -0.7406
vn -0.4631 0.2283 -0.8564
vn -0.4630 0.2283 -0.8564
vn 0.4631 0.2282 0.8564
vn 0.8564 0.2282 -0.4631
vn -0.2229 0.9612 0.1623
vn -0.2229 0.9612 0.1624
vn -0.3162 0.9487 -0.0000
vn 0.5543 -0.8005 0.2279
vn 0.4472 -0.8944 -0.0000
vt 0.843750 0.183796
vt 0.843750 0.175194
vt 0.843750 0.165174
vt 0.843750 0.083880
vt 0.843750 0.065258
vt 0.843750 0.194759
vt 0.843750 0.204398
vt 0.843750 0.202784
vt 0.843750 0.205722
vt 0.843750 0.219480
vt 0.843750 0.225000
vt 0.093750 0.025000
vt 0.093750 0.051839
vt 0.093750 0.065258
vt 0.093750 0.165174
vt 0.093750 0.083880
vt 0.093750 0.194759
vt 0.093750 0.202784
vt 0.093750 0.205722
s 0
usemtl colormap.133
f 3/1/1 2/2/1 1/1/1
f 4/3/1 1/1/1 2/2/1
f 2/2/1 5/4/1 4/3/1
f 6/5/1 5/4/1 2/2/1
f 5/4/1 6/5/1 7/4/1
f 8/5/1 7/4/1 6/5/1
f 7/4/1 8/5/1 9/2/1
f 7/4/1 9/2/1 10/3/1
f 10/3/1 9/2/1 11/3/1
f 4/3/1 12/6/1 1/1/1
f 12/6/1 4/3/1 13/3/1
f 1/1/1 12/6/1 14/7/1
f 14/7/1 12/6/1 15/8/1
f 14/7/1 15/8/1 16/9/1
f 14/7/1 16/9/1 17/10/1
f 11/3/1 9/2/1 18/1/1
f 18/1/1 9/2/1 19/1/1
f 11/3/1 18/1/1 20/6/1
f 20/6/1 18/1/1 21/7/1
f 20/6/1 21/7/1 22/8/1
f 22/8/1 21/7/1 16/9/1
f 16/9/1 21/7/1 23/10/1
f 17/10/1 16/9/1 23/10/1
f 17/10/1 23/10/1 24/11/1
f 27/1/2 26/2/2 25/1/2
f 28/3/2 26/2/2 27/1/2
f 28/3/2 27/1/2 29/6/2
f 30/3/2 26/2/2 28/3/2
f 29/6/2 27/1/2 31/7/2
f 29/6/2 31/7/2 32/8/2
f 33/4/2 26/2/2 30/3/2
f 33/4/2 34/5/2 26/2/2
f 34/5/2 33/4/2 35/5/2
f 36/4/2 35/5/2 33/4/2
f 32/8/2 31/7/2 37/9/2
f 35/5/2 36/4/2 38/2/2
f 38/2/2 36/4/2 39/3/2
f 38/2/2 39/3/2 40/3/2
f 37/9/2 31/7/2 41/10/2
f 38/2/2 40/3/2 42/1/2
f 38/2/2 42/1/2 43/1/2
f 42/1/2 40/3/2 44/6/2
f 42/1/2 44/6/2 45/7/2
f 45/7/2 44/6/2 46/8/2
f 45/7/2 46/8/2 37/9/2
f 45/7/2 37/9/2 47/10/2
f 47/10/2 37/9/2 41/10/2
f 47/10/2 41/10/2 48/11/2
f 25/1/3 1/1/4 27/1/4
f 1/1/4 25/1/3 3/1/3
f 21/7/5 42/1/6 45/7/5
f 42/1/6 21/7/7 18/1/6
f 47/10/8 21/7/5 45/7/5
f 21/7/5 47/10/8 23/10/9
f 48/11/4 23/10/10 47/10/11
f 23/10/10 48/11/12 24/11/4
f 41/10/13 24/11/14 48/11/4
f 24/11/4 41/10/13 17/10/15
f 31/7/16 17/10/17 41/10/17
f 17/10/17 31/7/18 14/7/18
f 1/1/19 31/7/20 27/1/19
f 31/7/18 1/1/19 14/7/18
f 42/1/4 19/1/21 43/1/21
f 19/1/21 42/1/4 18/1/4
f 50/4/4 7/4/4 49/4/4
f 7/4/4 50/4/4 5/4/4
f 7/4/22 51/3/22 49/4/22
f 51/3/22 7/4/22 10/3/22
f 11/3/23 51/3/23 10/3/23
f 51/3/23 11/3/23 52/3/23
f 11/3/24 53/6/25 52/3/24
f 53/6/25 11/3/24 20/6/25
f 22/8/26 53/6/25 20/6/25
f 53/6/25 22/8/26 54/8/26
f 16/9/27 54/8/28 22/8/28
f 54/8/28 16/9/27 55/9/23
f 15/8/29 55/9/30 16/9/23
f 55/9/30 15/8/29 56/8/29
f 15/8/31 57/6/32 56/8/31
f 57/6/32 15/8/31 12/6/32
f 12/6/32 58/3/33 57/6/32
f 58/3/33 12/6/32 13/3/33
f 4/3/23 58/3/23 13/3/23
f 58/3/23 4/3/23 59/3/23
f 4/3/34 50/4/34 59/3/34
f 50/4/34 4/3/34 5/4/34
f 60/3/34 33/4/34 30/3/34
f 33/4/35 60/3/35 61/4/35
f 60/3/23 28/3/23 62/3/23
f 28/3/23 60/3/23 30/3/23
f 63/6/32 28/3/33 29/6/32
f 28/3/33 63/6/32 62/3/33
f 63/6/32 32/8/31 64/8/31
f 32/8/31 63/6/32 29/6/32
f 64/8/29 37/9/30 65/9/23
f 37/9/30 64/8/29 32/8/29
f 65/9/27 46/8/28 66/8/28
f 46/8/28 65/9/27 37/9/27
f 66/8/26 44/6/25 67/6/25
f 44/6/36 66/8/26 46/8/26
f 68/3/24 44/6/25 40/3/24
f 44/6/25 68/3/24 67/6/25
f 68/3/23 39/3/23 69/3/23
f 39/3/23 68/3/23 40/3/23
f 70/4/22 39/3/22 36/4/22
f 39/3/22 70/4/22 69/3/22
f 33/4/4 70/4/4 36/4/4
f 70/4/4 33/4/4 61/4/4
f 9/2/37 35/5/34 38/2/38
f 35/5/34 9/2/38 8/5/34
f 43/1/39 9/2/38 38/2/38
f 9/2/38 43/1/39 19/1/40
f 6/5/22 26/2/41 34/5/22
f 26/2/42 6/5/22 2/2/41
f 26/2/41 3/1/43 25/1/44
f 3/1/43 26/2/41 2/2/41
f 73/12/23 72/12/23 71/12/23
f 72/12/23 73/12/23 74/12/23
f 75/13/45 72/12/2 74/12/2
f 72/12/2 75/13/45 76/13/45
f 8/14/46 78/13/47 77/13/48
f 78/13/47 8/14/46 6/14/46
f 78/13/49 34/14/50 75/13/49
f 34/14/50 78/13/49 6/14/50
f 73/12/22 75/13/51 74/12/22
f 75/13/51 73/12/22 78/13/51
f 35/14/52 77/13/53 76/13/54
f 77/13/53 35/14/52 8/14/52
f 34/14/55 76/13/56 75/13/57
f 76/13/56 34/14/55 35/14/55
f 77/13/58 73/12/1 71/12/1
f 73/12/1 77/13/58 78/13/58
f 77/13/59 72/12/34 76/13/59
f 72/12/34 77/13/59 71/12/34
f 51/15/1 50/16/1 49/16/1
f 50/16/1 51/15/1 58/15/1
f 59/15/1 50/16/1 58/15/1
f 58/15/4 51/15/4 52/15/4
f 58/15/1 52/15/1 57/17/1
f 57/17/1 52/15/1 53/17/1
f 57/17/1 53/17/1 54/18/1
f 57/17/1 54/18/1 56/18/1
f 56/18/1 54/18/1 55/19/1
f 60/15/2 70/16/2 61/16/2
f 70/16/2 60/15/2 69/15/2
f 69/15/60 60/15/61 62/15/62
f 69/15/63 62/15/63 68/15/64
f 68/15/2 62/15/2 63/17/2
f 68/15/2 63/17/2 67/17/2
f 67/17/2 63/17/2 64/18/2
f 67/17/2 64/18/2 66/18/2
f 66/18/2 64/18/2 65/19/2
f 3/1/1 2/2/1 1/1/1
f 4/3/1 1/1/1 2/2/1
f 2/2/1 5/4/1 4/3/1
f 6/5/1 5/4/1 2/2/1
f 5/4/1 6/5/1 7/4/1
f 8/5/1 7/4/1 6/5/1
f 7/4/1 8/5/1 9/2/1
f 7/4/1 9/2/1 10/3/1
f 10/3/1 9/2/1 11/3/1
f 4/3/1 12/6/1 1/1/1
f 12/6/1 4/3/1 13/3/1
f 1/1/1 12/6/1 14/7/1
f 14/7/1 12/6/1 15/8/1
f 14/7/1 15/8/1 16/9/1
f 14/7/1 16/9/1 17/10/1
f 11/3/1 9/2/1 18/1/1
f 18/1/1 9/2/1 19/1/1
f 11/3/1 18/1/1 20/6/1
f 20/6/1 18/1/1 21/7/1
f 20/6/1 21/7/1 22/8/1
f 22/8/1 21/7/1 16/9/1
f 16/9/1 21/7/1 23/10/1
f 17/10/1 16/9/1 23/10/1
f 17/10/1 23/10/1 24/11/1
f 27/1/2 26/2/2 25/1/2
f 28/3/2 26/2/2 27/1/2
f 28/3/2 27/1/2 29/6/2
f 30/3/2 26/2/2 28/3/2
f 29/6/2 27/1/2 31/7/2
f 29/6/2 31/7/2 32/8/2
f 33/4/2 26/2/2 30/3/2
f 33/4/2 34/5/2 26/2/2
f 34/5/2 33/4/2 35/5/2
f 36/4/2 35/5/2 33/4/2
f 32/8/2 31/7/2 37/9/2
f 35/5/2 36/4/2 38/2/2
f 38/2/2 36/4/2 39/3/2
f 38/2/2 39/3/2 40/3/2
f 37/9/2 31/7/2 41/10/2
f 38/2/2 40/3/2 42/1/2
f 38/2/2 42/1/2 43/1/2
f 42/1/2 40/3/2 44/6/2
f 42/1/2 44/6/2 45/7/2
f 45/7/2 44/6/2 46/8/2
f 45/7/2 46/8/2 37/9/2
f 45/7/2 37/9/2 47/10/2
f 47/10/2 37/9/2 41/10/2
f 47/10/2 41/10/2 48/11/2
f 25/1/3 1/1/4 27/1/4
f 1/1/4 25/1/3 3/1/3
f 21/7/5 42/1/6 45/7/5
f 42/1/6 21/7/7 18/1/6
f 47/10/8 21/7/5 45/7/5
f 21/7/5 47/10/8 23/10/9
f 48/11/4 23/10/10 47/10/11
f 23/10/10 48/11/12 24/11/4
f 41/10/13 24/11/14 48/11/4
f 24/11/4 41/10/13 17/10/15
f 31/7/16 17/10/17 41/10/17
f 17/10/17 31/7/18 14/7/18
f 1/1/19 31/7/20 27/1/19
f 31/7/18 1/1/19 14/7/18
f 42/1/4 19/1/21 43/1/21
f 19/1/21 42/1/4 18/1/4
f 50/4/4 7/4/4 49/4/4
f 7/4/4 50/4/4 5/4/4
f 7/4/22 51/3/22 49/4/22
f 51/3/22 7/4/22 10/3/22
f 11/3/23 51/3/23 10/3/23
f 51/3/23 11/3/23 52/3/23
f 11/3/24 53/6/25 52/3/24
f 53/6/25 11/3/24 20/6/25
f 22/8/26 53/6/25 20/6/25
f 53/6/25 22/8/26 54/8/26
f 16/9/27 54/8/28 22/8/28
f 54/8/28 16/9/27 55/9/23
f 15/8/29 55/9/30 16/9/23
f 55/9/30 15/8/29 56/8/29
f 15/8/31 57/6/32 56/8/31
f 57/6/32 15/8/31 12/6/32
f 12/6/32 58/3/33 57/6/32
f 58/3/33 12/6/32 13/3/33
f 4/3/23 58/3/23 13/3/23
f 58/3/23 4/3/23 59/3/23
f 4/3/34 50/4/34 59/3/34
f 50/4/34 4/3/34 5/4/34
f 60/3/34 33/4/34 30/3/34
f 33/4/35 60/3/35 61/4/35
f 60/3/23 28/3/23 62/3/23
f 28/3/23 60/3/23 30/3/23
f 63/6/32 28/3/33 29/6/32
f 28/3/33 63/6/32 62/3/33
f 63/6/32 32/8/31 64/8/31
f 32/8/31 63/6/32 29/6/32
f 64/8/29 37/9/30 65/9/23
f 37/9/30 64/8/29 32/8/29
f 65/9/27 46/8/28 66/8/28
f 46/8/28 65/9/27 37/9/27
f 66/8/26 44/6/25 67/6/25
f 44/6/36 66/8/26 46/8/26
f 68/3/24 44/6/25 40/3/24
f 44/6/25 68/3/24 67/6/25
f 68/3/23 39/3/23 69/3/23
f 39/3/23 68/3/23 40/3/23
f 70/4/22 39/3/22 36/4/22
f 39/3/22 70/4/22 69/3/22
f 33/4/4 70/4/4 36/4/4
f 70/4/4 33/4/4 61/4/4
f 9/2/37 35/5/34 38/2/38
f 35/5/34 9/2/38 8/5/34
f 43/1/39 9/2/38 38/2/38
f 9/2/38 43/1/39 19/1/40
f 6/5/22 26/2/41 34/5/22
f 26/2/42 6/5/22 2/2/41
f 26/2/41 3/1/43 25/1/44
f 3/1/43 26/2/41 2/2/41
f 73/12/23 72/12/23 71/12/23
f 72/12/23 73/12/23 74/12/23
f 75/13/45 72/12/2 74/12/2
f 72/12/2 75/13/45 76/13/45
f 8/14/46 78/13/47 77/13/48
f 78/13/47 8/14/46 6/14/46
f 78/13/49 34/14/50 75/13/49
f 34/14/50 78/13/49 6/14/50
f 73/12/22 75/13/51 74/12/22
f 75/13/51 73/12/22 78/13/51
f 35/14/52 77/13/53 76/13/54
f 77/13/53 35/14/52 8/14/52
f 34/14/55 76/13/56 75/13/57
f 76/13/56 34/14/55 35/14/55
f 77/13/58 73/12/1 71/12/1
f 73/12/1 77/13/58 78/13/58
f 77/13/59 72/12/34 76/13/59
f 72/12/34 77/13/59 71/12/34
f 51/15/1 50/16/1 49/16/1
f 50/16/1 51/15/1 58/15/1
f 59/15/1 50/16/1 58/15/1
f 58/15/4 51/15/4 52/15/4
f 58/15/1 52/15/1 57/17/1
f 57/17/1 52/15/1 53/17/1
f 57/17/1 53/17/1 54/18/1
f 57/17/1 54/18/1 56/18/1
f 56/18/1 54/18/1 55/19/1
f 60/15/2 70/16/2 61/16/2
f 70/16/2 60/15/2 69/15/2
f 69/15/60 60/15/61 62/15/62
f 69/15/63 62/15/63 68/15/64
f 68/15/2 62/15/2 63/17/2
f 68/15/2 63/17/2 67/17/2
f 67/17/2 63/17/2 64/18/2
f 67/17/2 64/18/2 66/18/2
f 66/18/2 64/18/2 65/19/2
