# Blender 4.1.1
# www.blender.org
mtllib tree.073.mtl
o tree.072
v 6.542020 -4.606890 -16.918200
v 6.696631 -4.606890 -17.032169
v 6.407730 -4.606890 -16.938520
v 6.716951 -4.606890 -17.166460
v 6.293760 -4.606890 -17.093130
v 6.602982 -4.606890 -17.321070
v 6.314080 -4.606890 -17.227421
v 6.468691 -4.606890 -17.341391
v 6.600993 -4.259123 -17.080982
v 6.523688 -4.259123 -17.023998
v 6.456543 -4.259123 -17.034157
v 6.611154 -4.259123 -17.148129
v 6.554169 -4.259123 -17.225433
v 6.487023 -4.259123 -17.235592
v 6.409718 -4.259123 -17.178608
v 6.399558 -4.259123 -17.111462
v 6.482440 -3.737433 -17.262041
v 6.385808 -3.737433 -17.190811
v 6.373108 -3.737433 -17.106880
v 6.624902 -3.737433 -17.068779
v 6.528271 -3.737433 -16.997549
v 6.566371 -3.737433 -17.249342
v 6.637603 -3.737433 -17.152710
v 6.444340 -3.737433 -17.010248
v 6.637333 -4.134956 -17.029871
v 6.564176 -4.134956 -17.011774
v 6.676265 -4.134956 -17.094398
v 6.658167 -4.134956 -17.167555
v 6.499649 -4.134956 -17.050707
v 6.593639 -4.134956 -17.206488
v 6.481551 -4.134956 -17.123861
v 6.520483 -4.134956 -17.188389
v 6.670425 -4.261151 -16.984978
v 6.731410 -4.261151 -17.086054
v 6.555831 -4.261151 -16.956629
v 6.454755 -4.261151 -17.017612
v 6.703061 -4.261151 -17.200649
v 6.426406 -4.261151 -17.132206
v 6.601985 -4.261151 -17.261633
v 6.487391 -4.261151 -17.233282
v 6.308293 -3.737433 -16.698975
v 6.024467 -3.737433 -17.084009
v 6.386822 -3.162436 -16.878681
v 6.219364 -3.162436 -17.105854
v 6.975193 -3.737433 -17.190573
v 6.783656 -3.737433 -16.752254
v 6.780296 -3.162436 -17.168728
v 6.667288 -3.162436 -16.910118
v 6.691368 -3.737433 -17.575607
v 6.612838 -3.162436 -17.395901
v 6.332372 -3.162436 -17.364462
v 6.216005 -3.737433 -17.522326
v 6.663484 -2.544689 -16.915279
v 6.389390 -2.544689 -16.884556
v 6.537446 -1.896736 -17.086262
v 6.474445 -1.896736 -17.079201
v 6.462215 -1.896736 -17.188318
v 6.436831 -1.896736 -17.130230
v 6.336176 -2.544689 -17.359303
v 6.225736 -2.544689 -17.106567
v 6.610271 -2.544689 -17.390024
v 6.773925 -2.544689 -17.168013
v 6.525215 -1.896736 -17.195381
v 6.562830 -1.896736 -17.144352
v 6.856185 -3.162436 -16.981569
v 6.543149 -3.162436 -16.750818
v 6.663116 -2.544689 -17.065937
v 6.519680 -2.544689 -16.960203
v 6.812867 -3.162436 -17.368044
v 6.643267 -2.544689 -17.243025
v 6.186794 -3.162436 -16.906540
v 6.356394 -2.544689 -17.031557
v 6.143475 -3.162436 -17.293013
v 6.336545 -2.544689 -17.208645
v 6.456511 -3.162436 -17.523764
v 6.479981 -2.544689 -17.314377
v 6.093021 -3.916811 -16.837414
v 5.972178 -3.827122 -17.078148
v 6.287223 -3.827122 -16.650759
v 6.712437 -3.827122 -17.623823
v 6.443534 -3.916811 -17.639536
v 6.184784 -3.827122 -17.564678
v 6.036726 -3.916811 -17.339661
v 6.814876 -3.827122 -16.709902
v 6.556126 -3.916811 -16.635046
v 6.906639 -3.916811 -17.437166
v 7.027483 -3.827122 -17.196434
v 6.962935 -3.916811 -16.934921
v 6.664358 -3.308271 -17.513798
v 6.847301 -3.235354 -17.393425
v 6.451746 -3.235354 -17.566277
v 6.895385 -3.235354 -16.964439
v 6.743632 -3.308271 -16.806551
v 6.547915 -3.235354 -16.708305
v 6.091501 -3.308271 -17.091522
v 6.104276 -3.235354 -17.310141
v 6.152359 -3.235354 -16.881155
v 6.256029 -3.308271 -17.468029
v 6.335302 -3.308271 -16.760782
v 6.908159 -3.308271 -17.183060
v 6.622420 -2.596404 -17.417826
v 6.467370 -2.648118 -17.426886
v 6.318174 -2.596404 -17.383724
v 6.232803 -2.648118 -17.253977
v 6.195585 -2.596404 -17.103188
v 6.804076 -2.596404 -17.171392
v 6.766857 -2.648118 -17.020605
v 6.681487 -2.596404 -16.890858
v 6.265264 -2.648118 -16.964382
v 6.377241 -2.596404 -16.856754
v 6.734397 -2.648118 -17.310200
v 6.532290 -2.648118 -16.847694
vn -0.0000 -1.0000 -0.0000
vn 0.8155 0.2942 0.4984
vn 0.2253 0.2944 0.9288
vn 0.8205 0.2944 0.4900
vn 0.2349 0.2942 0.9264
vn -0.4983 0.2943 0.8155
vn 0.2252 0.2944 0.9288
vn 0.2348 0.2942 0.9265
vn -0.4984 0.2943 0.8155
vn -0.4899 0.2944 0.8206
vn 0.9264 0.2942 -0.2348
vn 0.8206 0.2944 0.4899
vn 0.9288 0.2944 -0.2252
vn 0.8205 0.2944 0.4899
vn 0.9265 0.2942 -0.2348
vn 0.8155 0.2942 0.4983
vn 0.4984 0.2942 -0.8155
vn 0.9288 0.2944 -0.2253
vn 0.4899 0.2944 -0.8205
vn 0.9264 0.2942 -0.2349
vn -0.8205 0.2944 -0.4900
vn -0.2349 0.2942 -0.9264
vn -0.2253 0.2944 -0.9288
vn -0.8155 0.2942 -0.4984
vn -0.4984 0.2942 0.8155
vn -0.9288 0.2944 0.2253
vn -0.4899 0.2944 0.8205
vn -0.9264 0.2942 0.2349
vn -0.2252 0.2944 -0.9288
vn 0.4983 0.2943 -0.8155
vn 0.4899 0.2944 -0.8206
vn 0.4983 0.2942 -0.8155
vn -0.2348 0.2942 -0.9265
vn -0.8205 0.2944 -0.4899
vn -0.9265 0.2942 0.2347
vn -0.9265 0.2942 0.2348
vn -0.8206 0.2944 -0.4899
vn -0.9288 0.2944 0.2252
vn -0.2407 -0.0513 -0.9692
vn -0.8555 -0.0512 -0.5152
vn -0.2390 -0.0513 -0.9697
vn -0.8555 -0.0513 -0.5152
vn -0.8546 -0.0513 -0.5167
vn -0.9692 -0.0512 0.2407
vn -0.8556 -0.0513 -0.5152
vn -0.8546 -0.0512 -0.5167
vn -0.9692 -0.0513 0.2407
vn -0.9697 -0.0512 0.2390
vn 0.2390 -0.0512 0.9697
vn 0.8546 -0.0513 0.5167
vn 0.8555 -0.0513 0.5152
vn 0.2407 -0.0513 0.9692
vn 0.5152 -0.0513 -0.8555
vn 0.9692 -0.0513 -0.2407
vn 0.5167 -0.0513 -0.8546
vn 0.9692 -0.0513 -0.2408
vn 0.5152 -0.0512 -0.8555
vn 0.9697 -0.0513 -0.2390
vn 0.2390 -0.0513 0.9697
vn -0.5167 -0.0513 0.8547
vn 0.2407 -0.0512 0.9692
vn -0.5167 -0.0513 0.8546
vn -0.5152 -0.0513 0.8556
vn 0.5167 -0.0513 -0.8547
vn -0.2390 -0.0512 -0.9697
vn 0.5151 -0.0513 -0.8556
vn 0.5167 -0.0512 -0.8547
vn -0.2407 -0.0512 -0.9692
vn 0.8556 -0.0513 0.5152
vn 0.9697 -0.0512 -0.2390
vn 0.9692 -0.0512 -0.2407
vn 0.8546 -0.0512 0.5167
vn -0.5152 -0.0513 0.8555
vn -0.9692 -0.0513 0.2408
vn -0.5152 -0.0512 0.8555
vn -0.9697 -0.0513 0.2390
vn -0.0000 1.0000 -0.0000
vn 0.9044 0.4042 0.1369
vn 0.5427 0.4042 0.7362
vn -0.7363 0.4042 0.5427
vn -0.9044 0.4042 -0.1368
vn -0.5427 0.4042 -0.7362
vn -0.9044 0.4042 -0.1369
vn 0.7363 0.4042 -0.5427
vn 0.9044 0.4042 0.1368
vn 0.9044 0.4043 0.1368
vn -0.1369 0.4042 0.9044
vn -0.7362 0.4042 0.5427
vn -0.7362 0.4043 0.5427
vn 0.1369 0.4042 -0.9044
vn 0.7362 0.4042 -0.5427
vn 0.7362 0.4043 -0.5427
vn -0.1368 0.4042 0.9044
vn 0.5427 0.4043 0.7363
vn 0.5427 0.4042 0.7363
vn -0.5427 0.4042 -0.7363
vn 0.1368 0.4042 -0.9044
vn -0.5427 0.4043 -0.7362
vn -0.3790 0.3228 0.8673
vn -0.9406 0.3228 0.1054
vn 0.9406 0.3228 -0.1054
vn 0.5616 0.3228 0.7619
vn 0.5616 0.3228 0.7618
vn 0.3790 0.3228 -0.8673
vn -0.5616 0.3228 -0.7619
vn -0.5616 0.3228 -0.7618
vn 0.4081 0.7260 0.5536
vn -0.3805 0.3115 0.8708
vn 0.5638 0.3115 0.7649
vn -0.3805 0.3115 0.8707
vn -0.2754 0.7260 0.6302
vn -0.5638 0.3115 -0.7649
vn -0.6834 0.7260 0.0766
vn -0.4080 0.7260 -0.5536
vn -0.5639 0.3115 -0.7649
vn -0.9443 0.3115 0.1058
vn 0.2754 0.7260 -0.6302
vn 0.9443 0.3115 -0.1059
vn 0.3805 0.3115 -0.8707
vn 0.9443 0.3116 -0.1059
vn 0.2753 0.7260 -0.6302
vn 0.6834 0.7260 -0.0765
vn 0.6834 0.7260 -0.0766
vn 0.9443 0.3115 -0.1058
vn 0.6835 0.7260 -0.0767
vn 0.4080 0.7260 0.5536
vn 0.6835 0.7260 -0.0766
vn -0.2754 0.7259 0.6302
vn 0.4080 0.7259 0.5536
vn 0.6835 0.7259 -0.0766
vn -0.6835 0.7259 0.0766
vn 0.2754 0.7259 -0.6302
vn -0.4081 0.7259 -0.5536
vn -0.5638 0.3116 -0.7649
vn 0.3805 0.3115 -0.8708
vn -0.4081 0.7260 -0.5535
vn -0.2753 0.7260 0.6302
vn -0.9443 0.3115 0.1059
vn -0.6835 0.7260 0.0765
vn 0.8673 0.3228 0.3790
vn 0.1054 0.3228 0.9406
vn 0.7618 0.3228 -0.5616
vn 0.7619 0.3228 -0.5616
vn -0.7618 0.3228 0.5616
vn -0.8673 0.3228 -0.3790
vn -0.7619 0.3228 0.5616
vn -0.1054 0.3228 -0.9406
vn -0.3454 0.5060 0.7904
vn -0.8571 0.5060 0.0961
vn -0.7176 0.4530 0.5290
vn -0.8572 0.5060 0.0961
vn 0.7176 -0.4530 -0.5290
vn 0.8572 -0.5060 -0.0961
vn 0.3454 -0.5060 -0.7904
vn 0.3454 -0.5060 -0.7903
vn -0.0993 0.4530 -0.8860
vn 0.3454 0.5060 -0.7903
vn 0.3454 0.5060 -0.7904
vn 0.3454 0.5061 -0.7903
vn -0.5118 0.5060 -0.6943
vn -0.3454 -0.5060 0.7904
vn 0.0993 -0.4530 0.8860
vn 0.5118 -0.5060 0.6943
vn -0.8169 0.4530 -0.3570
vn 0.8571 -0.5060 -0.0961
vn 0.8169 -0.4530 0.3570
vn 0.5118 0.5060 0.6943
vn 0.0993 0.4529 0.8860
vn 0.0993 0.4530 0.8860
vn -0.3454 0.5060 0.7903
vn -0.3454 0.5061 0.7903
vn -0.5118 -0.5060 -0.6943
vn -0.0993 -0.4529 -0.8860
vn -0.0993 -0.4530 -0.8860
vn 0.8572 0.5060 -0.0961
vn 0.7176 0.4529 -0.5290
vn -0.7176 -0.4529 0.5290
vn -0.8572 -0.5060 0.0961
vn 0.8571 0.5060 -0.0961
vn 0.8169 0.4530 0.3570
vn -0.8169 -0.4530 -0.3570
vn -0.8571 -0.5060 0.0961
vn -0.0961 0.5060 -0.8572
vn 0.6943 0.5060 -0.5118
vn 0.3570 0.4529 -0.8169
vn -0.0961 0.5060 -0.8571
vn -0.3570 -0.4529 0.8169
vn -0.6943 -0.5060 0.5118
vn 0.0961 -0.5060 0.8572
vn 0.0961 -0.5060 0.8571
vn 0.7903 0.5060 0.3454
vn 0.5290 0.4530 0.7176
vn 0.7904 0.5060 0.3454
vn 0.0961 0.5061 0.8571
vn 0.0961 0.5060 0.8571
vn -0.7903 -0.5060 -0.3454
vn -0.5290 -0.4530 -0.7176
vn -0.7903 -0.5061 -0.3454
vn -0.0961 -0.5060 -0.8572
vn -0.7904 -0.5060 -0.3454
vn -0.0961 -0.5060 -0.8571
vn -0.6943 0.5060 0.5118
vn -0.7903 0.5060 -0.3454
vn -0.8860 0.4530 0.0993
vn -0.7904 0.5060 -0.3454
vn 0.8860 -0.4530 -0.0993
vn 0.7904 -0.5060 0.3454
vn 0.6943 -0.5060 -0.5118
vn -0.5290 0.4530 -0.7176
vn -0.0961 0.5061 -0.8571
vn -0.5290 0.4529 -0.7176
vn 0.0961 -0.5061 0.8571
vn 0.5290 -0.4530 0.7176
vn 0.5290 -0.4529 0.7176
vn -0.6943 0.5061 0.5118
vn -0.3570 0.4530 0.8169
vn 0.0961 0.5060 0.8572
vn 0.3570 -0.4530 -0.8169
vn 0.8860 0.4530 -0.0993
vn -0.8860 -0.4530 0.0993
vn -0.0993 0.4529 -0.8860
vn -0.3454 -0.5060 0.7903
vn 0.0993 -0.4529 0.8860
vn -0.7176 0.4529 0.5290
vn 0.7176 -0.4529 -0.5290
vn 0.7176 0.4530 -0.5290
vt 0.593750 0.025000
vt 0.593750 0.104996
vt 0.593750 0.225000
vt 0.093750 0.475000
vt 0.093750 0.275000
vt 0.093750 0.425000
vt 0.093750 0.348778
vt 0.093750 0.338765
vt 0.093750 0.344099
vt 0.093750 0.375000
vt 0.093750 0.325000
s 0
usemtl colormap.002
f 3/1/1 2/1/1 1/1/1
f 2/1/1 3/1/1 4/1/1
f 4/1/1 3/1/1 5/1/1
f 4/1/1 5/1/1 6/1/1
f 6/1/1 5/1/1 7/1/1
f 6/1/1 7/1/1 8/1/1
f 9/2/2 1/1/3 2/1/4
f 1/1/3 9/2/2 10/2/5
f 11/2/6 1/1/7 10/2/8
f 1/1/7 11/2/9 3/1/10
f 12/2/11 2/1/12 4/1/13
f 2/1/14 12/2/15 9/2/16
f 13/2/17 4/1/18 6/1/19
f 4/1/18 13/2/17 12/2/20
f 7/1/21 14/2/22 8/1/23
f 14/2/22 7/1/21 15/2/24
f 11/2/25 5/1/26 3/1/27
f 5/1/26 11/2/25 16/2/28
f 8/1/29 13/2/30 6/1/31
f 13/2/32 8/1/29 14/2/33
f 7/1/34 16/2/35 15/2/24
f 16/2/36 7/1/37 5/1/38
f 14/2/39 18/3/40 17/3/41
f 18/3/42 14/2/39 15/2/43
f 16/2/44 18/3/45 15/2/46
f 18/3/45 16/2/47 19/3/48
f 21/3/49 9/2/50 20/3/51
f 9/2/50 21/3/49 10/2/52
f 22/3/53 12/2/54 13/2/55
f 12/2/56 22/3/57 23/3/58
f 21/3/59 11/2/60 10/2/61
f 11/2/62 21/3/49 24/3/63
f 13/2/64 17/3/65 22/3/66
f 17/3/41 13/2/67 14/2/68
f 20/3/69 12/2/54 23/3/70
f 12/2/71 20/3/69 9/2/72
f 24/3/73 16/2/74 11/2/62
f 16/2/47 24/3/75 19/3/76
f 27/4/77 26/4/77 25/4/77
f 26/4/77 27/4/77 28/4/77
f 26/4/77 28/4/77 29/4/77
f 29/4/77 28/4/77 30/4/77
f 29/4/77 30/4/77 31/4/77
f 31/4/77 30/4/77 32/4/77
f 35/5/1 34/5/1 33/5/1
f 34/5/1 35/5/1 36/5/1
f 34/5/1 36/5/1 37/5/1
f 37/5/1 36/5/1 38/5/1
f 37/5/1 38/5/1 39/5/1
f 39/5/1 38/5/1 40/5/1
f 27/4/78 33/5/79 34/5/78
f 33/5/79 27/4/78 25/4/79
f 29/4/80 38/5/81 36/5/80
f 38/5/81 29/4/80 31/4/81
f 40/5/82 31/4/83 32/4/82
f 31/4/83 40/5/82 38/5/83
f 28/4/84 34/5/85 37/5/84
f 34/5/85 28/4/84 27/4/86
f 26/4/87 36/5/88 35/5/87
f 36/5/88 26/4/87 29/4/89
f 30/4/90 37/5/91 39/5/90
f 37/5/91 30/4/90 28/4/92
f 26/4/93 33/5/94 25/4/95
f 33/5/95 26/4/93 35/5/93
f 40/5/96 30/4/97 39/5/97
f 30/4/97 40/5/98 32/4/96
f 43/6/99 42/7/100 41/7/99
f 42/7/100 43/6/99 44/6/100
f 47/6/101 46/7/102 45/7/101
f 46/7/103 47/6/101 48/6/103
f 50/6/104 45/7/101 49/7/104
f 45/7/101 50/6/104 47/6/101
f 48/6/102 41/7/99 46/7/102
f 41/7/99 48/6/102 43/6/99
f 52/7/105 44/6/100 51/6/106
f 44/6/100 52/7/105 42/7/100
f 52/7/105 50/6/104 49/7/104
f 50/6/104 52/7/106 51/6/105
f 41/7/1 45/7/1 46/7/1
f 45/7/1 41/7/1 42/7/1
f 45/7/1 42/7/1 49/7/1
f 49/7/1 42/7/1 52/7/1
f 55/6/107 54/8/108 53/8/109
f 54/8/110 55/6/107 56/6/111
f 59/8/112 58/6/113 57/6/114
f 58/6/113 59/8/115 60/8/116
f 63/6/117 62/8/118 61/8/119
f 62/8/120 63/6/121 64/6/122
f 64/6/123 53/8/109 62/8/124
f 53/8/109 64/6/125 55/6/126
f 64/6/127 56/6/128 55/6/129
f 56/6/128 64/6/130 58/6/131
f 58/6/131 64/6/130 63/6/132
f 58/6/131 63/6/132 57/6/133
f 59/8/134 63/6/117 61/8/135
f 63/6/121 59/8/112 57/6/136
f 54/8/1 62/8/1 53/8/1
f 62/8/1 54/8/1 60/8/1
f 62/8/1 60/8/1 61/8/1
f 61/8/1 60/8/1 59/8/1
f 56/6/137 60/8/138 54/8/110
f 60/8/116 56/6/111 58/6/139
f 67/6/140 66/9/141 65/9/140
f 66/9/141 67/6/140 68/6/141
f 70/6/142 65/9/140 69/9/143
f 65/9/140 70/6/143 67/6/140
f 68/6/141 71/9/144 66/9/141
f 71/9/144 68/6/141 72/6/144
f 72/6/144 73/9/145 71/9/146
f 73/9/145 72/6/146 74/6/145
f 71/9/1 65/9/1 66/9/1
f 65/9/1 71/9/1 69/9/1
f 69/9/1 71/9/1 73/9/1
f 69/9/1 73/9/1 75/9/1
f 76/6/147 69/9/142 75/9/147
f 69/9/142 76/6/147 70/6/142
f 73/9/145 76/6/147 75/9/147
f 76/6/147 73/9/145 74/6/145
f 79/10/148 78/10/149 77/11/150
f 78/10/151 79/10/148 41/6/148
f 78/10/151 41/6/148 42/6/151
f 77/11/152 78/10/153 79/10/154
f 41/6/155 79/10/154 78/10/153
f 42/6/153 41/6/154 78/10/153
f 81/11/156 49/6/157 80/10/158
f 49/6/159 81/11/156 52/6/160
f 52/6/160 81/11/156 82/10/160
f 80/10/161 49/6/161 81/11/162
f 52/6/163 81/11/162 49/6/161
f 82/10/163 81/11/162 52/6/163
f 82/10/160 42/6/151 52/6/160
f 42/6/151 82/10/160 83/11/164
f 42/6/151 83/11/164 78/10/151
f 52/6/163 42/6/165 82/10/163
f 83/11/166 82/10/163 42/6/153
f 78/10/153 83/11/166 42/6/165
f 46/6/167 85/11/168 84/10/167
f 85/11/169 46/6/167 41/6/170
f 85/11/169 41/6/171 79/10/148
f 84/10/172 85/11/173 46/6/172
f 41/6/154 46/6/172 85/11/174
f 79/10/155 41/6/155 85/11/174
f 80/10/158 87/10/175 86/11/176
f 87/10/175 80/10/158 49/6/158
f 87/10/175 49/6/158 45/6/175
f 86/11/177 87/10/178 80/10/161
f 49/6/161 80/10/161 87/10/178
f 45/6/178 49/6/161 87/10/178
f 45/6/179 88/11/180 87/10/175
f 88/11/180 45/6/175 46/6/167
f 88/11/180 46/6/167 84/10/167
f 87/10/178 88/11/181 45/6/182
f 46/6/172 45/6/178 88/11/181
f 84/10/172 46/6/172 88/11/181
f 91/10/183 90/10/184 89/11/185
f 90/10/184 91/10/183 75/6/183
f 90/10/184 75/6/186 69/6/184
f 89/11/187 90/10/188 91/10/189
f 75/6/189 91/10/189 90/10/188
f 69/6/188 75/6/190 90/10/188
f 65/6/191 93/11/192 92/10/193
f 93/11/192 65/6/193 66/6/194
f 93/11/192 66/6/194 94/10/195
f 92/10/196 93/11/197 65/6/198
f 66/6/199 65/6/200 93/11/197
f 94/10/201 66/6/201 93/11/197
f 97/10/202 96/10/203 95/11/204
f 96/10/205 97/10/202 71/6/202
f 96/10/205 71/6/202 73/6/205
f 95/11/206 96/10/207 97/10/208
f 71/6/208 97/10/208 96/10/207
f 73/6/207 71/6/208 96/10/207
f 98/11/209 75/6/210 91/10/186
f 75/6/186 98/11/211 73/6/205
f 73/6/205 98/11/211 96/10/205
f 91/10/190 75/6/212 98/11/213
f 73/6/207 98/11/214 75/6/189
f 96/10/207 98/11/214 73/6/207
f 94/10/195 97/10/215 99/11/216
f 97/10/202 94/10/217 66/6/217
f 97/10/202 66/6/217 71/6/202
f 99/11/218 97/10/208 94/10/201
f 66/6/201 94/10/201 97/10/208
f 71/6/208 66/6/201 97/10/208
f 90/10/184 92/10/191 100/11/219
f 92/10/193 90/10/184 69/6/184
f 92/10/193 69/6/184 65/6/193
f 100/11/220 92/10/200 90/10/188
f 69/6/188 90/10/188 92/10/200
f 65/6/200 69/6/188 92/10/200
f 102/11/156 61/6/159 101/10/157
f 61/6/158 102/11/221 59/6/160
f 59/6/160 102/11/221 103/10/160
f 101/10/161 61/6/222 102/11/162
f 59/6/163 102/11/223 61/6/161
f 103/10/163 102/11/223 59/6/163
f 103/10/160 60/6/151 59/6/160
f 60/6/151 103/10/160 104/11/164
f 60/6/151 104/11/164 105/10/151
f 59/6/163 60/6/165 103/10/163
f 104/11/166 103/10/163 60/6/165
f 105/10/153 104/11/166 60/6/165
f 62/6/179 107/11/180 106/10/175
f 107/11/180 62/6/175 53/6/167
f 107/11/180 53/6/167 108/10/167
f 106/10/178 107/11/181 62/6/182
f 53/6/172 62/6/178 107/11/181
f 108/10/172 53/6/172 107/11/181
f 110/10/148 105/10/151 109/11/224
f 105/10/151 110/10/148 54/6/148
f 105/10/151 54/6/148 60/6/151
f 109/11/225 105/10/153 110/10/154
f 54/6/154 110/10/154 105/10/153
f 60/6/153 54/6/155 105/10/153
f 101/10/158 106/10/179 111/11/226
f 106/10/175 101/10/157 61/6/158
f 106/10/175 61/6/158 62/6/175
f 111/11/177 106/10/178 101/10/161
f 61/6/222 101/10/222 106/10/178
f 62/6/178 61/6/222 106/10/178
f 53/6/167 112/11/169 108/10/167
f 112/11/169 53/6/167 54/6/171
f 112/11/169 54/6/171 110/10/148
f 108/10/172 112/11/174 53/6/172
f 54/6/154 53/6/172 112/11/174
f 110/10/154 54/6/155 112/11/174
f 3/1/1 2/1/1 1/1/1
f 2/1/1 3/1/1 4/1/1
f 4/1/1 3/1/1 5/1/1
f 4/1/1 5/1/1 6/1/1
f 6/1/1 5/1/1 7/1/1
f 6/1/1 7/1/1 8/1/1
f 9/2/2 1/1/3 2/1/4
f 1/1/3 9/2/2 10/2/5
f 11/2/6 1/1/7 10/2/8
f 1/1/7 11/2/9 3/1/10
f 12/2/11 2/1/12 4/1/13
f 2/1/14 12/2/15 9/2/16
f 13/2/17 4/1/18 6/1/19
f 4/1/18 13/2/17 12/2/20
f 7/1/21 14/2/22 8/1/23
f 14/2/22 7/1/21 15/2/24
f 11/2/25 5/1/26 3/1/27
f 5/1/26 11/2/25 16/2/28
f 8/1/29 13/2/30 6/1/31
f 13/2/32 8/1/29 14/2/33
f 7/1/34 16/2/35 15/2/24
f 16/2/36 7/1/37 5/1/38
f 14/2/39 18/3/40 17/3/41
f 18/3/42 14/2/39 15/2/43
f 16/2/44 18/3/45 15/2/46
f 18/3/45 16/2/47 19/3/48
f 21/3/49 9/2/50 20/3/51
f 9/2/50 21/3/49 10/2/52
f 22/3/53 12/2/54 13/2/55
f 12/2/56 22/3/57 23/3/58
f 21/3/59 11/2/60 10/2/61
f 11/2/62 21/3/49 24/3/63
f 13/2/64 17/3/65 22/3/66
f 17/3/41 13/2/67 14/2/68
f 20/3/69 12/2/54 23/3/70
f 12/2/71 20/3/69 9/2/72
f 24/3/73 16/2/74 11/2/62
f 16/2/47 24/3/75 19/3/76
f 27/4/77 26/4/77 25/4/77
f 26/4/77 27/4/77 28/4/77
f 26/4/77 28/4/77 29/4/77
f 29/4/77 28/4/77 30/4/77
f 29/4/77 30/4/77 31/4/77
f 31/4/77 30/4/77 32/4/77
f 35/5/1 34/5/1 33/5/1
f 34/5/1 35/5/1 36/5/1
f 34/5/1 36/5/1 37/5/1
f 37/5/1 36/5/1 38/5/1
f 37/5/1 38/5/1 39/5/1
f 39/5/1 38/5/1 40/5/1
f 27/4/78 33/5/79 34/5/78
f 33/5/79 27/4/78 25/4/79
f 29/4/80 38/5/81 36/5/80
f 38/5/81 29/4/80 31/4/81
f 40/5/82 31/4/83 32/4/82
f 31/4/83 40/5/82 38/5/83
f 28/4/84 34/5/85 37/5/84
f 34/5/85 28/4/84 27/4/86
f 26/4/87 36/5/88 35/5/87
f 36/5/88 26/4/87 29/4/89
f 30/4/90 37/5/91 39/5/90
f 37/5/91 30/4/90 28/4/92
f 26/4/93 33/5/94 25/4/95
f 33/5/95 26/4/93 35/5/93
f 40/5/96 30/4/97 39/5/97
f 30/4/97 40/5/98 32/4/96
f 43/6/99 42/7/100 41/7/99
f 42/7/100 43/6/99 44/6/100
f 47/6/101 46/7/102 45/7/101
f 46/7/103 47/6/101 48/6/103
f 50/6/104 45/7/101 49/7/104
f 45/7/101 50/6/104 47/6/101
f 48/6/102 41/7/99 46/7/102
f 41/7/99 48/6/102 43/6/99
f 52/7/105 44/6/100 51/6/106
f 44/6/100 52/7/105 42/7/100
f 52/7/105 50/6/104 49/7/104
f 50/6/104 52/7/106 51/6/105
f 41/7/1 45/7/1 46/7/1
f 45/7/1 41/7/1 42/7/1
f 45/7/1 42/7/1 49/7/1
f 49/7/1 42/7/1 52/7/1
f 55/6/107 54/8/108 53/8/109
f 54/8/110 55/6/107 56/6/111
f 59/8/112 58/6/113 57/6/114
f 58/6/113 59/8/115 60/8/116
f 63/6/117 62/8/118 61/8/119
f 62/8/120 63/6/121 64/6/122
f 64/6/123 53/8/109 62/8/124
f 53/8/109 64/6/125 55/6/126
f 64/6/127 56/6/128 55/6/129
f 56/6/128 64/6/130 58/6/131
f 58/6/131 64/6/130 63/6/132
f 58/6/131 63/6/132 57/6/133
f 59/8/134 63/6/117 61/8/135
f 63/6/121 59/8/112 57/6/136
f 54/8/1 62/8/1 53/8/1
f 62/8/1 54/8/1 60/8/1
f 62/8/1 60/8/1 61/8/1
f 61/8/1 60/8/1 59/8/1
f 56/6/137 60/8/138 54/8/110
f 60/8/116 56/6/111 58/6/139
f 67/6/140 66/9/141 65/9/140
f 66/9/141 67/6/140 68/6/141
f 70/6/142 65/9/140 69/9/143
f 65/9/140 70/6/143 67/6/140
f 68/6/141 71/9/144 66/9/141
f 71/9/144 68/6/141 72/6/144
f 72/6/144 73/9/145 71/9/146
f 73/9/145 72/6/146 74/6/145
f 71/9/1 65/9/1 66/9/1
f 65/9/1 71/9/1 69/9/1
f 69/9/1 71/9/1 73/9/1
f 69/9/1 73/9/1 75/9/1
f 76/6/147 69/9/142 75/9/147
f 69/9/142 76/6/147 70/6/142
f 73/9/145 76/6/147 75/9/147
f 76/6/147 73/9/145 74/6/145
f 79/10/148 78/10/149 77/11/150
f 78/10/151 79/10/148 41/6/148
f 78/10/151 41/6/148 42/6/151
f 77/11/152 78/10/153 79/10/154
f 41/6/155 79/10/154 78/10/153
f 42/6/153 41/6/154 78/10/153
f 81/11/156 49/6/157 80/10/158
f 49/6/159 81/11/156 52/6/160
f 52/6/160 81/11/156 82/10/160
f 80/10/161 49/6/161 81/11/162
f 52/6/163 81/11/162 49/6/161
f 82/10/163 81/11/162 52/6/163
f 82/10/160 42/6/151 52/6/160
f 42/6/151 82/10/160 83/11/164
f 42/6/151 83/11/164 78/10/151
f 52/6/163 42/6/165 82/10/163
f 83/11/166 82/10/163 42/6/153
f 78/10/153 83/11/166 42/6/165
f 46/6/167 85/11/168 84/10/167
f 85/11/169 46/6/167 41/6/170
f 85/11/169 41/6/171 79/10/148
f 84/10/172 85/11/173 46/6/172
f 41/6/154 46/6/172 85/11/174
f 79/10/155 41/6/155 85/11/174
f 80/10/158 87/10/175 86/11/176
f 87/10/175 80/10/158 49/6/158
f 87/10/175 49/6/158 45/6/175
f 86/11/177 87/10/178 80/10/161
f 49/6/161 80/10/161 87/10/178
f 45/6/178 49/6/161 87/10/178
f 45/6/179 88/11/180 87/10/175
f 88/11/180 45/6/175 46/6/167
f 88/11/180 46/6/167 84/10/167
f 87/10/178 88/11/181 45/6/182
f 46/6/172 45/6/178 88/11/181
f 84/10/172 46/6/172 88/11/181
f 91/10/183 90/10/184 89/11/185
f 90/10/184 91/10/183 75/6/183
f 90/10/184 75/6/186 69/6/184
f 89/11/187 90/10/188 91/10/189
f 75/6/189 91/10/189 90/10/188
f 69/6/188 75/6/190 90/10/188
f 65/6/191 93/11/192 92/10/193
f 93/11/192 65/6/193 66/6/194
f 93/11/192 66/6/194 94/10/195
f 92/10/196 93/11/197 65/6/198
f 66/6/199 65/6/200 93/11/197
f 94/10/201 66/6/201 93/11/197
f 97/10/202 96/10/203 95/11/204
f 96/10/205 97/10/202 71/6/202
f 96/10/205 71/6/202 73/6/205
f 95/11/206 96/10/207 97/10/208
f 71/6/208 97/10/208 96/10/207
f 73/6/207 71/6/208 96/10/207
f 98/11/209 75/6/210 91/10/186
f 75/6/186 98/11/211 73/6/205
f 73/6/205 98/11/211 96/10/205
f 91/10/190 75/6/212 98/11/213
f 73/6/207 98/11/214 75/6/189
f 96/10/207 98/11/214 73/6/207
f 94/10/195 97/10/215 99/11/216
f 97/10/202 94/10/217 66/6/217
f 97/10/202 66/6/217 71/6/202
f 99/11/218 97/10/208 94/10/201
f 66/6/201 94/10/201 97/10/208
f 71/6/208 66/6/201 97/10/208
f 90/10/184 92/10/191 100/11/219
f 92/10/193 90/10/184 69/6/184
f 92/10/193 69/6/184 65/6/193
f 100/11/220 92/10/200 90/10/188
f 69/6/188 90/10/188 92/10/200
f 65/6/200 69/6/188 92/10/200
f 102/11/156 61/6/159 101/10/157
f 61/6/158 102/11/221 59/6/160
f 59/6/160 102/11/221 103/10/160
f 101/10/161 61/6/222 102/11/162
f 59/6/163 102/11/223 61/6/161
f 103/10/163 102/11/223 59/6/163
f 103/10/160 60/6/151 59/6/160
f 60/6/151 103/10/160 104/11/164
f 60/6/151 104/11/164 105/10/151
f 59/6/163 60/6/165 103/10/163
f 104/11/166 103/10/163 60/6/165
f 105/10/153 104/11/166 60/6/165
f 62/6/179 107/11/180 106/10/175
f 107/11/180 62/6/175 53/6/167
f 107/11/180 53/6/167 108/10/167
f 106/10/178 107/11/181 62/6/182
f 53/6/172 62/6/178 107/11/181
f 108/10/172 53/6/172 107/11/181
f 110/10/148 105/10/151 109/11/224
f 105/10/151 110/10/148 54/6/148
f 105/10/151 54/6/148 60/6/151
f 109/11/225 105/10/153 110/10/154
f 54/6/154 110/10/154 105/10/153
f 60/6/153 54/6/155 105/10/153
f 101/10/158 106/10/179 111/11/226
f 106/10/175 101/10/157 61/6/158
f 106/10/175 61/6/158 62/6/175
f 111/11/177 106/10/178 101/10/161
f 61/6/222 101/10/222 106/10/178
f 62/6/178 61/6/222 106/10/178
f 53/6/167 112/11/169 108/10/167
f 112/11/169 53/6/167 54/6/171
f 112/11/169 54/6/171 110/10/148
f 108/10/172 112/11/174 53/6/172
f 54/6/154 53/6/172 112/11/174
f 110/10/154 54/6/155 112/11/174
