# Blender 4.1.1
# www.blender.org
mtllib tree.073.mtl
o tree.072
v 6.183701 -0.217703 -15.991610
v 6.329844 -0.217703 -16.099339
v 6.056766 -0.217703 -16.010818
v 6.349052 -0.217703 -16.226274
v 5.949038 -0.217703 -16.156961
v 6.241324 -0.217703 -16.372417
v 5.968245 -0.217703 -16.283897
v 6.114388 -0.217703 -16.391624
v 6.239445 0.111018 -16.145479
v 6.166373 0.111018 -16.091614
v 6.102905 0.111018 -16.101217
v 6.249049 0.111018 -16.208946
v 6.195184 0.111018 -16.282017
v 6.131717 0.111018 -16.291620
v 6.058645 0.111018 -16.237757
v 6.049041 0.111018 -16.174288
v 6.127384 0.604137 -16.316622
v 6.036045 0.604137 -16.249292
v 6.024040 0.604137 -16.169958
v 6.262044 0.604137 -16.133942
v 6.170705 0.604137 -16.066614
v 6.206719 0.604137 -16.304617
v 6.274049 0.604137 -16.213278
v 6.091371 0.604137 -16.078617
v 6.273794 0.228384 -16.097166
v 6.204644 0.228384 -16.080059
v 6.310594 0.228384 -16.158159
v 6.293487 0.228384 -16.227308
v 6.143651 0.228384 -16.116859
v 6.232493 0.228384 -16.264111
v 6.126544 0.228384 -16.186008
v 6.163343 0.228384 -16.247002
v 6.305074 0.109101 -16.054731
v 6.362719 0.109101 -16.150272
v 6.196756 0.109101 -16.027933
v 6.101216 0.109101 -16.085579
v 6.335922 0.109101 -16.258591
v 6.074419 0.109101 -16.193895
v 6.240381 0.109101 -16.316235
v 6.132063 0.109101 -16.289438
v 5.962774 0.604137 -15.784390
v 5.694493 0.604137 -16.148338
v 6.037003 1.147643 -15.954257
v 5.878716 1.147643 -16.168987
v 6.593151 0.604137 -16.249065
v 6.412103 0.604137 -15.834754
v 6.408928 1.147643 -16.228416
v 6.302109 1.147643 -15.983972
v 6.324870 0.604137 -16.613014
v 6.250641 1.147643 -16.443150
v 5.985535 1.147643 -16.413433
v 5.875541 0.604137 -16.562651
v 6.298513 1.731559 -15.988850
v 6.039430 1.731559 -15.959808
v 6.179378 2.344026 -16.150469
v 6.119827 2.344026 -16.143793
v 6.108267 2.344026 -16.246937
v 6.084272 2.344026 -16.192028
v 5.989130 1.731559 -16.408556
v 5.884738 1.731559 -16.169662
v 6.248215 1.731559 -16.437595
v 6.402906 1.731559 -16.227741
v 6.167816 2.344026 -16.253611
v 6.203371 2.344026 -16.205378
v 6.480661 1.147643 -16.051510
v 6.184769 1.147643 -15.833395
v 6.298165 1.731559 -16.131256
v 6.162584 1.731559 -16.031315
v 6.439715 1.147643 -16.416817
v 6.279403 1.731559 -16.298645
v 5.847929 1.147643 -15.980588
v 6.008241 1.731559 -16.098761
v 5.806983 1.147643 -16.345896
v 5.989479 1.731559 -16.266150
v 6.102876 1.147643 -16.564011
v 6.125060 1.731559 -16.366091
v 5.759292 0.434583 -15.915250
v 5.645067 0.519360 -16.142799
v 5.942859 0.519360 -15.738816
v 6.344785 0.519360 -16.658590
v 6.090610 0.434583 -16.673441
v 5.846030 0.519360 -16.602684
v 5.706080 0.434583 -16.389990
v 6.441614 0.519360 -15.794720
v 6.197034 0.434583 -15.723965
v 6.528351 0.434583 -16.482155
v 6.642577 0.519360 -16.254606
v 6.581564 0.434583 -16.007416
v 6.299339 1.009795 -16.554590
v 6.472263 1.078719 -16.440809
v 6.098372 1.078719 -16.604195
v 6.517714 1.078719 -16.035318
v 6.374271 1.009795 -15.886077
v 6.189273 1.078719 -15.793211
v 5.757855 1.009795 -16.155441
v 5.769931 1.078719 -16.362087
v 5.815381 1.078719 -15.956594
v 5.913373 1.009795 -16.511328
v 5.988305 1.009795 -15.842814
v 6.529788 1.009795 -16.241964
v 6.259698 1.682676 -16.463873
v 6.113139 1.633794 -16.472437
v 5.972115 1.682676 -16.431639
v 5.891419 1.633794 -16.308998
v 5.856239 1.682676 -16.166468
v 6.431405 1.682676 -16.230936
v 6.396225 1.633794 -16.088408
v 6.315529 1.682676 -15.965766
v 5.922102 1.633794 -16.035263
v 6.027946 1.682676 -15.933531
v 6.365542 1.633794 -16.362141
v 6.174504 1.633794 -15.924967
vn -0.0000 -1.0000 -0.0000
vn 0.8155 0.2942 0.4984
vn 0.2253 0.2944 0.9288
vn 0.8205 0.2944 0.4899
vn 0.2253 0.2944 0.9287
vn 0.2349 0.2942 0.9264
vn -0.4983 0.2943 0.8155
vn 0.2252 0.2944 0.9288
vn 0.2348 0.2942 0.9265
vn -0.4984 0.2943 0.8155
vn -0.4899 0.2944 0.8205
vn 0.9265 0.2942 -0.2348
vn 0.8206 0.2944 0.4899
vn 0.9288 0.2944 -0.2252
vn 0.9265 0.2942 -0.2347
vn 0.4984 0.2942 -0.8155
vn 0.9288 0.2944 -0.2253
vn 0.4900 0.2944 -0.8205
vn 0.9287 0.2944 -0.2253
vn 0.9264 0.2942 -0.2349
vn -0.8205 0.2944 -0.4900
vn -0.2349 0.2942 -0.9264
vn -0.2253 0.2944 -0.9288
vn -0.8155 0.2942 -0.4984
vn -0.4984 0.2942 0.8155
vn -0.9288 0.2944 0.2253
vn -0.4900 0.2944 0.8205
vn -0.9287 0.2944 0.2253
vn -0.9264 0.2942 0.2349
vn -0.2252 0.2944 -0.9288
vn 0.4983 0.2943 -0.8155
vn 0.4899 0.2944 -0.8206
vn 0.4983 0.2942 -0.8155
vn -0.2348 0.2942 -0.9265
vn -0.8205 0.2944 -0.4899
vn -0.9265 0.2942 0.2348
vn -0.8155 0.2942 -0.4983
vn -0.8206 0.2944 -0.4899
vn -0.9288 0.2944 0.2252
vn -0.2407 -0.0513 -0.9692
vn -0.8555 -0.0512 -0.5152
vn -0.2390 -0.0513 -0.9697
vn -0.8555 -0.0513 -0.5152
vn -0.2408 -0.0513 -0.9692
vn -0.8546 -0.0513 -0.5167
vn -0.9693 -0.0512 0.2407
vn -0.8546 -0.0512 -0.5167
vn -0.8556 -0.0513 -0.5152
vn -0.9692 -0.0513 0.2407
vn -0.9697 -0.0512 0.2390
vn 0.2390 -0.0512 0.9697
vn 0.8546 -0.0513 0.5167
vn 0.8555 -0.0513 0.5152
vn 0.2408 -0.0513 0.9692
vn 0.5152 -0.0513 -0.8555
vn 0.9692 -0.0513 -0.2408
vn 0.5167 -0.0513 -0.8546
vn 0.5152 -0.0512 -0.8555
vn 0.9697 -0.0513 -0.2390
vn 0.2390 -0.0513 0.9697
vn -0.5167 -0.0513 0.8546
vn 0.2407 -0.0513 0.9692
vn -0.5167 -0.0512 0.8547
vn -0.5151 -0.0512 0.8556
vn -0.2390 -0.0512 -0.9697
vn 0.5152 -0.0513 -0.8556
vn 0.8556 -0.0513 0.5152
vn 0.9692 -0.0513 -0.2407
vn 0.9697 -0.0512 -0.2390
vn 0.9692 -0.0512 -0.2407
vn 0.8546 -0.0512 0.5167
vn -0.5152 -0.0513 0.8555
vn -0.9692 -0.0513 0.2408
vn -0.5152 -0.0512 0.8555
vn -0.9697 -0.0513 0.2390
vn -0.0000 1.0000 -0.0000
vn 0.9044 0.4042 0.1369
vn 0.5427 0.4042 0.7362
vn 0.5427 0.4043 0.7362
vn -0.7363 0.4042 0.5427
vn -0.9044 0.4042 -0.1368
vn -0.9043 0.4043 -0.1368
vn -0.5427 0.4042 -0.7362
vn -0.9044 0.4042 -0.1369
vn -0.5427 0.4043 -0.7362
vn -0.5428 0.4042 -0.7362
vn 0.7363 0.4042 -0.5427
vn 0.9044 0.4042 0.1368
vn -0.1369 0.4042 0.9044
vn -0.7362 0.4042 0.5427
vn -0.1369 0.4042 0.9043
vn -0.7362 0.4043 0.5427
vn 0.1369 0.4042 -0.9044
vn 0.7362 0.4042 -0.5427
vn 0.7362 0.4043 -0.5427
vn -0.1368 0.4042 0.9044
vn 0.5427 0.4042 0.7363
vn -0.5427 0.4042 -0.7363
vn 0.1368 0.4042 -0.9044
vn -0.3790 0.3228 0.8673
vn -0.9406 0.3228 0.1054
vn 0.9406 0.3228 -0.1054
vn 0.5616 0.3228 0.7619
vn 0.5616 0.3228 0.7618
vn 0.3790 0.3228 -0.8673
vn -0.5616 0.3228 -0.7619
vn -0.5616 0.3228 -0.7618
vn 0.4081 0.7260 0.5536
vn -0.3805 0.3115 0.8707
vn 0.5638 0.3115 0.7649
vn -0.2754 0.7260 0.6302
vn -0.5638 0.3115 -0.7649
vn -0.6834 0.7260 0.0767
vn -0.4080 0.7260 -0.5536
vn -0.6834 0.7260 0.0766
vn -0.5639 0.3115 -0.7649
vn -0.9443 0.3115 0.1058
vn 0.2754 0.7260 -0.6302
vn 0.9443 0.3115 -0.1059
vn 0.3805 0.3115 -0.8707
vn 0.2753 0.7260 -0.6302
vn 0.6835 0.7260 -0.0766
vn 0.6834 0.7260 -0.0766
vn 0.9443 0.3115 -0.1058
vn 0.6835 0.7260 -0.0767
vn 0.4080 0.7260 0.5536
vn 0.6835 0.7259 -0.0766
vn -0.2753 0.7259 0.6302
vn 0.4081 0.7259 0.5536
vn -0.2754 0.7259 0.6302
vn -0.6835 0.7259 0.0766
vn 0.2754 0.7259 -0.6302
vn -0.4080 0.7259 -0.5536
vn -0.5638 0.3116 -0.7649
vn 0.3805 0.3115 -0.8708
vn -0.9443 0.3115 0.1059
vn -0.2753 0.7260 0.6302
vn -0.6835 0.7260 0.0765
vn 0.8673 0.3228 0.3790
vn 0.1054 0.3228 0.9406
vn 0.7618 0.3228 -0.5616
vn 0.7619 0.3228 -0.5616
vn -0.7618 0.3228 0.5616
vn -0.8673 0.3228 -0.3790
vn -0.7619 0.3228 0.5616
vn -0.1054 0.3228 -0.9406
vn -0.3454 0.5060 0.7904
vn -0.8571 0.5060 0.0961
vn -0.7176 0.4530 0.5290
vn -0.8572 0.5060 0.0961
vn 0.7176 -0.4530 -0.5290
vn 0.8572 -0.5060 -0.0961
vn 0.3454 -0.5060 -0.7904
vn 0.3454 -0.5060 -0.7903
vn -0.0993 0.4530 -0.8860
vn 0.3454 0.5061 -0.7903
vn 0.3454 0.5060 -0.7903
vn 0.3454 0.5060 -0.7904
vn -0.0993 0.4529 -0.8860
vn -0.5118 0.5060 -0.6943
vn -0.3454 -0.5060 0.7903
vn -0.3454 -0.5061 0.7903
vn 0.0993 -0.4530 0.8860
vn 0.5118 -0.5060 0.6943
vn 0.0993 -0.4529 0.8860
vn -0.3454 -0.5060 0.7904
vn -0.8169 0.4530 -0.3570
vn 0.8571 -0.5060 -0.0961
vn 0.8169 -0.4530 0.3570
vn 0.5118 0.5060 0.6943
vn 0.0993 0.4530 0.8860
vn -0.3454 0.5060 0.7903
vn -0.5118 -0.5060 -0.6943
vn -0.0993 -0.4530 -0.8860
vn 0.8571 0.5060 -0.0961
vn 0.7176 0.4530 -0.5290
vn 0.8572 0.5060 -0.0961
vn -0.7176 -0.4530 0.5290
vn -0.8572 -0.5060 0.0961
vn 0.8169 0.4530 0.3570
vn -0.8169 -0.4530 -0.3570
vn -0.8571 -0.5060 0.0961
vn -0.0961 0.5060 -0.8572
vn 0.6943 0.5060 -0.5118
vn 0.3570 0.4529 -0.8169
vn -0.0961 0.5060 -0.8571
vn -0.3570 -0.4529 0.8170
vn -0.6943 -0.5060 0.5118
vn 0.0961 -0.5060 0.8572
vn 0.0961 -0.5060 0.8571
vn 0.0961 -0.5061 0.8571
vn 0.7903 0.5060 0.3454
vn 0.5290 0.4530 0.7176
vn 0.7904 0.5060 0.3454
vn 0.0961 0.5060 0.8571
vn 0.0961 0.5060 0.8572
vn -0.7904 -0.5060 -0.3454
vn -0.5290 -0.4530 -0.7176
vn -0.7903 -0.5060 -0.3454
vn -0.0961 -0.5060 -0.8572
vn -0.6943 0.5060 0.5118
vn -0.7903 0.5060 -0.3454
vn -0.8860 0.4530 0.0993
vn -0.7904 0.5060 -0.3454
vn 0.8860 -0.4530 -0.0993
vn 0.7904 -0.5060 0.3454
vn 0.6943 -0.5060 -0.5118
vn -0.5290 0.4529 -0.7176
vn -0.0961 0.5061 -0.8571
vn -0.5290 0.4530 -0.7176
vn 0.5290 -0.4530 0.7176
vn 0.7903 -0.5060 0.3454
vn 0.5290 -0.4529 0.7176
vn -0.3570 0.4530 0.8169
vn 0.3570 -0.4529 -0.8169
vn -0.0961 -0.5061 -0.8571
vn 0.8860 0.4530 -0.0993
vn -0.8860 -0.4530 0.0993
vn 0.8571 -0.5061 -0.0961
vn 0.3454 -0.5061 -0.7903
vn 0.7176 0.4529 -0.5290
vn -0.3454 0.5061 0.7903
vn 0.0993 0.4529 0.8860
vn -0.0993 -0.4529 -0.8860
vt 0.593750 0.025000
vt 0.593750 0.104996
vt 0.593750 0.225000
vt 0.093750 0.475000
vt 0.093750 0.275000
vt 0.093750 0.425000
vt 0.093750 0.348778
vt 0.093750 0.338765
vt 0.093750 0.344099
vt 0.093750 0.375000
vt 0.093750 0.325000
s 0
usemtl colormap.002
f 3/1/1 2/1/1 1/1/1
f 2/1/1 3/1/1 4/1/1
f 4/1/1 3/1/1 5/1/1
f 4/1/1 5/1/1 6/1/1
f 6/1/1 5/1/1 7/1/1
f 6/1/1 7/1/1 8/1/1
f 9/2/2 1/1/3 2/1/4
f 1/1/5 9/2/2 10/2/6
f 11/2/7 1/1/8 10/2/9
f 1/1/8 11/2/10 3/1/11
f 12/2/12 2/1/13 4/1/14
f 2/1/4 12/2/15 9/2/2
f 13/2/16 4/1/17 6/1/18
f 4/1/19 13/2/16 12/2/20
f 7/1/21 14/2/22 8/1/23
f 14/2/22 7/1/21 15/2/24
f 11/2/25 5/1/26 3/1/27
f 5/1/28 11/2/25 16/2/29
f 8/1/30 13/2/31 6/1/32
f 13/2/33 8/1/30 14/2/34
f 7/1/35 16/2/36 15/2/37
f 16/2/36 7/1/38 5/1/39
f 14/2/40 18/3/41 17/3/42
f 18/3/43 14/2/44 15/2/45
f 16/2/46 18/3/43 15/2/47
f 18/3/48 16/2/49 19/3/50
f 21/3/51 9/2/52 20/3/53
f 9/2/52 21/3/51 10/2/54
f 22/3/55 12/2/56 13/2/57
f 12/2/56 22/3/58 23/3/59
f 21/3/60 11/2/61 10/2/62
f 11/2/63 21/3/51 24/3/64
f 13/2/57 17/3/65 22/3/66
f 17/3/42 13/2/57 14/2/40
f 20/3/67 12/2/68 23/3/69
f 12/2/70 20/3/67 9/2/71
f 24/3/72 16/2/73 11/2/61
f 16/2/73 24/3/74 19/3/75
f 27/4/76 26/4/76 25/4/76
f 26/4/76 27/4/76 28/4/76
f 26/4/76 28/4/76 29/4/76
f 29/4/76 28/4/76 30/4/76
f 29/4/76 30/4/76 31/4/76
f 31/4/76 30/4/76 32/4/76
f 35/5/1 34/5/1 33/5/1
f 34/5/1 35/5/1 36/5/1
f 34/5/1 36/5/1 37/5/1
f 37/5/1 36/5/1 38/5/1
f 37/5/1 38/5/1 39/5/1
f 39/5/1 38/5/1 40/5/1
f 27/4/77 33/5/78 34/5/77
f 33/5/78 27/4/77 25/4/79
f 29/4/80 38/5/81 36/5/80
f 38/5/81 29/4/80 31/4/82
f 40/5/83 31/4/84 32/4/85
f 31/4/84 40/5/86 38/5/84
f 28/4/87 34/5/88 37/5/87
f 34/5/88 28/4/87 27/4/88
f 26/4/89 36/5/90 35/5/91
f 36/5/90 26/4/89 29/4/92
f 30/4/93 37/5/94 39/5/93
f 37/5/94 30/4/93 28/4/95
f 26/4/96 33/5/97 25/4/97
f 33/5/97 26/4/96 35/5/96
f 40/5/98 30/4/99 39/5/99
f 30/4/99 40/5/85 32/4/83
f 43/6/100 42/7/101 41/7/100
f 42/7/101 43/6/100 44/6/101
f 47/6/102 46/7/103 45/7/102
f 46/7/103 47/6/102 48/6/104
f 50/6/105 45/7/102 49/7/105
f 45/7/102 50/6/105 47/6/102
f 48/6/103 41/7/100 46/7/103
f 41/7/100 48/6/103 43/6/100
f 52/7/106 44/6/101 51/6/107
f 44/6/101 52/7/106 42/7/101
f 52/7/106 50/6/105 49/7/105
f 50/6/105 52/7/107 51/6/106
f 41/7/1 45/7/1 46/7/1
f 45/7/1 41/7/1 42/7/1
f 45/7/1 42/7/1 49/7/1
f 49/7/1 42/7/1 52/7/1
f 55/6/108 54/8/109 53/8/110
f 54/8/109 55/6/108 56/6/111
f 59/8/112 58/6/113 57/6/114
f 58/6/115 59/8/116 60/8/117
f 63/6/118 62/8/119 61/8/120
f 62/8/119 63/6/121 64/6/122
f 64/6/123 53/8/110 62/8/124
f 53/8/110 64/6/125 55/6/126
f 64/6/127 56/6/128 55/6/129
f 56/6/130 64/6/127 58/6/131
f 58/6/131 64/6/127 63/6/132
f 58/6/131 63/6/118 57/6/133
f 59/8/134 63/6/118 61/8/135
f 63/6/121 59/8/112 57/6/114
f 54/8/1 62/8/1 53/8/1
f 62/8/1 54/8/1 60/8/1
f 62/8/1 60/8/1 61/8/1
f 61/8/1 60/8/1 59/8/1
f 56/6/111 60/8/136 54/8/109
f 60/8/117 56/6/137 58/6/138
f 67/6/139 66/9/140 65/9/139
f 66/9/140 67/6/139 68/6/140
f 70/6/141 65/9/139 69/9/142
f 65/9/139 70/6/142 67/6/139
f 68/6/140 71/9/143 66/9/140
f 71/9/143 68/6/140 72/6/143
f 72/6/143 73/9/144 71/9/145
f 73/9/144 72/6/145 74/6/144
f 71/9/1 65/9/1 66/9/1
f 65/9/1 71/9/1 69/9/1
f 69/9/1 71/9/1 73/9/1
f 69/9/1 73/9/1 75/9/1
f 76/6/146 69/9/141 75/9/146
f 69/9/141 76/6/146 70/6/141
f 73/9/144 76/6/146 75/9/146
f 76/6/146 73/9/144 74/6/144
f 79/10/147 78/10/148 77/11/149
f 78/10/150 79/10/147 41/6/147
f 78/10/150 41/6/147 42/6/150
f 77/11/151 78/10/152 79/10/153
f 41/6/154 79/10/153 78/10/152
f 42/6/152 41/6/153 78/10/152
f 81/11/155 49/6/156 80/10/157
f 49/6/158 81/11/159 52/6/160
f 52/6/160 81/11/159 82/10/160
f 80/10/161 49/6/162 81/11/163
f 52/6/164 81/11/165 49/6/166
f 82/10/164 81/11/165 52/6/164
f 82/10/160 42/6/150 52/6/160
f 42/6/150 82/10/160 83/11/167
f 42/6/148 83/11/167 78/10/150
f 52/6/164 42/6/168 82/10/164
f 83/11/169 82/10/164 42/6/168
f 78/10/168 83/11/169 42/6/168
f 46/6/170 85/11/171 84/10/170
f 85/11/171 46/6/170 41/6/172
f 85/11/171 41/6/172 79/10/147
f 84/10/173 85/11/174 46/6/173
f 41/6/153 46/6/173 85/11/174
f 79/10/153 41/6/153 85/11/174
f 80/10/158 87/10/175 86/11/176
f 87/10/177 80/10/158 49/6/158
f 87/10/177 49/6/158 45/6/177
f 86/11/178 87/10/179 80/10/166
f 49/6/166 80/10/166 87/10/179
f 45/6/179 49/6/162 87/10/179
f 45/6/177 88/11/180 87/10/177
f 88/11/180 45/6/177 46/6/170
f 88/11/180 46/6/170 84/10/170
f 87/10/179 88/11/181 45/6/182
f 46/6/173 45/6/179 88/11/181
f 84/10/173 46/6/173 88/11/181
f 91/10/183 90/10/184 89/11/185
f 90/10/184 91/10/183 75/6/183
f 90/10/184 75/6/186 69/6/184
f 89/11/187 90/10/188 91/10/189
f 75/6/190 91/10/189 90/10/188
f 69/6/188 75/6/191 90/10/188
f 65/6/192 93/11/193 92/10/194
f 93/11/193 65/6/194 66/6/195
f 93/11/193 66/6/195 94/10/196
f 92/10/197 93/11/198 65/6/199
f 66/6/200 65/6/197 93/11/198
f 94/10/200 66/6/200 93/11/198
f 97/10/201 96/10/202 95/11/203
f 96/10/204 97/10/201 71/6/201
f 96/10/204 71/6/201 73/6/204
f 95/11/205 96/10/206 97/10/207
f 71/6/207 97/10/207 96/10/206
f 73/6/206 71/6/207 96/10/206
f 98/11/208 75/6/186 91/10/183
f 75/6/209 98/11/210 73/6/204
f 73/6/204 98/11/208 96/10/204
f 91/10/189 75/6/189 98/11/211
f 73/6/212 98/11/211 75/6/189
f 96/10/206 98/11/213 73/6/206
f 94/10/196 97/10/201 99/11/214
f 97/10/201 94/10/196 66/6/196
f 97/10/201 66/6/195 71/6/201
f 99/11/215 97/10/207 94/10/200
f 66/6/200 94/10/200 97/10/207
f 71/6/207 66/6/216 97/10/207
f 90/10/184 92/10/192 100/11/217
f 92/10/194 90/10/184 69/6/184
f 92/10/194 69/6/184 65/6/194
f 100/11/218 92/10/197 90/10/188
f 69/6/188 90/10/188 92/10/197
f 65/6/197 69/6/188 92/10/197
f 102/11/159 61/6/158 101/10/158
f 61/6/158 102/11/159 59/6/160
f 59/6/160 102/11/155 103/10/160
f 101/10/166 61/6/166 102/11/165
f 59/6/164 102/11/165 61/6/166
f 103/10/164 102/11/163 59/6/164
f 103/10/160 60/6/148 59/6/160
f 60/6/150 103/10/160 104/11/167
f 60/6/148 104/11/167 105/10/150
f 59/6/164 60/6/219 103/10/164
f 104/11/169 103/10/164 60/6/152
f 105/10/152 104/11/169 60/6/168
f 62/6/175 107/11/180 106/10/177
f 107/11/180 62/6/177 53/6/170
f 107/11/180 53/6/170 108/10/170
f 106/10/179 107/11/181 62/6/182
f 53/6/173 62/6/179 107/11/181
f 108/10/173 53/6/173 107/11/181
f 110/10/147 105/10/148 109/11/149
f 105/10/150 110/10/147 54/6/147
f 105/10/150 54/6/172 60/6/150
f 109/11/151 105/10/152 110/10/153
f 54/6/153 110/10/153 105/10/152
f 60/6/168 54/6/220 105/10/152
f 101/10/158 106/10/175 111/11/221
f 106/10/177 101/10/158 61/6/158
f 106/10/177 61/6/158 62/6/177
f 111/11/178 106/10/179 101/10/166
f 61/6/166 101/10/166 106/10/179
f 62/6/179 61/6/161 106/10/179
f 53/6/170 112/11/171 108/10/170
f 112/11/171 53/6/170 54/6/222
f 112/11/223 54/6/147 110/10/147
f 108/10/173 112/11/174 53/6/173
f 54/6/153 53/6/173 112/11/174
f 110/10/153 54/6/153 112/11/224
f 3/1/1 2/1/1 1/1/1
f 2/1/1 3/1/1 4/1/1
f 4/1/1 3/1/1 5/1/1
f 4/1/1 5/1/1 6/1/1
f 6/1/1 5/1/1 7/1/1
f 6/1/1 7/1/1 8/1/1
f 9/2/2 1/1/3 2/1/4
f 1/1/5 9/2/2 10/2/6
f 11/2/7 1/1/8 10/2/9
f 1/1/8 11/2/10 3/1/11
f 12/2/12 2/1/13 4/1/14
f 2/1/4 12/2/15 9/2/2
f 13/2/16 4/1/17 6/1/18
f 4/1/19 13/2/16 12/2/20
f 7/1/21 14/2/22 8/1/23
f 14/2/22 7/1/21 15/2/24
f 11/2/25 5/1/26 3/1/27
f 5/1/28 11/2/25 16/2/29
f 8/1/30 13/2/31 6/1/32
f 13/2/33 8/1/30 14/2/34
f 7/1/35 16/2/36 15/2/37
f 16/2/36 7/1/38 5/1/39
f 14/2/40 18/3/41 17/3/42
f 18/3/43 14/2/44 15/2/45
f 16/2/46 18/3/43 15/2/47
f 18/3/48 16/2/49 19/3/50
f 21/3/51 9/2/52 20/3/53
f 9/2/52 21/3/51 10/2/54
f 22/3/55 12/2/56 13/2/57
f 12/2/56 22/3/58 23/3/59
f 21/3/60 11/2/61 10/2/62
f 11/2/63 21/3/51 24/3/64
f 13/2/57 17/3/65 22/3/66
f 17/3/42 13/2/57 14/2/40
f 20/3/67 12/2/68 23/3/69
f 12/2/70 20/3/67 9/2/71
f 24/3/72 16/2/73 11/2/61
f 16/2/73 24/3/74 19/3/75
f 27/4/76 26/4/76 25/4/76
f 26/4/76 27/4/76 28/4/76
f 26/4/76 28/4/76 29/4/76
f 29/4/76 28/4/76 30/4/76
f 29/4/76 30/4/76 31/4/76
f 31/4/76 30/4/76 32/4/76
f 35/5/1 34/5/1 33/5/1
f 34/5/1 35/5/1 36/5/1
f 34/5/1 36/5/1 37/5/1
f 37/5/1 36/5/1 38/5/1
f 37/5/1 38/5/1 39/5/1
f 39/5/1 38/5/1 40/5/1
f 27/4/77 33/5/78 34/5/77
f 33/5/78 27/4/77 25/4/79
f 29/4/80 38/5/81 36/5/80
f 38/5/81 29/4/80 31/4/82
f 40/5/83 31/4/84 32/4/85
f 31/4/84 40/5/86 38/5/84
f 28/4/87 34/5/88 37/5/87
f 34/5/88 28/4/87 27/4/88
f 26/4/89 36/5/90 35/5/91
f 36/5/90 26/4/89 29/4/92
f 30/4/93 37/5/94 39/5/93
f 37/5/94 30/4/93 28/4/95
f 26/4/96 33/5/97 25/4/97
f 33/5/97 26/4/96 35/5/96
f 40/5/98 30/4/99 39/5/99
f 30/4/99 40/5/85 32/4/83
f 43/6/100 42/7/101 41/7/100
f 42/7/101 43/6/100 44/6/101
f 47/6/102 46/7/103 45/7/102
f 46/7/103 47/6/102 48/6/104
f 50/6/105 45/7/102 49/7/105
f 45/7/102 50/6/105 47/6/102
f 48/6/103 41/7/100 46/7/103
f 41/7/100 48/6/103 43/6/100
f 52/7/106 44/6/101 51/6/107
f 44/6/101 52/7/106 42/7/101
f 52/7/106 50/6/105 49/7/105
f 50/6/105 52/7/107 51/6/106
f 41/7/1 45/7/1 46/7/1
f 45/7/1 41/7/1 42/7/1
f 45/7/1 42/7/1 49/7/1
f 49/7/1 42/7/1 52/7/1
f 55/6/108 54/8/109 53/8/110
f 54/8/109 55/6/108 56/6/111
f 59/8/112 58/6/113 57/6/114
f 58/6/115 59/8/116 60/8/117
f 63/6/118 62/8/119 61/8/120
f 62/8/119 63/6/121 64/6/122
f 64/6/123 53/8/110 62/8/124
f 53/8/110 64/6/125 55/6/126
f 64/6/127 56/6/128 55/6/129
f 56/6/130 64/6/127 58/6/131
f 58/6/131 64/6/127 63/6/132
f 58/6/131 63/6/118 57/6/133
f 59/8/134 63/6/118 61/8/135
f 63/6/121 59/8/112 57/6/114
f 54/8/1 62/8/1 53/8/1
f 62/8/1 54/8/1 60/8/1
f 62/8/1 60/8/1 61/8/1
f 61/8/1 60/8/1 59/8/1
f 56/6/111 60/8/136 54/8/109
f 60/8/117 56/6/137 58/6/138
f 67/6/139 66/9/140 65/9/139
f 66/9/140 67/6/139 68/6/140
f 70/6/141 65/9/139 69/9/142
f 65/9/139 70/6/142 67/6/139
f 68/6/140 71/9/143 66/9/140
f 71/9/143 68/6/140 72/6/143
f 72/6/143 73/9/144 71/9/145
f 73/9/144 72/6/145 74/6/144
f 71/9/1 65/9/1 66/9/1
f 65/9/1 71/9/1 69/9/1
f 69/9/1 71/9/1 73/9/1
f 69/9/1 73/9/1 75/9/1
f 76/6/146 69/9/141 75/9/146
f 69/9/141 76/6/146 70/6/141
f 73/9/144 76/6/146 75/9/146
f 76/6/146 73/9/144 74/6/144
f 79/10/147 78/10/148 77/11/149
f 78/10/150 79/10/147 41/6/147
f 78/10/150 41/6/147 42/6/150
f 77/11/151 78/10/152 79/10/153
f 41/6/154 79/10/153 78/10/152
f 42/6/152 41/6/153 78/10/152
f 81/11/155 49/6/156 80/10/157
f 49/6/158 81/11/159 52/6/160
f 52/6/160 81/11/159 82/10/160
f 80/10/161 49/6/162 81/11/163
f 52/6/164 81/11/165 49/6/166
f 82/10/164 81/11/165 52/6/164
f 82/10/160 42/6/150 52/6/160
f 42/6/150 82/10/160 83/11/167
f 42/6/148 83/11/167 78/10/150
f 52/6/164 42/6/168 82/10/164
f 83/11/169 82/10/164 42/6/168
f 78/10/168 83/11/169 42/6/168
f 46/6/170 85/11/171 84/10/170
f 85/11/171 46/6/170 41/6/172
f 85/11/171 41/6/172 79/10/147
f 84/10/173 85/11/174 46/6/173
f 41/6/153 46/6/173 85/11/174
f 79/10/153 41/6/153 85/11/174
f 80/10/158 87/10/175 86/11/176
f 87/10/177 80/10/158 49/6/158
f 87/10/177 49/6/158 45/6/177
f 86/11/178 87/10/179 80/10/166
f 49/6/166 80/10/166 87/10/179
f 45/6/179 49/6/162 87/10/179
f 45/6/177 88/11/180 87/10/177
f 88/11/180 45/6/177 46/6/170
f 88/11/180 46/6/170 84/10/170
f 87/10/179 88/11/181 45/6/182
f 46/6/173 45/6/179 88/11/181
f 84/10/173 46/6/173 88/11/181
f 91/10/183 90/10/184 89/11/185
f 90/10/184 91/10/183 75/6/183
f 90/10/184 75/6/186 69/6/184
f 89/11/187 90/10/188 91/10/189
f 75/6/190 91/10/189 90/10/188
f 69/6/188 75/6/191 90/10/188
f 65/6/192 93/11/193 92/10/194
f 93/11/193 65/6/194 66/6/195
f 93/11/193 66/6/195 94/10/196
f 92/10/197 93/11/198 65/6/199
f 66/6/200 65/6/197 93/11/198
f 94/10/200 66/6/200 93/11/198
f 97/10/201 96/10/202 95/11/203
f 96/10/204 97/10/201 71/6/201
f 96/10/204 71/6/201 73/6/204
f 95/11/205 96/10/206 97/10/207
f 71/6/207 97/10/207 96/10/206
f 73/6/206 71/6/207 96/10/206
f 98/11/208 75/6/186 91/10/183
f 75/6/209 98/11/210 73/6/204
f 73/6/204 98/11/208 96/10/204
f 91/10/189 75/6/189 98/11/211
f 73/6/212 98/11/211 75/6/189
f 96/10/206 98/11/213 73/6/206
f 94/10/196 97/10/201 99/11/214
f 97/10/201 94/10/196 66/6/196
f 97/10/201 66/6/195 71/6/201
f 99/11/215 97/10/207 94/10/200
f 66/6/200 94/10/200 97/10/207
f 71/6/207 66/6/216 97/10/207
f 90/10/184 92/10/192 100/11/217
f 92/10/194 90/10/184 69/6/184
f 92/10/194 69/6/184 65/6/194
f 100/11/218 92/10/197 90/10/188
f 69/6/188 90/10/188 92/10/197
f 65/6/197 69/6/188 92/10/197
f 102/11/159 61/6/158 101/10/158
f 61/6/158 102/11/159 59/6/160
f 59/6/160 102/11/155 103/10/160
f 101/10/166 61/6/166 102/11/165
f 59/6/164 102/11/165 61/6/166
f 103/10/164 102/11/163 59/6/164
f 103/10/160 60/6/148 59/6/160
f 60/6/150 103/10/160 104/11/167
f 60/6/148 104/11/167 105/10/150
f 59/6/164 60/6/219 103/10/164
f 104/11/169 103/10/164 60/6/152
f 105/10/152 104/11/169 60/6/168
f 62/6/175 107/11/180 106/10/177
f 107/11/180 62/6/177 53/6/170
f 107/11/180 53/6/170 108/10/170
f 106/10/179 107/11/181 62/6/182
f 53/6/173 62/6/179 107/11/181
f 108/10/173 53/6/173 107/11/181
f 110/10/147 105/10/148 109/11/149
f 105/10/150 110/10/147 54/6/147
f 105/10/150 54/6/172 60/6/150
f 109/11/151 105/10/152 110/10/153
f 54/6/153 110/10/153 105/10/152
f 60/6/168 54/6/220 105/10/152
f 101/10/158 106/10/175 111/11/221
f 106/10/177 101/10/158 61/6/158
f 106/10/177 61/6/158 62/6/177
f 111/11/178 106/10/179 101/10/166
f 61/6/166 101/10/166 106/10/179
f 62/6/179 61/6/161 106/10/179
f 53/6/170 112/11/171 108/10/170
f 112/11/171 53/6/170 54/6/222
f 112/11/223 54/6/147 110/10/147
f 108/10/173 112/11/174 53/6/173
f 54/6/153 53/6/173 112/11/174
f 110/10/153 54/6/153 112/11/224
