# Blender 4.1.1
# www.blender.org
mtllib tree.028.mtl
o tree.028
v -5.369473 -0.282319 8.013810
v -5.219039 -0.282319 7.912158
v -5.495514 -0.282319 7.989419
v -5.194648 -0.282319 7.786116
v -5.597167 -0.282319 7.838987
v -5.296300 -0.282319 7.635683
v -5.572776 -0.282319 7.712944
v -5.422343 -0.282319 7.611292
v -5.307474 0.046402 7.862355
v -5.382690 0.046402 7.913181
v -5.445711 0.046402 7.900986
v -5.295278 0.046402 7.799334
v -5.346104 0.046402 7.724117
v -5.409125 0.046402 7.711922
v -5.484342 0.046402 7.762748
v -5.496537 0.046402 7.825769
v -5.412430 0.539521 7.686765
v -5.506450 0.539521 7.750297
v -5.521695 0.539521 7.829073
v -5.285365 0.539521 7.874806
v -5.379385 0.539521 7.938338
v -5.333653 0.539521 7.702009
v -5.270121 0.539521 7.796030
v -5.458162 0.539521 7.923094
v -5.275132 0.163768 7.912033
v -5.344924 0.163768 7.926294
v -5.235864 0.163768 7.852598
v -5.250124 0.163768 7.782805
v -5.404359 0.163768 7.887026
v -5.309559 0.163768 7.743538
v -5.418620 0.163768 7.817233
v -5.379352 0.163768 7.757799
v -5.245615 0.044485 7.955714
v -5.184106 0.044485 7.862614
v -5.354940 0.044485 7.978052
v -5.448040 0.044485 7.916542
v -5.206444 0.044485 7.753289
v -5.470377 0.044485 7.807217
v -5.299544 0.044485 7.691780
v -5.408868 0.044485 7.714118
v -5.598701 0.539521 8.211807
v -5.851850 0.539521 7.837176
v -5.517577 1.083027 8.045124
v -5.666936 1.083027 7.824090
v -4.949821 0.539521 7.773340
v -5.147686 0.539521 8.179890
v -5.134735 1.083027 7.786427
v -5.251477 1.083027 8.026292
v -5.202970 0.539521 7.398709
v -5.284094 1.083027 7.565392
v -5.550194 1.083027 7.584224
v -5.653985 0.539521 7.430627
v -5.254869 1.666943 8.021271
v -5.514925 1.666943 8.039675
v -5.367286 2.279410 7.854908
v -5.427059 2.279410 7.859138
v -5.434385 2.279410 7.755609
v -5.460608 2.279410 7.809488
v -5.546802 1.666943 7.589245
v -5.660891 1.666943 7.823662
v -5.286746 1.666943 7.570841
v -5.140780 1.666943 7.786854
v -5.374612 2.279410 7.751378
v -5.341063 2.279410 7.801028
v -5.070308 1.083027 7.966125
v -5.374886 1.083027 8.171937
v -5.249384 1.666943 7.878969
v -5.388945 1.666943 7.973275
v -5.096258 1.083027 7.599446
v -5.261274 1.666943 7.710953
v -5.705414 1.083027 8.011070
v -5.540397 1.666943 7.899564
v -5.731363 1.083027 7.644392
v -5.552287 1.666943 7.731547
v -5.426785 1.083027 7.438580
v -5.412726 1.666943 7.637242
v -5.796652 0.369968 8.072723
v -5.901462 0.454744 7.840687
v -5.620467 0.454744 8.256528
v -5.181205 0.454744 7.353989
v -5.434559 0.369968 7.328739
v -5.681831 0.454744 7.389418
v -5.830375 0.369968 7.596203
v -5.119840 0.454744 8.221099
v -5.367113 0.369968 8.281778
v -5.005019 0.369968 7.537794
v -4.900209 0.454744 7.769829
v -4.971296 0.369968 8.014314
v -5.230872 0.945179 7.456039
v -5.062754 1.014103 7.576807
v -5.429640 1.014103 7.398245
v -5.033950 1.014103 7.983820
v -5.183384 0.945179 8.127061
v -5.372032 1.014103 8.212271
v -5.788250 0.945179 7.832675
v -5.767721 1.014103 7.626697
v -5.738917 1.014103 8.033710
v -5.618287 0.945179 7.483456
v -5.570799 0.945179 8.154478
v -5.013421 0.945179 7.777841
v -5.274196 1.618061 7.545055
v -5.420280 1.569178 7.530497
v -5.562858 1.618061 7.565484
v -5.648509 1.569178 7.684717
v -5.689497 1.618061 7.825687
v -5.112174 1.618061 7.784830
v -5.153162 1.569178 7.925800
v -5.238813 1.618061 8.045033
v -5.629064 1.569178 7.959479
v -5.527475 1.618061 8.065461
v -5.172607 1.569178 7.651038
v -5.381391 1.569178 8.080021
vn -0.0000 -1.0000 -0.0000
vn 0.7944 0.2942 0.5314
vn 0.1870 0.2944 0.9372
vn 0.7998 0.2944 0.5232
vn 0.1967 0.2942 0.9353
vn -0.5313 0.2942 0.7944
vn 0.1966 0.2942 0.9353
vn -0.5313 0.2943 0.7944
vn -0.5231 0.2944 0.7998
vn 0.9353 0.2942 -0.1966
vn 0.7998 0.2944 0.5231
vn 0.9372 0.2944 -0.1870
vn 0.7944 0.2942 0.5313
vn 0.5314 0.2942 -0.7944
vn 0.5231 0.2944 -0.7998
vn 0.9353 0.2942 -0.1967
vn -0.7998 0.2944 -0.5232
vn -0.1967 0.2942 -0.9353
vn -0.1870 0.2944 -0.9372
vn -0.7944 0.2942 -0.5314
vn -0.5314 0.2942 0.7944
vn -0.9372 0.2944 0.1870
vn -0.9353 0.2942 0.1967
vn 0.5313 0.2943 -0.7944
vn 0.5313 0.2942 -0.7944
vn -0.1966 0.2942 -0.9353
vn -0.7998 0.2944 -0.5231
vn -0.9353 0.2942 0.1966
vn -0.7944 0.2942 -0.5313
vn -0.2009 -0.0513 -0.9783
vn -0.8337 -0.0512 -0.5498
vn -0.1991 -0.0513 -0.9786
vn -0.8337 -0.0513 -0.5498
vn -0.2008 -0.0513 -0.9783
vn -0.8327 -0.0513 -0.5513
vn -0.9783 -0.0512 0.2008
vn -0.8328 -0.0512 -0.5513
vn -0.9783 -0.0513 0.2008
vn -0.9787 -0.0512 0.1990
vn 0.1991 -0.0512 0.9786
vn 0.8327 -0.0513 0.5513
vn 0.8337 -0.0513 0.5498
vn 0.2009 -0.0513 0.9783
vn 0.5498 -0.0513 -0.8337
vn 0.9783 -0.0513 -0.2008
vn 0.5513 -0.0513 -0.8327
vn 0.9783 -0.0513 -0.2009
vn 0.5498 -0.0512 -0.8337
vn 0.9786 -0.0513 -0.1991
vn 0.1991 -0.0513 0.9786
vn -0.5512 -0.0513 0.8328
vn 0.2008 -0.0512 0.9783
vn -0.5513 -0.0513 0.8328
vn -0.5498 -0.0513 0.8337
vn 0.5513 -0.0513 -0.8328
vn -0.1991 -0.0512 -0.9786
vn 0.5512 -0.0513 -0.8328
vn -0.2008 -0.0512 -0.9783
vn 0.9786 -0.0512 -0.1991
vn 0.9783 -0.0512 -0.2008
vn 0.8328 -0.0512 0.5513
vn -0.5513 -0.0513 0.8327
vn -0.9783 -0.0513 0.2009
vn -0.5498 -0.0512 0.8337
vn -0.9786 -0.0513 0.1991
vn -0.0000 1.0000 -0.0000
vn 0.8980 0.4042 0.1738
vn 0.5121 0.4042 0.7579
vn 0.5121 0.4043 0.7578
vn -0.7579 0.4042 0.5121
vn -0.8980 0.4042 -0.1737
vn -0.8980 0.4042 -0.1738
vn -0.8980 0.4043 -0.1738
vn -0.5121 0.4042 -0.7579
vn -0.5121 0.4043 -0.7578
vn 0.7579 0.4042 -0.5121
vn 0.8980 0.4042 0.1737
vn 0.8980 0.4043 0.1737
vn -0.1738 0.4042 0.8980
vn -0.7578 0.4042 0.5121
vn -0.7578 0.4043 0.5121
vn 0.1738 0.4042 -0.8980
vn 0.7578 0.4042 -0.5121
vn 0.7578 0.4043 -0.5121
vn -0.1737 0.4042 0.8980
vn 0.5121 0.4043 0.7579
vn 0.1737 0.4042 -0.8980
vn -0.5121 0.4043 -0.7579
vn -0.4142 0.3228 0.8510
vn -0.9441 0.3228 0.0668
vn 0.9441 0.3228 -0.0668
vn 0.5299 0.3228 0.7842
vn 0.4142 0.3228 -0.8510
vn -0.5299 0.3228 -0.7842
vn 0.3851 0.7260 0.5698
vn -0.4158 0.3115 0.8544
vn 0.5320 0.3115 0.7874
vn -0.3010 0.7260 0.6184
vn -0.5320 0.3115 -0.7873
vn -0.6860 0.7260 0.0486
vn -0.3850 0.7260 -0.5699
vn -0.9479 0.3115 0.0671
vn 0.3009 0.7260 -0.6184
vn 0.9479 0.3115 -0.0671
vn 0.4159 0.3115 -0.8544
vn 0.6860 0.7260 -0.0485
vn 0.6860 0.7260 -0.0486
vn 0.5320 0.3115 0.7873
vn 0.3850 0.7260 0.5699
vn 0.6860 0.7259 -0.0485
vn -0.3009 0.7259 0.6184
vn 0.3850 0.7259 0.5699
vn -0.3010 0.7259 0.6184
vn -0.6860 0.7259 0.0485
vn 0.3010 0.7259 -0.6184
vn 0.3009 0.7259 -0.6184
vn -0.3850 0.7259 -0.5699
vn -0.5320 0.3116 -0.7873
vn 0.3010 0.7260 -0.6184
vn 0.4158 0.3115 -0.8544
vn 0.3009 0.7260 -0.6183
vn -0.3850 0.7260 -0.5698
vn -0.3009 0.7260 0.6184
vn -0.4159 0.3115 0.8544
vn -0.6860 0.7260 0.0485
vn 0.8510 0.3228 0.4142
vn 0.0668 0.3228 0.9441
vn 0.7842 0.3228 -0.5299
vn -0.7842 0.3228 0.5299
vn -0.8510 0.3228 -0.4142
vn -0.0668 0.3228 -0.9441
vn -0.3775 0.5060 0.7755
vn -0.8604 0.5060 0.0609
vn -0.7387 0.4530 0.4992
vn 0.7387 -0.4530 -0.4992
vn 0.8604 -0.5060 -0.0609
vn 0.3775 -0.5060 -0.7755
vn -0.0629 0.4529 -0.8893
vn 0.3774 0.5060 -0.7755
vn 0.3775 0.5060 -0.7756
vn -0.0629 0.4530 -0.8893
vn -0.4829 0.5060 -0.7147
vn -0.3775 -0.5060 0.7756
vn -0.3775 -0.5060 0.7755
vn 0.0629 -0.4529 0.8893
vn 0.4829 -0.5060 0.7147
vn 0.0629 -0.4530 0.8893
vn -0.8016 0.4530 -0.3901
vn -0.8016 0.4530 -0.3902
vn 0.8016 -0.4530 0.3901
vn 0.8016 -0.4530 0.3902
vn 0.4829 0.5060 0.7147
vn 0.0629 0.4530 0.8893
vn -0.3774 0.5060 0.7755
vn -0.4829 -0.5060 -0.7147
vn -0.0629 -0.4530 -0.8893
vn 0.3775 -0.5060 -0.7756
vn 0.3775 0.5060 -0.7755
vn 0.8604 0.5060 -0.0609
vn 0.7387 0.4530 -0.4992
vn -0.7387 -0.4530 0.4992
vn -0.8604 -0.5060 0.0609
vn 0.8016 0.4530 0.3901
vn 0.4829 0.5060 0.7146
vn -0.8016 -0.4530 -0.3901
vn -0.8016 -0.4530 -0.3902
vn -0.0609 0.5060 -0.8604
vn 0.7146 0.5060 -0.4829
vn 0.3901 0.4530 -0.8016
vn 0.7147 0.5060 -0.4829
vn -0.3902 -0.4530 0.8016
vn -0.7147 -0.5060 0.4829
vn 0.0609 -0.5060 0.8604
vn 0.7755 0.5060 0.3775
vn 0.4992 0.4530 0.7387
vn 0.7756 0.5060 0.3775
vn 0.0609 0.5060 0.8604
vn -0.7755 -0.5060 -0.3775
vn -0.4992 -0.4530 -0.7387
vn -0.0609 -0.5060 -0.8604
vn -0.4991 -0.4530 -0.7387
vn -0.7147 0.5060 0.4829
vn -0.7755 0.5060 -0.3775
vn -0.8893 0.4530 0.0629
vn -0.7756 0.5060 -0.3775
vn 0.8893 -0.4530 -0.0629
vn 0.7756 -0.5060 0.3775
vn 0.7147 -0.5060 -0.4829
vn -0.4992 0.4530 -0.7387
vn -0.7755 0.5060 -0.3774
vn 0.4992 -0.4530 0.7387
vn 0.7755 -0.5060 0.3775
vn 0.7755 -0.5060 0.3774
vn -0.7146 0.5060 0.4829
vn -0.3901 0.4530 0.8016
vn 0.3901 -0.4530 -0.8016
vn 0.8893 0.4530 -0.0629
vn -0.8893 -0.4530 0.0629
vn -0.7756 -0.5060 -0.3775
vn -0.3774 -0.5060 0.7755
vn 0.8016 0.4530 0.3902
vn -0.3775 0.5060 0.7756
vn 0.3774 -0.5061 -0.7755
vn -0.3774 0.5061 0.7755
vn -0.4829 -0.5060 -0.7146
vn -0.4829 -0.5061 -0.7146
vt 0.593750 0.025000
vt 0.593750 0.104996
vt 0.593750 0.225000
vt 0.093750 0.475000
vt 0.093750 0.275000
vt 0.093750 0.425000
vt 0.093750 0.348778
vt 0.093750 0.338765
vt 0.093750 0.344099
vt 0.093750 0.375000
vt 0.093750 0.325000
s 0
usemtl colormap.002
f 3/1/1 2/1/1 1/1/1
f 2/1/1 3/1/1 4/1/1
f 4/1/1 3/1/1 5/1/1
f 4/1/1 5/1/1 6/1/1
f 6/1/1 5/1/1 7/1/1
f 6/1/1 7/1/1 8/1/1
f 9/2/2 1/1/3 2/1/4
f 1/1/3 9/2/2 10/2/5
f 11/2/6 1/1/3 10/2/7
f 1/1/3 11/2/8 3/1/9
f 12/2/10 2/1/11 4/1/12
f 2/1/11 12/2/10 9/2/13
f 13/2/14 4/1/12 6/1/15
f 4/1/12 13/2/14 12/2/16
f 7/1/17 14/2/18 8/1/19
f 14/2/18 7/1/17 15/2/20
f 11/2/21 5/1/22 3/1/9
f 5/1/22 11/2/21 16/2/23
f 8/1/19 13/2/24 6/1/15
f 13/2/25 8/1/19 14/2/26
f 7/1/27 16/2/28 15/2/29
f 16/2/28 7/1/27 5/1/22
f 14/2/30 18/3/31 17/3/32
f 18/3/33 14/2/34 15/2/35
f 16/2/36 18/3/33 15/2/37
f 18/3/33 16/2/38 19/3/39
f 21/3/40 9/2/41 20/3/42
f 9/2/41 21/3/40 10/2/43
f 22/3/44 12/2/45 13/2/46
f 12/2/47 22/3/48 23/3/49
f 21/3/50 11/2/51 10/2/52
f 11/2/53 21/3/40 24/3/54
f 13/2/55 17/3/56 22/3/44
f 17/3/32 13/2/57 14/2/58
f 20/3/42 12/2/45 23/3/59
f 12/2/60 20/3/42 9/2/61
f 24/3/54 16/2/38 11/2/62
f 16/2/63 24/3/64 19/3/65
f 27/4/66 26/4/66 25/4/66
f 26/4/66 27/4/66 28/4/66
f 26/4/66 28/4/66 29/4/66
f 29/4/66 28/4/66 30/4/66
f 29/4/66 30/4/66 31/4/66
f 31/4/66 30/4/66 32/4/66
f 35/5/1 34/5/1 33/5/1
f 34/5/1 35/5/1 36/5/1
f 34/5/1 36/5/1 37/5/1
f 37/5/1 36/5/1 38/5/1
f 37/5/1 38/5/1 39/5/1
f 39/5/1 38/5/1 40/5/1
f 27/4/67 33/5/68 34/5/67
f 33/5/68 27/4/67 25/4/69
f 29/4/70 38/5/71 36/5/70
f 38/5/72 29/4/70 31/4/73
f 40/5/74 31/4/72 32/4/75
f 31/4/72 40/5/74 38/5/72
f 28/4/76 34/5/67 37/5/76
f 34/5/77 28/4/76 27/4/78
f 26/4/79 36/5/70 35/5/79
f 36/5/80 26/4/79 29/4/81
f 30/4/82 37/5/83 39/5/82
f 37/5/83 30/4/82 28/4/84
f 26/4/85 33/5/86 25/4/68
f 33/5/68 26/4/85 35/5/85
f 40/5/74 30/4/87 39/5/87
f 30/4/87 40/5/88 32/4/74
f 43/6/89 42/7/90 41/7/89
f 42/7/90 43/6/89 44/6/90
f 47/6/91 46/7/92 45/7/91
f 46/7/92 47/6/91 48/6/92
f 50/6/93 45/7/91 49/7/93
f 45/7/91 50/6/93 47/6/91
f 48/6/92 41/7/89 46/7/92
f 41/7/89 48/6/92 43/6/89
f 52/7/94 44/6/90 51/6/94
f 44/6/90 52/7/94 42/7/90
f 52/7/94 50/6/93 49/7/93
f 50/6/93 52/7/94 51/6/94
f 41/7/1 45/7/1 46/7/1
f 45/7/1 41/7/1 42/7/1
f 45/7/1 42/7/1 49/7/1
f 49/7/1 42/7/1 52/7/1
f 55/6/95 54/8/96 53/8/97
f 54/8/96 55/6/95 56/6/98
f 59/8/99 58/6/100 57/6/101
f 58/6/100 59/8/99 60/8/102
f 63/6/103 62/8/104 61/8/105
f 62/8/104 63/6/103 64/6/106
f 64/6/107 53/8/108 62/8/104
f 53/8/108 64/6/107 55/6/109
f 64/6/110 56/6/111 55/6/112
f 56/6/113 64/6/110 58/6/114
f 58/6/114 64/6/110 63/6/115
f 58/6/114 63/6/116 57/6/117
f 59/8/118 63/6/119 61/8/120
f 63/6/121 59/8/99 57/6/122
f 54/8/1 62/8/1 53/8/1
f 62/8/1 54/8/1 60/8/1
f 62/8/1 60/8/1 61/8/1
f 61/8/1 60/8/1 59/8/1
f 56/6/123 60/8/102 54/8/124
f 60/8/102 56/6/123 58/6/125
f 67/6/126 66/9/127 65/9/126
f 66/9/127 67/6/126 68/6/127
f 70/6/128 65/9/126 69/9/128
f 65/9/126 70/6/128 67/6/126
f 68/6/127 71/9/129 66/9/127
f 71/9/129 68/6/127 72/6/129
f 72/6/129 73/9/130 71/9/129
f 73/9/130 72/6/129 74/6/130
f 71/9/1 65/9/1 66/9/1
f 65/9/1 71/9/1 69/9/1
f 69/9/1 71/9/1 73/9/1
f 69/9/1 73/9/1 75/9/1
f 76/6/131 69/9/128 75/9/131
f 69/9/128 76/6/131 70/6/128
f 73/9/130 76/6/131 75/9/131
f 76/6/131 73/9/130 74/6/130
f 79/10/132 78/10/133 77/11/134
f 78/10/133 79/10/132 41/6/132
f 78/10/133 41/6/132 42/6/133
f 77/11/135 78/10/136 79/10/137
f 41/6/137 79/10/137 78/10/136
f 42/6/136 41/6/137 78/10/136
f 81/11/138 49/6/139 80/10/140
f 49/6/139 81/11/141 52/6/142
f 52/6/142 81/11/141 82/10/142
f 80/10/143 49/6/144 81/11/145
f 52/6/146 81/11/147 49/6/143
f 82/10/146 81/11/147 52/6/146
f 82/10/142 42/6/133 52/6/142
f 42/6/133 82/10/142 83/11/148
f 42/6/133 83/11/149 78/10/133
f 52/6/146 42/6/136 82/10/146
f 83/11/150 82/10/146 42/6/136
f 78/10/136 83/11/151 42/6/136
f 46/6/152 85/11/153 84/10/152
f 85/11/153 46/6/152 41/6/154
f 85/11/153 41/6/154 79/10/132
f 84/10/155 85/11/156 46/6/155
f 41/6/157 46/6/155 85/11/156
f 79/10/137 41/6/137 85/11/156
f 80/10/158 87/10/159 86/11/160
f 87/10/159 80/10/140 49/6/140
f 87/10/159 49/6/140 45/6/159
f 86/11/161 87/10/162 80/10/144
f 49/6/144 80/10/144 87/10/162
f 45/6/162 49/6/144 87/10/162
f 45/6/159 88/11/163 87/10/159
f 88/11/163 45/6/159 46/6/164
f 88/11/163 46/6/164 84/10/152
f 87/10/162 88/11/165 45/6/162
f 46/6/155 45/6/162 88/11/166
f 84/10/155 46/6/155 88/11/165
f 91/10/167 90/10/168 89/11/169
f 90/10/170 91/10/167 75/6/167
f 90/10/170 75/6/167 69/6/170
f 89/11/171 90/10/172 91/10/173
f 75/6/173 91/10/173 90/10/172
f 69/6/172 75/6/173 90/10/172
f 65/6/174 93/11/175 92/10/176
f 93/11/175 65/6/176 66/6/177
f 93/11/175 66/6/177 94/10/177
f 92/10/178 93/11/179 65/6/178
f 66/6/180 65/6/178 93/11/179
f 94/10/180 66/6/180 93/11/181
f 97/10/182 96/10/183 95/11/184
f 96/10/185 97/10/182 71/6/182
f 96/10/185 71/6/182 73/6/185
f 95/11/186 96/10/187 97/10/188
f 71/6/188 97/10/188 96/10/187
f 73/6/187 71/6/188 96/10/187
f 98/11/189 75/6/167 91/10/167
f 75/6/167 98/11/189 73/6/185
f 73/6/190 98/11/189 96/10/185
f 91/10/173 75/6/173 98/11/191
f 73/6/192 98/11/191 75/6/173
f 96/10/193 98/11/191 73/6/193
f 94/10/177 97/10/194 99/11/195
f 97/10/182 94/10/177 66/6/177
f 97/10/182 66/6/177 71/6/182
f 99/11/196 97/10/188 94/10/180
f 66/6/180 94/10/180 97/10/188
f 71/6/188 66/6/180 97/10/188
f 90/10/170 92/10/174 100/11/197
f 92/10/176 90/10/170 69/6/170
f 92/10/176 69/6/170 65/6/176
f 100/11/198 92/10/199 90/10/172
f 69/6/172 90/10/172 92/10/199
f 65/6/199 69/6/172 92/10/199
f 102/11/138 61/6/139 101/10/140
f 61/6/139 102/11/141 59/6/142
f 59/6/142 102/11/138 103/10/142
f 101/10/143 61/6/200 102/11/147
f 59/6/146 102/11/147 61/6/143
f 103/10/146 102/11/145 59/6/146
f 103/10/142 60/6/133 59/6/142
f 60/6/133 103/10/142 104/11/149
f 60/6/133 104/11/149 105/10/133
f 59/6/146 60/6/136 103/10/146
f 104/11/151 103/10/146 60/6/136
f 105/10/136 104/11/151 60/6/136
f 62/6/159 107/11/201 106/10/159
f 107/11/163 62/6/159 53/6/164
f 107/11/163 53/6/164 108/10/152
f 106/10/162 107/11/166 62/6/162
f 53/6/155 62/6/162 107/11/165
f 108/10/155 53/6/155 107/11/165
f 110/10/132 105/10/133 109/11/134
f 105/10/133 110/10/202 54/6/132
f 105/10/133 54/6/154 60/6/133
f 109/11/135 105/10/136 110/10/137
f 54/6/137 110/10/137 105/10/136
f 60/6/136 54/6/203 105/10/136
f 101/10/158 106/10/159 111/11/160
f 106/10/159 101/10/158 61/6/158
f 106/10/159 61/6/139 62/6/159
f 111/11/161 106/10/162 101/10/144
f 61/6/144 101/10/144 106/10/162
f 62/6/162 61/6/200 106/10/162
f 53/6/164 112/11/153 108/10/152
f 112/11/153 53/6/152 54/6/204
f 112/11/153 54/6/154 110/10/202
f 108/10/205 112/11/156 53/6/206
f 54/6/157 53/6/155 112/11/156
f 110/10/157 54/6/137 112/11/156
f 3/1/1 2/1/1 1/1/1
f 2/1/1 3/1/1 4/1/1
f 4/1/1 3/1/1 5/1/1
f 4/1/1 5/1/1 6/1/1
f 6/1/1 5/1/1 7/1/1
f 6/1/1 7/1/1 8/1/1
f 9/2/2 1/1/3 2/1/4
f 1/1/3 9/2/2 10/2/5
f 11/2/6 1/1/3 10/2/7
f 1/1/3 11/2/8 3/1/9
f 12/2/10 2/1/11 4/1/12
f 2/1/11 12/2/10 9/2/13
f 13/2/14 4/1/12 6/1/15
f 4/1/12 13/2/14 12/2/16
f 7/1/17 14/2/18 8/1/19
f 14/2/18 7/1/17 15/2/20
f 11/2/21 5/1/22 3/1/9
f 5/1/22 11/2/21 16/2/23
f 8/1/19 13/2/24 6/1/15
f 13/2/25 8/1/19 14/2/26
f 7/1/27 16/2/28 15/2/29
f 16/2/28 7/1/27 5/1/22
f 14/2/30 18/3/31 17/3/32
f 18/3/33 14/2/34 15/2/35
f 16/2/36 18/3/33 15/2/37
f 18/3/33 16/2/38 19/3/39
f 21/3/40 9/2/41 20/3/42
f 9/2/41 21/3/40 10/2/43
f 22/3/44 12/2/45 13/2/46
f 12/2/47 22/3/48 23/3/49
f 21/3/50 11/2/51 10/2/52
f 11/2/53 21/3/40 24/3/54
f 13/2/55 17/3/56 22/3/44
f 17/3/32 13/2/57 14/2/58
f 20/3/42 12/2/45 23/3/59
f 12/2/60 20/3/42 9/2/61
f 24/3/54 16/2/38 11/2/62
f 16/2/63 24/3/64 19/3/65
f 27/4/66 26/4/66 25/4/66
f 26/4/66 27/4/66 28/4/66
f 26/4/66 28/4/66 29/4/66
f 29/4/66 28/4/66 30/4/66
f 29/4/66 30/4/66 31/4/66
f 31/4/66 30/4/66 32/4/66
f 35/5/1 34/5/1 33/5/1
f 34/5/1 35/5/1 36/5/1
f 34/5/1 36/5/1 37/5/1
f 37/5/1 36/5/1 38/5/1
f 37/5/1 38/5/1 39/5/1
f 39/5/1 38/5/1 40/5/1
f 27/4/67 33/5/68 34/5/67
f 33/5/68 27/4/67 25/4/69
f 29/4/70 38/5/71 36/5/70
f 38/5/72 29/4/70 31/4/73
f 40/5/74 31/4/72 32/4/75
f 31/4/72 40/5/74 38/5/72
f 28/4/76 34/5/67 37/5/76
f 34/5/77 28/4/76 27/4/78
f 26/4/79 36/5/70 35/5/79
f 36/5/80 26/4/79 29/4/81
f 30/4/82 37/5/83 39/5/82
f 37/5/83 30/4/82 28/4/84
f 26/4/85 33/5/86 25/4/68
f 33/5/68 26/4/85 35/5/85
f 40/5/74 30/4/87 39/5/87
f 30/4/87 40/5/88 32/4/74
f 43/6/89 42/7/90 41/7/89
f 42/7/90 43/6/89 44/6/90
f 47/6/91 46/7/92 45/7/91
f 46/7/92 47/6/91 48/6/92
f 50/6/93 45/7/91 49/7/93
f 45/7/91 50/6/93 47/6/91
f 48/6/92 41/7/89 46/7/92
f 41/7/89 48/6/92 43/6/89
f 52/7/94 44/6/90 51/6/94
f 44/6/90 52/7/94 42/7/90
f 52/7/94 50/6/93 49/7/93
f 50/6/93 52/7/94 51/6/94
f 41/7/1 45/7/1 46/7/1
f 45/7/1 41/7/1 42/7/1
f 45/7/1 42/7/1 49/7/1
f 49/7/1 42/7/1 52/7/1
f 55/6/95 54/8/96 53/8/97
f 54/8/96 55/6/95 56/6/98
f 59/8/99 58/6/100 57/6/101
f 58/6/100 59/8/99 60/8/102
f 63/6/103 62/8/104 61/8/105
f 62/8/104 63/6/103 64/6/106
f 64/6/107 53/8/108 62/8/104
f 53/8/108 64/6/107 55/6/109
f 64/6/110 56/6/111 55/6/112
f 56/6/113 64/6/110 58/6/114
f 58/6/114 64/6/110 63/6/115
f 58/6/114 63/6/116 57/6/117
f 59/8/118 63/6/119 61/8/120
f 63/6/121 59/8/99 57/6/122
f 54/8/1 62/8/1 53/8/1
f 62/8/1 54/8/1 60/8/1
f 62/8/1 60/8/1 61/8/1
f 61/8/1 60/8/1 59/8/1
f 56/6/123 60/8/102 54/8/124
f 60/8/102 56/6/123 58/6/125
f 67/6/126 66/9/127 65/9/126
f 66/9/127 67/6/126 68/6/127
f 70/6/128 65/9/126 69/9/128
f 65/9/126 70/6/128 67/6/126
f 68/6/127 71/9/129 66/9/127
f 71/9/129 68/6/127 72/6/129
f 72/6/129 73/9/130 71/9/129
f 73/9/130 72/6/129 74/6/130
f 71/9/1 65/9/1 66/9/1
f 65/9/1 71/9/1 69/9/1
f 69/9/1 71/9/1 73/9/1
f 69/9/1 73/9/1 75/9/1
f 76/6/131 69/9/128 75/9/131
f 69/9/128 76/6/131 70/6/128
f 73/9/130 76/6/131 75/9/131
f 76/6/131 73/9/130 74/6/130
f 79/10/132 78/10/133 77/11/134
f 78/10/133 79/10/132 41/6/132
f 78/10/133 41/6/132 42/6/133
f 77/11/135 78/10/136 79/10/137
f 41/6/137 79/10/137 78/10/136
f 42/6/136 41/6/137 78/10/136
f 81/11/138 49/6/139 80/10/140
f 49/6/139 81/11/141 52/6/142
f 52/6/142 81/11/141 82/10/142
f 80/10/143 49/6/144 81/11/145
f 52/6/146 81/11/147 49/6/143
f 82/10/146 81/11/147 52/6/146
f 82/10/142 42/6/133 52/6/142
f 42/6/133 82/10/142 83/11/148
f 42/6/133 83/11/149 78/10/133
f 52/6/146 42/6/136 82/10/146
f 83/11/150 82/10/146 42/6/136
f 78/10/136 83/11/151 42/6/136
f 46/6/152 85/11/153 84/10/152
f 85/11/153 46/6/152 41/6/154
f 85/11/153 41/6/154 79/10/132
f 84/10/155 85/11/156 46/6/155
f 41/6/157 46/6/155 85/11/156
f 79/10/137 41/6/137 85/11/156
f 80/10/158 87/10/159 86/11/160
f 87/10/159 80/10/140 49/6/140
f 87/10/159 49/6/140 45/6/159
f 86/11/161 87/10/162 80/10/144
f 49/6/144 80/10/144 87/10/162
f 45/6/162 49/6/144 87/10/162
f 45/6/159 88/11/163 87/10/159
f 88/11/163 45/6/159 46/6/164
f 88/11/163 46/6/164 84/10/152
f 87/10/162 88/11/165 45/6/162
f 46/6/155 45/6/162 88/11/166
f 84/10/155 46/6/155 88/11/165
f 91/10/167 90/10/168 89/11/169
f 90/10/170 91/10/167 75/6/167
f 90/10/170 75/6/167 69/6/170
f 89/11/171 90/10/172 91/10/173
f 75/6/173 91/10/173 90/10/172
f 69/6/172 75/6/173 90/10/172
f 65/6/174 93/11/175 92/10/176
f 93/11/175 65/6/176 66/6/177
f 93/11/175 66/6/177 94/10/177
f 92/10/178 93/11/179 65/6/178
f 66/6/180 65/6/178 93/11/179
f 94/10/180 66/6/180 93/11/181
f 97/10/182 96/10/183 95/11/184
f 96/10/185 97/10/182 71/6/182
f 96/10/185 71/6/182 73/6/185
f 95/11/186 96/10/187 97/10/188
f 71/6/188 97/10/188 96/10/187
f 73/6/187 71/6/188 96/10/187
f 98/11/189 75/6/167 91/10/167
f 75/6/167 98/11/189 73/6/185
f 73/6/190 98/11/189 96/10/185
f 91/10/173 75/6/173 98/11/191
f 73/6/192 98/11/191 75/6/173
f 96/10/193 98/11/191 73/6/193
f 94/10/177 97/10/194 99/11/195
f 97/10/182 94/10/177 66/6/177
f 97/10/182 66/6/177 71/6/182
f 99/11/196 97/10/188 94/10/180
f 66/6/180 94/10/180 97/10/188
f 71/6/188 66/6/180 97/10/188
f 90/10/170 92/10/174 100/11/197
f 92/10/176 90/10/170 69/6/170
f 92/10/176 69/6/170 65/6/176
f 100/11/198 92/10/199 90/10/172
f 69/6/172 90/10/172 92/10/199
f 65/6/199 69/6/172 92/10/199
f 102/11/138 61/6/139 101/10/140
f 61/6/139 102/11/141 59/6/142
f 59/6/142 102/11/138 103/10/142
f 101/10/143 61/6/200 102/11/147
f 59/6/146 102/11/147 61/6/143
f 103/10/146 102/11/145 59/6/146
f 103/10/142 60/6/133 59/6/142
f 60/6/133 103/10/142 104/11/149
f 60/6/133 104/11/149 105/10/133
f 59/6/146 60/6/136 103/10/146
f 104/11/151 103/10/146 60/6/136
f 105/10/136 104/11/151 60/6/136
f 62/6/159 107/11/201 106/10/159
f 107/11/163 62/6/159 53/6/164
f 107/11/163 53/6/164 108/10/152
f 106/10/162 107/11/166 62/6/162
f 53/6/155 62/6/162 107/11/165
f 108/10/155 53/6/155 107/11/165
f 110/10/132 105/10/133 109/11/134
f 105/10/133 110/10/202 54/6/132
f 105/10/133 54/6/154 60/6/133
f 109/11/135 105/10/136 110/10/137
f 54/6/137 110/10/137 105/10/136
f 60/6/136 54/6/203 105/10/136
f 101/10/158 106/10/159 111/11/160
f 106/10/159 101/10/158 61/6/158
f 106/10/159 61/6/139 62/6/159
f 111/11/161 106/10/162 101/10/144
f 61/6/144 101/10/144 106/10/162
f 62/6/162 61/6/200 106/10/162
f 53/6/164 112/11/153 108/10/152
f 112/11/153 53/6/152 54/6/204
f 112/11/153 54/6/154 110/10/202
f 108/10/205 112/11/156 53/6/206
f 54/6/157 53/6/155 112/11/156
f 110/10/157 54/6/137 112/11/156
