# Blender 4.1.1
# www.blender.org
mtllib tree.041.mtl
o tree.041
v -2.626254 -0.282319 -12.464315
v -2.467957 -0.282319 -12.375402
v -2.660945 -0.282319 -12.587920
v -2.344353 -0.282319 -12.410093
v -2.572031 -0.282319 -12.746216
v -2.255439 -0.282319 -12.568390
v -2.448427 -0.282319 -12.780907
v -2.290131 -0.282319 -12.691994
v -2.463075 0.046402 -12.476779
v -2.542223 0.046402 -12.521235
v -2.559568 0.046402 -12.583037
v -2.401273 0.046402 -12.494124
v -2.356816 0.046402 -12.573272
v -2.374161 0.046402 -12.635075
v -2.453309 0.046402 -12.679531
v -2.515112 0.046402 -12.662185
v -2.353154 0.539521 -12.649304
v -2.452089 0.539521 -12.704875
v -2.529342 0.539521 -12.683192
v -2.464295 0.539521 -12.451434
v -2.563231 0.539521 -12.507005
v -2.331472 0.539521 -12.572051
v -2.387043 0.539521 -12.473117
v -2.584913 0.539521 -12.584258
v -2.492987 0.163768 -12.425601
v -2.537017 0.163768 -12.481598
v -2.422256 0.163768 -12.417138
v -2.366259 0.163768 -12.461168
v -2.528555 0.163768 -12.552330
v -2.357796 0.163768 -12.531899
v -2.472557 0.163768 -12.596358
v -2.401827 0.163768 -12.587897
v -2.518804 0.044485 -12.379637
v -2.408011 0.044485 -12.366382
v -2.587774 0.044485 -12.467353
v -2.574519 0.044485 -12.578146
v -2.320295 0.044485 -12.435350
v -2.486803 0.044485 -12.647116
v -2.307040 0.044485 -12.546144
v -2.376009 0.044485 -12.633861
v -2.905993 0.539521 -12.580482
v -2.684567 0.539521 -12.974696
v -2.720629 1.083027 -12.582674
v -2.589987 1.083027 -12.815262
v -2.223196 0.539521 -12.196963
v -2.675307 0.539521 -12.191616
v -2.317776 1.083027 -12.356397
v -2.584524 1.083027 -12.353242
v -2.001771 0.539521 -12.591175
v -2.187134 1.083027 -12.588984
v -2.323240 1.083027 -12.818416
v -2.232456 0.539521 -12.980042
v -2.581556 1.666943 -12.358525
v -2.714570 1.666943 -12.582747
v -2.483227 2.279410 -12.533585
v -2.513800 2.279410 -12.585120
v -2.424536 2.279410 -12.638073
v -2.484454 2.279410 -12.637366
v -2.326207 1.666943 -12.813132
v -2.586895 1.666943 -12.810051
v -2.193194 1.666943 -12.588912
v -2.320868 1.666943 -12.361609
v -2.393963 2.279410 -12.586537
v -2.423309 2.279410 -12.534292
v -2.449535 1.083027 -12.218259
v -2.770033 1.083027 -12.398280
v -2.451890 1.666943 -12.417404
v -2.598746 1.666943 -12.499891
v -2.133384 1.083027 -12.405807
v -2.307026 1.666943 -12.503341
v -2.774380 1.083027 -12.765850
v -2.600737 1.666943 -12.668317
v -2.458228 1.083027 -12.953399
v -2.455873 1.666943 -12.754253
v -2.137730 1.083027 -12.773378
v -2.309017 1.666943 -12.671766
v -2.870387 0.369968 -12.819777
v -2.709942 0.454744 -13.017470
v -2.955725 0.454744 -12.579895
v -1.952038 0.454744 -12.591763
v -2.043024 0.369968 -12.829559
v -2.208099 0.454744 -13.023405
v -2.459530 0.369968 -13.063508
v -2.699664 0.454744 -12.148252
v -2.864739 0.369968 -12.342098
v -2.037376 0.369968 -12.351881
v -2.197821 0.454744 -12.154187
v -2.448233 0.369968 -12.108151
v -2.065525 0.945179 -12.590421
v -2.098129 1.014103 -12.386005
v -2.102953 1.014103 -12.794009
v -2.449057 1.014103 -12.177827
v -2.644083 0.945179 -12.247207
v -2.804810 1.014103 -12.377650
v -2.652036 0.945179 -12.919860
v -2.458706 1.014103 -12.993831
v -2.809634 1.014103 -12.785652
v -2.263680 0.945179 -12.924451
v -2.842238 0.945179 -12.581237
v -2.255727 0.945179 -12.251800
v -2.164518 1.618061 -12.589251
v -2.216980 1.569178 -12.726365
v -2.312163 1.618061 -12.838136
v -2.457138 1.569178 -12.861259
v -2.601526 1.618061 -12.834714
v -2.306237 1.618061 -12.336944
v -2.450625 1.569178 -12.310398
v -2.595600 1.618061 -12.333522
v -2.694039 1.569178 -12.720724
v -2.743245 1.618061 -12.582407
v -2.213724 1.569178 -12.450935
v -2.690783 1.569178 -12.445292
vn -0.0000 -1.0000 -0.0000
vn -0.1190 0.2942 0.9483
vn -0.7540 0.2944 0.5873
vn -0.1092 0.2944 0.9494
vn -0.7479 0.2942 0.5951
vn -0.9483 0.2942 -0.1189
vn -0.7540 0.2944 0.5872
vn -0.7480 0.2942 0.5950
vn -0.9483 0.2943 -0.1189
vn -0.9494 0.2944 -0.1091
vn 0.5950 0.2942 0.7480
vn -0.1091 0.2944 0.9494
vn 0.5872 0.2944 0.7540
vn -0.1189 0.2942 0.9483
vn 0.9483 0.2942 0.1190
vn 0.5873 0.2944 0.7540
vn 0.9494 0.2944 0.1092
vn 0.5950 0.2942 0.7479
vn 0.1092 0.2944 -0.9494
vn 0.7479 0.2942 -0.5951
vn 0.7540 0.2944 -0.5873
vn 0.1190 0.2942 -0.9483
vn -0.9483 0.2942 -0.1190
vn -0.5873 0.2944 -0.7540
vn -0.9494 0.2944 -0.1092
vn -0.5950 0.2942 -0.7479
vn 0.7540 0.2944 -0.5872
vn 0.9483 0.2943 0.1189
vn 0.9494 0.2944 0.1091
vn 0.9483 0.2942 0.1189
vn 0.7480 0.2942 -0.5950
vn 0.1091 0.2944 -0.9494
vn 0.1189 0.2942 -0.9483
vn -0.5950 0.2942 -0.7480
vn -0.5872 0.2944 -0.7540
vn 0.7845 -0.0513 -0.6180
vn 0.1178 -0.0512 -0.9917
vn 0.7856 -0.0513 -0.6166
vn 0.1178 -0.0513 -0.9917
vn 0.1196 -0.0513 -0.9915
vn -0.6180 -0.0512 -0.7845
vn 0.1177 -0.0513 -0.9917
vn 0.1195 -0.0512 -0.9915
vn -0.6180 -0.0513 -0.7845
vn -0.6166 -0.0512 -0.7856
vn -0.7856 -0.0512 0.6166
vn -0.1196 -0.0513 0.9915
vn -0.1178 -0.0513 0.9917
vn -0.7845 -0.0513 0.6180
vn 0.9917 -0.0513 0.1178
vn 0.6180 -0.0513 0.7845
vn 0.9915 -0.0513 0.1196
vn 0.9917 -0.0512 0.1178
vn 0.6166 -0.0513 0.7856
vn -0.7856 -0.0513 0.6166
vn -0.9915 -0.0513 -0.1195
vn -0.9917 -0.0513 -0.1178
vn 0.9915 -0.0513 0.1195
vn 0.7856 -0.0512 -0.6166
vn 0.6166 -0.0512 0.7856
vn 0.6180 -0.0512 0.7845
vn -0.1195 -0.0512 0.9915
vn -0.9915 -0.0513 -0.1196
vn -0.9917 -0.0512 -0.1178
vn -0.6166 -0.0513 -0.7856
vn -0.0000 1.0000 -0.0000
vn 0.2471 0.4042 0.8806
vn -0.4479 0.4042 0.7975
vn -0.4479 0.4043 0.7975
vn -0.7975 0.4042 -0.4480
vn -0.2472 0.4042 -0.8806
vn 0.4479 0.4042 -0.7975
vn 0.4479 0.4043 -0.7975
vn -0.2471 0.4042 -0.8807
vn -0.2471 0.4042 -0.8806
vn 0.7975 0.4042 0.4480
vn 0.2472 0.4042 0.8806
vn 0.7974 0.4042 0.4480
vn 0.7975 0.4042 0.4479
vn 0.2472 0.4043 0.8806
vn -0.8807 0.4042 0.2471
vn -0.7975 0.4042 -0.4479
vn -0.8806 0.4042 0.2471
vn -0.7975 0.4043 -0.4479
vn 0.8806 0.4042 -0.2471
vn 0.7975 0.4043 0.4479
vn -0.8806 0.4042 0.2472
vn -0.4479 0.4043 0.7974
vn -0.4480 0.4042 0.7975
vn 0.4480 0.4042 -0.7975
vn 0.8806 0.4042 -0.2472
vn 0.4479 0.4043 -0.7974
vn -0.9464 0.3228 0.0112
vn -0.4829 0.3228 -0.8140
vn 0.4829 0.3228 0.8140
vn -0.4635 0.3228 0.8252
vn 0.9464 0.3228 -0.0112
vn 0.4635 0.3228 -0.8252
vn -0.3368 0.7260 0.5996
vn -0.9502 0.3115 0.0113
vn -0.4654 0.3115 0.8285
vn -0.3368 0.7260 0.5997
vn -0.6877 0.7260 0.0081
vn 0.4654 0.3115 -0.8285
vn -0.3509 0.7260 -0.5915
vn 0.3369 0.7260 -0.5996
vn -0.4848 0.3115 -0.8173
vn 0.6877 0.7260 -0.0082
vn 0.4848 0.3115 0.8173
vn 0.9502 0.3115 -0.0112
vn 0.4848 0.3115 0.8172
vn 0.3508 0.7260 0.5915
vn 0.3509 0.7260 0.5915
vn -0.4653 0.3115 0.8285
vn -0.3369 0.7260 0.5996
vn 0.3509 0.7259 0.5915
vn -0.6877 0.7260 0.0082
vn -0.3368 0.7259 0.5996
vn -0.6877 0.7259 0.0081
vn -0.3509 0.7259 -0.5915
vn 0.6877 0.7259 -0.0081
vn 0.3368 0.7259 -0.5996
vn 0.4654 0.3116 -0.8285
vn 0.6877 0.7260 -0.0081
vn 0.6876 0.7260 -0.0081
vn 0.3368 0.7260 -0.5996
vn -0.9502 0.3115 0.0112
vn -0.4848 0.3115 -0.8172
vn -0.3508 0.7260 -0.5915
vn 0.0112 0.3228 0.9464
vn -0.8140 0.3228 0.4829
vn 0.8252 0.3228 0.4635
vn -0.8252 0.3228 -0.4635
vn -0.0112 0.3228 -0.9464
vn 0.8140 0.3228 -0.4829
vn -0.8625 0.5060 0.0102
vn -0.4401 0.5060 -0.7418
vn -0.7773 0.4529 -0.4366
vn 0.7773 -0.4529 0.4366
vn 0.4401 -0.5060 0.7418
vn 0.8625 -0.5060 -0.0102
vn 0.7668 0.4530 -0.4549
vn 0.8624 0.5060 -0.0102
vn 0.8625 0.5060 -0.0102
vn 0.4224 0.5060 -0.7520
vn -0.8625 -0.5060 0.0102
vn -0.7668 -0.4530 0.4549
vn -0.4224 -0.5060 0.7520
vn -0.0105 0.4530 -0.8915
vn 0.0105 -0.4530 0.8915
vn -0.4224 0.5060 0.7520
vn -0.7668 0.4530 0.4549
vn -0.8624 0.5060 0.0102
vn 0.4224 -0.5060 -0.7520
vn 0.7668 -0.4530 -0.4549
vn 0.4401 0.5060 0.7418
vn 0.7773 0.4529 0.4366
vn -0.7773 -0.4529 -0.4366
vn -0.4401 -0.5060 -0.7418
vn -0.8624 -0.5060 0.0102
vn 0.0105 0.4530 0.8915
vn 0.0105 0.4529 0.8915
vn -0.0105 -0.4530 -0.8915
vn 0.7418 0.5060 -0.4401
vn 0.7520 0.5060 0.4224
vn 0.8915 0.4530 -0.0105
vn -0.8915 -0.4530 0.0105
vn -0.7520 -0.5060 -0.4224
vn -0.7418 -0.5060 0.4401
vn 0.0102 0.5060 0.8625
vn -0.4366 0.4530 0.7773
vn -0.7418 0.5060 0.4401
vn -0.0102 -0.5060 -0.8625
vn 0.4366 -0.4530 -0.7773
vn 0.7418 -0.5060 -0.4401
vn -0.7520 0.5060 -0.4224
vn -0.0102 0.5060 -0.8625
vn -0.4549 0.4529 -0.7668
vn 0.4549 -0.4529 0.7668
vn 0.0102 -0.5060 0.8625
vn 0.7520 -0.5060 0.4224
vn 0.4366 0.4530 -0.7773
vn 0.4366 0.4529 -0.7773
vn -0.4366 -0.4530 0.7773
vn -0.8915 0.4530 0.0105
vn 0.8915 -0.4530 -0.0105
vn 0.4549 0.4529 0.7668
vn -0.4549 -0.4529 -0.7668
vn 0.4224 0.5059 -0.7521
vn -0.0106 0.4529 -0.8915
vn -0.4224 -0.5060 0.7521
vn 0.0106 -0.4529 0.8915
vn -0.4224 0.5061 0.7520
vn -0.0105 -0.4529 -0.8915
vn -0.8624 0.5061 0.0102
vt 0.593750 0.025000
vt 0.593750 0.104996
vt 0.593750 0.225000
vt 0.093750 0.475000
vt 0.093750 0.275000
vt 0.093750 0.425000
vt 0.093750 0.348778
vt 0.093750 0.338765
vt 0.093750 0.344099
vt 0.093750 0.375000
vt 0.093750 0.325000
s 0
usemtl colormap.002
f 3/1/1 2/1/1 1/1/1
f 2/1/1 3/1/1 4/1/1
f 4/1/1 3/1/1 5/1/1
f 4/1/1 5/1/1 6/1/1
f 6/1/1 5/1/1 7/1/1
f 6/1/1 7/1/1 8/1/1
f 9/2/2 1/1/3 2/1/4
f 1/1/3 9/2/2 10/2/5
f 11/2/6 1/1/7 10/2/8
f 1/1/7 11/2/9 3/1/10
f 12/2/11 2/1/12 4/1/13
f 2/1/12 12/2/11 9/2/14
f 13/2/15 4/1/16 6/1/17
f 4/1/16 13/2/15 12/2/18
f 7/1/19 14/2/20 8/1/21
f 14/2/20 7/1/19 15/2/22
f 11/2/23 5/1/24 3/1/25
f 5/1/24 11/2/23 16/2/26
f 8/1/27 13/2/28 6/1/29
f 13/2/30 8/1/27 14/2/31
f 7/1/32 16/2/26 15/2/33
f 16/2/34 7/1/32 5/1/35
f 14/2/36 18/3/37 17/3/38
f 18/3/39 14/2/36 15/2/40
f 16/2/41 18/3/42 15/2/43
f 18/3/39 16/2/44 19/3/45
f 21/3/46 9/2/47 20/3/48
f 9/2/47 21/3/46 10/2/49
f 22/3/50 12/2/51 13/2/52
f 12/2/51 22/3/53 23/3/54
f 21/3/55 11/2/56 10/2/49
f 11/2/56 21/3/46 24/3/57
f 13/2/58 17/3/59 22/3/50
f 17/3/38 13/2/58 14/2/36
f 20/3/48 12/2/51 23/3/60
f 12/2/61 20/3/48 9/2/62
f 24/3/57 16/2/44 11/2/63
f 16/2/44 24/3/64 19/3/65
f 27/4/66 26/4/66 25/4/66
f 26/4/66 27/4/66 28/4/66
f 26/4/66 28/4/66 29/4/66
f 29/4/66 28/4/66 30/4/66
f 29/4/66 30/4/66 31/4/66
f 31/4/66 30/4/66 32/4/66
f 35/5/1 34/5/1 33/5/1
f 34/5/1 35/5/1 36/5/1
f 34/5/1 36/5/1 37/5/1
f 37/5/1 36/5/1 38/5/1
f 37/5/1 38/5/1 39/5/1
f 39/5/1 38/5/1 40/5/1
f 27/4/67 33/5/68 34/5/67
f 33/5/68 27/4/67 25/4/69
f 29/4/70 38/5/71 36/5/70
f 38/5/71 29/4/70 31/4/71
f 40/5/72 31/4/71 32/4/73
f 31/4/74 40/5/72 38/5/75
f 28/4/76 34/5/77 37/5/78
f 34/5/77 28/4/79 27/4/80
f 26/4/81 36/5/82 35/5/83
f 36/5/82 26/4/83 29/4/84
f 30/4/85 37/5/79 39/5/85
f 37/5/79 30/4/85 28/4/86
f 26/4/87 33/5/88 25/4/68
f 33/5/89 26/4/87 35/5/87
f 40/5/90 30/4/91 39/5/91
f 30/4/91 40/5/92 32/4/90
f 43/6/93 42/7/94 41/7/93
f 42/7/94 43/6/93 44/6/94
f 47/6/95 46/7/96 45/7/95
f 46/7/96 47/6/95 48/6/96
f 50/6/97 45/7/95 49/7/97
f 45/7/95 50/6/97 47/6/95
f 48/6/96 41/7/93 46/7/96
f 41/7/93 48/6/96 43/6/93
f 52/7/98 44/6/94 51/6/98
f 44/6/94 52/7/98 42/7/94
f 52/7/98 50/6/97 49/7/97
f 50/6/97 52/7/98 51/6/98
f 41/7/1 45/7/1 46/7/1
f 45/7/1 41/7/1 42/7/1
f 45/7/1 42/7/1 49/7/1
f 49/7/1 42/7/1 52/7/1
f 55/6/99 54/8/100 53/8/101
f 54/8/100 55/6/102 56/6/103
f 59/8/104 58/6/105 57/6/106
f 58/6/105 59/8/104 60/8/107
f 63/6/108 62/8/109 61/8/110
f 62/8/111 63/6/108 64/6/112
f 64/6/113 53/8/114 62/8/109
f 53/8/101 64/6/113 55/6/115
f 64/6/116 56/6/117 55/6/118
f 56/6/119 64/6/116 58/6/120
f 58/6/120 64/6/116 63/6/121
f 58/6/120 63/6/108 57/6/122
f 59/8/123 63/6/124 61/8/110
f 63/6/125 59/8/104 57/6/126
f 54/8/1 62/8/1 53/8/1
f 62/8/1 54/8/1 60/8/1
f 62/8/1 60/8/1 61/8/1
f 61/8/1 60/8/1 59/8/1
f 56/6/117 60/8/107 54/8/127
f 60/8/128 56/6/117 58/6/129
f 67/6/130 66/9/131 65/9/130
f 66/9/131 67/6/130 68/6/131
f 70/6/132 65/9/130 69/9/132
f 65/9/130 70/6/132 67/6/130
f 68/6/131 71/9/133 66/9/131
f 71/9/133 68/6/131 72/6/133
f 72/6/133 73/9/134 71/9/133
f 73/9/134 72/6/133 74/6/134
f 71/9/1 65/9/1 66/9/1
f 65/9/1 71/9/1 69/9/1
f 69/9/1 71/9/1 73/9/1
f 69/9/1 73/9/1 75/9/1
f 76/6/135 69/9/132 75/9/135
f 69/9/132 76/6/135 70/6/132
f 73/9/134 76/6/135 75/9/135
f 76/6/135 73/9/134 74/6/134
f 79/10/136 78/10/137 77/11/138
f 78/10/137 79/10/136 41/6/136
f 78/10/137 41/6/136 42/6/137
f 77/11/139 78/10/140 79/10/141
f 41/6/141 79/10/141 78/10/140
f 42/6/140 41/6/141 78/10/140
f 81/11/142 49/6/143 80/10/144
f 49/6/143 81/11/142 52/6/145
f 52/6/145 81/11/142 82/10/145
f 80/10/146 49/6/146 81/11/147
f 52/6/148 81/11/147 49/6/146
f 82/10/148 81/11/147 52/6/148
f 82/10/145 42/6/137 52/6/145
f 42/6/137 82/10/145 83/11/149
f 42/6/137 83/11/149 78/10/137
f 52/6/148 42/6/140 82/10/148
f 83/11/150 82/10/148 42/6/140
f 78/10/140 83/11/150 42/6/140
f 46/6/151 85/11/152 84/10/151
f 85/11/152 46/6/151 41/6/153
f 85/11/152 41/6/153 79/10/136
f 84/10/154 85/11/155 46/6/154
f 41/6/141 46/6/154 85/11/155
f 79/10/141 41/6/141 85/11/155
f 80/10/144 87/10/156 86/11/157
f 87/10/156 80/10/144 49/6/144
f 87/10/156 49/6/144 45/6/156
f 86/11/158 87/10/159 80/10/146
f 49/6/146 80/10/146 87/10/159
f 45/6/159 49/6/160 87/10/159
f 45/6/156 88/11/161 87/10/156
f 88/11/161 45/6/156 46/6/151
f 88/11/162 46/6/151 84/10/151
f 87/10/159 88/11/163 45/6/159
f 46/6/154 45/6/159 88/11/163
f 84/10/154 46/6/154 88/11/163
f 91/10/164 90/10/165 89/11/166
f 90/10/165 91/10/164 75/6/164
f 90/10/165 75/6/164 69/6/165
f 89/11/167 90/10/168 91/10/169
f 75/6/169 91/10/169 90/10/168
f 69/6/168 75/6/169 90/10/168
f 65/6/170 93/11/171 92/10/170
f 93/11/171 65/6/170 66/6/172
f 93/11/171 66/6/172 94/10/172
f 92/10/173 93/11/174 65/6/173
f 66/6/175 65/6/173 93/11/174
f 94/10/175 66/6/175 93/11/174
f 97/10/176 96/10/177 95/11/178
f 96/10/177 97/10/176 71/6/176
f 96/10/177 71/6/176 73/6/177
f 95/11/179 96/10/180 97/10/181
f 71/6/181 97/10/181 96/10/180
f 73/6/180 71/6/181 96/10/180
f 98/11/182 75/6/164 91/10/164
f 75/6/164 98/11/183 73/6/177
f 73/6/177 98/11/182 96/10/177
f 91/10/169 75/6/169 98/11/184
f 73/6/180 98/11/184 75/6/169
f 96/10/180 98/11/184 73/6/180
f 94/10/172 97/10/176 99/11/185
f 97/10/176 94/10/172 66/6/172
f 97/10/176 66/6/172 71/6/176
f 99/11/186 97/10/181 94/10/175
f 66/6/175 94/10/175 97/10/181
f 71/6/181 66/6/175 97/10/181
f 90/10/165 92/10/170 100/11/187
f 92/10/170 90/10/165 69/6/165
f 92/10/170 69/6/165 65/6/170
f 100/11/188 92/10/173 90/10/168
f 69/6/168 90/10/168 92/10/173
f 65/6/173 69/6/168 92/10/173
f 102/11/142 61/6/143 101/10/144
f 61/6/143 102/11/142 59/6/145
f 59/6/145 102/11/142 103/10/145
f 101/10/146 61/6/146 102/11/147
f 59/6/148 102/11/147 61/6/146
f 103/10/148 102/11/147 59/6/148
f 103/10/189 60/6/137 59/6/145
f 60/6/137 103/10/145 104/11/149
f 60/6/137 104/11/190 105/10/137
f 59/6/148 60/6/140 103/10/191
f 104/11/150 103/10/148 60/6/140
f 105/10/140 104/11/192 60/6/140
f 62/6/156 107/11/161 106/10/156
f 107/11/161 62/6/156 53/6/193
f 107/11/162 53/6/151 108/10/151
f 106/10/159 107/11/163 62/6/159
f 53/6/154 62/6/159 107/11/163
f 108/10/154 53/6/154 107/11/194
f 110/10/136 105/10/137 109/11/138
f 105/10/137 110/10/136 54/6/136
f 105/10/137 54/6/136 60/6/137
f 109/11/139 105/10/140 110/10/141
f 54/6/141 110/10/141 105/10/140
f 60/6/140 54/6/141 105/10/140
f 101/10/144 106/10/156 111/11/157
f 106/10/156 101/10/144 61/6/144
f 106/10/156 61/6/144 62/6/156
f 111/11/158 106/10/159 101/10/146
f 61/6/146 101/10/146 106/10/159
f 62/6/159 61/6/160 106/10/159
f 53/6/151 112/11/152 108/10/151
f 112/11/152 53/6/151 54/6/195
f 112/11/152 54/6/153 110/10/136
f 108/10/154 112/11/155 53/6/154
f 54/6/141 53/6/154 112/11/155
f 110/10/141 54/6/141 112/11/155
f 3/1/1 2/1/1 1/1/1
f 2/1/1 3/1/1 4/1/1
f 4/1/1 3/1/1 5/1/1
f 4/1/1 5/1/1 6/1/1
f 6/1/1 5/1/1 7/1/1
f 6/1/1 7/1/1 8/1/1
f 9/2/2 1/1/3 2/1/4
f 1/1/3 9/2/2 10/2/5
f 11/2/6 1/1/7 10/2/8
f 1/1/7 11/2/9 3/1/10
f 12/2/11 2/1/12 4/1/13
f 2/1/12 12/2/11 9/2/14
f 13/2/15 4/1/16 6/1/17
f 4/1/16 13/2/15 12/2/18
f 7/1/19 14/2/20 8/1/21
f 14/2/20 7/1/19 15/2/22
f 11/2/23 5/1/24 3/1/25
f 5/1/24 11/2/23 16/2/26
f 8/1/27 13/2/28 6/1/29
f 13/2/30 8/1/27 14/2/31
f 7/1/32 16/2/26 15/2/33
f 16/2/34 7/1/32 5/1/35
f 14/2/36 18/3/37 17/3/38
f 18/3/39 14/2/36 15/2/40
f 16/2/41 18/3/42 15/2/43
f 18/3/39 16/2/44 19/3/45
f 21/3/46 9/2/47 20/3/48
f 9/2/47 21/3/46 10/2/49
f 22/3/50 12/2/51 13/2/52
f 12/2/51 22/3/53 23/3/54
f 21/3/55 11/2/56 10/2/49
f 11/2/56 21/3/46 24/3/57
f 13/2/58 17/3/59 22/3/50
f 17/3/38 13/2/58 14/2/36
f 20/3/48 12/2/51 23/3/60
f 12/2/61 20/3/48 9/2/62
f 24/3/57 16/2/44 11/2/63
f 16/2/44 24/3/64 19/3/65
f 27/4/66 26/4/66 25/4/66
f 26/4/66 27/4/66 28/4/66
f 26/4/66 28/4/66 29/4/66
f 29/4/66 28/4/66 30/4/66
f 29/4/66 30/4/66 31/4/66
f 31/4/66 30/4/66 32/4/66
f 35/5/1 34/5/1 33/5/1
f 34/5/1 35/5/1 36/5/1
f 34/5/1 36/5/1 37/5/1
f 37/5/1 36/5/1 38/5/1
f 37/5/1 38/5/1 39/5/1
f 39/5/1 38/5/1 40/5/1
f 27/4/67 33/5/68 34/5/67
f 33/5/68 27/4/67 25/4/69
f 29/4/70 38/5/71 36/5/70
f 38/5/71 29/4/70 31/4/71
f 40/5/72 31/4/71 32/4/73
f 31/4/74 40/5/72 38/5/75
f 28/4/76 34/5/77 37/5/78
f 34/5/77 28/4/79 27/4/80
f 26/4/81 36/5/82 35/5/83
f 36/5/82 26/4/83 29/4/84
f 30/4/85 37/5/79 39/5/85
f 37/5/79 30/4/85 28/4/86
f 26/4/87 33/5/88 25/4/68
f 33/5/89 26/4/87 35/5/87
f 40/5/90 30/4/91 39/5/91
f 30/4/91 40/5/92 32/4/90
f 43/6/93 42/7/94 41/7/93
f 42/7/94 43/6/93 44/6/94
f 47/6/95 46/7/96 45/7/95
f 46/7/96 47/6/95 48/6/96
f 50/6/97 45/7/95 49/7/97
f 45/7/95 50/6/97 47/6/95
f 48/6/96 41/7/93 46/7/96
f 41/7/93 48/6/96 43/6/93
f 52/7/98 44/6/94 51/6/98
f 44/6/94 52/7/98 42/7/94
f 52/7/98 50/6/97 49/7/97
f 50/6/97 52/7/98 51/6/98
f 41/7/1 45/7/1 46/7/1
f 45/7/1 41/7/1 42/7/1
f 45/7/1 42/7/1 49/7/1
f 49/7/1 42/7/1 52/7/1
f 55/6/99 54/8/100 53/8/101
f 54/8/100 55/6/102 56/6/103
f 59/8/104 58/6/105 57/6/106
f 58/6/105 59/8/104 60/8/107
f 63/6/108 62/8/109 61/8/110
f 62/8/111 63/6/108 64/6/112
f 64/6/113 53/8/114 62/8/109
f 53/8/101 64/6/113 55/6/115
f 64/6/116 56/6/117 55/6/118
f 56/6/119 64/6/116 58/6/120
f 58/6/120 64/6/116 63/6/121
f 58/6/120 63/6/108 57/6/122
f 59/8/123 63/6/124 61/8/110
f 63/6/125 59/8/104 57/6/126
f 54/8/1 62/8/1 53/8/1
f 62/8/1 54/8/1 60/8/1
f 62/8/1 60/8/1 61/8/1
f 61/8/1 60/8/1 59/8/1
f 56/6/117 60/8/107 54/8/127
f 60/8/128 56/6/117 58/6/129
f 67/6/130 66/9/131 65/9/130
f 66/9/131 67/6/130 68/6/131
f 70/6/132 65/9/130 69/9/132
f 65/9/130 70/6/132 67/6/130
f 68/6/131 71/9/133 66/9/131
f 71/9/133 68/6/131 72/6/133
f 72/6/133 73/9/134 71/9/133
f 73/9/134 72/6/133 74/6/134
f 71/9/1 65/9/1 66/9/1
f 65/9/1 71/9/1 69/9/1
f 69/9/1 71/9/1 73/9/1
f 69/9/1 73/9/1 75/9/1
f 76/6/135 69/9/132 75/9/135
f 69/9/132 76/6/135 70/6/132
f 73/9/134 76/6/135 75/9/135
f 76/6/135 73/9/134 74/6/134
f 79/10/136 78/10/137 77/11/138
f 78/10/137 79/10/136 41/6/136
f 78/10/137 41/6/136 42/6/137
f 77/11/139 78/10/140 79/10/141
f 41/6/141 79/10/141 78/10/140
f 42/6/140 41/6/141 78/10/140
f 81/11/142 49/6/143 80/10/144
f 49/6/143 81/11/142 52/6/145
f 52/6/145 81/11/142 82/10/145
f 80/10/146 49/6/146 81/11/147
f 52/6/148 81/11/147 49/6/146
f 82/10/148 81/11/147 52/6/148
f 82/10/145 42/6/137 52/6/145
f 42/6/137 82/10/145 83/11/149
f 42/6/137 83/11/149 78/10/137
f 52/6/148 42/6/140 82/10/148
f 83/11/150 82/10/148 42/6/140
f 78/10/140 83/11/150 42/6/140
f 46/6/151 85/11/152 84/10/151
f 85/11/152 46/6/151 41/6/153
f 85/11/152 41/6/153 79/10/136
f 84/10/154 85/11/155 46/6/154
f 41/6/141 46/6/154 85/11/155
f 79/10/141 41/6/141 85/11/155
f 80/10/144 87/10/156 86/11/157
f 87/10/156 80/10/144 49/6/144
f 87/10/156 49/6/144 45/6/156
f 86/11/158 87/10/159 80/10/146
f 49/6/146 80/10/146 87/10/159
f 45/6/159 49/6/160 87/10/159
f 45/6/156 88/11/161 87/10/156
f 88/11/161 45/6/156 46/6/151
f 88/11/162 46/6/151 84/10/151
f 87/10/159 88/11/163 45/6/159
f 46/6/154 45/6/159 88/11/163
f 84/10/154 46/6/154 88/11/163
f 91/10/164 90/10/165 89/11/166
f 90/10/165 91/10/164 75/6/164
f 90/10/165 75/6/164 69/6/165
f 89/11/167 90/10/168 91/10/169
f 75/6/169 91/10/169 90/10/168
f 69/6/168 75/6/169 90/10/168
f 65/6/170 93/11/171 92/10/170
f 93/11/171 65/6/170 66/6/172
f 93/11/171 66/6/172 94/10/172
f 92/10/173 93/11/174 65/6/173
f 66/6/175 65/6/173 93/11/174
f 94/10/175 66/6/175 93/11/174
f 97/10/176 96/10/177 95/11/178
f 96/10/177 97/10/176 71/6/176
f 96/10/177 71/6/176 73/6/177
f 95/11/179 96/10/180 97/10/181
f 71/6/181 97/10/181 96/10/180
f 73/6/180 71/6/181 96/10/180
f 98/11/182 75/6/164 91/10/164
f 75/6/164 98/11/183 73/6/177
f 73/6/177 98/11/182 96/10/177
f 91/10/169 75/6/169 98/11/184
f 73/6/180 98/11/184 75/6/169
f 96/10/180 98/11/184 73/6/180
f 94/10/172 97/10/176 99/11/185
f 97/10/176 94/10/172 66/6/172
f 97/10/176 66/6/172 71/6/176
f 99/11/186 97/10/181 94/10/175
f 66/6/175 94/10/175 97/10/181
f 71/6/181 66/6/175 97/10/181
f 90/10/165 92/10/170 100/11/187
f 92/10/170 90/10/165 69/6/165
f 92/10/170 69/6/165 65/6/170
f 100/11/188 92/10/173 90/10/168
f 69/6/168 90/10/168 92/10/173
f 65/6/173 69/6/168 92/10/173
f 102/11/142 61/6/143 101/10/144
f 61/6/143 102/11/142 59/6/145
f 59/6/145 102/11/142 103/10/145
f 101/10/146 61/6/146 102/11/147
f 59/6/148 102/11/147 61/6/146
f 103/10/148 102/11/147 59/6/148
f 103/10/189 60/6/137 59/6/145
f 60/6/137 103/10/145 104/11/149
f 60/6/137 104/11/190 105/10/137
f 59/6/148 60/6/140 103/10/191
f 104/11/150 103/10/148 60/6/140
f 105/10/140 104/11/192 60/6/140
f 62/6/156 107/11/161 106/10/156
f 107/11/161 62/6/156 53/6/193
f 107/11/162 53/6/151 108/10/151
f 106/10/159 107/11/163 62/6/159
f 53/6/154 62/6/159 107/11/163
f 108/10/154 53/6/154 107/11/194
f 110/10/136 105/10/137 109/11/138
f 105/10/137 110/10/136 54/6/136
f 105/10/137 54/6/136 60/6/137
f 109/11/139 105/10/140 110/10/141
f 54/6/141 110/10/141 105/10/140
f 60/6/140 54/6/141 105/10/140
f 101/10/144 106/10/156 111/11/157
f 106/10/156 101/10/144 61/6/144
f 106/10/156 61/6/144 62/6/156
f 111/11/158 106/10/159 101/10/146
f 61/6/146 101/10/146 106/10/159
f 62/6/159 61/6/160 106/10/159
f 53/6/151 112/11/152 108/10/151
f 112/11/152 53/6/151 54/6/195
f 112/11/152 54/6/153 110/10/136
f 108/10/154 112/11/155 53/6/154
f 54/6/141 53/6/154 112/11/155
f 110/10/141 54/6/141 112/11/155
