# Blender 4.1.1
# www.blender.org
mtllib tree.016.mtl
o tree.016
v 1.450734 -4.606890 -14.815945
v 1.605345 -4.606890 -14.929915
v 1.316444 -4.606890 -14.836267
v 1.625665 -4.606890 -15.064205
v 1.202474 -4.606890 -14.990877
v 1.511696 -4.606890 -15.218817
v 1.222794 -4.606890 -15.125167
v 1.377405 -4.606890 -15.239138
v 1.509707 -4.259123 -14.978729
v 1.432402 -4.259123 -14.921744
v 1.365257 -4.259123 -14.931904
v 1.519867 -4.259123 -15.045875
v 1.462883 -4.259123 -15.123179
v 1.395737 -4.259123 -15.133339
v 1.318432 -4.259123 -15.076354
v 1.308272 -4.259123 -15.009209
v 1.391154 -3.737433 -15.159788
v 1.294523 -3.737433 -15.088558
v 1.281822 -3.737433 -15.004626
v 1.533617 -3.737433 -14.966525
v 1.436985 -3.737433 -14.895294
v 1.475086 -3.737433 -15.147088
v 1.546317 -3.737433 -15.050456
v 1.353054 -3.737433 -14.907994
v 1.546047 -4.134956 -14.927618
v 1.472890 -4.134956 -14.909520
v 1.584979 -4.134956 -14.992146
v 1.566881 -4.134956 -15.065301
v 1.408363 -4.134956 -14.948452
v 1.502354 -4.134956 -15.104235
v 1.390265 -4.134956 -15.021608
v 1.429197 -4.134956 -15.086135
v 1.579140 -4.261151 -14.882724
v 1.640124 -4.261151 -14.983801
v 1.464546 -4.261151 -14.854374
v 1.363470 -4.261151 -14.915359
v 1.611774 -4.261151 -15.098395
v 1.335120 -4.261151 -15.029952
v 1.510698 -4.261151 -15.159379
v 1.396104 -4.261151 -15.131029
v 1.217007 -3.737433 -14.596721
v 0.933182 -3.737433 -14.981754
v 1.295536 -3.162436 -14.776428
v 1.128078 -3.162436 -15.003599
v 1.883907 -3.737433 -15.088319
v 1.692369 -3.737433 -14.650002
v 1.689010 -3.162436 -15.066474
v 1.576002 -3.162436 -14.807864
v 1.600082 -3.737433 -15.473354
v 1.521552 -3.162436 -15.293647
v 1.241086 -3.162436 -15.262209
v 1.124719 -3.737433 -15.420072
v 1.572198 -2.544689 -14.813025
v 1.298103 -2.544689 -14.782302
v 1.446160 -1.896736 -14.984008
v 1.383160 -1.896736 -14.976947
v 1.370929 -1.896736 -15.086065
v 1.345544 -1.896736 -15.027976
v 1.244890 -2.544689 -15.257050
v 1.134449 -2.544689 -15.004313
v 1.518985 -2.544689 -15.287771
v 1.682639 -2.544689 -15.065760
v 1.433929 -1.896736 -15.093127
v 1.471544 -1.896736 -15.042099
v 1.764900 -3.162436 -14.879316
v 1.451863 -3.162436 -14.648564
v 1.571830 -2.544689 -14.963684
v 1.428393 -2.544689 -14.857950
v 1.721581 -3.162436 -15.265789
v 1.551981 -2.544689 -15.140771
v 1.095508 -3.162436 -14.804285
v 1.265107 -2.544689 -14.929304
v 1.052189 -3.162436 -15.190759
v 1.245258 -2.544689 -15.106391
v 1.365225 -3.162436 -15.421511
v 1.388695 -2.544689 -15.212123
v 1.001735 -3.916811 -14.735161
v 0.880892 -3.827122 -14.975894
v 1.195938 -3.827122 -14.548505
v 1.621151 -3.827122 -15.521569
v 1.352249 -3.916811 -15.537282
v 1.093499 -3.827122 -15.462425
v 0.945440 -3.916811 -15.237407
v 1.723590 -3.827122 -14.607648
v 1.464840 -3.916811 -14.532793
v 1.815354 -3.916811 -15.334912
v 1.936197 -3.827122 -15.094180
v 1.871649 -3.916811 -14.832667
v 1.573072 -3.308271 -15.411545
v 1.756015 -3.235354 -15.291172
v 1.360460 -3.235354 -15.464024
v 1.804099 -3.235354 -14.862185
v 1.652346 -3.308271 -14.704298
v 1.456628 -3.235354 -14.606051
v 1.000215 -3.308271 -14.989268
v 1.012990 -3.235354 -15.207888
v 1.061074 -3.235354 -14.778901
v 1.164743 -3.308271 -15.365775
v 1.244017 -3.308271 -14.658529
v 1.816873 -3.308271 -15.080806
v 1.531134 -2.596404 -15.315572
v 1.376084 -2.648118 -15.324632
v 1.226888 -2.596404 -15.281470
v 1.141518 -2.648118 -15.151724
v 1.104299 -2.596404 -15.000935
v 1.712790 -2.596404 -15.069139
v 1.675571 -2.648118 -14.918351
v 1.590200 -2.596404 -14.788605
v 1.173977 -2.648118 -14.862127
v 1.285955 -2.596404 -14.754501
v 1.643111 -2.648118 -15.207946
v 1.441004 -2.648118 -14.745441
vn -0.0000 -1.0000 -0.0000
vn 0.8155 0.2942 0.4984
vn 0.2253 0.2944 0.9288
vn 0.8205 0.2944 0.4899
vn 0.2253 0.2944 0.9287
vn 0.2349 0.2942 0.9264
vn -0.4983 0.2943 0.8155
vn 0.2252 0.2944 0.9288
vn 0.2348 0.2942 0.9265
vn -0.4984 0.2943 0.8155
vn -0.4899 0.2944 0.8206
vn 0.9265 0.2942 -0.2348
vn 0.8206 0.2944 0.4899
vn 0.9288 0.2944 -0.2252
vn 0.8155 0.2942 0.4983
vn 0.4984 0.2942 -0.8155
vn 0.9288 0.2944 -0.2253
vn 0.4900 0.2944 -0.8205
vn 0.9287 0.2944 -0.2253
vn 0.9264 0.2942 -0.2349
vn -0.8205 0.2944 -0.4900
vn -0.2349 0.2942 -0.9264
vn -0.2253 0.2944 -0.9288
vn -0.8155 0.2942 -0.4984
vn -0.4984 0.2942 0.8155
vn -0.9288 0.2944 0.2253
vn -0.4900 0.2944 0.8205
vn -0.9264 0.2942 0.2349
vn -0.2252 0.2944 -0.9288
vn 0.4983 0.2943 -0.8155
vn 0.4899 0.2944 -0.8206
vn 0.4983 0.2942 -0.8155
vn -0.2348 0.2942 -0.9265
vn -0.8205 0.2944 -0.4899
vn -0.9265 0.2942 0.2348
vn -0.8206 0.2944 -0.4899
vn -0.9288 0.2944 0.2252
vn -0.2407 -0.0513 -0.9692
vn -0.8555 -0.0512 -0.5152
vn -0.2390 -0.0513 -0.9697
vn -0.8555 -0.0513 -0.5152
vn -0.2408 -0.0513 -0.9692
vn -0.8546 -0.0513 -0.5167
vn -0.9692 -0.0512 0.2407
vn -0.8556 -0.0513 -0.5152
vn -0.8546 -0.0512 -0.5167
vn -0.9692 -0.0513 0.2407
vn -0.9697 -0.0512 0.2390
vn 0.2390 -0.0512 0.9697
vn 0.8546 -0.0513 0.5167
vn 0.8555 -0.0513 0.5152
vn 0.2407 -0.0513 0.9692
vn 0.5152 -0.0513 -0.8555
vn 0.9692 -0.0513 -0.2408
vn 0.5167 -0.0513 -0.8546
vn 0.9692 -0.0513 -0.2407
vn 0.5152 -0.0512 -0.8555
vn 0.9697 -0.0513 -0.2390
vn 0.2390 -0.0513 0.9697
vn -0.5167 -0.0513 0.8546
vn -0.5152 -0.0513 0.8556
vn -0.2390 -0.0512 -0.9697
vn 0.5152 -0.0513 -0.8556
vn -0.2407 -0.0512 -0.9692
vn 0.8556 -0.0513 0.5152
vn 0.9697 -0.0512 -0.2390
vn 0.9692 -0.0512 -0.2407
vn 0.8546 -0.0512 0.5167
vn -0.5152 -0.0513 0.8555
vn -0.9692 -0.0513 0.2408
vn -0.5152 -0.0512 0.8555
vn -0.9697 -0.0513 0.2390
vn -0.0000 1.0000 -0.0000
vn 0.9044 0.4042 0.1369
vn 0.5427 0.4042 0.7362
vn 0.5427 0.4043 0.7362
vn -0.7363 0.4042 0.5427
vn -0.9044 0.4042 -0.1368
vn -0.5427 0.4042 -0.7362
vn -0.9044 0.4042 -0.1369
vn -0.5427 0.4043 -0.7362
vn 0.7363 0.4042 -0.5427
vn 0.9044 0.4042 0.1368
vn 0.9043 0.4043 0.1368
vn -0.1369 0.4042 0.9044
vn -0.7362 0.4042 0.5427
vn -0.7362 0.4043 0.5427
vn 0.1369 0.4042 -0.9044
vn 0.7362 0.4042 -0.5427
vn -0.1368 0.4042 0.9044
vn 0.5427 0.4042 0.7363
vn -0.5427 0.4042 -0.7363
vn 0.1368 0.4042 -0.9044
vn -0.3790 0.3228 0.8673
vn -0.9406 0.3228 0.1054
vn 0.9406 0.3228 -0.1054
vn 0.5616 0.3228 0.7619
vn 0.5616 0.3228 0.7618
vn 0.3790 0.3228 -0.8673
vn -0.5616 0.3228 -0.7618
vn -0.5616 0.3228 -0.7619
vn 0.4081 0.7260 0.5536
vn -0.3805 0.3115 0.8708
vn 0.5638 0.3115 0.7649
vn -0.3805 0.3115 0.8707
vn -0.2754 0.7260 0.6302
vn -0.5638 0.3115 -0.7649
vn -0.6835 0.7260 0.0766
vn -0.4080 0.7260 -0.5536
vn -0.6834 0.7260 0.0766
vn -0.9443 0.3115 0.1058
vn 0.2753 0.7260 -0.6302
vn 0.9443 0.3115 -0.1059
vn 0.3805 0.3115 -0.8707
vn 0.6835 0.7260 -0.0766
vn 0.6834 0.7260 -0.0766
vn 0.9443 0.3115 -0.1058
vn 0.6834 0.7260 -0.0767
vn 0.4080 0.7260 0.5536
vn 0.6835 0.7259 -0.0766
vn -0.2754 0.7259 0.6302
vn 0.4080 0.7259 0.5536
vn -0.6835 0.7259 0.0766
vn 0.2754 0.7259 -0.6302
vn -0.4080 0.7259 -0.5536
vn -0.5638 0.3116 -0.7649
vn 0.2754 0.7260 -0.6302
vn 0.3805 0.3115 -0.8708
vn 0.2753 0.7260 -0.6301
vn -0.4081 0.7260 -0.5535
vn -0.2753 0.7260 0.6302
vn -0.9443 0.3115 0.1059
vn 0.8673 0.3228 0.3790
vn 0.1054 0.3228 0.9406
vn 0.7618 0.3228 -0.5616
vn 0.7619 0.3228 -0.5616
vn -0.7618 0.3228 0.5616
vn -0.8673 0.3228 -0.3790
vn -0.7619 0.3228 0.5616
vn -0.1054 0.3228 -0.9406
vn -0.3454 0.5060 0.7904
vn -0.8571 0.5060 0.0961
vn -0.7176 0.4530 0.5290
vn -0.8572 0.5060 0.0961
vn 0.7176 -0.4530 -0.5290
vn 0.8572 -0.5060 -0.0961
vn 0.3454 -0.5060 -0.7903
vn 0.3454 -0.5060 -0.7904
vn -0.0993 0.4530 -0.8860
vn 0.3454 0.5061 -0.7903
vn 0.3454 0.5060 -0.7903
vn -0.5118 0.5060 -0.6943
vn -0.3454 -0.5060 0.7903
vn 0.0993 -0.4530 0.8860
vn 0.5118 -0.5060 0.6943
vn -0.3454 -0.5060 0.7904
vn -0.8169 0.4530 -0.3570
vn 0.8571 -0.5060 -0.0961
vn 0.8169 -0.4530 0.3570
vn 0.5118 0.5060 0.6943
vn 0.0993 0.4529 0.8860
vn 0.0993 0.4530 0.8860
vn -0.3454 0.5060 0.7903
vn -0.5118 -0.5060 -0.6943
vn -0.0993 -0.4529 -0.8860
vn -0.0993 -0.4530 -0.8860
vn 0.3454 0.5060 -0.7904
vn 0.8571 0.5060 -0.0961
vn 0.7176 0.4530 -0.5290
vn 0.8572 0.5060 -0.0961
vn -0.7176 -0.4530 0.5290
vn -0.8572 -0.5060 0.0961
vn 0.8169 0.4530 0.3570
vn -0.8169 -0.4530 -0.3570
vn -0.8571 -0.5060 0.0961
vn -0.0961 0.5060 -0.8572
vn 0.6943 0.5060 -0.5118
vn 0.3570 0.4530 -0.8169
vn -0.3570 -0.4530 0.8169
vn -0.6943 -0.5060 0.5118
vn 0.0961 -0.5060 0.8572
vn 0.0961 -0.5060 0.8571
vn 0.7903 0.5060 0.3454
vn 0.5290 0.4530 0.7176
vn 0.7904 0.5060 0.3454
vn 0.0961 0.5061 0.8571
vn 0.0961 0.5060 0.8571
vn -0.7903 -0.5060 -0.3454
vn -0.5290 -0.4530 -0.7176
vn -0.7903 -0.5061 -0.3454
vn -0.0961 -0.5060 -0.8572
vn -0.7904 -0.5060 -0.3454
vn -0.0961 -0.5060 -0.8571
vn -0.6943 0.5060 0.5118
vn -0.7903 0.5060 -0.3454
vn -0.8860 0.4530 0.0993
vn -0.7904 0.5060 -0.3454
vn 0.8860 -0.4530 -0.0993
vn 0.7904 -0.5060 0.3454
vn 0.6943 -0.5060 -0.5118
vn -0.5290 0.4530 -0.7176
vn -0.0961 0.5061 -0.8571
vn -0.0961 0.5060 -0.8571
vn -0.5290 0.4529 -0.7176
vn 0.5290 -0.4530 0.7176
vn 0.5290 -0.4529 0.7176
vn 0.7903 -0.5060 0.3454
vn 0.0961 0.5060 0.8572
vn -0.3570 0.4529 0.8169
vn 0.3570 -0.4530 -0.8169
vn -0.0961 -0.5061 -0.8571
vn 0.8860 0.4530 -0.0993
vn -0.8860 -0.4530 0.0993
vn -0.0993 0.4529 -0.8860
vn 0.0993 -0.4529 0.8860
vn -0.3454 0.5061 0.7903
vt 0.593750 0.025000
vt 0.593750 0.104996
vt 0.593750 0.225000
vt 0.093750 0.475000
vt 0.093750 0.275000
vt 0.093750 0.425000
vt 0.093750 0.348778
vt 0.093750 0.338765
vt 0.093750 0.344099
vt 0.093750 0.375000
vt 0.093750 0.325000
s 0
usemtl colormap.002
f 3/1/1 2/1/1 1/1/1
f 2/1/1 3/1/1 4/1/1
f 4/1/1 3/1/1 5/1/1
f 4/1/1 5/1/1 6/1/1
f 6/1/1 5/1/1 7/1/1
f 6/1/1 7/1/1 8/1/1
f 9/2/2 1/1/3 2/1/4
f 1/1/5 9/2/2 10/2/6
f 11/2/7 1/1/8 10/2/9
f 1/1/8 11/2/10 3/1/11
f 12/2/12 2/1/13 4/1/14
f 2/1/4 12/2/12 9/2/15
f 13/2/16 4/1/17 6/1/18
f 4/1/19 13/2/16 12/2/20
f 7/1/21 14/2/22 8/1/23
f 14/2/22 7/1/21 15/2/24
f 11/2/25 5/1/26 3/1/27
f 5/1/26 11/2/25 16/2/28
f 8/1/29 13/2/30 6/1/31
f 13/2/32 8/1/29 14/2/33
f 7/1/34 16/2/35 15/2/24
f 16/2/35 7/1/36 5/1/37
f 14/2/38 18/3/39 17/3/40
f 18/3/41 14/2/42 15/2/43
f 16/2/44 18/3/45 15/2/46
f 18/3/45 16/2/47 19/3/48
f 21/3/49 9/2/50 20/3/51
f 9/2/50 21/3/49 10/2/52
f 22/3/53 12/2/54 13/2/55
f 12/2/56 22/3/57 23/3/58
f 21/3/59 11/2/60 10/2/52
f 11/2/60 21/3/49 24/3/61
f 13/2/55 17/3/62 22/3/63
f 17/3/40 13/2/55 14/2/64
f 20/3/65 12/2/56 23/3/66
f 12/2/67 20/3/65 9/2/68
f 24/3/69 16/2/70 11/2/60
f 16/2/70 24/3/71 19/3/72
f 27/4/73 26/4/73 25/4/73
f 26/4/73 27/4/73 28/4/73
f 26/4/73 28/4/73 29/4/73
f 29/4/73 28/4/73 30/4/73
f 29/4/73 30/4/73 31/4/73
f 31/4/73 30/4/73 32/4/73
f 35/5/1 34/5/1 33/5/1
f 34/5/1 35/5/1 36/5/1
f 34/5/1 36/5/1 37/5/1
f 37/5/1 36/5/1 38/5/1
f 37/5/1 38/5/1 39/5/1
f 39/5/1 38/5/1 40/5/1
f 27/4/74 33/5/75 34/5/74
f 33/5/75 27/4/74 25/4/76
f 29/4/77 38/5/78 36/5/77
f 38/5/78 29/4/77 31/4/78
f 40/5/79 31/4/80 32/4/81
f 31/4/80 40/5/79 38/5/80
f 28/4/82 34/5/83 37/5/82
f 34/5/83 28/4/82 27/4/84
f 26/4/85 36/5/86 35/5/85
f 36/5/86 26/4/85 29/4/87
f 30/4/88 37/5/89 39/5/88
f 37/5/82 30/4/88 28/4/89
f 26/4/90 33/5/76 25/4/91
f 33/5/91 26/4/90 35/5/90
f 40/5/92 30/4/93 39/5/93
f 30/4/93 40/5/81 32/4/92
f 43/6/94 42/7/95 41/7/94
f 42/7/95 43/6/94 44/6/95
f 47/6/96 46/7/97 45/7/96
f 46/7/98 47/6/96 48/6/98
f 50/6/99 45/7/96 49/7/99
f 45/7/96 50/6/99 47/6/96
f 48/6/97 41/7/94 46/7/97
f 41/7/94 48/6/97 43/6/94
f 52/7/100 44/6/95 51/6/100
f 44/6/95 52/7/101 42/7/95
f 52/7/101 50/6/99 49/7/99
f 50/6/99 52/7/100 51/6/101
f 41/7/1 45/7/1 46/7/1
f 45/7/1 41/7/1 42/7/1
f 45/7/1 42/7/1 49/7/1
f 49/7/1 42/7/1 52/7/1
f 55/6/102 54/8/103 53/8/104
f 54/8/105 55/6/102 56/6/106
f 59/8/107 58/6/108 57/6/109
f 58/6/110 59/8/107 60/8/111
f 63/6/112 62/8/113 61/8/114
f 62/8/113 63/6/112 64/6/115
f 64/6/116 53/8/104 62/8/117
f 53/8/104 64/6/118 55/6/119
f 64/6/120 56/6/121 55/6/122
f 56/6/121 64/6/120 58/6/123
f 58/6/123 64/6/120 63/6/124
f 58/6/108 63/6/124 57/6/125
f 59/8/126 63/6/127 61/8/128
f 63/6/129 59/8/107 57/6/130
f 54/8/1 62/8/1 53/8/1
f 62/8/1 54/8/1 60/8/1
f 62/8/1 60/8/1 61/8/1
f 61/8/1 60/8/1 59/8/1
f 56/6/131 60/8/132 54/8/105
f 60/8/132 56/6/131 58/6/108
f 67/6/133 66/9/134 65/9/133
f 66/9/134 67/6/133 68/6/134
f 70/6/135 65/9/133 69/9/136
f 65/9/133 70/6/136 67/6/133
f 68/6/134 71/9/137 66/9/134
f 71/9/137 68/6/134 72/6/137
f 72/6/137 73/9/138 71/9/139
f 73/9/138 72/6/139 74/6/138
f 71/9/1 65/9/1 66/9/1
f 65/9/1 71/9/1 69/9/1
f 69/9/1 71/9/1 73/9/1
f 69/9/1 73/9/1 75/9/1
f 76/6/140 69/9/135 75/9/140
f 69/9/135 76/6/140 70/6/135
f 73/9/138 76/6/140 75/9/140
f 76/6/140 73/9/138 74/6/138
f 79/10/141 78/10/142 77/11/143
f 78/10/144 79/10/141 41/6/141
f 78/10/144 41/6/141 42/6/144
f 77/11/145 78/10/146 79/10/147
f 41/6/148 79/10/148 78/10/146
f 42/6/146 41/6/148 78/10/146
f 81/11/149 49/6/150 80/10/151
f 49/6/151 81/11/149 52/6/152
f 52/6/152 81/11/149 82/10/152
f 80/10/153 49/6/153 81/11/154
f 52/6/155 81/11/154 49/6/156
f 82/10/155 81/11/154 52/6/155
f 82/10/152 42/6/144 52/6/152
f 42/6/144 82/10/152 83/11/157
f 42/6/142 83/11/157 78/10/144
f 52/6/155 42/6/158 82/10/155
f 83/11/159 82/10/155 42/6/146
f 78/10/146 83/11/159 42/6/158
f 46/6/160 85/11/161 84/10/160
f 85/11/162 46/6/160 41/6/163
f 85/11/162 41/6/163 79/10/141
f 84/10/164 85/11/165 46/6/164
f 41/6/148 46/6/164 85/11/166
f 79/10/148 41/6/148 85/11/166
f 80/10/167 87/10/168 86/11/169
f 87/10/170 80/10/167 49/6/167
f 87/10/170 49/6/167 45/6/170
f 86/11/171 87/10/172 80/10/156
f 49/6/156 80/10/156 87/10/172
f 45/6/172 49/6/153 87/10/172
f 45/6/168 88/11/173 87/10/170
f 88/11/173 45/6/170 46/6/160
f 88/11/173 46/6/160 84/10/160
f 87/10/172 88/11/174 45/6/175
f 46/6/164 45/6/172 88/11/174
f 84/10/164 46/6/164 88/11/174
f 91/10/176 90/10/177 89/11/178
f 90/10/177 91/10/176 75/6/176
f 90/10/177 75/6/176 69/6/177
f 89/11/179 90/10/180 91/10/181
f 75/6/181 91/10/181 90/10/180
f 69/6/180 75/6/182 90/10/180
f 65/6/183 93/11/184 92/10/185
f 93/11/184 65/6/185 66/6/186
f 93/11/184 66/6/186 94/10/187
f 92/10/188 93/11/189 65/6/190
f 66/6/191 65/6/192 93/11/189
f 94/10/191 66/6/193 93/11/189
f 97/10/194 96/10/195 95/11/196
f 96/10/197 97/10/194 71/6/194
f 96/10/197 71/6/194 73/6/197
f 95/11/198 96/10/199 97/10/200
f 71/6/200 97/10/200 96/10/199
f 73/6/199 71/6/200 96/10/199
f 98/11/201 75/6/202 91/10/203
f 75/6/203 98/11/204 73/6/197
f 73/6/197 98/11/201 96/10/197
f 91/10/181 75/6/182 98/11/205
f 73/6/199 98/11/206 75/6/181
f 96/10/199 98/11/205 73/6/207
f 94/10/208 97/10/194 99/11/209
f 97/10/194 94/10/208 66/6/208
f 97/10/194 66/6/187 71/6/194
f 99/11/210 97/10/200 94/10/191
f 66/6/191 94/10/191 97/10/200
f 71/6/200 66/6/211 97/10/200
f 90/10/177 92/10/183 100/11/212
f 92/10/185 90/10/177 69/6/177
f 92/10/185 69/6/177 65/6/185
f 100/11/213 92/10/192 90/10/180
f 69/6/180 90/10/180 92/10/192
f 65/6/192 69/6/180 92/10/192
f 102/11/149 61/6/150 101/10/167
f 61/6/151 102/11/149 59/6/152
f 59/6/152 102/11/214 103/10/152
f 101/10/156 61/6/153 102/11/154
f 59/6/155 102/11/154 61/6/156
f 103/10/155 102/11/215 59/6/155
f 103/10/152 60/6/144 59/6/152
f 60/6/144 103/10/152 104/11/157
f 60/6/144 104/11/157 105/10/144
f 59/6/155 60/6/146 103/10/155
f 104/11/159 103/10/155 60/6/146
f 105/10/146 104/11/159 60/6/158
f 62/6/170 107/11/173 106/10/170
f 107/11/173 62/6/170 53/6/160
f 107/11/173 53/6/160 108/10/160
f 106/10/172 107/11/174 62/6/175
f 53/6/164 62/6/172 107/11/174
f 108/10/164 53/6/164 107/11/174
f 110/10/163 105/10/142 109/11/143
f 105/10/144 110/10/141 54/6/141
f 105/10/144 54/6/141 60/6/144
f 109/11/145 105/10/146 110/10/147
f 54/6/148 110/10/148 105/10/146
f 60/6/146 54/6/148 105/10/146
f 101/10/151 106/10/168 111/11/169
f 106/10/170 101/10/167 61/6/167
f 106/10/170 61/6/167 62/6/170
f 111/11/171 106/10/172 101/10/153
f 61/6/156 101/10/156 106/10/172
f 62/6/172 61/6/156 106/10/172
f 53/6/160 112/11/161 108/10/160
f 112/11/162 53/6/160 54/6/216
f 112/11/162 54/6/163 110/10/141
f 108/10/164 112/11/166 53/6/164
f 54/6/148 53/6/164 112/11/166
f 110/10/148 54/6/147 112/11/166
f 3/1/1 2/1/1 1/1/1
f 2/1/1 3/1/1 4/1/1
f 4/1/1 3/1/1 5/1/1
f 4/1/1 5/1/1 6/1/1
f 6/1/1 5/1/1 7/1/1
f 6/1/1 7/1/1 8/1/1
f 9/2/2 1/1/3 2/1/4
f 1/1/5 9/2/2 10/2/6
f 11/2/7 1/1/8 10/2/9
f 1/1/8 11/2/10 3/1/11
f 12/2/12 2/1/13 4/1/14
f 2/1/4 12/2/12 9/2/15
f 13/2/16 4/1/17 6/1/18
f 4/1/19 13/2/16 12/2/20
f 7/1/21 14/2/22 8/1/23
f 14/2/22 7/1/21 15/2/24
f 11/2/25 5/1/26 3/1/27
f 5/1/26 11/2/25 16/2/28
f 8/1/29 13/2/30 6/1/31
f 13/2/32 8/1/29 14/2/33
f 7/1/34 16/2/35 15/2/24
f 16/2/35 7/1/36 5/1/37
f 14/2/38 18/3/39 17/3/40
f 18/3/41 14/2/42 15/2/43
f 16/2/44 18/3/45 15/2/46
f 18/3/45 16/2/47 19/3/48
f 21/3/49 9/2/50 20/3/51
f 9/2/50 21/3/49 10/2/52
f 22/3/53 12/2/54 13/2/55
f 12/2/56 22/3/57 23/3/58
f 21/3/59 11/2/60 10/2/52
f 11/2/60 21/3/49 24/3/61
f 13/2/55 17/3/62 22/3/63
f 17/3/40 13/2/55 14/2/64
f 20/3/65 12/2/56 23/3/66
f 12/2/67 20/3/65 9/2/68
f 24/3/69 16/2/70 11/2/60
f 16/2/70 24/3/71 19/3/72
f 27/4/73 26/4/73 25/4/73
f 26/4/73 27/4/73 28/4/73
f 26/4/73 28/4/73 29/4/73
f 29/4/73 28/4/73 30/4/73
f 29/4/73 30/4/73 31/4/73
f 31/4/73 30/4/73 32/4/73
f 35/5/1 34/5/1 33/5/1
f 34/5/1 35/5/1 36/5/1
f 34/5/1 36/5/1 37/5/1
f 37/5/1 36/5/1 38/5/1
f 37/5/1 38/5/1 39/5/1
f 39/5/1 38/5/1 40/5/1
f 27/4/74 33/5/75 34/5/74
f 33/5/75 27/4/74 25/4/76
f 29/4/77 38/5/78 36/5/77
f 38/5/78 29/4/77 31/4/78
f 40/5/79 31/4/80 32/4/81
f 31/4/80 40/5/79 38/5/80
f 28/4/82 34/5/83 37/5/82
f 34/5/83 28/4/82 27/4/84
f 26/4/85 36/5/86 35/5/85
f 36/5/86 26/4/85 29/4/87
f 30/4/88 37/5/89 39/5/88
f 37/5/82 30/4/88 28/4/89
f 26/4/90 33/5/76 25/4/91
f 33/5/91 26/4/90 35/5/90
f 40/5/92 30/4/93 39/5/93
f 30/4/93 40/5/81 32/4/92
f 43/6/94 42/7/95 41/7/94
f 42/7/95 43/6/94 44/6/95
f 47/6/96 46/7/97 45/7/96
f 46/7/98 47/6/96 48/6/98
f 50/6/99 45/7/96 49/7/99
f 45/7/96 50/6/99 47/6/96
f 48/6/97 41/7/94 46/7/97
f 41/7/94 48/6/97 43/6/94
f 52/7/100 44/6/95 51/6/100
f 44/6/95 52/7/101 42/7/95
f 52/7/101 50/6/99 49/7/99
f 50/6/99 52/7/100 51/6/101
f 41/7/1 45/7/1 46/7/1
f 45/7/1 41/7/1 42/7/1
f 45/7/1 42/7/1 49/7/1
f 49/7/1 42/7/1 52/7/1
f 55/6/102 54/8/103 53/8/104
f 54/8/105 55/6/102 56/6/106
f 59/8/107 58/6/108 57/6/109
f 58/6/110 59/8/107 60/8/111
f 63/6/112 62/8/113 61/8/114
f 62/8/113 63/6/112 64/6/115
f 64/6/116 53/8/104 62/8/117
f 53/8/104 64/6/118 55/6/119
f 64/6/120 56/6/121 55/6/122
f 56/6/121 64/6/120 58/6/123
f 58/6/123 64/6/120 63/6/124
f 58/6/108 63/6/124 57/6/125
f 59/8/126 63/6/127 61/8/128
f 63/6/129 59/8/107 57/6/130
f 54/8/1 62/8/1 53/8/1
f 62/8/1 54/8/1 60/8/1
f 62/8/1 60/8/1 61/8/1
f 61/8/1 60/8/1 59/8/1
f 56/6/131 60/8/132 54/8/105
f 60/8/132 56/6/131 58/6/108
f 67/6/133 66/9/134 65/9/133
f 66/9/134 67/6/133 68/6/134
f 70/6/135 65/9/133 69/9/136
f 65/9/133 70/6/136 67/6/133
f 68/6/134 71/9/137 66/9/134
f 71/9/137 68/6/134 72/6/137
f 72/6/137 73/9/138 71/9/139
f 73/9/138 72/6/139 74/6/138
f 71/9/1 65/9/1 66/9/1
f 65/9/1 71/9/1 69/9/1
f 69/9/1 71/9/1 73/9/1
f 69/9/1 73/9/1 75/9/1
f 76/6/140 69/9/135 75/9/140
f 69/9/135 76/6/140 70/6/135
f 73/9/138 76/6/140 75/9/140
f 76/6/140 73/9/138 74/6/138
f 79/10/141 78/10/142 77/11/143
f 78/10/144 79/10/141 41/6/141
f 78/10/144 41/6/141 42/6/144
f 77/11/145 78/10/146 79/10/147
f 41/6/148 79/10/148 78/10/146
f 42/6/146 41/6/148 78/10/146
f 81/11/149 49/6/150 80/10/151
f 49/6/151 81/11/149 52/6/152
f 52/6/152 81/11/149 82/10/152
f 80/10/153 49/6/153 81/11/154
f 52/6/155 81/11/154 49/6/156
f 82/10/155 81/11/154 52/6/155
f 82/10/152 42/6/144 52/6/152
f 42/6/144 82/10/152 83/11/157
f 42/6/142 83/11/157 78/10/144
f 52/6/155 42/6/158 82/10/155
f 83/11/159 82/10/155 42/6/146
f 78/10/146 83/11/159 42/6/158
f 46/6/160 85/11/161 84/10/160
f 85/11/162 46/6/160 41/6/163
f 85/11/162 41/6/163 79/10/141
f 84/10/164 85/11/165 46/6/164
f 41/6/148 46/6/164 85/11/166
f 79/10/148 41/6/148 85/11/166
f 80/10/167 87/10/168 86/11/169
f 87/10/170 80/10/167 49/6/167
f 87/10/170 49/6/167 45/6/170
f 86/11/171 87/10/172 80/10/156
f 49/6/156 80/10/156 87/10/172
f 45/6/172 49/6/153 87/10/172
f 45/6/168 88/11/173 87/10/170
f 88/11/173 45/6/170 46/6/160
f 88/11/173 46/6/160 84/10/160
f 87/10/172 88/11/174 45/6/175
f 46/6/164 45/6/172 88/11/174
f 84/10/164 46/6/164 88/11/174
f 91/10/176 90/10/177 89/11/178
f 90/10/177 91/10/176 75/6/176
f 90/10/177 75/6/176 69/6/177
f 89/11/179 90/10/180 91/10/181
f 75/6/181 91/10/181 90/10/180
f 69/6/180 75/6/182 90/10/180
f 65/6/183 93/11/184 92/10/185
f 93/11/184 65/6/185 66/6/186
f 93/11/184 66/6/186 94/10/187
f 92/10/188 93/11/189 65/6/190
f 66/6/191 65/6/192 93/11/189
f 94/10/191 66/6/193 93/11/189
f 97/10/194 96/10/195 95/11/196
f 96/10/197 97/10/194 71/6/194
f 96/10/197 71/6/194 73/6/197
f 95/11/198 96/10/199 97/10/200
f 71/6/200 97/10/200 96/10/199
f 73/6/199 71/6/200 96/10/199
f 98/11/201 75/6/202 91/10/203
f 75/6/203 98/11/204 73/6/197
f 73/6/197 98/11/201 96/10/197
f 91/10/181 75/6/182 98/11/205
f 73/6/199 98/11/206 75/6/181
f 96/10/199 98/11/205 73/6/207
f 94/10/208 97/10/194 99/11/209
f 97/10/194 94/10/208 66/6/208
f 97/10/194 66/6/187 71/6/194
f 99/11/210 97/10/200 94/10/191
f 66/6/191 94/10/191 97/10/200
f 71/6/200 66/6/211 97/10/200
f 90/10/177 92/10/183 100/11/212
f 92/10/185 90/10/177 69/6/177
f 92/10/185 69/6/177 65/6/185
f 100/11/213 92/10/192 90/10/180
f 69/6/180 90/10/180 92/10/192
f 65/6/192 69/6/180 92/10/192
f 102/11/149 61/6/150 101/10/167
f 61/6/151 102/11/149 59/6/152
f 59/6/152 102/11/214 103/10/152
f 101/10/156 61/6/153 102/11/154
f 59/6/155 102/11/154 61/6/156
f 103/10/155 102/11/215 59/6/155
f 103/10/152 60/6/144 59/6/152
f 60/6/144 103/10/152 104/11/157
f 60/6/144 104/11/157 105/10/144
f 59/6/155 60/6/146 103/10/155
f 104/11/159 103/10/155 60/6/146
f 105/10/146 104/11/159 60/6/158
f 62/6/170 107/11/173 106/10/170
f 107/11/173 62/6/170 53/6/160
f 107/11/173 53/6/160 108/10/160
f 106/10/172 107/11/174 62/6/175
f 53/6/164 62/6/172 107/11/174
f 108/10/164 53/6/164 107/11/174
f 110/10/163 105/10/142 109/11/143
f 105/10/144 110/10/141 54/6/141
f 105/10/144 54/6/141 60/6/144
f 109/11/145 105/10/146 110/10/147
f 54/6/148 110/10/148 105/10/146
f 60/6/146 54/6/148 105/10/146
f 101/10/151 106/10/168 111/11/169
f 106/10/170 101/10/167 61/6/167
f 106/10/170 61/6/167 62/6/170
f 111/11/171 106/10/172 101/10/153
f 61/6/156 101/10/156 106/10/172
f 62/6/172 61/6/156 106/10/172
f 53/6/160 112/11/161 108/10/160
f 112/11/162 53/6/160 54/6/216
f 112/11/162 54/6/163 110/10/141
f 108/10/164 112/11/166 53/6/164
f 54/6/148 53/6/164 112/11/166
f 110/10/148 54/6/147 112/11/166
