# Blender 4.1.1
# www.blender.org
mtllib tree.010.mtl
o tree.010
v -23.152491 -0.382804 -7.366295
v -23.152491 -0.382804 -7.612474
v -23.275581 -0.382804 -7.243206
v -23.275581 -0.382804 -7.735564
v -23.521759 -0.382804 -7.243206
v -23.521759 -0.382804 -7.735564
v -23.644850 -0.382804 -7.366295
v -23.644850 -0.382804 -7.612474
v -23.275581 0.062918 -7.550930
v -23.275581 0.062918 -7.427840
v -23.337126 0.062918 -7.366295
v -23.337126 0.062918 -7.612474
v -23.460215 0.062918 -7.612474
v -23.521759 0.062918 -7.550930
v -23.521759 0.062918 -7.427840
v -23.460215 0.062918 -7.366295
v -23.552532 0.731552 -7.566316
v -23.552532 0.731552 -7.412454
v -23.475601 0.731552 -7.335523
v -23.244808 0.731552 -7.566316
v -23.244808 0.731552 -7.412454
v -23.475601 0.731552 -7.643247
v -23.321739 0.731552 -7.643247
v -23.321739 0.731552 -7.335523
v -23.195215 0.222058 -7.549551
v -23.232178 0.222058 -7.460314
v -23.232178 0.222058 -7.638788
v -23.321415 0.222058 -7.675751
v -23.321415 0.222058 -7.423351
v -23.410652 0.222058 -7.638788
v -23.410652 0.222058 -7.460314
v -23.447617 0.222058 -7.549551
v -23.123734 0.060318 -7.549551
v -23.181633 0.060318 -7.689333
v -23.181633 0.060318 -7.409769
v -23.321415 0.060318 -7.351869
v -23.321415 0.060318 -7.747233
v -23.461197 0.060318 -7.409769
v -23.461197 0.060318 -7.689333
v -23.519098 0.060318 -7.549551
v -23.104069 0.731552 -6.958448
v -23.717142 0.731552 -6.958448
v -23.229748 1.468507 -7.176130
v -23.591463 1.468507 -7.176130
v -23.104069 0.731552 -8.020321
v -22.797533 0.731552 -7.489385
v -23.229748 1.468507 -7.802639
v -23.048889 1.468507 -7.489385
v -23.717142 0.731552 -8.020321
v -23.591463 1.468507 -7.802639
v -23.772320 1.468507 -7.489385
v -24.023678 0.731552 -7.489385
v -23.057106 2.260255 -7.489385
v -23.233856 2.260255 -7.183246
v -23.329355 3.090716 -7.489385
v -23.369980 3.090716 -7.419020
v -23.491856 3.090716 -7.489385
v -23.451231 3.090716 -7.419020
v -23.764103 2.260255 -7.489385
v -23.587355 2.260255 -7.183246
v -23.587355 2.260255 -7.795524
v -23.233856 2.260255 -7.795524
v -23.451231 3.090716 -7.559750
v -23.369980 3.090716 -7.559750
v -22.978949 1.468507 -7.738601
v -22.978949 1.468507 -7.240168
v -23.212816 2.260255 -7.603579
v -23.212816 2.260255 -7.375191
v -23.410604 1.468507 -7.987818
v -23.410604 2.260255 -7.717772
v -23.410604 1.468507 -6.990952
v -23.410604 2.260255 -7.260997
v -23.842260 1.468507 -7.240168
v -23.608395 2.260255 -7.375191
v -23.842260 1.468507 -7.738601
v -23.608395 2.260255 -7.603579
v -23.410604 0.501649 -6.841642
v -23.750860 0.616601 -6.900045
v -23.070349 0.616601 -6.900045
v -23.750860 0.616601 -8.078724
v -23.971567 0.501649 -7.813256
v -24.091116 0.616601 -7.489385
v -23.971567 0.501649 -7.165514
v -22.730095 0.616601 -7.489385
v -22.849644 0.501649 -7.165514
v -23.410604 0.501649 -8.137127
v -23.070349 0.616601 -8.078724
v -22.849644 0.501649 -7.813256
v -23.673916 1.281595 -7.945451
v -23.410604 1.375051 -8.042645
v -23.889744 1.375051 -7.766015
v -22.931467 1.375051 -7.766015
v -22.883986 1.281595 -7.489385
v -22.931467 1.375051 -7.212754
v -23.673916 1.281595 -7.033319
v -23.889744 1.375051 -7.212754
v -23.410604 1.375051 -6.936124
v -23.937225 1.281595 -7.489385
v -23.147295 1.281595 -7.033319
v -23.147295 1.281595 -7.945451
v -23.606796 2.193974 -7.829199
v -23.734056 2.127692 -7.676129
v -23.802988 2.193974 -7.489385
v -23.734056 2.127692 -7.302640
v -23.606796 2.193974 -7.149570
v -23.214413 2.193974 -7.829199
v -23.087154 2.127692 -7.676129
v -23.018221 2.193974 -7.489385
v -23.410604 2.127692 -7.115895
v -23.214413 2.193974 -7.149570
v -23.410604 2.127692 -7.862874
v -23.087154 2.127692 -7.302640
vn -0.0000 -1.0000 -0.0000
vn 0.8851 0.2942 -0.3607
vn 0.8813 0.2944 0.3698
vn 0.8812 0.2944 -0.3698
vn 0.8812 0.2944 0.3698
vn 0.8851 0.2942 0.3607
vn 0.3607 0.2942 0.8850
vn 0.8850 0.2942 0.3608
vn 0.3698 0.2944 0.8812
vn 0.3607 0.2942 -0.8850
vn 0.3698 0.2944 -0.8812
vn 0.8850 0.2942 -0.3608
vn -0.3607 0.2942 -0.8851
vn 0.3698 0.2944 -0.8813
vn -0.3698 0.2944 -0.8812
vn 0.3607 0.2942 -0.8851
vn -0.8813 0.2944 0.3698
vn -0.8851 0.2942 -0.3607
vn -0.8812 0.2944 -0.3698
vn -0.8851 0.2942 0.3607
vn 0.3607 0.2942 0.8851
vn -0.3698 0.2944 0.8813
vn -0.3698 0.2944 0.8812
vn -0.3607 0.2942 0.8851
vn -0.3607 0.2942 -0.8850
vn -0.3608 0.2942 -0.8850
vn -0.8850 0.2942 -0.3607
vn -0.8812 0.2944 0.3698
vn -0.3608 0.2942 0.8850
vn -0.8850 0.2942 0.3607
vn -0.3607 0.2942 0.8850
vn -0.9230 -0.0513 -0.3813
vn -0.9223 -0.0512 0.3829
vn -0.9223 -0.0513 -0.3829
vn -0.9223 -0.0513 0.3829
vn -0.9230 -0.0513 0.3813
vn -0.3814 -0.0512 0.9230
vn -0.9223 -0.0513 0.3830
vn -0.9230 -0.0512 0.3813
vn -0.3813 -0.0513 0.9230
vn -0.3830 -0.0512 0.9223
vn 0.9223 -0.0512 0.3829
vn 0.9230 -0.0513 -0.3813
vn 0.9223 -0.0513 -0.3829
vn 0.9230 -0.0513 0.3813
vn -0.3829 -0.0513 -0.9223
vn 0.3813 -0.0513 -0.9230
vn -0.3813 -0.0513 -0.9230
vn -0.3829 -0.0512 -0.9223
vn 0.3829 -0.0513 -0.9223
vn 0.9223 -0.0513 0.3830
vn 0.3814 -0.0513 0.9230
vn 0.3813 -0.0513 0.9230
vn 0.9223 -0.0512 0.3830
vn 0.3830 -0.0513 0.9223
vn -0.9223 -0.0512 -0.3830
vn -0.3830 -0.0513 -0.9223
vn -0.9223 -0.0513 -0.3830
vn -0.3814 -0.0513 -0.9230
vn 0.9223 -0.0513 -0.3830
vn 0.3830 -0.0512 -0.9223
vn 0.3814 -0.0512 -0.9230
vn 0.9230 -0.0512 -0.3813
vn 0.3829 -0.0513 0.9223
vn 0.3829 -0.0512 0.9223
vn -0.3829 -0.0513 0.9223
vn -0.0000 1.0000 -0.0000
vn 0.6468 0.4042 -0.6468
vn 0.9147 0.4042 -0.0000
vn 0.6468 0.4042 -0.6467
vn 0.9146 0.4043 -0.0000
vn -0.0000 0.4042 0.9147
vn -0.6467 0.4042 0.6468
vn -0.6468 0.4042 0.6468
vn -0.6467 0.4043 0.6468
vn -0.9147 0.4042 -0.0000
vn -0.9146 0.4043 -0.0000
vn -0.6468 0.4042 0.6467
vn -0.0000 0.4042 -0.9147
vn 0.6467 0.4042 -0.6468
vn 0.6468 0.4042 0.6468
vn 0.6467 0.4042 0.6468
vn -0.0000 0.4043 0.9146
vn -0.6468 0.4042 -0.6468
vn -0.6467 0.4042 -0.6468
vn -0.0000 0.4043 -0.9146
vn 0.6468 0.4042 0.6467
vn -0.6468 0.4042 -0.6467
vn 0.4732 0.3228 0.8197
vn -0.4732 0.3228 0.8197
vn 0.4732 0.3228 -0.8196
vn 0.9465 0.3228 -0.0000
vn 0.4732 0.3228 -0.8197
vn -0.4732 0.3228 -0.8197
vn 0.4733 0.3228 0.8197
vn -0.9465 0.3228 -0.0000
vn -0.4733 0.3228 0.8197
vn -0.4733 0.3228 -0.8197
vn 0.6877 0.7260 -0.0000
vn 0.4751 0.3115 0.8229
vn 0.9503 0.3115 -0.0000
vn 0.3438 0.7260 0.5956
vn -0.9502 0.3115 0.0001
vn -0.3438 0.7260 0.5956
vn -0.6877 0.7260 -0.0000
vn -0.9503 0.3115 -0.0000
vn -0.4752 0.3115 0.8229
vn -0.3439 0.7260 -0.5956
vn 0.4751 0.3115 -0.8229
vn -0.4751 0.3115 -0.8229
vn 0.3439 0.7260 -0.5956
vn 0.3438 0.7260 -0.5956
vn 0.9502 0.3115 -0.0000
vn 0.6877 0.7260 0.0001
vn 0.3439 0.7259 -0.5956
vn 0.3439 0.7259 0.5956
vn -0.3439 0.7259 0.5956
vn -0.3439 0.7259 -0.5956
vn -0.9502 0.3115 -0.0000
vn -0.3438 0.7260 -0.5956
vn -0.4752 0.3115 -0.8229
vn -0.9502 0.3115 -0.0001
vn 0.3439 0.7260 0.5956
vn -0.4751 0.3115 0.8229
vn -0.3439 0.7260 0.5956
vn 0.8197 0.3228 -0.4732
vn 0.8197 0.3228 0.4732
vn -0.0000 0.3228 -0.9465
vn 0.8196 0.3228 -0.4732
vn 0.8197 0.3228 -0.4733
vn 0.8196 0.3228 0.4732
vn -0.0000 0.3228 0.9465
vn 0.8197 0.3228 0.4733
vn -0.8196 0.3228 0.4732
vn -0.8197 0.3228 0.4732
vn -0.8196 0.3228 -0.4732
vn -0.8197 0.3228 -0.4732
vn 0.4313 0.5060 0.7470
vn -0.4313 0.5060 0.7470
vn -0.0000 0.4530 0.8915
vn -0.0000 -0.4530 -0.8915
vn 0.4313 -0.5060 -0.7470
vn -0.4313 -0.5060 -0.7470
vn -0.7721 0.4530 -0.4458
vn -0.4313 0.5060 -0.7470
vn -0.8625 0.5060 -0.0000
vn 0.4313 -0.5060 0.7470
vn 0.7721 -0.4530 0.4458
vn 0.8625 -0.5060 -0.0000
vn -0.7721 0.4530 0.4458
vn 0.7721 -0.4530 -0.4458
vn 0.8625 0.5060 -0.0000
vn 0.7721 0.4530 0.4458
vn 0.4313 0.5060 0.7469
vn -0.8625 -0.5060 -0.0000
vn -0.7721 -0.4530 -0.4458
vn 0.4313 0.5060 -0.7470
vn -0.0000 0.4530 -0.8915
vn -0.0000 -0.4530 0.8915
vn -0.4313 -0.5060 0.7470
vn 0.7721 0.4530 -0.4458
vn -0.7721 -0.4530 0.4458
vn -0.7470 0.5060 -0.4313
vn -0.0000 0.5060 -0.8625
vn -0.4458 0.4530 -0.7721
vn 0.4458 -0.4530 0.7721
vn -0.0000 -0.5060 0.8625
vn 0.7470 -0.5060 0.4313
vn 0.7470 0.5060 -0.4313
vn 0.8915 0.4530 -0.0000
vn 0.7470 0.5060 0.4313
vn -0.7470 -0.5060 0.4313
vn -0.8915 -0.4530 -0.0000
vn -0.7470 -0.5060 -0.4313
vn -0.0000 0.5060 0.8625
vn -0.7470 0.5060 0.4313
vn -0.4458 0.4530 0.7721
vn 0.4458 -0.4530 -0.7721
vn 0.7470 -0.5060 -0.4313
vn -0.0000 -0.5060 -0.8625
vn -0.8915 0.4530 -0.0000
vn 0.8915 -0.4530 -0.0000
vn 0.7469 -0.5060 -0.4313
vn 0.4458 0.4530 0.7721
vn -0.4458 -0.4530 -0.7721
vn 0.4458 0.4530 -0.7721
vn -0.4458 -0.4530 0.7721
vn -0.4312 0.5060 -0.7470
vn 0.4312 -0.5060 0.7470
vn 0.7721 -0.4529 0.4458
vn -0.7721 0.4529 0.4458
vn 0.7721 -0.4529 -0.4458
vn 0.4312 -0.5060 -0.7470
vn -0.4312 -0.5060 0.7470
vn -0.0000 0.4529 0.8915
vn -0.0000 -0.4529 -0.8915
vt 0.593750 0.025000
vt 0.593750 0.104996
vt 0.593750 0.225000
vt 0.093750 0.475000
vt 0.093750 0.275000
vt 0.093750 0.425000
vt 0.093750 0.348778
vt 0.093750 0.338765
vt 0.093750 0.344099
vt 0.093750 0.375000
vt 0.093750 0.325000
s 0
usemtl colormap.013
f 3/1/1 2/1/1 1/1/1
f 2/1/1 3/1/1 4/1/1
f 4/1/1 3/1/1 5/1/1
f 4/1/1 5/1/1 6/1/1
f 6/1/1 5/1/1 7/1/1
f 6/1/1 7/1/1 8/1/1
f 9/2/2 1/1/3 2/1/4
f 1/1/5 9/2/2 10/2/6
f 11/2/7 1/1/5 10/2/8
f 1/1/5 11/2/7 3/1/9
f 12/2/10 2/1/4 4/1/11
f 2/1/4 12/2/10 9/2/12
f 13/2/13 4/1/14 6/1/15
f 4/1/11 13/2/13 12/2/16
f 7/1/17 14/2/18 8/1/19
f 14/2/18 7/1/17 15/2/20
f 11/2/21 5/1/22 3/1/9
f 5/1/23 11/2/21 16/2/24
f 8/1/19 13/2/25 6/1/15
f 13/2/26 8/1/19 14/2/27
f 7/1/28 16/2/29 15/2/30
f 16/2/31 7/1/28 5/1/23
f 14/2/32 18/3/33 17/3/34
f 18/3/35 14/2/32 15/2/36
f 16/2/37 18/3/38 15/2/39
f 18/3/38 16/2/40 19/3/41
f 21/3/42 9/2/43 20/3/44
f 9/2/43 21/3/42 10/2/45
f 22/3/46 12/2/47 13/2/48
f 12/2/47 22/3/49 23/3/50
f 21/3/51 11/2/52 10/2/45
f 11/2/53 21/3/54 24/3/55
f 13/2/48 17/3/56 22/3/57
f 17/3/58 13/2/59 14/2/32
f 20/3/60 12/2/47 23/3/61
f 12/2/62 20/3/60 9/2/63
f 24/3/64 16/2/40 11/2/53
f 16/2/40 24/3/65 19/3/66
f 27/4/67 26/4/67 25/4/67
f 26/4/67 27/4/67 28/4/67
f 26/4/67 28/4/67 29/4/67
f 29/4/67 28/4/67 30/4/67
f 29/4/67 30/4/67 31/4/67
f 31/4/67 30/4/67 32/4/67
f 35/5/1 34/5/1 33/5/1
f 34/5/1 35/5/1 36/5/1
f 34/5/1 36/5/1 37/5/1
f 37/5/1 36/5/1 38/5/1
f 37/5/1 38/5/1 39/5/1
f 39/5/1 38/5/1 40/5/1
f 27/4/68 33/5/69 34/5/70
f 33/5/69 27/4/68 25/4/71
f 29/4/72 38/5/73 36/5/72
f 38/5/74 29/4/72 31/4/75
f 40/5/76 31/4/74 32/4/77
f 31/4/78 40/5/76 38/5/78
f 28/4/79 34/5/80 37/5/79
f 34/5/68 28/4/79 27/4/80
f 26/4/81 36/5/72 35/5/82
f 36/5/72 26/4/82 29/4/83
f 30/4/84 37/5/79 39/5/85
f 37/5/79 30/4/84 28/4/86
f 26/4/81 33/5/71 25/4/69
f 33/5/69 26/4/87 35/5/87
f 40/5/76 30/4/88 39/5/88
f 30/4/84 40/5/77 32/4/76
f 43/6/89 42/7/90 41/7/89
f 42/7/90 43/6/89 44/6/90
f 47/6/91 46/7/92 45/7/91
f 46/7/92 47/6/93 48/6/92
f 50/6/94 45/7/93 49/7/94
f 45/7/93 50/6/94 47/6/93
f 48/6/92 41/7/89 46/7/92
f 41/7/95 48/6/92 43/6/95
f 52/7/96 44/6/97 51/6/96
f 44/6/90 52/7/96 42/7/90
f 52/7/96 50/6/94 49/7/94
f 50/6/98 52/7/96 51/6/96
f 41/7/1 45/7/1 46/7/1
f 45/7/1 41/7/1 42/7/1
f 45/7/1 42/7/1 49/7/1
f 49/7/1 42/7/1 52/7/1
f 55/6/99 54/8/100 53/8/101
f 54/8/100 55/6/99 56/6/102
f 59/8/103 58/6/104 57/6/105
f 58/6/104 59/8/106 60/8/107
f 63/6/108 62/8/109 61/8/110
f 62/8/109 63/6/108 64/6/111
f 64/6/112 53/8/113 62/8/109
f 53/8/113 64/6/112 55/6/114
f 64/6/115 56/6/116 55/6/99
f 56/6/116 64/6/115 58/6/117
f 58/6/117 64/6/115 63/6/118
f 58/6/117 63/6/118 57/6/105
f 59/8/119 63/6/120 61/8/121
f 63/6/120 59/8/122 57/6/105
f 54/8/1 62/8/1 53/8/1
f 62/8/1 54/8/1 60/8/1
f 62/8/1 60/8/1 61/8/1
f 61/8/1 60/8/1 59/8/1
f 56/6/123 60/8/124 54/8/100
f 60/8/124 56/6/123 58/6/125
f 67/6/126 66/9/127 65/9/126
f 66/9/127 67/6/126 68/6/127
f 70/6/128 65/9/129 69/9/128
f 65/9/126 70/6/128 67/6/130
f 68/6/131 71/9/132 66/9/127
f 71/9/132 68/6/133 72/6/132
f 72/6/132 73/9/134 71/9/132
f 73/9/135 72/6/132 74/6/135
f 71/9/1 65/9/1 66/9/1
f 65/9/1 71/9/1 69/9/1
f 69/9/1 71/9/1 73/9/1
f 69/9/1 73/9/1 75/9/1
f 76/6/136 69/9/128 75/9/137
f 69/9/128 76/6/137 70/6/128
f 73/9/135 76/6/137 75/9/137
f 76/6/137 73/9/135 74/6/135
f 79/10/138 78/10/139 77/11/140
f 78/10/139 79/10/138 41/6/138
f 78/10/139 41/6/138 42/6/139
f 77/11/141 78/10/142 79/10/143
f 41/6/143 79/10/143 78/10/142
f 42/6/142 41/6/143 78/10/142
f 81/11/144 49/6/145 80/10/145
f 49/6/145 81/11/144 52/6/146
f 52/6/146 81/11/144 82/10/146
f 80/10/147 49/6/147 81/11/148
f 52/6/149 81/11/148 49/6/147
f 82/10/149 81/11/148 52/6/149
f 82/10/146 42/6/139 52/6/146
f 42/6/139 82/10/146 83/11/150
f 42/6/139 83/11/150 78/10/139
f 52/6/149 42/6/142 82/10/149
f 83/11/151 82/10/149 42/6/142
f 78/10/142 83/11/151 42/6/142
f 46/6/152 85/11/153 84/10/152
f 85/11/153 46/6/152 41/6/138
f 85/11/153 41/6/154 79/10/138
f 84/10/155 85/11/156 46/6/155
f 41/6/143 46/6/155 85/11/156
f 79/10/143 41/6/143 85/11/156
f 80/10/145 87/10/157 86/11/158
f 87/10/157 80/10/145 49/6/145
f 87/10/157 49/6/145 45/6/157
f 86/11/159 87/10/160 80/10/147
f 49/6/147 80/10/147 87/10/160
f 45/6/160 49/6/147 87/10/160
f 45/6/157 88/11/161 87/10/157
f 88/11/161 45/6/157 46/6/152
f 88/11/161 46/6/152 84/10/152
f 87/10/160 88/11/162 45/6/160
f 46/6/155 45/6/160 88/11/162
f 84/10/155 46/6/155 88/11/162
f 91/10/163 90/10/164 89/11/165
f 90/10/164 91/10/163 75/6/163
f 90/10/164 75/6/163 69/6/164
f 89/11/166 90/10/167 91/10/168
f 75/6/168 91/10/168 90/10/167
f 69/6/167 75/6/168 90/10/167
f 65/6/169 93/11/170 92/10/169
f 93/11/170 65/6/169 66/6/171
f 93/11/170 66/6/171 94/10/171
f 92/10/172 93/11/173 65/6/172
f 66/6/174 65/6/172 93/11/173
f 94/10/174 66/6/174 93/11/173
f 97/10/175 96/10/176 95/11/177
f 96/10/176 97/10/175 71/6/175
f 96/10/176 71/6/175 73/6/176
f 95/11/178 96/10/179 97/10/180
f 71/6/180 97/10/180 96/10/179
f 73/6/179 71/6/180 96/10/179
f 98/11/181 75/6/163 91/10/163
f 75/6/163 98/11/181 73/6/176
f 73/6/176 98/11/181 96/10/176
f 91/10/168 75/6/168 98/11/182
f 73/6/179 98/11/182 75/6/168
f 96/10/179 98/11/182 73/6/183
f 94/10/171 97/10/175 99/11/184
f 97/10/175 94/10/171 66/6/171
f 97/10/175 66/6/171 71/6/175
f 99/11/185 97/10/180 94/10/174
f 66/6/174 94/10/174 97/10/180
f 71/6/180 66/6/174 97/10/180
f 90/10/164 92/10/169 100/11/186
f 92/10/169 90/10/164 69/6/164
f 92/10/169 69/6/164 65/6/169
f 100/11/187 92/10/172 90/10/167
f 69/6/167 90/10/167 92/10/172
f 65/6/172 69/6/167 92/10/172
f 102/11/144 61/6/188 101/10/145
f 61/6/145 102/11/144 59/6/146
f 59/6/146 102/11/144 103/10/146
f 101/10/147 61/6/189 102/11/190
f 59/6/149 102/11/148 61/6/147
f 103/10/149 102/11/148 59/6/149
f 103/10/146 60/6/139 59/6/146
f 60/6/139 103/10/146 104/11/150
f 60/6/139 104/11/191 105/10/139
f 59/6/149 60/6/142 103/10/149
f 104/11/151 103/10/149 60/6/142
f 105/10/142 104/11/192 60/6/193
f 62/6/157 107/11/161 106/10/157
f 107/11/161 62/6/157 53/6/152
f 107/11/161 53/6/152 108/10/152
f 106/10/160 107/11/162 62/6/194
f 53/6/155 62/6/160 107/11/162
f 108/10/155 53/6/155 107/11/162
f 110/10/138 105/10/139 109/11/195
f 105/10/139 110/10/138 54/6/138
f 105/10/139 54/6/138 60/6/139
f 109/11/196 105/10/142 110/10/143
f 54/6/143 110/10/143 105/10/142
f 60/6/142 54/6/143 105/10/142
f 101/10/145 106/10/157 111/11/158
f 106/10/157 101/10/145 61/6/145
f 106/10/157 61/6/145 62/6/157
f 111/11/159 106/10/160 101/10/147
f 61/6/147 101/10/147 106/10/160
f 62/6/160 61/6/147 106/10/160
f 53/6/152 112/11/153 108/10/152
f 112/11/153 53/6/152 54/6/138
f 112/11/153 54/6/138 110/10/138
f 108/10/155 112/11/156 53/6/155
f 54/6/143 53/6/155 112/11/156
f 110/10/143 54/6/143 112/11/156
f 3/1/1 2/1/1 1/1/1
f 2/1/1 3/1/1 4/1/1
f 4/1/1 3/1/1 5/1/1
f 4/1/1 5/1/1 6/1/1
f 6/1/1 5/1/1 7/1/1
f 6/1/1 7/1/1 8/1/1
f 9/2/2 1/1/3 2/1/4
f 1/1/5 9/2/2 10/2/6
f 11/2/7 1/1/5 10/2/8
f 1/1/5 11/2/7 3/1/9
f 12/2/10 2/1/4 4/1/11
f 2/1/4 12/2/10 9/2/12
f 13/2/13 4/1/14 6/1/15
f 4/1/11 13/2/13 12/2/16
f 7/1/17 14/2/18 8/1/19
f 14/2/18 7/1/17 15/2/20
f 11/2/21 5/1/22 3/1/9
f 5/1/23 11/2/21 16/2/24
f 8/1/19 13/2/25 6/1/15
f 13/2/26 8/1/19 14/2/27
f 7/1/28 16/2/29 15/2/30
f 16/2/31 7/1/28 5/1/23
f 14/2/32 18/3/33 17/3/34
f 18/3/35 14/2/32 15/2/36
f 16/2/37 18/3/38 15/2/39
f 18/3/38 16/2/40 19/3/41
f 21/3/42 9/2/43 20/3/44
f 9/2/43 21/3/42 10/2/45
f 22/3/46 12/2/47 13/2/48
f 12/2/47 22/3/49 23/3/50
f 21/3/51 11/2/52 10/2/45
f 11/2/53 21/3/54 24/3/55
f 13/2/48 17/3/56 22/3/57
f 17/3/58 13/2/59 14/2/32
f 20/3/60 12/2/47 23/3/61
f 12/2/62 20/3/60 9/2/63
f 24/3/64 16/2/40 11/2/53
f 16/2/40 24/3/65 19/3/66
f 27/4/67 26/4/67 25/4/67
f 26/4/67 27/4/67 28/4/67
f 26/4/67 28/4/67 29/4/67
f 29/4/67 28/4/67 30/4/67
f 29/4/67 30/4/67 31/4/67
f 31/4/67 30/4/67 32/4/67
f 35/5/1 34/5/1 33/5/1
f 34/5/1 35/5/1 36/5/1
f 34/5/1 36/5/1 37/5/1
f 37/5/1 36/5/1 38/5/1
f 37/5/1 38/5/1 39/5/1
f 39/5/1 38/5/1 40/5/1
f 27/4/68 33/5/69 34/5/70
f 33/5/69 27/4/68 25/4/71
f 29/4/72 38/5/73 36/5/72
f 38/5/74 29/4/72 31/4/75
f 40/5/76 31/4/74 32/4/77
f 31/4/78 40/5/76 38/5/78
f 28/4/79 34/5/80 37/5/79
f 34/5/68 28/4/79 27/4/80
f 26/4/81 36/5/72 35/5/82
f 36/5/72 26/4/82 29/4/83
f 30/4/84 37/5/79 39/5/85
f 37/5/79 30/4/84 28/4/86
f 26/4/81 33/5/71 25/4/69
f 33/5/69 26/4/87 35/5/87
f 40/5/76 30/4/88 39/5/88
f 30/4/84 40/5/77 32/4/76
f 43/6/89 42/7/90 41/7/89
f 42/7/90 43/6/89 44/6/90
f 47/6/91 46/7/92 45/7/91
f 46/7/92 47/6/93 48/6/92
f 50/6/94 45/7/93 49/7/94
f 45/7/93 50/6/94 47/6/93
f 48/6/92 41/7/89 46/7/92
f 41/7/95 48/6/92 43/6/95
f 52/7/96 44/6/97 51/6/96
f 44/6/90 52/7/96 42/7/90
f 52/7/96 50/6/94 49/7/94
f 50/6/98 52/7/96 51/6/96
f 41/7/1 45/7/1 46/7/1
f 45/7/1 41/7/1 42/7/1
f 45/7/1 42/7/1 49/7/1
f 49/7/1 42/7/1 52/7/1
f 55/6/99 54/8/100 53/8/101
f 54/8/100 55/6/99 56/6/102
f 59/8/103 58/6/104 57/6/105
f 58/6/104 59/8/106 60/8/107
f 63/6/108 62/8/109 61/8/110
f 62/8/109 63/6/108 64/6/111
f 64/6/112 53/8/113 62/8/109
f 53/8/113 64/6/112 55/6/114
f 64/6/115 56/6/116 55/6/99
f 56/6/116 64/6/115 58/6/117
f 58/6/117 64/6/115 63/6/118
f 58/6/117 63/6/118 57/6/105
f 59/8/119 63/6/120 61/8/121
f 63/6/120 59/8/122 57/6/105
f 54/8/1 62/8/1 53/8/1
f 62/8/1 54/8/1 60/8/1
f 62/8/1 60/8/1 61/8/1
f 61/8/1 60/8/1 59/8/1
f 56/6/123 60/8/124 54/8/100
f 60/8/124 56/6/123 58/6/125
f 67/6/126 66/9/127 65/9/126
f 66/9/127 67/6/126 68/6/127
f 70/6/128 65/9/129 69/9/128
f 65/9/126 70/6/128 67/6/130
f 68/6/131 71/9/132 66/9/127
f 71/9/132 68/6/133 72/6/132
f 72/6/132 73/9/134 71/9/132
f 73/9/135 72/6/132 74/6/135
f 71/9/1 65/9/1 66/9/1
f 65/9/1 71/9/1 69/9/1
f 69/9/1 71/9/1 73/9/1
f 69/9/1 73/9/1 75/9/1
f 76/6/136 69/9/128 75/9/137
f 69/9/128 76/6/137 70/6/128
f 73/9/135 76/6/137 75/9/137
f 76/6/137 73/9/135 74/6/135
f 79/10/138 78/10/139 77/11/140
f 78/10/139 79/10/138 41/6/138
f 78/10/139 41/6/138 42/6/139
f 77/11/141 78/10/142 79/10/143
f 41/6/143 79/10/143 78/10/142
f 42/6/142 41/6/143 78/10/142
f 81/11/144 49/6/145 80/10/145
f 49/6/145 81/11/144 52/6/146
f 52/6/146 81/11/144 82/10/146
f 80/10/147 49/6/147 81/11/148
f 52/6/149 81/11/148 49/6/147
f 82/10/149 81/11/148 52/6/149
f 82/10/146 42/6/139 52/6/146
f 42/6/139 82/10/146 83/11/150
f 42/6/139 83/11/150 78/10/139
f 52/6/149 42/6/142 82/10/149
f 83/11/151 82/10/149 42/6/142
f 78/10/142 83/11/151 42/6/142
f 46/6/152 85/11/153 84/10/152
f 85/11/153 46/6/152 41/6/138
f 85/11/153 41/6/154 79/10/138
f 84/10/155 85/11/156 46/6/155
f 41/6/143 46/6/155 85/11/156
f 79/10/143 41/6/143 85/11/156
f 80/10/145 87/10/157 86/11/158
f 87/10/157 80/10/145 49/6/145
f 87/10/157 49/6/145 45/6/157
f 86/11/159 87/10/160 80/10/147
f 49/6/147 80/10/147 87/10/160
f 45/6/160 49/6/147 87/10/160
f 45/6/157 88/11/161 87/10/157
f 88/11/161 45/6/157 46/6/152
f 88/11/161 46/6/152 84/10/152
f 87/10/160 88/11/162 45/6/160
f 46/6/155 45/6/160 88/11/162
f 84/10/155 46/6/155 88/11/162
f 91/10/163 90/10/164 89/11/165
f 90/10/164 91/10/163 75/6/163
f 90/10/164 75/6/163 69/6/164
f 89/11/166 90/10/167 91/10/168
f 75/6/168 91/10/168 90/10/167
f 69/6/167 75/6/168 90/10/167
f 65/6/169 93/11/170 92/10/169
f 93/11/170 65/6/169 66/6/171
f 93/11/170 66/6/171 94/10/171
f 92/10/172 93/11/173 65/6/172
f 66/6/174 65/6/172 93/11/173
f 94/10/174 66/6/174 93/11/173
f 97/10/175 96/10/176 95/11/177
f 96/10/176 97/10/175 71/6/175
f 96/10/176 71/6/175 73/6/176
f 95/11/178 96/10/179 97/10/180
f 71/6/180 97/10/180 96/10/179
f 73/6/179 71/6/180 96/10/179
f 98/11/181 75/6/163 91/10/163
f 75/6/163 98/11/181 73/6/176
f 73/6/176 98/11/181 96/10/176
f 91/10/168 75/6/168 98/11/182
f 73/6/179 98/11/182 75/6/168
f 96/10/179 98/11/182 73/6/183
f 94/10/171 97/10/175 99/11/184
f 97/10/175 94/10/171 66/6/171
f 97/10/175 66/6/171 71/6/175
f 99/11/185 97/10/180 94/10/174
f 66/6/174 94/10/174 97/10/180
f 71/6/180 66/6/174 97/10/180
f 90/10/164 92/10/169 100/11/186
f 92/10/169 90/10/164 69/6/164
f 92/10/169 69/6/164 65/6/169
f 100/11/187 92/10/172 90/10/167
f 69/6/167 90/10/167 92/10/172
f 65/6/172 69/6/167 92/10/172
f 102/11/144 61/6/188 101/10/145
f 61/6/145 102/11/144 59/6/146
f 59/6/146 102/11/144 103/10/146
f 101/10/147 61/6/189 102/11/190
f 59/6/149 102/11/148 61/6/147
f 103/10/149 102/11/148 59/6/149
f 103/10/146 60/6/139 59/6/146
f 60/6/139 103/10/146 104/11/150
f 60/6/139 104/11/191 105/10/139
f 59/6/149 60/6/142 103/10/149
f 104/11/151 103/10/149 60/6/142
f 105/10/142 104/11/192 60/6/193
f 62/6/157 107/11/161 106/10/157
f 107/11/161 62/6/157 53/6/152
f 107/11/161 53/6/152 108/10/152
f 106/10/160 107/11/162 62/6/194
f 53/6/155 62/6/160 107/11/162
f 108/10/155 53/6/155 107/11/162
f 110/10/138 105/10/139 109/11/195
f 105/10/139 110/10/138 54/6/138
f 105/10/139 54/6/138 60/6/139
f 109/11/196 105/10/142 110/10/143
f 54/6/143 110/10/143 105/10/142
f 60/6/142 54/6/143 105/10/142
f 101/10/145 106/10/157 111/11/158
f 106/10/157 101/10/145 61/6/145
f 106/10/157 61/6/145 62/6/157
f 111/11/159 106/10/160 101/10/147
f 61/6/147 101/10/147 106/10/160
f 62/6/160 61/6/147 106/10/160
f 53/6/152 112/11/153 108/10/152
f 112/11/153 53/6/152 54/6/138
f 112/11/153 54/6/138 110/10/138
f 108/10/155 112/11/156 53/6/155
f 54/6/143 53/6/155 112/11/156
f 110/10/143 54/6/143 112/11/156
