# Blender 4.1.1
# www.blender.org
mtllib brick-wall.012.mtl
o brick-wall.012
v 17.048925 0.182666 -20.417713
v 17.048925 0.182666 -20.354223
v 14.598904 0.182666 -20.417713
v 14.598904 0.182666 -20.354223
v 14.598904 1.387865 -20.721937
v 17.048925 1.387865 -20.721937
v 14.598904 1.632867 -20.721937
v 17.048925 1.632867 -20.721937
v 17.048925 -0.086837 -20.337072
v 17.048925 -0.086837 -20.778076
v 14.598904 -0.086837 -20.337072
v 14.598904 -0.086837 -20.778076
v 17.048925 1.632867 -20.393213
v 14.598904 1.632867 -20.393213
v 17.048925 0.133665 -20.337072
v 14.598904 0.133665 -20.337072
v 17.048925 0.182666 -20.760927
v 17.048925 0.182666 -20.697437
v 14.598904 0.182666 -20.760927
v 14.598904 0.182666 -20.697437
v 14.598904 0.133665 -20.778076
v 17.048925 0.133665 -20.778076
v 17.048925 1.387865 -20.697437
v 14.598904 1.387865 -20.697437
v 17.048925 1.387865 -20.393213
v 17.048925 1.387865 -20.417713
v 14.598904 1.387865 -20.393213
v 14.598904 1.387865 -20.417713
v 14.598904 1.387865 -20.721937
v 14.598904 1.632867 -20.721937
v 14.598904 1.387865 -20.697437
v 14.598904 1.632867 -20.393213
v 14.598904 1.387865 -20.417713
v 14.598904 1.387865 -20.393213
v 14.598904 -0.086837 -20.337072
v 14.598904 0.182666 -20.760927
v 14.598904 0.182666 -20.697437
v 14.598904 0.182666 -20.417713
v 14.598904 0.182666 -20.354223
v 14.598904 0.133665 -20.337072
v 17.048925 1.632867 -20.721937
v 17.048925 1.387865 -20.721937
v 17.048925 1.632867 -20.393213
v 17.048925 1.387865 -20.697437
v 17.048925 1.387865 -20.417713
v 17.048925 1.387865 -20.393213
v 17.048925 -0.086837 -20.337072
v 17.048925 0.182666 -20.760927
v 17.048925 0.182666 -20.697437
v 17.048925 0.182666 -20.417713
v 17.048925 0.182666 -20.354223
v 17.048925 0.133665 -20.337072
v 15.203062 0.404895 -20.354223
v 14.857756 0.404895 -20.354223
v 15.203062 0.576396 -20.354223
v 14.857756 0.576396 -20.354223
v 15.203062 0.404895 -20.417713
v 14.857756 0.404895 -20.417713
v 15.203062 0.576396 -20.417713
v 14.857756 0.576396 -20.417713
v 15.448065 0.649897 -20.354223
v 15.102758 0.649897 -20.354223
v 15.448065 0.821398 -20.354223
v 15.102758 0.821398 -20.354223
v 15.448065 0.649897 -20.417713
v 15.102758 0.649897 -20.417713
v 15.448065 0.821398 -20.417713
v 15.102758 0.821398 -20.417713
v 16.918077 0.894899 -20.354223
v 16.572771 0.894899 -20.354223
v 16.918077 1.066400 -20.354223
v 16.572771 1.066400 -20.354223
v 16.918077 0.894899 -20.417713
v 16.572771 0.894899 -20.417713
v 16.918077 1.066400 -20.417713
v 16.572771 1.066400 -20.417713
v 15.037180 0.522195 -20.760927
v 15.382485 0.522195 -20.760927
v 15.037180 0.693696 -20.760927
v 15.382485 0.693696 -20.760927
v 15.037180 0.522195 -20.697437
v 15.382485 0.522195 -20.697437
v 15.037180 0.693696 -20.697437
v 15.382485 0.693696 -20.697437
v 15.282182 1.012199 -20.760927
v 15.627488 1.012199 -20.760927
v 15.282182 1.183701 -20.760927
v 15.627488 1.183701 -20.760927
v 15.282182 1.012199 -20.697437
v 15.627488 1.012199 -20.697437
v 15.282182 1.183701 -20.697437
v 15.627488 1.183701 -20.697437
v 16.262190 0.522195 -20.760927
v 16.607496 0.522195 -20.760927
v 16.262190 0.693696 -20.760927
v 16.607496 0.693696 -20.760927
v 16.262190 0.522195 -20.697437
v 16.607496 0.522195 -20.697437
v 16.262190 0.693696 -20.697437
v 16.607496 0.693696 -20.697437
vn -0.0000 1.0000 -0.0000
vn -0.0000 -0.0000 -1.0000
vn -0.0000 -1.0000 -0.0000
vn -0.0000 0.3303 0.9439
vn -0.0000 0.1675 0.9859
vn -0.0000 0.1676 0.9859
vn -0.0000 0.3304 0.9438
vn -0.0000 0.3304 -0.9438
vn -0.0000 0.1676 -0.9859
vn -0.0000 0.1675 -0.9859
vn -0.0000 0.3303 -0.9439
vn -0.0000 -0.0000 1.0000
vn -1.0000 -0.0000 -0.0000
vn 1.0000 -0.0000 -0.0000
vn 1.0000 -0.0000 -0.0001
vt 0.843750 0.056343
vt 0.843750 0.225000
vt 0.843750 0.196507
vt 0.843750 0.025000
vt 0.843750 0.050644
vt 0.343750 0.196507
vt 0.343750 0.056343
vt 0.281250 0.125000
s 0
usemtl colormap.097
f 3/1/1 2/1/1 1/1/1
f 2/1/1 3/1/1 4/1/1
f 7/2/2 6/3/2 5/3/2
f 6/3/2 7/2/2 8/2/2
f 11/4/3 10/4/3 9/4/3
f 10/4/3 11/4/3 12/4/3
f 7/2/1 13/2/1 8/2/1
f 13/2/1 7/2/1 14/2/1
f 2/1/4 16/5/5 15/5/5
f 16/5/6 2/1/7 4/1/7
f 19/1/1 18/1/1 17/1/1
f 18/1/1 19/1/1 20/1/1
f 19/1/8 22/5/9 21/5/9
f 22/5/10 19/1/11 17/1/11
f 24/3/3 6/3/3 23/3/3
f 6/3/3 24/3/3 5/3/3
f 27/3/3 26/3/3 25/3/3
f 26/3/3 27/3/3 28/3/3
f 13/2/12 27/3/12 25/3/12
f 27/3/12 13/2/12 14/2/12
f 21/5/10 10/4/2 12/4/2
f 10/4/2 21/5/10 22/5/10
f 15/5/5 11/4/12 9/4/12
f 11/4/12 15/5/5 16/5/5
f 31/3/13 30/2/13 29/3/13
f 30/2/13 31/3/13 32/2/13
f 32/2/13 31/3/13 33/3/13
f 32/2/13 33/3/13 34/3/13
f 35/4/13 21/5/13 12/4/13
f 21/5/13 35/4/13 36/1/13
f 36/1/13 35/4/13 37/1/13
f 37/1/13 35/4/13 38/1/13
f 38/1/13 35/4/13 39/1/13
f 39/1/13 35/4/13 40/5/13
f 43/2/14 42/3/14 41/2/14
f 42/3/14 43/2/14 44/3/14
f 44/3/14 43/2/14 45/3/14
f 45/3/14 43/2/14 46/3/14
f 22/5/14 47/4/14 10/4/14
f 47/4/14 22/5/14 48/1/14
f 47/4/14 48/1/14 49/1/14
f 47/4/14 49/1/14 50/1/14
f 47/4/14 50/1/14 51/1/14
f 47/4/15 51/1/15 52/5/15
f 26/6/12 3/7/12 1/7/12
f 3/7/12 26/6/12 28/6/12
f 24/6/2 18/7/2 20/7/2
f 18/7/2 24/6/2 23/6/2
f 20/7/13 28/6/13 24/6/13
f 28/6/13 20/7/13 3/7/13
f 26/6/14 18/7/14 23/6/14
f 18/7/14 26/6/14 1/7/14
f 55/8/12 54/8/12 53/8/12
f 54/8/12 55/8/12 56/8/12
f 54/8/3 57/8/3 53/8/3
f 57/8/3 54/8/3 58/8/3
f 55/8/14 57/8/14 59/8/14
f 57/8/14 55/8/14 53/8/14
f 60/8/1 55/8/1 59/8/1
f 55/8/1 60/8/1 56/8/1
f 54/8/13 60/8/13 58/8/13
f 60/8/13 54/8/13 56/8/13
f 63/8/12 62/8/12 61/8/12
f 62/8/12 63/8/12 64/8/12
f 62/8/3 65/8/3 61/8/3
f 65/8/3 62/8/3 66/8/3
f 63/8/14 65/8/14 67/8/14
f 65/8/14 63/8/14 61/8/14
f 68/8/1 63/8/1 67/8/1
f 63/8/1 68/8/1 64/8/1
f 62/8/13 68/8/13 66/8/13
f 68/8/13 62/8/13 64/8/13
f 71/8/12 70/8/12 69/8/12
f 70/8/12 71/8/12 72/8/12
f 70/8/3 73/8/3 69/8/3
f 73/8/3 70/8/3 74/8/3
f 71/8/14 73/8/14 75/8/14
f 73/8/14 71/8/14 69/8/14
f 76/8/1 71/8/1 75/8/1
f 71/8/1 76/8/1 72/8/1
f 70/8/13 76/8/13 74/8/13
f 76/8/13 70/8/13 72/8/13
f 79/8/2 78/8/2 77/8/2
f 78/8/2 79/8/2 80/8/2
f 78/8/3 81/8/3 77/8/3
f 81/8/3 78/8/3 82/8/3
f 79/8/13 81/8/13 83/8/13
f 81/8/13 79/8/13 77/8/13
f 84/8/1 79/8/1 83/8/1
f 79/8/1 84/8/1 80/8/1
f 78/8/14 84/8/14 82/8/14
f 84/8/14 78/8/14 80/8/14
f 87/8/2 86/8/2 85/8/2
f 86/8/2 87/8/2 88/8/2
f 86/8/3 89/8/3 85/8/3
f 89/8/3 86/8/3 90/8/3
f 87/8/13 89/8/13 91/8/13
f 89/8/13 87/8/13 85/8/13
f 92/8/1 87/8/1 91/8/1
f 87/8/1 92/8/1 88/8/1
f 86/8/14 92/8/14 90/8/14
f 92/8/14 86/8/14 88/8/14
f 95/8/2 94/8/2 93/8/2
f 94/8/2 95/8/2 96/8/2
f 94/8/3 97/8/3 93/8/3
f 97/8/3 94/8/3 98/8/3
f 95/8/13 97/8/13 99/8/13
f 97/8/13 95/8/13 93/8/13
f 100/8/1 95/8/1 99/8/1
f 95/8/1 100/8/1 96/8/1
f 94/8/14 100/8/14 98/8/14
f 100/8/14 94/8/14 96/8/14
f 3/1/1 2/1/1 1/1/1
f 2/1/1 3/1/1 4/1/1
f 7/2/2 6/3/2 5/3/2
f 6/3/2 7/2/2 8/2/2
f 11/4/3 10/4/3 9/4/3
f 10/4/3 11/4/3 12/4/3
f 7/2/1 13/2/1 8/2/1
f 13/2/1 7/2/1 14/2/1
f 2/1/4 16/5/5 15/5/5
f 16/5/6 2/1/7 4/1/7
f 19/1/1 18/1/1 17/1/1
f 18/1/1 19/1/1 20/1/1
f 19/1/8 22/5/9 21/5/9
f 22/5/10 19/1/11 17/1/11
f 24/3/3 6/3/3 23/3/3
f 6/3/3 24/3/3 5/3/3
f 27/3/3 26/3/3 25/3/3
f 26/3/3 27/3/3 28/3/3
f 13/2/12 27/3/12 25/3/12
f 27/3/12 13/2/12 14/2/12
f 21/5/10 10/4/2 12/4/2
f 10/4/2 21/5/10 22/5/10
f 15/5/5 11/4/12 9/4/12
f 11/4/12 15/5/5 16/5/5
f 31/3/13 30/2/13 29/3/13
f 30/2/13 31/3/13 32/2/13
f 32/2/13 31/3/13 33/3/13
f 32/2/13 33/3/13 34/3/13
f 35/4/13 21/5/13 12/4/13
f 21/5/13 35/4/13 36/1/13
f 36/1/13 35/4/13 37/1/13
f 37/1/13 35/4/13 38/1/13
f 38/1/13 35/4/13 39/1/13
f 39/1/13 35/4/13 40/5/13
f 43/2/14 42/3/14 41/2/14
f 42/3/14 43/2/14 44/3/14
f 44/3/14 43/2/14 45/3/14
f 45/3/14 43/2/14 46/3/14
f 22/5/14 47/4/14 10/4/14
f 47/4/14 22/5/14 48/1/14
f 47/4/14 48/1/14 49/1/14
f 47/4/14 49/1/14 50/1/14
f 47/4/14 50/1/14 51/1/14
f 47/4/15 51/1/15 52/5/15
f 26/6/12 3/7/12 1/7/12
f 3/7/12 26/6/12 28/6/12
f 24/6/2 18/7/2 20/7/2
f 18/7/2 24/6/2 23/6/2
f 20/7/13 28/6/13 24/6/13
f 28/6/13 20/7/13 3/7/13
f 26/6/14 18/7/14 23/6/14
f 18/7/14 26/6/14 1/7/14
f 55/8/12 54/8/12 53/8/12
f 54/8/12 55/8/12 56/8/12
f 54/8/3 57/8/3 53/8/3
f 57/8/3 54/8/3 58/8/3
f 55/8/14 57/8/14 59/8/14
f 57/8/14 55/8/14 53/8/14
f 60/8/1 55/8/1 59/8/1
f 55/8/1 60/8/1 56/8/1
f 54/8/13 60/8/13 58/8/13
f 60/8/13 54/8/13 56/8/13
f 63/8/12 62/8/12 61/8/12
f 62/8/12 63/8/12 64/8/12
f 62/8/3 65/8/3 61/8/3
f 65/8/3 62/8/3 66/8/3
f 63/8/14 65/8/14 67/8/14
f 65/8/14 63/8/14 61/8/14
f 68/8/1 63/8/1 67/8/1
f 63/8/1 68/8/1 64/8/1
f 62/8/13 68/8/13 66/8/13
f 68/8/13 62/8/13 64/8/13
f 71/8/12 70/8/12 69/8/12
f 70/8/12 71/8/12 72/8/12
f 70/8/3 73/8/3 69/8/3
f 73/8/3 70/8/3 74/8/3
f 71/8/14 73/8/14 75/8/14
f 73/8/14 71/8/14 69/8/14
f 76/8/1 71/8/1 75/8/1
f 71/8/1 76/8/1 72/8/1
f 70/8/13 76/8/13 74/8/13
f 76/8/13 70/8/13 72/8/13
f 79/8/2 78/8/2 77/8/2
f 78/8/2 79/8/2 80/8/2
f 78/8/3 81/8/3 77/8/3
f 81/8/3 78/8/3 82/8/3
f 79/8/13 81/8/13 83/8/13
f 81/8/13 79/8/13 77/8/13
f 84/8/1 79/8/1 83/8/1
f 79/8/1 84/8/1 80/8/1
f 78/8/14 84/8/14 82/8/14
f 84/8/14 78/8/14 80/8/14
f 87/8/2 86/8/2 85/8/2
f 86/8/2 87/8/2 88/8/2
f 86/8/3 89/8/3 85/8/3
f 89/8/3 86/8/3 90/8/3
f 87/8/13 89/8/13 91/8/13
f 89/8/13 87/8/13 85/8/13
f 92/8/1 87/8/1 91/8/1
f 87/8/1 92/8/1 88/8/1
f 86/8/14 92/8/14 90/8/14
f 92/8/14 86/8/14 88/8/14
f 95/8/2 94/8/2 93/8/2
f 94/8/2 95/8/2 96/8/2
f 94/8/3 97/8/3 93/8/3
f 97/8/3 94/8/3 98/8/3
f 95/8/13 97/8/13 99/8/13
f 97/8/13 95/8/13 93/8/13
f 100/8/1 95/8/1 99/8/1
f 95/8/1 100/8/1 96/8/1
f 94/8/14 100/8/14 98/8/14
f 100/8/14 94/8/14 96/8/14
