# Blender 4.1.1
# www.blender.org
mtllib tree.004.mtl
o tree.004
v -23.152491 -0.382804 3.293631
v -23.152491 -0.382804 3.047452
v -23.275581 -0.382804 3.416721
v -23.275581 -0.382804 2.924362
v -23.521759 -0.382804 3.416721
v -23.521759 -0.382804 2.924362
v -23.644850 -0.382804 3.293631
v -23.644850 -0.382804 3.047452
v -23.275581 0.062918 3.108997
v -23.275581 0.062918 3.232087
v -23.337126 0.062918 3.293631
v -23.337126 0.062918 3.047452
v -23.460215 0.062918 3.047452
v -23.521759 0.062918 3.108997
v -23.521759 0.062918 3.232087
v -23.460215 0.062918 3.293631
v -23.552532 0.731552 3.093611
v -23.552532 0.731552 3.247473
v -23.475601 0.731552 3.324404
v -23.244808 0.731552 3.093611
v -23.244808 0.731552 3.247473
v -23.475601 0.731552 3.016680
v -23.321739 0.731552 3.016680
v -23.321739 0.731552 3.324404
v -23.195215 0.222058 3.110375
v -23.232178 0.222058 3.199612
v -23.232178 0.222058 3.021138
v -23.321415 0.222058 2.984175
v -23.321415 0.222058 3.236576
v -23.410652 0.222058 3.021138
v -23.410652 0.222058 3.199612
v -23.447617 0.222058 3.110375
v -23.123734 0.060318 3.110375
v -23.181633 0.060318 2.970593
v -23.181633 0.060318 3.250158
v -23.321415 0.060318 3.308057
v -23.321415 0.060318 2.912694
v -23.461197 0.060318 3.250158
v -23.461197 0.060318 2.970593
v -23.519098 0.060318 3.110375
v -23.104069 0.731552 3.701478
v -23.717142 0.731552 3.701478
v -23.229748 1.468507 3.483796
v -23.591463 1.468507 3.483796
v -23.104069 0.731552 2.639605
v -22.797533 0.731552 3.170542
v -23.229748 1.468507 2.857287
v -23.048889 1.468507 3.170542
v -23.717142 0.731552 2.639605
v -23.591463 1.468507 2.857287
v -23.772320 1.468507 3.170542
v -24.023678 0.731552 3.170542
v -23.057106 2.260255 3.170542
v -23.233856 2.260255 3.476681
v -23.329355 3.090716 3.170542
v -23.369980 3.090716 3.240907
v -23.491856 3.090716 3.170542
v -23.451231 3.090716 3.240907
v -23.764103 2.260255 3.170542
v -23.587355 2.260255 3.476681
v -23.587355 2.260255 2.864403
v -23.233856 2.260255 2.864403
v -23.451231 3.090716 3.100176
v -23.369980 3.090716 3.100176
v -22.978949 1.468507 2.921325
v -22.978949 1.468507 3.419758
v -23.212816 2.260255 3.056348
v -23.212816 2.260255 3.284735
v -23.410604 1.468507 2.672108
v -23.410604 2.260255 2.942154
v -23.410604 1.468507 3.668975
v -23.410604 2.260255 3.398929
v -23.842260 1.468507 3.419758
v -23.608395 2.260255 3.284735
v -23.842260 1.468507 2.921325
v -23.608395 2.260255 3.056348
v -23.410604 0.501649 3.818284
v -23.750860 0.616601 3.759881
v -23.070349 0.616601 3.759881
v -23.750860 0.616601 2.581202
v -23.971567 0.501649 2.846670
v -24.091116 0.616601 3.170542
v -23.971567 0.501649 3.494413
v -22.730095 0.616601 3.170542
v -22.849644 0.501649 3.494413
v -23.410604 0.501649 2.522799
v -23.070349 0.616601 2.581202
v -22.849644 0.501649 2.846670
v -23.673916 1.281595 2.714475
v -23.410604 1.375051 2.617281
v -23.889744 1.375051 2.893911
v -22.931467 1.375051 2.893911
v -22.883986 1.281595 3.170542
v -22.931467 1.375051 3.447172
v -23.673916 1.281595 3.626608
v -23.889744 1.375051 3.447172
v -23.410604 1.375051 3.723803
v -23.937225 1.281595 3.170542
v -23.147295 1.281595 3.626608
v -23.147295 1.281595 2.714475
v -23.606796 2.193974 2.830727
v -23.734056 2.127692 2.983797
v -23.802988 2.193974 3.170542
v -23.734056 2.127692 3.357286
v -23.606796 2.193974 3.510356
v -23.214413 2.193974 2.830727
v -23.087154 2.127692 2.983797
v -23.018221 2.193974 3.170542
v -23.410604 2.127692 3.544031
v -23.214413 2.193974 3.510356
v -23.410604 2.127692 2.797052
v -23.087154 2.127692 3.357286
vn -0.0000 -1.0000 -0.0000
vn 0.8851 0.2942 -0.3607
vn 0.8813 0.2944 0.3698
vn 0.8812 0.2944 -0.3698
vn 0.8812 0.2944 0.3698
vn 0.8851 0.2942 0.3607
vn 0.3607 0.2942 0.8850
vn 0.8850 0.2942 0.3608
vn 0.3607 0.2943 0.8850
vn 0.3698 0.2944 0.8812
vn 0.3607 0.2942 -0.8850
vn 0.3698 0.2944 -0.8812
vn 0.8850 0.2942 -0.3608
vn -0.3607 0.2942 -0.8851
vn 0.3698 0.2944 -0.8813
vn -0.3698 0.2944 -0.8812
vn 0.3607 0.2942 -0.8851
vn -0.8813 0.2944 0.3698
vn -0.8851 0.2942 -0.3607
vn -0.8812 0.2944 -0.3698
vn -0.8851 0.2942 0.3607
vn 0.3607 0.2942 0.8851
vn -0.3698 0.2944 0.8813
vn -0.3698 0.2944 0.8812
vn -0.3607 0.2942 0.8851
vn -0.3607 0.2942 -0.8850
vn -0.3608 0.2942 -0.8850
vn -0.8850 0.2942 -0.3607
vn -0.8812 0.2944 0.3698
vn -0.3608 0.2942 0.8850
vn -0.8850 0.2942 0.3607
vn -0.3607 0.2942 0.8850
vn -0.9230 -0.0513 -0.3813
vn -0.9223 -0.0512 0.3829
vn -0.9223 -0.0513 -0.3829
vn -0.9223 -0.0513 0.3829
vn -0.9230 -0.0513 0.3813
vn -0.3814 -0.0512 0.9230
vn -0.9223 -0.0513 0.3830
vn -0.9230 -0.0512 0.3813
vn -0.3813 -0.0513 0.9230
vn -0.3830 -0.0512 0.9223
vn 0.9223 -0.0512 0.3829
vn 0.9230 -0.0513 -0.3813
vn 0.9223 -0.0513 -0.3829
vn 0.9230 -0.0513 0.3813
vn -0.3829 -0.0513 -0.9223
vn 0.3813 -0.0513 -0.9230
vn -0.3813 -0.0513 -0.9230
vn -0.3829 -0.0512 -0.9223
vn 0.3829 -0.0513 -0.9223
vn 0.9223 -0.0513 0.3830
vn 0.3814 -0.0513 0.9230
vn 0.3813 -0.0513 0.9230
vn 0.9223 -0.0512 0.3830
vn 0.3830 -0.0513 0.9223
vn -0.9223 -0.0512 -0.3830
vn -0.3830 -0.0513 -0.9223
vn -0.9223 -0.0513 -0.3830
vn -0.3814 -0.0513 -0.9230
vn 0.9223 -0.0513 -0.3830
vn 0.3830 -0.0512 -0.9223
vn 0.3814 -0.0512 -0.9230
vn 0.9230 -0.0512 -0.3813
vn 0.3829 -0.0513 0.9223
vn 0.3829 -0.0512 0.9223
vn -0.3829 -0.0513 0.9223
vn -0.0000 1.0000 -0.0000
vn 0.6468 0.4042 -0.6468
vn 0.9147 0.4042 -0.0000
vn 0.6468 0.4042 -0.6467
vn 0.9146 0.4043 -0.0000
vn -0.0000 0.4042 0.9147
vn -0.6467 0.4042 0.6468
vn -0.6468 0.4042 0.6468
vn -0.6467 0.4043 0.6468
vn -0.9147 0.4042 -0.0000
vn -0.9146 0.4043 -0.0000
vn -0.6468 0.4042 0.6467
vn -0.0000 0.4042 -0.9147
vn 0.6467 0.4042 -0.6468
vn 0.6467 0.4043 -0.6468
vn 0.6468 0.4042 0.6468
vn 0.6467 0.4042 0.6468
vn -0.0000 0.4043 0.9146
vn -0.6468 0.4042 -0.6468
vn -0.6467 0.4042 -0.6468
vn -0.0000 0.4043 -0.9146
vn 0.6468 0.4042 0.6467
vn -0.6468 0.4042 -0.6467
vn 0.4732 0.3228 0.8197
vn -0.4732 0.3228 0.8197
vn 0.4732 0.3228 -0.8196
vn 0.9465 0.3228 -0.0000
vn 0.4732 0.3228 -0.8197
vn -0.4732 0.3228 -0.8197
vn 0.4733 0.3228 0.8197
vn -0.9465 0.3228 -0.0000
vn -0.4733 0.3228 0.8197
vn -0.4733 0.3228 -0.8197
vn 0.6877 0.7260 -0.0000
vn 0.4751 0.3115 0.8229
vn 0.9503 0.3115 -0.0000
vn 0.3438 0.7260 0.5956
vn -0.9502 0.3115 0.0001
vn -0.3438 0.7260 0.5956
vn -0.6877 0.7260 -0.0000
vn -0.9503 0.3115 -0.0000
vn -0.4752 0.3115 0.8229
vn -0.3439 0.7260 -0.5956
vn 0.4751 0.3115 -0.8229
vn -0.4751 0.3115 -0.8229
vn 0.3439 0.7260 -0.5956
vn 0.3438 0.7260 -0.5956
vn 0.9502 0.3115 -0.0000
vn 0.6877 0.7260 0.0001
vn 0.3439 0.7259 -0.5956
vn 0.3439 0.7259 0.5956
vn 0.6877 0.7259 -0.0000
vn -0.3439 0.7259 0.5956
vn -0.3439 0.7259 -0.5956
vn -0.6877 0.7259 -0.0000
vn -0.9502 0.3115 -0.0000
vn -0.3438 0.7260 -0.5956
vn -0.4752 0.3115 -0.8229
vn -0.9502 0.3115 -0.0001
vn 0.3439 0.7260 0.5956
vn -0.4751 0.3115 0.8229
vn -0.3439 0.7260 0.5956
vn 0.8197 0.3228 -0.4732
vn 0.8197 0.3228 0.4732
vn -0.0000 0.3228 -0.9465
vn 0.8196 0.3228 -0.4732
vn 0.8197 0.3228 -0.4733
vn 0.8196 0.3228 0.4732
vn -0.0000 0.3228 0.9465
vn 0.8197 0.3228 0.4733
vn -0.8196 0.3228 0.4732
vn -0.8197 0.3228 0.4732
vn -0.8196 0.3228 -0.4732
vn -0.8197 0.3228 -0.4732
vn 0.4313 0.5060 0.7470
vn -0.4313 0.5060 0.7470
vn -0.0000 0.4530 0.8915
vn -0.0000 -0.4530 -0.8915
vn 0.4313 -0.5060 -0.7470
vn -0.4313 -0.5060 -0.7470
vn -0.7721 0.4530 -0.4458
vn -0.4313 0.5060 -0.7470
vn -0.8625 0.5060 -0.0000
vn 0.4313 -0.5060 0.7470
vn 0.7721 -0.4530 0.4458
vn 0.8625 -0.5060 -0.0000
vn -0.7721 0.4530 0.4458
vn 0.7721 -0.4530 -0.4458
vn 0.8625 0.5060 -0.0000
vn 0.7721 0.4530 0.4458
vn 0.4313 0.5060 0.7469
vn -0.8625 -0.5060 -0.0000
vn -0.7721 -0.4530 -0.4458
vn 0.4313 0.5060 -0.7470
vn -0.0000 0.4530 -0.8915
vn -0.0000 -0.4530 0.8915
vn -0.4313 -0.5060 0.7470
vn 0.7721 0.4530 -0.4458
vn -0.7721 -0.4530 0.4458
vn -0.4313 -0.5060 0.7469
vn -0.7470 0.5060 -0.4313
vn -0.0000 0.5060 -0.8625
vn -0.4458 0.4530 -0.7721
vn 0.4458 -0.4530 0.7721
vn -0.0000 -0.5060 0.8625
vn 0.7470 -0.5060 0.4313
vn 0.7470 0.5060 -0.4313
vn 0.8915 0.4530 -0.0000
vn 0.7470 0.5060 0.4313
vn -0.7470 -0.5060 0.4313
vn -0.8915 -0.4530 -0.0000
vn -0.7470 -0.5060 -0.4313
vn -0.0000 0.5060 0.8625
vn -0.7470 0.5060 0.4313
vn -0.4458 0.4530 0.7721
vn 0.4458 -0.4530 -0.7721
vn 0.7470 -0.5060 -0.4313
vn -0.0000 -0.5060 -0.8625
vn -0.8915 0.4530 -0.0000
vn -0.7469 0.5060 -0.4313
vn 0.8915 -0.4530 -0.0000
vn 0.4458 0.4530 0.7721
vn -0.4458 -0.4530 -0.7721
vn 0.4458 0.4530 -0.7721
vn -0.4458 -0.4530 0.7721
vn -0.7721 0.4529 -0.4458
vn -0.4312 0.5060 -0.7470
vn 0.4312 -0.5060 0.7470
vn 0.7721 -0.4529 0.4458
vn -0.4312 0.5060 0.7470
vn 0.4312 -0.5060 -0.7470
vn 0.7721 -0.4529 -0.4458
vn -0.4312 -0.5060 0.7470
vn 0.4312 0.5060 0.7470
vt 0.593750 0.025000
vt 0.593750 0.104996
vt 0.593750 0.225000
vt 0.093750 0.475000
vt 0.093750 0.275000
vt 0.093750 0.425000
vt 0.093750 0.348778
vt 0.093750 0.338765
vt 0.093750 0.344099
vt 0.093750 0.375000
vt 0.093750 0.325000
s 0
usemtl colormap.007
f 3/1/1 2/1/1 1/1/1
f 2/1/1 3/1/1 4/1/1
f 4/1/1 3/1/1 5/1/1
f 4/1/1 5/1/1 6/1/1
f 6/1/1 5/1/1 7/1/1
f 6/1/1 7/1/1 8/1/1
f 9/2/2 1/1/3 2/1/4
f 1/1/5 9/2/2 10/2/6
f 11/2/7 1/1/5 10/2/8
f 1/1/5 11/2/9 3/1/10
f 12/2/11 2/1/4 4/1/12
f 2/1/4 12/2/11 9/2/13
f 13/2/14 4/1/15 6/1/16
f 4/1/12 13/2/14 12/2/17
f 7/1/18 14/2/19 8/1/20
f 14/2/19 7/1/18 15/2/21
f 11/2/22 5/1/23 3/1/10
f 5/1/24 11/2/22 16/2/25
f 8/1/20 13/2/26 6/1/16
f 13/2/27 8/1/20 14/2/28
f 7/1/29 16/2/30 15/2/31
f 16/2/32 7/1/29 5/1/24
f 14/2/33 18/3/34 17/3/35
f 18/3/36 14/2/33 15/2/37
f 16/2/38 18/3/39 15/2/40
f 18/3/39 16/2/41 19/3/42
f 21/3/43 9/2/44 20/3/45
f 9/2/44 21/3/43 10/2/46
f 22/3/47 12/2/48 13/2/49
f 12/2/48 22/3/50 23/3/51
f 21/3/52 11/2/53 10/2/46
f 11/2/54 21/3/55 24/3/56
f 13/2/49 17/3/57 22/3/58
f 17/3/59 13/2/60 14/2/33
f 20/3/61 12/2/48 23/3/62
f 12/2/63 20/3/61 9/2/64
f 24/3/65 16/2/41 11/2/54
f 16/2/41 24/3/66 19/3/67
f 27/4/68 26/4/68 25/4/68
f 26/4/68 27/4/68 28/4/68
f 26/4/68 28/4/68 29/4/68
f 29/4/68 28/4/68 30/4/68
f 29/4/68 30/4/68 31/4/68
f 31/4/68 30/4/68 32/4/68
f 35/5/1 34/5/1 33/5/1
f 34/5/1 35/5/1 36/5/1
f 34/5/1 36/5/1 37/5/1
f 37/5/1 36/5/1 38/5/1
f 37/5/1 38/5/1 39/5/1
f 39/5/1 38/5/1 40/5/1
f 27/4/69 33/5/70 34/5/71
f 33/5/70 27/4/69 25/4/72
f 29/4/73 38/5/74 36/5/73
f 38/5/75 29/4/73 31/4/76
f 40/5/77 31/4/75 32/4/78
f 31/4/79 40/5/77 38/5/79
f 28/4/80 34/5/81 37/5/80
f 34/5/81 28/4/80 27/4/82
f 26/4/83 36/5/73 35/5/84
f 36/5/73 26/4/84 29/4/85
f 30/4/86 37/5/80 39/5/87
f 37/5/80 30/4/86 28/4/88
f 26/4/83 33/5/72 25/4/70
f 33/5/70 26/4/89 35/5/89
f 40/5/77 30/4/90 39/5/90
f 30/4/86 40/5/78 32/4/77
f 43/6/91 42/7/92 41/7/91
f 42/7/92 43/6/91 44/6/92
f 47/6/93 46/7/94 45/7/93
f 46/7/94 47/6/95 48/6/94
f 50/6/96 45/7/95 49/7/96
f 45/7/95 50/6/96 47/6/95
f 48/6/94 41/7/91 46/7/94
f 41/7/97 48/6/94 43/6/97
f 52/7/98 44/6/99 51/6/98
f 44/6/92 52/7/98 42/7/92
f 52/7/98 50/6/96 49/7/96
f 50/6/100 52/7/98 51/6/98
f 41/7/1 45/7/1 46/7/1
f 45/7/1 41/7/1 42/7/1
f 45/7/1 42/7/1 49/7/1
f 49/7/1 42/7/1 52/7/1
f 55/6/101 54/8/102 53/8/103
f 54/8/102 55/6/101 56/6/104
f 59/8/105 58/6/106 57/6/107
f 58/6/106 59/8/108 60/8/109
f 63/6/110 62/8/111 61/8/112
f 62/8/111 63/6/110 64/6/113
f 64/6/114 53/8/115 62/8/111
f 53/8/115 64/6/114 55/6/116
f 64/6/117 56/6/118 55/6/119
f 56/6/118 64/6/117 58/6/120
f 58/6/120 64/6/117 63/6/121
f 58/6/120 63/6/121 57/6/122
f 59/8/123 63/6/124 61/8/125
f 63/6/124 59/8/126 57/6/107
f 54/8/1 62/8/1 53/8/1
f 62/8/1 54/8/1 60/8/1
f 62/8/1 60/8/1 61/8/1
f 61/8/1 60/8/1 59/8/1
f 56/6/127 60/8/128 54/8/102
f 60/8/128 56/6/127 58/6/129
f 67/6/130 66/9/131 65/9/130
f 66/9/131 67/6/130 68/6/131
f 70/6/132 65/9/133 69/9/132
f 65/9/130 70/6/132 67/6/134
f 68/6/135 71/9/136 66/9/131
f 71/9/136 68/6/137 72/6/136
f 72/6/136 73/9/138 71/9/136
f 73/9/139 72/6/136 74/6/139
f 71/9/1 65/9/1 66/9/1
f 65/9/1 71/9/1 69/9/1
f 69/9/1 71/9/1 73/9/1
f 69/9/1 73/9/1 75/9/1
f 76/6/140 69/9/132 75/9/141
f 69/9/132 76/6/141 70/6/132
f 73/9/139 76/6/141 75/9/141
f 76/6/141 73/9/139 74/6/139
f 79/10/142 78/10/143 77/11/144
f 78/10/143 79/10/142 41/6/142
f 78/10/143 41/6/142 42/6/143
f 77/11/145 78/10/146 79/10/147
f 41/6/147 79/10/147 78/10/146
f 42/6/146 41/6/147 78/10/146
f 81/11/148 49/6/149 80/10/149
f 49/6/149 81/11/148 52/6/150
f 52/6/150 81/11/148 82/10/150
f 80/10/151 49/6/151 81/11/152
f 52/6/153 81/11/152 49/6/151
f 82/10/153 81/11/152 52/6/153
f 82/10/150 42/6/143 52/6/150
f 42/6/143 82/10/150 83/11/154
f 42/6/143 83/11/154 78/10/143
f 52/6/153 42/6/146 82/10/153
f 83/11/155 82/10/153 42/6/146
f 78/10/146 83/11/155 42/6/146
f 46/6/156 85/11/157 84/10/156
f 85/11/157 46/6/156 41/6/142
f 85/11/157 41/6/158 79/10/142
f 84/10/159 85/11/160 46/6/159
f 41/6/147 46/6/159 85/11/160
f 79/10/147 41/6/147 85/11/160
f 80/10/149 87/10/161 86/11/162
f 87/10/161 80/10/149 49/6/149
f 87/10/161 49/6/149 45/6/161
f 86/11/163 87/10/164 80/10/151
f 49/6/151 80/10/151 87/10/164
f 45/6/164 49/6/151 87/10/164
f 45/6/161 88/11/165 87/10/161
f 88/11/165 45/6/161 46/6/156
f 88/11/165 46/6/156 84/10/156
f 87/10/164 88/11/166 45/6/167
f 46/6/159 45/6/164 88/11/166
f 84/10/159 46/6/159 88/11/166
f 91/10/168 90/10/169 89/11/170
f 90/10/169 91/10/168 75/6/168
f 90/10/169 75/6/168 69/6/169
f 89/11/171 90/10/172 91/10/173
f 75/6/173 91/10/173 90/10/172
f 69/6/172 75/6/173 90/10/172
f 65/6/174 93/11/175 92/10/174
f 93/11/175 65/6/174 66/6/176
f 93/11/175 66/6/176 94/10/176
f 92/10/177 93/11/178 65/6/177
f 66/6/179 65/6/177 93/11/178
f 94/10/179 66/6/179 93/11/178
f 97/10/180 96/10/181 95/11/182
f 96/10/181 97/10/180 71/6/180
f 96/10/181 71/6/180 73/6/181
f 95/11/183 96/10/184 97/10/185
f 71/6/185 97/10/185 96/10/184
f 73/6/184 71/6/185 96/10/184
f 98/11/186 75/6/187 91/10/168
f 75/6/168 98/11/186 73/6/181
f 73/6/181 98/11/186 96/10/181
f 91/10/173 75/6/173 98/11/188
f 73/6/184 98/11/188 75/6/173
f 96/10/184 98/11/188 73/6/184
f 94/10/176 97/10/180 99/11/189
f 97/10/180 94/10/176 66/6/176
f 97/10/180 66/6/176 71/6/180
f 99/11/190 97/10/185 94/10/179
f 66/6/179 94/10/179 97/10/185
f 71/6/185 66/6/179 97/10/185
f 90/10/169 92/10/174 100/11/191
f 92/10/174 90/10/169 69/6/169
f 92/10/174 69/6/169 65/6/174
f 100/11/192 92/10/177 90/10/172
f 69/6/172 90/10/172 92/10/177
f 65/6/177 69/6/172 92/10/177
f 102/11/193 61/6/194 101/10/149
f 61/6/149 102/11/148 59/6/150
f 59/6/150 102/11/148 103/10/150
f 101/10/151 61/6/195 102/11/196
f 59/6/153 102/11/152 61/6/151
f 103/10/153 102/11/152 59/6/153
f 103/10/150 60/6/143 59/6/150
f 60/6/143 103/10/150 104/11/154
f 60/6/197 104/11/154 105/10/143
f 59/6/153 60/6/146 103/10/153
f 104/11/155 103/10/153 60/6/146
f 105/10/198 104/11/199 60/6/198
f 62/6/161 107/11/165 106/10/161
f 107/11/165 62/6/161 53/6/156
f 107/11/165 53/6/156 108/10/156
f 106/10/164 107/11/166 62/6/200
f 53/6/159 62/6/164 107/11/166
f 108/10/159 53/6/159 107/11/166
f 110/10/142 105/10/143 109/11/144
f 105/10/143 110/10/142 54/6/142
f 105/10/143 54/6/142 60/6/143
f 109/11/145 105/10/146 110/10/147
f 54/6/147 110/10/147 105/10/146
f 60/6/146 54/6/147 105/10/146
f 101/10/149 106/10/161 111/11/162
f 106/10/161 101/10/149 61/6/149
f 106/10/161 61/6/149 62/6/161
f 111/11/163 106/10/164 101/10/151
f 61/6/151 101/10/151 106/10/164
f 62/6/164 61/6/151 106/10/164
f 53/6/156 112/11/157 108/10/156
f 112/11/157 53/6/156 54/6/142
f 112/11/157 54/6/201 110/10/142
f 108/10/159 112/11/160 53/6/159
f 54/6/147 53/6/159 112/11/160
f 110/10/147 54/6/147 112/11/160
f 3/1/1 2/1/1 1/1/1
f 2/1/1 3/1/1 4/1/1
f 4/1/1 3/1/1 5/1/1
f 4/1/1 5/1/1 6/1/1
f 6/1/1 5/1/1 7/1/1
f 6/1/1 7/1/1 8/1/1
f 9/2/2 1/1/3 2/1/4
f 1/1/5 9/2/2 10/2/6
f 11/2/7 1/1/5 10/2/8
f 1/1/5 11/2/9 3/1/10
f 12/2/11 2/1/4 4/1/12
f 2/1/4 12/2/11 9/2/13
f 13/2/14 4/1/15 6/1/16
f 4/1/12 13/2/14 12/2/17
f 7/1/18 14/2/19 8/1/20
f 14/2/19 7/1/18 15/2/21
f 11/2/22 5/1/23 3/1/10
f 5/1/24 11/2/22 16/2/25
f 8/1/20 13/2/26 6/1/16
f 13/2/27 8/1/20 14/2/28
f 7/1/29 16/2/30 15/2/31
f 16/2/32 7/1/29 5/1/24
f 14/2/33 18/3/34 17/3/35
f 18/3/36 14/2/33 15/2/37
f 16/2/38 18/3/39 15/2/40
f 18/3/39 16/2/41 19/3/42
f 21/3/43 9/2/44 20/3/45
f 9/2/44 21/3/43 10/2/46
f 22/3/47 12/2/48 13/2/49
f 12/2/48 22/3/50 23/3/51
f 21/3/52 11/2/53 10/2/46
f 11/2/54 21/3/55 24/3/56
f 13/2/49 17/3/57 22/3/58
f 17/3/59 13/2/60 14/2/33
f 20/3/61 12/2/48 23/3/62
f 12/2/63 20/3/61 9/2/64
f 24/3/65 16/2/41 11/2/54
f 16/2/41 24/3/66 19/3/67
f 27/4/68 26/4/68 25/4/68
f 26/4/68 27/4/68 28/4/68
f 26/4/68 28/4/68 29/4/68
f 29/4/68 28/4/68 30/4/68
f 29/4/68 30/4/68 31/4/68
f 31/4/68 30/4/68 32/4/68
f 35/5/1 34/5/1 33/5/1
f 34/5/1 35/5/1 36/5/1
f 34/5/1 36/5/1 37/5/1
f 37/5/1 36/5/1 38/5/1
f 37/5/1 38/5/1 39/5/1
f 39/5/1 38/5/1 40/5/1
f 27/4/69 33/5/70 34/5/71
f 33/5/70 27/4/69 25/4/72
f 29/4/73 38/5/74 36/5/73
f 38/5/75 29/4/73 31/4/76
f 40/5/77 31/4/75 32/4/78
f 31/4/79 40/5/77 38/5/79
f 28/4/80 34/5/81 37/5/80
f 34/5/81 28/4/80 27/4/82
f 26/4/83 36/5/73 35/5/84
f 36/5/73 26/4/84 29/4/85
f 30/4/86 37/5/80 39/5/87
f 37/5/80 30/4/86 28/4/88
f 26/4/83 33/5/72 25/4/70
f 33/5/70 26/4/89 35/5/89
f 40/5/77 30/4/90 39/5/90
f 30/4/86 40/5/78 32/4/77
f 43/6/91 42/7/92 41/7/91
f 42/7/92 43/6/91 44/6/92
f 47/6/93 46/7/94 45/7/93
f 46/7/94 47/6/95 48/6/94
f 50/6/96 45/7/95 49/7/96
f 45/7/95 50/6/96 47/6/95
f 48/6/94 41/7/91 46/7/94
f 41/7/97 48/6/94 43/6/97
f 52/7/98 44/6/99 51/6/98
f 44/6/92 52/7/98 42/7/92
f 52/7/98 50/6/96 49/7/96
f 50/6/100 52/7/98 51/6/98
f 41/7/1 45/7/1 46/7/1
f 45/7/1 41/7/1 42/7/1
f 45/7/1 42/7/1 49/7/1
f 49/7/1 42/7/1 52/7/1
f 55/6/101 54/8/102 53/8/103
f 54/8/102 55/6/101 56/6/104
f 59/8/105 58/6/106 57/6/107
f 58/6/106 59/8/108 60/8/109
f 63/6/110 62/8/111 61/8/112
f 62/8/111 63/6/110 64/6/113
f 64/6/114 53/8/115 62/8/111
f 53/8/115 64/6/114 55/6/116
f 64/6/117 56/6/118 55/6/119
f 56/6/118 64/6/117 58/6/120
f 58/6/120 64/6/117 63/6/121
f 58/6/120 63/6/121 57/6/122
f 59/8/123 63/6/124 61/8/125
f 63/6/124 59/8/126 57/6/107
f 54/8/1 62/8/1 53/8/1
f 62/8/1 54/8/1 60/8/1
f 62/8/1 60/8/1 61/8/1
f 61/8/1 60/8/1 59/8/1
f 56/6/127 60/8/128 54/8/102
f 60/8/128 56/6/127 58/6/129
f 67/6/130 66/9/131 65/9/130
f 66/9/131 67/6/130 68/6/131
f 70/6/132 65/9/133 69/9/132
f 65/9/130 70/6/132 67/6/134
f 68/6/135 71/9/136 66/9/131
f 71/9/136 68/6/137 72/6/136
f 72/6/136 73/9/138 71/9/136
f 73/9/139 72/6/136 74/6/139
f 71/9/1 65/9/1 66/9/1
f 65/9/1 71/9/1 69/9/1
f 69/9/1 71/9/1 73/9/1
f 69/9/1 73/9/1 75/9/1
f 76/6/140 69/9/132 75/9/141
f 69/9/132 76/6/141 70/6/132
f 73/9/139 76/6/141 75/9/141
f 76/6/141 73/9/139 74/6/139
f 79/10/142 78/10/143 77/11/144
f 78/10/143 79/10/142 41/6/142
f 78/10/143 41/6/142 42/6/143
f 77/11/145 78/10/146 79/10/147
f 41/6/147 79/10/147 78/10/146
f 42/6/146 41/6/147 78/10/146
f 81/11/148 49/6/149 80/10/149
f 49/6/149 81/11/148 52/6/150
f 52/6/150 81/11/148 82/10/150
f 80/10/151 49/6/151 81/11/152
f 52/6/153 81/11/152 49/6/151
f 82/10/153 81/11/152 52/6/153
f 82/10/150 42/6/143 52/6/150
f 42/6/143 82/10/150 83/11/154
f 42/6/143 83/11/154 78/10/143
f 52/6/153 42/6/146 82/10/153
f 83/11/155 82/10/153 42/6/146
f 78/10/146 83/11/155 42/6/146
f 46/6/156 85/11/157 84/10/156
f 85/11/157 46/6/156 41/6/142
f 85/11/157 41/6/158 79/10/142
f 84/10/159 85/11/160 46/6/159
f 41/6/147 46/6/159 85/11/160
f 79/10/147 41/6/147 85/11/160
f 80/10/149 87/10/161 86/11/162
f 87/10/161 80/10/149 49/6/149
f 87/10/161 49/6/149 45/6/161
f 86/11/163 87/10/164 80/10/151
f 49/6/151 80/10/151 87/10/164
f 45/6/164 49/6/151 87/10/164
f 45/6/161 88/11/165 87/10/161
f 88/11/165 45/6/161 46/6/156
f 88/11/165 46/6/156 84/10/156
f 87/10/164 88/11/166 45/6/167
f 46/6/159 45/6/164 88/11/166
f 84/10/159 46/6/159 88/11/166
f 91/10/168 90/10/169 89/11/170
f 90/10/169 91/10/168 75/6/168
f 90/10/169 75/6/168 69/6/169
f 89/11/171 90/10/172 91/10/173
f 75/6/173 91/10/173 90/10/172
f 69/6/172 75/6/173 90/10/172
f 65/6/174 93/11/175 92/10/174
f 93/11/175 65/6/174 66/6/176
f 93/11/175 66/6/176 94/10/176
f 92/10/177 93/11/178 65/6/177
f 66/6/179 65/6/177 93/11/178
f 94/10/179 66/6/179 93/11/178
f 97/10/180 96/10/181 95/11/182
f 96/10/181 97/10/180 71/6/180
f 96/10/181 71/6/180 73/6/181
f 95/11/183 96/10/184 97/10/185
f 71/6/185 97/10/185 96/10/184
f 73/6/184 71/6/185 96/10/184
f 98/11/186 75/6/187 91/10/168
f 75/6/168 98/11/186 73/6/181
f 73/6/181 98/11/186 96/10/181
f 91/10/173 75/6/173 98/11/188
f 73/6/184 98/11/188 75/6/173
f 96/10/184 98/11/188 73/6/184
f 94/10/176 97/10/180 99/11/189
f 97/10/180 94/10/176 66/6/176
f 97/10/180 66/6/176 71/6/180
f 99/11/190 97/10/185 94/10/179
f 66/6/179 94/10/179 97/10/185
f 71/6/185 66/6/179 97/10/185
f 90/10/169 92/10/174 100/11/191
f 92/10/174 90/10/169 69/6/169
f 92/10/174 69/6/169 65/6/174
f 100/11/192 92/10/177 90/10/172
f 69/6/172 90/10/172 92/10/177
f 65/6/177 69/6/172 92/10/177
f 102/11/193 61/6/194 101/10/149
f 61/6/149 102/11/148 59/6/150
f 59/6/150 102/11/148 103/10/150
f 101/10/151 61/6/195 102/11/196
f 59/6/153 102/11/152 61/6/151
f 103/10/153 102/11/152 59/6/153
f 103/10/150 60/6/143 59/6/150
f 60/6/143 103/10/150 104/11/154
f 60/6/197 104/11/154 105/10/143
f 59/6/153 60/6/146 103/10/153
f 104/11/155 103/10/153 60/6/146
f 105/10/198 104/11/199 60/6/198
f 62/6/161 107/11/165 106/10/161
f 107/11/165 62/6/161 53/6/156
f 107/11/165 53/6/156 108/10/156
f 106/10/164 107/11/166 62/6/200
f 53/6/159 62/6/164 107/11/166
f 108/10/159 53/6/159 107/11/166
f 110/10/142 105/10/143 109/11/144
f 105/10/143 110/10/142 54/6/142
f 105/10/143 54/6/142 60/6/143
f 109/11/145 105/10/146 110/10/147
f 54/6/147 110/10/147 105/10/146
f 60/6/146 54/6/147 105/10/146
f 101/10/149 106/10/161 111/11/162
f 106/10/161 101/10/149 61/6/149
f 106/10/161 61/6/149 62/6/161
f 111/11/163 106/10/164 101/10/151
f 61/6/151 101/10/151 106/10/164
f 62/6/164 61/6/151 106/10/164
f 53/6/156 112/11/157 108/10/156
f 112/11/157 53/6/156 54/6/142
f 112/11/157 54/6/201 110/10/142
f 108/10/159 112/11/160 53/6/159
f 54/6/147 53/6/159 112/11/160
f 110/10/147 54/6/147 112/11/160
