# Blender 4.1.1
# www.blender.org
mtllib tree.055.mtl
o tree.055
v -19.949945 -0.382804 5.012458
v -19.728157 -0.382804 5.119298
v -20.007420 -0.382804 4.848145
v -19.563845 -0.382804 5.061823
v -19.900579 -0.382804 4.626358
v -19.457005 -0.382804 4.840036
v -19.736267 -0.382804 4.568883
v -19.514479 -0.382804 4.675723
v -19.730185 0.062918 4.981694
v -19.841078 0.062918 4.928274
v -19.869816 0.062918 4.846117
v -19.648027 0.062918 4.952957
v -19.594608 0.062918 4.842063
v -19.623346 0.062918 4.759907
v -19.734240 0.062918 4.706487
v -19.816397 0.062918 4.735224
v -19.596128 0.731552 4.738861
v -19.734745 0.731552 4.672086
v -19.837442 0.731552 4.708007
v -19.729677 0.731552 5.016095
v -19.868296 0.731552 4.949320
v -19.560207 0.731552 4.841557
v -19.626982 0.731552 4.980174
v -19.904217 0.731552 4.846624
v -19.766304 0.222058 5.053498
v -19.830658 0.222058 4.981469
v -19.669868 0.222058 5.058925
v -19.597839 0.222058 4.994572
v -19.825232 0.222058 4.885032
v -19.592411 0.222058 4.898135
v -19.753202 0.222058 4.820679
v -19.656765 0.222058 4.826106
v -19.797327 0.060318 5.117897
v -19.646267 0.060318 5.126399
v -19.898130 0.060318 5.005070
v -19.889629 0.060318 4.854010
v -19.533440 0.060318 5.025594
v -19.776804 0.060318 4.753206
v -19.524939 0.060318 4.874534
v -19.625742 0.060318 4.761707
v -20.338396 0.731552 4.879081
v -20.072329 0.731552 4.326753
v -20.087740 1.468507 4.860327
v -19.930759 1.468507 4.534451
v -19.381737 0.731552 5.339923
v -19.993099 0.731552 5.385666
v -19.523306 1.468507 5.132226
v -19.884014 1.468507 5.159214
v -19.115669 0.731552 4.787596
v -19.366325 1.468507 4.806350
v -19.570051 1.468507 4.507463
v -19.460964 0.731552 4.281010
v -19.880447 2.260255 5.151812
v -20.079546 2.260255 4.859714
v -19.762295 3.090716 4.906538
v -19.808056 3.090716 4.839401
v -19.691771 3.090716 4.760138
v -19.772795 3.090716 4.766201
v -19.573618 2.260255 4.514865
v -19.926130 2.260255 4.541240
v -19.374519 2.260255 4.806963
v -19.527933 2.260255 5.125436
v -19.646008 3.090716 4.827276
v -19.681271 3.090716 4.900476
v -19.689842 1.468507 5.330382
v -20.138891 1.468507 5.114067
v -19.709991 2.260255 5.061089
v -19.915751 2.260255 4.961971
v -19.277985 1.468507 5.049654
v -19.521275 2.260255 4.932456
v -20.176079 1.468507 4.617023
v -19.932791 2.260255 4.734221
v -19.764221 1.468507 4.336294
v -19.744072 2.260255 4.605587
v -19.315174 1.468507 4.552609
v -19.538315 2.260255 4.704705
v -20.310595 0.501649 4.552224
v -20.110312 0.616601 4.271029
v -20.405647 0.616601 4.884112
v -19.048418 0.616601 4.782564
v -19.191799 0.501649 4.468515
v -19.431698 0.616601 4.220254
v -19.775362 0.501649 4.187401
v -20.022367 0.616601 5.446423
v -20.262266 0.501649 5.198161
v -19.143469 0.501649 5.114452
v -19.343754 0.616601 5.395648
v -19.678703 0.501649 5.479275
v -19.201880 1.281595 4.794046
v -19.228590 1.375051 5.073448
v -19.269871 1.375051 4.521729
v -19.685753 1.375051 5.385057
v -19.955580 1.281595 5.307779
v -20.184195 1.375051 5.144947
v -20.023636 1.281595 4.398189
v -19.768312 1.375051 4.281620
v -20.225475 1.375051 4.593228
v -19.498484 1.281595 4.358897
v -20.252184 1.281595 4.872631
v -19.430428 1.281595 5.268487
v -19.335743 2.193974 4.804062
v -19.418415 2.127692 4.622981
v -19.556742 2.193974 4.479833
v -19.754900 2.127692 4.460890
v -19.948032 2.193974 4.509109
v -19.506033 2.193974 5.157567
v -19.699165 2.127692 5.205787
v -19.897324 2.193974 5.186843
v -20.063515 2.127692 4.671247
v -20.118322 2.193974 4.862615
v -19.390549 2.127692 4.995429
v -20.035648 2.127692 5.043696
vn -0.0000 -1.0000 -0.0000
vn -0.0592 0.2942 0.9539
vn -0.7156 0.2944 0.6335
vn -0.0493 0.2944 0.9544
vn -0.7090 0.2942 0.6409
vn -0.9539 0.2942 -0.0591
vn -0.7156 0.2944 0.6334
vn -0.7091 0.2942 0.6408
vn -0.9539 0.2943 -0.0591
vn -0.9544 0.2944 -0.0493
vn 0.6408 0.2942 0.7091
vn 0.6334 0.2944 0.7156
vn -0.0591 0.2942 0.9539
vn 0.9539 0.2942 0.0592
vn 0.6335 0.2944 0.7156
vn 0.9544 0.2944 0.0493
vn 0.6409 0.2942 0.7090
vn 0.0493 0.2944 -0.9544
vn 0.7090 0.2942 -0.6408
vn 0.7156 0.2944 -0.6335
vn 0.7090 0.2942 -0.6409
vn 0.0592 0.2942 -0.9539
vn -0.9539 0.2942 -0.0592
vn -0.6334 0.2944 -0.7156
vn -0.6335 0.2944 -0.7156
vn -0.6409 0.2942 -0.7090
vn 0.7156 0.2944 -0.6334
vn 0.9539 0.2943 0.0591
vn 0.9539 0.2942 0.0591
vn 0.7091 0.2942 -0.6408
vn -0.6408 0.2942 -0.7091
vn 0.0591 0.2942 -0.9539
vn 0.7441 -0.0513 -0.6661
vn 0.0553 -0.0512 -0.9972
vn 0.7453 -0.0513 -0.6648
vn 0.0553 -0.0513 -0.9972
vn 0.0571 -0.0513 -0.9971
vn -0.6661 -0.0512 -0.7441
vn 0.0552 -0.0513 -0.9972
vn 0.0570 -0.0512 -0.9971
vn -0.6660 -0.0513 -0.7442
vn -0.6647 -0.0512 -0.7453
vn -0.7453 -0.0512 0.6648
vn -0.0570 -0.0513 0.9971
vn -0.0553 -0.0513 0.9972
vn -0.0571 -0.0513 0.9971
vn -0.7441 -0.0513 0.6661
vn 0.9972 -0.0513 0.0553
vn 0.6661 -0.0513 0.7441
vn 0.9971 -0.0513 0.0571
vn 0.9972 -0.0512 0.0553
vn 0.6648 -0.0513 0.7453
vn -0.7453 -0.0513 0.6647
vn -0.9971 -0.0513 -0.0570
vn -0.7453 -0.0512 0.6647
vn -0.9972 -0.0513 -0.0552
vn 0.9971 -0.0513 0.0570
vn 0.7453 -0.0512 -0.6647
vn 0.9972 -0.0513 0.0552
vn 0.7453 -0.0513 -0.6647
vn -0.0552 -0.0513 0.9972
vn 0.6660 -0.0513 0.7441
vn 0.6647 -0.0512 0.7453
vn 0.6660 -0.0512 0.7442
vn -0.0570 -0.0512 0.9971
vn -0.9972 -0.0513 -0.0553
vn -0.6661 -0.0513 -0.7441
vn -0.9971 -0.0513 -0.0571
vn -0.9972 -0.0512 -0.0553
vn -0.6648 -0.0513 -0.7453
vn -0.0000 1.0000 -0.0000
vn 0.3020 0.4042 0.8634
vn -0.3969 0.4042 0.8240
vn -0.3969 0.4042 0.8241
vn -0.3969 0.4043 0.8240
vn -0.8240 0.4042 -0.3970
vn -0.3020 0.4042 -0.8634
vn -0.3020 0.4043 -0.8633
vn 0.3969 0.4042 -0.8240
vn 0.3969 0.4043 -0.8240
vn 0.8240 0.4042 0.3970
vn 0.3020 0.4043 0.8633
vn -0.8634 0.4042 0.3020
vn -0.8240 0.4042 -0.3969
vn -0.8241 0.4042 -0.3969
vn -0.8240 0.4043 -0.3969
vn 0.8634 0.4042 -0.3020
vn 0.8240 0.4042 0.3969
vn 0.8240 0.4043 0.3969
vn -0.3970 0.4043 0.8240
vn -0.3970 0.4042 0.8240
vn 0.3970 0.4042 -0.8240
vn 0.3970 0.4043 -0.8240
vn -0.9438 0.3228 0.0706
vn -0.5331 0.3228 -0.7821
vn 0.5331 0.3228 0.7821
vn -0.4107 0.3228 0.8527
vn -0.4108 0.3228 0.8527
vn 0.9438 0.3228 -0.0706
vn 0.4107 0.3228 -0.8527
vn 0.4108 0.3228 -0.8527
vn -0.2984 0.7260 0.6196
vn -0.9476 0.3115 0.0709
vn -0.4124 0.3115 0.8561
vn -0.6858 0.7260 0.0512
vn 0.4124 0.3115 -0.8561
vn -0.3874 0.7260 -0.5683
vn 0.2985 0.7260 -0.6196
vn -0.5352 0.3115 -0.7852
vn 0.6858 0.7260 -0.0513
vn 0.5352 0.3115 0.7852
vn 0.9476 0.3115 -0.0709
vn 0.3873 0.7260 0.5683
vn 0.3874 0.7260 0.5682
vn -0.2985 0.7260 0.6196
vn 0.3873 0.7259 0.5683
vn -0.6858 0.7259 0.0513
vn -0.2985 0.7259 0.6196
vn -0.3873 0.7259 -0.5683
vn 0.6858 0.7259 -0.0513
vn 0.6858 0.7259 -0.0514
vn 0.2985 0.7259 -0.6196
vn 0.2985 0.7260 -0.6195
vn -0.6858 0.7260 0.0513
vn -0.6858 0.7260 0.0514
vn -0.3873 0.7260 -0.5683
vn 0.0706 0.3228 0.9438
vn -0.7821 0.3228 0.5331
vn 0.8527 0.3228 0.4108
vn -0.7821 0.3228 0.5330
vn -0.8527 0.3228 -0.4107
vn -0.8527 0.3228 -0.4108
vn -0.0706 0.3228 -0.9438
vn 0.7821 0.3228 -0.5331
vn 0.8527 0.3228 0.4107
vn -0.8601 0.5060 0.0644
vn -0.4858 0.5060 -0.7127
vn -0.8032 0.4530 -0.3869
vn 0.8032 -0.4530 0.3869
vn 0.4858 -0.5060 0.7127
vn 0.8601 -0.5060 -0.0644
vn 0.7367 0.4530 -0.5021
vn 0.8601 0.5060 -0.0644
vn 0.8601 0.5060 -0.0643
vn 0.3743 0.5060 -0.7771
vn -0.8601 -0.5060 0.0643
vn -0.7367 -0.4530 0.5021
vn -0.3743 -0.5060 0.7771
vn -0.8601 -0.5060 0.0644
vn -0.0665 0.4530 -0.8890
vn 0.0665 -0.4530 0.8890
vn -0.3743 0.5060 0.7771
vn -0.7367 0.4530 0.5021
vn -0.8601 0.5060 0.0643
vn 0.3743 -0.5060 -0.7771
vn 0.7367 -0.4530 -0.5021
vn 0.3743 -0.5060 -0.7770
vn 0.8601 -0.5060 -0.0643
vn 0.4858 0.5060 0.7127
vn 0.8032 0.4530 0.3869
vn -0.8032 -0.4530 -0.3869
vn -0.4858 -0.5060 -0.7127
vn 0.0665 0.4530 0.8890
vn -0.3743 0.5060 0.7770
vn -0.0665 -0.4530 -0.8890
vn 0.7127 0.5060 -0.4858
vn 0.7770 0.5060 0.3743
vn 0.8890 0.4530 -0.0665
vn 0.7771 0.5060 0.3743
vn -0.8890 -0.4530 0.0665
vn -0.7771 -0.5060 -0.3743
vn -0.7127 -0.5060 0.4858
vn 0.0644 0.5060 0.8601
vn -0.3869 0.4530 0.8032
vn -0.7127 0.5060 0.4858
vn -0.0644 -0.5060 -0.8601
vn 0.3869 -0.4530 -0.8032
vn 0.7127 -0.5060 -0.4858
vn -0.7771 0.5060 -0.3743
vn -0.0644 0.5060 -0.8601
vn -0.5021 0.4529 -0.7367
vn 0.5021 -0.4529 0.7367
vn 0.0644 -0.5060 0.8601
vn 0.7771 -0.5060 0.3743
vn 0.3869 0.4530 -0.8032
vn -0.3869 -0.4530 0.8032
vn -0.8890 0.4530 0.0665
vn 0.8890 -0.4530 -0.0665
vn 0.5021 0.4530 0.7367
vn -0.5021 -0.4530 -0.7367
vn 0.8601 0.5061 -0.0644
vn 0.0665 -0.4530 0.8891
vn 0.0665 0.4529 0.8891
vn -0.0665 -0.4530 -0.8891
vn -0.8032 0.4529 -0.3869
vn 0.8032 -0.4529 0.3869
vt 0.593750 0.025000
vt 0.593750 0.104996
vt 0.593750 0.225000
vt 0.093750 0.475000
vt 0.093750 0.275000
vt 0.093750 0.425000
vt 0.093750 0.348778
vt 0.093750 0.338765
vt 0.093750 0.344099
vt 0.093750 0.375000
vt 0.093750 0.325000
s 0
usemtl colormap.058
f 3/1/1 2/1/1 1/1/1
f 2/1/1 3/1/1 4/1/1
f 4/1/1 3/1/1 5/1/1
f 4/1/1 5/1/1 6/1/1
f 6/1/1 5/1/1 7/1/1
f 6/1/1 7/1/1 8/1/1
f 9/2/2 1/1/3 2/1/4
f 1/1/3 9/2/2 10/2/5
f 11/2/6 1/1/7 10/2/8
f 1/1/7 11/2/9 3/1/10
f 12/2/11 2/1/4 4/1/12
f 2/1/4 12/2/11 9/2/13
f 13/2/14 4/1/15 6/1/16
f 4/1/15 13/2/14 12/2/17
f 7/1/18 14/2/19 8/1/20
f 14/2/21 7/1/18 15/2/22
f 11/2/23 5/1/24 3/1/10
f 5/1/25 11/2/23 16/2/26
f 8/1/27 13/2/28 6/1/16
f 13/2/29 8/1/27 14/2/30
f 7/1/18 16/2/31 15/2/32
f 16/2/31 7/1/18 5/1/24
f 14/2/33 18/3/34 17/3/35
f 18/3/36 14/2/33 15/2/37
f 16/2/38 18/3/39 15/2/40
f 18/3/39 16/2/41 19/3/42
f 21/3/43 9/2/44 20/3/45
f 9/2/46 21/3/43 10/2/47
f 22/3/48 12/2/49 13/2/50
f 12/2/49 22/3/51 23/3/52
f 21/3/53 11/2/54 10/2/47
f 11/2/54 21/3/55 24/3/56
f 13/2/57 17/3/58 22/3/59
f 17/3/60 13/2/57 14/2/33
f 20/3/61 12/2/62 23/3/63
f 12/2/64 20/3/61 9/2/65
f 24/3/66 16/2/67 11/2/68
f 16/2/67 24/3/69 19/3/70
f 27/4/71 26/4/71 25/4/71
f 26/4/71 27/4/71 28/4/71
f 26/4/71 28/4/71 29/4/71
f 29/4/71 28/4/71 30/4/71
f 29/4/71 30/4/71 31/4/71
f 31/4/71 30/4/71 32/4/71
f 35/5/1 34/5/1 33/5/1
f 34/5/1 35/5/1 36/5/1
f 34/5/1 36/5/1 37/5/1
f 37/5/1 36/5/1 38/5/1
f 37/5/1 38/5/1 39/5/1
f 39/5/1 38/5/1 40/5/1
f 27/4/72 33/5/73 34/5/72
f 33/5/74 27/4/72 25/4/75
f 29/4/76 38/5/77 36/5/76
f 38/5/77 29/4/76 31/4/78
f 40/5/79 31/4/77 32/4/80
f 31/4/77 40/5/79 38/5/77
f 28/4/81 34/5/72 37/5/81
f 34/5/72 28/4/81 27/4/82
f 26/4/83 36/5/84 35/5/83
f 36/5/85 26/4/83 29/4/86
f 30/4/87 37/5/88 39/5/87
f 37/5/88 30/4/87 28/4/89
f 26/4/83 33/5/90 25/4/91
f 33/5/91 26/4/83 35/5/83
f 40/5/92 30/4/87 39/5/87
f 30/4/87 40/5/93 32/4/92
f 43/6/94 42/7/95 41/7/94
f 42/7/95 43/6/94 44/6/95
f 47/6/96 46/7/97 45/7/96
f 46/7/98 47/6/96 48/6/97
f 50/6/99 45/7/96 49/7/99
f 45/7/96 50/6/99 47/6/96
f 48/6/98 41/7/94 46/7/98
f 41/7/94 48/6/98 43/6/94
f 52/7/100 44/6/95 51/6/100
f 44/6/95 52/7/101 42/7/95
f 52/7/101 50/6/99 49/7/99
f 50/6/99 52/7/101 51/6/101
f 41/7/1 45/7/1 46/7/1
f 45/7/1 41/7/1 42/7/1
f 45/7/1 42/7/1 49/7/1
f 49/7/1 42/7/1 52/7/1
f 55/6/102 54/8/103 53/8/104
f 54/8/103 55/6/102 56/6/105
f 59/8/106 58/6/107 57/6/108
f 58/6/107 59/8/106 60/8/109
f 63/6/110 62/8/111 61/8/112
f 62/8/111 63/6/110 64/6/113
f 64/6/114 53/8/104 62/8/111
f 53/8/104 64/6/114 55/6/115
f 64/6/116 56/6/117 55/6/118
f 56/6/117 64/6/113 58/6/119
f 58/6/119 64/6/116 63/6/120
f 58/6/119 63/6/121 57/6/122
f 59/8/106 63/6/110 61/8/112
f 63/6/110 59/8/106 57/6/123
f 54/8/1 62/8/1 53/8/1
f 62/8/1 54/8/1 60/8/1
f 62/8/1 60/8/1 61/8/1
f 61/8/1 60/8/1 59/8/1
f 56/6/124 60/8/109 54/8/103
f 60/8/109 56/6/125 58/6/126
f 67/6/127 66/9/128 65/9/127
f 66/9/128 67/6/127 68/6/128
f 70/6/129 65/9/127 69/9/129
f 65/9/127 70/6/129 67/6/127
f 68/6/130 71/9/131 66/9/128
f 71/9/131 68/6/128 72/6/131
f 72/6/132 73/9/133 71/9/132
f 73/9/133 72/6/132 74/6/133
f 71/9/1 65/9/1 66/9/1
f 65/9/1 71/9/1 69/9/1
f 69/9/1 71/9/1 73/9/1
f 69/9/1 73/9/1 75/9/1
f 76/6/134 69/9/135 75/9/134
f 69/9/135 76/6/134 70/6/129
f 73/9/133 76/6/134 75/9/134
f 76/6/134 73/9/133 74/6/133
f 79/10/136 78/10/137 77/11/138
f 78/10/137 79/10/136 41/6/136
f 78/10/137 41/6/136 42/6/137
f 77/11/139 78/10/140 79/10/141
f 41/6/141 79/10/141 78/10/140
f 42/6/140 41/6/141 78/10/140
f 81/11/142 49/6/143 80/10/143
f 49/6/144 81/11/142 52/6/145
f 52/6/145 81/11/142 82/10/145
f 80/10/146 49/6/146 81/11/147
f 52/6/148 81/11/147 49/6/149
f 82/10/148 81/11/147 52/6/148
f 82/10/145 42/6/137 52/6/145
f 42/6/137 82/10/145 83/11/150
f 42/6/137 83/11/150 78/10/137
f 52/6/148 42/6/140 82/10/148
f 83/11/151 82/10/148 42/6/140
f 78/10/140 83/11/151 42/6/140
f 46/6/152 85/11/153 84/10/152
f 85/11/153 46/6/152 41/6/136
f 85/11/153 41/6/154 79/10/154
f 84/10/155 85/11/156 46/6/157
f 41/6/141 46/6/155 85/11/156
f 79/10/158 41/6/158 85/11/156
f 80/10/143 87/10/159 86/11/160
f 87/10/159 80/10/144 49/6/144
f 87/10/159 49/6/143 45/6/159
f 86/11/161 87/10/162 80/10/149
f 49/6/149 80/10/149 87/10/162
f 45/6/162 49/6/149 87/10/162
f 45/6/159 88/11/163 87/10/159
f 88/11/163 45/6/159 46/6/164
f 88/11/163 46/6/152 84/10/152
f 87/10/162 88/11/165 45/6/162
f 46/6/155 45/6/162 88/11/165
f 84/10/155 46/6/155 88/11/165
f 91/10/166 90/10/167 89/11/168
f 90/10/169 91/10/166 75/6/166
f 90/10/169 75/6/166 69/6/169
f 89/11/170 90/10/171 91/10/172
f 75/6/172 91/10/172 90/10/171
f 69/6/171 75/6/172 90/10/171
f 65/6/173 93/11/174 92/10/173
f 93/11/174 65/6/173 66/6/175
f 93/11/174 66/6/175 94/10/175
f 92/10/176 93/11/177 65/6/176
f 66/6/178 65/6/176 93/11/177
f 94/10/178 66/6/178 93/11/177
f 97/10/179 96/10/180 95/11/181
f 96/10/180 97/10/179 71/6/179
f 96/10/180 71/6/179 73/6/180
f 95/11/182 96/10/183 97/10/184
f 71/6/184 97/10/184 96/10/183
f 73/6/183 71/6/184 96/10/183
f 98/11/185 75/6/166 91/10/166
f 75/6/166 98/11/185 73/6/180
f 73/6/180 98/11/185 96/10/180
f 91/10/172 75/6/172 98/11/186
f 73/6/183 98/11/186 75/6/172
f 96/10/183 98/11/186 73/6/183
f 94/10/175 97/10/179 99/11/187
f 97/10/179 94/10/175 66/6/175
f 97/10/179 66/6/175 71/6/179
f 99/11/188 97/10/184 94/10/178
f 66/6/178 94/10/178 97/10/184
f 71/6/184 66/6/178 97/10/184
f 90/10/169 92/10/173 100/11/189
f 92/10/173 90/10/169 69/6/169
f 92/10/173 69/6/169 65/6/173
f 100/11/190 92/10/176 90/10/171
f 69/6/171 90/10/171 92/10/176
f 65/6/176 69/6/171 92/10/176
f 102/11/142 61/6/144 101/10/144
f 61/6/191 102/11/142 59/6/145
f 59/6/145 102/11/142 103/10/145
f 101/10/146 61/6/146 102/11/147
f 59/6/148 102/11/147 61/6/149
f 103/10/148 102/11/147 59/6/148
f 103/10/145 60/6/137 59/6/145
f 60/6/137 103/10/145 104/11/150
f 60/6/137 104/11/150 105/10/137
f 59/6/148 60/6/140 103/10/148
f 104/11/151 103/10/148 60/6/140
f 105/10/140 104/11/192 60/6/140
f 62/6/159 107/11/163 106/10/159
f 107/11/193 62/6/159 53/6/152
f 107/11/163 53/6/164 108/10/152
f 106/10/162 107/11/165 62/6/162
f 53/6/155 62/6/162 107/11/194
f 108/10/155 53/6/155 107/11/165
f 110/10/154 105/10/137 109/11/195
f 105/10/137 110/10/136 54/6/136
f 105/10/137 54/6/154 60/6/137
f 109/11/196 105/10/140 110/10/158
f 54/6/141 110/10/141 105/10/140
f 60/6/140 54/6/141 105/10/140
f 101/10/143 106/10/159 111/11/160
f 106/10/159 101/10/144 61/6/144
f 106/10/159 61/6/143 62/6/159
f 111/11/161 106/10/162 101/10/149
f 61/6/149 101/10/149 106/10/162
f 62/6/162 61/6/149 106/10/162
f 53/6/152 112/11/153 108/10/152
f 112/11/153 53/6/152 54/6/136
f 112/11/153 54/6/154 110/10/154
f 108/10/155 112/11/156 53/6/155
f 54/6/141 53/6/155 112/11/156
f 110/10/158 54/6/158 112/11/156
f 3/1/1 2/1/1 1/1/1
f 2/1/1 3/1/1 4/1/1
f 4/1/1 3/1/1 5/1/1
f 4/1/1 5/1/1 6/1/1
f 6/1/1 5/1/1 7/1/1
f 6/1/1 7/1/1 8/1/1
f 9/2/2 1/1/3 2/1/4
f 1/1/3 9/2/2 10/2/5
f 11/2/6 1/1/7 10/2/8
f 1/1/7 11/2/9 3/1/10
f 12/2/11 2/1/4 4/1/12
f 2/1/4 12/2/11 9/2/13
f 13/2/14 4/1/15 6/1/16
f 4/1/15 13/2/14 12/2/17
f 7/1/18 14/2/19 8/1/20
f 14/2/21 7/1/18 15/2/22
f 11/2/23 5/1/24 3/1/10
f 5/1/25 11/2/23 16/2/26
f 8/1/27 13/2/28 6/1/16
f 13/2/29 8/1/27 14/2/30
f 7/1/18 16/2/31 15/2/32
f 16/2/31 7/1/18 5/1/24
f 14/2/33 18/3/34 17/3/35
f 18/3/36 14/2/33 15/2/37
f 16/2/38 18/3/39 15/2/40
f 18/3/39 16/2/41 19/3/42
f 21/3/43 9/2/44 20/3/45
f 9/2/46 21/3/43 10/2/47
f 22/3/48 12/2/49 13/2/50
f 12/2/49 22/3/51 23/3/52
f 21/3/53 11/2/54 10/2/47
f 11/2/54 21/3/55 24/3/56
f 13/2/57 17/3/58 22/3/59
f 17/3/60 13/2/57 14/2/33
f 20/3/61 12/2/62 23/3/63
f 12/2/64 20/3/61 9/2/65
f 24/3/66 16/2/67 11/2/68
f 16/2/67 24/3/69 19/3/70
f 27/4/71 26/4/71 25/4/71
f 26/4/71 27/4/71 28/4/71
f 26/4/71 28/4/71 29/4/71
f 29/4/71 28/4/71 30/4/71
f 29/4/71 30/4/71 31/4/71
f 31/4/71 30/4/71 32/4/71
f 35/5/1 34/5/1 33/5/1
f 34/5/1 35/5/1 36/5/1
f 34/5/1 36/5/1 37/5/1
f 37/5/1 36/5/1 38/5/1
f 37/5/1 38/5/1 39/5/1
f 39/5/1 38/5/1 40/5/1
f 27/4/72 33/5/73 34/5/72
f 33/5/74 27/4/72 25/4/75
f 29/4/76 38/5/77 36/5/76
f 38/5/77 29/4/76 31/4/78
f 40/5/79 31/4/77 32/4/80
f 31/4/77 40/5/79 38/5/77
f 28/4/81 34/5/72 37/5/81
f 34/5/72 28/4/81 27/4/82
f 26/4/83 36/5/84 35/5/83
f 36/5/85 26/4/83 29/4/86
f 30/4/87 37/5/88 39/5/87
f 37/5/88 30/4/87 28/4/89
f 26/4/83 33/5/90 25/4/91
f 33/5/91 26/4/83 35/5/83
f 40/5/92 30/4/87 39/5/87
f 30/4/87 40/5/93 32/4/92
f 43/6/94 42/7/95 41/7/94
f 42/7/95 43/6/94 44/6/95
f 47/6/96 46/7/97 45/7/96
f 46/7/98 47/6/96 48/6/97
f 50/6/99 45/7/96 49/7/99
f 45/7/96 50/6/99 47/6/96
f 48/6/98 41/7/94 46/7/98
f 41/7/94 48/6/98 43/6/94
f 52/7/100 44/6/95 51/6/100
f 44/6/95 52/7/101 42/7/95
f 52/7/101 50/6/99 49/7/99
f 50/6/99 52/7/101 51/6/101
f 41/7/1 45/7/1 46/7/1
f 45/7/1 41/7/1 42/7/1
f 45/7/1 42/7/1 49/7/1
f 49/7/1 42/7/1 52/7/1
f 55/6/102 54/8/103 53/8/104
f 54/8/103 55/6/102 56/6/105
f 59/8/106 58/6/107 57/6/108
f 58/6/107 59/8/106 60/8/109
f 63/6/110 62/8/111 61/8/112
f 62/8/111 63/6/110 64/6/113
f 64/6/114 53/8/104 62/8/111
f 53/8/104 64/6/114 55/6/115
f 64/6/116 56/6/117 55/6/118
f 56/6/117 64/6/113 58/6/119
f 58/6/119 64/6/116 63/6/120
f 58/6/119 63/6/121 57/6/122
f 59/8/106 63/6/110 61/8/112
f 63/6/110 59/8/106 57/6/123
f 54/8/1 62/8/1 53/8/1
f 62/8/1 54/8/1 60/8/1
f 62/8/1 60/8/1 61/8/1
f 61/8/1 60/8/1 59/8/1
f 56/6/124 60/8/109 54/8/103
f 60/8/109 56/6/125 58/6/126
f 67/6/127 66/9/128 65/9/127
f 66/9/128 67/6/127 68/6/128
f 70/6/129 65/9/127 69/9/129
f 65/9/127 70/6/129 67/6/127
f 68/6/130 71/9/131 66/9/128
f 71/9/131 68/6/128 72/6/131
f 72/6/132 73/9/133 71/9/132
f 73/9/133 72/6/132 74/6/133
f 71/9/1 65/9/1 66/9/1
f 65/9/1 71/9/1 69/9/1
f 69/9/1 71/9/1 73/9/1
f 69/9/1 73/9/1 75/9/1
f 76/6/134 69/9/135 75/9/134
f 69/9/135 76/6/134 70/6/129
f 73/9/133 76/6/134 75/9/134
f 76/6/134 73/9/133 74/6/133
f 79/10/136 78/10/137 77/11/138
f 78/10/137 79/10/136 41/6/136
f 78/10/137 41/6/136 42/6/137
f 77/11/139 78/10/140 79/10/141
f 41/6/141 79/10/141 78/10/140
f 42/6/140 41/6/141 78/10/140
f 81/11/142 49/6/143 80/10/143
f 49/6/144 81/11/142 52/6/145
f 52/6/145 81/11/142 82/10/145
f 80/10/146 49/6/146 81/11/147
f 52/6/148 81/11/147 49/6/149
f 82/10/148 81/11/147 52/6/148
f 82/10/145 42/6/137 52/6/145
f 42/6/137 82/10/145 83/11/150
f 42/6/137 83/11/150 78/10/137
f 52/6/148 42/6/140 82/10/148
f 83/11/151 82/10/148 42/6/140
f 78/10/140 83/11/151 42/6/140
f 46/6/152 85/11/153 84/10/152
f 85/11/153 46/6/152 41/6/136
f 85/11/153 41/6/154 79/10/154
f 84/10/155 85/11/156 46/6/157
f 41/6/141 46/6/155 85/11/156
f 79/10/158 41/6/158 85/11/156
f 80/10/143 87/10/159 86/11/160
f 87/10/159 80/10/144 49/6/144
f 87/10/159 49/6/143 45/6/159
f 86/11/161 87/10/162 80/10/149
f 49/6/149 80/10/149 87/10/162
f 45/6/162 49/6/149 87/10/162
f 45/6/159 88/11/163 87/10/159
f 88/11/163 45/6/159 46/6/164
f 88/11/163 46/6/152 84/10/152
f 87/10/162 88/11/165 45/6/162
f 46/6/155 45/6/162 88/11/165
f 84/10/155 46/6/155 88/11/165
f 91/10/166 90/10/167 89/11/168
f 90/10/169 91/10/166 75/6/166
f 90/10/169 75/6/166 69/6/169
f 89/11/170 90/10/171 91/10/172
f 75/6/172 91/10/172 90/10/171
f 69/6/171 75/6/172 90/10/171
f 65/6/173 93/11/174 92/10/173
f 93/11/174 65/6/173 66/6/175
f 93/11/174 66/6/175 94/10/175
f 92/10/176 93/11/177 65/6/176
f 66/6/178 65/6/176 93/11/177
f 94/10/178 66/6/178 93/11/177
f 97/10/179 96/10/180 95/11/181
f 96/10/180 97/10/179 71/6/179
f 96/10/180 71/6/179 73/6/180
f 95/11/182 96/10/183 97/10/184
f 71/6/184 97/10/184 96/10/183
f 73/6/183 71/6/184 96/10/183
f 98/11/185 75/6/166 91/10/166
f 75/6/166 98/11/185 73/6/180
f 73/6/180 98/11/185 96/10/180
f 91/10/172 75/6/172 98/11/186
f 73/6/183 98/11/186 75/6/172
f 96/10/183 98/11/186 73/6/183
f 94/10/175 97/10/179 99/11/187
f 97/10/179 94/10/175 66/6/175
f 97/10/179 66/6/175 71/6/179
f 99/11/188 97/10/184 94/10/178
f 66/6/178 94/10/178 97/10/184
f 71/6/184 66/6/178 97/10/184
f 90/10/169 92/10/173 100/11/189
f 92/10/173 90/10/169 69/6/169
f 92/10/173 69/6/169 65/6/173
f 100/11/190 92/10/176 90/10/171
f 69/6/171 90/10/171 92/10/176
f 65/6/176 69/6/171 92/10/176
f 102/11/142 61/6/144 101/10/144
f 61/6/191 102/11/142 59/6/145
f 59/6/145 102/11/142 103/10/145
f 101/10/146 61/6/146 102/11/147
f 59/6/148 102/11/147 61/6/149
f 103/10/148 102/11/147 59/6/148
f 103/10/145 60/6/137 59/6/145
f 60/6/137 103/10/145 104/11/150
f 60/6/137 104/11/150 105/10/137
f 59/6/148 60/6/140 103/10/148
f 104/11/151 103/10/148 60/6/140
f 105/10/140 104/11/192 60/6/140
f 62/6/159 107/11/163 106/10/159
f 107/11/193 62/6/159 53/6/152
f 107/11/163 53/6/164 108/10/152
f 106/10/162 107/11/165 62/6/162
f 53/6/155 62/6/162 107/11/194
f 108/10/155 53/6/155 107/11/165
f 110/10/154 105/10/137 109/11/195
f 105/10/137 110/10/136 54/6/136
f 105/10/137 54/6/154 60/6/137
f 109/11/196 105/10/140 110/10/158
f 54/6/141 110/10/141 105/10/140
f 60/6/140 54/6/141 105/10/140
f 101/10/143 106/10/159 111/11/160
f 106/10/159 101/10/144 61/6/144
f 106/10/159 61/6/143 62/6/159
f 111/11/161 106/10/162 101/10/149
f 61/6/149 101/10/149 106/10/162
f 62/6/162 61/6/149 106/10/162
f 53/6/152 112/11/153 108/10/152
f 112/11/153 53/6/152 54/6/136
f 112/11/153 54/6/154 110/10/154
f 108/10/155 112/11/156 53/6/155
f 54/6/141 53/6/155 112/11/156
f 110/10/158 54/6/158 112/11/156
