# Blender 4.1.1
# www.blender.org
mtllib tree.046.mtl
o tree.046
v -5.754474 -0.282319 -14.221412
v -5.596178 -0.282319 -14.132499
v -5.789165 -0.282319 -14.345016
v -5.472573 -0.282319 -14.167190
v -5.700252 -0.282319 -14.503312
v -5.383660 -0.282319 -14.325486
v -5.576647 -0.282319 -14.538003
v -5.418351 -0.282319 -14.449090
v -5.591296 0.046402 -14.233874
v -5.670444 0.046402 -14.278331
v -5.687789 0.046402 -14.340134
v -5.529493 0.046402 -14.251221
v -5.485036 0.046402 -14.330368
v -5.502382 0.046402 -14.392171
v -5.581530 0.046402 -14.436627
v -5.643332 0.046402 -14.419281
v -5.481374 0.539521 -14.406401
v -5.580309 0.539521 -14.461971
v -5.657562 0.539521 -14.440289
v -5.592516 0.539521 -14.208530
v -5.691451 0.539521 -14.264101
v -5.459692 0.539521 -14.329147
v -5.515263 0.539521 -14.230213
v -5.713133 0.539521 -14.341354
v -5.621208 0.163768 -14.182697
v -5.665238 0.163768 -14.238694
v -5.550477 0.163768 -14.174234
v -5.494480 0.163768 -14.218265
v -5.656775 0.163768 -14.309425
v -5.486017 0.163768 -14.288995
v -5.600778 0.163768 -14.353455
v -5.530047 0.163768 -14.344994
v -5.647025 0.044485 -14.136732
v -5.536232 0.044485 -14.123478
v -5.715995 0.044485 -14.224448
v -5.702739 0.044485 -14.335242
v -5.448516 0.044485 -14.192447
v -5.615024 0.044485 -14.404212
v -5.435260 0.044485 -14.303241
v -5.504230 0.044485 -14.390957
v -6.034214 0.539521 -14.337579
v -5.812788 0.539521 -14.731792
v -5.848850 1.083027 -14.339770
v -5.718207 1.083027 -14.572358
v -5.351417 0.539521 -13.954059
v -5.803528 0.539521 -13.948712
v -5.445997 1.083027 -14.113493
v -5.712744 1.083027 -14.110338
v -5.129992 0.539521 -14.348271
v -5.315355 1.083027 -14.346080
v -5.451460 1.083027 -14.575512
v -5.360676 0.539521 -14.737138
v -5.709776 1.666943 -14.115622
v -5.842790 1.666943 -14.339842
v -5.611448 2.279410 -14.290680
v -5.642021 2.279410 -14.342216
v -5.552757 2.279410 -14.395169
v -5.612675 2.279410 -14.394462
v -5.454428 1.666943 -14.570229
v -5.715116 1.666943 -14.567146
v -5.321414 1.666943 -14.346007
v -5.449089 1.666943 -14.118705
v -5.522184 2.279410 -14.343634
v -5.551530 2.279410 -14.291388
v -5.577756 1.083027 -13.975355
v -5.898254 1.083027 -14.155376
v -5.580111 1.666943 -14.174500
v -5.726966 1.666943 -14.256988
v -5.261604 1.083027 -14.162904
v -5.435246 1.666943 -14.260437
v -5.902600 1.083027 -14.522946
v -5.728958 1.666943 -14.425413
v -5.586449 1.083027 -14.710495
v -5.584094 1.666943 -14.511350
v -5.265951 1.083027 -14.530475
v -5.437238 1.666943 -14.428863
v -5.998608 0.369968 -14.576873
v -5.838163 0.454744 -14.774567
v -6.083946 0.454744 -14.336991
v -5.080259 0.454744 -14.348859
v -5.171245 0.369968 -14.586656
v -5.336319 0.454744 -14.780501
v -5.587750 0.369968 -14.820604
v -5.827885 0.454744 -13.905349
v -5.992960 0.369968 -14.099195
v -5.165596 0.369968 -14.108977
v -5.326042 0.454744 -13.911283
v -5.576454 0.369968 -13.865248
v -5.193746 0.945179 -14.347517
v -5.226349 1.014103 -14.143102
v -5.231174 1.014103 -14.551105
v -5.577278 1.014103 -13.934922
v -5.772304 0.945179 -14.004303
v -5.933031 1.014103 -14.134747
v -5.780257 0.945179 -14.676956
v -5.586926 1.014103 -14.750927
v -5.937855 1.014103 -14.542747
v -5.391901 0.945179 -14.681547
v -5.970459 0.945179 -14.338333
v -5.383947 0.945179 -14.008896
v -5.292738 1.618061 -14.346347
v -5.345201 1.569178 -14.483460
v -5.440384 1.618061 -14.595232
v -5.585359 1.569178 -14.618355
v -5.729747 1.618061 -14.591810
v -5.434457 1.618061 -14.094040
v -5.578846 1.569178 -14.067494
v -5.723821 1.618061 -14.090617
v -5.822260 1.569178 -14.477820
v -5.871466 1.618061 -14.339503
v -5.341944 1.569178 -14.208032
v -5.819003 1.569178 -14.202389
vn -0.0000 -1.0000 -0.0000
vn -0.1190 0.2942 0.9483
vn -0.7540 0.2944 0.5873
vn -0.1092 0.2944 0.9494
vn -0.7479 0.2942 0.5950
vn -0.9483 0.2942 -0.1189
vn -0.7540 0.2944 0.5872
vn -0.7480 0.2942 0.5950
vn -0.9483 0.2943 -0.1189
vn -0.9494 0.2944 -0.1091
vn 0.5950 0.2942 0.7480
vn -0.1091 0.2944 0.9494
vn 0.5872 0.2944 0.7540
vn 0.5950 0.2942 0.7479
vn -0.1189 0.2942 0.9483
vn 0.9483 0.2942 0.1190
vn 0.5873 0.2944 0.7540
vn 0.9494 0.2944 0.1092
vn 0.1092 0.2944 -0.9494
vn 0.7479 0.2942 -0.5951
vn 0.7540 0.2944 -0.5873
vn 0.1190 0.2942 -0.9483
vn -0.9483 0.2942 -0.1190
vn -0.5873 0.2944 -0.7540
vn -0.9494 0.2944 -0.1092
vn -0.5950 0.2942 -0.7479
vn 0.7540 0.2944 -0.5872
vn 0.9483 0.2943 0.1189
vn 0.9494 0.2944 0.1091
vn 0.9483 0.2942 0.1189
vn 0.7480 0.2942 -0.5950
vn 0.1091 0.2944 -0.9494
vn 0.1189 0.2942 -0.9483
vn -0.5950 0.2942 -0.7480
vn -0.5872 0.2944 -0.7540
vn 0.7845 -0.0513 -0.6180
vn 0.1178 -0.0512 -0.9917
vn 0.7856 -0.0513 -0.6166
vn 0.1178 -0.0513 -0.9917
vn 0.1196 -0.0513 -0.9915
vn -0.6180 -0.0512 -0.7845
vn 0.1177 -0.0513 -0.9917
vn 0.1195 -0.0512 -0.9915
vn -0.6180 -0.0513 -0.7845
vn -0.6166 -0.0512 -0.7856
vn -0.7856 -0.0512 0.6166
vn -0.1196 -0.0513 0.9915
vn -0.1178 -0.0513 0.9917
vn -0.7845 -0.0513 0.6180
vn 0.9917 -0.0513 0.1178
vn 0.6180 -0.0513 0.7845
vn 0.9915 -0.0513 0.1196
vn 0.9917 -0.0512 0.1178
vn 0.6166 -0.0513 0.7856
vn -0.7856 -0.0513 0.6166
vn -0.9915 -0.0513 -0.1195
vn -0.9917 -0.0513 -0.1177
vn 0.9915 -0.0513 0.1195
vn 0.7856 -0.0512 -0.6166
vn -0.1177 -0.0513 0.9917
vn 0.6166 -0.0512 0.7856
vn 0.6180 -0.0512 0.7845
vn -0.1195 -0.0512 0.9915
vn -0.9917 -0.0513 -0.1178
vn -0.9915 -0.0513 -0.1196
vn -0.9917 -0.0512 -0.1178
vn -0.6166 -0.0513 -0.7856
vn -0.0000 1.0000 -0.0000
vn 0.2472 0.4042 0.8806
vn -0.4479 0.4042 0.7975
vn 0.2471 0.4042 0.8806
vn -0.4479 0.4043 0.7975
vn -0.7975 0.4042 -0.4480
vn -0.2472 0.4042 -0.8806
vn -0.7975 0.4042 -0.4479
vn -0.2472 0.4043 -0.8806
vn 0.4479 0.4042 -0.7975
vn 0.4479 0.4043 -0.7975
vn -0.2471 0.4042 -0.8806
vn 0.7975 0.4042 0.4480
vn 0.7974 0.4042 0.4480
vn 0.2472 0.4043 0.8806
vn -0.8807 0.4042 0.2471
vn -0.8806 0.4042 0.2471
vn -0.7975 0.4043 -0.4479
vn 0.8806 0.4042 -0.2471
vn 0.7975 0.4042 0.4479
vn 0.7975 0.4043 0.4479
vn -0.8806 0.4042 0.2472
vn -0.4480 0.4042 0.7975
vn 0.4480 0.4042 -0.7975
vn 0.8806 0.4042 -0.2472
vn 0.4480 0.4043 -0.7974
vn -0.9464 0.3228 0.0112
vn -0.4829 0.3228 -0.8140
vn 0.4829 0.3228 0.8140
vn -0.4635 0.3228 0.8252
vn 0.9464 0.3228 -0.0112
vn 0.4635 0.3228 -0.8252
vn -0.3368 0.7260 0.5996
vn -0.9502 0.3115 0.0113
vn -0.4654 0.3115 0.8285
vn -0.9502 0.3115 0.0112
vn -0.6877 0.7260 0.0081
vn 0.4654 0.3115 -0.8285
vn -0.3509 0.7260 -0.5915
vn 0.3369 0.7260 -0.5996
vn -0.4848 0.3115 -0.8173
vn 0.6877 0.7260 -0.0082
vn 0.4848 0.3115 0.8173
vn 0.9502 0.3115 -0.0112
vn 0.4848 0.3115 0.8172
vn 0.3508 0.7260 0.5915
vn 0.3509 0.7260 0.5915
vn -0.4653 0.3115 0.8285
vn -0.3369 0.7260 0.5996
vn 0.3509 0.7259 0.5915
vn -0.6877 0.7259 0.0082
vn -0.3368 0.7259 0.5996
vn -0.6877 0.7259 0.0081
vn -0.3509 0.7259 -0.5915
vn 0.6877 0.7259 -0.0081
vn 0.3368 0.7259 -0.5996
vn 0.4654 0.3116 -0.8285
vn 0.6877 0.7260 -0.0081
vn 0.9502 0.3115 -0.0113
vn 0.6876 0.7260 -0.0082
vn 0.3368 0.7260 -0.5996
vn -0.6877 0.7260 0.0082
vn -0.4848 0.3115 -0.8172
vn 0.0112 0.3228 0.9464
vn -0.8140 0.3228 0.4829
vn 0.8252 0.3228 0.4635
vn -0.8252 0.3228 -0.4635
vn -0.0112 0.3228 -0.9464
vn 0.8140 0.3228 -0.4829
vn -0.8625 0.5060 0.0102
vn -0.4401 0.5060 -0.7418
vn -0.7773 0.4530 -0.4366
vn 0.7773 -0.4530 0.4366
vn 0.4401 -0.5060 0.7418
vn 0.8625 -0.5060 -0.0102
vn 0.7668 0.4530 -0.4549
vn 0.8624 0.5060 -0.0102
vn 0.8625 0.5060 -0.0102
vn 0.4224 0.5060 -0.7520
vn -0.8625 -0.5060 0.0102
vn -0.7668 -0.4530 0.4549
vn -0.4224 -0.5060 0.7520
vn -0.0105 0.4530 -0.8915
vn 0.0105 -0.4530 0.8915
vn -0.4224 0.5060 0.7520
vn -0.7668 0.4530 0.4549
vn -0.8624 0.5060 0.0102
vn 0.4224 -0.5060 -0.7520
vn 0.7668 -0.4530 -0.4549
vn 0.4401 0.5060 0.7418
vn 0.7773 0.4530 0.4366
vn -0.7773 -0.4530 -0.4366
vn -0.4401 -0.5060 -0.7418
vn 0.0105 0.4530 0.8915
vn 0.0105 0.4529 0.8915
vn -0.4224 0.5061 0.7520
vn -0.0105 -0.4530 -0.8915
vn -0.0105 -0.4529 -0.8915
vn 0.7418 0.5060 -0.4401
vn 0.7520 0.5060 0.4224
vn 0.8915 0.4530 -0.0105
vn -0.8915 -0.4530 0.0105
vn -0.7520 -0.5060 -0.4224
vn -0.7418 -0.5060 0.4401
vn 0.0102 0.5060 0.8625
vn -0.4366 0.4530 0.7773
vn -0.7418 0.5060 0.4401
vn -0.0102 -0.5060 -0.8625
vn 0.4366 -0.4530 -0.7773
vn -0.0102 -0.5060 -0.8624
vn 0.7418 -0.5060 -0.4401
vn 0.4366 -0.4529 -0.7773
vn -0.7520 0.5060 -0.4224
vn -0.0102 0.5060 -0.8624
vn -0.4549 0.4530 -0.7668
vn -0.0102 0.5060 -0.8625
vn 0.4549 -0.4530 0.7668
vn 0.0102 -0.5060 0.8625
vn 0.7520 -0.5060 0.4224
vn 0.4366 0.4530 -0.7773
vn 0.7418 0.5061 -0.4401
vn -0.4366 -0.4530 0.7773
vn -0.4366 -0.4529 0.7773
vn -0.8915 0.4530 0.0105
vn 0.8915 -0.4530 -0.0105
vn 0.4549 0.4530 0.7668
vn -0.4549 -0.4530 -0.7668
vn 0.7668 0.4529 -0.4549
vn -0.7668 -0.4529 0.4549
vn -0.4224 -0.5061 0.7520
vn -0.4401 -0.5061 -0.7418
vn 0.4224 -0.5061 -0.7520
vn -0.0105 -0.4530 -0.8914
vn -0.7773 -0.4529 -0.4366
vn -0.7668 0.4529 0.4549
vn 0.7668 -0.4529 -0.4549
vt 0.593750 0.025000
vt 0.593750 0.104996
vt 0.593750 0.225000
vt 0.093750 0.475000
vt 0.093750 0.275000
vt 0.093750 0.425000
vt 0.093750 0.348778
vt 0.093750 0.338765
vt 0.093750 0.344099
vt 0.093750 0.375000
vt 0.093750 0.325000
s 0
usemtl colormap.002
f 3/1/1 2/1/1 1/1/1
f 2/1/1 3/1/1 4/1/1
f 4/1/1 3/1/1 5/1/1
f 4/1/1 5/1/1 6/1/1
f 6/1/1 5/1/1 7/1/1
f 6/1/1 7/1/1 8/1/1
f 9/2/2 1/1/3 2/1/4
f 1/1/3 9/2/2 10/2/5
f 11/2/6 1/1/7 10/2/8
f 1/1/7 11/2/9 3/1/10
f 12/2/11 2/1/12 4/1/13
f 2/1/12 12/2/14 9/2/15
f 13/2/16 4/1/17 6/1/18
f 4/1/17 13/2/16 12/2/14
f 7/1/19 14/2/20 8/1/21
f 14/2/20 7/1/19 15/2/22
f 11/2/23 5/1/24 3/1/25
f 5/1/24 11/2/23 16/2/26
f 8/1/27 13/2/28 6/1/29
f 13/2/30 8/1/27 14/2/31
f 7/1/32 16/2/26 15/2/33
f 16/2/34 7/1/32 5/1/35
f 14/2/36 18/3/37 17/3/38
f 18/3/39 14/2/36 15/2/40
f 16/2/41 18/3/42 15/2/43
f 18/3/42 16/2/44 19/3/45
f 21/3/46 9/2/47 20/3/48
f 9/2/47 21/3/46 10/2/49
f 22/3/50 12/2/51 13/2/52
f 12/2/51 22/3/53 23/3/54
f 21/3/55 11/2/56 10/2/49
f 11/2/56 21/3/46 24/3/57
f 13/2/58 17/3/59 22/3/50
f 17/3/38 13/2/58 14/2/36
f 20/3/60 12/2/51 23/3/61
f 12/2/62 20/3/48 9/2/63
f 24/3/64 16/2/44 11/2/65
f 16/2/44 24/3/66 19/3/67
f 27/4/68 26/4/68 25/4/68
f 26/4/68 27/4/68 28/4/68
f 26/4/68 28/4/68 29/4/68
f 29/4/68 28/4/68 30/4/68
f 29/4/68 30/4/68 31/4/68
f 31/4/68 30/4/68 32/4/68
f 35/5/1 34/5/1 33/5/1
f 34/5/1 35/5/1 36/5/1
f 34/5/1 36/5/1 37/5/1
f 37/5/1 36/5/1 38/5/1
f 37/5/1 38/5/1 39/5/1
f 39/5/1 38/5/1 40/5/1
f 27/4/69 33/5/70 34/5/71
f 33/5/70 27/4/71 25/4/72
f 29/4/73 38/5/74 36/5/75
f 38/5/74 29/4/73 31/4/76
f 40/5/77 31/4/74 32/4/78
f 31/4/79 40/5/77 38/5/79
f 28/4/80 34/5/69 37/5/81
f 34/5/69 28/4/80 27/4/82
f 26/4/83 36/5/75 35/5/84
f 36/5/75 26/4/84 29/4/85
f 30/4/86 37/5/87 39/5/86
f 37/5/87 30/4/86 28/4/88
f 26/4/89 33/5/72 25/4/90
f 33/5/90 26/4/89 35/5/89
f 40/5/91 30/4/92 39/5/92
f 30/4/92 40/5/93 32/4/91
f 43/6/94 42/7/95 41/7/94
f 42/7/95 43/6/94 44/6/95
f 47/6/96 46/7/97 45/7/96
f 46/7/97 47/6/96 48/6/97
f 50/6/98 45/7/96 49/7/98
f 45/7/96 50/6/98 47/6/96
f 48/6/97 41/7/94 46/7/97
f 41/7/94 48/6/97 43/6/94
f 52/7/99 44/6/95 51/6/99
f 44/6/95 52/7/99 42/7/95
f 52/7/99 50/6/98 49/7/98
f 50/6/98 52/7/99 51/6/99
f 41/7/1 45/7/1 46/7/1
f 45/7/1 41/7/1 42/7/1
f 45/7/1 42/7/1 49/7/1
f 49/7/1 42/7/1 52/7/1
f 55/6/100 54/8/101 53/8/102
f 54/8/103 55/6/100 56/6/104
f 59/8/105 58/6/106 57/6/107
f 58/6/106 59/8/105 60/8/108
f 63/6/109 62/8/110 61/8/111
f 62/8/112 63/6/109 64/6/113
f 64/6/114 53/8/115 62/8/110
f 53/8/102 64/6/114 55/6/116
f 64/6/117 56/6/118 55/6/119
f 56/6/120 64/6/117 58/6/121
f 58/6/121 64/6/117 63/6/122
f 58/6/121 63/6/109 57/6/123
f 59/8/124 63/6/125 61/8/126
f 63/6/127 59/8/105 57/6/128
f 54/8/1 62/8/1 53/8/1
f 62/8/1 54/8/1 60/8/1
f 62/8/1 60/8/1 61/8/1
f 61/8/1 60/8/1 59/8/1
f 56/6/129 60/8/108 54/8/103
f 60/8/130 56/6/129 58/6/106
f 67/6/131 66/9/132 65/9/131
f 66/9/132 67/6/131 68/6/132
f 70/6/133 65/9/131 69/9/133
f 65/9/131 70/6/133 67/6/131
f 68/6/132 71/9/134 66/9/132
f 71/9/134 68/6/132 72/6/134
f 72/6/134 73/9/135 71/9/134
f 73/9/135 72/6/134 74/6/135
f 71/9/1 65/9/1 66/9/1
f 65/9/1 71/9/1 69/9/1
f 69/9/1 71/9/1 73/9/1
f 69/9/1 73/9/1 75/9/1
f 76/6/136 69/9/133 75/9/136
f 69/9/133 76/6/136 70/6/133
f 73/9/135 76/6/136 75/9/136
f 76/6/136 73/9/135 74/6/135
f 79/10/137 78/10/138 77/11/139
f 78/10/138 79/10/137 41/6/137
f 78/10/138 41/6/137 42/6/138
f 77/11/140 78/10/141 79/10/142
f 41/6/142 79/10/142 78/10/141
f 42/6/141 41/6/142 78/10/141
f 81/11/143 49/6/144 80/10/145
f 49/6/144 81/11/143 52/6/146
f 52/6/146 81/11/143 82/10/146
f 80/10/147 49/6/147 81/11/148
f 52/6/149 81/11/148 49/6/147
f 82/10/149 81/11/148 52/6/149
f 82/10/146 42/6/138 52/6/146
f 42/6/138 82/10/146 83/11/150
f 42/6/138 83/11/150 78/10/138
f 52/6/149 42/6/141 82/10/149
f 83/11/151 82/10/149 42/6/141
f 78/10/141 83/11/151 42/6/141
f 46/6/152 85/11/153 84/10/152
f 85/11/153 46/6/152 41/6/154
f 85/11/153 41/6/154 79/10/137
f 84/10/155 85/11/156 46/6/155
f 41/6/142 46/6/155 85/11/156
f 79/10/142 41/6/142 85/11/156
f 80/10/145 87/10/157 86/11/158
f 87/10/157 80/10/145 49/6/145
f 87/10/157 49/6/145 45/6/157
f 86/11/159 87/10/160 80/10/147
f 49/6/147 80/10/147 87/10/160
f 45/6/160 49/6/147 87/10/160
f 45/6/157 88/11/161 87/10/157
f 88/11/162 45/6/157 46/6/152
f 88/11/161 46/6/163 84/10/152
f 87/10/160 88/11/164 45/6/160
f 46/6/155 45/6/160 88/11/165
f 84/10/155 46/6/155 88/11/164
f 91/10/166 90/10/167 89/11/168
f 90/10/167 91/10/166 75/6/166
f 90/10/167 75/6/166 69/6/167
f 89/11/169 90/10/170 91/10/171
f 75/6/171 91/10/171 90/10/170
f 69/6/170 75/6/171 90/10/170
f 65/6/172 93/11/173 92/10/172
f 93/11/173 65/6/172 66/6/174
f 93/11/173 66/6/174 94/10/174
f 92/10/175 93/11/176 65/6/177
f 66/6/178 65/6/175 93/11/176
f 94/10/178 66/6/178 93/11/179
f 97/10/180 96/10/181 95/11/182
f 96/10/183 97/10/180 71/6/180
f 96/10/183 71/6/180 73/6/183
f 95/11/184 96/10/185 97/10/186
f 71/6/186 97/10/186 96/10/185
f 73/6/185 71/6/186 96/10/185
f 98/11/187 75/6/188 91/10/166
f 75/6/166 98/11/187 73/6/183
f 73/6/183 98/11/187 96/10/183
f 91/10/171 75/6/171 98/11/189
f 73/6/185 98/11/190 75/6/171
f 96/10/185 98/11/189 73/6/185
f 94/10/174 97/10/180 99/11/191
f 97/10/180 94/10/174 66/6/174
f 97/10/180 66/6/174 71/6/180
f 99/11/192 97/10/186 94/10/178
f 66/6/178 94/10/178 97/10/186
f 71/6/186 66/6/178 97/10/186
f 90/10/167 92/10/172 100/11/193
f 92/10/172 90/10/167 69/6/167
f 92/10/172 69/6/167 65/6/172
f 100/11/194 92/10/175 90/10/170
f 69/6/170 90/10/170 92/10/175
f 65/6/175 69/6/170 92/10/175
f 102/11/143 61/6/144 101/10/145
f 61/6/145 102/11/195 59/6/146
f 59/6/146 102/11/143 103/10/146
f 101/10/147 61/6/147 102/11/148
f 59/6/149 102/11/196 61/6/147
f 103/10/149 102/11/148 59/6/197
f 103/10/146 60/6/138 59/6/146
f 60/6/138 103/10/146 104/11/150
f 60/6/138 104/11/150 105/10/138
f 59/6/149 60/6/141 103/10/149
f 104/11/151 103/10/149 60/6/141
f 105/10/141 104/11/151 60/6/141
f 62/6/157 107/11/161 106/10/157
f 107/11/161 62/6/157 53/6/152
f 107/11/161 53/6/163 108/10/152
f 106/10/160 107/11/164 62/6/198
f 53/6/155 62/6/160 107/11/164
f 108/10/155 53/6/199 107/11/200
f 110/10/137 105/10/138 109/11/139
f 105/10/138 110/10/137 54/6/137
f 105/10/138 54/6/137 60/6/138
f 109/11/140 105/10/141 110/10/142
f 54/6/142 110/10/142 105/10/141
f 60/6/141 54/6/142 105/10/141
f 101/10/145 106/10/157 111/11/158
f 106/10/157 101/10/145 61/6/145
f 106/10/157 61/6/145 62/6/157
f 111/11/201 106/10/160 101/10/147
f 61/6/147 101/10/147 106/10/160
f 62/6/160 61/6/147 106/10/160
f 53/6/152 112/11/153 108/10/152
f 112/11/153 53/6/152 54/6/154
f 112/11/202 54/6/137 110/10/137
f 108/10/155 112/11/156 53/6/155
f 54/6/142 53/6/155 112/11/156
f 110/10/142 54/6/142 112/11/203
f 3/1/1 2/1/1 1/1/1
f 2/1/1 3/1/1 4/1/1
f 4/1/1 3/1/1 5/1/1
f 4/1/1 5/1/1 6/1/1
f 6/1/1 5/1/1 7/1/1
f 6/1/1 7/1/1 8/1/1
f 9/2/2 1/1/3 2/1/4
f 1/1/3 9/2/2 10/2/5
f 11/2/6 1/1/7 10/2/8
f 1/1/7 11/2/9 3/1/10
f 12/2/11 2/1/12 4/1/13
f 2/1/12 12/2/14 9/2/15
f 13/2/16 4/1/17 6/1/18
f 4/1/17 13/2/16 12/2/14
f 7/1/19 14/2/20 8/1/21
f 14/2/20 7/1/19 15/2/22
f 11/2/23 5/1/24 3/1/25
f 5/1/24 11/2/23 16/2/26
f 8/1/27 13/2/28 6/1/29
f 13/2/30 8/1/27 14/2/31
f 7/1/32 16/2/26 15/2/33
f 16/2/34 7/1/32 5/1/35
f 14/2/36 18/3/37 17/3/38
f 18/3/39 14/2/36 15/2/40
f 16/2/41 18/3/42 15/2/43
f 18/3/42 16/2/44 19/3/45
f 21/3/46 9/2/47 20/3/48
f 9/2/47 21/3/46 10/2/49
f 22/3/50 12/2/51 13/2/52
f 12/2/51 22/3/53 23/3/54
f 21/3/55 11/2/56 10/2/49
f 11/2/56 21/3/46 24/3/57
f 13/2/58 17/3/59 22/3/50
f 17/3/38 13/2/58 14/2/36
f 20/3/60 12/2/51 23/3/61
f 12/2/62 20/3/48 9/2/63
f 24/3/64 16/2/44 11/2/65
f 16/2/44 24/3/66 19/3/67
f 27/4/68 26/4/68 25/4/68
f 26/4/68 27/4/68 28/4/68
f 26/4/68 28/4/68 29/4/68
f 29/4/68 28/4/68 30/4/68
f 29/4/68 30/4/68 31/4/68
f 31/4/68 30/4/68 32/4/68
f 35/5/1 34/5/1 33/5/1
f 34/5/1 35/5/1 36/5/1
f 34/5/1 36/5/1 37/5/1
f 37/5/1 36/5/1 38/5/1
f 37/5/1 38/5/1 39/5/1
f 39/5/1 38/5/1 40/5/1
f 27/4/69 33/5/70 34/5/71
f 33/5/70 27/4/71 25/4/72
f 29/4/73 38/5/74 36/5/75
f 38/5/74 29/4/73 31/4/76
f 40/5/77 31/4/74 32/4/78
f 31/4/79 40/5/77 38/5/79
f 28/4/80 34/5/69 37/5/81
f 34/5/69 28/4/80 27/4/82
f 26/4/83 36/5/75 35/5/84
f 36/5/75 26/4/84 29/4/85
f 30/4/86 37/5/87 39/5/86
f 37/5/87 30/4/86 28/4/88
f 26/4/89 33/5/72 25/4/90
f 33/5/90 26/4/89 35/5/89
f 40/5/91 30/4/92 39/5/92
f 30/4/92 40/5/93 32/4/91
f 43/6/94 42/7/95 41/7/94
f 42/7/95 43/6/94 44/6/95
f 47/6/96 46/7/97 45/7/96
f 46/7/97 47/6/96 48/6/97
f 50/6/98 45/7/96 49/7/98
f 45/7/96 50/6/98 47/6/96
f 48/6/97 41/7/94 46/7/97
f 41/7/94 48/6/97 43/6/94
f 52/7/99 44/6/95 51/6/99
f 44/6/95 52/7/99 42/7/95
f 52/7/99 50/6/98 49/7/98
f 50/6/98 52/7/99 51/6/99
f 41/7/1 45/7/1 46/7/1
f 45/7/1 41/7/1 42/7/1
f 45/7/1 42/7/1 49/7/1
f 49/7/1 42/7/1 52/7/1
f 55/6/100 54/8/101 53/8/102
f 54/8/103 55/6/100 56/6/104
f 59/8/105 58/6/106 57/6/107
f 58/6/106 59/8/105 60/8/108
f 63/6/109 62/8/110 61/8/111
f 62/8/112 63/6/109 64/6/113
f 64/6/114 53/8/115 62/8/110
f 53/8/102 64/6/114 55/6/116
f 64/6/117 56/6/118 55/6/119
f 56/6/120 64/6/117 58/6/121
f 58/6/121 64/6/117 63/6/122
f 58/6/121 63/6/109 57/6/123
f 59/8/124 63/6/125 61/8/126
f 63/6/127 59/8/105 57/6/128
f 54/8/1 62/8/1 53/8/1
f 62/8/1 54/8/1 60/8/1
f 62/8/1 60/8/1 61/8/1
f 61/8/1 60/8/1 59/8/1
f 56/6/129 60/8/108 54/8/103
f 60/8/130 56/6/129 58/6/106
f 67/6/131 66/9/132 65/9/131
f 66/9/132 67/6/131 68/6/132
f 70/6/133 65/9/131 69/9/133
f 65/9/131 70/6/133 67/6/131
f 68/6/132 71/9/134 66/9/132
f 71/9/134 68/6/132 72/6/134
f 72/6/134 73/9/135 71/9/134
f 73/9/135 72/6/134 74/6/135
f 71/9/1 65/9/1 66/9/1
f 65/9/1 71/9/1 69/9/1
f 69/9/1 71/9/1 73/9/1
f 69/9/1 73/9/1 75/9/1
f 76/6/136 69/9/133 75/9/136
f 69/9/133 76/6/136 70/6/133
f 73/9/135 76/6/136 75/9/136
f 76/6/136 73/9/135 74/6/135
f 79/10/137 78/10/138 77/11/139
f 78/10/138 79/10/137 41/6/137
f 78/10/138 41/6/137 42/6/138
f 77/11/140 78/10/141 79/10/142
f 41/6/142 79/10/142 78/10/141
f 42/6/141 41/6/142 78/10/141
f 81/11/143 49/6/144 80/10/145
f 49/6/144 81/11/143 52/6/146
f 52/6/146 81/11/143 82/10/146
f 80/10/147 49/6/147 81/11/148
f 52/6/149 81/11/148 49/6/147
f 82/10/149 81/11/148 52/6/149
f 82/10/146 42/6/138 52/6/146
f 42/6/138 82/10/146 83/11/150
f 42/6/138 83/11/150 78/10/138
f 52/6/149 42/6/141 82/10/149
f 83/11/151 82/10/149 42/6/141
f 78/10/141 83/11/151 42/6/141
f 46/6/152 85/11/153 84/10/152
f 85/11/153 46/6/152 41/6/154
f 85/11/153 41/6/154 79/10/137
f 84/10/155 85/11/156 46/6/155
f 41/6/142 46/6/155 85/11/156
f 79/10/142 41/6/142 85/11/156
f 80/10/145 87/10/157 86/11/158
f 87/10/157 80/10/145 49/6/145
f 87/10/157 49/6/145 45/6/157
f 86/11/159 87/10/160 80/10/147
f 49/6/147 80/10/147 87/10/160
f 45/6/160 49/6/147 87/10/160
f 45/6/157 88/11/161 87/10/157
f 88/11/162 45/6/157 46/6/152
f 88/11/161 46/6/163 84/10/152
f 87/10/160 88/11/164 45/6/160
f 46/6/155 45/6/160 88/11/165
f 84/10/155 46/6/155 88/11/164
f 91/10/166 90/10/167 89/11/168
f 90/10/167 91/10/166 75/6/166
f 90/10/167 75/6/166 69/6/167
f 89/11/169 90/10/170 91/10/171
f 75/6/171 91/10/171 90/10/170
f 69/6/170 75/6/171 90/10/170
f 65/6/172 93/11/173 92/10/172
f 93/11/173 65/6/172 66/6/174
f 93/11/173 66/6/174 94/10/174
f 92/10/175 93/11/176 65/6/177
f 66/6/178 65/6/175 93/11/176
f 94/10/178 66/6/178 93/11/179
f 97/10/180 96/10/181 95/11/182
f 96/10/183 97/10/180 71/6/180
f 96/10/183 71/6/180 73/6/183
f 95/11/184 96/10/185 97/10/186
f 71/6/186 97/10/186 96/10/185
f 73/6/185 71/6/186 96/10/185
f 98/11/187 75/6/188 91/10/166
f 75/6/166 98/11/187 73/6/183
f 73/6/183 98/11/187 96/10/183
f 91/10/171 75/6/171 98/11/189
f 73/6/185 98/11/190 75/6/171
f 96/10/185 98/11/189 73/6/185
f 94/10/174 97/10/180 99/11/191
f 97/10/180 94/10/174 66/6/174
f 97/10/180 66/6/174 71/6/180
f 99/11/192 97/10/186 94/10/178
f 66/6/178 94/10/178 97/10/186
f 71/6/186 66/6/178 97/10/186
f 90/10/167 92/10/172 100/11/193
f 92/10/172 90/10/167 69/6/167
f 92/10/172 69/6/167 65/6/172
f 100/11/194 92/10/175 90/10/170
f 69/6/170 90/10/170 92/10/175
f 65/6/175 69/6/170 92/10/175
f 102/11/143 61/6/144 101/10/145
f 61/6/145 102/11/195 59/6/146
f 59/6/146 102/11/143 103/10/146
f 101/10/147 61/6/147 102/11/148
f 59/6/149 102/11/196 61/6/147
f 103/10/149 102/11/148 59/6/197
f 103/10/146 60/6/138 59/6/146
f 60/6/138 103/10/146 104/11/150
f 60/6/138 104/11/150 105/10/138
f 59/6/149 60/6/141 103/10/149
f 104/11/151 103/10/149 60/6/141
f 105/10/141 104/11/151 60/6/141
f 62/6/157 107/11/161 106/10/157
f 107/11/161 62/6/157 53/6/152
f 107/11/161 53/6/163 108/10/152
f 106/10/160 107/11/164 62/6/198
f 53/6/155 62/6/160 107/11/164
f 108/10/155 53/6/199 107/11/200
f 110/10/137 105/10/138 109/11/139
f 105/10/138 110/10/137 54/6/137
f 105/10/138 54/6/137 60/6/138
f 109/11/140 105/10/141 110/10/142
f 54/6/142 110/10/142 105/10/141
f 60/6/141 54/6/142 105/10/141
f 101/10/145 106/10/157 111/11/158
f 106/10/157 101/10/145 61/6/145
f 106/10/157 61/6/145 62/6/157
f 111/11/201 106/10/160 101/10/147
f 61/6/147 101/10/147 106/10/160
f 62/6/160 61/6/147 106/10/160
f 53/6/152 112/11/153 108/10/152
f 112/11/153 53/6/152 54/6/154
f 112/11/202 54/6/137 110/10/137
f 108/10/155 112/11/156 53/6/155
f 54/6/142 53/6/155 112/11/156
f 110/10/142 54/6/142 112/11/203
