# Blender 4.1.1
# www.blender.org
mtllib tree.019.mtl
o tree.019
v -1.091422 -0.382804 -16.812605
v -0.893262 -0.382804 -16.958677
v -1.263538 -0.382804 -16.838650
v -0.867218 -0.382804 -17.130793
v -1.409609 -0.382804 -17.036810
v -1.013290 -0.382804 -17.328953
v -1.383565 -0.382804 -17.208925
v -1.185406 -0.382804 -17.354998
v -1.015838 0.062918 -17.021240
v -1.114918 0.062918 -16.948204
v -1.200976 0.062918 -16.961226
v -1.002816 0.062918 -17.107298
v -1.075852 0.062918 -17.206377
v -1.161910 0.062918 -17.219398
v -1.260990 0.062918 -17.146362
v -1.274012 0.062918 -17.060305
v -1.167784 0.731552 -17.253298
v -1.291634 0.731552 -17.162004
v -1.307911 0.731552 -17.054432
v -0.985194 0.731552 -17.005598
v -1.109044 0.731552 -16.914305
v -1.060211 0.731552 -17.237020
v -0.968917 0.731552 -17.113171
v -1.216616 0.731552 -16.930582
v -0.969263 0.222058 -16.955732
v -1.063025 0.222058 -16.932537
v -0.919364 0.222058 -17.038435
v -0.942560 0.222058 -17.132196
v -1.145728 0.222058 -16.982435
v -1.025263 0.222058 -17.182096
v -1.168924 0.222058 -17.076197
v -1.119026 0.222058 -17.158899
v -0.926849 0.060318 -16.898193
v -0.848687 0.060318 -17.027740
v -1.073720 0.060318 -16.861858
v -1.203266 0.060318 -16.940020
v -0.885022 0.060318 -17.174612
v -1.239601 0.060318 -17.086891
v -1.014568 0.060318 -17.252773
v -1.161440 0.060318 -17.216438
v -1.390983 0.731552 -16.531631
v -1.754753 0.731552 -17.025118
v -1.290334 1.468507 -16.761957
v -1.504960 1.468507 -17.053116
v -0.536238 0.731552 -17.161697
v -0.781726 0.731552 -16.599920
v -0.786031 1.468507 -17.133699
v -0.930870 1.468507 -16.802248
v -0.900008 0.731552 -17.655186
v -1.000657 1.468507 -17.424860
v -1.360121 1.468507 -17.384567
v -1.509265 0.731552 -17.586895
v -0.935745 2.260255 -16.808863
v -1.287044 2.260255 -16.769485
v -1.097285 3.090716 -17.028006
v -1.178030 3.090716 -17.018955
v -1.193706 3.090716 -17.158810
v -1.226241 3.090716 -17.084358
v -1.355246 2.260255 -17.377954
v -1.496794 2.260255 -17.054031
v -1.003947 2.260255 -17.417330
v -0.794197 2.260255 -17.132784
v -1.112961 3.090716 -17.167860
v -1.064751 3.090716 -17.102459
v -0.688766 1.468507 -16.893826
v -1.089975 1.468507 -16.598078
v -0.936217 2.260255 -17.001957
v -1.120055 2.260255 -16.866442
v -0.744286 1.468507 -17.389156
v -0.961657 2.260255 -17.228924
v -1.546705 1.468507 -16.797661
v -1.329334 2.260255 -16.957893
v -1.602225 1.468507 -17.292992
v -1.354774 2.260255 -17.184860
v -1.201016 1.468507 -17.588739
v -1.170936 2.260255 -17.320374
v -1.666890 0.501649 -16.709066
v -1.821771 0.616601 -17.017607
v -1.417987 0.616601 -16.469835
v -0.873004 0.616601 -17.716982
v -1.217648 0.501649 -17.737120
v -1.549280 0.616601 -17.641178
v -1.739042 0.501649 -17.352779
v -0.741711 0.616601 -16.545637
v -1.073343 0.501649 -16.449697
v -0.624101 0.501649 -17.477749
v -0.469220 0.616601 -17.169210
v -0.551949 0.501649 -16.834038
v -0.934625 1.281595 -17.575966
v -0.700153 1.375051 -17.421688
v -1.207123 1.375051 -17.643227
v -0.638525 1.375051 -16.871870
v -0.833023 1.281595 -16.669510
v -1.083868 1.375051 -16.543591
v -1.668838 1.281595 -17.034748
v -1.652465 1.375051 -17.314945
v -1.590838 1.375051 -16.765127
v -1.457968 1.281595 -17.517305
v -1.356365 1.281595 -16.610849
v -0.622153 1.281595 -17.152069
v -0.988376 2.193974 -17.452961
v -1.187099 2.127692 -17.464573
v -1.378318 2.193974 -17.409254
v -1.487736 2.127692 -17.242962
v -1.535437 2.193974 -17.049700
v -0.755554 2.193974 -17.137115
v -0.803256 2.127692 -16.943855
v -0.912673 2.193974 -16.777563
v -1.446132 2.127692 -16.871796
v -1.302615 2.193974 -16.733854
v -0.844859 2.127692 -17.315020
v -1.103893 2.127692 -16.722242
vn -0.0000 -1.0000 -0.0000
vn 0.8155 0.2942 0.4984
vn 0.2253 0.2944 0.9288
vn 0.8205 0.2944 0.4900
vn 0.2349 0.2942 0.9264
vn -0.4983 0.2942 0.8155
vn 0.2252 0.2944 0.9288
vn 0.2348 0.2942 0.9265
vn -0.4984 0.2943 0.8155
vn -0.4899 0.2944 0.8206
vn 0.9265 0.2942 -0.2348
vn 0.8206 0.2944 0.4899
vn 0.9288 0.2944 -0.2252
vn 0.8205 0.2944 0.4899
vn 0.4984 0.2942 -0.8155
vn 0.9288 0.2944 -0.2253
vn 0.4900 0.2944 -0.8205
vn 0.9287 0.2944 -0.2253
vn 0.9264 0.2942 -0.2349
vn -0.8205 0.2944 -0.4900
vn -0.2349 0.2942 -0.9264
vn -0.2253 0.2944 -0.9287
vn -0.8155 0.2942 -0.4984
vn -0.4984 0.2942 0.8155
vn -0.9288 0.2944 0.2253
vn -0.4900 0.2944 0.8205
vn -0.9264 0.2942 0.2349
vn -0.2252 0.2944 -0.9288
vn 0.4984 0.2943 -0.8155
vn 0.4899 0.2944 -0.8206
vn 0.4983 0.2943 -0.8155
vn -0.2348 0.2942 -0.9265
vn -0.8205 0.2944 -0.4899
vn -0.9265 0.2942 0.2348
vn -0.9264 0.2942 0.2348
vn -0.8206 0.2944 -0.4899
vn -0.9288 0.2944 0.2252
vn -0.2407 -0.0513 -0.9692
vn -0.8555 -0.0512 -0.5152
vn -0.2390 -0.0513 -0.9697
vn -0.8555 -0.0513 -0.5152
vn -0.2408 -0.0513 -0.9692
vn -0.8546 -0.0513 -0.5167
vn -0.9692 -0.0512 0.2407
vn -0.8556 -0.0513 -0.5152
vn -0.8546 -0.0512 -0.5167
vn -0.9692 -0.0513 0.2407
vn -0.9697 -0.0512 0.2390
vn 0.2390 -0.0512 0.9697
vn 0.8546 -0.0513 0.5167
vn 0.8555 -0.0513 0.5152
vn 0.2408 -0.0513 0.9692
vn 0.5152 -0.0513 -0.8555
vn 0.9692 -0.0513 -0.2408
vn 0.5167 -0.0513 -0.8546
vn 0.5152 -0.0512 -0.8555
vn 0.9697 -0.0513 -0.2390
vn 0.2390 -0.0513 0.9697
vn -0.5167 -0.0513 0.8546
vn 0.2407 -0.0513 0.9692
vn -0.5152 -0.0513 0.8556
vn -0.2390 -0.0512 -0.9697
vn 0.5152 -0.0513 -0.8556
vn 0.8556 -0.0513 0.5152
vn 0.9692 -0.0513 -0.2407
vn 0.9697 -0.0512 -0.2390
vn 0.9692 -0.0512 -0.2407
vn 0.8546 -0.0512 0.5167
vn -0.5152 -0.0513 0.8555
vn -0.9692 -0.0513 0.2408
vn -0.5152 -0.0512 0.8555
vn -0.9697 -0.0513 0.2390
vn -0.0000 1.0000 -0.0000
vn 0.9044 0.4042 0.1369
vn 0.5427 0.4042 0.7362
vn 0.5427 0.4043 0.7362
vn -0.7363 0.4042 0.5427
vn -0.9044 0.4042 -0.1368
vn -0.5427 0.4042 -0.7362
vn -0.9044 0.4042 -0.1369
vn -0.5427 0.4043 -0.7362
vn 0.7363 0.4042 -0.5427
vn 0.9044 0.4042 0.1368
vn -0.1369 0.4042 0.9044
vn -0.7362 0.4042 0.5427
vn 0.1369 0.4042 -0.9044
vn 0.7362 0.4042 -0.5427
vn 0.7362 0.4043 -0.5427
vn -0.1368 0.4042 0.9044
vn 0.5427 0.4043 0.7363
vn 0.5427 0.4042 0.7363
vn -0.5427 0.4042 -0.7363
vn 0.1368 0.4042 -0.9044
vn -0.3790 0.3228 0.8673
vn -0.9406 0.3228 0.1054
vn 0.9406 0.3228 -0.1054
vn 0.5616 0.3228 0.7619
vn 0.5616 0.3228 0.7618
vn 0.3790 0.3228 -0.8673
vn -0.5616 0.3228 -0.7618
vn -0.5616 0.3228 -0.7619
vn 0.4081 0.7260 0.5536
vn -0.3805 0.3115 0.8707
vn 0.5638 0.3115 0.7649
vn -0.2754 0.7260 0.6302
vn -0.5638 0.3115 -0.7649
vn -0.6834 0.7260 0.0767
vn -0.4080 0.7260 -0.5536
vn -0.6834 0.7260 0.0766
vn -0.9443 0.3115 0.1058
vn 0.2753 0.7260 -0.6302
vn 0.9443 0.3115 -0.1059
vn 0.3805 0.3115 -0.8707
vn 0.6835 0.7260 -0.0766
vn 0.6834 0.7260 -0.0766
vn 0.9443 0.3115 -0.1058
vn 0.6834 0.7260 -0.0767
vn 0.4080 0.7260 0.5536
vn 0.6835 0.7259 -0.0766
vn -0.2754 0.7259 0.6302
vn 0.4080 0.7259 0.5536
vn -0.6835 0.7259 0.0766
vn -0.6835 0.7260 0.0766
vn 0.2754 0.7259 -0.6302
vn -0.4081 0.7259 -0.5536
vn -0.5638 0.3116 -0.7649
vn 0.2754 0.7260 -0.6302
vn 0.3805 0.3115 -0.8708
vn 0.2753 0.7260 -0.6301
vn -0.2753 0.7260 0.6302
vn -0.9443 0.3115 0.1059
vn 0.8673 0.3228 0.3790
vn 0.1054 0.3228 0.9406
vn 0.7618 0.3228 -0.5616
vn 0.7619 0.3228 -0.5616
vn -0.7618 0.3228 0.5616
vn -0.8673 0.3228 -0.3790
vn -0.7619 0.3228 0.5616
vn -0.1054 0.3228 -0.9406
vn -0.3454 0.5060 0.7904
vn -0.8571 0.5060 0.0961
vn -0.7176 0.4530 0.5290
vn -0.8572 0.5060 0.0961
vn 0.7176 -0.4530 -0.5290
vn 0.8572 -0.5060 -0.0961
vn 0.3454 -0.5060 -0.7904
vn -0.0993 0.4530 -0.8860
vn 0.3454 0.5060 -0.7903
vn 0.3454 0.5060 -0.7904
vn -0.5118 0.5060 -0.6943
vn -0.3454 -0.5060 0.7904
vn -0.3454 -0.5060 0.7903
vn 0.0993 -0.4530 0.8860
vn 0.5118 -0.5060 0.6943
vn -0.8169 0.4530 -0.3570
vn 0.8571 -0.5060 -0.0961
vn 0.8169 -0.4530 0.3570
vn 0.5118 0.5060 0.6943
vn 0.0993 0.4530 0.8860
vn -0.3454 0.5060 0.7903
vn -0.3454 0.5061 0.7903
vn -0.5118 -0.5060 -0.6943
vn -0.0993 -0.4530 -0.8860
vn 0.3454 -0.5060 -0.7903
vn 0.8571 0.5060 -0.0961
vn 0.7176 0.4530 -0.5290
vn 0.8572 0.5060 -0.0961
vn -0.7176 -0.4530 0.5290
vn -0.8572 -0.5060 0.0961
vn 0.8169 0.4530 0.3570
vn -0.8169 -0.4530 -0.3570
vn -0.8571 -0.5060 0.0961
vn -0.0961 0.5060 -0.8572
vn 0.6943 0.5060 -0.5118
vn 0.3570 0.4530 -0.8169
vn -0.3570 -0.4530 0.8169
vn -0.6943 -0.5060 0.5118
vn 0.0961 -0.5060 0.8572
vn 0.0961 -0.5061 0.8571
vn 0.7904 0.5060 0.3454
vn 0.5290 0.4529 0.7176
vn 0.5290 0.4530 0.7176
vn 0.0961 0.5061 0.8571
vn 0.0961 0.5060 0.8571
vn 0.0961 0.5060 0.8572
vn -0.7904 -0.5060 -0.3454
vn -0.5290 -0.4529 -0.7176
vn -0.7903 -0.5060 -0.3454
vn -0.0961 -0.5060 -0.8572
vn -0.5290 -0.4530 -0.7176
vn -0.6943 0.5060 0.5118
vn -0.7903 0.5060 -0.3454
vn -0.8860 0.4530 0.0993
vn -0.7904 0.5060 -0.3454
vn 0.8860 -0.4530 -0.0993
vn 0.7904 -0.5060 0.3454
vn 0.6943 -0.5060 -0.5118
vn -0.5290 0.4530 -0.7176
vn -0.0961 0.5060 -0.8571
vn 0.5290 -0.4530 0.7176
vn 0.7903 -0.5060 0.3454
vn 0.7903 -0.5061 0.3454
vn -0.3570 0.4529 0.8170
vn 0.3570 -0.4529 -0.8170
vn -0.0961 -0.5061 -0.8571
vn 0.7903 0.5060 0.3454
vn 0.8860 0.4530 -0.0993
vn -0.8860 -0.4530 0.0993
vn -0.0993 0.4529 -0.8860
vn 0.3454 0.5061 -0.7903
vn 0.0993 -0.4529 0.8860
vn -0.8169 0.4529 -0.3570
vn 0.8169 -0.4529 0.3570
vn 0.8169 0.4529 0.3570
vn 0.8170 0.4529 0.3570
vn -0.8169 -0.4529 -0.3570
vn 0.7176 -0.4529 -0.5290
vn 0.0993 0.4529 0.8860
vn -0.0993 -0.4529 -0.8860
vt 0.593750 0.025000
vt 0.593750 0.104996
vt 0.593750 0.225000
vt 0.093750 0.475000
vt 0.093750 0.275000
vt 0.093750 0.425000
vt 0.093750 0.348778
vt 0.093750 0.338765
vt 0.093750 0.344099
vt 0.093750 0.375000
vt 0.093750 0.325000
s 0
usemtl colormap.022
f 3/1/1 2/1/1 1/1/1
f 2/1/1 3/1/1 4/1/1
f 4/1/1 3/1/1 5/1/1
f 4/1/1 5/1/1 6/1/1
f 6/1/1 5/1/1 7/1/1
f 6/1/1 7/1/1 8/1/1
f 9/2/2 1/1/3 2/1/4
f 1/1/3 9/2/2 10/2/5
f 11/2/6 1/1/7 10/2/8
f 1/1/7 11/2/9 3/1/10
f 12/2/11 2/1/12 4/1/13
f 2/1/14 12/2/11 9/2/2
f 13/2/15 4/1/16 6/1/17
f 4/1/18 13/2/15 12/2/19
f 7/1/20 14/2/21 8/1/22
f 14/2/21 7/1/20 15/2/23
f 11/2/24 5/1/25 3/1/26
f 5/1/25 11/2/24 16/2/27
f 8/1/28 13/2/29 6/1/30
f 13/2/31 8/1/28 14/2/32
f 7/1/33 16/2/34 15/2/23
f 16/2/35 7/1/36 5/1/37
f 14/2/38 18/3/39 17/3/40
f 18/3/41 14/2/42 15/2/43
f 16/2/44 18/3/45 15/2/46
f 18/3/45 16/2/47 19/3/48
f 21/3/49 9/2/50 20/3/51
f 9/2/50 21/3/49 10/2/52
f 22/3/53 12/2/54 13/2/55
f 12/2/54 22/3/56 23/3/57
f 21/3/58 11/2/59 10/2/60
f 11/2/59 21/3/49 24/3/61
f 13/2/55 17/3/62 22/3/63
f 17/3/40 13/2/55 14/2/38
f 20/3/64 12/2/65 23/3/66
f 12/2/67 20/3/64 9/2/68
f 24/3/69 16/2/70 11/2/59
f 16/2/70 24/3/71 19/3/72
f 27/4/73 26/4/73 25/4/73
f 26/4/73 27/4/73 28/4/73
f 26/4/73 28/4/73 29/4/73
f 29/4/73 28/4/73 30/4/73
f 29/4/73 30/4/73 31/4/73
f 31/4/73 30/4/73 32/4/73
f 35/5/1 34/5/1 33/5/1
f 34/5/1 35/5/1 36/5/1
f 34/5/1 36/5/1 37/5/1
f 37/5/1 36/5/1 38/5/1
f 37/5/1 38/5/1 39/5/1
f 39/5/1 38/5/1 40/5/1
f 27/4/74 33/5/75 34/5/74
f 33/5/75 27/4/74 25/4/76
f 29/4/77 38/5/78 36/5/77
f 38/5/78 29/4/77 31/4/78
f 40/5/79 31/4/80 32/4/81
f 31/4/80 40/5/79 38/5/80
f 28/4/82 34/5/83 37/5/82
f 34/5/83 28/4/82 27/4/83
f 26/4/84 36/5/85 35/5/84
f 36/5/85 26/4/84 29/4/85
f 30/4/86 37/5/87 39/5/86
f 37/5/87 30/4/86 28/4/88
f 26/4/89 33/5/90 25/4/91
f 33/5/91 26/4/89 35/5/89
f 40/5/92 30/4/93 39/5/93
f 30/4/93 40/5/81 32/4/79
f 43/6/94 42/7/95 41/7/94
f 42/7/95 43/6/94 44/6/95
f 47/6/96 46/7/97 45/7/96
f 46/7/98 47/6/96 48/6/98
f 50/6/99 45/7/96 49/7/99
f 45/7/96 50/6/99 47/6/96
f 48/6/97 41/7/94 46/7/97
f 41/7/94 48/6/97 43/6/94
f 52/7/100 44/6/95 51/6/100
f 44/6/95 52/7/101 42/7/95
f 52/7/101 50/6/99 49/7/99
f 50/6/99 52/7/100 51/6/101
f 41/7/1 45/7/1 46/7/1
f 45/7/1 41/7/1 42/7/1
f 45/7/1 42/7/1 49/7/1
f 49/7/1 42/7/1 52/7/1
f 55/6/102 54/8/103 53/8/104
f 54/8/103 55/6/102 56/6/105
f 59/8/106 58/6/107 57/6/108
f 58/6/109 59/8/106 60/8/110
f 63/6/111 62/8/112 61/8/113
f 62/8/112 63/6/111 64/6/114
f 64/6/115 53/8/104 62/8/116
f 53/8/104 64/6/117 55/6/118
f 64/6/119 56/6/120 55/6/121
f 56/6/120 64/6/119 58/6/122
f 58/6/123 64/6/119 63/6/124
f 58/6/122 63/6/124 57/6/125
f 59/8/126 63/6/127 61/8/128
f 63/6/129 59/8/106 57/6/108
f 54/8/1 62/8/1 53/8/1
f 62/8/1 54/8/1 60/8/1
f 62/8/1 60/8/1 61/8/1
f 61/8/1 60/8/1 59/8/1
f 56/6/130 60/8/131 54/8/103
f 60/8/131 56/6/130 58/6/123
f 67/6/132 66/9/133 65/9/132
f 66/9/133 67/6/132 68/6/133
f 70/6/134 65/9/132 69/9/135
f 65/9/132 70/6/135 67/6/132
f 68/6/133 71/9/136 66/9/133
f 71/9/136 68/6/133 72/6/136
f 72/6/136 73/9/137 71/9/138
f 73/9/137 72/6/138 74/6/137
f 71/9/1 65/9/1 66/9/1
f 65/9/1 71/9/1 69/9/1
f 69/9/1 71/9/1 73/9/1
f 69/9/1 73/9/1 75/9/1
f 76/6/139 69/9/134 75/9/139
f 69/9/134 76/6/139 70/6/134
f 73/9/137 76/6/139 75/9/139
f 76/6/139 73/9/137 74/6/137
f 79/10/140 78/10/141 77/11/142
f 78/10/143 79/10/140 41/6/140
f 78/10/143 41/6/140 42/6/143
f 77/11/144 78/10/145 79/10/146
f 41/6/146 79/10/146 78/10/145
f 42/6/145 41/6/146 78/10/145
f 81/11/147 49/6/148 80/10/149
f 49/6/148 81/11/147 52/6/150
f 52/6/150 81/11/147 82/10/150
f 80/10/151 49/6/152 81/11/153
f 52/6/154 81/11/153 49/6/151
f 82/10/154 81/11/153 52/6/154
f 82/10/150 42/6/143 52/6/150
f 42/6/143 82/10/150 83/11/155
f 42/6/143 83/11/155 78/10/143
f 52/6/154 42/6/156 82/10/154
f 83/11/157 82/10/154 42/6/145
f 78/10/145 83/11/157 42/6/156
f 46/6/158 85/11/159 84/10/158
f 85/11/159 46/6/158 41/6/160
f 85/11/159 41/6/161 79/10/140
f 84/10/162 85/11/163 46/6/162
f 41/6/146 46/6/162 85/11/163
f 79/10/146 41/6/164 85/11/163
f 80/10/149 87/10/165 86/11/166
f 87/10/167 80/10/149 49/6/149
f 87/10/167 49/6/149 45/6/167
f 86/11/168 87/10/169 80/10/151
f 49/6/151 80/10/151 87/10/169
f 45/6/169 49/6/152 87/10/169
f 45/6/167 88/11/170 87/10/167
f 88/11/170 45/6/167 46/6/158
f 88/11/170 46/6/158 84/10/158
f 87/10/169 88/11/171 45/6/172
f 46/6/162 45/6/169 88/11/171
f 84/10/162 46/6/162 88/11/171
f 91/10/173 90/10/174 89/11/175
f 90/10/174 91/10/173 75/6/173
f 90/10/174 75/6/173 69/6/174
f 89/11/176 90/10/177 91/10/178
f 75/6/178 91/10/178 90/10/177
f 69/6/177 75/6/179 90/10/177
f 65/6/180 93/11/181 92/10/180
f 93/11/182 65/6/180 66/6/183
f 93/11/182 66/6/184 94/10/185
f 92/10/186 93/11/187 65/6/188
f 66/6/189 65/6/186 93/11/190
f 94/10/189 66/6/189 93/11/190
f 97/10/191 96/10/192 95/11/193
f 96/10/194 97/10/191 71/6/191
f 96/10/194 71/6/191 73/6/194
f 95/11/195 96/10/196 97/10/197
f 71/6/197 97/10/197 96/10/196
f 73/6/196 71/6/197 96/10/196
f 98/11/198 75/6/199 91/10/173
f 75/6/199 98/11/198 73/6/194
f 73/6/192 98/11/198 96/10/194
f 91/10/178 75/6/178 98/11/200
f 73/6/196 98/11/200 75/6/178
f 96/10/201 98/11/200 73/6/202
f 94/10/185 97/10/191 99/11/203
f 97/10/191 94/10/184 66/6/184
f 97/10/191 66/6/185 71/6/191
f 99/11/204 97/10/197 94/10/189
f 66/6/205 94/10/205 97/10/197
f 71/6/197 66/6/189 97/10/197
f 90/10/174 92/10/206 100/11/207
f 92/10/180 90/10/174 69/6/174
f 92/10/180 69/6/174 65/6/180
f 100/11/208 92/10/186 90/10/177
f 69/6/177 90/10/177 92/10/186
f 65/6/186 69/6/177 92/10/186
f 102/11/209 61/6/149 101/10/149
f 61/6/210 102/11/147 59/6/150
f 59/6/150 102/11/209 103/10/150
f 101/10/151 61/6/151 102/11/211
f 59/6/154 102/11/153 61/6/151
f 103/10/154 102/11/211 59/6/154
f 103/10/150 60/6/143 59/6/150
f 60/6/143 103/10/150 104/11/212
f 60/6/141 104/11/155 105/10/143
f 59/6/154 60/6/156 103/10/154
f 104/11/213 103/10/154 60/6/145
f 105/10/156 104/11/157 60/6/156
f 62/6/167 107/11/214 106/10/167
f 107/11/170 62/6/167 53/6/158
f 107/11/215 53/6/158 108/10/158
f 106/10/169 107/11/216 62/6/172
f 53/6/162 62/6/169 107/11/171
f 108/10/162 53/6/162 107/11/216
f 110/10/140 105/10/141 109/11/142
f 105/10/143 110/10/140 54/6/140
f 105/10/143 54/6/140 60/6/143
f 109/11/217 105/10/145 110/10/146
f 54/6/146 110/10/146 105/10/145
f 60/6/145 54/6/164 105/10/145
f 101/10/148 106/10/165 111/11/166
f 106/10/167 101/10/149 61/6/149
f 106/10/167 61/6/149 62/6/167
f 111/11/168 106/10/169 101/10/152
f 61/6/151 101/10/151 106/10/169
f 62/6/169 61/6/151 106/10/169
f 53/6/158 112/11/159 108/10/158
f 112/11/218 53/6/158 54/6/140
f 112/11/159 54/6/161 110/10/140
f 108/10/162 112/11/163 53/6/162
f 54/6/146 53/6/162 112/11/219
f 110/10/146 54/6/164 112/11/163
f 3/1/1 2/1/1 1/1/1
f 2/1/1 3/1/1 4/1/1
f 4/1/1 3/1/1 5/1/1
f 4/1/1 5/1/1 6/1/1
f 6/1/1 5/1/1 7/1/1
f 6/1/1 7/1/1 8/1/1
f 9/2/2 1/1/3 2/1/4
f 1/1/3 9/2/2 10/2/5
f 11/2/6 1/1/7 10/2/8
f 1/1/7 11/2/9 3/1/10
f 12/2/11 2/1/12 4/1/13
f 2/1/14 12/2/11 9/2/2
f 13/2/15 4/1/16 6/1/17
f 4/1/18 13/2/15 12/2/19
f 7/1/20 14/2/21 8/1/22
f 14/2/21 7/1/20 15/2/23
f 11/2/24 5/1/25 3/1/26
f 5/1/25 11/2/24 16/2/27
f 8/1/28 13/2/29 6/1/30
f 13/2/31 8/1/28 14/2/32
f 7/1/33 16/2/34 15/2/23
f 16/2/35 7/1/36 5/1/37
f 14/2/38 18/3/39 17/3/40
f 18/3/41 14/2/42 15/2/43
f 16/2/44 18/3/45 15/2/46
f 18/3/45 16/2/47 19/3/48
f 21/3/49 9/2/50 20/3/51
f 9/2/50 21/3/49 10/2/52
f 22/3/53 12/2/54 13/2/55
f 12/2/54 22/3/56 23/3/57
f 21/3/58 11/2/59 10/2/60
f 11/2/59 21/3/49 24/3/61
f 13/2/55 17/3/62 22/3/63
f 17/3/40 13/2/55 14/2/38
f 20/3/64 12/2/65 23/3/66
f 12/2/67 20/3/64 9/2/68
f 24/3/69 16/2/70 11/2/59
f 16/2/70 24/3/71 19/3/72
f 27/4/73 26/4/73 25/4/73
f 26/4/73 27/4/73 28/4/73
f 26/4/73 28/4/73 29/4/73
f 29/4/73 28/4/73 30/4/73
f 29/4/73 30/4/73 31/4/73
f 31/4/73 30/4/73 32/4/73
f 35/5/1 34/5/1 33/5/1
f 34/5/1 35/5/1 36/5/1
f 34/5/1 36/5/1 37/5/1
f 37/5/1 36/5/1 38/5/1
f 37/5/1 38/5/1 39/5/1
f 39/5/1 38/5/1 40/5/1
f 27/4/74 33/5/75 34/5/74
f 33/5/75 27/4/74 25/4/76
f 29/4/77 38/5/78 36/5/77
f 38/5/78 29/4/77 31/4/78
f 40/5/79 31/4/80 32/4/81
f 31/4/80 40/5/79 38/5/80
f 28/4/82 34/5/83 37/5/82
f 34/5/83 28/4/82 27/4/83
f 26/4/84 36/5/85 35/5/84
f 36/5/85 26/4/84 29/4/85
f 30/4/86 37/5/87 39/5/86
f 37/5/87 30/4/86 28/4/88
f 26/4/89 33/5/90 25/4/91
f 33/5/91 26/4/89 35/5/89
f 40/5/92 30/4/93 39/5/93
f 30/4/93 40/5/81 32/4/79
f 43/6/94 42/7/95 41/7/94
f 42/7/95 43/6/94 44/6/95
f 47/6/96 46/7/97 45/7/96
f 46/7/98 47/6/96 48/6/98
f 50/6/99 45/7/96 49/7/99
f 45/7/96 50/6/99 47/6/96
f 48/6/97 41/7/94 46/7/97
f 41/7/94 48/6/97 43/6/94
f 52/7/100 44/6/95 51/6/100
f 44/6/95 52/7/101 42/7/95
f 52/7/101 50/6/99 49/7/99
f 50/6/99 52/7/100 51/6/101
f 41/7/1 45/7/1 46/7/1
f 45/7/1 41/7/1 42/7/1
f 45/7/1 42/7/1 49/7/1
f 49/7/1 42/7/1 52/7/1
f 55/6/102 54/8/103 53/8/104
f 54/8/103 55/6/102 56/6/105
f 59/8/106 58/6/107 57/6/108
f 58/6/109 59/8/106 60/8/110
f 63/6/111 62/8/112 61/8/113
f 62/8/112 63/6/111 64/6/114
f 64/6/115 53/8/104 62/8/116
f 53/8/104 64/6/117 55/6/118
f 64/6/119 56/6/120 55/6/121
f 56/6/120 64/6/119 58/6/122
f 58/6/123 64/6/119 63/6/124
f 58/6/122 63/6/124 57/6/125
f 59/8/126 63/6/127 61/8/128
f 63/6/129 59/8/106 57/6/108
f 54/8/1 62/8/1 53/8/1
f 62/8/1 54/8/1 60/8/1
f 62/8/1 60/8/1 61/8/1
f 61/8/1 60/8/1 59/8/1
f 56/6/130 60/8/131 54/8/103
f 60/8/131 56/6/130 58/6/123
f 67/6/132 66/9/133 65/9/132
f 66/9/133 67/6/132 68/6/133
f 70/6/134 65/9/132 69/9/135
f 65/9/132 70/6/135 67/6/132
f 68/6/133 71/9/136 66/9/133
f 71/9/136 68/6/133 72/6/136
f 72/6/136 73/9/137 71/9/138
f 73/9/137 72/6/138 74/6/137
f 71/9/1 65/9/1 66/9/1
f 65/9/1 71/9/1 69/9/1
f 69/9/1 71/9/1 73/9/1
f 69/9/1 73/9/1 75/9/1
f 76/6/139 69/9/134 75/9/139
f 69/9/134 76/6/139 70/6/134
f 73/9/137 76/6/139 75/9/139
f 76/6/139 73/9/137 74/6/137
f 79/10/140 78/10/141 77/11/142
f 78/10/143 79/10/140 41/6/140
f 78/10/143 41/6/140 42/6/143
f 77/11/144 78/10/145 79/10/146
f 41/6/146 79/10/146 78/10/145
f 42/6/145 41/6/146 78/10/145
f 81/11/147 49/6/148 80/10/149
f 49/6/148 81/11/147 52/6/150
f 52/6/150 81/11/147 82/10/150
f 80/10/151 49/6/152 81/11/153
f 52/6/154 81/11/153 49/6/151
f 82/10/154 81/11/153 52/6/154
f 82/10/150 42/6/143 52/6/150
f 42/6/143 82/10/150 83/11/155
f 42/6/143 83/11/155 78/10/143
f 52/6/154 42/6/156 82/10/154
f 83/11/157 82/10/154 42/6/145
f 78/10/145 83/11/157 42/6/156
f 46/6/158 85/11/159 84/10/158
f 85/11/159 46/6/158 41/6/160
f 85/11/159 41/6/161 79/10/140
f 84/10/162 85/11/163 46/6/162
f 41/6/146 46/6/162 85/11/163
f 79/10/146 41/6/164 85/11/163
f 80/10/149 87/10/165 86/11/166
f 87/10/167 80/10/149 49/6/149
f 87/10/167 49/6/149 45/6/167
f 86/11/168 87/10/169 80/10/151
f 49/6/151 80/10/151 87/10/169
f 45/6/169 49/6/152 87/10/169
f 45/6/167 88/11/170 87/10/167
f 88/11/170 45/6/167 46/6/158
f 88/11/170 46/6/158 84/10/158
f 87/10/169 88/11/171 45/6/172
f 46/6/162 45/6/169 88/11/171
f 84/10/162 46/6/162 88/11/171
f 91/10/173 90/10/174 89/11/175
f 90/10/174 91/10/173 75/6/173
f 90/10/174 75/6/173 69/6/174
f 89/11/176 90/10/177 91/10/178
f 75/6/178 91/10/178 90/10/177
f 69/6/177 75/6/179 90/10/177
f 65/6/180 93/11/181 92/10/180
f 93/11/182 65/6/180 66/6/183
f 93/11/182 66/6/184 94/10/185
f 92/10/186 93/11/187 65/6/188
f 66/6/189 65/6/186 93/11/190
f 94/10/189 66/6/189 93/11/190
f 97/10/191 96/10/192 95/11/193
f 96/10/194 97/10/191 71/6/191
f 96/10/194 71/6/191 73/6/194
f 95/11/195 96/10/196 97/10/197
f 71/6/197 97/10/197 96/10/196
f 73/6/196 71/6/197 96/10/196
f 98/11/198 75/6/199 91/10/173
f 75/6/199 98/11/198 73/6/194
f 73/6/192 98/11/198 96/10/194
f 91/10/178 75/6/178 98/11/200
f 73/6/196 98/11/200 75/6/178
f 96/10/201 98/11/200 73/6/202
f 94/10/185 97/10/191 99/11/203
f 97/10/191 94/10/184 66/6/184
f 97/10/191 66/6/185 71/6/191
f 99/11/204 97/10/197 94/10/189
f 66/6/205 94/10/205 97/10/197
f 71/6/197 66/6/189 97/10/197
f 90/10/174 92/10/206 100/11/207
f 92/10/180 90/10/174 69/6/174
f 92/10/180 69/6/174 65/6/180
f 100/11/208 92/10/186 90/10/177
f 69/6/177 90/10/177 92/10/186
f 65/6/186 69/6/177 92/10/186
f 102/11/209 61/6/149 101/10/149
f 61/6/210 102/11/147 59/6/150
f 59/6/150 102/11/209 103/10/150
f 101/10/151 61/6/151 102/11/211
f 59/6/154 102/11/153 61/6/151
f 103/10/154 102/11/211 59/6/154
f 103/10/150 60/6/143 59/6/150
f 60/6/143 103/10/150 104/11/212
f 60/6/141 104/11/155 105/10/143
f 59/6/154 60/6/156 103/10/154
f 104/11/213 103/10/154 60/6/145
f 105/10/156 104/11/157 60/6/156
f 62/6/167 107/11/214 106/10/167
f 107/11/170 62/6/167 53/6/158
f 107/11/215 53/6/158 108/10/158
f 106/10/169 107/11/216 62/6/172
f 53/6/162 62/6/169 107/11/171
f 108/10/162 53/6/162 107/11/216
f 110/10/140 105/10/141 109/11/142
f 105/10/143 110/10/140 54/6/140
f 105/10/143 54/6/140 60/6/143
f 109/11/217 105/10/145 110/10/146
f 54/6/146 110/10/146 105/10/145
f 60/6/145 54/6/164 105/10/145
f 101/10/148 106/10/165 111/11/166
f 106/10/167 101/10/149 61/6/149
f 106/10/167 61/6/149 62/6/167
f 111/11/168 106/10/169 101/10/152
f 61/6/151 101/10/151 106/10/169
f 62/6/169 61/6/151 106/10/169
f 53/6/158 112/11/159 108/10/158
f 112/11/218 53/6/158 54/6/140
f 112/11/159 54/6/161 110/10/140
f 108/10/162 112/11/163 53/6/162
f 54/6/146 53/6/162 112/11/219
f 110/10/146 54/6/164 112/11/163
