# Blender 4.1.1
# www.blender.org
mtllib tree.074.mtl
o tree.073
v 7.111655 -0.217703 -15.686486
v 7.257799 -0.217703 -15.794215
v 6.984719 -0.217703 -15.705694
v 7.277006 -0.217703 -15.921150
v 6.876991 -0.217703 -15.851838
v 7.169278 -0.217703 -16.067293
v 6.896199 -0.217703 -15.978773
v 7.042343 -0.217703 -16.086502
v 7.167398 0.111018 -15.840356
v 7.094327 0.111018 -15.786491
v 7.030859 0.111018 -15.796094
v 7.177002 0.111018 -15.903823
v 7.123138 0.111018 -15.976894
v 7.059670 0.111018 -15.986498
v 6.986599 0.111018 -15.932633
v 6.976995 0.111018 -15.869165
v 7.055338 0.604137 -16.011497
v 6.963998 0.604137 -15.944169
v 6.951994 0.604137 -15.864835
v 7.189998 0.604137 -15.828819
v 7.098659 0.604137 -15.761490
v 7.134673 0.604137 -15.999494
v 7.202003 0.604137 -15.908154
v 7.019324 0.604137 -15.773495
v 7.201748 0.228384 -15.792043
v 7.132597 0.228384 -15.774937
v 7.238548 0.228384 -15.853037
v 7.221441 0.228384 -15.922186
v 7.071605 0.228384 -15.811737
v 7.160448 0.228384 -15.958987
v 7.054498 0.228384 -15.880886
v 7.091298 0.228384 -15.941879
v 7.233028 0.109101 -15.749608
v 7.290672 0.109101 -15.845149
v 7.124710 0.109101 -15.722811
v 7.029170 0.109101 -15.780455
v 7.263876 0.109101 -15.953467
v 7.002373 0.109101 -15.888773
v 7.168335 0.109101 -16.011112
v 7.060017 0.109101 -15.984314
v 6.890728 0.604137 -15.479268
v 6.622447 0.604137 -15.843215
v 6.964957 1.147643 -15.649134
v 6.806670 1.147643 -15.863864
v 7.521105 0.604137 -15.943943
v 7.340057 0.604137 -15.529631
v 7.336882 1.147643 -15.923294
v 7.230063 1.147643 -15.678848
v 7.252824 0.604137 -16.307892
v 7.178595 1.147643 -16.138025
v 6.913489 1.147643 -16.108311
v 6.803495 0.604137 -16.257526
v 7.226467 1.731559 -15.683726
v 6.967383 1.731559 -15.654686
v 7.107331 2.344026 -15.845345
v 7.047781 2.344026 -15.838670
v 7.036221 2.344026 -15.941813
v 7.012226 2.344026 -15.886905
v 6.917085 1.731559 -16.103434
v 6.812692 1.731559 -15.864539
v 7.176168 1.731559 -16.132473
v 7.330860 1.731559 -15.922619
v 7.095770 2.344026 -15.948488
v 7.131325 2.344026 -15.900254
v 7.408615 1.147643 -15.746387
v 7.112722 1.147643 -15.528272
v 7.226120 1.731559 -15.826134
v 7.090538 1.731559 -15.726192
v 7.367669 1.147643 -16.111694
v 7.207357 1.731559 -15.993523
v 6.775883 1.147643 -15.675465
v 6.936195 1.731559 -15.793637
v 6.734936 1.147643 -16.040773
v 6.917433 1.731559 -15.961025
v 7.030829 1.147643 -16.258888
v 7.053013 1.731559 -16.060966
v 6.687247 0.434583 -15.610126
v 6.573021 0.519360 -15.837676
v 6.870813 0.519360 -15.433693
v 7.272739 0.519360 -16.353466
v 7.018563 0.434583 -16.368319
v 6.773984 0.519360 -16.297562
v 6.634034 0.434583 -16.084866
v 7.369568 0.519360 -15.489597
v 7.124988 0.434583 -15.418841
v 7.456306 0.434583 -16.177032
v 7.570531 0.519360 -15.949484
v 7.509518 0.434583 -15.702293
v 7.227293 1.009795 -16.249466
v 7.400217 1.078719 -16.135687
v 7.026325 1.078719 -16.299072
v 7.445668 1.078719 -15.730194
v 7.302226 1.009795 -15.580954
v 7.117227 1.078719 -15.488088
v 6.685810 1.009795 -15.850317
v 6.697885 1.078719 -16.056963
v 6.743335 1.078719 -15.651471
v 6.841327 1.009795 -16.206205
v 6.916259 1.009795 -15.537691
v 7.457742 1.009795 -15.936842
v 7.187652 1.682676 -16.158751
v 7.041093 1.633794 -16.167315
v 6.900069 1.682676 -16.126516
v 6.819374 1.633794 -16.003876
v 6.784193 1.682676 -15.861344
v 7.359359 1.682676 -15.925814
v 7.324179 1.633794 -15.783284
v 7.243484 1.682676 -15.660643
v 6.850056 1.633794 -15.730140
v 6.955900 1.682676 -15.628407
v 7.293496 1.633794 -16.057018
v 7.102458 1.633794 -15.619843
vn -0.0000 -1.0000 -0.0000
vn 0.8155 0.2942 0.4984
vn 0.2253 0.2944 0.9288
vn 0.8205 0.2944 0.4900
vn 0.2253 0.2944 0.9287
vn 0.2349 0.2942 0.9264
vn -0.4983 0.2942 0.8155
vn 0.2252 0.2944 0.9288
vn 0.2348 0.2942 0.9265
vn -0.4983 0.2943 0.8155
vn -0.4899 0.2944 0.8206
vn 0.9264 0.2942 -0.2348
vn 0.8206 0.2944 0.4899
vn 0.9288 0.2944 -0.2252
vn 0.8205 0.2944 0.4899
vn 0.9265 0.2942 -0.2347
vn 0.4984 0.2942 -0.8155
vn 0.9288 0.2944 -0.2253
vn 0.4900 0.2944 -0.8205
vn 0.9287 0.2944 -0.2253
vn 0.9264 0.2942 -0.2349
vn -0.8205 0.2944 -0.4900
vn -0.2349 0.2942 -0.9264
vn -0.2253 0.2944 -0.9287
vn -0.8155 0.2942 -0.4984
vn -0.4984 0.2942 0.8155
vn -0.9288 0.2944 0.2253
vn -0.4900 0.2944 0.8205
vn -0.9287 0.2944 0.2253
vn -0.9264 0.2942 0.2349
vn -0.2252 0.2944 -0.9288
vn 0.4899 0.2944 -0.8206
vn 0.4983 0.2942 -0.8155
vn -0.2348 0.2942 -0.9265
vn -0.8206 0.2945 -0.4899
vn -0.9264 0.2942 0.2348
vn -0.8155 0.2942 -0.4983
vn -0.9265 0.2942 0.2348
vn -0.8206 0.2944 -0.4899
vn -0.9288 0.2944 0.2252
vn -0.2407 -0.0513 -0.9692
vn -0.8555 -0.0512 -0.5152
vn -0.2390 -0.0513 -0.9697
vn -0.8555 -0.0513 -0.5152
vn -0.2408 -0.0513 -0.9692
vn -0.8546 -0.0513 -0.5167
vn -0.9693 -0.0512 0.2407
vn -0.8546 -0.0512 -0.5167
vn -0.8556 -0.0513 -0.5152
vn -0.9692 -0.0513 0.2407
vn -0.9697 -0.0512 0.2390
vn 0.2390 -0.0512 0.9697
vn 0.8546 -0.0513 0.5167
vn 0.8555 -0.0513 0.5152
vn 0.2408 -0.0513 0.9692
vn 0.5152 -0.0513 -0.8555
vn 0.9692 -0.0513 -0.2408
vn 0.5167 -0.0513 -0.8546
vn 0.9692 -0.0513 -0.2407
vn 0.5152 -0.0512 -0.8555
vn 0.9697 -0.0513 -0.2390
vn 0.2390 -0.0513 0.9697
vn -0.5167 -0.0513 0.8547
vn 0.2407 -0.0513 0.9692
vn -0.5167 -0.0513 0.8546
vn -0.5152 -0.0513 0.8556
vn 0.5167 -0.0512 -0.8546
vn -0.2390 -0.0512 -0.9697
vn 0.5152 -0.0512 -0.8556
vn -0.2407 -0.0512 -0.9692
vn 0.8556 -0.0513 0.5152
vn 0.9697 -0.0512 -0.2390
vn 0.9692 -0.0512 -0.2407
vn 0.8546 -0.0512 0.5167
vn -0.5152 -0.0513 0.8555
vn -0.9692 -0.0513 0.2408
vn -0.5152 -0.0512 0.8555
vn -0.9697 -0.0513 0.2390
vn -0.0000 1.0000 -0.0000
vn 0.9044 0.4042 0.1369
vn 0.5427 0.4042 0.7362
vn 0.5427 0.4043 0.7362
vn -0.7363 0.4042 0.5427
vn -0.9044 0.4042 -0.1368
vn -0.9044 0.4043 -0.1368
vn -0.5428 0.4042 -0.7362
vn -0.9044 0.4042 -0.1369
vn -0.5427 0.4043 -0.7362
vn -0.5427 0.4042 -0.7362
vn 0.7363 0.4042 -0.5427
vn 0.9044 0.4042 0.1368
vn 0.9044 0.4043 0.1368
vn -0.1369 0.4042 0.9044
vn -0.7362 0.4042 0.5427
vn -0.7362 0.4043 0.5427
vn 0.1369 0.4042 -0.9044
vn 0.7362 0.4042 -0.5427
vn 0.7362 0.4043 -0.5427
vn -0.1368 0.4042 0.9044
vn 0.5427 0.4042 0.7363
vn -0.5427 0.4042 -0.7363
vn 0.1368 0.4042 -0.9044
vn -0.3790 0.3228 0.8673
vn -0.9406 0.3228 0.1054
vn 0.9406 0.3228 -0.1054
vn 0.5616 0.3228 0.7618
vn 0.5616 0.3228 0.7619
vn 0.3790 0.3228 -0.8673
vn -0.5616 0.3228 -0.7619
vn -0.5616 0.3228 -0.7618
vn 0.4081 0.7260 0.5536
vn -0.3805 0.3115 0.8707
vn 0.5638 0.3115 0.7649
vn -0.2754 0.7260 0.6302
vn -0.5638 0.3115 -0.7649
vn -0.6835 0.7260 0.0766
vn -0.4080 0.7260 -0.5536
vn -0.6834 0.7260 0.0766
vn -0.5639 0.3115 -0.7649
vn -0.9443 0.3115 0.1058
vn 0.2754 0.7260 -0.6302
vn 0.9443 0.3115 -0.1059
vn 0.3805 0.3115 -0.8707
vn 0.2753 0.7260 -0.6302
vn 0.6835 0.7260 -0.0766
vn 0.6834 0.7260 -0.0766
vn 0.9443 0.3115 -0.1058
vn 0.5639 0.3115 0.7649
vn 0.6835 0.7260 -0.0767
vn 0.4080 0.7260 0.5536
vn 0.6835 0.7259 -0.0766
vn -0.2754 0.7259 0.6302
vn 0.4081 0.7259 0.5536
vn -0.6835 0.7259 0.0766
vn 0.2754 0.7259 -0.6302
vn -0.4081 0.7259 -0.5536
vn -0.5638 0.3116 -0.7649
vn 0.3805 0.3115 -0.8708
vn 0.2753 0.7260 -0.6301
vn -0.4081 0.7260 -0.5535
vn -0.9443 0.3115 0.1059
vn -0.6835 0.7260 0.0765
vn 0.8673 0.3228 0.3790
vn 0.1054 0.3228 0.9406
vn 0.7618 0.3228 -0.5616
vn 0.7619 0.3228 -0.5616
vn -0.7618 0.3228 0.5616
vn -0.8673 0.3228 -0.3790
vn -0.7619 0.3228 0.5616
vn -0.1054 0.3228 -0.9406
vn -0.3454 0.5060 0.7904
vn -0.8571 0.5060 0.0961
vn -0.7176 0.4530 0.5290
vn -0.8572 0.5060 0.0961
vn 0.7176 -0.4530 -0.5290
vn 0.8572 -0.5060 -0.0961
vn 0.3454 -0.5060 -0.7904
vn 0.3454 -0.5060 -0.7903
vn -0.0993 0.4530 -0.8860
vn 0.3454 0.5061 -0.7903
vn 0.3454 0.5060 -0.7904
vn 0.3454 0.5060 -0.7903
vn -0.5118 0.5060 -0.6943
vn -0.3454 -0.5060 0.7904
vn -0.3454 -0.5060 0.7903
vn 0.0993 -0.4530 0.8860
vn 0.5118 -0.5060 0.6943
vn -0.8169 0.4530 -0.3570
vn 0.8571 -0.5060 -0.0961
vn 0.8169 -0.4530 0.3570
vn 0.5118 0.5060 0.6943
vn 0.0993 0.4529 0.8860
vn 0.0993 0.4530 0.8860
vn -0.3454 0.5060 0.7903
vn -0.5118 -0.5060 -0.6943
vn -0.0993 -0.4529 -0.8860
vn -0.0993 -0.4530 -0.8860
vn 0.8571 0.5060 -0.0961
vn 0.7176 0.4530 -0.5290
vn 0.8572 0.5060 -0.0961
vn -0.7176 -0.4530 0.5290
vn -0.8572 -0.5060 0.0961
vn 0.8169 0.4530 0.3570
vn -0.8169 -0.4530 -0.3570
vn -0.8571 -0.5060 0.0961
vn -0.0961 0.5060 -0.8572
vn 0.6943 0.5060 -0.5118
vn 0.3570 0.4529 -0.8170
vn -0.3570 -0.4529 0.8170
vn -0.6943 -0.5060 0.5118
vn 0.0961 -0.5060 0.8572
vn 0.0961 -0.5060 0.8571
vn 0.7903 0.5060 0.3454
vn 0.5290 0.4530 0.7176
vn 0.7904 0.5060 0.3454
vn 0.0961 0.5060 0.8571
vn 0.0961 0.5060 0.8572
vn -0.7903 -0.5060 -0.3454
vn -0.5290 -0.4530 -0.7176
vn -0.7903 -0.5061 -0.3454
vn -0.0961 -0.5060 -0.8572
vn -0.7904 -0.5060 -0.3454
vn -0.6943 0.5060 0.5118
vn -0.7903 0.5060 -0.3454
vn -0.8860 0.4530 0.0993
vn -0.7904 0.5060 -0.3454
vn 0.8860 -0.4530 -0.0993
vn 0.7904 -0.5060 0.3454
vn 0.6943 -0.5060 -0.5118
vn -0.5290 0.4530 -0.7176
vn -0.0961 0.5060 -0.8571
vn -0.0961 0.5061 -0.8571
vn -0.5290 0.4529 -0.7176
vn 0.5290 -0.4530 0.7176
vn 0.7903 -0.5060 0.3454
vn 0.5290 -0.4529 0.7176
vn -0.3570 0.4530 0.8169
vn 0.3570 -0.4530 -0.8169
vn -0.0961 -0.5060 -0.8571
vn 0.8860 0.4530 -0.0993
vn -0.8860 -0.4530 0.0993
vn -0.0993 0.4529 -0.8860
vn 0.0993 -0.4529 0.8860
vn -0.8169 -0.4529 -0.3570
vn 0.3454 -0.5061 -0.7903
vn 0.7176 0.4529 -0.5290
vn -0.7176 -0.4529 0.5290
vn -0.3454 -0.5061 0.7903
vn -0.3454 0.5061 0.7903
vt 0.593750 0.025000
vt 0.593750 0.104996
vt 0.593750 0.225000
vt 0.093750 0.475000
vt 0.093750 0.275000
vt 0.093750 0.425000
vt 0.093750 0.348778
vt 0.093750 0.338765
vt 0.093750 0.344099
vt 0.093750 0.375000
vt 0.093750 0.325000
s 0
usemtl colormap.002
f 3/1/1 2/1/1 1/1/1
f 2/1/1 3/1/1 4/1/1
f 4/1/1 3/1/1 5/1/1
f 4/1/1 5/1/1 6/1/1
f 6/1/1 5/1/1 7/1/1
f 6/1/1 7/1/1 8/1/1
f 9/2/2 1/1/3 2/1/4
f 1/1/5 9/2/2 10/2/6
f 11/2/7 1/1/8 10/2/9
f 1/1/8 11/2/10 3/1/11
f 12/2/12 2/1/13 4/1/14
f 2/1/15 12/2/16 9/2/2
f 13/2/17 4/1/18 6/1/19
f 4/1/20 13/2/17 12/2/21
f 7/1/22 14/2/23 8/1/24
f 14/2/23 7/1/22 15/2/25
f 11/2/26 5/1/27 3/1/28
f 5/1/29 11/2/26 16/2/30
f 8/1/31 13/2/17 6/1/32
f 13/2/33 8/1/31 14/2/34
f 7/1/35 16/2/36 15/2/37
f 16/2/38 7/1/39 5/1/40
f 14/2/41 18/3/42 17/3/43
f 18/3/44 14/2/45 15/2/46
f 16/2/47 18/3/44 15/2/48
f 18/3/49 16/2/50 19/3/51
f 21/3/52 9/2/53 20/3/54
f 9/2/53 21/3/52 10/2/55
f 22/3/56 12/2/57 13/2/58
f 12/2/59 22/3/60 23/3/61
f 21/3/62 11/2/63 10/2/64
f 11/2/65 21/3/52 24/3/66
f 13/2/67 17/3/68 22/3/69
f 17/3/43 13/2/58 14/2/70
f 20/3/71 12/2/59 23/3/72
f 12/2/73 20/3/71 9/2/74
f 24/3/75 16/2/50 11/2/65
f 16/2/76 24/3/77 19/3/78
f 27/4/79 26/4/79 25/4/79
f 26/4/79 27/4/79 28/4/79
f 26/4/79 28/4/79 29/4/79
f 29/4/79 28/4/79 30/4/79
f 29/4/79 30/4/79 31/4/79
f 31/4/79 30/4/79 32/4/79
f 35/5/1 34/5/1 33/5/1
f 34/5/1 35/5/1 36/5/1
f 34/5/1 36/5/1 37/5/1
f 37/5/1 36/5/1 38/5/1
f 37/5/1 38/5/1 39/5/1
f 39/5/1 38/5/1 40/5/1
f 27/4/80 33/5/81 34/5/80
f 33/5/81 27/4/80 25/4/82
f 29/4/83 38/5/84 36/5/83
f 38/5/84 29/4/83 31/4/85
f 40/5/86 31/4/87 32/4/88
f 31/4/87 40/5/89 38/5/87
f 28/4/90 34/5/91 37/5/90
f 34/5/91 28/4/90 27/4/92
f 26/4/93 36/5/94 35/5/93
f 36/5/94 26/4/93 29/4/95
f 30/4/96 37/5/97 39/5/96
f 37/5/97 30/4/96 28/4/98
f 26/4/99 33/5/100 25/4/100
f 33/5/100 26/4/99 35/5/99
f 40/5/101 30/4/102 39/5/102
f 30/4/102 40/5/88 32/4/101
f 43/6/103 42/7/104 41/7/103
f 42/7/104 43/6/103 44/6/104
f 47/6/105 46/7/106 45/7/105
f 46/7/107 47/6/105 48/6/106
f 50/6/108 45/7/105 49/7/108
f 45/7/105 50/6/108 47/6/105
f 48/6/107 41/7/103 46/7/107
f 41/7/103 48/6/107 43/6/103
f 52/7/109 44/6/104 51/6/110
f 44/6/104 52/7/110 42/7/104
f 52/7/109 50/6/108 49/7/108
f 50/6/108 52/7/110 51/6/109
f 41/7/1 45/7/1 46/7/1
f 45/7/1 41/7/1 42/7/1
f 45/7/1 42/7/1 49/7/1
f 49/7/1 42/7/1 52/7/1
f 55/6/111 54/8/112 53/8/113
f 54/8/112 55/6/111 56/6/114
f 59/8/115 58/6/116 57/6/117
f 58/6/118 59/8/119 60/8/120
f 63/6/121 62/8/122 61/8/123
f 62/8/122 63/6/124 64/6/125
f 64/6/126 53/8/113 62/8/127
f 53/8/128 64/6/129 55/6/130
f 64/6/131 56/6/132 55/6/133
f 56/6/132 64/6/131 58/6/134
f 58/6/134 64/6/131 63/6/135
f 58/6/134 63/6/135 57/6/136
f 59/8/137 63/6/121 61/8/138
f 63/6/139 59/8/115 57/6/140
f 54/8/1 62/8/1 53/8/1
f 62/8/1 54/8/1 60/8/1
f 62/8/1 60/8/1 61/8/1
f 61/8/1 60/8/1 59/8/1
f 56/6/114 60/8/141 54/8/112
f 60/8/120 56/6/114 58/6/142
f 67/6/143 66/9/144 65/9/143
f 66/9/144 67/6/143 68/6/144
f 70/6/145 65/9/143 69/9/146
f 65/9/143 70/6/146 67/6/143
f 68/6/144 71/9/147 66/9/144
f 71/9/147 68/6/144 72/6/147
f 72/6/147 73/9/148 71/9/149
f 73/9/148 72/6/149 74/6/148
f 71/9/1 65/9/1 66/9/1
f 65/9/1 71/9/1 69/9/1
f 69/9/1 71/9/1 73/9/1
f 69/9/1 73/9/1 75/9/1
f 76/6/150 69/9/145 75/9/150
f 69/9/145 76/6/150 70/6/145
f 73/9/148 76/6/150 75/9/150
f 76/6/150 73/9/148 74/6/148
f 79/10/151 78/10/152 77/11/153
f 78/10/154 79/10/151 41/6/151
f 78/10/154 41/6/151 42/6/154
f 77/11/155 78/10/156 79/10/157
f 41/6/157 79/10/157 78/10/156
f 42/6/156 41/6/158 78/10/156
f 81/11/159 49/6/160 80/10/161
f 49/6/162 81/11/159 52/6/163
f 52/6/163 81/11/159 82/10/163
f 80/10/164 49/6/165 81/11/166
f 52/6/167 81/11/166 49/6/164
f 82/10/167 81/11/166 52/6/167
f 82/10/163 42/6/154 52/6/163
f 42/6/154 82/10/163 83/11/168
f 42/6/152 83/11/168 78/10/154
f 52/6/167 42/6/169 82/10/167
f 83/11/170 82/10/167 42/6/156
f 78/10/169 83/11/170 42/6/169
f 46/6/171 85/11/172 84/10/171
f 85/11/173 46/6/171 41/6/174
f 85/11/173 41/6/151 79/10/151
f 84/10/175 85/11/176 46/6/175
f 41/6/157 46/6/175 85/11/177
f 79/10/157 41/6/157 85/11/177
f 80/10/161 87/10/178 86/11/179
f 87/10/180 80/10/161 49/6/161
f 87/10/180 49/6/161 45/6/180
f 86/11/181 87/10/182 80/10/165
f 49/6/164 80/10/164 87/10/182
f 45/6/182 49/6/165 87/10/182
f 45/6/180 88/11/183 87/10/180
f 88/11/183 45/6/180 46/6/171
f 88/11/183 46/6/171 84/10/171
f 87/10/182 88/11/184 45/6/185
f 46/6/175 45/6/182 88/11/184
f 84/10/175 46/6/175 88/11/184
f 91/10/186 90/10/187 89/11/188
f 90/10/187 91/10/186 75/6/186
f 90/10/187 75/6/186 69/6/187
f 89/11/189 90/10/190 91/10/191
f 75/6/192 91/10/191 90/10/190
f 69/6/190 75/6/192 90/10/190
f 65/6/193 93/11/194 92/10/195
f 93/11/194 65/6/195 66/6/196
f 93/11/194 66/6/196 94/10/197
f 92/10/198 93/11/199 65/6/200
f 66/6/201 65/6/202 93/11/199
f 94/10/201 66/6/201 93/11/199
f 97/10/203 96/10/204 95/11/205
f 96/10/206 97/10/203 71/6/203
f 96/10/206 71/6/203 73/6/206
f 95/11/207 96/10/208 97/10/209
f 71/6/209 97/10/209 96/10/208
f 73/6/208 71/6/209 96/10/208
f 98/11/210 75/6/211 91/10/186
f 75/6/212 98/11/210 73/6/206
f 73/6/206 98/11/213 96/10/206
f 91/10/191 75/6/192 98/11/214
f 73/6/215 98/11/214 75/6/191
f 96/10/208 98/11/216 73/6/208
f 94/10/197 97/10/203 99/11/217
f 97/10/203 94/10/197 66/6/197
f 97/10/203 66/6/197 71/6/203
f 99/11/218 97/10/209 94/10/219
f 66/6/201 94/10/201 97/10/209
f 71/6/209 66/6/219 97/10/209
f 90/10/187 92/10/193 100/11/220
f 92/10/195 90/10/187 69/6/187
f 92/10/195 69/6/187 65/6/195
f 100/11/221 92/10/202 90/10/190
f 69/6/190 90/10/190 92/10/202
f 65/6/202 69/6/190 92/10/202
f 102/11/222 61/6/161 101/10/161
f 61/6/161 102/11/222 59/6/163
f 59/6/163 102/11/222 103/10/163
f 101/10/164 61/6/164 102/11/223
f 59/6/167 102/11/223 61/6/164
f 103/10/167 102/11/223 59/6/167
f 103/10/163 60/6/154 59/6/163
f 60/6/154 103/10/163 104/11/168
f 60/6/154 104/11/168 105/10/154
f 59/6/167 60/6/169 103/10/167
f 104/11/170 103/10/167 60/6/169
f 105/10/156 104/11/170 60/6/169
f 62/6/180 107/11/183 106/10/180
f 107/11/183 62/6/180 53/6/171
f 107/11/183 53/6/171 108/10/171
f 106/10/182 107/11/224 62/6/185
f 53/6/175 62/6/182 107/11/184
f 108/10/175 53/6/175 107/11/184
f 110/10/151 105/10/152 109/11/153
f 105/10/154 110/10/151 54/6/151
f 105/10/154 54/6/174 60/6/154
f 109/11/155 105/10/156 110/10/157
f 54/6/157 110/10/157 105/10/156
f 60/6/169 54/6/225 105/10/156
f 101/10/161 106/10/180 111/11/226
f 106/10/180 101/10/161 61/6/161
f 106/10/180 61/6/162 62/6/180
f 111/11/227 106/10/182 101/10/164
f 61/6/164 101/10/164 106/10/182
f 62/6/185 61/6/228 106/10/182
f 53/6/171 112/11/172 108/10/171
f 112/11/173 53/6/171 54/6/229
f 112/11/172 54/6/151 110/10/151
f 108/10/175 112/11/176 53/6/175
f 54/6/157 53/6/175 112/11/177
f 110/10/157 54/6/157 112/11/176
f 3/1/1 2/1/1 1/1/1
f 2/1/1 3/1/1 4/1/1
f 4/1/1 3/1/1 5/1/1
f 4/1/1 5/1/1 6/1/1
f 6/1/1 5/1/1 7/1/1
f 6/1/1 7/1/1 8/1/1
f 9/2/2 1/1/3 2/1/4
f 1/1/5 9/2/2 10/2/6
f 11/2/7 1/1/8 10/2/9
f 1/1/8 11/2/10 3/1/11
f 12/2/12 2/1/13 4/1/14
f 2/1/15 12/2/16 9/2/2
f 13/2/17 4/1/18 6/1/19
f 4/1/20 13/2/17 12/2/21
f 7/1/22 14/2/23 8/1/24
f 14/2/23 7/1/22 15/2/25
f 11/2/26 5/1/27 3/1/28
f 5/1/29 11/2/26 16/2/30
f 8/1/31 13/2/17 6/1/32
f 13/2/33 8/1/31 14/2/34
f 7/1/35 16/2/36 15/2/37
f 16/2/38 7/1/39 5/1/40
f 14/2/41 18/3/42 17/3/43
f 18/3/44 14/2/45 15/2/46
f 16/2/47 18/3/44 15/2/48
f 18/3/49 16/2/50 19/3/51
f 21/3/52 9/2/53 20/3/54
f 9/2/53 21/3/52 10/2/55
f 22/3/56 12/2/57 13/2/58
f 12/2/59 22/3/60 23/3/61
f 21/3/62 11/2/63 10/2/64
f 11/2/65 21/3/52 24/3/66
f 13/2/67 17/3/68 22/3/69
f 17/3/43 13/2/58 14/2/70
f 20/3/71 12/2/59 23/3/72
f 12/2/73 20/3/71 9/2/74
f 24/3/75 16/2/50 11/2/65
f 16/2/76 24/3/77 19/3/78
f 27/4/79 26/4/79 25/4/79
f 26/4/79 27/4/79 28/4/79
f 26/4/79 28/4/79 29/4/79
f 29/4/79 28/4/79 30/4/79
f 29/4/79 30/4/79 31/4/79
f 31/4/79 30/4/79 32/4/79
f 35/5/1 34/5/1 33/5/1
f 34/5/1 35/5/1 36/5/1
f 34/5/1 36/5/1 37/5/1
f 37/5/1 36/5/1 38/5/1
f 37/5/1 38/5/1 39/5/1
f 39/5/1 38/5/1 40/5/1
f 27/4/80 33/5/81 34/5/80
f 33/5/81 27/4/80 25/4/82
f 29/4/83 38/5/84 36/5/83
f 38/5/84 29/4/83 31/4/85
f 40/5/86 31/4/87 32/4/88
f 31/4/87 40/5/89 38/5/87
f 28/4/90 34/5/91 37/5/90
f 34/5/91 28/4/90 27/4/92
f 26/4/93 36/5/94 35/5/93
f 36/5/94 26/4/93 29/4/95
f 30/4/96 37/5/97 39/5/96
f 37/5/97 30/4/96 28/4/98
f 26/4/99 33/5/100 25/4/100
f 33/5/100 26/4/99 35/5/99
f 40/5/101 30/4/102 39/5/102
f 30/4/102 40/5/88 32/4/101
f 43/6/103 42/7/104 41/7/103
f 42/7/104 43/6/103 44/6/104
f 47/6/105 46/7/106 45/7/105
f 46/7/107 47/6/105 48/6/106
f 50/6/108 45/7/105 49/7/108
f 45/7/105 50/6/108 47/6/105
f 48/6/107 41/7/103 46/7/107
f 41/7/103 48/6/107 43/6/103
f 52/7/109 44/6/104 51/6/110
f 44/6/104 52/7/110 42/7/104
f 52/7/109 50/6/108 49/7/108
f 50/6/108 52/7/110 51/6/109
f 41/7/1 45/7/1 46/7/1
f 45/7/1 41/7/1 42/7/1
f 45/7/1 42/7/1 49/7/1
f 49/7/1 42/7/1 52/7/1
f 55/6/111 54/8/112 53/8/113
f 54/8/112 55/6/111 56/6/114
f 59/8/115 58/6/116 57/6/117
f 58/6/118 59/8/119 60/8/120
f 63/6/121 62/8/122 61/8/123
f 62/8/122 63/6/124 64/6/125
f 64/6/126 53/8/113 62/8/127
f 53/8/128 64/6/129 55/6/130
f 64/6/131 56/6/132 55/6/133
f 56/6/132 64/6/131 58/6/134
f 58/6/134 64/6/131 63/6/135
f 58/6/134 63/6/135 57/6/136
f 59/8/137 63/6/121 61/8/138
f 63/6/139 59/8/115 57/6/140
f 54/8/1 62/8/1 53/8/1
f 62/8/1 54/8/1 60/8/1
f 62/8/1 60/8/1 61/8/1
f 61/8/1 60/8/1 59/8/1
f 56/6/114 60/8/141 54/8/112
f 60/8/120 56/6/114 58/6/142
f 67/6/143 66/9/144 65/9/143
f 66/9/144 67/6/143 68/6/144
f 70/6/145 65/9/143 69/9/146
f 65/9/143 70/6/146 67/6/143
f 68/6/144 71/9/147 66/9/144
f 71/9/147 68/6/144 72/6/147
f 72/6/147 73/9/148 71/9/149
f 73/9/148 72/6/149 74/6/148
f 71/9/1 65/9/1 66/9/1
f 65/9/1 71/9/1 69/9/1
f 69/9/1 71/9/1 73/9/1
f 69/9/1 73/9/1 75/9/1
f 76/6/150 69/9/145 75/9/150
f 69/9/145 76/6/150 70/6/145
f 73/9/148 76/6/150 75/9/150
f 76/6/150 73/9/148 74/6/148
f 79/10/151 78/10/152 77/11/153
f 78/10/154 79/10/151 41/6/151
f 78/10/154 41/6/151 42/6/154
f 77/11/155 78/10/156 79/10/157
f 41/6/157 79/10/157 78/10/156
f 42/6/156 41/6/158 78/10/156
f 81/11/159 49/6/160 80/10/161
f 49/6/162 81/11/159 52/6/163
f 52/6/163 81/11/159 82/10/163
f 80/10/164 49/6/165 81/11/166
f 52/6/167 81/11/166 49/6/164
f 82/10/167 81/11/166 52/6/167
f 82/10/163 42/6/154 52/6/163
f 42/6/154 82/10/163 83/11/168
f 42/6/152 83/11/168 78/10/154
f 52/6/167 42/6/169 82/10/167
f 83/11/170 82/10/167 42/6/156
f 78/10/169 83/11/170 42/6/169
f 46/6/171 85/11/172 84/10/171
f 85/11/173 46/6/171 41/6/174
f 85/11/173 41/6/151 79/10/151
f 84/10/175 85/11/176 46/6/175
f 41/6/157 46/6/175 85/11/177
f 79/10/157 41/6/157 85/11/177
f 80/10/161 87/10/178 86/11/179
f 87/10/180 80/10/161 49/6/161
f 87/10/180 49/6/161 45/6/180
f 86/11/181 87/10/182 80/10/165
f 49/6/164 80/10/164 87/10/182
f 45/6/182 49/6/165 87/10/182
f 45/6/180 88/11/183 87/10/180
f 88/11/183 45/6/180 46/6/171
f 88/11/183 46/6/171 84/10/171
f 87/10/182 88/11/184 45/6/185
f 46/6/175 45/6/182 88/11/184
f 84/10/175 46/6/175 88/11/184
f 91/10/186 90/10/187 89/11/188
f 90/10/187 91/10/186 75/6/186
f 90/10/187 75/6/186 69/6/187
f 89/11/189 90/10/190 91/10/191
f 75/6/192 91/10/191 90/10/190
f 69/6/190 75/6/192 90/10/190
f 65/6/193 93/11/194 92/10/195
f 93/11/194 65/6/195 66/6/196
f 93/11/194 66/6/196 94/10/197
f 92/10/198 93/11/199 65/6/200
f 66/6/201 65/6/202 93/11/199
f 94/10/201 66/6/201 93/11/199
f 97/10/203 96/10/204 95/11/205
f 96/10/206 97/10/203 71/6/203
f 96/10/206 71/6/203 73/6/206
f 95/11/207 96/10/208 97/10/209
f 71/6/209 97/10/209 96/10/208
f 73/6/208 71/6/209 96/10/208
f 98/11/210 75/6/211 91/10/186
f 75/6/212 98/11/210 73/6/206
f 73/6/206 98/11/213 96/10/206
f 91/10/191 75/6/192 98/11/214
f 73/6/215 98/11/214 75/6/191
f 96/10/208 98/11/216 73/6/208
f 94/10/197 97/10/203 99/11/217
f 97/10/203 94/10/197 66/6/197
f 97/10/203 66/6/197 71/6/203
f 99/11/218 97/10/209 94/10/219
f 66/6/201 94/10/201 97/10/209
f 71/6/209 66/6/219 97/10/209
f 90/10/187 92/10/193 100/11/220
f 92/10/195 90/10/187 69/6/187
f 92/10/195 69/6/187 65/6/195
f 100/11/221 92/10/202 90/10/190
f 69/6/190 90/10/190 92/10/202
f 65/6/202 69/6/190 92/10/202
f 102/11/222 61/6/161 101/10/161
f 61/6/161 102/11/222 59/6/163
f 59/6/163 102/11/222 103/10/163
f 101/10/164 61/6/164 102/11/223
f 59/6/167 102/11/223 61/6/164
f 103/10/167 102/11/223 59/6/167
f 103/10/163 60/6/154 59/6/163
f 60/6/154 103/10/163 104/11/168
f 60/6/154 104/11/168 105/10/154
f 59/6/167 60/6/169 103/10/167
f 104/11/170 103/10/167 60/6/169
f 105/10/156 104/11/170 60/6/169
f 62/6/180 107/11/183 106/10/180
f 107/11/183 62/6/180 53/6/171
f 107/11/183 53/6/171 108/10/171
f 106/10/182 107/11/224 62/6/185
f 53/6/175 62/6/182 107/11/184
f 108/10/175 53/6/175 107/11/184
f 110/10/151 105/10/152 109/11/153
f 105/10/154 110/10/151 54/6/151
f 105/10/154 54/6/174 60/6/154
f 109/11/155 105/10/156 110/10/157
f 54/6/157 110/10/157 105/10/156
f 60/6/169 54/6/225 105/10/156
f 101/10/161 106/10/180 111/11/226
f 106/10/180 101/10/161 61/6/161
f 106/10/180 61/6/162 62/6/180
f 111/11/227 106/10/182 101/10/164
f 61/6/164 101/10/164 106/10/182
f 62/6/185 61/6/228 106/10/182
f 53/6/171 112/11/172 108/10/171
f 112/11/173 53/6/171 54/6/229
f 112/11/172 54/6/151 110/10/151
f 108/10/175 112/11/176 53/6/175
f 54/6/157 53/6/175 112/11/177
f 110/10/157 54/6/157 112/11/176
