# Blender 4.1.1
# www.blender.org
mtllib iron-fence-border-column.011.mtl
o iron-fence-border-column.009
v 15.708277 -2.964949 -7.715881
v 15.708277 -2.869370 -7.715881
v 15.708277 -2.964949 -7.907040
v 15.708277 -2.869370 -7.907040
v 15.517119 -2.869370 -7.715881
v 15.517119 -2.964949 -7.715881
v 15.517119 -2.869370 -7.907040
v 15.517119 -2.964949 -7.907040
v 15.708277 -4.444326 -7.907040
v 15.708277 -4.234052 -7.907040
v 15.517119 -4.444326 -7.907040
v 15.517119 -4.234052 -7.907040
v 15.691073 -3.003181 -7.733085
v 15.691073 -3.003181 -7.889836
v 15.691073 -4.195820 -7.733085
v 15.691073 -4.195820 -7.889836
v 15.517119 -4.444326 -7.715881
v 15.517119 -4.234052 -7.715881
v 15.708277 -4.234052 -7.715881
v 15.534323 -4.195820 -7.733085
v 15.534323 -3.003181 -7.733085
v 15.708277 -4.444326 -7.715881
v 15.534323 -3.003181 -7.889836
v 15.534323 -4.195820 -7.889836
v 15.918551 -3.003181 -7.768450
v 15.875542 -2.869370 -7.811461
v 15.918551 -3.003181 -7.854471
v 15.832530 -3.003181 -7.768450
v 15.832530 -3.003181 -7.854471
v 15.904214 -3.079644 -7.782787
v 15.904214 -3.079644 -7.840134
v 15.846868 -3.079644 -7.782787
v 15.846868 -3.079644 -7.840134
v 16.396446 -3.003181 -7.768450
v 16.353437 -2.869370 -7.811461
v 16.396446 -3.003181 -7.854471
v 16.310427 -3.003181 -7.768450
v 16.310427 -3.003181 -7.854471
v 16.382111 -3.079644 -7.782787
v 16.382111 -3.079644 -7.840134
v 16.324762 -3.079644 -7.782787
v 16.324762 -3.079644 -7.840134
v 17.352242 -3.003181 -7.768450
v 17.309231 -2.869370 -7.811461
v 17.352242 -3.003181 -7.854471
v 17.266220 -3.003181 -7.768450
v 17.266220 -3.003181 -7.854471
v 17.337904 -3.079644 -7.782787
v 17.337904 -3.079644 -7.840134
v 17.280556 -3.079644 -7.782787
v 17.280556 -3.079644 -7.840134
v 16.157499 -3.003181 -7.768450
v 16.114489 -2.869370 -7.811461
v 16.157499 -3.003181 -7.854471
v 16.071478 -3.003181 -7.768450
v 16.071478 -3.003181 -7.854471
v 16.143162 -3.079644 -7.782787
v 16.143162 -3.079644 -7.840134
v 16.085814 -3.079644 -7.782787
v 16.085814 -3.079644 -7.840134
v 16.874344 -3.003181 -7.768450
v 16.831333 -2.869370 -7.811461
v 16.874344 -3.003181 -7.854471
v 16.788322 -3.003181 -7.768450
v 16.788322 -3.003181 -7.854471
v 16.860008 -3.079644 -7.782787
v 16.860008 -3.079644 -7.840134
v 16.802660 -3.079644 -7.782787
v 16.802660 -3.079644 -7.840134
v 16.635395 -3.003181 -7.768450
v 16.592384 -2.869370 -7.811461
v 16.635395 -3.003181 -7.854471
v 16.549376 -3.003181 -7.768450
v 16.549376 -3.003181 -7.854471
v 16.621059 -3.079644 -7.782787
v 16.621059 -3.079644 -7.840134
v 16.563711 -3.079644 -7.782787
v 16.563711 -3.079644 -7.840134
v 17.113293 -3.003181 -7.768450
v 17.070282 -2.869370 -7.811461
v 17.113293 -3.003181 -7.854471
v 17.027271 -3.003181 -7.768450
v 17.027271 -3.003181 -7.854471
v 17.098955 -3.079644 -7.782787
v 17.098955 -3.079644 -7.840134
v 17.041609 -3.079644 -7.782787
v 17.041609 -3.079644 -7.840134
v 15.708277 -4.272284 -7.729262
v 15.708277 -4.272284 -7.893659
v 17.428705 -4.272284 -7.729263
v 17.428703 -4.272284 -7.893660
v 15.708277 -4.310515 -7.907040
v 17.428703 -4.310515 -7.907041
v 17.428705 -4.444326 -7.715882
v 15.708277 -4.444326 -7.715881
v 17.428705 -4.310515 -7.715881
v 15.708277 -4.310515 -7.715881
v 15.708277 -4.444326 -7.907040
v 17.428703 -4.444326 -7.907041
v 15.846868 -4.272284 -7.840134
v 15.904214 -4.272284 -7.840134
v 15.846868 -4.272284 -7.782787
v 15.904214 -4.272284 -7.782787
v 16.324762 -4.272284 -7.840134
v 16.382111 -4.272284 -7.840134
v 16.324762 -4.272284 -7.782787
v 16.382111 -4.272284 -7.782787
v 17.280556 -4.272284 -7.840134
v 17.337904 -4.272284 -7.840134
v 17.280556 -4.272284 -7.782787
v 17.337904 -4.272284 -7.782787
v 16.085814 -4.272284 -7.840134
v 16.143162 -4.272284 -7.840134
v 16.085814 -4.272284 -7.782787
v 16.143162 -4.272284 -7.782787
v 16.802660 -4.272284 -7.840134
v 16.860008 -4.272284 -7.840134
v 16.802660 -4.272284 -7.782787
v 16.860008 -4.272284 -7.782787
v 16.563711 -4.272284 -7.840134
v 16.621059 -4.272284 -7.840134
v 16.563711 -4.272284 -7.782787
v 16.621059 -4.272284 -7.782787
v 17.041609 -4.272284 -7.840134
v 17.098955 -4.272284 -7.840134
v 17.041609 -4.272284 -7.782787
v 17.098955 -4.272284 -7.782787
v 15.691073 -3.251687 -7.797124
v 15.691073 -3.309035 -7.797124
v 15.691073 -3.251687 -7.825797
v 15.691073 -3.309035 -7.825797
v 17.428703 -3.309035 -7.797124
v 17.428703 -3.251687 -7.797124
v 17.428703 -3.309035 -7.825798
v 17.428703 -3.251687 -7.825798
v 17.428703 -4.042893 -7.797124
v 17.428703 -3.985545 -7.797124
v 17.428703 -4.042893 -7.825798
v 17.428703 -3.985545 -7.825798
v 15.691073 -3.985545 -7.797124
v 15.691073 -4.042893 -7.797124
v 15.691073 -3.985545 -7.825797
v 15.691073 -4.042893 -7.825797
vn 0.9837 -0.1800 -0.0000
vn 1.0000 -0.0000 -0.0000
vn -1.0000 -0.0000 -0.0000
vn -0.9837 -0.1800 -0.0000
vn -0.0000 -0.0000 -1.0000
vn -0.0000 0.1800 -0.9837
vn 0.9119 -0.4103 -0.0000
vn 0.9837 -0.1801 -0.0000
vn -0.9837 0.1800 -0.0000
vn 0.9836 0.1801 -0.0000
vn 0.9119 0.4103 -0.0000
vn 0.9837 0.1801 -0.0000
vn -0.0000 -0.0000 1.0000
vn -0.0000 0.1800 0.9837
vn -0.0000 -0.1801 -0.9836
vn -0.0000 -0.4104 -0.9119
vn -0.0000 0.4104 0.9119
vn -0.0000 0.1801 0.9836
vn -0.9836 -0.1801 -0.0000
vn -0.9119 -0.4103 -0.0000
vn -0.9837 -0.1801 -0.0000
vn -0.9119 0.4103 -0.0000
vn -0.9837 0.1801 -0.0000
vn -0.0000 -0.1801 0.9836
vn -0.0000 -0.4104 0.9119
vn -0.0000 -0.1800 -0.9837
vn -0.0000 -0.1800 0.9837
vn -0.0000 0.4104 -0.9119
vn -0.0000 0.1801 -0.9836
vn -0.0000 1.0000 -0.0000
vn -0.0000 -1.0000 -0.0000
vn 0.9837 0.1800 -0.0000
vn 0.9987 0.0519 -0.0000
vn 0.9520 0.3060 -0.0000
vn -0.0000 0.3060 0.9520
vn -0.0000 0.0519 0.9987
vn -0.9987 0.0519 -0.0000
vn -0.9520 0.3060 -0.0000
vn -0.0000 0.3060 -0.9520
vn -0.0000 0.0519 -0.9987
vn 0.9829 -0.1843 -0.0000
vn 0.9987 0.0518 -0.0000
vn -0.9987 0.0518 -0.0000
vn -0.9829 -0.1843 -0.0000
vn -0.0000 0.0518 0.9987
vn -0.0000 -0.1843 0.9829
vn -0.0000 0.0518 -0.9987
vn -0.0000 -0.1843 -0.9829
vn -0.0000 0.3304 -0.9439
vn -0.0000 0.1676 -0.9859
vn -0.0000 0.1675 0.9859
vn -0.0000 0.1675 -0.9859
vn -0.0000 0.3304 0.9439
vn -0.0000 0.1676 0.9859
vn -0.0000 0.3303 0.9439
vn 1.0000 -0.0000 -0.0001
vt 0.843750 0.212863
vt 0.843750 0.225000
vt 0.843750 0.025000
vt 0.843750 0.051702
vt 0.843750 0.208008
vt 0.843750 0.056557
vt 0.843750 0.198298
vt 0.843750 0.180556
vt 0.593750 0.448298
vt 0.593750 0.296847
vt 0.531250 0.375000
s 0
usemtl colormap.001
f 3/1/1 2/2/2 1/1/1
f 2/2/2 3/1/1 4/2/2
f 7/2/3 6/1/4 5/2/3
f 6/1/4 7/2/3 8/1/4
f 11/3/5 10/4/6 9/3/5
f 10/4/6 11/3/5 12/4/6
f 13/5/7 3/1/8 1/1/8
f 3/1/8 13/5/7 14/5/7
f 16/6/2 13/5/2 15/6/2
f 13/5/2 16/6/2 14/5/2
f 18/4/9 11/3/3 17/3/3
f 11/3/3 18/4/9 12/4/9
f 10/4/10 15/6/11 19/4/10
f 15/6/11 10/4/12 16/6/11
f 13/5/13 20/6/13 15/6/13
f 20/6/13 13/5/13 21/5/13
f 19/4/14 17/3/13 22/3/13
f 17/3/13 19/4/14 18/4/14
f 8/1/15 14/5/16 23/5/16
f 14/5/16 8/1/15 3/1/15
f 15/6/17 18/4/18 19/4/18
f 18/4/18 15/6/17 20/6/17
f 8/1/19 21/5/20 6/1/19
f 21/5/20 8/1/21 23/5/20
f 20/6/22 12/4/23 18/4/23
f 12/4/23 20/6/22 24/6/22
f 23/5/5 16/6/5 24/6/5
f 16/6/5 23/5/5 14/5/5
f 23/5/3 20/6/3 21/5/3
f 20/6/3 23/5/3 24/6/3
f 1/1/24 21/5/25 13/5/25
f 21/5/25 1/1/24 6/1/24
f 7/2/5 3/1/26 8/1/26
f 3/1/26 7/2/5 4/2/5
f 2/2/13 6/1/27 1/1/27
f 6/1/27 2/2/13 5/2/13
f 24/6/28 10/4/29 12/4/29
f 10/4/29 24/6/28 16/6/28
f 2/2/30 7/2/30 5/2/30
f 7/2/30 2/2/30 4/2/30
f 9/3/31 17/3/31 11/3/31
f 17/3/31 9/3/31 22/3/31
f 9/3/2 19/4/32 22/3/2
f 19/4/32 9/3/2 10/4/32
f 27/5/33 26/2/34 25/5/33
f 26/2/35 28/5/36 25/5/36
f 29/5/37 28/5/37 26/2/38
f 26/2/39 27/5/40 29/5/40
f 30/7/41 27/5/42 25/5/42
f 27/5/42 30/7/41 31/7/41
f 29/5/43 32/7/44 28/5/43
f 32/7/44 29/5/43 33/7/44
f 25/5/45 32/7/46 30/7/46
f 32/7/46 25/5/45 28/5/45
f 29/5/47 31/7/48 33/7/48
f 31/7/48 29/5/47 27/5/47
f 36/5/33 35/2/34 34/5/33
f 35/2/35 37/5/36 34/5/36
f 38/5/37 37/5/37 35/2/38
f 35/2/39 36/5/40 38/5/40
f 39/7/41 36/5/42 34/5/42
f 36/5/42 39/7/41 40/7/41
f 38/5/43 41/7/44 37/5/43
f 41/7/44 38/5/43 42/7/44
f 34/5/45 41/7/46 39/7/46
f 41/7/46 34/5/45 37/5/45
f 38/5/47 40/7/48 42/7/48
f 40/7/48 38/5/47 36/5/47
f 45/5/33 44/2/34 43/5/33
f 44/2/35 46/5/36 43/5/36
f 47/5/37 46/5/37 44/2/38
f 44/2/39 45/5/40 47/5/40
f 48/7/41 45/5/42 43/5/42
f 45/5/42 48/7/41 49/7/41
f 47/5/43 50/7/44 46/5/43
f 50/7/44 47/5/43 51/7/44
f 43/5/45 50/7/46 48/7/46
f 50/7/46 43/5/45 46/5/45
f 47/5/40 49/7/48 51/7/48
f 49/7/48 47/5/47 45/5/47
f 54/5/33 53/2/34 52/5/33
f 53/2/35 55/5/36 52/5/36
f 56/5/37 55/5/37 53/2/38
f 53/2/39 54/5/40 56/5/40
f 57/7/41 54/5/42 52/5/42
f 54/5/42 57/7/41 58/7/41
f 56/5/43 59/7/44 55/5/43
f 59/7/44 56/5/43 60/7/44
f 52/5/45 59/7/46 57/7/46
f 59/7/46 52/5/45 55/5/45
f 56/5/47 58/7/48 60/7/48
f 58/7/48 56/5/47 54/5/47
f 63/5/33 62/2/34 61/5/33
f 62/2/35 64/5/36 61/5/36
f 65/5/37 64/5/37 62/2/38
f 62/2/39 63/5/40 65/5/40
f 66/7/41 63/5/42 61/5/42
f 63/5/42 66/7/41 67/7/41
f 65/5/43 68/7/44 64/5/43
f 68/7/44 65/5/43 69/7/44
f 61/5/45 68/7/46 66/7/46
f 68/7/46 61/5/45 64/5/45
f 65/5/40 67/7/48 69/7/48
f 67/7/48 65/5/47 63/5/47
f 72/5/33 71/2/34 70/5/33
f 71/2/35 73/5/36 70/5/36
f 74/5/37 73/5/37 71/2/38
f 71/2/39 72/5/40 74/5/40
f 75/7/41 72/5/42 70/5/42
f 72/5/42 75/7/41 76/7/41
f 74/5/43 77/7/44 73/5/43
f 77/7/44 74/5/43 78/7/44
f 70/5/45 77/7/46 75/7/46
f 77/7/46 70/5/45 73/5/45
f 74/5/47 76/7/48 78/7/48
f 76/7/48 74/5/47 72/5/47
f 81/5/33 80/2/34 79/5/33
f 80/2/35 82/5/36 79/5/36
f 83/5/37 82/5/37 80/2/38
f 80/2/39 81/5/40 83/5/40
f 84/7/41 81/5/42 79/5/42
f 81/5/42 84/7/41 85/7/41
f 83/5/43 86/7/44 82/5/43
f 86/7/44 83/5/43 87/7/44
f 79/5/45 86/7/46 84/7/46
f 86/7/46 79/5/45 82/5/45
f 83/5/40 85/7/48 87/7/48
f 85/7/48 83/5/47 81/5/47
f 90/2/30 89/2/30 88/2/30
f 89/2/30 90/2/30 91/2/30
f 89/2/49 93/8/50 92/8/50
f 93/8/50 89/2/49 91/2/49
f 96/8/51 95/3/13 94/3/13
f 95/3/13 96/8/51 97/8/51
f 99/3/31 95/3/31 98/3/31
f 95/3/31 99/3/31 94/3/31
f 88/2/3 95/3/3 97/8/3
f 95/3/3 88/2/3 98/3/3
f 98/3/3 88/2/3 89/2/3
f 98/3/3 89/2/3 92/8/3
f 92/8/52 99/3/5 98/3/5
f 99/3/5 92/8/52 93/8/52
f 90/2/53 97/8/54 96/8/54
f 97/8/54 90/2/55 88/2/55
f 99/3/2 96/8/2 94/3/2
f 96/8/56 99/3/56 90/2/56
f 90/2/2 99/3/2 91/2/2
f 91/2/2 99/3/2 93/8/2
f 33/9/5 101/10/5 100/10/5
f 101/10/5 33/9/5 31/9/5
f 101/10/31 102/10/31 100/10/31
f 102/10/31 101/10/31 103/10/31
f 30/9/13 102/10/13 103/10/13
f 102/10/13 30/9/13 32/9/13
f 101/10/2 30/9/2 103/10/2
f 30/9/2 101/10/2 31/9/2
f 33/9/3 102/10/3 32/9/3
f 102/10/3 33/9/3 100/10/3
f 42/9/5 105/10/5 104/10/5
f 105/10/5 42/9/5 40/9/5
f 105/10/31 106/10/31 104/10/31
f 106/10/31 105/10/31 107/10/31
f 39/9/13 106/10/13 107/10/13
f 106/10/13 39/9/13 41/9/13
f 105/10/2 39/9/2 107/10/2
f 39/9/2 105/10/2 40/9/2
f 42/9/3 106/10/3 41/9/3
f 106/10/3 42/9/3 104/10/3
f 51/9/5 109/10/5 108/10/5
f 109/10/5 51/9/5 49/9/5
f 109/10/31 110/10/31 108/10/31
f 110/10/31 109/10/31 111/10/31
f 48/9/13 110/10/13 111/10/13
f 110/10/13 48/9/13 50/9/13
f 109/10/2 48/9/2 111/10/2
f 48/9/2 109/10/2 49/9/2
f 51/9/3 110/10/3 50/9/3
f 110/10/3 51/9/3 108/10/3
f 60/9/5 113/10/5 112/10/5
f 113/10/5 60/9/5 58/9/5
f 113/10/31 114/10/31 112/10/31
f 114/10/31 113/10/31 115/10/31
f 57/9/13 114/10/13 115/10/13
f 114/10/13 57/9/13 59/9/13
f 113/10/2 57/9/2 115/10/2
f 57/9/2 113/10/2 58/9/2
f 60/9/3 114/10/3 59/9/3
f 114/10/3 60/9/3 112/10/3
f 69/9/5 117/10/5 116/10/5
f 117/10/5 69/9/5 67/9/5
f 117/10/31 118/10/31 116/10/31
f 118/10/31 117/10/31 119/10/31
f 66/9/13 118/10/13 119/10/13
f 118/10/13 66/9/13 68/9/13
f 117/10/2 66/9/2 119/10/2
f 66/9/2 117/10/2 67/9/2
f 69/9/3 118/10/3 68/9/3
f 118/10/3 69/9/3 116/10/3
f 78/9/5 121/10/5 120/10/5
f 121/10/5 78/9/5 76/9/5
f 121/10/31 122/10/31 120/10/31
f 122/10/31 121/10/31 123/10/31
f 75/9/13 122/10/13 123/10/13
f 122/10/13 75/9/13 77/9/13
f 121/10/2 75/9/2 123/10/2
f 75/9/2 121/10/2 76/9/2
f 78/9/3 122/10/3 77/9/3
f 122/10/3 78/9/3 120/10/3
f 87/9/5 125/10/5 124/10/5
f 125/10/5 87/9/5 85/9/5
f 125/10/31 126/10/31 124/10/31
f 126/10/31 125/10/31 127/10/31
f 84/9/13 126/10/13 127/10/13
f 126/10/13 84/9/13 86/9/13
f 125/10/2 84/9/2 127/10/2
f 84/9/2 125/10/2 85/9/2
f 87/9/3 126/10/3 86/9/3
f 126/10/3 87/9/3 124/10/3
f 130/11/3 129/11/3 128/11/3
f 129/11/3 130/11/3 131/11/3
f 134/11/2 133/11/2 132/11/2
f 133/11/2 134/11/2 135/11/2
f 130/11/5 134/11/5 131/11/5
f 134/11/5 130/11/5 135/11/5
f 134/11/31 129/11/31 131/11/31
f 129/11/31 134/11/31 132/11/31
f 133/11/30 130/11/30 128/11/30
f 130/11/30 133/11/30 135/11/30
f 133/11/13 129/11/13 132/11/13
f 129/11/13 133/11/13 128/11/13
f 138/11/2 137/11/2 136/11/2
f 137/11/2 138/11/2 139/11/2
f 142/11/3 141/11/3 140/11/3
f 141/11/3 142/11/3 143/11/3
f 137/11/30 142/11/30 140/11/30
f 142/11/30 137/11/30 139/11/30
f 137/11/13 141/11/13 136/11/13
f 141/11/13 137/11/13 140/11/13
f 138/11/31 141/11/31 143/11/31
f 141/11/31 138/11/31 136/11/31
f 142/11/5 138/11/5 143/11/5
f 138/11/5 142/11/5 139/11/5
f 3/1/1 2/2/2 1/1/1
f 2/2/2 3/1/1 4/2/2
f 7/2/3 6/1/4 5/2/3
f 6/1/4 7/2/3 8/1/4
f 11/3/5 10/4/6 9/3/5
f 10/4/6 11/3/5 12/4/6
f 13/5/7 3/1/8 1/1/8
f 3/1/8 13/5/7 14/5/7
f 16/6/2 13/5/2 15/6/2
f 13/5/2 16/6/2 14/5/2
f 18/4/9 11/3/3 17/3/3
f 11/3/3 18/4/9 12/4/9
f 10/4/10 15/6/11 19/4/10
f 15/6/11 10/4/12 16/6/11
f 13/5/13 20/6/13 15/6/13
f 20/6/13 13/5/13 21/5/13
f 19/4/14 17/3/13 22/3/13
f 17/3/13 19/4/14 18/4/14
f 8/1/15 14/5/16 23/5/16
f 14/5/16 8/1/15 3/1/15
f 15/6/17 18/4/18 19/4/18
f 18/4/18 15/6/17 20/6/17
f 8/1/19 21/5/20 6/1/19
f 21/5/20 8/1/21 23/5/20
f 20/6/22 12/4/23 18/4/23
f 12/4/23 20/6/22 24/6/22
f 23/5/5 16/6/5 24/6/5
f 16/6/5 23/5/5 14/5/5
f 23/5/3 20/6/3 21/5/3
f 20/6/3 23/5/3 24/6/3
f 1/1/24 21/5/25 13/5/25
f 21/5/25 1/1/24 6/1/24
f 7/2/5 3/1/26 8/1/26
f 3/1/26 7/2/5 4/2/5
f 2/2/13 6/1/27 1/1/27
f 6/1/27 2/2/13 5/2/13
f 24/6/28 10/4/29 12/4/29
f 10/4/29 24/6/28 16/6/28
f 2/2/30 7/2/30 5/2/30
f 7/2/30 2/2/30 4/2/30
f 9/3/31 17/3/31 11/3/31
f 17/3/31 9/3/31 22/3/31
f 9/3/2 19/4/32 22/3/2
f 19/4/32 9/3/2 10/4/32
f 27/5/33 26/2/34 25/5/33
f 26/2/35 28/5/36 25/5/36
f 29/5/37 28/5/37 26/2/38
f 26/2/39 27/5/40 29/5/40
f 30/7/41 27/5/42 25/5/42
f 27/5/42 30/7/41 31/7/41
f 29/5/43 32/7/44 28/5/43
f 32/7/44 29/5/43 33/7/44
f 25/5/45 32/7/46 30/7/46
f 32/7/46 25/5/45 28/5/45
f 29/5/47 31/7/48 33/7/48
f 31/7/48 29/5/47 27/5/47
f 36/5/33 35/2/34 34/5/33
f 35/2/35 37/5/36 34/5/36
f 38/5/37 37/5/37 35/2/38
f 35/2/39 36/5/40 38/5/40
f 39/7/41 36/5/42 34/5/42
f 36/5/42 39/7/41 40/7/41
f 38/5/43 41/7/44 37/5/43
f 41/7/44 38/5/43 42/7/44
f 34/5/45 41/7/46 39/7/46
f 41/7/46 34/5/45 37/5/45
f 38/5/47 40/7/48 42/7/48
f 40/7/48 38/5/47 36/5/47
f 45/5/33 44/2/34 43/5/33
f 44/2/35 46/5/36 43/5/36
f 47/5/37 46/5/37 44/2/38
f 44/2/39 45/5/40 47/5/40
f 48/7/41 45/5/42 43/5/42
f 45/5/42 48/7/41 49/7/41
f 47/5/43 50/7/44 46/5/43
f 50/7/44 47/5/43 51/7/44
f 43/5/45 50/7/46 48/7/46
f 50/7/46 43/5/45 46/5/45
f 47/5/40 49/7/48 51/7/48
f 49/7/48 47/5/47 45/5/47
f 54/5/33 53/2/34 52/5/33
f 53/2/35 55/5/36 52/5/36
f 56/5/37 55/5/37 53/2/38
f 53/2/39 54/5/40 56/5/40
f 57/7/41 54/5/42 52/5/42
f 54/5/42 57/7/41 58/7/41
f 56/5/43 59/7/44 55/5/43
f 59/7/44 56/5/43 60/7/44
f 52/5/45 59/7/46 57/7/46
f 59/7/46 52/5/45 55/5/45
f 56/5/47 58/7/48 60/7/48
f 58/7/48 56/5/47 54/5/47
f 63/5/33 62/2/34 61/5/33
f 62/2/35 64/5/36 61/5/36
f 65/5/37 64/5/37 62/2/38
f 62/2/39 63/5/40 65/5/40
f 66/7/41 63/5/42 61/5/42
f 63/5/42 66/7/41 67/7/41
f 65/5/43 68/7/44 64/5/43
f 68/7/44 65/5/43 69/7/44
f 61/5/45 68/7/46 66/7/46
f 68/7/46 61/5/45 64/5/45
f 65/5/40 67/7/48 69/7/48
f 67/7/48 65/5/47 63/5/47
f 72/5/33 71/2/34 70/5/33
f 71/2/35 73/5/36 70/5/36
f 74/5/37 73/5/37 71/2/38
f 71/2/39 72/5/40 74/5/40
f 75/7/41 72/5/42 70/5/42
f 72/5/42 75/7/41 76/7/41
f 74/5/43 77/7/44 73/5/43
f 77/7/44 74/5/43 78/7/44
f 70/5/45 77/7/46 75/7/46
f 77/7/46 70/5/45 73/5/45
f 74/5/47 76/7/48 78/7/48
f 76/7/48 74/5/47 72/5/47
f 81/5/33 80/2/34 79/5/33
f 80/2/35 82/5/36 79/5/36
f 83/5/37 82/5/37 80/2/38
f 80/2/39 81/5/40 83/5/40
f 84/7/41 81/5/42 79/5/42
f 81/5/42 84/7/41 85/7/41
f 83/5/43 86/7/44 82/5/43
f 86/7/44 83/5/43 87/7/44
f 79/5/45 86/7/46 84/7/46
f 86/7/46 79/5/45 82/5/45
f 83/5/40 85/7/48 87/7/48
f 85/7/48 83/5/47 81/5/47
f 90/2/30 89/2/30 88/2/30
f 89/2/30 90/2/30 91/2/30
f 89/2/49 93/8/50 92/8/50
f 93/8/50 89/2/49 91/2/49
f 96/8/51 95/3/13 94/3/13
f 95/3/13 96/8/51 97/8/51
f 99/3/31 95/3/31 98/3/31
f 95/3/31 99/3/31 94/3/31
f 88/2/3 95/3/3 97/8/3
f 95/3/3 88/2/3 98/3/3
f 98/3/3 88/2/3 89/2/3
f 98/3/3 89/2/3 92/8/3
f 92/8/52 99/3/5 98/3/5
f 99/3/5 92/8/52 93/8/52
f 90/2/53 97/8/54 96/8/54
f 97/8/54 90/2/55 88/2/55
f 99/3/2 96/8/2 94/3/2
f 96/8/56 99/3/56 90/2/56
f 90/2/2 99/3/2 91/2/2
f 91/2/2 99/3/2 93/8/2
f 33/9/5 101/10/5 100/10/5
f 101/10/5 33/9/5 31/9/5
f 101/10/31 102/10/31 100/10/31
f 102/10/31 101/10/31 103/10/31
f 30/9/13 102/10/13 103/10/13
f 102/10/13 30/9/13 32/9/13
f 101/10/2 30/9/2 103/10/2
f 30/9/2 101/10/2 31/9/2
f 33/9/3 102/10/3 32/9/3
f 102/10/3 33/9/3 100/10/3
f 42/9/5 105/10/5 104/10/5
f 105/10/5 42/9/5 40/9/5
f 105/10/31 106/10/31 104/10/31
f 106/10/31 105/10/31 107/10/31
f 39/9/13 106/10/13 107/10/13
f 106/10/13 39/9/13 41/9/13
f 105/10/2 39/9/2 107/10/2
f 39/9/2 105/10/2 40/9/2
f 42/9/3 106/10/3 41/9/3
f 106/10/3 42/9/3 104/10/3
f 51/9/5 109/10/5 108/10/5
f 109/10/5 51/9/5 49/9/5
f 109/10/31 110/10/31 108/10/31
f 110/10/31 109/10/31 111/10/31
f 48/9/13 110/10/13 111/10/13
f 110/10/13 48/9/13 50/9/13
f 109/10/2 48/9/2 111/10/2
f 48/9/2 109/10/2 49/9/2
f 51/9/3 110/10/3 50/9/3
f 110/10/3 51/9/3 108/10/3
f 60/9/5 113/10/5 112/10/5
f 113/10/5 60/9/5 58/9/5
f 113/10/31 114/10/31 112/10/31
f 114/10/31 113/10/31 115/10/31
f 57/9/13 114/10/13 115/10/13
f 114/10/13 57/9/13 59/9/13
f 113/10/2 57/9/2 115/10/2
f 57/9/2 113/10/2 58/9/2
f 60/9/3 114/10/3 59/9/3
f 114/10/3 60/9/3 112/10/3
f 69/9/5 117/10/5 116/10/5
f 117/10/5 69/9/5 67/9/5
f 117/10/31 118/10/31 116/10/31
f 118/10/31 117/10/31 119/10/31
f 66/9/13 118/10/13 119/10/13
f 118/10/13 66/9/13 68/9/13
f 117/10/2 66/9/2 119/10/2
f 66/9/2 117/10/2 67/9/2
f 69/9/3 118/10/3 68/9/3
f 118/10/3 69/9/3 116/10/3
f 78/9/5 121/10/5 120/10/5
f 121/10/5 78/9/5 76/9/5
f 121/10/31 122/10/31 120/10/31
f 122/10/31 121/10/31 123/10/31
f 75/9/13 122/10/13 123/10/13
f 122/10/13 75/9/13 77/9/13
f 121/10/2 75/9/2 123/10/2
f 75/9/2 121/10/2 76/9/2
f 78/9/3 122/10/3 77/9/3
f 122/10/3 78/9/3 120/10/3
f 87/9/5 125/10/5 124/10/5
f 125/10/5 87/9/5 85/9/5
f 125/10/31 126/10/31 124/10/31
f 126/10/31 125/10/31 127/10/31
f 84/9/13 126/10/13 127/10/13
f 126/10/13 84/9/13 86/9/13
f 125/10/2 84/9/2 127/10/2
f 84/9/2 125/10/2 85/9/2
f 87/9/3 126/10/3 86/9/3
f 126/10/3 87/9/3 124/10/3
f 130/11/3 129/11/3 128/11/3
f 129/11/3 130/11/3 131/11/3
f 134/11/2 133/11/2 132/11/2
f 133/11/2 134/11/2 135/11/2
f 130/11/5 134/11/5 131/11/5
f 134/11/5 130/11/5 135/11/5
f 134/11/31 129/11/31 131/11/31
f 129/11/31 134/11/31 132/11/31
f 133/11/30 130/11/30 128/11/30
f 130/11/30 133/11/30 135/11/30
f 133/11/13 129/11/13 132/11/13
f 129/11/13 133/11/13 128/11/13
f 138/11/2 137/11/2 136/11/2
f 137/11/2 138/11/2 139/11/2
f 142/11/3 141/11/3 140/11/3
f 141/11/3 142/11/3 143/11/3
f 137/11/30 142/11/30 140/11/30
f 142/11/30 137/11/30 139/11/30
f 137/11/13 141/11/13 136/11/13
f 141/11/13 137/11/13 140/11/13
f 138/11/31 141/11/31 143/11/31
f 141/11/31 138/11/31 136/11/31
f 142/11/5 138/11/5 143/11/5
f 138/11/5 142/11/5 139/11/5
