# Blender 4.1.1
# www.blender.org
mtllib brick-wall.020.mtl
o brick-wall.020
v 21.539425 0.182666 -9.990422
v 21.475935 0.182666 -9.990422
v 21.539425 0.182666 -11.215432
v 21.475935 0.182666 -11.215432
v 21.843649 1.387865 -11.215432
v 21.843649 1.387865 -9.990422
v 21.843649 1.632868 -11.215432
v 21.843649 1.632868 -9.990422
v 21.458784 -0.086837 -9.990422
v 21.899788 -0.086837 -9.990422
v 21.458784 -0.086837 -11.215432
v 21.899788 -0.086837 -11.215432
v 21.514925 1.632868 -9.990422
v 21.514925 1.632868 -11.215432
v 21.458784 0.133665 -9.990422
v 21.458784 0.133665 -11.215432
v 21.882639 0.182666 -9.990422
v 21.819149 0.182666 -9.990422
v 21.882639 0.182666 -11.215432
v 21.819149 0.182666 -11.215432
v 21.899788 0.133665 -11.215432
v 21.899788 0.133665 -9.990422
v 21.819149 1.387865 -9.990422
v 21.819149 1.387865 -11.215432
v 21.514925 1.387865 -9.990422
v 21.539425 1.387865 -9.990422
v 21.514925 1.387865 -11.215432
v 21.539425 1.387865 -11.215432
v 21.843649 1.387865 -11.215432
v 21.843649 1.632868 -11.215432
v 21.819149 1.387865 -11.215432
v 21.514925 1.632868 -11.215432
v 21.539425 1.387865 -11.215432
v 21.514925 1.387865 -11.215432
v 21.458784 -0.086837 -11.215432
v 21.882639 0.182666 -11.215432
v 21.819149 0.182666 -11.215432
v 21.539425 0.182666 -11.215432
v 21.475935 0.182666 -11.215432
v 21.458784 0.133665 -11.215432
v 21.843649 1.632868 -9.990422
v 21.843649 1.387865 -9.990422
v 21.514925 1.632868 -9.990422
v 21.819149 1.387865 -9.990422
v 21.539425 1.387865 -9.990422
v 21.514925 1.387865 -9.990422
v 21.458784 -0.086837 -9.990422
v 21.882639 0.182666 -9.990422
v 21.819149 0.182666 -9.990422
v 21.539425 0.182666 -9.990422
v 21.475935 0.182666 -9.990422
v 21.458784 0.133665 -9.990422
v 21.475935 0.404895 -10.913353
v 21.475935 0.404895 -11.086006
v 21.475935 0.576396 -10.913353
v 21.475935 0.576396 -11.086006
v 21.539425 0.404895 -10.913353
v 21.539425 0.404895 -11.086006
v 21.539425 0.576396 -10.913353
v 21.539425 0.576396 -11.086006
v 21.475935 0.649897 -10.790853
v 21.475935 0.649897 -10.963506
v 21.475935 0.821398 -10.790853
v 21.475935 0.821398 -10.963506
v 21.539425 0.649897 -10.790853
v 21.539425 0.649897 -10.963506
v 21.539425 0.821398 -10.790853
v 21.539425 0.821398 -10.963506
v 21.475935 0.894899 -10.055846
v 21.475935 0.894899 -10.228499
v 21.475935 1.066400 -10.055846
v 21.475935 1.066400 -10.228499
v 21.539425 0.894899 -10.055846
v 21.539425 0.894899 -10.228499
v 21.539425 1.066400 -10.055846
v 21.539425 1.066400 -10.228499
v 21.882639 0.522195 -10.996295
v 21.882639 0.522195 -10.823642
v 21.882639 0.693696 -10.996295
v 21.882639 0.693696 -10.823642
v 21.819149 0.522195 -10.996295
v 21.819149 0.522195 -10.823642
v 21.819149 0.693696 -10.996295
v 21.819149 0.693696 -10.823642
v 21.882639 1.012199 -10.873794
v 21.882639 1.012199 -10.701140
v 21.882639 1.183701 -10.873794
v 21.882639 1.183701 -10.701140
v 21.819149 1.012199 -10.873794
v 21.819149 1.012199 -10.701140
v 21.819149 1.183701 -10.873794
v 21.819149 1.183701 -10.701140
v 21.882639 0.522195 -10.383789
v 21.882639 0.522195 -10.211136
v 21.882639 0.693696 -10.383789
v 21.882639 0.693696 -10.211136
v 21.819149 0.522195 -10.383789
v 21.819149 0.522195 -10.211136
v 21.819149 0.693696 -10.383789
v 21.819149 0.693696 -10.211136
vn -0.0000 1.0000 -0.0000
vn 1.0000 -0.0000 -0.0000
vn -0.0000 -1.0000 -0.0000
vn -0.9439 0.3304 -0.0000
vn -0.9859 0.1676 0.0009
vn -0.9859 0.1676 -0.0000
vn -0.9859 0.1676 0.0024
vn 0.9439 0.3303 -0.0000
vn 0.9859 0.1676 -0.0009
vn 0.9859 0.1675 -0.0000
vn 0.9859 0.1676 -0.0024
vn -1.0000 -0.0000 -0.0000
vn 0.9859 0.1672 0.0097
vn 0.9859 0.1675 0.0038
vn -0.9859 0.1672 -0.0097
vn -0.9859 0.1675 -0.0038
vn -0.9859 0.1675 -0.0000
vn -0.0000 -0.0000 -1.0000
vn -0.0000 -0.0000 1.0000
vt 0.843750 0.056343
vt 0.843750 0.225000
vt 0.843750 0.196507
vt 0.843750 0.025000
vt 0.843750 0.050644
vt 0.343750 0.196507
vt 0.343750 0.056343
vt 0.281250 0.125000
s 0
usemtl colormap.110
f 3/1/1 2/1/1 1/1/1
f 2/1/1 3/1/1 4/1/1
f 7/2/2 6/3/2 5/3/2
f 6/3/2 7/2/2 8/2/2
f 11/4/3 10/4/3 9/4/3
f 10/4/3 11/4/3 12/4/3
f 7/2/1 13/2/1 8/2/1
f 13/2/1 7/2/1 14/2/1
f 2/1/4 16/5/5 15/5/6
f 16/5/7 2/1/4 4/1/4
f 19/1/1 18/1/1 17/1/1
f 18/1/1 19/1/1 20/1/1
f 19/1/8 22/5/9 21/5/10
f 22/5/11 19/1/8 17/1/8
f 24/3/3 6/3/3 23/3/3
f 6/3/3 24/3/3 5/3/3
f 27/3/3 26/3/3 25/3/3
f 26/3/3 27/3/3 28/3/3
f 13/2/12 27/3/12 25/3/12
f 27/3/12 13/2/12 14/2/12
f 21/5/13 10/4/2 12/4/2
f 10/4/2 21/5/14 22/5/10
f 15/5/15 11/4/12 9/4/12
f 11/4/12 15/5/16 16/5/17
f 31/3/18 30/2/18 29/3/18
f 30/2/18 31/3/18 32/2/18
f 32/2/18 31/3/18 33/3/18
f 32/2/18 33/3/18 34/3/18
f 35/4/18 21/5/18 12/4/18
f 21/5/18 35/4/18 36/1/18
f 36/1/18 35/4/18 37/1/18
f 37/1/18 35/4/18 38/1/18
f 38/1/18 35/4/18 39/1/18
f 39/1/18 35/4/18 40/5/18
f 43/2/19 42/3/19 41/2/19
f 42/3/19 43/2/19 44/3/19
f 44/3/19 43/2/19 45/3/19
f 45/3/19 43/2/19 46/3/19
f 22/5/19 47/4/19 10/4/19
f 47/4/19 22/5/19 48/1/19
f 47/4/19 48/1/19 49/1/19
f 47/4/19 49/1/19 50/1/19
f 47/4/19 50/1/19 51/1/19
f 47/4/19 51/1/19 52/5/19
f 26/6/12 3/7/12 1/7/12
f 3/7/12 26/6/12 28/6/12
f 24/6/2 18/7/2 20/7/2
f 18/7/2 24/6/2 23/6/2
f 20/7/18 28/6/18 24/6/18
f 28/6/18 20/7/18 3/7/18
f 26/6/19 18/7/19 23/6/19
f 18/7/19 26/6/19 1/7/19
f 55/8/12 54/8/12 53/8/12
f 54/8/12 55/8/12 56/8/12
f 54/8/3 57/8/3 53/8/3
f 57/8/3 54/8/3 58/8/3
f 55/8/19 57/8/19 59/8/19
f 57/8/19 55/8/19 53/8/19
f 60/8/1 55/8/1 59/8/1
f 55/8/1 60/8/1 56/8/1
f 54/8/18 60/8/18 58/8/18
f 60/8/18 54/8/18 56/8/18
f 63/8/12 62/8/12 61/8/12
f 62/8/12 63/8/12 64/8/12
f 62/8/3 65/8/3 61/8/3
f 65/8/3 62/8/3 66/8/3
f 63/8/19 65/8/19 67/8/19
f 65/8/19 63/8/19 61/8/19
f 68/8/1 63/8/1 67/8/1
f 63/8/1 68/8/1 64/8/1
f 62/8/18 68/8/18 66/8/18
f 68/8/18 62/8/18 64/8/18
f 71/8/12 70/8/12 69/8/12
f 70/8/12 71/8/12 72/8/12
f 70/8/3 73/8/3 69/8/3
f 73/8/3 70/8/3 74/8/3
f 71/8/19 73/8/19 75/8/19
f 73/8/19 71/8/19 69/8/19
f 76/8/1 71/8/1 75/8/1
f 71/8/1 76/8/1 72/8/1
f 70/8/18 76/8/18 74/8/18
f 76/8/18 70/8/18 72/8/18
f 79/8/2 78/8/2 77/8/2
f 78/8/2 79/8/2 80/8/2
f 78/8/3 81/8/3 77/8/3
f 81/8/3 78/8/3 82/8/3
f 79/8/18 81/8/18 83/8/18
f 81/8/18 79/8/18 77/8/18
f 84/8/1 79/8/1 83/8/1
f 79/8/1 84/8/1 80/8/1
f 78/8/19 84/8/19 82/8/19
f 84/8/19 78/8/19 80/8/19
f 87/8/2 86/8/2 85/8/2
f 86/8/2 87/8/2 88/8/2
f 86/8/3 89/8/3 85/8/3
f 89/8/3 86/8/3 90/8/3
f 87/8/18 89/8/18 91/8/18
f 89/8/18 87/8/18 85/8/18
f 92/8/1 87/8/1 91/8/1
f 87/8/1 92/8/1 88/8/1
f 86/8/19 92/8/19 90/8/19
f 92/8/19 86/8/19 88/8/19
f 95/8/2 94/8/2 93/8/2
f 94/8/2 95/8/2 96/8/2
f 94/8/3 97/8/3 93/8/3
f 97/8/3 94/8/3 98/8/3
f 95/8/18 97/8/18 99/8/18
f 97/8/18 95/8/18 93/8/18
f 100/8/1 95/8/1 99/8/1
f 95/8/1 100/8/1 96/8/1
f 94/8/19 100/8/19 98/8/19
f 100/8/19 94/8/19 96/8/19
f 3/1/1 2/1/1 1/1/1
f 2/1/1 3/1/1 4/1/1
f 7/2/2 6/3/2 5/3/2
f 6/3/2 7/2/2 8/2/2
f 11/4/3 10/4/3 9/4/3
f 10/4/3 11/4/3 12/4/3
f 7/2/1 13/2/1 8/2/1
f 13/2/1 7/2/1 14/2/1
f 2/1/4 16/5/5 15/5/6
f 16/5/7 2/1/4 4/1/4
f 19/1/1 18/1/1 17/1/1
f 18/1/1 19/1/1 20/1/1
f 19/1/8 22/5/9 21/5/10
f 22/5/11 19/1/8 17/1/8
f 24/3/3 6/3/3 23/3/3
f 6/3/3 24/3/3 5/3/3
f 27/3/3 26/3/3 25/3/3
f 26/3/3 27/3/3 28/3/3
f 13/2/12 27/3/12 25/3/12
f 27/3/12 13/2/12 14/2/12
f 21/5/13 10/4/2 12/4/2
f 10/4/2 21/5/14 22/5/10
f 15/5/15 11/4/12 9/4/12
f 11/4/12 15/5/16 16/5/17
f 31/3/18 30/2/18 29/3/18
f 30/2/18 31/3/18 32/2/18
f 32/2/18 31/3/18 33/3/18
f 32/2/18 33/3/18 34/3/18
f 35/4/18 21/5/18 12/4/18
f 21/5/18 35/4/18 36/1/18
f 36/1/18 35/4/18 37/1/18
f 37/1/18 35/4/18 38/1/18
f 38/1/18 35/4/18 39/1/18
f 39/1/18 35/4/18 40/5/18
f 43/2/19 42/3/19 41/2/19
f 42/3/19 43/2/19 44/3/19
f 44/3/19 43/2/19 45/3/19
f 45/3/19 43/2/19 46/3/19
f 22/5/19 47/4/19 10/4/19
f 47/4/19 22/5/19 48/1/19
f 47/4/19 48/1/19 49/1/19
f 47/4/19 49/1/19 50/1/19
f 47/4/19 50/1/19 51/1/19
f 47/4/19 51/1/19 52/5/19
f 26/6/12 3/7/12 1/7/12
f 3/7/12 26/6/12 28/6/12
f 24/6/2 18/7/2 20/7/2
f 18/7/2 24/6/2 23/6/2
f 20/7/18 28/6/18 24/6/18
f 28/6/18 20/7/18 3/7/18
f 26/6/19 18/7/19 23/6/19
f 18/7/19 26/6/19 1/7/19
f 55/8/12 54/8/12 53/8/12
f 54/8/12 55/8/12 56/8/12
f 54/8/3 57/8/3 53/8/3
f 57/8/3 54/8/3 58/8/3
f 55/8/19 57/8/19 59/8/19
f 57/8/19 55/8/19 53/8/19
f 60/8/1 55/8/1 59/8/1
f 55/8/1 60/8/1 56/8/1
f 54/8/18 60/8/18 58/8/18
f 60/8/18 54/8/18 56/8/18
f 63/8/12 62/8/12 61/8/12
f 62/8/12 63/8/12 64/8/12
f 62/8/3 65/8/3 61/8/3
f 65/8/3 62/8/3 66/8/3
f 63/8/19 65/8/19 67/8/19
f 65/8/19 63/8/19 61/8/19
f 68/8/1 63/8/1 67/8/1
f 63/8/1 68/8/1 64/8/1
f 62/8/18 68/8/18 66/8/18
f 68/8/18 62/8/18 64/8/18
f 71/8/12 70/8/12 69/8/12
f 70/8/12 71/8/12 72/8/12
f 70/8/3 73/8/3 69/8/3
f 73/8/3 70/8/3 74/8/3
f 71/8/19 73/8/19 75/8/19
f 73/8/19 71/8/19 69/8/19
f 76/8/1 71/8/1 75/8/1
f 71/8/1 76/8/1 72/8/1
f 70/8/18 76/8/18 74/8/18
f 76/8/18 70/8/18 72/8/18
f 79/8/2 78/8/2 77/8/2
f 78/8/2 79/8/2 80/8/2
f 78/8/3 81/8/3 77/8/3
f 81/8/3 78/8/3 82/8/3
f 79/8/18 81/8/18 83/8/18
f 81/8/18 79/8/18 77/8/18
f 84/8/1 79/8/1 83/8/1
f 79/8/1 84/8/1 80/8/1
f 78/8/19 84/8/19 82/8/19
f 84/8/19 78/8/19 80/8/19
f 87/8/2 86/8/2 85/8/2
f 86/8/2 87/8/2 88/8/2
f 86/8/3 89/8/3 85/8/3
f 89/8/3 86/8/3 90/8/3
f 87/8/18 89/8/18 91/8/18
f 89/8/18 87/8/18 85/8/18
f 92/8/1 87/8/1 91/8/1
f 87/8/1 92/8/1 88/8/1
f 86/8/19 92/8/19 90/8/19
f 92/8/19 86/8/19 88/8/19
f 95/8/2 94/8/2 93/8/2
f 94/8/2 95/8/2 96/8/2
f 94/8/3 97/8/3 93/8/3
f 97/8/3 94/8/3 98/8/3
f 95/8/18 97/8/18 99/8/18
f 97/8/18 95/8/18 93/8/18
f 100/8/1 95/8/1 99/8/1
f 95/8/1 100/8/1 96/8/1
f 94/8/19 100/8/19 98/8/19
f 100/8/19 94/8/19 96/8/19
