# Blender 4.1.1
# www.blender.org
mtllib iron-fence-border-column.010.mtl
o iron-fence-border-column.008
v 7.654902 1.334315 -7.296189
v 7.654902 1.424660 -7.296189
v 7.654902 1.334315 -7.476878
v 7.654902 1.424660 -7.476878
v 7.474213 1.424660 -7.296189
v 7.474213 1.334315 -7.296189
v 7.474213 1.424660 -7.476878
v 7.474213 1.334315 -7.476878
v 7.654902 -0.064042 -7.476878
v 7.654902 0.134716 -7.476878
v 7.474213 -0.064042 -7.476878
v 7.474213 0.134716 -7.476878
v 7.638641 1.298177 -7.312451
v 7.638640 1.298177 -7.460617
v 7.638641 0.170854 -7.312451
v 7.638640 0.170854 -7.460617
v 7.474213 -0.064042 -7.296189
v 7.474213 0.134716 -7.296189
v 7.654902 0.134716 -7.296189
v 7.490475 0.170854 -7.312451
v 7.490475 1.298177 -7.312451
v 7.654902 -0.064042 -7.296189
v 7.490475 1.298177 -7.460617
v 7.490475 0.170854 -7.460617
v 7.853661 1.298177 -7.345878
v 7.813005 1.424660 -7.386534
v 7.853661 1.298177 -7.427189
v 7.772351 1.298177 -7.345878
v 7.772351 1.298177 -7.427189
v 7.840109 1.225901 -7.359430
v 7.840109 1.225901 -7.413637
v 7.785903 1.225901 -7.359430
v 7.785903 1.225901 -7.413637
v 8.305386 1.298177 -7.345879
v 8.264730 1.424660 -7.386534
v 8.305386 1.298177 -7.427189
v 8.224075 1.298177 -7.345879
v 8.224075 1.298177 -7.427189
v 8.291834 1.225901 -7.359430
v 8.291834 1.225901 -7.413637
v 8.237627 1.225901 -7.359430
v 8.237627 1.225901 -7.413637
v 9.208834 1.298177 -7.345879
v 9.168179 1.424660 -7.386534
v 9.208834 1.298177 -7.427189
v 9.127523 1.298177 -7.345879
v 9.127523 1.298177 -7.427189
v 9.195282 1.225901 -7.359430
v 9.195282 1.225901 -7.413637
v 9.141075 1.225901 -7.359430
v 9.141075 1.225901 -7.413637
v 8.079524 1.298177 -7.345878
v 8.038868 1.424660 -7.386534
v 8.079524 1.298177 -7.427189
v 7.998213 1.298177 -7.345878
v 7.998213 1.298177 -7.427189
v 8.065971 1.225901 -7.359430
v 8.065971 1.225901 -7.413637
v 8.011765 1.225901 -7.359430
v 8.011765 1.225901 -7.413637
v 8.757110 1.298177 -7.345879
v 8.716455 1.424660 -7.386534
v 8.757110 1.298177 -7.427189
v 8.675799 1.298177 -7.345879
v 8.675799 1.298177 -7.427189
v 8.743558 1.225901 -7.359430
v 8.743558 1.225901 -7.413637
v 8.689351 1.225901 -7.359430
v 8.689351 1.225901 -7.413637
v 8.531247 1.298177 -7.345879
v 8.490593 1.424660 -7.386534
v 8.531247 1.298177 -7.427189
v 8.449938 1.298177 -7.345879
v 8.449938 1.298177 -7.427189
v 8.517695 1.225901 -7.359430
v 8.517695 1.225901 -7.413637
v 8.463489 1.225901 -7.359430
v 8.463489 1.225901 -7.413637
v 8.982971 1.298177 -7.345879
v 8.942316 1.424660 -7.386534
v 8.982971 1.298177 -7.427189
v 8.901661 1.298177 -7.345879
v 8.901661 1.298177 -7.427189
v 8.969420 1.225901 -7.359430
v 8.969420 1.225901 -7.413637
v 8.915214 1.225901 -7.359430
v 8.915214 1.225901 -7.413637
v 7.654902 0.098578 -7.308837
v 7.654902 0.098578 -7.464230
v 9.281110 0.098578 -7.308838
v 9.281110 0.098578 -7.464231
v 7.654902 0.062440 -7.476878
v 9.281110 0.062440 -7.476879
v 9.281110 -0.064042 -7.296190
v 7.654902 -0.064042 -7.296189
v 9.281110 0.062440 -7.296189
v 7.654902 0.062440 -7.296189
v 7.654902 -0.064042 -7.476878
v 9.281110 -0.064042 -7.476879
v 7.785903 0.098578 -7.413637
v 7.840109 0.098578 -7.413637
v 7.785903 0.098578 -7.359430
v 7.840109 0.098578 -7.359430
v 8.237627 0.098578 -7.413637
v 8.291834 0.098578 -7.413637
v 8.237627 0.098578 -7.359430
v 8.291834 0.098578 -7.359430
v 9.141075 0.098578 -7.413637
v 9.195282 0.098578 -7.413637
v 9.141075 0.098578 -7.359431
v 9.195282 0.098578 -7.359431
v 8.011765 0.098578 -7.413637
v 8.065971 0.098578 -7.413637
v 8.011765 0.098578 -7.359430
v 8.065971 0.098578 -7.359430
v 8.689351 0.098578 -7.413637
v 8.743558 0.098578 -7.413637
v 8.689351 0.098578 -7.359430
v 8.743558 0.098578 -7.359430
v 8.463489 0.098578 -7.413637
v 8.517695 0.098578 -7.413637
v 8.463489 0.098578 -7.359430
v 8.517695 0.098578 -7.359430
v 8.915214 0.098578 -7.413637
v 8.969420 0.098578 -7.413637
v 8.915214 0.098578 -7.359431
v 8.969420 0.098578 -7.359431
v 7.638640 1.063280 -7.372982
v 7.638640 1.009073 -7.372982
v 7.638640 1.063280 -7.400085
v 7.638640 1.009073 -7.400085
v 9.281110 1.009073 -7.372982
v 9.281110 1.063280 -7.372982
v 9.281110 1.009073 -7.400086
v 9.281110 1.063280 -7.400086
v 9.281110 0.315406 -7.372982
v 9.281110 0.369613 -7.372982
v 9.281110 0.315406 -7.400086
v 9.281110 0.369613 -7.400086
v 7.638640 0.369613 -7.372982
v 7.638640 0.315406 -7.372982
v 7.638640 0.369613 -7.400085
v 7.638640 0.315406 -7.400085
vn 0.9837 -0.1800 -0.0000
vn 1.0000 -0.0000 -0.0000
vn -1.0000 -0.0000 -0.0000
vn -0.9837 -0.1800 -0.0000
vn -0.0000 -0.0000 -1.0000
vn -0.0000 0.1800 -0.9837
vn 0.9119 -0.4104 -0.0000
vn 0.9836 -0.1801 -0.0000
vn -0.9837 0.1800 -0.0000
vn 0.9836 0.1801 -0.0000
vn 0.9119 0.4104 -0.0000
vn -0.0000 -0.0000 1.0000
vn -0.0000 0.1800 0.9837
vn -0.0000 -0.1801 -0.9837
vn -0.0000 -0.4103 -0.9119
vn -0.0000 -0.4104 -0.9119
vn -0.0000 -0.1801 -0.9836
vn -0.0000 0.4104 0.9119
vn -0.0000 0.1801 0.9836
vn -0.9836 -0.1801 -0.0000
vn -0.9119 -0.4104 -0.0000
vn -0.9119 0.4104 -0.0000
vn -0.9836 0.1801 -0.0000
vn -0.0000 -0.1801 0.9836
vn -0.0000 -0.4104 0.9119
vn -0.0000 -0.1800 -0.9837
vn -0.0000 -0.1800 0.9837
vn -0.0000 0.4104 -0.9119
vn -0.0000 0.1801 -0.9836
vn -0.0000 0.1801 -0.9837
vn -0.0000 0.4103 -0.9119
vn -0.0000 1.0000 -0.0000
vn -0.0000 -1.0000 -0.0000
vn 0.9837 0.1800 -0.0000
vn 0.9987 0.0519 -0.0000
vn 0.9520 0.3060 -0.0000
vn -0.0000 0.3060 0.9520
vn -0.0000 0.0519 0.9987
vn -0.9987 0.0519 -0.0000
vn -0.9520 0.3060 -0.0000
vn -0.0000 0.3060 -0.9520
vn -0.0000 0.0519 -0.9987
vn 0.9829 -0.1843 -0.0000
vn 0.9987 0.0518 -0.0000
vn -0.9987 0.0518 -0.0000
vn -0.9829 -0.1843 -0.0000
vn -0.0000 0.0518 0.9987
vn -0.0000 -0.1843 0.9829
vn -0.0000 0.0518 -0.9987
vn -0.0000 -0.1843 -0.9829
vn -0.0000 0.3304 -0.9439
vn -0.0000 0.1676 -0.9859
vn -0.0000 0.1675 -0.9859
vn -0.0000 0.3303 -0.9439
vn -0.0000 0.1675 0.9859
vn -1.0000 -0.0000 0.0001
vn -0.0000 0.3304 0.9439
vn -0.0000 0.1676 0.9859
vn 1.0000 -0.0000 0.0001
vt 0.843750 0.212863
vt 0.843750 0.225000
vt 0.843750 0.025000
vt 0.843750 0.051702
vt 0.843750 0.208008
vt 0.843750 0.056557
vt 0.843750 0.198298
vt 0.843750 0.180556
vt 0.593750 0.448298
vt 0.593750 0.296847
vt 0.531250 0.375000
s 0
usemtl colormap
f 3/1/1 2/2/2 1/1/1
f 2/2/2 3/1/1 4/2/2
f 7/2/3 6/1/4 5/2/3
f 6/1/4 7/2/3 8/1/4
f 11/3/5 10/4/6 9/3/5
f 10/4/6 11/3/5 12/4/6
f 13/5/7 3/1/8 1/1/8
f 3/1/8 13/5/7 14/5/7
f 16/6/2 13/5/2 15/6/2
f 13/5/2 16/6/2 14/5/2
f 18/4/9 11/3/3 17/3/3
f 11/3/3 18/4/9 12/4/9
f 10/4/10 15/6/11 19/4/10
f 15/6/11 10/4/10 16/6/11
f 13/5/12 20/6/12 15/6/12
f 20/6/12 13/5/12 21/5/12
f 19/4/13 17/3/12 22/3/12
f 17/3/12 19/4/13 18/4/13
f 8/1/14 14/5/15 23/5/15
f 14/5/16 8/1/17 3/1/17
f 15/6/18 18/4/19 19/4/19
f 18/4/19 15/6/18 20/6/18
f 8/1/20 21/5/21 6/1/20
f 21/5/21 8/1/20 23/5/21
f 20/6/22 12/4/23 18/4/23
f 12/4/23 20/6/22 24/6/22
f 23/5/5 16/6/5 24/6/5
f 16/6/5 23/5/5 14/5/5
f 23/5/3 20/6/3 21/5/3
f 20/6/3 23/5/3 24/6/3
f 1/1/24 21/5/25 13/5/25
f 21/5/25 1/1/24 6/1/24
f 7/2/5 3/1/26 8/1/26
f 3/1/26 7/2/5 4/2/5
f 2/2/12 6/1/27 1/1/27
f 6/1/27 2/2/12 5/2/12
f 24/6/28 10/4/29 12/4/29
f 10/4/30 24/6/31 16/6/31
f 2/2/32 7/2/32 5/2/32
f 7/2/32 2/2/32 4/2/32
f 9/3/33 17/3/33 11/3/33
f 17/3/33 9/3/33 22/3/33
f 9/3/2 19/4/34 22/3/2
f 19/4/34 9/3/2 10/4/34
f 27/5/35 26/2/36 25/5/35
f 26/2/37 28/5/38 25/5/38
f 29/5/39 28/5/39 26/2/40
f 26/2/41 27/5/42 29/5/42
f 30/7/43 27/5/44 25/5/44
f 27/5/44 30/7/43 31/7/43
f 29/5/45 32/7/46 28/5/45
f 32/7/46 29/5/45 33/7/46
f 25/5/47 32/7/48 30/7/48
f 32/7/48 25/5/47 28/5/47
f 29/5/49 31/7/50 33/7/50
f 31/7/50 29/5/49 27/5/49
f 36/5/35 35/2/36 34/5/35
f 35/2/37 37/5/38 34/5/38
f 38/5/39 37/5/39 35/2/40
f 35/2/41 36/5/42 38/5/42
f 39/7/43 36/5/44 34/5/44
f 36/5/44 39/7/43 40/7/43
f 38/5/45 41/7/46 37/5/45
f 41/7/46 38/5/45 42/7/46
f 34/5/47 41/7/48 39/7/48
f 41/7/48 34/5/47 37/5/47
f 38/5/49 40/7/50 42/7/50
f 40/7/50 38/5/49 36/5/49
f 45/5/35 44/2/36 43/5/35
f 44/2/37 46/5/38 43/5/38
f 47/5/39 46/5/39 44/2/40
f 44/2/41 45/5/42 47/5/42
f 48/7/43 45/5/44 43/5/44
f 45/5/44 48/7/43 49/7/43
f 47/5/45 50/7/46 46/5/45
f 50/7/46 47/5/45 51/7/46
f 43/5/47 50/7/48 48/7/48
f 50/7/48 43/5/47 46/5/47
f 47/5/49 49/7/50 51/7/50
f 49/7/50 47/5/49 45/5/49
f 54/5/35 53/2/36 52/5/35
f 53/2/37 55/5/38 52/5/38
f 56/5/39 55/5/39 53/2/40
f 53/2/41 54/5/42 56/5/42
f 57/7/43 54/5/44 52/5/44
f 54/5/44 57/7/43 58/7/43
f 56/5/45 59/7/46 55/5/45
f 59/7/46 56/5/45 60/7/46
f 52/5/47 59/7/48 57/7/48
f 59/7/48 52/5/47 55/5/47
f 56/5/49 58/7/50 60/7/50
f 58/7/50 56/5/49 54/5/49
f 63/5/35 62/2/36 61/5/35
f 62/2/37 64/5/38 61/5/38
f 65/5/39 64/5/39 62/2/40
f 62/2/41 63/5/42 65/5/42
f 66/7/43 63/5/44 61/5/44
f 63/5/44 66/7/43 67/7/43
f 65/5/45 68/7/46 64/5/45
f 68/7/46 65/5/45 69/7/46
f 61/5/47 68/7/48 66/7/48
f 68/7/48 61/5/47 64/5/47
f 65/5/49 67/7/50 69/7/50
f 67/7/50 65/5/49 63/5/49
f 72/5/35 71/2/36 70/5/35
f 71/2/37 73/5/38 70/5/38
f 74/5/39 73/5/39 71/2/40
f 71/2/41 72/5/42 74/5/42
f 75/7/43 72/5/44 70/5/44
f 72/5/44 75/7/43 76/7/43
f 74/5/45 77/7/46 73/5/45
f 77/7/46 74/5/45 78/7/46
f 70/5/47 77/7/48 75/7/48
f 77/7/48 70/5/38 73/5/38
f 74/5/49 76/7/50 78/7/50
f 76/7/50 74/5/49 72/5/49
f 81/5/35 80/2/36 79/5/35
f 80/2/37 82/5/38 79/5/38
f 83/5/39 82/5/39 80/2/40
f 80/2/41 81/5/42 83/5/42
f 84/7/43 81/5/44 79/5/44
f 81/5/44 84/7/43 85/7/43
f 83/5/45 86/7/46 82/5/45
f 86/7/46 83/5/45 87/7/46
f 79/5/47 86/7/48 84/7/48
f 86/7/48 79/5/47 82/5/47
f 83/5/49 85/7/50 87/7/50
f 85/7/50 83/5/49 81/5/49
f 90/2/32 89/2/32 88/2/32
f 89/2/32 90/2/32 91/2/32
f 89/2/51 93/8/52 92/8/52
f 93/8/53 89/2/54 91/2/54
f 96/8/55 95/3/12 94/3/12
f 95/3/12 96/8/55 97/8/55
f 99/3/33 95/3/33 98/3/33
f 95/3/33 99/3/33 94/3/33
f 88/2/56 95/3/56 97/8/56
f 95/3/3 88/2/3 98/3/3
f 98/3/3 88/2/3 89/2/3
f 98/3/3 89/2/3 92/8/3
f 92/8/53 99/3/5 98/3/5
f 99/3/5 92/8/53 93/8/53
f 90/2/57 97/8/58 96/8/58
f 97/8/58 90/2/57 88/2/57
f 99/3/2 96/8/2 94/3/2
f 96/8/2 99/3/2 90/2/2
f 90/2/2 99/3/2 91/2/2
f 91/2/59 99/3/59 93/8/59
f 33/9/5 101/10/5 100/10/5
f 101/10/5 33/9/5 31/9/5
f 101/10/33 102/10/33 100/10/33
f 102/10/33 101/10/33 103/10/33
f 30/9/12 102/10/12 103/10/12
f 102/10/12 30/9/12 32/9/12
f 101/10/2 30/9/2 103/10/2
f 30/9/2 101/10/2 31/9/2
f 33/9/3 102/10/3 32/9/3
f 102/10/3 33/9/3 100/10/3
f 42/9/5 105/10/5 104/10/5
f 105/10/5 42/9/5 40/9/5
f 105/10/33 106/10/33 104/10/33
f 106/10/33 105/10/33 107/10/33
f 39/9/12 106/10/12 107/10/12
f 106/10/12 39/9/12 41/9/12
f 105/10/2 39/9/2 107/10/2
f 39/9/2 105/10/2 40/9/2
f 42/9/3 106/10/3 41/9/3
f 106/10/3 42/9/3 104/10/3
f 51/9/5 109/10/5 108/10/5
f 109/10/5 51/9/5 49/9/5
f 109/10/33 110/10/33 108/10/33
f 110/10/33 109/10/33 111/10/33
f 48/9/12 110/10/12 111/10/12
f 110/10/12 48/9/12 50/9/12
f 109/10/2 48/9/2 111/10/2
f 48/9/2 109/10/2 49/9/2
f 51/9/3 110/10/3 50/9/3
f 110/10/3 51/9/3 108/10/3
f 60/9/5 113/10/5 112/10/5
f 113/10/5 60/9/5 58/9/5
f 113/10/33 114/10/33 112/10/33
f 114/10/33 113/10/33 115/10/33
f 57/9/12 114/10/12 115/10/12
f 114/10/12 57/9/12 59/9/12
f 113/10/2 57/9/2 115/10/2
f 57/9/2 113/10/2 58/9/2
f 60/9/3 114/10/3 59/9/3
f 114/10/3 60/9/3 112/10/3
f 69/9/5 117/10/5 116/10/5
f 117/10/5 69/9/5 67/9/5
f 117/10/33 118/10/33 116/10/33
f 118/10/33 117/10/33 119/10/33
f 66/9/12 118/10/12 119/10/12
f 118/10/12 66/9/12 68/9/12
f 117/10/2 66/9/2 119/10/2
f 66/9/2 117/10/2 67/9/2
f 69/9/3 118/10/3 68/9/3
f 118/10/3 69/9/3 116/10/3
f 78/9/5 121/10/5 120/10/5
f 121/10/5 78/9/5 76/9/5
f 121/10/33 122/10/33 120/10/33
f 122/10/33 121/10/33 123/10/33
f 75/9/12 122/10/12 123/10/12
f 122/10/12 75/9/12 77/9/12
f 121/10/2 75/9/2 123/10/2
f 75/9/2 121/10/2 76/9/2
f 78/9/3 122/10/3 77/9/3
f 122/10/3 78/9/3 120/10/3
f 87/9/5 125/10/5 124/10/5
f 125/10/5 87/9/5 85/9/5
f 125/10/33 126/10/33 124/10/33
f 126/10/33 125/10/33 127/10/33
f 84/9/12 126/10/12 127/10/12
f 126/10/12 84/9/12 86/9/12
f 125/10/2 84/9/2 127/10/2
f 84/9/2 125/10/2 85/9/2
f 87/9/3 126/10/3 86/9/3
f 126/10/3 87/9/3 124/10/3
f 130/11/3 129/11/3 128/11/3
f 129/11/3 130/11/3 131/11/3
f 134/11/2 133/11/2 132/11/2
f 133/11/2 134/11/2 135/11/2
f 130/11/5 134/11/5 131/11/5
f 134/11/5 130/11/5 135/11/5
f 134/11/33 129/11/33 131/11/33
f 129/11/33 134/11/33 132/11/33
f 133/11/32 130/11/32 128/11/32
f 130/11/32 133/11/32 135/11/32
f 133/11/12 129/11/12 132/11/12
f 129/11/12 133/11/12 128/11/12
f 138/11/2 137/11/2 136/11/2
f 137/11/2 138/11/2 139/11/2
f 142/11/3 141/11/3 140/11/3
f 141/11/3 142/11/3 143/11/3
f 137/11/32 142/11/32 140/11/32
f 142/11/32 137/11/32 139/11/32
f 137/11/12 141/11/12 136/11/12
f 141/11/12 137/11/12 140/11/12
f 138/11/33 141/11/33 143/11/33
f 141/11/33 138/11/33 136/11/33
f 142/11/5 138/11/5 143/11/5
f 138/11/5 142/11/5 139/11/5
f 3/1/1 2/2/2 1/1/1
f 2/2/2 3/1/1 4/2/2
f 7/2/3 6/1/4 5/2/3
f 6/1/4 7/2/3 8/1/4
f 11/3/5 10/4/6 9/3/5
f 10/4/6 11/3/5 12/4/6
f 13/5/7 3/1/8 1/1/8
f 3/1/8 13/5/7 14/5/7
f 16/6/2 13/5/2 15/6/2
f 13/5/2 16/6/2 14/5/2
f 18/4/9 11/3/3 17/3/3
f 11/3/3 18/4/9 12/4/9
f 10/4/10 15/6/11 19/4/10
f 15/6/11 10/4/10 16/6/11
f 13/5/12 20/6/12 15/6/12
f 20/6/12 13/5/12 21/5/12
f 19/4/13 17/3/12 22/3/12
f 17/3/12 19/4/13 18/4/13
f 8/1/14 14/5/15 23/5/15
f 14/5/16 8/1/17 3/1/17
f 15/6/18 18/4/19 19/4/19
f 18/4/19 15/6/18 20/6/18
f 8/1/20 21/5/21 6/1/20
f 21/5/21 8/1/20 23/5/21
f 20/6/22 12/4/23 18/4/23
f 12/4/23 20/6/22 24/6/22
f 23/5/5 16/6/5 24/6/5
f 16/6/5 23/5/5 14/5/5
f 23/5/3 20/6/3 21/5/3
f 20/6/3 23/5/3 24/6/3
f 1/1/24 21/5/25 13/5/25
f 21/5/25 1/1/24 6/1/24
f 7/2/5 3/1/26 8/1/26
f 3/1/26 7/2/5 4/2/5
f 2/2/12 6/1/27 1/1/27
f 6/1/27 2/2/12 5/2/12
f 24/6/28 10/4/29 12/4/29
f 10/4/30 24/6/31 16/6/31
f 2/2/32 7/2/32 5/2/32
f 7/2/32 2/2/32 4/2/32
f 9/3/33 17/3/33 11/3/33
f 17/3/33 9/3/33 22/3/33
f 9/3/2 19/4/34 22/3/2
f 19/4/34 9/3/2 10/4/34
f 27/5/35 26/2/36 25/5/35
f 26/2/37 28/5/38 25/5/38
f 29/5/39 28/5/39 26/2/40
f 26/2/41 27/5/42 29/5/42
f 30/7/43 27/5/44 25/5/44
f 27/5/44 30/7/43 31/7/43
f 29/5/45 32/7/46 28/5/45
f 32/7/46 29/5/45 33/7/46
f 25/5/47 32/7/48 30/7/48
f 32/7/48 25/5/47 28/5/47
f 29/5/49 31/7/50 33/7/50
f 31/7/50 29/5/49 27/5/49
f 36/5/35 35/2/36 34/5/35
f 35/2/37 37/5/38 34/5/38
f 38/5/39 37/5/39 35/2/40
f 35/2/41 36/5/42 38/5/42
f 39/7/43 36/5/44 34/5/44
f 36/5/44 39/7/43 40/7/43
f 38/5/45 41/7/46 37/5/45
f 41/7/46 38/5/45 42/7/46
f 34/5/47 41/7/48 39/7/48
f 41/7/48 34/5/47 37/5/47
f 38/5/49 40/7/50 42/7/50
f 40/7/50 38/5/49 36/5/49
f 45/5/35 44/2/36 43/5/35
f 44/2/37 46/5/38 43/5/38
f 47/5/39 46/5/39 44/2/40
f 44/2/41 45/5/42 47/5/42
f 48/7/43 45/5/44 43/5/44
f 45/5/44 48/7/43 49/7/43
f 47/5/45 50/7/46 46/5/45
f 50/7/46 47/5/45 51/7/46
f 43/5/47 50/7/48 48/7/48
f 50/7/48 43/5/47 46/5/47
f 47/5/49 49/7/50 51/7/50
f 49/7/50 47/5/49 45/5/49
f 54/5/35 53/2/36 52/5/35
f 53/2/37 55/5/38 52/5/38
f 56/5/39 55/5/39 53/2/40
f 53/2/41 54/5/42 56/5/42
f 57/7/43 54/5/44 52/5/44
f 54/5/44 57/7/43 58/7/43
f 56/5/45 59/7/46 55/5/45
f 59/7/46 56/5/45 60/7/46
f 52/5/47 59/7/48 57/7/48
f 59/7/48 52/5/47 55/5/47
f 56/5/49 58/7/50 60/7/50
f 58/7/50 56/5/49 54/5/49
f 63/5/35 62/2/36 61/5/35
f 62/2/37 64/5/38 61/5/38
f 65/5/39 64/5/39 62/2/40
f 62/2/41 63/5/42 65/5/42
f 66/7/43 63/5/44 61/5/44
f 63/5/44 66/7/43 67/7/43
f 65/5/45 68/7/46 64/5/45
f 68/7/46 65/5/45 69/7/46
f 61/5/47 68/7/48 66/7/48
f 68/7/48 61/5/47 64/5/47
f 65/5/49 67/7/50 69/7/50
f 67/7/50 65/5/49 63/5/49
f 72/5/35 71/2/36 70/5/35
f 71/2/37 73/5/38 70/5/38
f 74/5/39 73/5/39 71/2/40
f 71/2/41 72/5/42 74/5/42
f 75/7/43 72/5/44 70/5/44
f 72/5/44 75/7/43 76/7/43
f 74/5/45 77/7/46 73/5/45
f 77/7/46 74/5/45 78/7/46
f 70/5/47 77/7/48 75/7/48
f 77/7/48 70/5/38 73/5/38
f 74/5/49 76/7/50 78/7/50
f 76/7/50 74/5/49 72/5/49
f 81/5/35 80/2/36 79/5/35
f 80/2/37 82/5/38 79/5/38
f 83/5/39 82/5/39 80/2/40
f 80/2/41 81/5/42 83/5/42
f 84/7/43 81/5/44 79/5/44
f 81/5/44 84/7/43 85/7/43
f 83/5/45 86/7/46 82/5/45
f 86/7/46 83/5/45 87/7/46
f 79/5/47 86/7/48 84/7/48
f 86/7/48 79/5/47 82/5/47
f 83/5/49 85/7/50 87/7/50
f 85/7/50 83/5/49 81/5/49
f 90/2/32 89/2/32 88/2/32
f 89/2/32 90/2/32 91/2/32
f 89/2/51 93/8/52 92/8/52
f 93/8/53 89/2/54 91/2/54
f 96/8/55 95/3/12 94/3/12
f 95/3/12 96/8/55 97/8/55
f 99/3/33 95/3/33 98/3/33
f 95/3/33 99/3/33 94/3/33
f 88/2/56 95/3/56 97/8/56
f 95/3/3 88/2/3 98/3/3
f 98/3/3 88/2/3 89/2/3
f 98/3/3 89/2/3 92/8/3
f 92/8/53 99/3/5 98/3/5
f 99/3/5 92/8/53 93/8/53
f 90/2/57 97/8/58 96/8/58
f 97/8/58 90/2/57 88/2/57
f 99/3/2 96/8/2 94/3/2
f 96/8/2 99/3/2 90/2/2
f 90/2/2 99/3/2 91/2/2
f 91/2/59 99/3/59 93/8/59
f 33/9/5 101/10/5 100/10/5
f 101/10/5 33/9/5 31/9/5
f 101/10/33 102/10/33 100/10/33
f 102/10/33 101/10/33 103/10/33
f 30/9/12 102/10/12 103/10/12
f 102/10/12 30/9/12 32/9/12
f 101/10/2 30/9/2 103/10/2
f 30/9/2 101/10/2 31/9/2
f 33/9/3 102/10/3 32/9/3
f 102/10/3 33/9/3 100/10/3
f 42/9/5 105/10/5 104/10/5
f 105/10/5 42/9/5 40/9/5
f 105/10/33 106/10/33 104/10/33
f 106/10/33 105/10/33 107/10/33
f 39/9/12 106/10/12 107/10/12
f 106/10/12 39/9/12 41/9/12
f 105/10/2 39/9/2 107/10/2
f 39/9/2 105/10/2 40/9/2
f 42/9/3 106/10/3 41/9/3
f 106/10/3 42/9/3 104/10/3
f 51/9/5 109/10/5 108/10/5
f 109/10/5 51/9/5 49/9/5
f 109/10/33 110/10/33 108/10/33
f 110/10/33 109/10/33 111/10/33
f 48/9/12 110/10/12 111/10/12
f 110/10/12 48/9/12 50/9/12
f 109/10/2 48/9/2 111/10/2
f 48/9/2 109/10/2 49/9/2
f 51/9/3 110/10/3 50/9/3
f 110/10/3 51/9/3 108/10/3
f 60/9/5 113/10/5 112/10/5
f 113/10/5 60/9/5 58/9/5
f 113/10/33 114/10/33 112/10/33
f 114/10/33 113/10/33 115/10/33
f 57/9/12 114/10/12 115/10/12
f 114/10/12 57/9/12 59/9/12
f 113/10/2 57/9/2 115/10/2
f 57/9/2 113/10/2 58/9/2
f 60/9/3 114/10/3 59/9/3
f 114/10/3 60/9/3 112/10/3
f 69/9/5 117/10/5 116/10/5
f 117/10/5 69/9/5 67/9/5
f 117/10/33 118/10/33 116/10/33
f 118/10/33 117/10/33 119/10/33
f 66/9/12 118/10/12 119/10/12
f 118/10/12 66/9/12 68/9/12
f 117/10/2 66/9/2 119/10/2
f 66/9/2 117/10/2 67/9/2
f 69/9/3 118/10/3 68/9/3
f 118/10/3 69/9/3 116/10/3
f 78/9/5 121/10/5 120/10/5
f 121/10/5 78/9/5 76/9/5
f 121/10/33 122/10/33 120/10/33
f 122/10/33 121/10/33 123/10/33
f 75/9/12 122/10/12 123/10/12
f 122/10/12 75/9/12 77/9/12
f 121/10/2 75/9/2 123/10/2
f 75/9/2 121/10/2 76/9/2
f 78/9/3 122/10/3 77/9/3
f 122/10/3 78/9/3 120/10/3
f 87/9/5 125/10/5 124/10/5
f 125/10/5 87/9/5 85/9/5
f 125/10/33 126/10/33 124/10/33
f 126/10/33 125/10/33 127/10/33
f 84/9/12 126/10/12 127/10/12
f 126/10/12 84/9/12 86/9/12
f 125/10/2 84/9/2 127/10/2
f 84/9/2 125/10/2 85/9/2
f 87/9/3 126/10/3 86/9/3
f 126/10/3 87/9/3 124/10/3
f 130/11/3 129/11/3 128/11/3
f 129/11/3 130/11/3 131/11/3
f 134/11/2 133/11/2 132/11/2
f 133/11/2 134/11/2 135/11/2
f 130/11/5 134/11/5 131/11/5
f 134/11/5 130/11/5 135/11/5
f 134/11/33 129/11/33 131/11/33
f 129/11/33 134/11/33 132/11/33
f 133/11/32 130/11/32 128/11/32
f 130/11/32 133/11/32 135/11/32
f 133/11/12 129/11/12 132/11/12
f 129/11/12 133/11/12 128/11/12
f 138/11/2 137/11/2 136/11/2
f 137/11/2 138/11/2 139/11/2
f 142/11/3 141/11/3 140/11/3
f 141/11/3 142/11/3 143/11/3
f 137/11/32 142/11/32 140/11/32
f 142/11/32 137/11/32 139/11/32
f 137/11/12 141/11/12 136/11/12
f 141/11/12 137/11/12 140/11/12
f 138/11/33 141/11/33 143/11/33
f 141/11/33 138/11/33 136/11/33
f 142/11/5 138/11/5 143/11/5
f 138/11/5 142/11/5 139/11/5
