# Blender 4.1.1
# www.blender.org
mtllib iron-fence-border-column.010.mtl
o iron-fence-border-column.008
v 8.098462 -2.964949 -7.718971
v 8.098462 -2.869370 -7.718971
v 8.098462 -2.964949 -7.910129
v 8.098462 -2.869370 -7.910129
v 7.907304 -2.869370 -7.718971
v 7.907304 -2.964949 -7.718971
v 7.907303 -2.869370 -7.910129
v 7.907303 -2.964949 -7.910129
v 8.098462 -4.444326 -7.910129
v 8.098462 -4.234052 -7.910129
v 7.907303 -4.444326 -7.910129
v 7.907303 -4.234052 -7.910129
v 8.081258 -3.003181 -7.736175
v 8.081257 -3.003181 -7.892925
v 8.081258 -4.195820 -7.736175
v 8.081257 -4.195820 -7.892925
v 7.907304 -4.444326 -7.718971
v 7.907304 -4.234052 -7.718971
v 8.098462 -4.234052 -7.718971
v 7.924508 -4.195820 -7.736175
v 7.924508 -3.003181 -7.736175
v 8.098462 -4.444326 -7.718971
v 7.924508 -3.003181 -7.892925
v 7.924508 -4.195820 -7.892925
v 8.308736 -3.003181 -7.771539
v 8.265725 -2.869370 -7.814550
v 8.308736 -3.003181 -7.857561
v 8.222715 -3.003181 -7.771539
v 8.222715 -3.003181 -7.857561
v 8.294399 -3.079644 -7.785876
v 8.294399 -3.079644 -7.843224
v 8.237052 -3.079644 -7.785876
v 8.237052 -3.079644 -7.843224
v 8.786633 -3.003181 -7.771540
v 8.743623 -2.869370 -7.814550
v 8.786633 -3.003181 -7.857561
v 8.700611 -3.003181 -7.771540
v 8.700611 -3.003181 -7.857561
v 8.772296 -3.079644 -7.785876
v 8.772296 -3.079644 -7.843224
v 8.714949 -3.079644 -7.785876
v 8.714949 -3.079644 -7.843224
v 9.742427 -3.003181 -7.771540
v 9.699415 -2.869370 -7.814550
v 9.742427 -3.003181 -7.857561
v 9.656405 -3.003181 -7.771540
v 9.656405 -3.003181 -7.857561
v 9.728089 -3.079644 -7.785876
v 9.728089 -3.079644 -7.843224
v 9.670742 -3.079644 -7.785876
v 9.670742 -3.079644 -7.843224
v 8.547685 -3.003181 -7.771539
v 8.504674 -2.869370 -7.814550
v 8.547685 -3.003181 -7.857561
v 8.461663 -3.003181 -7.771539
v 8.461663 -3.003181 -7.857561
v 8.533348 -3.079644 -7.785876
v 8.533348 -3.079644 -7.843224
v 8.476000 -3.079644 -7.785876
v 8.476000 -3.079644 -7.843224
v 9.264529 -3.003181 -7.771540
v 9.221519 -2.869370 -7.814550
v 9.264529 -3.003181 -7.857561
v 9.178509 -3.003181 -7.771540
v 9.178509 -3.003181 -7.857561
v 9.250193 -3.079644 -7.785876
v 9.250193 -3.079644 -7.843224
v 9.192845 -3.079644 -7.785876
v 9.192845 -3.079644 -7.843224
v 9.025581 -3.003181 -7.771540
v 8.982571 -2.869370 -7.814550
v 9.025581 -3.003181 -7.857561
v 8.939560 -3.003181 -7.771540
v 8.939560 -3.003181 -7.857561
v 9.011245 -3.079644 -7.785876
v 9.011245 -3.079644 -7.843224
v 8.953897 -3.079644 -7.785876
v 8.953897 -3.079644 -7.843224
v 9.503478 -3.003181 -7.771540
v 9.460467 -2.869370 -7.814550
v 9.503478 -3.003181 -7.857561
v 9.417457 -3.003181 -7.771540
v 9.417457 -3.003181 -7.857561
v 9.489141 -3.079644 -7.785876
v 9.489141 -3.079644 -7.843224
v 9.431794 -3.079644 -7.785876
v 9.431794 -3.079644 -7.843224
v 8.098462 -4.272284 -7.732352
v 8.098462 -4.272284 -7.896748
v 9.818890 -4.272284 -7.732352
v 9.818890 -4.272284 -7.896749
v 8.098462 -4.310515 -7.910129
v 9.818890 -4.310515 -7.910130
v 9.818890 -4.444326 -7.718972
v 8.098462 -4.444326 -7.718971
v 9.818890 -4.310515 -7.718971
v 8.098462 -4.310515 -7.718971
v 8.098462 -4.444326 -7.910129
v 9.818890 -4.444326 -7.910130
v 8.237052 -4.272284 -7.843224
v 8.294399 -4.272284 -7.843224
v 8.237052 -4.272284 -7.785876
v 8.294399 -4.272284 -7.785876
v 8.714949 -4.272284 -7.843224
v 8.772296 -4.272284 -7.843224
v 8.714949 -4.272284 -7.785876
v 8.772296 -4.272284 -7.785876
v 9.670742 -4.272284 -7.843224
v 9.728089 -4.272284 -7.843224
v 9.670742 -4.272284 -7.785877
v 9.728089 -4.272284 -7.785877
v 8.476000 -4.272284 -7.843224
v 8.533348 -4.272284 -7.843224
v 8.476000 -4.272284 -7.785876
v 8.533348 -4.272284 -7.785876
v 9.192845 -4.272284 -7.843224
v 9.250193 -4.272284 -7.843224
v 9.192845 -4.272284 -7.785876
v 9.250193 -4.272284 -7.785876
v 8.953897 -4.272284 -7.843224
v 9.011245 -4.272284 -7.843224
v 8.953897 -4.272284 -7.785876
v 9.011245 -4.272284 -7.785876
v 9.431794 -4.272284 -7.843224
v 9.489141 -4.272284 -7.843224
v 9.431794 -4.272284 -7.785877
v 9.489141 -4.272284 -7.785877
v 8.081257 -3.251687 -7.800213
v 8.081257 -3.309035 -7.800213
v 8.081257 -3.251687 -7.828887
v 8.081257 -3.309035 -7.828887
v 9.818890 -3.309035 -7.800213
v 9.818890 -3.251687 -7.800213
v 9.818890 -3.309035 -7.828887
v 9.818890 -3.251687 -7.828887
v 9.818890 -4.042893 -7.800213
v 9.818890 -3.985545 -7.800213
v 9.818890 -4.042893 -7.828887
v 9.818890 -3.985545 -7.828887
v 8.081257 -3.985545 -7.800213
v 8.081257 -4.042893 -7.800213
v 8.081257 -3.985545 -7.828887
v 8.081257 -4.042893 -7.828887
vn 0.9837 -0.1800 -0.0000
vn 1.0000 -0.0000 -0.0000
vn -1.0000 -0.0000 -0.0000
vn -0.9837 -0.1800 -0.0000
vn -0.0000 -0.0000 -1.0000
vn -0.0000 0.1800 -0.9837
vn 0.9119 -0.4104 -0.0000
vn 0.9836 -0.1801 -0.0000
vn -0.9837 0.1800 -0.0000
vn 0.9836 0.1801 -0.0000
vn 0.9119 0.4104 -0.0000
vn -0.0000 -0.0000 1.0000
vn -0.0000 0.1800 0.9837
vn -0.0000 -0.1801 -0.9836
vn -0.0000 -0.4104 -0.9119
vn -0.0000 -0.4103 -0.9119
vn -0.0000 -0.1801 -0.9837
vn -0.0000 0.4104 0.9119
vn -0.0000 0.1801 0.9836
vn -0.0000 0.1801 0.9837
vn -0.0000 0.4103 0.9119
vn -0.9836 -0.1801 -0.0000
vn -0.9119 -0.4104 -0.0000
vn -0.9119 0.4104 -0.0000
vn -0.9836 0.1801 -0.0000
vn -0.0000 -0.1801 0.9837
vn -0.0000 -0.4103 0.9119
vn -0.0000 -0.4104 0.9119
vn -0.0000 -0.1801 0.9836
vn -0.0000 -0.1800 -0.9837
vn -0.0000 -0.1800 0.9837
vn -0.0000 0.4104 -0.9119
vn -0.0000 0.1801 -0.9836
vn -0.0000 0.1801 -0.9837
vn -0.0000 0.4103 -0.9119
vn -0.0000 1.0000 -0.0000
vn -0.0000 -1.0000 -0.0000
vn 0.9837 0.1800 -0.0000
vn 0.9987 0.0519 -0.0000
vn 0.9520 0.3060 -0.0000
vn -0.0000 0.3060 0.9520
vn -0.0000 0.0519 0.9987
vn -0.9987 0.0519 -0.0000
vn -0.9520 0.3060 -0.0000
vn -0.0000 0.3060 -0.9520
vn -0.0000 0.0519 -0.9987
vn 0.9829 -0.1843 -0.0000
vn 0.9987 0.0518 -0.0000
vn -0.9987 0.0518 -0.0000
vn -0.9829 -0.1843 -0.0000
vn -0.0000 0.0518 0.9987
vn -0.0000 -0.1843 0.9829
vn -0.0000 0.0518 -0.9987
vn -0.0000 -0.1843 -0.9829
vn -0.0000 0.3304 -0.9439
vn -0.0000 0.1676 -0.9859
vn -0.0000 0.1675 0.9859
vn -1.0000 -0.0000 0.0001
vn -1.0000 -0.0000 -0.0001
vn -0.0000 0.1675 -0.9859
vn -0.0000 0.3303 0.9439
vn -0.0000 0.1676 0.9859
vn -0.0000 0.3304 0.9438
vt 0.843750 0.212863
vt 0.843750 0.225000
vt 0.843750 0.025000
vt 0.843750 0.051702
vt 0.843750 0.208008
vt 0.843750 0.056557
vt 0.843750 0.198298
vt 0.843750 0.180556
vt 0.593750 0.448298
vt 0.593750 0.296847
vt 0.531250 0.375000
s 0
usemtl colormap
f 3/1/1 2/2/2 1/1/1
f 2/2/2 3/1/1 4/2/2
f 7/2/3 6/1/4 5/2/3
f 6/1/4 7/2/3 8/1/4
f 11/3/5 10/4/6 9/3/5
f 10/4/6 11/3/5 12/4/6
f 13/5/7 3/1/8 1/1/8
f 3/1/8 13/5/7 14/5/7
f 16/6/2 13/5/2 15/6/2
f 13/5/2 16/6/2 14/5/2
f 18/4/9 11/3/3 17/3/3
f 11/3/3 18/4/9 12/4/9
f 10/4/10 15/6/11 19/4/10
f 15/6/11 10/4/10 16/6/11
f 13/5/12 20/6/12 15/6/12
f 20/6/12 13/5/12 21/5/12
f 19/4/13 17/3/12 22/3/12
f 17/3/12 19/4/13 18/4/13
f 8/1/14 14/5/15 23/5/15
f 14/5/16 8/1/17 3/1/17
f 15/6/18 18/4/19 19/4/19
f 18/4/20 15/6/21 20/6/21
f 8/1/22 21/5/23 6/1/22
f 21/5/23 8/1/22 23/5/23
f 20/6/24 12/4/25 18/4/25
f 12/4/25 20/6/24 24/6/24
f 23/5/5 16/6/5 24/6/5
f 16/6/5 23/5/5 14/5/5
f 23/5/3 20/6/3 21/5/3
f 20/6/3 23/5/3 24/6/3
f 1/1/26 21/5/27 13/5/27
f 21/5/28 1/1/29 6/1/29
f 7/2/5 3/1/30 8/1/30
f 3/1/30 7/2/5 4/2/5
f 2/2/12 6/1/31 1/1/31
f 6/1/31 2/2/12 5/2/12
f 24/6/32 10/4/33 12/4/33
f 10/4/34 24/6/35 16/6/35
f 2/2/36 7/2/36 5/2/36
f 7/2/36 2/2/36 4/2/36
f 9/3/37 17/3/37 11/3/37
f 17/3/37 9/3/37 22/3/37
f 9/3/2 19/4/38 22/3/2
f 19/4/38 9/3/2 10/4/38
f 27/5/39 26/2/40 25/5/39
f 26/2/41 28/5/42 25/5/42
f 29/5/43 28/5/43 26/2/44
f 26/2/45 27/5/46 29/5/46
f 30/7/47 27/5/48 25/5/48
f 27/5/48 30/7/47 31/7/47
f 29/5/49 32/7/50 28/5/49
f 32/7/50 29/5/49 33/7/50
f 25/5/51 32/7/52 30/7/52
f 32/7/52 25/5/51 28/5/51
f 29/5/53 31/7/54 33/7/54
f 31/7/54 29/5/53 27/5/53
f 36/5/39 35/2/40 34/5/39
f 35/2/41 37/5/42 34/5/42
f 38/5/43 37/5/43 35/2/44
f 35/2/45 36/5/46 38/5/46
f 39/7/47 36/5/48 34/5/48
f 36/5/48 39/7/47 40/7/47
f 38/5/49 41/7/50 37/5/49
f 41/7/50 38/5/49 42/7/50
f 34/5/51 41/7/52 39/7/52
f 41/7/52 34/5/51 37/5/51
f 38/5/53 40/7/54 42/7/54
f 40/7/54 38/5/53 36/5/53
f 45/5/39 44/2/40 43/5/39
f 44/2/41 46/5/42 43/5/42
f 47/5/43 46/5/43 44/2/44
f 44/2/45 45/5/46 47/5/46
f 48/7/47 45/5/48 43/5/48
f 45/5/48 48/7/47 49/7/47
f 47/5/49 50/7/50 46/5/49
f 50/7/50 47/5/49 51/7/50
f 43/5/51 50/7/52 48/7/52
f 50/7/52 43/5/51 46/5/51
f 47/5/53 49/7/54 51/7/54
f 49/7/54 47/5/53 45/5/53
f 54/5/39 53/2/40 52/5/39
f 53/2/41 55/5/42 52/5/42
f 56/5/43 55/5/43 53/2/44
f 53/2/45 54/5/46 56/5/46
f 57/7/47 54/5/48 52/5/48
f 54/5/48 57/7/47 58/7/47
f 56/5/49 59/7/50 55/5/49
f 59/7/50 56/5/49 60/7/50
f 52/5/51 59/7/52 57/7/52
f 59/7/52 52/5/51 55/5/51
f 56/5/53 58/7/54 60/7/54
f 58/7/54 56/5/53 54/5/53
f 63/5/39 62/2/40 61/5/39
f 62/2/41 64/5/42 61/5/42
f 65/5/43 64/5/43 62/2/44
f 62/2/45 63/5/46 65/5/46
f 66/7/47 63/5/48 61/5/48
f 63/5/48 66/7/47 67/7/47
f 65/5/49 68/7/50 64/5/49
f 68/7/50 65/5/49 69/7/50
f 61/5/51 68/7/52 66/7/52
f 68/7/52 61/5/51 64/5/51
f 65/5/53 67/7/54 69/7/54
f 67/7/54 65/5/53 63/5/53
f 72/5/39 71/2/40 70/5/39
f 71/2/41 73/5/42 70/5/42
f 74/5/43 73/5/43 71/2/44
f 71/2/45 72/5/46 74/5/46
f 75/7/47 72/5/48 70/5/48
f 72/5/48 75/7/47 76/7/47
f 74/5/49 77/7/50 73/5/49
f 77/7/50 74/5/49 78/7/50
f 70/5/51 77/7/52 75/7/52
f 77/7/52 70/5/51 73/5/51
f 74/5/53 76/7/54 78/7/54
f 76/7/54 74/5/53 72/5/53
f 81/5/39 80/2/40 79/5/39
f 80/2/41 82/5/42 79/5/42
f 83/5/43 82/5/43 80/2/44
f 80/2/45 81/5/46 83/5/46
f 84/7/47 81/5/48 79/5/48
f 81/5/48 84/7/47 85/7/47
f 83/5/49 86/7/50 82/5/49
f 86/7/50 83/5/49 87/7/50
f 79/5/51 86/7/52 84/7/52
f 86/7/52 79/5/51 82/5/51
f 83/5/53 85/7/54 87/7/54
f 85/7/54 83/5/53 81/5/53
f 90/2/36 89/2/36 88/2/36
f 89/2/36 90/2/36 91/2/36
f 89/2/55 93/8/56 92/8/56
f 93/8/56 89/2/55 91/2/55
f 96/8/57 95/3/12 94/3/12
f 95/3/12 96/8/57 97/8/57
f 99/3/37 95/3/37 98/3/37
f 95/3/37 99/3/37 94/3/37
f 88/2/58 95/3/58 97/8/58
f 95/3/3 88/2/3 98/3/3
f 98/3/3 88/2/3 89/2/3
f 98/3/59 89/2/59 92/8/59
f 92/8/60 99/3/5 98/3/5
f 99/3/5 92/8/60 93/8/60
f 90/2/61 97/8/62 96/8/62
f 97/8/62 90/2/63 88/2/63
f 99/3/2 96/8/2 94/3/2
f 96/8/2 99/3/2 90/2/2
f 90/2/2 99/3/2 91/2/2
f 91/2/2 99/3/2 93/8/2
f 33/9/5 101/10/5 100/10/5
f 101/10/5 33/9/5 31/9/5
f 101/10/37 102/10/37 100/10/37
f 102/10/37 101/10/37 103/10/37
f 30/9/12 102/10/12 103/10/12
f 102/10/12 30/9/12 32/9/12
f 101/10/2 30/9/2 103/10/2
f 30/9/2 101/10/2 31/9/2
f 33/9/3 102/10/3 32/9/3
f 102/10/3 33/9/3 100/10/3
f 42/9/5 105/10/5 104/10/5
f 105/10/5 42/9/5 40/9/5
f 105/10/37 106/10/37 104/10/37
f 106/10/37 105/10/37 107/10/37
f 39/9/12 106/10/12 107/10/12
f 106/10/12 39/9/12 41/9/12
f 105/10/2 39/9/2 107/10/2
f 39/9/2 105/10/2 40/9/2
f 42/9/3 106/10/3 41/9/3
f 106/10/3 42/9/3 104/10/3
f 51/9/5 109/10/5 108/10/5
f 109/10/5 51/9/5 49/9/5
f 109/10/37 110/10/37 108/10/37
f 110/10/37 109/10/37 111/10/37
f 48/9/12 110/10/12 111/10/12
f 110/10/12 48/9/12 50/9/12
f 109/10/2 48/9/2 111/10/2
f 48/9/2 109/10/2 49/9/2
f 51/9/3 110/10/3 50/9/3
f 110/10/3 51/9/3 108/10/3
f 60/9/5 113/10/5 112/10/5
f 113/10/5 60/9/5 58/9/5
f 113/10/37 114/10/37 112/10/37
f 114/10/37 113/10/37 115/10/37
f 57/9/12 114/10/12 115/10/12
f 114/10/12 57/9/12 59/9/12
f 113/10/2 57/9/2 115/10/2
f 57/9/2 113/10/2 58/9/2
f 60/9/3 114/10/3 59/9/3
f 114/10/3 60/9/3 112/10/3
f 69/9/5 117/10/5 116/10/5
f 117/10/5 69/9/5 67/9/5
f 117/10/37 118/10/37 116/10/37
f 118/10/37 117/10/37 119/10/37
f 66/9/12 118/10/12 119/10/12
f 118/10/12 66/9/12 68/9/12
f 117/10/2 66/9/2 119/10/2
f 66/9/2 117/10/2 67/9/2
f 69/9/3 118/10/3 68/9/3
f 118/10/3 69/9/3 116/10/3
f 78/9/5 121/10/5 120/10/5
f 121/10/5 78/9/5 76/9/5
f 121/10/37 122/10/37 120/10/37
f 122/10/37 121/10/37 123/10/37
f 75/9/12 122/10/12 123/10/12
f 122/10/12 75/9/12 77/9/12
f 121/10/2 75/9/2 123/10/2
f 75/9/2 121/10/2 76/9/2
f 78/9/3 122/10/3 77/9/3
f 122/10/3 78/9/3 120/10/3
f 87/9/5 125/10/5 124/10/5
f 125/10/5 87/9/5 85/9/5
f 125/10/37 126/10/37 124/10/37
f 126/10/37 125/10/37 127/10/37
f 84/9/12 126/10/12 127/10/12
f 126/10/12 84/9/12 86/9/12
f 125/10/2 84/9/2 127/10/2
f 84/9/2 125/10/2 85/9/2
f 87/9/3 126/10/3 86/9/3
f 126/10/3 87/9/3 124/10/3
f 130/11/3 129/11/3 128/11/3
f 129/11/3 130/11/3 131/11/3
f 134/11/2 133/11/2 132/11/2
f 133/11/2 134/11/2 135/11/2
f 130/11/5 134/11/5 131/11/5
f 134/11/5 130/11/5 135/11/5
f 134/11/37 129/11/37 131/11/37
f 129/11/37 134/11/37 132/11/37
f 133/11/36 130/11/36 128/11/36
f 130/11/36 133/11/36 135/11/36
f 133/11/12 129/11/12 132/11/12
f 129/11/12 133/11/12 128/11/12
f 138/11/2 137/11/2 136/11/2
f 137/11/2 138/11/2 139/11/2
f 142/11/3 141/11/3 140/11/3
f 141/11/3 142/11/3 143/11/3
f 137/11/36 142/11/36 140/11/36
f 142/11/36 137/11/36 139/11/36
f 137/11/12 141/11/12 136/11/12
f 141/11/12 137/11/12 140/11/12
f 138/11/37 141/11/37 143/11/37
f 141/11/37 138/11/37 136/11/37
f 142/11/5 138/11/5 143/11/5
f 138/11/5 142/11/5 139/11/5
f 3/1/1 2/2/2 1/1/1
f 2/2/2 3/1/1 4/2/2
f 7/2/3 6/1/4 5/2/3
f 6/1/4 7/2/3 8/1/4
f 11/3/5 10/4/6 9/3/5
f 10/4/6 11/3/5 12/4/6
f 13/5/7 3/1/8 1/1/8
f 3/1/8 13/5/7 14/5/7
f 16/6/2 13/5/2 15/6/2
f 13/5/2 16/6/2 14/5/2
f 18/4/9 11/3/3 17/3/3
f 11/3/3 18/4/9 12/4/9
f 10/4/10 15/6/11 19/4/10
f 15/6/11 10/4/10 16/6/11
f 13/5/12 20/6/12 15/6/12
f 20/6/12 13/5/12 21/5/12
f 19/4/13 17/3/12 22/3/12
f 17/3/12 19/4/13 18/4/13
f 8/1/14 14/5/15 23/5/15
f 14/5/16 8/1/17 3/1/17
f 15/6/18 18/4/19 19/4/19
f 18/4/20 15/6/21 20/6/21
f 8/1/22 21/5/23 6/1/22
f 21/5/23 8/1/22 23/5/23
f 20/6/24 12/4/25 18/4/25
f 12/4/25 20/6/24 24/6/24
f 23/5/5 16/6/5 24/6/5
f 16/6/5 23/5/5 14/5/5
f 23/5/3 20/6/3 21/5/3
f 20/6/3 23/5/3 24/6/3
f 1/1/26 21/5/27 13/5/27
f 21/5/28 1/1/29 6/1/29
f 7/2/5 3/1/30 8/1/30
f 3/1/30 7/2/5 4/2/5
f 2/2/12 6/1/31 1/1/31
f 6/1/31 2/2/12 5/2/12
f 24/6/32 10/4/33 12/4/33
f 10/4/34 24/6/35 16/6/35
f 2/2/36 7/2/36 5/2/36
f 7/2/36 2/2/36 4/2/36
f 9/3/37 17/3/37 11/3/37
f 17/3/37 9/3/37 22/3/37
f 9/3/2 19/4/38 22/3/2
f 19/4/38 9/3/2 10/4/38
f 27/5/39 26/2/40 25/5/39
f 26/2/41 28/5/42 25/5/42
f 29/5/43 28/5/43 26/2/44
f 26/2/45 27/5/46 29/5/46
f 30/7/47 27/5/48 25/5/48
f 27/5/48 30/7/47 31/7/47
f 29/5/49 32/7/50 28/5/49
f 32/7/50 29/5/49 33/7/50
f 25/5/51 32/7/52 30/7/52
f 32/7/52 25/5/51 28/5/51
f 29/5/53 31/7/54 33/7/54
f 31/7/54 29/5/53 27/5/53
f 36/5/39 35/2/40 34/5/39
f 35/2/41 37/5/42 34/5/42
f 38/5/43 37/5/43 35/2/44
f 35/2/45 36/5/46 38/5/46
f 39/7/47 36/5/48 34/5/48
f 36/5/48 39/7/47 40/7/47
f 38/5/49 41/7/50 37/5/49
f 41/7/50 38/5/49 42/7/50
f 34/5/51 41/7/52 39/7/52
f 41/7/52 34/5/51 37/5/51
f 38/5/53 40/7/54 42/7/54
f 40/7/54 38/5/53 36/5/53
f 45/5/39 44/2/40 43/5/39
f 44/2/41 46/5/42 43/5/42
f 47/5/43 46/5/43 44/2/44
f 44/2/45 45/5/46 47/5/46
f 48/7/47 45/5/48 43/5/48
f 45/5/48 48/7/47 49/7/47
f 47/5/49 50/7/50 46/5/49
f 50/7/50 47/5/49 51/7/50
f 43/5/51 50/7/52 48/7/52
f 50/7/52 43/5/51 46/5/51
f 47/5/53 49/7/54 51/7/54
f 49/7/54 47/5/53 45/5/53
f 54/5/39 53/2/40 52/5/39
f 53/2/41 55/5/42 52/5/42
f 56/5/43 55/5/43 53/2/44
f 53/2/45 54/5/46 56/5/46
f 57/7/47 54/5/48 52/5/48
f 54/5/48 57/7/47 58/7/47
f 56/5/49 59/7/50 55/5/49
f 59/7/50 56/5/49 60/7/50
f 52/5/51 59/7/52 57/7/52
f 59/7/52 52/5/51 55/5/51
f 56/5/53 58/7/54 60/7/54
f 58/7/54 56/5/53 54/5/53
f 63/5/39 62/2/40 61/5/39
f 62/2/41 64/5/42 61/5/42
f 65/5/43 64/5/43 62/2/44
f 62/2/45 63/5/46 65/5/46
f 66/7/47 63/5/48 61/5/48
f 63/5/48 66/7/47 67/7/47
f 65/5/49 68/7/50 64/5/49
f 68/7/50 65/5/49 69/7/50
f 61/5/51 68/7/52 66/7/52
f 68/7/52 61/5/51 64/5/51
f 65/5/53 67/7/54 69/7/54
f 67/7/54 65/5/53 63/5/53
f 72/5/39 71/2/40 70/5/39
f 71/2/41 73/5/42 70/5/42
f 74/5/43 73/5/43 71/2/44
f 71/2/45 72/5/46 74/5/46
f 75/7/47 72/5/48 70/5/48
f 72/5/48 75/7/47 76/7/47
f 74/5/49 77/7/50 73/5/49
f 77/7/50 74/5/49 78/7/50
f 70/5/51 77/7/52 75/7/52
f 77/7/52 70/5/51 73/5/51
f 74/5/53 76/7/54 78/7/54
f 76/7/54 74/5/53 72/5/53
f 81/5/39 80/2/40 79/5/39
f 80/2/41 82/5/42 79/5/42
f 83/5/43 82/5/43 80/2/44
f 80/2/45 81/5/46 83/5/46
f 84/7/47 81/5/48 79/5/48
f 81/5/48 84/7/47 85/7/47
f 83/5/49 86/7/50 82/5/49
f 86/7/50 83/5/49 87/7/50
f 79/5/51 86/7/52 84/7/52
f 86/7/52 79/5/51 82/5/51
f 83/5/53 85/7/54 87/7/54
f 85/7/54 83/5/53 81/5/53
f 90/2/36 89/2/36 88/2/36
f 89/2/36 90/2/36 91/2/36
f 89/2/55 93/8/56 92/8/56
f 93/8/56 89/2/55 91/2/55
f 96/8/57 95/3/12 94/3/12
f 95/3/12 96/8/57 97/8/57
f 99/3/37 95/3/37 98/3/37
f 95/3/37 99/3/37 94/3/37
f 88/2/58 95/3/58 97/8/58
f 95/3/3 88/2/3 98/3/3
f 98/3/3 88/2/3 89/2/3
f 98/3/59 89/2/59 92/8/59
f 92/8/60 99/3/5 98/3/5
f 99/3/5 92/8/60 93/8/60
f 90/2/61 97/8/62 96/8/62
f 97/8/62 90/2/63 88/2/63
f 99/3/2 96/8/2 94/3/2
f 96/8/2 99/3/2 90/2/2
f 90/2/2 99/3/2 91/2/2
f 91/2/2 99/3/2 93/8/2
f 33/9/5 101/10/5 100/10/5
f 101/10/5 33/9/5 31/9/5
f 101/10/37 102/10/37 100/10/37
f 102/10/37 101/10/37 103/10/37
f 30/9/12 102/10/12 103/10/12
f 102/10/12 30/9/12 32/9/12
f 101/10/2 30/9/2 103/10/2
f 30/9/2 101/10/2 31/9/2
f 33/9/3 102/10/3 32/9/3
f 102/10/3 33/9/3 100/10/3
f 42/9/5 105/10/5 104/10/5
f 105/10/5 42/9/5 40/9/5
f 105/10/37 106/10/37 104/10/37
f 106/10/37 105/10/37 107/10/37
f 39/9/12 106/10/12 107/10/12
f 106/10/12 39/9/12 41/9/12
f 105/10/2 39/9/2 107/10/2
f 39/9/2 105/10/2 40/9/2
f 42/9/3 106/10/3 41/9/3
f 106/10/3 42/9/3 104/10/3
f 51/9/5 109/10/5 108/10/5
f 109/10/5 51/9/5 49/9/5
f 109/10/37 110/10/37 108/10/37
f 110/10/37 109/10/37 111/10/37
f 48/9/12 110/10/12 111/10/12
f 110/10/12 48/9/12 50/9/12
f 109/10/2 48/9/2 111/10/2
f 48/9/2 109/10/2 49/9/2
f 51/9/3 110/10/3 50/9/3
f 110/10/3 51/9/3 108/10/3
f 60/9/5 113/10/5 112/10/5
f 113/10/5 60/9/5 58/9/5
f 113/10/37 114/10/37 112/10/37
f 114/10/37 113/10/37 115/10/37
f 57/9/12 114/10/12 115/10/12
f 114/10/12 57/9/12 59/9/12
f 113/10/2 57/9/2 115/10/2
f 57/9/2 113/10/2 58/9/2
f 60/9/3 114/10/3 59/9/3
f 114/10/3 60/9/3 112/10/3
f 69/9/5 117/10/5 116/10/5
f 117/10/5 69/9/5 67/9/5
f 117/10/37 118/10/37 116/10/37
f 118/10/37 117/10/37 119/10/37
f 66/9/12 118/10/12 119/10/12
f 118/10/12 66/9/12 68/9/12
f 117/10/2 66/9/2 119/10/2
f 66/9/2 117/10/2 67/9/2
f 69/9/3 118/10/3 68/9/3
f 118/10/3 69/9/3 116/10/3
f 78/9/5 121/10/5 120/10/5
f 121/10/5 78/9/5 76/9/5
f 121/10/37 122/10/37 120/10/37
f 122/10/37 121/10/37 123/10/37
f 75/9/12 122/10/12 123/10/12
f 122/10/12 75/9/12 77/9/12
f 121/10/2 75/9/2 123/10/2
f 75/9/2 121/10/2 76/9/2
f 78/9/3 122/10/3 77/9/3
f 122/10/3 78/9/3 120/10/3
f 87/9/5 125/10/5 124/10/5
f 125/10/5 87/9/5 85/9/5
f 125/10/37 126/10/37 124/10/37
f 126/10/37 125/10/37 127/10/37
f 84/9/12 126/10/12 127/10/12
f 126/10/12 84/9/12 86/9/12
f 125/10/2 84/9/2 127/10/2
f 84/9/2 125/10/2 85/9/2
f 87/9/3 126/10/3 86/9/3
f 126/10/3 87/9/3 124/10/3
f 130/11/3 129/11/3 128/11/3
f 129/11/3 130/11/3 131/11/3
f 134/11/2 133/11/2 132/11/2
f 133/11/2 134/11/2 135/11/2
f 130/11/5 134/11/5 131/11/5
f 134/11/5 130/11/5 135/11/5
f 134/11/37 129/11/37 131/11/37
f 129/11/37 134/11/37 132/11/37
f 133/11/36 130/11/36 128/11/36
f 130/11/36 133/11/36 135/11/36
f 133/11/12 129/11/12 132/11/12
f 129/11/12 133/11/12 128/11/12
f 138/11/2 137/11/2 136/11/2
f 137/11/2 138/11/2 139/11/2
f 142/11/3 141/11/3 140/11/3
f 141/11/3 142/11/3 143/11/3
f 137/11/36 142/11/36 140/11/36
f 142/11/36 137/11/36 139/11/36
f 137/11/12 141/11/12 136/11/12
f 141/11/12 137/11/12 140/11/12
f 138/11/37 141/11/37 143/11/37
f 141/11/37 138/11/37 136/11/37
f 142/11/5 138/11/5 143/11/5
f 138/11/5 142/11/5 139/11/5
