# Blender 4.1.1
# www.blender.org
mtllib tree.032.mtl
o tree.032
v -13.196073 -0.295190 -18.698549
v -12.978240 -0.295190 -18.813238
v -13.362333 -0.295190 -18.750122
v -12.926668 -0.295190 -18.979498
v -13.477020 -0.295190 -18.967955
v -13.041355 -0.295190 -19.197330
v -13.425448 -0.295190 -19.134214
v -13.207616 -0.295190 -19.248903
v -13.090042 0.150532 -18.893482
v -13.198958 0.150532 -18.836138
v -13.282088 0.150532 -18.861925
v -13.064256 0.150532 -18.976612
v -13.121600 0.150532 -19.085527
v -13.204730 0.150532 -19.111315
v -13.313646 0.150532 -19.053970
v -13.339433 0.150532 -18.970840
v -13.205451 0.819166 -19.145712
v -13.341597 0.819166 -19.074032
v -13.373829 0.819166 -18.970119
v -13.062092 0.819166 -18.873421
v -13.198237 0.819166 -18.801741
v -13.101539 0.819166 -19.113480
v -13.029859 0.819166 -18.977333
v -13.302150 0.819166 -18.833975
v -13.053823 0.309673 -18.821728
v -13.150004 0.309673 -18.812862
v -12.992081 0.309673 -18.896008
v -13.000947 0.309673 -18.992189
v -13.224284 0.309673 -18.874603
v -13.075227 0.309673 -19.053932
v -13.233150 0.309673 -18.970785
v -13.171408 0.309673 -19.045065
v -13.020521 0.147933 -18.758478
v -12.923808 0.147933 -18.874830
v -13.171182 0.147933 -18.744591
v -13.287535 0.147933 -18.841303
v -12.937696 0.147933 -19.025492
v -13.301422 0.147933 -18.991962
v -13.054049 0.147933 -19.122204
v -13.204709 0.147933 -19.108316
v -13.534399 0.819166 -18.465700
v -13.820011 0.819166 -19.008179
v -13.400332 1.556122 -18.678318
v -13.568845 1.556122 -18.998383
v -12.594797 0.819166 -18.960394
v -12.921792 0.819166 -18.441807
v -12.845963 1.556122 -18.970190
v -13.038892 1.556122 -18.664223
v -12.880409 0.819166 -19.502874
v -13.014476 1.556122 -19.290255
v -13.375916 1.556122 -19.304352
v -13.493016 0.819166 -19.526766
v -13.042720 2.347869 -18.671492
v -13.395949 2.347869 -18.685268
v -13.169552 3.178330 -18.912392
v -13.250741 3.178330 -18.915558
v -13.245256 3.178330 -19.056181
v -13.288593 3.178330 -18.987453
v -13.372088 2.347869 -19.297081
v -13.560635 2.347869 -18.998062
v -13.018858 2.347869 -19.283304
v -12.854174 2.347869 -18.970510
v -13.164067 3.178330 -19.053015
v -13.126215 3.178330 -18.981121
v -12.785789 1.556122 -18.718437
v -13.226829 1.556122 -18.486233
v -13.014215 2.347869 -18.862473
v -13.216305 2.347869 -18.756073
v -12.766364 1.556122 -19.216492
v -13.005315 2.347869 -19.090685
v -13.648444 1.556122 -18.752081
v -13.409493 2.347869 -18.877888
v -13.629020 1.556122 -19.250135
v -13.400593 2.347869 -19.106102
v -13.187980 1.556122 -19.482342
v -13.198503 2.347869 -19.212502
v -13.780561 0.589264 -18.682524
v -13.887398 0.704215 -19.010807
v -13.570368 0.704215 -18.408655
v -12.844440 0.704215 -19.559919
v -13.182161 0.589264 -19.631536
v -13.524434 0.704215 -19.586439
v -13.755318 0.589264 -19.329773
v -12.890374 0.704215 -18.382135
v -13.232647 0.589264 -18.337036
v -12.634247 0.589264 -19.286051
v -12.527411 0.704215 -18.957767
v -12.659491 0.589264 -18.638800
v -12.926521 1.369209 -19.429745
v -12.717850 1.462665 -19.242035
v -13.185843 1.462665 -19.537127
v -12.739410 1.462665 -18.689194
v -12.962068 1.369209 -18.518305
v -13.228965 1.462665 -18.431446
v -13.733624 1.369209 -19.004810
v -13.675398 1.462665 -19.279379
v -13.696959 1.462665 -18.726540
v -13.452741 1.369209 -19.450268
v -13.488287 1.369209 -18.538828
v -12.681185 1.369209 -18.963764
v -12.998118 2.281588 -19.316196
v -13.192849 2.215307 -19.357492
v -13.390203 2.281588 -19.331490
v -13.523332 2.215307 -19.183495
v -13.599489 2.281588 -18.999578
v -12.815318 2.281588 -18.968996
v -12.891476 2.215307 -18.785078
v -13.024604 2.281588 -18.637085
v -13.537888 2.215307 -18.810289
v -13.416690 2.281588 -18.652376
v -12.876921 2.215307 -19.158285
v -13.221959 2.215307 -18.611082
vn -0.0000 -1.0000 -0.0000
vn 0.7315 0.2942 0.6151
vn 0.0834 0.2944 0.9520
vn 0.7377 0.2944 0.6075
vn 0.0932 0.2942 0.9512
vn -0.6151 0.2942 0.7315
vn 0.0833 0.2944 0.9520
vn 0.0931 0.2942 0.9512
vn -0.6151 0.2943 0.7315
vn -0.6075 0.2944 0.7378
vn 0.9512 0.2942 -0.0931
vn 0.7378 0.2944 0.6075
vn 0.9520 0.2944 -0.0833
vn 0.6151 0.2942 -0.7315
vn 0.9520 0.2944 -0.0834
vn 0.6075 0.2944 -0.7377
vn 0.9512 0.2942 -0.0932
vn -0.7377 0.2944 -0.6075
vn -0.0932 0.2942 -0.9512
vn -0.0834 0.2944 -0.9520
vn -0.7315 0.2942 -0.6151
vn -0.9520 0.2944 0.0834
vn -0.6075 0.2944 0.7377
vn -0.6152 0.2942 0.7315
vn -0.9512 0.2942 0.0932
vn -0.0833 0.2944 -0.9520
vn 0.6151 0.2943 -0.7315
vn 0.6075 0.2944 -0.7378
vn -0.0931 0.2942 -0.9512
vn -0.7378 0.2944 -0.6075
vn -0.9512 0.2942 0.0931
vn -0.9520 0.2944 0.0833
vn -0.0926 -0.0513 -0.9944
vn -0.7686 -0.0512 -0.6377
vn -0.0908 -0.0513 -0.9945
vn -0.7685 -0.0513 -0.6377
vn -0.7674 -0.0513 -0.6391
vn -0.9944 -0.0512 0.0925
vn -0.7686 -0.0513 -0.6377
vn -0.7674 -0.0512 -0.6391
vn -0.9944 -0.0513 0.0926
vn -0.9945 -0.0512 0.0908
vn 0.0908 -0.0512 0.9945
vn 0.7674 -0.0513 0.6391
vn 0.7685 -0.0513 0.6377
vn 0.0909 -0.0512 0.9945
vn 0.0926 -0.0513 0.9944
vn 0.6377 -0.0513 -0.7686
vn 0.9944 -0.0513 -0.0926
vn 0.6391 -0.0513 -0.7674
vn 0.6377 -0.0512 -0.7685
vn 0.9945 -0.0513 -0.0908
vn 0.0908 -0.0513 0.9946
vn -0.6391 -0.0513 0.7674
vn 0.0925 -0.0513 0.9944
vn 0.0908 -0.0512 0.9946
vn -0.6377 -0.0513 0.7686
vn 0.6391 -0.0513 -0.7675
vn -0.0908 -0.0513 -0.9946
vn -0.0925 -0.0513 -0.9944
vn 0.7686 -0.0513 0.6377
vn 0.9944 -0.0513 -0.0925
vn 0.9946 -0.0512 -0.0908
vn 0.9944 -0.0512 -0.0925
vn 0.7674 -0.0512 0.6391
vn -0.6377 -0.0513 0.7685
vn -0.6377 -0.0512 0.7685
vn -0.9945 -0.0513 0.0908
vn -0.0000 1.0000 -0.0000
vn 0.8736 0.4042 0.2710
vn 0.4261 0.4042 0.8093
vn 0.4261 0.4043 0.8093
vn -0.8094 0.4042 0.4261
vn -0.8736 0.4042 -0.2709
vn -0.8093 0.4042 0.4261
vn -0.8736 0.4042 -0.2710
vn -0.4261 0.4042 -0.8093
vn -0.4261 0.4043 -0.8093
vn 0.8094 0.4042 -0.4261
vn 0.8093 0.4042 -0.4261
vn 0.8736 0.4043 0.2710
vn -0.2710 0.4042 0.8736
vn 0.2710 0.4042 -0.8736
vn 0.2710 0.4043 -0.8736
vn 0.4261 0.4042 0.8094
vn -0.2710 0.4043 0.8736
vn -0.4261 0.4042 -0.8094
vn 0.2709 0.4042 -0.8736
vn -0.5048 0.3228 0.8006
vn -0.9458 0.3228 -0.0369
vn 0.9457 0.3228 0.0369
vn 0.4409 0.3228 0.8375
vn 0.9458 0.3228 0.0369
vn 0.5048 0.3228 -0.8006
vn -0.4409 0.3228 -0.8375
vn -0.9457 0.3228 -0.0369
vn 0.3204 0.7260 0.6085
vn -0.5068 0.3115 0.8038
vn 0.4427 0.3115 0.8408
vn -0.3669 0.7260 0.5817
vn -0.4427 0.3115 -0.8408
vn -0.6872 0.7260 -0.0268
vn -0.3203 0.7260 -0.6086
vn -0.9495 0.3115 -0.0370
vn 0.3668 0.7260 -0.5818
vn 0.9495 0.3115 0.0370
vn 0.5068 0.3115 -0.8038
vn 0.6872 0.7260 0.0268
vn 0.3203 0.7260 0.6086
vn 0.6872 0.7259 0.0268
vn -0.3668 0.7259 0.5818
vn 0.3204 0.7259 0.6086
vn -0.3668 0.7259 0.5817
vn -0.6872 0.7259 -0.0268
vn 0.3668 0.7259 -0.5817
vn 0.3668 0.7259 -0.5818
vn -0.3204 0.7259 -0.6086
vn 0.3668 0.7260 -0.5817
vn -0.3204 0.7260 -0.6085
vn -0.3668 0.7260 0.5818
vn -0.6872 0.7260 -0.0269
vn 0.8006 0.3228 0.5048
vn -0.0369 0.3228 0.9457
vn -0.0369 0.3228 0.9458
vn 0.8375 0.3228 -0.4409
vn -0.8375 0.3228 0.4409
vn -0.8006 0.3228 -0.5048
vn 0.0369 0.3228 -0.9457
vn -0.4600 0.5060 0.7296
vn -0.8619 0.5060 -0.0336
vn -0.7889 0.4530 0.4153
vn 0.7889 -0.4530 -0.4153
vn 0.8619 -0.5060 0.0336
vn 0.4600 -0.5060 -0.7296
vn 0.0347 0.4530 -0.8909
vn 0.4600 0.5060 -0.7296
vn -0.4018 0.5060 -0.7632
vn 0.0347 0.4530 -0.8908
vn -0.4600 -0.5060 0.7296
vn -0.0347 -0.4530 0.8909
vn 0.4018 -0.5060 0.7632
vn -0.0347 -0.4530 0.8908
vn 0.4018 -0.5061 0.7632
vn -0.7541 0.4530 -0.4755
vn 0.7541 -0.4530 0.4755
vn 0.4018 0.5060 0.7632
vn -0.0347 0.4530 0.8908
vn -0.4600 0.5061 0.7296
vn -0.0347 0.4530 0.8909
vn -0.4018 -0.5060 -0.7632
vn 0.0347 -0.4530 -0.8908
vn 0.4601 -0.5060 -0.7296
vn 0.0347 -0.4530 -0.8909
vn 0.8619 0.5060 0.0336
vn 0.7889 0.4530 -0.4153
vn -0.7889 -0.4530 0.4153
vn -0.8619 -0.5060 -0.0336
vn 0.7541 0.4530 0.4755
vn -0.7541 -0.4530 -0.4755
vn 0.0336 0.5060 -0.8619
vn 0.7632 0.5061 -0.4018
vn 0.4755 0.4530 -0.7541
vn 0.7632 0.5060 -0.4018
vn -0.4755 -0.4530 0.7541
vn -0.7632 -0.5060 0.4018
vn -0.0336 -0.5060 0.8619
vn 0.7296 0.5060 0.4600
vn 0.4153 0.4530 0.7889
vn 0.7296 0.5060 0.4601
vn -0.0336 0.5060 0.8619
vn -0.7296 -0.5060 -0.4600
vn -0.4153 -0.4530 -0.7889
vn 0.0336 -0.5060 -0.8619
vn -0.7632 0.5060 0.4018
vn -0.7296 0.5060 -0.4600
vn -0.8909 0.4530 -0.0347
vn -0.7296 0.5060 -0.4601
vn 0.8909 -0.4530 0.0347
vn 0.7296 -0.5060 0.4601
vn 0.7632 -0.5060 -0.4018
vn 0.7296 -0.5060 0.4600
vn -0.4153 0.4530 -0.7889
vn 0.0336 0.5060 -0.8618
vn 0.4153 -0.4530 0.7889
vn 0.4153 -0.4529 0.7889
vn -0.4755 0.4530 0.7541
vn 0.4755 -0.4530 -0.7541
vn 0.8909 0.4530 0.0347
vn -0.8909 -0.4530 -0.0347
vn -0.7296 -0.5060 -0.4601
vn 0.0348 0.4530 -0.8908
vn -0.4601 -0.5060 0.7296
vn -0.0348 -0.4530 0.8908
vn 0.7541 -0.4529 0.4755
vn -0.7541 -0.4529 -0.4755
vn -0.4601 0.5060 0.7296
vn 0.4601 0.5060 -0.7296
vn 0.7889 0.4529 -0.4153
vn -0.7889 -0.4529 0.4153
vn -0.0347 0.4529 0.8909
vn 0.0347 -0.4529 -0.8909
vt 0.593750 0.025000
vt 0.593750 0.104996
vt 0.593750 0.225000
vt 0.093750 0.475000
vt 0.093750 0.275000
vt 0.093750 0.425000
vt 0.093750 0.348778
vt 0.093750 0.338765
vt 0.093750 0.344099
vt 0.093750 0.375000
vt 0.093750 0.325000
s 0
usemtl colormap.035
f 3/1/1 2/1/1 1/1/1
f 2/1/1 3/1/1 4/1/1
f 4/1/1 3/1/1 5/1/1
f 4/1/1 5/1/1 6/1/1
f 6/1/1 5/1/1 7/1/1
f 6/1/1 7/1/1 8/1/1
f 9/2/2 1/1/3 2/1/4
f 1/1/3 9/2/2 10/2/5
f 11/2/6 1/1/7 10/2/8
f 1/1/7 11/2/9 3/1/10
f 12/2/11 2/1/12 4/1/13
f 2/1/12 12/2/11 9/2/2
f 13/2/14 4/1/15 6/1/16
f 4/1/15 13/2/14 12/2/17
f 7/1/18 14/2/19 8/1/20
f 14/2/19 7/1/18 15/2/21
f 11/2/6 5/1/22 3/1/23
f 5/1/22 11/2/24 16/2/25
f 8/1/26 13/2/27 6/1/28
f 13/2/14 8/1/26 14/2/29
f 7/1/30 16/2/31 15/2/21
f 16/2/31 7/1/30 5/1/32
f 14/2/33 18/3/34 17/3/35
f 18/3/36 14/2/33 15/2/37
f 16/2/38 18/3/39 15/2/40
f 18/3/39 16/2/41 19/3/42
f 21/3/43 9/2/44 20/3/45
f 9/2/44 21/3/46 10/2/47
f 22/3/48 12/2/49 13/2/50
f 12/2/49 22/3/51 23/3/52
f 21/3/53 11/2/54 10/2/55
f 11/2/54 21/3/56 24/3/57
f 13/2/58 17/3/59 22/3/48
f 17/3/35 13/2/50 14/2/60
f 20/3/61 12/2/62 23/3/63
f 12/2/64 20/3/61 9/2/65
f 24/3/66 16/2/41 11/2/54
f 16/2/41 24/3/67 19/3/68
f 27/4/69 26/4/69 25/4/69
f 26/4/69 27/4/69 28/4/69
f 26/4/69 28/4/69 29/4/69
f 29/4/69 28/4/69 30/4/69
f 29/4/69 30/4/69 31/4/69
f 31/4/69 30/4/69 32/4/69
f 35/5/1 34/5/1 33/5/1
f 34/5/1 35/5/1 36/5/1
f 34/5/1 36/5/1 37/5/1
f 37/5/1 36/5/1 38/5/1
f 37/5/1 38/5/1 39/5/1
f 39/5/1 38/5/1 40/5/1
f 27/4/70 33/5/71 34/5/70
f 33/5/71 27/4/70 25/4/72
f 29/4/73 38/5/74 36/5/75
f 38/5/76 29/4/73 31/4/76
f 40/5/77 31/4/76 32/4/78
f 31/4/76 40/5/77 38/5/76
f 28/4/79 34/5/70 37/5/80
f 34/5/70 28/4/79 27/4/81
f 26/4/82 36/5/75 35/5/82
f 36/5/75 26/4/82 29/4/75
f 30/4/83 37/5/80 39/5/84
f 37/5/80 30/4/83 28/4/80
f 26/4/82 33/5/71 25/4/85
f 33/5/71 26/4/86 35/5/82
f 40/5/87 30/4/83 39/5/83
f 30/4/88 40/5/77 32/4/87
f 43/6/89 42/7/90 41/7/89
f 42/7/90 43/6/89 44/6/90
f 47/6/91 46/7/92 45/7/91
f 46/7/92 47/6/93 48/6/92
f 50/6/94 45/7/93 49/7/94
f 45/7/93 50/6/94 47/6/93
f 48/6/92 41/7/89 46/7/92
f 41/7/89 48/6/92 43/6/89
f 52/7/95 44/6/90 51/6/95
f 44/6/96 52/7/95 42/7/96
f 52/7/95 50/6/94 49/7/94
f 50/6/94 52/7/95 51/6/95
f 41/7/1 45/7/1 46/7/1
f 45/7/1 41/7/1 42/7/1
f 45/7/1 42/7/1 49/7/1
f 49/7/1 42/7/1 52/7/1
f 55/6/97 54/8/98 53/8/99
f 54/8/98 55/6/97 56/6/100
f 59/8/101 58/6/102 57/6/103
f 58/6/102 59/8/101 60/8/104
f 63/6/105 62/8/106 61/8/107
f 62/8/106 63/6/105 64/6/108
f 64/6/108 53/8/99 62/8/106
f 53/8/99 64/6/108 55/6/109
f 64/6/110 56/6/111 55/6/112
f 56/6/113 64/6/110 58/6/114
f 58/6/114 64/6/110 63/6/115
f 58/6/114 63/6/116 57/6/117
f 59/8/101 63/6/118 61/8/107
f 63/6/118 59/8/101 57/6/119
f 54/8/1 62/8/1 53/8/1
f 62/8/1 54/8/1 60/8/1
f 62/8/1 60/8/1 61/8/1
f 61/8/1 60/8/1 59/8/1
f 56/6/120 60/8/104 54/8/98
f 60/8/104 56/6/120 58/6/121
f 67/6/122 66/9/123 65/9/122
f 66/9/123 67/6/122 68/6/124
f 70/6/125 65/9/122 69/9/125
f 65/9/122 70/6/125 67/6/122
f 68/6/123 71/9/126 66/9/123
f 71/9/126 68/6/124 72/6/126
f 72/6/126 73/9/127 71/9/126
f 73/9/127 72/6/126 74/6/127
f 71/9/1 65/9/1 66/9/1
f 65/9/1 71/9/1 69/9/1
f 69/9/1 71/9/1 73/9/1
f 69/9/1 73/9/1 75/9/1
f 76/6/128 69/9/125 75/9/128
f 69/9/125 76/6/128 70/6/125
f 73/9/127 76/6/128 75/9/128
f 76/6/128 73/9/127 74/6/127
f 79/10/129 78/10/130 77/11/131
f 78/10/130 79/10/129 41/6/129
f 78/10/130 41/6/129 42/6/130
f 77/11/132 78/10/133 79/10/134
f 41/6/134 79/10/134 78/10/133
f 42/6/133 41/6/134 78/10/133
f 81/11/135 49/6/136 80/10/136
f 49/6/136 81/11/135 52/6/137
f 52/6/137 81/11/138 82/10/137
f 80/10/139 49/6/139 81/11/140
f 52/6/141 81/11/140 49/6/139
f 82/10/141 81/11/142 52/6/143
f 82/10/137 42/6/130 52/6/137
f 42/6/130 82/10/137 83/11/144
f 42/6/130 83/11/144 78/10/130
f 52/6/141 42/6/133 82/10/141
f 83/11/145 82/10/141 42/6/133
f 78/10/133 83/11/145 42/6/133
f 46/6/146 85/11/147 84/10/146
f 85/11/147 46/6/146 41/6/148
f 85/11/149 41/6/129 79/10/129
f 84/10/150 85/11/151 46/6/150
f 41/6/152 46/6/150 85/11/153
f 79/10/134 41/6/134 85/11/153
f 80/10/136 87/10/154 86/11/155
f 87/10/154 80/10/136 49/6/136
f 87/10/154 49/6/136 45/6/154
f 86/11/156 87/10/157 80/10/139
f 49/6/139 80/10/139 87/10/157
f 45/6/157 49/6/139 87/10/157
f 45/6/154 88/11/158 87/10/154
f 88/11/158 45/6/154 46/6/146
f 88/11/158 46/6/146 84/10/146
f 87/10/157 88/11/159 45/6/157
f 46/6/150 45/6/157 88/11/159
f 84/10/150 46/6/150 88/11/159
f 91/10/160 90/10/161 89/11/162
f 90/10/163 91/10/160 75/6/160
f 90/10/163 75/6/160 69/6/163
f 89/11/164 90/10/165 91/10/166
f 75/6/166 91/10/166 90/10/165
f 69/6/165 75/6/166 90/10/165
f 65/6/167 93/11/168 92/10/169
f 93/11/168 65/6/169 66/6/170
f 93/11/168 66/6/170 94/10/170
f 92/10/171 93/11/172 65/6/171
f 66/6/173 65/6/171 93/11/172
f 94/10/173 66/6/173 93/11/172
f 97/10/174 96/10/175 95/11/176
f 96/10/175 97/10/174 71/6/174
f 96/10/177 71/6/174 73/6/177
f 95/11/178 96/10/179 97/10/180
f 71/6/180 97/10/180 96/10/181
f 73/6/179 71/6/180 96/10/179
f 98/11/182 75/6/183 91/10/160
f 75/6/160 98/11/182 73/6/175
f 73/6/175 98/11/182 96/10/177
f 91/10/166 75/6/166 98/11/184
f 73/6/181 98/11/184 75/6/166
f 96/10/179 98/11/185 73/6/181
f 94/10/170 97/10/174 99/11/186
f 97/10/174 94/10/170 66/6/170
f 97/10/174 66/6/170 71/6/174
f 99/11/187 97/10/180 94/10/173
f 66/6/173 94/10/173 97/10/180
f 71/6/180 66/6/173 97/10/180
f 90/10/163 92/10/167 100/11/188
f 92/10/167 90/10/163 69/6/163
f 92/10/169 69/6/163 65/6/167
f 100/11/189 92/10/171 90/10/165
f 69/6/165 90/10/165 92/10/190
f 65/6/171 69/6/165 92/10/190
f 102/11/138 61/6/136 101/10/136
f 61/6/136 102/11/135 59/6/137
f 59/6/137 102/11/191 103/10/137
f 101/10/139 61/6/139 102/11/140
f 59/6/141 102/11/140 61/6/192
f 103/10/141 102/11/193 59/6/143
f 103/10/137 60/6/130 59/6/137
f 60/6/130 103/10/137 104/11/144
f 60/6/130 104/11/144 105/10/130
f 59/6/141 60/6/133 103/10/141
f 104/11/145 103/10/141 60/6/133
f 105/10/133 104/11/194 60/6/133
f 62/6/154 107/11/158 106/10/154
f 107/11/158 62/6/154 53/6/146
f 107/11/158 53/6/146 108/10/146
f 106/10/157 107/11/159 62/6/157
f 53/6/150 62/6/157 107/11/159
f 108/10/150 53/6/150 107/11/195
f 110/10/129 105/10/130 109/11/131
f 105/10/130 110/10/196 54/6/196
f 105/10/130 54/6/129 60/6/130
f 109/11/132 105/10/133 110/10/134
f 54/6/134 110/10/152 105/10/133
f 60/6/133 54/6/134 105/10/133
f 101/10/197 106/10/154 111/11/198
f 106/10/154 101/10/136 61/6/136
f 106/10/154 61/6/136 62/6/154
f 111/11/199 106/10/157 101/10/139
f 61/6/139 101/10/139 106/10/157
f 62/6/157 61/6/139 106/10/157
f 53/6/146 112/11/200 108/10/146
f 112/11/200 53/6/146 54/6/129
f 112/11/200 54/6/129 110/10/129
f 108/10/150 112/11/201 53/6/150
f 54/6/152 53/6/150 112/11/201
f 110/10/134 54/6/134 112/11/201
f 3/1/1 2/1/1 1/1/1
f 2/1/1 3/1/1 4/1/1
f 4/1/1 3/1/1 5/1/1
f 4/1/1 5/1/1 6/1/1
f 6/1/1 5/1/1 7/1/1
f 6/1/1 7/1/1 8/1/1
f 9/2/2 1/1/3 2/1/4
f 1/1/3 9/2/2 10/2/5
f 11/2/6 1/1/7 10/2/8
f 1/1/7 11/2/9 3/1/10
f 12/2/11 2/1/12 4/1/13
f 2/1/12 12/2/11 9/2/2
f 13/2/14 4/1/15 6/1/16
f 4/1/15 13/2/14 12/2/17
f 7/1/18 14/2/19 8/1/20
f 14/2/19 7/1/18 15/2/21
f 11/2/6 5/1/22 3/1/23
f 5/1/22 11/2/24 16/2/25
f 8/1/26 13/2/27 6/1/28
f 13/2/14 8/1/26 14/2/29
f 7/1/30 16/2/31 15/2/21
f 16/2/31 7/1/30 5/1/32
f 14/2/33 18/3/34 17/3/35
f 18/3/36 14/2/33 15/2/37
f 16/2/38 18/3/39 15/2/40
f 18/3/39 16/2/41 19/3/42
f 21/3/43 9/2/44 20/3/45
f 9/2/44 21/3/46 10/2/47
f 22/3/48 12/2/49 13/2/50
f 12/2/49 22/3/51 23/3/52
f 21/3/53 11/2/54 10/2/55
f 11/2/54 21/3/56 24/3/57
f 13/2/58 17/3/59 22/3/48
f 17/3/35 13/2/50 14/2/60
f 20/3/61 12/2/62 23/3/63
f 12/2/64 20/3/61 9/2/65
f 24/3/66 16/2/41 11/2/54
f 16/2/41 24/3/67 19/3/68
f 27/4/69 26/4/69 25/4/69
f 26/4/69 27/4/69 28/4/69
f 26/4/69 28/4/69 29/4/69
f 29/4/69 28/4/69 30/4/69
f 29/4/69 30/4/69 31/4/69
f 31/4/69 30/4/69 32/4/69
f 35/5/1 34/5/1 33/5/1
f 34/5/1 35/5/1 36/5/1
f 34/5/1 36/5/1 37/5/1
f 37/5/1 36/5/1 38/5/1
f 37/5/1 38/5/1 39/5/1
f 39/5/1 38/5/1 40/5/1
f 27/4/70 33/5/71 34/5/70
f 33/5/71 27/4/70 25/4/72
f 29/4/73 38/5/74 36/5/75
f 38/5/76 29/4/73 31/4/76
f 40/5/77 31/4/76 32/4/78
f 31/4/76 40/5/77 38/5/76
f 28/4/79 34/5/70 37/5/80
f 34/5/70 28/4/79 27/4/81
f 26/4/82 36/5/75 35/5/82
f 36/5/75 26/4/82 29/4/75
f 30/4/83 37/5/80 39/5/84
f 37/5/80 30/4/83 28/4/80
f 26/4/82 33/5/71 25/4/85
f 33/5/71 26/4/86 35/5/82
f 40/5/87 30/4/83 39/5/83
f 30/4/88 40/5/77 32/4/87
f 43/6/89 42/7/90 41/7/89
f 42/7/90 43/6/89 44/6/90
f 47/6/91 46/7/92 45/7/91
f 46/7/92 47/6/93 48/6/92
f 50/6/94 45/7/93 49/7/94
f 45/7/93 50/6/94 47/6/93
f 48/6/92 41/7/89 46/7/92
f 41/7/89 48/6/92 43/6/89
f 52/7/95 44/6/90 51/6/95
f 44/6/96 52/7/95 42/7/96
f 52/7/95 50/6/94 49/7/94
f 50/6/94 52/7/95 51/6/95
f 41/7/1 45/7/1 46/7/1
f 45/7/1 41/7/1 42/7/1
f 45/7/1 42/7/1 49/7/1
f 49/7/1 42/7/1 52/7/1
f 55/6/97 54/8/98 53/8/99
f 54/8/98 55/6/97 56/6/100
f 59/8/101 58/6/102 57/6/103
f 58/6/102 59/8/101 60/8/104
f 63/6/105 62/8/106 61/8/107
f 62/8/106 63/6/105 64/6/108
f 64/6/108 53/8/99 62/8/106
f 53/8/99 64/6/108 55/6/109
f 64/6/110 56/6/111 55/6/112
f 56/6/113 64/6/110 58/6/114
f 58/6/114 64/6/110 63/6/115
f 58/6/114 63/6/116 57/6/117
f 59/8/101 63/6/118 61/8/107
f 63/6/118 59/8/101 57/6/119
f 54/8/1 62/8/1 53/8/1
f 62/8/1 54/8/1 60/8/1
f 62/8/1 60/8/1 61/8/1
f 61/8/1 60/8/1 59/8/1
f 56/6/120 60/8/104 54/8/98
f 60/8/104 56/6/120 58/6/121
f 67/6/122 66/9/123 65/9/122
f 66/9/123 67/6/122 68/6/124
f 70/6/125 65/9/122 69/9/125
f 65/9/122 70/6/125 67/6/122
f 68/6/123 71/9/126 66/9/123
f 71/9/126 68/6/124 72/6/126
f 72/6/126 73/9/127 71/9/126
f 73/9/127 72/6/126 74/6/127
f 71/9/1 65/9/1 66/9/1
f 65/9/1 71/9/1 69/9/1
f 69/9/1 71/9/1 73/9/1
f 69/9/1 73/9/1 75/9/1
f 76/6/128 69/9/125 75/9/128
f 69/9/125 76/6/128 70/6/125
f 73/9/127 76/6/128 75/9/128
f 76/6/128 73/9/127 74/6/127
f 79/10/129 78/10/130 77/11/131
f 78/10/130 79/10/129 41/6/129
f 78/10/130 41/6/129 42/6/130
f 77/11/132 78/10/133 79/10/134
f 41/6/134 79/10/134 78/10/133
f 42/6/133 41/6/134 78/10/133
f 81/11/135 49/6/136 80/10/136
f 49/6/136 81/11/135 52/6/137
f 52/6/137 81/11/138 82/10/137
f 80/10/139 49/6/139 81/11/140
f 52/6/141 81/11/140 49/6/139
f 82/10/141 81/11/142 52/6/143
f 82/10/137 42/6/130 52/6/137
f 42/6/130 82/10/137 83/11/144
f 42/6/130 83/11/144 78/10/130
f 52/6/141 42/6/133 82/10/141
f 83/11/145 82/10/141 42/6/133
f 78/10/133 83/11/145 42/6/133
f 46/6/146 85/11/147 84/10/146
f 85/11/147 46/6/146 41/6/148
f 85/11/149 41/6/129 79/10/129
f 84/10/150 85/11/151 46/6/150
f 41/6/152 46/6/150 85/11/153
f 79/10/134 41/6/134 85/11/153
f 80/10/136 87/10/154 86/11/155
f 87/10/154 80/10/136 49/6/136
f 87/10/154 49/6/136 45/6/154
f 86/11/156 87/10/157 80/10/139
f 49/6/139 80/10/139 87/10/157
f 45/6/157 49/6/139 87/10/157
f 45/6/154 88/11/158 87/10/154
f 88/11/158 45/6/154 46/6/146
f 88/11/158 46/6/146 84/10/146
f 87/10/157 88/11/159 45/6/157
f 46/6/150 45/6/157 88/11/159
f 84/10/150 46/6/150 88/11/159
f 91/10/160 90/10/161 89/11/162
f 90/10/163 91/10/160 75/6/160
f 90/10/163 75/6/160 69/6/163
f 89/11/164 90/10/165 91/10/166
f 75/6/166 91/10/166 90/10/165
f 69/6/165 75/6/166 90/10/165
f 65/6/167 93/11/168 92/10/169
f 93/11/168 65/6/169 66/6/170
f 93/11/168 66/6/170 94/10/170
f 92/10/171 93/11/172 65/6/171
f 66/6/173 65/6/171 93/11/172
f 94/10/173 66/6/173 93/11/172
f 97/10/174 96/10/175 95/11/176
f 96/10/175 97/10/174 71/6/174
f 96/10/177 71/6/174 73/6/177
f 95/11/178 96/10/179 97/10/180
f 71/6/180 97/10/180 96/10/181
f 73/6/179 71/6/180 96/10/179
f 98/11/182 75/6/183 91/10/160
f 75/6/160 98/11/182 73/6/175
f 73/6/175 98/11/182 96/10/177
f 91/10/166 75/6/166 98/11/184
f 73/6/181 98/11/184 75/6/166
f 96/10/179 98/11/185 73/6/181
f 94/10/170 97/10/174 99/11/186
f 97/10/174 94/10/170 66/6/170
f 97/10/174 66/6/170 71/6/174
f 99/11/187 97/10/180 94/10/173
f 66/6/173 94/10/173 97/10/180
f 71/6/180 66/6/173 97/10/180
f 90/10/163 92/10/167 100/11/188
f 92/10/167 90/10/163 69/6/163
f 92/10/169 69/6/163 65/6/167
f 100/11/189 92/10/171 90/10/165
f 69/6/165 90/10/165 92/10/190
f 65/6/171 69/6/165 92/10/190
f 102/11/138 61/6/136 101/10/136
f 61/6/136 102/11/135 59/6/137
f 59/6/137 102/11/191 103/10/137
f 101/10/139 61/6/139 102/11/140
f 59/6/141 102/11/140 61/6/192
f 103/10/141 102/11/193 59/6/143
f 103/10/137 60/6/130 59/6/137
f 60/6/130 103/10/137 104/11/144
f 60/6/130 104/11/144 105/10/130
f 59/6/141 60/6/133 103/10/141
f 104/11/145 103/10/141 60/6/133
f 105/10/133 104/11/194 60/6/133
f 62/6/154 107/11/158 106/10/154
f 107/11/158 62/6/154 53/6/146
f 107/11/158 53/6/146 108/10/146
f 106/10/157 107/11/159 62/6/157
f 53/6/150 62/6/157 107/11/159
f 108/10/150 53/6/150 107/11/195
f 110/10/129 105/10/130 109/11/131
f 105/10/130 110/10/196 54/6/196
f 105/10/130 54/6/129 60/6/130
f 109/11/132 105/10/133 110/10/134
f 54/6/134 110/10/152 105/10/133
f 60/6/133 54/6/134 105/10/133
f 101/10/197 106/10/154 111/11/198
f 106/10/154 101/10/136 61/6/136
f 106/10/154 61/6/136 62/6/154
f 111/11/199 106/10/157 101/10/139
f 61/6/139 101/10/139 106/10/157
f 62/6/157 61/6/139 106/10/157
f 53/6/146 112/11/200 108/10/146
f 112/11/200 53/6/146 54/6/129
f 112/11/200 54/6/129 110/10/129
f 108/10/150 112/11/201 53/6/150
f 54/6/152 53/6/150 112/11/201
f 110/10/134 54/6/134 112/11/201
