# Blender 4.1.1
# www.blender.org
mtllib tree.056.mtl
o tree.056
v -12.146056 -4.675250 5.558409
v -11.973010 -4.675250 5.641769
v -12.190899 -4.675250 5.430206
v -11.844808 -4.675250 5.596926
v -12.107539 -4.675250 5.257161
v -11.761448 -4.675250 5.423880
v -11.979337 -4.675250 5.212317
v -11.806291 -4.675250 5.295678
v -11.974591 -4.327483 5.534406
v -12.061115 -4.327483 5.492726
v -12.083536 -4.327483 5.428625
v -11.910491 -4.327483 5.511984
v -11.868811 -4.327483 5.425462
v -11.891232 -4.327483 5.361361
v -11.977756 -4.327483 5.319681
v -12.041857 -4.327483 5.342102
v -11.869997 -3.805793 5.344939
v -11.978150 -3.805793 5.292840
v -12.058277 -3.805793 5.320867
v -11.974196 -3.805793 5.561246
v -12.082350 -3.805793 5.509147
v -11.841969 -3.805793 5.425066
v -11.894070 -3.805793 5.533220
v -12.110377 -3.805793 5.429020
v -12.002774 -4.203316 5.590430
v -12.052984 -4.203316 5.534231
v -11.927530 -4.203316 5.594664
v -11.871331 -4.203316 5.544454
v -12.048750 -4.203316 5.458987
v -11.867097 -4.203316 5.469210
v -11.992551 -4.203316 5.408777
v -11.917307 -4.203316 5.413011
v -12.026978 -4.329511 5.640676
v -11.909116 -4.329511 5.647309
v -12.105629 -4.329511 5.552645
v -12.098996 -4.329511 5.434783
v -11.821085 -4.329511 5.568658
v -12.010964 -4.329511 5.356132
v -11.814452 -4.329511 5.450796
v -11.893103 -4.329511 5.362765
v -12.449138 -3.805793 5.454344
v -12.241544 -3.805793 5.023399
v -12.253568 -3.230796 5.439711
v -12.131085 -3.230796 5.185452
v -11.702721 -3.805793 5.813908
v -12.179727 -3.805793 5.849598
v -11.813178 -3.230796 5.651855
v -12.094614 -3.230796 5.672913
v -11.495126 -3.805793 5.382964
v -11.690697 -3.230796 5.397597
v -11.849650 -3.230796 5.164395
v -11.764537 -3.805793 4.987710
v -12.091831 -2.613048 5.667137
v -12.247174 -2.613048 5.439233
v -11.999644 -1.965096 5.475767
v -12.035350 -1.965096 5.423384
v -11.944619 -1.965096 5.361541
v -12.007837 -1.965096 5.366271
v -11.852432 -2.613048 5.170171
v -12.127475 -2.613048 5.190750
v -11.697090 -2.613048 5.398075
v -11.816789 -2.613048 5.646558
v -11.908915 -1.965096 5.413924
v -11.936426 -1.965096 5.471037
v -11.943116 -3.230796 5.806464
v -12.293477 -3.230796 5.637687
v -11.958837 -2.613048 5.596353
v -12.119376 -2.613048 5.519018
v -11.621771 -3.230796 5.587430
v -11.811592 -2.613048 5.495989
v -12.322494 -3.230796 5.249878
v -12.132671 -2.613048 5.341319
v -12.001148 -3.230796 5.030844
v -11.985428 -2.613048 5.240955
v -11.650786 -3.230796 5.199620
v -11.824888 -2.613048 5.318290
v -12.427447 -3.985170 5.199319
v -12.271179 -3.895481 4.979921
v -12.501608 -3.895481 5.458270
v -11.442655 -3.895482 5.379038
v -11.554525 -3.985170 5.134007
v -11.741702 -3.895481 4.940306
v -12.009840 -3.985170 4.914672
v -12.202562 -3.895481 5.897002
v -12.389738 -3.985170 5.703301
v -11.516817 -3.985170 5.637989
v -11.673085 -3.895482 5.857387
v -11.934424 -3.985170 5.922635
v -11.562391 -3.376631 5.387997
v -11.583231 -3.303713 5.605996
v -11.615438 -3.303713 5.175527
v -11.939924 -3.303713 5.849123
v -12.150453 -3.376631 5.788828
v -12.328825 -3.303713 5.661781
v -12.203552 -3.376631 5.079136
v -12.004340 -3.303713 4.988185
v -12.361032 -3.303713 5.231312
v -11.793812 -3.376631 5.048480
v -12.381873 -3.376631 5.449311
v -11.740712 -3.376631 5.758171
v -11.666835 -2.664763 5.395812
v -11.731339 -2.716478 5.254526
v -11.839266 -2.664763 5.142838
v -11.993875 -2.716478 5.128057
v -12.144563 -2.664763 5.165680
v -11.799701 -2.664763 5.671628
v -11.950389 -2.716478 5.709250
v -12.104999 -2.664763 5.694470
v -12.234668 -2.716478 5.292185
v -12.277430 -2.664763 5.441496
v -11.709598 -2.716478 5.545123
v -12.212924 -2.716478 5.582782
vn -0.0000 -1.0000 -0.0000
vn -0.0592 0.2942 0.9539
vn -0.7156 0.2944 0.6335
vn -0.0493 0.2944 0.9544
vn -0.7090 0.2942 0.6409
vn -0.9539 0.2942 -0.0591
vn -0.7156 0.2944 0.6334
vn -0.7091 0.2942 0.6408
vn -0.9539 0.2943 -0.0591
vn -0.9544 0.2944 -0.0493
vn 0.6408 0.2942 0.7091
vn 0.6334 0.2944 0.7156
vn -0.0591 0.2942 0.9539
vn 0.9539 0.2942 0.0592
vn 0.6335 0.2944 0.7156
vn 0.9544 0.2944 0.0493
vn 0.6409 0.2942 0.7090
vn 0.0493 0.2944 -0.9544
vn 0.7090 0.2942 -0.6409
vn 0.7156 0.2944 -0.6335
vn 0.0592 0.2942 -0.9539
vn -0.9539 0.2942 -0.0592
vn -0.6335 0.2944 -0.7156
vn -0.6409 0.2942 -0.7090
vn 0.7156 0.2944 -0.6334
vn 0.9539 0.2943 0.0591
vn 0.9539 0.2942 0.0591
vn 0.7091 0.2942 -0.6408
vn -0.6408 0.2942 -0.7091
vn 0.0591 0.2942 -0.9539
vn -0.6334 0.2944 -0.7156
vn 0.7441 -0.0513 -0.6661
vn 0.0553 -0.0512 -0.9972
vn 0.7453 -0.0513 -0.6648
vn 0.0553 -0.0513 -0.9972
vn 0.0571 -0.0513 -0.9971
vn -0.6660 -0.0512 -0.7442
vn 0.0552 -0.0513 -0.9972
vn 0.0570 -0.0512 -0.9971
vn -0.6660 -0.0513 -0.7441
vn -0.6647 -0.0512 -0.7453
vn -0.7453 -0.0512 0.6648
vn -0.0570 -0.0513 0.9971
vn -0.0553 -0.0513 0.9972
vn -0.0571 -0.0513 0.9971
vn -0.7441 -0.0513 0.6661
vn 0.9972 -0.0513 0.0553
vn 0.6661 -0.0513 0.7441
vn 0.9971 -0.0513 0.0571
vn 0.9972 -0.0512 0.0553
vn 0.6648 -0.0513 0.7453
vn -0.7453 -0.0513 0.6647
vn -0.9971 -0.0513 -0.0570
vn -0.7442 -0.0512 0.6660
vn -0.7453 -0.0512 0.6647
vn -0.9972 -0.0513 -0.0552
vn 0.9971 -0.0513 0.0570
vn 0.7453 -0.0512 -0.6647
vn 0.9972 -0.0513 0.0552
vn 0.7453 -0.0513 -0.6647
vn -0.0552 -0.0513 0.9972
vn 0.6660 -0.0513 0.7441
vn 0.6647 -0.0512 0.7453
vn 0.6660 -0.0512 0.7442
vn -0.0570 -0.0512 0.9971
vn -0.9972 -0.0513 -0.0553
vn -0.6661 -0.0513 -0.7441
vn -0.9971 -0.0513 -0.0571
vn -0.9972 -0.0512 -0.0553
vn -0.6648 -0.0513 -0.7453
vn -0.0000 1.0000 -0.0000
vn 0.3020 0.4042 0.8634
vn -0.3969 0.4042 0.8240
vn -0.3969 0.4042 0.8241
vn -0.3969 0.4043 0.8240
vn -0.8240 0.4042 -0.3970
vn -0.3020 0.4042 -0.8634
vn -0.3020 0.4043 -0.8633
vn 0.3969 0.4042 -0.8241
vn 0.3969 0.4043 -0.8240
vn 0.3969 0.4042 -0.8240
vn 0.8240 0.4042 0.3970
vn 0.3020 0.4043 0.8634
vn -0.8634 0.4042 0.3020
vn -0.8240 0.4042 -0.3969
vn -0.8241 0.4042 -0.3969
vn -0.8240 0.4043 -0.3969
vn 0.8634 0.4042 -0.3020
vn 0.8240 0.4042 0.3969
vn 0.8241 0.4042 0.3969
vn 0.8240 0.4043 0.3969
vn -0.3970 0.4043 0.8240
vn -0.3970 0.4042 0.8240
vn 0.3970 0.4042 -0.8240
vn 0.3970 0.4043 -0.8240
vn -0.9438 0.3228 0.0706
vn -0.5331 0.3228 -0.7821
vn 0.5331 0.3228 0.7821
vn -0.4107 0.3228 0.8527
vn 0.9438 0.3228 -0.0706
vn -0.4108 0.3228 0.8527
vn 0.4107 0.3228 -0.8527
vn 0.4108 0.3228 -0.8527
vn -0.2984 0.7260 0.6196
vn -0.9476 0.3115 0.0709
vn -0.4124 0.3115 0.8561
vn -0.6858 0.7260 0.0513
vn 0.4124 0.3115 -0.8561
vn -0.3874 0.7260 -0.5683
vn 0.2985 0.7260 -0.6196
vn -0.5352 0.3115 -0.7852
vn 0.6858 0.7260 -0.0513
vn 0.5352 0.3115 0.7852
vn 0.9476 0.3115 -0.0709
vn 0.6858 0.7260 -0.0514
vn 0.3873 0.7260 0.5683
vn 0.3874 0.7260 0.5682
vn 0.3874 0.7260 0.5683
vn -0.2985 0.7260 0.6196
vn 0.3873 0.7259 0.5683
vn -0.6858 0.7260 0.0514
vn -0.2985 0.7259 0.6196
vn -0.6858 0.7259 0.0513
vn 0.3874 0.7259 0.5683
vn -0.3873 0.7259 -0.5683
vn 0.6858 0.7259 -0.0513
vn 0.2985 0.7259 -0.6196
vn 0.4124 0.3116 -0.8561
vn -0.3873 0.7260 -0.5683
vn 0.0706 0.3228 0.9438
vn -0.7821 0.3228 0.5331
vn 0.8527 0.3228 0.4108
vn -0.8527 0.3228 -0.4107
vn -0.8527 0.3228 -0.4108
vn -0.0706 0.3228 -0.9438
vn 0.7821 0.3228 -0.5331
vn 0.8527 0.3228 0.4107
vn -0.8601 0.5060 0.0644
vn -0.4858 0.5060 -0.7127
vn -0.8032 0.4530 -0.3869
vn 0.8032 -0.4530 0.3869
vn 0.4858 -0.5060 0.7127
vn 0.8601 -0.5060 -0.0644
vn 0.7367 0.4530 -0.5021
vn 0.8601 0.5060 -0.0644
vn 0.8601 0.5060 -0.0643
vn 0.3743 0.5060 -0.7771
vn -0.8601 -0.5060 0.0644
vn -0.7367 -0.4530 0.5021
vn -0.3743 -0.5060 0.7771
vn -0.0665 0.4530 -0.8890
vn 0.0665 -0.4530 0.8890
vn -0.3743 0.5060 0.7771
vn -0.7367 0.4530 0.5021
vn -0.8601 0.5060 0.0643
vn 0.3743 -0.5060 -0.7771
vn 0.7367 -0.4530 -0.5021
vn 0.3743 -0.5060 -0.7770
vn 0.4858 0.5060 0.7127
vn 0.8032 0.4530 0.3869
vn -0.8032 -0.4530 -0.3869
vn -0.4858 -0.5060 -0.7127
vn 0.0665 0.4530 0.8890
vn -0.3743 0.5060 0.7770
vn -0.0665 -0.4530 -0.8890
vn 0.7127 0.5060 -0.4858
vn 0.7771 0.5060 0.3743
vn 0.8890 0.4530 -0.0665
vn -0.8890 -0.4530 0.0665
vn -0.7771 -0.5060 -0.3743
vn -0.7127 -0.5060 0.4858
vn 0.0643 0.5060 0.8601
vn -0.3869 0.4530 0.8032
vn 0.0644 0.5060 0.8601
vn -0.7127 0.5060 0.4858
vn -0.0644 -0.5060 -0.8601
vn 0.3869 -0.4530 -0.8032
vn 0.7127 -0.5060 -0.4858
vn -0.7771 0.5060 -0.3743
vn -0.0644 0.5060 -0.8601
vn -0.5021 0.4530 -0.7367
vn 0.5021 -0.4530 0.7367
vn 0.0644 -0.5060 0.8601
vn 0.7771 -0.5060 0.3743
vn 0.3869 0.4530 -0.8032
vn -0.3869 -0.4529 0.8032
vn -0.3869 -0.4530 0.8032
vn -0.7770 0.5060 -0.3743
vn -0.8890 0.4530 0.0665
vn 0.8890 -0.4530 -0.0665
vn 0.5021 0.4529 0.7367
vn -0.5021 -0.4529 -0.7367
vn -0.8601 -0.5060 0.0643
vn -0.4858 -0.5061 -0.7127
vn 0.8032 0.4529 0.3869
vn -0.8032 -0.4529 -0.3869
vt 0.593750 0.025000
vt 0.593750 0.104996
vt 0.593750 0.225000
vt 0.093750 0.475000
vt 0.093750 0.275000
vt 0.093750 0.425000
vt 0.093750 0.348778
vt 0.093750 0.338765
vt 0.093750 0.344099
vt 0.093750 0.375000
vt 0.093750 0.325000
s 0
usemtl colormap.002
f 3/1/1 2/1/1 1/1/1
f 2/1/1 3/1/1 4/1/1
f 4/1/1 3/1/1 5/1/1
f 4/1/1 5/1/1 6/1/1
f 6/1/1 5/1/1 7/1/1
f 6/1/1 7/1/1 8/1/1
f 9/2/2 1/1/3 2/1/4
f 1/1/3 9/2/2 10/2/5
f 11/2/6 1/1/7 10/2/8
f 1/1/7 11/2/9 3/1/10
f 12/2/11 2/1/4 4/1/12
f 2/1/4 12/2/11 9/2/13
f 13/2/14 4/1/15 6/1/16
f 4/1/15 13/2/14 12/2/17
f 7/1/18 14/2/19 8/1/20
f 14/2/19 7/1/18 15/2/21
f 11/2/22 5/1/23 3/1/10
f 5/1/23 11/2/22 16/2/24
f 8/1/25 13/2/26 6/1/16
f 13/2/27 8/1/25 14/2/28
f 7/1/18 16/2/29 15/2/30
f 16/2/29 7/1/18 5/1/31
f 14/2/32 18/3/33 17/3/34
f 18/3/35 14/2/32 15/2/36
f 16/2/37 18/3/38 15/2/39
f 18/3/38 16/2/40 19/3/41
f 21/3/42 9/2/43 20/3/44
f 9/2/45 21/3/42 10/2/46
f 22/3/47 12/2/48 13/2/49
f 12/2/48 22/3/50 23/3/51
f 21/3/52 11/2/53 10/2/54
f 11/2/53 21/3/55 24/3/56
f 13/2/57 17/3/58 22/3/59
f 17/3/60 13/2/57 14/2/32
f 20/3/61 12/2/62 23/3/63
f 12/2/64 20/3/61 9/2/65
f 24/3/66 16/2/67 11/2/68
f 16/2/67 24/3/69 19/3/70
f 27/4/71 26/4/71 25/4/71
f 26/4/71 27/4/71 28/4/71
f 26/4/71 28/4/71 29/4/71
f 29/4/71 28/4/71 30/4/71
f 29/4/71 30/4/71 31/4/71
f 31/4/71 30/4/71 32/4/71
f 35/5/1 34/5/1 33/5/1
f 34/5/1 35/5/1 36/5/1
f 34/5/1 36/5/1 37/5/1
f 37/5/1 36/5/1 38/5/1
f 37/5/1 38/5/1 39/5/1
f 39/5/1 38/5/1 40/5/1
f 27/4/72 33/5/73 34/5/72
f 33/5/74 27/4/72 25/4/75
f 29/4/76 38/5/77 36/5/76
f 38/5/77 29/4/76 31/4/78
f 40/5/79 31/4/77 32/4/80
f 31/4/77 40/5/81 38/5/77
f 28/4/82 34/5/72 37/5/82
f 34/5/72 28/4/82 27/4/83
f 26/4/84 36/5/85 35/5/84
f 36/5/86 26/4/84 29/4/87
f 30/4/88 37/5/89 39/5/88
f 37/5/90 30/4/88 28/4/91
f 26/4/84 33/5/92 25/4/93
f 33/5/93 26/4/84 35/5/84
f 40/5/94 30/4/88 39/5/88
f 30/4/88 40/5/95 32/4/94
f 43/6/96 42/7/97 41/7/96
f 42/7/97 43/6/96 44/6/97
f 47/6/98 46/7/99 45/7/98
f 46/7/99 47/6/98 48/6/99
f 50/6/100 45/7/98 49/7/100
f 45/7/98 50/6/100 47/6/98
f 48/6/101 41/7/96 46/7/101
f 41/7/96 48/6/101 43/6/96
f 52/7/102 44/6/97 51/6/102
f 44/6/97 52/7/103 42/7/97
f 52/7/103 50/6/100 49/7/100
f 50/6/100 52/7/103 51/6/103
f 41/7/1 45/7/1 46/7/1
f 45/7/1 41/7/1 42/7/1
f 45/7/1 42/7/1 49/7/1
f 49/7/1 42/7/1 52/7/1
f 55/6/104 54/8/105 53/8/106
f 54/8/105 55/6/104 56/6/107
f 59/8/108 58/6/109 57/6/110
f 58/6/109 59/8/108 60/8/111
f 63/6/112 62/8/113 61/8/114
f 62/8/113 63/6/115 64/6/116
f 64/6/117 53/8/106 62/8/113
f 53/8/106 64/6/118 55/6/119
f 64/6/120 56/6/121 55/6/122
f 56/6/123 64/6/124 58/6/125
f 58/6/125 64/6/120 63/6/126
f 58/6/125 63/6/126 57/6/127
f 59/8/128 63/6/112 61/8/114
f 63/6/112 59/8/108 57/6/110
f 54/8/1 62/8/1 53/8/1
f 62/8/1 54/8/1 60/8/1
f 62/8/1 60/8/1 61/8/1
f 61/8/1 60/8/1 59/8/1
f 56/6/107 60/8/111 54/8/105
f 60/8/111 56/6/107 58/6/129
f 67/6/130 66/9/131 65/9/130
f 66/9/131 67/6/130 68/6/131
f 70/6/132 65/9/130 69/9/132
f 65/9/130 70/6/132 67/6/130
f 68/6/131 71/9/133 66/9/131
f 71/9/133 68/6/131 72/6/133
f 72/6/134 73/9/135 71/9/134
f 73/9/135 72/6/134 74/6/135
f 71/9/1 65/9/1 66/9/1
f 65/9/1 71/9/1 69/9/1
f 69/9/1 71/9/1 73/9/1
f 69/9/1 73/9/1 75/9/1
f 76/6/136 69/9/137 75/9/136
f 69/9/137 76/6/136 70/6/132
f 73/9/135 76/6/136 75/9/136
f 76/6/136 73/9/135 74/6/135
f 79/10/138 78/10/139 77/11/140
f 78/10/139 79/10/138 41/6/138
f 78/10/139 41/6/138 42/6/139
f 77/11/141 78/10/142 79/10/143
f 41/6/143 79/10/143 78/10/142
f 42/6/142 41/6/143 78/10/142
f 81/11/144 49/6/145 80/10/145
f 49/6/146 81/11/144 52/6/147
f 52/6/147 81/11/144 82/10/147
f 80/10/148 49/6/148 81/11/149
f 52/6/150 81/11/149 49/6/148
f 82/10/150 81/11/149 52/6/150
f 82/10/147 42/6/139 52/6/147
f 42/6/139 82/10/147 83/11/151
f 42/6/139 83/11/151 78/10/139
f 52/6/150 42/6/142 82/10/150
f 83/11/152 82/10/150 42/6/142
f 78/10/142 83/11/152 42/6/142
f 46/6/153 85/11/154 84/10/153
f 85/11/154 46/6/153 41/6/138
f 85/11/154 41/6/155 79/10/138
f 84/10/156 85/11/157 46/6/158
f 41/6/143 46/6/156 85/11/157
f 79/10/143 41/6/143 85/11/157
f 80/10/145 87/10/159 86/11/160
f 87/10/159 80/10/145 49/6/145
f 87/10/159 49/6/145 45/6/159
f 86/11/161 87/10/162 80/10/148
f 49/6/148 80/10/148 87/10/162
f 45/6/162 49/6/148 87/10/162
f 45/6/159 88/11/163 87/10/159
f 88/11/163 45/6/159 46/6/164
f 88/11/163 46/6/153 84/10/153
f 87/10/162 88/11/165 45/6/162
f 46/6/156 45/6/162 88/11/165
f 84/10/156 46/6/156 88/11/165
f 91/10/166 90/10/167 89/11/168
f 90/10/167 91/10/166 75/6/166
f 90/10/167 75/6/166 69/6/167
f 89/11/169 90/10/170 91/10/171
f 75/6/171 91/10/171 90/10/170
f 69/6/170 75/6/171 90/10/170
f 65/6/172 93/11/173 92/10/174
f 93/11/173 65/6/174 66/6/175
f 93/11/173 66/6/175 94/10/175
f 92/10/176 93/11/177 65/6/176
f 66/6/178 65/6/176 93/11/177
f 94/10/178 66/6/178 93/11/177
f 97/10/179 96/10/180 95/11/181
f 96/10/180 97/10/179 71/6/179
f 96/10/180 71/6/179 73/6/180
f 95/11/182 96/10/183 97/10/184
f 71/6/184 97/10/184 96/10/183
f 73/6/183 71/6/184 96/10/183
f 98/11/185 75/6/166 91/10/166
f 75/6/166 98/11/185 73/6/180
f 73/6/180 98/11/185 96/10/180
f 91/10/171 75/6/171 98/11/186
f 73/6/183 98/11/187 75/6/171
f 96/10/183 98/11/187 73/6/183
f 94/10/175 97/10/188 99/11/189
f 97/10/179 94/10/175 66/6/175
f 97/10/179 66/6/175 71/6/179
f 99/11/190 97/10/184 94/10/178
f 66/6/178 94/10/178 97/10/184
f 71/6/184 66/6/178 97/10/184
f 90/10/167 92/10/174 100/11/191
f 92/10/174 90/10/167 69/6/167
f 92/10/174 69/6/167 65/6/174
f 100/11/192 92/10/176 90/10/170
f 69/6/170 90/10/170 92/10/176
f 65/6/176 69/6/170 92/10/176
f 102/11/144 61/6/146 101/10/146
f 61/6/145 102/11/144 59/6/147
f 59/6/147 102/11/144 103/10/147
f 101/10/193 61/6/193 102/11/149
f 59/6/150 102/11/149 61/6/148
f 103/10/150 102/11/149 59/6/150
f 103/10/147 60/6/139 59/6/147
f 60/6/139 103/10/147 104/11/151
f 60/6/139 104/11/151 105/10/139
f 59/6/150 60/6/142 103/10/150
f 104/11/152 103/10/150 60/6/142
f 105/10/142 104/11/152 60/6/142
f 62/6/159 107/11/163 106/10/159
f 107/11/163 62/6/159 53/6/153
f 107/11/163 53/6/164 108/10/153
f 106/10/162 107/11/165 62/6/194
f 53/6/156 62/6/162 107/11/165
f 108/10/156 53/6/156 107/11/165
f 110/10/138 105/10/139 109/11/140
f 105/10/139 110/10/138 54/6/138
f 105/10/139 54/6/155 60/6/139
f 109/11/141 105/10/142 110/10/143
f 54/6/143 110/10/143 105/10/142
f 60/6/142 54/6/143 105/10/142
f 101/10/146 106/10/159 111/11/195
f 106/10/159 101/10/145 61/6/145
f 106/10/159 61/6/145 62/6/159
f 111/11/196 106/10/162 101/10/193
f 61/6/148 101/10/148 106/10/162
f 62/6/162 61/6/148 106/10/162
f 53/6/153 112/11/154 108/10/153
f 112/11/154 53/6/153 54/6/138
f 112/11/154 54/6/138 110/10/138
f 108/10/156 112/11/157 53/6/158
f 54/6/143 53/6/156 112/11/157
f 110/10/143 54/6/143 112/11/157
f 3/1/1 2/1/1 1/1/1
f 2/1/1 3/1/1 4/1/1
f 4/1/1 3/1/1 5/1/1
f 4/1/1 5/1/1 6/1/1
f 6/1/1 5/1/1 7/1/1
f 6/1/1 7/1/1 8/1/1
f 9/2/2 1/1/3 2/1/4
f 1/1/3 9/2/2 10/2/5
f 11/2/6 1/1/7 10/2/8
f 1/1/7 11/2/9 3/1/10
f 12/2/11 2/1/4 4/1/12
f 2/1/4 12/2/11 9/2/13
f 13/2/14 4/1/15 6/1/16
f 4/1/15 13/2/14 12/2/17
f 7/1/18 14/2/19 8/1/20
f 14/2/19 7/1/18 15/2/21
f 11/2/22 5/1/23 3/1/10
f 5/1/23 11/2/22 16/2/24
f 8/1/25 13/2/26 6/1/16
f 13/2/27 8/1/25 14/2/28
f 7/1/18 16/2/29 15/2/30
f 16/2/29 7/1/18 5/1/31
f 14/2/32 18/3/33 17/3/34
f 18/3/35 14/2/32 15/2/36
f 16/2/37 18/3/38 15/2/39
f 18/3/38 16/2/40 19/3/41
f 21/3/42 9/2/43 20/3/44
f 9/2/45 21/3/42 10/2/46
f 22/3/47 12/2/48 13/2/49
f 12/2/48 22/3/50 23/3/51
f 21/3/52 11/2/53 10/2/54
f 11/2/53 21/3/55 24/3/56
f 13/2/57 17/3/58 22/3/59
f 17/3/60 13/2/57 14/2/32
f 20/3/61 12/2/62 23/3/63
f 12/2/64 20/3/61 9/2/65
f 24/3/66 16/2/67 11/2/68
f 16/2/67 24/3/69 19/3/70
f 27/4/71 26/4/71 25/4/71
f 26/4/71 27/4/71 28/4/71
f 26/4/71 28/4/71 29/4/71
f 29/4/71 28/4/71 30/4/71
f 29/4/71 30/4/71 31/4/71
f 31/4/71 30/4/71 32/4/71
f 35/5/1 34/5/1 33/5/1
f 34/5/1 35/5/1 36/5/1
f 34/5/1 36/5/1 37/5/1
f 37/5/1 36/5/1 38/5/1
f 37/5/1 38/5/1 39/5/1
f 39/5/1 38/5/1 40/5/1
f 27/4/72 33/5/73 34/5/72
f 33/5/74 27/4/72 25/4/75
f 29/4/76 38/5/77 36/5/76
f 38/5/77 29/4/76 31/4/78
f 40/5/79 31/4/77 32/4/80
f 31/4/77 40/5/81 38/5/77
f 28/4/82 34/5/72 37/5/82
f 34/5/72 28/4/82 27/4/83
f 26/4/84 36/5/85 35/5/84
f 36/5/86 26/4/84 29/4/87
f 30/4/88 37/5/89 39/5/88
f 37/5/90 30/4/88 28/4/91
f 26/4/84 33/5/92 25/4/93
f 33/5/93 26/4/84 35/5/84
f 40/5/94 30/4/88 39/5/88
f 30/4/88 40/5/95 32/4/94
f 43/6/96 42/7/97 41/7/96
f 42/7/97 43/6/96 44/6/97
f 47/6/98 46/7/99 45/7/98
f 46/7/99 47/6/98 48/6/99
f 50/6/100 45/7/98 49/7/100
f 45/7/98 50/6/100 47/6/98
f 48/6/101 41/7/96 46/7/101
f 41/7/96 48/6/101 43/6/96
f 52/7/102 44/6/97 51/6/102
f 44/6/97 52/7/103 42/7/97
f 52/7/103 50/6/100 49/7/100
f 50/6/100 52/7/103 51/6/103
f 41/7/1 45/7/1 46/7/1
f 45/7/1 41/7/1 42/7/1
f 45/7/1 42/7/1 49/7/1
f 49/7/1 42/7/1 52/7/1
f 55/6/104 54/8/105 53/8/106
f 54/8/105 55/6/104 56/6/107
f 59/8/108 58/6/109 57/6/110
f 58/6/109 59/8/108 60/8/111
f 63/6/112 62/8/113 61/8/114
f 62/8/113 63/6/115 64/6/116
f 64/6/117 53/8/106 62/8/113
f 53/8/106 64/6/118 55/6/119
f 64/6/120 56/6/121 55/6/122
f 56/6/123 64/6/124 58/6/125
f 58/6/125 64/6/120 63/6/126
f 58/6/125 63/6/126 57/6/127
f 59/8/128 63/6/112 61/8/114
f 63/6/112 59/8/108 57/6/110
f 54/8/1 62/8/1 53/8/1
f 62/8/1 54/8/1 60/8/1
f 62/8/1 60/8/1 61/8/1
f 61/8/1 60/8/1 59/8/1
f 56/6/107 60/8/111 54/8/105
f 60/8/111 56/6/107 58/6/129
f 67/6/130 66/9/131 65/9/130
f 66/9/131 67/6/130 68/6/131
f 70/6/132 65/9/130 69/9/132
f 65/9/130 70/6/132 67/6/130
f 68/6/131 71/9/133 66/9/131
f 71/9/133 68/6/131 72/6/133
f 72/6/134 73/9/135 71/9/134
f 73/9/135 72/6/134 74/6/135
f 71/9/1 65/9/1 66/9/1
f 65/9/1 71/9/1 69/9/1
f 69/9/1 71/9/1 73/9/1
f 69/9/1 73/9/1 75/9/1
f 76/6/136 69/9/137 75/9/136
f 69/9/137 76/6/136 70/6/132
f 73/9/135 76/6/136 75/9/136
f 76/6/136 73/9/135 74/6/135
f 79/10/138 78/10/139 77/11/140
f 78/10/139 79/10/138 41/6/138
f 78/10/139 41/6/138 42/6/139
f 77/11/141 78/10/142 79/10/143
f 41/6/143 79/10/143 78/10/142
f 42/6/142 41/6/143 78/10/142
f 81/11/144 49/6/145 80/10/145
f 49/6/146 81/11/144 52/6/147
f 52/6/147 81/11/144 82/10/147
f 80/10/148 49/6/148 81/11/149
f 52/6/150 81/11/149 49/6/148
f 82/10/150 81/11/149 52/6/150
f 82/10/147 42/6/139 52/6/147
f 42/6/139 82/10/147 83/11/151
f 42/6/139 83/11/151 78/10/139
f 52/6/150 42/6/142 82/10/150
f 83/11/152 82/10/150 42/6/142
f 78/10/142 83/11/152 42/6/142
f 46/6/153 85/11/154 84/10/153
f 85/11/154 46/6/153 41/6/138
f 85/11/154 41/6/155 79/10/138
f 84/10/156 85/11/157 46/6/158
f 41/6/143 46/6/156 85/11/157
f 79/10/143 41/6/143 85/11/157
f 80/10/145 87/10/159 86/11/160
f 87/10/159 80/10/145 49/6/145
f 87/10/159 49/6/145 45/6/159
f 86/11/161 87/10/162 80/10/148
f 49/6/148 80/10/148 87/10/162
f 45/6/162 49/6/148 87/10/162
f 45/6/159 88/11/163 87/10/159
f 88/11/163 45/6/159 46/6/164
f 88/11/163 46/6/153 84/10/153
f 87/10/162 88/11/165 45/6/162
f 46/6/156 45/6/162 88/11/165
f 84/10/156 46/6/156 88/11/165
f 91/10/166 90/10/167 89/11/168
f 90/10/167 91/10/166 75/6/166
f 90/10/167 75/6/166 69/6/167
f 89/11/169 90/10/170 91/10/171
f 75/6/171 91/10/171 90/10/170
f 69/6/170 75/6/171 90/10/170
f 65/6/172 93/11/173 92/10/174
f 93/11/173 65/6/174 66/6/175
f 93/11/173 66/6/175 94/10/175
f 92/10/176 93/11/177 65/6/176
f 66/6/178 65/6/176 93/11/177
f 94/10/178 66/6/178 93/11/177
f 97/10/179 96/10/180 95/11/181
f 96/10/180 97/10/179 71/6/179
f 96/10/180 71/6/179 73/6/180
f 95/11/182 96/10/183 97/10/184
f 71/6/184 97/10/184 96/10/183
f 73/6/183 71/6/184 96/10/183
f 98/11/185 75/6/166 91/10/166
f 75/6/166 98/11/185 73/6/180
f 73/6/180 98/11/185 96/10/180
f 91/10/171 75/6/171 98/11/186
f 73/6/183 98/11/187 75/6/171
f 96/10/183 98/11/187 73/6/183
f 94/10/175 97/10/188 99/11/189
f 97/10/179 94/10/175 66/6/175
f 97/10/179 66/6/175 71/6/179
f 99/11/190 97/10/184 94/10/178
f 66/6/178 94/10/178 97/10/184
f 71/6/184 66/6/178 97/10/184
f 90/10/167 92/10/174 100/11/191
f 92/10/174 90/10/167 69/6/167
f 92/10/174 69/6/167 65/6/174
f 100/11/192 92/10/176 90/10/170
f 69/6/170 90/10/170 92/10/176
f 65/6/176 69/6/170 92/10/176
f 102/11/144 61/6/146 101/10/146
f 61/6/145 102/11/144 59/6/147
f 59/6/147 102/11/144 103/10/147
f 101/10/193 61/6/193 102/11/149
f 59/6/150 102/11/149 61/6/148
f 103/10/150 102/11/149 59/6/150
f 103/10/147 60/6/139 59/6/147
f 60/6/139 103/10/147 104/11/151
f 60/6/139 104/11/151 105/10/139
f 59/6/150 60/6/142 103/10/150
f 104/11/152 103/10/150 60/6/142
f 105/10/142 104/11/152 60/6/142
f 62/6/159 107/11/163 106/10/159
f 107/11/163 62/6/159 53/6/153
f 107/11/163 53/6/164 108/10/153
f 106/10/162 107/11/165 62/6/194
f 53/6/156 62/6/162 107/11/165
f 108/10/156 53/6/156 107/11/165
f 110/10/138 105/10/139 109/11/140
f 105/10/139 110/10/138 54/6/138
f 105/10/139 54/6/155 60/6/139
f 109/11/141 105/10/142 110/10/143
f 54/6/143 110/10/143 105/10/142
f 60/6/142 54/6/143 105/10/142
f 101/10/146 106/10/159 111/11/195
f 106/10/159 101/10/145 61/6/145
f 106/10/159 61/6/145 62/6/159
f 111/11/196 106/10/162 101/10/193
f 61/6/148 101/10/148 106/10/162
f 62/6/162 61/6/148 106/10/162
f 53/6/153 112/11/154 108/10/153
f 112/11/154 53/6/153 54/6/138
f 112/11/154 54/6/138 110/10/138
f 108/10/156 112/11/157 53/6/158
f 54/6/143 53/6/156 112/11/157
f 110/10/143 54/6/143 112/11/157
