# Blender 4.1.1
# www.blender.org
mtllib tree.034.mtl
o tree.034
v -15.437197 -0.382804 -17.517269
v -15.219364 -0.382804 -17.631958
v -15.603457 -0.382804 -17.568842
v -15.167792 -0.382804 -17.798218
v -15.718144 -0.382804 -17.786674
v -15.282479 -0.382804 -18.016050
v -15.666573 -0.382804 -17.952934
v -15.448740 -0.382804 -18.067623
v -15.331166 0.062918 -17.712202
v -15.440083 0.062918 -17.654858
v -15.523212 0.062918 -17.680645
v -15.305380 0.062918 -17.795332
v -15.362724 0.062918 -17.904247
v -15.445854 0.062918 -17.930035
v -15.554770 0.062918 -17.872690
v -15.580557 0.062918 -17.789560
v -15.446575 0.731552 -17.964432
v -15.582721 0.731552 -17.892752
v -15.614953 0.731552 -17.788839
v -15.303216 0.731552 -17.692141
v -15.439362 0.731552 -17.620461
v -15.342663 0.731552 -17.932198
v -15.270983 0.731552 -17.796053
v -15.543274 0.731552 -17.652695
v -15.294947 0.222058 -17.640448
v -15.391129 0.222058 -17.631582
v -15.233205 0.222058 -17.714727
v -15.242071 0.222058 -17.810909
v -15.465408 0.222058 -17.693323
v -15.316351 0.222058 -17.872652
v -15.474274 0.222058 -17.789505
v -15.412532 0.222058 -17.863785
v -15.261645 0.060318 -17.577198
v -15.164932 0.060318 -17.693550
v -15.412306 0.060318 -17.563311
v -15.528659 0.060318 -17.660023
v -15.178820 0.060318 -17.844212
v -15.542546 0.060318 -17.810682
v -15.295173 0.060318 -17.940924
v -15.445833 0.060318 -17.927036
v -15.775523 0.731552 -17.284420
v -16.061134 0.731552 -17.826899
v -15.641457 1.468507 -17.497038
v -15.809969 1.468507 -17.817102
v -14.835921 0.731552 -17.779114
v -15.162916 0.731552 -17.260527
v -15.087088 1.468507 -17.788910
v -15.280016 1.468507 -17.482943
v -15.121533 0.731552 -18.321594
v -15.255600 1.468507 -18.108974
v -15.617041 1.468507 -18.123072
v -15.734140 0.731552 -18.345486
v -15.283844 2.260255 -17.490211
v -15.637074 2.260255 -17.503988
v -15.410676 3.090716 -17.731112
v -15.491865 3.090716 -17.734278
v -15.486381 3.090716 -17.874901
v -15.529717 3.090716 -17.806173
v -15.613213 2.260255 -18.115801
v -15.801759 2.260255 -17.816782
v -15.259983 2.260255 -18.102024
v -15.095298 2.260255 -17.789230
v -15.405191 3.090716 -17.871735
v -15.367339 3.090716 -17.799841
v -15.026913 1.468507 -17.537157
v -15.467953 1.468507 -17.304953
v -15.255340 2.260255 -17.681192
v -15.457429 2.260255 -17.574793
v -15.007488 1.468507 -18.035212
v -15.246439 2.260255 -17.909405
v -15.889568 1.468507 -17.570801
v -15.650618 2.260255 -17.696608
v -15.870144 1.468507 -18.068855
v -15.641717 2.260255 -17.924822
v -15.429104 1.468507 -18.301062
v -15.439628 2.260255 -18.031221
v -16.021685 0.501649 -17.501244
v -16.128523 0.616601 -17.829527
v -15.811492 0.616601 -17.227375
v -15.085565 0.616601 -18.378639
v -15.423285 0.501649 -18.450256
v -15.765558 0.616601 -18.405159
v -15.996442 0.501649 -18.148493
v -15.131498 0.616601 -17.200855
v -15.473771 0.501649 -17.155756
v -14.875371 0.501649 -18.104771
v -14.768535 0.616601 -17.776487
v -14.900615 0.501649 -17.457520
v -15.167645 1.281595 -18.248465
v -14.958974 1.375051 -18.060755
v -15.426968 1.375051 -18.355846
v -14.980535 1.375051 -17.507914
v -15.203192 1.281595 -17.337025
v -15.470089 1.375051 -17.250166
v -15.974749 1.281595 -17.823530
v -15.916522 1.375051 -18.098099
v -15.938083 1.375051 -17.545259
v -15.693865 1.281595 -18.268988
v -15.729411 1.281595 -17.357548
v -14.922308 1.281595 -17.782484
v -15.239243 2.193974 -18.134916
v -15.433973 2.127692 -18.176212
v -15.631328 2.193974 -18.150208
v -15.764456 2.127692 -18.002214
v -15.840613 2.193974 -17.818298
v -15.056442 2.193974 -17.787716
v -15.132601 2.127692 -17.603798
v -15.265728 2.193974 -17.455805
v -15.779012 2.127692 -17.629009
v -15.657814 2.193974 -17.471096
v -15.118045 2.127692 -17.977005
v -15.463083 2.127692 -17.429802
vn -0.0000 -1.0000 -0.0000
vn 0.7315 0.2942 0.6151
vn 0.0834 0.2944 0.9520
vn 0.7377 0.2944 0.6075
vn 0.0932 0.2942 0.9512
vn -0.6151 0.2942 0.7315
vn 0.0833 0.2944 0.9520
vn 0.0931 0.2942 0.9512
vn -0.6151 0.2943 0.7315
vn -0.6075 0.2944 0.7378
vn 0.9512 0.2942 -0.0931
vn 0.7378 0.2944 0.6075
vn 0.9520 0.2944 -0.0833
vn 0.6152 0.2942 -0.7314
vn 0.6075 0.2944 -0.7377
vn 0.9520 0.2944 -0.0834
vn 0.6151 0.2942 -0.7315
vn 0.9512 0.2942 -0.0932
vn -0.7377 0.2944 -0.6075
vn -0.0932 0.2942 -0.9512
vn -0.0834 0.2944 -0.9520
vn -0.7315 0.2942 -0.6151
vn -0.9520 0.2944 0.0834
vn -0.6075 0.2944 0.7377
vn -0.9512 0.2942 0.0932
vn -0.0833 0.2944 -0.9520
vn 0.6075 0.2944 -0.7378
vn -0.0931 0.2942 -0.9512
vn -0.7378 0.2944 -0.6075
vn -0.9512 0.2942 0.0931
vn -0.9520 0.2944 0.0833
vn -0.0926 -0.0513 -0.9944
vn -0.7685 -0.0512 -0.6377
vn -0.0908 -0.0513 -0.9945
vn -0.7686 -0.0513 -0.6377
vn -0.7674 -0.0513 -0.6391
vn -0.9944 -0.0512 0.0926
vn -0.7675 -0.0512 -0.6390
vn -0.9944 -0.0513 0.0925
vn -0.9946 -0.0512 0.0908
vn 0.0909 -0.0512 0.9945
vn 0.7674 -0.0513 0.6391
vn 0.7686 -0.0513 0.6377
vn 0.0908 -0.0512 0.9945
vn 0.0926 -0.0513 0.9944
vn 0.6377 -0.0513 -0.7686
vn 0.9944 -0.0513 -0.0926
vn 0.6391 -0.0513 -0.7674
vn 0.6377 -0.0512 -0.7686
vn 0.9945 -0.0513 -0.0908
vn 0.0908 -0.0513 0.9946
vn -0.6391 -0.0513 0.7674
vn 0.0925 -0.0513 0.9944
vn 0.0908 -0.0512 0.9946
vn -0.6377 -0.0513 0.7686
vn -0.0908 -0.0512 -0.9946
vn -0.0925 -0.0512 -0.9944
vn 0.9944 -0.0513 -0.0925
vn 0.9946 -0.0512 -0.0908
vn 0.9944 -0.0512 -0.0925
vn 0.7674 -0.0512 0.6391
vn -0.6377 -0.0513 0.7685
vn -0.9944 -0.0513 0.0926
vn -0.6377 -0.0512 0.7686
vn -0.9945 -0.0513 0.0908
vn -0.0000 1.0000 -0.0000
vn 0.8736 0.4042 0.2710
vn 0.4261 0.4042 0.8093
vn 0.4261 0.4043 0.8093
vn -0.8094 0.4042 0.4261
vn -0.8736 0.4042 -0.2710
vn -0.8736 0.4043 -0.2710
vn -0.4261 0.4042 -0.8093
vn -0.4261 0.4043 -0.8093
vn -0.4262 0.4042 -0.8093
vn 0.8094 0.4042 -0.4261
vn 0.8736 0.4042 0.2709
vn 0.8093 0.4042 -0.4261
vn 0.8736 0.4043 0.2709
vn -0.2710 0.4042 0.8736
vn -0.8093 0.4042 0.4261
vn -0.8093 0.4043 0.4261
vn 0.2710 0.4042 -0.8736
vn 0.8093 0.4043 -0.4261
vn 0.4261 0.4042 0.8094
vn -0.4261 0.4042 -0.8094
vn 0.2709 0.4042 -0.8736
vn -0.5048 0.3228 0.8006
vn -0.9458 0.3228 -0.0369
vn 0.9457 0.3228 0.0369
vn 0.4409 0.3228 0.8375
vn 0.9458 0.3228 0.0369
vn 0.5048 0.3228 -0.8006
vn -0.4409 0.3228 -0.8375
vn -0.9457 0.3228 -0.0369
vn 0.3204 0.7260 0.6085
vn -0.5068 0.3115 0.8038
vn 0.4427 0.3115 0.8408
vn -0.3669 0.7260 0.5817
vn -0.4427 0.3115 -0.8408
vn -0.6872 0.7260 -0.0267
vn -0.3204 0.7260 -0.6086
vn -0.6872 0.7260 -0.0268
vn -0.9495 0.3115 -0.0370
vn 0.3668 0.7260 -0.5818
vn 0.9495 0.3115 0.0370
vn 0.5068 0.3115 -0.8038
vn 0.6872 0.7260 0.0269
vn 0.6872 0.7260 0.0268
vn 0.9495 0.3115 0.0371
vn 0.6872 0.7260 0.0267
vn 0.3204 0.7260 0.6086
vn -0.3668 0.7259 0.5818
vn 0.3204 0.7259 0.6086
vn -0.3668 0.7259 0.5817
vn 0.6872 0.7259 0.0268
vn -0.6872 0.7259 -0.0268
vn 0.3668 0.7259 -0.5818
vn -0.3204 0.7259 -0.6086
vn -0.4427 0.3116 -0.8408
vn 0.3668 0.7260 -0.5817
vn -0.3204 0.7260 -0.6085
vn -0.3668 0.7260 0.5818
vn -0.6872 0.7260 -0.0269
vn 0.8006 0.3228 0.5048
vn -0.0369 0.3228 0.9457
vn -0.0369 0.3228 0.9458
vn 0.8375 0.3228 -0.4409
vn -0.8375 0.3228 0.4409
vn -0.8006 0.3228 -0.5048
vn 0.0369 0.3228 -0.9457
vn 0.0369 0.3228 -0.9458
vn -0.4600 0.5060 0.7296
vn -0.8619 0.5060 -0.0336
vn -0.7889 0.4529 0.4153
vn 0.7889 -0.4529 -0.4153
vn 0.8619 -0.5060 0.0336
vn 0.4600 -0.5060 -0.7296
vn 0.4600 -0.5061 -0.7296
vn 0.0347 0.4530 -0.8909
vn 0.4600 0.5060 -0.7296
vn -0.4018 0.5060 -0.7632
vn 0.0347 0.4530 -0.8908
vn -0.4600 -0.5060 0.7296
vn -0.0347 -0.4530 0.8909
vn 0.4018 -0.5060 0.7632
vn -0.0347 -0.4530 0.8908
vn 0.4018 -0.5061 0.7632
vn -0.7541 0.4530 -0.4755
vn 0.7541 -0.4530 0.4755
vn 0.8618 -0.5060 0.0336
vn 0.4018 0.5060 0.7632
vn -0.0347 0.4529 0.8909
vn -0.0347 0.4530 0.8909
vn -0.0347 0.4530 0.8908
vn -0.4600 0.5061 0.7296
vn -0.4018 -0.5060 -0.7632
vn 0.0347 -0.4529 -0.8909
vn 0.4601 -0.5060 -0.7296
vn 0.0347 -0.4530 -0.8909
vn 0.0347 -0.4530 -0.8908
vn 0.8619 0.5060 0.0336
vn 0.7889 0.4530 -0.4153
vn -0.7889 -0.4530 0.4153
vn -0.8619 -0.5060 -0.0336
vn 0.7541 0.4529 0.4755
vn 0.7541 0.4530 0.4755
vn -0.7541 -0.4529 -0.4755
vn -0.7541 -0.4530 -0.4755
vn 0.0336 0.5060 -0.8619
vn 0.7632 0.5060 -0.4018
vn 0.4755 0.4529 -0.7541
vn -0.4755 -0.4529 0.7541
vn -0.7632 -0.5060 0.4018
vn -0.0336 -0.5060 0.8619
vn -0.0336 -0.5061 0.8618
vn 0.7296 0.5060 0.4600
vn 0.4153 0.4530 0.7889
vn 0.7296 0.5060 0.4601
vn -0.0336 0.5060 0.8619
vn -0.7296 -0.5060 -0.4600
vn -0.4153 -0.4530 -0.7889
vn 0.0336 -0.5060 -0.8619
vn -0.4153 -0.4529 -0.7889
vn -0.7632 0.5060 0.4018
vn -0.7296 0.5060 -0.4600
vn -0.8909 0.4530 -0.0347
vn -0.7296 0.5060 -0.4601
vn 0.8909 -0.4530 0.0347
vn 0.7296 -0.5060 0.4601
vn 0.7632 -0.5060 -0.4018
vn 0.7296 -0.5060 0.4600
vn -0.4153 0.4529 -0.7889
vn -0.4153 0.4530 -0.7889
vn 0.4153 -0.4530 0.7889
vn -0.4755 0.4530 0.7541
vn 0.4755 -0.4530 -0.7541
vn 0.8909 0.4530 0.0347
vn -0.8909 -0.4530 -0.0347
vn -0.7296 -0.5060 -0.4601
vn 0.0347 0.4529 -0.8909
vn -0.0347 -0.4529 0.8909
vn -0.4601 -0.5060 0.7296
vn -0.7541 0.4529 -0.4755
vn -0.7889 0.4530 0.4153
vn -0.4601 0.5060 0.7296
vn 0.7889 -0.4530 -0.4153
vn 0.8618 0.5061 0.0336
vt 0.593750 0.025000
vt 0.593750 0.104996
vt 0.593750 0.225000
vt 0.093750 0.475000
vt 0.093750 0.275000
vt 0.093750 0.425000
vt 0.093750 0.348778
vt 0.093750 0.338765
vt 0.093750 0.344099
vt 0.093750 0.375000
vt 0.093750 0.325000
s 0
usemtl colormap.037
f 3/1/1 2/1/1 1/1/1
f 2/1/1 3/1/1 4/1/1
f 4/1/1 3/1/1 5/1/1
f 4/1/1 5/1/1 6/1/1
f 6/1/1 5/1/1 7/1/1
f 6/1/1 7/1/1 8/1/1
f 9/2/2 1/1/3 2/1/4
f 1/1/3 9/2/2 10/2/5
f 11/2/6 1/1/7 10/2/8
f 1/1/7 11/2/9 3/1/10
f 12/2/11 2/1/12 4/1/13
f 2/1/12 12/2/11 9/2/2
f 13/2/14 4/1/13 6/1/15
f 4/1/16 13/2/17 12/2/18
f 7/1/19 14/2/20 8/1/21
f 14/2/20 7/1/19 15/2/22
f 11/2/6 5/1/23 3/1/24
f 5/1/23 11/2/6 16/2/25
f 8/1/26 13/2/17 6/1/27
f 13/2/17 8/1/26 14/2/28
f 7/1/29 16/2/30 15/2/22
f 16/2/30 7/1/29 5/1/31
f 14/2/32 18/3/33 17/3/34
f 18/3/35 14/2/32 15/2/36
f 16/2/37 18/3/35 15/2/38
f 18/3/35 16/2/39 19/3/40
f 21/3/41 9/2/42 20/3/43
f 9/2/42 21/3/44 10/2/45
f 22/3/46 12/2/47 13/2/48
f 12/2/47 22/3/49 23/3/50
f 21/3/51 11/2/52 10/2/53
f 11/2/52 21/3/54 24/3/55
f 13/2/48 17/3/56 22/3/46
f 17/3/34 13/2/48 14/2/57
f 20/3/43 12/2/58 23/3/59
f 12/2/60 20/3/43 9/2/61
f 24/3/62 16/2/63 11/2/52
f 16/2/63 24/3/64 19/3/65
f 27/4/66 26/4/66 25/4/66
f 26/4/66 27/4/66 28/4/66
f 26/4/66 28/4/66 29/4/66
f 29/4/66 28/4/66 30/4/66
f 29/4/66 30/4/66 31/4/66
f 31/4/66 30/4/66 32/4/66
f 35/5/1 34/5/1 33/5/1
f 34/5/1 35/5/1 36/5/1
f 34/5/1 36/5/1 37/5/1
f 37/5/1 36/5/1 38/5/1
f 37/5/1 38/5/1 39/5/1
f 39/5/1 38/5/1 40/5/1
f 27/4/67 33/5/68 34/5/67
f 33/5/68 27/4/67 25/4/69
f 29/4/70 38/5/71 36/5/70
f 38/5/71 29/4/70 31/4/72
f 40/5/73 31/4/71 32/4/74
f 31/4/71 40/5/75 38/5/71
f 28/4/76 34/5/67 37/5/76
f 34/5/77 28/4/78 27/4/79
f 26/4/80 36/5/81 35/5/80
f 36/5/81 26/4/80 29/4/82
f 30/4/83 37/5/78 39/5/83
f 37/5/78 30/4/83 28/4/84
f 26/4/80 33/5/69 25/4/85
f 33/5/85 26/4/80 35/5/80
f 40/5/86 30/4/83 39/5/83
f 30/4/87 40/5/74 32/4/73
f 43/6/88 42/7/89 41/7/88
f 42/7/89 43/6/88 44/6/89
f 47/6/90 46/7/91 45/7/90
f 46/7/91 47/6/92 48/6/91
f 50/6/93 45/7/92 49/7/93
f 45/7/92 50/6/93 47/6/92
f 48/6/91 41/7/88 46/7/91
f 41/7/88 48/6/91 43/6/88
f 52/7/94 44/6/89 51/6/94
f 44/6/95 52/7/94 42/7/95
f 52/7/94 50/6/93 49/7/93
f 50/6/93 52/7/94 51/6/94
f 41/7/1 45/7/1 46/7/1
f 45/7/1 41/7/1 42/7/1
f 45/7/1 42/7/1 49/7/1
f 49/7/1 42/7/1 52/7/1
f 55/6/96 54/8/97 53/8/98
f 54/8/97 55/6/96 56/6/99
f 59/8/100 58/6/101 57/6/102
f 58/6/103 59/8/100 60/8/104
f 63/6/105 62/8/106 61/8/107
f 62/8/106 63/6/105 64/6/108
f 64/6/109 53/8/98 62/8/110
f 53/8/98 64/6/111 55/6/112
f 64/6/109 56/6/113 55/6/114
f 56/6/115 64/6/116 58/6/117
f 58/6/103 64/6/116 63/6/118
f 58/6/117 63/6/118 57/6/119
f 59/8/120 63/6/121 61/8/107
f 63/6/121 59/8/100 57/6/122
f 54/8/1 62/8/1 53/8/1
f 62/8/1 54/8/1 60/8/1
f 62/8/1 60/8/1 61/8/1
f 61/8/1 60/8/1 59/8/1
f 56/6/123 60/8/104 54/8/97
f 60/8/104 56/6/123 58/6/124
f 67/6/125 66/9/126 65/9/125
f 66/9/126 67/6/125 68/6/127
f 70/6/128 65/9/125 69/9/128
f 65/9/125 70/6/128 67/6/125
f 68/6/126 71/9/129 66/9/126
f 71/9/129 68/6/126 72/6/129
f 72/6/129 73/9/130 71/9/129
f 73/9/130 72/6/129 74/6/130
f 71/9/1 65/9/1 66/9/1
f 65/9/1 71/9/1 69/9/1
f 69/9/1 71/9/1 73/9/1
f 69/9/1 73/9/1 75/9/1
f 76/6/131 69/9/128 75/9/131
f 69/9/128 76/6/132 70/6/128
f 73/9/130 76/6/131 75/9/131
f 76/6/131 73/9/130 74/6/130
f 79/10/133 78/10/134 77/11/135
f 78/10/134 79/10/133 41/6/133
f 78/10/134 41/6/133 42/6/134
f 77/11/136 78/10/137 79/10/138
f 41/6/138 79/10/138 78/10/137
f 42/6/137 41/6/139 78/10/137
f 81/11/140 49/6/141 80/10/141
f 49/6/141 81/11/140 52/6/142
f 52/6/142 81/11/143 82/10/142
f 80/10/144 49/6/144 81/11/145
f 52/6/146 81/11/145 49/6/144
f 82/10/146 81/11/147 52/6/148
f 82/10/142 42/6/134 52/6/142
f 42/6/134 82/10/142 83/11/149
f 42/6/134 83/11/149 78/10/134
f 52/6/146 42/6/137 82/10/146
f 83/11/150 82/10/146 42/6/137
f 78/10/137 83/11/150 42/6/151
f 46/6/152 85/11/153 84/10/152
f 85/11/154 46/6/152 41/6/133
f 85/11/155 41/6/156 79/10/133
f 84/10/157 85/11/158 46/6/157
f 41/6/159 46/6/157 85/11/160
f 79/10/138 41/6/138 85/11/161
f 80/10/141 87/10/162 86/11/163
f 87/10/162 80/10/141 49/6/141
f 87/10/162 49/6/141 45/6/162
f 86/11/164 87/10/165 80/10/144
f 49/6/144 80/10/144 87/10/165
f 45/6/165 49/6/144 87/10/165
f 45/6/162 88/11/166 87/10/162
f 88/11/167 45/6/162 46/6/152
f 88/11/167 46/6/152 84/10/152
f 87/10/165 88/11/168 45/6/165
f 46/6/157 45/6/165 88/11/169
f 84/10/157 46/6/157 88/11/169
f 91/10/170 90/10/171 89/11/172
f 90/10/171 91/10/170 75/6/170
f 90/10/171 75/6/170 69/6/171
f 89/11/173 90/10/174 91/10/175
f 75/6/175 91/10/175 90/10/174
f 69/6/174 75/6/176 90/10/174
f 65/6/177 93/11/178 92/10/177
f 93/11/178 65/6/179 66/6/180
f 93/11/178 66/6/180 94/10/180
f 92/10/181 93/11/182 65/6/181
f 66/6/183 65/6/181 93/11/182
f 94/10/183 66/6/183 93/11/184
f 97/10/185 96/10/186 95/11/187
f 96/10/186 97/10/185 71/6/185
f 96/10/188 71/6/185 73/6/186
f 95/11/189 96/10/190 97/10/191
f 71/6/191 97/10/191 96/10/192
f 73/6/192 71/6/191 96/10/190
f 98/11/193 75/6/170 91/10/170
f 75/6/170 98/11/194 73/6/188
f 73/6/186 98/11/194 96/10/188
f 91/10/175 75/6/175 98/11/195
f 73/6/192 98/11/195 75/6/175
f 96/10/190 98/11/195 73/6/192
f 94/10/180 97/10/185 99/11/196
f 97/10/185 94/10/180 66/6/180
f 97/10/185 66/6/180 71/6/185
f 99/11/197 97/10/191 94/10/183
f 66/6/183 94/10/183 97/10/191
f 71/6/191 66/6/183 97/10/191
f 90/10/171 92/10/177 100/11/198
f 92/10/177 90/10/171 69/6/171
f 92/10/179 69/6/171 65/6/177
f 100/11/199 92/10/181 90/10/174
f 69/6/174 90/10/174 92/10/200
f 65/6/181 69/6/174 92/10/200
f 102/11/201 61/6/141 101/10/141
f 61/6/141 102/11/140 59/6/142
f 59/6/142 102/11/201 103/10/142
f 101/10/144 61/6/144 102/11/202
f 59/6/146 102/11/145 61/6/203
f 103/10/146 102/11/202 59/6/146
f 103/10/142 60/6/134 59/6/142
f 60/6/134 103/10/142 104/11/149
f 60/6/134 104/11/204 105/10/134
f 59/6/146 60/6/137 103/10/146
f 104/11/150 103/10/146 60/6/137
f 105/10/137 104/11/150 60/6/137
f 62/6/162 107/11/167 106/10/162
f 107/11/167 62/6/162 53/6/152
f 107/11/167 53/6/152 108/10/152
f 106/10/165 107/11/169 62/6/165
f 53/6/157 62/6/165 107/11/169
f 108/10/157 53/6/157 107/11/169
f 110/10/133 105/10/134 109/11/205
f 105/10/134 110/10/133 54/6/133
f 105/10/134 54/6/206 60/6/134
f 109/11/207 105/10/137 110/10/138
f 54/6/138 110/10/138 105/10/137
f 60/6/137 54/6/159 105/10/137
f 101/10/141 106/10/208 111/11/163
f 106/10/162 101/10/141 61/6/141
f 106/10/162 61/6/141 62/6/162
f 111/11/164 106/10/165 101/10/144
f 61/6/144 101/10/144 106/10/165
f 62/6/165 61/6/144 106/10/165
f 53/6/152 112/11/154 108/10/152
f 112/11/153 53/6/152 54/6/133
f 112/11/155 54/6/156 110/10/133
f 108/10/157 112/11/160 53/6/157
f 54/6/159 53/6/157 112/11/158
f 110/10/138 54/6/138 112/11/160
f 3/1/1 2/1/1 1/1/1
f 2/1/1 3/1/1 4/1/1
f 4/1/1 3/1/1 5/1/1
f 4/1/1 5/1/1 6/1/1
f 6/1/1 5/1/1 7/1/1
f 6/1/1 7/1/1 8/1/1
f 9/2/2 1/1/3 2/1/4
f 1/1/3 9/2/2 10/2/5
f 11/2/6 1/1/7 10/2/8
f 1/1/7 11/2/9 3/1/10
f 12/2/11 2/1/12 4/1/13
f 2/1/12 12/2/11 9/2/2
f 13/2/14 4/1/13 6/1/15
f 4/1/16 13/2/17 12/2/18
f 7/1/19 14/2/20 8/1/21
f 14/2/20 7/1/19 15/2/22
f 11/2/6 5/1/23 3/1/24
f 5/1/23 11/2/6 16/2/25
f 8/1/26 13/2/17 6/1/27
f 13/2/17 8/1/26 14/2/28
f 7/1/29 16/2/30 15/2/22
f 16/2/30 7/1/29 5/1/31
f 14/2/32 18/3/33 17/3/34
f 18/3/35 14/2/32 15/2/36
f 16/2/37 18/3/35 15/2/38
f 18/3/35 16/2/39 19/3/40
f 21/3/41 9/2/42 20/3/43
f 9/2/42 21/3/44 10/2/45
f 22/3/46 12/2/47 13/2/48
f 12/2/47 22/3/49 23/3/50
f 21/3/51 11/2/52 10/2/53
f 11/2/52 21/3/54 24/3/55
f 13/2/48 17/3/56 22/3/46
f 17/3/34 13/2/48 14/2/57
f 20/3/43 12/2/58 23/3/59
f 12/2/60 20/3/43 9/2/61
f 24/3/62 16/2/63 11/2/52
f 16/2/63 24/3/64 19/3/65
f 27/4/66 26/4/66 25/4/66
f 26/4/66 27/4/66 28/4/66
f 26/4/66 28/4/66 29/4/66
f 29/4/66 28/4/66 30/4/66
f 29/4/66 30/4/66 31/4/66
f 31/4/66 30/4/66 32/4/66
f 35/5/1 34/5/1 33/5/1
f 34/5/1 35/5/1 36/5/1
f 34/5/1 36/5/1 37/5/1
f 37/5/1 36/5/1 38/5/1
f 37/5/1 38/5/1 39/5/1
f 39/5/1 38/5/1 40/5/1
f 27/4/67 33/5/68 34/5/67
f 33/5/68 27/4/67 25/4/69
f 29/4/70 38/5/71 36/5/70
f 38/5/71 29/4/70 31/4/72
f 40/5/73 31/4/71 32/4/74
f 31/4/71 40/5/75 38/5/71
f 28/4/76 34/5/67 37/5/76
f 34/5/77 28/4/78 27/4/79
f 26/4/80 36/5/81 35/5/80
f 36/5/81 26/4/80 29/4/82
f 30/4/83 37/5/78 39/5/83
f 37/5/78 30/4/83 28/4/84
f 26/4/80 33/5/69 25/4/85
f 33/5/85 26/4/80 35/5/80
f 40/5/86 30/4/83 39/5/83
f 30/4/87 40/5/74 32/4/73
f 43/6/88 42/7/89 41/7/88
f 42/7/89 43/6/88 44/6/89
f 47/6/90 46/7/91 45/7/90
f 46/7/91 47/6/92 48/6/91
f 50/6/93 45/7/92 49/7/93
f 45/7/92 50/6/93 47/6/92
f 48/6/91 41/7/88 46/7/91
f 41/7/88 48/6/91 43/6/88
f 52/7/94 44/6/89 51/6/94
f 44/6/95 52/7/94 42/7/95
f 52/7/94 50/6/93 49/7/93
f 50/6/93 52/7/94 51/6/94
f 41/7/1 45/7/1 46/7/1
f 45/7/1 41/7/1 42/7/1
f 45/7/1 42/7/1 49/7/1
f 49/7/1 42/7/1 52/7/1
f 55/6/96 54/8/97 53/8/98
f 54/8/97 55/6/96 56/6/99
f 59/8/100 58/6/101 57/6/102
f 58/6/103 59/8/100 60/8/104
f 63/6/105 62/8/106 61/8/107
f 62/8/106 63/6/105 64/6/108
f 64/6/109 53/8/98 62/8/110
f 53/8/98 64/6/111 55/6/112
f 64/6/109 56/6/113 55/6/114
f 56/6/115 64/6/116 58/6/117
f 58/6/103 64/6/116 63/6/118
f 58/6/117 63/6/118 57/6/119
f 59/8/120 63/6/121 61/8/107
f 63/6/121 59/8/100 57/6/122
f 54/8/1 62/8/1 53/8/1
f 62/8/1 54/8/1 60/8/1
f 62/8/1 60/8/1 61/8/1
f 61/8/1 60/8/1 59/8/1
f 56/6/123 60/8/104 54/8/97
f 60/8/104 56/6/123 58/6/124
f 67/6/125 66/9/126 65/9/125
f 66/9/126 67/6/125 68/6/127
f 70/6/128 65/9/125 69/9/128
f 65/9/125 70/6/128 67/6/125
f 68/6/126 71/9/129 66/9/126
f 71/9/129 68/6/126 72/6/129
f 72/6/129 73/9/130 71/9/129
f 73/9/130 72/6/129 74/6/130
f 71/9/1 65/9/1 66/9/1
f 65/9/1 71/9/1 69/9/1
f 69/9/1 71/9/1 73/9/1
f 69/9/1 73/9/1 75/9/1
f 76/6/131 69/9/128 75/9/131
f 69/9/128 76/6/132 70/6/128
f 73/9/130 76/6/131 75/9/131
f 76/6/131 73/9/130 74/6/130
f 79/10/133 78/10/134 77/11/135
f 78/10/134 79/10/133 41/6/133
f 78/10/134 41/6/133 42/6/134
f 77/11/136 78/10/137 79/10/138
f 41/6/138 79/10/138 78/10/137
f 42/6/137 41/6/139 78/10/137
f 81/11/140 49/6/141 80/10/141
f 49/6/141 81/11/140 52/6/142
f 52/6/142 81/11/143 82/10/142
f 80/10/144 49/6/144 81/11/145
f 52/6/146 81/11/145 49/6/144
f 82/10/146 81/11/147 52/6/148
f 82/10/142 42/6/134 52/6/142
f 42/6/134 82/10/142 83/11/149
f 42/6/134 83/11/149 78/10/134
f 52/6/146 42/6/137 82/10/146
f 83/11/150 82/10/146 42/6/137
f 78/10/137 83/11/150 42/6/151
f 46/6/152 85/11/153 84/10/152
f 85/11/154 46/6/152 41/6/133
f 85/11/155 41/6/156 79/10/133
f 84/10/157 85/11/158 46/6/157
f 41/6/159 46/6/157 85/11/160
f 79/10/138 41/6/138 85/11/161
f 80/10/141 87/10/162 86/11/163
f 87/10/162 80/10/141 49/6/141
f 87/10/162 49/6/141 45/6/162
f 86/11/164 87/10/165 80/10/144
f 49/6/144 80/10/144 87/10/165
f 45/6/165 49/6/144 87/10/165
f 45/6/162 88/11/166 87/10/162
f 88/11/167 45/6/162 46/6/152
f 88/11/167 46/6/152 84/10/152
f 87/10/165 88/11/168 45/6/165
f 46/6/157 45/6/165 88/11/169
f 84/10/157 46/6/157 88/11/169
f 91/10/170 90/10/171 89/11/172
f 90/10/171 91/10/170 75/6/170
f 90/10/171 75/6/170 69/6/171
f 89/11/173 90/10/174 91/10/175
f 75/6/175 91/10/175 90/10/174
f 69/6/174 75/6/176 90/10/174
f 65/6/177 93/11/178 92/10/177
f 93/11/178 65/6/179 66/6/180
f 93/11/178 66/6/180 94/10/180
f 92/10/181 93/11/182 65/6/181
f 66/6/183 65/6/181 93/11/182
f 94/10/183 66/6/183 93/11/184
f 97/10/185 96/10/186 95/11/187
f 96/10/186 97/10/185 71/6/185
f 96/10/188 71/6/185 73/6/186
f 95/11/189 96/10/190 97/10/191
f 71/6/191 97/10/191 96/10/192
f 73/6/192 71/6/191 96/10/190
f 98/11/193 75/6/170 91/10/170
f 75/6/170 98/11/194 73/6/188
f 73/6/186 98/11/194 96/10/188
f 91/10/175 75/6/175 98/11/195
f 73/6/192 98/11/195 75/6/175
f 96/10/190 98/11/195 73/6/192
f 94/10/180 97/10/185 99/11/196
f 97/10/185 94/10/180 66/6/180
f 97/10/185 66/6/180 71/6/185
f 99/11/197 97/10/191 94/10/183
f 66/6/183 94/10/183 97/10/191
f 71/6/191 66/6/183 97/10/191
f 90/10/171 92/10/177 100/11/198
f 92/10/177 90/10/171 69/6/171
f 92/10/179 69/6/171 65/6/177
f 100/11/199 92/10/181 90/10/174
f 69/6/174 90/10/174 92/10/200
f 65/6/181 69/6/174 92/10/200
f 102/11/201 61/6/141 101/10/141
f 61/6/141 102/11/140 59/6/142
f 59/6/142 102/11/201 103/10/142
f 101/10/144 61/6/144 102/11/202
f 59/6/146 102/11/145 61/6/203
f 103/10/146 102/11/202 59/6/146
f 103/10/142 60/6/134 59/6/142
f 60/6/134 103/10/142 104/11/149
f 60/6/134 104/11/204 105/10/134
f 59/6/146 60/6/137 103/10/146
f 104/11/150 103/10/146 60/6/137
f 105/10/137 104/11/150 60/6/137
f 62/6/162 107/11/167 106/10/162
f 107/11/167 62/6/162 53/6/152
f 107/11/167 53/6/152 108/10/152
f 106/10/165 107/11/169 62/6/165
f 53/6/157 62/6/165 107/11/169
f 108/10/157 53/6/157 107/11/169
f 110/10/133 105/10/134 109/11/205
f 105/10/134 110/10/133 54/6/133
f 105/10/134 54/6/206 60/6/134
f 109/11/207 105/10/137 110/10/138
f 54/6/138 110/10/138 105/10/137
f 60/6/137 54/6/159 105/10/137
f 101/10/141 106/10/208 111/11/163
f 106/10/162 101/10/141 61/6/141
f 106/10/162 61/6/141 62/6/162
f 111/11/164 106/10/165 101/10/144
f 61/6/144 101/10/144 106/10/165
f 62/6/165 61/6/144 106/10/165
f 53/6/152 112/11/154 108/10/152
f 112/11/153 53/6/152 54/6/133
f 112/11/155 54/6/156 110/10/133
f 108/10/157 112/11/160 53/6/157
f 54/6/159 53/6/157 112/11/158
f 110/10/138 54/6/138 112/11/160
