# Blender 4.1.1
# www.blender.org
mtllib tree.059.mtl
o tree.059
v -9.568052 -4.606890 6.799259
v -9.395006 -4.606890 6.882618
v -9.612894 -4.606890 6.671056
v -9.266804 -4.606890 6.837776
v -9.529535 -4.606890 6.498011
v -9.183444 -4.606890 6.664730
v -9.401332 -4.606890 6.453168
v -9.228287 -4.606890 6.536527
v -9.396587 -4.259123 6.775256
v -9.483110 -4.259123 6.733576
v -9.505532 -4.259123 6.669475
v -9.332486 -4.259123 6.752834
v -9.290807 -4.259123 6.666311
v -9.313228 -4.259123 6.602210
v -9.399752 -4.259123 6.560530
v -9.463852 -4.259123 6.582952
v -9.291992 -3.737433 6.585790
v -9.400146 -3.737433 6.533689
v -9.480272 -3.737433 6.561717
v -9.396193 -3.737433 6.802097
v -9.504345 -3.737433 6.749997
v -9.263966 -3.737433 6.665916
v -9.316066 -3.737433 6.774070
v -9.532373 -3.737433 6.669870
v -9.424769 -4.134956 6.831280
v -9.474980 -4.134956 6.775081
v -9.349526 -4.134956 6.835515
v -9.293327 -4.134956 6.785304
v -9.470745 -4.134956 6.699838
v -9.289093 -4.134956 6.710061
v -9.414547 -4.134956 6.649627
v -9.339303 -4.134956 6.653861
v -9.448974 -4.261151 6.881526
v -9.331112 -4.261151 6.888159
v -9.527625 -4.261151 6.793494
v -9.520992 -4.261151 6.675632
v -9.243080 -4.261151 6.809508
v -9.432961 -4.261151 6.596982
v -9.236447 -4.261151 6.691646
v -9.315099 -4.261151 6.603615
v -9.871134 -3.737433 6.695194
v -9.663539 -3.737433 6.264249
v -9.675564 -3.162436 6.680561
v -9.553082 -3.162436 6.426302
v -9.124716 -3.737433 7.054759
v -9.601723 -3.737433 7.090448
v -9.235174 -3.162436 6.892706
v -9.516609 -3.162436 6.913763
v -8.917122 -3.737433 6.623814
v -9.112693 -3.162436 6.638447
v -9.271646 -3.162436 6.405245
v -9.186533 -3.737433 6.228559
v -9.513827 -2.544689 6.907987
v -9.669170 -2.544689 6.680083
v -9.421640 -1.896736 6.716617
v -9.457346 -1.896736 6.664234
v -9.366615 -1.896736 6.602391
v -9.429833 -1.896736 6.607121
v -9.274428 -2.544689 6.411021
v -9.549471 -2.544689 6.431600
v -9.119085 -2.544689 6.638925
v -9.238785 -2.544689 6.887408
v -9.330911 -1.896736 6.654774
v -9.358422 -1.896736 6.711887
v -9.365111 -3.162436 7.047314
v -9.715473 -3.162436 6.878538
v -9.380832 -2.544689 6.837203
v -9.541372 -2.544689 6.759868
v -9.043767 -3.162436 6.828280
v -9.233588 -2.544689 6.736839
v -9.744490 -3.162436 6.490728
v -9.554667 -2.544689 6.582169
v -9.423143 -3.162436 6.271694
v -9.407423 -2.544689 6.481805
v -9.072783 -3.162436 6.440470
v -9.246884 -2.544689 6.559140
v -9.849442 -3.916811 6.440169
v -9.693174 -3.827122 6.220771
v -9.923605 -3.827122 6.699120
v -8.864651 -3.827122 6.619888
v -8.976521 -3.916811 6.374857
v -9.163697 -3.827122 6.181156
v -9.431836 -3.916811 6.155522
v -9.624558 -3.827122 7.137852
v -9.811734 -3.916811 6.944150
v -8.938813 -3.916811 6.878839
v -9.095081 -3.827122 7.098237
v -9.356420 -3.916811 7.163485
v -8.984387 -3.308271 6.628847
v -9.005227 -3.235354 6.846846
v -9.037435 -3.235354 6.416377
v -9.361920 -3.235354 7.089973
v -9.572449 -3.308271 7.029678
v -9.750821 -3.235354 6.902631
v -9.625548 -3.308271 6.319987
v -9.426336 -3.235354 6.229035
v -9.783029 -3.235354 6.472162
v -9.215808 -3.308271 6.289330
v -9.803869 -3.308271 6.690161
v -9.162708 -3.308271 6.999021
v -9.088830 -2.596404 6.636662
v -9.153336 -2.648118 6.495377
v -9.261262 -2.596404 6.383687
v -9.415871 -2.648118 6.368907
v -9.566559 -2.596404 6.406530
v -9.221697 -2.596404 6.912478
v -9.372385 -2.648118 6.950100
v -9.526994 -2.596404 6.935320
v -9.656663 -2.648118 6.533035
v -9.699425 -2.596404 6.682346
v -9.131593 -2.648118 6.785973
v -9.634920 -2.648118 6.823631
vn -0.0000 -1.0000 -0.0000
vn -0.0592 0.2942 0.9539
vn -0.7156 0.2944 0.6335
vn -0.0493 0.2944 0.9544
vn -0.7090 0.2942 0.6409
vn -0.9539 0.2942 -0.0591
vn -0.7156 0.2944 0.6334
vn -0.7091 0.2942 0.6408
vn -0.9544 0.2944 -0.0493
vn 0.6408 0.2942 0.7091
vn 0.6334 0.2944 0.7156
vn -0.0591 0.2942 0.9539
vn 0.9539 0.2942 0.0592
vn 0.6335 0.2944 0.7156
vn 0.9544 0.2944 0.0493
vn 0.6409 0.2942 0.7090
vn 0.0493 0.2944 -0.9544
vn 0.7090 0.2942 -0.6409
vn 0.7156 0.2944 -0.6335
vn 0.0592 0.2942 -0.9539
vn -0.9539 0.2942 -0.0592
vn -0.6335 0.2944 -0.7156
vn -0.6408 0.2942 -0.7090
vn 0.7156 0.2944 -0.6334
vn 0.9539 0.2943 0.0591
vn 0.9539 0.2942 0.0591
vn 0.7091 0.2942 -0.6408
vn -0.6408 0.2942 -0.7091
vn 0.0591 0.2942 -0.9539
vn -0.6334 0.2944 -0.7156
vn 0.7441 -0.0513 -0.6661
vn 0.0553 -0.0512 -0.9972
vn 0.7453 -0.0513 -0.6648
vn 0.0553 -0.0513 -0.9972
vn 0.0571 -0.0513 -0.9971
vn -0.6660 -0.0512 -0.7442
vn 0.0552 -0.0513 -0.9972
vn 0.0570 -0.0512 -0.9971
vn -0.6660 -0.0513 -0.7441
vn -0.6647 -0.0512 -0.7453
vn -0.7453 -0.0512 0.6648
vn -0.0571 -0.0513 0.9971
vn -0.0553 -0.0513 0.9972
vn -0.7441 -0.0513 0.6661
vn 0.9972 -0.0513 0.0553
vn 0.6661 -0.0513 0.7441
vn 0.9971 -0.0513 0.0571
vn 0.9972 -0.0512 0.0553
vn 0.6648 -0.0513 0.7453
vn -0.7453 -0.0513 0.6647
vn -0.9971 -0.0513 -0.0570
vn -0.7442 -0.0512 0.6660
vn -0.9971 -0.0513 -0.0569
vn -0.9972 -0.0513 -0.0552
vn 0.9971 -0.0513 0.0570
vn 0.7453 -0.0512 -0.6647
vn 0.9972 -0.0513 0.0552
vn 0.7453 -0.0513 -0.6647
vn 0.7441 -0.0512 -0.6661
vn -0.0552 -0.0513 0.9972
vn 0.6660 -0.0513 0.7442
vn 0.6647 -0.0512 0.7453
vn 0.6660 -0.0512 0.7441
vn -0.0570 -0.0512 0.9971
vn -0.9972 -0.0513 -0.0553
vn -0.6661 -0.0513 -0.7441
vn -0.9971 -0.0513 -0.0571
vn -0.9972 -0.0512 -0.0553
vn -0.6648 -0.0513 -0.7453
vn -0.0000 1.0000 -0.0000
vn 0.3020 0.4042 0.8634
vn -0.3969 0.4042 0.8241
vn -0.3969 0.4042 0.8240
vn -0.3969 0.4043 0.8240
vn -0.8240 0.4042 -0.3970
vn -0.3020 0.4042 -0.8634
vn -0.3020 0.4043 -0.8633
vn 0.3969 0.4042 -0.8241
vn 0.3969 0.4043 -0.8240
vn 0.3969 0.4042 -0.8240
vn 0.8240 0.4042 0.3970
vn 0.3020 0.4043 0.8633
vn -0.8634 0.4042 0.3020
vn -0.8240 0.4042 -0.3969
vn -0.8240 0.4043 -0.3969
vn 0.8634 0.4042 -0.3020
vn 0.8240 0.4042 0.3969
vn 0.8241 0.4042 0.3969
vn 0.8240 0.4043 0.3969
vn -0.3970 0.4043 0.8240
vn -0.3970 0.4042 0.8240
vn 0.3970 0.4042 -0.8240
vn 0.8633 0.4042 -0.3020
vn 0.3970 0.4043 -0.8240
vn -0.9438 0.3228 0.0706
vn -0.5331 0.3228 -0.7821
vn 0.5331 0.3228 0.7821
vn -0.4108 0.3228 0.8527
vn -0.4107 0.3228 0.8527
vn 0.9438 0.3228 -0.0706
vn 0.4107 0.3228 -0.8527
vn 0.4108 0.3228 -0.8527
vn -0.2984 0.7260 0.6196
vn -0.9476 0.3115 0.0709
vn -0.4124 0.3115 0.8561
vn -0.6858 0.7260 0.0513
vn 0.4124 0.3115 -0.8561
vn -0.3874 0.7260 -0.5682
vn 0.2985 0.7260 -0.6196
vn -0.3874 0.7260 -0.5683
vn -0.5352 0.3115 -0.7852
vn 0.6858 0.7260 -0.0514
vn 0.5352 0.3115 0.7852
vn 0.9476 0.3115 -0.0709
vn 0.3873 0.7260 0.5683
vn 0.3874 0.7260 0.5683
vn -0.2985 0.7260 0.6196
vn 0.3873 0.7259 0.5683
vn -0.6858 0.7259 0.0514
vn -0.2985 0.7259 0.6196
vn -0.6858 0.7259 0.0513
vn -0.3873 0.7259 -0.5683
vn 0.6858 0.7259 -0.0513
vn 0.2985 0.7259 -0.6196
vn 0.4124 0.3116 -0.8561
vn 0.6858 0.7260 -0.0513
vn -0.6858 0.7260 0.0514
vn -0.3873 0.7260 -0.5683
vn 0.0706 0.3228 0.9438
vn -0.7821 0.3228 0.5331
vn 0.8527 0.3228 0.4108
vn -0.8527 0.3228 -0.4107
vn -0.8527 0.3228 -0.4108
vn -0.0706 0.3228 -0.9438
vn 0.7821 0.3228 -0.5331
vn 0.8527 0.3228 0.4107
vn -0.8601 0.5060 0.0644
vn -0.4858 0.5060 -0.7127
vn -0.8032 0.4530 -0.3869
vn 0.8032 -0.4530 0.3869
vn 0.4858 -0.5060 0.7127
vn 0.8601 -0.5060 -0.0644
vn 0.7367 0.4530 -0.5021
vn 0.8601 0.5060 -0.0643
vn 0.8601 0.5060 -0.0644
vn 0.3743 0.5060 -0.7771
vn -0.8601 -0.5060 0.0644
vn -0.7367 -0.4530 0.5021
vn -0.3743 -0.5060 0.7771
vn -0.3743 -0.5060 0.7770
vn -0.0665 0.4530 -0.8890
vn 0.0665 -0.4530 0.8890
vn -0.3743 0.5060 0.7771
vn -0.7367 0.4530 0.5021
vn -0.8601 0.5060 0.0643
vn 0.3743 -0.5060 -0.7771
vn 0.7367 -0.4530 -0.5021
vn 0.3743 -0.5060 -0.7770
vn 0.4858 0.5060 0.7127
vn 0.8032 0.4530 0.3869
vn -0.8032 -0.4530 -0.3869
vn -0.4858 -0.5060 -0.7127
vn 0.0665 0.4529 0.8891
vn 0.0665 0.4530 0.8890
vn -0.3743 0.5060 0.7770
vn 0.0665 0.4530 0.8891
vn -0.0665 -0.4529 -0.8891
vn -0.0665 -0.4530 -0.8890
vn 0.7127 0.5060 -0.4858
vn 0.7771 0.5060 0.3743
vn 0.8890 0.4530 -0.0665
vn -0.8890 -0.4530 0.0665
vn -0.7771 -0.5060 -0.3743
vn -0.7127 -0.5060 0.4858
vn 0.0644 0.5060 0.8601
vn -0.3869 0.4530 0.8032
vn -0.7127 0.5060 0.4858
vn -0.0644 -0.5060 -0.8601
vn 0.3869 -0.4530 -0.8032
vn 0.7127 -0.5060 -0.4858
vn -0.7771 0.5060 -0.3743
vn -0.0644 0.5060 -0.8601
vn -0.5021 0.4530 -0.7367
vn -0.0643 0.5060 -0.8601
vn 0.5021 -0.4530 0.7367
vn 0.0644 -0.5060 0.8601
vn 0.7771 -0.5060 0.3743
vn 0.0643 -0.5060 0.8601
vn 0.3869 0.4530 -0.8032
vn -0.3869 -0.4530 0.8032
vn -0.7770 0.5060 -0.3743
vn -0.8890 0.4530 0.0665
vn 0.8890 -0.4530 -0.0665
vn 0.5021 0.4530 0.7367
vn -0.5021 -0.4530 -0.7367
vn 0.3743 0.5060 -0.7770
vn 0.7367 0.4529 -0.5021
vn 0.3744 0.5060 -0.7771
vn -0.7367 -0.4529 0.5021
vn 0.8032 0.4529 0.3869
vn 0.8601 -0.5060 -0.0643
vt 0.593750 0.025000
vt 0.593750 0.104996
vt 0.593750 0.225000
vt 0.093750 0.475000
vt 0.093750 0.275000
vt 0.093750 0.425000
vt 0.093750 0.348778
vt 0.093750 0.338765
vt 0.093750 0.344099
vt 0.093750 0.375000
vt 0.093750 0.325000
s 0
usemtl colormap.002
f 3/1/1 2/1/1 1/1/1
f 2/1/1 3/1/1 4/1/1
f 4/1/1 3/1/1 5/1/1
f 4/1/1 5/1/1 6/1/1
f 6/1/1 5/1/1 7/1/1
f 6/1/1 7/1/1 8/1/1
f 9/2/2 1/1/3 2/1/4
f 1/1/3 9/2/2 10/2/5
f 11/2/6 1/1/7 10/2/8
f 1/1/7 11/2/6 3/1/9
f 12/2/10 2/1/4 4/1/11
f 2/1/4 12/2/10 9/2/12
f 13/2/13 4/1/14 6/1/15
f 4/1/14 13/2/13 12/2/16
f 7/1/17 14/2/18 8/1/19
f 14/2/18 7/1/17 15/2/20
f 11/2/21 5/1/22 3/1/9
f 5/1/22 11/2/21 16/2/23
f 8/1/24 13/2/25 6/1/15
f 13/2/26 8/1/24 14/2/27
f 7/1/17 16/2/28 15/2/29
f 16/2/28 7/1/17 5/1/30
f 14/2/31 18/3/32 17/3/33
f 18/3/34 14/2/31 15/2/35
f 16/2/36 18/3/37 15/2/38
f 18/3/37 16/2/39 19/3/40
f 21/3/41 9/2/42 20/3/43
f 9/2/42 21/3/41 10/2/44
f 22/3/45 12/2/46 13/2/47
f 12/2/46 22/3/48 23/3/49
f 21/3/50 11/2/51 10/2/52
f 11/2/53 21/3/41 24/3/54
f 13/2/55 17/3/56 22/3/57
f 17/3/58 13/2/55 14/2/59
f 20/3/60 12/2/61 23/3/62
f 12/2/63 20/3/60 9/2/64
f 24/3/65 16/2/66 11/2/67
f 16/2/66 24/3/68 19/3/69
f 27/4/70 26/4/70 25/4/70
f 26/4/70 27/4/70 28/4/70
f 26/4/70 28/4/70 29/4/70
f 29/4/70 28/4/70 30/4/70
f 29/4/70 30/4/70 31/4/70
f 31/4/70 30/4/70 32/4/70
f 35/5/1 34/5/1 33/5/1
f 34/5/1 35/5/1 36/5/1
f 34/5/1 36/5/1 37/5/1
f 37/5/1 36/5/1 38/5/1
f 37/5/1 38/5/1 39/5/1
f 39/5/1 38/5/1 40/5/1
f 27/4/71 33/5/72 34/5/71
f 33/5/73 27/4/71 25/4/74
f 29/4/75 38/5/76 36/5/75
f 38/5/76 29/4/75 31/4/77
f 40/5/78 31/4/76 32/4/79
f 31/4/76 40/5/80 38/5/76
f 28/4/81 34/5/71 37/5/81
f 34/5/71 28/4/81 27/4/82
f 26/4/83 36/5/84 35/5/83
f 36/5/84 26/4/83 29/4/85
f 30/4/86 37/5/87 39/5/86
f 37/5/88 30/4/86 28/4/89
f 26/4/83 33/5/90 25/4/91
f 33/5/91 26/4/83 35/5/83
f 40/5/92 30/4/93 39/5/86
f 30/4/86 40/5/94 32/4/92
f 43/6/95 42/7/96 41/7/95
f 42/7/96 43/6/95 44/6/96
f 47/6/97 46/7/98 45/7/97
f 46/7/99 47/6/97 48/6/99
f 50/6/100 45/7/97 49/7/100
f 45/7/97 50/6/100 47/6/97
f 48/6/98 41/7/95 46/7/98
f 41/7/95 48/6/98 43/6/95
f 52/7/101 44/6/96 51/6/101
f 44/6/96 52/7/102 42/7/96
f 52/7/102 50/6/100 49/7/100
f 50/6/100 52/7/102 51/6/102
f 41/7/1 45/7/1 46/7/1
f 45/7/1 41/7/1 42/7/1
f 45/7/1 42/7/1 49/7/1
f 49/7/1 42/7/1 52/7/1
f 55/6/103 54/8/104 53/8/105
f 54/8/104 55/6/103 56/6/106
f 59/8/107 58/6/108 57/6/109
f 58/6/110 59/8/107 60/8/111
f 63/6/112 62/8/113 61/8/114
f 62/8/113 63/6/112 64/6/115
f 64/6/116 53/8/105 62/8/113
f 53/8/105 64/6/116 55/6/117
f 64/6/118 56/6/119 55/6/120
f 56/6/121 64/6/118 58/6/122
f 58/6/122 64/6/118 63/6/123
f 58/6/122 63/6/123 57/6/124
f 59/8/125 63/6/126 61/8/114
f 63/6/126 59/8/107 57/6/109
f 54/8/1 62/8/1 53/8/1
f 62/8/1 54/8/1 60/8/1
f 62/8/1 60/8/1 61/8/1
f 61/8/1 60/8/1 59/8/1
f 56/6/106 60/8/111 54/8/104
f 60/8/111 56/6/127 58/6/128
f 67/6/129 66/9/130 65/9/129
f 66/9/130 67/6/129 68/6/130
f 70/6/131 65/9/129 69/9/131
f 65/9/129 70/6/131 67/6/129
f 68/6/130 71/9/132 66/9/130
f 71/9/132 68/6/130 72/6/132
f 72/6/133 73/9/134 71/9/133
f 73/9/134 72/6/133 74/6/134
f 71/9/1 65/9/1 66/9/1
f 65/9/1 71/9/1 69/9/1
f 69/9/1 71/9/1 73/9/1
f 69/9/1 73/9/1 75/9/1
f 76/6/135 69/9/136 75/9/135
f 69/9/136 76/6/135 70/6/136
f 73/9/134 76/6/135 75/9/135
f 76/6/135 73/9/134 74/6/134
f 79/10/137 78/10/138 77/11/139
f 78/10/138 79/10/137 41/6/137
f 78/10/138 41/6/137 42/6/138
f 77/11/140 78/10/141 79/10/142
f 41/6/142 79/10/142 78/10/141
f 42/6/141 41/6/142 78/10/141
f 81/11/143 49/6/144 80/10/144
f 49/6/145 81/11/143 52/6/146
f 52/6/146 81/11/143 82/10/146
f 80/10/147 49/6/147 81/11/148
f 52/6/149 81/11/148 49/6/147
f 82/10/149 81/11/148 52/6/150
f 82/10/146 42/6/138 52/6/146
f 42/6/138 82/10/146 83/11/151
f 42/6/138 83/11/151 78/10/138
f 52/6/149 42/6/141 82/10/149
f 83/11/152 82/10/149 42/6/141
f 78/10/141 83/11/152 42/6/141
f 46/6/153 85/11/154 84/10/153
f 85/11/154 46/6/153 41/6/137
f 85/11/154 41/6/155 79/10/137
f 84/10/156 85/11/157 46/6/158
f 41/6/142 46/6/156 85/11/157
f 79/10/142 41/6/142 85/11/157
f 80/10/145 87/10/159 86/11/160
f 87/10/159 80/10/145 49/6/145
f 87/10/159 49/6/145 45/6/159
f 86/11/161 87/10/162 80/10/147
f 49/6/147 80/10/147 87/10/162
f 45/6/162 49/6/147 87/10/162
f 45/6/159 88/11/163 87/10/159
f 88/11/164 45/6/159 46/6/165
f 88/11/166 46/6/153 84/10/153
f 87/10/162 88/11/167 45/6/162
f 46/6/156 45/6/162 88/11/168
f 84/10/156 46/6/156 88/11/167
f 91/10/169 90/10/170 89/11/171
f 90/10/170 91/10/169 75/6/169
f 90/10/170 75/6/169 69/6/170
f 89/11/172 90/10/173 91/10/174
f 75/6/174 91/10/174 90/10/173
f 69/6/173 75/6/174 90/10/173
f 65/6/175 93/11/176 92/10/175
f 93/11/176 65/6/175 66/6/177
f 93/11/176 66/6/177 94/10/177
f 92/10/178 93/11/179 65/6/178
f 66/6/180 65/6/178 93/11/179
f 94/10/180 66/6/180 93/11/179
f 97/10/181 96/10/182 95/11/183
f 96/10/182 97/10/181 71/6/181
f 96/10/184 71/6/181 73/6/184
f 95/11/185 96/10/186 97/10/187
f 71/6/187 97/10/187 96/10/186
f 73/6/188 71/6/187 96/10/188
f 98/11/189 75/6/169 91/10/169
f 75/6/169 98/11/189 73/6/182
f 73/6/182 98/11/189 96/10/182
f 91/10/174 75/6/174 98/11/190
f 73/6/186 98/11/190 75/6/174
f 96/10/186 98/11/190 73/6/186
f 94/10/177 97/10/191 99/11/192
f 97/10/181 94/10/177 66/6/177
f 97/10/181 66/6/177 71/6/181
f 99/11/193 97/10/187 94/10/180
f 66/6/180 94/10/180 97/10/187
f 71/6/187 66/6/180 97/10/187
f 90/10/170 92/10/175 100/11/194
f 92/10/175 90/10/170 69/6/170
f 92/10/175 69/6/170 65/6/175
f 100/11/195 92/10/178 90/10/173
f 69/6/173 90/10/173 92/10/178
f 65/6/178 69/6/173 92/10/178
f 102/11/143 61/6/145 101/10/145
f 61/6/145 102/11/143 59/6/146
f 59/6/196 102/11/197 103/10/198
f 101/10/147 61/6/147 102/11/148
f 59/6/149 102/11/148 61/6/147
f 103/10/149 102/11/199 59/6/149
f 103/10/146 60/6/138 59/6/146
f 60/6/138 103/10/146 104/11/151
f 60/6/138 104/11/151 105/10/138
f 59/6/149 60/6/141 103/10/149
f 104/11/152 103/10/149 60/6/141
f 105/10/141 104/11/152 60/6/141
f 62/6/159 107/11/164 106/10/159
f 107/11/164 62/6/159 53/6/165
f 107/11/163 53/6/153 108/10/153
f 106/10/162 107/11/168 62/6/162
f 53/6/156 62/6/162 107/11/168
f 108/10/156 53/6/156 107/11/167
f 110/10/137 105/10/138 109/11/139
f 105/10/138 110/10/137 54/6/137
f 105/10/138 54/6/137 60/6/138
f 109/11/140 105/10/141 110/10/142
f 54/6/142 110/10/142 105/10/141
f 60/6/141 54/6/142 105/10/141
f 101/10/145 106/10/159 111/11/200
f 106/10/159 101/10/145 61/6/145
f 106/10/159 61/6/145 62/6/159
f 111/11/161 106/10/162 101/10/147
f 61/6/147 101/10/147 106/10/162
f 62/6/162 61/6/147 106/10/162
f 53/6/153 112/11/154 108/10/153
f 112/11/154 53/6/153 54/6/137
f 112/11/154 54/6/155 110/10/155
f 108/10/156 112/11/157 53/6/158
f 54/6/142 53/6/156 112/11/157
f 110/10/201 54/6/201 112/11/157
f 3/1/1 2/1/1 1/1/1
f 2/1/1 3/1/1 4/1/1
f 4/1/1 3/1/1 5/1/1
f 4/1/1 5/1/1 6/1/1
f 6/1/1 5/1/1 7/1/1
f 6/1/1 7/1/1 8/1/1
f 9/2/2 1/1/3 2/1/4
f 1/1/3 9/2/2 10/2/5
f 11/2/6 1/1/7 10/2/8
f 1/1/7 11/2/6 3/1/9
f 12/2/10 2/1/4 4/1/11
f 2/1/4 12/2/10 9/2/12
f 13/2/13 4/1/14 6/1/15
f 4/1/14 13/2/13 12/2/16
f 7/1/17 14/2/18 8/1/19
f 14/2/18 7/1/17 15/2/20
f 11/2/21 5/1/22 3/1/9
f 5/1/22 11/2/21 16/2/23
f 8/1/24 13/2/25 6/1/15
f 13/2/26 8/1/24 14/2/27
f 7/1/17 16/2/28 15/2/29
f 16/2/28 7/1/17 5/1/30
f 14/2/31 18/3/32 17/3/33
f 18/3/34 14/2/31 15/2/35
f 16/2/36 18/3/37 15/2/38
f 18/3/37 16/2/39 19/3/40
f 21/3/41 9/2/42 20/3/43
f 9/2/42 21/3/41 10/2/44
f 22/3/45 12/2/46 13/2/47
f 12/2/46 22/3/48 23/3/49
f 21/3/50 11/2/51 10/2/52
f 11/2/53 21/3/41 24/3/54
f 13/2/55 17/3/56 22/3/57
f 17/3/58 13/2/55 14/2/59
f 20/3/60 12/2/61 23/3/62
f 12/2/63 20/3/60 9/2/64
f 24/3/65 16/2/66 11/2/67
f 16/2/66 24/3/68 19/3/69
f 27/4/70 26/4/70 25/4/70
f 26/4/70 27/4/70 28/4/70
f 26/4/70 28/4/70 29/4/70
f 29/4/70 28/4/70 30/4/70
f 29/4/70 30/4/70 31/4/70
f 31/4/70 30/4/70 32/4/70
f 35/5/1 34/5/1 33/5/1
f 34/5/1 35/5/1 36/5/1
f 34/5/1 36/5/1 37/5/1
f 37/5/1 36/5/1 38/5/1
f 37/5/1 38/5/1 39/5/1
f 39/5/1 38/5/1 40/5/1
f 27/4/71 33/5/72 34/5/71
f 33/5/73 27/4/71 25/4/74
f 29/4/75 38/5/76 36/5/75
f 38/5/76 29/4/75 31/4/77
f 40/5/78 31/4/76 32/4/79
f 31/4/76 40/5/80 38/5/76
f 28/4/81 34/5/71 37/5/81
f 34/5/71 28/4/81 27/4/82
f 26/4/83 36/5/84 35/5/83
f 36/5/84 26/4/83 29/4/85
f 30/4/86 37/5/87 39/5/86
f 37/5/88 30/4/86 28/4/89
f 26/4/83 33/5/90 25/4/91
f 33/5/91 26/4/83 35/5/83
f 40/5/92 30/4/93 39/5/86
f 30/4/86 40/5/94 32/4/92
f 43/6/95 42/7/96 41/7/95
f 42/7/96 43/6/95 44/6/96
f 47/6/97 46/7/98 45/7/97
f 46/7/99 47/6/97 48/6/99
f 50/6/100 45/7/97 49/7/100
f 45/7/97 50/6/100 47/6/97
f 48/6/98 41/7/95 46/7/98
f 41/7/95 48/6/98 43/6/95
f 52/7/101 44/6/96 51/6/101
f 44/6/96 52/7/102 42/7/96
f 52/7/102 50/6/100 49/7/100
f 50/6/100 52/7/102 51/6/102
f 41/7/1 45/7/1 46/7/1
f 45/7/1 41/7/1 42/7/1
f 45/7/1 42/7/1 49/7/1
f 49/7/1 42/7/1 52/7/1
f 55/6/103 54/8/104 53/8/105
f 54/8/104 55/6/103 56/6/106
f 59/8/107 58/6/108 57/6/109
f 58/6/110 59/8/107 60/8/111
f 63/6/112 62/8/113 61/8/114
f 62/8/113 63/6/112 64/6/115
f 64/6/116 53/8/105 62/8/113
f 53/8/105 64/6/116 55/6/117
f 64/6/118 56/6/119 55/6/120
f 56/6/121 64/6/118 58/6/122
f 58/6/122 64/6/118 63/6/123
f 58/6/122 63/6/123 57/6/124
f 59/8/125 63/6/126 61/8/114
f 63/6/126 59/8/107 57/6/109
f 54/8/1 62/8/1 53/8/1
f 62/8/1 54/8/1 60/8/1
f 62/8/1 60/8/1 61/8/1
f 61/8/1 60/8/1 59/8/1
f 56/6/106 60/8/111 54/8/104
f 60/8/111 56/6/127 58/6/128
f 67/6/129 66/9/130 65/9/129
f 66/9/130 67/6/129 68/6/130
f 70/6/131 65/9/129 69/9/131
f 65/9/129 70/6/131 67/6/129
f 68/6/130 71/9/132 66/9/130
f 71/9/132 68/6/130 72/6/132
f 72/6/133 73/9/134 71/9/133
f 73/9/134 72/6/133 74/6/134
f 71/9/1 65/9/1 66/9/1
f 65/9/1 71/9/1 69/9/1
f 69/9/1 71/9/1 73/9/1
f 69/9/1 73/9/1 75/9/1
f 76/6/135 69/9/136 75/9/135
f 69/9/136 76/6/135 70/6/136
f 73/9/134 76/6/135 75/9/135
f 76/6/135 73/9/134 74/6/134
f 79/10/137 78/10/138 77/11/139
f 78/10/138 79/10/137 41/6/137
f 78/10/138 41/6/137 42/6/138
f 77/11/140 78/10/141 79/10/142
f 41/6/142 79/10/142 78/10/141
f 42/6/141 41/6/142 78/10/141
f 81/11/143 49/6/144 80/10/144
f 49/6/145 81/11/143 52/6/146
f 52/6/146 81/11/143 82/10/146
f 80/10/147 49/6/147 81/11/148
f 52/6/149 81/11/148 49/6/147
f 82/10/149 81/11/148 52/6/150
f 82/10/146 42/6/138 52/6/146
f 42/6/138 82/10/146 83/11/151
f 42/6/138 83/11/151 78/10/138
f 52/6/149 42/6/141 82/10/149
f 83/11/152 82/10/149 42/6/141
f 78/10/141 83/11/152 42/6/141
f 46/6/153 85/11/154 84/10/153
f 85/11/154 46/6/153 41/6/137
f 85/11/154 41/6/155 79/10/137
f 84/10/156 85/11/157 46/6/158
f 41/6/142 46/6/156 85/11/157
f 79/10/142 41/6/142 85/11/157
f 80/10/145 87/10/159 86/11/160
f 87/10/159 80/10/145 49/6/145
f 87/10/159 49/6/145 45/6/159
f 86/11/161 87/10/162 80/10/147
f 49/6/147 80/10/147 87/10/162
f 45/6/162 49/6/147 87/10/162
f 45/6/159 88/11/163 87/10/159
f 88/11/164 45/6/159 46/6/165
f 88/11/166 46/6/153 84/10/153
f 87/10/162 88/11/167 45/6/162
f 46/6/156 45/6/162 88/11/168
f 84/10/156 46/6/156 88/11/167
f 91/10/169 90/10/170 89/11/171
f 90/10/170 91/10/169 75/6/169
f 90/10/170 75/6/169 69/6/170
f 89/11/172 90/10/173 91/10/174
f 75/6/174 91/10/174 90/10/173
f 69/6/173 75/6/174 90/10/173
f 65/6/175 93/11/176 92/10/175
f 93/11/176 65/6/175 66/6/177
f 93/11/176 66/6/177 94/10/177
f 92/10/178 93/11/179 65/6/178
f 66/6/180 65/6/178 93/11/179
f 94/10/180 66/6/180 93/11/179
f 97/10/181 96/10/182 95/11/183
f 96/10/182 97/10/181 71/6/181
f 96/10/184 71/6/181 73/6/184
f 95/11/185 96/10/186 97/10/187
f 71/6/187 97/10/187 96/10/186
f 73/6/188 71/6/187 96/10/188
f 98/11/189 75/6/169 91/10/169
f 75/6/169 98/11/189 73/6/182
f 73/6/182 98/11/189 96/10/182
f 91/10/174 75/6/174 98/11/190
f 73/6/186 98/11/190 75/6/174
f 96/10/186 98/11/190 73/6/186
f 94/10/177 97/10/191 99/11/192
f 97/10/181 94/10/177 66/6/177
f 97/10/181 66/6/177 71/6/181
f 99/11/193 97/10/187 94/10/180
f 66/6/180 94/10/180 97/10/187
f 71/6/187 66/6/180 97/10/187
f 90/10/170 92/10/175 100/11/194
f 92/10/175 90/10/170 69/6/170
f 92/10/175 69/6/170 65/6/175
f 100/11/195 92/10/178 90/10/173
f 69/6/173 90/10/173 92/10/178
f 65/6/178 69/6/173 92/10/178
f 102/11/143 61/6/145 101/10/145
f 61/6/145 102/11/143 59/6/146
f 59/6/196 102/11/197 103/10/198
f 101/10/147 61/6/147 102/11/148
f 59/6/149 102/11/148 61/6/147
f 103/10/149 102/11/199 59/6/149
f 103/10/146 60/6/138 59/6/146
f 60/6/138 103/10/146 104/11/151
f 60/6/138 104/11/151 105/10/138
f 59/6/149 60/6/141 103/10/149
f 104/11/152 103/10/149 60/6/141
f 105/10/141 104/11/152 60/6/141
f 62/6/159 107/11/164 106/10/159
f 107/11/164 62/6/159 53/6/165
f 107/11/163 53/6/153 108/10/153
f 106/10/162 107/11/168 62/6/162
f 53/6/156 62/6/162 107/11/168
f 108/10/156 53/6/156 107/11/167
f 110/10/137 105/10/138 109/11/139
f 105/10/138 110/10/137 54/6/137
f 105/10/138 54/6/137 60/6/138
f 109/11/140 105/10/141 110/10/142
f 54/6/142 110/10/142 105/10/141
f 60/6/141 54/6/142 105/10/141
f 101/10/145 106/10/159 111/11/200
f 106/10/159 101/10/145 61/6/145
f 106/10/159 61/6/145 62/6/159
f 111/11/161 106/10/162 101/10/147
f 61/6/147 101/10/147 106/10/162
f 62/6/162 61/6/147 106/10/162
f 53/6/153 112/11/154 108/10/153
f 112/11/154 53/6/153 54/6/137
f 112/11/154 54/6/155 110/10/155
f 108/10/156 112/11/157 53/6/158
f 54/6/142 53/6/156 112/11/157
f 110/10/201 54/6/201 112/11/157
