# Blender 4.1.1
# www.blender.org
mtllib tree.024.mtl
o tree.024
v -0.165371 -4.606890 4.750207
v -0.006222 -4.606890 4.642665
v -0.298716 -4.606890 4.724403
v 0.019582 -4.606890 4.509321
v -0.406258 -4.606890 4.565254
v -0.087959 -4.606890 4.350171
v -0.380454 -4.606890 4.431910
v -0.221305 -4.606890 4.324368
v -0.099780 -4.259123 4.589977
v -0.179354 -4.259123 4.643747
v -0.246027 -4.259123 4.630846
v -0.086878 -4.259123 4.523304
v -0.140649 -4.259123 4.443729
v -0.207321 -4.259123 4.430828
v -0.286896 -4.259123 4.484598
v -0.299798 -4.259123 4.551271
v -0.210817 -3.737433 4.404212
v -0.310285 -3.737433 4.471426
v -0.326413 -3.737433 4.554767
v -0.076390 -3.737433 4.603149
v -0.175858 -3.737433 4.670362
v -0.127476 -3.737433 4.420340
v -0.060263 -3.737433 4.519808
v -0.259199 -3.737433 4.654235
v -0.065564 -4.134956 4.642533
v -0.139401 -4.134956 4.657619
v -0.024021 -4.134956 4.579655
v -0.039108 -4.134956 4.505818
v -0.202279 -4.134956 4.616077
v -0.101986 -4.134956 4.464275
v -0.217366 -4.134956 4.542241
v -0.175823 -4.134956 4.479362
v -0.034338 -4.261151 4.688744
v 0.030735 -4.261151 4.590250
v -0.149997 -4.261151 4.712376
v -0.248490 -4.261151 4.647304
v 0.007103 -4.261151 4.474592
v -0.272122 -4.261151 4.531644
v -0.091390 -4.261151 4.409519
v -0.207049 -4.261151 4.433151
v -0.407881 -3.737433 4.959676
v -0.675697 -3.737433 4.563339
v -0.322057 -3.162436 4.783335
v -0.480069 -3.162436 4.549495
v 0.278595 -3.737433 4.495804
v 0.069265 -3.737433 4.925909
v 0.082967 -3.162436 4.509649
v -0.040539 -3.162436 4.763412
v 0.010778 -3.737433 4.099468
v -0.075046 -3.162436 4.275809
v -0.356564 -3.162436 4.295732
v -0.466368 -3.737433 4.133235
v -0.044128 -2.544689 4.758101
v -0.319251 -2.544689 4.777571
v -0.163057 -1.896736 4.582098
v -0.226294 -1.896736 4.586574
v -0.234045 -1.896736 4.477045
v -0.261787 -1.896736 4.534047
v -0.352974 -2.544689 4.301043
v -0.473674 -2.544689 4.549042
v -0.077851 -2.544689 4.281573
v 0.076572 -2.544689 4.510101
v -0.170809 -1.896736 4.472570
v -0.135315 -1.896736 4.525097
v 0.151127 -3.162436 4.699759
v -0.171098 -3.162436 4.917496
v -0.038325 -2.544689 4.607553
v -0.185972 -2.544689 4.707323
v 0.123674 -3.162436 4.311835
v -0.050904 -2.544689 4.429802
v -0.520777 -3.162436 4.747308
v -0.346198 -2.544689 4.629341
v -0.548230 -3.162436 4.359385
v -0.358778 -2.544689 4.451591
v -0.226004 -3.162436 4.141648
v -0.211130 -2.544689 4.351821
v -0.617302 -3.916811 4.812533
v -0.728183 -3.827122 4.567053
v -0.430907 -3.827122 5.006988
v 0.033805 -3.827122 4.052156
v -0.234228 -3.916811 4.025443
v -0.495827 -3.827122 4.089638
v -0.652978 -3.916811 4.308404
v 0.098725 -3.827122 4.969506
v -0.162875 -3.916811 5.033701
v 0.220199 -3.916811 4.246610
v 0.331081 -3.827122 4.492090
v 0.255876 -3.916811 4.750740
v -0.018740 -3.308271 4.160119
v 0.159119 -3.235354 4.287884
v -0.229024 -3.235354 4.098977
v 0.189592 -3.235354 4.718479
v 0.031499 -3.308271 4.870019
v -0.168078 -3.235354 4.960167
v -0.608412 -3.308271 4.558577
v -0.586694 -3.235354 4.340664
v -0.556221 -3.235354 4.771260
v -0.428601 -3.308271 4.189125
v -0.378362 -3.308271 4.899024
v 0.211310 -3.308271 4.500566
v -0.064574 -2.596404 4.254293
v -0.219123 -2.648118 4.238890
v -0.369961 -2.596404 4.275905
v -0.460575 -2.648118 4.402046
v -0.503938 -2.596404 4.551184
v 0.106836 -2.596404 4.507960
v 0.063472 -2.648118 4.657097
v -0.027141 -2.596404 4.783238
v -0.440003 -2.648118 4.692728
v -0.332528 -2.596404 4.804850
v 0.042901 -2.648118 4.366416
v -0.177980 -2.648118 4.820253
vn -0.0000 -1.0000 -0.0000
vn 0.7944 0.2942 0.5314
vn 0.1870 0.2944 0.9372
vn 0.7998 0.2944 0.5231
vn 0.1967 0.2942 0.9353
vn -0.5313 0.2942 0.7944
vn 0.1966 0.2942 0.9353
vn -0.5313 0.2943 0.7944
vn -0.5231 0.2944 0.7998
vn 0.9353 0.2942 -0.1966
vn 0.9372 0.2944 -0.1870
vn 0.7944 0.2942 0.5313
vn 0.5314 0.2942 -0.7944
vn 0.5232 0.2944 -0.7998
vn 0.9353 0.2942 -0.1967
vn -0.7998 0.2944 -0.5232
vn -0.1967 0.2942 -0.9353
vn -0.1870 0.2944 -0.9372
vn -0.7944 0.2942 -0.5314
vn -0.5314 0.2942 0.7944
vn -0.9372 0.2944 0.1870
vn -0.5232 0.2944 0.7998
vn -0.9353 0.2942 0.1967
vn 0.5313 0.2943 -0.7944
vn 0.5231 0.2944 -0.7998
vn 0.5313 0.2942 -0.7944
vn -0.1966 0.2942 -0.9353
vn -0.7998 0.2944 -0.5231
vn -0.9353 0.2942 0.1966
vn -0.7944 0.2942 -0.5313
vn -0.2009 -0.0513 -0.9783
vn -0.8337 -0.0512 -0.5498
vn -0.1991 -0.0513 -0.9786
vn -0.8337 -0.0513 -0.5498
vn -0.2008 -0.0513 -0.9783
vn -0.8327 -0.0513 -0.5513
vn -0.9783 -0.0512 0.2008
vn -0.8328 -0.0512 -0.5513
vn -0.9783 -0.0513 0.2008
vn -0.9786 -0.0512 0.1991
vn 0.1991 -0.0512 0.9786
vn 0.8327 -0.0513 0.5513
vn 0.8337 -0.0513 0.5498
vn 0.2008 -0.0513 0.9783
vn 0.5498 -0.0513 -0.8337
vn 0.9783 -0.0513 -0.2008
vn 0.5513 -0.0513 -0.8327
vn 0.5498 -0.0512 -0.8337
vn 0.9786 -0.0513 -0.1991
vn 0.1991 -0.0513 0.9786
vn -0.5513 -0.0513 0.8328
vn -0.5498 -0.0513 0.8337
vn 0.5513 -0.0513 -0.8328
vn -0.1991 -0.0512 -0.9786
vn 0.9786 -0.0512 -0.1991
vn 0.9783 -0.0512 -0.2008
vn 0.8328 -0.0512 0.5513
vn -0.5513 -0.0513 0.8327
vn -0.5498 -0.0512 0.8337
vn -0.9786 -0.0513 0.1991
vn -0.0000 1.0000 -0.0000
vn 0.8980 0.4042 0.1738
vn 0.5121 0.4042 0.7578
vn 0.5121 0.4043 0.7578
vn -0.7579 0.4042 0.5121
vn -0.8980 0.4042 -0.1737
vn -0.8980 0.4043 -0.1737
vn -0.5121 0.4042 -0.7578
vn -0.8980 0.4042 -0.1738
vn -0.5121 0.4043 -0.7578
vn 0.7579 0.4042 -0.5121
vn 0.8980 0.4042 0.1737
vn 0.8980 0.4043 0.1737
vn -0.1738 0.4042 0.8980
vn -0.7578 0.4042 0.5121
vn -0.7578 0.4043 0.5121
vn 0.1738 0.4042 -0.8980
vn 0.7578 0.4042 -0.5121
vn -0.1737 0.4042 0.8980
vn 0.5121 0.4043 0.7579
vn 0.5121 0.4042 0.7579
vn -0.5121 0.4042 -0.7579
vn 0.1737 0.4042 -0.8980
vn -0.5121 0.4043 -0.7579
vn -0.4142 0.3228 0.8510
vn -0.9441 0.3228 0.0668
vn 0.9441 0.3228 -0.0668
vn 0.5299 0.3228 0.7842
vn 0.4142 0.3228 -0.8510
vn -0.5299 0.3228 -0.7842
vn 0.3851 0.7260 0.5698
vn -0.4158 0.3115 0.8544
vn 0.5320 0.3115 0.7874
vn -0.3010 0.7260 0.6184
vn -0.5320 0.3115 -0.7873
vn -0.6860 0.7260 0.0486
vn -0.3850 0.7260 -0.5699
vn -0.9479 0.3115 0.0671
vn 0.3009 0.7260 -0.6184
vn 0.9479 0.3115 -0.0671
vn 0.4159 0.3115 -0.8544
vn 0.6860 0.7260 -0.0485
vn 0.6860 0.7260 -0.0486
vn 0.5320 0.3115 0.7873
vn 0.3850 0.7260 0.5699
vn 0.6860 0.7259 -0.0485
vn -0.3009 0.7259 0.6184
vn 0.3850 0.7259 0.5699
vn -0.3010 0.7259 0.6184
vn -0.6860 0.7259 0.0485
vn 0.3010 0.7259 -0.6184
vn 0.3009 0.7259 -0.6184
vn -0.3850 0.7259 -0.5699
vn 0.3010 0.7260 -0.6184
vn 0.4158 0.3115 -0.8544
vn 0.3009 0.7260 -0.6183
vn -0.3850 0.7260 -0.5698
vn -0.3009 0.7260 0.6184
vn -0.4159 0.3115 0.8544
vn -0.6860 0.7260 0.0485
vn 0.8510 0.3228 0.4142
vn 0.0668 0.3228 0.9441
vn 0.7842 0.3228 -0.5299
vn -0.7842 0.3228 0.5299
vn -0.8510 0.3228 -0.4142
vn -0.0668 0.3228 -0.9441
vn -0.3775 0.5060 0.7755
vn -0.8604 0.5060 0.0609
vn -0.7387 0.4530 0.4992
vn -0.3775 0.5060 0.7756
vn 0.7387 -0.4530 -0.4992
vn 0.8604 -0.5060 -0.0609
vn 0.3775 -0.5060 -0.7755
vn 0.3774 -0.5060 -0.7755
vn -0.0629 0.4530 -0.8893
vn 0.3775 0.5060 -0.7755
vn 0.3774 0.5060 -0.7755
vn -0.4829 0.5060 -0.7147
vn -0.3775 -0.5060 0.7755
vn 0.0629 -0.4530 0.8893
vn 0.4829 -0.5060 0.7147
vn -0.3775 -0.5060 0.7756
vn 0.4829 -0.5060 0.7146
vn -0.8016 0.4530 -0.3901
vn 0.8016 -0.4530 0.3901
vn 0.4829 0.5060 0.7147
vn 0.0629 0.4530 0.8893
vn -0.3774 0.5060 0.7755
vn -0.4829 -0.5060 -0.7147
vn -0.0629 -0.4530 -0.8893
vn 0.3775 -0.5060 -0.7756
vn 0.8604 0.5060 -0.0609
vn 0.7387 0.4530 -0.4992
vn 0.3775 0.5060 -0.7756
vn -0.7387 -0.4530 0.4992
vn -0.8604 -0.5060 0.0609
vn 0.8016 0.4530 0.3901
vn 0.4829 0.5060 0.7146
vn 0.8016 0.4530 0.3902
vn -0.8016 -0.4530 -0.3902
vn -0.8016 -0.4530 -0.3901
vn -0.0609 0.5060 -0.8604
vn 0.7147 0.5060 -0.4829
vn 0.3902 0.4530 -0.8016
vn -0.3902 -0.4530 0.8016
vn -0.7147 -0.5060 0.4829
vn 0.0609 -0.5060 0.8604
vn 0.7755 0.5060 0.3775
vn 0.4992 0.4530 0.7387
vn 0.7756 0.5060 0.3775
vn 0.0609 0.5060 0.8604
vn -0.7755 -0.5060 -0.3775
vn -0.4992 -0.4530 -0.7387
vn -0.7755 -0.5060 -0.3774
vn -0.0609 -0.5060 -0.8604
vn -0.7147 0.5060 0.4829
vn -0.7755 0.5060 -0.3775
vn -0.8893 0.4530 0.0629
vn -0.7756 0.5060 -0.3775
vn 0.8893 -0.4530 -0.0629
vn 0.7756 -0.5060 0.3775
vn 0.7147 -0.5060 -0.4829
vn -0.4992 0.4530 -0.7387
vn 0.4992 -0.4530 0.7387
vn 0.7755 -0.5060 0.3775
vn -0.7146 0.5060 0.4829
vn -0.3901 0.4530 0.8016
vn 0.3901 -0.4530 -0.8016
vn 0.8893 0.4530 -0.0629
vn -0.8893 -0.4530 0.0629
vn -0.7756 -0.5060 -0.3775
vn 0.3774 0.5061 -0.7755
vn -0.4829 0.5060 -0.7146
vn -0.8016 0.4530 -0.3902
vn 0.0629 0.4529 0.8893
vn -0.4829 -0.5060 -0.7146
vn -0.0629 -0.4529 -0.8893
vt 0.593750 0.025000
vt 0.593750 0.104996
vt 0.593750 0.225000
vt 0.093750 0.475000
vt 0.093750 0.275000
vt 0.093750 0.425000
vt 0.093750 0.348778
vt 0.093750 0.338765
vt 0.093750 0.344099
vt 0.093750 0.375000
vt 0.093750 0.325000
s 0
usemtl colormap.002
f 3/1/1 2/1/1 1/1/1
f 2/1/1 3/1/1 4/1/1
f 4/1/1 3/1/1 5/1/1
f 4/1/1 5/1/1 6/1/1
f 6/1/1 5/1/1 7/1/1
f 6/1/1 7/1/1 8/1/1
f 9/2/2 1/1/3 2/1/4
f 1/1/3 9/2/2 10/2/5
f 11/2/6 1/1/3 10/2/7
f 1/1/3 11/2/8 3/1/9
f 12/2/10 2/1/4 4/1/11
f 2/1/4 12/2/10 9/2/12
f 13/2/13 4/1/11 6/1/14
f 4/1/11 13/2/13 12/2/15
f 7/1/16 14/2/17 8/1/18
f 14/2/17 7/1/16 15/2/19
f 11/2/20 5/1/21 3/1/22
f 5/1/21 11/2/20 16/2/23
f 8/1/18 13/2/24 6/1/25
f 13/2/26 8/1/18 14/2/27
f 7/1/28 16/2/29 15/2/30
f 16/2/29 7/1/28 5/1/21
f 14/2/31 18/3/32 17/3/33
f 18/3/34 14/2/35 15/2/36
f 16/2/37 18/3/34 15/2/38
f 18/3/34 16/2/39 19/3/40
f 21/3/41 9/2/42 20/3/43
f 9/2/42 21/3/41 10/2/44
f 22/3/45 12/2/46 13/2/47
f 12/2/46 22/3/48 23/3/49
f 21/3/50 11/2/51 10/2/44
f 11/2/51 21/3/41 24/3/52
f 13/2/53 17/3/54 22/3/45
f 17/3/33 13/2/53 14/2/35
f 20/3/43 12/2/46 23/3/55
f 12/2/56 20/3/43 9/2/57
f 24/3/52 16/2/39 11/2/58
f 16/2/39 24/3/59 19/3/60
f 27/4/61 26/4/61 25/4/61
f 26/4/61 27/4/61 28/4/61
f 26/4/61 28/4/61 29/4/61
f 29/4/61 28/4/61 30/4/61
f 29/4/61 30/4/61 31/4/61
f 31/4/61 30/4/61 32/4/61
f 35/5/1 34/5/1 33/5/1
f 34/5/1 35/5/1 36/5/1
f 34/5/1 36/5/1 37/5/1
f 37/5/1 36/5/1 38/5/1
f 37/5/1 38/5/1 39/5/1
f 39/5/1 38/5/1 40/5/1
f 27/4/62 33/5/63 34/5/62
f 33/5/63 27/4/62 25/4/64
f 29/4/65 38/5/66 36/5/65
f 38/5/66 29/4/65 31/4/67
f 40/5/68 31/4/69 32/4/70
f 31/4/69 40/5/68 38/5/69
f 28/4/71 34/5/72 37/5/71
f 34/5/72 28/4/71 27/4/73
f 26/4/74 36/5/75 35/5/74
f 36/5/75 26/4/74 29/4/76
f 30/4/77 37/5/78 39/5/77
f 37/5/71 30/4/77 28/4/78
f 26/4/79 33/5/80 25/4/81
f 33/5/81 26/4/79 35/5/79
f 40/5/82 30/4/83 39/5/83
f 30/4/83 40/5/84 32/4/82
f 43/6/85 42/7/86 41/7/85
f 42/7/86 43/6/85 44/6/86
f 47/6/87 46/7/88 45/7/87
f 46/7/88 47/6/87 48/6/88
f 50/6/89 45/7/87 49/7/89
f 45/7/87 50/6/89 47/6/87
f 48/6/88 41/7/85 46/7/88
f 41/7/85 48/6/88 43/6/85
f 52/7/90 44/6/86 51/6/90
f 44/6/86 52/7/90 42/7/86
f 52/7/90 50/6/89 49/7/89
f 50/6/89 52/7/90 51/6/90
f 41/7/1 45/7/1 46/7/1
f 45/7/1 41/7/1 42/7/1
f 45/7/1 42/7/1 49/7/1
f 49/7/1 42/7/1 52/7/1
f 55/6/91 54/8/92 53/8/93
f 54/8/92 55/6/91 56/6/94
f 59/8/95 58/6/96 57/6/97
f 58/6/96 59/8/95 60/8/98
f 63/6/99 62/8/100 61/8/101
f 62/8/100 63/6/99 64/6/102
f 64/6/103 53/8/104 62/8/100
f 53/8/104 64/6/103 55/6/105
f 64/6/106 56/6/107 55/6/108
f 56/6/109 64/6/106 58/6/110
f 58/6/110 64/6/106 63/6/111
f 58/6/110 63/6/112 57/6/113
f 59/8/95 63/6/114 61/8/115
f 63/6/116 59/8/95 57/6/117
f 54/8/1 62/8/1 53/8/1
f 62/8/1 54/8/1 60/8/1
f 62/8/1 60/8/1 61/8/1
f 61/8/1 60/8/1 59/8/1
f 56/6/118 60/8/98 54/8/119
f 60/8/98 56/6/118 58/6/120
f 67/6/121 66/9/122 65/9/121
f 66/9/122 67/6/121 68/6/122
f 70/6/123 65/9/121 69/9/123
f 65/9/121 70/6/123 67/6/121
f 68/6/122 71/9/124 66/9/122
f 71/9/124 68/6/122 72/6/124
f 72/6/124 73/9/125 71/9/124
f 73/9/125 72/6/124 74/6/125
f 71/9/1 65/9/1 66/9/1
f 65/9/1 71/9/1 69/9/1
f 69/9/1 71/9/1 73/9/1
f 69/9/1 73/9/1 75/9/1
f 76/6/126 69/9/123 75/9/126
f 69/9/123 76/6/126 70/6/123
f 73/9/125 76/6/126 75/9/126
f 76/6/126 73/9/125 74/6/125
f 79/10/127 78/10/128 77/11/129
f 78/10/128 79/10/130 41/6/130
f 78/10/128 41/6/127 42/6/128
f 77/11/131 78/10/132 79/10/133
f 41/6/133 79/10/133 78/10/132
f 42/6/132 41/6/134 78/10/132
f 81/11/135 49/6/136 80/10/136
f 49/6/137 81/11/135 52/6/138
f 52/6/138 81/11/135 82/10/138
f 80/10/139 49/6/139 81/11/140
f 52/6/141 81/11/140 49/6/142
f 82/10/141 81/11/140 52/6/143
f 82/10/138 42/6/128 52/6/138
f 42/6/128 82/10/138 83/11/144
f 42/6/128 83/11/144 78/10/128
f 52/6/141 42/6/132 82/10/141
f 83/11/145 82/10/141 42/6/132
f 78/10/132 83/11/145 42/6/132
f 46/6/146 85/11/147 84/10/146
f 85/11/147 46/6/146 41/6/148
f 85/11/147 41/6/148 79/10/127
f 84/10/149 85/11/150 46/6/149
f 41/6/151 46/6/149 85/11/150
f 79/10/151 41/6/133 85/11/150
f 80/10/136 87/10/152 86/11/153
f 87/10/152 80/10/136 49/6/136
f 87/10/152 49/6/154 45/6/152
f 86/11/155 87/10/156 80/10/139
f 49/6/139 80/10/139 87/10/156
f 45/6/156 49/6/139 87/10/156
f 45/6/152 88/11/157 87/10/152
f 88/11/157 45/6/152 46/6/158
f 88/11/159 46/6/158 84/10/146
f 87/10/156 88/11/160 45/6/156
f 46/6/149 45/6/156 88/11/161
f 84/10/149 46/6/149 88/11/160
f 91/10/162 90/10/163 89/11/164
f 90/10/163 91/10/162 75/6/162
f 90/10/163 75/6/162 69/6/163
f 89/11/165 90/10/166 91/10/167
f 75/6/167 91/10/167 90/10/166
f 69/6/166 75/6/167 90/10/166
f 65/6/168 93/11/169 92/10/170
f 93/11/169 65/6/170 66/6/171
f 93/11/169 66/6/171 94/10/171
f 92/10/172 93/11/173 65/6/174
f 66/6/175 65/6/172 93/11/173
f 94/10/175 66/6/175 93/11/173
f 97/10/176 96/10/177 95/11/178
f 96/10/179 97/10/176 71/6/176
f 96/10/179 71/6/176 73/6/179
f 95/11/180 96/10/181 97/10/182
f 71/6/182 97/10/182 96/10/181
f 73/6/181 71/6/182 96/10/181
f 98/11/183 75/6/162 91/10/162
f 75/6/162 98/11/183 73/6/179
f 73/6/177 98/11/183 96/10/179
f 91/10/167 75/6/167 98/11/184
f 73/6/185 98/11/184 75/6/167
f 96/10/185 98/11/184 73/6/185
f 94/10/171 97/10/186 99/11/187
f 97/10/176 94/10/171 66/6/171
f 97/10/176 66/6/171 71/6/176
f 99/11/188 97/10/182 94/10/175
f 66/6/175 94/10/175 97/10/182
f 71/6/182 66/6/175 97/10/182
f 90/10/163 92/10/168 100/11/189
f 92/10/170 90/10/163 69/6/163
f 92/10/170 69/6/163 65/6/170
f 100/11/190 92/10/191 90/10/166
f 69/6/166 90/10/166 92/10/191
f 65/6/191 69/6/166 92/10/191
f 102/11/135 61/6/192 101/10/136
f 61/6/136 102/11/135 59/6/138
f 59/6/193 102/11/135 103/10/138
f 101/10/142 61/6/139 102/11/140
f 59/6/141 102/11/140 61/6/142
f 103/10/141 102/11/140 59/6/143
f 103/10/138 60/6/128 59/6/138
f 60/6/128 103/10/138 104/11/194
f 60/6/128 104/11/194 105/10/128
f 59/6/141 60/6/132 103/10/141
f 104/11/145 103/10/141 60/6/132
f 105/10/132 104/11/145 60/6/132
f 62/6/152 107/11/157 106/10/152
f 107/11/159 62/6/152 53/6/158
f 107/11/159 53/6/158 108/10/146
f 106/10/156 107/11/161 62/6/156
f 53/6/149 62/6/156 107/11/160
f 108/10/149 53/6/149 107/11/161
f 110/10/127 105/10/128 109/11/129
f 105/10/128 110/10/130 54/6/130
f 105/10/128 54/6/127 60/6/128
f 109/11/131 105/10/132 110/10/134
f 54/6/151 110/10/151 105/10/132
f 60/6/132 54/6/134 105/10/132
f 101/10/136 106/10/152 111/11/153
f 106/10/152 101/10/136 61/6/136
f 106/10/152 61/6/154 62/6/152
f 111/11/155 106/10/156 101/10/139
f 61/6/139 101/10/139 106/10/156
f 62/6/156 61/6/139 106/10/156
f 53/6/158 112/11/147 108/10/146
f 112/11/147 53/6/146 54/6/148
f 112/11/195 54/6/127 110/10/130
f 108/10/149 112/11/150 53/6/196
f 54/6/151 53/6/149 112/11/150
f 110/10/151 54/6/151 112/11/197
f 3/1/1 2/1/1 1/1/1
f 2/1/1 3/1/1 4/1/1
f 4/1/1 3/1/1 5/1/1
f 4/1/1 5/1/1 6/1/1
f 6/1/1 5/1/1 7/1/1
f 6/1/1 7/1/1 8/1/1
f 9/2/2 1/1/3 2/1/4
f 1/1/3 9/2/2 10/2/5
f 11/2/6 1/1/3 10/2/7
f 1/1/3 11/2/8 3/1/9
f 12/2/10 2/1/4 4/1/11
f 2/1/4 12/2/10 9/2/12
f 13/2/13 4/1/11 6/1/14
f 4/1/11 13/2/13 12/2/15
f 7/1/16 14/2/17 8/1/18
f 14/2/17 7/1/16 15/2/19
f 11/2/20 5/1/21 3/1/22
f 5/1/21 11/2/20 16/2/23
f 8/1/18 13/2/24 6/1/25
f 13/2/26 8/1/18 14/2/27
f 7/1/28 16/2/29 15/2/30
f 16/2/29 7/1/28 5/1/21
f 14/2/31 18/3/32 17/3/33
f 18/3/34 14/2/35 15/2/36
f 16/2/37 18/3/34 15/2/38
f 18/3/34 16/2/39 19/3/40
f 21/3/41 9/2/42 20/3/43
f 9/2/42 21/3/41 10/2/44
f 22/3/45 12/2/46 13/2/47
f 12/2/46 22/3/48 23/3/49
f 21/3/50 11/2/51 10/2/44
f 11/2/51 21/3/41 24/3/52
f 13/2/53 17/3/54 22/3/45
f 17/3/33 13/2/53 14/2/35
f 20/3/43 12/2/46 23/3/55
f 12/2/56 20/3/43 9/2/57
f 24/3/52 16/2/39 11/2/58
f 16/2/39 24/3/59 19/3/60
f 27/4/61 26/4/61 25/4/61
f 26/4/61 27/4/61 28/4/61
f 26/4/61 28/4/61 29/4/61
f 29/4/61 28/4/61 30/4/61
f 29/4/61 30/4/61 31/4/61
f 31/4/61 30/4/61 32/4/61
f 35/5/1 34/5/1 33/5/1
f 34/5/1 35/5/1 36/5/1
f 34/5/1 36/5/1 37/5/1
f 37/5/1 36/5/1 38/5/1
f 37/5/1 38/5/1 39/5/1
f 39/5/1 38/5/1 40/5/1
f 27/4/62 33/5/63 34/5/62
f 33/5/63 27/4/62 25/4/64
f 29/4/65 38/5/66 36/5/65
f 38/5/66 29/4/65 31/4/67
f 40/5/68 31/4/69 32/4/70
f 31/4/69 40/5/68 38/5/69
f 28/4/71 34/5/72 37/5/71
f 34/5/72 28/4/71 27/4/73
f 26/4/74 36/5/75 35/5/74
f 36/5/75 26/4/74 29/4/76
f 30/4/77 37/5/78 39/5/77
f 37/5/71 30/4/77 28/4/78
f 26/4/79 33/5/80 25/4/81
f 33/5/81 26/4/79 35/5/79
f 40/5/82 30/4/83 39/5/83
f 30/4/83 40/5/84 32/4/82
f 43/6/85 42/7/86 41/7/85
f 42/7/86 43/6/85 44/6/86
f 47/6/87 46/7/88 45/7/87
f 46/7/88 47/6/87 48/6/88
f 50/6/89 45/7/87 49/7/89
f 45/7/87 50/6/89 47/6/87
f 48/6/88 41/7/85 46/7/88
f 41/7/85 48/6/88 43/6/85
f 52/7/90 44/6/86 51/6/90
f 44/6/86 52/7/90 42/7/86
f 52/7/90 50/6/89 49/7/89
f 50/6/89 52/7/90 51/6/90
f 41/7/1 45/7/1 46/7/1
f 45/7/1 41/7/1 42/7/1
f 45/7/1 42/7/1 49/7/1
f 49/7/1 42/7/1 52/7/1
f 55/6/91 54/8/92 53/8/93
f 54/8/92 55/6/91 56/6/94
f 59/8/95 58/6/96 57/6/97
f 58/6/96 59/8/95 60/8/98
f 63/6/99 62/8/100 61/8/101
f 62/8/100 63/6/99 64/6/102
f 64/6/103 53/8/104 62/8/100
f 53/8/104 64/6/103 55/6/105
f 64/6/106 56/6/107 55/6/108
f 56/6/109 64/6/106 58/6/110
f 58/6/110 64/6/106 63/6/111
f 58/6/110 63/6/112 57/6/113
f 59/8/95 63/6/114 61/8/115
f 63/6/116 59/8/95 57/6/117
f 54/8/1 62/8/1 53/8/1
f 62/8/1 54/8/1 60/8/1
f 62/8/1 60/8/1 61/8/1
f 61/8/1 60/8/1 59/8/1
f 56/6/118 60/8/98 54/8/119
f 60/8/98 56/6/118 58/6/120
f 67/6/121 66/9/122 65/9/121
f 66/9/122 67/6/121 68/6/122
f 70/6/123 65/9/121 69/9/123
f 65/9/121 70/6/123 67/6/121
f 68/6/122 71/9/124 66/9/122
f 71/9/124 68/6/122 72/6/124
f 72/6/124 73/9/125 71/9/124
f 73/9/125 72/6/124 74/6/125
f 71/9/1 65/9/1 66/9/1
f 65/9/1 71/9/1 69/9/1
f 69/9/1 71/9/1 73/9/1
f 69/9/1 73/9/1 75/9/1
f 76/6/126 69/9/123 75/9/126
f 69/9/123 76/6/126 70/6/123
f 73/9/125 76/6/126 75/9/126
f 76/6/126 73/9/125 74/6/125
f 79/10/127 78/10/128 77/11/129
f 78/10/128 79/10/130 41/6/130
f 78/10/128 41/6/127 42/6/128
f 77/11/131 78/10/132 79/10/133
f 41/6/133 79/10/133 78/10/132
f 42/6/132 41/6/134 78/10/132
f 81/11/135 49/6/136 80/10/136
f 49/6/137 81/11/135 52/6/138
f 52/6/138 81/11/135 82/10/138
f 80/10/139 49/6/139 81/11/140
f 52/6/141 81/11/140 49/6/142
f 82/10/141 81/11/140 52/6/143
f 82/10/138 42/6/128 52/6/138
f 42/6/128 82/10/138 83/11/144
f 42/6/128 83/11/144 78/10/128
f 52/6/141 42/6/132 82/10/141
f 83/11/145 82/10/141 42/6/132
f 78/10/132 83/11/145 42/6/132
f 46/6/146 85/11/147 84/10/146
f 85/11/147 46/6/146 41/6/148
f 85/11/147 41/6/148 79/10/127
f 84/10/149 85/11/150 46/6/149
f 41/6/151 46/6/149 85/11/150
f 79/10/151 41/6/133 85/11/150
f 80/10/136 87/10/152 86/11/153
f 87/10/152 80/10/136 49/6/136
f 87/10/152 49/6/154 45/6/152
f 86/11/155 87/10/156 80/10/139
f 49/6/139 80/10/139 87/10/156
f 45/6/156 49/6/139 87/10/156
f 45/6/152 88/11/157 87/10/152
f 88/11/157 45/6/152 46/6/158
f 88/11/159 46/6/158 84/10/146
f 87/10/156 88/11/160 45/6/156
f 46/6/149 45/6/156 88/11/161
f 84/10/149 46/6/149 88/11/160
f 91/10/162 90/10/163 89/11/164
f 90/10/163 91/10/162 75/6/162
f 90/10/163 75/6/162 69/6/163
f 89/11/165 90/10/166 91/10/167
f 75/6/167 91/10/167 90/10/166
f 69/6/166 75/6/167 90/10/166
f 65/6/168 93/11/169 92/10/170
f 93/11/169 65/6/170 66/6/171
f 93/11/169 66/6/171 94/10/171
f 92/10/172 93/11/173 65/6/174
f 66/6/175 65/6/172 93/11/173
f 94/10/175 66/6/175 93/11/173
f 97/10/176 96/10/177 95/11/178
f 96/10/179 97/10/176 71/6/176
f 96/10/179 71/6/176 73/6/179
f 95/11/180 96/10/181 97/10/182
f 71/6/182 97/10/182 96/10/181
f 73/6/181 71/6/182 96/10/181
f 98/11/183 75/6/162 91/10/162
f 75/6/162 98/11/183 73/6/179
f 73/6/177 98/11/183 96/10/179
f 91/10/167 75/6/167 98/11/184
f 73/6/185 98/11/184 75/6/167
f 96/10/185 98/11/184 73/6/185
f 94/10/171 97/10/186 99/11/187
f 97/10/176 94/10/171 66/6/171
f 97/10/176 66/6/171 71/6/176
f 99/11/188 97/10/182 94/10/175
f 66/6/175 94/10/175 97/10/182
f 71/6/182 66/6/175 97/10/182
f 90/10/163 92/10/168 100/11/189
f 92/10/170 90/10/163 69/6/163
f 92/10/170 69/6/163 65/6/170
f 100/11/190 92/10/191 90/10/166
f 69/6/166 90/10/166 92/10/191
f 65/6/191 69/6/166 92/10/191
f 102/11/135 61/6/192 101/10/136
f 61/6/136 102/11/135 59/6/138
f 59/6/193 102/11/135 103/10/138
f 101/10/142 61/6/139 102/11/140
f 59/6/141 102/11/140 61/6/142
f 103/10/141 102/11/140 59/6/143
f 103/10/138 60/6/128 59/6/138
f 60/6/128 103/10/138 104/11/194
f 60/6/128 104/11/194 105/10/128
f 59/6/141 60/6/132 103/10/141
f 104/11/145 103/10/141 60/6/132
f 105/10/132 104/11/145 60/6/132
f 62/6/152 107/11/157 106/10/152
f 107/11/159 62/6/152 53/6/158
f 107/11/159 53/6/158 108/10/146
f 106/10/156 107/11/161 62/6/156
f 53/6/149 62/6/156 107/11/160
f 108/10/149 53/6/149 107/11/161
f 110/10/127 105/10/128 109/11/129
f 105/10/128 110/10/130 54/6/130
f 105/10/128 54/6/127 60/6/128
f 109/11/131 105/10/132 110/10/134
f 54/6/151 110/10/151 105/10/132
f 60/6/132 54/6/134 105/10/132
f 101/10/136 106/10/152 111/11/153
f 106/10/152 101/10/136 61/6/136
f 106/10/152 61/6/154 62/6/152
f 111/11/155 106/10/156 101/10/139
f 61/6/139 101/10/139 106/10/156
f 62/6/156 61/6/139 106/10/156
f 53/6/158 112/11/147 108/10/146
f 112/11/147 53/6/146 54/6/148
f 112/11/195 54/6/127 110/10/130
f 108/10/149 112/11/150 53/6/196
f 54/6/151 53/6/149 112/11/150
f 110/10/151 54/6/151 112/11/197
