# Blender 4.1.1
# www.blender.org
mtllib tree.043.mtl
o tree.043
v -4.181717 -0.282319 -13.338008
v -4.023421 -0.282319 -13.249095
v -4.216408 -0.282319 -13.461612
v -3.899816 -0.282319 -13.283786
v -4.127495 -0.282319 -13.619908
v -3.810903 -0.282319 -13.442081
v -4.003890 -0.282319 -13.654599
v -3.845594 -0.282319 -13.565686
v -4.018538 0.046402 -13.350471
v -4.097686 0.046402 -13.394927
v -4.115032 0.046402 -13.456730
v -3.956736 0.046402 -13.367817
v -3.912279 0.046402 -13.446964
v -3.929625 0.046402 -13.508766
v -4.008773 0.046402 -13.553223
v -4.070575 0.046402 -13.535877
v -3.908617 0.539521 -13.522997
v -4.007552 0.539521 -13.578568
v -4.084805 0.539521 -13.556885
v -4.019759 0.539521 -13.325127
v -4.118694 0.539521 -13.380697
v -3.886935 0.539521 -13.445744
v -3.942506 0.539521 -13.346809
v -4.140376 0.539521 -13.457951
v -4.048450 0.163768 -13.299294
v -4.092481 0.163768 -13.355290
v -3.977720 0.163768 -13.290831
v -3.921722 0.163768 -13.334861
v -4.084019 0.163768 -13.426021
v -3.913260 0.163768 -13.405591
v -4.028020 0.163768 -13.470051
v -3.957290 0.163768 -13.461590
v -4.074268 0.044485 -13.253328
v -3.963475 0.044485 -13.240073
v -4.143238 0.044485 -13.341044
v -4.129982 0.044485 -13.451838
v -3.875759 0.044485 -13.309043
v -4.042266 0.044485 -13.520807
v -3.862503 0.044485 -13.419837
v -3.931473 0.044485 -13.507553
v -4.461456 0.539521 -13.454175
v -4.240030 0.539521 -13.848389
v -4.276093 1.083027 -13.456367
v -4.145451 1.083027 -13.688954
v -3.778660 0.539521 -13.070655
v -4.230771 0.539521 -13.065309
v -3.873240 1.083027 -13.230087
v -4.139987 1.083027 -13.226933
v -3.557234 0.539521 -13.464867
v -3.742598 1.083027 -13.462675
v -3.878703 1.083027 -13.692108
v -3.787919 0.539521 -13.853734
v -4.137020 1.666943 -13.232217
v -4.270033 1.666943 -13.456438
v -4.038691 2.279410 -13.407276
v -4.069263 2.279410 -13.458813
v -3.980000 2.279410 -13.511765
v -4.039918 2.279410 -13.511058
v -3.881671 1.666943 -13.686825
v -4.142358 1.666943 -13.683743
v -3.748657 1.666943 -13.462604
v -3.876332 1.666943 -13.235301
v -3.949427 2.279410 -13.460229
v -3.978773 2.279410 -13.407984
v -4.004999 1.083027 -13.091950
v -4.325497 1.083027 -13.271973
v -4.007354 1.666943 -13.291097
v -4.154210 1.666943 -13.373584
v -3.688847 1.083027 -13.279500
v -3.862489 1.666943 -13.377033
v -4.329843 1.083027 -13.639543
v -4.156201 1.666943 -13.542009
v -4.013691 1.083027 -13.827091
v -4.011337 1.666943 -13.627946
v -3.693193 1.083027 -13.647071
v -3.864481 1.666943 -13.545458
v -4.425851 0.369968 -13.693468
v -4.265406 0.454744 -13.891163
v -4.511189 0.454744 -13.453587
v -3.507502 0.454744 -13.465455
v -3.598488 0.369968 -13.703252
v -3.763562 0.454744 -13.897098
v -4.014993 0.369968 -13.937201
v -4.255128 0.454744 -13.021945
v -4.420202 0.369968 -13.215790
v -3.592839 0.369968 -13.225574
v -3.753284 0.454744 -13.027880
v -4.003697 0.369968 -12.981843
v -3.620989 0.945179 -13.464113
v -3.653592 1.014103 -13.259698
v -3.658417 1.014103 -13.667701
v -4.004520 1.014103 -13.051518
v -4.199546 0.945179 -13.120899
v -4.360273 1.014103 -13.251343
v -4.207500 0.945179 -13.793552
v -4.014169 1.014103 -13.867523
v -4.365098 1.014103 -13.659344
v -3.819144 0.945179 -13.798143
v -4.397701 0.945179 -13.454929
v -3.811190 0.945179 -13.125490
v -3.719981 1.618061 -13.462943
v -3.772444 1.569178 -13.600057
v -3.867627 1.618061 -13.711828
v -4.012602 1.569178 -13.734951
v -4.156990 1.618061 -13.708406
v -3.861700 1.618061 -13.210636
v -4.006088 1.569178 -13.184091
v -4.151064 1.618061 -13.207213
v -4.249503 1.569178 -13.594417
v -4.298709 1.618061 -13.456100
v -3.769187 1.569178 -13.324627
v -4.246246 1.569178 -13.318985
vn -0.0000 -1.0000 -0.0000
vn -0.1190 0.2942 0.9483
vn -0.7540 0.2944 0.5873
vn -0.1092 0.2944 0.9494
vn -0.7539 0.2944 0.5873
vn -0.7479 0.2942 0.5951
vn -0.9483 0.2942 -0.1189
vn -0.7540 0.2944 0.5872
vn -0.7480 0.2942 0.5950
vn -0.9483 0.2943 -0.1189
vn -0.9494 0.2944 -0.1091
vn 0.5950 0.2942 0.7480
vn -0.1091 0.2944 0.9494
vn 0.5872 0.2944 0.7540
vn 0.5950 0.2942 0.7479
vn -0.1189 0.2942 0.9483
vn 0.9483 0.2942 0.1190
vn 0.5873 0.2944 0.7540
vn 0.9494 0.2944 0.1092
vn 0.5951 0.2942 0.7479
vn 0.1092 0.2944 -0.9494
vn 0.7479 0.2942 -0.5951
vn 0.7540 0.2944 -0.5873
vn 0.1190 0.2942 -0.9483
vn -0.9483 0.2942 -0.1190
vn -0.5873 0.2944 -0.7540
vn -0.9494 0.2944 -0.1092
vn -0.5951 0.2942 -0.7479
vn 0.7540 0.2944 -0.5872
vn 0.9483 0.2942 0.1189
vn 0.9494 0.2944 0.1091
vn 0.7480 0.2942 -0.5950
vn 0.1091 0.2944 -0.9494
vn -0.5950 0.2942 -0.7480
vn 0.1189 0.2942 -0.9483
vn -0.5872 0.2944 -0.7540
vn 0.7845 -0.0513 -0.6180
vn 0.1178 -0.0512 -0.9917
vn 0.7856 -0.0513 -0.6166
vn 0.1178 -0.0513 -0.9917
vn 0.1196 -0.0513 -0.9915
vn -0.6180 -0.0512 -0.7845
vn 0.1195 -0.0512 -0.9915
vn -0.6180 -0.0513 -0.7845
vn -0.6166 -0.0512 -0.7856
vn -0.7856 -0.0512 0.6166
vn -0.1196 -0.0513 0.9915
vn -0.1178 -0.0513 0.9917
vn -0.7845 -0.0513 0.6180
vn 0.9917 -0.0513 0.1178
vn 0.6180 -0.0513 0.7845
vn 0.9915 -0.0513 0.1196
vn 0.9917 -0.0512 0.1178
vn 0.6166 -0.0513 0.7856
vn -0.7856 -0.0513 0.6166
vn -0.9915 -0.0513 -0.1195
vn -0.9917 -0.0513 -0.1178
vn 0.9915 -0.0513 0.1195
vn 0.7856 -0.0512 -0.6166
vn -0.1177 -0.0513 0.9917
vn 0.6166 -0.0512 0.7856
vn 0.6180 -0.0512 0.7845
vn -0.1195 -0.0512 0.9915
vn -0.9915 -0.0513 -0.1196
vn -0.9917 -0.0512 -0.1178
vn -0.6166 -0.0513 -0.7856
vn -0.0000 1.0000 -0.0000
vn 0.2471 0.4042 0.8806
vn -0.4479 0.4042 0.7975
vn -0.4479 0.4043 0.7975
vn -0.7975 0.4042 -0.4480
vn -0.2472 0.4042 -0.8806
vn -0.2472 0.4043 -0.8806
vn 0.4479 0.4042 -0.7975
vn 0.4479 0.4043 -0.7975
vn -0.2471 0.4042 -0.8807
vn -0.2471 0.4042 -0.8806
vn 0.7975 0.4042 0.4480
vn 0.2472 0.4042 0.8806
vn 0.2472 0.4043 0.8806
vn -0.8806 0.4042 0.2471
vn -0.7975 0.4042 -0.4479
vn -0.7975 0.4043 -0.4479
vn 0.8807 0.4042 -0.2471
vn 0.7975 0.4042 0.4479
vn 0.8806 0.4042 -0.2471
vn 0.7975 0.4043 0.4479
vn -0.8806 0.4042 0.2472
vn -0.4479 0.4043 0.7974
vn -0.4480 0.4042 0.7975
vn 0.4480 0.4042 -0.7975
vn 0.8806 0.4042 -0.2472
vn 0.4479 0.4043 -0.7974
vn -0.9464 0.3228 0.0112
vn -0.4829 0.3228 -0.8140
vn 0.4829 0.3228 0.8140
vn -0.4635 0.3228 0.8252
vn 0.9464 0.3228 -0.0112
vn 0.4635 0.3228 -0.8252
vn -0.3368 0.7260 0.5996
vn -0.9502 0.3115 0.0113
vn -0.4654 0.3115 0.8285
vn -0.9502 0.3115 0.0112
vn -0.6877 0.7260 0.0081
vn 0.4654 0.3115 -0.8285
vn -0.3509 0.7260 -0.5915
vn 0.3369 0.7260 -0.5996
vn -0.4848 0.3115 -0.8173
vn 0.6877 0.7260 -0.0082
vn 0.4848 0.3115 0.8173
vn 0.9502 0.3115 -0.0112
vn 0.4848 0.3115 0.8172
vn 0.3508 0.7260 0.5915
vn 0.3509 0.7260 0.5915
vn -0.4653 0.3115 0.8285
vn -0.3369 0.7260 0.5996
vn 0.3509 0.7259 0.5915
vn -0.6877 0.7259 0.0082
vn -0.3368 0.7259 0.5996
vn -0.6877 0.7259 0.0081
vn -0.3509 0.7259 -0.5915
vn 0.6877 0.7259 -0.0081
vn 0.6877 0.7259 -0.0082
vn 0.3368 0.7259 -0.5996
vn 0.6877 0.7260 -0.0081
vn 0.9502 0.3115 -0.0113
vn 0.6876 0.7260 -0.0082
vn 0.3368 0.7260 -0.5996
vn -0.6877 0.7260 0.0082
vn -0.4848 0.3115 -0.8172
vn -0.3508 0.7260 -0.5915
vn 0.0112 0.3228 0.9464
vn -0.8140 0.3228 0.4829
vn 0.8252 0.3228 0.4635
vn -0.8252 0.3228 -0.4635
vn -0.0112 0.3228 -0.9464
vn 0.8140 0.3228 -0.4829
vn -0.8625 0.5060 0.0102
vn -0.4401 0.5060 -0.7418
vn -0.7773 0.4530 -0.4366
vn 0.7773 -0.4530 0.4366
vn 0.4401 -0.5060 0.7418
vn 0.8625 -0.5060 -0.0102
vn 0.7668 0.4530 -0.4549
vn 0.8624 0.5060 -0.0102
vn 0.8625 0.5060 -0.0102
vn 0.4224 0.5060 -0.7520
vn -0.8625 -0.5060 0.0102
vn -0.7668 -0.4530 0.4549
vn -0.4224 -0.5060 0.7520
vn -0.0105 0.4530 -0.8915
vn 0.0105 -0.4530 0.8915
vn -0.4224 0.5060 0.7520
vn -0.7668 0.4530 0.4549
vn -0.8624 0.5060 0.0102
vn 0.4224 -0.5060 -0.7520
vn 0.7668 -0.4530 -0.4549
vn 0.4401 0.5060 0.7418
vn 0.7773 0.4530 0.4366
vn -0.7773 -0.4530 -0.4366
vn -0.4401 -0.5060 -0.7418
vn 0.0105 0.4530 0.8915
vn -0.0105 -0.4530 -0.8915
vn 0.7418 0.5060 -0.4401
vn 0.7520 0.5060 0.4224
vn 0.8915 0.4530 -0.0105
vn -0.8915 -0.4530 0.0105
vn -0.7520 -0.5060 -0.4224
vn -0.7418 -0.5060 0.4401
vn 0.0102 0.5060 0.8625
vn -0.4366 0.4530 0.7773
vn -0.4366 0.4529 0.7773
vn -0.7418 0.5060 0.4401
vn -0.0102 -0.5060 -0.8625
vn 0.4366 -0.4530 -0.7773
vn 0.7418 -0.5060 -0.4401
vn -0.7520 0.5060 -0.4224
vn -0.0102 0.5060 -0.8625
vn -0.4549 0.4530 -0.7668
vn 0.4549 -0.4530 0.7668
vn 0.0102 -0.5060 0.8625
vn 0.7520 -0.5060 0.4224
vn 0.4366 0.4529 -0.7773
vn 0.4366 0.4530 -0.7773
vn -0.4366 -0.4530 0.7773
vn -0.4366 -0.4529 0.7773
vn -0.8915 0.4530 0.0105
vn 0.8915 -0.4530 -0.0105
vn 0.4549 0.4530 0.7668
vn -0.4549 -0.4530 -0.7668
vn -0.7668 -0.4529 0.4549
vn -0.4224 -0.5061 0.7520
vn -0.0105 0.4529 -0.8915
vn 0.0105 -0.4529 0.8915
vn -0.4224 0.5061 0.7520
vn -0.4401 -0.5061 -0.7418
vn -0.7668 0.4529 0.4549
vn 0.7668 -0.4529 -0.4549
vt 0.593750 0.025000
vt 0.593750 0.104996
vt 0.593750 0.225000
vt 0.093750 0.475000
vt 0.093750 0.275000
vt 0.093750 0.425000
vt 0.093750 0.348778
vt 0.093750 0.338765
vt 0.093750 0.344099
vt 0.093750 0.375000
vt 0.093750 0.325000
s 0
usemtl colormap.002
f 3/1/1 2/1/1 1/1/1
f 2/1/1 3/1/1 4/1/1
f 4/1/1 3/1/1 5/1/1
f 4/1/1 5/1/1 6/1/1
f 6/1/1 5/1/1 7/1/1
f 6/1/1 7/1/1 8/1/1
f 9/2/2 1/1/3 2/1/4
f 1/1/5 9/2/2 10/2/6
f 11/2/7 1/1/8 10/2/9
f 1/1/8 11/2/10 3/1/11
f 12/2/12 2/1/13 4/1/14
f 2/1/13 12/2/15 9/2/16
f 13/2/17 4/1/18 6/1/19
f 4/1/18 13/2/17 12/2/20
f 7/1/21 14/2/22 8/1/23
f 14/2/22 7/1/21 15/2/24
f 11/2/25 5/1/26 3/1/27
f 5/1/26 11/2/25 16/2/28
f 8/1/29 13/2/30 6/1/31
f 13/2/30 8/1/29 14/2/32
f 7/1/33 16/2/34 15/2/35
f 16/2/34 7/1/33 5/1/36
f 14/2/37 18/3/38 17/3/39
f 18/3/40 14/2/37 15/2/41
f 16/2/42 18/3/40 15/2/43
f 18/3/40 16/2/44 19/3/45
f 21/3/46 9/2/47 20/3/48
f 9/2/47 21/3/46 10/2/49
f 22/3/50 12/2/51 13/2/52
f 12/2/51 22/3/53 23/3/54
f 21/3/55 11/2/56 10/2/49
f 11/2/56 21/3/46 24/3/57
f 13/2/58 17/3/59 22/3/50
f 17/3/39 13/2/58 14/2/37
f 20/3/60 12/2/51 23/3/61
f 12/2/62 20/3/60 9/2/63
f 24/3/57 16/2/44 11/2/64
f 16/2/44 24/3/65 19/3/66
f 27/4/67 26/4/67 25/4/67
f 26/4/67 27/4/67 28/4/67
f 26/4/67 28/4/67 29/4/67
f 29/4/67 28/4/67 30/4/67
f 29/4/67 30/4/67 31/4/67
f 31/4/67 30/4/67 32/4/67
f 35/5/1 34/5/1 33/5/1
f 34/5/1 35/5/1 36/5/1
f 34/5/1 36/5/1 37/5/1
f 37/5/1 36/5/1 38/5/1
f 37/5/1 38/5/1 39/5/1
f 39/5/1 38/5/1 40/5/1
f 27/4/68 33/5/69 34/5/68
f 33/5/69 27/4/68 25/4/70
f 29/4/71 38/5/72 36/5/71
f 38/5/72 29/4/71 31/4/73
f 40/5/74 31/4/72 32/4/75
f 31/4/76 40/5/74 38/5/77
f 28/4/78 34/5/79 37/5/78
f 34/5/79 28/4/78 27/4/80
f 26/4/81 36/5/82 35/5/81
f 36/5/82 26/4/81 29/4/83
f 30/4/84 37/5/85 39/5/86
f 37/5/85 30/4/86 28/4/87
f 26/4/88 33/5/89 25/4/90
f 33/5/90 26/4/88 35/5/88
f 40/5/91 30/4/92 39/5/92
f 30/4/92 40/5/93 32/4/91
f 43/6/94 42/7/95 41/7/94
f 42/7/95 43/6/94 44/6/95
f 47/6/96 46/7/97 45/7/96
f 46/7/97 47/6/96 48/6/97
f 50/6/98 45/7/96 49/7/98
f 45/7/96 50/6/98 47/6/96
f 48/6/97 41/7/94 46/7/97
f 41/7/94 48/6/97 43/6/94
f 52/7/99 44/6/95 51/6/99
f 44/6/95 52/7/99 42/7/95
f 52/7/99 50/6/98 49/7/98
f 50/6/98 52/7/99 51/6/99
f 41/7/1 45/7/1 46/7/1
f 45/7/1 41/7/1 42/7/1
f 45/7/1 42/7/1 49/7/1
f 49/7/1 42/7/1 52/7/1
f 55/6/100 54/8/101 53/8/102
f 54/8/103 55/6/100 56/6/104
f 59/8/105 58/6/106 57/6/107
f 58/6/106 59/8/105 60/8/108
f 63/6/109 62/8/110 61/8/111
f 62/8/112 63/6/109 64/6/113
f 64/6/114 53/8/115 62/8/110
f 53/8/102 64/6/114 55/6/116
f 64/6/117 56/6/118 55/6/119
f 56/6/120 64/6/117 58/6/121
f 58/6/121 64/6/117 63/6/122
f 58/6/121 63/6/123 57/6/124
f 59/8/105 63/6/125 61/8/126
f 63/6/127 59/8/105 57/6/128
f 54/8/1 62/8/1 53/8/1
f 62/8/1 54/8/1 60/8/1
f 62/8/1 60/8/1 61/8/1
f 61/8/1 60/8/1 59/8/1
f 56/6/129 60/8/108 54/8/103
f 60/8/130 56/6/129 58/6/131
f 67/6/132 66/9/133 65/9/132
f 66/9/133 67/6/132 68/6/133
f 70/6/134 65/9/132 69/9/134
f 65/9/132 70/6/134 67/6/132
f 68/6/133 71/9/135 66/9/133
f 71/9/135 68/6/133 72/6/135
f 72/6/135 73/9/136 71/9/135
f 73/9/136 72/6/135 74/6/136
f 71/9/1 65/9/1 66/9/1
f 65/9/1 71/9/1 69/9/1
f 69/9/1 71/9/1 73/9/1
f 69/9/1 73/9/1 75/9/1
f 76/6/137 69/9/134 75/9/137
f 69/9/134 76/6/137 70/6/134
f 73/9/136 76/6/137 75/9/137
f 76/6/137 73/9/136 74/6/136
f 79/10/138 78/10/139 77/11/140
f 78/10/139 79/10/138 41/6/138
f 78/10/139 41/6/138 42/6/139
f 77/11/141 78/10/142 79/10/143
f 41/6/143 79/10/143 78/10/142
f 42/6/142 41/6/143 78/10/142
f 81/11/144 49/6/145 80/10/146
f 49/6/145 81/11/144 52/6/147
f 52/6/147 81/11/144 82/10/147
f 80/10/148 49/6/148 81/11/149
f 52/6/150 81/11/149 49/6/148
f 82/10/150 81/11/149 52/6/150
f 82/10/147 42/6/139 52/6/147
f 42/6/139 82/10/147 83/11/151
f 42/6/139 83/11/151 78/10/139
f 52/6/150 42/6/142 82/10/150
f 83/11/152 82/10/150 42/6/142
f 78/10/142 83/11/152 42/6/142
f 46/6/153 85/11/154 84/10/153
f 85/11/154 46/6/153 41/6/155
f 85/11/154 41/6/155 79/10/138
f 84/10/156 85/11/157 46/6/156
f 41/6/143 46/6/156 85/11/157
f 79/10/143 41/6/143 85/11/157
f 80/10/146 87/10/158 86/11/159
f 87/10/158 80/10/146 49/6/146
f 87/10/158 49/6/146 45/6/158
f 86/11/160 87/10/161 80/10/148
f 49/6/148 80/10/148 87/10/161
f 45/6/161 49/6/148 87/10/161
f 45/6/158 88/11/162 87/10/158
f 88/11/162 45/6/158 46/6/153
f 88/11/162 46/6/153 84/10/153
f 87/10/161 88/11/163 45/6/161
f 46/6/156 45/6/161 88/11/163
f 84/10/156 46/6/156 88/11/163
f 91/10/164 90/10/165 89/11/166
f 90/10/165 91/10/164 75/6/164
f 90/10/165 75/6/164 69/6/165
f 89/11/167 90/10/168 91/10/169
f 75/6/169 91/10/169 90/10/168
f 69/6/168 75/6/169 90/10/168
f 65/6/170 93/11/171 92/10/170
f 93/11/172 65/6/170 66/6/173
f 93/11/171 66/6/173 94/10/173
f 92/10/174 93/11/175 65/6/174
f 66/6/176 65/6/174 93/11/175
f 94/10/176 66/6/176 93/11/175
f 97/10/177 96/10/178 95/11/179
f 96/10/178 97/10/177 71/6/177
f 96/10/178 71/6/177 73/6/178
f 95/11/180 96/10/181 97/10/182
f 71/6/182 97/10/182 96/10/181
f 73/6/181 71/6/182 96/10/181
f 98/11/183 75/6/164 91/10/164
f 75/6/164 98/11/183 73/6/178
f 73/6/178 98/11/184 96/10/178
f 91/10/169 75/6/169 98/11/185
f 73/6/181 98/11/186 75/6/169
f 96/10/181 98/11/185 73/6/181
f 94/10/173 97/10/177 99/11/187
f 97/10/177 94/10/173 66/6/173
f 97/10/177 66/6/173 71/6/177
f 99/11/188 97/10/182 94/10/176
f 66/6/176 94/10/176 97/10/182
f 71/6/182 66/6/176 97/10/182
f 90/10/165 92/10/170 100/11/189
f 92/10/170 90/10/165 69/6/165
f 92/10/170 69/6/165 65/6/170
f 100/11/190 92/10/174 90/10/168
f 69/6/168 90/10/168 92/10/174
f 65/6/174 69/6/168 92/10/174
f 102/11/144 61/6/145 101/10/146
f 61/6/145 102/11/144 59/6/147
f 59/6/147 102/11/144 103/10/147
f 101/10/148 61/6/148 102/11/149
f 59/6/150 102/11/191 61/6/148
f 103/10/150 102/11/149 59/6/192
f 103/10/147 60/6/139 59/6/147
f 60/6/139 103/10/147 104/11/193
f 60/6/139 104/11/151 105/10/139
f 59/6/150 60/6/142 103/10/150
f 104/11/194 103/10/150 60/6/142
f 105/10/142 104/11/152 60/6/142
f 62/6/158 107/11/162 106/10/158
f 107/11/162 62/6/158 53/6/195
f 107/11/162 53/6/153 108/10/153
f 106/10/161 107/11/163 62/6/196
f 53/6/156 62/6/161 107/11/163
f 108/10/156 53/6/156 107/11/163
f 110/10/138 105/10/139 109/11/140
f 105/10/139 110/10/138 54/6/138
f 105/10/139 54/6/138 60/6/139
f 109/11/141 105/10/142 110/10/143
f 54/6/143 110/10/143 105/10/142
f 60/6/142 54/6/143 105/10/142
f 101/10/146 106/10/158 111/11/159
f 106/10/158 101/10/146 61/6/146
f 106/10/158 61/6/146 62/6/158
f 111/11/160 106/10/161 101/10/148
f 61/6/148 101/10/148 106/10/161
f 62/6/161 61/6/148 106/10/161
f 53/6/153 112/11/154 108/10/153
f 112/11/154 53/6/153 54/6/155
f 112/11/197 54/6/138 110/10/138
f 108/10/156 112/11/157 53/6/156
f 54/6/143 53/6/156 112/11/157
f 110/10/143 54/6/143 112/11/198
f 3/1/1 2/1/1 1/1/1
f 2/1/1 3/1/1 4/1/1
f 4/1/1 3/1/1 5/1/1
f 4/1/1 5/1/1 6/1/1
f 6/1/1 5/1/1 7/1/1
f 6/1/1 7/1/1 8/1/1
f 9/2/2 1/1/3 2/1/4
f 1/1/5 9/2/2 10/2/6
f 11/2/7 1/1/8 10/2/9
f 1/1/8 11/2/10 3/1/11
f 12/2/12 2/1/13 4/1/14
f 2/1/13 12/2/15 9/2/16
f 13/2/17 4/1/18 6/1/19
f 4/1/18 13/2/17 12/2/20
f 7/1/21 14/2/22 8/1/23
f 14/2/22 7/1/21 15/2/24
f 11/2/25 5/1/26 3/1/27
f 5/1/26 11/2/25 16/2/28
f 8/1/29 13/2/30 6/1/31
f 13/2/30 8/1/29 14/2/32
f 7/1/33 16/2/34 15/2/35
f 16/2/34 7/1/33 5/1/36
f 14/2/37 18/3/38 17/3/39
f 18/3/40 14/2/37 15/2/41
f 16/2/42 18/3/40 15/2/43
f 18/3/40 16/2/44 19/3/45
f 21/3/46 9/2/47 20/3/48
f 9/2/47 21/3/46 10/2/49
f 22/3/50 12/2/51 13/2/52
f 12/2/51 22/3/53 23/3/54
f 21/3/55 11/2/56 10/2/49
f 11/2/56 21/3/46 24/3/57
f 13/2/58 17/3/59 22/3/50
f 17/3/39 13/2/58 14/2/37
f 20/3/60 12/2/51 23/3/61
f 12/2/62 20/3/60 9/2/63
f 24/3/57 16/2/44 11/2/64
f 16/2/44 24/3/65 19/3/66
f 27/4/67 26/4/67 25/4/67
f 26/4/67 27/4/67 28/4/67
f 26/4/67 28/4/67 29/4/67
f 29/4/67 28/4/67 30/4/67
f 29/4/67 30/4/67 31/4/67
f 31/4/67 30/4/67 32/4/67
f 35/5/1 34/5/1 33/5/1
f 34/5/1 35/5/1 36/5/1
f 34/5/1 36/5/1 37/5/1
f 37/5/1 36/5/1 38/5/1
f 37/5/1 38/5/1 39/5/1
f 39/5/1 38/5/1 40/5/1
f 27/4/68 33/5/69 34/5/68
f 33/5/69 27/4/68 25/4/70
f 29/4/71 38/5/72 36/5/71
f 38/5/72 29/4/71 31/4/73
f 40/5/74 31/4/72 32/4/75
f 31/4/76 40/5/74 38/5/77
f 28/4/78 34/5/79 37/5/78
f 34/5/79 28/4/78 27/4/80
f 26/4/81 36/5/82 35/5/81
f 36/5/82 26/4/81 29/4/83
f 30/4/84 37/5/85 39/5/86
f 37/5/85 30/4/86 28/4/87
f 26/4/88 33/5/89 25/4/90
f 33/5/90 26/4/88 35/5/88
f 40/5/91 30/4/92 39/5/92
f 30/4/92 40/5/93 32/4/91
f 43/6/94 42/7/95 41/7/94
f 42/7/95 43/6/94 44/6/95
f 47/6/96 46/7/97 45/7/96
f 46/7/97 47/6/96 48/6/97
f 50/6/98 45/7/96 49/7/98
f 45/7/96 50/6/98 47/6/96
f 48/6/97 41/7/94 46/7/97
f 41/7/94 48/6/97 43/6/94
f 52/7/99 44/6/95 51/6/99
f 44/6/95 52/7/99 42/7/95
f 52/7/99 50/6/98 49/7/98
f 50/6/98 52/7/99 51/6/99
f 41/7/1 45/7/1 46/7/1
f 45/7/1 41/7/1 42/7/1
f 45/7/1 42/7/1 49/7/1
f 49/7/1 42/7/1 52/7/1
f 55/6/100 54/8/101 53/8/102
f 54/8/103 55/6/100 56/6/104
f 59/8/105 58/6/106 57/6/107
f 58/6/106 59/8/105 60/8/108
f 63/6/109 62/8/110 61/8/111
f 62/8/112 63/6/109 64/6/113
f 64/6/114 53/8/115 62/8/110
f 53/8/102 64/6/114 55/6/116
f 64/6/117 56/6/118 55/6/119
f 56/6/120 64/6/117 58/6/121
f 58/6/121 64/6/117 63/6/122
f 58/6/121 63/6/123 57/6/124
f 59/8/105 63/6/125 61/8/126
f 63/6/127 59/8/105 57/6/128
f 54/8/1 62/8/1 53/8/1
f 62/8/1 54/8/1 60/8/1
f 62/8/1 60/8/1 61/8/1
f 61/8/1 60/8/1 59/8/1
f 56/6/129 60/8/108 54/8/103
f 60/8/130 56/6/129 58/6/131
f 67/6/132 66/9/133 65/9/132
f 66/9/133 67/6/132 68/6/133
f 70/6/134 65/9/132 69/9/134
f 65/9/132 70/6/134 67/6/132
f 68/6/133 71/9/135 66/9/133
f 71/9/135 68/6/133 72/6/135
f 72/6/135 73/9/136 71/9/135
f 73/9/136 72/6/135 74/6/136
f 71/9/1 65/9/1 66/9/1
f 65/9/1 71/9/1 69/9/1
f 69/9/1 71/9/1 73/9/1
f 69/9/1 73/9/1 75/9/1
f 76/6/137 69/9/134 75/9/137
f 69/9/134 76/6/137 70/6/134
f 73/9/136 76/6/137 75/9/137
f 76/6/137 73/9/136 74/6/136
f 79/10/138 78/10/139 77/11/140
f 78/10/139 79/10/138 41/6/138
f 78/10/139 41/6/138 42/6/139
f 77/11/141 78/10/142 79/10/143
f 41/6/143 79/10/143 78/10/142
f 42/6/142 41/6/143 78/10/142
f 81/11/144 49/6/145 80/10/146
f 49/6/145 81/11/144 52/6/147
f 52/6/147 81/11/144 82/10/147
f 80/10/148 49/6/148 81/11/149
f 52/6/150 81/11/149 49/6/148
f 82/10/150 81/11/149 52/6/150
f 82/10/147 42/6/139 52/6/147
f 42/6/139 82/10/147 83/11/151
f 42/6/139 83/11/151 78/10/139
f 52/6/150 42/6/142 82/10/150
f 83/11/152 82/10/150 42/6/142
f 78/10/142 83/11/152 42/6/142
f 46/6/153 85/11/154 84/10/153
f 85/11/154 46/6/153 41/6/155
f 85/11/154 41/6/155 79/10/138
f 84/10/156 85/11/157 46/6/156
f 41/6/143 46/6/156 85/11/157
f 79/10/143 41/6/143 85/11/157
f 80/10/146 87/10/158 86/11/159
f 87/10/158 80/10/146 49/6/146
f 87/10/158 49/6/146 45/6/158
f 86/11/160 87/10/161 80/10/148
f 49/6/148 80/10/148 87/10/161
f 45/6/161 49/6/148 87/10/161
f 45/6/158 88/11/162 87/10/158
f 88/11/162 45/6/158 46/6/153
f 88/11/162 46/6/153 84/10/153
f 87/10/161 88/11/163 45/6/161
f 46/6/156 45/6/161 88/11/163
f 84/10/156 46/6/156 88/11/163
f 91/10/164 90/10/165 89/11/166
f 90/10/165 91/10/164 75/6/164
f 90/10/165 75/6/164 69/6/165
f 89/11/167 90/10/168 91/10/169
f 75/6/169 91/10/169 90/10/168
f 69/6/168 75/6/169 90/10/168
f 65/6/170 93/11/171 92/10/170
f 93/11/172 65/6/170 66/6/173
f 93/11/171 66/6/173 94/10/173
f 92/10/174 93/11/175 65/6/174
f 66/6/176 65/6/174 93/11/175
f 94/10/176 66/6/176 93/11/175
f 97/10/177 96/10/178 95/11/179
f 96/10/178 97/10/177 71/6/177
f 96/10/178 71/6/177 73/6/178
f 95/11/180 96/10/181 97/10/182
f 71/6/182 97/10/182 96/10/181
f 73/6/181 71/6/182 96/10/181
f 98/11/183 75/6/164 91/10/164
f 75/6/164 98/11/183 73/6/178
f 73/6/178 98/11/184 96/10/178
f 91/10/169 75/6/169 98/11/185
f 73/6/181 98/11/186 75/6/169
f 96/10/181 98/11/185 73/6/181
f 94/10/173 97/10/177 99/11/187
f 97/10/177 94/10/173 66/6/173
f 97/10/177 66/6/173 71/6/177
f 99/11/188 97/10/182 94/10/176
f 66/6/176 94/10/176 97/10/182
f 71/6/182 66/6/176 97/10/182
f 90/10/165 92/10/170 100/11/189
f 92/10/170 90/10/165 69/6/165
f 92/10/170 69/6/165 65/6/170
f 100/11/190 92/10/174 90/10/168
f 69/6/168 90/10/168 92/10/174
f 65/6/174 69/6/168 92/10/174
f 102/11/144 61/6/145 101/10/146
f 61/6/145 102/11/144 59/6/147
f 59/6/147 102/11/144 103/10/147
f 101/10/148 61/6/148 102/11/149
f 59/6/150 102/11/191 61/6/148
f 103/10/150 102/11/149 59/6/192
f 103/10/147 60/6/139 59/6/147
f 60/6/139 103/10/147 104/11/193
f 60/6/139 104/11/151 105/10/139
f 59/6/150 60/6/142 103/10/150
f 104/11/194 103/10/150 60/6/142
f 105/10/142 104/11/152 60/6/142
f 62/6/158 107/11/162 106/10/158
f 107/11/162 62/6/158 53/6/195
f 107/11/162 53/6/153 108/10/153
f 106/10/161 107/11/163 62/6/196
f 53/6/156 62/6/161 107/11/163
f 108/10/156 53/6/156 107/11/163
f 110/10/138 105/10/139 109/11/140
f 105/10/139 110/10/138 54/6/138
f 105/10/139 54/6/138 60/6/139
f 109/11/141 105/10/142 110/10/143
f 54/6/143 110/10/143 105/10/142
f 60/6/142 54/6/143 105/10/142
f 101/10/146 106/10/158 111/11/159
f 106/10/158 101/10/146 61/6/146
f 106/10/158 61/6/146 62/6/158
f 111/11/160 106/10/161 101/10/148
f 61/6/148 101/10/148 106/10/161
f 62/6/161 61/6/148 106/10/161
f 53/6/153 112/11/154 108/10/153
f 112/11/154 53/6/153 54/6/155
f 112/11/197 54/6/138 110/10/138
f 108/10/156 112/11/157 53/6/156
f 54/6/143 53/6/156 112/11/157
f 110/10/143 54/6/143 112/11/198
