# Blender 4.1.1
# www.blender.org
mtllib tree.013.mtl
o tree.013
v -23.152491 -0.382804 -12.231252
v -23.152491 -0.382804 -12.477431
v -23.275581 -0.382804 -12.108162
v -23.275581 -0.382804 -12.600521
v -23.521759 -0.382804 -12.108162
v -23.521759 -0.382804 -12.600521
v -23.644850 -0.382804 -12.231252
v -23.644850 -0.382804 -12.477431
v -23.275581 0.062918 -12.415886
v -23.275581 0.062918 -12.292797
v -23.337126 0.062918 -12.231252
v -23.337126 0.062918 -12.477431
v -23.460215 0.062918 -12.477431
v -23.521759 0.062918 -12.415886
v -23.521759 0.062918 -12.292797
v -23.460215 0.062918 -12.231252
v -23.552532 0.731552 -12.431273
v -23.552532 0.731552 -12.277411
v -23.475601 0.731552 -12.200480
v -23.244808 0.731552 -12.431273
v -23.244808 0.731552 -12.277411
v -23.475601 0.731552 -12.508204
v -23.321739 0.731552 -12.508204
v -23.321739 0.731552 -12.200480
v -23.195215 0.222058 -12.414508
v -23.232178 0.222058 -12.325271
v -23.232178 0.222058 -12.503745
v -23.321415 0.222058 -12.540708
v -23.321415 0.222058 -12.288308
v -23.410652 0.222058 -12.503745
v -23.410652 0.222058 -12.325271
v -23.447617 0.222058 -12.414508
v -23.123734 0.060318 -12.414508
v -23.181633 0.060318 -12.554290
v -23.181633 0.060318 -12.274726
v -23.321415 0.060318 -12.216825
v -23.321415 0.060318 -12.612189
v -23.461197 0.060318 -12.274726
v -23.461197 0.060318 -12.554290
v -23.519098 0.060318 -12.414508
v -23.104069 0.731552 -11.823405
v -23.717142 0.731552 -11.823405
v -23.229748 1.468507 -12.041087
v -23.591463 1.468507 -12.041087
v -23.104069 0.731552 -12.885278
v -22.797533 0.731552 -12.354342
v -23.229748 1.468507 -12.667597
v -23.048889 1.468507 -12.354342
v -23.717142 0.731552 -12.885278
v -23.591463 1.468507 -12.667597
v -23.772320 1.468507 -12.354342
v -24.023678 0.731552 -12.354342
v -23.057106 2.260255 -12.354342
v -23.233856 2.260255 -12.048203
v -23.329355 3.090716 -12.354342
v -23.369980 3.090716 -12.283977
v -23.491856 3.090716 -12.354342
v -23.451231 3.090716 -12.283977
v -23.764103 2.260255 -12.354342
v -23.587355 2.260255 -12.048203
v -23.587355 2.260255 -12.660480
v -23.233856 2.260255 -12.660480
v -23.451231 3.090716 -12.424706
v -23.369980 3.090716 -12.424706
v -22.978949 1.468507 -12.603559
v -22.978949 1.468507 -12.105125
v -23.212816 2.260255 -12.468535
v -23.212816 2.260255 -12.240148
v -23.410604 1.468507 -12.852775
v -23.410604 2.260255 -12.582729
v -23.410604 1.468507 -11.855908
v -23.410604 2.260255 -12.125954
v -23.842260 1.468507 -12.105125
v -23.608395 2.260255 -12.240148
v -23.842260 1.468507 -12.603559
v -23.608395 2.260255 -12.468535
v -23.410604 0.501649 -11.706599
v -23.750860 0.616601 -11.765002
v -23.070349 0.616601 -11.765002
v -23.750860 0.616601 -12.943681
v -23.971567 0.501649 -12.678213
v -24.091116 0.616601 -12.354342
v -23.971567 0.501649 -12.030470
v -22.730095 0.616601 -12.354342
v -22.849644 0.501649 -12.030470
v -23.410604 0.501649 -13.002084
v -23.070349 0.616601 -12.943681
v -22.849644 0.501649 -12.678213
v -23.673916 1.281595 -12.810408
v -23.410604 1.375051 -12.907602
v -23.889744 1.375051 -12.630972
v -22.931467 1.375051 -12.630972
v -22.883986 1.281595 -12.354342
v -22.931467 1.375051 -12.077711
v -23.673916 1.281595 -11.898275
v -23.889744 1.375051 -12.077711
v -23.410604 1.375051 -11.801081
v -23.937225 1.281595 -12.354342
v -23.147295 1.281595 -11.898275
v -23.147295 1.281595 -12.810408
v -23.606796 2.193974 -12.694156
v -23.734056 2.127692 -12.541086
v -23.802988 2.193974 -12.354342
v -23.734056 2.127692 -12.167597
v -23.606796 2.193974 -12.014527
v -23.214413 2.193974 -12.694156
v -23.087154 2.127692 -12.541086
v -23.018221 2.193974 -12.354342
v -23.410604 2.127692 -11.980852
v -23.214413 2.193974 -12.014527
v -23.410604 2.127692 -12.727831
v -23.087154 2.127692 -12.167597
vn -0.0000 -1.0000 -0.0000
vn 0.8851 0.2942 -0.3607
vn 0.8813 0.2944 0.3698
vn 0.8812 0.2944 -0.3698
vn 0.8812 0.2944 0.3698
vn 0.8851 0.2942 0.3607
vn 0.3607 0.2942 0.8850
vn 0.8850 0.2942 0.3608
vn 0.3607 0.2943 0.8850
vn 0.3698 0.2944 0.8812
vn 0.3607 0.2942 -0.8850
vn 0.3698 0.2944 -0.8812
vn 0.8850 0.2942 -0.3608
vn -0.3607 0.2942 -0.8851
vn 0.3698 0.2944 -0.8813
vn -0.3698 0.2944 -0.8812
vn 0.3607 0.2942 -0.8851
vn -0.8813 0.2944 0.3698
vn -0.8851 0.2942 -0.3607
vn -0.8812 0.2944 -0.3698
vn -0.8851 0.2942 0.3607
vn 0.3607 0.2942 0.8851
vn -0.3698 0.2944 0.8813
vn -0.3698 0.2944 0.8812
vn -0.3607 0.2942 0.8851
vn -0.3607 0.2942 -0.8850
vn -0.3608 0.2942 -0.8850
vn -0.8812 0.2944 0.3698
vn -0.3608 0.2942 0.8850
vn -0.8850 0.2942 0.3607
vn -0.3607 0.2942 0.8850
vn -0.9230 -0.0513 -0.3813
vn -0.9223 -0.0512 0.3829
vn -0.9223 -0.0513 -0.3829
vn -0.9223 -0.0513 0.3829
vn -0.9230 -0.0513 0.3813
vn -0.3814 -0.0512 0.9230
vn -0.9223 -0.0513 0.3830
vn -0.9230 -0.0512 0.3813
vn -0.3813 -0.0513 0.9230
vn -0.3830 -0.0512 0.9223
vn 0.9223 -0.0512 0.3829
vn 0.9230 -0.0513 -0.3813
vn 0.9223 -0.0513 -0.3829
vn 0.9230 -0.0513 0.3813
vn -0.3829 -0.0513 -0.9223
vn 0.3813 -0.0513 -0.9230
vn -0.3813 -0.0513 -0.9230
vn -0.3829 -0.0512 -0.9223
vn 0.3829 -0.0513 -0.9223
vn 0.9223 -0.0513 0.3830
vn 0.3814 -0.0513 0.9230
vn 0.3813 -0.0513 0.9230
vn 0.9223 -0.0512 0.3830
vn 0.3830 -0.0513 0.9223
vn -0.9223 -0.0512 -0.3830
vn -0.3830 -0.0513 -0.9223
vn -0.9223 -0.0513 -0.3830
vn -0.3814 -0.0513 -0.9230
vn -0.9230 -0.0512 -0.3813
vn 0.9223 -0.0513 -0.3830
vn 0.3830 -0.0512 -0.9223
vn 0.3814 -0.0512 -0.9230
vn 0.9230 -0.0512 -0.3813
vn 0.3829 -0.0513 0.9223
vn 0.3829 -0.0512 0.9223
vn -0.3829 -0.0513 0.9223
vn -0.0000 1.0000 -0.0000
vn 0.6468 0.4042 -0.6468
vn 0.9147 0.4042 -0.0000
vn 0.6468 0.4042 -0.6467
vn 0.9146 0.4043 -0.0000
vn -0.0000 0.4042 0.9147
vn -0.6467 0.4042 0.6468
vn -0.6467 0.4043 0.6468
vn -0.9147 0.4042 -0.0000
vn -0.6468 0.4042 0.6468
vn -0.9146 0.4043 -0.0000
vn -0.6468 0.4042 0.6467
vn -0.0000 0.4042 -0.9147
vn 0.6467 0.4042 -0.6468
vn 0.6468 0.4042 0.6468
vn 0.6467 0.4042 0.6468
vn -0.0000 0.4043 0.9146
vn -0.6468 0.4042 -0.6468
vn -0.6467 0.4042 -0.6468
vn -0.0000 0.4043 -0.9146
vn 0.6468 0.4042 0.6467
vn -0.6468 0.4042 -0.6467
vn 0.4732 0.3228 0.8197
vn -0.4732 0.3228 0.8197
vn 0.4732 0.3228 -0.8196
vn 0.9465 0.3228 -0.0000
vn 0.4732 0.3228 -0.8197
vn -0.4732 0.3228 -0.8197
vn 0.4733 0.3228 0.8197
vn -0.9465 0.3228 -0.0000
vn -0.4733 0.3228 0.8197
vn -0.4733 0.3228 -0.8197
vn 0.6877 0.7260 -0.0000
vn 0.4751 0.3115 0.8229
vn 0.9503 0.3115 -0.0000
vn 0.3438 0.7260 0.5956
vn -0.9502 0.3115 0.0001
vn -0.3438 0.7260 0.5956
vn -0.6877 0.7260 -0.0000
vn -0.9503 0.3115 -0.0000
vn -0.4752 0.3115 0.8229
vn -0.3439 0.7260 -0.5956
vn 0.4751 0.3115 -0.8229
vn -0.4751 0.3115 -0.8229
vn 0.3439 0.7260 -0.5956
vn 0.3438 0.7260 -0.5956
vn 0.9502 0.3115 -0.0000
vn 0.6877 0.7260 0.0001
vn 0.3439 0.7259 -0.5956
vn 0.3439 0.7259 0.5956
vn 0.6877 0.7259 -0.0000
vn -0.3439 0.7259 0.5956
vn -0.3439 0.7259 -0.5956
vn -0.6877 0.7259 -0.0000
vn -0.9502 0.3115 -0.0000
vn -0.3438 0.7260 -0.5956
vn -0.4752 0.3115 -0.8229
vn -0.9502 0.3115 -0.0001
vn 0.3439 0.7260 0.5956
vn -0.4751 0.3115 0.8229
vn -0.3439 0.7260 0.5956
vn 0.8197 0.3228 -0.4732
vn 0.8197 0.3228 0.4732
vn -0.0000 0.3228 -0.9465
vn 0.8196 0.3228 -0.4732
vn 0.8197 0.3228 -0.4733
vn 0.8196 0.3228 0.4732
vn -0.0000 0.3228 0.9465
vn 0.8197 0.3228 0.4733
vn -0.8197 0.3228 0.4732
vn -0.8196 0.3228 -0.4732
vn -0.8197 0.3228 -0.4732
vn 0.4313 0.5060 0.7470
vn -0.4313 0.5060 0.7470
vn -0.0000 0.4530 0.8915
vn -0.0000 -0.4530 -0.8915
vn 0.4313 -0.5060 -0.7470
vn -0.4313 -0.5060 -0.7470
vn -0.7721 0.4530 -0.4458
vn -0.4313 0.5060 -0.7470
vn -0.8625 0.5060 -0.0000
vn 0.4313 -0.5060 0.7470
vn 0.7721 -0.4530 0.4458
vn 0.8625 -0.5060 -0.0000
vn -0.7721 0.4530 0.4458
vn -0.7721 0.4529 0.4458
vn 0.7721 -0.4530 -0.4458
vn 0.4312 -0.5060 -0.7470
vn 0.8625 0.5060 -0.0000
vn 0.7721 0.4530 0.4458
vn 0.4313 0.5061 0.7469
vn -0.8625 -0.5060 -0.0000
vn -0.7721 -0.4530 -0.4458
vn 0.4313 0.5060 -0.7469
vn -0.0000 0.4530 -0.8915
vn 0.4313 0.5060 -0.7470
vn -0.0000 -0.4530 0.8915
vn -0.4313 -0.5060 0.7470
vn 0.7721 0.4530 -0.4458
vn -0.7721 -0.4530 0.4458
vn -0.4313 -0.5060 0.7469
vn -0.7470 0.5060 -0.4313
vn -0.0000 0.5060 -0.8625
vn -0.4458 0.4530 -0.7721
vn 0.4458 -0.4530 0.7721
vn -0.0000 -0.5060 0.8625
vn 0.7470 -0.5060 0.4313
vn 0.7470 0.5060 -0.4313
vn 0.8915 0.4530 -0.0000
vn 0.7470 0.5060 0.4313
vn -0.7470 -0.5060 0.4313
vn -0.8915 -0.4529 -0.0000
vn -0.7470 -0.5060 -0.4313
vn -0.8915 -0.4530 -0.0000
vn -0.0000 0.5060 0.8625
vn -0.7470 0.5060 0.4313
vn -0.4458 0.4530 0.7721
vn 0.4458 -0.4530 -0.7721
vn 0.7470 -0.5060 -0.4313
vn -0.0000 -0.5060 -0.8625
vn -0.8915 0.4530 -0.0000
vn -0.7469 0.5060 -0.4313
vn 0.8915 -0.4530 -0.0000
vn 0.4458 0.4530 0.7721
vn -0.4458 -0.4530 -0.7721
vn 0.4458 0.4530 -0.7721
vn -0.4458 -0.4530 0.7721
vn -0.7721 0.4529 -0.4458
vn -0.4312 0.5060 -0.7470
vn 0.4312 -0.5060 0.7470
vn 0.7721 -0.4529 0.4458
vn 0.7721 -0.4529 -0.4458
vn -0.0000 0.4529 0.8915
vn -0.0000 -0.4529 -0.8915
vn -0.0000 0.4529 -0.8915
vn -0.0000 -0.4529 0.8915
vn 0.4313 -0.5060 0.7469
vn 0.4312 0.5060 0.7470
vt 0.593750 0.025000
vt 0.593750 0.104996
vt 0.593750 0.225000
vt 0.093750 0.475000
vt 0.093750 0.275000
vt 0.093750 0.425000
vt 0.093750 0.348778
vt 0.093750 0.338765
vt 0.093750 0.344099
vt 0.093750 0.375000
vt 0.093750 0.325000
s 0
usemtl colormap.016
f 3/1/1 2/1/1 1/1/1
f 2/1/1 3/1/1 4/1/1
f 4/1/1 3/1/1 5/1/1
f 4/1/1 5/1/1 6/1/1
f 6/1/1 5/1/1 7/1/1
f 6/1/1 7/1/1 8/1/1
f 9/2/2 1/1/3 2/1/4
f 1/1/5 9/2/2 10/2/6
f 11/2/7 1/1/5 10/2/8
f 1/1/5 11/2/9 3/1/10
f 12/2/11 2/1/4 4/1/12
f 2/1/4 12/2/11 9/2/13
f 13/2/14 4/1/15 6/1/16
f 4/1/12 13/2/14 12/2/17
f 7/1/18 14/2/19 8/1/20
f 14/2/19 7/1/18 15/2/21
f 11/2/22 5/1/23 3/1/10
f 5/1/24 11/2/22 16/2/25
f 8/1/20 13/2/26 6/1/16
f 13/2/27 8/1/20 14/2/19
f 7/1/28 16/2/29 15/2/30
f 16/2/31 7/1/28 5/1/24
f 14/2/32 18/3/33 17/3/34
f 18/3/35 14/2/32 15/2/36
f 16/2/37 18/3/38 15/2/39
f 18/3/38 16/2/40 19/3/41
f 21/3/42 9/2/43 20/3/44
f 9/2/43 21/3/42 10/2/45
f 22/3/46 12/2/47 13/2/48
f 12/2/47 22/3/49 23/3/50
f 21/3/51 11/2/52 10/2/45
f 11/2/53 21/3/54 24/3/55
f 13/2/48 17/3/56 22/3/57
f 17/3/58 13/2/59 14/2/60
f 20/3/61 12/2/47 23/3/62
f 12/2/63 20/3/61 9/2/64
f 24/3/65 16/2/40 11/2/53
f 16/2/40 24/3/66 19/3/67
f 27/4/68 26/4/68 25/4/68
f 26/4/68 27/4/68 28/4/68
f 26/4/68 28/4/68 29/4/68
f 29/4/68 28/4/68 30/4/68
f 29/4/68 30/4/68 31/4/68
f 31/4/68 30/4/68 32/4/68
f 35/5/1 34/5/1 33/5/1
f 34/5/1 35/5/1 36/5/1
f 34/5/1 36/5/1 37/5/1
f 37/5/1 36/5/1 38/5/1
f 37/5/1 38/5/1 39/5/1
f 39/5/1 38/5/1 40/5/1
f 27/4/69 33/5/70 34/5/71
f 33/5/70 27/4/69 25/4/72
f 29/4/73 38/5/74 36/5/73
f 38/5/74 29/4/73 31/4/75
f 40/5/76 31/4/77 32/4/78
f 31/4/79 40/5/76 38/5/79
f 28/4/80 34/5/81 37/5/80
f 34/5/81 28/4/80 27/4/81
f 26/4/82 36/5/73 35/5/83
f 36/5/73 26/4/83 29/4/84
f 30/4/85 37/5/80 39/5/86
f 37/5/80 30/4/86 28/4/87
f 26/4/82 33/5/72 25/4/70
f 33/5/70 26/4/88 35/5/88
f 40/5/76 30/4/89 39/5/89
f 30/4/85 40/5/78 32/4/76
f 43/6/90 42/7/91 41/7/90
f 42/7/91 43/6/90 44/6/91
f 47/6/92 46/7/93 45/7/92
f 46/7/93 47/6/94 48/6/93
f 50/6/95 45/7/94 49/7/95
f 45/7/94 50/6/95 47/6/94
f 48/6/93 41/7/90 46/7/93
f 41/7/96 48/6/93 43/6/96
f 52/7/97 44/6/98 51/6/97
f 44/6/91 52/7/97 42/7/91
f 52/7/97 50/6/95 49/7/95
f 50/6/99 52/7/97 51/6/97
f 41/7/1 45/7/1 46/7/1
f 45/7/1 41/7/1 42/7/1
f 45/7/1 42/7/1 49/7/1
f 49/7/1 42/7/1 52/7/1
f 55/6/100 54/8/101 53/8/102
f 54/8/101 55/6/100 56/6/103
f 59/8/104 58/6/105 57/6/106
f 58/6/105 59/8/107 60/8/108
f 63/6/109 62/8/110 61/8/111
f 62/8/110 63/6/109 64/6/112
f 64/6/113 53/8/114 62/8/110
f 53/8/114 64/6/113 55/6/115
f 64/6/116 56/6/117 55/6/118
f 56/6/117 64/6/116 58/6/119
f 58/6/119 64/6/116 63/6/120
f 58/6/119 63/6/120 57/6/121
f 59/8/122 63/6/123 61/8/124
f 63/6/123 59/8/125 57/6/106
f 54/8/1 62/8/1 53/8/1
f 62/8/1 54/8/1 60/8/1
f 62/8/1 60/8/1 61/8/1
f 61/8/1 60/8/1 59/8/1
f 56/6/126 60/8/127 54/8/101
f 60/8/127 56/6/126 58/6/128
f 67/6/129 66/9/130 65/9/129
f 66/9/130 67/6/129 68/6/130
f 70/6/131 65/9/132 69/9/131
f 65/9/129 70/6/131 67/6/133
f 68/6/134 71/9/135 66/9/130
f 71/9/135 68/6/136 72/6/135
f 72/6/135 73/9/137 71/9/135
f 73/9/137 72/6/135 74/6/137
f 71/9/1 65/9/1 66/9/1
f 65/9/1 71/9/1 69/9/1
f 69/9/1 71/9/1 73/9/1
f 69/9/1 73/9/1 75/9/1
f 76/6/138 69/9/131 75/9/139
f 69/9/131 76/6/139 70/6/131
f 73/9/137 76/6/139 75/9/139
f 76/6/139 73/9/137 74/6/137
f 79/10/140 78/10/141 77/11/142
f 78/10/141 79/10/140 41/6/140
f 78/10/141 41/6/140 42/6/141
f 77/11/143 78/10/144 79/10/145
f 41/6/145 79/10/145 78/10/144
f 42/6/144 41/6/145 78/10/144
f 81/11/146 49/6/147 80/10/147
f 49/6/147 81/11/146 52/6/148
f 52/6/148 81/11/146 82/10/148
f 80/10/149 49/6/149 81/11/150
f 52/6/151 81/11/150 49/6/149
f 82/10/151 81/11/150 52/6/151
f 82/10/148 42/6/141 52/6/148
f 42/6/141 82/10/148 83/11/152
f 42/6/141 83/11/153 78/10/141
f 52/6/151 42/6/144 82/10/151
f 83/11/154 82/10/151 42/6/144
f 78/10/144 83/11/154 42/6/155
f 46/6/156 85/11/157 84/10/156
f 85/11/157 46/6/156 41/6/140
f 85/11/157 41/6/158 79/10/140
f 84/10/159 85/11/160 46/6/159
f 41/6/145 46/6/159 85/11/160
f 79/10/145 41/6/145 85/11/160
f 80/10/147 87/10/161 86/11/162
f 87/10/163 80/10/147 49/6/147
f 87/10/163 49/6/147 45/6/163
f 86/11/164 87/10/165 80/10/149
f 49/6/149 80/10/149 87/10/165
f 45/6/165 49/6/149 87/10/165
f 45/6/163 88/11/166 87/10/163
f 88/11/166 45/6/163 46/6/156
f 88/11/166 46/6/156 84/10/156
f 87/10/165 88/11/167 45/6/168
f 46/6/159 45/6/165 88/11/167
f 84/10/159 46/6/159 88/11/167
f 91/10/169 90/10/170 89/11/171
f 90/10/170 91/10/169 75/6/169
f 90/10/170 75/6/169 69/6/170
f 89/11/172 90/10/173 91/10/174
f 75/6/174 91/10/174 90/10/173
f 69/6/173 75/6/174 90/10/173
f 65/6/175 93/11/176 92/10/175
f 93/11/176 65/6/175 66/6/177
f 93/11/176 66/6/177 94/10/177
f 92/10/178 93/11/179 65/6/178
f 66/6/180 65/6/178 93/11/181
f 94/10/180 66/6/180 93/11/181
f 97/10/182 96/10/183 95/11/184
f 96/10/183 97/10/182 71/6/182
f 96/10/183 71/6/182 73/6/183
f 95/11/185 96/10/186 97/10/187
f 71/6/187 97/10/187 96/10/186
f 73/6/186 71/6/187 96/10/186
f 98/11/188 75/6/189 91/10/169
f 75/6/169 98/11/188 73/6/183
f 73/6/183 98/11/188 96/10/183
f 91/10/174 75/6/174 98/11/190
f 73/6/186 98/11/190 75/6/174
f 96/10/186 98/11/190 73/6/186
f 94/10/177 97/10/182 99/11/191
f 97/10/182 94/10/177 66/6/177
f 97/10/182 66/6/177 71/6/182
f 99/11/192 97/10/187 94/10/180
f 66/6/180 94/10/180 97/10/187
f 71/6/187 66/6/180 97/10/187
f 90/10/170 92/10/175 100/11/193
f 92/10/175 90/10/170 69/6/170
f 92/10/175 69/6/170 65/6/175
f 100/11/194 92/10/178 90/10/173
f 69/6/173 90/10/173 92/10/178
f 65/6/178 69/6/173 92/10/178
f 102/11/195 61/6/196 101/10/147
f 61/6/147 102/11/146 59/6/148
f 59/6/148 102/11/146 103/10/148
f 101/10/149 61/6/197 102/11/198
f 59/6/151 102/11/150 61/6/149
f 103/10/151 102/11/150 59/6/151
f 103/10/148 60/6/141 59/6/148
f 60/6/141 103/10/148 104/11/152
f 60/6/141 104/11/153 105/10/141
f 59/6/151 60/6/144 103/10/151
f 104/11/154 103/10/151 60/6/144
f 105/10/144 104/11/199 60/6/155
f 62/6/163 107/11/166 106/10/163
f 107/11/166 62/6/163 53/6/156
f 107/11/166 53/6/156 108/10/156
f 106/10/165 107/11/167 62/6/165
f 53/6/159 62/6/165 107/11/167
f 108/10/159 53/6/159 107/11/167
f 110/10/140 105/10/141 109/11/200
f 105/10/141 110/10/140 54/6/140
f 105/10/141 54/6/140 60/6/141
f 109/11/201 105/10/144 110/10/145
f 54/6/145 110/10/145 105/10/144
f 60/6/144 54/6/145 105/10/144
f 101/10/147 106/10/163 111/11/202
f 106/10/163 101/10/147 61/6/147
f 106/10/163 61/6/147 62/6/163
f 111/11/203 106/10/165 101/10/149
f 61/6/149 101/10/149 106/10/165
f 62/6/165 61/6/204 106/10/165
f 53/6/156 112/11/157 108/10/156
f 112/11/157 53/6/156 54/6/140
f 112/11/157 54/6/205 110/10/140
f 108/10/159 112/11/160 53/6/159
f 54/6/145 53/6/159 112/11/160
f 110/10/145 54/6/145 112/11/160
f 3/1/1 2/1/1 1/1/1
f 2/1/1 3/1/1 4/1/1
f 4/1/1 3/1/1 5/1/1
f 4/1/1 5/1/1 6/1/1
f 6/1/1 5/1/1 7/1/1
f 6/1/1 7/1/1 8/1/1
f 9/2/2 1/1/3 2/1/4
f 1/1/5 9/2/2 10/2/6
f 11/2/7 1/1/5 10/2/8
f 1/1/5 11/2/9 3/1/10
f 12/2/11 2/1/4 4/1/12
f 2/1/4 12/2/11 9/2/13
f 13/2/14 4/1/15 6/1/16
f 4/1/12 13/2/14 12/2/17
f 7/1/18 14/2/19 8/1/20
f 14/2/19 7/1/18 15/2/21
f 11/2/22 5/1/23 3/1/10
f 5/1/24 11/2/22 16/2/25
f 8/1/20 13/2/26 6/1/16
f 13/2/27 8/1/20 14/2/19
f 7/1/28 16/2/29 15/2/30
f 16/2/31 7/1/28 5/1/24
f 14/2/32 18/3/33 17/3/34
f 18/3/35 14/2/32 15/2/36
f 16/2/37 18/3/38 15/2/39
f 18/3/38 16/2/40 19/3/41
f 21/3/42 9/2/43 20/3/44
f 9/2/43 21/3/42 10/2/45
f 22/3/46 12/2/47 13/2/48
f 12/2/47 22/3/49 23/3/50
f 21/3/51 11/2/52 10/2/45
f 11/2/53 21/3/54 24/3/55
f 13/2/48 17/3/56 22/3/57
f 17/3/58 13/2/59 14/2/60
f 20/3/61 12/2/47 23/3/62
f 12/2/63 20/3/61 9/2/64
f 24/3/65 16/2/40 11/2/53
f 16/2/40 24/3/66 19/3/67
f 27/4/68 26/4/68 25/4/68
f 26/4/68 27/4/68 28/4/68
f 26/4/68 28/4/68 29/4/68
f 29/4/68 28/4/68 30/4/68
f 29/4/68 30/4/68 31/4/68
f 31/4/68 30/4/68 32/4/68
f 35/5/1 34/5/1 33/5/1
f 34/5/1 35/5/1 36/5/1
f 34/5/1 36/5/1 37/5/1
f 37/5/1 36/5/1 38/5/1
f 37/5/1 38/5/1 39/5/1
f 39/5/1 38/5/1 40/5/1
f 27/4/69 33/5/70 34/5/71
f 33/5/70 27/4/69 25/4/72
f 29/4/73 38/5/74 36/5/73
f 38/5/74 29/4/73 31/4/75
f 40/5/76 31/4/77 32/4/78
f 31/4/79 40/5/76 38/5/79
f 28/4/80 34/5/81 37/5/80
f 34/5/81 28/4/80 27/4/81
f 26/4/82 36/5/73 35/5/83
f 36/5/73 26/4/83 29/4/84
f 30/4/85 37/5/80 39/5/86
f 37/5/80 30/4/86 28/4/87
f 26/4/82 33/5/72 25/4/70
f 33/5/70 26/4/88 35/5/88
f 40/5/76 30/4/89 39/5/89
f 30/4/85 40/5/78 32/4/76
f 43/6/90 42/7/91 41/7/90
f 42/7/91 43/6/90 44/6/91
f 47/6/92 46/7/93 45/7/92
f 46/7/93 47/6/94 48/6/93
f 50/6/95 45/7/94 49/7/95
f 45/7/94 50/6/95 47/6/94
f 48/6/93 41/7/90 46/7/93
f 41/7/96 48/6/93 43/6/96
f 52/7/97 44/6/98 51/6/97
f 44/6/91 52/7/97 42/7/91
f 52/7/97 50/6/95 49/7/95
f 50/6/99 52/7/97 51/6/97
f 41/7/1 45/7/1 46/7/1
f 45/7/1 41/7/1 42/7/1
f 45/7/1 42/7/1 49/7/1
f 49/7/1 42/7/1 52/7/1
f 55/6/100 54/8/101 53/8/102
f 54/8/101 55/6/100 56/6/103
f 59/8/104 58/6/105 57/6/106
f 58/6/105 59/8/107 60/8/108
f 63/6/109 62/8/110 61/8/111
f 62/8/110 63/6/109 64/6/112
f 64/6/113 53/8/114 62/8/110
f 53/8/114 64/6/113 55/6/115
f 64/6/116 56/6/117 55/6/118
f 56/6/117 64/6/116 58/6/119
f 58/6/119 64/6/116 63/6/120
f 58/6/119 63/6/120 57/6/121
f 59/8/122 63/6/123 61/8/124
f 63/6/123 59/8/125 57/6/106
f 54/8/1 62/8/1 53/8/1
f 62/8/1 54/8/1 60/8/1
f 62/8/1 60/8/1 61/8/1
f 61/8/1 60/8/1 59/8/1
f 56/6/126 60/8/127 54/8/101
f 60/8/127 56/6/126 58/6/128
f 67/6/129 66/9/130 65/9/129
f 66/9/130 67/6/129 68/6/130
f 70/6/131 65/9/132 69/9/131
f 65/9/129 70/6/131 67/6/133
f 68/6/134 71/9/135 66/9/130
f 71/9/135 68/6/136 72/6/135
f 72/6/135 73/9/137 71/9/135
f 73/9/137 72/6/135 74/6/137
f 71/9/1 65/9/1 66/9/1
f 65/9/1 71/9/1 69/9/1
f 69/9/1 71/9/1 73/9/1
f 69/9/1 73/9/1 75/9/1
f 76/6/138 69/9/131 75/9/139
f 69/9/131 76/6/139 70/6/131
f 73/9/137 76/6/139 75/9/139
f 76/6/139 73/9/137 74/6/137
f 79/10/140 78/10/141 77/11/142
f 78/10/141 79/10/140 41/6/140
f 78/10/141 41/6/140 42/6/141
f 77/11/143 78/10/144 79/10/145
f 41/6/145 79/10/145 78/10/144
f 42/6/144 41/6/145 78/10/144
f 81/11/146 49/6/147 80/10/147
f 49/6/147 81/11/146 52/6/148
f 52/6/148 81/11/146 82/10/148
f 80/10/149 49/6/149 81/11/150
f 52/6/151 81/11/150 49/6/149
f 82/10/151 81/11/150 52/6/151
f 82/10/148 42/6/141 52/6/148
f 42/6/141 82/10/148 83/11/152
f 42/6/141 83/11/153 78/10/141
f 52/6/151 42/6/144 82/10/151
f 83/11/154 82/10/151 42/6/144
f 78/10/144 83/11/154 42/6/155
f 46/6/156 85/11/157 84/10/156
f 85/11/157 46/6/156 41/6/140
f 85/11/157 41/6/158 79/10/140
f 84/10/159 85/11/160 46/6/159
f 41/6/145 46/6/159 85/11/160
f 79/10/145 41/6/145 85/11/160
f 80/10/147 87/10/161 86/11/162
f 87/10/163 80/10/147 49/6/147
f 87/10/163 49/6/147 45/6/163
f 86/11/164 87/10/165 80/10/149
f 49/6/149 80/10/149 87/10/165
f 45/6/165 49/6/149 87/10/165
f 45/6/163 88/11/166 87/10/163
f 88/11/166 45/6/163 46/6/156
f 88/11/166 46/6/156 84/10/156
f 87/10/165 88/11/167 45/6/168
f 46/6/159 45/6/165 88/11/167
f 84/10/159 46/6/159 88/11/167
f 91/10/169 90/10/170 89/11/171
f 90/10/170 91/10/169 75/6/169
f 90/10/170 75/6/169 69/6/170
f 89/11/172 90/10/173 91/10/174
f 75/6/174 91/10/174 90/10/173
f 69/6/173 75/6/174 90/10/173
f 65/6/175 93/11/176 92/10/175
f 93/11/176 65/6/175 66/6/177
f 93/11/176 66/6/177 94/10/177
f 92/10/178 93/11/179 65/6/178
f 66/6/180 65/6/178 93/11/181
f 94/10/180 66/6/180 93/11/181
f 97/10/182 96/10/183 95/11/184
f 96/10/183 97/10/182 71/6/182
f 96/10/183 71/6/182 73/6/183
f 95/11/185 96/10/186 97/10/187
f 71/6/187 97/10/187 96/10/186
f 73/6/186 71/6/187 96/10/186
f 98/11/188 75/6/189 91/10/169
f 75/6/169 98/11/188 73/6/183
f 73/6/183 98/11/188 96/10/183
f 91/10/174 75/6/174 98/11/190
f 73/6/186 98/11/190 75/6/174
f 96/10/186 98/11/190 73/6/186
f 94/10/177 97/10/182 99/11/191
f 97/10/182 94/10/177 66/6/177
f 97/10/182 66/6/177 71/6/182
f 99/11/192 97/10/187 94/10/180
f 66/6/180 94/10/180 97/10/187
f 71/6/187 66/6/180 97/10/187
f 90/10/170 92/10/175 100/11/193
f 92/10/175 90/10/170 69/6/170
f 92/10/175 69/6/170 65/6/175
f 100/11/194 92/10/178 90/10/173
f 69/6/173 90/10/173 92/10/178
f 65/6/178 69/6/173 92/10/178
f 102/11/195 61/6/196 101/10/147
f 61/6/147 102/11/146 59/6/148
f 59/6/148 102/11/146 103/10/148
f 101/10/149 61/6/197 102/11/198
f 59/6/151 102/11/150 61/6/149
f 103/10/151 102/11/150 59/6/151
f 103/10/148 60/6/141 59/6/148
f 60/6/141 103/10/148 104/11/152
f 60/6/141 104/11/153 105/10/141
f 59/6/151 60/6/144 103/10/151
f 104/11/154 103/10/151 60/6/144
f 105/10/144 104/11/199 60/6/155
f 62/6/163 107/11/166 106/10/163
f 107/11/166 62/6/163 53/6/156
f 107/11/166 53/6/156 108/10/156
f 106/10/165 107/11/167 62/6/165
f 53/6/159 62/6/165 107/11/167
f 108/10/159 53/6/159 107/11/167
f 110/10/140 105/10/141 109/11/200
f 105/10/141 110/10/140 54/6/140
f 105/10/141 54/6/140 60/6/141
f 109/11/201 105/10/144 110/10/145
f 54/6/145 110/10/145 105/10/144
f 60/6/144 54/6/145 105/10/144
f 101/10/147 106/10/163 111/11/202
f 106/10/163 101/10/147 61/6/147
f 106/10/163 61/6/147 62/6/163
f 111/11/203 106/10/165 101/10/149
f 61/6/149 101/10/149 106/10/165
f 62/6/165 61/6/204 106/10/165
f 53/6/156 112/11/157 108/10/156
f 112/11/157 53/6/156 54/6/140
f 112/11/157 54/6/205 110/10/140
f 108/10/159 112/11/160 53/6/159
f 54/6/145 53/6/159 112/11/160
f 110/10/145 54/6/145 112/11/160
