# Blender 4.1.1
# www.blender.org
mtllib tree.006.mtl
o tree.006
v -17.075199 -0.282319 0.645233
v -17.075199 -0.282319 0.463676
v -17.165979 -0.282319 0.736012
v -17.165979 -0.282319 0.372897
v -17.347536 -0.282319 0.736012
v -17.347536 -0.282319 0.372897
v -17.438316 -0.282319 0.645233
v -17.438316 -0.282319 0.463676
v -17.165979 0.046402 0.509065
v -17.165979 0.046402 0.599844
v -17.211369 0.046402 0.645233
v -17.211369 0.046402 0.463676
v -17.302147 0.046402 0.463676
v -17.347536 0.046402 0.509065
v -17.347536 0.046402 0.599844
v -17.302147 0.046402 0.645233
v -17.370232 0.539521 0.497718
v -17.370232 0.539521 0.611191
v -17.313494 0.539521 0.667928
v -17.143284 0.539521 0.497718
v -17.143284 0.539521 0.611191
v -17.313494 0.539521 0.440981
v -17.200020 0.539521 0.440981
v -17.200020 0.539521 0.667928
v -17.106709 0.163768 0.510082
v -17.133968 0.163768 0.575894
v -17.133968 0.163768 0.444269
v -17.199781 0.163768 0.417009
v -17.199781 0.163768 0.603155
v -17.265594 0.163768 0.444269
v -17.265594 0.163768 0.575894
v -17.292856 0.163768 0.510082
v -17.053991 0.044485 0.510082
v -17.096693 0.044485 0.406992
v -17.096693 0.044485 0.613172
v -17.199781 0.044485 0.655873
v -17.199781 0.044485 0.364291
v -17.302872 0.044485 0.613172
v -17.302872 0.044485 0.406992
v -17.345573 0.044485 0.510082
v -17.039488 0.539521 0.946021
v -17.491631 0.539521 0.946021
v -17.132177 1.083027 0.785481
v -17.398943 1.083027 0.785481
v -17.039488 0.539521 0.162888
v -16.813417 0.539521 0.554455
v -17.132177 1.083027 0.323428
v -16.998793 1.083027 0.554454
v -17.491631 0.539521 0.162888
v -17.398943 1.083027 0.323428
v -17.532326 1.083027 0.554455
v -17.717703 0.539521 0.554455
v -17.004852 1.666943 0.554454
v -17.135206 1.666943 0.780233
v -17.205637 2.279410 0.554454
v -17.235598 2.279410 0.606349
v -17.325481 2.279410 0.554454
v -17.295521 2.279410 0.606349
v -17.526264 1.666943 0.554454
v -17.395912 1.666943 0.780233
v -17.395912 1.666943 0.328676
v -17.135206 1.666943 0.328676
v -17.295521 2.279410 0.502560
v -17.235598 2.279410 0.502560
v -16.947212 1.083027 0.370657
v -16.947212 1.083027 0.738252
v -17.119690 1.666943 0.470236
v -17.119690 1.666943 0.638673
v -17.265558 1.083027 0.186859
v -17.265558 1.666943 0.386018
v -17.265558 1.083027 0.922050
v -17.265558 1.666943 0.722891
v -17.583906 1.083027 0.738252
v -17.411430 1.666943 0.638673
v -17.583906 1.083027 0.370657
v -17.411430 1.666943 0.470236
v -17.265558 0.369968 1.032166
v -17.516499 0.454744 0.989094
v -17.014620 0.454744 0.989094
v -17.516499 0.454744 0.119815
v -17.679270 0.369968 0.315599
v -17.767437 0.454744 0.554455
v -17.679270 0.369968 0.793310
v -16.763681 0.454744 0.554455
v -16.851849 0.369968 0.793310
v -17.265558 0.369968 0.076743
v -17.014620 0.454744 0.119815
v -16.851849 0.369968 0.315599
v -17.459751 0.945179 0.218105
v -17.265558 1.014103 0.146423
v -17.618925 1.014103 0.350439
v -16.912193 1.014103 0.350439
v -16.877176 0.945179 0.554455
v -16.912193 1.014103 0.758470
v -17.459751 0.945179 0.890804
v -17.618925 1.014103 0.758470
v -17.265558 1.014103 0.962486
v -17.653944 0.945179 0.554455
v -17.071367 0.945179 0.890804
v -17.071367 0.945179 0.218105
v -17.410252 1.618061 0.303841
v -17.504107 1.569178 0.416730
v -17.554943 1.618061 0.554454
v -17.504107 1.569178 0.692179
v -17.410252 1.618061 0.805068
v -17.120867 1.618061 0.303841
v -17.027014 1.569178 0.416730
v -16.976175 1.618061 0.554454
v -17.265558 1.569178 0.829904
v -17.120867 1.618061 0.805068
v -17.265558 1.569178 0.279005
v -17.027014 1.569178 0.692179
vn -0.0000 -1.0000 -0.0000
vn 0.8851 0.2942 -0.3607
vn 0.8812 0.2944 0.3698
vn 0.8812 0.2944 -0.3698
vn 0.8851 0.2942 0.3607
vn 0.3608 0.2943 0.8850
vn 0.3607 0.2942 0.8850
vn 0.3698 0.2944 0.8812
vn 0.3607 0.2942 -0.8850
vn 0.3698 0.2944 -0.8812
vn 0.8812 0.2945 -0.3698
vn 0.3608 0.2942 -0.8850
vn -0.3607 0.2942 -0.8851
vn 0.3698 0.2944 -0.8813
vn -0.3698 0.2944 -0.8812
vn 0.3607 0.2942 -0.8851
vn -0.8813 0.2944 0.3698
vn -0.8851 0.2942 -0.3607
vn -0.8812 0.2944 -0.3698
vn -0.8851 0.2942 0.3607
vn 0.3607 0.2942 0.8851
vn -0.3698 0.2944 0.8813
vn -0.3698 0.2944 0.8812
vn -0.3607 0.2942 0.8851
vn -0.3607 0.2942 -0.8850
vn -0.3608 0.2943 -0.8850
vn -0.8812 0.2945 0.3698
vn -0.3608 0.2942 0.8850
vn -0.3607 0.2942 0.8850
vn -0.8812 0.2944 0.3698
vn -0.9230 -0.0513 -0.3813
vn -0.9223 -0.0512 0.3829
vn -0.9223 -0.0513 -0.3829
vn -0.9223 -0.0513 0.3829
vn -0.9230 -0.0513 0.3813
vn -0.3814 -0.0512 0.9230
vn -0.9223 -0.0513 0.3830
vn -0.9230 -0.0512 0.3813
vn -0.3813 -0.0513 0.9230
vn -0.3830 -0.0512 0.9223
vn 0.9223 -0.0512 0.3829
vn 0.9230 -0.0513 -0.3813
vn 0.9223 -0.0513 -0.3829
vn 0.9230 -0.0513 0.3813
vn -0.3829 -0.0513 -0.9223
vn 0.3813 -0.0513 -0.9230
vn -0.3813 -0.0513 -0.9230
vn -0.3829 -0.0512 -0.9223
vn 0.3829 -0.0513 -0.9223
vn 0.9223 -0.0513 0.3830
vn 0.3814 -0.0513 0.9230
vn 0.3813 -0.0513 0.9230
vn 0.9223 -0.0512 0.3830
vn 0.3830 -0.0513 0.9223
vn -0.9223 -0.0512 -0.3830
vn -0.3830 -0.0513 -0.9223
vn -0.9223 -0.0513 -0.3830
vn -0.3814 -0.0513 -0.9230
vn 0.9223 -0.0513 -0.3830
vn 0.3830 -0.0512 -0.9223
vn 0.3814 -0.0512 -0.9230
vn 0.9230 -0.0512 -0.3813
vn 0.3829 -0.0513 0.9223
vn 0.3829 -0.0512 0.9223
vn -0.3829 -0.0513 0.9223
vn -0.0000 1.0000 -0.0000
vn 0.6468 0.4042 -0.6467
vn 0.9147 0.4042 -0.0000
vn 0.9147 0.4042 -0.0001
vn 0.6468 0.4042 -0.6468
vn 0.9146 0.4043 -0.0001
vn -0.0000 0.4042 0.9147
vn -0.6467 0.4042 0.6468
vn -0.6468 0.4042 0.6468
vn -0.6467 0.4043 0.6468
vn -0.9147 0.4042 -0.0000
vn -0.6468 0.4042 0.6467
vn -0.9146 0.4043 -0.0000
vn -0.0000 0.4042 -0.9147
vn 0.6467 0.4042 -0.6468
vn 0.6468 0.4042 0.6468
vn 0.6467 0.4042 0.6468
vn -0.0000 0.4042 0.9146
vn -0.6468 0.4042 -0.6468
vn -0.6467 0.4042 -0.6468
vn -0.0000 0.4042 -0.9146
vn 0.9146 0.4043 0.0001
vn 0.9147 0.4042 0.0001
vn 0.6468 0.4042 0.6467
vn -0.9147 0.4042 -0.0001
vn -0.6468 0.4042 -0.6467
vn 0.4732 0.3228 0.8197
vn -0.4732 0.3228 0.8197
vn 0.4732 0.3228 -0.8197
vn 0.9465 0.3228 -0.0000
vn 0.4732 0.3228 -0.8196
vn -0.4732 0.3228 -0.8197
vn -0.9465 0.3228 -0.0000
vn 0.6877 0.7260 -0.0000
vn 0.4751 0.3115 0.8229
vn 0.9503 0.3115 -0.0000
vn 0.4752 0.3115 0.8229
vn 0.6877 0.7260 -0.0001
vn 0.3439 0.7260 0.5956
vn -0.9502 0.3115 -0.0000
vn -0.3439 0.7260 0.5956
vn -0.6877 0.7260 -0.0001
vn -0.3438 0.7260 0.5956
vn -0.9503 0.3115 -0.0000
vn -0.4751 0.3115 0.8229
vn -0.3439 0.7260 -0.5956
vn 0.4751 0.3115 -0.8229
vn -0.4751 0.3115 -0.8229
vn 0.3439 0.7260 -0.5956
vn 0.3438 0.7260 -0.5956
vn 0.9502 0.3115 -0.0000
vn 0.3439 0.7259 -0.5956
vn 0.3439 0.7259 0.5956
vn 0.6877 0.7259 -0.0000
vn -0.3439 0.7259 0.5956
vn -0.3439 0.7259 -0.5956
vn -0.6877 0.7259 -0.0000
vn -0.3438 0.7260 -0.5956
vn -0.3439 0.7260 -0.5955
vn -0.6877 0.7260 -0.0000
vn 0.8197 0.3228 -0.4732
vn 0.8197 0.3228 0.4732
vn -0.0000 0.3228 -0.9465
vn 0.8196 0.3228 -0.4732
vn -0.0000 0.3228 0.9465
vn 0.8197 0.3228 0.4733
vn -0.8196 0.3228 0.4732
vn -0.8196 0.3228 0.4733
vn -0.8197 0.3228 0.4733
vn -0.8196 0.3228 -0.4732
vn -0.8197 0.3228 -0.4732
vn -0.8197 0.3228 0.4732
vn 0.4313 0.5060 0.7470
vn -0.4313 0.5060 0.7470
vn -0.0000 0.4530 0.8915
vn -0.0000 -0.4530 -0.8915
vn 0.4313 -0.5060 -0.7470
vn -0.4313 -0.5060 -0.7470
vn -0.7721 0.4530 -0.4458
vn -0.4313 0.5060 -0.7469
vn -0.4313 0.5060 -0.7470
vn -0.8625 0.5060 -0.0000
vn -0.7721 0.4529 -0.4458
vn 0.4313 -0.5060 0.7470
vn 0.7721 -0.4530 0.4458
vn 0.8625 -0.5060 -0.0000
vn 0.7721 -0.4529 0.4458
vn -0.8626 0.5060 -0.0000
vn -0.7721 0.4530 0.4458
vn 0.7721 -0.4530 -0.4458
vn 0.4313 -0.5060 -0.7469
vn 0.8625 0.5060 -0.0000
vn 0.7721 0.4530 0.4458
vn 0.4313 0.5060 0.7469
vn 0.4312 0.5060 0.7470
vn -0.8625 -0.5060 -0.0000
vn -0.7721 -0.4530 -0.4458
vn -0.4312 -0.5060 -0.7470
vn 0.4313 0.5060 -0.7470
vn -0.0000 0.4530 -0.8915
vn -0.0000 -0.4530 0.8915
vn -0.4313 -0.5060 0.7470
vn 0.4312 0.5060 -0.7470
vn 0.7721 0.4530 -0.4458
vn -0.7721 -0.4530 0.4458
vn -0.4312 -0.5060 0.7470
vn -0.7470 0.5060 -0.4313
vn -0.0000 0.5060 -0.8625
vn -0.4458 0.4530 -0.7721
vn 0.4458 -0.4530 0.7721
vn -0.0000 -0.5060 0.8625
vn 0.7470 -0.5060 0.4313
vn 0.7470 0.5060 -0.4313
vn 0.8915 0.4530 -0.0000
vn 0.7470 0.5060 0.4313
vn 0.7469 0.5060 0.4313
vn -0.7470 -0.5060 0.4313
vn -0.8915 -0.4530 -0.0000
vn -0.7470 -0.5060 -0.4313
vn -0.0000 0.5060 0.8625
vn -0.7470 0.5060 0.4313
vn -0.4458 0.4530 0.7721
vn 0.4458 -0.4530 -0.7721
vn 0.7470 -0.5060 -0.4313
vn -0.0000 -0.5060 -0.8625
vn -0.8915 0.4530 -0.0000
vn -0.7469 0.5061 -0.4313
vn 0.8915 -0.4530 -0.0000
vn 0.4458 0.4530 0.7721
vn -0.4458 -0.4530 -0.7721
vn 0.4458 0.4530 -0.7721
vn -0.4458 -0.4530 0.7721
vn -0.7721 0.4530 -0.4457
vn -0.4313 0.5061 -0.7469
vn -0.4312 0.5061 -0.7470
vn 0.4313 -0.5060 0.7469
vn 0.7721 -0.4530 0.4457
vn 0.8625 -0.5061 -0.0000
vn -0.4313 0.5060 0.7469
vn -0.7721 0.4530 0.4457
vn 0.7721 -0.4530 -0.4457
vn 0.4313 -0.5061 -0.7469
vn 0.7721 0.4529 -0.4458
vn -0.7721 -0.4529 0.4458
vn 0.7721 0.4529 0.4458
vn -0.7721 -0.4529 -0.4458
vt 0.593750 0.025000
vt 0.593750 0.104996
vt 0.593750 0.225000
vt 0.093750 0.475000
vt 0.093750 0.275000
vt 0.093750 0.425000
vt 0.093750 0.348778
vt 0.093750 0.338765
vt 0.093750 0.344099
vt 0.093750 0.375000
vt 0.093750 0.325000
s 0
usemtl colormap.002
f 3/1/1 2/1/1 1/1/1
f 2/1/1 3/1/1 4/1/1
f 4/1/1 3/1/1 5/1/1
f 4/1/1 5/1/1 6/1/1
f 6/1/1 5/1/1 7/1/1
f 6/1/1 7/1/1 8/1/1
f 9/2/2 1/1/3 2/1/4
f 1/1/3 9/2/2 10/2/5
f 11/2/6 1/1/3 10/2/5
f 1/1/3 11/2/7 3/1/8
f 12/2/9 2/1/4 4/1/10
f 2/1/11 12/2/12 9/2/2
f 13/2/13 4/1/14 6/1/15
f 4/1/10 13/2/13 12/2/16
f 7/1/17 14/2/18 8/1/19
f 14/2/18 7/1/17 15/2/20
f 11/2/21 5/1/22 3/1/8
f 5/1/23 11/2/21 16/2/24
f 8/1/19 13/2/25 6/1/15
f 13/2/26 8/1/19 14/2/18
f 7/1/27 16/2/28 15/2/20
f 16/2/29 7/1/30 5/1/23
f 14/2/31 18/3/32 17/3/33
f 18/3/34 14/2/31 15/2/35
f 16/2/36 18/3/37 15/2/38
f 18/3/37 16/2/39 19/3/40
f 21/3/41 9/2/42 20/3/43
f 9/2/42 21/3/41 10/2/44
f 22/3/45 12/2/46 13/2/47
f 12/2/46 22/3/48 23/3/49
f 21/3/50 11/2/51 10/2/44
f 11/2/52 21/3/53 24/3/54
f 13/2/47 17/3/55 22/3/56
f 17/3/57 13/2/58 14/2/31
f 20/3/59 12/2/46 23/3/60
f 12/2/61 20/3/59 9/2/62
f 24/3/63 16/2/39 11/2/52
f 16/2/39 24/3/64 19/3/65
f 27/4/66 26/4/66 25/4/66
f 26/4/66 27/4/66 28/4/66
f 26/4/66 28/4/66 29/4/66
f 29/4/66 28/4/66 30/4/66
f 29/4/66 30/4/66 31/4/66
f 31/4/66 30/4/66 32/4/66
f 35/5/1 34/5/1 33/5/1
f 34/5/1 35/5/1 36/5/1
f 34/5/1 36/5/1 37/5/1
f 37/5/1 36/5/1 38/5/1
f 37/5/1 38/5/1 39/5/1
f 39/5/1 38/5/1 40/5/1
f 27/4/67 33/5/68 34/5/67
f 33/5/69 27/4/70 25/4/71
f 29/4/72 38/5/73 36/5/72
f 38/5/74 29/4/72 31/4/75
f 40/5/76 31/4/77 32/4/78
f 31/4/74 40/5/76 38/5/77
f 28/4/79 34/5/70 37/5/79
f 34/5/80 28/4/79 27/4/80
f 26/4/81 36/5/72 35/5/82
f 36/5/72 26/4/82 29/4/83
f 30/4/84 37/5/79 39/5/85
f 37/5/79 30/4/85 28/4/86
f 26/4/81 33/5/87 25/4/88
f 33/5/68 26/4/89 35/5/89
f 40/5/90 30/4/84 39/5/84
f 30/4/91 40/5/78 32/4/76
f 43/6/92 42/7/93 41/7/92
f 42/7/93 43/6/92 44/6/93
f 47/6/94 46/7/95 45/7/96
f 46/7/95 47/6/94 48/6/95
f 50/6/97 45/7/94 49/7/97
f 45/7/94 50/6/97 47/6/94
f 48/6/95 41/7/92 46/7/95
f 41/7/92 48/6/95 43/6/92
f 52/7/98 44/6/93 51/6/98
f 44/6/93 52/7/98 42/7/93
f 52/7/98 50/6/97 49/7/97
f 50/6/97 52/7/98 51/6/98
f 41/7/1 45/7/1 46/7/1
f 45/7/1 41/7/1 42/7/1
f 45/7/1 42/7/1 49/7/1
f 49/7/1 42/7/1 52/7/1
f 55/6/99 54/8/100 53/8/101
f 54/8/102 55/6/103 56/6/104
f 59/8/105 58/6/106 57/6/107
f 58/6/108 59/8/109 60/8/110
f 63/6/111 62/8/112 61/8/113
f 62/8/112 63/6/111 64/6/114
f 64/6/115 53/8/116 62/8/112
f 53/8/116 64/6/115 55/6/99
f 64/6/117 56/6/118 55/6/119
f 56/6/118 64/6/117 58/6/120
f 58/6/120 64/6/117 63/6/121
f 58/6/120 63/6/121 57/6/122
f 59/8/105 63/6/123 61/8/113
f 63/6/124 59/8/105 57/6/125
f 54/8/1 62/8/1 53/8/1
f 62/8/1 54/8/1 60/8/1
f 62/8/1 60/8/1 61/8/1
f 61/8/1 60/8/1 59/8/1
f 56/6/104 60/8/110 54/8/100
f 60/8/110 56/6/104 58/6/106
f 67/6/126 66/9/127 65/9/126
f 66/9/127 67/6/126 68/6/127
f 70/6/128 65/9/129 69/9/128
f 65/9/126 70/6/128 67/6/126
f 68/6/127 71/9/130 66/9/127
f 71/9/130 68/6/131 72/6/130
f 72/6/130 73/9/132 71/9/130
f 73/9/133 72/6/130 74/6/134
f 71/9/1 65/9/1 66/9/1
f 65/9/1 71/9/1 69/9/1
f 69/9/1 71/9/1 73/9/1
f 69/9/1 73/9/1 75/9/1
f 76/6/135 69/9/128 75/9/135
f 69/9/128 76/6/136 70/6/128
f 73/9/137 76/6/136 75/9/136
f 76/6/136 73/9/137 74/6/137
f 79/10/138 78/10/139 77/11/140
f 78/10/139 79/10/138 41/6/138
f 78/10/139 41/6/138 42/6/139
f 77/11/141 78/10/142 79/10/143
f 41/6/143 79/10/143 78/10/142
f 42/6/142 41/6/143 78/10/142
f 81/11/144 49/6/145 80/10/146
f 49/6/146 81/11/144 52/6/147
f 52/6/147 81/11/148 82/10/147
f 80/10/149 49/6/149 81/11/150
f 52/6/151 81/11/150 49/6/149
f 82/10/151 81/11/152 52/6/151
f 82/10/153 42/6/139 52/6/147
f 42/6/139 82/10/147 83/11/154
f 42/6/139 83/11/154 78/10/139
f 52/6/151 42/6/142 82/10/151
f 83/11/155 82/10/151 42/6/142
f 78/10/142 83/11/155 42/6/156
f 46/6/157 85/11/158 84/10/157
f 85/11/158 46/6/157 41/6/159
f 85/11/158 41/6/160 79/10/160
f 84/10/161 85/11/162 46/6/161
f 41/6/143 46/6/161 85/11/162
f 79/10/143 41/6/163 85/11/162
f 80/10/146 87/10/164 86/11/165
f 87/10/164 80/10/146 49/6/146
f 87/10/164 49/6/146 45/6/164
f 86/11/166 87/10/167 80/10/149
f 49/6/149 80/10/149 87/10/167
f 45/6/167 49/6/149 87/10/167
f 45/6/168 88/11/169 87/10/164
f 88/11/169 45/6/164 46/6/157
f 88/11/169 46/6/157 84/10/157
f 87/10/167 88/11/170 45/6/171
f 46/6/161 45/6/167 88/11/170
f 84/10/161 46/6/161 88/11/170
f 91/10/172 90/10/173 89/11/174
f 90/10/173 91/10/172 75/6/172
f 90/10/173 75/6/172 69/6/173
f 89/11/175 90/10/176 91/10/177
f 75/6/177 91/10/177 90/10/176
f 69/6/176 75/6/177 90/10/176
f 65/6/178 93/11/179 92/10/178
f 93/11/179 65/6/178 66/6/180
f 93/11/179 66/6/181 94/10/180
f 92/10/182 93/11/183 65/6/182
f 66/6/184 65/6/182 93/11/183
f 94/10/184 66/6/184 93/11/183
f 97/10/185 96/10/186 95/11/187
f 96/10/186 97/10/185 71/6/185
f 96/10/186 71/6/185 73/6/186
f 95/11/188 96/10/189 97/10/190
f 71/6/190 97/10/190 96/10/189
f 73/6/189 71/6/190 96/10/189
f 98/11/191 75/6/172 91/10/172
f 75/6/192 98/11/191 73/6/186
f 73/6/186 98/11/191 96/10/186
f 91/10/177 75/6/177 98/11/193
f 73/6/189 98/11/193 75/6/177
f 96/10/189 98/11/193 73/6/189
f 94/10/180 97/10/185 99/11/194
f 97/10/185 94/10/180 66/6/180
f 97/10/185 66/6/180 71/6/185
f 99/11/195 97/10/190 94/10/184
f 66/6/184 94/10/184 97/10/190
f 71/6/190 66/6/184 97/10/190
f 90/10/173 92/10/178 100/11/196
f 92/10/178 90/10/173 69/6/173
f 92/10/178 69/6/173 65/6/178
f 100/11/197 92/10/182 90/10/176
f 69/6/176 90/10/176 92/10/182
f 65/6/182 69/6/176 92/10/182
f 102/11/198 61/6/199 101/10/146
f 61/6/200 102/11/144 59/6/147
f 59/6/147 102/11/144 103/10/147
f 101/10/149 61/6/201 102/11/202
f 59/6/151 102/11/150 61/6/149
f 103/10/151 102/11/150 59/6/203
f 103/10/147 60/6/139 59/6/147
f 60/6/139 103/10/147 104/11/154
f 60/6/204 104/11/205 105/10/139
f 59/6/151 60/6/142 103/10/151
f 104/11/155 103/10/151 60/6/142
f 105/10/142 104/11/206 60/6/207
f 62/6/164 107/11/169 106/10/164
f 107/11/169 62/6/164 53/6/157
f 107/11/208 53/6/157 108/10/157
f 106/10/167 107/11/170 62/6/167
f 53/6/161 62/6/167 107/11/170
f 108/10/161 53/6/161 107/11/209
f 110/10/138 105/10/139 109/11/140
f 105/10/139 110/10/138 54/6/138
f 105/10/139 54/6/138 60/6/139
f 109/11/141 105/10/142 110/10/143
f 54/6/143 110/10/143 105/10/142
f 60/6/142 54/6/143 105/10/142
f 101/10/146 106/10/164 111/11/165
f 106/10/164 101/10/146 61/6/146
f 106/10/164 61/6/146 62/6/164
f 111/11/166 106/10/167 101/10/149
f 61/6/149 101/10/149 106/10/167
f 62/6/167 61/6/149 106/10/167
f 53/6/157 112/11/210 108/10/157
f 112/11/158 53/6/157 54/6/138
f 112/11/158 54/6/159 110/10/138
f 108/10/161 112/11/211 53/6/161
f 54/6/143 53/6/161 112/11/162
f 110/10/143 54/6/143 112/11/162
f 3/1/1 2/1/1 1/1/1
f 2/1/1 3/1/1 4/1/1
f 4/1/1 3/1/1 5/1/1
f 4/1/1 5/1/1 6/1/1
f 6/1/1 5/1/1 7/1/1
f 6/1/1 7/1/1 8/1/1
f 9/2/2 1/1/3 2/1/4
f 1/1/3 9/2/2 10/2/5
f 11/2/6 1/1/3 10/2/5
f 1/1/3 11/2/7 3/1/8
f 12/2/9 2/1/4 4/1/10
f 2/1/11 12/2/12 9/2/2
f 13/2/13 4/1/14 6/1/15
f 4/1/10 13/2/13 12/2/16
f 7/1/17 14/2/18 8/1/19
f 14/2/18 7/1/17 15/2/20
f 11/2/21 5/1/22 3/1/8
f 5/1/23 11/2/21 16/2/24
f 8/1/19 13/2/25 6/1/15
f 13/2/26 8/1/19 14/2/18
f 7/1/27 16/2/28 15/2/20
f 16/2/29 7/1/30 5/1/23
f 14/2/31 18/3/32 17/3/33
f 18/3/34 14/2/31 15/2/35
f 16/2/36 18/3/37 15/2/38
f 18/3/37 16/2/39 19/3/40
f 21/3/41 9/2/42 20/3/43
f 9/2/42 21/3/41 10/2/44
f 22/3/45 12/2/46 13/2/47
f 12/2/46 22/3/48 23/3/49
f 21/3/50 11/2/51 10/2/44
f 11/2/52 21/3/53 24/3/54
f 13/2/47 17/3/55 22/3/56
f 17/3/57 13/2/58 14/2/31
f 20/3/59 12/2/46 23/3/60
f 12/2/61 20/3/59 9/2/62
f 24/3/63 16/2/39 11/2/52
f 16/2/39 24/3/64 19/3/65
f 27/4/66 26/4/66 25/4/66
f 26/4/66 27/4/66 28/4/66
f 26/4/66 28/4/66 29/4/66
f 29/4/66 28/4/66 30/4/66
f 29/4/66 30/4/66 31/4/66
f 31/4/66 30/4/66 32/4/66
f 35/5/1 34/5/1 33/5/1
f 34/5/1 35/5/1 36/5/1
f 34/5/1 36/5/1 37/5/1
f 37/5/1 36/5/1 38/5/1
f 37/5/1 38/5/1 39/5/1
f 39/5/1 38/5/1 40/5/1
f 27/4/67 33/5/68 34/5/67
f 33/5/69 27/4/70 25/4/71
f 29/4/72 38/5/73 36/5/72
f 38/5/74 29/4/72 31/4/75
f 40/5/76 31/4/77 32/4/78
f 31/4/74 40/5/76 38/5/77
f 28/4/79 34/5/70 37/5/79
f 34/5/80 28/4/79 27/4/80
f 26/4/81 36/5/72 35/5/82
f 36/5/72 26/4/82 29/4/83
f 30/4/84 37/5/79 39/5/85
f 37/5/79 30/4/85 28/4/86
f 26/4/81 33/5/87 25/4/88
f 33/5/68 26/4/89 35/5/89
f 40/5/90 30/4/84 39/5/84
f 30/4/91 40/5/78 32/4/76
f 43/6/92 42/7/93 41/7/92
f 42/7/93 43/6/92 44/6/93
f 47/6/94 46/7/95 45/7/96
f 46/7/95 47/6/94 48/6/95
f 50/6/97 45/7/94 49/7/97
f 45/7/94 50/6/97 47/6/94
f 48/6/95 41/7/92 46/7/95
f 41/7/92 48/6/95 43/6/92
f 52/7/98 44/6/93 51/6/98
f 44/6/93 52/7/98 42/7/93
f 52/7/98 50/6/97 49/7/97
f 50/6/97 52/7/98 51/6/98
f 41/7/1 45/7/1 46/7/1
f 45/7/1 41/7/1 42/7/1
f 45/7/1 42/7/1 49/7/1
f 49/7/1 42/7/1 52/7/1
f 55/6/99 54/8/100 53/8/101
f 54/8/102 55/6/103 56/6/104
f 59/8/105 58/6/106 57/6/107
f 58/6/108 59/8/109 60/8/110
f 63/6/111 62/8/112 61/8/113
f 62/8/112 63/6/111 64/6/114
f 64/6/115 53/8/116 62/8/112
f 53/8/116 64/6/115 55/6/99
f 64/6/117 56/6/118 55/6/119
f 56/6/118 64/6/117 58/6/120
f 58/6/120 64/6/117 63/6/121
f 58/6/120 63/6/121 57/6/122
f 59/8/105 63/6/123 61/8/113
f 63/6/124 59/8/105 57/6/125
f 54/8/1 62/8/1 53/8/1
f 62/8/1 54/8/1 60/8/1
f 62/8/1 60/8/1 61/8/1
f 61/8/1 60/8/1 59/8/1
f 56/6/104 60/8/110 54/8/100
f 60/8/110 56/6/104 58/6/106
f 67/6/126 66/9/127 65/9/126
f 66/9/127 67/6/126 68/6/127
f 70/6/128 65/9/129 69/9/128
f 65/9/126 70/6/128 67/6/126
f 68/6/127 71/9/130 66/9/127
f 71/9/130 68/6/131 72/6/130
f 72/6/130 73/9/132 71/9/130
f 73/9/133 72/6/130 74/6/134
f 71/9/1 65/9/1 66/9/1
f 65/9/1 71/9/1 69/9/1
f 69/9/1 71/9/1 73/9/1
f 69/9/1 73/9/1 75/9/1
f 76/6/135 69/9/128 75/9/135
f 69/9/128 76/6/136 70/6/128
f 73/9/137 76/6/136 75/9/136
f 76/6/136 73/9/137 74/6/137
f 79/10/138 78/10/139 77/11/140
f 78/10/139 79/10/138 41/6/138
f 78/10/139 41/6/138 42/6/139
f 77/11/141 78/10/142 79/10/143
f 41/6/143 79/10/143 78/10/142
f 42/6/142 41/6/143 78/10/142
f 81/11/144 49/6/145 80/10/146
f 49/6/146 81/11/144 52/6/147
f 52/6/147 81/11/148 82/10/147
f 80/10/149 49/6/149 81/11/150
f 52/6/151 81/11/150 49/6/149
f 82/10/151 81/11/152 52/6/151
f 82/10/153 42/6/139 52/6/147
f 42/6/139 82/10/147 83/11/154
f 42/6/139 83/11/154 78/10/139
f 52/6/151 42/6/142 82/10/151
f 83/11/155 82/10/151 42/6/142
f 78/10/142 83/11/155 42/6/156
f 46/6/157 85/11/158 84/10/157
f 85/11/158 46/6/157 41/6/159
f 85/11/158 41/6/160 79/10/160
f 84/10/161 85/11/162 46/6/161
f 41/6/143 46/6/161 85/11/162
f 79/10/143 41/6/163 85/11/162
f 80/10/146 87/10/164 86/11/165
f 87/10/164 80/10/146 49/6/146
f 87/10/164 49/6/146 45/6/164
f 86/11/166 87/10/167 80/10/149
f 49/6/149 80/10/149 87/10/167
f 45/6/167 49/6/149 87/10/167
f 45/6/168 88/11/169 87/10/164
f 88/11/169 45/6/164 46/6/157
f 88/11/169 46/6/157 84/10/157
f 87/10/167 88/11/170 45/6/171
f 46/6/161 45/6/167 88/11/170
f 84/10/161 46/6/161 88/11/170
f 91/10/172 90/10/173 89/11/174
f 90/10/173 91/10/172 75/6/172
f 90/10/173 75/6/172 69/6/173
f 89/11/175 90/10/176 91/10/177
f 75/6/177 91/10/177 90/10/176
f 69/6/176 75/6/177 90/10/176
f 65/6/178 93/11/179 92/10/178
f 93/11/179 65/6/178 66/6/180
f 93/11/179 66/6/181 94/10/180
f 92/10/182 93/11/183 65/6/182
f 66/6/184 65/6/182 93/11/183
f 94/10/184 66/6/184 93/11/183
f 97/10/185 96/10/186 95/11/187
f 96/10/186 97/10/185 71/6/185
f 96/10/186 71/6/185 73/6/186
f 95/11/188 96/10/189 97/10/190
f 71/6/190 97/10/190 96/10/189
f 73/6/189 71/6/190 96/10/189
f 98/11/191 75/6/172 91/10/172
f 75/6/192 98/11/191 73/6/186
f 73/6/186 98/11/191 96/10/186
f 91/10/177 75/6/177 98/11/193
f 73/6/189 98/11/193 75/6/177
f 96/10/189 98/11/193 73/6/189
f 94/10/180 97/10/185 99/11/194
f 97/10/185 94/10/180 66/6/180
f 97/10/185 66/6/180 71/6/185
f 99/11/195 97/10/190 94/10/184
f 66/6/184 94/10/184 97/10/190
f 71/6/190 66/6/184 97/10/190
f 90/10/173 92/10/178 100/11/196
f 92/10/178 90/10/173 69/6/173
f 92/10/178 69/6/173 65/6/178
f 100/11/197 92/10/182 90/10/176
f 69/6/176 90/10/176 92/10/182
f 65/6/182 69/6/176 92/10/182
f 102/11/198 61/6/199 101/10/146
f 61/6/200 102/11/144 59/6/147
f 59/6/147 102/11/144 103/10/147
f 101/10/149 61/6/201 102/11/202
f 59/6/151 102/11/150 61/6/149
f 103/10/151 102/11/150 59/6/203
f 103/10/147 60/6/139 59/6/147
f 60/6/139 103/10/147 104/11/154
f 60/6/204 104/11/205 105/10/139
f 59/6/151 60/6/142 103/10/151
f 104/11/155 103/10/151 60/6/142
f 105/10/142 104/11/206 60/6/207
f 62/6/164 107/11/169 106/10/164
f 107/11/169 62/6/164 53/6/157
f 107/11/208 53/6/157 108/10/157
f 106/10/167 107/11/170 62/6/167
f 53/6/161 62/6/167 107/11/170
f 108/10/161 53/6/161 107/11/209
f 110/10/138 105/10/139 109/11/140
f 105/10/139 110/10/138 54/6/138
f 105/10/139 54/6/138 60/6/139
f 109/11/141 105/10/142 110/10/143
f 54/6/143 110/10/143 105/10/142
f 60/6/142 54/6/143 105/10/142
f 101/10/146 106/10/164 111/11/165
f 106/10/164 101/10/146 61/6/146
f 106/10/164 61/6/146 62/6/164
f 111/11/166 106/10/167 101/10/149
f 61/6/149 101/10/149 106/10/167
f 62/6/167 61/6/149 106/10/167
f 53/6/157 112/11/210 108/10/157
f 112/11/158 53/6/157 54/6/138
f 112/11/158 54/6/159 110/10/138
f 108/10/161 112/11/211 53/6/161
f 54/6/143 53/6/161 112/11/162
f 110/10/143 54/6/143 112/11/162
