# Blender 4.1.1
# www.blender.org
mtllib tree.050.mtl
o tree.050
v -8.126290 -0.282319 6.899065
v -7.969450 -0.282319 6.990519
v -8.158985 -0.282319 6.774916
v -7.845302 -0.282319 6.957825
v -8.067531 -0.282319 6.618075
v -7.753848 -0.282319 6.800983
v -7.943383 -0.282319 6.585381
v -7.786541 -0.282319 6.676835
v -7.962933 0.046402 6.889235
v -8.041354 0.046402 6.843507
v -8.057701 0.046402 6.781434
v -7.900859 0.046402 6.872888
v -7.855132 0.046402 6.794466
v -7.871479 0.046402 6.732392
v -7.949900 0.046402 6.686665
v -8.011973 0.046402 6.703012
v -7.850244 0.539521 6.718503
v -7.948270 0.539521 6.661344
v -8.025863 0.539521 6.681777
v -7.964562 0.539521 6.914556
v -8.062588 0.539521 6.857397
v -7.829811 0.539521 6.796096
v -7.886970 0.539521 6.894122
v -8.083021 0.539521 6.779804
v -7.993667 0.163768 6.939923
v -8.036788 0.163768 6.883223
v -7.923082 0.163768 6.949524
v -7.866382 0.163768 6.906403
v -8.027185 0.163768 6.812638
v -7.856780 0.163768 6.835818
v -7.970486 0.163768 6.769516
v -7.899901 0.163768 6.779118
v -8.020222 0.044485 6.985465
v -7.909657 0.044485 7.000504
v -8.087768 0.044485 6.896648
v -8.072727 0.044485 6.786082
v -7.820840 0.044485 6.932958
v -7.983911 0.044485 6.718536
v -7.805799 0.044485 6.822393
v -7.873346 0.044485 6.733576
v -8.404120 0.539521 6.778401
v -8.176367 0.539521 6.387811
v -8.218746 1.083027 6.779199
v -8.084371 1.083027 6.548748
v -7.727598 0.539521 7.172882
v -8.179735 0.539521 7.170937
v -7.819595 1.083027 7.011944
v -8.086357 1.083027 7.010797
v -7.499845 0.539521 6.782291
v -7.685219 1.083027 6.781494
v -7.817607 1.083027 6.549896
v -7.724229 0.539521 6.389755
v -8.083305 1.666943 7.005561
v -8.212686 1.666943 6.779225
v -7.982167 2.279410 6.832112
v -8.011905 2.279410 6.780088
v -7.921798 2.279410 6.728581
v -7.981720 2.279410 6.728324
v -7.820660 1.666943 6.555131
v -8.081363 1.666943 6.554009
v -7.691279 1.666943 6.781468
v -7.822602 1.666943 7.006683
v -7.892060 2.279410 6.780604
v -7.922245 2.279410 6.832369
v -7.953564 1.083027 7.147938
v -8.271117 1.083027 6.962773
v -7.952707 1.666943 6.948781
v -8.098213 1.666943 6.863936
v -7.634429 1.083027 6.965511
v -7.806476 1.666943 6.865191
v -8.269536 1.083027 6.595181
v -8.097488 1.666943 6.695501
v -7.950401 1.083027 6.412754
v -7.951258 1.666943 6.611912
v -7.632848 1.083027 6.597919
v -7.805752 1.666943 6.696756
v -8.364661 0.369968 6.539713
v -8.201049 0.454744 6.344632
v -8.453856 0.454744 6.778187
v -7.450109 0.454744 6.782505
v -7.537249 0.369968 6.543272
v -7.699176 0.454744 6.346790
v -7.949928 0.369968 6.302639
v -8.204788 0.454744 7.213902
v -8.366716 0.369968 7.017421
v -7.539303 0.369968 7.020979
v -7.702916 0.454744 7.216061
v -7.954038 0.369968 7.258053
v -7.563603 0.945179 6.782016
v -7.599498 1.014103 6.985879
v -7.597744 1.014103 6.577853
v -7.953737 1.014103 7.188374
v -8.147619 0.945179 7.115858
v -8.306221 1.014103 6.982840
v -8.144725 0.945179 6.443164
v -7.950228 1.014103 6.372319
v -8.304466 1.014103 6.574813
v -7.756346 0.945179 6.444835
v -8.340362 0.945179 6.778676
v -7.759239 0.945179 7.117528
v -7.662601 1.618061 6.781591
v -7.712847 1.569178 6.643649
v -7.806214 1.618061 6.530357
v -7.950798 1.569178 6.504900
v -8.095595 1.618061 6.529113
v -7.808370 1.618061 7.031580
v -7.953167 1.569178 7.055792
v -8.097751 1.618061 7.030335
v -8.189934 1.569178 6.641597
v -8.241364 1.618061 6.779101
v -7.714031 1.569178 6.919096
v -8.191118 1.569178 6.917044
vn -0.0000 -1.0000 -0.0000
vn -0.1343 0.2942 0.9463
vn -0.7633 0.2944 0.5750
vn -0.1245 0.2944 0.9475
vn -0.7574 0.2942 0.5829
vn -0.9463 0.2942 -0.1342
vn -0.7634 0.2944 0.5750
vn -0.7575 0.2942 0.5828
vn -0.9463 0.2943 -0.1342
vn -0.9475 0.2944 -0.1244
vn 0.5828 0.2942 0.7574
vn -0.1244 0.2944 0.9475
vn 0.5750 0.2944 0.7634
vn -0.1342 0.2942 0.9463
vn 0.9463 0.2942 0.1343
vn 0.5750 0.2944 0.7633
vn 0.9475 0.2944 0.1245
vn 0.5829 0.2942 0.7574
vn 0.1245 0.2944 -0.9475
vn 0.7574 0.2942 -0.5829
vn 0.7633 0.2944 -0.5750
vn 0.1343 0.2942 -0.9463
vn -0.9463 0.2942 -0.1343
vn -0.5750 0.2944 -0.7633
vn -0.9475 0.2944 -0.1245
vn -0.5829 0.2942 -0.7574
vn 0.7634 0.2944 -0.5750
vn 0.9463 0.2943 0.1342
vn 0.9475 0.2944 0.1244
vn 0.9463 0.2942 0.1342
vn 0.7575 0.2942 -0.5828
vn 0.1244 0.2944 -0.9475
vn -0.5828 0.2942 -0.7574
vn 0.1342 0.2942 -0.9463
vn -0.5750 0.2944 -0.7634
vn 0.7943 -0.0513 -0.6053
vn 0.1338 -0.0512 -0.9897
vn 0.7954 -0.0513 -0.6039
vn 0.1338 -0.0513 -0.9897
vn 0.1355 -0.0513 -0.9894
vn -0.6053 -0.0512 -0.7944
vn 0.1337 -0.0513 -0.9897
vn 0.1355 -0.0512 -0.9895
vn -0.6053 -0.0513 -0.7944
vn -0.6038 -0.0512 -0.7955
vn -0.7954 -0.0512 0.6039
vn -0.1355 -0.0513 0.9894
vn -0.1338 -0.0513 0.9897
vn -0.7943 -0.0513 0.6053
vn 0.9897 -0.0513 0.1338
vn 0.6053 -0.0513 0.7943
vn 0.9894 -0.0513 0.1355
vn 0.9897 -0.0512 0.1338
vn 0.6039 -0.0513 0.7954
vn -0.7955 -0.0513 0.6038
vn -0.9895 -0.0513 -0.1355
vn -0.7944 -0.0512 0.6052
vn -0.7955 -0.0512 0.6038
vn -0.9897 -0.0513 -0.1337
vn 0.9895 -0.0513 0.1355
vn 0.7955 -0.0512 -0.6038
vn 0.9897 -0.0513 0.1337
vn 0.7955 -0.0513 -0.6038
vn 0.7944 -0.0513 -0.6053
vn -0.1337 -0.0513 0.9897
vn 0.6053 -0.0513 0.7944
vn 0.6038 -0.0512 0.7955
vn 0.6053 -0.0512 0.7944
vn -0.1355 -0.0512 0.9895
vn -0.9897 -0.0513 -0.1338
vn -0.9894 -0.0513 -0.1356
vn -0.6053 -0.0513 -0.7943
vn -0.9897 -0.0512 -0.1338
vn -0.6039 -0.0513 -0.7954
vn -0.0000 1.0000 -0.0000
vn 0.2329 0.4042 0.8845
vn -0.4607 0.4042 0.7902
vn -0.4607 0.4043 0.7902
vn -0.7901 0.4042 -0.4608
vn -0.2330 0.4042 -0.8845
vn -0.7901 0.4042 -0.4607
vn -0.2330 0.4043 -0.8845
vn 0.4607 0.4042 -0.7902
vn -0.2329 0.4042 -0.8845
vn 0.4607 0.4043 -0.7901
vn 0.7901 0.4042 0.4608
vn 0.2330 0.4042 0.8845
vn 0.2329 0.4043 0.8845
vn -0.8845 0.4042 0.2329
vn -0.7902 0.4042 -0.4607
vn -0.7901 0.4043 -0.4607
vn 0.8845 0.4042 -0.2329
vn 0.7902 0.4042 0.4607
vn 0.7901 0.4043 0.4607
vn -0.8845 0.4042 0.2330
vn -0.4608 0.4043 0.7901
vn -0.4608 0.4042 0.7901
vn 0.4608 0.4042 -0.7901
vn 0.8845 0.4042 -0.2330
vn -0.9465 0.3228 -0.0041
vn -0.4697 0.3228 -0.8217
vn 0.4697 0.3228 0.8217
vn -0.4767 0.3228 0.8176
vn 0.9465 0.3228 0.0041
vn -0.4768 0.3228 0.8176
vn 0.4767 0.3228 -0.8176
vn 0.4768 0.3228 -0.8176
vn -0.3464 0.7260 0.5941
vn -0.9502 0.3115 -0.0041
vn -0.4787 0.3115 0.8209
vn -0.6877 0.7260 -0.0030
vn 0.4786 0.3115 -0.8209
vn -0.3414 0.7260 -0.5970
vn 0.3465 0.7260 -0.5941
vn -0.3413 0.7260 -0.5970
vn 0.4787 0.3115 -0.8209
vn -0.4716 0.3115 -0.8250
vn 0.6877 0.7260 0.0029
vn 0.4716 0.3115 0.8250
vn 0.9502 0.3115 0.0041
vn 0.3413 0.7260 0.5971
vn 0.3413 0.7260 0.5970
vn -0.4786 0.3115 0.8209
vn 0.3414 0.7260 0.5970
vn -0.3465 0.7260 0.5941
vn 0.3413 0.7259 0.5971
vn -0.6877 0.7259 -0.0029
vn -0.3465 0.7259 0.5941
vn -0.3413 0.7259 -0.5971
vn 0.6877 0.7259 0.0030
vn 0.6877 0.7259 0.0029
vn 0.3465 0.7259 -0.5941
vn 0.4787 0.3116 -0.8209
vn 0.6877 0.7260 0.0030
vn 0.3464 0.7260 -0.5941
vn -0.6877 0.7260 -0.0029
vn -0.3413 0.7260 -0.5971
vn -0.0041 0.3228 0.9464
vn -0.8217 0.3228 0.4697
vn -0.0041 0.3228 0.9465
vn 0.8176 0.3228 0.4768
vn -0.8176 0.3228 -0.4767
vn -0.8176 0.3228 -0.4768
vn 0.0041 0.3228 -0.9464
vn 0.0041 0.3228 -0.9465
vn 0.8217 0.3228 -0.4697
vn 0.8176 0.3228 0.4767
vn -0.8625 0.5060 -0.0037
vn -0.4280 0.5060 -0.7488
vn -0.7702 0.4530 -0.4491
vn -0.4281 0.5060 -0.7488
vn 0.7702 -0.4530 0.4491
vn 0.4280 -0.5060 0.7488
vn 0.8625 -0.5060 0.0037
vn 0.4281 -0.5060 0.7488
vn 0.7740 0.4530 -0.4424
vn 0.8625 0.5060 0.0037
vn 0.4345 0.5060 -0.7451
vn -0.8625 -0.5060 -0.0037
vn -0.7740 -0.4530 0.4424
vn -0.4345 -0.5060 0.7451
vn 0.0038 0.4530 -0.8915
vn -0.0038 -0.4530 0.8915
vn -0.4345 0.5060 0.7451
vn -0.7740 0.4530 0.4424
vn 0.4345 -0.5060 -0.7451
vn 0.7740 -0.4530 -0.4424
vn 0.4280 0.5060 0.7488
vn 0.7702 0.4530 0.4491
vn 0.4281 0.5060 0.7488
vn -0.7702 -0.4530 -0.4491
vn -0.4281 -0.5060 -0.7488
vn -0.0038 0.4530 0.8915
vn -0.4280 -0.5060 -0.7488
vn 0.0038 -0.4530 -0.8915
vn 0.7488 0.5060 -0.4280
vn 0.7451 0.5060 0.4345
vn 0.8915 0.4530 0.0038
vn -0.8915 -0.4530 -0.0038
vn -0.7451 -0.5060 -0.4345
vn -0.7488 -0.5060 0.4280
vn -0.0037 0.5060 0.8625
vn -0.4491 0.4530 0.7702
vn -0.7488 0.5060 0.4280
vn -0.7488 0.5060 0.4281
vn 0.0037 -0.5060 -0.8625
vn 0.4491 -0.4530 -0.7702
vn 0.7488 -0.5060 -0.4280
vn 0.7488 -0.5060 -0.4281
vn -0.7451 0.5060 -0.4345
vn 0.0037 0.5060 -0.8625
vn -0.4424 0.4530 -0.7740
vn 0.4424 -0.4530 0.7740
vn -0.0037 -0.5060 0.8625
vn 0.7451 -0.5060 0.4345
vn 0.4491 0.4529 -0.7702
vn 0.4491 0.4530 -0.7702
vn -0.7488 -0.5060 0.4281
vn -0.4491 -0.4529 0.7702
vn -0.4491 -0.4530 0.7702
vn -0.8915 0.4530 -0.0038
vn 0.8915 -0.4530 0.0038
vn 0.4424 0.4530 0.7740
vn -0.4424 -0.4529 -0.7740
vn -0.4345 -0.5061 0.7451
vn 0.0038 0.4529 -0.8915
vn 0.4280 -0.5061 0.7488
vn -0.0038 0.4529 0.8915
vn -0.4345 0.5061 0.7451
vn 0.7702 0.4529 0.4491
vt 0.593750 0.025000
vt 0.593750 0.104996
vt 0.593750 0.225000
vt 0.093750 0.475000
vt 0.093750 0.275000
vt 0.093750 0.425000
vt 0.093750 0.348778
vt 0.093750 0.338765
vt 0.093750 0.344099
vt 0.093750 0.375000
vt 0.093750 0.325000
s 0
usemtl colormap.002
f 3/1/1 2/1/1 1/1/1
f 2/1/1 3/1/1 4/1/1
f 4/1/1 3/1/1 5/1/1
f 4/1/1 5/1/1 6/1/1
f 6/1/1 5/1/1 7/1/1
f 6/1/1 7/1/1 8/1/1
f 9/2/2 1/1/3 2/1/4
f 1/1/3 9/2/2 10/2/5
f 11/2/6 1/1/7 10/2/8
f 1/1/3 11/2/9 3/1/10
f 12/2/11 2/1/12 4/1/13
f 2/1/12 12/2/11 9/2/14
f 13/2/15 4/1/16 6/1/17
f 4/1/16 13/2/15 12/2/18
f 7/1/19 14/2/20 8/1/21
f 14/2/20 7/1/19 15/2/22
f 11/2/23 5/1/24 3/1/25
f 5/1/24 11/2/23 16/2/26
f 8/1/27 13/2/28 6/1/29
f 13/2/30 8/1/27 14/2/31
f 7/1/32 16/2/33 15/2/34
f 16/2/33 7/1/32 5/1/35
f 14/2/36 18/3/37 17/3/38
f 18/3/39 14/2/36 15/2/40
f 16/2/41 18/3/42 15/2/43
f 18/3/42 16/2/44 19/3/45
f 21/3/46 9/2/47 20/3/48
f 9/2/47 21/3/46 10/2/49
f 22/3/50 12/2/51 13/2/52
f 12/2/51 22/3/53 23/3/54
f 21/3/55 11/2/56 10/2/57
f 11/2/56 21/3/58 24/3/59
f 13/2/60 17/3/61 22/3/62
f 17/3/63 13/2/60 14/2/64
f 20/3/65 12/2/66 23/3/67
f 12/2/68 20/3/65 9/2/69
f 24/3/70 16/2/44 11/2/71
f 16/2/72 24/3/73 19/3/74
f 27/4/75 26/4/75 25/4/75
f 26/4/75 27/4/75 28/4/75
f 26/4/75 28/4/75 29/4/75
f 29/4/75 28/4/75 30/4/75
f 29/4/75 30/4/75 31/4/75
f 31/4/75 30/4/75 32/4/75
f 35/5/1 34/5/1 33/5/1
f 34/5/1 35/5/1 36/5/1
f 34/5/1 36/5/1 37/5/1
f 37/5/1 36/5/1 38/5/1
f 37/5/1 38/5/1 39/5/1
f 39/5/1 38/5/1 40/5/1
f 27/4/76 33/5/77 34/5/76
f 33/5/77 27/4/76 25/4/78
f 29/4/79 38/5/80 36/5/81
f 38/5/80 29/4/79 31/4/82
f 40/5/83 31/4/84 32/4/85
f 31/4/84 40/5/83 38/5/84
f 28/4/86 34/5/87 37/5/86
f 34/5/87 28/4/86 27/4/88
f 26/4/89 36/5/90 35/5/89
f 36/5/90 26/4/89 29/4/91
f 30/4/92 37/5/93 39/5/92
f 37/5/93 30/4/92 28/4/94
f 26/4/95 33/5/96 25/4/97
f 33/5/97 26/4/89 35/5/89
f 40/5/98 30/4/99 39/5/99
f 30/4/92 40/5/85 32/4/98
f 43/6/100 42/7/101 41/7/100
f 42/7/101 43/6/100 44/6/101
f 47/6/102 46/7/103 45/7/102
f 46/7/103 47/6/102 48/6/103
f 50/6/104 45/7/102 49/7/104
f 45/7/102 50/6/104 47/6/102
f 48/6/105 41/7/100 46/7/105
f 41/7/100 48/6/105 43/6/100
f 52/7/106 44/6/101 51/6/106
f 44/6/101 52/7/106 42/7/101
f 52/7/107 50/6/104 49/7/104
f 50/6/104 52/7/107 51/6/107
f 41/7/1 45/7/1 46/7/1
f 45/7/1 41/7/1 42/7/1
f 45/7/1 42/7/1 49/7/1
f 49/7/1 42/7/1 52/7/1
f 55/6/108 54/8/109 53/8/110
f 54/8/109 55/6/108 56/6/111
f 59/8/112 58/6/113 57/6/114
f 58/6/115 59/8/116 60/8/117
f 63/6/118 62/8/119 61/8/120
f 62/8/119 63/6/118 64/6/121
f 64/6/122 53/8/123 62/8/119
f 53/8/123 64/6/124 55/6/125
f 64/6/126 56/6/127 55/6/128
f 56/6/111 64/6/126 58/6/129
f 58/6/129 64/6/126 63/6/130
f 58/6/129 63/6/131 57/6/132
f 59/8/133 63/6/134 61/8/120
f 63/6/118 59/8/116 57/6/135
f 54/8/1 62/8/1 53/8/1
f 62/8/1 54/8/1 60/8/1
f 62/8/1 60/8/1 61/8/1
f 61/8/1 60/8/1 59/8/1
f 56/6/136 60/8/117 54/8/109
f 60/8/117 56/6/136 58/6/137
f 67/6/138 66/9/139 65/9/140
f 66/9/139 67/6/140 68/6/139
f 70/6/141 65/9/138 69/9/141
f 65/9/140 70/6/141 67/6/140
f 68/6/139 71/9/142 66/9/139
f 71/9/142 68/6/139 72/6/142
f 72/6/143 73/9/144 71/9/143
f 73/9/145 72/6/143 74/6/145
f 71/9/1 65/9/1 66/9/1
f 65/9/1 71/9/1 69/9/1
f 69/9/1 71/9/1 73/9/1
f 69/9/1 73/9/1 75/9/1
f 76/6/146 69/9/147 75/9/146
f 69/9/147 76/6/146 70/6/147
f 73/9/145 76/6/146 75/9/146
f 76/6/146 73/9/145 74/6/145
f 79/10/148 78/10/149 77/11/150
f 78/10/149 79/10/148 41/6/148
f 78/10/151 41/6/148 42/6/149
f 77/11/152 78/10/153 79/10/154
f 41/6/154 79/10/154 78/10/155
f 42/6/153 41/6/154 78/10/153
f 81/11/156 49/6/157 80/10/157
f 49/6/157 81/11/156 52/6/158
f 52/6/158 81/11/156 82/10/158
f 80/10/159 49/6/159 81/11/160
f 52/6/161 81/11/160 49/6/159
f 82/10/161 81/11/160 52/6/161
f 82/10/158 42/6/149 52/6/158
f 42/6/151 82/10/158 83/11/162
f 42/6/149 83/11/162 78/10/151
f 52/6/161 42/6/153 82/10/161
f 83/11/163 82/10/161 42/6/153
f 78/10/153 83/11/163 42/6/153
f 46/6/164 85/11/165 84/10/164
f 85/11/165 46/6/164 41/6/148
f 85/11/165 41/6/148 79/10/148
f 84/10/166 85/11/167 46/6/166
f 41/6/154 46/6/166 85/11/167
f 79/10/154 41/6/154 85/11/167
f 80/10/157 87/10/168 86/11/169
f 87/10/168 80/10/157 49/6/157
f 87/10/170 49/6/157 45/6/170
f 86/11/171 87/10/172 80/10/159
f 49/6/159 80/10/159 87/10/172
f 45/6/172 49/6/159 87/10/172
f 45/6/168 88/11/173 87/10/170
f 88/11/173 45/6/170 46/6/164
f 88/11/173 46/6/164 84/10/164
f 87/10/174 88/11/175 45/6/174
f 46/6/166 45/6/174 88/11/175
f 84/10/166 46/6/166 88/11/175
f 91/10/176 90/10/177 89/11/178
f 90/10/177 91/10/176 75/6/176
f 90/10/177 75/6/176 69/6/177
f 89/11/179 90/10/180 91/10/181
f 75/6/181 91/10/181 90/10/180
f 69/6/180 75/6/181 90/10/180
f 65/6/182 93/11/183 92/10/182
f 93/11/183 65/6/182 66/6/184
f 93/11/183 66/6/184 94/10/185
f 92/10/186 93/11/187 65/6/186
f 66/6/188 65/6/186 93/11/187
f 94/10/189 66/6/188 93/11/187
f 97/10/190 96/10/191 95/11/192
f 96/10/191 97/10/190 71/6/190
f 96/10/191 71/6/190 73/6/191
f 95/11/193 96/10/194 97/10/195
f 71/6/195 97/10/195 96/10/194
f 73/6/194 71/6/195 96/10/194
f 98/11/196 75/6/176 91/10/176
f 75/6/176 98/11/197 73/6/191
f 73/6/191 98/11/197 96/10/191
f 91/10/198 75/6/181 98/11/199
f 73/6/194 98/11/200 75/6/198
f 96/10/194 98/11/200 73/6/194
f 94/10/184 97/10/190 99/11/201
f 97/10/190 94/10/184 66/6/184
f 97/10/190 66/6/184 71/6/190
f 99/11/202 97/10/195 94/10/188
f 66/6/188 94/10/188 97/10/195
f 71/6/195 66/6/188 97/10/195
f 90/10/177 92/10/182 100/11/203
f 92/10/182 90/10/177 69/6/177
f 92/10/182 69/6/177 65/6/182
f 100/11/204 92/10/186 90/10/180
f 69/6/180 90/10/180 92/10/186
f 65/6/186 69/6/180 92/10/186
f 102/11/156 61/6/157 101/10/157
f 61/6/157 102/11/156 59/6/158
f 59/6/158 102/11/156 103/10/158
f 101/10/159 61/6/159 102/11/160
f 59/6/161 102/11/160 61/6/159
f 103/10/161 102/11/160 59/6/205
f 103/10/158 60/6/149 59/6/158
f 60/6/151 103/10/158 104/11/206
f 60/6/149 104/11/162 105/10/151
f 59/6/161 60/6/207 103/10/161
f 104/11/163 103/10/161 60/6/153
f 105/10/153 104/11/163 60/6/153
f 62/6/168 107/11/208 106/10/168
f 107/11/173 62/6/170 53/6/164
f 107/11/173 53/6/209 108/10/164
f 106/10/174 107/11/175 62/6/174
f 53/6/166 62/6/174 107/11/175
f 108/10/166 53/6/166 107/11/175
f 110/10/148 105/10/149 109/11/150
f 105/10/149 110/10/148 54/6/148
f 105/10/151 54/6/148 60/6/149
f 109/11/152 105/10/155 110/10/154
f 54/6/154 110/10/154 105/10/155
f 60/6/153 54/6/154 105/10/153
f 101/10/157 106/10/168 111/11/210
f 106/10/168 101/10/157 61/6/157
f 106/10/170 61/6/157 62/6/168
f 111/11/171 106/10/172 101/10/159
f 61/6/159 101/10/159 106/10/174
f 62/6/174 61/6/159 106/10/172
f 53/6/164 112/11/165 108/10/164
f 112/11/165 53/6/164 54/6/148
f 112/11/165 54/6/148 110/10/148
f 108/10/166 112/11/167 53/6/166
f 54/6/154 53/6/166 112/11/167
f 110/10/154 54/6/154 112/11/167
f 3/1/1 2/1/1 1/1/1
f 2/1/1 3/1/1 4/1/1
f 4/1/1 3/1/1 5/1/1
f 4/1/1 5/1/1 6/1/1
f 6/1/1 5/1/1 7/1/1
f 6/1/1 7/1/1 8/1/1
f 9/2/2 1/1/3 2/1/4
f 1/1/3 9/2/2 10/2/5
f 11/2/6 1/1/7 10/2/8
f 1/1/3 11/2/9 3/1/10
f 12/2/11 2/1/12 4/1/13
f 2/1/12 12/2/11 9/2/14
f 13/2/15 4/1/16 6/1/17
f 4/1/16 13/2/15 12/2/18
f 7/1/19 14/2/20 8/1/21
f 14/2/20 7/1/19 15/2/22
f 11/2/23 5/1/24 3/1/25
f 5/1/24 11/2/23 16/2/26
f 8/1/27 13/2/28 6/1/29
f 13/2/30 8/1/27 14/2/31
f 7/1/32 16/2/33 15/2/34
f 16/2/33 7/1/32 5/1/35
f 14/2/36 18/3/37 17/3/38
f 18/3/39 14/2/36 15/2/40
f 16/2/41 18/3/42 15/2/43
f 18/3/42 16/2/44 19/3/45
f 21/3/46 9/2/47 20/3/48
f 9/2/47 21/3/46 10/2/49
f 22/3/50 12/2/51 13/2/52
f 12/2/51 22/3/53 23/3/54
f 21/3/55 11/2/56 10/2/57
f 11/2/56 21/3/58 24/3/59
f 13/2/60 17/3/61 22/3/62
f 17/3/63 13/2/60 14/2/64
f 20/3/65 12/2/66 23/3/67
f 12/2/68 20/3/65 9/2/69
f 24/3/70 16/2/44 11/2/71
f 16/2/72 24/3/73 19/3/74
f 27/4/75 26/4/75 25/4/75
f 26/4/75 27/4/75 28/4/75
f 26/4/75 28/4/75 29/4/75
f 29/4/75 28/4/75 30/4/75
f 29/4/75 30/4/75 31/4/75
f 31/4/75 30/4/75 32/4/75
f 35/5/1 34/5/1 33/5/1
f 34/5/1 35/5/1 36/5/1
f 34/5/1 36/5/1 37/5/1
f 37/5/1 36/5/1 38/5/1
f 37/5/1 38/5/1 39/5/1
f 39/5/1 38/5/1 40/5/1
f 27/4/76 33/5/77 34/5/76
f 33/5/77 27/4/76 25/4/78
f 29/4/79 38/5/80 36/5/81
f 38/5/80 29/4/79 31/4/82
f 40/5/83 31/4/84 32/4/85
f 31/4/84 40/5/83 38/5/84
f 28/4/86 34/5/87 37/5/86
f 34/5/87 28/4/86 27/4/88
f 26/4/89 36/5/90 35/5/89
f 36/5/90 26/4/89 29/4/91
f 30/4/92 37/5/93 39/5/92
f 37/5/93 30/4/92 28/4/94
f 26/4/95 33/5/96 25/4/97
f 33/5/97 26/4/89 35/5/89
f 40/5/98 30/4/99 39/5/99
f 30/4/92 40/5/85 32/4/98
f 43/6/100 42/7/101 41/7/100
f 42/7/101 43/6/100 44/6/101
f 47/6/102 46/7/103 45/7/102
f 46/7/103 47/6/102 48/6/103
f 50/6/104 45/7/102 49/7/104
f 45/7/102 50/6/104 47/6/102
f 48/6/105 41/7/100 46/7/105
f 41/7/100 48/6/105 43/6/100
f 52/7/106 44/6/101 51/6/106
f 44/6/101 52/7/106 42/7/101
f 52/7/107 50/6/104 49/7/104
f 50/6/104 52/7/107 51/6/107
f 41/7/1 45/7/1 46/7/1
f 45/7/1 41/7/1 42/7/1
f 45/7/1 42/7/1 49/7/1
f 49/7/1 42/7/1 52/7/1
f 55/6/108 54/8/109 53/8/110
f 54/8/109 55/6/108 56/6/111
f 59/8/112 58/6/113 57/6/114
f 58/6/115 59/8/116 60/8/117
f 63/6/118 62/8/119 61/8/120
f 62/8/119 63/6/118 64/6/121
f 64/6/122 53/8/123 62/8/119
f 53/8/123 64/6/124 55/6/125
f 64/6/126 56/6/127 55/6/128
f 56/6/111 64/6/126 58/6/129
f 58/6/129 64/6/126 63/6/130
f 58/6/129 63/6/131 57/6/132
f 59/8/133 63/6/134 61/8/120
f 63/6/118 59/8/116 57/6/135
f 54/8/1 62/8/1 53/8/1
f 62/8/1 54/8/1 60/8/1
f 62/8/1 60/8/1 61/8/1
f 61/8/1 60/8/1 59/8/1
f 56/6/136 60/8/117 54/8/109
f 60/8/117 56/6/136 58/6/137
f 67/6/138 66/9/139 65/9/140
f 66/9/139 67/6/140 68/6/139
f 70/6/141 65/9/138 69/9/141
f 65/9/140 70/6/141 67/6/140
f 68/6/139 71/9/142 66/9/139
f 71/9/142 68/6/139 72/6/142
f 72/6/143 73/9/144 71/9/143
f 73/9/145 72/6/143 74/6/145
f 71/9/1 65/9/1 66/9/1
f 65/9/1 71/9/1 69/9/1
f 69/9/1 71/9/1 73/9/1
f 69/9/1 73/9/1 75/9/1
f 76/6/146 69/9/147 75/9/146
f 69/9/147 76/6/146 70/6/147
f 73/9/145 76/6/146 75/9/146
f 76/6/146 73/9/145 74/6/145
f 79/10/148 78/10/149 77/11/150
f 78/10/149 79/10/148 41/6/148
f 78/10/151 41/6/148 42/6/149
f 77/11/152 78/10/153 79/10/154
f 41/6/154 79/10/154 78/10/155
f 42/6/153 41/6/154 78/10/153
f 81/11/156 49/6/157 80/10/157
f 49/6/157 81/11/156 52/6/158
f 52/6/158 81/11/156 82/10/158
f 80/10/159 49/6/159 81/11/160
f 52/6/161 81/11/160 49/6/159
f 82/10/161 81/11/160 52/6/161
f 82/10/158 42/6/149 52/6/158
f 42/6/151 82/10/158 83/11/162
f 42/6/149 83/11/162 78/10/151
f 52/6/161 42/6/153 82/10/161
f 83/11/163 82/10/161 42/6/153
f 78/10/153 83/11/163 42/6/153
f 46/6/164 85/11/165 84/10/164
f 85/11/165 46/6/164 41/6/148
f 85/11/165 41/6/148 79/10/148
f 84/10/166 85/11/167 46/6/166
f 41/6/154 46/6/166 85/11/167
f 79/10/154 41/6/154 85/11/167
f 80/10/157 87/10/168 86/11/169
f 87/10/168 80/10/157 49/6/157
f 87/10/170 49/6/157 45/6/170
f 86/11/171 87/10/172 80/10/159
f 49/6/159 80/10/159 87/10/172
f 45/6/172 49/6/159 87/10/172
f 45/6/168 88/11/173 87/10/170
f 88/11/173 45/6/170 46/6/164
f 88/11/173 46/6/164 84/10/164
f 87/10/174 88/11/175 45/6/174
f 46/6/166 45/6/174 88/11/175
f 84/10/166 46/6/166 88/11/175
f 91/10/176 90/10/177 89/11/178
f 90/10/177 91/10/176 75/6/176
f 90/10/177 75/6/176 69/6/177
f 89/11/179 90/10/180 91/10/181
f 75/6/181 91/10/181 90/10/180
f 69/6/180 75/6/181 90/10/180
f 65/6/182 93/11/183 92/10/182
f 93/11/183 65/6/182 66/6/184
f 93/11/183 66/6/184 94/10/185
f 92/10/186 93/11/187 65/6/186
f 66/6/188 65/6/186 93/11/187
f 94/10/189 66/6/188 93/11/187
f 97/10/190 96/10/191 95/11/192
f 96/10/191 97/10/190 71/6/190
f 96/10/191 71/6/190 73/6/191
f 95/11/193 96/10/194 97/10/195
f 71/6/195 97/10/195 96/10/194
f 73/6/194 71/6/195 96/10/194
f 98/11/196 75/6/176 91/10/176
f 75/6/176 98/11/197 73/6/191
f 73/6/191 98/11/197 96/10/191
f 91/10/198 75/6/181 98/11/199
f 73/6/194 98/11/200 75/6/198
f 96/10/194 98/11/200 73/6/194
f 94/10/184 97/10/190 99/11/201
f 97/10/190 94/10/184 66/6/184
f 97/10/190 66/6/184 71/6/190
f 99/11/202 97/10/195 94/10/188
f 66/6/188 94/10/188 97/10/195
f 71/6/195 66/6/188 97/10/195
f 90/10/177 92/10/182 100/11/203
f 92/10/182 90/10/177 69/6/177
f 92/10/182 69/6/177 65/6/182
f 100/11/204 92/10/186 90/10/180
f 69/6/180 90/10/180 92/10/186
f 65/6/186 69/6/180 92/10/186
f 102/11/156 61/6/157 101/10/157
f 61/6/157 102/11/156 59/6/158
f 59/6/158 102/11/156 103/10/158
f 101/10/159 61/6/159 102/11/160
f 59/6/161 102/11/160 61/6/159
f 103/10/161 102/11/160 59/6/205
f 103/10/158 60/6/149 59/6/158
f 60/6/151 103/10/158 104/11/206
f 60/6/149 104/11/162 105/10/151
f 59/6/161 60/6/207 103/10/161
f 104/11/163 103/10/161 60/6/153
f 105/10/153 104/11/163 60/6/153
f 62/6/168 107/11/208 106/10/168
f 107/11/173 62/6/170 53/6/164
f 107/11/173 53/6/209 108/10/164
f 106/10/174 107/11/175 62/6/174
f 53/6/166 62/6/174 107/11/175
f 108/10/166 53/6/166 107/11/175
f 110/10/148 105/10/149 109/11/150
f 105/10/149 110/10/148 54/6/148
f 105/10/151 54/6/148 60/6/149
f 109/11/152 105/10/155 110/10/154
f 54/6/154 110/10/154 105/10/155
f 60/6/153 54/6/154 105/10/153
f 101/10/157 106/10/168 111/11/210
f 106/10/168 101/10/157 61/6/157
f 106/10/170 61/6/157 62/6/168
f 111/11/171 106/10/172 101/10/159
f 61/6/159 101/10/159 106/10/174
f 62/6/174 61/6/159 106/10/172
f 53/6/164 112/11/165 108/10/164
f 112/11/165 53/6/164 54/6/148
f 112/11/165 54/6/148 110/10/148
f 108/10/166 112/11/167 53/6/166
f 54/6/154 53/6/166 112/11/167
f 110/10/154 54/6/154 112/11/167
