# Blender 4.1.1
# www.blender.org
mtllib crypt-small-entrance-alternative.mtl
o crypt-small-entrance-alternative
v 9.541103 -0.086837 -4.986907
v 10.031107 -0.086837 -4.986907
v 9.541103 -0.086837 -5.231909
v 10.031107 -0.086837 -5.231909
v 9.786105 2.118182 -5.476911
v 9.786105 2.118182 -4.986907
v 9.786105 2.240684 -5.476911
v 9.786105 2.240684 -5.048158
v 9.786105 2.056932 -4.864406
v 9.786105 1.628178 -4.864406
v 9.786105 1.628178 -4.986907
v 9.602353 1.873180 -5.966916
v 9.663604 1.873180 -5.966916
v 9.602353 1.873180 -6.211917
v 10.031107 1.873180 -6.211917
v 9.663604 1.873180 -5.476911
v 10.031107 1.873180 -5.231909
v 9.602353 1.873180 -5.476911
v 9.602353 1.873180 -5.231909
v 9.602353 1.628178 -6.211917
v 9.663604 1.628178 -6.211917
v 10.031107 -0.086837 -6.211917
v 9.663604 0.893172 -6.211917
v 9.541103 -0.086837 -6.211917
v 9.541103 0.770671 -6.211917
v 9.602353 1.628178 -5.231909
v 9.663604 1.628178 -5.231909
v 9.663604 0.893172 -5.231909
v 9.541103 0.770671 -5.231909
v 9.541103 -0.086837 -6.456920
v 10.031107 -0.086837 -6.456920
v 9.663604 2.118182 -5.476911
v 9.663604 2.118182 -5.966916
v 9.663604 0.893172 -6.456920
v 9.786105 1.628178 -6.456920
v 9.663604 1.628178 -6.456920
v 9.541103 0.770671 -6.456920
v 10.031107 2.118182 -6.456920
v 9.786105 2.118182 -6.456920
v 9.602353 2.056932 -4.864406
v 9.602353 1.628178 -4.864406
v 9.602353 2.240684 -5.048158
v 9.602353 2.240684 -5.476911
v 9.786105 1.628178 -6.579421
v 9.786105 2.056932 -6.579421
v 9.602353 1.628178 -6.579421
v 9.602353 2.056932 -6.579421
v 9.786105 2.240684 -5.966916
v 9.602353 2.240684 -5.966916
v 9.786105 2.240684 -6.395669
v 9.602353 2.240684 -6.395669
v 9.541103 0.770671 -4.986907
v 9.663604 0.893172 -4.986907
v 9.663604 1.628178 -4.986907
v 9.786105 2.118182 -5.966916
v 10.031107 2.118182 -4.986907
vn -0.0000 -1.0000 -0.0000
vn 1.0000 -0.0000 -0.0000
vn -0.0000 -0.0000 1.0000
vn -0.0000 -0.0000 -1.0000
vn -1.0000 -0.0000 -0.0000
vn -0.0000 0.3827 0.9239
vn -0.0000 1.0000 -0.0000
vn -0.0000 0.9239 0.3827
vn -0.0000 0.3827 -0.9239
vn -0.0000 0.9239 -0.3827
vn -0.9239 0.3827 -0.0000
vt 0.843750 0.025000
vt 0.843750 0.225000
vt 0.843750 0.214474
vt 0.843750 0.209211
vt 0.843750 0.172368
vt 0.843750 0.193421
vt 0.843750 0.109210
vt 0.843750 0.098684
s 0
usemtl colormap.082
f 3/1/1 2/1/1 1/1/1
f 2/1/1 3/1/1 4/1/1
f 7/2/2 6/3/2 5/3/2
f 8/2/2 6/3/2 7/2/2
f 9/4/2 6/3/2 8/2/2
f 10/5/2 6/3/2 9/4/2
f 6/3/2 10/5/2 11/5/2
f 14/6/1 13/6/1 12/6/1
f 15/6/1 13/6/1 14/6/1
f 15/6/1 16/6/1 13/6/1
f 17/6/1 16/6/1 15/6/1
f 17/6/1 18/6/1 16/6/1
f 18/6/1 17/6/1 19/6/1
f 21/5/3 14/6/3 20/5/3
f 21/5/3 15/6/3 14/6/3
f 15/6/3 21/5/3 22/1/3
f 23/7/3 22/1/3 21/5/3
f 22/1/3 23/7/3 24/1/3
f 24/1/3 23/7/3 25/8/3
f 19/6/4 27/5/4 26/5/4
f 17/6/4 27/5/4 19/6/4
f 27/5/4 17/6/4 28/7/4
f 17/6/4 3/1/4 28/7/4
f 28/7/4 3/1/4 29/8/4
f 3/1/4 17/6/4 4/1/4
f 30/1/1 22/1/1 24/1/1
f 22/1/1 30/1/1 31/1/1
f 32/3/5 13/6/5 16/6/5
f 13/6/5 32/3/5 33/3/5
f 36/5/4 35/5/4 34/7/4
f 35/5/4 30/1/4 34/7/4
f 34/7/4 30/1/4 37/8/4
f 38/3/4 30/1/4 35/5/4
f 39/3/4 38/3/4 35/5/4
f 30/1/4 38/3/4 31/1/4
f 40/4/6 10/5/3 9/4/6
f 10/5/3 40/4/6 41/5/3
f 7/2/7 42/2/8 8/2/8
f 42/2/8 7/2/7 43/2/7
f 46/5/4 45/4/9 44/5/4
f 45/4/9 46/5/4 47/4/9
f 50/2/10 49/2/7 48/2/7
f 49/2/7 50/2/10 51/2/10
f 45/4/9 51/2/10 50/2/10
f 51/2/10 45/4/9 47/4/9
f 8/2/8 40/4/6 9/4/6
f 40/4/6 8/2/8 42/2/8
f 52/8/11 3/1/5 1/1/5
f 3/1/5 52/8/11 29/8/11
f 25/8/11 30/1/5 24/1/5
f 30/1/5 25/8/11 37/8/11
f 21/5/5 34/7/11 23/7/11
f 34/7/11 21/5/5 36/5/5
f 23/7/11 37/8/11 25/8/11
f 37/8/11 23/7/11 34/7/11
f 54/5/5 28/7/11 53/7/11
f 28/7/11 54/5/5 27/5/5
f 53/7/11 29/8/11 52/8/11
f 29/8/11 53/7/11 28/7/11
f 40/4/5 26/5/5 41/5/5
f 26/5/5 40/4/5 19/6/5
f 19/6/5 40/4/5 18/6/5
f 18/6/5 40/4/5 43/2/5
f 43/2/5 40/4/5 42/2/5
f 49/2/5 14/6/5 12/6/5
f 14/6/5 49/2/5 47/4/5
f 47/4/5 49/2/5 51/2/5
f 46/5/5 14/6/5 47/4/5
f 14/6/5 46/5/5 20/5/5
f 45/4/2 35/5/2 44/5/2
f 35/5/2 45/4/2 39/3/2
f 39/3/2 45/4/2 50/2/2
f 39/3/2 50/2/2 55/3/2
f 55/3/2 50/2/2 48/2/2
f 38/3/2 22/1/2 31/1/2
f 22/1/2 38/3/2 15/6/2
f 15/6/2 38/3/2 17/6/2
f 56/3/2 17/6/2 38/3/2
f 2/1/2 17/6/2 56/3/2
f 17/6/2 2/1/2 4/1/2
f 38/3/7 6/3/7 56/3/7
f 6/3/7 38/3/7 5/3/7
f 5/3/7 38/3/7 32/3/7
f 32/3/7 38/3/7 55/3/7
f 55/3/7 38/3/7 39/3/7
f 33/3/7 32/3/7 55/3/7
f 6/3/3 2/1/3 56/3/3
f 2/1/3 6/3/3 11/5/3
f 2/1/3 11/5/3 1/1/3
f 1/1/3 11/5/3 53/7/3
f 53/7/3 11/5/3 54/5/3
f 1/1/3 53/7/3 52/8/3
f 46/5/1 21/5/1 20/5/1
f 21/5/1 46/5/1 36/5/1
f 36/5/1 46/5/1 35/5/1
f 35/5/1 46/5/1 44/5/1
f 49/2/3 55/3/3 48/2/3
f 55/3/3 49/2/3 33/3/3
f 33/3/3 49/2/3 13/6/3
f 13/6/3 49/2/3 12/6/3
f 18/6/4 32/3/4 16/6/4
f 43/2/4 32/3/4 18/6/4
f 7/2/4 32/3/4 43/2/4
f 32/3/4 7/2/4 5/3/4
f 54/5/1 26/5/1 27/5/1
f 54/5/1 41/5/1 26/5/1
f 41/5/1 54/5/1 10/5/1
f 11/5/1 10/5/1 54/5/1
f 3/1/1 2/1/1 1/1/1
f 2/1/1 3/1/1 4/1/1
f 7/2/2 6/3/2 5/3/2
f 8/2/2 6/3/2 7/2/2
f 9/4/2 6/3/2 8/2/2
f 10/5/2 6/3/2 9/4/2
f 6/3/2 10/5/2 11/5/2
f 14/6/1 13/6/1 12/6/1
f 15/6/1 13/6/1 14/6/1
f 15/6/1 16/6/1 13/6/1
f 17/6/1 16/6/1 15/6/1
f 17/6/1 18/6/1 16/6/1
f 18/6/1 17/6/1 19/6/1
f 21/5/3 14/6/3 20/5/3
f 21/5/3 15/6/3 14/6/3
f 15/6/3 21/5/3 22/1/3
f 23/7/3 22/1/3 21/5/3
f 22/1/3 23/7/3 24/1/3
f 24/1/3 23/7/3 25/8/3
f 19/6/4 27/5/4 26/5/4
f 17/6/4 27/5/4 19/6/4
f 27/5/4 17/6/4 28/7/4
f 17/6/4 3/1/4 28/7/4
f 28/7/4 3/1/4 29/8/4
f 3/1/4 17/6/4 4/1/4
f 30/1/1 22/1/1 24/1/1
f 22/1/1 30/1/1 31/1/1
f 32/3/5 13/6/5 16/6/5
f 13/6/5 32/3/5 33/3/5
f 36/5/4 35/5/4 34/7/4
f 35/5/4 30/1/4 34/7/4
f 34/7/4 30/1/4 37/8/4
f 38/3/4 30/1/4 35/5/4
f 39/3/4 38/3/4 35/5/4
f 30/1/4 38/3/4 31/1/4
f 40/4/6 10/5/3 9/4/6
f 10/5/3 40/4/6 41/5/3
f 7/2/7 42/2/8 8/2/8
f 42/2/8 7/2/7 43/2/7
f 46/5/4 45/4/9 44/5/4
f 45/4/9 46/5/4 47/4/9
f 50/2/10 49/2/7 48/2/7
f 49/2/7 50/2/10 51/2/10
f 45/4/9 51/2/10 50/2/10
f 51/2/10 45/4/9 47/4/9
f 8/2/8 40/4/6 9/4/6
f 40/4/6 8/2/8 42/2/8
f 52/8/11 3/1/5 1/1/5
f 3/1/5 52/8/11 29/8/11
f 25/8/11 30/1/5 24/1/5
f 30/1/5 25/8/11 37/8/11
f 21/5/5 34/7/11 23/7/11
f 34/7/11 21/5/5 36/5/5
f 23/7/11 37/8/11 25/8/11
f 37/8/11 23/7/11 34/7/11
f 54/5/5 28/7/11 53/7/11
f 28/7/11 54/5/5 27/5/5
f 53/7/11 29/8/11 52/8/11
f 29/8/11 53/7/11 28/7/11
f 40/4/5 26/5/5 41/5/5
f 26/5/5 40/4/5 19/6/5
f 19/6/5 40/4/5 18/6/5
f 18/6/5 40/4/5 43/2/5
f 43/2/5 40/4/5 42/2/5
f 49/2/5 14/6/5 12/6/5
f 14/6/5 49/2/5 47/4/5
f 47/4/5 49/2/5 51/2/5
f 46/5/5 14/6/5 47/4/5
f 14/6/5 46/5/5 20/5/5
f 45/4/2 35/5/2 44/5/2
f 35/5/2 45/4/2 39/3/2
f 39/3/2 45/4/2 50/2/2
f 39/3/2 50/2/2 55/3/2
f 55/3/2 50/2/2 48/2/2
f 38/3/2 22/1/2 31/1/2
f 22/1/2 38/3/2 15/6/2
f 15/6/2 38/3/2 17/6/2
f 56/3/2 17/6/2 38/3/2
f 2/1/2 17/6/2 56/3/2
f 17/6/2 2/1/2 4/1/2
f 38/3/7 6/3/7 56/3/7
f 6/3/7 38/3/7 5/3/7
f 5/3/7 38/3/7 32/3/7
f 32/3/7 38/3/7 55/3/7
f 55/3/7 38/3/7 39/3/7
f 33/3/7 32/3/7 55/3/7
f 6/3/3 2/1/3 56/3/3
f 2/1/3 6/3/3 11/5/3
f 2/1/3 11/5/3 1/1/3
f 1/1/3 11/5/3 53/7/3
f 53/7/3 11/5/3 54/5/3
f 1/1/3 53/7/3 52/8/3
f 46/5/1 21/5/1 20/5/1
f 21/5/1 46/5/1 36/5/1
f 36/5/1 46/5/1 35/5/1
f 35/5/1 46/5/1 44/5/1
f 49/2/3 55/3/3 48/2/3
f 55/3/3 49/2/3 33/3/3
f 33/3/3 49/2/3 13/6/3
f 13/6/3 49/2/3 12/6/3
f 18/6/4 32/3/4 16/6/4
f 43/2/4 32/3/4 18/6/4
f 7/2/4 32/3/4 43/2/4
f 32/3/4 7/2/4 5/3/4
f 54/5/1 26/5/1 27/5/1
f 54/5/1 41/5/1 26/5/1
f 41/5/1 54/5/1 10/5/1
f 11/5/1 10/5/1 54/5/1
