# Blender 4.1.1
# www.blender.org
mtllib tree.033.mtl
o tree.033
v -14.299758 -0.382804 -18.116125
v -14.081925 -0.382804 -18.230814
v -14.466019 -0.382804 -18.167698
v -14.030354 -0.382804 -18.397074
v -14.580706 -0.382804 -18.385530
v -14.145041 -0.382804 -18.614906
v -14.529134 -0.382804 -18.551790
v -14.311301 -0.382804 -18.666479
v -14.193727 0.062918 -18.311058
v -14.302644 0.062918 -18.253714
v -14.385774 0.062918 -18.279501
v -14.167941 0.062918 -18.394188
v -14.225286 0.062918 -18.503103
v -14.308415 0.062918 -18.528891
v -14.417332 0.062918 -18.471546
v -14.443118 0.062918 -18.388416
v -14.309136 0.731552 -18.563288
v -14.445282 0.731552 -18.491608
v -14.477514 0.731552 -18.387695
v -14.165777 0.731552 -18.290997
v -14.301923 0.731552 -18.219316
v -14.205224 0.731552 -18.531055
v -14.133544 0.731552 -18.394909
v -14.405835 0.731552 -18.251551
v -14.157508 0.222058 -18.239304
v -14.253690 0.222058 -18.230438
v -14.095766 0.222058 -18.313583
v -14.104632 0.222058 -18.409765
v -14.327970 0.222058 -18.292179
v -14.178912 0.222058 -18.471508
v -14.336835 0.222058 -18.388361
v -14.275093 0.222058 -18.462641
v -14.124207 0.060318 -18.176054
v -14.027493 0.060318 -18.292406
v -14.274867 0.060318 -18.162167
v -14.391220 0.060318 -18.258879
v -14.041381 0.060318 -18.443068
v -14.405107 0.060318 -18.409538
v -14.157734 0.060318 -18.539780
v -14.308394 0.060318 -18.525892
v -14.638084 0.731552 -17.883276
v -14.923697 0.731552 -18.425755
v -14.504018 1.468507 -18.095894
v -14.672530 1.468507 -18.415958
v -13.698483 0.731552 -18.377970
v -14.025477 0.731552 -17.859383
v -13.949649 1.468507 -18.387766
v -14.142577 1.468507 -18.081799
v -13.984095 0.731552 -18.920450
v -14.118161 1.468507 -18.707830
v -14.479602 1.468507 -18.721928
v -14.596702 0.731552 -18.944342
v -14.146405 2.260255 -18.089067
v -14.499635 2.260255 -18.102844
v -14.273237 3.090716 -18.329967
v -14.354426 3.090716 -18.333134
v -14.348942 3.090716 -18.473757
v -14.392279 3.090716 -18.405029
v -14.475774 2.260255 -18.714657
v -14.664320 2.260255 -18.415638
v -14.122543 2.260255 -18.700880
v -13.957859 2.260255 -18.388086
v -14.267753 3.090716 -18.470591
v -14.229900 3.090716 -18.398697
v -13.889474 1.468507 -18.136013
v -14.330514 1.468507 -17.903809
v -14.117901 2.260255 -18.280048
v -14.319990 2.260255 -18.173649
v -13.870049 1.468507 -18.634068
v -14.109000 2.260255 -18.508261
v -14.752130 1.468507 -18.169657
v -14.513179 2.260255 -18.295464
v -14.732705 1.468507 -18.667711
v -14.504278 2.260255 -18.523678
v -14.291665 1.468507 -18.899918
v -14.302189 2.260255 -18.630077
v -14.884247 0.501649 -18.100100
v -14.991083 0.616601 -18.428383
v -14.674053 0.616601 -17.826231
v -13.948126 0.616601 -18.977495
v -14.285847 0.501649 -19.049112
v -14.628119 0.616601 -19.004015
v -14.859003 0.501649 -18.747349
v -13.994060 0.616601 -17.799711
v -14.336332 0.501649 -17.754612
v -13.737932 0.501649 -18.703627
v -13.631096 0.616601 -18.375343
v -13.763176 0.501649 -18.056376
v -14.030207 1.281595 -18.847321
v -13.821535 1.375051 -18.659611
v -14.289529 1.375051 -18.954702
v -13.843096 1.375051 -18.106770
v -14.065753 1.281595 -17.935881
v -14.332650 1.375051 -17.849022
v -14.837310 1.281595 -18.422386
v -14.779083 1.375051 -18.696955
v -14.800644 1.375051 -18.144115
v -14.556426 1.281595 -18.867844
v -14.591972 1.281595 -17.956404
v -13.784870 1.281595 -18.381340
v -14.101804 2.193974 -18.733772
v -14.296535 2.127692 -18.775068
v -14.493889 2.193974 -18.749065
v -14.627017 2.127692 -18.601070
v -14.703175 2.193974 -18.417154
v -13.919003 2.193974 -18.386572
v -13.995161 2.127692 -18.202654
v -14.128289 2.193974 -18.054661
v -14.641573 2.127692 -18.227865
v -14.520375 2.193974 -18.069952
v -13.980606 2.127692 -18.575861
v -14.325644 2.127692 -18.028658
vn -0.0000 -1.0000 -0.0000
vn 0.7315 0.2942 0.6151
vn 0.0834 0.2944 0.9520
vn 0.7377 0.2944 0.6075
vn 0.0932 0.2942 0.9512
vn -0.6151 0.2942 0.7315
vn 0.0833 0.2944 0.9520
vn 0.0931 0.2942 0.9512
vn -0.6151 0.2943 0.7315
vn -0.6075 0.2944 0.7378
vn 0.9512 0.2942 -0.0931
vn 0.7378 0.2944 0.6075
vn 0.9520 0.2944 -0.0833
vn 0.6151 0.2942 -0.7315
vn 0.9520 0.2944 -0.0834
vn 0.6075 0.2944 -0.7377
vn 0.9512 0.2942 -0.0932
vn -0.7377 0.2944 -0.6075
vn -0.0932 0.2942 -0.9512
vn -0.0834 0.2944 -0.9520
vn -0.7315 0.2942 -0.6151
vn -0.9520 0.2944 0.0834
vn -0.6075 0.2944 0.7377
vn -0.6152 0.2942 0.7315
vn -0.9512 0.2942 0.0932
vn -0.0833 0.2944 -0.9520
vn 0.6151 0.2943 -0.7315
vn 0.6075 0.2944 -0.7378
vn -0.0931 0.2942 -0.9512
vn -0.7378 0.2944 -0.6075
vn -0.9512 0.2942 0.0931
vn -0.9520 0.2944 0.0833
vn -0.0926 -0.0513 -0.9944
vn -0.7685 -0.0512 -0.6377
vn -0.0908 -0.0513 -0.9945
vn -0.7686 -0.0513 -0.6377
vn -0.7674 -0.0513 -0.6391
vn -0.9944 -0.0512 0.0925
vn -0.7674 -0.0512 -0.6391
vn -0.9944 -0.0513 0.0926
vn -0.9946 -0.0512 0.0908
vn 0.0908 -0.0512 0.9945
vn 0.7674 -0.0513 0.6391
vn 0.7685 -0.0513 0.6377
vn 0.0909 -0.0512 0.9945
vn 0.0926 -0.0513 0.9944
vn 0.6377 -0.0513 -0.7685
vn 0.9944 -0.0513 -0.0926
vn 0.6391 -0.0513 -0.7674
vn 0.6377 -0.0512 -0.7685
vn 0.9945 -0.0513 -0.0908
vn 0.0908 -0.0513 0.9945
vn -0.6391 -0.0513 0.7674
vn 0.0925 -0.0512 0.9944
vn 0.0908 -0.0512 0.9946
vn -0.6377 -0.0513 0.7686
vn 0.6390 -0.0513 -0.7675
vn -0.0908 -0.0513 -0.9946
vn 0.6377 -0.0513 -0.7686
vn -0.0925 -0.0513 -0.9944
vn 0.7686 -0.0513 0.6377
vn 0.9946 -0.0512 -0.0908
vn 0.9944 -0.0512 -0.0925
vn 0.7674 -0.0512 0.6391
vn -0.6377 -0.0512 0.7685
vn -0.9945 -0.0513 0.0908
vn -0.0000 1.0000 -0.0000
vn 0.8736 0.4042 0.2710
vn 0.4261 0.4042 0.8093
vn -0.8093 0.4042 0.4261
vn -0.8736 0.4042 -0.2709
vn -0.8736 0.4042 -0.2710
vn -0.8094 0.4042 0.4261
vn -0.8736 0.4043 -0.2710
vn -0.4261 0.4042 -0.8093
vn -0.4261 0.4043 -0.8093
vn 0.8094 0.4042 -0.4261
vn 0.8736 0.4043 0.2710
vn -0.2710 0.4042 0.8736
vn 0.2710 0.4042 -0.8736
vn 0.8093 0.4042 -0.4262
vn 0.8093 0.4042 -0.4261
vn 0.8093 0.4043 -0.4261
vn 0.4261 0.4043 0.8093
vn 0.4261 0.4042 0.8094
vn -0.2710 0.4043 0.8736
vn -0.4261 0.4042 -0.8094
vn 0.2709 0.4042 -0.8736
vn -0.5048 0.3228 0.8006
vn -0.9458 0.3228 -0.0369
vn 0.9457 0.3228 0.0369
vn 0.4409 0.3228 0.8375
vn 0.9458 0.3228 0.0369
vn 0.5048 0.3228 -0.8006
vn -0.4409 0.3228 -0.8375
vn -0.9457 0.3228 -0.0369
vn 0.3204 0.7260 0.6085
vn -0.5068 0.3115 0.8038
vn 0.4427 0.3115 0.8408
vn -0.3669 0.7260 0.5817
vn -0.4427 0.3115 -0.8408
vn -0.6872 0.7260 -0.0268
vn -0.3203 0.7260 -0.6086
vn -0.9495 0.3115 -0.0370
vn 0.3668 0.7260 -0.5818
vn 0.9495 0.3115 0.0370
vn 0.5068 0.3115 -0.8038
vn 0.6872 0.7260 0.0268
vn 0.3203 0.7260 0.6086
vn -0.3668 0.7259 0.5818
vn 0.3204 0.7259 0.6086
vn -0.3668 0.7259 0.5817
vn 0.6872 0.7259 0.0268
vn -0.6872 0.7259 -0.0268
vn 0.3668 0.7259 -0.5818
vn -0.3204 0.7259 -0.6086
vn -0.4427 0.3116 -0.8408
vn 0.3668 0.7260 -0.5817
vn -0.3204 0.7260 -0.6085
vn -0.3668 0.7260 0.5818
vn -0.6872 0.7260 -0.0269
vn 0.8006 0.3228 0.5048
vn -0.0369 0.3228 0.9457
vn -0.0369 0.3228 0.9458
vn 0.8375 0.3228 -0.4409
vn -0.8375 0.3228 0.4409
vn -0.8006 0.3228 -0.5048
vn 0.0369 0.3228 -0.9457
vn -0.4600 0.5060 0.7296
vn -0.8619 0.5060 -0.0336
vn -0.7889 0.4530 0.4153
vn -0.4601 0.5060 0.7296
vn 0.7889 -0.4530 -0.4153
vn 0.8619 -0.5060 0.0336
vn 0.4600 -0.5060 -0.7296
vn 0.0347 0.4530 -0.8909
vn 0.4600 0.5060 -0.7296
vn 0.0347 0.4529 -0.8909
vn -0.4018 0.5060 -0.7632
vn -0.4600 -0.5060 0.7296
vn -0.0347 -0.4530 0.8909
vn 0.4018 -0.5060 0.7632
vn -0.0347 -0.4529 0.8909
vn -0.4601 -0.5060 0.7296
vn -0.7541 0.4530 -0.4755
vn 0.7541 -0.4530 0.4755
vn 0.4018 0.5060 0.7632
vn -0.0347 0.4530 0.8908
vn -0.0347 0.4530 0.8909
vn -0.4600 0.5061 0.7296
vn -0.4018 -0.5060 -0.7632
vn 0.0347 -0.4530 -0.8908
vn 0.4601 -0.5060 -0.7296
vn 0.0347 -0.4530 -0.8909
vn 0.8618 0.5060 0.0336
vn 0.7889 0.4530 -0.4153
vn 0.8619 0.5060 0.0336
vn -0.7889 -0.4530 0.4153
vn -0.8619 -0.5060 -0.0336
vn 0.7541 0.4530 0.4755
vn 0.7541 0.4529 0.4755
vn -0.7541 -0.4530 -0.4755
vn -0.7541 -0.4529 -0.4755
vn 0.0336 0.5060 -0.8619
vn 0.7632 0.5061 -0.4018
vn 0.4755 0.4530 -0.7541
vn 0.7632 0.5060 -0.4018
vn -0.4755 -0.4530 0.7541
vn -0.7632 -0.5060 0.4018
vn -0.0336 -0.5060 0.8619
vn 0.7296 0.5060 0.4600
vn 0.4153 0.4530 0.7889
vn 0.7296 0.5060 0.4601
vn -0.0336 0.5060 0.8619
vn -0.0336 0.5060 0.8618
vn -0.7296 -0.5060 -0.4600
vn -0.4153 -0.4530 -0.7889
vn 0.0336 -0.5060 -0.8619
vn -0.7632 0.5060 0.4018
vn -0.7296 0.5060 -0.4600
vn -0.8909 0.4530 -0.0347
vn -0.7296 0.5060 -0.4601
vn 0.8909 -0.4530 0.0347
vn 0.7296 -0.5060 0.4600
vn 0.7632 -0.5060 -0.4018
vn 0.7296 -0.5060 0.4601
vn -0.4153 0.4530 -0.7889
vn 0.0336 0.5061 -0.8618
vn -0.4153 0.4529 -0.7889
vn 0.4153 -0.4530 0.7889
vn 0.4153 -0.4529 0.7889
vn -0.4755 0.4530 0.7541
vn 0.4755 -0.4530 -0.7541
vn 0.8909 0.4530 0.0347
vn -0.8909 -0.4530 -0.0347
vn -0.7296 -0.5060 -0.4601
vn 0.0348 0.4530 -0.8908
vn -0.0348 -0.4530 0.8908
vn 0.4018 -0.5061 0.7632
vn 0.4601 0.5060 -0.7296
vn 0.7889 0.4529 -0.4153
vn -0.7889 -0.4529 0.4153
vn -0.0347 0.4529 0.8909
vn 0.0347 -0.4529 -0.8909
vt 0.593750 0.025000
vt 0.593750 0.104996
vt 0.593750 0.225000
vt 0.093750 0.475000
vt 0.093750 0.275000
vt 0.093750 0.425000
vt 0.093750 0.348778
vt 0.093750 0.338765
vt 0.093750 0.344099
vt 0.093750 0.375000
vt 0.093750 0.325000
s 0
usemtl colormap.036
f 3/1/1 2/1/1 1/1/1
f 2/1/1 3/1/1 4/1/1
f 4/1/1 3/1/1 5/1/1
f 4/1/1 5/1/1 6/1/1
f 6/1/1 5/1/1 7/1/1
f 6/1/1 7/1/1 8/1/1
f 9/2/2 1/1/3 2/1/4
f 1/1/3 9/2/2 10/2/5
f 11/2/6 1/1/7 10/2/8
f 1/1/7 11/2/9 3/1/10
f 12/2/11 2/1/12 4/1/13
f 2/1/12 12/2/11 9/2/2
f 13/2/14 4/1/15 6/1/16
f 4/1/15 13/2/14 12/2/17
f 7/1/18 14/2/19 8/1/20
f 14/2/19 7/1/18 15/2/21
f 11/2/6 5/1/22 3/1/23
f 5/1/22 11/2/24 16/2/25
f 8/1/26 13/2/27 6/1/28
f 13/2/14 8/1/26 14/2/29
f 7/1/30 16/2/31 15/2/21
f 16/2/31 7/1/30 5/1/32
f 14/2/33 18/3/34 17/3/35
f 18/3/36 14/2/33 15/2/37
f 16/2/38 18/3/36 15/2/39
f 18/3/36 16/2/40 19/3/41
f 21/3/42 9/2/43 20/3/44
f 9/2/43 21/3/45 10/2/46
f 22/3/47 12/2/48 13/2/49
f 12/2/48 22/3/50 23/3/51
f 21/3/52 11/2/53 10/2/54
f 11/2/53 21/3/55 24/3/56
f 13/2/57 17/3/58 22/3/59
f 17/3/58 13/2/49 14/2/60
f 20/3/61 12/2/48 23/3/62
f 12/2/63 20/3/61 9/2/64
f 24/3/56 16/2/40 11/2/53
f 16/2/40 24/3/65 19/3/66
f 27/4/67 26/4/67 25/4/67
f 26/4/67 27/4/67 28/4/67
f 26/4/67 28/4/67 29/4/67
f 29/4/67 28/4/67 30/4/67
f 29/4/67 30/4/67 31/4/67
f 31/4/67 30/4/67 32/4/67
f 35/5/1 34/5/1 33/5/1
f 34/5/1 35/5/1 36/5/1
f 34/5/1 36/5/1 37/5/1
f 37/5/1 36/5/1 38/5/1
f 37/5/1 38/5/1 39/5/1
f 39/5/1 38/5/1 40/5/1
f 27/4/68 33/5/69 34/5/68
f 33/5/69 27/4/68 25/4/69
f 29/4/70 38/5/71 36/5/70
f 38/5/72 29/4/73 31/4/74
f 40/5/75 31/4/72 32/4/76
f 31/4/72 40/5/75 38/5/72
f 28/4/77 34/5/68 37/5/77
f 34/5/68 28/4/77 27/4/78
f 26/4/79 36/5/70 35/5/79
f 36/5/70 26/4/79 29/4/70
f 30/4/80 37/5/81 39/5/80
f 37/5/82 30/4/80 28/4/83
f 26/4/79 33/5/84 25/4/85
f 33/5/85 26/4/86 35/5/79
f 40/5/87 30/4/80 39/5/80
f 30/4/88 40/5/75 32/4/87
f 43/6/89 42/7/90 41/7/89
f 42/7/90 43/6/89 44/6/90
f 47/6/91 46/7/92 45/7/91
f 46/7/92 47/6/93 48/6/92
f 50/6/94 45/7/93 49/7/94
f 45/7/93 50/6/94 47/6/93
f 48/6/92 41/7/89 46/7/92
f 41/7/89 48/6/92 43/6/89
f 52/7/95 44/6/90 51/6/95
f 44/6/96 52/7/95 42/7/96
f 52/7/95 50/6/94 49/7/94
f 50/6/94 52/7/95 51/6/95
f 41/7/1 45/7/1 46/7/1
f 45/7/1 41/7/1 42/7/1
f 45/7/1 42/7/1 49/7/1
f 49/7/1 42/7/1 52/7/1
f 55/6/97 54/8/98 53/8/99
f 54/8/98 55/6/97 56/6/100
f 59/8/101 58/6/102 57/6/103
f 58/6/102 59/8/101 60/8/104
f 63/6/105 62/8/106 61/8/107
f 62/8/106 63/6/105 64/6/108
f 64/6/108 53/8/99 62/8/106
f 53/8/99 64/6/108 55/6/109
f 64/6/108 56/6/110 55/6/111
f 56/6/112 64/6/113 58/6/114
f 58/6/102 64/6/113 63/6/115
f 58/6/114 63/6/115 57/6/116
f 59/8/117 63/6/118 61/8/107
f 63/6/118 59/8/101 57/6/119
f 54/8/1 62/8/1 53/8/1
f 62/8/1 54/8/1 60/8/1
f 62/8/1 60/8/1 61/8/1
f 61/8/1 60/8/1 59/8/1
f 56/6/120 60/8/104 54/8/98
f 60/8/104 56/6/120 58/6/121
f 67/6/122 66/9/123 65/9/122
f 66/9/123 67/6/122 68/6/124
f 70/6/125 65/9/122 69/9/125
f 65/9/122 70/6/125 67/6/122
f 68/6/123 71/9/126 66/9/123
f 71/9/126 68/6/124 72/6/126
f 72/6/126 73/9/127 71/9/126
f 73/9/127 72/6/126 74/6/127
f 71/9/1 65/9/1 66/9/1
f 65/9/1 71/9/1 69/9/1
f 69/9/1 71/9/1 73/9/1
f 69/9/1 73/9/1 75/9/1
f 76/6/128 69/9/125 75/9/128
f 69/9/125 76/6/128 70/6/125
f 73/9/127 76/6/128 75/9/128
f 76/6/128 73/9/127 74/6/127
f 79/10/129 78/10/130 77/11/131
f 78/10/130 79/10/129 41/6/129
f 78/10/130 41/6/132 42/6/130
f 77/11/133 78/10/134 79/10/135
f 41/6/135 79/10/135 78/10/134
f 42/6/134 41/6/135 78/10/134
f 81/11/136 49/6/137 80/10/137
f 49/6/137 81/11/138 52/6/139
f 52/6/139 81/11/136 82/10/139
f 80/10/140 49/6/140 81/11/141
f 52/6/142 81/11/143 49/6/144
f 82/10/142 81/11/141 52/6/142
f 82/10/139 42/6/130 52/6/139
f 42/6/130 82/10/139 83/11/145
f 42/6/130 83/11/145 78/10/130
f 52/6/142 42/6/134 82/10/142
f 83/11/146 82/10/142 42/6/134
f 78/10/134 83/11/146 42/6/134
f 46/6/147 85/11/148 84/10/147
f 85/11/149 46/6/147 41/6/129
f 85/11/148 41/6/150 79/10/129
f 84/10/151 85/11/152 46/6/151
f 41/6/153 46/6/151 85/11/154
f 79/10/135 41/6/135 85/11/152
f 80/10/137 87/10/155 86/11/156
f 87/10/157 80/10/137 49/6/137
f 87/10/157 49/6/137 45/6/157
f 86/11/158 87/10/159 80/10/140
f 49/6/140 80/10/140 87/10/159
f 45/6/159 49/6/140 87/10/159
f 45/6/157 88/11/160 87/10/157
f 88/11/160 45/6/157 46/6/147
f 88/11/161 46/6/147 84/10/147
f 87/10/159 88/11/162 45/6/159
f 46/6/151 45/6/159 88/11/162
f 84/10/151 46/6/151 88/11/163
f 91/10/164 90/10/165 89/11/166
f 90/10/167 91/10/164 75/6/164
f 90/10/167 75/6/164 69/6/167
f 89/11/168 90/10/169 91/10/170
f 75/6/170 91/10/170 90/10/169
f 69/6/169 75/6/170 90/10/169
f 65/6/171 93/11/172 92/10/173
f 93/11/172 65/6/173 66/6/174
f 93/11/172 66/6/175 94/10/174
f 92/10/176 93/11/177 65/6/176
f 66/6/178 65/6/176 93/11/177
f 94/10/178 66/6/178 93/11/177
f 97/10/179 96/10/180 95/11/181
f 96/10/180 97/10/179 71/6/179
f 96/10/182 71/6/179 73/6/182
f 95/11/183 96/10/184 97/10/185
f 71/6/185 97/10/185 96/10/184
f 73/6/186 71/6/185 96/10/186
f 98/11/187 75/6/188 91/10/164
f 75/6/164 98/11/189 73/6/182
f 73/6/180 98/11/187 96/10/180
f 91/10/170 75/6/170 98/11/190
f 73/6/184 98/11/191 75/6/170
f 96/10/184 98/11/190 73/6/184
f 94/10/174 97/10/179 99/11/192
f 97/10/179 94/10/174 66/6/174
f 97/10/179 66/6/174 71/6/179
f 99/11/193 97/10/185 94/10/178
f 66/6/178 94/10/178 97/10/185
f 71/6/185 66/6/178 97/10/185
f 90/10/167 92/10/171 100/11/194
f 92/10/171 90/10/167 69/6/167
f 92/10/173 69/6/167 65/6/171
f 100/11/195 92/10/196 90/10/169
f 69/6/169 90/10/169 92/10/196
f 65/6/176 69/6/169 92/10/196
f 102/11/136 61/6/137 101/10/137
f 61/6/137 102/11/136 59/6/139
f 59/6/139 102/11/197 103/10/139
f 101/10/140 61/6/140 102/11/141
f 59/6/142 102/11/141 61/6/144
f 103/10/142 102/11/198 59/6/199
f 103/10/139 60/6/130 59/6/139
f 60/6/130 103/10/139 104/11/145
f 60/6/130 104/11/145 105/10/130
f 59/6/142 60/6/134 103/10/142
f 104/11/146 103/10/142 60/6/134
f 105/10/134 104/11/146 60/6/134
f 62/6/157 107/11/160 106/10/157
f 107/11/160 62/6/157 53/6/147
f 107/11/160 53/6/147 108/10/147
f 106/10/159 107/11/162 62/6/159
f 53/6/151 62/6/159 107/11/162
f 108/10/151 53/6/151 107/11/163
f 110/10/129 105/10/130 109/11/131
f 105/10/130 110/10/132 54/6/132
f 105/10/130 54/6/129 60/6/130
f 109/11/133 105/10/134 110/10/135
f 54/6/135 110/10/153 105/10/134
f 60/6/134 54/6/135 105/10/134
f 101/10/200 106/10/157 111/11/201
f 106/10/157 101/10/137 61/6/137
f 106/10/157 61/6/137 62/6/157
f 111/11/202 106/10/159 101/10/140
f 61/6/140 101/10/140 106/10/159
f 62/6/159 61/6/140 106/10/159
f 53/6/147 112/11/203 108/10/147
f 112/11/203 53/6/147 54/6/129
f 112/11/203 54/6/129 110/10/129
f 108/10/151 112/11/204 53/6/151
f 54/6/153 53/6/151 112/11/204
f 110/10/135 54/6/135 112/11/204
f 3/1/1 2/1/1 1/1/1
f 2/1/1 3/1/1 4/1/1
f 4/1/1 3/1/1 5/1/1
f 4/1/1 5/1/1 6/1/1
f 6/1/1 5/1/1 7/1/1
f 6/1/1 7/1/1 8/1/1
f 9/2/2 1/1/3 2/1/4
f 1/1/3 9/2/2 10/2/5
f 11/2/6 1/1/7 10/2/8
f 1/1/7 11/2/9 3/1/10
f 12/2/11 2/1/12 4/1/13
f 2/1/12 12/2/11 9/2/2
f 13/2/14 4/1/15 6/1/16
f 4/1/15 13/2/14 12/2/17
f 7/1/18 14/2/19 8/1/20
f 14/2/19 7/1/18 15/2/21
f 11/2/6 5/1/22 3/1/23
f 5/1/22 11/2/24 16/2/25
f 8/1/26 13/2/27 6/1/28
f 13/2/14 8/1/26 14/2/29
f 7/1/30 16/2/31 15/2/21
f 16/2/31 7/1/30 5/1/32
f 14/2/33 18/3/34 17/3/35
f 18/3/36 14/2/33 15/2/37
f 16/2/38 18/3/36 15/2/39
f 18/3/36 16/2/40 19/3/41
f 21/3/42 9/2/43 20/3/44
f 9/2/43 21/3/45 10/2/46
f 22/3/47 12/2/48 13/2/49
f 12/2/48 22/3/50 23/3/51
f 21/3/52 11/2/53 10/2/54
f 11/2/53 21/3/55 24/3/56
f 13/2/57 17/3/58 22/3/59
f 17/3/58 13/2/49 14/2/60
f 20/3/61 12/2/48 23/3/62
f 12/2/63 20/3/61 9/2/64
f 24/3/56 16/2/40 11/2/53
f 16/2/40 24/3/65 19/3/66
f 27/4/67 26/4/67 25/4/67
f 26/4/67 27/4/67 28/4/67
f 26/4/67 28/4/67 29/4/67
f 29/4/67 28/4/67 30/4/67
f 29/4/67 30/4/67 31/4/67
f 31/4/67 30/4/67 32/4/67
f 35/5/1 34/5/1 33/5/1
f 34/5/1 35/5/1 36/5/1
f 34/5/1 36/5/1 37/5/1
f 37/5/1 36/5/1 38/5/1
f 37/5/1 38/5/1 39/5/1
f 39/5/1 38/5/1 40/5/1
f 27/4/68 33/5/69 34/5/68
f 33/5/69 27/4/68 25/4/69
f 29/4/70 38/5/71 36/5/70
f 38/5/72 29/4/73 31/4/74
f 40/5/75 31/4/72 32/4/76
f 31/4/72 40/5/75 38/5/72
f 28/4/77 34/5/68 37/5/77
f 34/5/68 28/4/77 27/4/78
f 26/4/79 36/5/70 35/5/79
f 36/5/70 26/4/79 29/4/70
f 30/4/80 37/5/81 39/5/80
f 37/5/82 30/4/80 28/4/83
f 26/4/79 33/5/84 25/4/85
f 33/5/85 26/4/86 35/5/79
f 40/5/87 30/4/80 39/5/80
f 30/4/88 40/5/75 32/4/87
f 43/6/89 42/7/90 41/7/89
f 42/7/90 43/6/89 44/6/90
f 47/6/91 46/7/92 45/7/91
f 46/7/92 47/6/93 48/6/92
f 50/6/94 45/7/93 49/7/94
f 45/7/93 50/6/94 47/6/93
f 48/6/92 41/7/89 46/7/92
f 41/7/89 48/6/92 43/6/89
f 52/7/95 44/6/90 51/6/95
f 44/6/96 52/7/95 42/7/96
f 52/7/95 50/6/94 49/7/94
f 50/6/94 52/7/95 51/6/95
f 41/7/1 45/7/1 46/7/1
f 45/7/1 41/7/1 42/7/1
f 45/7/1 42/7/1 49/7/1
f 49/7/1 42/7/1 52/7/1
f 55/6/97 54/8/98 53/8/99
f 54/8/98 55/6/97 56/6/100
f 59/8/101 58/6/102 57/6/103
f 58/6/102 59/8/101 60/8/104
f 63/6/105 62/8/106 61/8/107
f 62/8/106 63/6/105 64/6/108
f 64/6/108 53/8/99 62/8/106
f 53/8/99 64/6/108 55/6/109
f 64/6/108 56/6/110 55/6/111
f 56/6/112 64/6/113 58/6/114
f 58/6/102 64/6/113 63/6/115
f 58/6/114 63/6/115 57/6/116
f 59/8/117 63/6/118 61/8/107
f 63/6/118 59/8/101 57/6/119
f 54/8/1 62/8/1 53/8/1
f 62/8/1 54/8/1 60/8/1
f 62/8/1 60/8/1 61/8/1
f 61/8/1 60/8/1 59/8/1
f 56/6/120 60/8/104 54/8/98
f 60/8/104 56/6/120 58/6/121
f 67/6/122 66/9/123 65/9/122
f 66/9/123 67/6/122 68/6/124
f 70/6/125 65/9/122 69/9/125
f 65/9/122 70/6/125 67/6/122
f 68/6/123 71/9/126 66/9/123
f 71/9/126 68/6/124 72/6/126
f 72/6/126 73/9/127 71/9/126
f 73/9/127 72/6/126 74/6/127
f 71/9/1 65/9/1 66/9/1
f 65/9/1 71/9/1 69/9/1
f 69/9/1 71/9/1 73/9/1
f 69/9/1 73/9/1 75/9/1
f 76/6/128 69/9/125 75/9/128
f 69/9/125 76/6/128 70/6/125
f 73/9/127 76/6/128 75/9/128
f 76/6/128 73/9/127 74/6/127
f 79/10/129 78/10/130 77/11/131
f 78/10/130 79/10/129 41/6/129
f 78/10/130 41/6/132 42/6/130
f 77/11/133 78/10/134 79/10/135
f 41/6/135 79/10/135 78/10/134
f 42/6/134 41/6/135 78/10/134
f 81/11/136 49/6/137 80/10/137
f 49/6/137 81/11/138 52/6/139
f 52/6/139 81/11/136 82/10/139
f 80/10/140 49/6/140 81/11/141
f 52/6/142 81/11/143 49/6/144
f 82/10/142 81/11/141 52/6/142
f 82/10/139 42/6/130 52/6/139
f 42/6/130 82/10/139 83/11/145
f 42/6/130 83/11/145 78/10/130
f 52/6/142 42/6/134 82/10/142
f 83/11/146 82/10/142 42/6/134
f 78/10/134 83/11/146 42/6/134
f 46/6/147 85/11/148 84/10/147
f 85/11/149 46/6/147 41/6/129
f 85/11/148 41/6/150 79/10/129
f 84/10/151 85/11/152 46/6/151
f 41/6/153 46/6/151 85/11/154
f 79/10/135 41/6/135 85/11/152
f 80/10/137 87/10/155 86/11/156
f 87/10/157 80/10/137 49/6/137
f 87/10/157 49/6/137 45/6/157
f 86/11/158 87/10/159 80/10/140
f 49/6/140 80/10/140 87/10/159
f 45/6/159 49/6/140 87/10/159
f 45/6/157 88/11/160 87/10/157
f 88/11/160 45/6/157 46/6/147
f 88/11/161 46/6/147 84/10/147
f 87/10/159 88/11/162 45/6/159
f 46/6/151 45/6/159 88/11/162
f 84/10/151 46/6/151 88/11/163
f 91/10/164 90/10/165 89/11/166
f 90/10/167 91/10/164 75/6/164
f 90/10/167 75/6/164 69/6/167
f 89/11/168 90/10/169 91/10/170
f 75/6/170 91/10/170 90/10/169
f 69/6/169 75/6/170 90/10/169
f 65/6/171 93/11/172 92/10/173
f 93/11/172 65/6/173 66/6/174
f 93/11/172 66/6/175 94/10/174
f 92/10/176 93/11/177 65/6/176
f 66/6/178 65/6/176 93/11/177
f 94/10/178 66/6/178 93/11/177
f 97/10/179 96/10/180 95/11/181
f 96/10/180 97/10/179 71/6/179
f 96/10/182 71/6/179 73/6/182
f 95/11/183 96/10/184 97/10/185
f 71/6/185 97/10/185 96/10/184
f 73/6/186 71/6/185 96/10/186
f 98/11/187 75/6/188 91/10/164
f 75/6/164 98/11/189 73/6/182
f 73/6/180 98/11/187 96/10/180
f 91/10/170 75/6/170 98/11/190
f 73/6/184 98/11/191 75/6/170
f 96/10/184 98/11/190 73/6/184
f 94/10/174 97/10/179 99/11/192
f 97/10/179 94/10/174 66/6/174
f 97/10/179 66/6/174 71/6/179
f 99/11/193 97/10/185 94/10/178
f 66/6/178 94/10/178 97/10/185
f 71/6/185 66/6/178 97/10/185
f 90/10/167 92/10/171 100/11/194
f 92/10/171 90/10/167 69/6/167
f 92/10/173 69/6/167 65/6/171
f 100/11/195 92/10/196 90/10/169
f 69/6/169 90/10/169 92/10/196
f 65/6/176 69/6/169 92/10/196
f 102/11/136 61/6/137 101/10/137
f 61/6/137 102/11/136 59/6/139
f 59/6/139 102/11/197 103/10/139
f 101/10/140 61/6/140 102/11/141
f 59/6/142 102/11/141 61/6/144
f 103/10/142 102/11/198 59/6/199
f 103/10/139 60/6/130 59/6/139
f 60/6/130 103/10/139 104/11/145
f 60/6/130 104/11/145 105/10/130
f 59/6/142 60/6/134 103/10/142
f 104/11/146 103/10/142 60/6/134
f 105/10/134 104/11/146 60/6/134
f 62/6/157 107/11/160 106/10/157
f 107/11/160 62/6/157 53/6/147
f 107/11/160 53/6/147 108/10/147
f 106/10/159 107/11/162 62/6/159
f 53/6/151 62/6/159 107/11/162
f 108/10/151 53/6/151 107/11/163
f 110/10/129 105/10/130 109/11/131
f 105/10/130 110/10/132 54/6/132
f 105/10/130 54/6/129 60/6/130
f 109/11/133 105/10/134 110/10/135
f 54/6/135 110/10/153 105/10/134
f 60/6/134 54/6/135 105/10/134
f 101/10/200 106/10/157 111/11/201
f 106/10/157 101/10/137 61/6/137
f 106/10/157 61/6/137 62/6/157
f 111/11/202 106/10/159 101/10/140
f 61/6/140 101/10/140 106/10/159
f 62/6/159 61/6/140 106/10/159
f 53/6/147 112/11/203 108/10/147
f 112/11/203 53/6/147 54/6/129
f 112/11/203 54/6/129 110/10/129
f 108/10/151 112/11/204 53/6/151
f 54/6/153 53/6/151 112/11/204
f 110/10/135 54/6/135 112/11/204
