# Blender 4.1.1
# www.blender.org
mtllib tree.021.mtl
o tree.021
v 3.737042 -0.382804 -20.371862
v 3.935202 -0.382804 -20.517935
v 3.564926 -0.382804 -20.397907
v 3.961246 -0.382804 -20.690050
v 3.418854 -0.382804 -20.596067
v 3.815174 -0.382804 -20.888210
v 3.444899 -0.382804 -20.768183
v 3.643058 -0.382804 -20.914255
v 3.812626 0.062918 -20.580498
v 3.713546 0.062918 -20.507462
v 3.627488 0.062918 -20.520483
v 3.825648 0.062918 -20.666555
v 3.752612 0.062918 -20.765635
v 3.666554 0.062918 -20.778656
v 3.567474 0.062918 -20.705620
v 3.554452 0.062918 -20.619562
v 3.660680 0.731552 -20.812555
v 3.536830 0.731552 -20.721262
v 3.520553 0.731552 -20.613689
v 3.843270 0.731552 -20.564856
v 3.719420 0.731552 -20.473562
v 3.768253 0.731552 -20.796278
v 3.859547 0.731552 -20.672428
v 3.611848 0.731552 -20.489840
v 3.859201 0.222058 -20.514990
v 3.765439 0.222058 -20.491795
v 3.909100 0.222058 -20.597692
v 3.885903 0.222058 -20.691454
v 3.682736 0.222058 -20.541693
v 3.803201 0.222058 -20.741354
v 3.659540 0.222058 -20.635454
v 3.709438 0.222058 -20.718157
v 3.901615 0.060318 -20.457451
v 3.979777 0.060318 -20.586998
v 3.754744 0.060318 -20.421116
v 3.625197 0.060318 -20.499277
v 3.943442 0.060318 -20.733870
v 3.588863 0.060318 -20.646149
v 3.813896 0.060318 -20.812031
v 3.667024 0.060318 -20.775696
v 3.437481 0.731552 -20.090889
v 3.073711 0.731552 -20.584375
v 3.538130 1.468507 -20.321215
v 3.323504 1.468507 -20.612373
v 4.292226 0.731552 -20.720955
v 4.046738 0.731552 -20.159178
v 4.042433 1.468507 -20.692957
v 3.897594 1.468507 -20.361506
v 3.928456 0.731552 -21.214443
v 3.827807 1.468507 -20.984118
v 3.468343 1.468507 -20.943825
v 3.319199 0.731552 -21.146152
v 3.892719 2.260255 -20.368120
v 3.541420 2.260255 -20.328743
v 3.731179 3.090716 -20.587263
v 3.650434 3.090716 -20.578213
v 3.634758 3.090716 -20.718067
v 3.602223 3.090716 -20.643616
v 3.473218 2.260255 -20.937212
v 3.331670 2.260255 -20.613289
v 3.824517 2.260255 -20.976587
v 4.034267 2.260255 -20.692041
v 3.715503 3.090716 -20.727118
v 3.763713 3.090716 -20.661716
v 4.139698 1.468507 -20.453083
v 3.738489 1.468507 -20.157335
v 3.892247 2.260255 -20.561214
v 3.708409 2.260255 -20.425699
v 4.084178 1.468507 -20.948414
v 3.866807 2.260255 -20.788181
v 3.281759 1.468507 -20.356918
v 3.499130 2.260255 -20.517151
v 3.226239 1.468507 -20.852249
v 3.473690 2.260255 -20.744118
v 3.627448 1.468507 -21.147997
v 3.657528 2.260255 -20.879631
v 3.161574 0.501649 -20.268324
v 3.006693 0.616601 -20.576864
v 3.410477 0.616601 -20.029093
v 3.955460 0.616601 -21.276239
v 3.610816 0.501649 -21.296377
v 3.279184 0.616601 -21.200436
v 3.089422 0.501649 -20.912037
v 4.086753 0.616601 -20.104895
v 3.755121 0.501649 -20.008955
v 4.204363 0.501649 -21.037006
v 4.359244 0.616601 -20.728468
v 4.276515 0.501649 -20.393295
v 3.893839 1.281595 -21.135223
v 4.128311 1.375051 -20.980946
v 3.621341 1.375051 -21.202484
v 4.189939 1.375051 -20.431128
v 3.995441 1.281595 -20.228767
v 3.744596 1.375051 -20.102848
v 3.159626 1.281595 -20.594006
v 3.175998 1.375051 -20.874203
v 3.237626 1.375051 -20.324385
v 3.370496 1.281595 -21.076563
v 3.472098 1.281595 -20.170107
v 4.206311 1.281595 -20.711327
v 3.840087 2.193974 -21.012218
v 3.641365 2.127692 -21.023830
v 3.450146 2.193974 -20.968512
v 3.340729 2.127692 -20.802219
v 3.293027 2.193974 -20.608957
v 4.072910 2.193974 -20.696373
v 4.025208 2.127692 -20.503113
v 3.915791 2.193974 -20.336821
v 3.382332 2.127692 -20.431053
v 3.525849 2.193974 -20.293112
v 3.983605 2.127692 -20.874277
v 3.724571 2.127692 -20.281500
vn -0.0000 -1.0000 -0.0000
vn 0.8155 0.2942 0.4984
vn 0.2253 0.2944 0.9288
vn 0.8205 0.2944 0.4900
vn 0.2253 0.2944 0.9287
vn 0.2349 0.2942 0.9264
vn -0.4983 0.2942 0.8155
vn 0.2252 0.2944 0.9288
vn 0.2348 0.2942 0.9265
vn -0.4984 0.2943 0.8155
vn -0.4899 0.2944 0.8206
vn 0.9265 0.2942 -0.2348
vn 0.8206 0.2944 0.4899
vn 0.9288 0.2944 -0.2252
vn 0.8205 0.2944 0.4899
vn 0.8155 0.2942 0.4983
vn 0.4984 0.2942 -0.8155
vn 0.9288 0.2944 -0.2253
vn 0.4900 0.2944 -0.8205
vn 0.9287 0.2944 -0.2253
vn 0.9264 0.2942 -0.2349
vn -0.8205 0.2944 -0.4900
vn -0.2349 0.2942 -0.9264
vn -0.2253 0.2944 -0.9287
vn -0.8155 0.2942 -0.4984
vn -0.4984 0.2942 0.8155
vn -0.9288 0.2944 0.2253
vn -0.4900 0.2944 0.8205
vn -0.9287 0.2944 0.2253
vn -0.9264 0.2942 0.2349
vn -0.2252 0.2944 -0.9288
vn 0.4984 0.2943 -0.8155
vn 0.4899 0.2944 -0.8206
vn 0.4983 0.2942 -0.8155
vn -0.2348 0.2942 -0.9265
vn -0.8205 0.2944 -0.4899
vn -0.9265 0.2942 0.2348
vn -0.8155 0.2942 -0.4983
vn -0.8206 0.2944 -0.4899
vn -0.9288 0.2944 0.2252
vn -0.2407 -0.0513 -0.9692
vn -0.8555 -0.0512 -0.5152
vn -0.2390 -0.0513 -0.9697
vn -0.8555 -0.0513 -0.5152
vn -0.2408 -0.0513 -0.9692
vn -0.8546 -0.0513 -0.5167
vn -0.9692 -0.0512 0.2407
vn -0.8556 -0.0513 -0.5152
vn -0.8546 -0.0512 -0.5167
vn -0.9692 -0.0513 0.2407
vn -0.9697 -0.0512 0.2390
vn 0.2390 -0.0512 0.9697
vn 0.8546 -0.0513 0.5167
vn 0.8555 -0.0513 0.5152
vn 0.2408 -0.0513 0.9692
vn 0.5152 -0.0513 -0.8555
vn 0.9692 -0.0513 -0.2408
vn 0.5167 -0.0513 -0.8546
vn 0.9692 -0.0513 -0.2407
vn 0.5152 -0.0512 -0.8555
vn 0.9697 -0.0513 -0.2390
vn 0.2390 -0.0513 0.9697
vn -0.5167 -0.0513 0.8546
vn 0.2407 -0.0513 0.9692
vn -0.5152 -0.0513 0.8556
vn 0.5152 -0.0513 -0.8556
vn -0.2407 -0.0512 -0.9692
vn 0.8556 -0.0513 0.5152
vn 0.9697 -0.0512 -0.2390
vn 0.9692 -0.0512 -0.2407
vn 0.8546 -0.0512 0.5167
vn -0.5152 -0.0513 0.8555
vn -0.9692 -0.0513 0.2408
vn -0.5152 -0.0512 0.8555
vn -0.9697 -0.0513 0.2390
vn -0.0000 1.0000 -0.0000
vn 0.9044 0.4042 0.1369
vn 0.5427 0.4042 0.7362
vn 0.5427 0.4043 0.7362
vn -0.7363 0.4042 0.5427
vn -0.9044 0.4042 -0.1368
vn -0.5427 0.4042 -0.7362
vn -0.9044 0.4042 -0.1369
vn -0.5427 0.4043 -0.7362
vn 0.7363 0.4042 -0.5427
vn 0.9044 0.4042 0.1368
vn -0.1369 0.4042 0.9044
vn -0.7362 0.4042 0.5427
vn 0.1369 0.4042 -0.9044
vn 0.7362 0.4042 -0.5427
vn 0.7362 0.4043 -0.5427
vn -0.1368 0.4042 0.9044
vn 0.5427 0.4043 0.7363
vn 0.5427 0.4042 0.7363
vn -0.5427 0.4042 -0.7363
vn 0.1368 0.4042 -0.9044
vn -0.3790 0.3228 0.8673
vn -0.9406 0.3228 0.1054
vn 0.9406 0.3228 -0.1054
vn 0.5616 0.3228 0.7619
vn 0.5616 0.3228 0.7618
vn 0.3790 0.3228 -0.8673
vn -0.5616 0.3228 -0.7619
vn -0.5616 0.3228 -0.7618
vn 0.4081 0.7260 0.5536
vn -0.3805 0.3115 0.8707
vn 0.5638 0.3115 0.7649
vn -0.2754 0.7260 0.6302
vn -0.5638 0.3115 -0.7649
vn -0.6834 0.7260 0.0767
vn -0.4080 0.7260 -0.5536
vn -0.6834 0.7260 0.0766
vn -0.9443 0.3115 0.1058
vn 0.2753 0.7260 -0.6302
vn 0.9443 0.3115 -0.1059
vn 0.3805 0.3115 -0.8707
vn 0.6835 0.7260 -0.0766
vn 0.6834 0.7260 -0.0766
vn 0.9443 0.3115 -0.1058
vn 0.6835 0.7260 -0.0767
vn 0.4080 0.7260 0.5536
vn 0.6835 0.7259 -0.0766
vn -0.2754 0.7259 0.6302
vn 0.4080 0.7259 0.5536
vn -0.6835 0.7259 0.0766
vn -0.6835 0.7260 0.0766
vn 0.2754 0.7259 -0.6302
vn -0.4080 0.7259 -0.5536
vn -0.5638 0.3116 -0.7649
vn 0.2754 0.7260 -0.6302
vn 0.3805 0.3115 -0.8708
vn 0.2753 0.7260 -0.6301
vn -0.2753 0.7260 0.6302
vn -0.9443 0.3115 0.1059
vn 0.8673 0.3228 0.3790
vn 0.1054 0.3228 0.9406
vn 0.7618 0.3228 -0.5616
vn 0.7619 0.3228 -0.5616
vn -0.7618 0.3228 0.5616
vn -0.8673 0.3228 -0.3790
vn -0.7619 0.3228 0.5616
vn -0.1054 0.3228 -0.9406
vn -0.3454 0.5060 0.7904
vn -0.8571 0.5060 0.0961
vn -0.7176 0.4530 0.5290
vn -0.8572 0.5060 0.0961
vn 0.7176 -0.4530 -0.5290
vn 0.8572 -0.5060 -0.0961
vn 0.3454 -0.5060 -0.7903
vn 0.3454 -0.5060 -0.7904
vn -0.0993 0.4530 -0.8860
vn 0.3454 0.5061 -0.7903
vn 0.3454 0.5060 -0.7904
vn 0.3454 0.5060 -0.7903
vn -0.0993 0.4529 -0.8860
vn -0.5118 0.5060 -0.6943
vn -0.3454 -0.5060 0.7904
vn -0.3454 -0.5060 0.7903
vn 0.0993 -0.4530 0.8860
vn 0.5118 -0.5060 0.6943
vn 0.0993 -0.4529 0.8860
vn -0.8169 0.4530 -0.3570
vn 0.8571 -0.5060 -0.0961
vn 0.8169 -0.4530 0.3570
vn 0.5118 0.5060 0.6943
vn 0.0993 0.4530 0.8860
vn -0.3454 0.5060 0.7903
vn -0.3454 0.5061 0.7903
vn -0.5118 -0.5060 -0.6943
vn -0.0993 -0.4530 -0.8860
vn 0.8571 0.5060 -0.0961
vn 0.7176 0.4530 -0.5290
vn 0.8572 0.5060 -0.0961
vn -0.7176 -0.4530 0.5290
vn -0.8572 -0.5060 0.0961
vn 0.8169 0.4530 0.3570
vn -0.8169 -0.4530 -0.3570
vn -0.8571 -0.5060 0.0961
vn -0.0961 0.5060 -0.8572
vn 0.6943 0.5060 -0.5118
vn 0.3570 0.4529 -0.8169
vn -0.3570 -0.4529 0.8169
vn -0.6943 -0.5060 0.5118
vn 0.0961 -0.5060 0.8572
vn 0.0961 -0.5060 0.8571
vn 0.7904 0.5060 0.3454
vn 0.5290 0.4530 0.7176
vn 0.0961 0.5061 0.8571
vn 0.0961 0.5060 0.8571
vn 0.0961 0.5060 0.8572
vn -0.7904 -0.5060 -0.3454
vn -0.5290 -0.4530 -0.7176
vn -0.7903 -0.5060 -0.3454
vn -0.0961 -0.5060 -0.8572
vn -0.6943 0.5060 0.5118
vn -0.7903 0.5060 -0.3454
vn -0.8860 0.4530 0.0993
vn -0.7904 0.5060 -0.3454
vn 0.8860 -0.4530 -0.0993
vn 0.7904 -0.5060 0.3454
vn 0.6943 -0.5060 -0.5118
vn -0.5290 0.4529 -0.7176
vn -0.0961 0.5060 -0.8571
vn -0.5290 0.4530 -0.7176
vn 0.5290 -0.4529 0.7176
vn 0.5290 -0.4530 0.7176
vn 0.7903 -0.5060 0.3454
vn -0.3570 0.4529 0.8170
vn 0.3570 -0.4529 -0.8170
vn -0.0961 -0.5060 -0.8571
vn 0.7903 0.5060 0.3454
vn 0.8860 0.4530 -0.0993
vn -0.8860 -0.4530 0.0993
vn -0.8169 0.4529 -0.3570
vn 0.8169 -0.4529 0.3570
vn 0.8169 0.4529 0.3570
vn -0.8169 -0.4529 -0.3570
vn -0.7176 0.4529 0.5290
vn 0.7176 -0.4529 -0.5290
vn 0.8572 0.5059 -0.0961
vn -0.7176 -0.4529 0.5290
vn -0.3454 -0.5061 0.7903
vn -0.3453 -0.5060 0.7904
vn 0.0993 0.4529 0.8860
vn -0.0993 -0.4529 -0.8860
vt 0.593750 0.025000
vt 0.593750 0.104996
vt 0.593750 0.225000
vt 0.093750 0.475000
vt 0.093750 0.275000
vt 0.093750 0.425000
vt 0.093750 0.348778
vt 0.093750 0.338765
vt 0.093750 0.344099
vt 0.093750 0.375000
vt 0.093750 0.325000
s 0
usemtl colormap.024
f 3/1/1 2/1/1 1/1/1
f 2/1/1 3/1/1 4/1/1
f 4/1/1 3/1/1 5/1/1
f 4/1/1 5/1/1 6/1/1
f 6/1/1 5/1/1 7/1/1
f 6/1/1 7/1/1 8/1/1
f 9/2/2 1/1/3 2/1/4
f 1/1/5 9/2/2 10/2/6
f 11/2/7 1/1/8 10/2/9
f 1/1/8 11/2/10 3/1/11
f 12/2/12 2/1/13 4/1/14
f 2/1/15 12/2/12 9/2/16
f 13/2/17 4/1/18 6/1/19
f 4/1/20 13/2/17 12/2/21
f 7/1/22 14/2/23 8/1/24
f 14/2/23 7/1/22 15/2/25
f 11/2/26 5/1/27 3/1/28
f 5/1/29 11/2/26 16/2/30
f 8/1/31 13/2/32 6/1/33
f 13/2/34 8/1/31 14/2/35
f 7/1/36 16/2/37 15/2/38
f 16/2/37 7/1/39 5/1/40
f 14/2/41 18/3/42 17/3/43
f 18/3/44 14/2/45 15/2/46
f 16/2/47 18/3/48 15/2/49
f 18/3/48 16/2/50 19/3/51
f 21/3/52 9/2/53 20/3/54
f 9/2/53 21/3/52 10/2/55
f 22/3/56 12/2/57 13/2/58
f 12/2/59 22/3/60 23/3/61
f 21/3/62 11/2/63 10/2/64
f 11/2/63 21/3/52 24/3/65
f 13/2/58 17/3/43 22/3/66
f 17/3/43 13/2/58 14/2/67
f 20/3/68 12/2/59 23/3/69
f 12/2/70 20/3/68 9/2/71
f 24/3/72 16/2/73 11/2/63
f 16/2/50 24/3/74 19/3/75
f 27/4/76 26/4/76 25/4/76
f 26/4/76 27/4/76 28/4/76
f 26/4/76 28/4/76 29/4/76
f 29/4/76 28/4/76 30/4/76
f 29/4/76 30/4/76 31/4/76
f 31/4/76 30/4/76 32/4/76
f 35/5/1 34/5/1 33/5/1
f 34/5/1 35/5/1 36/5/1
f 34/5/1 36/5/1 37/5/1
f 37/5/1 36/5/1 38/5/1
f 37/5/1 38/5/1 39/5/1
f 39/5/1 38/5/1 40/5/1
f 27/4/77 33/5/78 34/5/77
f 33/5/78 27/4/77 25/4/79
f 29/4/80 38/5/81 36/5/80
f 38/5/81 29/4/80 31/4/81
f 40/5/82 31/4/83 32/4/84
f 31/4/83 40/5/82 38/5/83
f 28/4/85 34/5/86 37/5/85
f 34/5/86 28/4/85 27/4/86
f 26/4/87 36/5/88 35/5/87
f 36/5/88 26/4/87 29/4/88
f 30/4/89 37/5/90 39/5/89
f 37/5/90 30/4/89 28/4/91
f 26/4/92 33/5/93 25/4/94
f 33/5/94 26/4/92 35/5/92
f 40/5/95 30/4/96 39/5/96
f 30/4/96 40/5/84 32/4/95
f 43/6/97 42/7/98 41/7/97
f 42/7/98 43/6/97 44/6/98
f 47/6/99 46/7/100 45/7/99
f 46/7/101 47/6/99 48/6/101
f 50/6/102 45/7/99 49/7/102
f 45/7/99 50/6/102 47/6/99
f 48/6/100 41/7/97 46/7/100
f 41/7/97 48/6/100 43/6/97
f 52/7/103 44/6/98 51/6/104
f 44/6/98 52/7/104 42/7/98
f 52/7/103 50/6/102 49/7/102
f 50/6/102 52/7/104 51/6/103
f 41/7/1 45/7/1 46/7/1
f 45/7/1 41/7/1 42/7/1
f 45/7/1 42/7/1 49/7/1
f 49/7/1 42/7/1 52/7/1
f 55/6/105 54/8/106 53/8/107
f 54/8/106 55/6/105 56/6/108
f 59/8/109 58/6/110 57/6/111
f 58/6/112 59/8/109 60/8/113
f 63/6/114 62/8/115 61/8/116
f 62/8/115 63/6/114 64/6/117
f 64/6/118 53/8/107 62/8/119
f 53/8/107 64/6/120 55/6/121
f 64/6/122 56/6/123 55/6/124
f 56/6/123 64/6/122 58/6/125
f 58/6/126 64/6/122 63/6/127
f 58/6/125 63/6/127 57/6/128
f 59/8/129 63/6/130 61/8/131
f 63/6/132 59/8/109 57/6/111
f 54/8/1 62/8/1 53/8/1
f 62/8/1 54/8/1 60/8/1
f 62/8/1 60/8/1 61/8/1
f 61/8/1 60/8/1 59/8/1
f 56/6/133 60/8/134 54/8/106
f 60/8/113 56/6/108 58/6/126
f 67/6/135 66/9/136 65/9/135
f 66/9/136 67/6/135 68/6/136
f 70/6/137 65/9/135 69/9/138
f 65/9/135 70/6/138 67/6/135
f 68/6/136 71/9/139 66/9/136
f 71/9/139 68/6/136 72/6/139
f 72/6/139 73/9/140 71/9/141
f 73/9/140 72/6/141 74/6/140
f 71/9/1 65/9/1 66/9/1
f 65/9/1 71/9/1 69/9/1
f 69/9/1 71/9/1 73/9/1
f 69/9/1 73/9/1 75/9/1
f 76/6/142 69/9/137 75/9/142
f 69/9/137 76/6/142 70/6/137
f 73/9/140 76/6/142 75/9/142
f 76/6/142 73/9/140 74/6/140
f 79/10/143 78/10/144 77/11/145
f 78/10/146 79/10/143 41/6/143
f 78/10/146 41/6/143 42/6/146
f 77/11/147 78/10/148 79/10/149
f 41/6/150 79/10/150 78/10/148
f 42/6/148 41/6/150 78/10/148
f 81/11/151 49/6/152 80/10/153
f 49/6/154 81/11/155 52/6/156
f 52/6/156 81/11/151 82/10/156
f 80/10/157 49/6/158 81/11/159
f 52/6/160 81/11/161 49/6/157
f 82/10/160 81/11/159 52/6/160
f 82/10/156 42/6/146 52/6/156
f 42/6/146 82/10/156 83/11/162
f 42/6/144 83/11/162 78/10/146
f 52/6/160 42/6/163 82/10/160
f 83/11/164 82/10/160 42/6/148
f 78/10/148 83/11/164 42/6/163
f 46/6/165 85/11/166 84/10/165
f 85/11/166 46/6/165 41/6/167
f 85/11/166 41/6/168 79/10/143
f 84/10/169 85/11/170 46/6/169
f 41/6/150 46/6/169 85/11/170
f 79/10/150 41/6/149 85/11/170
f 80/10/153 87/10/171 86/11/172
f 87/10/173 80/10/153 49/6/153
f 87/10/173 49/6/153 45/6/173
f 86/11/174 87/10/175 80/10/157
f 49/6/157 80/10/157 87/10/175
f 45/6/175 49/6/158 87/10/175
f 45/6/173 88/11/176 87/10/173
f 88/11/176 45/6/173 46/6/165
f 88/11/176 46/6/165 84/10/165
f 87/10/175 88/11/177 45/6/178
f 46/6/169 45/6/175 88/11/177
f 84/10/169 46/6/169 88/11/177
f 91/10/179 90/10/180 89/11/181
f 90/10/180 91/10/179 75/6/179
f 90/10/180 75/6/179 69/6/180
f 89/11/182 90/10/183 91/10/184
f 75/6/184 91/10/184 90/10/183
f 69/6/183 75/6/185 90/10/183
f 65/6/186 93/11/187 92/10/186
f 93/11/187 65/6/186 66/6/188
f 93/11/187 66/6/189 94/10/190
f 92/10/191 93/11/192 65/6/193
f 66/6/194 65/6/191 93/11/192
f 94/10/194 66/6/194 93/11/192
f 97/10/195 96/10/196 95/11/197
f 96/10/198 97/10/195 71/6/195
f 96/10/198 71/6/195 73/6/198
f 95/11/199 96/10/200 97/10/201
f 71/6/201 97/10/201 96/10/200
f 73/6/200 71/6/201 96/10/200
f 98/11/202 75/6/203 91/10/179
f 75/6/203 98/11/204 73/6/198
f 73/6/196 98/11/204 96/10/198
f 91/10/184 75/6/184 98/11/205
f 73/6/200 98/11/206 75/6/184
f 96/10/200 98/11/206 73/6/207
f 94/10/190 97/10/195 99/11/208
f 97/10/195 94/10/189 66/6/189
f 97/10/195 66/6/190 71/6/195
f 99/11/209 97/10/201 94/10/194
f 66/6/210 94/10/210 97/10/201
f 71/6/201 66/6/210 97/10/201
f 90/10/180 92/10/211 100/11/212
f 92/10/186 90/10/180 69/6/180
f 92/10/186 69/6/180 65/6/186
f 100/11/213 92/10/191 90/10/183
f 69/6/183 90/10/183 92/10/191
f 65/6/191 69/6/183 92/10/191
f 102/11/155 61/6/153 101/10/153
f 61/6/154 102/11/151 59/6/156
f 59/6/156 102/11/155 103/10/156
f 101/10/157 61/6/157 102/11/161
f 59/6/160 102/11/159 61/6/157
f 103/10/160 102/11/161 59/6/160
f 103/10/156 60/6/146 59/6/156
f 60/6/146 103/10/156 104/11/214
f 60/6/144 104/11/162 105/10/146
f 59/6/160 60/6/163 103/10/160
f 104/11/215 103/10/160 60/6/148
f 105/10/163 104/11/164 60/6/163
f 62/6/173 107/11/216 106/10/173
f 107/11/176 62/6/173 53/6/165
f 107/11/216 53/6/165 108/10/165
f 106/10/175 107/11/177 62/6/178
f 53/6/169 62/6/175 107/11/177
f 108/10/169 53/6/169 107/11/217
f 110/10/143 105/10/146 109/11/218
f 105/10/146 110/10/143 54/6/143
f 105/10/146 54/6/143 60/6/146
f 109/11/219 105/10/148 110/10/150
f 54/6/150 110/10/150 105/10/148
f 60/6/148 54/6/149 105/10/148
f 101/10/153 106/10/171 111/11/172
f 106/10/171 101/10/154 61/6/153
f 106/10/220 61/6/153 62/6/173
f 111/11/221 106/10/175 101/10/157
f 61/6/222 101/10/223 106/10/175
f 62/6/175 61/6/157 106/10/175
f 53/6/165 112/11/166 108/10/165
f 112/11/224 53/6/165 54/6/143
f 112/11/166 54/6/167 110/10/143
f 108/10/169 112/11/170 53/6/169
f 54/6/150 53/6/169 112/11/225
f 110/10/150 54/6/149 112/11/170
f 3/1/1 2/1/1 1/1/1
f 2/1/1 3/1/1 4/1/1
f 4/1/1 3/1/1 5/1/1
f 4/1/1 5/1/1 6/1/1
f 6/1/1 5/1/1 7/1/1
f 6/1/1 7/1/1 8/1/1
f 9/2/2 1/1/3 2/1/4
f 1/1/5 9/2/2 10/2/6
f 11/2/7 1/1/8 10/2/9
f 1/1/8 11/2/10 3/1/11
f 12/2/12 2/1/13 4/1/14
f 2/1/15 12/2/12 9/2/16
f 13/2/17 4/1/18 6/1/19
f 4/1/20 13/2/17 12/2/21
f 7/1/22 14/2/23 8/1/24
f 14/2/23 7/1/22 15/2/25
f 11/2/26 5/1/27 3/1/28
f 5/1/29 11/2/26 16/2/30
f 8/1/31 13/2/32 6/1/33
f 13/2/34 8/1/31 14/2/35
f 7/1/36 16/2/37 15/2/38
f 16/2/37 7/1/39 5/1/40
f 14/2/41 18/3/42 17/3/43
f 18/3/44 14/2/45 15/2/46
f 16/2/47 18/3/48 15/2/49
f 18/3/48 16/2/50 19/3/51
f 21/3/52 9/2/53 20/3/54
f 9/2/53 21/3/52 10/2/55
f 22/3/56 12/2/57 13/2/58
f 12/2/59 22/3/60 23/3/61
f 21/3/62 11/2/63 10/2/64
f 11/2/63 21/3/52 24/3/65
f 13/2/58 17/3/43 22/3/66
f 17/3/43 13/2/58 14/2/67
f 20/3/68 12/2/59 23/3/69
f 12/2/70 20/3/68 9/2/71
f 24/3/72 16/2/73 11/2/63
f 16/2/50 24/3/74 19/3/75
f 27/4/76 26/4/76 25/4/76
f 26/4/76 27/4/76 28/4/76
f 26/4/76 28/4/76 29/4/76
f 29/4/76 28/4/76 30/4/76
f 29/4/76 30/4/76 31/4/76
f 31/4/76 30/4/76 32/4/76
f 35/5/1 34/5/1 33/5/1
f 34/5/1 35/5/1 36/5/1
f 34/5/1 36/5/1 37/5/1
f 37/5/1 36/5/1 38/5/1
f 37/5/1 38/5/1 39/5/1
f 39/5/1 38/5/1 40/5/1
f 27/4/77 33/5/78 34/5/77
f 33/5/78 27/4/77 25/4/79
f 29/4/80 38/5/81 36/5/80
f 38/5/81 29/4/80 31/4/81
f 40/5/82 31/4/83 32/4/84
f 31/4/83 40/5/82 38/5/83
f 28/4/85 34/5/86 37/5/85
f 34/5/86 28/4/85 27/4/86
f 26/4/87 36/5/88 35/5/87
f 36/5/88 26/4/87 29/4/88
f 30/4/89 37/5/90 39/5/89
f 37/5/90 30/4/89 28/4/91
f 26/4/92 33/5/93 25/4/94
f 33/5/94 26/4/92 35/5/92
f 40/5/95 30/4/96 39/5/96
f 30/4/96 40/5/84 32/4/95
f 43/6/97 42/7/98 41/7/97
f 42/7/98 43/6/97 44/6/98
f 47/6/99 46/7/100 45/7/99
f 46/7/101 47/6/99 48/6/101
f 50/6/102 45/7/99 49/7/102
f 45/7/99 50/6/102 47/6/99
f 48/6/100 41/7/97 46/7/100
f 41/7/97 48/6/100 43/6/97
f 52/7/103 44/6/98 51/6/104
f 44/6/98 52/7/104 42/7/98
f 52/7/103 50/6/102 49/7/102
f 50/6/102 52/7/104 51/6/103
f 41/7/1 45/7/1 46/7/1
f 45/7/1 41/7/1 42/7/1
f 45/7/1 42/7/1 49/7/1
f 49/7/1 42/7/1 52/7/1
f 55/6/105 54/8/106 53/8/107
f 54/8/106 55/6/105 56/6/108
f 59/8/109 58/6/110 57/6/111
f 58/6/112 59/8/109 60/8/113
f 63/6/114 62/8/115 61/8/116
f 62/8/115 63/6/114 64/6/117
f 64/6/118 53/8/107 62/8/119
f 53/8/107 64/6/120 55/6/121
f 64/6/122 56/6/123 55/6/124
f 56/6/123 64/6/122 58/6/125
f 58/6/126 64/6/122 63/6/127
f 58/6/125 63/6/127 57/6/128
f 59/8/129 63/6/130 61/8/131
f 63/6/132 59/8/109 57/6/111
f 54/8/1 62/8/1 53/8/1
f 62/8/1 54/8/1 60/8/1
f 62/8/1 60/8/1 61/8/1
f 61/8/1 60/8/1 59/8/1
f 56/6/133 60/8/134 54/8/106
f 60/8/113 56/6/108 58/6/126
f 67/6/135 66/9/136 65/9/135
f 66/9/136 67/6/135 68/6/136
f 70/6/137 65/9/135 69/9/138
f 65/9/135 70/6/138 67/6/135
f 68/6/136 71/9/139 66/9/136
f 71/9/139 68/6/136 72/6/139
f 72/6/139 73/9/140 71/9/141
f 73/9/140 72/6/141 74/6/140
f 71/9/1 65/9/1 66/9/1
f 65/9/1 71/9/1 69/9/1
f 69/9/1 71/9/1 73/9/1
f 69/9/1 73/9/1 75/9/1
f 76/6/142 69/9/137 75/9/142
f 69/9/137 76/6/142 70/6/137
f 73/9/140 76/6/142 75/9/142
f 76/6/142 73/9/140 74/6/140
f 79/10/143 78/10/144 77/11/145
f 78/10/146 79/10/143 41/6/143
f 78/10/146 41/6/143 42/6/146
f 77/11/147 78/10/148 79/10/149
f 41/6/150 79/10/150 78/10/148
f 42/6/148 41/6/150 78/10/148
f 81/11/151 49/6/152 80/10/153
f 49/6/154 81/11/155 52/6/156
f 52/6/156 81/11/151 82/10/156
f 80/10/157 49/6/158 81/11/159
f 52/6/160 81/11/161 49/6/157
f 82/10/160 81/11/159 52/6/160
f 82/10/156 42/6/146 52/6/156
f 42/6/146 82/10/156 83/11/162
f 42/6/144 83/11/162 78/10/146
f 52/6/160 42/6/163 82/10/160
f 83/11/164 82/10/160 42/6/148
f 78/10/148 83/11/164 42/6/163
f 46/6/165 85/11/166 84/10/165
f 85/11/166 46/6/165 41/6/167
f 85/11/166 41/6/168 79/10/143
f 84/10/169 85/11/170 46/6/169
f 41/6/150 46/6/169 85/11/170
f 79/10/150 41/6/149 85/11/170
f 80/10/153 87/10/171 86/11/172
f 87/10/173 80/10/153 49/6/153
f 87/10/173 49/6/153 45/6/173
f 86/11/174 87/10/175 80/10/157
f 49/6/157 80/10/157 87/10/175
f 45/6/175 49/6/158 87/10/175
f 45/6/173 88/11/176 87/10/173
f 88/11/176 45/6/173 46/6/165
f 88/11/176 46/6/165 84/10/165
f 87/10/175 88/11/177 45/6/178
f 46/6/169 45/6/175 88/11/177
f 84/10/169 46/6/169 88/11/177
f 91/10/179 90/10/180 89/11/181
f 90/10/180 91/10/179 75/6/179
f 90/10/180 75/6/179 69/6/180
f 89/11/182 90/10/183 91/10/184
f 75/6/184 91/10/184 90/10/183
f 69/6/183 75/6/185 90/10/183
f 65/6/186 93/11/187 92/10/186
f 93/11/187 65/6/186 66/6/188
f 93/11/187 66/6/189 94/10/190
f 92/10/191 93/11/192 65/6/193
f 66/6/194 65/6/191 93/11/192
f 94/10/194 66/6/194 93/11/192
f 97/10/195 96/10/196 95/11/197
f 96/10/198 97/10/195 71/6/195
f 96/10/198 71/6/195 73/6/198
f 95/11/199 96/10/200 97/10/201
f 71/6/201 97/10/201 96/10/200
f 73/6/200 71/6/201 96/10/200
f 98/11/202 75/6/203 91/10/179
f 75/6/203 98/11/204 73/6/198
f 73/6/196 98/11/204 96/10/198
f 91/10/184 75/6/184 98/11/205
f 73/6/200 98/11/206 75/6/184
f 96/10/200 98/11/206 73/6/207
f 94/10/190 97/10/195 99/11/208
f 97/10/195 94/10/189 66/6/189
f 97/10/195 66/6/190 71/6/195
f 99/11/209 97/10/201 94/10/194
f 66/6/210 94/10/210 97/10/201
f 71/6/201 66/6/210 97/10/201
f 90/10/180 92/10/211 100/11/212
f 92/10/186 90/10/180 69/6/180
f 92/10/186 69/6/180 65/6/186
f 100/11/213 92/10/191 90/10/183
f 69/6/183 90/10/183 92/10/191
f 65/6/191 69/6/183 92/10/191
f 102/11/155 61/6/153 101/10/153
f 61/6/154 102/11/151 59/6/156
f 59/6/156 102/11/155 103/10/156
f 101/10/157 61/6/157 102/11/161
f 59/6/160 102/11/159 61/6/157
f 103/10/160 102/11/161 59/6/160
f 103/10/156 60/6/146 59/6/156
f 60/6/146 103/10/156 104/11/214
f 60/6/144 104/11/162 105/10/146
f 59/6/160 60/6/163 103/10/160
f 104/11/215 103/10/160 60/6/148
f 105/10/163 104/11/164 60/6/163
f 62/6/173 107/11/216 106/10/173
f 107/11/176 62/6/173 53/6/165
f 107/11/216 53/6/165 108/10/165
f 106/10/175 107/11/177 62/6/178
f 53/6/169 62/6/175 107/11/177
f 108/10/169 53/6/169 107/11/217
f 110/10/143 105/10/146 109/11/218
f 105/10/146 110/10/143 54/6/143
f 105/10/146 54/6/143 60/6/146
f 109/11/219 105/10/148 110/10/150
f 54/6/150 110/10/150 105/10/148
f 60/6/148 54/6/149 105/10/148
f 101/10/153 106/10/171 111/11/172
f 106/10/171 101/10/154 61/6/153
f 106/10/220 61/6/153 62/6/173
f 111/11/221 106/10/175 101/10/157
f 61/6/222 101/10/223 106/10/175
f 62/6/175 61/6/157 106/10/175
f 53/6/165 112/11/166 108/10/165
f 112/11/224 53/6/165 54/6/143
f 112/11/166 54/6/167 110/10/143
f 108/10/169 112/11/170 53/6/169
f 54/6/150 53/6/169 112/11/225
f 110/10/150 54/6/149 112/11/170
