# Blender 4.1.1
# www.blender.org
mtllib tree.057.mtl
o tree.057
v -14.545764 -0.382804 7.615766
v -14.323977 -0.382804 7.722605
v -14.603237 -0.382804 7.451452
v -14.159663 -0.382804 7.665131
v -14.496398 -0.382804 7.229665
v -14.052824 -0.382804 7.443344
v -14.332085 -0.382804 7.172191
v -14.110297 -0.382804 7.279031
v -14.326003 0.062918 7.585001
v -14.436897 0.062918 7.531582
v -14.465634 0.062918 7.449425
v -14.243847 0.062918 7.556265
v -14.190427 0.062918 7.445371
v -14.219164 0.062918 7.363214
v -14.330058 0.062918 7.309795
v -14.412214 0.062918 7.338531
v -14.191947 0.731552 7.342168
v -14.330564 0.731552 7.275394
v -14.433260 0.731552 7.311315
v -14.325497 0.731552 7.619402
v -14.464113 0.731552 7.552628
v -14.156026 0.731552 7.444864
v -14.222801 0.731552 7.583481
v -14.500035 0.731552 7.449932
v -14.362123 0.222058 7.656806
v -14.426476 0.222058 7.584777
v -14.265686 0.222058 7.662233
v -14.193658 0.222058 7.597879
v -14.421049 0.222058 7.488340
v -14.188231 0.222058 7.501442
v -14.349021 0.222058 7.423986
v -14.252584 0.222058 7.429414
v -14.393146 0.060318 7.721205
v -14.242085 0.060318 7.729706
v -14.493950 0.060318 7.608378
v -14.485449 0.060318 7.457318
v -14.129258 0.060318 7.628902
v -14.372622 0.060318 7.356514
v -14.120757 0.060318 7.477842
v -14.221561 0.060318 7.365015
v -14.934215 0.731552 7.482388
v -14.668147 0.731552 6.930060
v -14.683558 1.468507 7.463634
v -14.526577 1.468507 7.137759
v -13.977554 0.731552 7.943231
v -14.588919 0.731552 7.988974
v -14.119124 1.468507 7.735533
v -14.479832 1.468507 7.762522
v -13.711487 0.731552 7.390903
v -13.962144 1.468507 7.409657
v -14.165870 1.468507 7.110770
v -14.056783 0.731552 6.884318
v -14.476266 2.260255 7.755119
v -14.675364 2.260255 7.463021
v -14.358112 3.090716 7.509846
v -14.403875 3.090716 7.442708
v -14.287589 3.090716 7.363446
v -14.368613 3.090716 7.369508
v -14.169436 2.260255 7.118173
v -14.521949 2.260255 7.144548
v -13.970337 2.260255 7.410271
v -14.123753 2.260255 7.728744
v -14.241827 3.090716 7.430584
v -14.277088 3.090716 7.503784
v -14.285662 1.468507 7.933690
v -14.734709 1.468507 7.717374
v -14.305810 2.260255 7.664397
v -14.511569 2.260255 7.565279
v -13.873804 1.468507 7.652961
v -14.117092 2.260255 7.535764
v -14.771898 1.468507 7.220331
v -14.528609 2.260255 7.337528
v -14.360040 1.468507 6.939602
v -14.339891 2.260255 7.208895
v -13.910993 1.468507 7.155917
v -14.134133 2.260255 7.308013
v -14.906414 0.501649 7.155532
v -14.706130 0.616601 6.874336
v -15.001465 0.616601 7.487420
v -13.644238 0.616601 7.385872
v -13.787618 0.501649 7.071823
v -14.027515 0.616601 6.823562
v -14.371181 0.501649 6.790709
v -14.618186 0.616601 8.049730
v -14.858084 0.501649 7.801469
v -13.739288 0.501649 7.717760
v -13.939572 0.616601 7.998956
v -14.274522 0.501649 8.082582
v -13.797699 1.281595 7.397354
v -13.824409 1.375051 7.676756
v -13.865688 1.375051 7.125037
v -14.281571 1.375051 7.988365
v -14.551399 1.281595 7.911087
v -14.780013 1.375051 7.748255
v -14.619455 1.281595 7.001497
v -14.364131 1.375051 6.884927
v -14.821293 1.375051 7.196536
v -14.094303 1.281595 6.962205
v -14.848003 1.281595 7.475938
v -14.026247 1.281595 7.871795
v -13.931561 2.193974 7.407370
v -14.014235 2.127692 7.226288
v -14.152560 2.193974 7.083141
v -14.350718 2.127692 7.064198
v -14.543850 2.193974 7.112417
v -14.101851 2.193974 7.760875
v -14.294984 2.127692 7.809094
v -14.493141 2.193974 7.790151
v -14.659334 2.127692 7.274555
v -14.714141 2.193974 7.465922
v -13.986368 2.127692 7.598737
v -14.631467 2.127692 7.647004
vn -0.0000 -1.0000 -0.0000
vn -0.0592 0.2942 0.9539
vn -0.7156 0.2944 0.6335
vn -0.0493 0.2944 0.9544
vn -0.7090 0.2942 0.6409
vn -0.9539 0.2942 -0.0591
vn -0.7156 0.2944 0.6334
vn -0.7091 0.2942 0.6408
vn -0.9539 0.2943 -0.0591
vn -0.9544 0.2944 -0.0493
vn 0.6408 0.2942 0.7091
vn 0.6334 0.2944 0.7156
vn -0.0591 0.2942 0.9539
vn 0.9539 0.2942 0.0592
vn 0.6335 0.2944 0.7156
vn 0.9544 0.2944 0.0493
vn 0.6408 0.2942 0.7090
vn 0.0493 0.2944 -0.9544
vn 0.7090 0.2942 -0.6409
vn 0.7156 0.2944 -0.6335
vn 0.0592 0.2942 -0.9539
vn -0.9539 0.2942 -0.0592
vn -0.6335 0.2944 -0.7156
vn -0.6334 0.2944 -0.7156
vn -0.6408 0.2942 -0.7090
vn 0.7156 0.2944 -0.6334
vn 0.9539 0.2943 0.0591
vn 0.9539 0.2942 0.0591
vn 0.7091 0.2942 -0.6408
vn -0.6408 0.2942 -0.7091
vn 0.0591 0.2942 -0.9539
vn 0.7441 -0.0513 -0.6661
vn 0.0553 -0.0512 -0.9972
vn 0.7453 -0.0513 -0.6648
vn 0.0553 -0.0513 -0.9972
vn 0.0570 -0.0513 -0.9971
vn -0.6660 -0.0512 -0.7441
vn 0.0552 -0.0513 -0.9972
vn 0.0570 -0.0512 -0.9971
vn -0.6660 -0.0513 -0.7442
vn -0.6647 -0.0512 -0.7453
vn -0.7453 -0.0512 0.6648
vn -0.0571 -0.0513 0.9971
vn -0.0553 -0.0513 0.9972
vn -0.0570 -0.0513 0.9971
vn -0.7441 -0.0513 0.6661
vn 0.9972 -0.0513 0.0553
vn 0.6661 -0.0513 0.7441
vn 0.9971 -0.0513 0.0570
vn 0.9972 -0.0512 0.0553
vn 0.6648 -0.0513 0.7453
vn -0.7453 -0.0513 0.6647
vn -0.9971 -0.0513 -0.0570
vn -0.7441 -0.0512 0.6660
vn -0.7453 -0.0512 0.6647
vn -0.9972 -0.0513 -0.0552
vn 0.7453 -0.0512 -0.6647
vn 0.9972 -0.0513 0.0552
vn 0.7453 -0.0513 -0.6647
vn 0.7441 -0.0513 -0.6660
vn -0.0552 -0.0513 0.9972
vn 0.6660 -0.0513 0.7442
vn 0.6647 -0.0512 0.7453
vn 0.6660 -0.0512 0.7441
vn -0.0570 -0.0512 0.9971
vn -0.9972 -0.0513 -0.0553
vn -0.6661 -0.0513 -0.7441
vn -0.9972 -0.0512 -0.0553
vn -0.6648 -0.0513 -0.7453
vn -0.0000 1.0000 -0.0000
vn 0.3020 0.4042 0.8634
vn -0.3969 0.4042 0.8241
vn -0.3969 0.4042 0.8240
vn -0.3969 0.4043 0.8240
vn -0.8240 0.4042 -0.3970
vn -0.3020 0.4042 -0.8634
vn -0.3020 0.4043 -0.8634
vn 0.3969 0.4042 -0.8241
vn 0.3969 0.4042 -0.8240
vn 0.8240 0.4042 0.3970
vn 0.3020 0.4043 0.8633
vn -0.8634 0.4042 0.3020
vn -0.8241 0.4042 -0.3969
vn -0.8634 0.4042 0.3019
vn -0.8240 0.4043 -0.3970
vn 0.8634 0.4042 -0.3020
vn 0.8240 0.4042 0.3969
vn 0.8241 0.4042 0.3969
vn 0.8240 0.4043 0.3969
vn -0.3970 0.4043 0.8240
vn -0.3970 0.4042 0.8240
vn 0.3970 0.4042 -0.8240
vn 0.3970 0.4043 -0.8240
vn -0.9438 0.3228 0.0706
vn -0.5331 0.3228 -0.7821
vn 0.5331 0.3228 0.7821
vn -0.4107 0.3228 0.8527
vn 0.9438 0.3228 -0.0706
vn -0.4108 0.3228 0.8527
vn 0.4107 0.3228 -0.8527
vn 0.4108 0.3228 -0.8527
vn -0.2984 0.7260 0.6196
vn -0.9476 0.3115 0.0709
vn -0.4124 0.3115 0.8561
vn -0.6858 0.7260 0.0512
vn 0.4124 0.3115 -0.8561
vn -0.3874 0.7260 -0.5683
vn 0.2985 0.7260 -0.6196
vn -0.5352 0.3115 -0.7852
vn 0.6858 0.7260 -0.0513
vn 0.5352 0.3115 0.7852
vn 0.9476 0.3115 -0.0709
vn 0.6858 0.7260 -0.0514
vn 0.3873 0.7260 0.5683
vn 0.3874 0.7260 0.5683
vn 0.3874 0.7260 0.5682
vn -0.2985 0.7260 0.6196
vn 0.3873 0.7259 0.5683
vn -0.6858 0.7259 0.0514
vn -0.2985 0.7259 0.6196
vn -0.6858 0.7259 0.0513
vn -0.3873 0.7259 -0.5683
vn 0.6858 0.7259 -0.0513
vn 0.2985 0.7259 -0.6196
vn 0.4124 0.3116 -0.8561
vn 0.2985 0.7260 -0.6195
vn -0.6858 0.7260 0.0513
vn -0.6858 0.7260 0.0514
vn -0.3873 0.7260 -0.5683
vn 0.0706 0.3228 0.9438
vn -0.7821 0.3228 0.5331
vn 0.8527 0.3228 0.4108
vn -0.8527 0.3228 -0.4107
vn -0.8527 0.3228 -0.4108
vn -0.0706 0.3228 -0.9438
vn 0.7821 0.3228 -0.5330
vn 0.8527 0.3228 0.4107
vn 0.7821 0.3228 -0.5331
vn -0.8601 0.5060 0.0644
vn -0.4858 0.5060 -0.7127
vn -0.8032 0.4530 -0.3869
vn 0.8032 -0.4530 0.3869
vn 0.4858 -0.5060 0.7127
vn 0.8601 -0.5060 -0.0644
vn 0.7367 0.4530 -0.5021
vn 0.8601 0.5060 -0.0644
vn 0.3743 0.5060 -0.7771
vn -0.8601 -0.5060 0.0644
vn -0.7367 -0.4530 0.5021
vn -0.3743 -0.5060 0.7771
vn -0.3743 -0.5060 0.7770
vn -0.0665 0.4530 -0.8890
vn 0.0665 -0.4530 0.8890
vn -0.3743 0.5060 0.7771
vn -0.7367 0.4530 0.5021
vn 0.3743 -0.5060 -0.7771
vn 0.7367 -0.4530 -0.5021
vn 0.4858 0.5060 0.7127
vn 0.8032 0.4530 0.3869
vn -0.8032 -0.4530 -0.3869
vn -0.4858 -0.5060 -0.7127
vn 0.0665 0.4530 0.8890
vn -0.3743 0.5060 0.7770
vn -0.0665 -0.4530 -0.8890
vn 0.7127 0.5060 -0.4858
vn 0.7771 0.5060 0.3743
vn 0.8890 0.4530 -0.0665
vn -0.8890 -0.4530 0.0665
vn -0.7771 -0.5060 -0.3743
vn -0.7127 -0.5060 0.4858
vn 0.0644 0.5060 0.8601
vn -0.3869 0.4530 0.8032
vn -0.7127 0.5060 0.4858
vn -0.0644 -0.5060 -0.8601
vn 0.3869 -0.4530 -0.8032
vn -0.0643 -0.5061 -0.8601
vn 0.7127 -0.5060 -0.4858
vn -0.7771 0.5060 -0.3743
vn -0.0644 0.5060 -0.8601
vn -0.5021 0.4530 -0.7367
vn 0.5021 -0.4530 0.7367
vn 0.0644 -0.5060 0.8601
vn 0.7771 -0.5060 0.3743
vn 0.3869 0.4530 -0.8032
vn -0.3869 -0.4530 0.8032
vn -0.7770 0.5060 -0.3743
vn -0.8890 0.4530 0.0665
vn 0.8890 -0.4530 -0.0665
vn 0.5021 0.4530 0.7367
vn -0.5021 -0.4530 -0.7367
vn -0.0665 0.4529 -0.8891
vn 0.0665 -0.4529 0.8891
vn 0.0665 0.4530 0.8891
vn -0.4858 -0.5061 -0.7127
vn -0.0665 -0.4530 -0.8891
vn -0.8601 0.5060 0.0643
vn 0.8032 0.4529 0.3869
vn 0.8601 0.5060 -0.0643
vn -0.8032 -0.4529 -0.3869
vn -0.7367 0.4529 0.5021
vn 0.7367 -0.4529 -0.5021
vn 0.8601 -0.5060 -0.0643
vt 0.593750 0.025000
vt 0.593750 0.104996
vt 0.593750 0.225000
vt 0.093750 0.475000
vt 0.093750 0.275000
vt 0.093750 0.425000
vt 0.093750 0.348778
vt 0.093750 0.338765
vt 0.093750 0.344099
vt 0.093750 0.375000
vt 0.093750 0.325000
s 0
usemtl colormap.060
f 3/1/1 2/1/1 1/1/1
f 2/1/1 3/1/1 4/1/1
f 4/1/1 3/1/1 5/1/1
f 4/1/1 5/1/1 6/1/1
f 6/1/1 5/1/1 7/1/1
f 6/1/1 7/1/1 8/1/1
f 9/2/2 1/1/3 2/1/4
f 1/1/3 9/2/2 10/2/5
f 11/2/6 1/1/7 10/2/8
f 1/1/7 11/2/9 3/1/10
f 12/2/11 2/1/4 4/1/12
f 2/1/4 12/2/11 9/2/13
f 13/2/14 4/1/15 6/1/16
f 4/1/12 13/2/14 12/2/17
f 7/1/18 14/2/19 8/1/20
f 14/2/19 7/1/18 15/2/21
f 11/2/22 5/1/23 3/1/10
f 5/1/24 11/2/22 16/2/25
f 8/1/26 13/2/27 6/1/16
f 13/2/28 8/1/26 14/2/29
f 7/1/18 16/2/30 15/2/31
f 16/2/30 7/1/18 5/1/24
f 14/2/32 18/3/33 17/3/34
f 18/3/35 14/2/32 15/2/36
f 16/2/37 18/3/38 15/2/39
f 18/3/38 16/2/40 19/3/41
f 21/3/42 9/2/43 20/3/44
f 9/2/45 21/3/42 10/2/46
f 22/3/47 12/2/48 13/2/49
f 12/2/48 22/3/50 23/3/51
f 21/3/52 11/2/53 10/2/54
f 11/2/53 21/3/55 24/3/56
f 13/2/49 17/3/57 22/3/58
f 17/3/59 13/2/49 14/2/60
f 20/3/61 12/2/62 23/3/63
f 12/2/64 20/3/61 9/2/65
f 24/3/66 16/2/67 11/2/53
f 16/2/67 24/3/68 19/3/69
f 27/4/70 26/4/70 25/4/70
f 26/4/70 27/4/70 28/4/70
f 26/4/70 28/4/70 29/4/70
f 29/4/70 28/4/70 30/4/70
f 29/4/70 30/4/70 31/4/70
f 31/4/70 30/4/70 32/4/70
f 35/5/1 34/5/1 33/5/1
f 34/5/1 35/5/1 36/5/1
f 34/5/1 36/5/1 37/5/1
f 37/5/1 36/5/1 38/5/1
f 37/5/1 38/5/1 39/5/1
f 39/5/1 38/5/1 40/5/1
f 27/4/71 33/5/72 34/5/71
f 33/5/73 27/4/71 25/4/74
f 29/4/75 38/5/76 36/5/75
f 38/5/76 29/4/75 31/4/77
f 40/5/78 31/4/76 32/4/79
f 31/4/76 40/5/79 38/5/76
f 28/4/80 34/5/71 37/5/80
f 34/5/71 28/4/80 27/4/81
f 26/4/82 36/5/83 35/5/82
f 36/5/75 26/4/84 29/4/85
f 30/4/86 37/5/87 39/5/86
f 37/5/88 30/4/86 28/4/89
f 26/4/82 33/5/90 25/4/91
f 33/5/91 26/4/82 35/5/82
f 40/5/92 30/4/86 39/5/86
f 30/4/86 40/5/93 32/4/92
f 43/6/94 42/7/95 41/7/94
f 42/7/95 43/6/94 44/6/95
f 47/6/96 46/7/97 45/7/96
f 46/7/97 47/6/96 48/6/97
f 50/6/98 45/7/96 49/7/98
f 45/7/96 50/6/98 47/6/96
f 48/6/99 41/7/94 46/7/99
f 41/7/94 48/6/99 43/6/94
f 52/7/100 44/6/95 51/6/100
f 44/6/95 52/7/101 42/7/95
f 52/7/101 50/6/98 49/7/98
f 50/6/98 52/7/101 51/6/101
f 41/7/1 45/7/1 46/7/1
f 45/7/1 41/7/1 42/7/1
f 45/7/1 42/7/1 49/7/1
f 49/7/1 42/7/1 52/7/1
f 55/6/102 54/8/103 53/8/104
f 54/8/103 55/6/102 56/6/105
f 59/8/106 58/6/107 57/6/108
f 58/6/107 59/8/106 60/8/109
f 63/6/110 62/8/111 61/8/112
f 62/8/111 63/6/113 64/6/114
f 64/6/115 53/8/104 62/8/111
f 53/8/104 64/6/116 55/6/117
f 64/6/118 56/6/119 55/6/120
f 56/6/121 64/6/114 58/6/122
f 58/6/122 64/6/118 63/6/123
f 58/6/122 63/6/123 57/6/124
f 59/8/125 63/6/110 61/8/112
f 63/6/110 59/8/106 57/6/126
f 54/8/1 62/8/1 53/8/1
f 62/8/1 54/8/1 60/8/1
f 62/8/1 60/8/1 61/8/1
f 61/8/1 60/8/1 59/8/1
f 56/6/127 60/8/109 54/8/103
f 60/8/109 56/6/128 58/6/129
f 67/6/130 66/9/131 65/9/130
f 66/9/131 67/6/130 68/6/131
f 70/6/132 65/9/130 69/9/132
f 65/9/130 70/6/132 67/6/130
f 68/6/131 71/9/133 66/9/131
f 71/9/133 68/6/131 72/6/133
f 72/6/134 73/9/135 71/9/134
f 73/9/135 72/6/134 74/6/135
f 71/9/1 65/9/1 66/9/1
f 65/9/1 71/9/1 69/9/1
f 69/9/1 71/9/1 73/9/1
f 69/9/1 73/9/1 75/9/1
f 76/6/136 69/9/137 75/9/138
f 69/9/137 76/6/138 70/6/137
f 73/9/135 76/6/138 75/9/138
f 76/6/138 73/9/135 74/6/135
f 79/10/139 78/10/140 77/11/141
f 78/10/140 79/10/139 41/6/139
f 78/10/140 41/6/139 42/6/140
f 77/11/142 78/10/143 79/10/144
f 41/6/144 79/10/144 78/10/143
f 42/6/143 41/6/144 78/10/143
f 81/11/145 49/6/146 80/10/146
f 49/6/146 81/11/145 52/6/147
f 52/6/147 81/11/145 82/10/147
f 80/10/148 49/6/148 81/11/149
f 52/6/150 81/11/149 49/6/148
f 82/10/150 81/11/149 52/6/151
f 82/10/147 42/6/140 52/6/147
f 42/6/140 82/10/147 83/11/152
f 42/6/140 83/11/152 78/10/140
f 52/6/150 42/6/143 82/10/150
f 83/11/153 82/10/150 42/6/143
f 78/10/143 83/11/153 42/6/143
f 46/6/154 85/11/155 84/10/154
f 85/11/155 46/6/154 41/6/139
f 85/11/155 41/6/139 79/10/139
f 84/10/156 85/11/157 46/6/156
f 41/6/144 46/6/156 85/11/157
f 79/10/144 41/6/144 85/11/157
f 80/10/146 87/10/158 86/11/159
f 87/10/158 80/10/146 49/6/146
f 87/10/158 49/6/146 45/6/158
f 86/11/160 87/10/161 80/10/148
f 49/6/148 80/10/148 87/10/161
f 45/6/161 49/6/148 87/10/161
f 45/6/158 88/11/162 87/10/158
f 88/11/162 45/6/158 46/6/163
f 88/11/162 46/6/163 84/10/154
f 87/10/161 88/11/164 45/6/161
f 46/6/156 45/6/161 88/11/164
f 84/10/156 46/6/156 88/11/164
f 91/10/165 90/10/166 89/11/167
f 90/10/166 91/10/165 75/6/165
f 90/10/166 75/6/165 69/6/166
f 89/11/168 90/10/169 91/10/170
f 75/6/170 91/10/170 90/10/169
f 69/6/169 75/6/170 90/10/169
f 65/6/171 93/11/172 92/10/171
f 93/11/172 65/6/171 66/6/173
f 93/11/172 66/6/173 94/10/173
f 92/10/174 93/11/175 65/6/176
f 66/6/177 65/6/174 93/11/175
f 94/10/177 66/6/177 93/11/175
f 97/10/178 96/10/179 95/11/180
f 96/10/179 97/10/178 71/6/178
f 96/10/179 71/6/178 73/6/179
f 95/11/181 96/10/182 97/10/183
f 71/6/183 97/10/183 96/10/182
f 73/6/182 71/6/183 96/10/182
f 98/11/184 75/6/165 91/10/165
f 75/6/165 98/11/184 73/6/179
f 73/6/179 98/11/184 96/10/179
f 91/10/170 75/6/170 98/11/185
f 73/6/182 98/11/185 75/6/170
f 96/10/182 98/11/185 73/6/182
f 94/10/173 97/10/186 99/11/187
f 97/10/178 94/10/173 66/6/173
f 97/10/178 66/6/173 71/6/178
f 99/11/188 97/10/183 94/10/177
f 66/6/177 94/10/177 97/10/183
f 71/6/183 66/6/177 97/10/183
f 90/10/166 92/10/171 100/11/189
f 92/10/171 90/10/166 69/6/166
f 92/10/171 69/6/166 65/6/171
f 100/11/190 92/10/174 90/10/169
f 69/6/169 90/10/169 92/10/174
f 65/6/174 69/6/169 92/10/174
f 102/11/145 61/6/146 101/10/146
f 61/6/146 102/11/145 59/6/147
f 59/6/147 102/11/145 103/10/147
f 101/10/148 61/6/148 102/11/149
f 59/6/150 102/11/149 61/6/148
f 103/10/150 102/11/149 59/6/150
f 103/10/147 60/6/140 59/6/147
f 60/6/140 103/10/147 104/11/191
f 60/6/140 104/11/152 105/10/140
f 59/6/150 60/6/143 103/10/150
f 104/11/192 103/10/150 60/6/143
f 105/10/143 104/11/153 60/6/143
f 62/6/158 107/11/162 106/10/158
f 107/11/193 62/6/158 53/6/154
f 107/11/162 53/6/154 108/10/154
f 106/10/161 107/11/164 62/6/194
f 53/6/156 62/6/161 107/11/195
f 108/10/156 53/6/156 107/11/164
f 110/10/139 105/10/140 109/11/141
f 105/10/140 110/10/139 54/6/139
f 105/10/140 54/6/196 60/6/140
f 109/11/142 105/10/143 110/10/144
f 54/6/144 110/10/144 105/10/143
f 60/6/143 54/6/144 105/10/143
f 101/10/146 106/10/158 111/11/197
f 106/10/158 101/10/198 61/6/146
f 106/10/158 61/6/146 62/6/158
f 111/11/199 106/10/161 101/10/148
f 61/6/148 101/10/148 106/10/161
f 62/6/161 61/6/148 106/10/161
f 53/6/154 112/11/200 108/10/154
f 112/11/155 53/6/154 54/6/139
f 112/11/155 54/6/139 110/10/139
f 108/10/156 112/11/201 53/6/156
f 54/6/144 53/6/156 112/11/157
f 110/10/202 54/6/202 112/11/157
f 3/1/1 2/1/1 1/1/1
f 2/1/1 3/1/1 4/1/1
f 4/1/1 3/1/1 5/1/1
f 4/1/1 5/1/1 6/1/1
f 6/1/1 5/1/1 7/1/1
f 6/1/1 7/1/1 8/1/1
f 9/2/2 1/1/3 2/1/4
f 1/1/3 9/2/2 10/2/5
f 11/2/6 1/1/7 10/2/8
f 1/1/7 11/2/9 3/1/10
f 12/2/11 2/1/4 4/1/12
f 2/1/4 12/2/11 9/2/13
f 13/2/14 4/1/15 6/1/16
f 4/1/12 13/2/14 12/2/17
f 7/1/18 14/2/19 8/1/20
f 14/2/19 7/1/18 15/2/21
f 11/2/22 5/1/23 3/1/10
f 5/1/24 11/2/22 16/2/25
f 8/1/26 13/2/27 6/1/16
f 13/2/28 8/1/26 14/2/29
f 7/1/18 16/2/30 15/2/31
f 16/2/30 7/1/18 5/1/24
f 14/2/32 18/3/33 17/3/34
f 18/3/35 14/2/32 15/2/36
f 16/2/37 18/3/38 15/2/39
f 18/3/38 16/2/40 19/3/41
f 21/3/42 9/2/43 20/3/44
f 9/2/45 21/3/42 10/2/46
f 22/3/47 12/2/48 13/2/49
f 12/2/48 22/3/50 23/3/51
f 21/3/52 11/2/53 10/2/54
f 11/2/53 21/3/55 24/3/56
f 13/2/49 17/3/57 22/3/58
f 17/3/59 13/2/49 14/2/60
f 20/3/61 12/2/62 23/3/63
f 12/2/64 20/3/61 9/2/65
f 24/3/66 16/2/67 11/2/53
f 16/2/67 24/3/68 19/3/69
f 27/4/70 26/4/70 25/4/70
f 26/4/70 27/4/70 28/4/70
f 26/4/70 28/4/70 29/4/70
f 29/4/70 28/4/70 30/4/70
f 29/4/70 30/4/70 31/4/70
f 31/4/70 30/4/70 32/4/70
f 35/5/1 34/5/1 33/5/1
f 34/5/1 35/5/1 36/5/1
f 34/5/1 36/5/1 37/5/1
f 37/5/1 36/5/1 38/5/1
f 37/5/1 38/5/1 39/5/1
f 39/5/1 38/5/1 40/5/1
f 27/4/71 33/5/72 34/5/71
f 33/5/73 27/4/71 25/4/74
f 29/4/75 38/5/76 36/5/75
f 38/5/76 29/4/75 31/4/77
f 40/5/78 31/4/76 32/4/79
f 31/4/76 40/5/79 38/5/76
f 28/4/80 34/5/71 37/5/80
f 34/5/71 28/4/80 27/4/81
f 26/4/82 36/5/83 35/5/82
f 36/5/75 26/4/84 29/4/85
f 30/4/86 37/5/87 39/5/86
f 37/5/88 30/4/86 28/4/89
f 26/4/82 33/5/90 25/4/91
f 33/5/91 26/4/82 35/5/82
f 40/5/92 30/4/86 39/5/86
f 30/4/86 40/5/93 32/4/92
f 43/6/94 42/7/95 41/7/94
f 42/7/95 43/6/94 44/6/95
f 47/6/96 46/7/97 45/7/96
f 46/7/97 47/6/96 48/6/97
f 50/6/98 45/7/96 49/7/98
f 45/7/96 50/6/98 47/6/96
f 48/6/99 41/7/94 46/7/99
f 41/7/94 48/6/99 43/6/94
f 52/7/100 44/6/95 51/6/100
f 44/6/95 52/7/101 42/7/95
f 52/7/101 50/6/98 49/7/98
f 50/6/98 52/7/101 51/6/101
f 41/7/1 45/7/1 46/7/1
f 45/7/1 41/7/1 42/7/1
f 45/7/1 42/7/1 49/7/1
f 49/7/1 42/7/1 52/7/1
f 55/6/102 54/8/103 53/8/104
f 54/8/103 55/6/102 56/6/105
f 59/8/106 58/6/107 57/6/108
f 58/6/107 59/8/106 60/8/109
f 63/6/110 62/8/111 61/8/112
f 62/8/111 63/6/113 64/6/114
f 64/6/115 53/8/104 62/8/111
f 53/8/104 64/6/116 55/6/117
f 64/6/118 56/6/119 55/6/120
f 56/6/121 64/6/114 58/6/122
f 58/6/122 64/6/118 63/6/123
f 58/6/122 63/6/123 57/6/124
f 59/8/125 63/6/110 61/8/112
f 63/6/110 59/8/106 57/6/126
f 54/8/1 62/8/1 53/8/1
f 62/8/1 54/8/1 60/8/1
f 62/8/1 60/8/1 61/8/1
f 61/8/1 60/8/1 59/8/1
f 56/6/127 60/8/109 54/8/103
f 60/8/109 56/6/128 58/6/129
f 67/6/130 66/9/131 65/9/130
f 66/9/131 67/6/130 68/6/131
f 70/6/132 65/9/130 69/9/132
f 65/9/130 70/6/132 67/6/130
f 68/6/131 71/9/133 66/9/131
f 71/9/133 68/6/131 72/6/133
f 72/6/134 73/9/135 71/9/134
f 73/9/135 72/6/134 74/6/135
f 71/9/1 65/9/1 66/9/1
f 65/9/1 71/9/1 69/9/1
f 69/9/1 71/9/1 73/9/1
f 69/9/1 73/9/1 75/9/1
f 76/6/136 69/9/137 75/9/138
f 69/9/137 76/6/138 70/6/137
f 73/9/135 76/6/138 75/9/138
f 76/6/138 73/9/135 74/6/135
f 79/10/139 78/10/140 77/11/141
f 78/10/140 79/10/139 41/6/139
f 78/10/140 41/6/139 42/6/140
f 77/11/142 78/10/143 79/10/144
f 41/6/144 79/10/144 78/10/143
f 42/6/143 41/6/144 78/10/143
f 81/11/145 49/6/146 80/10/146
f 49/6/146 81/11/145 52/6/147
f 52/6/147 81/11/145 82/10/147
f 80/10/148 49/6/148 81/11/149
f 52/6/150 81/11/149 49/6/148
f 82/10/150 81/11/149 52/6/151
f 82/10/147 42/6/140 52/6/147
f 42/6/140 82/10/147 83/11/152
f 42/6/140 83/11/152 78/10/140
f 52/6/150 42/6/143 82/10/150
f 83/11/153 82/10/150 42/6/143
f 78/10/143 83/11/153 42/6/143
f 46/6/154 85/11/155 84/10/154
f 85/11/155 46/6/154 41/6/139
f 85/11/155 41/6/139 79/10/139
f 84/10/156 85/11/157 46/6/156
f 41/6/144 46/6/156 85/11/157
f 79/10/144 41/6/144 85/11/157
f 80/10/146 87/10/158 86/11/159
f 87/10/158 80/10/146 49/6/146
f 87/10/158 49/6/146 45/6/158
f 86/11/160 87/10/161 80/10/148
f 49/6/148 80/10/148 87/10/161
f 45/6/161 49/6/148 87/10/161
f 45/6/158 88/11/162 87/10/158
f 88/11/162 45/6/158 46/6/163
f 88/11/162 46/6/163 84/10/154
f 87/10/161 88/11/164 45/6/161
f 46/6/156 45/6/161 88/11/164
f 84/10/156 46/6/156 88/11/164
f 91/10/165 90/10/166 89/11/167
f 90/10/166 91/10/165 75/6/165
f 90/10/166 75/6/165 69/6/166
f 89/11/168 90/10/169 91/10/170
f 75/6/170 91/10/170 90/10/169
f 69/6/169 75/6/170 90/10/169
f 65/6/171 93/11/172 92/10/171
f 93/11/172 65/6/171 66/6/173
f 93/11/172 66/6/173 94/10/173
f 92/10/174 93/11/175 65/6/176
f 66/6/177 65/6/174 93/11/175
f 94/10/177 66/6/177 93/11/175
f 97/10/178 96/10/179 95/11/180
f 96/10/179 97/10/178 71/6/178
f 96/10/179 71/6/178 73/6/179
f 95/11/181 96/10/182 97/10/183
f 71/6/183 97/10/183 96/10/182
f 73/6/182 71/6/183 96/10/182
f 98/11/184 75/6/165 91/10/165
f 75/6/165 98/11/184 73/6/179
f 73/6/179 98/11/184 96/10/179
f 91/10/170 75/6/170 98/11/185
f 73/6/182 98/11/185 75/6/170
f 96/10/182 98/11/185 73/6/182
f 94/10/173 97/10/186 99/11/187
f 97/10/178 94/10/173 66/6/173
f 97/10/178 66/6/173 71/6/178
f 99/11/188 97/10/183 94/10/177
f 66/6/177 94/10/177 97/10/183
f 71/6/183 66/6/177 97/10/183
f 90/10/166 92/10/171 100/11/189
f 92/10/171 90/10/166 69/6/166
f 92/10/171 69/6/166 65/6/171
f 100/11/190 92/10/174 90/10/169
f 69/6/169 90/10/169 92/10/174
f 65/6/174 69/6/169 92/10/174
f 102/11/145 61/6/146 101/10/146
f 61/6/146 102/11/145 59/6/147
f 59/6/147 102/11/145 103/10/147
f 101/10/148 61/6/148 102/11/149
f 59/6/150 102/11/149 61/6/148
f 103/10/150 102/11/149 59/6/150
f 103/10/147 60/6/140 59/6/147
f 60/6/140 103/10/147 104/11/191
f 60/6/140 104/11/152 105/10/140
f 59/6/150 60/6/143 103/10/150
f 104/11/192 103/10/150 60/6/143
f 105/10/143 104/11/153 60/6/143
f 62/6/158 107/11/162 106/10/158
f 107/11/193 62/6/158 53/6/154
f 107/11/162 53/6/154 108/10/154
f 106/10/161 107/11/164 62/6/194
f 53/6/156 62/6/161 107/11/195
f 108/10/156 53/6/156 107/11/164
f 110/10/139 105/10/140 109/11/141
f 105/10/140 110/10/139 54/6/139
f 105/10/140 54/6/196 60/6/140
f 109/11/142 105/10/143 110/10/144
f 54/6/144 110/10/144 105/10/143
f 60/6/143 54/6/144 105/10/143
f 101/10/146 106/10/158 111/11/197
f 106/10/158 101/10/198 61/6/146
f 106/10/158 61/6/146 62/6/158
f 111/11/199 106/10/161 101/10/148
f 61/6/148 101/10/148 106/10/161
f 62/6/161 61/6/148 106/10/161
f 53/6/154 112/11/200 108/10/154
f 112/11/155 53/6/154 54/6/139
f 112/11/155 54/6/139 110/10/139
f 108/10/156 112/11/201 53/6/156
f 54/6/144 53/6/156 112/11/157
f 110/10/202 54/6/202 112/11/157
