# Blender 4.1.1
# www.blender.org
mtllib iron-fence-border-column.009.mtl
o iron-fence-border-column.007
v 10.018506 -2.964949 -7.718971
v 10.018506 -2.869370 -7.718971
v 10.018506 -2.964949 -7.910129
v 10.018506 -2.869370 -7.910129
v 9.827348 -2.869370 -7.718971
v 9.827348 -2.964949 -7.718971
v 9.827348 -2.869370 -7.910129
v 9.827348 -2.964949 -7.910129
v 10.018506 -4.444326 -7.910129
v 10.018506 -4.234052 -7.910129
v 9.827348 -4.444326 -7.910129
v 9.827348 -4.234052 -7.910129
v 10.001303 -3.003181 -7.736175
v 10.001302 -3.003181 -7.892925
v 10.001303 -4.195820 -7.736175
v 10.001302 -4.195820 -7.892925
v 9.827348 -4.444326 -7.718971
v 9.827348 -4.234052 -7.718971
v 10.018506 -4.234052 -7.718971
v 9.844552 -4.195820 -7.736175
v 9.844552 -3.003181 -7.736175
v 10.018506 -4.444326 -7.718971
v 9.844552 -3.003181 -7.892925
v 9.844552 -4.195820 -7.892925
v 10.228781 -3.003181 -7.771539
v 10.185770 -2.869370 -7.814550
v 10.228781 -3.003181 -7.857561
v 10.142759 -3.003181 -7.771539
v 10.142759 -3.003181 -7.857561
v 10.214444 -3.079644 -7.785876
v 10.214444 -3.079644 -7.843224
v 10.157097 -3.079644 -7.785876
v 10.157097 -3.079644 -7.843224
v 10.706677 -3.003181 -7.771540
v 10.663667 -2.869370 -7.814550
v 10.706677 -3.003181 -7.857561
v 10.620656 -3.003181 -7.771540
v 10.620656 -3.003181 -7.857561
v 10.692341 -3.079644 -7.785876
v 10.692341 -3.079644 -7.843224
v 10.634993 -3.079644 -7.785876
v 10.634993 -3.079644 -7.843224
v 11.662471 -3.003181 -7.771540
v 11.619460 -2.869370 -7.814550
v 11.662471 -3.003181 -7.857561
v 11.576449 -3.003181 -7.771540
v 11.576449 -3.003181 -7.857561
v 11.648134 -3.079644 -7.785876
v 11.648134 -3.079644 -7.843224
v 11.590787 -3.079644 -7.785876
v 11.590787 -3.079644 -7.843224
v 10.467730 -3.003181 -7.771539
v 10.424718 -2.869370 -7.814550
v 10.467730 -3.003181 -7.857561
v 10.381708 -3.003181 -7.771539
v 10.381708 -3.003181 -7.857561
v 10.453392 -3.079644 -7.785876
v 10.453392 -3.079644 -7.843224
v 10.396045 -3.079644 -7.785876
v 10.396045 -3.079644 -7.843224
v 11.184574 -3.003181 -7.771540
v 11.141563 -2.869370 -7.814550
v 11.184574 -3.003181 -7.857561
v 11.098553 -3.003181 -7.771540
v 11.098553 -3.003181 -7.857561
v 11.170237 -3.079644 -7.785876
v 11.170237 -3.079644 -7.843224
v 11.112889 -3.079644 -7.785876
v 11.112889 -3.079644 -7.843224
v 10.945626 -3.003181 -7.771540
v 10.902616 -2.869370 -7.814550
v 10.945626 -3.003181 -7.857561
v 10.859605 -3.003181 -7.771540
v 10.859605 -3.003181 -7.857561
v 10.931289 -3.079644 -7.785876
v 10.931289 -3.079644 -7.843224
v 10.873941 -3.079644 -7.785876
v 10.873941 -3.079644 -7.843224
v 11.423522 -3.003181 -7.771540
v 11.380511 -2.869370 -7.814550
v 11.423522 -3.003181 -7.857561
v 11.337502 -3.003181 -7.771540
v 11.337502 -3.003181 -7.857561
v 11.409186 -3.079644 -7.785876
v 11.409186 -3.079644 -7.843224
v 11.351838 -3.079644 -7.785876
v 11.351838 -3.079644 -7.843224
v 10.018506 -4.272284 -7.732352
v 10.018506 -4.272284 -7.896748
v 11.738935 -4.272284 -7.732352
v 11.738935 -4.272284 -7.896749
v 10.018506 -4.310515 -7.910129
v 11.738935 -4.310515 -7.910130
v 11.738935 -4.444326 -7.718972
v 10.018506 -4.444326 -7.718971
v 11.738935 -4.310515 -7.718971
v 10.018506 -4.310515 -7.718971
v 10.018506 -4.444326 -7.910129
v 11.738935 -4.444326 -7.910130
v 10.157097 -4.272284 -7.843224
v 10.214444 -4.272284 -7.843224
v 10.157097 -4.272284 -7.785876
v 10.214444 -4.272284 -7.785876
v 10.634993 -4.272284 -7.843224
v 10.692341 -4.272284 -7.843224
v 10.634993 -4.272284 -7.785876
v 10.692341 -4.272284 -7.785876
v 11.590787 -4.272284 -7.843224
v 11.648134 -4.272284 -7.843224
v 11.590787 -4.272284 -7.785877
v 11.648134 -4.272284 -7.785877
v 10.396045 -4.272284 -7.843224
v 10.453392 -4.272284 -7.843224
v 10.396045 -4.272284 -7.785876
v 10.453392 -4.272284 -7.785876
v 11.112889 -4.272284 -7.843224
v 11.170237 -4.272284 -7.843224
v 11.112889 -4.272284 -7.785876
v 11.170237 -4.272284 -7.785876
v 10.873941 -4.272284 -7.843224
v 10.931289 -4.272284 -7.843224
v 10.873941 -4.272284 -7.785876
v 10.931289 -4.272284 -7.785876
v 11.351838 -4.272284 -7.843224
v 11.409186 -4.272284 -7.843224
v 11.351838 -4.272284 -7.785877
v 11.409186 -4.272284 -7.785877
v 10.001302 -3.251687 -7.800213
v 10.001302 -3.309035 -7.800213
v 10.001302 -3.251687 -7.828887
v 10.001302 -3.309035 -7.828887
v 11.738935 -3.309035 -7.800213
v 11.738935 -3.251687 -7.800213
v 11.738935 -3.309035 -7.828887
v 11.738935 -3.251687 -7.828887
v 11.738935 -4.042893 -7.800213
v 11.738935 -3.985545 -7.800213
v 11.738935 -4.042893 -7.828887
v 11.738935 -3.985545 -7.828887
v 10.001302 -3.985545 -7.800213
v 10.001302 -4.042893 -7.800213
v 10.001302 -3.985545 -7.828887
v 10.001302 -4.042893 -7.828887
vn 0.9837 -0.1800 -0.0000
vn 1.0000 -0.0000 -0.0000
vn -1.0000 -0.0000 -0.0000
vn -0.9837 -0.1800 -0.0000
vn -0.0000 -0.0000 -1.0000
vn -0.0000 0.1800 -0.9837
vn 0.9119 -0.4103 -0.0000
vn 0.9837 -0.1801 -0.0000
vn 0.9836 -0.1801 -0.0000
vn 0.9119 -0.4104 -0.0000
vn -0.9837 0.1800 -0.0000
vn 0.9836 0.1801 -0.0000
vn 0.9119 0.4103 -0.0000
vn 0.9119 0.4104 -0.0000
vn -0.0000 -0.0000 1.0000
vn -0.0000 0.1800 0.9837
vn -0.0000 -0.1801 -0.9836
vn -0.0000 -0.4104 -0.9119
vn -0.0000 -0.4103 -0.9119
vn -0.0000 -0.1801 -0.9837
vn -0.0000 0.4104 0.9119
vn -0.0000 0.1801 0.9836
vn -0.0000 0.1801 0.9837
vn -0.0000 0.4103 0.9119
vn -0.9836 -0.1801 -0.0000
vn -0.9119 -0.4104 -0.0000
vn -0.9119 0.4104 -0.0000
vn -0.9836 0.1801 -0.0000
vn -0.0000 -0.1801 0.9836
vn -0.0000 -0.4104 0.9119
vn -0.0000 -0.1800 -0.9837
vn -0.0000 -0.1800 0.9837
vn -0.0000 0.4103 -0.9119
vn -0.0000 0.1801 -0.9837
vn -0.0000 0.1801 -0.9836
vn -0.0000 0.4104 -0.9119
vn -0.0000 1.0000 -0.0000
vn -0.0000 -1.0000 -0.0000
vn 0.9837 0.1800 -0.0000
vn 0.9987 0.0519 -0.0000
vn 0.9520 0.3060 -0.0000
vn -0.0000 0.3060 0.9520
vn -0.0000 0.0519 0.9987
vn -0.9987 0.0519 -0.0000
vn -0.9520 0.3060 -0.0000
vn -0.0000 0.3060 -0.9520
vn -0.0000 0.0519 -0.9987
vn 0.9829 -0.1843 -0.0000
vn 0.9987 0.0518 -0.0000
vn -0.9987 0.0518 -0.0000
vn -0.9829 -0.1843 -0.0000
vn -0.0000 0.0518 0.9987
vn -0.0000 -0.1843 0.9829
vn -0.0000 0.0518 -0.9987
vn -0.0000 -0.1843 -0.9829
vn -0.0000 0.3304 -0.9439
vn -0.0000 0.1676 -0.9859
vn -0.0000 0.1675 0.9859
vn -0.0000 0.1675 -0.9859
vn -0.0000 0.3304 0.9439
vn -0.0000 0.1676 0.9859
vn 1.0000 -0.0000 -0.0001
vt 0.843750 0.212863
vt 0.843750 0.225000
vt 0.843750 0.025000
vt 0.843750 0.051702
vt 0.843750 0.208008
vt 0.843750 0.056557
vt 0.843750 0.198298
vt 0.843750 0.180556
vt 0.593750 0.448298
vt 0.593750 0.296847
vt 0.531250 0.375000
s 0
usemtl colormap
f 3/1/1 2/2/2 1/1/1
f 2/2/2 3/1/1 4/2/2
f 7/2/3 6/1/4 5/2/3
f 6/1/4 7/2/3 8/1/4
f 11/3/5 10/4/6 9/3/5
f 10/4/6 11/3/5 12/4/6
f 13/5/7 3/1/8 1/1/8
f 3/1/9 13/5/10 14/5/10
f 16/6/2 13/5/2 15/6/2
f 13/5/2 16/6/2 14/5/2
f 18/4/11 11/3/3 17/3/3
f 11/3/3 18/4/11 12/4/11
f 10/4/12 15/6/13 19/4/12
f 15/6/14 10/4/12 16/6/14
f 13/5/15 20/6/15 15/6/15
f 20/6/15 13/5/15 21/5/15
f 19/4/16 17/3/15 22/3/15
f 17/3/15 19/4/16 18/4/16
f 8/1/17 14/5/18 23/5/18
f 14/5/19 8/1/20 3/1/20
f 15/6/21 18/4/22 19/4/22
f 18/4/23 15/6/24 20/6/24
f 8/1/25 21/5/26 6/1/25
f 21/5/26 8/1/25 23/5/26
f 20/6/27 12/4/28 18/4/28
f 12/4/28 20/6/27 24/6/27
f 23/5/5 16/6/5 24/6/5
f 16/6/5 23/5/5 14/5/5
f 23/5/3 20/6/3 21/5/3
f 20/6/3 23/5/3 24/6/3
f 1/1/29 21/5/30 13/5/30
f 21/5/30 1/1/29 6/1/29
f 7/2/5 3/1/31 8/1/31
f 3/1/31 7/2/5 4/2/5
f 2/2/15 6/1/32 1/1/32
f 6/1/32 2/2/15 5/2/15
f 24/6/33 10/4/34 12/4/34
f 10/4/35 24/6/36 16/6/36
f 2/2/37 7/2/37 5/2/37
f 7/2/37 2/2/37 4/2/37
f 9/3/38 17/3/38 11/3/38
f 17/3/38 9/3/38 22/3/38
f 9/3/2 19/4/39 22/3/2
f 19/4/39 9/3/2 10/4/39
f 27/5/40 26/2/41 25/5/40
f 26/2/42 28/5/43 25/5/43
f 29/5/44 28/5/44 26/2/45
f 26/2/46 27/5/47 29/5/47
f 30/7/48 27/5/49 25/5/49
f 27/5/49 30/7/48 31/7/48
f 29/5/50 32/7/51 28/5/50
f 32/7/51 29/5/50 33/7/51
f 25/5/52 32/7/53 30/7/53
f 32/7/53 25/5/52 28/5/52
f 29/5/54 31/7/55 33/7/55
f 31/7/55 29/5/54 27/5/54
f 36/5/40 35/2/41 34/5/40
f 35/2/42 37/5/43 34/5/43
f 38/5/44 37/5/44 35/2/45
f 35/2/46 36/5/47 38/5/47
f 39/7/48 36/5/49 34/5/49
f 36/5/49 39/7/48 40/7/48
f 38/5/50 41/7/51 37/5/50
f 41/7/51 38/5/50 42/7/51
f 34/5/52 41/7/53 39/7/53
f 41/7/53 34/5/52 37/5/52
f 38/5/54 40/7/55 42/7/55
f 40/7/55 38/5/54 36/5/54
f 45/5/40 44/2/41 43/5/40
f 44/2/42 46/5/43 43/5/43
f 47/5/44 46/5/44 44/2/45
f 44/2/46 45/5/47 47/5/47
f 48/7/48 45/5/49 43/5/49
f 45/5/49 48/7/48 49/7/48
f 47/5/50 50/7/51 46/5/50
f 50/7/51 47/5/50 51/7/51
f 43/5/52 50/7/53 48/7/53
f 50/7/53 43/5/52 46/5/52
f 47/5/54 49/7/55 51/7/55
f 49/7/55 47/5/54 45/5/54
f 54/5/40 53/2/41 52/5/40
f 53/2/42 55/5/43 52/5/43
f 56/5/44 55/5/44 53/2/45
f 53/2/46 54/5/47 56/5/47
f 57/7/48 54/5/49 52/5/49
f 54/5/49 57/7/48 58/7/48
f 56/5/50 59/7/51 55/5/50
f 59/7/51 56/5/50 60/7/51
f 52/5/52 59/7/53 57/7/53
f 59/7/53 52/5/52 55/5/52
f 56/5/54 58/7/55 60/7/55
f 58/7/55 56/5/54 54/5/54
f 63/5/40 62/2/41 61/5/40
f 62/2/42 64/5/43 61/5/43
f 65/5/44 64/5/44 62/2/45
f 62/2/46 63/5/47 65/5/47
f 66/7/48 63/5/49 61/5/49
f 63/5/49 66/7/48 67/7/48
f 65/5/50 68/7/51 64/5/50
f 68/7/51 65/5/50 69/7/51
f 61/5/52 68/7/53 66/7/53
f 68/7/53 61/5/52 64/5/52
f 65/5/54 67/7/55 69/7/55
f 67/7/55 65/5/54 63/5/54
f 72/5/40 71/2/41 70/5/40
f 71/2/42 73/5/43 70/5/43
f 74/5/44 73/5/44 71/2/45
f 71/2/46 72/5/47 74/5/47
f 75/7/48 72/5/49 70/5/49
f 72/5/49 75/7/48 76/7/48
f 74/5/50 77/7/51 73/5/50
f 77/7/51 74/5/50 78/7/51
f 70/5/52 77/7/53 75/7/53
f 77/7/53 70/5/52 73/5/52
f 74/5/54 76/7/55 78/7/55
f 76/7/55 74/5/54 72/5/54
f 81/5/40 80/2/41 79/5/40
f 80/2/42 82/5/43 79/5/43
f 83/5/44 82/5/44 80/2/45
f 80/2/46 81/5/47 83/5/47
f 84/7/48 81/5/49 79/5/49
f 81/5/49 84/7/48 85/7/48
f 83/5/50 86/7/51 82/5/50
f 86/7/51 83/5/50 87/7/51
f 79/5/52 86/7/53 84/7/53
f 86/7/53 79/5/52 82/5/52
f 83/5/54 85/7/55 87/7/55
f 85/7/55 83/5/54 81/5/54
f 90/2/37 89/2/37 88/2/37
f 89/2/37 90/2/37 91/2/37
f 89/2/56 93/8/57 92/8/57
f 93/8/57 89/2/56 91/2/56
f 96/8/58 95/3/15 94/3/15
f 95/3/15 96/8/58 97/8/58
f 99/3/38 95/3/38 98/3/38
f 95/3/38 99/3/38 94/3/38
f 88/2/3 95/3/3 97/8/3
f 95/3/3 88/2/3 98/3/3
f 98/3/3 88/2/3 89/2/3
f 98/3/3 89/2/3 92/8/3
f 92/8/59 99/3/5 98/3/5
f 99/3/5 92/8/59 93/8/59
f 90/2/60 97/8/61 96/8/61
f 97/8/61 90/2/60 88/2/60
f 99/3/2 96/8/2 94/3/2
f 96/8/2 99/3/2 90/2/2
f 90/2/2 99/3/2 91/2/2
f 91/2/62 99/3/62 93/8/62
f 33/9/5 101/10/5 100/10/5
f 101/10/5 33/9/5 31/9/5
f 101/10/38 102/10/38 100/10/38
f 102/10/38 101/10/38 103/10/38
f 30/9/15 102/10/15 103/10/15
f 102/10/15 30/9/15 32/9/15
f 101/10/2 30/9/2 103/10/2
f 30/9/2 101/10/2 31/9/2
f 33/9/3 102/10/3 32/9/3
f 102/10/3 33/9/3 100/10/3
f 42/9/5 105/10/5 104/10/5
f 105/10/5 42/9/5 40/9/5
f 105/10/38 106/10/38 104/10/38
f 106/10/38 105/10/38 107/10/38
f 39/9/15 106/10/15 107/10/15
f 106/10/15 39/9/15 41/9/15
f 105/10/2 39/9/2 107/10/2
f 39/9/2 105/10/2 40/9/2
f 42/9/3 106/10/3 41/9/3
f 106/10/3 42/9/3 104/10/3
f 51/9/5 109/10/5 108/10/5
f 109/10/5 51/9/5 49/9/5
f 109/10/38 110/10/38 108/10/38
f 110/10/38 109/10/38 111/10/38
f 48/9/15 110/10/15 111/10/15
f 110/10/15 48/9/15 50/9/15
f 109/10/2 48/9/2 111/10/2
f 48/9/2 109/10/2 49/9/2
f 51/9/3 110/10/3 50/9/3
f 110/10/3 51/9/3 108/10/3
f 60/9/5 113/10/5 112/10/5
f 113/10/5 60/9/5 58/9/5
f 113/10/38 114/10/38 112/10/38
f 114/10/38 113/10/38 115/10/38
f 57/9/15 114/10/15 115/10/15
f 114/10/15 57/9/15 59/9/15
f 113/10/2 57/9/2 115/10/2
f 57/9/2 113/10/2 58/9/2
f 60/9/3 114/10/3 59/9/3
f 114/10/3 60/9/3 112/10/3
f 69/9/5 117/10/5 116/10/5
f 117/10/5 69/9/5 67/9/5
f 117/10/38 118/10/38 116/10/38
f 118/10/38 117/10/38 119/10/38
f 66/9/15 118/10/15 119/10/15
f 118/10/15 66/9/15 68/9/15
f 117/10/2 66/9/2 119/10/2
f 66/9/2 117/10/2 67/9/2
f 69/9/3 118/10/3 68/9/3
f 118/10/3 69/9/3 116/10/3
f 78/9/5 121/10/5 120/10/5
f 121/10/5 78/9/5 76/9/5
f 121/10/38 122/10/38 120/10/38
f 122/10/38 121/10/38 123/10/38
f 75/9/15 122/10/15 123/10/15
f 122/10/15 75/9/15 77/9/15
f 121/10/2 75/9/2 123/10/2
f 75/9/2 121/10/2 76/9/2
f 78/9/3 122/10/3 77/9/3
f 122/10/3 78/9/3 120/10/3
f 87/9/5 125/10/5 124/10/5
f 125/10/5 87/9/5 85/9/5
f 125/10/38 126/10/38 124/10/38
f 126/10/38 125/10/38 127/10/38
f 84/9/15 126/10/15 127/10/15
f 126/10/15 84/9/15 86/9/15
f 125/10/2 84/9/2 127/10/2
f 84/9/2 125/10/2 85/9/2
f 87/9/3 126/10/3 86/9/3
f 126/10/3 87/9/3 124/10/3
f 130/11/3 129/11/3 128/11/3
f 129/11/3 130/11/3 131/11/3
f 134/11/2 133/11/2 132/11/2
f 133/11/2 134/11/2 135/11/2
f 130/11/5 134/11/5 131/11/5
f 134/11/5 130/11/5 135/11/5
f 134/11/38 129/11/38 131/11/38
f 129/11/38 134/11/38 132/11/38
f 133/11/37 130/11/37 128/11/37
f 130/11/37 133/11/37 135/11/37
f 133/11/15 129/11/15 132/11/15
f 129/11/15 133/11/15 128/11/15
f 138/11/2 137/11/2 136/11/2
f 137/11/2 138/11/2 139/11/2
f 142/11/3 141/11/3 140/11/3
f 141/11/3 142/11/3 143/11/3
f 137/11/37 142/11/37 140/11/37
f 142/11/37 137/11/37 139/11/37
f 137/11/15 141/11/15 136/11/15
f 141/11/15 137/11/15 140/11/15
f 138/11/38 141/11/38 143/11/38
f 141/11/38 138/11/38 136/11/38
f 142/11/5 138/11/5 143/11/5
f 138/11/5 142/11/5 139/11/5
f 3/1/1 2/2/2 1/1/1
f 2/2/2 3/1/1 4/2/2
f 7/2/3 6/1/4 5/2/3
f 6/1/4 7/2/3 8/1/4
f 11/3/5 10/4/6 9/3/5
f 10/4/6 11/3/5 12/4/6
f 13/5/7 3/1/8 1/1/8
f 3/1/9 13/5/10 14/5/10
f 16/6/2 13/5/2 15/6/2
f 13/5/2 16/6/2 14/5/2
f 18/4/11 11/3/3 17/3/3
f 11/3/3 18/4/11 12/4/11
f 10/4/12 15/6/13 19/4/12
f 15/6/14 10/4/12 16/6/14
f 13/5/15 20/6/15 15/6/15
f 20/6/15 13/5/15 21/5/15
f 19/4/16 17/3/15 22/3/15
f 17/3/15 19/4/16 18/4/16
f 8/1/17 14/5/18 23/5/18
f 14/5/19 8/1/20 3/1/20
f 15/6/21 18/4/22 19/4/22
f 18/4/23 15/6/24 20/6/24
f 8/1/25 21/5/26 6/1/25
f 21/5/26 8/1/25 23/5/26
f 20/6/27 12/4/28 18/4/28
f 12/4/28 20/6/27 24/6/27
f 23/5/5 16/6/5 24/6/5
f 16/6/5 23/5/5 14/5/5
f 23/5/3 20/6/3 21/5/3
f 20/6/3 23/5/3 24/6/3
f 1/1/29 21/5/30 13/5/30
f 21/5/30 1/1/29 6/1/29
f 7/2/5 3/1/31 8/1/31
f 3/1/31 7/2/5 4/2/5
f 2/2/15 6/1/32 1/1/32
f 6/1/32 2/2/15 5/2/15
f 24/6/33 10/4/34 12/4/34
f 10/4/35 24/6/36 16/6/36
f 2/2/37 7/2/37 5/2/37
f 7/2/37 2/2/37 4/2/37
f 9/3/38 17/3/38 11/3/38
f 17/3/38 9/3/38 22/3/38
f 9/3/2 19/4/39 22/3/2
f 19/4/39 9/3/2 10/4/39
f 27/5/40 26/2/41 25/5/40
f 26/2/42 28/5/43 25/5/43
f 29/5/44 28/5/44 26/2/45
f 26/2/46 27/5/47 29/5/47
f 30/7/48 27/5/49 25/5/49
f 27/5/49 30/7/48 31/7/48
f 29/5/50 32/7/51 28/5/50
f 32/7/51 29/5/50 33/7/51
f 25/5/52 32/7/53 30/7/53
f 32/7/53 25/5/52 28/5/52
f 29/5/54 31/7/55 33/7/55
f 31/7/55 29/5/54 27/5/54
f 36/5/40 35/2/41 34/5/40
f 35/2/42 37/5/43 34/5/43
f 38/5/44 37/5/44 35/2/45
f 35/2/46 36/5/47 38/5/47
f 39/7/48 36/5/49 34/5/49
f 36/5/49 39/7/48 40/7/48
f 38/5/50 41/7/51 37/5/50
f 41/7/51 38/5/50 42/7/51
f 34/5/52 41/7/53 39/7/53
f 41/7/53 34/5/52 37/5/52
f 38/5/54 40/7/55 42/7/55
f 40/7/55 38/5/54 36/5/54
f 45/5/40 44/2/41 43/5/40
f 44/2/42 46/5/43 43/5/43
f 47/5/44 46/5/44 44/2/45
f 44/2/46 45/5/47 47/5/47
f 48/7/48 45/5/49 43/5/49
f 45/5/49 48/7/48 49/7/48
f 47/5/50 50/7/51 46/5/50
f 50/7/51 47/5/50 51/7/51
f 43/5/52 50/7/53 48/7/53
f 50/7/53 43/5/52 46/5/52
f 47/5/54 49/7/55 51/7/55
f 49/7/55 47/5/54 45/5/54
f 54/5/40 53/2/41 52/5/40
f 53/2/42 55/5/43 52/5/43
f 56/5/44 55/5/44 53/2/45
f 53/2/46 54/5/47 56/5/47
f 57/7/48 54/5/49 52/5/49
f 54/5/49 57/7/48 58/7/48
f 56/5/50 59/7/51 55/5/50
f 59/7/51 56/5/50 60/7/51
f 52/5/52 59/7/53 57/7/53
f 59/7/53 52/5/52 55/5/52
f 56/5/54 58/7/55 60/7/55
f 58/7/55 56/5/54 54/5/54
f 63/5/40 62/2/41 61/5/40
f 62/2/42 64/5/43 61/5/43
f 65/5/44 64/5/44 62/2/45
f 62/2/46 63/5/47 65/5/47
f 66/7/48 63/5/49 61/5/49
f 63/5/49 66/7/48 67/7/48
f 65/5/50 68/7/51 64/5/50
f 68/7/51 65/5/50 69/7/51
f 61/5/52 68/7/53 66/7/53
f 68/7/53 61/5/52 64/5/52
f 65/5/54 67/7/55 69/7/55
f 67/7/55 65/5/54 63/5/54
f 72/5/40 71/2/41 70/5/40
f 71/2/42 73/5/43 70/5/43
f 74/5/44 73/5/44 71/2/45
f 71/2/46 72/5/47 74/5/47
f 75/7/48 72/5/49 70/5/49
f 72/5/49 75/7/48 76/7/48
f 74/5/50 77/7/51 73/5/50
f 77/7/51 74/5/50 78/7/51
f 70/5/52 77/7/53 75/7/53
f 77/7/53 70/5/52 73/5/52
f 74/5/54 76/7/55 78/7/55
f 76/7/55 74/5/54 72/5/54
f 81/5/40 80/2/41 79/5/40
f 80/2/42 82/5/43 79/5/43
f 83/5/44 82/5/44 80/2/45
f 80/2/46 81/5/47 83/5/47
f 84/7/48 81/5/49 79/5/49
f 81/5/49 84/7/48 85/7/48
f 83/5/50 86/7/51 82/5/50
f 86/7/51 83/5/50 87/7/51
f 79/5/52 86/7/53 84/7/53
f 86/7/53 79/5/52 82/5/52
f 83/5/54 85/7/55 87/7/55
f 85/7/55 83/5/54 81/5/54
f 90/2/37 89/2/37 88/2/37
f 89/2/37 90/2/37 91/2/37
f 89/2/56 93/8/57 92/8/57
f 93/8/57 89/2/56 91/2/56
f 96/8/58 95/3/15 94/3/15
f 95/3/15 96/8/58 97/8/58
f 99/3/38 95/3/38 98/3/38
f 95/3/38 99/3/38 94/3/38
f 88/2/3 95/3/3 97/8/3
f 95/3/3 88/2/3 98/3/3
f 98/3/3 88/2/3 89/2/3
f 98/3/3 89/2/3 92/8/3
f 92/8/59 99/3/5 98/3/5
f 99/3/5 92/8/59 93/8/59
f 90/2/60 97/8/61 96/8/61
f 97/8/61 90/2/60 88/2/60
f 99/3/2 96/8/2 94/3/2
f 96/8/2 99/3/2 90/2/2
f 90/2/2 99/3/2 91/2/2
f 91/2/62 99/3/62 93/8/62
f 33/9/5 101/10/5 100/10/5
f 101/10/5 33/9/5 31/9/5
f 101/10/38 102/10/38 100/10/38
f 102/10/38 101/10/38 103/10/38
f 30/9/15 102/10/15 103/10/15
f 102/10/15 30/9/15 32/9/15
f 101/10/2 30/9/2 103/10/2
f 30/9/2 101/10/2 31/9/2
f 33/9/3 102/10/3 32/9/3
f 102/10/3 33/9/3 100/10/3
f 42/9/5 105/10/5 104/10/5
f 105/10/5 42/9/5 40/9/5
f 105/10/38 106/10/38 104/10/38
f 106/10/38 105/10/38 107/10/38
f 39/9/15 106/10/15 107/10/15
f 106/10/15 39/9/15 41/9/15
f 105/10/2 39/9/2 107/10/2
f 39/9/2 105/10/2 40/9/2
f 42/9/3 106/10/3 41/9/3
f 106/10/3 42/9/3 104/10/3
f 51/9/5 109/10/5 108/10/5
f 109/10/5 51/9/5 49/9/5
f 109/10/38 110/10/38 108/10/38
f 110/10/38 109/10/38 111/10/38
f 48/9/15 110/10/15 111/10/15
f 110/10/15 48/9/15 50/9/15
f 109/10/2 48/9/2 111/10/2
f 48/9/2 109/10/2 49/9/2
f 51/9/3 110/10/3 50/9/3
f 110/10/3 51/9/3 108/10/3
f 60/9/5 113/10/5 112/10/5
f 113/10/5 60/9/5 58/9/5
f 113/10/38 114/10/38 112/10/38
f 114/10/38 113/10/38 115/10/38
f 57/9/15 114/10/15 115/10/15
f 114/10/15 57/9/15 59/9/15
f 113/10/2 57/9/2 115/10/2
f 57/9/2 113/10/2 58/9/2
f 60/9/3 114/10/3 59/9/3
f 114/10/3 60/9/3 112/10/3
f 69/9/5 117/10/5 116/10/5
f 117/10/5 69/9/5 67/9/5
f 117/10/38 118/10/38 116/10/38
f 118/10/38 117/10/38 119/10/38
f 66/9/15 118/10/15 119/10/15
f 118/10/15 66/9/15 68/9/15
f 117/10/2 66/9/2 119/10/2
f 66/9/2 117/10/2 67/9/2
f 69/9/3 118/10/3 68/9/3
f 118/10/3 69/9/3 116/10/3
f 78/9/5 121/10/5 120/10/5
f 121/10/5 78/9/5 76/9/5
f 121/10/38 122/10/38 120/10/38
f 122/10/38 121/10/38 123/10/38
f 75/9/15 122/10/15 123/10/15
f 122/10/15 75/9/15 77/9/15
f 121/10/2 75/9/2 123/10/2
f 75/9/2 121/10/2 76/9/2
f 78/9/3 122/10/3 77/9/3
f 122/10/3 78/9/3 120/10/3
f 87/9/5 125/10/5 124/10/5
f 125/10/5 87/9/5 85/9/5
f 125/10/38 126/10/38 124/10/38
f 126/10/38 125/10/38 127/10/38
f 84/9/15 126/10/15 127/10/15
f 126/10/15 84/9/15 86/9/15
f 125/10/2 84/9/2 127/10/2
f 84/9/2 125/10/2 85/9/2
f 87/9/3 126/10/3 86/9/3
f 126/10/3 87/9/3 124/10/3
f 130/11/3 129/11/3 128/11/3
f 129/11/3 130/11/3 131/11/3
f 134/11/2 133/11/2 132/11/2
f 133/11/2 134/11/2 135/11/2
f 130/11/5 134/11/5 131/11/5
f 134/11/5 130/11/5 135/11/5
f 134/11/38 129/11/38 131/11/38
f 129/11/38 134/11/38 132/11/38
f 133/11/37 130/11/37 128/11/37
f 130/11/37 133/11/37 135/11/37
f 133/11/15 129/11/15 132/11/15
f 129/11/15 133/11/15 128/11/15
f 138/11/2 137/11/2 136/11/2
f 137/11/2 138/11/2 139/11/2
f 142/11/3 141/11/3 140/11/3
f 141/11/3 142/11/3 143/11/3
f 137/11/37 142/11/37 140/11/37
f 142/11/37 137/11/37 139/11/37
f 137/11/15 141/11/15 136/11/15
f 141/11/15 137/11/15 140/11/15
f 138/11/38 141/11/38 143/11/38
f 141/11/38 138/11/38 136/11/38
f 142/11/5 138/11/5 143/11/5
f 138/11/5 142/11/5 139/11/5
