# Blender 4.1.1
# www.blender.org
mtllib canoe_paddle.mtl
o canoe_paddle
v 0.015722 0.025450 -0.061158
v 0.015722 0.025451 0.334765
v -0.015722 0.025450 -0.061158
v -0.015722 0.025451 0.334765
v 0.015722 0.010654 0.334765
v -0.015722 0.010654 0.334765
v 0.038361 -0.000000 -0.100000
v -0.038361 -0.000000 -0.100000
v 0.015722 0.010654 -0.061158
v -0.015722 0.010654 -0.061158
v 0.000000 0.026104 -0.255427
v 0.000000 0.010000 -0.255427
v 0.038361 0.036104 -0.205427
v 0.038361 -0.000000 -0.205427
v -0.038361 -0.000000 -0.205427
v -0.038361 0.036104 -0.205427
v -0.038361 0.036104 -0.100000
v 0.038361 0.036104 -0.100000
vn -0.0000 1.0000 -0.0000
vn -0.0000 -0.0000 1.0000
vn -0.0000 -0.9644 0.2645
vn 0.7934 -0.0000 -0.6087
vn -1.0000 -0.0000 -0.0000
vn 0.8640 -0.0000 0.5036
vn -0.0000 -0.9806 -0.1961
vn -0.0000 0.9644 0.2645
vn -0.7934 -0.0000 -0.6087
vn -0.0000 -1.0000 -0.0000
vn 1.0000 -0.0000 -0.0000
vn -0.8640 -0.0000 0.5036
vn -0.0000 0.9806 -0.1961
vt 0.618961 -2.407811
vt -0.618961 13.179720
vt -0.618961 -2.407811
vt 0.618961 13.179720
vt 0.618961 1.001988
vt -0.618961 0.419437
vt 0.618961 0.419437
vt -0.618961 1.001988
vt 0.618961 -2.211100
vt -1.510264 -3.796777
vt 1.510264 -3.796777
vt -0.618961 -2.211100
vt 5.497437 1.421425
vt 7.978547 0.393701
vt 7.978547 1.027724
vt 5.497437 0.000000
vt -3.937008 0.000000
vt -8.087686 1.421425
vt -8.087686 0.000000
vt -3.937008 1.421425
vt 2.391934 1.001988
vt 4.161923 -0.000000
vt 4.161923 1.421425
vt 2.391934 0.419437
vt 1.510264 7.930628
vt 0.000000 9.938116
vt -1.510264 7.930628
vt 1.510264 -8.087686
vt -1.510264 -3.937008
vt -1.510264 -8.087686
vt 1.510264 -3.937008
vt -1.510264 4.172766
vt 0.618961 2.587090
vt 1.510264 4.172766
vt -0.618961 2.587090
vt -5.497437 0.000000
vt -7.978547 1.027724
vt -7.978547 0.393701
vt -5.497437 1.421425
vt -13.179720 1.001988
vt 2.407811 0.419437
vt 2.407811 1.001988
vt -13.179720 0.419437
vt -2.391934 0.419437
vt -4.161923 1.421425
vt -4.161923 -0.000000
vt -2.391934 1.001988
vt 3.937008 1.421425
vt 8.087686 0.000000
vt 8.087686 1.421425
vt 3.937008 0.000000
vt 1.510264 -7.651864
vt -1.510264 -7.651864
vt 0.000000 -9.659351
vt 13.179720 0.419437
vt -2.407811 1.001988
vt -2.407811 0.419437
vt 13.179720 1.001988
s 0
usemtl wood.011
f 3/1/1 2/2/1 1/3/1
f 2/2/1 3/1/1 4/4/1
f 2/5/2 6/6/2 5/7/2
f 6/6/2 2/5/2 4/8/2
f 9/9/3 8/10/3 7/11/3
f 8/10/3 9/9/3 10/12/3
f 13/13/4 12/14/4 11/15/4
f 12/14/4 13/13/4 14/16/4
f 8/17/5 16/18/5 15/19/5
f 16/18/5 8/17/5 17/20/5
f 1/21/6 7/22/6 18/23/6
f 7/22/6 1/21/6 9/24/6
f 15/25/7 12/26/7 14/27/7
f 16/28/1 18/29/1 13/30/1
f 18/29/1 16/28/1 17/31/1
f 17/32/8 1/33/8 18/34/8
f 1/33/8 17/32/8 3/35/8
f 15/36/9 11/37/9 12/38/9
f 11/37/9 15/36/9 16/39/9
f 6/2/10 9/1/10 5/4/10
f 9/1/10 6/2/10 10/3/10
f 2/40/11 9/41/11 1/42/11
f 9/41/11 2/40/11 5/43/11
f 10/44/12 17/45/12 8/46/12
f 17/45/12 10/44/12 3/47/12
f 8/29/10 14/28/10 7/31/10
f 14/28/10 8/29/10 15/30/10
f 18/48/11 14/49/11 13/50/11
f 14/49/11 18/48/11 7/51/11
f 16/52/13 13/53/13 11/54/13
f 6/55/5 3/56/5 10/57/5
f 3/56/5 6/55/5 4/58/5
