# Blender 4.1.1
# www.blender.org
mtllib tree.072.mtl
o tree.063
v 5.245557 -0.217703 -16.133400
v 5.391700 -0.217703 -16.241129
v 5.118621 -0.217703 -16.152607
v 5.410907 -0.217703 -16.368063
v 5.010893 -0.217703 -16.298752
v 5.303179 -0.217703 -16.514208
v 5.030100 -0.217703 -16.425686
v 5.176243 -0.217703 -16.533415
v 5.301300 0.111018 -16.287268
v 5.228228 0.111018 -16.233404
v 5.164761 0.111018 -16.243008
v 5.310904 0.111018 -16.350737
v 5.257040 0.111018 -16.423807
v 5.193572 0.111018 -16.433411
v 5.120500 0.111018 -16.379547
v 5.110897 0.111018 -16.316078
v 5.189240 0.604137 -16.458412
v 5.097900 0.604137 -16.391083
v 5.085896 0.604137 -16.311747
v 5.323900 0.604137 -16.275732
v 5.232561 0.604137 -16.208403
v 5.268574 0.604137 -16.446407
v 5.335905 0.604137 -16.355066
v 5.153225 0.604137 -16.220407
v 5.335649 0.228384 -16.238956
v 5.266499 0.228384 -16.221849
v 5.372449 0.228384 -16.299950
v 5.355342 0.228384 -16.369099
v 5.205506 0.228384 -16.258650
v 5.294349 0.228384 -16.405901
v 5.188399 0.228384 -16.327799
v 5.225199 0.228384 -16.388792
v 5.366930 0.109101 -16.196522
v 5.424574 0.109101 -16.292063
v 5.258612 0.109101 -16.169724
v 5.163071 0.109101 -16.227367
v 5.397777 0.109101 -16.400381
v 5.136274 0.109101 -16.335686
v 5.302237 0.109101 -16.458025
v 5.193918 0.109101 -16.431227
v 5.024630 0.604137 -15.926181
v 4.756349 0.604137 -16.290129
v 5.098858 1.147643 -16.096046
v 4.940571 1.147643 -16.310778
v 5.655006 0.604137 -16.390856
v 5.473958 0.604137 -15.976544
v 5.470783 1.147643 -16.370207
v 5.363964 1.147643 -16.125761
v 5.386725 0.604137 -16.754805
v 5.312496 1.147643 -16.584938
v 5.047390 1.147643 -16.555223
v 4.937396 0.604137 -16.704439
v 5.360368 1.731559 -16.130640
v 5.101285 1.731559 -16.101599
v 5.241232 2.344026 -16.292257
v 5.181683 2.344026 -16.285583
v 5.170122 2.344026 -16.388725
v 5.146128 2.344026 -16.333818
v 5.050986 1.731559 -16.550346
v 4.946594 1.731559 -16.311453
v 5.310070 1.731559 -16.579386
v 5.464761 1.731559 -16.369532
v 5.229671 2.344026 -16.395401
v 5.265227 2.344026 -16.347168
v 5.542516 1.147643 -16.193300
v 5.246624 1.147643 -15.975185
v 5.360021 1.731559 -16.273046
v 5.224439 1.731559 -16.173103
v 5.501570 1.147643 -16.558607
v 5.341259 1.731559 -16.440435
v 4.909785 1.147643 -16.122377
v 5.070096 1.731559 -16.240549
v 4.868838 1.147643 -16.487686
v 5.051334 1.731559 -16.407938
v 5.164731 1.147643 -16.705801
v 5.186915 1.731559 -16.507879
v 4.821147 0.434583 -16.057039
v 4.706923 0.519360 -16.284588
v 5.004714 0.519360 -15.880606
v 5.406641 0.519360 -16.800379
v 5.152465 0.434583 -16.815231
v 4.907885 0.519360 -16.744474
v 4.767935 0.434583 -16.531778
v 5.503469 0.519360 -15.936510
v 5.258890 0.434583 -15.865754
v 5.590207 0.434583 -16.623945
v 5.704432 0.519360 -16.396397
v 5.643419 0.434583 -16.149206
v 5.361195 1.009795 -16.696381
v 5.534118 1.078719 -16.582600
v 5.160227 1.078719 -16.745985
v 5.579569 1.078719 -16.177107
v 5.436127 1.009795 -16.027866
v 5.251128 1.078719 -15.935000
v 4.819711 1.009795 -16.297230
v 4.831786 1.078719 -16.503876
v 4.877236 1.078719 -16.098385
v 4.975228 1.009795 -16.653118
v 5.050160 1.009795 -15.984604
v 5.591644 1.009795 -16.383755
v 5.321553 1.682676 -16.605663
v 5.174995 1.633794 -16.614227
v 5.033970 1.682676 -16.573429
v 4.953274 1.633794 -16.450788
v 4.918094 1.682676 -16.308258
v 5.493260 1.682676 -16.372726
v 5.458080 1.633794 -16.230196
v 5.377385 1.682676 -16.107555
v 4.983957 1.633794 -16.177053
v 5.089802 1.682676 -16.075321
v 5.427398 1.633794 -16.503931
v 5.236360 1.633794 -16.066757
vn -0.0000 -1.0000 -0.0000
vn 0.8155 0.2942 0.4984
vn 0.2253 0.2944 0.9288
vn 0.8205 0.2944 0.4899
vn 0.2349 0.2942 0.9264
vn -0.4983 0.2942 0.8155
vn 0.2252 0.2944 0.9288
vn 0.2348 0.2942 0.9265
vn -0.4983 0.2943 0.8155
vn -0.4899 0.2944 0.8206
vn 0.9265 0.2942 -0.2348
vn 0.9288 0.2944 -0.2252
vn 0.8155 0.2942 0.4983
vn 0.4984 0.2942 -0.8155
vn 0.9288 0.2944 -0.2253
vn 0.4900 0.2944 -0.8205
vn 0.9287 0.2944 -0.2253
vn 0.9264 0.2942 -0.2349
vn -0.8205 0.2944 -0.4900
vn -0.2349 0.2942 -0.9264
vn -0.2253 0.2944 -0.9288
vn -0.2348 0.2942 -0.9264
vn -0.8155 0.2942 -0.4984
vn -0.4984 0.2942 0.8155
vn -0.9288 0.2944 0.2253
vn -0.4900 0.2944 0.8205
vn -0.9287 0.2944 0.2253
vn -0.9264 0.2942 0.2349
vn -0.2252 0.2944 -0.9288
vn 0.4983 0.2943 -0.8155
vn 0.4899 0.2944 -0.8206
vn 0.4983 0.2942 -0.8155
vn -0.2348 0.2942 -0.9265
vn -0.8205 0.2944 -0.4899
vn -0.9265 0.2942 0.2348
vn -0.8155 0.2942 -0.4983
vn -0.8206 0.2944 -0.4899
vn -0.9288 0.2944 0.2252
vn -0.2407 -0.0513 -0.9692
vn -0.8555 -0.0512 -0.5152
vn -0.2390 -0.0513 -0.9697
vn -0.8555 -0.0513 -0.5152
vn -0.2408 -0.0513 -0.9692
vn -0.8546 -0.0513 -0.5167
vn -0.9692 -0.0512 0.2407
vn -0.8556 -0.0513 -0.5152
vn -0.8546 -0.0512 -0.5167
vn -0.9692 -0.0513 0.2407
vn -0.9697 -0.0512 0.2390
vn 0.2390 -0.0512 0.9697
vn 0.8546 -0.0513 0.5167
vn 0.8555 -0.0513 0.5152
vn 0.2407 -0.0513 0.9692
vn 0.5152 -0.0513 -0.8555
vn 0.9692 -0.0513 -0.2408
vn 0.5167 -0.0513 -0.8546
vn 0.5152 -0.0512 -0.8555
vn 0.9697 -0.0513 -0.2390
vn 0.2390 -0.0513 0.9697
vn -0.5167 -0.0513 0.8546
vn -0.5152 -0.0513 0.8556
vn -0.2390 -0.0512 -0.9697
vn 0.5152 -0.0513 -0.8556
vn 0.8556 -0.0513 0.5152
vn 0.9692 -0.0513 -0.2407
vn 0.9697 -0.0512 -0.2390
vn 0.9692 -0.0512 -0.2407
vn 0.8546 -0.0512 0.5167
vn -0.5152 -0.0513 0.8555
vn -0.9692 -0.0513 0.2408
vn -0.5152 -0.0512 0.8555
vn -0.9697 -0.0513 0.2390
vn -0.0000 1.0000 -0.0000
vn 0.9044 0.4042 0.1369
vn 0.5427 0.4042 0.7362
vn 0.5428 0.4042 0.7362
vn -0.7363 0.4042 0.5427
vn -0.9044 0.4042 -0.1368
vn -0.7362 0.4043 0.5427
vn -0.5427 0.4042 -0.7362
vn -0.9044 0.4042 -0.1369
vn -0.5427 0.4043 -0.7362
vn 0.7363 0.4042 -0.5427
vn 0.9044 0.4042 0.1368
vn 0.7363 0.4043 -0.5427
vn 0.9043 0.4043 0.1368
vn -0.1369 0.4042 0.9044
vn -0.7362 0.4042 0.5427
vn 0.1369 0.4042 -0.9044
vn 0.7362 0.4042 -0.5427
vn 0.7362 0.4043 -0.5427
vn -0.1368 0.4042 0.9044
vn 0.5427 0.4043 0.7363
vn 0.5427 0.4042 0.7363
vn -0.1368 0.4043 0.9044
vn -0.5427 0.4042 -0.7363
vn 0.1368 0.4042 -0.9044
vn -0.3790 0.3228 0.8673
vn -0.9406 0.3228 0.1054
vn 0.9406 0.3228 -0.1054
vn 0.5616 0.3228 0.7619
vn 0.5616 0.3228 0.7618
vn 0.3790 0.3228 -0.8673
vn -0.5616 0.3228 -0.7619
vn -0.5616 0.3228 -0.7618
vn 0.4081 0.7260 0.5536
vn -0.3805 0.3115 0.8708
vn 0.5638 0.3115 0.7649
vn -0.3805 0.3115 0.8707
vn -0.2754 0.7260 0.6302
vn -0.5638 0.3115 -0.7649
vn -0.6834 0.7260 0.0766
vn -0.4080 0.7260 -0.5536
vn -0.9443 0.3115 0.1058
vn 0.2753 0.7260 -0.6302
vn 0.9443 0.3115 -0.1059
vn 0.3805 0.3115 -0.8707
vn 0.6835 0.7260 -0.0766
vn 0.6834 0.7260 -0.0766
vn 0.9443 0.3115 -0.1058
vn 0.6835 0.7260 -0.0767
vn 0.4080 0.7260 0.5536
vn -0.2754 0.7259 0.6302
vn 0.6835 0.7259 -0.0766
vn -0.6835 0.7259 0.0766
vn 0.2754 0.7259 -0.6302
vn -0.4081 0.7259 -0.5536
vn -0.5638 0.3116 -0.7649
vn 0.2754 0.7260 -0.6302
vn 0.3805 0.3115 -0.8708
vn -0.4081 0.7260 -0.5535
vn -0.2753 0.7260 0.6302
vn -0.9443 0.3115 0.1059
vn -0.6835 0.7260 0.0766
vn 0.8673 0.3228 0.3790
vn 0.1054 0.3228 0.9406
vn 0.7618 0.3228 -0.5616
vn 0.7619 0.3228 -0.5616
vn -0.7618 0.3228 0.5616
vn -0.8673 0.3228 -0.3790
vn -0.7619 0.3228 0.5616
vn -0.1054 0.3228 -0.9406
vn -0.3454 0.5060 0.7904
vn -0.8571 0.5060 0.0961
vn -0.7176 0.4529 0.5290
vn -0.3454 0.5060 0.7903
vn -0.8572 0.5060 0.0961
vn 0.7176 -0.4529 -0.5290
vn 0.8572 -0.5060 -0.0961
vn 0.3454 -0.5060 -0.7904
vn 0.3454 -0.5060 -0.7903
vn -0.0993 0.4529 -0.8860
vn 0.3454 0.5060 -0.7904
vn 0.3454 0.5061 -0.7903
vn -0.0993 0.4530 -0.8860
vn -0.5118 0.5060 -0.6943
vn -0.5118 0.5061 -0.6943
vn -0.3454 -0.5060 0.7904
vn 0.0993 -0.4529 0.8860
vn 0.5118 -0.5060 0.6943
vn 0.0993 -0.4530 0.8860
vn 0.5118 -0.5061 0.6943
vn -0.8169 0.4530 -0.3570
vn 0.8571 -0.5060 -0.0961
vn 0.8169 -0.4530 0.3570
vn 0.5118 0.5060 0.6943
vn 0.0993 0.4530 0.8860
vn 0.0993 0.4529 0.8860
vn -0.5118 -0.5060 -0.6943
vn -0.0993 -0.4530 -0.8860
vn -0.0993 -0.4529 -0.8860
vn 0.8571 0.5060 -0.0961
vn 0.7176 0.4529 -0.5290
vn 0.8572 0.5060 -0.0961
vn -0.7176 -0.4529 0.5290
vn -0.8572 -0.5060 0.0961
vn -0.3454 -0.5060 0.7903
vn 0.8169 0.4530 0.3570
vn -0.8571 -0.5060 0.0961
vn -0.8169 -0.4530 -0.3570
vn -0.0961 0.5060 -0.8571
vn 0.6943 0.5060 -0.5118
vn 0.3570 0.4530 -0.8169
vn -0.0961 0.5060 -0.8572
vn -0.3570 -0.4530 0.8169
vn -0.6943 -0.5060 0.5118
vn 0.0961 -0.5060 0.8571
vn 0.0961 -0.5060 0.8572
vn 0.7903 0.5061 0.3454
vn 0.5290 0.4530 0.7176
vn 0.7904 0.5060 0.3454
vn 0.0961 0.5060 0.8571
vn 0.0961 0.5060 0.8572
vn -0.7903 -0.5061 -0.3454
vn -0.5290 -0.4530 -0.7176
vn -0.0961 -0.5060 -0.8572
vn -0.7904 -0.5060 -0.3454
vn -0.6943 0.5060 0.5118
vn -0.7903 0.5060 -0.3454
vn -0.8860 0.4530 0.0993
vn -0.7904 0.5060 -0.3454
vn 0.8860 -0.4530 -0.0993
vn 0.7904 -0.5060 0.3454
vn 0.6943 -0.5060 -0.5118
vn -0.5290 0.4530 -0.7176
vn -0.5290 0.4529 -0.7176
vn 0.5290 -0.4530 0.7176
vn 0.5290 -0.4529 0.7176
vn 0.7903 -0.5060 0.3454
vn -0.3570 0.4530 0.8169
vn 0.3570 -0.4530 -0.8169
vn -0.0961 -0.5060 -0.8571
vn -0.0961 -0.5061 -0.8571
vn 0.7903 0.5060 0.3454
vn 0.8860 0.4530 -0.0993
vn -0.8860 -0.4530 0.0993
vn 0.3454 0.5060 -0.7903
vn 0.8169 0.4529 0.3570
vn -0.8169 -0.4529 -0.3570
vn -0.7176 0.4530 0.5290
vn 0.7176 0.4530 -0.5290
vn -0.7176 -0.4530 0.5290
vn -0.3454 0.5061 0.7903
vn 0.3454 -0.5061 -0.7903
vt 0.593750 0.025000
vt 0.593750 0.104996
vt 0.593750 0.225000
vt 0.093750 0.475000
vt 0.093750 0.275000
vt 0.093750 0.425000
vt 0.093750 0.348778
vt 0.093750 0.338765
vt 0.093750 0.344099
vt 0.093750 0.375000
vt 0.093750 0.325000
s 0
usemtl colormap.002
f 3/1/1 2/1/1 1/1/1
f 2/1/1 3/1/1 4/1/1
f 4/1/1 3/1/1 5/1/1
f 4/1/1 5/1/1 6/1/1
f 6/1/1 5/1/1 7/1/1
f 6/1/1 7/1/1 8/1/1
f 9/2/2 1/1/3 2/1/4
f 1/1/3 9/2/2 10/2/5
f 11/2/6 1/1/7 10/2/8
f 1/1/7 11/2/9 3/1/10
f 12/2/11 2/1/4 4/1/12
f 2/1/4 12/2/11 9/2/13
f 13/2/14 4/1/15 6/1/16
f 4/1/17 13/2/14 12/2/18
f 7/1/19 14/2/20 8/1/21
f 14/2/22 7/1/19 15/2/23
f 11/2/24 5/1/25 3/1/26
f 5/1/27 11/2/24 16/2/28
f 8/1/29 13/2/30 6/1/31
f 13/2/32 8/1/29 14/2/33
f 7/1/34 16/2/35 15/2/36
f 16/2/35 7/1/37 5/1/38
f 14/2/39 18/3/40 17/3/41
f 18/3/42 14/2/43 15/2/44
f 16/2/45 18/3/46 15/2/47
f 18/3/46 16/2/48 19/3/49
f 21/3/50 9/2/51 20/3/52
f 9/2/51 21/3/50 10/2/53
f 22/3/54 12/2/55 13/2/56
f 12/2/55 22/3/57 23/3/58
f 21/3/59 11/2/60 10/2/53
f 11/2/60 21/3/50 24/3/61
f 13/2/56 17/3/62 22/3/63
f 17/3/41 13/2/56 14/2/39
f 20/3/64 12/2/65 23/3/66
f 12/2/67 20/3/64 9/2/68
f 24/3/69 16/2/70 11/2/60
f 16/2/48 24/3/71 19/3/72
f 27/4/73 26/4/73 25/4/73
f 26/4/73 27/4/73 28/4/73
f 26/4/73 28/4/73 29/4/73
f 29/4/73 28/4/73 30/4/73
f 29/4/73 30/4/73 31/4/73
f 31/4/73 30/4/73 32/4/73
f 35/5/1 34/5/1 33/5/1
f 34/5/1 35/5/1 36/5/1
f 34/5/1 36/5/1 37/5/1
f 37/5/1 36/5/1 38/5/1
f 37/5/1 38/5/1 39/5/1
f 39/5/1 38/5/1 40/5/1
f 27/4/74 33/5/75 34/5/74
f 33/5/76 27/4/74 25/4/75
f 29/4/77 38/5/78 36/5/79
f 38/5/78 29/4/77 31/4/78
f 40/5/80 31/4/81 32/4/82
f 31/4/81 40/5/80 38/5/81
f 28/4/83 34/5/84 37/5/83
f 34/5/84 28/4/85 27/4/86
f 26/4/87 36/5/88 35/5/87
f 36/5/77 26/4/87 29/4/88
f 30/4/89 37/5/90 39/5/89
f 37/5/90 30/4/89 28/4/91
f 26/4/92 33/5/93 25/4/94
f 33/5/94 26/4/95 35/5/92
f 40/5/96 30/4/97 39/5/97
f 30/4/97 40/5/82 32/4/96
f 43/6/98 42/7/99 41/7/98
f 42/7/99 43/6/98 44/6/99
f 47/6/100 46/7/101 45/7/100
f 46/7/101 47/6/100 48/6/102
f 50/6/103 45/7/100 49/7/103
f 45/7/100 50/6/103 47/6/100
f 48/6/101 41/7/98 46/7/101
f 41/7/98 48/6/101 43/6/98
f 52/7/104 44/6/99 51/6/105
f 44/6/99 52/7/104 42/7/99
f 52/7/104 50/6/103 49/7/103
f 50/6/103 52/7/105 51/6/104
f 41/7/1 45/7/1 46/7/1
f 45/7/1 41/7/1 42/7/1
f 45/7/1 42/7/1 49/7/1
f 49/7/1 42/7/1 52/7/1
f 55/6/106 54/8/107 53/8/108
f 54/8/109 55/6/106 56/6/110
f 59/8/111 58/6/112 57/6/113
f 58/6/112 59/8/111 60/8/114
f 63/6/115 62/8/116 61/8/117
f 62/8/116 63/6/115 64/6/118
f 64/6/119 53/8/108 62/8/120
f 53/8/108 64/6/121 55/6/122
f 64/6/118 56/6/123 55/6/122
f 56/6/123 64/6/124 58/6/125
f 58/6/125 64/6/124 63/6/126
f 58/6/125 63/6/126 57/6/127
f 59/8/128 63/6/129 61/8/130
f 63/6/115 59/8/111 57/6/131
f 54/8/1 62/8/1 53/8/1
f 62/8/1 54/8/1 60/8/1
f 62/8/1 60/8/1 61/8/1
f 61/8/1 60/8/1 59/8/1
f 56/6/132 60/8/133 54/8/109
f 60/8/114 56/6/110 58/6/134
f 67/6/135 66/9/136 65/9/135
f 66/9/136 67/6/135 68/6/136
f 70/6/137 65/9/135 69/9/138
f 65/9/135 70/6/138 67/6/135
f 68/6/136 71/9/139 66/9/136
f 71/9/139 68/6/136 72/6/139
f 72/6/139 73/9/140 71/9/141
f 73/9/140 72/6/141 74/6/140
f 71/9/1 65/9/1 66/9/1
f 65/9/1 71/9/1 69/9/1
f 69/9/1 71/9/1 73/9/1
f 69/9/1 73/9/1 75/9/1
f 76/6/142 69/9/137 75/9/142
f 69/9/137 76/6/142 70/6/137
f 73/9/140 76/6/142 75/9/142
f 76/6/142 73/9/140 74/6/140
f 79/10/143 78/10/144 77/11/145
f 78/10/144 79/10/146 41/6/143
f 78/10/147 41/6/143 42/6/147
f 77/11/148 78/10/149 79/10/150
f 41/6/151 79/10/150 78/10/149
f 42/6/149 41/6/150 78/10/149
f 81/11/152 49/6/153 80/10/153
f 49/6/154 81/11/155 52/6/156
f 52/6/157 81/11/155 82/10/156
f 80/10/158 49/6/158 81/11/159
f 52/6/160 81/11/161 49/6/158
f 82/10/160 81/11/161 52/6/162
f 82/10/156 42/6/147 52/6/156
f 42/6/147 82/10/156 83/11/163
f 42/6/144 83/11/163 78/10/147
f 52/6/160 42/6/164 82/10/160
f 83/11/165 82/10/160 42/6/149
f 78/10/149 83/11/165 42/6/164
f 46/6/166 85/11/167 84/10/166
f 85/11/167 46/6/166 41/6/146
f 85/11/168 41/6/143 79/10/143
f 84/10/169 85/11/170 46/6/169
f 41/6/150 46/6/169 85/11/170
f 79/10/150 41/6/150 85/11/171
f 80/10/153 87/10/172 86/11/173
f 87/10/174 80/10/153 49/6/153
f 87/10/174 49/6/153 45/6/174
f 86/11/175 87/10/176 80/10/158
f 49/6/158 80/10/158 87/10/176
f 45/6/176 49/6/177 87/10/176
f 45/6/172 88/11/178 87/10/174
f 88/11/178 45/6/174 46/6/166
f 88/11/178 46/6/166 84/10/166
f 87/10/179 88/11/180 45/6/179
f 46/6/169 45/6/176 88/11/180
f 84/10/169 46/6/169 88/11/180
f 91/10/181 90/10/182 89/11/183
f 90/10/182 91/10/184 75/6/184
f 90/10/182 75/6/184 69/6/182
f 89/11/185 90/10/186 91/10/187
f 75/6/187 91/10/188 90/10/186
f 69/6/186 75/6/188 90/10/186
f 65/6/189 93/11/190 92/10/191
f 93/11/190 65/6/191 66/6/192
f 93/11/190 66/6/192 94/10/193
f 92/10/194 93/11/195 65/6/194
f 66/6/196 65/6/197 93/11/195
f 94/10/196 66/6/196 93/11/195
f 97/10/198 96/10/199 95/11/200
f 96/10/201 97/10/198 71/6/198
f 96/10/201 71/6/198 73/6/201
f 95/11/202 96/10/203 97/10/204
f 71/6/204 97/10/204 96/10/203
f 73/6/203 71/6/204 96/10/203
f 98/11/205 75/6/181 91/10/184
f 75/6/181 98/11/206 73/6/201
f 73/6/201 98/11/206 96/10/201
f 91/10/188 75/6/187 98/11/207
f 73/6/203 98/11/208 75/6/188
f 96/10/203 98/11/207 73/6/209
f 94/10/193 97/10/198 99/11/210
f 97/10/198 94/10/193 66/6/193
f 97/10/198 66/6/192 71/6/198
f 99/11/211 97/10/204 94/10/212
f 66/6/212 94/10/196 97/10/204
f 71/6/204 66/6/213 97/10/204
f 90/10/182 92/10/214 100/11/215
f 92/10/191 90/10/182 69/6/182
f 92/10/191 69/6/182 65/6/191
f 100/11/216 92/10/197 90/10/186
f 69/6/186 90/10/186 92/10/197
f 65/6/197 69/6/186 92/10/197
f 102/11/155 61/6/217 101/10/153
f 61/6/217 102/11/155 59/6/156
f 59/6/156 102/11/155 103/10/156
f 101/10/158 61/6/158 102/11/161
f 59/6/160 102/11/161 61/6/158
f 103/10/160 102/11/161 59/6/160
f 103/10/156 60/6/147 59/6/156
f 60/6/147 103/10/156 104/11/163
f 60/6/144 104/11/163 105/10/147
f 59/6/160 60/6/149 103/10/160
f 104/11/165 103/10/160 60/6/149
f 105/10/149 104/11/165 60/6/164
f 62/6/172 107/11/178 106/10/174
f 107/11/178 62/6/174 53/6/166
f 107/11/218 53/6/166 108/10/166
f 106/10/176 107/11/180 62/6/179
f 53/6/169 62/6/176 107/11/180
f 108/10/169 53/6/169 107/11/219
f 110/10/143 105/10/144 109/11/220
f 105/10/147 110/10/143 54/6/143
f 105/10/147 54/6/143 60/6/147
f 109/11/148 105/10/149 110/10/150
f 54/6/150 110/10/150 105/10/149
f 60/6/149 54/6/150 105/10/149
f 101/10/153 106/10/172 111/11/221
f 106/10/174 101/10/153 61/6/153
f 106/10/174 61/6/153 62/6/174
f 111/11/222 106/10/176 101/10/177
f 61/6/158 101/10/158 106/10/176
f 62/6/176 61/6/177 106/10/176
f 53/6/166 112/11/167 108/10/166
f 112/11/167 53/6/166 54/6/223
f 112/11/167 54/6/223 110/10/146
f 108/10/169 112/11/171 53/6/169
f 54/6/150 53/6/169 112/11/170
f 110/10/151 54/6/224 112/11/170
f 3/1/1 2/1/1 1/1/1
f 2/1/1 3/1/1 4/1/1
f 4/1/1 3/1/1 5/1/1
f 4/1/1 5/1/1 6/1/1
f 6/1/1 5/1/1 7/1/1
f 6/1/1 7/1/1 8/1/1
f 9/2/2 1/1/3 2/1/4
f 1/1/3 9/2/2 10/2/5
f 11/2/6 1/1/7 10/2/8
f 1/1/7 11/2/9 3/1/10
f 12/2/11 2/1/4 4/1/12
f 2/1/4 12/2/11 9/2/13
f 13/2/14 4/1/15 6/1/16
f 4/1/17 13/2/14 12/2/18
f 7/1/19 14/2/20 8/1/21
f 14/2/22 7/1/19 15/2/23
f 11/2/24 5/1/25 3/1/26
f 5/1/27 11/2/24 16/2/28
f 8/1/29 13/2/30 6/1/31
f 13/2/32 8/1/29 14/2/33
f 7/1/34 16/2/35 15/2/36
f 16/2/35 7/1/37 5/1/38
f 14/2/39 18/3/40 17/3/41
f 18/3/42 14/2/43 15/2/44
f 16/2/45 18/3/46 15/2/47
f 18/3/46 16/2/48 19/3/49
f 21/3/50 9/2/51 20/3/52
f 9/2/51 21/3/50 10/2/53
f 22/3/54 12/2/55 13/2/56
f 12/2/55 22/3/57 23/3/58
f 21/3/59 11/2/60 10/2/53
f 11/2/60 21/3/50 24/3/61
f 13/2/56 17/3/62 22/3/63
f 17/3/41 13/2/56 14/2/39
f 20/3/64 12/2/65 23/3/66
f 12/2/67 20/3/64 9/2/68
f 24/3/69 16/2/70 11/2/60
f 16/2/48 24/3/71 19/3/72
f 27/4/73 26/4/73 25/4/73
f 26/4/73 27/4/73 28/4/73
f 26/4/73 28/4/73 29/4/73
f 29/4/73 28/4/73 30/4/73
f 29/4/73 30/4/73 31/4/73
f 31/4/73 30/4/73 32/4/73
f 35/5/1 34/5/1 33/5/1
f 34/5/1 35/5/1 36/5/1
f 34/5/1 36/5/1 37/5/1
f 37/5/1 36/5/1 38/5/1
f 37/5/1 38/5/1 39/5/1
f 39/5/1 38/5/1 40/5/1
f 27/4/74 33/5/75 34/5/74
f 33/5/76 27/4/74 25/4/75
f 29/4/77 38/5/78 36/5/79
f 38/5/78 29/4/77 31/4/78
f 40/5/80 31/4/81 32/4/82
f 31/4/81 40/5/80 38/5/81
f 28/4/83 34/5/84 37/5/83
f 34/5/84 28/4/85 27/4/86
f 26/4/87 36/5/88 35/5/87
f 36/5/77 26/4/87 29/4/88
f 30/4/89 37/5/90 39/5/89
f 37/5/90 30/4/89 28/4/91
f 26/4/92 33/5/93 25/4/94
f 33/5/94 26/4/95 35/5/92
f 40/5/96 30/4/97 39/5/97
f 30/4/97 40/5/82 32/4/96
f 43/6/98 42/7/99 41/7/98
f 42/7/99 43/6/98 44/6/99
f 47/6/100 46/7/101 45/7/100
f 46/7/101 47/6/100 48/6/102
f 50/6/103 45/7/100 49/7/103
f 45/7/100 50/6/103 47/6/100
f 48/6/101 41/7/98 46/7/101
f 41/7/98 48/6/101 43/6/98
f 52/7/104 44/6/99 51/6/105
f 44/6/99 52/7/104 42/7/99
f 52/7/104 50/6/103 49/7/103
f 50/6/103 52/7/105 51/6/104
f 41/7/1 45/7/1 46/7/1
f 45/7/1 41/7/1 42/7/1
f 45/7/1 42/7/1 49/7/1
f 49/7/1 42/7/1 52/7/1
f 55/6/106 54/8/107 53/8/108
f 54/8/109 55/6/106 56/6/110
f 59/8/111 58/6/112 57/6/113
f 58/6/112 59/8/111 60/8/114
f 63/6/115 62/8/116 61/8/117
f 62/8/116 63/6/115 64/6/118
f 64/6/119 53/8/108 62/8/120
f 53/8/108 64/6/121 55/6/122
f 64/6/118 56/6/123 55/6/122
f 56/6/123 64/6/124 58/6/125
f 58/6/125 64/6/124 63/6/126
f 58/6/125 63/6/126 57/6/127
f 59/8/128 63/6/129 61/8/130
f 63/6/115 59/8/111 57/6/131
f 54/8/1 62/8/1 53/8/1
f 62/8/1 54/8/1 60/8/1
f 62/8/1 60/8/1 61/8/1
f 61/8/1 60/8/1 59/8/1
f 56/6/132 60/8/133 54/8/109
f 60/8/114 56/6/110 58/6/134
f 67/6/135 66/9/136 65/9/135
f 66/9/136 67/6/135 68/6/136
f 70/6/137 65/9/135 69/9/138
f 65/9/135 70/6/138 67/6/135
f 68/6/136 71/9/139 66/9/136
f 71/9/139 68/6/136 72/6/139
f 72/6/139 73/9/140 71/9/141
f 73/9/140 72/6/141 74/6/140
f 71/9/1 65/9/1 66/9/1
f 65/9/1 71/9/1 69/9/1
f 69/9/1 71/9/1 73/9/1
f 69/9/1 73/9/1 75/9/1
f 76/6/142 69/9/137 75/9/142
f 69/9/137 76/6/142 70/6/137
f 73/9/140 76/6/142 75/9/142
f 76/6/142 73/9/140 74/6/140
f 79/10/143 78/10/144 77/11/145
f 78/10/144 79/10/146 41/6/143
f 78/10/147 41/6/143 42/6/147
f 77/11/148 78/10/149 79/10/150
f 41/6/151 79/10/150 78/10/149
f 42/6/149 41/6/150 78/10/149
f 81/11/152 49/6/153 80/10/153
f 49/6/154 81/11/155 52/6/156
f 52/6/157 81/11/155 82/10/156
f 80/10/158 49/6/158 81/11/159
f 52/6/160 81/11/161 49/6/158
f 82/10/160 81/11/161 52/6/162
f 82/10/156 42/6/147 52/6/156
f 42/6/147 82/10/156 83/11/163
f 42/6/144 83/11/163 78/10/147
f 52/6/160 42/6/164 82/10/160
f 83/11/165 82/10/160 42/6/149
f 78/10/149 83/11/165 42/6/164
f 46/6/166 85/11/167 84/10/166
f 85/11/167 46/6/166 41/6/146
f 85/11/168 41/6/143 79/10/143
f 84/10/169 85/11/170 46/6/169
f 41/6/150 46/6/169 85/11/170
f 79/10/150 41/6/150 85/11/171
f 80/10/153 87/10/172 86/11/173
f 87/10/174 80/10/153 49/6/153
f 87/10/174 49/6/153 45/6/174
f 86/11/175 87/10/176 80/10/158
f 49/6/158 80/10/158 87/10/176
f 45/6/176 49/6/177 87/10/176
f 45/6/172 88/11/178 87/10/174
f 88/11/178 45/6/174 46/6/166
f 88/11/178 46/6/166 84/10/166
f 87/10/179 88/11/180 45/6/179
f 46/6/169 45/6/176 88/11/180
f 84/10/169 46/6/169 88/11/180
f 91/10/181 90/10/182 89/11/183
f 90/10/182 91/10/184 75/6/184
f 90/10/182 75/6/184 69/6/182
f 89/11/185 90/10/186 91/10/187
f 75/6/187 91/10/188 90/10/186
f 69/6/186 75/6/188 90/10/186
f 65/6/189 93/11/190 92/10/191
f 93/11/190 65/6/191 66/6/192
f 93/11/190 66/6/192 94/10/193
f 92/10/194 93/11/195 65/6/194
f 66/6/196 65/6/197 93/11/195
f 94/10/196 66/6/196 93/11/195
f 97/10/198 96/10/199 95/11/200
f 96/10/201 97/10/198 71/6/198
f 96/10/201 71/6/198 73/6/201
f 95/11/202 96/10/203 97/10/204
f 71/6/204 97/10/204 96/10/203
f 73/6/203 71/6/204 96/10/203
f 98/11/205 75/6/181 91/10/184
f 75/6/181 98/11/206 73/6/201
f 73/6/201 98/11/206 96/10/201
f 91/10/188 75/6/187 98/11/207
f 73/6/203 98/11/208 75/6/188
f 96/10/203 98/11/207 73/6/209
f 94/10/193 97/10/198 99/11/210
f 97/10/198 94/10/193 66/6/193
f 97/10/198 66/6/192 71/6/198
f 99/11/211 97/10/204 94/10/212
f 66/6/212 94/10/196 97/10/204
f 71/6/204 66/6/213 97/10/204
f 90/10/182 92/10/214 100/11/215
f 92/10/191 90/10/182 69/6/182
f 92/10/191 69/6/182 65/6/191
f 100/11/216 92/10/197 90/10/186
f 69/6/186 90/10/186 92/10/197
f 65/6/197 69/6/186 92/10/197
f 102/11/155 61/6/217 101/10/153
f 61/6/217 102/11/155 59/6/156
f 59/6/156 102/11/155 103/10/156
f 101/10/158 61/6/158 102/11/161
f 59/6/160 102/11/161 61/6/158
f 103/10/160 102/11/161 59/6/160
f 103/10/156 60/6/147 59/6/156
f 60/6/147 103/10/156 104/11/163
f 60/6/144 104/11/163 105/10/147
f 59/6/160 60/6/149 103/10/160
f 104/11/165 103/10/160 60/6/149
f 105/10/149 104/11/165 60/6/164
f 62/6/172 107/11/178 106/10/174
f 107/11/178 62/6/174 53/6/166
f 107/11/218 53/6/166 108/10/166
f 106/10/176 107/11/180 62/6/179
f 53/6/169 62/6/176 107/11/180
f 108/10/169 53/6/169 107/11/219
f 110/10/143 105/10/144 109/11/220
f 105/10/147 110/10/143 54/6/143
f 105/10/147 54/6/143 60/6/147
f 109/11/148 105/10/149 110/10/150
f 54/6/150 110/10/150 105/10/149
f 60/6/149 54/6/150 105/10/149
f 101/10/153 106/10/172 111/11/221
f 106/10/174 101/10/153 61/6/153
f 106/10/174 61/6/153 62/6/174
f 111/11/222 106/10/176 101/10/177
f 61/6/158 101/10/158 106/10/176
f 62/6/176 61/6/177 106/10/176
f 53/6/166 112/11/167 108/10/166
f 112/11/167 53/6/166 54/6/223
f 112/11/167 54/6/223 110/10/146
f 108/10/169 112/11/171 53/6/169
f 54/6/150 53/6/169 112/11/170
f 110/10/151 54/6/224 112/11/170
