# Blender 4.1.1
# www.blender.org
mtllib tree.070.mtl
o tree.070
v 2.309206 -0.282319 4.810691
v 2.484993 -0.282319 4.856104
v 2.244019 -0.282319 4.700091
v 2.595592 -0.282319 4.790917
v 2.289432 -0.282319 4.524305
v 2.641005 -0.282319 4.615130
v 2.400032 -0.282319 4.459118
v 2.575818 -0.282319 4.504531
v 2.463753 0.046402 4.756857
v 2.375859 0.046402 4.734151
v 2.343266 0.046402 4.678851
v 2.519052 0.046402 4.724264
v 2.541759 0.046402 4.636371
v 2.509165 0.046402 4.581071
v 2.421272 0.046402 4.558364
v 2.365972 0.046402 4.590958
v 2.525829 0.539521 4.561936
v 2.415962 0.539521 4.533553
v 2.346837 0.539521 4.574295
v 2.469063 0.539521 4.781669
v 2.359196 0.539521 4.753286
v 2.566570 0.539521 4.631061
v 2.538188 0.539521 4.740927
v 2.318454 0.539521 4.684161
v 2.447943 0.163769 4.813989
v 2.391041 0.163769 4.771133
v 2.518482 0.163769 4.804056
v 2.561338 0.163769 4.747155
v 2.381109 0.163769 4.700594
v 2.551405 0.163769 4.676616
v 2.423965 0.163769 4.643692
v 2.494503 0.163769 4.633760
v 2.434757 0.044485 4.865031
v 2.545250 0.044485 4.849473
v 2.345625 0.044485 4.797902
v 2.330067 0.044485 4.687408
v 2.612380 0.044485 4.760341
v 2.397196 0.044485 4.598276
v 2.596822 0.044485 4.649847
v 2.507690 0.044485 4.582717
v 2.009047 0.539521 4.770032
v 2.122141 0.539521 4.332262
v 2.187669 1.083028 4.720446
v 2.254395 1.083028 4.462160
v 2.767287 0.539521 4.965916
v 2.331620 0.539521 5.086859
v 2.635033 1.083028 4.836018
v 2.377988 1.083028 4.907375
v 2.880381 0.539521 4.528146
v 2.701759 1.083028 4.577732
v 2.511440 1.083028 4.390803
v 2.557808 0.539521 4.211319
v 2.379504 1.666943 4.901508
v 2.193508 1.666943 4.718824
v 2.429725 2.279410 4.707107
v 2.386975 2.279410 4.665117
v 2.459702 2.279410 4.591071
v 2.401963 2.279410 4.607100
v 2.509924 1.666943 4.396670
v 2.258718 1.666943 4.466406
v 2.695920 1.666943 4.579353
v 2.630710 1.666943 4.831772
v 2.502453 2.279410 4.633060
v 2.487464 2.279410 4.691078
v 2.543041 1.083028 5.003290
v 2.187131 1.083028 4.911344
v 2.489769 1.666943 4.811388
v 2.326686 1.666943 4.769257
v 2.800625 1.083028 4.741035
v 2.607796 1.666943 4.691220
v 2.088803 1.083028 4.557143
v 2.281632 1.666943 4.606958
v 2.346386 1.083028 4.294888
v 2.399659 1.666943 4.486790
v 2.702297 1.083028 4.386834
v 2.562741 1.666943 4.528921
v 1.982188 0.369968 4.529600
v 2.086658 0.454744 4.297410
v 1.961124 0.454744 4.783336
v 2.928304 0.454744 4.514843
v 2.779458 0.369968 4.308274
v 2.570248 0.454744 4.163164
v 2.316932 0.369968 4.188785
v 2.319180 0.454744 5.135014
v 2.109970 0.369968 4.989904
v 2.907240 0.369968 4.768578
v 2.802770 0.454744 5.000767
v 2.572496 0.369968 5.109393
v 2.818945 0.945179 4.545201
v 2.839775 1.014103 4.751149
v 2.730631 1.014103 4.357986
v 2.553857 1.014103 5.042252
v 2.347568 0.945179 5.025127
v 2.158797 1.014103 4.940191
v 2.167629 0.945179 4.376939
v 2.335570 1.014103 4.255926
v 2.049653 1.014103 4.547029
v 2.541860 0.945179 4.273051
v 2.070483 0.945179 4.752977
v 2.721799 0.945179 4.921238
v 2.723553 1.618061 4.571682
v 2.637728 1.569178 4.452574
v 2.517097 1.618061 4.368904
v 2.371034 1.569178 4.383677
v 2.238258 1.618061 4.446311
v 2.651170 1.618061 4.851867
v 2.518393 1.569178 4.914501
v 2.372330 1.618061 4.929274
v 2.178020 1.569178 4.580191
v 2.165875 1.618061 4.726495
v 2.711407 1.569178 4.717987
v 2.251700 1.569178 4.845603
vn -0.0000 -1.0000 -0.0000
vn 0.1278 0.2942 0.9471
vn -0.5784 0.2944 0.7608
vn 0.1376 0.2944 0.9457
vn -0.5784 0.2944 0.7607
vn 0.1278 0.2942 0.9472
vn -0.5706 0.2942 0.7667
vn -0.9471 0.2942 0.1279
vn -0.5785 0.2944 0.7607
vn -0.5707 0.2942 0.7667
vn -0.9471 0.2943 0.1279
vn -0.9457 0.2944 0.1376
vn 0.7667 0.2942 0.5707
vn 0.7607 0.2944 0.5785
vn 0.1279 0.2942 0.9471
vn 0.9471 0.2942 -0.1278
vn 0.7607 0.2944 0.5784
vn 0.9457 0.2944 -0.1376
vn 0.9472 0.2942 -0.1278
vn 0.7667 0.2942 0.5706
vn -0.1376 0.2944 -0.9457
vn 0.5706 0.2942 -0.7667
vn 0.5784 0.2944 -0.7607
vn -0.1278 0.2942 -0.9472
vn -0.9472 0.2942 0.1278
vn -0.7607 0.2944 -0.5784
vn -0.7667 0.2942 -0.5706
vn 0.5785 0.2944 -0.7607
vn 0.9471 0.2943 -0.1279
vn 0.9471 0.2942 -0.1279
vn 0.5707 0.2942 -0.7667
vn -0.1279 0.2942 -0.9471
vn -0.7667 0.2942 -0.5707
vn -0.7607 0.2944 -0.5785
vn 0.6001 -0.0513 -0.7983
vn -0.1401 -0.0512 -0.9888
vn 0.6015 -0.0513 -0.7972
vn -0.1401 -0.0513 -0.9888
vn -0.1383 -0.0513 -0.9891
vn -0.7983 -0.0512 -0.6001
vn -0.1384 -0.0512 -0.9891
vn -0.7983 -0.0513 -0.6001
vn -0.7972 -0.0512 -0.6015
vn -0.6015 -0.0512 0.7972
vn 0.1383 -0.0513 0.9891
vn 0.1401 -0.0513 0.9888
vn -0.6001 -0.0513 0.7983
vn 0.9888 -0.0513 -0.1401
vn 0.7983 -0.0513 0.6001
vn 0.9891 -0.0513 -0.1383
vn 0.9888 -0.0512 -0.1401
vn 0.7972 -0.0513 0.6015
vn -0.6015 -0.0513 0.7972
vn -0.9891 -0.0513 0.1384
vn -0.6001 -0.0512 0.7983
vn -0.9888 -0.0513 0.1401
vn 0.9891 -0.0513 -0.1384
vn 0.6015 -0.0512 -0.7972
vn 0.6001 -0.0512 -0.7983
vn 0.7972 -0.0512 0.6015
vn 0.7983 -0.0512 0.6001
vn 0.1384 -0.0512 0.9891
vn -0.9891 -0.0513 0.1383
vn -0.9888 -0.0512 0.1401
vn -0.7972 -0.0513 -0.6015
vn -0.0000 1.0000 -0.0000
vn 0.4644 0.4042 0.7880
vn -0.2288 0.4042 0.8856
vn -0.2288 0.4043 0.8856
vn -0.8856 0.4042 -0.2288
vn -0.4645 0.4042 -0.7880
vn -0.4644 0.4042 -0.7880
vn -0.4644 0.4043 -0.7880
vn 0.2288 0.4042 -0.8856
vn 0.2288 0.4043 -0.8856
vn 0.8856 0.4042 0.2288
vn 0.4645 0.4042 0.7880
vn 0.4644 0.4043 0.7880
vn -0.7880 0.4042 0.4644
vn -0.8856 0.4043 -0.2287
vn 0.7880 0.4042 -0.4644
vn 0.8856 0.4043 0.2288
vn -0.7880 0.4042 0.4645
vn 0.7880 0.4042 -0.4645
vn -0.9120 0.3228 0.2532
vn -0.6753 0.3228 -0.6632
vn 0.6752 0.3228 0.6632
vn -0.2367 0.3228 0.9164
vn 0.9120 0.3228 -0.2532
vn 0.6753 0.3228 0.6632
vn -0.2368 0.3228 0.9164
vn 0.2367 0.3228 -0.9164
vn -0.6752 0.3228 -0.6632
vn 0.2368 0.3228 -0.9164
vn -0.1720 0.7260 0.6659
vn -0.9156 0.3115 0.2542
vn -0.2377 0.3115 0.9200
vn -0.6627 0.7260 0.1839
vn 0.2377 0.3115 -0.9200
vn -0.4907 0.7260 -0.4819
vn 0.1721 0.7260 -0.6659
vn -0.6779 0.3115 -0.6659
vn 0.6627 0.7260 -0.1840
vn 0.6779 0.3115 0.6659
vn 0.9156 0.3115 -0.2542
vn 0.6779 0.3115 0.6658
vn 0.4906 0.7260 0.4819
vn 0.4907 0.7260 0.4819
vn -0.1721 0.7260 0.6659
vn 0.4906 0.7259 0.4819
vn -0.6627 0.7259 0.1840
vn -0.1721 0.7259 0.6659
vn 0.4907 0.7259 0.4819
vn -0.4906 0.7259 -0.4819
vn -0.4907 0.7259 -0.4819
vn 0.6627 0.7259 -0.1840
vn 0.1721 0.7259 -0.6659
vn 0.2377 0.3116 -0.9200
vn 0.6627 0.7260 -0.1839
vn 0.6626 0.7260 -0.1840
vn 0.1720 0.7260 -0.6658
vn -0.6627 0.7260 0.1840
vn -0.6779 0.3115 -0.6658
vn -0.4906 0.7260 -0.4819
vn 0.2532 0.3228 0.9120
vn -0.6632 0.3228 0.6752
vn -0.6632 0.3228 0.6753
vn 0.9164 0.3228 0.2367
vn 0.9164 0.3228 0.2368
vn -0.9164 0.3228 -0.2367
vn -0.2532 0.3228 -0.9120
vn -0.9164 0.3228 -0.2368
vn 0.6632 0.3228 -0.6752
vn -0.8311 0.5060 0.2307
vn -0.6153 0.5060 -0.6044
vn -0.8632 0.4530 -0.2230
vn -0.6154 0.5060 -0.6044
vn 0.8632 -0.4530 0.2230
vn 0.6154 -0.5060 0.6044
vn 0.8311 -0.5060 -0.2307
vn 0.6247 0.4530 -0.6360
vn 0.8311 0.5060 -0.2307
vn 0.2157 0.5060 -0.8351
vn -0.8311 -0.5060 0.2307
vn -0.6247 -0.4530 0.6360
vn -0.2157 -0.5060 0.8351
vn -0.2385 0.4530 -0.8590
vn 0.6153 -0.5060 0.6044
vn 0.2385 -0.4530 0.8590
vn -0.2157 0.5060 0.8351
vn -0.6247 0.4530 0.6360
vn 0.2157 -0.5060 -0.8351
vn 0.6247 -0.4530 -0.6360
vn 0.6153 0.5060 0.6044
vn 0.8632 0.4530 0.2230
vn 0.6154 0.5060 0.6044
vn -0.8632 -0.4530 -0.2230
vn -0.6154 -0.5060 -0.6044
vn 0.2385 0.4530 0.8590
vn -0.6153 -0.5060 -0.6044
vn -0.2385 -0.4530 -0.8590
vn 0.6044 0.5060 -0.6153
vn 0.8351 0.5060 0.2157
vn 0.8590 0.4530 -0.2385
vn 0.6044 0.5060 -0.6154
vn -0.8590 -0.4530 0.2385
vn -0.8351 -0.5060 -0.2157
vn -0.6044 -0.5060 0.6153
vn -0.6044 -0.5060 0.6154
vn 0.2307 0.5060 0.8311
vn -0.2230 0.4530 0.8632
vn -0.6044 0.5060 0.6153
vn -0.6044 0.5060 0.6154
vn -0.2307 -0.5060 -0.8311
vn 0.2230 -0.4530 -0.8632
vn 0.6044 -0.5060 -0.6154
vn 0.6044 -0.5060 -0.6153
vn -0.8351 0.5060 -0.2157
vn -0.2307 0.5060 -0.8311
vn -0.6360 0.4530 -0.6247
vn 0.6360 -0.4530 0.6247
vn 0.2307 -0.5060 0.8311
vn 0.8351 -0.5060 0.2157
vn 0.2230 0.4530 -0.8632
vn -0.2230 -0.4530 0.8632
vn -0.8590 0.4530 0.2385
vn 0.8590 -0.4530 -0.2385
vn 0.6360 0.4530 0.6247
vn -0.6360 -0.4530 -0.6247
vn 0.8311 0.5061 -0.2307
vn 0.2385 0.4529 0.8591
vn -0.2385 -0.4529 -0.8591
vn 0.6247 -0.4530 -0.6361
vt 0.593750 0.025000
vt 0.593750 0.104996
vt 0.593750 0.225000
vt 0.093750 0.475000
vt 0.093750 0.275000
vt 0.093750 0.425000
vt 0.093750 0.348778
vt 0.093750 0.338765
vt 0.093750 0.344099
vt 0.093750 0.375000
vt 0.093750 0.325000
s 0
usemtl colormap.002
f 3/1/1 2/1/1 1/1/1
f 2/1/1 3/1/1 4/1/1
f 4/1/1 3/1/1 5/1/1
f 4/1/1 5/1/1 6/1/1
f 6/1/1 5/1/1 7/1/1
f 6/1/1 7/1/1 8/1/1
f 9/2/2 1/1/3 2/1/4
f 1/1/5 9/2/6 10/2/7
f 11/2/8 1/1/9 10/2/10
f 1/1/9 11/2/11 3/1/12
f 12/2/13 2/1/4 4/1/14
f 2/1/4 12/2/13 9/2/15
f 13/2/16 4/1/17 6/1/18
f 4/1/17 13/2/19 12/2/20
f 7/1/21 14/2/22 8/1/23
f 14/2/22 7/1/21 15/2/24
f 11/2/25 5/1/26 3/1/12
f 5/1/26 11/2/25 16/2/27
f 8/1/28 13/2/29 6/1/18
f 13/2/30 8/1/28 14/2/31
f 7/1/21 16/2/27 15/2/32
f 16/2/33 7/1/21 5/1/34
f 14/2/35 18/3/36 17/3/37
f 18/3/38 14/2/35 15/2/39
f 16/2/40 18/3/38 15/2/41
f 18/3/38 16/2/42 19/3/43
f 21/3/44 9/2/45 20/3/46
f 9/2/45 21/3/44 10/2/47
f 22/3/48 12/2/49 13/2/50
f 12/2/49 22/3/51 23/3/52
f 21/3/53 11/2/54 10/2/55
f 11/2/54 21/3/44 24/3/56
f 13/2/57 17/3/58 22/3/48
f 17/3/37 13/2/57 14/2/59
f 20/3/46 12/2/49 23/3/60
f 12/2/61 20/3/46 9/2/62
f 24/3/56 16/2/42 11/2/63
f 16/2/42 24/3/64 19/3/65
f 27/4/66 26/4/66 25/4/66
f 26/4/66 27/4/66 28/4/66
f 26/4/66 28/4/66 29/4/66
f 29/4/66 28/4/66 30/4/66
f 29/4/66 30/4/66 31/4/66
f 31/4/66 30/4/66 32/4/66
f 35/5/1 34/5/1 33/5/1
f 34/5/1 35/5/1 36/5/1
f 34/5/1 36/5/1 37/5/1
f 37/5/1 36/5/1 38/5/1
f 37/5/1 38/5/1 39/5/1
f 39/5/1 38/5/1 40/5/1
f 27/4/67 33/5/68 34/5/67
f 33/5/68 27/4/67 25/4/69
f 29/4/70 38/5/71 36/5/70
f 38/5/72 29/4/70 31/4/73
f 40/5/74 31/4/72 32/4/75
f 31/4/72 40/5/74 38/5/72
f 28/4/76 34/5/77 37/5/76
f 34/5/67 28/4/76 27/4/78
f 26/4/79 36/5/70 35/5/79
f 36/5/70 26/4/79 29/4/80
f 30/4/81 37/5/76 39/5/81
f 37/5/76 30/4/81 28/4/82
f 26/4/83 33/5/69 25/4/68
f 33/5/68 26/4/79 35/5/83
f 40/5/74 30/4/81 39/5/84
f 30/4/84 40/5/75 32/4/74
f 43/6/85 42/7/86 41/7/85
f 42/7/86 43/6/85 44/6/86
f 47/6/87 46/7/88 45/7/87
f 46/7/88 47/6/87 48/6/88
f 50/6/89 45/7/90 49/7/89
f 45/7/90 50/6/89 47/6/90
f 48/6/91 41/7/85 46/7/88
f 41/7/85 48/6/91 43/6/85
f 52/7/92 44/6/93 51/6/92
f 44/6/93 52/7/92 42/7/93
f 52/7/94 50/6/89 49/7/89
f 50/6/89 52/7/92 51/6/94
f 41/7/1 45/7/1 46/7/1
f 45/7/1 41/7/1 42/7/1
f 45/7/1 42/7/1 49/7/1
f 49/7/1 42/7/1 52/7/1
f 55/6/95 54/8/96 53/8/97
f 54/8/96 55/6/95 56/6/98
f 59/8/99 58/6/100 57/6/101
f 58/6/100 59/8/99 60/8/102
f 63/6/103 62/8/104 61/8/105
f 62/8/106 63/6/103 64/6/107
f 64/6/108 53/8/97 62/8/104
f 53/8/97 64/6/108 55/6/109
f 64/6/110 56/6/111 55/6/112
f 56/6/111 64/6/113 58/6/114
f 58/6/115 64/6/110 63/6/116
f 58/6/114 63/6/116 57/6/117
f 59/8/118 63/6/119 61/8/105
f 63/6/120 59/8/99 57/6/121
f 54/8/1 62/8/1 53/8/1
f 62/8/1 54/8/1 60/8/1
f 62/8/1 60/8/1 61/8/1
f 61/8/1 60/8/1 59/8/1
f 56/6/122 60/8/102 54/8/96
f 60/8/123 56/6/122 58/6/124
f 67/6/125 66/9/126 65/9/125
f 66/9/126 67/6/125 68/6/127
f 70/6/128 65/9/125 69/9/128
f 65/9/125 70/6/129 67/6/125
f 68/6/126 71/9/130 66/9/126
f 71/9/130 68/6/126 72/6/130
f 72/6/130 73/9/131 71/9/132
f 73/9/131 72/6/130 74/6/131
f 71/9/1 65/9/1 66/9/1
f 65/9/1 71/9/1 69/9/1
f 69/9/1 71/9/1 73/9/1
f 69/9/1 73/9/1 75/9/1
f 76/6/133 69/9/128 75/9/133
f 69/9/128 76/6/133 70/6/128
f 73/9/131 76/6/133 75/9/133
f 76/6/133 73/9/131 74/6/131
f 79/10/134 78/10/135 77/11/136
f 78/10/137 79/10/134 41/6/134
f 78/10/137 41/6/134 42/6/137
f 77/11/138 78/10/139 79/10/140
f 41/6/140 79/10/140 78/10/139
f 42/6/139 41/6/140 78/10/139
f 81/11/141 49/6/142 80/10/142
f 49/6/142 81/11/141 52/6/143
f 52/6/143 81/11/141 82/10/143
f 80/10/144 49/6/144 81/11/145
f 52/6/146 81/11/145 49/6/144
f 82/10/146 81/11/145 52/6/146
f 82/10/143 42/6/137 52/6/143
f 42/6/137 82/10/143 83/11/147
f 42/6/135 83/11/147 78/10/137
f 52/6/146 42/6/148 82/10/146
f 83/11/149 82/10/146 42/6/148
f 78/10/148 83/11/149 42/6/148
f 46/6/150 85/11/151 84/10/150
f 85/11/151 46/6/150 41/6/134
f 85/11/151 41/6/134 79/10/134
f 84/10/152 85/11/153 46/6/152
f 41/6/140 46/6/152 85/11/153
f 79/10/140 41/6/140 85/11/153
f 80/10/142 87/10/154 86/11/155
f 87/10/156 80/10/142 49/6/142
f 87/10/156 49/6/142 45/6/156
f 86/11/157 87/10/158 80/10/144
f 49/6/144 80/10/144 87/10/158
f 45/6/158 49/6/144 87/10/158
f 45/6/154 88/11/159 87/10/156
f 88/11/159 45/6/156 46/6/150
f 88/11/159 46/6/150 84/10/150
f 87/10/160 88/11/161 45/6/160
f 46/6/152 45/6/158 88/11/161
f 84/10/152 46/6/152 88/11/161
f 91/10/162 90/10/163 89/11/164
f 90/10/163 91/10/165 75/6/165
f 90/10/163 75/6/165 69/6/163
f 89/11/166 90/10/167 91/10/168
f 75/6/169 91/10/169 90/10/167
f 69/6/167 75/6/168 90/10/167
f 65/6/170 93/11/171 92/10/170
f 93/11/171 65/6/170 66/6/172
f 93/11/171 66/6/172 94/10/173
f 92/10/174 93/11/175 65/6/174
f 66/6/176 65/6/174 93/11/175
f 94/10/176 66/6/177 93/11/175
f 97/10/178 96/10/179 95/11/180
f 96/10/179 97/10/178 71/6/178
f 96/10/179 71/6/178 73/6/179
f 95/11/181 96/10/182 97/10/183
f 71/6/183 97/10/183 96/10/182
f 73/6/182 71/6/183 96/10/182
f 98/11/184 75/6/162 91/10/165
f 75/6/162 98/11/184 73/6/179
f 73/6/179 98/11/184 96/10/179
f 91/10/169 75/6/168 98/11/185
f 73/6/182 98/11/185 75/6/169
f 96/10/182 98/11/185 73/6/182
f 94/10/172 97/10/178 99/11/186
f 97/10/178 94/10/173 66/6/173
f 97/10/178 66/6/173 71/6/178
f 99/11/187 97/10/183 94/10/177
f 66/6/176 94/10/176 97/10/183
f 71/6/183 66/6/177 97/10/183
f 90/10/163 92/10/170 100/11/188
f 92/10/170 90/10/163 69/6/163
f 92/10/170 69/6/163 65/6/170
f 100/11/189 92/10/174 90/10/167
f 69/6/167 90/10/167 92/10/174
f 65/6/174 69/6/167 92/10/174
f 102/11/141 61/6/190 101/10/142
f 61/6/142 102/11/141 59/6/143
f 59/6/143 102/11/141 103/10/143
f 101/10/144 61/6/144 102/11/145
f 59/6/146 102/11/145 61/6/144
f 103/10/146 102/11/145 59/6/146
f 103/10/143 60/6/137 59/6/143
f 60/6/137 103/10/143 104/11/147
f 60/6/135 104/11/147 105/10/137
f 59/6/146 60/6/148 103/10/146
f 104/11/149 103/10/146 60/6/148
f 105/10/148 104/11/149 60/6/148
f 62/6/154 107/11/159 106/10/156
f 107/11/159 62/6/156 53/6/150
f 107/11/191 53/6/150 108/10/150
f 106/10/160 107/11/161 62/6/160
f 53/6/152 62/6/158 107/11/161
f 108/10/152 53/6/152 107/11/192
f 110/10/134 105/10/135 109/11/136
f 105/10/137 110/10/134 54/6/134
f 105/10/137 54/6/134 60/6/137
f 109/11/138 105/10/139 110/10/140
f 54/6/140 110/10/140 105/10/139
f 60/6/139 54/6/140 105/10/139
f 101/10/142 106/10/154 111/11/155
f 106/10/156 101/10/142 61/6/142
f 106/10/156 61/6/142 62/6/156
f 111/11/157 106/10/158 101/10/144
f 61/6/144 101/10/144 106/10/158
f 62/6/158 61/6/144 106/10/158
f 53/6/150 112/11/151 108/10/150
f 112/11/151 53/6/150 54/6/134
f 112/11/151 54/6/134 110/10/134
f 108/10/152 112/11/153 53/6/152
f 54/6/140 53/6/152 112/11/153
f 110/10/140 54/6/140 112/11/193
f 3/1/1 2/1/1 1/1/1
f 2/1/1 3/1/1 4/1/1
f 4/1/1 3/1/1 5/1/1
f 4/1/1 5/1/1 6/1/1
f 6/1/1 5/1/1 7/1/1
f 6/1/1 7/1/1 8/1/1
f 9/2/2 1/1/3 2/1/4
f 1/1/5 9/2/6 10/2/7
f 11/2/8 1/1/9 10/2/10
f 1/1/9 11/2/11 3/1/12
f 12/2/13 2/1/4 4/1/14
f 2/1/4 12/2/13 9/2/15
f 13/2/16 4/1/17 6/1/18
f 4/1/17 13/2/19 12/2/20
f 7/1/21 14/2/22 8/1/23
f 14/2/22 7/1/21 15/2/24
f 11/2/25 5/1/26 3/1/12
f 5/1/26 11/2/25 16/2/27
f 8/1/28 13/2/29 6/1/18
f 13/2/30 8/1/28 14/2/31
f 7/1/21 16/2/27 15/2/32
f 16/2/33 7/1/21 5/1/34
f 14/2/35 18/3/36 17/3/37
f 18/3/38 14/2/35 15/2/39
f 16/2/40 18/3/38 15/2/41
f 18/3/38 16/2/42 19/3/43
f 21/3/44 9/2/45 20/3/46
f 9/2/45 21/3/44 10/2/47
f 22/3/48 12/2/49 13/2/50
f 12/2/49 22/3/51 23/3/52
f 21/3/53 11/2/54 10/2/55
f 11/2/54 21/3/44 24/3/56
f 13/2/57 17/3/58 22/3/48
f 17/3/37 13/2/57 14/2/59
f 20/3/46 12/2/49 23/3/60
f 12/2/61 20/3/46 9/2/62
f 24/3/56 16/2/42 11/2/63
f 16/2/42 24/3/64 19/3/65
f 27/4/66 26/4/66 25/4/66
f 26/4/66 27/4/66 28/4/66
f 26/4/66 28/4/66 29/4/66
f 29/4/66 28/4/66 30/4/66
f 29/4/66 30/4/66 31/4/66
f 31/4/66 30/4/66 32/4/66
f 35/5/1 34/5/1 33/5/1
f 34/5/1 35/5/1 36/5/1
f 34/5/1 36/5/1 37/5/1
f 37/5/1 36/5/1 38/5/1
f 37/5/1 38/5/1 39/5/1
f 39/5/1 38/5/1 40/5/1
f 27/4/67 33/5/68 34/5/67
f 33/5/68 27/4/67 25/4/69
f 29/4/70 38/5/71 36/5/70
f 38/5/72 29/4/70 31/4/73
f 40/5/74 31/4/72 32/4/75
f 31/4/72 40/5/74 38/5/72
f 28/4/76 34/5/77 37/5/76
f 34/5/67 28/4/76 27/4/78
f 26/4/79 36/5/70 35/5/79
f 36/5/70 26/4/79 29/4/80
f 30/4/81 37/5/76 39/5/81
f 37/5/76 30/4/81 28/4/82
f 26/4/83 33/5/69 25/4/68
f 33/5/68 26/4/79 35/5/83
f 40/5/74 30/4/81 39/5/84
f 30/4/84 40/5/75 32/4/74
f 43/6/85 42/7/86 41/7/85
f 42/7/86 43/6/85 44/6/86
f 47/6/87 46/7/88 45/7/87
f 46/7/88 47/6/87 48/6/88
f 50/6/89 45/7/90 49/7/89
f 45/7/90 50/6/89 47/6/90
f 48/6/91 41/7/85 46/7/88
f 41/7/85 48/6/91 43/6/85
f 52/7/92 44/6/93 51/6/92
f 44/6/93 52/7/92 42/7/93
f 52/7/94 50/6/89 49/7/89
f 50/6/89 52/7/92 51/6/94
f 41/7/1 45/7/1 46/7/1
f 45/7/1 41/7/1 42/7/1
f 45/7/1 42/7/1 49/7/1
f 49/7/1 42/7/1 52/7/1
f 55/6/95 54/8/96 53/8/97
f 54/8/96 55/6/95 56/6/98
f 59/8/99 58/6/100 57/6/101
f 58/6/100 59/8/99 60/8/102
f 63/6/103 62/8/104 61/8/105
f 62/8/106 63/6/103 64/6/107
f 64/6/108 53/8/97 62/8/104
f 53/8/97 64/6/108 55/6/109
f 64/6/110 56/6/111 55/6/112
f 56/6/111 64/6/113 58/6/114
f 58/6/115 64/6/110 63/6/116
f 58/6/114 63/6/116 57/6/117
f 59/8/118 63/6/119 61/8/105
f 63/6/120 59/8/99 57/6/121
f 54/8/1 62/8/1 53/8/1
f 62/8/1 54/8/1 60/8/1
f 62/8/1 60/8/1 61/8/1
f 61/8/1 60/8/1 59/8/1
f 56/6/122 60/8/102 54/8/96
f 60/8/123 56/6/122 58/6/124
f 67/6/125 66/9/126 65/9/125
f 66/9/126 67/6/125 68/6/127
f 70/6/128 65/9/125 69/9/128
f 65/9/125 70/6/129 67/6/125
f 68/6/126 71/9/130 66/9/126
f 71/9/130 68/6/126 72/6/130
f 72/6/130 73/9/131 71/9/132
f 73/9/131 72/6/130 74/6/131
f 71/9/1 65/9/1 66/9/1
f 65/9/1 71/9/1 69/9/1
f 69/9/1 71/9/1 73/9/1
f 69/9/1 73/9/1 75/9/1
f 76/6/133 69/9/128 75/9/133
f 69/9/128 76/6/133 70/6/128
f 73/9/131 76/6/133 75/9/133
f 76/6/133 73/9/131 74/6/131
f 79/10/134 78/10/135 77/11/136
f 78/10/137 79/10/134 41/6/134
f 78/10/137 41/6/134 42/6/137
f 77/11/138 78/10/139 79/10/140
f 41/6/140 79/10/140 78/10/139
f 42/6/139 41/6/140 78/10/139
f 81/11/141 49/6/142 80/10/142
f 49/6/142 81/11/141 52/6/143
f 52/6/143 81/11/141 82/10/143
f 80/10/144 49/6/144 81/11/145
f 52/6/146 81/11/145 49/6/144
f 82/10/146 81/11/145 52/6/146
f 82/10/143 42/6/137 52/6/143
f 42/6/137 82/10/143 83/11/147
f 42/6/135 83/11/147 78/10/137
f 52/6/146 42/6/148 82/10/146
f 83/11/149 82/10/146 42/6/148
f 78/10/148 83/11/149 42/6/148
f 46/6/150 85/11/151 84/10/150
f 85/11/151 46/6/150 41/6/134
f 85/11/151 41/6/134 79/10/134
f 84/10/152 85/11/153 46/6/152
f 41/6/140 46/6/152 85/11/153
f 79/10/140 41/6/140 85/11/153
f 80/10/142 87/10/154 86/11/155
f 87/10/156 80/10/142 49/6/142
f 87/10/156 49/6/142 45/6/156
f 86/11/157 87/10/158 80/10/144
f 49/6/144 80/10/144 87/10/158
f 45/6/158 49/6/144 87/10/158
f 45/6/154 88/11/159 87/10/156
f 88/11/159 45/6/156 46/6/150
f 88/11/159 46/6/150 84/10/150
f 87/10/160 88/11/161 45/6/160
f 46/6/152 45/6/158 88/11/161
f 84/10/152 46/6/152 88/11/161
f 91/10/162 90/10/163 89/11/164
f 90/10/163 91/10/165 75/6/165
f 90/10/163 75/6/165 69/6/163
f 89/11/166 90/10/167 91/10/168
f 75/6/169 91/10/169 90/10/167
f 69/6/167 75/6/168 90/10/167
f 65/6/170 93/11/171 92/10/170
f 93/11/171 65/6/170 66/6/172
f 93/11/171 66/6/172 94/10/173
f 92/10/174 93/11/175 65/6/174
f 66/6/176 65/6/174 93/11/175
f 94/10/176 66/6/177 93/11/175
f 97/10/178 96/10/179 95/11/180
f 96/10/179 97/10/178 71/6/178
f 96/10/179 71/6/178 73/6/179
f 95/11/181 96/10/182 97/10/183
f 71/6/183 97/10/183 96/10/182
f 73/6/182 71/6/183 96/10/182
f 98/11/184 75/6/162 91/10/165
f 75/6/162 98/11/184 73/6/179
f 73/6/179 98/11/184 96/10/179
f 91/10/169 75/6/168 98/11/185
f 73/6/182 98/11/185 75/6/169
f 96/10/182 98/11/185 73/6/182
f 94/10/172 97/10/178 99/11/186
f 97/10/178 94/10/173 66/6/173
f 97/10/178 66/6/173 71/6/178
f 99/11/187 97/10/183 94/10/177
f 66/6/176 94/10/176 97/10/183
f 71/6/183 66/6/177 97/10/183
f 90/10/163 92/10/170 100/11/188
f 92/10/170 90/10/163 69/6/163
f 92/10/170 69/6/163 65/6/170
f 100/11/189 92/10/174 90/10/167
f 69/6/167 90/10/167 92/10/174
f 65/6/174 69/6/167 92/10/174
f 102/11/141 61/6/190 101/10/142
f 61/6/142 102/11/141 59/6/143
f 59/6/143 102/11/141 103/10/143
f 101/10/144 61/6/144 102/11/145
f 59/6/146 102/11/145 61/6/144
f 103/10/146 102/11/145 59/6/146
f 103/10/143 60/6/137 59/6/143
f 60/6/137 103/10/143 104/11/147
f 60/6/135 104/11/147 105/10/137
f 59/6/146 60/6/148 103/10/146
f 104/11/149 103/10/146 60/6/148
f 105/10/148 104/11/149 60/6/148
f 62/6/154 107/11/159 106/10/156
f 107/11/159 62/6/156 53/6/150
f 107/11/191 53/6/150 108/10/150
f 106/10/160 107/11/161 62/6/160
f 53/6/152 62/6/158 107/11/161
f 108/10/152 53/6/152 107/11/192
f 110/10/134 105/10/135 109/11/136
f 105/10/137 110/10/134 54/6/134
f 105/10/137 54/6/134 60/6/137
f 109/11/138 105/10/139 110/10/140
f 54/6/140 110/10/140 105/10/139
f 60/6/139 54/6/140 105/10/139
f 101/10/142 106/10/154 111/11/155
f 106/10/156 101/10/142 61/6/142
f 106/10/156 61/6/142 62/6/156
f 111/11/157 106/10/158 101/10/144
f 61/6/144 101/10/144 106/10/158
f 62/6/158 61/6/144 106/10/158
f 53/6/150 112/11/151 108/10/150
f 112/11/151 53/6/150 54/6/134
f 112/11/151 54/6/134 110/10/134
f 108/10/152 112/11/153 53/6/152
f 54/6/140 53/6/152 112/11/153
f 110/10/140 54/6/140 112/11/193
