# Blender 4.1.1
# www.blender.org
mtllib tree.042.mtl
o tree.042
v -3.452816 -0.282319 -12.928590
v -3.294520 -0.282319 -12.839677
v -3.487507 -0.282319 -13.052194
v -3.170915 -0.282319 -12.874368
v -3.398594 -0.282319 -13.210490
v -3.082002 -0.282319 -13.032663
v -3.274989 -0.282319 -13.245181
v -3.116693 -0.282319 -13.156268
v -3.289637 0.046402 -12.941052
v -3.368785 0.046402 -12.985509
v -3.386131 0.046402 -13.047312
v -3.227835 0.046402 -12.958399
v -3.183378 0.046402 -13.037546
v -3.200724 0.046402 -13.099348
v -3.279872 0.046402 -13.143806
v -3.341674 0.046402 -13.126459
v -3.179716 0.539521 -13.113579
v -3.278651 0.539521 -13.169149
v -3.355904 0.539521 -13.147467
v -3.290858 0.539521 -12.915709
v -3.389793 0.539521 -12.971279
v -3.158034 0.539521 -13.036325
v -3.213605 0.539521 -12.937391
v -3.411475 0.539521 -13.048532
v -3.319549 0.163768 -12.889875
v -3.363580 0.163768 -12.945872
v -3.248819 0.163768 -12.881413
v -3.192821 0.163768 -12.925443
v -3.355117 0.163768 -13.016603
v -3.184359 0.163768 -12.996173
v -3.299119 0.163768 -13.060633
v -3.228389 0.163768 -13.052172
v -3.345366 0.044485 -12.843910
v -3.234573 0.044485 -12.830655
v -3.414336 0.044485 -12.931626
v -3.401081 0.044485 -13.042420
v -3.146858 0.044485 -12.899625
v -3.313365 0.044485 -13.111389
v -3.133602 0.044485 -13.010419
v -3.202572 0.044485 -13.098135
v -3.732555 0.539521 -13.044757
v -3.511129 0.539521 -13.438971
v -3.547191 1.083027 -13.046948
v -3.416549 1.083027 -13.279536
v -3.049759 0.539521 -12.661237
v -3.501870 0.539521 -12.655890
v -3.144339 1.083027 -12.820669
v -3.411086 1.083027 -12.817515
v -2.828333 0.539521 -13.055449
v -3.013697 1.083027 -13.053257
v -3.149802 1.083027 -13.282690
v -3.059018 0.539521 -13.444316
v -3.408118 1.666943 -12.822800
v -3.541132 1.666943 -13.047020
v -3.309790 2.279410 -12.997858
v -3.340362 2.279410 -13.049395
v -3.251098 2.279410 -13.102347
v -3.311017 2.279410 -13.101640
v -3.152770 1.666943 -13.277407
v -3.413457 1.666943 -13.274324
v -3.019756 1.666943 -13.053185
v -3.147430 1.666943 -12.825883
v -3.220526 2.279410 -13.050811
v -3.249871 2.279410 -12.998566
v -3.276098 1.083027 -12.682532
v -3.596596 1.083027 -12.862555
v -3.278453 1.666943 -12.881679
v -3.425308 1.666943 -12.964166
v -2.959946 1.083027 -12.870082
v -3.133588 1.666943 -12.967615
v -3.600942 1.083027 -13.230124
v -3.427300 1.666943 -13.132591
v -3.284790 1.083027 -13.417673
v -3.282435 1.666943 -13.218528
v -2.964292 1.083027 -13.237653
v -3.135580 1.666943 -13.136040
v -3.696950 0.369968 -13.284050
v -3.536505 0.454744 -13.481745
v -3.782287 0.454744 -13.044168
v -2.778601 0.454744 -13.056037
v -2.869586 0.369968 -13.293834
v -3.034661 0.454744 -13.487679
v -3.286092 0.369968 -13.527782
v -3.526227 0.454744 -12.612527
v -3.691301 0.369968 -12.806372
v -2.863938 0.369968 -12.816155
v -3.024383 0.454744 -12.618462
v -3.274796 0.369968 -12.572425
v -2.892088 0.945179 -13.054695
v -2.924691 1.014103 -12.850280
v -2.929515 1.014103 -13.258283
v -3.275620 1.014103 -12.642100
v -3.470645 0.945179 -12.711481
v -3.631372 1.014103 -12.841925
v -3.478599 0.945179 -13.384134
v -3.285268 1.014103 -13.458105
v -3.636197 1.014103 -13.249926
v -3.090243 0.945179 -13.388725
v -3.668800 0.945179 -13.045511
v -3.082289 0.945179 -12.716072
v -2.991080 1.618061 -13.053525
v -3.043543 1.569178 -13.190639
v -3.138726 1.618061 -13.302410
v -3.283701 1.569178 -13.325533
v -3.428089 1.618061 -13.298988
v -3.132799 1.618061 -12.801218
v -3.277187 1.569178 -12.774673
v -3.422163 1.618061 -12.797795
v -3.520602 1.569178 -13.184999
v -3.569808 1.618061 -13.046681
v -3.040286 1.569178 -12.915209
v -3.517345 1.569178 -12.909567
vn -0.0000 -1.0000 -0.0000
vn -0.1190 0.2942 0.9483
vn -0.7540 0.2944 0.5873
vn -0.1092 0.2944 0.9494
vn -0.7479 0.2942 0.5950
vn -0.9483 0.2942 -0.1189
vn -0.7540 0.2944 0.5872
vn -0.7480 0.2942 0.5950
vn -0.9483 0.2943 -0.1189
vn -0.9494 0.2944 -0.1091
vn 0.5950 0.2942 0.7479
vn -0.1091 0.2944 0.9494
vn 0.5872 0.2944 0.7540
vn -0.1189 0.2942 0.9483
vn 0.9483 0.2942 0.1190
vn 0.5873 0.2944 0.7540
vn 0.9494 0.2944 0.1092
vn 0.1092 0.2944 -0.9494
vn 0.7479 0.2942 -0.5951
vn 0.7540 0.2944 -0.5873
vn 0.1190 0.2942 -0.9483
vn -0.9483 0.2942 -0.1190
vn -0.5873 0.2944 -0.7540
vn -0.9494 0.2944 -0.1092
vn -0.5950 0.2942 -0.7479
vn 0.7540 0.2944 -0.5872
vn 0.9483 0.2943 0.1189
vn 0.9494 0.2944 0.1091
vn 0.9483 0.2942 0.1189
vn 0.7480 0.2942 -0.5950
vn 0.1091 0.2944 -0.9494
vn 0.1189 0.2942 -0.9483
vn -0.5950 0.2942 -0.7480
vn -0.5872 0.2944 -0.7540
vn 0.7845 -0.0513 -0.6180
vn 0.1178 -0.0512 -0.9917
vn 0.7856 -0.0513 -0.6166
vn 0.1178 -0.0513 -0.9917
vn 0.1196 -0.0513 -0.9915
vn -0.6180 -0.0512 -0.7845
vn 0.1177 -0.0513 -0.9917
vn 0.1195 -0.0512 -0.9915
vn -0.6180 -0.0513 -0.7845
vn -0.6166 -0.0512 -0.7856
vn -0.7856 -0.0512 0.6166
vn -0.1196 -0.0513 0.9915
vn -0.1178 -0.0513 0.9917
vn -0.7845 -0.0513 0.6180
vn 0.9917 -0.0513 0.1178
vn 0.6180 -0.0513 0.7845
vn 0.9915 -0.0513 0.1196
vn 0.9917 -0.0512 0.1178
vn 0.6166 -0.0513 0.7856
vn -0.7856 -0.0513 0.6166
vn -0.9915 -0.0513 -0.1195
vn -0.9917 -0.0513 -0.1177
vn 0.9915 -0.0513 0.1195
vn 0.7856 -0.0512 -0.6166
vn 0.7845 -0.0512 -0.6180
vn -0.1177 -0.0513 0.9917
vn 0.6166 -0.0512 0.7856
vn 0.6180 -0.0512 0.7845
vn -0.1195 -0.0512 0.9915
vn -0.9917 -0.0513 -0.1178
vn -0.9915 -0.0513 -0.1196
vn -0.9917 -0.0512 -0.1178
vn -0.6166 -0.0513 -0.7856
vn -0.0000 1.0000 -0.0000
vn 0.2471 0.4042 0.8806
vn -0.4479 0.4042 0.7975
vn -0.4479 0.4043 0.7975
vn -0.7975 0.4042 -0.4480
vn -0.2472 0.4042 -0.8806
vn -0.2472 0.4043 -0.8806
vn 0.4479 0.4042 -0.7975
vn 0.4479 0.4043 -0.7975
vn -0.2471 0.4042 -0.8807
vn -0.2471 0.4042 -0.8806
vn 0.7975 0.4042 0.4480
vn 0.2472 0.4042 0.8806
vn 0.2472 0.4043 0.8806
vn -0.8807 0.4042 0.2471
vn -0.7975 0.4042 -0.4479
vn -0.8806 0.4042 0.2471
vn -0.7975 0.4043 -0.4479
vn 0.8806 0.4042 -0.2471
vn 0.7975 0.4042 0.4479
vn 0.7975 0.4043 0.4479
vn -0.8806 0.4042 0.2472
vn -0.4480 0.4042 0.7975
vn 0.4480 0.4042 -0.7975
vn 0.8806 0.4042 -0.2472
vn 0.4480 0.4043 -0.7974
vn -0.9464 0.3228 0.0112
vn -0.4829 0.3228 -0.8140
vn 0.4829 0.3228 0.8140
vn -0.4635 0.3228 0.8252
vn 0.9464 0.3228 -0.0112
vn 0.4635 0.3228 -0.8252
vn -0.3368 0.7260 0.5996
vn -0.9502 0.3115 0.0112
vn -0.4654 0.3115 0.8285
vn -0.9502 0.3115 0.0113
vn -0.6877 0.7260 0.0081
vn 0.4654 0.3115 -0.8285
vn -0.3509 0.7260 -0.5915
vn 0.3369 0.7260 -0.5996
vn -0.4848 0.3115 -0.8173
vn 0.6877 0.7260 -0.0082
vn 0.4848 0.3115 0.8173
vn 0.9502 0.3115 -0.0112
vn 0.4848 0.3115 0.8172
vn 0.3508 0.7260 0.5915
vn 0.3509 0.7260 0.5915
vn -0.4653 0.3115 0.8285
vn -0.3369 0.7260 0.5996
vn 0.3509 0.7259 0.5915
vn -0.6877 0.7259 0.0082
vn -0.3368 0.7259 0.5996
vn -0.6877 0.7259 0.0081
vn -0.3509 0.7259 -0.5915
vn 0.6877 0.7259 -0.0081
vn 0.6877 0.7259 -0.0082
vn 0.3368 0.7259 -0.5996
vn 0.4654 0.3116 -0.8285
vn 0.6877 0.7260 -0.0081
vn 0.6876 0.7260 -0.0081
vn 0.3368 0.7260 -0.5996
vn -0.6877 0.7260 0.0082
vn -0.4848 0.3115 -0.8172
vn -0.3508 0.7260 -0.5915
vn 0.0112 0.3228 0.9464
vn -0.8140 0.3228 0.4829
vn 0.8252 0.3228 0.4635
vn -0.8252 0.3228 -0.4635
vn -0.0112 0.3228 -0.9464
vn 0.8140 0.3228 -0.4829
vn -0.8625 0.5060 0.0102
vn -0.4401 0.5060 -0.7418
vn -0.7773 0.4530 -0.4366
vn 0.7773 -0.4530 0.4366
vn 0.4401 -0.5060 0.7418
vn 0.8625 -0.5060 -0.0102
vn 0.7668 0.4530 -0.4549
vn 0.8624 0.5060 -0.0102
vn 0.8625 0.5060 -0.0102
vn 0.4224 0.5060 -0.7520
vn -0.8625 -0.5060 0.0102
vn -0.7668 -0.4530 0.4549
vn -0.4224 -0.5060 0.7520
vn -0.0105 0.4530 -0.8915
vn -0.0105 0.4529 -0.8915
vn 0.4401 -0.5061 0.7418
vn 0.0105 -0.4530 0.8915
vn 0.0105 -0.4529 0.8915
vn -0.4224 0.5060 0.7520
vn -0.7668 0.4529 0.4549
vn -0.7668 0.4530 0.4549
vn -0.8624 0.5061 0.0102
vn 0.4224 -0.5060 -0.7520
vn 0.7668 -0.4529 -0.4549
vn 0.7668 -0.4530 -0.4549
vn 0.4401 0.5060 0.7418
vn 0.7773 0.4530 0.4366
vn -0.7773 -0.4530 -0.4366
vn -0.4401 -0.5060 -0.7418
vn 0.0105 0.4530 0.8915
vn -0.0105 -0.4530 -0.8915
vn 0.7418 0.5060 -0.4401
vn 0.7520 0.5060 0.4224
vn 0.8915 0.4530 -0.0105
vn -0.8915 -0.4530 0.0105
vn -0.7520 -0.5060 -0.4224
vn -0.7418 -0.5060 0.4401
vn 0.0102 0.5060 0.8625
vn -0.4366 0.4530 0.7773
vn -0.7418 0.5060 0.4401
vn -0.0102 -0.5060 -0.8625
vn 0.4366 -0.4530 -0.7773
vn -0.0102 -0.5060 -0.8624
vn 0.7418 -0.5060 -0.4401
vn -0.7520 0.5060 -0.4224
vn -0.0102 0.5061 -0.8624
vn -0.4549 0.4530 -0.7668
vn -0.0102 0.5060 -0.8625
vn 0.4549 -0.4530 0.7667
vn 0.0102 -0.5060 0.8625
vn 0.7520 -0.5061 0.4224
vn 0.7520 -0.5060 0.4224
vn 0.4366 0.4529 -0.7773
vn 0.4366 0.4530 -0.7773
vn -0.4366 -0.4529 0.7773
vn -0.4366 -0.4530 0.7773
vn -0.8915 0.4530 0.0105
vn 0.8915 -0.4530 -0.0105
vn 0.4549 0.4529 0.7668
vn -0.4549 -0.4529 -0.7668
vn -0.4224 -0.5061 0.7520
vn 0.4401 0.5061 0.7418
vn 0.0105 0.4530 0.8914
vn -0.4224 0.5061 0.7520
vn -0.4401 -0.5061 -0.7418
vn -0.0105 -0.4530 -0.8914
vn -0.4400 -0.5061 -0.7418
vn 0.7773 -0.4529 0.4366
vn 0.7773 0.4529 0.4366
vn -0.7773 -0.4529 -0.4366
vn -0.8624 0.5060 0.0102
vt 0.593750 0.025000
vt 0.593750 0.104996
vt 0.593750 0.225000
vt 0.093750 0.475000
vt 0.093750 0.275000
vt 0.093750 0.425000
vt 0.093750 0.348778
vt 0.093750 0.338765
vt 0.093750 0.344099
vt 0.093750 0.375000
vt 0.093750 0.325000
s 0
usemtl colormap.002
f 3/1/1 2/1/1 1/1/1
f 2/1/1 3/1/1 4/1/1
f 4/1/1 3/1/1 5/1/1
f 4/1/1 5/1/1 6/1/1
f 6/1/1 5/1/1 7/1/1
f 6/1/1 7/1/1 8/1/1
f 9/2/2 1/1/3 2/1/4
f 1/1/3 9/2/2 10/2/5
f 11/2/6 1/1/7 10/2/8
f 1/1/7 11/2/9 3/1/10
f 12/2/11 2/1/12 4/1/13
f 2/1/12 12/2/11 9/2/14
f 13/2/15 4/1/16 6/1/17
f 4/1/16 13/2/15 12/2/11
f 7/1/18 14/2/19 8/1/20
f 14/2/19 7/1/18 15/2/21
f 11/2/22 5/1/23 3/1/24
f 5/1/23 11/2/22 16/2/25
f 8/1/26 13/2/27 6/1/28
f 13/2/29 8/1/26 14/2/30
f 7/1/31 16/2/25 15/2/32
f 16/2/33 7/1/31 5/1/34
f 14/2/35 18/3/36 17/3/37
f 18/3/38 14/2/35 15/2/39
f 16/2/40 18/3/41 15/2/42
f 18/3/38 16/2/43 19/3/44
f 21/3/45 9/2/46 20/3/47
f 9/2/46 21/3/45 10/2/48
f 22/3/49 12/2/50 13/2/51
f 12/2/50 22/3/52 23/3/53
f 21/3/54 11/2/55 10/2/48
f 11/2/55 21/3/45 24/3/56
f 13/2/57 17/3/58 22/3/49
f 17/3/37 13/2/57 14/2/59
f 20/3/60 12/2/50 23/3/61
f 12/2/62 20/3/60 9/2/63
f 24/3/64 16/2/43 11/2/65
f 16/2/43 24/3/66 19/3/67
f 27/4/68 26/4/68 25/4/68
f 26/4/68 27/4/68 28/4/68
f 26/4/68 28/4/68 29/4/68
f 29/4/68 28/4/68 30/4/68
f 29/4/68 30/4/68 31/4/68
f 31/4/68 30/4/68 32/4/68
f 35/5/1 34/5/1 33/5/1
f 34/5/1 35/5/1 36/5/1
f 34/5/1 36/5/1 37/5/1
f 37/5/1 36/5/1 38/5/1
f 37/5/1 38/5/1 39/5/1
f 39/5/1 38/5/1 40/5/1
f 27/4/69 33/5/70 34/5/69
f 33/5/70 27/4/69 25/4/71
f 29/4/72 38/5/73 36/5/72
f 38/5/73 29/4/72 31/4/74
f 40/5/75 31/4/73 32/4/76
f 31/4/77 40/5/75 38/5/78
f 28/4/79 34/5/80 37/5/79
f 34/5/80 28/4/79 27/4/81
f 26/4/82 36/5/83 35/5/84
f 36/5/83 26/4/84 29/4/85
f 30/4/86 37/5/87 39/5/86
f 37/5/87 30/4/86 28/4/88
f 26/4/89 33/5/71 25/4/90
f 33/5/90 26/4/89 35/5/89
f 40/5/91 30/4/92 39/5/92
f 30/4/92 40/5/93 32/4/91
f 43/6/94 42/7/95 41/7/94
f 42/7/95 43/6/94 44/6/95
f 47/6/96 46/7/97 45/7/96
f 46/7/97 47/6/96 48/6/97
f 50/6/98 45/7/96 49/7/98
f 45/7/96 50/6/98 47/6/96
f 48/6/97 41/7/94 46/7/97
f 41/7/94 48/6/97 43/6/94
f 52/7/99 44/6/95 51/6/99
f 44/6/95 52/7/99 42/7/95
f 52/7/99 50/6/98 49/7/98
f 50/6/98 52/7/99 51/6/99
f 41/7/1 45/7/1 46/7/1
f 45/7/1 41/7/1 42/7/1
f 45/7/1 42/7/1 49/7/1
f 49/7/1 42/7/1 52/7/1
f 55/6/100 54/8/101 53/8/102
f 54/8/103 55/6/100 56/6/104
f 59/8/105 58/6/106 57/6/107
f 58/6/106 59/8/105 60/8/108
f 63/6/109 62/8/110 61/8/111
f 62/8/112 63/6/109 64/6/113
f 64/6/114 53/8/115 62/8/110
f 53/8/102 64/6/114 55/6/116
f 64/6/117 56/6/118 55/6/119
f 56/6/120 64/6/117 58/6/121
f 58/6/121 64/6/117 63/6/122
f 58/6/121 63/6/123 57/6/124
f 59/8/125 63/6/126 61/8/111
f 63/6/127 59/8/105 57/6/128
f 54/8/1 62/8/1 53/8/1
f 62/8/1 54/8/1 60/8/1
f 62/8/1 60/8/1 61/8/1
f 61/8/1 60/8/1 59/8/1
f 56/6/129 60/8/108 54/8/101
f 60/8/130 56/6/129 58/6/131
f 67/6/132 66/9/133 65/9/132
f 66/9/133 67/6/132 68/6/133
f 70/6/134 65/9/132 69/9/134
f 65/9/132 70/6/134 67/6/132
f 68/6/133 71/9/135 66/9/133
f 71/9/135 68/6/133 72/6/135
f 72/6/135 73/9/136 71/9/135
f 73/9/136 72/6/135 74/6/136
f 71/9/1 65/9/1 66/9/1
f 65/9/1 71/9/1 69/9/1
f 69/9/1 71/9/1 73/9/1
f 69/9/1 73/9/1 75/9/1
f 76/6/137 69/9/134 75/9/137
f 69/9/134 76/6/137 70/6/134
f 73/9/136 76/6/137 75/9/137
f 76/6/137 73/9/136 74/6/136
f 79/10/138 78/10/139 77/11/140
f 78/10/139 79/10/138 41/6/138
f 78/10/139 41/6/138 42/6/139
f 77/11/141 78/10/142 79/10/143
f 41/6/143 79/10/143 78/10/142
f 42/6/142 41/6/143 78/10/142
f 81/11/144 49/6/145 80/10/146
f 49/6/145 81/11/144 52/6/147
f 52/6/147 81/11/144 82/10/147
f 80/10/148 49/6/148 81/11/149
f 52/6/150 81/11/149 49/6/148
f 82/10/150 81/11/149 52/6/150
f 82/10/147 42/6/139 52/6/147
f 42/6/139 82/10/147 83/11/151
f 42/6/139 83/11/152 78/10/139
f 52/6/150 42/6/153 82/10/150
f 83/11/154 82/10/150 42/6/142
f 78/10/142 83/11/155 42/6/142
f 46/6/156 85/11/157 84/10/156
f 85/11/158 46/6/156 41/6/159
f 85/11/158 41/6/138 79/10/138
f 84/10/160 85/11/161 46/6/160
f 41/6/143 46/6/160 85/11/162
f 79/10/143 41/6/143 85/11/162
f 80/10/146 87/10/163 86/11/164
f 87/10/163 80/10/146 49/6/146
f 87/10/163 49/6/146 45/6/163
f 86/11/165 87/10/166 80/10/148
f 49/6/148 80/10/148 87/10/166
f 45/6/166 49/6/148 87/10/166
f 45/6/163 88/11/167 87/10/163
f 88/11/167 45/6/163 46/6/156
f 88/11/167 46/6/156 84/10/156
f 87/10/166 88/11/168 45/6/166
f 46/6/160 45/6/166 88/11/168
f 84/10/160 46/6/160 88/11/168
f 91/10/169 90/10/170 89/11/171
f 90/10/170 91/10/169 75/6/169
f 90/10/170 75/6/169 69/6/170
f 89/11/172 90/10/173 91/10/174
f 75/6/174 91/10/174 90/10/173
f 69/6/173 75/6/174 90/10/173
f 65/6/175 93/11/176 92/10/175
f 93/11/176 65/6/175 66/6/177
f 93/11/176 66/6/177 94/10/177
f 92/10/178 93/11/179 65/6/180
f 66/6/181 65/6/178 93/11/179
f 94/10/181 66/6/181 93/11/179
f 97/10/182 96/10/183 95/11/184
f 96/10/185 97/10/182 71/6/182
f 96/10/185 71/6/182 73/6/185
f 95/11/186 96/10/187 97/10/188
f 71/6/189 97/10/189 96/10/187
f 73/6/187 71/6/189 96/10/187
f 98/11/190 75/6/169 91/10/169
f 75/6/169 98/11/191 73/6/185
f 73/6/185 98/11/191 96/10/185
f 91/10/174 75/6/174 98/11/192
f 73/6/187 98/11/193 75/6/174
f 96/10/187 98/11/193 73/6/187
f 94/10/177 97/10/182 99/11/194
f 97/10/182 94/10/177 66/6/177
f 97/10/182 66/6/177 71/6/182
f 99/11/195 97/10/189 94/10/181
f 66/6/181 94/10/181 97/10/189
f 71/6/189 66/6/181 97/10/189
f 90/10/170 92/10/175 100/11/196
f 92/10/175 90/10/170 69/6/170
f 92/10/175 69/6/170 65/6/175
f 100/11/197 92/10/178 90/10/173
f 69/6/173 90/10/173 92/10/178
f 65/6/178 69/6/173 92/10/178
f 102/11/144 61/6/145 101/10/146
f 61/6/145 102/11/144 59/6/147
f 59/6/147 102/11/144 103/10/147
f 101/10/148 61/6/148 102/11/149
f 59/6/150 102/11/149 61/6/148
f 103/10/150 102/11/149 59/6/198
f 103/10/147 60/6/139 59/6/147
f 60/6/139 103/10/147 104/11/151
f 60/6/139 104/11/152 105/10/139
f 59/6/150 60/6/142 103/10/150
f 104/11/155 103/10/150 60/6/142
f 105/10/142 104/11/155 60/6/142
f 62/6/199 107/11/200 106/10/163
f 107/11/167 62/6/163 53/6/201
f 107/11/167 53/6/201 108/10/156
f 106/10/202 107/11/203 62/6/204
f 53/6/160 62/6/166 107/11/168
f 108/10/160 53/6/160 107/11/168
f 110/10/138 105/10/139 109/11/140
f 105/10/139 110/10/138 54/6/138
f 105/10/139 54/6/138 60/6/139
f 109/11/205 105/10/142 110/10/143
f 54/6/143 110/10/143 105/10/142
f 60/6/142 54/6/143 105/10/142
f 101/10/146 106/10/163 111/11/206
f 106/10/163 101/10/146 61/6/146
f 106/10/163 61/6/146 62/6/163
f 111/11/207 106/10/166 101/10/148
f 61/6/148 101/10/148 106/10/166
f 62/6/166 61/6/148 106/10/166
f 53/6/156 112/11/157 108/10/156
f 112/11/158 53/6/156 54/6/208
f 112/11/157 54/6/138 110/10/138
f 108/10/160 112/11/161 53/6/160
f 54/6/143 53/6/160 112/11/162
f 110/10/143 54/6/143 112/11/161
f 3/1/1 2/1/1 1/1/1
f 2/1/1 3/1/1 4/1/1
f 4/1/1 3/1/1 5/1/1
f 4/1/1 5/1/1 6/1/1
f 6/1/1 5/1/1 7/1/1
f 6/1/1 7/1/1 8/1/1
f 9/2/2 1/1/3 2/1/4
f 1/1/3 9/2/2 10/2/5
f 11/2/6 1/1/7 10/2/8
f 1/1/7 11/2/9 3/1/10
f 12/2/11 2/1/12 4/1/13
f 2/1/12 12/2/11 9/2/14
f 13/2/15 4/1/16 6/1/17
f 4/1/16 13/2/15 12/2/11
f 7/1/18 14/2/19 8/1/20
f 14/2/19 7/1/18 15/2/21
f 11/2/22 5/1/23 3/1/24
f 5/1/23 11/2/22 16/2/25
f 8/1/26 13/2/27 6/1/28
f 13/2/29 8/1/26 14/2/30
f 7/1/31 16/2/25 15/2/32
f 16/2/33 7/1/31 5/1/34
f 14/2/35 18/3/36 17/3/37
f 18/3/38 14/2/35 15/2/39
f 16/2/40 18/3/41 15/2/42
f 18/3/38 16/2/43 19/3/44
f 21/3/45 9/2/46 20/3/47
f 9/2/46 21/3/45 10/2/48
f 22/3/49 12/2/50 13/2/51
f 12/2/50 22/3/52 23/3/53
f 21/3/54 11/2/55 10/2/48
f 11/2/55 21/3/45 24/3/56
f 13/2/57 17/3/58 22/3/49
f 17/3/37 13/2/57 14/2/59
f 20/3/60 12/2/50 23/3/61
f 12/2/62 20/3/60 9/2/63
f 24/3/64 16/2/43 11/2/65
f 16/2/43 24/3/66 19/3/67
f 27/4/68 26/4/68 25/4/68
f 26/4/68 27/4/68 28/4/68
f 26/4/68 28/4/68 29/4/68
f 29/4/68 28/4/68 30/4/68
f 29/4/68 30/4/68 31/4/68
f 31/4/68 30/4/68 32/4/68
f 35/5/1 34/5/1 33/5/1
f 34/5/1 35/5/1 36/5/1
f 34/5/1 36/5/1 37/5/1
f 37/5/1 36/5/1 38/5/1
f 37/5/1 38/5/1 39/5/1
f 39/5/1 38/5/1 40/5/1
f 27/4/69 33/5/70 34/5/69
f 33/5/70 27/4/69 25/4/71
f 29/4/72 38/5/73 36/5/72
f 38/5/73 29/4/72 31/4/74
f 40/5/75 31/4/73 32/4/76
f 31/4/77 40/5/75 38/5/78
f 28/4/79 34/5/80 37/5/79
f 34/5/80 28/4/79 27/4/81
f 26/4/82 36/5/83 35/5/84
f 36/5/83 26/4/84 29/4/85
f 30/4/86 37/5/87 39/5/86
f 37/5/87 30/4/86 28/4/88
f 26/4/89 33/5/71 25/4/90
f 33/5/90 26/4/89 35/5/89
f 40/5/91 30/4/92 39/5/92
f 30/4/92 40/5/93 32/4/91
f 43/6/94 42/7/95 41/7/94
f 42/7/95 43/6/94 44/6/95
f 47/6/96 46/7/97 45/7/96
f 46/7/97 47/6/96 48/6/97
f 50/6/98 45/7/96 49/7/98
f 45/7/96 50/6/98 47/6/96
f 48/6/97 41/7/94 46/7/97
f 41/7/94 48/6/97 43/6/94
f 52/7/99 44/6/95 51/6/99
f 44/6/95 52/7/99 42/7/95
f 52/7/99 50/6/98 49/7/98
f 50/6/98 52/7/99 51/6/99
f 41/7/1 45/7/1 46/7/1
f 45/7/1 41/7/1 42/7/1
f 45/7/1 42/7/1 49/7/1
f 49/7/1 42/7/1 52/7/1
f 55/6/100 54/8/101 53/8/102
f 54/8/103 55/6/100 56/6/104
f 59/8/105 58/6/106 57/6/107
f 58/6/106 59/8/105 60/8/108
f 63/6/109 62/8/110 61/8/111
f 62/8/112 63/6/109 64/6/113
f 64/6/114 53/8/115 62/8/110
f 53/8/102 64/6/114 55/6/116
f 64/6/117 56/6/118 55/6/119
f 56/6/120 64/6/117 58/6/121
f 58/6/121 64/6/117 63/6/122
f 58/6/121 63/6/123 57/6/124
f 59/8/125 63/6/126 61/8/111
f 63/6/127 59/8/105 57/6/128
f 54/8/1 62/8/1 53/8/1
f 62/8/1 54/8/1 60/8/1
f 62/8/1 60/8/1 61/8/1
f 61/8/1 60/8/1 59/8/1
f 56/6/129 60/8/108 54/8/101
f 60/8/130 56/6/129 58/6/131
f 67/6/132 66/9/133 65/9/132
f 66/9/133 67/6/132 68/6/133
f 70/6/134 65/9/132 69/9/134
f 65/9/132 70/6/134 67/6/132
f 68/6/133 71/9/135 66/9/133
f 71/9/135 68/6/133 72/6/135
f 72/6/135 73/9/136 71/9/135
f 73/9/136 72/6/135 74/6/136
f 71/9/1 65/9/1 66/9/1
f 65/9/1 71/9/1 69/9/1
f 69/9/1 71/9/1 73/9/1
f 69/9/1 73/9/1 75/9/1
f 76/6/137 69/9/134 75/9/137
f 69/9/134 76/6/137 70/6/134
f 73/9/136 76/6/137 75/9/137
f 76/6/137 73/9/136 74/6/136
f 79/10/138 78/10/139 77/11/140
f 78/10/139 79/10/138 41/6/138
f 78/10/139 41/6/138 42/6/139
f 77/11/141 78/10/142 79/10/143
f 41/6/143 79/10/143 78/10/142
f 42/6/142 41/6/143 78/10/142
f 81/11/144 49/6/145 80/10/146
f 49/6/145 81/11/144 52/6/147
f 52/6/147 81/11/144 82/10/147
f 80/10/148 49/6/148 81/11/149
f 52/6/150 81/11/149 49/6/148
f 82/10/150 81/11/149 52/6/150
f 82/10/147 42/6/139 52/6/147
f 42/6/139 82/10/147 83/11/151
f 42/6/139 83/11/152 78/10/139
f 52/6/150 42/6/153 82/10/150
f 83/11/154 82/10/150 42/6/142
f 78/10/142 83/11/155 42/6/142
f 46/6/156 85/11/157 84/10/156
f 85/11/158 46/6/156 41/6/159
f 85/11/158 41/6/138 79/10/138
f 84/10/160 85/11/161 46/6/160
f 41/6/143 46/6/160 85/11/162
f 79/10/143 41/6/143 85/11/162
f 80/10/146 87/10/163 86/11/164
f 87/10/163 80/10/146 49/6/146
f 87/10/163 49/6/146 45/6/163
f 86/11/165 87/10/166 80/10/148
f 49/6/148 80/10/148 87/10/166
f 45/6/166 49/6/148 87/10/166
f 45/6/163 88/11/167 87/10/163
f 88/11/167 45/6/163 46/6/156
f 88/11/167 46/6/156 84/10/156
f 87/10/166 88/11/168 45/6/166
f 46/6/160 45/6/166 88/11/168
f 84/10/160 46/6/160 88/11/168
f 91/10/169 90/10/170 89/11/171
f 90/10/170 91/10/169 75/6/169
f 90/10/170 75/6/169 69/6/170
f 89/11/172 90/10/173 91/10/174
f 75/6/174 91/10/174 90/10/173
f 69/6/173 75/6/174 90/10/173
f 65/6/175 93/11/176 92/10/175
f 93/11/176 65/6/175 66/6/177
f 93/11/176 66/6/177 94/10/177
f 92/10/178 93/11/179 65/6/180
f 66/6/181 65/6/178 93/11/179
f 94/10/181 66/6/181 93/11/179
f 97/10/182 96/10/183 95/11/184
f 96/10/185 97/10/182 71/6/182
f 96/10/185 71/6/182 73/6/185
f 95/11/186 96/10/187 97/10/188
f 71/6/189 97/10/189 96/10/187
f 73/6/187 71/6/189 96/10/187
f 98/11/190 75/6/169 91/10/169
f 75/6/169 98/11/191 73/6/185
f 73/6/185 98/11/191 96/10/185
f 91/10/174 75/6/174 98/11/192
f 73/6/187 98/11/193 75/6/174
f 96/10/187 98/11/193 73/6/187
f 94/10/177 97/10/182 99/11/194
f 97/10/182 94/10/177 66/6/177
f 97/10/182 66/6/177 71/6/182
f 99/11/195 97/10/189 94/10/181
f 66/6/181 94/10/181 97/10/189
f 71/6/189 66/6/181 97/10/189
f 90/10/170 92/10/175 100/11/196
f 92/10/175 90/10/170 69/6/170
f 92/10/175 69/6/170 65/6/175
f 100/11/197 92/10/178 90/10/173
f 69/6/173 90/10/173 92/10/178
f 65/6/178 69/6/173 92/10/178
f 102/11/144 61/6/145 101/10/146
f 61/6/145 102/11/144 59/6/147
f 59/6/147 102/11/144 103/10/147
f 101/10/148 61/6/148 102/11/149
f 59/6/150 102/11/149 61/6/148
f 103/10/150 102/11/149 59/6/198
f 103/10/147 60/6/139 59/6/147
f 60/6/139 103/10/147 104/11/151
f 60/6/139 104/11/152 105/10/139
f 59/6/150 60/6/142 103/10/150
f 104/11/155 103/10/150 60/6/142
f 105/10/142 104/11/155 60/6/142
f 62/6/199 107/11/200 106/10/163
f 107/11/167 62/6/163 53/6/201
f 107/11/167 53/6/201 108/10/156
f 106/10/202 107/11/203 62/6/204
f 53/6/160 62/6/166 107/11/168
f 108/10/160 53/6/160 107/11/168
f 110/10/138 105/10/139 109/11/140
f 105/10/139 110/10/138 54/6/138
f 105/10/139 54/6/138 60/6/139
f 109/11/205 105/10/142 110/10/143
f 54/6/143 110/10/143 105/10/142
f 60/6/142 54/6/143 105/10/142
f 101/10/146 106/10/163 111/11/206
f 106/10/163 101/10/146 61/6/146
f 106/10/163 61/6/146 62/6/163
f 111/11/207 106/10/166 101/10/148
f 61/6/148 101/10/148 106/10/166
f 62/6/166 61/6/148 106/10/166
f 53/6/156 112/11/157 108/10/156
f 112/11/158 53/6/156 54/6/208
f 112/11/157 54/6/138 110/10/138
f 108/10/160 112/11/161 53/6/160
f 54/6/143 53/6/160 112/11/162
f 110/10/143 54/6/143 112/11/161
