# Blender 4.1.1
# www.blender.org
mtllib cliff_cave_stone.mtl
o cliff_cave_stone
v -0.992386 0.185650 0.385949
v -0.992386 1.185650 0.385949
v -0.992386 0.185650 0.554449
v -0.992386 1.185650 0.554449
v -0.217938 0.673069 0.510150
v -0.217938 0.673069 0.385949
v -0.325720 0.673069 0.554449
v -0.325856 0.673069 0.385949
v -0.325856 0.673069 0.554392
v -0.426216 0.983627 0.513145
v -0.426216 0.983627 0.385949
v -0.492386 0.983627 0.485949
v -0.651046 0.983627 0.385949
v -0.651046 0.983627 0.551158
v -0.492386 1.185650 0.485949
v -0.659053 1.185650 0.554449
v -0.659053 0.948468 0.554449
v -0.734939 0.615255 0.523260
v -0.806885 0.615255 0.493690
v -0.825720 1.185650 0.485949
v -0.825720 0.520618 0.485949
v -0.325720 1.185650 0.554449
v 0.007614 1.185650 0.385949
v 0.007614 0.185650 0.385949
v 0.007614 1.185650 0.554449
v 0.007614 0.185650 0.554449
v -0.092386 0.185650 0.513349
v -0.159053 0.444465 0.485949
v -0.159053 1.185650 0.485949
v -0.734939 0.615255 0.385949
v -0.806885 0.615255 0.385949
v -0.892386 0.185650 0.513349
v -0.892386 0.185650 0.385949
v -0.092386 0.185650 0.385949
vn -1.0000 -0.0000 -0.0000
vn -0.0000 -1.0000 -0.0000
vn 0.3801 -0.0000 0.9249
vn -0.3801 -0.0000 0.9249
vn 1.0000 -0.0000 -0.0000
vn 0.9750 -0.2221 -0.0000
vn -0.9515 -0.3075 -0.0000
vn -0.9684 -0.2494 -0.0000
vn -0.0000 1.0000 -0.0000
vn -0.0000 -0.0000 -1.0000
vn 0.9808 -0.1952 -0.0000
vt -13.051180 0.000000
vt -19.685040 39.370079
vt -19.685040 0.000000
vt -13.051180 39.370079
vt 6.561680 -13.051180
vt 10.805060 -19.685040
vt 10.805060 -14.795210
vt 6.556295 -19.685040
vt 6.556295 -13.053390
vt -0.000000 -15.748030
vt 2.605145 -19.685040
vt 2.605145 -14.677320
vt -6.246436 -19.685040
vt -6.246436 -13.180750
vt 5.986535 39.370079
vt -0.766902 31.416439
vt 5.986535 31.416439
vt -1.107733 39.370079
vt -1.107733 30.032209
vt -11.030410 30.032209
vt -17.322950 16.913601
vt -14.260540 16.913601
vt -18.124680 39.370079
vt -18.124680 13.187720
vt -11.030410 39.370079
vt 1.107733 39.370079
vt 1.101912 19.189720
vt 1.107733 19.189720
vt -3.169940 31.416439
vt -5.986535 39.370079
vt -5.986535 31.416439
vt 13.051180 39.370079
vt 19.685040 0.000000
vt 19.685040 39.370079
vt 13.051180 0.000000
vt 13.245880 39.370079
vt 8.989321 0.000000
vt 13.245880 -0.000000
vt 6.151614 10.189560
vt 6.151614 39.370079
vt -12.381820 -15.443260
vt -9.549311 -19.685040
vt -9.549311 -14.279100
vt -12.381820 -19.685040
vt -19.685040 -13.051180
vt -15.748030 -19.685040
vt -15.748030 -14.669290
vt -19.685040 -19.685040
vt 15.748030 -14.669290
vt 19.685040 -19.685040
vt 19.685040 -13.051180
vt 15.748030 -19.685040
vt 13.180750 29.245060
vt 19.685040 14.370880
vt 19.685040 29.245060
vt 14.279100 14.370880
vt 13.051180 27.825380
vt -8.989321 0.000000
vt -13.245880 39.370079
vt -13.245880 -0.000000
vt -6.151614 13.187720
vt -6.151614 39.370079
vt 18.124680 39.370079
vt 15.618210 19.189720
vt 18.124680 10.189560
vt 11.030410 19.189720
vt 11.030410 39.370079
vt -13.053390 16.243891
vt -19.685040 29.093170
vt -19.685040 16.243891
vt -14.677320 29.093170
vt -14.669290 -3.928222
vt -19.685040 15.887890
vt -19.685040 -3.928222
vt -15.748030 6.593946
vt -14.795210 15.887890
vt -13.123360 -15.748030
vt 0.000000 -15.748030
vt -6.561680 -13.051180
vt 13.123360 -15.748030
vt 15.748030 0.000000
vt 19.685040 0.000000
vt 12.381820 16.913601
vt 6.246436 31.416439
vt -2.605145 31.416439
vt -6.556295 19.189720
vt -10.805060 19.189720
vt -15.748030 0.000000
vt 9.549311 16.913601
vt 15.443260 14.171380
vt 19.685040 -3.073947
vt 19.685040 14.171380
vt 15.748030 10.372420
vt 14.669290 -3.073947
s 0
usemtl stone.026
f 3/1/1 2/2/1 1/3/1
f 2/2/1 3/1/1 4/4/1
f 7/5/2 6/6/2 5/7/2
f 6/6/2 7/5/2 8/8/2
f 8/8/2 7/5/2 9/9/2
f 12/10/2 11/11/2 10/12/2
f 11/11/2 12/10/2 13/13/2
f 13/13/2 12/10/2 14/14/2
f 15/15/3 14/16/3 12/17/3
f 14/16/3 15/15/3 16/18/3
f 16/18/3 17/19/3 14/16/3
f 17/20/4 19/21/4 18/22/4
f 20/23/4 19/21/4 17/20/4
f 19/21/4 20/23/4 21/24/4
f 20/23/4 17/20/4 16/25/4
f 22/26/4 9/27/4 7/28/4
f 9/27/4 22/26/4 10/29/4
f 15/30/4 10/29/4 22/26/4
f 10/29/4 15/30/4 12/31/4
f 25/32/5 24/33/5 23/34/5
f 24/33/5 25/32/5 26/35/5
f 25/36/4 27/37/4 26/38/4
f 27/37/4 25/36/4 28/39/4
f 28/39/4 25/36/4 29/40/4
f 19/41/2 30/42/2 18/43/2
f 30/42/2 19/41/2 31/44/2
f 3/45/2 33/46/2 32/47/2
f 33/46/2 3/45/2 1/48/2
f 27/49/2 24/50/2 26/51/2
f 24/50/2 27/49/2 34/52/2
f 14/53/6 30/54/6 13/55/6
f 30/54/6 14/53/6 18/56/6
f 18/56/6 14/53/6 17/57/6
f 32/58/3 4/59/3 3/60/3
f 4/59/3 32/58/3 21/61/3
f 4/59/3 21/61/3 20/62/3
f 29/63/3 5/64/3 28/65/3
f 5/64/3 29/63/3 7/66/3
f 7/66/3 29/63/3 22/67/3
f 9/68/7 11/69/7 8/70/7
f 11/69/7 9/68/7 10/71/7
f 27/72/8 6/73/8 34/74/8
f 6/73/8 27/72/8 28/75/8
f 5/76/8 6/73/8 28/75/8
f 23/48/9 29/77/9 25/45/9
f 29/77/9 23/48/9 2/50/9
f 29/77/9 2/50/9 15/78/9
f 29/77/9 15/78/9 22/79/9
f 15/78/9 2/50/9 16/5/9
f 16/5/9 2/50/9 20/80/9
f 20/80/9 2/50/9 4/51/9
f 2/34/10 33/81/10 1/82/10
f 33/81/10 2/34/10 31/83/10
f 31/83/10 2/34/10 13/84/10
f 23/2/10 13/84/10 2/34/10
f 23/2/10 11/85/10 13/84/10
f 23/2/10 8/86/10 11/85/10
f 23/2/10 6/87/10 8/86/10
f 24/3/10 6/87/10 23/2/10
f 6/87/10 24/3/10 34/88/10
f 13/84/10 30/89/10 31/83/10
f 19/90/11 33/91/11 31/92/11
f 33/91/11 19/90/11 21/93/11
f 32/94/11 33/91/11 21/93/11
