# Blender 4.1.1
# www.blender.org
mtllib tree.066.mtl
o tree.066
v 5.147107 -4.675250 5.787946
v 5.333078 -4.675250 5.835989
v 5.078143 -4.675250 5.670938
v 5.450086 -4.675250 5.767025
v 5.126186 -4.675250 5.484966
v 5.498129 -4.675250 5.581054
v 5.243194 -4.675250 5.416002
v 5.429166 -4.675250 5.464046
v 5.310607 -4.327482 5.730993
v 5.217621 -4.327482 5.706971
v 5.183139 -4.327482 5.648467
v 5.369111 -4.327482 5.696511
v 5.393133 -4.327482 5.603525
v 5.358651 -4.327482 5.545022
v 5.265666 -4.327482 5.520999
v 5.207161 -4.327482 5.555481
v 5.376280 -3.805792 5.524778
v 5.260047 -3.805792 5.494750
v 5.186918 -3.805792 5.537852
v 5.316225 -3.805792 5.757242
v 5.199993 -3.805792 5.727214
v 5.419382 -3.805792 5.597908
v 5.389354 -3.805792 5.714139
v 5.156890 -3.805792 5.654085
v 5.293881 -4.203316 5.791434
v 5.233683 -4.203316 5.746096
v 5.368508 -4.203316 5.780926
v 5.413846 -4.203316 5.720727
v 5.223175 -4.203316 5.671469
v 5.403338 -4.203316 5.646101
v 5.268514 -4.203316 5.611271
v 5.343140 -4.203316 5.600763
v 5.279932 -4.329511 5.845433
v 5.396827 -4.329511 5.828974
v 5.185635 -4.329511 5.774415
v 5.169176 -4.329511 5.657519
v 5.467845 -4.329511 5.734678
v 5.240194 -4.329511 5.563223
v 5.451386 -4.329511 5.617782
v 5.357090 -4.329511 5.546763
v 4.829556 -3.805792 5.744930
v 4.949203 -3.805792 5.281796
v 5.018527 -3.230796 5.692472
v 5.089118 -3.230796 5.419220
v 5.631728 -3.805792 5.952164
v 5.170819 -3.805792 6.080114
v 5.491812 -3.230796 5.814740
v 5.219873 -3.230796 5.890231
v 5.751374 -3.805792 5.489030
v 5.562404 -3.230796 5.541489
v 5.361057 -3.230796 5.343729
v 5.410112 -3.805792 5.153846
v 5.221477 -2.613048 5.884024
v 5.024704 -2.613048 5.690756
v 5.274609 -1.965095 5.678359
v 5.229381 -1.965095 5.633937
v 5.306322 -1.965095 5.555601
v 5.245237 -1.965095 5.572558
v 5.359454 -2.613048 5.349936
v 5.093692 -2.613048 5.423712
v 5.556226 -2.613048 5.543203
v 5.487238 -2.613048 5.810248
v 5.351550 -1.965095 5.600023
v 5.335692 -1.965095 5.661402
v 5.394490 -3.230796 5.991703
v 5.017958 -3.230796 5.894429
v 5.338130 -2.613048 5.788682
v 5.165599 -2.613048 5.744110
v 5.666997 -3.230796 5.714254
v 5.462996 -2.613048 5.661552
v 4.913933 -3.230796 5.519706
v 5.117934 -2.613048 5.572408
v 5.186440 -3.230796 5.242257
v 5.242800 -2.613048 5.445278
v 5.562973 -3.230796 5.339530
v 5.415331 -2.613048 5.489850
v 4.801140 -3.985170 5.490568
v 4.911664 -3.895481 5.244926
v 4.778856 -3.895481 5.759005
v 5.802074 -3.895481 5.474956
v 5.644604 -3.985170 5.256418
v 5.423273 -3.895481 5.102901
v 5.155279 -3.985170 5.130006
v 5.157658 -3.895481 6.131059
v 4.936327 -3.985170 5.977542
v 5.779790 -3.985170 5.743392
v 5.669267 -3.895481 5.989034
v 5.425651 -3.985170 6.103954
v 5.686379 -3.376631 5.507073
v 5.708416 -3.303713 5.724954
v 5.592948 -3.303713 5.309011
v 5.405932 -3.303713 6.032923
v 5.187691 -3.376631 6.014805
v 4.987982 -3.303713 5.924949
v 4.997326 -3.376631 5.329062
v 5.174998 -3.303713 5.201038
v 4.872515 -3.303713 5.509007
v 5.393239 -3.376631 5.219155
v 4.894551 -3.376631 5.726888
v 5.583605 -3.376631 5.904898
v 5.585460 -2.664763 5.535088
v 5.494662 -2.716478 5.409080
v 5.367042 -2.664763 5.320561
v 5.212517 -2.716478 5.336190
v 5.072047 -2.664763 5.402453
v 5.508883 -2.664763 5.831507
v 5.368413 -2.716478 5.897770
v 5.213888 -2.664763 5.913399
v 5.008319 -2.716478 5.544090
v 4.995471 -2.664763 5.698872
v 5.572610 -2.716478 5.689869
v 5.086268 -2.716478 5.824880
vn -0.0000 -1.0000 -0.0000
vn 0.1278 0.2942 0.9471
vn -0.5784 0.2944 0.7607
vn 0.1376 0.2944 0.9457
vn 0.1278 0.2942 0.9472
vn -0.5706 0.2942 0.7667
vn -0.9471 0.2942 0.1279
vn -0.5785 0.2944 0.7607
vn -0.5707 0.2942 0.7667
vn -0.9471 0.2943 0.1279
vn -0.9457 0.2944 0.1376
vn 0.7667 0.2942 0.5707
vn 0.7607 0.2944 0.5785
vn 0.1279 0.2942 0.9471
vn 0.9472 0.2942 -0.1278
vn 0.7608 0.2944 0.5784
vn 0.9457 0.2944 -0.1376
vn 0.7667 0.2942 0.5706
vn -0.1376 0.2944 -0.9457
vn 0.5706 0.2942 -0.7667
vn 0.5784 0.2944 -0.7607
vn -0.1278 0.2942 -0.9472
vn -0.9471 0.2942 0.1278
vn -0.7608 0.2944 -0.5784
vn -0.9472 0.2942 0.1278
vn -0.7667 0.2942 -0.5706
vn 0.5785 0.2944 -0.7607
vn 0.9471 0.2943 -0.1279
vn 0.9471 0.2942 -0.1279
vn 0.5707 0.2942 -0.7667
vn -0.7667 0.2942 -0.5707
vn -0.1279 0.2942 -0.9471
vn -0.7607 0.2944 -0.5785
vn 0.6001 -0.0513 -0.7983
vn -0.1401 -0.0512 -0.9888
vn 0.6015 -0.0513 -0.7972
vn -0.1401 -0.0513 -0.9888
vn -0.1383 -0.0513 -0.9891
vn -0.7983 -0.0512 -0.6001
vn -0.1384 -0.0512 -0.9891
vn -0.7983 -0.0513 -0.6001
vn -0.7972 -0.0512 -0.6015
vn -0.6015 -0.0512 0.7972
vn 0.1383 -0.0513 0.9891
vn 0.1401 -0.0513 0.9888
vn -0.6001 -0.0513 0.7983
vn 0.9888 -0.0513 -0.1401
vn 0.7983 -0.0513 0.6001
vn 0.9891 -0.0513 -0.1383
vn 0.9888 -0.0512 -0.1401
vn 0.7972 -0.0513 0.6015
vn -0.6015 -0.0513 0.7972
vn -0.9891 -0.0513 0.1384
vn -0.9888 -0.0513 0.1401
vn 0.9891 -0.0513 -0.1384
vn 0.6015 -0.0512 -0.7972
vn 0.6001 -0.0512 -0.7983
vn 0.7972 -0.0512 0.6015
vn 0.7983 -0.0512 0.6001
vn 0.1384 -0.0512 0.9891
vn -0.9891 -0.0513 0.1383
vn -0.9888 -0.0512 0.1401
vn -0.7972 -0.0513 -0.6015
vn -0.0000 1.0000 -0.0000
vn 0.4644 0.4042 0.7880
vn -0.2288 0.4042 0.8856
vn -0.2288 0.4043 0.8856
vn -0.8856 0.4042 -0.2288
vn -0.4645 0.4042 -0.7880
vn -0.4644 0.4043 -0.7879
vn 0.2288 0.4042 -0.8856
vn -0.4644 0.4042 -0.7880
vn 0.2287 0.4043 -0.8856
vn 0.8856 0.4042 0.2288
vn 0.4645 0.4042 0.7880
vn 0.4645 0.4043 0.7879
vn -0.7880 0.4042 0.4644
vn -0.8856 0.4043 -0.2287
vn 0.7880 0.4042 -0.4644
vn 0.8856 0.4043 0.2287
vn -0.7880 0.4042 0.4645
vn 0.7880 0.4042 -0.4645
vn 0.2288 0.4043 -0.8856
vn -0.9120 0.3228 0.2532
vn -0.6753 0.3228 -0.6632
vn 0.6752 0.3228 0.6632
vn -0.2367 0.3228 0.9164
vn 0.9120 0.3228 -0.2532
vn 0.6753 0.3228 0.6632
vn -0.2368 0.3228 0.9164
vn 0.2367 0.3228 -0.9164
vn -0.6752 0.3228 -0.6632
vn 0.2368 0.3228 -0.9164
vn -0.1720 0.7260 0.6659
vn -0.9156 0.3115 0.2542
vn -0.2377 0.3115 0.9200
vn -0.6627 0.7260 0.1839
vn 0.2377 0.3115 -0.9200
vn -0.4907 0.7260 -0.4819
vn 0.1721 0.7260 -0.6659
vn -0.6779 0.3115 -0.6659
vn 0.6627 0.7260 -0.1840
vn 0.6779 0.3115 0.6659
vn 0.9156 0.3115 -0.2542
vn 0.6779 0.3115 0.6658
vn 0.4906 0.7260 0.4819
vn 0.4907 0.7260 0.4819
vn -0.1721 0.7260 0.6659
vn 0.4906 0.7259 0.4819
vn -0.6627 0.7259 0.1840
vn -0.1721 0.7259 0.6659
vn 0.4907 0.7259 0.4819
vn -0.4906 0.7259 -0.4819
vn -0.4907 0.7259 -0.4819
vn 0.6627 0.7259 -0.1840
vn 0.1721 0.7259 -0.6659
vn 0.2377 0.3116 -0.9200
vn 0.6627 0.7260 -0.1839
vn 0.6626 0.7260 -0.1840
vn 0.1720 0.7260 -0.6658
vn -0.6627 0.7260 0.1840
vn -0.6779 0.3115 -0.6658
vn -0.4906 0.7260 -0.4820
vn 0.2532 0.3228 0.9120
vn -0.6632 0.3228 0.6752
vn -0.6632 0.3228 0.6753
vn 0.9164 0.3228 0.2367
vn 0.9164 0.3228 0.2368
vn -0.9164 0.3228 -0.2367
vn -0.2532 0.3228 -0.9120
vn 0.6632 0.3228 -0.6752
vn 0.6632 0.3228 -0.6753
vn -0.8311 0.5060 0.2307
vn -0.6153 0.5060 -0.6044
vn -0.8632 0.4530 -0.2230
vn -0.6154 0.5060 -0.6044
vn 0.8632 -0.4530 0.2230
vn 0.6154 -0.5060 0.6044
vn 0.8311 -0.5060 -0.2307
vn 0.6247 0.4530 -0.6360
vn 0.8311 0.5060 -0.2307
vn 0.2157 0.5060 -0.8351
vn -0.8311 -0.5060 0.2307
vn -0.6247 -0.4530 0.6360
vn -0.2157 -0.5060 0.8351
vn -0.2385 0.4530 -0.8590
vn 0.6153 -0.5060 0.6044
vn 0.2385 -0.4530 0.8590
vn -0.2157 0.5060 0.8351
vn -0.6247 0.4530 0.6360
vn 0.2157 -0.5060 -0.8351
vn 0.6247 -0.4530 -0.6360
vn 0.6153 0.5060 0.6044
vn 0.8632 0.4530 0.2230
vn 0.6154 0.5060 0.6044
vn -0.8632 -0.4530 -0.2230
vn -0.6154 -0.5060 -0.6044
vn 0.2385 0.4530 0.8590
vn -0.6153 -0.5060 -0.6044
vn -0.2385 -0.4530 -0.8590
vn 0.6044 0.5060 -0.6153
vn 0.8351 0.5060 0.2157
vn 0.8590 0.4530 -0.2385
vn 0.6044 0.5060 -0.6154
vn -0.8590 -0.4530 0.2385
vn -0.8351 -0.5060 -0.2157
vn -0.6044 -0.5060 0.6153
vn -0.6044 -0.5060 0.6154
vn 0.2307 0.5060 0.8311
vn -0.2230 0.4530 0.8632
vn -0.6044 0.5060 0.6153
vn -0.6044 0.5060 0.6154
vn -0.2307 -0.5060 -0.8311
vn 0.2230 -0.4530 -0.8632
vn 0.6044 -0.5060 -0.6154
vn 0.6044 -0.5060 -0.6153
vn -0.8351 0.5060 -0.2157
vn -0.2307 0.5060 -0.8311
vn -0.6360 0.4530 -0.6247
vn -0.8351 0.5060 -0.2158
vn 0.6360 -0.4530 0.6247
vn 0.2307 -0.5060 0.8311
vn 0.8351 -0.5060 0.2157
vn 0.2230 0.4530 -0.8632
vn -0.2230 -0.4530 0.8632
vn -0.8590 0.4530 0.2385
vn 0.8590 -0.4530 -0.2385
vn 0.6360 0.4530 0.6247
vn -0.6360 -0.4530 -0.6247
vn 0.6247 0.4529 -0.6361
vn 0.6247 0.4530 -0.6361
vn -0.6247 -0.4529 0.6361
vn 0.2158 0.5060 -0.8351
vn 0.2385 0.4529 0.8591
vn -0.2385 -0.4529 -0.8590
vn -0.6247 0.4530 0.6361
vn 0.6247 -0.4530 -0.6361
vt 0.593750 0.025000
vt 0.593750 0.104996
vt 0.593750 0.225000
vt 0.093750 0.475000
vt 0.093750 0.275000
vt 0.093750 0.425000
vt 0.093750 0.348778
vt 0.093750 0.338765
vt 0.093750 0.344099
vt 0.093750 0.375000
vt 0.093750 0.325000
s 0
usemtl colormap.002
f 3/1/1 2/1/1 1/1/1
f 2/1/1 3/1/1 4/1/1
f 4/1/1 3/1/1 5/1/1
f 4/1/1 5/1/1 6/1/1
f 6/1/1 5/1/1 7/1/1
f 6/1/1 7/1/1 8/1/1
f 9/2/2 1/1/3 2/1/4
f 1/1/3 9/2/5 10/2/6
f 11/2/7 1/1/8 10/2/9
f 1/1/8 11/2/10 3/1/11
f 12/2/12 2/1/4 4/1/13
f 2/1/4 12/2/12 9/2/14
f 13/2/15 4/1/16 6/1/17
f 4/1/16 13/2/15 12/2/18
f 7/1/19 14/2/20 8/1/21
f 14/2/20 7/1/19 15/2/22
f 11/2/23 5/1/24 3/1/11
f 5/1/24 11/2/25 16/2/26
f 8/1/27 13/2/28 6/1/17
f 13/2/29 8/1/27 14/2/30
f 7/1/19 16/2/31 15/2/32
f 16/2/31 7/1/19 5/1/33
f 14/2/34 18/3/35 17/3/36
f 18/3/37 14/2/34 15/2/38
f 16/2/39 18/3/37 15/2/40
f 18/3/37 16/2/41 19/3/42
f 21/3/43 9/2/44 20/3/45
f 9/2/44 21/3/43 10/2/46
f 22/3/47 12/2/48 13/2/49
f 12/2/48 22/3/50 23/3/51
f 21/3/52 11/2/53 10/2/46
f 11/2/53 21/3/43 24/3/54
f 13/2/55 17/3/56 22/3/47
f 17/3/36 13/2/55 14/2/57
f 20/3/45 12/2/48 23/3/58
f 12/2/59 20/3/45 9/2/60
f 24/3/54 16/2/41 11/2/61
f 16/2/41 24/3/62 19/3/63
f 27/4/64 26/4/64 25/4/64
f 26/4/64 27/4/64 28/4/64
f 26/4/64 28/4/64 29/4/64
f 29/4/64 28/4/64 30/4/64
f 29/4/64 30/4/64 31/4/64
f 31/4/64 30/4/64 32/4/64
f 35/5/1 34/5/1 33/5/1
f 34/5/1 35/5/1 36/5/1
f 34/5/1 36/5/1 37/5/1
f 37/5/1 36/5/1 38/5/1
f 37/5/1 38/5/1 39/5/1
f 39/5/1 38/5/1 40/5/1
f 27/4/65 33/5/66 34/5/65
f 33/5/66 27/4/65 25/4/67
f 29/4/68 38/5/69 36/5/68
f 38/5/69 29/4/68 31/4/70
f 40/5/71 31/4/72 32/4/73
f 31/4/72 40/5/71 38/5/72
f 28/4/74 34/5/75 37/5/74
f 34/5/75 28/4/74 27/4/76
f 26/4/77 36/5/68 35/5/77
f 36/5/68 26/4/77 29/4/78
f 30/4/79 37/5/74 39/5/79
f 37/5/74 30/4/79 28/4/80
f 26/4/81 33/5/67 25/4/66
f 33/5/66 26/4/77 35/5/81
f 40/5/71 30/4/82 39/5/82
f 30/4/82 40/5/83 32/4/71
f 43/6/84 42/7/85 41/7/84
f 42/7/85 43/6/84 44/6/85
f 47/6/86 46/7/87 45/7/86
f 46/7/87 47/6/86 48/6/87
f 50/6/88 45/7/89 49/7/88
f 45/7/89 50/6/88 47/6/89
f 48/6/90 41/7/84 46/7/87
f 41/7/84 48/6/90 43/6/84
f 52/7/91 44/6/92 51/6/91
f 44/6/92 52/7/91 42/7/92
f 52/7/93 50/6/88 49/7/88
f 50/6/88 52/7/93 51/6/93
f 41/7/1 45/7/1 46/7/1
f 45/7/1 41/7/1 42/7/1
f 45/7/1 42/7/1 49/7/1
f 49/7/1 42/7/1 52/7/1
f 55/6/94 54/8/95 53/8/96
f 54/8/95 55/6/94 56/6/97
f 59/8/98 58/6/99 57/6/100
f 58/6/99 59/8/98 60/8/101
f 63/6/102 62/8/103 61/8/104
f 62/8/105 63/6/102 64/6/106
f 64/6/107 53/8/96 62/8/103
f 53/8/96 64/6/107 55/6/108
f 64/6/109 56/6/110 55/6/111
f 56/6/110 64/6/112 58/6/113
f 58/6/114 64/6/109 63/6/115
f 58/6/113 63/6/115 57/6/116
f 59/8/117 63/6/118 61/8/104
f 63/6/119 59/8/98 57/6/120
f 54/8/1 62/8/1 53/8/1
f 62/8/1 54/8/1 60/8/1
f 62/8/1 60/8/1 61/8/1
f 61/8/1 60/8/1 59/8/1
f 56/6/121 60/8/101 54/8/95
f 60/8/122 56/6/121 58/6/123
f 67/6/124 66/9/125 65/9/124
f 66/9/125 67/6/124 68/6/126
f 70/6/127 65/9/124 69/9/127
f 65/9/124 70/6/128 67/6/124
f 68/6/125 71/9/129 66/9/125
f 71/9/129 68/6/125 72/6/129
f 72/6/129 73/9/130 71/9/129
f 73/9/130 72/6/129 74/6/130
f 71/9/1 65/9/1 66/9/1
f 65/9/1 71/9/1 69/9/1
f 69/9/1 71/9/1 73/9/1
f 69/9/1 73/9/1 75/9/1
f 76/6/131 69/9/127 75/9/131
f 69/9/127 76/6/131 70/6/127
f 73/9/130 76/6/131 75/9/131
f 76/6/132 73/9/130 74/6/130
f 79/10/133 78/10/134 77/11/135
f 78/10/136 79/10/133 41/6/133
f 78/10/136 41/6/133 42/6/136
f 77/11/137 78/10/138 79/10/139
f 41/6/139 79/10/139 78/10/138
f 42/6/138 41/6/139 78/10/138
f 81/11/140 49/6/141 80/10/141
f 49/6/141 81/11/140 52/6/142
f 52/6/142 81/11/140 82/10/142
f 80/10/143 49/6/143 81/11/144
f 52/6/145 81/11/144 49/6/143
f 82/10/145 81/11/144 52/6/145
f 82/10/142 42/6/136 52/6/142
f 42/6/136 82/10/142 83/11/146
f 42/6/134 83/11/146 78/10/136
f 52/6/145 42/6/147 82/10/145
f 83/11/148 82/10/145 42/6/147
f 78/10/147 83/11/148 42/6/147
f 46/6/149 85/11/150 84/10/149
f 85/11/150 46/6/149 41/6/133
f 85/11/150 41/6/133 79/10/133
f 84/10/151 85/11/152 46/6/151
f 41/6/139 46/6/151 85/11/152
f 79/10/139 41/6/139 85/11/152
f 80/10/141 87/10/153 86/11/154
f 87/10/155 80/10/141 49/6/141
f 87/10/155 49/6/141 45/6/155
f 86/11/156 87/10/157 80/10/143
f 49/6/143 80/10/143 87/10/157
f 45/6/157 49/6/143 87/10/157
f 45/6/153 88/11/158 87/10/155
f 88/11/158 45/6/155 46/6/149
f 88/11/158 46/6/149 84/10/149
f 87/10/159 88/11/160 45/6/159
f 46/6/151 45/6/157 88/11/160
f 84/10/151 46/6/151 88/11/160
f 91/10/161 90/10/162 89/11/163
f 90/10/162 91/10/164 75/6/164
f 90/10/162 75/6/164 69/6/162
f 89/11/165 90/10/166 91/10/167
f 75/6/168 91/10/168 90/10/166
f 69/6/166 75/6/167 90/10/166
f 65/6/169 93/11/170 92/10/169
f 93/11/170 65/6/169 66/6/171
f 93/11/170 66/6/171 94/10/172
f 92/10/173 93/11/174 65/6/173
f 66/6/175 65/6/173 93/11/174
f 94/10/175 66/6/176 93/11/174
f 97/10/177 96/10/178 95/11/179
f 96/10/178 97/10/177 71/6/180
f 96/10/178 71/6/177 73/6/178
f 95/11/181 96/10/182 97/10/183
f 71/6/183 97/10/183 96/10/182
f 73/6/182 71/6/183 96/10/182
f 98/11/184 75/6/161 91/10/164
f 75/6/161 98/11/184 73/6/178
f 73/6/178 98/11/184 96/10/178
f 91/10/168 75/6/167 98/11/185
f 73/6/182 98/11/185 75/6/168
f 96/10/182 98/11/185 73/6/182
f 94/10/171 97/10/177 99/11/186
f 97/10/177 94/10/172 66/6/172
f 97/10/177 66/6/172 71/6/177
f 99/11/187 97/10/183 94/10/176
f 66/6/175 94/10/175 97/10/183
f 71/6/183 66/6/176 97/10/183
f 90/10/162 92/10/169 100/11/188
f 92/10/169 90/10/162 69/6/162
f 92/10/169 69/6/162 65/6/169
f 100/11/189 92/10/173 90/10/166
f 69/6/166 90/10/166 92/10/173
f 65/6/173 69/6/166 92/10/173
f 102/11/190 61/6/141 101/10/141
f 61/6/141 102/11/140 59/6/142
f 59/6/142 102/11/191 103/10/142
f 101/10/143 61/6/143 102/11/192
f 59/6/145 102/11/144 61/6/143
f 103/10/145 102/11/192 59/6/145
f 103/10/193 60/6/136 59/6/142
f 60/6/136 103/10/142 104/11/146
f 60/6/134 104/11/146 105/10/136
f 59/6/145 60/6/147 103/10/145
f 104/11/148 103/10/145 60/6/147
f 105/10/138 104/11/148 60/6/147
f 62/6/155 107/11/158 106/10/155
f 107/11/194 62/6/155 53/6/149
f 107/11/158 53/6/149 108/10/149
f 106/10/157 107/11/160 62/6/159
f 53/6/151 62/6/157 107/11/195
f 108/10/151 53/6/151 107/11/160
f 110/10/133 105/10/134 109/11/135
f 105/10/136 110/10/133 54/6/133
f 105/10/136 54/6/133 60/6/136
f 109/11/137 105/10/138 110/10/139
f 54/6/139 110/10/139 105/10/138
f 60/6/138 54/6/139 105/10/138
f 101/10/141 106/10/153 111/11/154
f 106/10/155 101/10/141 61/6/141
f 106/10/155 61/6/141 62/6/155
f 111/11/156 106/10/157 101/10/143
f 61/6/143 101/10/143 106/10/157
f 62/6/157 61/6/143 106/10/157
f 53/6/149 112/11/196 108/10/149
f 112/11/150 53/6/149 54/6/133
f 112/11/150 54/6/133 110/10/133
f 108/10/151 112/11/197 53/6/151
f 54/6/139 53/6/151 112/11/152
f 110/10/139 54/6/139 112/11/152
f 3/1/1 2/1/1 1/1/1
f 2/1/1 3/1/1 4/1/1
f 4/1/1 3/1/1 5/1/1
f 4/1/1 5/1/1 6/1/1
f 6/1/1 5/1/1 7/1/1
f 6/1/1 7/1/1 8/1/1
f 9/2/2 1/1/3 2/1/4
f 1/1/3 9/2/5 10/2/6
f 11/2/7 1/1/8 10/2/9
f 1/1/8 11/2/10 3/1/11
f 12/2/12 2/1/4 4/1/13
f 2/1/4 12/2/12 9/2/14
f 13/2/15 4/1/16 6/1/17
f 4/1/16 13/2/15 12/2/18
f 7/1/19 14/2/20 8/1/21
f 14/2/20 7/1/19 15/2/22
f 11/2/23 5/1/24 3/1/11
f 5/1/24 11/2/25 16/2/26
f 8/1/27 13/2/28 6/1/17
f 13/2/29 8/1/27 14/2/30
f 7/1/19 16/2/31 15/2/32
f 16/2/31 7/1/19 5/1/33
f 14/2/34 18/3/35 17/3/36
f 18/3/37 14/2/34 15/2/38
f 16/2/39 18/3/37 15/2/40
f 18/3/37 16/2/41 19/3/42
f 21/3/43 9/2/44 20/3/45
f 9/2/44 21/3/43 10/2/46
f 22/3/47 12/2/48 13/2/49
f 12/2/48 22/3/50 23/3/51
f 21/3/52 11/2/53 10/2/46
f 11/2/53 21/3/43 24/3/54
f 13/2/55 17/3/56 22/3/47
f 17/3/36 13/2/55 14/2/57
f 20/3/45 12/2/48 23/3/58
f 12/2/59 20/3/45 9/2/60
f 24/3/54 16/2/41 11/2/61
f 16/2/41 24/3/62 19/3/63
f 27/4/64 26/4/64 25/4/64
f 26/4/64 27/4/64 28/4/64
f 26/4/64 28/4/64 29/4/64
f 29/4/64 28/4/64 30/4/64
f 29/4/64 30/4/64 31/4/64
f 31/4/64 30/4/64 32/4/64
f 35/5/1 34/5/1 33/5/1
f 34/5/1 35/5/1 36/5/1
f 34/5/1 36/5/1 37/5/1
f 37/5/1 36/5/1 38/5/1
f 37/5/1 38/5/1 39/5/1
f 39/5/1 38/5/1 40/5/1
f 27/4/65 33/5/66 34/5/65
f 33/5/66 27/4/65 25/4/67
f 29/4/68 38/5/69 36/5/68
f 38/5/69 29/4/68 31/4/70
f 40/5/71 31/4/72 32/4/73
f 31/4/72 40/5/71 38/5/72
f 28/4/74 34/5/75 37/5/74
f 34/5/75 28/4/74 27/4/76
f 26/4/77 36/5/68 35/5/77
f 36/5/68 26/4/77 29/4/78
f 30/4/79 37/5/74 39/5/79
f 37/5/74 30/4/79 28/4/80
f 26/4/81 33/5/67 25/4/66
f 33/5/66 26/4/77 35/5/81
f 40/5/71 30/4/82 39/5/82
f 30/4/82 40/5/83 32/4/71
f 43/6/84 42/7/85 41/7/84
f 42/7/85 43/6/84 44/6/85
f 47/6/86 46/7/87 45/7/86
f 46/7/87 47/6/86 48/6/87
f 50/6/88 45/7/89 49/7/88
f 45/7/89 50/6/88 47/6/89
f 48/6/90 41/7/84 46/7/87
f 41/7/84 48/6/90 43/6/84
f 52/7/91 44/6/92 51/6/91
f 44/6/92 52/7/91 42/7/92
f 52/7/93 50/6/88 49/7/88
f 50/6/88 52/7/93 51/6/93
f 41/7/1 45/7/1 46/7/1
f 45/7/1 41/7/1 42/7/1
f 45/7/1 42/7/1 49/7/1
f 49/7/1 42/7/1 52/7/1
f 55/6/94 54/8/95 53/8/96
f 54/8/95 55/6/94 56/6/97
f 59/8/98 58/6/99 57/6/100
f 58/6/99 59/8/98 60/8/101
f 63/6/102 62/8/103 61/8/104
f 62/8/105 63/6/102 64/6/106
f 64/6/107 53/8/96 62/8/103
f 53/8/96 64/6/107 55/6/108
f 64/6/109 56/6/110 55/6/111
f 56/6/110 64/6/112 58/6/113
f 58/6/114 64/6/109 63/6/115
f 58/6/113 63/6/115 57/6/116
f 59/8/117 63/6/118 61/8/104
f 63/6/119 59/8/98 57/6/120
f 54/8/1 62/8/1 53/8/1
f 62/8/1 54/8/1 60/8/1
f 62/8/1 60/8/1 61/8/1
f 61/8/1 60/8/1 59/8/1
f 56/6/121 60/8/101 54/8/95
f 60/8/122 56/6/121 58/6/123
f 67/6/124 66/9/125 65/9/124
f 66/9/125 67/6/124 68/6/126
f 70/6/127 65/9/124 69/9/127
f 65/9/124 70/6/128 67/6/124
f 68/6/125 71/9/129 66/9/125
f 71/9/129 68/6/125 72/6/129
f 72/6/129 73/9/130 71/9/129
f 73/9/130 72/6/129 74/6/130
f 71/9/1 65/9/1 66/9/1
f 65/9/1 71/9/1 69/9/1
f 69/9/1 71/9/1 73/9/1
f 69/9/1 73/9/1 75/9/1
f 76/6/131 69/9/127 75/9/131
f 69/9/127 76/6/131 70/6/127
f 73/9/130 76/6/131 75/9/131
f 76/6/132 73/9/130 74/6/130
f 79/10/133 78/10/134 77/11/135
f 78/10/136 79/10/133 41/6/133
f 78/10/136 41/6/133 42/6/136
f 77/11/137 78/10/138 79/10/139
f 41/6/139 79/10/139 78/10/138
f 42/6/138 41/6/139 78/10/138
f 81/11/140 49/6/141 80/10/141
f 49/6/141 81/11/140 52/6/142
f 52/6/142 81/11/140 82/10/142
f 80/10/143 49/6/143 81/11/144
f 52/6/145 81/11/144 49/6/143
f 82/10/145 81/11/144 52/6/145
f 82/10/142 42/6/136 52/6/142
f 42/6/136 82/10/142 83/11/146
f 42/6/134 83/11/146 78/10/136
f 52/6/145 42/6/147 82/10/145
f 83/11/148 82/10/145 42/6/147
f 78/10/147 83/11/148 42/6/147
f 46/6/149 85/11/150 84/10/149
f 85/11/150 46/6/149 41/6/133
f 85/11/150 41/6/133 79/10/133
f 84/10/151 85/11/152 46/6/151
f 41/6/139 46/6/151 85/11/152
f 79/10/139 41/6/139 85/11/152
f 80/10/141 87/10/153 86/11/154
f 87/10/155 80/10/141 49/6/141
f 87/10/155 49/6/141 45/6/155
f 86/11/156 87/10/157 80/10/143
f 49/6/143 80/10/143 87/10/157
f 45/6/157 49/6/143 87/10/157
f 45/6/153 88/11/158 87/10/155
f 88/11/158 45/6/155 46/6/149
f 88/11/158 46/6/149 84/10/149
f 87/10/159 88/11/160 45/6/159
f 46/6/151 45/6/157 88/11/160
f 84/10/151 46/6/151 88/11/160
f 91/10/161 90/10/162 89/11/163
f 90/10/162 91/10/164 75/6/164
f 90/10/162 75/6/164 69/6/162
f 89/11/165 90/10/166 91/10/167
f 75/6/168 91/10/168 90/10/166
f 69/6/166 75/6/167 90/10/166
f 65/6/169 93/11/170 92/10/169
f 93/11/170 65/6/169 66/6/171
f 93/11/170 66/6/171 94/10/172
f 92/10/173 93/11/174 65/6/173
f 66/6/175 65/6/173 93/11/174
f 94/10/175 66/6/176 93/11/174
f 97/10/177 96/10/178 95/11/179
f 96/10/178 97/10/177 71/6/180
f 96/10/178 71/6/177 73/6/178
f 95/11/181 96/10/182 97/10/183
f 71/6/183 97/10/183 96/10/182
f 73/6/182 71/6/183 96/10/182
f 98/11/184 75/6/161 91/10/164
f 75/6/161 98/11/184 73/6/178
f 73/6/178 98/11/184 96/10/178
f 91/10/168 75/6/167 98/11/185
f 73/6/182 98/11/185 75/6/168
f 96/10/182 98/11/185 73/6/182
f 94/10/171 97/10/177 99/11/186
f 97/10/177 94/10/172 66/6/172
f 97/10/177 66/6/172 71/6/177
f 99/11/187 97/10/183 94/10/176
f 66/6/175 94/10/175 97/10/183
f 71/6/183 66/6/176 97/10/183
f 90/10/162 92/10/169 100/11/188
f 92/10/169 90/10/162 69/6/162
f 92/10/169 69/6/162 65/6/169
f 100/11/189 92/10/173 90/10/166
f 69/6/166 90/10/166 92/10/173
f 65/6/173 69/6/166 92/10/173
f 102/11/190 61/6/141 101/10/141
f 61/6/141 102/11/140 59/6/142
f 59/6/142 102/11/191 103/10/142
f 101/10/143 61/6/143 102/11/192
f 59/6/145 102/11/144 61/6/143
f 103/10/145 102/11/192 59/6/145
f 103/10/193 60/6/136 59/6/142
f 60/6/136 103/10/142 104/11/146
f 60/6/134 104/11/146 105/10/136
f 59/6/145 60/6/147 103/10/145
f 104/11/148 103/10/145 60/6/147
f 105/10/138 104/11/148 60/6/147
f 62/6/155 107/11/158 106/10/155
f 107/11/194 62/6/155 53/6/149
f 107/11/158 53/6/149 108/10/149
f 106/10/157 107/11/160 62/6/159
f 53/6/151 62/6/157 107/11/195
f 108/10/151 53/6/151 107/11/160
f 110/10/133 105/10/134 109/11/135
f 105/10/136 110/10/133 54/6/133
f 105/10/136 54/6/133 60/6/136
f 109/11/137 105/10/138 110/10/139
f 54/6/139 110/10/139 105/10/138
f 60/6/138 54/6/139 105/10/138
f 101/10/141 106/10/153 111/11/154
f 106/10/155 101/10/141 61/6/141
f 106/10/155 61/6/141 62/6/155
f 111/11/156 106/10/157 101/10/143
f 61/6/143 101/10/143 106/10/157
f 62/6/157 61/6/143 106/10/157
f 53/6/149 112/11/196 108/10/149
f 112/11/150 53/6/149 54/6/133
f 112/11/150 54/6/133 110/10/133
f 108/10/151 112/11/197 53/6/151
f 54/6/139 53/6/151 112/11/152
f 110/10/139 54/6/139 112/11/152
