# Blender 4.1.1
# www.blender.org
mtllib tree.066.mtl
o tree.066
v 4.865182 -0.282319 5.471004
v 5.040968 -0.282319 5.516417
v 4.799995 -0.282319 5.360404
v 5.151568 -0.282319 5.451230
v 4.845407 -0.282319 5.184618
v 5.196980 -0.282319 5.275443
v 4.956007 -0.282319 5.119431
v 5.131793 -0.282319 5.164843
v 5.019728 0.046402 5.417170
v 4.931835 0.046402 5.394464
v 4.899241 0.046402 5.339164
v 5.075027 0.046402 5.384577
v 5.097734 0.046402 5.296683
v 5.065141 0.046402 5.241384
v 4.977248 0.046402 5.218677
v 4.921948 0.046402 5.251270
v 5.081804 0.539521 5.222249
v 4.971938 0.539521 5.193865
v 4.902813 0.539521 5.234607
v 5.025038 0.539521 5.441982
v 4.915172 0.539521 5.413599
v 5.122546 0.539521 5.291373
v 5.094162 0.539521 5.401240
v 4.874430 0.539521 5.344474
v 5.003919 0.163769 5.474301
v 4.947017 0.163769 5.431446
v 5.074458 0.163769 5.464369
v 5.117313 0.163769 5.407467
v 4.937084 0.163769 5.360907
v 5.107381 0.163769 5.336928
v 4.979940 0.163769 5.304005
v 5.050479 0.163769 5.294072
v 4.990732 0.044485 5.525343
v 5.101226 0.044485 5.509785
v 4.901600 0.044485 5.458214
v 4.886042 0.044485 5.347720
v 5.168355 0.044485 5.420653
v 4.953172 0.044485 5.258588
v 5.152797 0.044485 5.310160
v 5.063665 0.044485 5.243030
v 4.565022 0.539521 5.430344
v 4.678116 0.539521 4.992574
v 4.743644 1.083028 5.380758
v 4.810369 1.083028 5.122472
v 5.323262 0.539521 5.626228
v 4.887596 0.539521 5.747171
v 5.191009 1.083028 5.496331
v 4.933964 1.083028 5.567688
v 5.436356 0.539521 5.188458
v 5.257735 1.083028 5.238044
v 5.067415 1.083028 5.051116
v 5.113783 0.539521 4.871631
v 4.935479 1.666943 5.561821
v 4.749483 1.666943 5.379137
v 4.985701 2.279410 5.367419
v 4.942950 2.279410 5.325430
v 5.015677 2.279410 5.251384
v 4.957939 2.279410 5.267412
v 5.065899 1.666943 5.056983
v 4.814693 1.666943 5.126718
v 5.251895 1.666943 5.239666
v 5.186686 1.666943 5.492085
v 5.058428 2.279410 5.293373
v 5.043440 2.279410 5.351390
v 5.099017 1.083028 5.663602
v 4.743106 1.083028 5.571656
v 5.045744 1.666943 5.471700
v 4.882662 1.666943 5.429569
v 5.356600 1.083028 5.401348
v 5.163772 1.666943 5.351532
v 4.644779 1.083028 5.217455
v 4.837607 1.666943 5.267271
v 4.902361 1.083028 4.955201
v 4.955635 1.666943 5.147103
v 5.258273 1.083028 5.047147
v 5.118717 1.666943 5.189233
v 4.538163 0.369968 5.189912
v 4.642633 0.454744 4.957723
v 4.517099 0.454744 5.443648
v 5.484280 0.454744 5.175155
v 5.335433 0.369968 4.968586
v 5.126224 0.454744 4.823476
v 4.872907 0.369968 4.849097
v 4.875155 0.454744 5.795326
v 4.665946 0.369968 5.650217
v 5.463216 0.369968 5.428891
v 5.358746 0.454744 5.661079
v 5.128471 0.369968 5.769706
v 5.374920 0.945179 5.205513
v 5.395750 1.014103 5.411462
v 5.286607 1.014103 5.018299
v 5.109833 1.014103 5.702564
v 4.903543 0.945179 5.685439
v 4.714772 1.014103 5.600504
v 4.723604 0.945179 5.037251
v 4.891546 1.014103 4.916239
v 4.605628 1.014103 5.207341
v 5.097835 0.945179 4.933363
v 4.626458 0.945179 5.413290
v 5.277775 0.945179 5.581551
v 5.279528 1.618061 5.231994
v 5.193703 1.569178 5.112887
v 5.073072 1.618061 5.029216
v 4.927010 1.569178 5.043989
v 4.794233 1.618061 5.106623
v 5.207145 1.618061 5.512179
v 5.074368 1.569178 5.574813
v 4.928306 1.618061 5.589586
v 4.733996 1.569178 5.240504
v 4.721850 1.618061 5.386808
v 5.267383 1.569178 5.378299
v 4.807675 1.569178 5.505916
vn -0.0000 -1.0000 -0.0000
vn 0.1278 0.2942 0.9471
vn -0.5784 0.2944 0.7607
vn 0.1376 0.2944 0.9457
vn 0.1278 0.2942 0.9472
vn -0.5706 0.2942 0.7667
vn -0.9471 0.2942 0.1279
vn -0.5785 0.2944 0.7607
vn -0.5707 0.2942 0.7667
vn -0.9471 0.2943 0.1279
vn -0.9457 0.2944 0.1376
vn 0.7667 0.2942 0.5707
vn 0.7607 0.2944 0.5785
vn 0.1279 0.2942 0.9471
vn 0.9472 0.2942 -0.1278
vn 0.7607 0.2944 0.5784
vn 0.9457 0.2944 -0.1376
vn 0.7667 0.2942 0.5706
vn -0.1376 0.2944 -0.9457
vn 0.5706 0.2942 -0.7667
vn 0.5784 0.2944 -0.7607
vn -0.1278 0.2942 -0.9472
vn -0.9471 0.2942 0.1278
vn -0.7608 0.2944 -0.5784
vn -0.7607 0.2944 -0.5784
vn -0.9472 0.2942 0.1278
vn -0.7667 0.2942 -0.5706
vn 0.5785 0.2944 -0.7607
vn 0.9471 0.2943 -0.1279
vn 0.9471 0.2942 -0.1279
vn -0.7667 0.2942 -0.5707
vn -0.1279 0.2942 -0.9471
vn -0.7607 0.2944 -0.5785
vn 0.6001 -0.0513 -0.7983
vn -0.1401 -0.0512 -0.9888
vn 0.6015 -0.0513 -0.7972
vn -0.1401 -0.0513 -0.9888
vn -0.1383 -0.0513 -0.9891
vn -0.7983 -0.0512 -0.6001
vn -0.1384 -0.0512 -0.9891
vn -0.7983 -0.0513 -0.6001
vn -0.7972 -0.0512 -0.6015
vn -0.6015 -0.0512 0.7972
vn 0.1383 -0.0513 0.9891
vn 0.1401 -0.0513 0.9888
vn -0.6001 -0.0513 0.7983
vn 0.9888 -0.0513 -0.1401
vn 0.7983 -0.0513 0.6001
vn 0.9891 -0.0513 -0.1383
vn 0.9888 -0.0512 -0.1401
vn 0.7972 -0.0513 0.6015
vn -0.6015 -0.0513 0.7972
vn -0.9891 -0.0513 0.1384
vn -0.6001 -0.0512 0.7983
vn -0.9888 -0.0513 0.1401
vn 0.9891 -0.0513 -0.1384
vn 0.6015 -0.0512 -0.7972
vn 0.9890 -0.0513 -0.1384
vn 0.6001 -0.0512 -0.7983
vn 0.7972 -0.0512 0.6015
vn 0.7983 -0.0512 0.6001
vn 0.1384 -0.0512 0.9891
vn -0.9891 -0.0513 0.1383
vn -0.9888 -0.0512 0.1401
vn -0.7972 -0.0513 -0.6015
vn -0.0000 1.0000 -0.0000
vn 0.4644 0.4042 0.7880
vn -0.2288 0.4042 0.8856
vn -0.2288 0.4043 0.8856
vn -0.8856 0.4042 -0.2288
vn -0.4645 0.4042 -0.7880
vn -0.4644 0.4043 -0.7880
vn 0.2288 0.4042 -0.8856
vn -0.4644 0.4042 -0.7880
vn 0.2287 0.4043 -0.8856
vn 0.8856 0.4042 0.2288
vn 0.4645 0.4042 0.7880
vn 0.4645 0.4043 0.7879
vn -0.7880 0.4042 0.4644
vn -0.8856 0.4043 -0.2287
vn 0.7880 0.4042 -0.4644
vn 0.8856 0.4043 0.2287
vn -0.7880 0.4042 0.4645
vn 0.7880 0.4042 -0.4645
vn 0.2288 0.4043 -0.8856
vn -0.9120 0.3228 0.2532
vn -0.6753 0.3228 -0.6632
vn 0.6752 0.3228 0.6632
vn -0.2367 0.3228 0.9164
vn 0.9120 0.3228 -0.2532
vn 0.6753 0.3228 0.6632
vn -0.2368 0.3228 0.9164
vn 0.2367 0.3228 -0.9164
vn -0.6752 0.3228 -0.6632
vn 0.2368 0.3228 -0.9164
vn -0.1720 0.7260 0.6659
vn -0.9156 0.3115 0.2542
vn -0.2377 0.3115 0.9200
vn -0.6627 0.7260 0.1839
vn 0.2377 0.3115 -0.9200
vn -0.4907 0.7260 -0.4819
vn 0.1721 0.7260 -0.6659
vn -0.6779 0.3115 -0.6659
vn 0.6627 0.7260 -0.1840
vn 0.6779 0.3115 0.6659
vn 0.9156 0.3115 -0.2542
vn 0.6779 0.3115 0.6658
vn 0.4906 0.7260 0.4819
vn 0.4907 0.7260 0.4819
vn -0.1721 0.7260 0.6659
vn 0.4906 0.7259 0.4819
vn -0.6627 0.7259 0.1840
vn -0.1721 0.7259 0.6659
vn 0.4907 0.7259 0.4819
vn -0.4906 0.7259 -0.4819
vn -0.4907 0.7259 -0.4819
vn 0.6627 0.7259 -0.1840
vn 0.1721 0.7259 -0.6659
vn 0.2377 0.3116 -0.9200
vn 0.6627 0.7260 -0.1839
vn 0.6626 0.7260 -0.1840
vn 0.1720 0.7260 -0.6658
vn -0.6627 0.7260 0.1840
vn -0.6780 0.3115 -0.6659
vn -0.6779 0.3115 -0.6658
vn -0.4906 0.7260 -0.4820
vn 0.2532 0.3228 0.9120
vn -0.6632 0.3228 0.6752
vn -0.6632 0.3228 0.6753
vn 0.9164 0.3228 0.2367
vn 0.9164 0.3228 0.2368
vn -0.9164 0.3228 -0.2367
vn -0.2532 0.3228 -0.9120
vn -0.9164 0.3228 -0.2368
vn 0.6632 0.3228 -0.6752
vn -0.8311 0.5060 0.2307
vn -0.6153 0.5060 -0.6044
vn -0.8632 0.4530 -0.2230
vn -0.6154 0.5060 -0.6044
vn 0.8632 -0.4530 0.2230
vn 0.6154 -0.5060 0.6044
vn 0.8311 -0.5060 -0.2307
vn 0.6247 0.4530 -0.6360
vn 0.8311 0.5060 -0.2307
vn 0.2157 0.5060 -0.8351
vn -0.8311 -0.5060 0.2307
vn -0.6247 -0.4530 0.6360
vn -0.2157 -0.5060 0.8351
vn -0.2385 0.4530 -0.8590
vn 0.6153 -0.5060 0.6044
vn 0.2385 -0.4530 0.8590
vn -0.2157 0.5060 0.8351
vn -0.6247 0.4530 0.6360
vn -0.6247 0.4530 0.6361
vn 0.2157 -0.5060 -0.8351
vn 0.6247 -0.4530 -0.6360
vn 0.6247 -0.4530 -0.6361
vn 0.6153 0.5060 0.6044
vn 0.8632 0.4530 0.2230
vn 0.6154 0.5060 0.6044
vn -0.8632 -0.4530 -0.2230
vn -0.6154 -0.5060 -0.6044
vn 0.2385 0.4530 0.8590
vn -0.6153 -0.5060 -0.6044
vn -0.2385 -0.4530 -0.8590
vn 0.6044 0.5060 -0.6153
vn 0.8351 0.5060 0.2157
vn 0.8590 0.4530 -0.2385
vn 0.6044 0.5060 -0.6154
vn -0.8590 -0.4530 0.2385
vn -0.8351 -0.5060 -0.2157
vn -0.6044 -0.5060 0.6153
vn -0.6044 -0.5060 0.6154
vn 0.2307 0.5060 0.8311
vn -0.2230 0.4530 0.8632
vn -0.6044 0.5060 0.6153
vn -0.6044 0.5060 0.6154
vn -0.2307 -0.5060 -0.8311
vn 0.2230 -0.4530 -0.8632
vn 0.6044 -0.5060 -0.6154
vn -0.8351 0.5060 -0.2157
vn -0.2307 0.5060 -0.8311
vn -0.6360 0.4530 -0.6247
vn 0.6360 -0.4530 0.6247
vn 0.2307 -0.5060 0.8311
vn 0.8351 -0.5060 0.2157
vn 0.2230 0.4530 -0.8632
vn -0.2230 -0.4530 0.8632
vn -0.8590 0.4530 0.2385
vn -0.8351 0.5060 -0.2158
vn 0.8590 -0.4530 -0.2385
vn 0.6044 -0.5060 -0.6153
vn 0.6360 0.4530 0.6247
vn -0.6360 -0.4530 -0.6247
vn 0.6247 0.4530 -0.6361
vn 0.6247 0.4529 -0.6361
vn -0.6247 -0.4529 0.6361
vn -0.2385 0.4529 -0.8591
vn 0.2385 -0.4529 0.8591
vn 0.2385 0.4529 0.8591
vn -0.2385 -0.4529 -0.8591
vn 0.2157 -0.5061 -0.8351
vt 0.593750 0.025000
vt 0.593750 0.104996
vt 0.593750 0.225000
vt 0.093750 0.475000
vt 0.093750 0.275000
vt 0.093750 0.425000
vt 0.093750 0.348778
vt 0.093750 0.338765
vt 0.093750 0.344099
vt 0.093750 0.375000
vt 0.093750 0.325000
s 0
usemtl colormap.002
f 3/1/1 2/1/1 1/1/1
f 2/1/1 3/1/1 4/1/1
f 4/1/1 3/1/1 5/1/1
f 4/1/1 5/1/1 6/1/1
f 6/1/1 5/1/1 7/1/1
f 6/1/1 7/1/1 8/1/1
f 9/2/2 1/1/3 2/1/4
f 1/1/3 9/2/5 10/2/6
f 11/2/7 1/1/8 10/2/9
f 1/1/8 11/2/10 3/1/11
f 12/2/12 2/1/4 4/1/13
f 2/1/4 12/2/12 9/2/14
f 13/2/15 4/1/16 6/1/17
f 4/1/16 13/2/15 12/2/18
f 7/1/19 14/2/20 8/1/21
f 14/2/20 7/1/19 15/2/22
f 11/2/23 5/1/24 3/1/11
f 5/1/25 11/2/26 16/2/27
f 8/1/28 13/2/29 6/1/17
f 13/2/30 8/1/28 14/2/20
f 7/1/19 16/2/31 15/2/32
f 16/2/31 7/1/19 5/1/33
f 14/2/34 18/3/35 17/3/36
f 18/3/37 14/2/34 15/2/38
f 16/2/39 18/3/37 15/2/40
f 18/3/37 16/2/41 19/3/42
f 21/3/43 9/2/44 20/3/45
f 9/2/44 21/3/43 10/2/46
f 22/3/47 12/2/48 13/2/49
f 12/2/48 22/3/50 23/3/51
f 21/3/52 11/2/53 10/2/54
f 11/2/53 21/3/43 24/3/55
f 13/2/56 17/3/57 22/3/47
f 17/3/36 13/2/58 14/2/59
f 20/3/45 12/2/48 23/3/60
f 12/2/61 20/3/45 9/2/62
f 24/3/55 16/2/41 11/2/63
f 16/2/41 24/3/64 19/3/65
f 27/4/66 26/4/66 25/4/66
f 26/4/66 27/4/66 28/4/66
f 26/4/66 28/4/66 29/4/66
f 29/4/66 28/4/66 30/4/66
f 29/4/66 30/4/66 31/4/66
f 31/4/66 30/4/66 32/4/66
f 35/5/1 34/5/1 33/5/1
f 34/5/1 35/5/1 36/5/1
f 34/5/1 36/5/1 37/5/1
f 37/5/1 36/5/1 38/5/1
f 37/5/1 38/5/1 39/5/1
f 39/5/1 38/5/1 40/5/1
f 27/4/67 33/5/68 34/5/67
f 33/5/68 27/4/67 25/4/69
f 29/4/70 38/5/71 36/5/70
f 38/5/71 29/4/70 31/4/72
f 40/5/73 31/4/74 32/4/75
f 31/4/74 40/5/73 38/5/74
f 28/4/76 34/5/67 37/5/76
f 34/5/77 28/4/76 27/4/78
f 26/4/79 36/5/70 35/5/79
f 36/5/70 26/4/79 29/4/80
f 30/4/81 37/5/76 39/5/81
f 37/5/76 30/4/81 28/4/82
f 26/4/83 33/5/69 25/4/68
f 33/5/68 26/4/79 35/5/83
f 40/5/73 30/4/81 39/5/84
f 30/4/81 40/5/85 32/4/73
f 43/6/86 42/7/87 41/7/86
f 42/7/87 43/6/86 44/6/87
f 47/6/88 46/7/89 45/7/88
f 46/7/89 47/6/88 48/6/89
f 50/6/90 45/7/91 49/7/90
f 45/7/91 50/6/90 47/6/88
f 48/6/92 41/7/86 46/7/89
f 41/7/86 48/6/92 43/6/86
f 52/7/93 44/6/94 51/6/93
f 44/6/94 52/7/93 42/7/94
f 52/7/95 50/6/90 49/7/90
f 50/6/90 52/7/93 51/6/93
f 41/7/1 45/7/1 46/7/1
f 45/7/1 41/7/1 42/7/1
f 45/7/1 42/7/1 49/7/1
f 49/7/1 42/7/1 52/7/1
f 55/6/96 54/8/97 53/8/98
f 54/8/97 55/6/96 56/6/99
f 59/8/100 58/6/101 57/6/102
f 58/6/101 59/8/100 60/8/103
f 63/6/104 62/8/105 61/8/106
f 62/8/107 63/6/104 64/6/108
f 64/6/109 53/8/98 62/8/105
f 53/8/98 64/6/109 55/6/110
f 64/6/111 56/6/112 55/6/113
f 56/6/112 64/6/114 58/6/115
f 58/6/116 64/6/111 63/6/117
f 58/6/115 63/6/117 57/6/118
f 59/8/119 63/6/120 61/8/106
f 63/6/121 59/8/100 57/6/122
f 54/8/1 62/8/1 53/8/1
f 62/8/1 54/8/1 60/8/1
f 62/8/1 60/8/1 61/8/1
f 61/8/1 60/8/1 59/8/1
f 56/6/123 60/8/124 54/8/97
f 60/8/125 56/6/123 58/6/126
f 67/6/127 66/9/128 65/9/127
f 66/9/128 67/6/127 68/6/129
f 70/6/130 65/9/127 69/9/130
f 65/9/127 70/6/131 67/6/127
f 68/6/128 71/9/132 66/9/128
f 71/9/132 68/6/128 72/6/132
f 72/6/132 73/9/133 71/9/134
f 73/9/133 72/6/134 74/6/133
f 71/9/1 65/9/1 66/9/1
f 65/9/1 71/9/1 69/9/1
f 69/9/1 71/9/1 73/9/1
f 69/9/1 73/9/1 75/9/1
f 76/6/135 69/9/130 75/9/135
f 69/9/130 76/6/135 70/6/130
f 73/9/133 76/6/135 75/9/135
f 76/6/135 73/9/133 74/6/133
f 79/10/136 78/10/137 77/11/138
f 78/10/139 79/10/136 41/6/136
f 78/10/139 41/6/136 42/6/139
f 77/11/140 78/10/141 79/10/142
f 41/6/142 79/10/142 78/10/141
f 42/6/141 41/6/142 78/10/141
f 81/11/143 49/6/144 80/10/144
f 49/6/144 81/11/143 52/6/145
f 52/6/145 81/11/143 82/10/145
f 80/10/146 49/6/146 81/11/147
f 52/6/148 81/11/147 49/6/146
f 82/10/148 81/11/147 52/6/148
f 82/10/145 42/6/139 52/6/145
f 42/6/139 82/10/145 83/11/149
f 42/6/137 83/11/149 78/10/139
f 52/6/148 42/6/150 82/10/148
f 83/11/151 82/10/148 42/6/150
f 78/10/141 83/11/151 42/6/150
f 46/6/152 85/11/153 84/10/152
f 85/11/153 46/6/152 41/6/136
f 85/11/154 41/6/136 79/10/136
f 84/10/155 85/11/156 46/6/155
f 41/6/142 46/6/155 85/11/156
f 79/10/142 41/6/142 85/11/157
f 80/10/144 87/10/158 86/11/159
f 87/10/160 80/10/144 49/6/144
f 87/10/160 49/6/144 45/6/160
f 86/11/161 87/10/162 80/10/146
f 49/6/146 80/10/146 87/10/162
f 45/6/162 49/6/146 87/10/162
f 45/6/158 88/11/163 87/10/160
f 88/11/163 45/6/160 46/6/152
f 88/11/163 46/6/152 84/10/152
f 87/10/164 88/11/165 45/6/164
f 46/6/155 45/6/162 88/11/165
f 84/10/155 46/6/155 88/11/165
f 91/10/166 90/10/167 89/11/168
f 90/10/167 91/10/169 75/6/169
f 90/10/167 75/6/169 69/6/167
f 89/11/170 90/10/171 91/10/172
f 75/6/172 91/10/173 90/10/171
f 69/6/171 75/6/172 90/10/171
f 65/6/174 93/11/175 92/10/174
f 93/11/175 65/6/174 66/6/176
f 93/11/175 66/6/176 94/10/177
f 92/10/178 93/11/179 65/6/178
f 66/6/180 65/6/178 93/11/179
f 94/10/180 66/6/180 93/11/179
f 97/10/181 96/10/182 95/11/183
f 96/10/182 97/10/181 71/6/181
f 96/10/182 71/6/181 73/6/182
f 95/11/184 96/10/185 97/10/186
f 71/6/186 97/10/186 96/10/185
f 73/6/185 71/6/186 96/10/185
f 98/11/187 75/6/166 91/10/169
f 75/6/166 98/11/187 73/6/182
f 73/6/182 98/11/187 96/10/182
f 91/10/173 75/6/172 98/11/188
f 73/6/185 98/11/188 75/6/173
f 96/10/185 98/11/188 73/6/185
f 94/10/176 97/10/181 99/11/189
f 97/10/181 94/10/177 66/6/177
f 97/10/190 66/6/177 71/6/181
f 99/11/191 97/10/186 94/10/192
f 66/6/180 94/10/180 97/10/186
f 71/6/186 66/6/192 97/10/186
f 90/10/167 92/10/174 100/11/193
f 92/10/174 90/10/167 69/6/167
f 92/10/174 69/6/167 65/6/174
f 100/11/194 92/10/178 90/10/171
f 69/6/171 90/10/171 92/10/178
f 65/6/178 69/6/171 92/10/178
f 102/11/195 61/6/144 101/10/144
f 61/6/144 102/11/143 59/6/145
f 59/6/145 102/11/196 103/10/145
f 101/10/146 61/6/146 102/11/147
f 59/6/148 102/11/147 61/6/146
f 103/10/148 102/11/197 59/6/148
f 103/10/145 60/6/139 59/6/145
f 60/6/139 103/10/145 104/11/198
f 60/6/137 104/11/149 105/10/139
f 59/6/148 60/6/150 103/10/148
f 104/11/199 103/10/148 60/6/141
f 105/10/141 104/11/151 60/6/150
f 62/6/160 107/11/200 106/10/160
f 107/11/200 62/6/160 53/6/152
f 107/11/163 53/6/152 108/10/152
f 106/10/162 107/11/201 62/6/162
f 53/6/155 62/6/162 107/11/165
f 108/10/155 53/6/155 107/11/165
f 110/10/136 105/10/137 109/11/138
f 105/10/139 110/10/136 54/6/136
f 105/10/139 54/6/136 60/6/139
f 109/11/140 105/10/141 110/10/142
f 54/6/142 110/10/142 105/10/141
f 60/6/141 54/6/142 105/10/141
f 101/10/144 106/10/158 111/11/159
f 106/10/160 101/10/144 61/6/144
f 106/10/160 61/6/144 62/6/160
f 111/11/161 106/10/162 101/10/146
f 61/6/146 101/10/146 106/10/162
f 62/6/162 61/6/146 106/10/162
f 53/6/152 112/11/153 108/10/152
f 112/11/153 53/6/152 54/6/136
f 112/11/153 54/6/136 110/10/136
f 108/10/155 112/11/156 53/6/202
f 54/6/142 53/6/155 112/11/156
f 110/10/142 54/6/142 112/11/157
f 3/1/1 2/1/1 1/1/1
f 2/1/1 3/1/1 4/1/1
f 4/1/1 3/1/1 5/1/1
f 4/1/1 5/1/1 6/1/1
f 6/1/1 5/1/1 7/1/1
f 6/1/1 7/1/1 8/1/1
f 9/2/2 1/1/3 2/1/4
f 1/1/3 9/2/5 10/2/6
f 11/2/7 1/1/8 10/2/9
f 1/1/8 11/2/10 3/1/11
f 12/2/12 2/1/4 4/1/13
f 2/1/4 12/2/12 9/2/14
f 13/2/15 4/1/16 6/1/17
f 4/1/16 13/2/15 12/2/18
f 7/1/19 14/2/20 8/1/21
f 14/2/20 7/1/19 15/2/22
f 11/2/23 5/1/24 3/1/11
f 5/1/25 11/2/26 16/2/27
f 8/1/28 13/2/29 6/1/17
f 13/2/30 8/1/28 14/2/20
f 7/1/19 16/2/31 15/2/32
f 16/2/31 7/1/19 5/1/33
f 14/2/34 18/3/35 17/3/36
f 18/3/37 14/2/34 15/2/38
f 16/2/39 18/3/37 15/2/40
f 18/3/37 16/2/41 19/3/42
f 21/3/43 9/2/44 20/3/45
f 9/2/44 21/3/43 10/2/46
f 22/3/47 12/2/48 13/2/49
f 12/2/48 22/3/50 23/3/51
f 21/3/52 11/2/53 10/2/54
f 11/2/53 21/3/43 24/3/55
f 13/2/56 17/3/57 22/3/47
f 17/3/36 13/2/58 14/2/59
f 20/3/45 12/2/48 23/3/60
f 12/2/61 20/3/45 9/2/62
f 24/3/55 16/2/41 11/2/63
f 16/2/41 24/3/64 19/3/65
f 27/4/66 26/4/66 25/4/66
f 26/4/66 27/4/66 28/4/66
f 26/4/66 28/4/66 29/4/66
f 29/4/66 28/4/66 30/4/66
f 29/4/66 30/4/66 31/4/66
f 31/4/66 30/4/66 32/4/66
f 35/5/1 34/5/1 33/5/1
f 34/5/1 35/5/1 36/5/1
f 34/5/1 36/5/1 37/5/1
f 37/5/1 36/5/1 38/5/1
f 37/5/1 38/5/1 39/5/1
f 39/5/1 38/5/1 40/5/1
f 27/4/67 33/5/68 34/5/67
f 33/5/68 27/4/67 25/4/69
f 29/4/70 38/5/71 36/5/70
f 38/5/71 29/4/70 31/4/72
f 40/5/73 31/4/74 32/4/75
f 31/4/74 40/5/73 38/5/74
f 28/4/76 34/5/67 37/5/76
f 34/5/77 28/4/76 27/4/78
f 26/4/79 36/5/70 35/5/79
f 36/5/70 26/4/79 29/4/80
f 30/4/81 37/5/76 39/5/81
f 37/5/76 30/4/81 28/4/82
f 26/4/83 33/5/69 25/4/68
f 33/5/68 26/4/79 35/5/83
f 40/5/73 30/4/81 39/5/84
f 30/4/81 40/5/85 32/4/73
f 43/6/86 42/7/87 41/7/86
f 42/7/87 43/6/86 44/6/87
f 47/6/88 46/7/89 45/7/88
f 46/7/89 47/6/88 48/6/89
f 50/6/90 45/7/91 49/7/90
f 45/7/91 50/6/90 47/6/88
f 48/6/92 41/7/86 46/7/89
f 41/7/86 48/6/92 43/6/86
f 52/7/93 44/6/94 51/6/93
f 44/6/94 52/7/93 42/7/94
f 52/7/95 50/6/90 49/7/90
f 50/6/90 52/7/93 51/6/93
f 41/7/1 45/7/1 46/7/1
f 45/7/1 41/7/1 42/7/1
f 45/7/1 42/7/1 49/7/1
f 49/7/1 42/7/1 52/7/1
f 55/6/96 54/8/97 53/8/98
f 54/8/97 55/6/96 56/6/99
f 59/8/100 58/6/101 57/6/102
f 58/6/101 59/8/100 60/8/103
f 63/6/104 62/8/105 61/8/106
f 62/8/107 63/6/104 64/6/108
f 64/6/109 53/8/98 62/8/105
f 53/8/98 64/6/109 55/6/110
f 64/6/111 56/6/112 55/6/113
f 56/6/112 64/6/114 58/6/115
f 58/6/116 64/6/111 63/6/117
f 58/6/115 63/6/117 57/6/118
f 59/8/119 63/6/120 61/8/106
f 63/6/121 59/8/100 57/6/122
f 54/8/1 62/8/1 53/8/1
f 62/8/1 54/8/1 60/8/1
f 62/8/1 60/8/1 61/8/1
f 61/8/1 60/8/1 59/8/1
f 56/6/123 60/8/124 54/8/97
f 60/8/125 56/6/123 58/6/126
f 67/6/127 66/9/128 65/9/127
f 66/9/128 67/6/127 68/6/129
f 70/6/130 65/9/127 69/9/130
f 65/9/127 70/6/131 67/6/127
f 68/6/128 71/9/132 66/9/128
f 71/9/132 68/6/128 72/6/132
f 72/6/132 73/9/133 71/9/134
f 73/9/133 72/6/134 74/6/133
f 71/9/1 65/9/1 66/9/1
f 65/9/1 71/9/1 69/9/1
f 69/9/1 71/9/1 73/9/1
f 69/9/1 73/9/1 75/9/1
f 76/6/135 69/9/130 75/9/135
f 69/9/130 76/6/135 70/6/130
f 73/9/133 76/6/135 75/9/135
f 76/6/135 73/9/133 74/6/133
f 79/10/136 78/10/137 77/11/138
f 78/10/139 79/10/136 41/6/136
f 78/10/139 41/6/136 42/6/139
f 77/11/140 78/10/141 79/10/142
f 41/6/142 79/10/142 78/10/141
f 42/6/141 41/6/142 78/10/141
f 81/11/143 49/6/144 80/10/144
f 49/6/144 81/11/143 52/6/145
f 52/6/145 81/11/143 82/10/145
f 80/10/146 49/6/146 81/11/147
f 52/6/148 81/11/147 49/6/146
f 82/10/148 81/11/147 52/6/148
f 82/10/145 42/6/139 52/6/145
f 42/6/139 82/10/145 83/11/149
f 42/6/137 83/11/149 78/10/139
f 52/6/148 42/6/150 82/10/148
f 83/11/151 82/10/148 42/6/150
f 78/10/141 83/11/151 42/6/150
f 46/6/152 85/11/153 84/10/152
f 85/11/153 46/6/152 41/6/136
f 85/11/154 41/6/136 79/10/136
f 84/10/155 85/11/156 46/6/155
f 41/6/142 46/6/155 85/11/156
f 79/10/142 41/6/142 85/11/157
f 80/10/144 87/10/158 86/11/159
f 87/10/160 80/10/144 49/6/144
f 87/10/160 49/6/144 45/6/160
f 86/11/161 87/10/162 80/10/146
f 49/6/146 80/10/146 87/10/162
f 45/6/162 49/6/146 87/10/162
f 45/6/158 88/11/163 87/10/160
f 88/11/163 45/6/160 46/6/152
f 88/11/163 46/6/152 84/10/152
f 87/10/164 88/11/165 45/6/164
f 46/6/155 45/6/162 88/11/165
f 84/10/155 46/6/155 88/11/165
f 91/10/166 90/10/167 89/11/168
f 90/10/167 91/10/169 75/6/169
f 90/10/167 75/6/169 69/6/167
f 89/11/170 90/10/171 91/10/172
f 75/6/172 91/10/173 90/10/171
f 69/6/171 75/6/172 90/10/171
f 65/6/174 93/11/175 92/10/174
f 93/11/175 65/6/174 66/6/176
f 93/11/175 66/6/176 94/10/177
f 92/10/178 93/11/179 65/6/178
f 66/6/180 65/6/178 93/11/179
f 94/10/180 66/6/180 93/11/179
f 97/10/181 96/10/182 95/11/183
f 96/10/182 97/10/181 71/6/181
f 96/10/182 71/6/181 73/6/182
f 95/11/184 96/10/185 97/10/186
f 71/6/186 97/10/186 96/10/185
f 73/6/185 71/6/186 96/10/185
f 98/11/187 75/6/166 91/10/169
f 75/6/166 98/11/187 73/6/182
f 73/6/182 98/11/187 96/10/182
f 91/10/173 75/6/172 98/11/188
f 73/6/185 98/11/188 75/6/173
f 96/10/185 98/11/188 73/6/185
f 94/10/176 97/10/181 99/11/189
f 97/10/181 94/10/177 66/6/177
f 97/10/190 66/6/177 71/6/181
f 99/11/191 97/10/186 94/10/192
f 66/6/180 94/10/180 97/10/186
f 71/6/186 66/6/192 97/10/186
f 90/10/167 92/10/174 100/11/193
f 92/10/174 90/10/167 69/6/167
f 92/10/174 69/6/167 65/6/174
f 100/11/194 92/10/178 90/10/171
f 69/6/171 90/10/171 92/10/178
f 65/6/178 69/6/171 92/10/178
f 102/11/195 61/6/144 101/10/144
f 61/6/144 102/11/143 59/6/145
f 59/6/145 102/11/196 103/10/145
f 101/10/146 61/6/146 102/11/147
f 59/6/148 102/11/147 61/6/146
f 103/10/148 102/11/197 59/6/148
f 103/10/145 60/6/139 59/6/145
f 60/6/139 103/10/145 104/11/198
f 60/6/137 104/11/149 105/10/139
f 59/6/148 60/6/150 103/10/148
f 104/11/199 103/10/148 60/6/141
f 105/10/141 104/11/151 60/6/150
f 62/6/160 107/11/200 106/10/160
f 107/11/200 62/6/160 53/6/152
f 107/11/163 53/6/152 108/10/152
f 106/10/162 107/11/201 62/6/162
f 53/6/155 62/6/162 107/11/165
f 108/10/155 53/6/155 107/11/165
f 110/10/136 105/10/137 109/11/138
f 105/10/139 110/10/136 54/6/136
f 105/10/139 54/6/136 60/6/139
f 109/11/140 105/10/141 110/10/142
f 54/6/142 110/10/142 105/10/141
f 60/6/141 54/6/142 105/10/141
f 101/10/144 106/10/158 111/11/159
f 106/10/160 101/10/144 61/6/144
f 106/10/160 61/6/144 62/6/160
f 111/11/161 106/10/162 101/10/146
f 61/6/146 101/10/146 106/10/162
f 62/6/162 61/6/146 106/10/162
f 53/6/152 112/11/153 108/10/152
f 112/11/153 53/6/152 54/6/136
f 112/11/153 54/6/136 110/10/136
f 108/10/155 112/11/156 53/6/202
f 54/6/142 53/6/155 112/11/156
f 110/10/142 54/6/142 112/11/157
