# Blender 4.1.1
# www.blender.org
mtllib tree.068.mtl
o tree.068
v 0.789232 -0.382804 5.917588
v 1.027586 -0.382804 5.979164
v 0.700843 -0.382804 5.767622
v 1.177551 -0.382804 5.890775
v 0.762420 -0.382804 5.529269
v 1.239128 -0.382804 5.652421
v 0.912385 -0.382804 5.440880
v 1.150739 -0.382804 5.502456
v 0.998786 0.062918 5.844593
v 0.879609 0.062918 5.813805
v 0.835414 0.062918 5.738822
v 1.073768 0.062918 5.800399
v 1.104557 0.062918 5.681222
v 1.060362 0.062918 5.606239
v 0.941185 0.062918 5.575451
v 0.866203 0.062918 5.619645
v 1.082956 0.731552 5.580294
v 0.933985 0.731552 5.541808
v 0.840257 0.731552 5.597051
v 1.005986 0.731552 5.878236
v 0.857015 0.731552 5.839750
v 1.138199 0.731552 5.674022
v 1.099714 0.731552 5.822993
v 0.801772 0.731552 5.746022
v 0.977349 0.222058 5.922059
v 0.900195 0.222058 5.863950
v 1.072995 0.222058 5.908591
v 1.131104 0.222058 5.831437
v 0.886727 0.222058 5.768304
v 1.117637 0.222058 5.735791
v 0.944836 0.222058 5.691149
v 1.040482 0.222058 5.677681
v 0.959470 0.060319 5.991268
v 1.109291 0.060319 5.970173
v 0.838613 0.060319 5.900246
v 0.817518 0.060319 5.750424
v 1.200314 0.060319 5.849316
v 0.908540 0.060319 5.629568
v 1.179218 0.060319 5.699495
v 1.058362 0.060319 5.608472
v 0.382238 0.731552 5.862456
v 0.535585 0.731552 5.268872
v 0.624436 1.468507 5.795221
v 0.714911 1.468507 5.445004
v 1.410357 0.731552 6.128061
v 0.819624 0.731552 6.292051
v 1.231030 1.468507 5.951929
v 0.882495 1.468507 6.048684
v 1.563704 0.731552 5.534477
v 1.321506 1.468507 5.601712
v 1.063446 1.468507 5.348249
v 1.126318 0.731552 5.104882
v 0.884550 2.260255 6.040729
v 0.632353 2.260255 5.793023
v 0.952647 3.090716 5.777134
v 0.894681 3.090716 5.720200
v 0.993294 3.090716 5.619799
v 0.915004 3.090716 5.641532
v 1.061391 2.260255 5.356205
v 0.720773 2.260255 5.450761
v 1.313588 2.260255 5.603909
v 1.225168 2.260255 5.946172
v 1.051260 3.090716 5.676733
v 1.030937 3.090716 5.755401
v 1.106296 1.468507 6.178737
v 0.623706 1.468507 6.054065
v 1.034062 2.260255 5.918532
v 0.812934 2.260255 5.861405
v 1.455560 1.468507 5.823139
v 1.194098 2.260255 5.755593
v 0.490381 1.468507 5.573794
v 0.751843 2.260255 5.641340
v 0.839646 1.468507 5.218196
v 0.911880 2.260255 5.478401
v 1.322235 1.468507 5.342868
v 1.133007 2.260255 5.535527
v 0.345818 0.501650 5.536448
v 0.487472 0.616601 5.221616
v 0.317257 0.616601 5.880496
v 1.628684 0.616601 5.516438
v 1.426860 0.501650 5.236346
v 1.143186 0.616601 5.039587
v 0.799707 0.501650 5.074327
v 0.802755 0.616601 6.357346
v 0.519082 0.501650 6.160587
v 1.600123 0.501650 5.860486
v 1.458469 0.616601 6.175317
v 1.146234 0.501650 6.322606
v 1.480401 1.281595 5.557602
v 1.508645 1.375051 5.836853
v 1.360654 1.375051 5.303752
v 1.120961 1.375051 6.231567
v 0.841248 1.281595 6.208347
v 0.585287 1.375051 6.093181
v 0.597263 1.281595 5.329451
v 0.824980 1.375051 5.165366
v 0.437297 1.375051 5.560080
v 1.104693 1.281595 5.188586
v 0.465540 1.281595 5.839332
v 1.348678 1.281595 6.067482
v 1.351056 2.193974 5.593508
v 1.234684 2.127693 5.432007
v 1.071117 2.193974 5.318556
v 0.873067 2.127693 5.338587
v 0.693031 2.193974 5.423514
v 1.252910 2.193974 5.973419
v 1.072875 2.127693 6.058346
v 0.874824 2.193974 6.078377
v 0.611354 2.127693 5.605046
v 0.594885 2.193974 5.803424
v 1.334588 2.127693 5.791887
v 0.711258 2.127693 5.964926
vn -0.0000 -1.0000 -0.0000
vn 0.1278 0.2942 0.9472
vn -0.5784 0.2944 0.7608
vn 0.1376 0.2944 0.9457
vn -0.5784 0.2944 0.7607
vn -0.5706 0.2942 0.7667
vn -0.9471 0.2942 0.1279
vn -0.5785 0.2944 0.7607
vn -0.5707 0.2942 0.7667
vn -0.9471 0.2943 0.1279
vn -0.9457 0.2944 0.1376
vn 0.7667 0.2942 0.5707
vn 0.7607 0.2944 0.5785
vn 0.1279 0.2942 0.9471
vn 0.9472 0.2942 -0.1278
vn 0.7607 0.2944 0.5784
vn 0.9457 0.2944 -0.1376
vn 0.7667 0.2942 0.5706
vn -0.1376 0.2944 -0.9457
vn 0.5706 0.2942 -0.7667
vn 0.5784 0.2944 -0.7607
vn -0.1278 0.2942 -0.9472
vn -0.9472 0.2942 0.1278
vn -0.7608 0.2944 -0.5784
vn -0.7607 0.2944 -0.5784
vn -0.7667 0.2942 -0.5706
vn 0.5785 0.2944 -0.7607
vn 0.9471 0.2943 -0.1279
vn 0.9471 0.2942 -0.1279
vn 0.5707 0.2942 -0.7667
vn -0.7667 0.2942 -0.5707
vn -0.1279 0.2942 -0.9471
vn -0.7607 0.2944 -0.5785
vn 0.6001 -0.0513 -0.7983
vn -0.1401 -0.0512 -0.9888
vn 0.6015 -0.0513 -0.7972
vn -0.1401 -0.0513 -0.9888
vn -0.1383 -0.0513 -0.9891
vn -0.7983 -0.0512 -0.6001
vn -0.1384 -0.0512 -0.9891
vn -0.7983 -0.0513 -0.6001
vn -0.7972 -0.0512 -0.6015
vn -0.6015 -0.0512 0.7972
vn 0.1383 -0.0513 0.9891
vn 0.1401 -0.0513 0.9888
vn -0.6001 -0.0513 0.7983
vn 0.9888 -0.0513 -0.1401
vn 0.7983 -0.0513 0.6001
vn 0.9891 -0.0513 -0.1383
vn 0.9888 -0.0512 -0.1401
vn 0.7972 -0.0513 0.6015
vn -0.6015 -0.0513 0.7972
vn -0.9891 -0.0513 0.1384
vn -0.9888 -0.0513 0.1401
vn 0.9891 -0.0513 -0.1384
vn 0.6015 -0.0512 -0.7972
vn 0.6001 -0.0512 -0.7983
vn 0.7972 -0.0512 0.6015
vn 0.7983 -0.0512 0.6001
vn 0.1384 -0.0512 0.9891
vn -0.9891 -0.0513 0.1383
vn -0.9888 -0.0512 0.1401
vn -0.7972 -0.0513 -0.6015
vn -0.0000 1.0000 -0.0000
vn 0.4644 0.4042 0.7880
vn -0.2288 0.4042 0.8856
vn -0.2288 0.4043 0.8856
vn -0.8856 0.4042 -0.2288
vn -0.4645 0.4042 -0.7880
vn -0.4644 0.4043 -0.7880
vn 0.2288 0.4042 -0.8856
vn -0.4644 0.4042 -0.7880
vn 0.2288 0.4043 -0.8856
vn 0.8856 0.4042 0.2288
vn 0.4645 0.4042 0.7880
vn 0.4644 0.4043 0.7880
vn -0.7880 0.4042 0.4644
vn -0.8856 0.4043 -0.2288
vn 0.7880 0.4042 -0.4644
vn 0.8856 0.4043 0.2288
vn -0.7880 0.4042 0.4645
vn 0.7880 0.4042 -0.4645
vn -0.9120 0.3228 0.2532
vn -0.6753 0.3228 -0.6632
vn 0.6752 0.3228 0.6632
vn -0.2367 0.3228 0.9164
vn 0.9120 0.3228 -0.2532
vn 0.6753 0.3228 0.6632
vn -0.2368 0.3228 0.9164
vn 0.2367 0.3228 -0.9164
vn -0.6752 0.3228 -0.6632
vn 0.2368 0.3228 -0.9164
vn -0.1720 0.7260 0.6659
vn -0.9156 0.3115 0.2542
vn -0.2377 0.3115 0.9200
vn -0.6627 0.7260 0.1839
vn 0.2377 0.3115 -0.9200
vn -0.4907 0.7260 -0.4819
vn 0.1721 0.7260 -0.6659
vn -0.6779 0.3115 -0.6659
vn 0.6627 0.7260 -0.1840
vn 0.6779 0.3115 0.6659
vn 0.9156 0.3115 -0.2542
vn 0.6779 0.3115 0.6658
vn 0.4906 0.7260 0.4820
vn 0.4907 0.7260 0.4819
vn -0.1721 0.7260 0.6659
vn 0.4906 0.7259 0.4819
vn -0.6627 0.7259 0.1840
vn -0.1721 0.7259 0.6659
vn 0.4907 0.7259 0.4819
vn -0.4906 0.7259 -0.4819
vn -0.4907 0.7259 -0.4819
vn 0.6627 0.7259 -0.1840
vn 0.1721 0.7259 -0.6659
vn 0.2377 0.3116 -0.9200
vn 0.6627 0.7260 -0.1839
vn 0.6626 0.7260 -0.1840
vn 0.1720 0.7260 -0.6658
vn -0.6627 0.7260 0.1840
vn -0.6779 0.3115 -0.6658
vn -0.4906 0.7260 -0.4820
vn 0.2532 0.3228 0.9120
vn -0.6632 0.3228 0.6752
vn -0.6632 0.3228 0.6753
vn 0.9164 0.3228 0.2367
vn 0.9164 0.3228 0.2368
vn -0.9164 0.3228 -0.2367
vn -0.2532 0.3228 -0.9120
vn -0.9164 0.3228 -0.2368
vn 0.6632 0.3228 -0.6752
vn -0.8311 0.5060 0.2307
vn -0.6153 0.5060 -0.6044
vn -0.8632 0.4530 -0.2230
vn -0.6154 0.5060 -0.6044
vn 0.8632 -0.4530 0.2230
vn 0.6154 -0.5060 0.6044
vn 0.8311 -0.5060 -0.2307
vn 0.6247 0.4530 -0.6360
vn 0.8311 0.5060 -0.2307
vn 0.2157 0.5060 -0.8351
vn -0.8311 -0.5060 0.2307
vn -0.6247 -0.4530 0.6360
vn -0.2157 -0.5060 0.8351
vn -0.2385 0.4530 -0.8590
vn 0.6153 -0.5060 0.6044
vn 0.2385 -0.4530 0.8590
vn -0.2157 0.5060 0.8351
vn -0.6247 0.4530 0.6360
vn 0.2157 -0.5060 -0.8351
vn 0.6247 -0.4530 -0.6360
vn 0.6153 0.5060 0.6044
vn 0.8632 0.4530 0.2230
vn 0.6154 0.5060 0.6044
vn -0.8632 -0.4530 -0.2230
vn -0.6154 -0.5060 -0.6044
vn 0.2385 0.4530 0.8590
vn -0.2385 -0.4530 -0.8590
vn -0.6153 -0.5060 -0.6044
vn 0.6044 0.5060 -0.6154
vn 0.8351 0.5060 0.2157
vn 0.8590 0.4530 -0.2385
vn -0.8590 -0.4530 0.2385
vn -0.8351 -0.5060 -0.2157
vn -0.6044 -0.5060 0.6154
vn -0.6044 -0.5060 0.6153
vn 0.2307 0.5060 0.8311
vn -0.2230 0.4530 0.8632
vn -0.6044 0.5060 0.6153
vn -0.6044 0.5060 0.6154
vn -0.2307 -0.5060 -0.8311
vn 0.2230 -0.4530 -0.8632
vn 0.6044 -0.5060 -0.6154
vn 0.6044 -0.5060 -0.6153
vn -0.8351 0.5060 -0.2157
vn -0.2307 0.5060 -0.8311
vn -0.6360 0.4530 -0.6247
vn 0.6360 -0.4530 0.6247
vn 0.2307 -0.5060 0.8311
vn 0.8351 -0.5060 0.2157
vn 0.2230 0.4530 -0.8632
vn 0.6044 0.5060 -0.6153
vn -0.2230 -0.4530 0.8632
vn -0.8590 0.4530 0.2385
vn 0.8590 -0.4530 -0.2385
vn 0.6360 0.4530 0.6247
vn -0.6360 -0.4530 -0.6247
vn 0.6247 0.4530 -0.6361
vn -0.6247 -0.4530 0.6361
vn 0.2385 0.4529 0.8591
vn -0.2385 -0.4529 -0.8591
vn -0.6247 0.4530 0.6361
vn 0.6247 -0.4529 -0.6361
vt 0.593750 0.025000
vt 0.593750 0.104996
vt 0.593750 0.225000
vt 0.093750 0.475000
vt 0.093750 0.275000
vt 0.093750 0.425000
vt 0.093750 0.348778
vt 0.093750 0.338765
vt 0.093750 0.344099
vt 0.093750 0.375000
vt 0.093750 0.325000
s 0
usemtl colormap.071
f 3/1/1 2/1/1 1/1/1
f 2/1/1 3/1/1 4/1/1
f 4/1/1 3/1/1 5/1/1
f 4/1/1 5/1/1 6/1/1
f 6/1/1 5/1/1 7/1/1
f 6/1/1 7/1/1 8/1/1
f 9/2/2 1/1/3 2/1/4
f 1/1/5 9/2/2 10/2/6
f 11/2/7 1/1/8 10/2/9
f 1/1/8 11/2/10 3/1/11
f 12/2/12 2/1/4 4/1/13
f 2/1/4 12/2/12 9/2/14
f 13/2/15 4/1/16 6/1/17
f 4/1/16 13/2/15 12/2/18
f 7/1/19 14/2/20 8/1/21
f 14/2/20 7/1/19 15/2/22
f 11/2/23 5/1/24 3/1/11
f 5/1/25 11/2/23 16/2/26
f 8/1/27 13/2/28 6/1/17
f 13/2/29 8/1/27 14/2/30
f 7/1/19 16/2/31 15/2/32
f 16/2/31 7/1/19 5/1/33
f 14/2/34 18/3/35 17/3/36
f 18/3/37 14/2/34 15/2/38
f 16/2/39 18/3/37 15/2/40
f 18/3/37 16/2/41 19/3/42
f 21/3/43 9/2/44 20/3/45
f 9/2/44 21/3/43 10/2/46
f 22/3/47 12/2/48 13/2/49
f 12/2/48 22/3/50 23/3/51
f 21/3/52 11/2/53 10/2/46
f 11/2/53 21/3/43 24/3/54
f 13/2/55 17/3/56 22/3/47
f 17/3/36 13/2/55 14/2/57
f 20/3/45 12/2/48 23/3/58
f 12/2/59 20/3/45 9/2/60
f 24/3/54 16/2/41 11/2/61
f 16/2/41 24/3/62 19/3/63
f 27/4/64 26/4/64 25/4/64
f 26/4/64 27/4/64 28/4/64
f 26/4/64 28/4/64 29/4/64
f 29/4/64 28/4/64 30/4/64
f 29/4/64 30/4/64 31/4/64
f 31/4/64 30/4/64 32/4/64
f 35/5/1 34/5/1 33/5/1
f 34/5/1 35/5/1 36/5/1
f 34/5/1 36/5/1 37/5/1
f 37/5/1 36/5/1 38/5/1
f 37/5/1 38/5/1 39/5/1
f 39/5/1 38/5/1 40/5/1
f 27/4/65 33/5/66 34/5/65
f 33/5/66 27/4/65 25/4/67
f 29/4/68 38/5/69 36/5/68
f 38/5/69 29/4/68 31/4/70
f 40/5/71 31/4/72 32/4/73
f 31/4/72 40/5/71 38/5/72
f 28/4/74 34/5/75 37/5/74
f 34/5/75 28/4/74 27/4/76
f 26/4/77 36/5/68 35/5/77
f 36/5/68 26/4/77 29/4/78
f 30/4/79 37/5/74 39/5/79
f 37/5/74 30/4/79 28/4/80
f 26/4/81 33/5/67 25/4/66
f 33/5/66 26/4/77 35/5/81
f 40/5/71 30/4/79 39/5/82
f 30/4/82 40/5/73 32/4/71
f 43/6/83 42/7/84 41/7/83
f 42/7/84 43/6/83 44/6/84
f 47/6/85 46/7/86 45/7/85
f 46/7/86 47/6/85 48/6/86
f 50/6/87 45/7/88 49/7/87
f 45/7/88 50/6/87 47/6/88
f 48/6/89 41/7/83 46/7/86
f 41/7/83 48/6/89 43/6/83
f 52/7/90 44/6/91 51/6/90
f 44/6/91 52/7/90 42/7/91
f 52/7/92 50/6/87 49/7/87
f 50/6/87 52/7/90 51/6/92
f 41/7/1 45/7/1 46/7/1
f 45/7/1 41/7/1 42/7/1
f 45/7/1 42/7/1 49/7/1
f 49/7/1 42/7/1 52/7/1
f 55/6/93 54/8/94 53/8/95
f 54/8/94 55/6/93 56/6/96
f 59/8/97 58/6/98 57/6/99
f 58/6/98 59/8/97 60/8/100
f 63/6/101 62/8/102 61/8/103
f 62/8/104 63/6/101 64/6/105
f 64/6/106 53/8/95 62/8/102
f 53/8/95 64/6/106 55/6/107
f 64/6/108 56/6/109 55/6/110
f 56/6/109 64/6/111 58/6/112
f 58/6/113 64/6/108 63/6/114
f 58/6/112 63/6/114 57/6/115
f 59/8/116 63/6/117 61/8/103
f 63/6/118 59/8/97 57/6/119
f 54/8/1 62/8/1 53/8/1
f 62/8/1 54/8/1 60/8/1
f 62/8/1 60/8/1 61/8/1
f 61/8/1 60/8/1 59/8/1
f 56/6/120 60/8/100 54/8/94
f 60/8/121 56/6/120 58/6/122
f 67/6/123 66/9/124 65/9/123
f 66/9/124 67/6/123 68/6/125
f 70/6/126 65/9/123 69/9/126
f 65/9/123 70/6/127 67/6/123
f 68/6/124 71/9/128 66/9/124
f 71/9/128 68/6/124 72/6/128
f 72/6/128 73/9/129 71/9/128
f 73/9/129 72/6/130 74/6/129
f 71/9/1 65/9/1 66/9/1
f 65/9/1 71/9/1 69/9/1
f 69/9/1 71/9/1 73/9/1
f 69/9/1 73/9/1 75/9/1
f 76/6/131 69/9/126 75/9/131
f 69/9/126 76/6/131 70/6/126
f 73/9/129 76/6/131 75/9/131
f 76/6/131 73/9/129 74/6/129
f 79/10/132 78/10/133 77/11/134
f 78/10/135 79/10/132 41/6/132
f 78/10/135 41/6/132 42/6/135
f 77/11/136 78/10/137 79/10/138
f 41/6/138 79/10/138 78/10/137
f 42/6/137 41/6/138 78/10/137
f 81/11/139 49/6/140 80/10/140
f 49/6/140 81/11/139 52/6/141
f 52/6/141 81/11/139 82/10/141
f 80/10/142 49/6/142 81/11/143
f 52/6/144 81/11/143 49/6/142
f 82/10/144 81/11/143 52/6/144
f 82/10/141 42/6/135 52/6/141
f 42/6/135 82/10/141 83/11/145
f 42/6/133 83/11/145 78/10/135
f 52/6/144 42/6/146 82/10/144
f 83/11/147 82/10/144 42/6/146
f 78/10/137 83/11/147 42/6/146
f 46/6/148 85/11/149 84/10/148
f 85/11/149 46/6/148 41/6/132
f 85/11/149 41/6/132 79/10/132
f 84/10/150 85/11/151 46/6/150
f 41/6/138 46/6/150 85/11/151
f 79/10/138 41/6/138 85/11/151
f 80/10/140 87/10/152 86/11/153
f 87/10/154 80/10/140 49/6/140
f 87/10/154 49/6/140 45/6/154
f 86/11/155 87/10/156 80/10/142
f 49/6/142 80/10/142 87/10/156
f 45/6/156 49/6/142 87/10/156
f 45/6/152 88/11/157 87/10/154
f 88/11/157 45/6/154 46/6/148
f 88/11/157 46/6/148 84/10/148
f 87/10/156 88/11/158 45/6/159
f 46/6/150 45/6/156 88/11/158
f 84/10/150 46/6/150 88/11/158
f 91/10/160 90/10/161 89/11/162
f 90/10/161 91/10/160 75/6/160
f 90/10/161 75/6/160 69/6/161
f 89/11/163 90/10/164 91/10/165
f 75/6/165 91/10/165 90/10/164
f 69/6/164 75/6/166 90/10/164
f 65/6/167 93/11/168 92/10/167
f 93/11/168 65/6/167 66/6/169
f 93/11/168 66/6/169 94/10/170
f 92/10/171 93/11/172 65/6/171
f 66/6/173 65/6/171 93/11/172
f 94/10/173 66/6/174 93/11/172
f 97/10/175 96/10/176 95/11/177
f 96/10/176 97/10/175 71/6/175
f 96/10/176 71/6/175 73/6/176
f 95/11/178 96/10/179 97/10/180
f 71/6/180 97/10/180 96/10/179
f 73/6/179 71/6/180 96/10/179
f 98/11/181 75/6/182 91/10/160
f 75/6/182 98/11/181 73/6/176
f 73/6/176 98/11/181 96/10/176
f 91/10/165 75/6/166 98/11/183
f 73/6/179 98/11/183 75/6/165
f 96/10/179 98/11/183 73/6/179
f 94/10/169 97/10/175 99/11/184
f 97/10/175 94/10/170 66/6/170
f 97/10/175 66/6/170 71/6/175
f 99/11/185 97/10/180 94/10/174
f 66/6/173 94/10/173 97/10/180
f 71/6/180 66/6/174 97/10/180
f 90/10/161 92/10/167 100/11/186
f 92/10/167 90/10/161 69/6/161
f 92/10/167 69/6/161 65/6/167
f 100/11/187 92/10/171 90/10/164
f 69/6/164 90/10/164 92/10/171
f 65/6/171 69/6/164 92/10/171
f 102/11/139 61/6/140 101/10/140
f 61/6/140 102/11/188 59/6/141
f 59/6/141 102/11/139 103/10/141
f 101/10/142 61/6/142 102/11/143
f 59/6/144 102/11/189 61/6/142
f 103/10/144 102/11/143 59/6/144
f 103/10/141 60/6/135 59/6/141
f 60/6/135 103/10/141 104/11/145
f 60/6/133 104/11/145 105/10/135
f 59/6/144 60/6/146 103/10/144
f 104/11/147 103/10/144 60/6/146
f 105/10/137 104/11/147 60/6/146
f 62/6/152 107/11/190 106/10/154
f 107/11/157 62/6/154 53/6/148
f 107/11/190 53/6/148 108/10/148
f 106/10/156 107/11/191 62/6/156
f 53/6/150 62/6/159 107/11/158
f 108/10/150 53/6/150 107/11/191
f 110/10/132 105/10/133 109/11/134
f 105/10/135 110/10/132 54/6/132
f 105/10/135 54/6/132 60/6/135
f 109/11/136 105/10/137 110/10/138
f 54/6/138 110/10/138 105/10/137
f 60/6/137 54/6/138 105/10/137
f 101/10/140 106/10/152 111/11/153
f 106/10/154 101/10/140 61/6/140
f 106/10/154 61/6/140 62/6/154
f 111/11/155 106/10/156 101/10/142
f 61/6/142 101/10/142 106/10/156
f 62/6/156 61/6/142 106/10/156
f 53/6/148 112/11/192 108/10/148
f 112/11/149 53/6/148 54/6/132
f 112/11/149 54/6/132 110/10/132
f 108/10/150 112/11/193 53/6/150
f 54/6/138 53/6/150 112/11/151
f 110/10/138 54/6/138 112/11/151
f 3/1/1 2/1/1 1/1/1
f 2/1/1 3/1/1 4/1/1
f 4/1/1 3/1/1 5/1/1
f 4/1/1 5/1/1 6/1/1
f 6/1/1 5/1/1 7/1/1
f 6/1/1 7/1/1 8/1/1
f 9/2/2 1/1/3 2/1/4
f 1/1/5 9/2/2 10/2/6
f 11/2/7 1/1/8 10/2/9
f 1/1/8 11/2/10 3/1/11
f 12/2/12 2/1/4 4/1/13
f 2/1/4 12/2/12 9/2/14
f 13/2/15 4/1/16 6/1/17
f 4/1/16 13/2/15 12/2/18
f 7/1/19 14/2/20 8/1/21
f 14/2/20 7/1/19 15/2/22
f 11/2/23 5/1/24 3/1/11
f 5/1/25 11/2/23 16/2/26
f 8/1/27 13/2/28 6/1/17
f 13/2/29 8/1/27 14/2/30
f 7/1/19 16/2/31 15/2/32
f 16/2/31 7/1/19 5/1/33
f 14/2/34 18/3/35 17/3/36
f 18/3/37 14/2/34 15/2/38
f 16/2/39 18/3/37 15/2/40
f 18/3/37 16/2/41 19/3/42
f 21/3/43 9/2/44 20/3/45
f 9/2/44 21/3/43 10/2/46
f 22/3/47 12/2/48 13/2/49
f 12/2/48 22/3/50 23/3/51
f 21/3/52 11/2/53 10/2/46
f 11/2/53 21/3/43 24/3/54
f 13/2/55 17/3/56 22/3/47
f 17/3/36 13/2/55 14/2/57
f 20/3/45 12/2/48 23/3/58
f 12/2/59 20/3/45 9/2/60
f 24/3/54 16/2/41 11/2/61
f 16/2/41 24/3/62 19/3/63
f 27/4/64 26/4/64 25/4/64
f 26/4/64 27/4/64 28/4/64
f 26/4/64 28/4/64 29/4/64
f 29/4/64 28/4/64 30/4/64
f 29/4/64 30/4/64 31/4/64
f 31/4/64 30/4/64 32/4/64
f 35/5/1 34/5/1 33/5/1
f 34/5/1 35/5/1 36/5/1
f 34/5/1 36/5/1 37/5/1
f 37/5/1 36/5/1 38/5/1
f 37/5/1 38/5/1 39/5/1
f 39/5/1 38/5/1 40/5/1
f 27/4/65 33/5/66 34/5/65
f 33/5/66 27/4/65 25/4/67
f 29/4/68 38/5/69 36/5/68
f 38/5/69 29/4/68 31/4/70
f 40/5/71 31/4/72 32/4/73
f 31/4/72 40/5/71 38/5/72
f 28/4/74 34/5/75 37/5/74
f 34/5/75 28/4/74 27/4/76
f 26/4/77 36/5/68 35/5/77
f 36/5/68 26/4/77 29/4/78
f 30/4/79 37/5/74 39/5/79
f 37/5/74 30/4/79 28/4/80
f 26/4/81 33/5/67 25/4/66
f 33/5/66 26/4/77 35/5/81
f 40/5/71 30/4/79 39/5/82
f 30/4/82 40/5/73 32/4/71
f 43/6/83 42/7/84 41/7/83
f 42/7/84 43/6/83 44/6/84
f 47/6/85 46/7/86 45/7/85
f 46/7/86 47/6/85 48/6/86
f 50/6/87 45/7/88 49/7/87
f 45/7/88 50/6/87 47/6/88
f 48/6/89 41/7/83 46/7/86
f 41/7/83 48/6/89 43/6/83
f 52/7/90 44/6/91 51/6/90
f 44/6/91 52/7/90 42/7/91
f 52/7/92 50/6/87 49/7/87
f 50/6/87 52/7/90 51/6/92
f 41/7/1 45/7/1 46/7/1
f 45/7/1 41/7/1 42/7/1
f 45/7/1 42/7/1 49/7/1
f 49/7/1 42/7/1 52/7/1
f 55/6/93 54/8/94 53/8/95
f 54/8/94 55/6/93 56/6/96
f 59/8/97 58/6/98 57/6/99
f 58/6/98 59/8/97 60/8/100
f 63/6/101 62/8/102 61/8/103
f 62/8/104 63/6/101 64/6/105
f 64/6/106 53/8/95 62/8/102
f 53/8/95 64/6/106 55/6/107
f 64/6/108 56/6/109 55/6/110
f 56/6/109 64/6/111 58/6/112
f 58/6/113 64/6/108 63/6/114
f 58/6/112 63/6/114 57/6/115
f 59/8/116 63/6/117 61/8/103
f 63/6/118 59/8/97 57/6/119
f 54/8/1 62/8/1 53/8/1
f 62/8/1 54/8/1 60/8/1
f 62/8/1 60/8/1 61/8/1
f 61/8/1 60/8/1 59/8/1
f 56/6/120 60/8/100 54/8/94
f 60/8/121 56/6/120 58/6/122
f 67/6/123 66/9/124 65/9/123
f 66/9/124 67/6/123 68/6/125
f 70/6/126 65/9/123 69/9/126
f 65/9/123 70/6/127 67/6/123
f 68/6/124 71/9/128 66/9/124
f 71/9/128 68/6/124 72/6/128
f 72/6/128 73/9/129 71/9/128
f 73/9/129 72/6/130 74/6/129
f 71/9/1 65/9/1 66/9/1
f 65/9/1 71/9/1 69/9/1
f 69/9/1 71/9/1 73/9/1
f 69/9/1 73/9/1 75/9/1
f 76/6/131 69/9/126 75/9/131
f 69/9/126 76/6/131 70/6/126
f 73/9/129 76/6/131 75/9/131
f 76/6/131 73/9/129 74/6/129
f 79/10/132 78/10/133 77/11/134
f 78/10/135 79/10/132 41/6/132
f 78/10/135 41/6/132 42/6/135
f 77/11/136 78/10/137 79/10/138
f 41/6/138 79/10/138 78/10/137
f 42/6/137 41/6/138 78/10/137
f 81/11/139 49/6/140 80/10/140
f 49/6/140 81/11/139 52/6/141
f 52/6/141 81/11/139 82/10/141
f 80/10/142 49/6/142 81/11/143
f 52/6/144 81/11/143 49/6/142
f 82/10/144 81/11/143 52/6/144
f 82/10/141 42/6/135 52/6/141
f 42/6/135 82/10/141 83/11/145
f 42/6/133 83/11/145 78/10/135
f 52/6/144 42/6/146 82/10/144
f 83/11/147 82/10/144 42/6/146
f 78/10/137 83/11/147 42/6/146
f 46/6/148 85/11/149 84/10/148
f 85/11/149 46/6/148 41/6/132
f 85/11/149 41/6/132 79/10/132
f 84/10/150 85/11/151 46/6/150
f 41/6/138 46/6/150 85/11/151
f 79/10/138 41/6/138 85/11/151
f 80/10/140 87/10/152 86/11/153
f 87/10/154 80/10/140 49/6/140
f 87/10/154 49/6/140 45/6/154
f 86/11/155 87/10/156 80/10/142
f 49/6/142 80/10/142 87/10/156
f 45/6/156 49/6/142 87/10/156
f 45/6/152 88/11/157 87/10/154
f 88/11/157 45/6/154 46/6/148
f 88/11/157 46/6/148 84/10/148
f 87/10/156 88/11/158 45/6/159
f 46/6/150 45/6/156 88/11/158
f 84/10/150 46/6/150 88/11/158
f 91/10/160 90/10/161 89/11/162
f 90/10/161 91/10/160 75/6/160
f 90/10/161 75/6/160 69/6/161
f 89/11/163 90/10/164 91/10/165
f 75/6/165 91/10/165 90/10/164
f 69/6/164 75/6/166 90/10/164
f 65/6/167 93/11/168 92/10/167
f 93/11/168 65/6/167 66/6/169
f 93/11/168 66/6/169 94/10/170
f 92/10/171 93/11/172 65/6/171
f 66/6/173 65/6/171 93/11/172
f 94/10/173 66/6/174 93/11/172
f 97/10/175 96/10/176 95/11/177
f 96/10/176 97/10/175 71/6/175
f 96/10/176 71/6/175 73/6/176
f 95/11/178 96/10/179 97/10/180
f 71/6/180 97/10/180 96/10/179
f 73/6/179 71/6/180 96/10/179
f 98/11/181 75/6/182 91/10/160
f 75/6/182 98/11/181 73/6/176
f 73/6/176 98/11/181 96/10/176
f 91/10/165 75/6/166 98/11/183
f 73/6/179 98/11/183 75/6/165
f 96/10/179 98/11/183 73/6/179
f 94/10/169 97/10/175 99/11/184
f 97/10/175 94/10/170 66/6/170
f 97/10/175 66/6/170 71/6/175
f 99/11/185 97/10/180 94/10/174
f 66/6/173 94/10/173 97/10/180
f 71/6/180 66/6/174 97/10/180
f 90/10/161 92/10/167 100/11/186
f 92/10/167 90/10/161 69/6/161
f 92/10/167 69/6/161 65/6/167
f 100/11/187 92/10/171 90/10/164
f 69/6/164 90/10/164 92/10/171
f 65/6/171 69/6/164 92/10/171
f 102/11/139 61/6/140 101/10/140
f 61/6/140 102/11/188 59/6/141
f 59/6/141 102/11/139 103/10/141
f 101/10/142 61/6/142 102/11/143
f 59/6/144 102/11/189 61/6/142
f 103/10/144 102/11/143 59/6/144
f 103/10/141 60/6/135 59/6/141
f 60/6/135 103/10/141 104/11/145
f 60/6/133 104/11/145 105/10/135
f 59/6/144 60/6/146 103/10/144
f 104/11/147 103/10/144 60/6/146
f 105/10/137 104/11/147 60/6/146
f 62/6/152 107/11/190 106/10/154
f 107/11/157 62/6/154 53/6/148
f 107/11/190 53/6/148 108/10/148
f 106/10/156 107/11/191 62/6/156
f 53/6/150 62/6/159 107/11/158
f 108/10/150 53/6/150 107/11/191
f 110/10/132 105/10/133 109/11/134
f 105/10/135 110/10/132 54/6/132
f 105/10/135 54/6/132 60/6/135
f 109/11/136 105/10/137 110/10/138
f 54/6/138 110/10/138 105/10/137
f 60/6/137 54/6/138 105/10/137
f 101/10/140 106/10/152 111/11/153
f 106/10/154 101/10/140 61/6/140
f 106/10/154 61/6/140 62/6/154
f 111/11/155 106/10/156 101/10/142
f 61/6/142 101/10/142 106/10/156
f 62/6/156 61/6/142 106/10/156
f 53/6/148 112/11/192 108/10/148
f 112/11/149 53/6/148 54/6/132
f 112/11/149 54/6/132 110/10/132
f 108/10/150 112/11/193 53/6/150
f 54/6/138 53/6/150 112/11/151
f 110/10/138 54/6/138 112/11/151
