# Blender 4.1.1
# www.blender.org
mtllib tree.001.mtl
o tree.001
v -18.064489 -4.675250 -3.113226
v -18.064489 -4.675250 -3.305303
v -18.160528 -4.675250 -3.017187
v -18.160528 -4.675250 -3.401341
v -18.352604 -4.675250 -3.017187
v -18.352604 -4.675250 -3.401341
v -18.448645 -4.675250 -3.113226
v -18.448645 -4.675250 -3.305303
v -18.160528 -4.327483 -3.257284
v -18.160528 -4.327483 -3.161245
v -18.208548 -4.327483 -3.113226
v -18.208548 -4.327483 -3.305303
v -18.304586 -4.327483 -3.305303
v -18.352604 -4.327483 -3.257284
v -18.352604 -4.327483 -3.161245
v -18.304586 -4.327483 -3.113226
v -18.376616 -3.805793 -3.269289
v -18.376616 -3.805793 -3.149240
v -18.316591 -3.805793 -3.089216
v -18.136518 -3.805793 -3.269289
v -18.136518 -3.805793 -3.149240
v -18.316591 -3.805793 -3.329313
v -18.196543 -3.805793 -3.329313
v -18.196543 -3.805793 -3.089216
v -18.097824 -4.203316 -3.256208
v -18.126663 -4.203316 -3.186583
v -18.126663 -4.203316 -3.325834
v -18.196289 -4.203316 -3.354674
v -18.196289 -4.203316 -3.157743
v -18.265915 -4.203316 -3.325834
v -18.265915 -4.203316 -3.186583
v -18.294756 -4.203316 -3.256208
v -18.042051 -4.329511 -3.256208
v -18.087227 -4.329511 -3.365271
v -18.087227 -4.329511 -3.147146
v -18.196289 -4.329511 -3.101970
v -18.196289 -4.329511 -3.410446
v -18.305351 -4.329511 -3.147146
v -18.305351 -4.329511 -3.365271
v -18.350529 -4.329511 -3.256208
v -18.026709 -3.805793 -2.795011
v -18.505049 -3.805793 -2.795011
v -18.124767 -3.230796 -2.964853
v -18.406990 -3.230796 -2.964853
v -18.026709 -3.805793 -3.623519
v -17.787540 -3.805793 -3.209265
v -18.124767 -3.230796 -3.453676
v -17.983656 -3.230796 -3.209265
v -18.505049 -3.805793 -3.623519
v -18.406990 -3.230796 -3.453676
v -18.548100 -3.230796 -3.209265
v -18.744219 -3.805793 -3.209265
v -17.990067 -2.613048 -3.209265
v -18.127974 -2.613048 -2.970405
v -18.202484 -1.965096 -3.209265
v -18.234182 -1.965096 -3.154363
v -18.329273 -1.965096 -3.209265
v -18.297577 -1.965096 -3.154363
v -18.541689 -2.613048 -3.209265
v -18.403784 -2.613048 -2.970405
v -18.403784 -2.613048 -3.448124
v -18.127974 -2.613048 -3.448124
v -18.297577 -1.965096 -3.264166
v -18.234182 -1.965096 -3.264166
v -17.929087 -3.230796 -3.403711
v -17.929087 -3.230796 -3.014817
v -18.111557 -2.613048 -3.298362
v -18.111557 -2.613048 -3.120167
v -18.265879 -3.230796 -3.598159
v -18.265879 -2.613048 -3.387460
v -18.265879 -3.230796 -2.820371
v -18.265879 -2.613048 -3.031069
v -18.602671 -3.230796 -3.014817
v -18.420200 -2.613048 -3.120167
v -18.602671 -3.230796 -3.403711
v -18.420200 -2.613048 -3.298362
v -18.265879 -3.985170 -2.703875
v -18.531357 -3.895481 -2.749443
v -18.000399 -3.895481 -2.749443
v -18.531357 -3.895482 -3.669087
v -18.703560 -3.985170 -3.461959
v -18.796835 -3.895481 -3.209265
v -18.703560 -3.985170 -2.956570
v -17.734922 -3.895481 -3.209265
v -17.828197 -3.985170 -2.956570
v -18.265879 -3.985170 -3.714655
v -18.000399 -3.895482 -3.669087
v -17.828197 -3.985170 -3.461959
v -18.471323 -3.376631 -3.565103
v -18.265879 -3.303713 -3.640937
v -18.639719 -3.303713 -3.425101
v -17.892040 -3.303713 -3.425101
v -17.854992 -3.376631 -3.209265
v -17.892040 -3.303713 -2.993428
v -18.471323 -3.376631 -2.853427
v -18.639719 -3.303713 -2.993428
v -18.265879 -3.303713 -2.777592
v -18.676765 -3.376631 -3.209265
v -18.060436 -3.376631 -2.853427
v -18.060436 -3.376631 -3.565103
v -18.418953 -2.664763 -3.474399
v -18.518246 -2.716478 -3.354969
v -18.572029 -2.664763 -3.209265
v -18.518246 -2.716478 -3.063560
v -18.418953 -2.664763 -2.944130
v -18.112803 -2.664763 -3.474399
v -18.013512 -2.716478 -3.354969
v -17.959728 -2.664763 -3.209265
v -18.265879 -2.716478 -2.917856
v -18.112803 -2.664763 -2.944130
v -18.265879 -2.716478 -3.500673
v -18.013512 -2.716478 -3.063560
vn -0.0000 -1.0000 -0.0000
vn 0.8851 0.2942 -0.3607
vn 0.8813 0.2944 0.3698
vn 0.8812 0.2944 -0.3698
vn 0.8812 0.2944 0.3698
vn 0.8851 0.2942 0.3607
vn 0.3607 0.2942 0.8850
vn 0.8850 0.2942 0.3608
vn 0.3608 0.2943 0.8850
vn 0.3698 0.2944 0.8812
vn 0.3608 0.2942 -0.8850
vn 0.3698 0.2944 -0.8812
vn 0.3607 0.2942 -0.8850
vn 0.8850 0.2942 -0.3608
vn -0.3607 0.2942 -0.8851
vn 0.3698 0.2944 -0.8813
vn -0.3698 0.2944 -0.8812
vn 0.3607 0.2942 -0.8851
vn -0.8813 0.2944 0.3698
vn -0.8851 0.2942 -0.3607
vn -0.8812 0.2944 -0.3698
vn -0.8851 0.2942 0.3607
vn 0.3607 0.2942 0.8851
vn -0.3698 0.2944 0.8813
vn -0.3698 0.2944 0.8812
vn -0.3607 0.2942 0.8851
vn -0.3607 0.2942 -0.8850
vn -0.3608 0.2942 -0.8850
vn -0.8812 0.2944 0.3698
vn -0.3608 0.2942 0.8850
vn -0.8850 0.2942 0.3607
vn -0.3607 0.2942 0.8850
vn -0.9230 -0.0513 -0.3813
vn -0.9223 -0.0512 0.3829
vn -0.9223 -0.0513 -0.3829
vn -0.9223 -0.0513 0.3829
vn -0.9230 -0.0513 0.3813
vn -0.3814 -0.0512 0.9230
vn -0.9223 -0.0513 0.3830
vn -0.9230 -0.0512 0.3813
vn -0.3814 -0.0513 0.9230
vn -0.3830 -0.0512 0.9223
vn 0.9223 -0.0512 0.3829
vn 0.9230 -0.0513 -0.3813
vn 0.9223 -0.0513 -0.3829
vn 0.9230 -0.0513 0.3813
vn -0.3829 -0.0513 -0.9223
vn 0.3813 -0.0513 -0.9230
vn -0.3813 -0.0513 -0.9230
vn -0.3829 -0.0512 -0.9223
vn 0.3829 -0.0513 -0.9223
vn 0.9223 -0.0513 0.3830
vn 0.3814 -0.0513 0.9230
vn 0.9230 -0.0513 0.3814
vn 0.9223 -0.0512 0.3830
vn 0.3830 -0.0513 0.9223
vn -0.3814 -0.0513 -0.9230
vn -0.9223 -0.0512 -0.3830
vn -0.3830 -0.0513 -0.9223
vn -0.9223 -0.0513 -0.3830
vn 0.9223 -0.0513 -0.3830
vn 0.3830 -0.0512 -0.9223
vn 0.3814 -0.0512 -0.9230
vn 0.9230 -0.0512 -0.3814
vn 0.3829 -0.0513 0.9223
vn -0.3813 -0.0513 0.9230
vn 0.3813 -0.0513 0.9230
vn 0.3829 -0.0512 0.9223
vn -0.3829 -0.0513 0.9223
vn -0.0000 1.0000 -0.0000
vn 0.6468 0.4042 -0.6467
vn 0.9147 0.4042 -0.0000
vn 0.9147 0.4042 -0.0001
vn 0.6468 0.4042 -0.6468
vn 0.9146 0.4043 -0.0001
vn -0.0000 0.4042 0.9147
vn -0.6467 0.4042 0.6468
vn -0.6468 0.4042 0.6468
vn -0.6467 0.4043 0.6468
vn -0.9147 0.4042 -0.0000
vn -0.9146 0.4043 0.0001
vn -0.6468 0.4042 0.6467
vn -0.0000 0.4042 -0.9147
vn 0.6467 0.4043 -0.6468
vn 0.6468 0.4042 0.6468
vn 0.6467 0.4042 0.6468
vn -0.0000 0.4043 0.9146
vn -0.6468 0.4042 -0.6468
vn -0.6467 0.4042 -0.6468
vn -0.0000 0.4042 -0.9146
vn 0.9146 0.4043 0.0001
vn 0.9147 0.4042 0.0001
vn 0.6468 0.4042 0.6467
vn -0.6468 0.4042 -0.6467
vn -0.9146 0.4043 -0.0000
vn -0.9147 0.4042 -0.0001
vn 0.4732 0.3228 0.8197
vn -0.4732 0.3228 0.8197
vn 0.4732 0.3228 -0.8197
vn 0.9465 0.3228 -0.0000
vn 0.4732 0.3228 -0.8196
vn -0.4732 0.3228 -0.8197
vn 0.4733 0.3228 0.8197
vn -0.9465 0.3228 -0.0000
vn -0.4732 0.3228 0.8196
vn -0.4733 0.3228 -0.8197
vn -0.4732 0.3228 -0.8196
vn 0.6877 0.7260 -0.0000
vn 0.4751 0.3115 0.8229
vn 0.9503 0.3115 -0.0000
vn 0.4752 0.3116 0.8229
vn 0.6877 0.7260 -0.0001
vn 0.3439 0.7260 0.5956
vn -0.9502 0.3115 0.0001
vn -0.3438 0.7260 0.5956
vn -0.6877 0.7260 -0.0000
vn -0.9503 0.3115 -0.0000
vn -0.4752 0.3115 0.8229
vn -0.3439 0.7260 -0.5956
vn 0.4751 0.3115 -0.8229
vn -0.4751 0.3115 -0.8229
vn 0.3439 0.7260 -0.5956
vn 0.3438 0.7260 -0.5956
vn 0.9502 0.3115 -0.0000
vn 0.9502 0.3115 -0.0001
vn 0.3439 0.7259 -0.5956
vn 0.3439 0.7259 0.5956
vn -0.3439 0.7259 0.5956
vn -0.3439 0.7259 -0.5956
vn -0.9502 0.3115 -0.0000
vn -0.4752 0.3115 -0.8229
vn -0.3438 0.7260 -0.5956
vn -0.9502 0.3115 -0.0001
vn -0.4751 0.3115 0.8229
vn -0.3439 0.7260 0.5956
vn 0.8197 0.3228 -0.4732
vn 0.8197 0.3228 0.4732
vn -0.0000 0.3228 -0.9465
vn 0.8197 0.3228 -0.4733
vn 0.8196 0.3228 0.4732
vn -0.0000 0.3228 0.9465
vn 0.8197 0.3228 0.4733
vn -0.8196 0.3228 0.4732
vn -0.8197 0.3228 0.4732
vn -0.8197 0.3228 0.4733
vn -0.8196 0.3228 -0.4732
vn -0.8197 0.3228 -0.4732
vn -0.8197 0.3228 -0.4733
vn 0.4313 0.5060 0.7470
vn -0.4313 0.5060 0.7470
vn -0.0000 0.4530 0.8915
vn -0.0000 -0.4530 -0.8915
vn 0.4313 -0.5060 -0.7470
vn -0.4313 -0.5060 -0.7470
vn -0.7721 0.4530 -0.4458
vn -0.4312 0.5060 -0.7470
vn -0.4313 0.5060 -0.7470
vn -0.4313 0.5060 -0.7469
vn -0.8625 0.5060 -0.0000
vn -0.7721 0.4529 -0.4458
vn 0.4313 -0.5060 0.7470
vn 0.7721 -0.4530 0.4458
vn 0.8625 -0.5060 -0.0000
vn 0.7721 -0.4529 0.4458
vn -0.7721 0.4530 0.4458
vn 0.7721 -0.4530 -0.4458
vn 0.4312 -0.5060 -0.7470
vn 0.8625 0.5060 -0.0000
vn 0.7721 0.4530 0.4458
vn 0.4313 0.5060 0.7469
vn 0.4312 0.5060 0.7470
vn -0.8625 -0.5060 -0.0000
vn -0.7721 -0.4530 -0.4458
vn -0.4312 -0.5060 -0.7470
vn 0.4313 0.5060 -0.7470
vn -0.0000 0.4530 -0.8915
vn -0.0000 -0.4530 0.8915
vn -0.4313 -0.5060 0.7470
vn 0.7721 0.4530 -0.4458
vn -0.7721 -0.4530 0.4458
vn -0.4312 -0.5060 0.7470
vn -0.7470 0.5060 -0.4313
vn -0.0000 0.5060 -0.8625
vn -0.4458 0.4530 -0.7721
vn 0.4458 -0.4530 0.7721
vn -0.0000 -0.5060 0.8625
vn 0.7470 -0.5060 0.4313
vn 0.7470 0.5060 -0.4313
vn 0.8915 0.4530 -0.0000
vn 0.7470 0.5060 0.4313
vn -0.7470 -0.5060 0.4313
vn -0.8915 -0.4530 -0.0000
vn -0.7470 -0.5060 -0.4313
vn -0.0000 0.5060 0.8625
vn -0.7470 0.5060 0.4313
vn -0.4458 0.4530 0.7721
vn 0.4458 -0.4530 -0.7721
vn 0.7470 -0.5060 -0.4313
vn -0.0000 -0.5060 -0.8625
vn -0.8915 0.4530 -0.0000
vn -0.7470 0.5061 -0.4312
vn -0.7470 0.5060 0.4312
vn 0.7470 -0.5060 0.4312
vn 0.8915 -0.4530 -0.0000
vn 0.7470 -0.5060 -0.4312
vn 0.7470 -0.5061 -0.4312
vn 0.4458 0.4530 0.7721
vn -0.4458 -0.4530 -0.7721
vn 0.4458 0.4530 -0.7721
vn -0.4458 -0.4530 0.7721
vn -0.7721 0.4530 -0.4457
vn -0.4313 0.5061 -0.7469
vn 0.7721 -0.4530 0.4457
vn -0.7721 0.4529 0.4458
vn -0.4313 0.5060 0.7469
vn -0.7721 0.4530 0.4457
vn 0.4313 -0.5060 -0.7469
vn 0.7721 -0.4529 -0.4458
vn 0.4313 0.5060 -0.7469
vn 0.7721 0.4530 -0.4457
vn 0.7721 0.4529 -0.4458
vn -0.4313 -0.5060 0.7469
vn -0.7721 -0.4530 0.4457
vn -0.4313 -0.5061 0.7469
vn -0.7721 -0.4529 0.4458
vn 0.7721 0.4529 0.4458
vn 0.7721 0.4530 0.4457
vn 0.4313 0.5061 0.7469
vn -0.7721 -0.4529 -0.4458
vn -0.4313 -0.5060 -0.7469
vn -0.7721 -0.4530 -0.4457
vt 0.593750 0.025000
vt 0.593750 0.104996
vt 0.593750 0.225000
vt 0.093750 0.475000
vt 0.093750 0.275000
vt 0.093750 0.425000
vt 0.093750 0.348778
vt 0.093750 0.338765
vt 0.093750 0.344099
vt 0.093750 0.375000
vt 0.093750 0.325000
s 0
usemtl colormap.002
f 3/1/1 2/1/1 1/1/1
f 2/1/1 3/1/1 4/1/1
f 4/1/1 3/1/1 5/1/1
f 4/1/1 5/1/1 6/1/1
f 6/1/1 5/1/1 7/1/1
f 6/1/1 7/1/1 8/1/1
f 9/2/2 1/1/3 2/1/4
f 1/1/5 9/2/2 10/2/6
f 11/2/7 1/1/5 10/2/8
f 1/1/5 11/2/9 3/1/10
f 12/2/11 2/1/4 4/1/12
f 2/1/4 12/2/13 9/2/14
f 13/2/15 4/1/16 6/1/17
f 4/1/12 13/2/15 12/2/18
f 7/1/19 14/2/20 8/1/21
f 14/2/20 7/1/19 15/2/22
f 11/2/23 5/1/24 3/1/10
f 5/1/25 11/2/23 16/2/26
f 8/1/21 13/2/27 6/1/17
f 13/2/28 8/1/21 14/2/20
f 7/1/29 16/2/30 15/2/31
f 16/2/32 7/1/29 5/1/25
f 14/2/33 18/3/34 17/3/35
f 18/3/36 14/2/33 15/2/37
f 16/2/38 18/3/39 15/2/40
f 18/3/39 16/2/41 19/3/42
f 21/3/43 9/2/44 20/3/45
f 9/2/44 21/3/43 10/2/46
f 22/3/47 12/2/48 13/2/49
f 12/2/48 22/3/50 23/3/51
f 21/3/52 11/2/53 10/2/54
f 11/2/53 21/3/55 24/3/56
f 13/2/57 17/3/58 22/3/59
f 17/3/60 13/2/57 14/2/33
f 20/3/61 12/2/48 23/3/62
f 12/2/63 20/3/61 9/2/64
f 24/3/65 16/2/66 11/2/67
f 16/2/66 24/3/68 19/3/69
f 27/4/70 26/4/70 25/4/70
f 26/4/70 27/4/70 28/4/70
f 26/4/70 28/4/70 29/4/70
f 29/4/70 28/4/70 30/4/70
f 29/4/70 30/4/70 31/4/70
f 31/4/70 30/4/70 32/4/70
f 35/5/1 34/5/1 33/5/1
f 34/5/1 35/5/1 36/5/1
f 34/5/1 36/5/1 37/5/1
f 37/5/1 36/5/1 38/5/1
f 37/5/1 38/5/1 39/5/1
f 39/5/1 38/5/1 40/5/1
f 27/4/71 33/5/72 34/5/71
f 33/5/73 27/4/74 25/4/75
f 29/4/76 38/5/77 36/5/76
f 38/5/78 29/4/76 31/4/79
f 40/5/80 31/4/78 32/4/81
f 31/4/78 40/5/80 38/5/82
f 28/4/83 34/5/74 37/5/83
f 34/5/74 28/4/83 27/4/84
f 26/4/85 36/5/76 35/5/86
f 36/5/76 26/4/85 29/4/87
f 30/4/88 37/5/83 39/5/89
f 37/5/83 30/4/89 28/4/90
f 26/4/85 33/5/91 25/4/92
f 33/5/72 26/4/93 35/5/93
f 40/5/80 30/4/94 39/5/88
f 30/4/88 40/5/95 32/4/96
f 43/6/97 42/7/98 41/7/97
f 42/7/98 43/6/97 44/6/98
f 47/6/99 46/7/100 45/7/101
f 46/7/100 47/6/99 48/6/100
f 50/6/102 45/7/99 49/7/102
f 45/7/99 50/6/102 47/6/99
f 48/6/100 41/7/97 46/7/100
f 41/7/103 48/6/100 43/6/103
f 52/7/104 44/6/98 51/6/104
f 44/6/98 52/7/104 42/7/105
f 52/7/104 50/6/106 49/7/107
f 50/6/102 52/7/104 51/6/104
f 41/7/1 45/7/1 46/7/1
f 45/7/1 41/7/1 42/7/1
f 45/7/1 42/7/1 49/7/1
f 49/7/1 42/7/1 52/7/1
f 55/6/108 54/8/109 53/8/110
f 54/8/111 55/6/112 56/6/113
f 59/8/114 58/6/115 57/6/116
f 58/6/115 59/8/117 60/8/118
f 63/6/119 62/8/120 61/8/121
f 62/8/120 63/6/119 64/6/122
f 64/6/123 53/8/124 62/8/120
f 53/8/125 64/6/123 55/6/108
f 64/6/126 56/6/127 55/6/108
f 56/6/127 64/6/126 58/6/128
f 58/6/128 64/6/126 63/6/129
f 58/6/128 63/6/129 57/6/116
f 59/8/130 63/6/119 61/8/131
f 63/6/132 59/8/133 57/6/116
f 54/8/1 62/8/1 53/8/1
f 62/8/1 54/8/1 60/8/1
f 62/8/1 60/8/1 61/8/1
f 61/8/1 60/8/1 59/8/1
f 56/6/113 60/8/134 54/8/109
f 60/8/134 56/6/113 58/6/135
f 67/6/136 66/9/137 65/9/136
f 66/9/137 67/6/136 68/6/137
f 70/6/138 65/9/136 69/9/138
f 65/9/136 70/6/138 67/6/139
f 68/6/140 71/9/141 66/9/137
f 71/9/141 68/6/142 72/6/141
f 72/6/141 73/9/143 71/9/141
f 73/9/144 72/6/141 74/6/145
f 71/9/1 65/9/1 66/9/1
f 65/9/1 71/9/1 69/9/1
f 69/9/1 71/9/1 73/9/1
f 69/9/1 73/9/1 75/9/1
f 76/6/146 69/9/138 75/9/147
f 69/9/138 76/6/148 70/6/138
f 73/9/144 76/6/147 75/9/147
f 76/6/147 73/9/144 74/6/144
f 79/10/149 78/10/150 77/11/151
f 78/10/150 79/10/149 41/6/149
f 78/10/150 41/6/149 42/6/150
f 77/11/152 78/10/153 79/10/154
f 41/6/154 79/10/154 78/10/153
f 42/6/153 41/6/154 78/10/153
f 81/11/155 49/6/156 80/10/157
f 49/6/158 81/11/155 52/6/159
f 52/6/159 81/11/160 82/10/159
f 80/10/161 49/6/161 81/11/162
f 52/6/163 81/11/162 49/6/161
f 82/10/163 81/11/164 52/6/163
f 82/10/159 42/6/150 52/6/159
f 42/6/150 82/10/159 83/11/165
f 42/6/150 83/11/165 78/10/150
f 52/6/163 42/6/153 82/10/163
f 83/11/166 82/10/163 42/6/153
f 78/10/153 83/11/166 42/6/167
f 46/6/168 85/11/169 84/10/168
f 85/11/169 46/6/168 41/6/170
f 85/11/169 41/6/171 79/10/149
f 84/10/172 85/11/173 46/6/172
f 41/6/154 46/6/172 85/11/173
f 79/10/154 41/6/174 85/11/173
f 80/10/157 87/10/175 86/11/176
f 87/10/175 80/10/157 49/6/157
f 87/10/175 49/6/157 45/6/175
f 86/11/177 87/10/178 80/10/161
f 49/6/161 80/10/161 87/10/178
f 45/6/178 49/6/161 87/10/178
f 45/6/175 88/11/179 87/10/175
f 88/11/179 45/6/175 46/6/168
f 88/11/179 46/6/168 84/10/168
f 87/10/178 88/11/180 45/6/181
f 46/6/172 45/6/178 88/11/180
f 84/10/172 46/6/172 88/11/180
f 91/10/182 90/10/183 89/11/184
f 90/10/183 91/10/182 75/6/182
f 90/10/183 75/6/182 69/6/183
f 89/11/185 90/10/186 91/10/187
f 75/6/187 91/10/187 90/10/186
f 69/6/186 75/6/187 90/10/186
f 65/6/188 93/11/189 92/10/188
f 93/11/189 65/6/188 66/6/190
f 93/11/189 66/6/190 94/10/190
f 92/10/191 93/11/192 65/6/191
f 66/6/193 65/6/191 93/11/192
f 94/10/193 66/6/193 93/11/192
f 97/10/194 96/10/195 95/11/196
f 96/10/195 97/10/194 71/6/194
f 96/10/195 71/6/194 73/6/195
f 95/11/197 96/10/198 97/10/199
f 71/6/199 97/10/199 96/10/198
f 73/6/198 71/6/199 96/10/198
f 98/11/200 75/6/201 91/10/182
f 75/6/182 98/11/200 73/6/195
f 73/6/202 98/11/200 96/10/195
f 91/10/203 75/6/203 98/11/204
f 73/6/198 98/11/204 75/6/187
f 96/10/205 98/11/204 73/6/206
f 94/10/190 97/10/194 99/11/207
f 97/10/194 94/10/190 66/6/190
f 97/10/194 66/6/190 71/6/194
f 99/11/208 97/10/199 94/10/193
f 66/6/193 94/10/193 97/10/199
f 71/6/199 66/6/193 97/10/199
f 90/10/183 92/10/188 100/11/209
f 92/10/188 90/10/183 69/6/183
f 92/10/188 69/6/183 65/6/188
f 100/11/210 92/10/191 90/10/186
f 69/6/186 90/10/186 92/10/191
f 65/6/191 69/6/186 92/10/191
f 102/11/211 61/6/212 101/10/158
f 61/6/156 102/11/155 59/6/159
f 59/6/159 102/11/155 103/10/159
f 101/10/161 61/6/161 102/11/213
f 59/6/163 102/11/162 61/6/161
f 103/10/163 102/11/162 59/6/163
f 103/10/159 60/6/150 59/6/159
f 60/6/150 103/10/159 104/11/214
f 60/6/215 104/11/216 105/10/150
f 59/6/163 60/6/217 103/10/163
f 104/11/218 103/10/163 60/6/153
f 105/10/153 104/11/166 60/6/217
f 62/6/219 107/11/220 106/10/175
f 107/11/179 62/6/175 53/6/168
f 107/11/221 53/6/168 108/10/168
f 106/10/222 107/11/223 62/6/224
f 53/6/172 62/6/178 107/11/180
f 108/10/172 53/6/172 107/11/225
f 110/10/149 105/10/150 109/11/151
f 105/10/150 110/10/149 54/6/149
f 105/10/150 54/6/149 60/6/150
f 109/11/152 105/10/153 110/10/154
f 54/6/154 110/10/154 105/10/153
f 60/6/153 54/6/154 105/10/153
f 101/10/157 106/10/175 111/11/176
f 106/10/175 101/10/157 61/6/157
f 106/10/175 61/6/157 62/6/175
f 111/11/177 106/10/178 101/10/161
f 61/6/161 101/10/161 106/10/178
f 62/6/178 61/6/161 106/10/178
f 53/6/168 112/11/226 108/10/168
f 112/11/169 53/6/168 54/6/171
f 112/11/227 54/6/228 110/10/170
f 108/10/172 112/11/173 53/6/172
f 54/6/154 53/6/172 112/11/229
f 110/10/230 54/6/230 112/11/231
f 3/1/1 2/1/1 1/1/1
f 2/1/1 3/1/1 4/1/1
f 4/1/1 3/1/1 5/1/1
f 4/1/1 5/1/1 6/1/1
f 6/1/1 5/1/1 7/1/1
f 6/1/1 7/1/1 8/1/1
f 9/2/2 1/1/3 2/1/4
f 1/1/5 9/2/2 10/2/6
f 11/2/7 1/1/5 10/2/8
f 1/1/5 11/2/9 3/1/10
f 12/2/11 2/1/4 4/1/12
f 2/1/4 12/2/13 9/2/14
f 13/2/15 4/1/16 6/1/17
f 4/1/12 13/2/15 12/2/18
f 7/1/19 14/2/20 8/1/21
f 14/2/20 7/1/19 15/2/22
f 11/2/23 5/1/24 3/1/10
f 5/1/25 11/2/23 16/2/26
f 8/1/21 13/2/27 6/1/17
f 13/2/28 8/1/21 14/2/20
f 7/1/29 16/2/30 15/2/31
f 16/2/32 7/1/29 5/1/25
f 14/2/33 18/3/34 17/3/35
f 18/3/36 14/2/33 15/2/37
f 16/2/38 18/3/39 15/2/40
f 18/3/39 16/2/41 19/3/42
f 21/3/43 9/2/44 20/3/45
f 9/2/44 21/3/43 10/2/46
f 22/3/47 12/2/48 13/2/49
f 12/2/48 22/3/50 23/3/51
f 21/3/52 11/2/53 10/2/54
f 11/2/53 21/3/55 24/3/56
f 13/2/57 17/3/58 22/3/59
f 17/3/60 13/2/57 14/2/33
f 20/3/61 12/2/48 23/3/62
f 12/2/63 20/3/61 9/2/64
f 24/3/65 16/2/66 11/2/67
f 16/2/66 24/3/68 19/3/69
f 27/4/70 26/4/70 25/4/70
f 26/4/70 27/4/70 28/4/70
f 26/4/70 28/4/70 29/4/70
f 29/4/70 28/4/70 30/4/70
f 29/4/70 30/4/70 31/4/70
f 31/4/70 30/4/70 32/4/70
f 35/5/1 34/5/1 33/5/1
f 34/5/1 35/5/1 36/5/1
f 34/5/1 36/5/1 37/5/1
f 37/5/1 36/5/1 38/5/1
f 37/5/1 38/5/1 39/5/1
f 39/5/1 38/5/1 40/5/1
f 27/4/71 33/5/72 34/5/71
f 33/5/73 27/4/74 25/4/75
f 29/4/76 38/5/77 36/5/76
f 38/5/78 29/4/76 31/4/79
f 40/5/80 31/4/78 32/4/81
f 31/4/78 40/5/80 38/5/82
f 28/4/83 34/5/74 37/5/83
f 34/5/74 28/4/83 27/4/84
f 26/4/85 36/5/76 35/5/86
f 36/5/76 26/4/85 29/4/87
f 30/4/88 37/5/83 39/5/89
f 37/5/83 30/4/89 28/4/90
f 26/4/85 33/5/91 25/4/92
f 33/5/72 26/4/93 35/5/93
f 40/5/80 30/4/94 39/5/88
f 30/4/88 40/5/95 32/4/96
f 43/6/97 42/7/98 41/7/97
f 42/7/98 43/6/97 44/6/98
f 47/6/99 46/7/100 45/7/101
f 46/7/100 47/6/99 48/6/100
f 50/6/102 45/7/99 49/7/102
f 45/7/99 50/6/102 47/6/99
f 48/6/100 41/7/97 46/7/100
f 41/7/103 48/6/100 43/6/103
f 52/7/104 44/6/98 51/6/104
f 44/6/98 52/7/104 42/7/105
f 52/7/104 50/6/106 49/7/107
f 50/6/102 52/7/104 51/6/104
f 41/7/1 45/7/1 46/7/1
f 45/7/1 41/7/1 42/7/1
f 45/7/1 42/7/1 49/7/1
f 49/7/1 42/7/1 52/7/1
f 55/6/108 54/8/109 53/8/110
f 54/8/111 55/6/112 56/6/113
f 59/8/114 58/6/115 57/6/116
f 58/6/115 59/8/117 60/8/118
f 63/6/119 62/8/120 61/8/121
f 62/8/120 63/6/119 64/6/122
f 64/6/123 53/8/124 62/8/120
f 53/8/125 64/6/123 55/6/108
f 64/6/126 56/6/127 55/6/108
f 56/6/127 64/6/126 58/6/128
f 58/6/128 64/6/126 63/6/129
f 58/6/128 63/6/129 57/6/116
f 59/8/130 63/6/119 61/8/131
f 63/6/132 59/8/133 57/6/116
f 54/8/1 62/8/1 53/8/1
f 62/8/1 54/8/1 60/8/1
f 62/8/1 60/8/1 61/8/1
f 61/8/1 60/8/1 59/8/1
f 56/6/113 60/8/134 54/8/109
f 60/8/134 56/6/113 58/6/135
f 67/6/136 66/9/137 65/9/136
f 66/9/137 67/6/136 68/6/137
f 70/6/138 65/9/136 69/9/138
f 65/9/136 70/6/138 67/6/139
f 68/6/140 71/9/141 66/9/137
f 71/9/141 68/6/142 72/6/141
f 72/6/141 73/9/143 71/9/141
f 73/9/144 72/6/141 74/6/145
f 71/9/1 65/9/1 66/9/1
f 65/9/1 71/9/1 69/9/1
f 69/9/1 71/9/1 73/9/1
f 69/9/1 73/9/1 75/9/1
f 76/6/146 69/9/138 75/9/147
f 69/9/138 76/6/148 70/6/138
f 73/9/144 76/6/147 75/9/147
f 76/6/147 73/9/144 74/6/144
f 79/10/149 78/10/150 77/11/151
f 78/10/150 79/10/149 41/6/149
f 78/10/150 41/6/149 42/6/150
f 77/11/152 78/10/153 79/10/154
f 41/6/154 79/10/154 78/10/153
f 42/6/153 41/6/154 78/10/153
f 81/11/155 49/6/156 80/10/157
f 49/6/158 81/11/155 52/6/159
f 52/6/159 81/11/160 82/10/159
f 80/10/161 49/6/161 81/11/162
f 52/6/163 81/11/162 49/6/161
f 82/10/163 81/11/164 52/6/163
f 82/10/159 42/6/150 52/6/159
f 42/6/150 82/10/159 83/11/165
f 42/6/150 83/11/165 78/10/150
f 52/6/163 42/6/153 82/10/163
f 83/11/166 82/10/163 42/6/153
f 78/10/153 83/11/166 42/6/167
f 46/6/168 85/11/169 84/10/168
f 85/11/169 46/6/168 41/6/170
f 85/11/169 41/6/171 79/10/149
f 84/10/172 85/11/173 46/6/172
f 41/6/154 46/6/172 85/11/173
f 79/10/154 41/6/174 85/11/173
f 80/10/157 87/10/175 86/11/176
f 87/10/175 80/10/157 49/6/157
f 87/10/175 49/6/157 45/6/175
f 86/11/177 87/10/178 80/10/161
f 49/6/161 80/10/161 87/10/178
f 45/6/178 49/6/161 87/10/178
f 45/6/175 88/11/179 87/10/175
f 88/11/179 45/6/175 46/6/168
f 88/11/179 46/6/168 84/10/168
f 87/10/178 88/11/180 45/6/181
f 46/6/172 45/6/178 88/11/180
f 84/10/172 46/6/172 88/11/180
f 91/10/182 90/10/183 89/11/184
f 90/10/183 91/10/182 75/6/182
f 90/10/183 75/6/182 69/6/183
f 89/11/185 90/10/186 91/10/187
f 75/6/187 91/10/187 90/10/186
f 69/6/186 75/6/187 90/10/186
f 65/6/188 93/11/189 92/10/188
f 93/11/189 65/6/188 66/6/190
f 93/11/189 66/6/190 94/10/190
f 92/10/191 93/11/192 65/6/191
f 66/6/193 65/6/191 93/11/192
f 94/10/193 66/6/193 93/11/192
f 97/10/194 96/10/195 95/11/196
f 96/10/195 97/10/194 71/6/194
f 96/10/195 71/6/194 73/6/195
f 95/11/197 96/10/198 97/10/199
f 71/6/199 97/10/199 96/10/198
f 73/6/198 71/6/199 96/10/198
f 98/11/200 75/6/201 91/10/182
f 75/6/182 98/11/200 73/6/195
f 73/6/202 98/11/200 96/10/195
f 91/10/203 75/6/203 98/11/204
f 73/6/198 98/11/204 75/6/187
f 96/10/205 98/11/204 73/6/206
f 94/10/190 97/10/194 99/11/207
f 97/10/194 94/10/190 66/6/190
f 97/10/194 66/6/190 71/6/194
f 99/11/208 97/10/199 94/10/193
f 66/6/193 94/10/193 97/10/199
f 71/6/199 66/6/193 97/10/199
f 90/10/183 92/10/188 100/11/209
f 92/10/188 90/10/183 69/6/183
f 92/10/188 69/6/183 65/6/188
f 100/11/210 92/10/191 90/10/186
f 69/6/186 90/10/186 92/10/191
f 65/6/191 69/6/186 92/10/191
f 102/11/211 61/6/212 101/10/158
f 61/6/156 102/11/155 59/6/159
f 59/6/159 102/11/155 103/10/159
f 101/10/161 61/6/161 102/11/213
f 59/6/163 102/11/162 61/6/161
f 103/10/163 102/11/162 59/6/163
f 103/10/159 60/6/150 59/6/159
f 60/6/150 103/10/159 104/11/214
f 60/6/215 104/11/216 105/10/150
f 59/6/163 60/6/217 103/10/163
f 104/11/218 103/10/163 60/6/153
f 105/10/153 104/11/166 60/6/217
f 62/6/219 107/11/220 106/10/175
f 107/11/179 62/6/175 53/6/168
f 107/11/221 53/6/168 108/10/168
f 106/10/222 107/11/223 62/6/224
f 53/6/172 62/6/178 107/11/180
f 108/10/172 53/6/172 107/11/225
f 110/10/149 105/10/150 109/11/151
f 105/10/150 110/10/149 54/6/149
f 105/10/150 54/6/149 60/6/150
f 109/11/152 105/10/153 110/10/154
f 54/6/154 110/10/154 105/10/153
f 60/6/153 54/6/154 105/10/153
f 101/10/157 106/10/175 111/11/176
f 106/10/175 101/10/157 61/6/157
f 106/10/175 61/6/157 62/6/175
f 111/11/177 106/10/178 101/10/161
f 61/6/161 101/10/161 106/10/178
f 62/6/178 61/6/161 106/10/178
f 53/6/168 112/11/226 108/10/168
f 112/11/169 53/6/168 54/6/171
f 112/11/227 54/6/228 110/10/170
f 108/10/172 112/11/173 53/6/172
f 54/6/154 53/6/172 112/11/229
f 110/10/230 54/6/230 112/11/231
