# Blender 4.1.1
# www.blender.org
mtllib tree.048.mtl
o tree.048
v -8.038596 -0.282319 -14.576637
v -7.871773 -0.282319 -14.648281
v -8.157830 -0.282319 -14.624229
v -7.824182 -0.282319 -14.767515
v -8.229474 -0.282319 -14.791054
v -7.895825 -0.282319 -14.934340
v -8.181883 -0.282319 -14.910288
v -8.015059 -0.282319 -14.981932
v -7.949301 0.046402 -14.713782
v -8.032713 0.046402 -14.677961
v -8.092329 0.046402 -14.701756
v -7.925505 0.046402 -14.773400
v -7.961327 0.046402 -14.856812
v -8.020943 0.046402 -14.880607
v -8.104355 0.046402 -14.844786
v -8.128151 0.046402 -14.785169
v -8.019472 0.539521 -14.905938
v -8.123737 0.539521 -14.861161
v -8.153481 0.539521 -14.786640
v -7.929918 0.539521 -14.697408
v -8.034184 0.539521 -14.652630
v -7.944952 0.539521 -14.876194
v -7.900174 0.539521 -14.771929
v -8.108705 0.539521 -14.682374
v -7.926847 0.163768 -14.658922
v -7.998076 0.163768 -14.658001
v -7.877132 0.163768 -14.709940
v -7.878053 0.163768 -14.781169
v -8.049093 0.163768 -14.707716
v -7.929071 0.163768 -14.830884
v -8.050014 0.163768 -14.778944
v -8.000299 0.163768 -14.829963
v -7.906044 0.044485 -14.610482
v -7.828170 0.044485 -14.690396
v -8.017617 0.044485 -14.609038
v -8.097533 0.044485 -14.686913
v -7.829613 0.044485 -14.801971
v -8.098977 0.044485 -14.798487
v -7.909528 0.044485 -14.879846
v -8.021103 0.044485 -14.878403
v -8.300884 0.539521 -14.425133
v -8.479301 0.539521 -14.840585
v -8.189946 1.083027 -14.573649
v -8.295213 1.083027 -14.818769
v -7.581302 0.539521 -14.734159
v -7.851885 0.539521 -14.371920
v -7.765389 1.083027 -14.755976
v -7.925035 1.083027 -14.542254
v -7.759717 0.539521 -15.149611
v -7.870656 1.083027 -15.001094
v -8.135567 1.083027 -15.032490
v -8.208717 0.539521 -15.202824
v -7.927426 1.666943 -14.547822
v -8.186320 1.666943 -14.578505
v -8.006656 2.279410 -14.732313
v -8.066161 2.279410 -14.739365
v -8.053946 2.279410 -14.842433
v -8.089807 2.279410 -14.794424
v -8.133177 1.666943 -15.026922
v -8.289195 1.666943 -14.818055
v -7.874282 1.666943 -14.996240
v -7.771407 1.666943 -14.756690
v -7.994441 2.279410 -14.835380
v -7.970796 2.279410 -14.780319
v -7.735798 1.083027 -14.567386
v -8.073563 1.083027 -14.422331
v -7.895357 1.666943 -14.686572
v -8.050124 1.666943 -14.620107
v -7.692535 1.083027 -14.932426
v -7.875534 1.666943 -14.853838
v -8.368067 1.083027 -14.642318
v -8.185069 1.666943 -14.720907
v -8.324804 1.083027 -15.007359
v -8.165246 1.666943 -14.888172
v -7.987039 1.083027 -15.152413
v -8.010478 1.666943 -14.954638
v -8.469247 0.369968 -14.598866
v -8.528691 0.454744 -14.846437
v -8.330648 0.454744 -14.385286
v -7.729953 0.454744 -15.189458
v -7.974079 0.369968 -15.261764
v -8.228344 0.454744 -15.248524
v -8.413025 0.369968 -15.073258
v -7.832259 0.454744 -14.326220
v -8.086523 0.369968 -14.312981
v -7.591355 0.369968 -14.975879
v -7.531911 0.454744 -14.728307
v -7.647577 0.369968 -14.501486
v -7.797874 0.945179 -15.098531
v -7.655381 1.014103 -14.948382
v -7.982280 1.014103 -15.192568
v -7.703402 1.014103 -14.543187
v -7.877044 0.945179 -14.430505
v -8.078321 1.014103 -14.382176
v -8.415985 0.945179 -14.833081
v -8.357200 1.014103 -15.031557
v -8.405221 1.014103 -14.626362
v -8.183558 0.945179 -15.144238
v -8.262729 0.945179 -14.476213
v -7.644617 0.945179 -14.741663
v -7.857120 1.618061 -15.019215
v -7.997884 1.569178 -15.060907
v -8.144492 1.618061 -15.053273
v -8.250980 1.569178 -14.952214
v -8.317674 1.618061 -14.821429
v -7.742929 1.618061 -14.753314
v -7.809622 1.569178 -14.622530
v -7.916110 1.618061 -14.521471
v -8.283398 1.569178 -14.678679
v -8.203482 1.618061 -14.555529
v -7.777204 1.569178 -14.896065
v -8.062718 1.569178 -14.513837
vn -0.0000 -1.0000 -0.0000
vn 0.6806 0.2942 0.6709
vn 0.0080 0.2944 0.9556
vn 0.6875 0.2944 0.6638
vn 0.6807 0.2942 0.6709
vn 0.0179 0.2942 0.9556
vn -0.6709 0.2942 0.6807
vn 0.0079 0.2944 0.9556
vn 0.0178 0.2942 0.9556
vn -0.6638 0.2944 0.6875
vn 0.9556 0.2942 -0.0178
vn 0.9556 0.2944 -0.0079
vn 0.9556 0.2942 -0.0177
vn 0.6709 0.2942 -0.6806
vn 0.9556 0.2944 -0.0080
vn 0.6638 0.2944 -0.6875
vn 0.6709 0.2942 -0.6807
vn 0.9556 0.2942 -0.0179
vn -0.6875 0.2944 -0.6638
vn -0.0179 0.2942 -0.9556
vn -0.0080 0.2944 -0.9556
vn -0.6806 0.2942 -0.6709
vn -0.6709 0.2942 0.6806
vn -0.9556 0.2944 0.0080
vn -0.6710 0.2942 0.6806
vn -0.9556 0.2942 0.0178
vn -0.0079 0.2944 -0.9556
vn 0.6709 0.2943 -0.6807
vn -0.0178 0.2942 -0.9556
vn -0.9556 0.2942 0.0177
vn -0.6807 0.2942 -0.6709
vn -0.0139 -0.0513 -0.9986
vn -0.7158 -0.0512 -0.6964
vn -0.0121 -0.0513 -0.9986
vn -0.7158 -0.0513 -0.6964
vn -0.7146 -0.0513 -0.6977
vn -0.9986 -0.0512 0.0138
vn -0.7159 -0.0513 -0.6964
vn -0.7146 -0.0512 -0.6976
vn -0.7159 -0.0513 -0.6963
vn -0.9986 -0.0513 0.0138
vn -0.9986 -0.0512 0.0121
vn 0.0121 -0.0512 0.9986
vn 0.7146 -0.0513 0.6977
vn 0.7158 -0.0513 0.6964
vn 0.0139 -0.0513 0.9986
vn 0.6964 -0.0513 -0.7158
vn 0.9986 -0.0513 -0.0139
vn 0.6977 -0.0513 -0.7146
vn 0.6964 -0.0512 -0.7158
vn 0.9986 -0.0513 -0.0121
vn 0.0120 -0.0513 0.9986
vn -0.6976 -0.0513 0.7146
vn 0.0138 -0.0513 0.9986
vn 0.0120 -0.0512 0.9986
vn -0.6963 -0.0513 0.7159
vn 0.6976 -0.0513 -0.7146
vn -0.0120 -0.0512 -0.9986
vn 0.6963 -0.0513 -0.7159
vn -0.0120 -0.0513 -0.9986
vn -0.0138 -0.0512 -0.9986
vn 0.7159 -0.0513 0.6963
vn 0.9986 -0.0513 -0.0138
vn 0.9986 -0.0512 -0.0120
vn 0.9986 -0.0512 -0.0138
vn 0.7159 -0.0513 0.6964
vn 0.7146 -0.0512 0.6976
vn -0.6964 -0.0513 0.7158
vn -0.6977 -0.0513 0.7146
vn -0.9986 -0.0513 0.0139
vn -0.6964 -0.0512 0.7158
vn -0.9986 -0.0513 0.0121
vn -0.0000 1.0000 -0.0000
vn 0.8495 0.4042 0.3391
vn 0.3609 0.4042 0.8404
vn 0.3610 0.4042 0.8404
vn -0.8404 0.4042 0.3609
vn -0.8495 0.4042 -0.3390
vn -0.8495 0.4042 -0.3391
vn -0.8405 0.4042 0.3609
vn -0.8495 0.4043 -0.3391
vn -0.3610 0.4042 -0.8404
vn -0.3609 0.4043 -0.8404
vn 0.8405 0.4042 -0.3609
vn 0.8495 0.4042 0.3390
vn 0.8404 0.4042 -0.3609
vn 0.8495 0.4043 0.3390
vn -0.3391 0.4042 0.8495
vn -0.8404 0.4042 0.3610
vn -0.8404 0.4043 0.3609
vn 0.3391 0.4042 -0.8495
vn 0.8404 0.4042 -0.3610
vn -0.3390 0.4042 0.8495
vn 0.3609 0.4043 0.8404
vn 0.3609 0.4042 0.8405
vn -0.3609 0.4042 -0.8405
vn 0.3390 0.4042 -0.8495
vn -0.5664 0.3228 0.7583
vn -0.9399 0.3228 -0.1114
vn 0.9399 0.3228 0.1114
vn 0.3735 0.3228 0.8697
vn 0.5664 0.3228 -0.7583
vn -0.3735 0.3228 -0.8697
vn 0.2714 0.7260 0.6319
vn -0.5687 0.3115 0.7613
vn 0.3750 0.3115 0.8731
vn -0.5686 0.3115 0.7613
vn -0.4116 0.7260 0.5510
vn -0.3750 0.3115 -0.8731
vn -0.6830 0.7260 -0.0809
vn -0.2713 0.7260 -0.6320
vn -0.6829 0.7260 -0.0809
vn -0.9436 0.3115 -0.1118
vn 0.4115 0.7260 -0.5510
vn 0.9436 0.3115 0.1118
vn 0.5687 0.3115 -0.7613
vn 0.4116 0.7260 -0.5510
vn 0.6830 0.7260 0.0810
vn 0.6829 0.7260 0.0809
vn 0.6830 0.7260 0.0809
vn 0.2713 0.7260 0.6320
vn 0.6830 0.7259 0.0810
vn -0.4115 0.7260 0.5510
vn 0.2714 0.7259 0.6320
vn -0.4116 0.7259 0.5510
vn -0.6830 0.7259 -0.0810
vn 0.4116 0.7259 -0.5510
vn -0.2714 0.7259 -0.6320
vn -0.3750 0.3116 -0.8731
vn 0.4115 0.7260 -0.5509
vn -0.3749 0.3115 -0.8731
vn -0.2714 0.7260 -0.6319
vn -0.6830 0.7260 -0.0810
vn 0.7583 0.3228 0.5664
vn -0.1114 0.3228 0.9399
vn 0.8697 0.3228 -0.3735
vn -0.8697 0.3228 0.3735
vn -0.7583 0.3228 -0.5664
vn 0.1114 0.3228 -0.9399
vn -0.5162 0.5060 0.6910
vn -0.8565 0.5060 -0.1015
vn -0.8192 0.4530 0.3518
vn -0.8566 0.5060 -0.1015
vn 0.8192 -0.4530 -0.3518
vn 0.8565 -0.5060 0.1015
vn 0.5162 -0.5060 -0.6910
vn 0.1049 0.4530 -0.8853
vn 0.5162 0.5061 -0.6910
vn 0.5162 0.5060 -0.6910
vn -0.3404 0.5060 -0.7925
vn -0.5162 -0.5060 0.6910
vn -0.1049 -0.4530 0.8853
vn 0.3404 -0.5060 0.7925
vn -0.1049 -0.4529 0.8853
vn -0.7143 0.4530 -0.5335
vn 0.7143 -0.4530 0.5335
vn 0.3403 0.5060 0.7925
vn -0.1049 0.4530 0.8853
vn 0.3404 0.5060 0.7925
vn -0.3403 -0.5060 -0.7925
vn 0.1049 -0.4530 -0.8853
vn -0.3404 -0.5060 -0.7925
vn 0.8565 0.5060 0.1015
vn 0.8192 0.4530 -0.3518
vn -0.8192 -0.4530 0.3518
vn -0.8565 -0.5060 -0.1015
vn 0.7143 0.4529 0.5335
vn 0.7143 0.4530 0.5335
vn 0.3403 0.5061 0.7925
vn -0.7143 -0.4530 -0.5335
vn 0.1015 0.5060 -0.8565
vn 0.7925 0.5061 -0.3403
vn 0.5335 0.4530 -0.7143
vn 0.7925 0.5060 -0.3404
vn -0.5335 -0.4530 0.7143
vn -0.7925 -0.5060 0.3404
vn -0.1015 -0.5060 0.8565
vn -0.7926 -0.5060 0.3404
vn -0.7925 -0.5060 0.3403
vn -0.1015 -0.5061 0.8565
vn 0.6910 0.5060 0.5162
vn 0.3518 0.4529 0.8192
vn 0.3518 0.4530 0.8192
vn -0.1015 0.5061 0.8565
vn -0.1015 0.5060 0.8565
vn -0.6910 -0.5060 -0.5162
vn -0.3518 -0.4529 -0.8192
vn 0.1015 -0.5060 -0.8565
vn -0.3518 -0.4530 -0.8192
vn -0.7925 0.5060 0.3404
vn -0.6910 0.5060 -0.5162
vn -0.8853 0.4530 -0.1049
vn 0.8853 -0.4530 0.1049
vn 0.6910 -0.5060 0.5162
vn 0.7925 -0.5060 -0.3404
vn 0.7925 -0.5060 -0.3403
vn -0.3518 0.4530 -0.8192
vn 0.3518 -0.4529 0.8192
vn 0.3518 -0.4530 0.8192
vn 0.6910 -0.5061 0.5162
vn -0.5335 0.4530 0.7143
vn -0.7925 0.5060 0.3403
vn 0.5335 -0.4530 -0.7143
vn 0.8853 0.4530 0.1049
vn -0.8853 -0.4530 -0.1049
vn 0.1049 0.4529 -0.8853
vn -0.3403 0.5060 -0.7925
vn 0.3403 -0.5060 0.7925
vn 0.3403 -0.5061 0.7925
vn -0.3404 0.5060 -0.7926
vn 0.7143 -0.4529 0.5335
vn 0.8566 -0.5060 0.1015
vn 0.5162 -0.5061 -0.6910
vn 0.8192 0.4529 -0.3518
vn -0.8192 -0.4529 0.3518
vn -0.5162 0.5061 0.6910
vt 0.593750 0.025000
vt 0.593750 0.104996
vt 0.593750 0.225000
vt 0.093750 0.475000
vt 0.093750 0.275000
vt 0.093750 0.425000
vt 0.093750 0.348778
vt 0.093750 0.338765
vt 0.093750 0.344099
vt 0.093750 0.375000
vt 0.093750 0.325000
s 0
usemtl colormap.002
f 3/1/1 2/1/1 1/1/1
f 2/1/1 3/1/1 4/1/1
f 4/1/1 3/1/1 5/1/1
f 4/1/1 5/1/1 6/1/1
f 6/1/1 5/1/1 7/1/1
f 6/1/1 7/1/1 8/1/1
f 9/2/2 1/1/3 2/1/4
f 1/1/3 9/2/5 10/2/6
f 11/2/7 1/1/8 10/2/9
f 1/1/8 11/2/7 3/1/10
f 12/2/11 2/1/4 4/1/12
f 2/1/4 12/2/13 9/2/5
f 13/2/14 4/1/15 6/1/16
f 4/1/15 13/2/17 12/2/18
f 7/1/19 14/2/20 8/1/21
f 14/2/20 7/1/19 15/2/22
f 11/2/23 5/1/24 3/1/10
f 5/1/24 11/2/25 16/2/26
f 8/1/27 13/2/28 6/1/16
f 13/2/17 8/1/27 14/2/29
f 7/1/19 16/2/30 15/2/31
f 16/2/26 7/1/19 5/1/24
f 14/2/32 18/3/33 17/3/34
f 18/3/35 14/2/32 15/2/36
f 16/2/37 18/3/38 15/2/39
f 18/3/40 16/2/41 19/3/42
f 21/3/43 9/2/44 20/3/45
f 9/2/44 21/3/43 10/2/46
f 22/3/47 12/2/48 13/2/49
f 12/2/48 22/3/50 23/3/51
f 21/3/52 11/2/53 10/2/54
f 11/2/53 21/3/55 24/3/56
f 13/2/57 17/3/58 22/3/59
f 17/3/60 13/2/57 14/2/61
f 20/3/62 12/2/63 23/3/64
f 12/2/65 20/3/66 9/2/67
f 24/3/68 16/2/41 11/2/69
f 16/2/70 24/3/71 19/3/72
f 27/4/73 26/4/73 25/4/73
f 26/4/73 27/4/73 28/4/73
f 26/4/73 28/4/73 29/4/73
f 29/4/73 28/4/73 30/4/73
f 29/4/73 30/4/73 31/4/73
f 31/4/73 30/4/73 32/4/73
f 35/5/1 34/5/1 33/5/1
f 34/5/1 35/5/1 36/5/1
f 34/5/1 36/5/1 37/5/1
f 37/5/1 36/5/1 38/5/1
f 37/5/1 38/5/1 39/5/1
f 39/5/1 38/5/1 40/5/1
f 27/4/74 33/5/75 34/5/74
f 33/5/76 27/4/74 25/4/76
f 29/4/77 38/5/78 36/5/77
f 38/5/79 29/4/80 31/4/81
f 40/5/82 31/4/79 32/4/83
f 31/4/79 40/5/82 38/5/79
f 28/4/84 34/5/85 37/5/86
f 34/5/85 28/4/84 27/4/87
f 26/4/88 36/5/89 35/5/88
f 36/5/77 26/4/88 29/4/90
f 30/4/91 37/5/92 39/5/91
f 37/5/86 30/4/91 28/4/86
f 26/4/93 33/5/94 25/4/95
f 33/5/75 26/4/93 35/5/93
f 40/5/96 30/4/97 39/5/97
f 30/4/97 40/5/83 32/4/96
f 43/6/98 42/7/99 41/7/98
f 42/7/99 43/6/98 44/6/99
f 47/6/100 46/7/101 45/7/100
f 46/7/101 47/6/100 48/6/101
f 50/6/102 45/7/100 49/7/102
f 45/7/100 50/6/102 47/6/100
f 48/6/101 41/7/98 46/7/101
f 41/7/98 48/6/101 43/6/98
f 52/7/103 44/6/99 51/6/103
f 44/6/99 52/7/103 42/7/99
f 52/7/103 50/6/102 49/7/102
f 50/6/102 52/7/103 51/6/103
f 41/7/1 45/7/1 46/7/1
f 45/7/1 41/7/1 42/7/1
f 45/7/1 42/7/1 49/7/1
f 49/7/1 42/7/1 52/7/1
f 55/6/104 54/8/105 53/8/106
f 54/8/107 55/6/104 56/6/108
f 59/8/109 58/6/110 57/6/111
f 58/6/112 59/8/109 60/8/113
f 63/6/114 62/8/115 61/8/116
f 62/8/115 63/6/117 64/6/118
f 64/6/119 53/8/106 62/8/115
f 53/8/106 64/6/120 55/6/121
f 64/6/122 56/6/123 55/6/124
f 56/6/125 64/6/122 58/6/126
f 58/6/126 64/6/122 63/6/127
f 58/6/126 63/6/127 57/6/128
f 59/8/129 63/6/117 61/8/116
f 63/6/130 59/8/131 57/6/132
f 54/8/1 62/8/1 53/8/1
f 62/8/1 54/8/1 60/8/1
f 62/8/1 60/8/1 61/8/1
f 61/8/1 60/8/1 59/8/1
f 56/6/123 60/8/113 54/8/105
f 60/8/113 56/6/123 58/6/133
f 67/6/134 66/9/135 65/9/134
f 66/9/135 67/6/134 68/6/135
f 70/6/136 65/9/134 69/9/136
f 65/9/134 70/6/136 67/6/134
f 68/6/135 71/9/137 66/9/135
f 71/9/137 68/6/135 72/6/137
f 72/6/137 73/9/138 71/9/137
f 73/9/138 72/6/137 74/6/138
f 71/9/1 65/9/1 66/9/1
f 65/9/1 71/9/1 69/9/1
f 69/9/1 71/9/1 73/9/1
f 69/9/1 73/9/1 75/9/1
f 76/6/139 69/9/136 75/9/139
f 69/9/136 76/6/139 70/6/136
f 73/9/138 76/6/139 75/9/139
f 76/6/139 73/9/138 74/6/138
f 79/10/140 78/10/141 77/11/142
f 78/10/141 79/10/140 41/6/140
f 78/10/143 41/6/140 42/6/141
f 77/11/144 78/10/145 79/10/146
f 41/6/146 79/10/146 78/10/145
f 42/6/145 41/6/146 78/10/145
f 81/11/147 49/6/148 80/10/149
f 49/6/149 81/11/147 52/6/150
f 52/6/150 81/11/147 82/10/150
f 80/10/151 49/6/151 81/11/152
f 52/6/153 81/11/152 49/6/151
f 82/10/153 81/11/154 52/6/153
f 82/10/150 42/6/141 52/6/150
f 42/6/143 82/10/150 83/11/155
f 42/6/141 83/11/155 78/10/141
f 52/6/153 42/6/145 82/10/153
f 83/11/156 82/10/153 42/6/145
f 78/10/145 83/11/156 42/6/145
f 46/6/157 85/11/158 84/10/159
f 85/11/158 46/6/159 41/6/140
f 85/11/158 41/6/140 79/10/140
f 84/10/160 85/11/161 46/6/160
f 41/6/146 46/6/162 85/11/161
f 79/10/146 41/6/146 85/11/161
f 80/10/149 87/10/163 86/11/164
f 87/10/163 80/10/149 49/6/149
f 87/10/163 49/6/149 45/6/163
f 86/11/165 87/10/166 80/10/151
f 49/6/151 80/10/151 87/10/166
f 45/6/166 49/6/151 87/10/166
f 45/6/163 88/11/167 87/10/163
f 88/11/168 45/6/163 46/6/157
f 88/11/168 46/6/169 84/10/159
f 87/10/166 88/11/170 45/6/166
f 46/6/162 45/6/166 88/11/170
f 84/10/162 46/6/162 88/11/170
f 91/10/171 90/10/172 89/11/173
f 90/10/174 91/10/171 75/6/171
f 90/10/174 75/6/171 69/6/174
f 89/11/175 90/10/176 91/10/177
f 75/6/177 91/10/177 90/10/178
f 69/6/179 75/6/180 90/10/179
f 65/6/181 93/11/182 92/10/181
f 93/11/183 65/6/181 66/6/184
f 93/11/183 66/6/184 94/10/185
f 92/10/186 93/11/187 65/6/186
f 66/6/188 65/6/186 93/11/189
f 94/10/188 66/6/188 93/11/189
f 97/10/190 96/10/191 95/11/192
f 96/10/191 97/10/190 71/6/190
f 96/10/191 71/6/190 73/6/191
f 95/11/193 96/10/194 97/10/195
f 71/6/196 97/10/195 96/10/194
f 73/6/194 71/6/196 96/10/194
f 98/11/197 75/6/171 91/10/171
f 75/6/171 98/11/197 73/6/191
f 73/6/191 98/11/197 96/10/191
f 91/10/177 75/6/177 98/11/198
f 73/6/194 98/11/199 75/6/177
f 96/10/194 98/11/199 73/6/200
f 94/10/185 97/10/190 99/11/201
f 97/10/202 94/10/185 66/6/185
f 97/10/190 66/6/185 71/6/190
f 99/11/203 97/10/195 94/10/188
f 66/6/188 94/10/188 97/10/195
f 71/6/195 66/6/188 97/10/195
f 90/10/174 92/10/181 100/11/204
f 92/10/181 90/10/174 69/6/174
f 92/10/181 69/6/174 65/6/181
f 100/11/205 92/10/186 90/10/176
f 69/6/176 90/10/176 92/10/186
f 65/6/186 69/6/176 92/10/186
f 102/11/206 61/6/149 101/10/149
f 61/6/149 102/11/147 59/6/150
f 59/6/207 102/11/147 103/10/150
f 101/10/151 61/6/151 102/11/154
f 59/6/153 102/11/152 61/6/151
f 103/10/208 102/11/152 59/6/209
f 103/10/210 60/6/141 59/6/150
f 60/6/143 103/10/150 104/11/155
f 60/6/141 104/11/155 105/10/141
f 59/6/153 60/6/145 103/10/153
f 104/11/211 103/10/153 60/6/145
f 105/10/145 104/11/156 60/6/145
f 62/6/163 107/11/168 106/10/163
f 107/11/168 62/6/163 53/6/157
f 107/11/168 53/6/159 108/10/159
f 106/10/166 107/11/170 62/6/166
f 53/6/162 62/6/166 107/11/170
f 108/10/162 53/6/162 107/11/170
f 110/10/140 105/10/141 109/11/142
f 105/10/141 110/10/140 54/6/140
f 105/10/141 54/6/140 60/6/141
f 109/11/144 105/10/145 110/10/146
f 54/6/146 110/10/146 105/10/212
f 60/6/145 54/6/213 105/10/145
f 101/10/149 106/10/163 111/11/214
f 106/10/163 101/10/149 61/6/149
f 106/10/163 61/6/149 62/6/163
f 111/11/215 106/10/166 101/10/151
f 61/6/151 101/10/151 106/10/166
f 62/6/166 61/6/151 106/10/166
f 53/6/157 112/11/158 108/10/159
f 112/11/158 53/6/159 54/6/140
f 112/11/158 54/6/216 110/10/140
f 108/10/160 112/11/161 53/6/160
f 54/6/146 53/6/162 112/11/161
f 110/10/146 54/6/146 112/11/161
f 3/1/1 2/1/1 1/1/1
f 2/1/1 3/1/1 4/1/1
f 4/1/1 3/1/1 5/1/1
f 4/1/1 5/1/1 6/1/1
f 6/1/1 5/1/1 7/1/1
f 6/1/1 7/1/1 8/1/1
f 9/2/2 1/1/3 2/1/4
f 1/1/3 9/2/5 10/2/6
f 11/2/7 1/1/8 10/2/9
f 1/1/8 11/2/7 3/1/10
f 12/2/11 2/1/4 4/1/12
f 2/1/4 12/2/13 9/2/5
f 13/2/14 4/1/15 6/1/16
f 4/1/15 13/2/17 12/2/18
f 7/1/19 14/2/20 8/1/21
f 14/2/20 7/1/19 15/2/22
f 11/2/23 5/1/24 3/1/10
f 5/1/24 11/2/25 16/2/26
f 8/1/27 13/2/28 6/1/16
f 13/2/17 8/1/27 14/2/29
f 7/1/19 16/2/30 15/2/31
f 16/2/26 7/1/19 5/1/24
f 14/2/32 18/3/33 17/3/34
f 18/3/35 14/2/32 15/2/36
f 16/2/37 18/3/38 15/2/39
f 18/3/40 16/2/41 19/3/42
f 21/3/43 9/2/44 20/3/45
f 9/2/44 21/3/43 10/2/46
f 22/3/47 12/2/48 13/2/49
f 12/2/48 22/3/50 23/3/51
f 21/3/52 11/2/53 10/2/54
f 11/2/53 21/3/55 24/3/56
f 13/2/57 17/3/58 22/3/59
f 17/3/60 13/2/57 14/2/61
f 20/3/62 12/2/63 23/3/64
f 12/2/65 20/3/66 9/2/67
f 24/3/68 16/2/41 11/2/69
f 16/2/70 24/3/71 19/3/72
f 27/4/73 26/4/73 25/4/73
f 26/4/73 27/4/73 28/4/73
f 26/4/73 28/4/73 29/4/73
f 29/4/73 28/4/73 30/4/73
f 29/4/73 30/4/73 31/4/73
f 31/4/73 30/4/73 32/4/73
f 35/5/1 34/5/1 33/5/1
f 34/5/1 35/5/1 36/5/1
f 34/5/1 36/5/1 37/5/1
f 37/5/1 36/5/1 38/5/1
f 37/5/1 38/5/1 39/5/1
f 39/5/1 38/5/1 40/5/1
f 27/4/74 33/5/75 34/5/74
f 33/5/76 27/4/74 25/4/76
f 29/4/77 38/5/78 36/5/77
f 38/5/79 29/4/80 31/4/81
f 40/5/82 31/4/79 32/4/83
f 31/4/79 40/5/82 38/5/79
f 28/4/84 34/5/85 37/5/86
f 34/5/85 28/4/84 27/4/87
f 26/4/88 36/5/89 35/5/88
f 36/5/77 26/4/88 29/4/90
f 30/4/91 37/5/92 39/5/91
f 37/5/86 30/4/91 28/4/86
f 26/4/93 33/5/94 25/4/95
f 33/5/75 26/4/93 35/5/93
f 40/5/96 30/4/97 39/5/97
f 30/4/97 40/5/83 32/4/96
f 43/6/98 42/7/99 41/7/98
f 42/7/99 43/6/98 44/6/99
f 47/6/100 46/7/101 45/7/100
f 46/7/101 47/6/100 48/6/101
f 50/6/102 45/7/100 49/7/102
f 45/7/100 50/6/102 47/6/100
f 48/6/101 41/7/98 46/7/101
f 41/7/98 48/6/101 43/6/98
f 52/7/103 44/6/99 51/6/103
f 44/6/99 52/7/103 42/7/99
f 52/7/103 50/6/102 49/7/102
f 50/6/102 52/7/103 51/6/103
f 41/7/1 45/7/1 46/7/1
f 45/7/1 41/7/1 42/7/1
f 45/7/1 42/7/1 49/7/1
f 49/7/1 42/7/1 52/7/1
f 55/6/104 54/8/105 53/8/106
f 54/8/107 55/6/104 56/6/108
f 59/8/109 58/6/110 57/6/111
f 58/6/112 59/8/109 60/8/113
f 63/6/114 62/8/115 61/8/116
f 62/8/115 63/6/117 64/6/118
f 64/6/119 53/8/106 62/8/115
f 53/8/106 64/6/120 55/6/121
f 64/6/122 56/6/123 55/6/124
f 56/6/125 64/6/122 58/6/126
f 58/6/126 64/6/122 63/6/127
f 58/6/126 63/6/127 57/6/128
f 59/8/129 63/6/117 61/8/116
f 63/6/130 59/8/131 57/6/132
f 54/8/1 62/8/1 53/8/1
f 62/8/1 54/8/1 60/8/1
f 62/8/1 60/8/1 61/8/1
f 61/8/1 60/8/1 59/8/1
f 56/6/123 60/8/113 54/8/105
f 60/8/113 56/6/123 58/6/133
f 67/6/134 66/9/135 65/9/134
f 66/9/135 67/6/134 68/6/135
f 70/6/136 65/9/134 69/9/136
f 65/9/134 70/6/136 67/6/134
f 68/6/135 71/9/137 66/9/135
f 71/9/137 68/6/135 72/6/137
f 72/6/137 73/9/138 71/9/137
f 73/9/138 72/6/137 74/6/138
f 71/9/1 65/9/1 66/9/1
f 65/9/1 71/9/1 69/9/1
f 69/9/1 71/9/1 73/9/1
f 69/9/1 73/9/1 75/9/1
f 76/6/139 69/9/136 75/9/139
f 69/9/136 76/6/139 70/6/136
f 73/9/138 76/6/139 75/9/139
f 76/6/139 73/9/138 74/6/138
f 79/10/140 78/10/141 77/11/142
f 78/10/141 79/10/140 41/6/140
f 78/10/143 41/6/140 42/6/141
f 77/11/144 78/10/145 79/10/146
f 41/6/146 79/10/146 78/10/145
f 42/6/145 41/6/146 78/10/145
f 81/11/147 49/6/148 80/10/149
f 49/6/149 81/11/147 52/6/150
f 52/6/150 81/11/147 82/10/150
f 80/10/151 49/6/151 81/11/152
f 52/6/153 81/11/152 49/6/151
f 82/10/153 81/11/154 52/6/153
f 82/10/150 42/6/141 52/6/150
f 42/6/143 82/10/150 83/11/155
f 42/6/141 83/11/155 78/10/141
f 52/6/153 42/6/145 82/10/153
f 83/11/156 82/10/153 42/6/145
f 78/10/145 83/11/156 42/6/145
f 46/6/157 85/11/158 84/10/159
f 85/11/158 46/6/159 41/6/140
f 85/11/158 41/6/140 79/10/140
f 84/10/160 85/11/161 46/6/160
f 41/6/146 46/6/162 85/11/161
f 79/10/146 41/6/146 85/11/161
f 80/10/149 87/10/163 86/11/164
f 87/10/163 80/10/149 49/6/149
f 87/10/163 49/6/149 45/6/163
f 86/11/165 87/10/166 80/10/151
f 49/6/151 80/10/151 87/10/166
f 45/6/166 49/6/151 87/10/166
f 45/6/163 88/11/167 87/10/163
f 88/11/168 45/6/163 46/6/157
f 88/11/168 46/6/169 84/10/159
f 87/10/166 88/11/170 45/6/166
f 46/6/162 45/6/166 88/11/170
f 84/10/162 46/6/162 88/11/170
f 91/10/171 90/10/172 89/11/173
f 90/10/174 91/10/171 75/6/171
f 90/10/174 75/6/171 69/6/174
f 89/11/175 90/10/176 91/10/177
f 75/6/177 91/10/177 90/10/178
f 69/6/179 75/6/180 90/10/179
f 65/6/181 93/11/182 92/10/181
f 93/11/183 65/6/181 66/6/184
f 93/11/183 66/6/184 94/10/185
f 92/10/186 93/11/187 65/6/186
f 66/6/188 65/6/186 93/11/189
f 94/10/188 66/6/188 93/11/189
f 97/10/190 96/10/191 95/11/192
f 96/10/191 97/10/190 71/6/190
f 96/10/191 71/6/190 73/6/191
f 95/11/193 96/10/194 97/10/195
f 71/6/196 97/10/195 96/10/194
f 73/6/194 71/6/196 96/10/194
f 98/11/197 75/6/171 91/10/171
f 75/6/171 98/11/197 73/6/191
f 73/6/191 98/11/197 96/10/191
f 91/10/177 75/6/177 98/11/198
f 73/6/194 98/11/199 75/6/177
f 96/10/194 98/11/199 73/6/200
f 94/10/185 97/10/190 99/11/201
f 97/10/202 94/10/185 66/6/185
f 97/10/190 66/6/185 71/6/190
f 99/11/203 97/10/195 94/10/188
f 66/6/188 94/10/188 97/10/195
f 71/6/195 66/6/188 97/10/195
f 90/10/174 92/10/181 100/11/204
f 92/10/181 90/10/174 69/6/174
f 92/10/181 69/6/174 65/6/181
f 100/11/205 92/10/186 90/10/176
f 69/6/176 90/10/176 92/10/186
f 65/6/186 69/6/176 92/10/186
f 102/11/206 61/6/149 101/10/149
f 61/6/149 102/11/147 59/6/150
f 59/6/207 102/11/147 103/10/150
f 101/10/151 61/6/151 102/11/154
f 59/6/153 102/11/152 61/6/151
f 103/10/208 102/11/152 59/6/209
f 103/10/210 60/6/141 59/6/150
f 60/6/143 103/10/150 104/11/155
f 60/6/141 104/11/155 105/10/141
f 59/6/153 60/6/145 103/10/153
f 104/11/211 103/10/153 60/6/145
f 105/10/145 104/11/156 60/6/145
f 62/6/163 107/11/168 106/10/163
f 107/11/168 62/6/163 53/6/157
f 107/11/168 53/6/159 108/10/159
f 106/10/166 107/11/170 62/6/166
f 53/6/162 62/6/166 107/11/170
f 108/10/162 53/6/162 107/11/170
f 110/10/140 105/10/141 109/11/142
f 105/10/141 110/10/140 54/6/140
f 105/10/141 54/6/140 60/6/141
f 109/11/144 105/10/145 110/10/146
f 54/6/146 110/10/146 105/10/212
f 60/6/145 54/6/213 105/10/145
f 101/10/149 106/10/163 111/11/214
f 106/10/163 101/10/149 61/6/149
f 106/10/163 61/6/149 62/6/163
f 111/11/215 106/10/166 101/10/151
f 61/6/151 101/10/151 106/10/166
f 62/6/166 61/6/151 106/10/166
f 53/6/157 112/11/158 108/10/159
f 112/11/158 53/6/159 54/6/140
f 112/11/158 54/6/216 110/10/140
f 108/10/160 112/11/161 53/6/160
f 54/6/146 53/6/162 112/11/161
f 110/10/146 54/6/146 112/11/161
