# Blender 4.1.1
# www.blender.org
mtllib tree.027.mtl
o tree.027
v -2.535458 -4.675250 6.352861
v -2.376309 -4.675250 6.245320
v -2.668804 -4.675250 6.327057
v -2.350506 -4.675250 6.111974
v -2.776345 -4.675250 6.167908
v -2.458047 -4.675250 5.952825
v -2.750542 -4.675250 6.034563
v -2.591393 -4.675250 5.927021
v -2.469867 -4.327483 6.192630
v -2.549442 -4.327483 6.246401
v -2.616115 -4.327483 6.233499
v -2.456965 -4.327483 6.125957
v -2.510736 -4.327483 6.046383
v -2.577409 -4.327483 6.033481
v -2.656984 -4.327483 6.087252
v -2.669885 -4.327483 6.153925
v -2.580905 -3.805793 6.006866
v -2.680373 -3.805793 6.074080
v -2.696500 -3.805793 6.157421
v -2.446478 -3.805793 6.205802
v -2.545946 -3.805793 6.273016
v -2.497564 -3.805793 6.022994
v -2.430351 -3.805793 6.122462
v -2.629287 -3.805793 6.256889
v -2.435652 -4.203316 6.245186
v -2.509488 -4.203316 6.260273
v -2.394109 -4.203316 6.182308
v -2.409196 -4.203316 6.108471
v -2.572367 -4.203316 6.218731
v -2.472074 -4.203316 6.066929
v -2.587453 -4.203316 6.144894
v -2.545911 -4.203316 6.082016
v -2.404425 -4.329511 6.291398
v -2.339353 -4.329511 6.192904
v -2.520084 -4.329511 6.315030
v -2.618578 -4.329511 6.249957
v -2.362985 -4.329511 6.077245
v -2.642210 -4.329511 6.134298
v -2.461478 -4.329511 6.012172
v -2.577137 -4.329511 6.035805
v -2.777969 -3.805793 6.562329
v -3.045785 -3.805793 6.165993
v -2.692145 -3.230796 6.385989
v -2.850157 -3.230796 6.152148
v -2.091493 -3.805793 6.098458
v -2.300823 -3.805793 6.528563
v -2.287121 -3.230796 6.112303
v -2.410626 -3.230796 6.366066
v -2.359309 -3.805793 5.702121
v -2.445133 -3.230796 5.878462
v -2.726652 -3.230796 5.898386
v -2.836456 -3.805793 5.735888
v -2.414216 -2.613048 6.360754
v -2.689339 -2.613048 6.380224
v -2.533145 -1.965096 6.184752
v -2.596381 -1.965096 6.189227
v -2.604133 -1.965096 6.079699
v -2.631875 -1.965096 6.136701
v -2.723062 -2.613048 5.903697
v -2.843762 -2.613048 6.151696
v -2.447939 -2.613048 5.884227
v -2.293516 -2.613048 6.112755
v -2.540896 -1.965096 6.075224
v -2.505403 -1.965096 6.127750
v -2.218961 -3.230796 6.302412
v -2.541186 -3.230796 6.520149
v -2.408413 -2.613048 6.210207
v -2.556060 -2.613048 6.309977
v -2.246414 -3.230796 5.914489
v -2.420992 -2.613048 6.032456
v -2.890864 -3.230796 6.349962
v -2.716286 -2.613048 6.231995
v -2.918317 -3.230796 5.962039
v -2.728865 -2.613048 6.054244
v -2.596092 -3.230796 5.744302
v -2.581218 -2.613048 5.954474
v -2.987389 -3.985170 6.415187
v -3.098271 -3.895481 6.169707
v -2.800995 -3.895481 6.609642
v -2.336283 -3.895481 5.654810
v -2.604316 -3.985170 5.628097
v -2.865915 -3.895481 5.692292
v -3.023066 -3.985170 5.911058
v -2.271363 -3.895481 6.572159
v -2.532962 -3.985170 6.636355
v -2.149889 -3.985170 5.849264
v -2.039007 -3.895481 6.094744
v -2.114212 -3.985170 6.353393
v -2.388828 -3.376631 5.762773
v -2.210969 -3.303713 5.890538
v -2.599112 -3.303713 5.701630
v -2.180496 -3.303713 6.321133
v -2.338589 -3.376631 6.472673
v -2.538166 -3.303713 6.562820
v -2.978500 -3.376631 6.161231
v -2.956782 -3.303713 5.943318
v -2.926309 -3.303713 6.373914
v -2.798689 -3.376631 5.791779
v -2.748450 -3.376631 6.501679
v -2.158778 -3.376631 6.103220
v -2.434662 -2.664763 5.856946
v -2.589210 -2.716478 5.841544
v -2.740049 -2.664763 5.878559
v -2.830662 -2.716478 6.004700
v -2.874026 -2.664763 6.153837
v -2.263252 -2.664763 6.110614
v -2.306616 -2.716478 6.259751
v -2.397229 -2.664763 6.385892
v -2.810091 -2.716478 6.295382
v -2.702616 -2.664763 6.407504
v -2.327187 -2.716478 5.969069
v -2.548068 -2.716478 6.422907
vn -0.0000 -1.0000 -0.0000
vn 0.7944 0.2942 0.5314
vn 0.1870 0.2944 0.9372
vn 0.7998 0.2944 0.5231
vn 0.1967 0.2942 0.9353
vn -0.5313 0.2942 0.7944
vn 0.1966 0.2942 0.9353
vn -0.5313 0.2943 0.7944
vn -0.5231 0.2944 0.7998
vn 0.9353 0.2942 -0.1966
vn 0.9372 0.2944 -0.1870
vn 0.7944 0.2942 0.5313
vn 0.5314 0.2942 -0.7944
vn 0.5232 0.2944 -0.7998
vn 0.9353 0.2942 -0.1967
vn -0.7998 0.2944 -0.5232
vn -0.1967 0.2942 -0.9353
vn -0.1870 0.2944 -0.9372
vn -0.7944 0.2942 -0.5314
vn -0.5314 0.2942 0.7944
vn -0.9372 0.2944 0.1870
vn -0.9353 0.2942 0.1967
vn 0.5313 0.2942 -0.7944
vn 0.5231 0.2944 -0.7998
vn -0.1966 0.2942 -0.9353
vn -0.7998 0.2944 -0.5231
vn -0.9353 0.2942 0.1966
vn -0.7944 0.2942 -0.5313
vn -0.2008 -0.0513 -0.9783
vn -0.8337 -0.0512 -0.5498
vn -0.1991 -0.0513 -0.9786
vn -0.8337 -0.0513 -0.5498
vn -0.8327 -0.0513 -0.5513
vn -0.9783 -0.0512 0.2008
vn -0.8328 -0.0512 -0.5512
vn -0.9783 -0.0513 0.2008
vn -0.9786 -0.0512 0.1991
vn 0.1991 -0.0512 0.9786
vn 0.8327 -0.0513 0.5513
vn 0.8337 -0.0513 0.5498
vn 0.2008 -0.0513 0.9783
vn 0.5498 -0.0513 -0.8337
vn 0.9783 -0.0513 -0.2009
vn 0.5513 -0.0513 -0.8327
vn 0.5498 -0.0512 -0.8337
vn 0.9786 -0.0513 -0.1991
vn 0.1991 -0.0513 0.9786
vn -0.5513 -0.0513 0.8328
vn -0.5512 -0.0513 0.8328
vn -0.5498 -0.0513 0.8337
vn 0.5512 -0.0513 -0.8328
vn -0.1991 -0.0512 -0.9786
vn -0.1990 -0.0513 -0.9786
vn 0.5513 -0.0513 -0.8328
vn 0.9783 -0.0513 -0.2008
vn 0.9786 -0.0512 -0.1991
vn 0.9783 -0.0512 -0.2008
vn 0.8328 -0.0512 0.5513
vn -0.9783 -0.0513 0.2009
vn -0.5513 -0.0513 0.8327
vn -0.5498 -0.0512 0.8337
vn -0.9786 -0.0513 0.1991
vn -0.0000 1.0000 -0.0000
vn 0.8980 0.4042 0.1738
vn 0.5121 0.4042 0.7578
vn 0.5121 0.4043 0.7578
vn -0.7579 0.4042 0.5121
vn -0.8980 0.4042 -0.1737
vn -0.8980 0.4042 -0.1738
vn -0.8980 0.4043 -0.1737
vn -0.5121 0.4042 -0.7578
vn -0.5121 0.4043 -0.7578
vn 0.7579 0.4042 -0.5121
vn 0.8980 0.4042 0.1737
vn -0.1738 0.4042 0.8980
vn -0.7578 0.4042 0.5121
vn -0.7578 0.4043 0.5121
vn 0.1738 0.4042 -0.8980
vn 0.7578 0.4042 -0.5121
vn -0.1737 0.4042 0.8980
vn 0.5121 0.4043 0.7579
vn 0.5121 0.4042 0.7579
vn -0.5121 0.4042 -0.7579
vn 0.1737 0.4042 -0.8980
vn -0.5121 0.4043 -0.7579
vn -0.4142 0.3228 0.8510
vn -0.9441 0.3228 0.0668
vn 0.9441 0.3228 -0.0668
vn 0.5299 0.3228 0.7842
vn 0.4142 0.3228 -0.8510
vn -0.5299 0.3228 -0.7842
vn 0.3851 0.7260 0.5698
vn -0.4158 0.3115 0.8544
vn 0.5320 0.3115 0.7874
vn -0.3010 0.7260 0.6184
vn -0.5320 0.3115 -0.7873
vn -0.6860 0.7260 0.0486
vn -0.3850 0.7260 -0.5699
vn -0.9479 0.3115 0.0671
vn 0.3009 0.7260 -0.6184
vn 0.9479 0.3115 -0.0671
vn 0.4159 0.3115 -0.8544
vn 0.6860 0.7260 -0.0485
vn 0.6860 0.7260 -0.0486
vn 0.5320 0.3115 0.7873
vn 0.3850 0.7260 0.5699
vn 0.6860 0.7259 -0.0485
vn -0.3009 0.7259 0.6184
vn 0.3850 0.7259 0.5699
vn -0.3010 0.7259 0.6184
vn -0.6860 0.7259 0.0485
vn 0.3010 0.7259 -0.6184
vn 0.3009 0.7259 -0.6184
vn -0.3850 0.7259 -0.5699
vn 0.3010 0.7260 -0.6184
vn 0.4158 0.3115 -0.8544
vn 0.3009 0.7260 -0.6183
vn -0.3850 0.7260 -0.5698
vn -0.3009 0.7260 0.6184
vn -0.4159 0.3115 0.8544
vn -0.6860 0.7260 0.0485
vn 0.8510 0.3228 0.4142
vn 0.0668 0.3228 0.9441
vn 0.7842 0.3228 -0.5299
vn -0.7842 0.3228 0.5299
vn -0.8510 0.3228 -0.4142
vn -0.0668 0.3228 -0.9441
vn -0.3775 0.5060 0.7755
vn -0.8604 0.5060 0.0609
vn -0.7387 0.4530 0.4992
vn 0.7387 -0.4530 -0.4992
vn 0.8604 -0.5060 -0.0609
vn 0.3775 -0.5060 -0.7755
vn -0.0629 0.4530 -0.8893
vn 0.3774 0.5060 -0.7755
vn 0.3775 0.5060 -0.7756
vn -0.4829 0.5060 -0.7147
vn -0.3775 -0.5060 0.7756
vn -0.3775 -0.5060 0.7755
vn 0.0629 -0.4530 0.8893
vn 0.4829 -0.5060 0.7147
vn -0.8016 0.4530 -0.3902
vn -0.8016 0.4530 -0.3901
vn 0.8016 -0.4530 0.3902
vn 0.4829 0.5060 0.7147
vn 0.0629 0.4530 0.8893
vn -0.3774 0.5060 0.7755
vn -0.4829 -0.5060 -0.7147
vn -0.0629 -0.4530 -0.8893
vn -0.4829 -0.5060 -0.7146
vn 0.3775 -0.5060 -0.7756
vn 0.3775 0.5060 -0.7755
vn 0.8604 0.5060 -0.0609
vn 0.7387 0.4530 -0.4992
vn -0.7387 -0.4530 0.4992
vn -0.8604 -0.5060 0.0609
vn 0.8016 0.4530 0.3902
vn 0.8016 0.4530 0.3901
vn 0.4829 0.5060 0.7146
vn -0.8016 -0.4530 -0.3902
vn -0.8016 -0.4530 -0.3901
vn -0.0609 0.5060 -0.8604
vn 0.7147 0.5060 -0.4829
vn 0.3902 0.4530 -0.8016
vn -0.3902 -0.4530 0.8016
vn -0.7147 -0.5060 0.4829
vn 0.0609 -0.5060 0.8604
vn 0.7755 0.5060 0.3775
vn 0.4991 0.4530 0.7387
vn 0.7756 0.5060 0.3775
vn 0.4992 0.4530 0.7387
vn 0.0609 0.5060 0.8604
vn -0.7755 -0.5060 -0.3775
vn -0.4992 -0.4530 -0.7387
vn -0.0609 -0.5060 -0.8604
vn -0.7147 0.5060 0.4829
vn -0.7755 0.5060 -0.3774
vn -0.8893 0.4530 0.0629
vn -0.7756 0.5060 -0.3775
vn 0.8893 -0.4530 -0.0629
vn 0.7756 -0.5060 0.3775
vn 0.7147 -0.5060 -0.4829
vn 0.7146 -0.5060 -0.4829
vn -0.4992 0.4530 -0.7387
vn -0.7755 0.5060 -0.3775
vn 0.4992 -0.4530 0.7387
vn 0.7755 -0.5060 0.3775
vn -0.7146 0.5060 0.4829
vn -0.3901 0.4530 0.8016
vn 0.3901 -0.4530 -0.8016
vn 0.7755 0.5060 0.3774
vn 0.8893 0.4530 -0.0629
vn -0.8893 -0.4530 0.0629
vn -0.7756 -0.5060 -0.3775
vn 0.3774 0.5061 -0.7755
vn -0.4829 0.5060 -0.7146
vn -0.3774 -0.5060 0.7755
vn 0.4829 -0.5060 0.7146
vn 0.4829 0.5061 0.7146
vn -0.3775 0.5060 0.7756
vn -0.3775 0.5061 0.7755
vt 0.593750 0.025000
vt 0.593750 0.104996
vt 0.593750 0.225000
vt 0.093750 0.475000
vt 0.093750 0.275000
vt 0.093750 0.425000
vt 0.093750 0.348778
vt 0.093750 0.338765
vt 0.093750 0.344099
vt 0.093750 0.375000
vt 0.093750 0.325000
s 0
usemtl colormap.002
f 3/1/1 2/1/1 1/1/1
f 2/1/1 3/1/1 4/1/1
f 4/1/1 3/1/1 5/1/1
f 4/1/1 5/1/1 6/1/1
f 6/1/1 5/1/1 7/1/1
f 6/1/1 7/1/1 8/1/1
f 9/2/2 1/1/3 2/1/4
f 1/1/3 9/2/2 10/2/5
f 11/2/6 1/1/3 10/2/7
f 1/1/3 11/2/8 3/1/9
f 12/2/10 2/1/4 4/1/11
f 2/1/4 12/2/10 9/2/12
f 13/2/13 4/1/11 6/1/14
f 4/1/11 13/2/13 12/2/15
f 7/1/16 14/2/17 8/1/18
f 14/2/17 7/1/16 15/2/19
f 11/2/20 5/1/21 3/1/9
f 5/1/21 11/2/20 16/2/22
f 8/1/18 13/2/23 6/1/24
f 13/2/23 8/1/18 14/2/25
f 7/1/26 16/2/27 15/2/28
f 16/2/27 7/1/26 5/1/21
f 14/2/29 18/3/30 17/3/31
f 18/3/32 14/2/29 15/2/33
f 16/2/34 18/3/32 15/2/35
f 18/3/32 16/2/36 19/3/37
f 21/3/38 9/2/39 20/3/40
f 9/2/39 21/3/38 10/2/41
f 22/3/42 12/2/43 13/2/44
f 12/2/43 22/3/45 23/3/46
f 21/3/47 11/2/48 10/2/41
f 11/2/49 21/3/38 24/3/50
f 13/2/51 17/3/52 22/3/42
f 17/3/53 13/2/54 14/2/29
f 20/3/40 12/2/55 23/3/56
f 12/2/57 20/3/40 9/2/58
f 24/3/50 16/2/59 11/2/60
f 16/2/36 24/3/61 19/3/62
f 27/4/63 26/4/63 25/4/63
f 26/4/63 27/4/63 28/4/63
f 26/4/63 28/4/63 29/4/63
f 29/4/63 28/4/63 30/4/63
f 29/4/63 30/4/63 31/4/63
f 31/4/63 30/4/63 32/4/63
f 35/5/1 34/5/1 33/5/1
f 34/5/1 35/5/1 36/5/1
f 34/5/1 36/5/1 37/5/1
f 37/5/1 36/5/1 38/5/1
f 37/5/1 38/5/1 39/5/1
f 39/5/1 38/5/1 40/5/1
f 27/4/64 33/5/65 34/5/64
f 33/5/65 27/4/64 25/4/66
f 29/4/67 38/5/68 36/5/67
f 38/5/69 29/4/67 31/4/70
f 40/5/71 31/4/69 32/4/72
f 31/4/69 40/5/71 38/5/69
f 28/4/73 34/5/64 37/5/73
f 34/5/64 28/4/73 27/4/74
f 26/4/75 36/5/76 35/5/75
f 36/5/76 26/4/75 29/4/77
f 30/4/78 37/5/79 39/5/78
f 37/5/73 30/4/78 28/4/79
f 26/4/80 33/5/81 25/4/82
f 33/5/82 26/4/80 35/5/80
f 40/5/83 30/4/84 39/5/84
f 30/4/84 40/5/85 32/4/83
f 43/6/86 42/7/87 41/7/86
f 42/7/87 43/6/86 44/6/87
f 47/6/88 46/7/89 45/7/88
f 46/7/89 47/6/88 48/6/89
f 50/6/90 45/7/88 49/7/90
f 45/7/88 50/6/90 47/6/88
f 48/6/89 41/7/86 46/7/89
f 41/7/86 48/6/89 43/6/86
f 52/7/91 44/6/87 51/6/91
f 44/6/87 52/7/91 42/7/87
f 52/7/91 50/6/90 49/7/90
f 50/6/90 52/7/91 51/6/91
f 41/7/1 45/7/1 46/7/1
f 45/7/1 41/7/1 42/7/1
f 45/7/1 42/7/1 49/7/1
f 49/7/1 42/7/1 52/7/1
f 55/6/92 54/8/93 53/8/94
f 54/8/93 55/6/92 56/6/95
f 59/8/96 58/6/97 57/6/98
f 58/6/97 59/8/96 60/8/99
f 63/6/100 62/8/101 61/8/102
f 62/8/101 63/6/100 64/6/103
f 64/6/104 53/8/105 62/8/101
f 53/8/105 64/6/104 55/6/106
f 64/6/107 56/6/108 55/6/109
f 56/6/110 64/6/107 58/6/111
f 58/6/111 64/6/107 63/6/112
f 58/6/111 63/6/113 57/6/114
f 59/8/96 63/6/115 61/8/116
f 63/6/117 59/8/96 57/6/118
f 54/8/1 62/8/1 53/8/1
f 62/8/1 54/8/1 60/8/1
f 62/8/1 60/8/1 61/8/1
f 61/8/1 60/8/1 59/8/1
f 56/6/119 60/8/99 54/8/120
f 60/8/99 56/6/119 58/6/121
f 67/6/122 66/9/123 65/9/122
f 66/9/123 67/6/122 68/6/123
f 70/6/124 65/9/122 69/9/124
f 65/9/122 70/6/124 67/6/122
f 68/6/123 71/9/125 66/9/123
f 71/9/125 68/6/123 72/6/125
f 72/6/125 73/9/126 71/9/125
f 73/9/126 72/6/125 74/6/126
f 71/9/1 65/9/1 66/9/1
f 65/9/1 71/9/1 69/9/1
f 69/9/1 71/9/1 73/9/1
f 69/9/1 73/9/1 75/9/1
f 76/6/127 69/9/124 75/9/127
f 69/9/124 76/6/127 70/6/124
f 73/9/126 76/6/127 75/9/127
f 76/6/127 73/9/126 74/6/126
f 79/10/128 78/10/129 77/11/130
f 78/10/129 79/10/128 41/6/128
f 78/10/129 41/6/128 42/6/129
f 77/11/131 78/10/132 79/10/133
f 41/6/133 79/10/133 78/10/132
f 42/6/132 41/6/133 78/10/132
f 81/11/134 49/6/135 80/10/136
f 49/6/135 81/11/134 52/6/137
f 52/6/137 81/11/134 82/10/137
f 80/10/138 49/6/139 81/11/140
f 52/6/141 81/11/140 49/6/138
f 82/10/141 81/11/140 52/6/141
f 82/10/137 42/6/129 52/6/137
f 42/6/129 82/10/137 83/11/142
f 42/6/129 83/11/143 78/10/129
f 52/6/141 42/6/132 82/10/141
f 83/11/144 82/10/141 42/6/132
f 78/10/132 83/11/144 42/6/132
f 46/6/145 85/11/146 84/10/145
f 85/11/146 46/6/145 41/6/147
f 85/11/146 41/6/147 79/10/128
f 84/10/148 85/11/149 46/6/150
f 41/6/151 46/6/148 85/11/149
f 79/10/151 41/6/133 85/11/149
f 80/10/152 87/10/153 86/11/154
f 87/10/153 80/10/152 49/6/152
f 87/10/153 49/6/136 45/6/153
f 86/11/155 87/10/156 80/10/139
f 49/6/139 80/10/139 87/10/156
f 45/6/156 49/6/139 87/10/156
f 45/6/153 88/11/157 87/10/153
f 88/11/158 45/6/153 46/6/159
f 88/11/158 46/6/159 84/10/145
f 87/10/156 88/11/160 45/6/156
f 46/6/148 45/6/156 88/11/161
f 84/10/148 46/6/148 88/11/161
f 91/10/162 90/10/163 89/11/164
f 90/10/163 91/10/162 75/6/162
f 90/10/163 75/6/162 69/6/163
f 89/11/165 90/10/166 91/10/167
f 75/6/167 91/10/167 90/10/166
f 69/6/166 75/6/167 90/10/166
f 65/6/168 93/11/169 92/10/170
f 93/11/171 65/6/170 66/6/172
f 93/11/171 66/6/172 94/10/172
f 92/10/173 93/11/174 65/6/173
f 66/6/175 65/6/173 93/11/174
f 94/10/175 66/6/175 93/11/174
f 97/10/176 96/10/177 95/11/178
f 96/10/179 97/10/176 71/6/176
f 96/10/179 71/6/176 73/6/179
f 95/11/180 96/10/181 97/10/182
f 71/6/182 97/10/182 96/10/181
f 73/6/181 71/6/183 96/10/181
f 98/11/184 75/6/162 91/10/162
f 75/6/162 98/11/184 73/6/179
f 73/6/185 98/11/184 96/10/179
f 91/10/167 75/6/167 98/11/186
f 73/6/187 98/11/186 75/6/167
f 96/10/187 98/11/186 73/6/187
f 94/10/172 97/10/188 99/11/189
f 97/10/176 94/10/172 66/6/172
f 97/10/176 66/6/172 71/6/176
f 99/11/190 97/10/182 94/10/175
f 66/6/175 94/10/175 97/10/182
f 71/6/182 66/6/175 97/10/182
f 90/10/163 92/10/191 100/11/192
f 92/10/170 90/10/163 69/6/163
f 92/10/170 69/6/163 65/6/170
f 100/11/193 92/10/194 90/10/166
f 69/6/166 90/10/166 92/10/194
f 65/6/194 69/6/166 92/10/194
f 102/11/134 61/6/195 101/10/152
f 61/6/135 102/11/134 59/6/137
f 59/6/196 102/11/134 103/10/137
f 101/10/139 61/6/197 102/11/140
f 59/6/141 102/11/140 61/6/138
f 103/10/198 102/11/140 59/6/198
f 103/10/137 60/6/129 59/6/137
f 60/6/129 103/10/137 104/11/142
f 60/6/129 104/11/143 105/10/129
f 59/6/141 60/6/132 103/10/141
f 104/11/144 103/10/141 60/6/132
f 105/10/132 104/11/144 60/6/132
f 62/6/153 107/11/158 106/10/153
f 107/11/157 62/6/153 53/6/159
f 107/11/157 53/6/199 108/10/145
f 106/10/156 107/11/161 62/6/156
f 53/6/148 62/6/156 107/11/160
f 108/10/148 53/6/148 107/11/161
f 110/10/128 105/10/129 109/11/130
f 105/10/129 110/10/200 54/6/200
f 105/10/129 54/6/128 60/6/129
f 109/11/131 105/10/132 110/10/133
f 54/6/133 110/10/133 105/10/132
f 60/6/132 54/6/133 105/10/132
f 101/10/152 106/10/153 111/11/154
f 106/10/153 101/10/152 61/6/152
f 106/10/153 61/6/152 62/6/153
f 111/11/155 106/10/156 101/10/139
f 61/6/139 101/10/139 106/10/156
f 62/6/156 61/6/139 106/10/156
f 53/6/159 112/11/146 108/10/145
f 112/11/146 53/6/145 54/6/147
f 112/11/146 54/6/201 110/10/128
f 108/10/148 112/11/149 53/6/150
f 54/6/151 53/6/148 112/11/149
f 110/10/133 54/6/133 112/11/149
f 3/1/1 2/1/1 1/1/1
f 2/1/1 3/1/1 4/1/1
f 4/1/1 3/1/1 5/1/1
f 4/1/1 5/1/1 6/1/1
f 6/1/1 5/1/1 7/1/1
f 6/1/1 7/1/1 8/1/1
f 9/2/2 1/1/3 2/1/4
f 1/1/3 9/2/2 10/2/5
f 11/2/6 1/1/3 10/2/7
f 1/1/3 11/2/8 3/1/9
f 12/2/10 2/1/4 4/1/11
f 2/1/4 12/2/10 9/2/12
f 13/2/13 4/1/11 6/1/14
f 4/1/11 13/2/13 12/2/15
f 7/1/16 14/2/17 8/1/18
f 14/2/17 7/1/16 15/2/19
f 11/2/20 5/1/21 3/1/9
f 5/1/21 11/2/20 16/2/22
f 8/1/18 13/2/23 6/1/24
f 13/2/23 8/1/18 14/2/25
f 7/1/26 16/2/27 15/2/28
f 16/2/27 7/1/26 5/1/21
f 14/2/29 18/3/30 17/3/31
f 18/3/32 14/2/29 15/2/33
f 16/2/34 18/3/32 15/2/35
f 18/3/32 16/2/36 19/3/37
f 21/3/38 9/2/39 20/3/40
f 9/2/39 21/3/38 10/2/41
f 22/3/42 12/2/43 13/2/44
f 12/2/43 22/3/45 23/3/46
f 21/3/47 11/2/48 10/2/41
f 11/2/49 21/3/38 24/3/50
f 13/2/51 17/3/52 22/3/42
f 17/3/53 13/2/54 14/2/29
f 20/3/40 12/2/55 23/3/56
f 12/2/57 20/3/40 9/2/58
f 24/3/50 16/2/59 11/2/60
f 16/2/36 24/3/61 19/3/62
f 27/4/63 26/4/63 25/4/63
f 26/4/63 27/4/63 28/4/63
f 26/4/63 28/4/63 29/4/63
f 29/4/63 28/4/63 30/4/63
f 29/4/63 30/4/63 31/4/63
f 31/4/63 30/4/63 32/4/63
f 35/5/1 34/5/1 33/5/1
f 34/5/1 35/5/1 36/5/1
f 34/5/1 36/5/1 37/5/1
f 37/5/1 36/5/1 38/5/1
f 37/5/1 38/5/1 39/5/1
f 39/5/1 38/5/1 40/5/1
f 27/4/64 33/5/65 34/5/64
f 33/5/65 27/4/64 25/4/66
f 29/4/67 38/5/68 36/5/67
f 38/5/69 29/4/67 31/4/70
f 40/5/71 31/4/69 32/4/72
f 31/4/69 40/5/71 38/5/69
f 28/4/73 34/5/64 37/5/73
f 34/5/64 28/4/73 27/4/74
f 26/4/75 36/5/76 35/5/75
f 36/5/76 26/4/75 29/4/77
f 30/4/78 37/5/79 39/5/78
f 37/5/73 30/4/78 28/4/79
f 26/4/80 33/5/81 25/4/82
f 33/5/82 26/4/80 35/5/80
f 40/5/83 30/4/84 39/5/84
f 30/4/84 40/5/85 32/4/83
f 43/6/86 42/7/87 41/7/86
f 42/7/87 43/6/86 44/6/87
f 47/6/88 46/7/89 45/7/88
f 46/7/89 47/6/88 48/6/89
f 50/6/90 45/7/88 49/7/90
f 45/7/88 50/6/90 47/6/88
f 48/6/89 41/7/86 46/7/89
f 41/7/86 48/6/89 43/6/86
f 52/7/91 44/6/87 51/6/91
f 44/6/87 52/7/91 42/7/87
f 52/7/91 50/6/90 49/7/90
f 50/6/90 52/7/91 51/6/91
f 41/7/1 45/7/1 46/7/1
f 45/7/1 41/7/1 42/7/1
f 45/7/1 42/7/1 49/7/1
f 49/7/1 42/7/1 52/7/1
f 55/6/92 54/8/93 53/8/94
f 54/8/93 55/6/92 56/6/95
f 59/8/96 58/6/97 57/6/98
f 58/6/97 59/8/96 60/8/99
f 63/6/100 62/8/101 61/8/102
f 62/8/101 63/6/100 64/6/103
f 64/6/104 53/8/105 62/8/101
f 53/8/105 64/6/104 55/6/106
f 64/6/107 56/6/108 55/6/109
f 56/6/110 64/6/107 58/6/111
f 58/6/111 64/6/107 63/6/112
f 58/6/111 63/6/113 57/6/114
f 59/8/96 63/6/115 61/8/116
f 63/6/117 59/8/96 57/6/118
f 54/8/1 62/8/1 53/8/1
f 62/8/1 54/8/1 60/8/1
f 62/8/1 60/8/1 61/8/1
f 61/8/1 60/8/1 59/8/1
f 56/6/119 60/8/99 54/8/120
f 60/8/99 56/6/119 58/6/121
f 67/6/122 66/9/123 65/9/122
f 66/9/123 67/6/122 68/6/123
f 70/6/124 65/9/122 69/9/124
f 65/9/122 70/6/124 67/6/122
f 68/6/123 71/9/125 66/9/123
f 71/9/125 68/6/123 72/6/125
f 72/6/125 73/9/126 71/9/125
f 73/9/126 72/6/125 74/6/126
f 71/9/1 65/9/1 66/9/1
f 65/9/1 71/9/1 69/9/1
f 69/9/1 71/9/1 73/9/1
f 69/9/1 73/9/1 75/9/1
f 76/6/127 69/9/124 75/9/127
f 69/9/124 76/6/127 70/6/124
f 73/9/126 76/6/127 75/9/127
f 76/6/127 73/9/126 74/6/126
f 79/10/128 78/10/129 77/11/130
f 78/10/129 79/10/128 41/6/128
f 78/10/129 41/6/128 42/6/129
f 77/11/131 78/10/132 79/10/133
f 41/6/133 79/10/133 78/10/132
f 42/6/132 41/6/133 78/10/132
f 81/11/134 49/6/135 80/10/136
f 49/6/135 81/11/134 52/6/137
f 52/6/137 81/11/134 82/10/137
f 80/10/138 49/6/139 81/11/140
f 52/6/141 81/11/140 49/6/138
f 82/10/141 81/11/140 52/6/141
f 82/10/137 42/6/129 52/6/137
f 42/6/129 82/10/137 83/11/142
f 42/6/129 83/11/143 78/10/129
f 52/6/141 42/6/132 82/10/141
f 83/11/144 82/10/141 42/6/132
f 78/10/132 83/11/144 42/6/132
f 46/6/145 85/11/146 84/10/145
f 85/11/146 46/6/145 41/6/147
f 85/11/146 41/6/147 79/10/128
f 84/10/148 85/11/149 46/6/150
f 41/6/151 46/6/148 85/11/149
f 79/10/151 41/6/133 85/11/149
f 80/10/152 87/10/153 86/11/154
f 87/10/153 80/10/152 49/6/152
f 87/10/153 49/6/136 45/6/153
f 86/11/155 87/10/156 80/10/139
f 49/6/139 80/10/139 87/10/156
f 45/6/156 49/6/139 87/10/156
f 45/6/153 88/11/157 87/10/153
f 88/11/158 45/6/153 46/6/159
f 88/11/158 46/6/159 84/10/145
f 87/10/156 88/11/160 45/6/156
f 46/6/148 45/6/156 88/11/161
f 84/10/148 46/6/148 88/11/161
f 91/10/162 90/10/163 89/11/164
f 90/10/163 91/10/162 75/6/162
f 90/10/163 75/6/162 69/6/163
f 89/11/165 90/10/166 91/10/167
f 75/6/167 91/10/167 90/10/166
f 69/6/166 75/6/167 90/10/166
f 65/6/168 93/11/169 92/10/170
f 93/11/171 65/6/170 66/6/172
f 93/11/171 66/6/172 94/10/172
f 92/10/173 93/11/174 65/6/173
f 66/6/175 65/6/173 93/11/174
f 94/10/175 66/6/175 93/11/174
f 97/10/176 96/10/177 95/11/178
f 96/10/179 97/10/176 71/6/176
f 96/10/179 71/6/176 73/6/179
f 95/11/180 96/10/181 97/10/182
f 71/6/182 97/10/182 96/10/181
f 73/6/181 71/6/183 96/10/181
f 98/11/184 75/6/162 91/10/162
f 75/6/162 98/11/184 73/6/179
f 73/6/185 98/11/184 96/10/179
f 91/10/167 75/6/167 98/11/186
f 73/6/187 98/11/186 75/6/167
f 96/10/187 98/11/186 73/6/187
f 94/10/172 97/10/188 99/11/189
f 97/10/176 94/10/172 66/6/172
f 97/10/176 66/6/172 71/6/176
f 99/11/190 97/10/182 94/10/175
f 66/6/175 94/10/175 97/10/182
f 71/6/182 66/6/175 97/10/182
f 90/10/163 92/10/191 100/11/192
f 92/10/170 90/10/163 69/6/163
f 92/10/170 69/6/163 65/6/170
f 100/11/193 92/10/194 90/10/166
f 69/6/166 90/10/166 92/10/194
f 65/6/194 69/6/166 92/10/194
f 102/11/134 61/6/195 101/10/152
f 61/6/135 102/11/134 59/6/137
f 59/6/196 102/11/134 103/10/137
f 101/10/139 61/6/197 102/11/140
f 59/6/141 102/11/140 61/6/138
f 103/10/198 102/11/140 59/6/198
f 103/10/137 60/6/129 59/6/137
f 60/6/129 103/10/137 104/11/142
f 60/6/129 104/11/143 105/10/129
f 59/6/141 60/6/132 103/10/141
f 104/11/144 103/10/141 60/6/132
f 105/10/132 104/11/144 60/6/132
f 62/6/153 107/11/158 106/10/153
f 107/11/157 62/6/153 53/6/159
f 107/11/157 53/6/199 108/10/145
f 106/10/156 107/11/161 62/6/156
f 53/6/148 62/6/156 107/11/160
f 108/10/148 53/6/148 107/11/161
f 110/10/128 105/10/129 109/11/130
f 105/10/129 110/10/200 54/6/200
f 105/10/129 54/6/128 60/6/129
f 109/11/131 105/10/132 110/10/133
f 54/6/133 110/10/133 105/10/132
f 60/6/132 54/6/133 105/10/132
f 101/10/152 106/10/153 111/11/154
f 106/10/153 101/10/152 61/6/152
f 106/10/153 61/6/152 62/6/153
f 111/11/155 106/10/156 101/10/139
f 61/6/139 101/10/139 106/10/156
f 62/6/156 61/6/139 106/10/156
f 53/6/159 112/11/146 108/10/145
f 112/11/146 53/6/145 54/6/147
f 112/11/146 54/6/201 110/10/128
f 108/10/148 112/11/149 53/6/150
f 54/6/151 53/6/148 112/11/149
f 110/10/133 54/6/133 112/11/149
