# Blender 4.1.1
# www.blender.org
mtllib tree.027.mtl
o tree.027
v -2.396637 -0.282319 6.004981
v -2.246204 -0.282319 5.903329
v -2.522680 -0.282319 5.980590
v -2.221814 -0.282319 5.777287
v -2.624332 -0.282319 5.830157
v -2.323466 -0.282319 5.626853
v -2.599941 -0.282319 5.704115
v -2.449508 -0.282319 5.602463
v -2.334638 0.046402 5.853526
v -2.409855 0.046402 5.904351
v -2.472876 0.046402 5.892156
v -2.322443 0.046402 5.790504
v -2.373269 0.046402 5.715288
v -2.436290 0.046402 5.703092
v -2.511507 0.046402 5.753918
v -2.523702 0.046402 5.816940
v -2.439595 0.539521 5.677935
v -2.533616 0.539521 5.741467
v -2.548860 0.539521 5.820244
v -2.312530 0.539521 5.865976
v -2.406551 0.539521 5.929509
v -2.360818 0.539521 5.693179
v -2.297286 0.539521 5.787200
v -2.485327 0.539521 5.914265
v -2.302297 0.163768 5.903203
v -2.372090 0.163768 5.917464
v -2.263029 0.163768 5.843769
v -2.277290 0.163768 5.773976
v -2.431524 0.163768 5.878196
v -2.336724 0.163768 5.734708
v -2.445785 0.163768 5.808403
v -2.406518 0.163768 5.748969
v -2.272780 0.044485 5.946884
v -2.211271 0.044485 5.853784
v -2.382105 0.044485 5.969222
v -2.475205 0.044485 5.907712
v -2.233609 0.044485 5.744460
v -2.497543 0.044485 5.798388
v -2.326709 0.044485 5.682950
v -2.436033 0.044485 5.705288
v -2.625866 0.539521 6.202977
v -2.879015 0.539521 5.828347
v -2.544742 1.083027 6.036294
v -2.694101 1.083027 5.815260
v -1.976986 0.539521 5.764511
v -2.174852 0.539521 6.171060
v -2.161900 1.083027 5.777597
v -2.278642 1.083027 6.017462
v -2.230135 0.539521 5.389880
v -2.311259 1.083027 5.556563
v -2.577359 1.083027 5.575395
v -2.681150 0.539521 5.421798
v -2.282035 1.666943 6.012441
v -2.542090 1.666943 6.030846
v -2.394451 2.279410 5.846078
v -2.454224 2.279410 5.850309
v -2.461550 2.279410 5.746778
v -2.487774 2.279410 5.800659
v -2.573967 1.666943 5.580416
v -2.688056 1.666943 5.814833
v -2.313911 1.666943 5.562012
v -2.167945 1.666943 5.778025
v -2.401778 2.279410 5.742549
v -2.368227 2.279410 5.792199
v -2.097473 1.083027 5.957295
v -2.402051 1.083027 6.163107
v -2.276549 1.666943 5.870140
v -2.416110 1.666943 5.964445
v -2.123423 1.083027 5.590617
v -2.288440 1.666943 5.702124
v -2.732579 1.083027 6.002241
v -2.567562 1.666943 5.890734
v -2.758528 1.083027 5.635562
v -2.579452 1.666943 5.722718
v -2.453950 1.083027 5.429750
v -2.439891 1.666943 5.628413
v -2.823817 0.369968 6.063893
v -2.928627 0.454744 5.831858
v -2.647631 0.454744 6.247698
v -2.208370 0.454744 5.345160
v -2.461724 0.369968 5.319909
v -2.708996 0.454744 5.380589
v -2.857541 0.369968 5.587374
v -2.147005 0.454744 6.212269
v -2.394278 0.369968 6.272949
v -2.032184 0.369968 5.528964
v -1.927374 0.454744 5.761000
v -1.998461 0.369968 6.005484
v -2.258037 0.945179 5.447209
v -2.089919 1.014103 5.567977
v -2.456805 1.014103 5.389416
v -2.061115 1.014103 5.974991
v -2.210550 0.945179 6.118231
v -2.399197 1.014103 6.203442
v -2.815415 0.945179 5.823846
v -2.794886 1.014103 5.617867
v -2.766083 1.014103 6.024880
v -2.645452 0.945179 5.474627
v -2.597964 0.945179 6.145648
v -2.040586 0.945179 5.769012
v -2.301361 1.618061 5.536226
v -2.447445 1.569178 5.521667
v -2.590023 1.618061 5.556654
v -2.675674 1.569178 5.675887
v -2.716663 1.618061 5.816857
v -2.139339 1.618061 5.776000
v -2.180327 1.569178 5.916970
v -2.265978 1.618061 6.036203
v -2.656229 1.569178 5.950650
v -2.554640 1.618061 6.056631
v -2.199772 1.569178 5.642208
v -2.408556 1.569178 6.071191
vn -0.0000 -1.0000 -0.0000
vn 0.7944 0.2942 0.5314
vn 0.1870 0.2944 0.9372
vn 0.7998 0.2944 0.5231
vn 0.1967 0.2942 0.9353
vn -0.5313 0.2942 0.7944
vn 0.1966 0.2942 0.9353
vn -0.5313 0.2943 0.7944
vn -0.5231 0.2944 0.7998
vn 0.9353 0.2942 -0.1966
vn 0.9372 0.2944 -0.1870
vn 0.7944 0.2942 0.5313
vn 0.5314 0.2942 -0.7944
vn 0.5232 0.2944 -0.7998
vn 0.9353 0.2942 -0.1967
vn -0.7998 0.2944 -0.5232
vn -0.1967 0.2942 -0.9353
vn -0.1870 0.2944 -0.9372
vn -0.7944 0.2942 -0.5314
vn -0.5314 0.2942 0.7944
vn -0.9372 0.2944 0.1870
vn -0.9353 0.2942 0.1967
vn 0.5313 0.2943 -0.7944
vn 0.5231 0.2944 -0.7998
vn 0.5313 0.2942 -0.7944
vn -0.1966 0.2942 -0.9353
vn -0.7998 0.2944 -0.5231
vn -0.9353 0.2942 0.1966
vn -0.7944 0.2942 -0.5313
vn -0.2008 -0.0513 -0.9783
vn -0.8337 -0.0512 -0.5498
vn -0.1991 -0.0513 -0.9786
vn -0.8337 -0.0513 -0.5498
vn -0.8327 -0.0513 -0.5513
vn -0.9783 -0.0512 0.2008
vn -0.8328 -0.0512 -0.5512
vn -0.9783 -0.0513 0.2008
vn -0.9786 -0.0512 0.1991
vn 0.1991 -0.0512 0.9786
vn 0.8327 -0.0513 0.5513
vn 0.8337 -0.0513 0.5498
vn 0.2008 -0.0513 0.9783
vn 0.5498 -0.0513 -0.8337
vn 0.9783 -0.0513 -0.2008
vn 0.5513 -0.0513 -0.8327
vn 0.5498 -0.0512 -0.8337
vn 0.9786 -0.0513 -0.1991
vn 0.1991 -0.0513 0.9786
vn -0.5512 -0.0513 0.8328
vn -0.5513 -0.0513 0.8328
vn -0.5498 -0.0513 0.8337
vn 0.5512 -0.0513 -0.8328
vn -0.1991 -0.0512 -0.9786
vn 0.5513 -0.0513 -0.8328
vn -0.2008 -0.0512 -0.9783
vn 0.9786 -0.0512 -0.1991
vn 0.9783 -0.0512 -0.2008
vn 0.8328 -0.0512 0.5512
vn -0.9783 -0.0513 0.2009
vn -0.5513 -0.0513 0.8327
vn -0.5498 -0.0512 0.8337
vn -0.9786 -0.0513 0.1991
vn -0.0000 1.0000 -0.0000
vn 0.8980 0.4042 0.1738
vn 0.5121 0.4042 0.7578
vn 0.5121 0.4043 0.7578
vn -0.7579 0.4042 0.5121
vn -0.8980 0.4042 -0.1737
vn -0.8980 0.4043 -0.1737
vn -0.5121 0.4042 -0.7578
vn -0.8980 0.4042 -0.1738
vn -0.5121 0.4043 -0.7578
vn -0.5121 0.4042 -0.7579
vn 0.7579 0.4042 -0.5121
vn 0.8980 0.4042 0.1737
vn 0.8980 0.4043 0.1737
vn -0.1738 0.4042 0.8980
vn -0.7578 0.4043 0.5121
vn 0.1738 0.4042 -0.8980
vn 0.7578 0.4042 -0.5121
vn 0.7578 0.4043 -0.5121
vn -0.1737 0.4042 0.8980
vn 0.5121 0.4043 0.7579
vn 0.5121 0.4042 0.7579
vn 0.1737 0.4042 -0.8980
vn -0.5121 0.4043 -0.7579
vn -0.4142 0.3228 0.8510
vn -0.9441 0.3228 0.0668
vn 0.9441 0.3228 -0.0668
vn 0.5299 0.3228 0.7842
vn 0.4142 0.3228 -0.8510
vn -0.5299 0.3228 -0.7842
vn 0.3851 0.7260 0.5698
vn -0.4158 0.3115 0.8544
vn 0.5320 0.3115 0.7874
vn -0.3010 0.7260 0.6184
vn -0.5320 0.3115 -0.7873
vn -0.6860 0.7260 0.0486
vn -0.3850 0.7260 -0.5699
vn -0.9479 0.3115 0.0671
vn 0.3009 0.7260 -0.6184
vn 0.9479 0.3115 -0.0671
vn 0.4159 0.3115 -0.8544
vn 0.6860 0.7260 -0.0485
vn 0.6860 0.7260 -0.0486
vn 0.5320 0.3115 0.7873
vn 0.3850 0.7260 0.5699
vn 0.6860 0.7259 -0.0485
vn -0.3009 0.7259 0.6184
vn 0.3850 0.7259 0.5699
vn -0.3010 0.7259 0.6184
vn -0.6860 0.7259 0.0485
vn 0.3010 0.7259 -0.6184
vn 0.3009 0.7259 -0.6184
vn -0.3850 0.7259 -0.5699
vn -0.5320 0.3116 -0.7873
vn 0.3010 0.7260 -0.6184
vn 0.4158 0.3115 -0.8544
vn 0.3009 0.7260 -0.6183
vn -0.3850 0.7260 -0.5698
vn -0.3009 0.7260 0.6184
vn -0.4159 0.3115 0.8544
vn -0.6860 0.7260 0.0485
vn 0.8510 0.3228 0.4142
vn 0.0668 0.3228 0.9441
vn 0.7842 0.3228 -0.5299
vn -0.7842 0.3228 0.5299
vn -0.8510 0.3228 -0.4142
vn -0.0668 0.3228 -0.9441
vn -0.3775 0.5060 0.7755
vn -0.8604 0.5060 0.0609
vn -0.7387 0.4530 0.4992
vn 0.7387 -0.4530 -0.4992
vn 0.8604 -0.5060 -0.0609
vn 0.3775 -0.5060 -0.7755
vn -0.0629 0.4530 -0.8893
vn 0.3775 0.5060 -0.7755
vn 0.3775 0.5060 -0.7756
vn 0.3774 0.5060 -0.7755
vn -0.4829 0.5060 -0.7147
vn -0.3775 -0.5060 0.7756
vn -0.3775 -0.5060 0.7755
vn 0.0629 -0.4530 0.8893
vn 0.4829 -0.5060 0.7147
vn -0.8016 0.4530 -0.3902
vn -0.8016 0.4530 -0.3901
vn 0.8016 -0.4530 0.3902
vn 0.8016 -0.4530 0.3901
vn 0.4829 0.5060 0.7147
vn 0.0629 0.4530 0.8893
vn -0.3775 0.5061 0.7755
vn -0.3774 0.5060 0.7755
vn -0.4829 -0.5060 -0.7147
vn -0.0629 -0.4530 -0.8893
vn -0.4829 -0.5060 -0.7146
vn 0.3775 -0.5060 -0.7756
vn 0.8604 0.5060 -0.0609
vn 0.7387 0.4530 -0.4992
vn -0.7387 -0.4530 0.4992
vn -0.8604 -0.5060 0.0609
vn 0.8016 0.4530 0.3902
vn 0.8016 0.4530 0.3901
vn 0.4829 0.5060 0.7146
vn -0.8016 -0.4530 -0.3902
vn -0.8016 -0.4530 -0.3901
vn -0.0609 0.5060 -0.8604
vn 0.7146 0.5060 -0.4829
vn 0.3901 0.4530 -0.8016
vn 0.7147 0.5060 -0.4829
vn -0.3901 -0.4530 0.8016
vn -0.7147 -0.5060 0.4829
vn 0.0609 -0.5060 0.8604
vn 0.7755 0.5060 0.3775
vn 0.4992 0.4530 0.7387
vn 0.7756 0.5060 0.3775
vn 0.0609 0.5060 0.8604
vn -0.7755 -0.5060 -0.3775
vn -0.4992 -0.4530 -0.7387
vn -0.0609 -0.5060 -0.8604
vn -0.7147 0.5060 0.4829
vn -0.7755 0.5060 -0.3775
vn -0.8893 0.4530 0.0629
vn -0.7756 0.5060 -0.3775
vn 0.8893 -0.4530 -0.0629
vn 0.7756 -0.5060 0.3775
vn 0.7147 -0.5060 -0.4829
vn -0.4992 0.4530 -0.7387
vn -0.7755 0.5060 -0.3774
vn 0.4992 -0.4530 0.7387
vn 0.7755 -0.5060 0.3775
vn 0.7755 -0.5060 0.3774
vn -0.7146 0.5060 0.4829
vn -0.3901 0.4530 0.8016
vn 0.3901 -0.4530 -0.8016
vn 0.7755 0.5060 0.3774
vn 0.8893 0.4530 -0.0629
vn -0.8893 -0.4530 0.0629
vn -0.7756 -0.5060 -0.3775
vn 0.3774 0.5061 -0.7755
vn -0.0629 0.4529 -0.8893
vn -0.3774 -0.5060 0.7755
vn 0.0629 -0.4529 0.8893
vn -0.3775 0.5060 0.7756
vn 0.3774 -0.5060 -0.7755
vn 0.7387 0.4529 -0.4992
vn -0.7387 -0.4529 0.4992
vn 0.0629 0.4529 0.8893
vn -0.0629 -0.4529 -0.8893
vt 0.593750 0.025000
vt 0.593750 0.104996
vt 0.593750 0.225000
vt 0.093750 0.475000
vt 0.093750 0.275000
vt 0.093750 0.425000
vt 0.093750 0.348778
vt 0.093750 0.338765
vt 0.093750 0.344099
vt 0.093750 0.375000
vt 0.093750 0.325000
s 0
usemtl colormap.002
f 3/1/1 2/1/1 1/1/1
f 2/1/1 3/1/1 4/1/1
f 4/1/1 3/1/1 5/1/1
f 4/1/1 5/1/1 6/1/1
f 6/1/1 5/1/1 7/1/1
f 6/1/1 7/1/1 8/1/1
f 9/2/2 1/1/3 2/1/4
f 1/1/3 9/2/2 10/2/5
f 11/2/6 1/1/3 10/2/7
f 1/1/3 11/2/8 3/1/9
f 12/2/10 2/1/4 4/1/11
f 2/1/4 12/2/10 9/2/12
f 13/2/13 4/1/11 6/1/14
f 4/1/11 13/2/13 12/2/15
f 7/1/16 14/2/17 8/1/18
f 14/2/17 7/1/16 15/2/19
f 11/2/20 5/1/21 3/1/9
f 5/1/21 11/2/20 16/2/22
f 8/1/18 13/2/23 6/1/24
f 13/2/25 8/1/18 14/2/26
f 7/1/27 16/2/28 15/2/29
f 16/2/28 7/1/27 5/1/21
f 14/2/30 18/3/31 17/3/32
f 18/3/33 14/2/30 15/2/34
f 16/2/35 18/3/33 15/2/36
f 18/3/33 16/2/37 19/3/38
f 21/3/39 9/2/40 20/3/41
f 9/2/40 21/3/39 10/2/42
f 22/3/43 12/2/44 13/2/45
f 12/2/44 22/3/46 23/3/47
f 21/3/48 11/2/49 10/2/42
f 11/2/50 21/3/39 24/3/51
f 13/2/52 17/3/53 22/3/43
f 17/3/32 13/2/54 14/2/55
f 20/3/41 12/2/44 23/3/56
f 12/2/57 20/3/41 9/2/58
f 24/3/51 16/2/59 11/2/60
f 16/2/37 24/3/61 19/3/62
f 27/4/63 26/4/63 25/4/63
f 26/4/63 27/4/63 28/4/63
f 26/4/63 28/4/63 29/4/63
f 29/4/63 28/4/63 30/4/63
f 29/4/63 30/4/63 31/4/63
f 31/4/63 30/4/63 32/4/63
f 35/5/1 34/5/1 33/5/1
f 34/5/1 35/5/1 36/5/1
f 34/5/1 36/5/1 37/5/1
f 37/5/1 36/5/1 38/5/1
f 37/5/1 38/5/1 39/5/1
f 39/5/1 38/5/1 40/5/1
f 27/4/64 33/5/65 34/5/64
f 33/5/65 27/4/64 25/4/66
f 29/4/67 38/5/68 36/5/67
f 38/5/68 29/4/67 31/4/69
f 40/5/70 31/4/71 32/4/72
f 31/4/71 40/5/73 38/5/71
f 28/4/74 34/5/75 37/5/74
f 34/5/75 28/4/74 27/4/76
f 26/4/77 36/5/67 35/5/77
f 36/5/67 26/4/77 29/4/78
f 30/4/79 37/5/80 39/5/79
f 37/5/80 30/4/79 28/4/81
f 26/4/82 33/5/83 25/4/84
f 33/5/84 26/4/82 35/5/82
f 40/5/73 30/4/85 39/5/85
f 30/4/79 40/5/86 32/4/73
f 43/6/87 42/7/88 41/7/87
f 42/7/88 43/6/87 44/6/88
f 47/6/89 46/7/90 45/7/89
f 46/7/90 47/6/89 48/6/90
f 50/6/91 45/7/89 49/7/91
f 45/7/89 50/6/91 47/6/89
f 48/6/90 41/7/87 46/7/90
f 41/7/87 48/6/90 43/6/87
f 52/7/92 44/6/88 51/6/92
f 44/6/88 52/7/92 42/7/88
f 52/7/92 50/6/91 49/7/91
f 50/6/91 52/7/92 51/6/92
f 41/7/1 45/7/1 46/7/1
f 45/7/1 41/7/1 42/7/1
f 45/7/1 42/7/1 49/7/1
f 49/7/1 42/7/1 52/7/1
f 55/6/93 54/8/94 53/8/95
f 54/8/94 55/6/93 56/6/96
f 59/8/97 58/6/98 57/6/99
f 58/6/98 59/8/97 60/8/100
f 63/6/101 62/8/102 61/8/103
f 62/8/102 63/6/101 64/6/104
f 64/6/105 53/8/106 62/8/102
f 53/8/106 64/6/105 55/6/107
f 64/6/108 56/6/109 55/6/110
f 56/6/111 64/6/108 58/6/112
f 58/6/112 64/6/108 63/6/113
f 58/6/112 63/6/114 57/6/115
f 59/8/116 63/6/117 61/8/118
f 63/6/119 59/8/97 57/6/120
f 54/8/1 62/8/1 53/8/1
f 62/8/1 54/8/1 60/8/1
f 62/8/1 60/8/1 61/8/1
f 61/8/1 60/8/1 59/8/1
f 56/6/121 60/8/100 54/8/122
f 60/8/100 56/6/121 58/6/123
f 67/6/124 66/9/125 65/9/124
f 66/9/125 67/6/124 68/6/125
f 70/6/126 65/9/124 69/9/126
f 65/9/124 70/6/126 67/6/124
f 68/6/125 71/9/127 66/9/125
f 71/9/127 68/6/125 72/6/127
f 72/6/127 73/9/128 71/9/127
f 73/9/128 72/6/127 74/6/128
f 71/9/1 65/9/1 66/9/1
f 65/9/1 71/9/1 69/9/1
f 69/9/1 71/9/1 73/9/1
f 69/9/1 73/9/1 75/9/1
f 76/6/129 69/9/126 75/9/129
f 69/9/126 76/6/129 70/6/126
f 73/9/128 76/6/129 75/9/129
f 76/6/129 73/9/128 74/6/128
f 79/10/130 78/10/131 77/11/132
f 78/10/131 79/10/130 41/6/130
f 78/10/131 41/6/130 42/6/131
f 77/11/133 78/10/134 79/10/135
f 41/6/135 79/10/135 78/10/134
f 42/6/134 41/6/135 78/10/134
f 81/11/136 49/6/137 80/10/138
f 49/6/139 81/11/136 52/6/140
f 52/6/140 81/11/136 82/10/140
f 80/10/141 49/6/142 81/11/143
f 52/6/144 81/11/143 49/6/141
f 82/10/144 81/11/143 52/6/144
f 82/10/140 42/6/131 52/6/140
f 42/6/131 82/10/140 83/11/145
f 42/6/131 83/11/146 78/10/131
f 52/6/144 42/6/134 82/10/144
f 83/11/147 82/10/144 42/6/134
f 78/10/134 83/11/148 42/6/134
f 46/6/149 85/11/150 84/10/149
f 85/11/150 46/6/149 41/6/151
f 85/11/150 41/6/152 79/10/130
f 84/10/153 85/11/154 46/6/155
f 41/6/156 46/6/153 85/11/154
f 79/10/156 41/6/135 85/11/154
f 80/10/137 87/10/157 86/11/158
f 87/10/157 80/10/137 49/6/138
f 87/10/157 49/6/138 45/6/157
f 86/11/159 87/10/160 80/10/142
f 49/6/142 80/10/142 87/10/160
f 45/6/160 49/6/142 87/10/160
f 45/6/157 88/11/161 87/10/157
f 88/11/162 45/6/157 46/6/163
f 88/11/161 46/6/163 84/10/149
f 87/10/160 88/11/164 45/6/160
f 46/6/153 45/6/160 88/11/165
f 84/10/153 46/6/153 88/11/164
f 91/10/166 90/10/167 89/11/168
f 90/10/169 91/10/166 75/6/166
f 90/10/169 75/6/166 69/6/169
f 89/11/170 90/10/171 91/10/172
f 75/6/172 91/10/172 90/10/171
f 69/6/171 75/6/172 90/10/171
f 65/6/173 93/11/174 92/10/175
f 93/11/174 65/6/175 66/6/176
f 93/11/174 66/6/176 94/10/176
f 92/10/177 93/11/178 65/6/177
f 66/6/179 65/6/177 93/11/178
f 94/10/179 66/6/179 93/11/178
f 97/10/180 96/10/181 95/11/182
f 96/10/183 97/10/180 71/6/180
f 96/10/183 71/6/180 73/6/183
f 95/11/184 96/10/185 97/10/186
f 71/6/186 97/10/186 96/10/185
f 73/6/185 71/6/186 96/10/185
f 98/11/187 75/6/166 91/10/166
f 75/6/166 98/11/187 73/6/183
f 73/6/188 98/11/187 96/10/183
f 91/10/172 75/6/172 98/11/189
f 73/6/190 98/11/189 75/6/172
f 96/10/191 98/11/189 73/6/191
f 94/10/176 97/10/192 99/11/193
f 97/10/180 94/10/176 66/6/176
f 97/10/180 66/6/176 71/6/180
f 99/11/194 97/10/186 94/10/179
f 66/6/179 94/10/179 97/10/186
f 71/6/186 66/6/179 97/10/186
f 90/10/169 92/10/195 100/11/196
f 92/10/175 90/10/169 69/6/169
f 92/10/175 69/6/169 65/6/175
f 100/11/197 92/10/198 90/10/171
f 69/6/171 90/10/171 92/10/198
f 65/6/198 69/6/171 92/10/198
f 102/11/136 61/6/199 101/10/137
f 61/6/139 102/11/136 59/6/140
f 59/6/140 102/11/200 103/10/140
f 101/10/142 61/6/201 102/11/143
f 59/6/144 102/11/143 61/6/141
f 103/10/144 102/11/202 59/6/144
f 103/10/140 60/6/131 59/6/140
f 60/6/131 103/10/140 104/11/146
f 60/6/131 104/11/146 105/10/131
f 59/6/144 60/6/134 103/10/144
f 104/11/148 103/10/144 60/6/134
f 105/10/134 104/11/148 60/6/134
f 62/6/157 107/11/161 106/10/157
f 107/11/161 62/6/157 53/6/163
f 107/11/162 53/6/163 108/10/149
f 106/10/160 107/11/164 62/6/160
f 53/6/153 62/6/160 107/11/164
f 108/10/153 53/6/153 107/11/165
f 110/10/130 105/10/131 109/11/132
f 105/10/131 110/10/203 54/6/203
f 105/10/131 54/6/203 60/6/131
f 109/11/133 105/10/134 110/10/204
f 54/6/135 110/10/156 105/10/134
f 60/6/134 54/6/135 105/10/134
f 101/10/137 106/10/157 111/11/205
f 106/10/157 101/10/137 61/6/137
f 106/10/157 61/6/138 62/6/157
f 111/11/206 106/10/160 101/10/142
f 61/6/142 101/10/142 106/10/160
f 62/6/160 61/6/142 106/10/160
f 53/6/149 112/11/150 108/10/149
f 112/11/150 53/6/149 54/6/152
f 112/11/207 54/6/130 110/10/203
f 108/10/153 112/11/154 53/6/153
f 54/6/156 53/6/153 112/11/154
f 110/10/156 54/6/135 112/11/208
f 3/1/1 2/1/1 1/1/1
f 2/1/1 3/1/1 4/1/1
f 4/1/1 3/1/1 5/1/1
f 4/1/1 5/1/1 6/1/1
f 6/1/1 5/1/1 7/1/1
f 6/1/1 7/1/1 8/1/1
f 9/2/2 1/1/3 2/1/4
f 1/1/3 9/2/2 10/2/5
f 11/2/6 1/1/3 10/2/7
f 1/1/3 11/2/8 3/1/9
f 12/2/10 2/1/4 4/1/11
f 2/1/4 12/2/10 9/2/12
f 13/2/13 4/1/11 6/1/14
f 4/1/11 13/2/13 12/2/15
f 7/1/16 14/2/17 8/1/18
f 14/2/17 7/1/16 15/2/19
f 11/2/20 5/1/21 3/1/9
f 5/1/21 11/2/20 16/2/22
f 8/1/18 13/2/23 6/1/24
f 13/2/25 8/1/18 14/2/26
f 7/1/27 16/2/28 15/2/29
f 16/2/28 7/1/27 5/1/21
f 14/2/30 18/3/31 17/3/32
f 18/3/33 14/2/30 15/2/34
f 16/2/35 18/3/33 15/2/36
f 18/3/33 16/2/37 19/3/38
f 21/3/39 9/2/40 20/3/41
f 9/2/40 21/3/39 10/2/42
f 22/3/43 12/2/44 13/2/45
f 12/2/44 22/3/46 23/3/47
f 21/3/48 11/2/49 10/2/42
f 11/2/50 21/3/39 24/3/51
f 13/2/52 17/3/53 22/3/43
f 17/3/32 13/2/54 14/2/55
f 20/3/41 12/2/44 23/3/56
f 12/2/57 20/3/41 9/2/58
f 24/3/51 16/2/59 11/2/60
f 16/2/37 24/3/61 19/3/62
f 27/4/63 26/4/63 25/4/63
f 26/4/63 27/4/63 28/4/63
f 26/4/63 28/4/63 29/4/63
f 29/4/63 28/4/63 30/4/63
f 29/4/63 30/4/63 31/4/63
f 31/4/63 30/4/63 32/4/63
f 35/5/1 34/5/1 33/5/1
f 34/5/1 35/5/1 36/5/1
f 34/5/1 36/5/1 37/5/1
f 37/5/1 36/5/1 38/5/1
f 37/5/1 38/5/1 39/5/1
f 39/5/1 38/5/1 40/5/1
f 27/4/64 33/5/65 34/5/64
f 33/5/65 27/4/64 25/4/66
f 29/4/67 38/5/68 36/5/67
f 38/5/68 29/4/67 31/4/69
f 40/5/70 31/4/71 32/4/72
f 31/4/71 40/5/73 38/5/71
f 28/4/74 34/5/75 37/5/74
f 34/5/75 28/4/74 27/4/76
f 26/4/77 36/5/67 35/5/77
f 36/5/67 26/4/77 29/4/78
f 30/4/79 37/5/80 39/5/79
f 37/5/80 30/4/79 28/4/81
f 26/4/82 33/5/83 25/4/84
f 33/5/84 26/4/82 35/5/82
f 40/5/73 30/4/85 39/5/85
f 30/4/79 40/5/86 32/4/73
f 43/6/87 42/7/88 41/7/87
f 42/7/88 43/6/87 44/6/88
f 47/6/89 46/7/90 45/7/89
f 46/7/90 47/6/89 48/6/90
f 50/6/91 45/7/89 49/7/91
f 45/7/89 50/6/91 47/6/89
f 48/6/90 41/7/87 46/7/90
f 41/7/87 48/6/90 43/6/87
f 52/7/92 44/6/88 51/6/92
f 44/6/88 52/7/92 42/7/88
f 52/7/92 50/6/91 49/7/91
f 50/6/91 52/7/92 51/6/92
f 41/7/1 45/7/1 46/7/1
f 45/7/1 41/7/1 42/7/1
f 45/7/1 42/7/1 49/7/1
f 49/7/1 42/7/1 52/7/1
f 55/6/93 54/8/94 53/8/95
f 54/8/94 55/6/93 56/6/96
f 59/8/97 58/6/98 57/6/99
f 58/6/98 59/8/97 60/8/100
f 63/6/101 62/8/102 61/8/103
f 62/8/102 63/6/101 64/6/104
f 64/6/105 53/8/106 62/8/102
f 53/8/106 64/6/105 55/6/107
f 64/6/108 56/6/109 55/6/110
f 56/6/111 64/6/108 58/6/112
f 58/6/112 64/6/108 63/6/113
f 58/6/112 63/6/114 57/6/115
f 59/8/116 63/6/117 61/8/118
f 63/6/119 59/8/97 57/6/120
f 54/8/1 62/8/1 53/8/1
f 62/8/1 54/8/1 60/8/1
f 62/8/1 60/8/1 61/8/1
f 61/8/1 60/8/1 59/8/1
f 56/6/121 60/8/100 54/8/122
f 60/8/100 56/6/121 58/6/123
f 67/6/124 66/9/125 65/9/124
f 66/9/125 67/6/124 68/6/125
f 70/6/126 65/9/124 69/9/126
f 65/9/124 70/6/126 67/6/124
f 68/6/125 71/9/127 66/9/125
f 71/9/127 68/6/125 72/6/127
f 72/6/127 73/9/128 71/9/127
f 73/9/128 72/6/127 74/6/128
f 71/9/1 65/9/1 66/9/1
f 65/9/1 71/9/1 69/9/1
f 69/9/1 71/9/1 73/9/1
f 69/9/1 73/9/1 75/9/1
f 76/6/129 69/9/126 75/9/129
f 69/9/126 76/6/129 70/6/126
f 73/9/128 76/6/129 75/9/129
f 76/6/129 73/9/128 74/6/128
f 79/10/130 78/10/131 77/11/132
f 78/10/131 79/10/130 41/6/130
f 78/10/131 41/6/130 42/6/131
f 77/11/133 78/10/134 79/10/135
f 41/6/135 79/10/135 78/10/134
f 42/6/134 41/6/135 78/10/134
f 81/11/136 49/6/137 80/10/138
f 49/6/139 81/11/136 52/6/140
f 52/6/140 81/11/136 82/10/140
f 80/10/141 49/6/142 81/11/143
f 52/6/144 81/11/143 49/6/141
f 82/10/144 81/11/143 52/6/144
f 82/10/140 42/6/131 52/6/140
f 42/6/131 82/10/140 83/11/145
f 42/6/131 83/11/146 78/10/131
f 52/6/144 42/6/134 82/10/144
f 83/11/147 82/10/144 42/6/134
f 78/10/134 83/11/148 42/6/134
f 46/6/149 85/11/150 84/10/149
f 85/11/150 46/6/149 41/6/151
f 85/11/150 41/6/152 79/10/130
f 84/10/153 85/11/154 46/6/155
f 41/6/156 46/6/153 85/11/154
f 79/10/156 41/6/135 85/11/154
f 80/10/137 87/10/157 86/11/158
f 87/10/157 80/10/137 49/6/138
f 87/10/157 49/6/138 45/6/157
f 86/11/159 87/10/160 80/10/142
f 49/6/142 80/10/142 87/10/160
f 45/6/160 49/6/142 87/10/160
f 45/6/157 88/11/161 87/10/157
f 88/11/162 45/6/157 46/6/163
f 88/11/161 46/6/163 84/10/149
f 87/10/160 88/11/164 45/6/160
f 46/6/153 45/6/160 88/11/165
f 84/10/153 46/6/153 88/11/164
f 91/10/166 90/10/167 89/11/168
f 90/10/169 91/10/166 75/6/166
f 90/10/169 75/6/166 69/6/169
f 89/11/170 90/10/171 91/10/172
f 75/6/172 91/10/172 90/10/171
f 69/6/171 75/6/172 90/10/171
f 65/6/173 93/11/174 92/10/175
f 93/11/174 65/6/175 66/6/176
f 93/11/174 66/6/176 94/10/176
f 92/10/177 93/11/178 65/6/177
f 66/6/179 65/6/177 93/11/178
f 94/10/179 66/6/179 93/11/178
f 97/10/180 96/10/181 95/11/182
f 96/10/183 97/10/180 71/6/180
f 96/10/183 71/6/180 73/6/183
f 95/11/184 96/10/185 97/10/186
f 71/6/186 97/10/186 96/10/185
f 73/6/185 71/6/186 96/10/185
f 98/11/187 75/6/166 91/10/166
f 75/6/166 98/11/187 73/6/183
f 73/6/188 98/11/187 96/10/183
f 91/10/172 75/6/172 98/11/189
f 73/6/190 98/11/189 75/6/172
f 96/10/191 98/11/189 73/6/191
f 94/10/176 97/10/192 99/11/193
f 97/10/180 94/10/176 66/6/176
f 97/10/180 66/6/176 71/6/180
f 99/11/194 97/10/186 94/10/179
f 66/6/179 94/10/179 97/10/186
f 71/6/186 66/6/179 97/10/186
f 90/10/169 92/10/195 100/11/196
f 92/10/175 90/10/169 69/6/169
f 92/10/175 69/6/169 65/6/175
f 100/11/197 92/10/198 90/10/171
f 69/6/171 90/10/171 92/10/198
f 65/6/198 69/6/171 92/10/198
f 102/11/136 61/6/199 101/10/137
f 61/6/139 102/11/136 59/6/140
f 59/6/140 102/11/200 103/10/140
f 101/10/142 61/6/201 102/11/143
f 59/6/144 102/11/143 61/6/141
f 103/10/144 102/11/202 59/6/144
f 103/10/140 60/6/131 59/6/140
f 60/6/131 103/10/140 104/11/146
f 60/6/131 104/11/146 105/10/131
f 59/6/144 60/6/134 103/10/144
f 104/11/148 103/10/144 60/6/134
f 105/10/134 104/11/148 60/6/134
f 62/6/157 107/11/161 106/10/157
f 107/11/161 62/6/157 53/6/163
f 107/11/162 53/6/163 108/10/149
f 106/10/160 107/11/164 62/6/160
f 53/6/153 62/6/160 107/11/164
f 108/10/153 53/6/153 107/11/165
f 110/10/130 105/10/131 109/11/132
f 105/10/131 110/10/203 54/6/203
f 105/10/131 54/6/203 60/6/131
f 109/11/133 105/10/134 110/10/204
f 54/6/135 110/10/156 105/10/134
f 60/6/134 54/6/135 105/10/134
f 101/10/137 106/10/157 111/11/205
f 106/10/157 101/10/137 61/6/137
f 106/10/157 61/6/138 62/6/157
f 111/11/206 106/10/160 101/10/142
f 61/6/142 101/10/142 106/10/160
f 62/6/160 61/6/142 106/10/160
f 53/6/149 112/11/150 108/10/149
f 112/11/150 53/6/149 54/6/152
f 112/11/207 54/6/130 110/10/203
f 108/10/153 112/11/154 53/6/153
f 54/6/156 53/6/153 112/11/154
f 110/10/156 54/6/135 112/11/208
