# Blender 4.1.1
# www.blender.org
mtllib tree.033.mtl
o tree.033
v -10.546289 -0.282319 -13.360468
v -10.385637 -0.282319 -13.445051
v -10.668907 -0.282319 -13.398503
v -10.347603 -0.282319 -13.567668
v -10.753489 -0.282319 -13.559155
v -10.432184 -0.282319 -13.728320
v -10.715454 -0.282319 -13.681772
v -10.554802 -0.282319 -13.766356
v -10.468091 0.046402 -13.504231
v -10.548417 0.046402 -13.461940
v -10.609726 0.046402 -13.480958
v -10.449074 0.046402 -13.565540
v -10.491365 0.046402 -13.645865
v -10.552674 0.046402 -13.664884
v -10.633000 0.046402 -13.622592
v -10.652018 0.046402 -13.561283
v -10.553205 0.539521 -13.690251
v -10.653613 0.539521 -13.637387
v -10.677384 0.539521 -13.560752
v -10.447478 0.539521 -13.489436
v -10.547886 0.539521 -13.436572
v -10.476570 0.539521 -13.666480
v -10.423706 0.539521 -13.566072
v -10.624521 0.539521 -13.460344
v -10.441380 0.163768 -13.451312
v -10.512314 0.163768 -13.444775
v -10.395844 0.163768 -13.506094
v -10.402384 0.163768 -13.577028
v -10.567095 0.163768 -13.490308
v -10.457165 0.163768 -13.622563
v -10.573633 0.163768 -13.561242
v -10.528099 0.163768 -13.616024
v -10.416820 0.044485 -13.404666
v -10.345493 0.044485 -13.490476
v -10.527932 0.044485 -13.394423
v -10.613743 0.044485 -13.465749
v -10.355736 0.044485 -13.601589
v -10.623984 0.044485 -13.576860
v -10.441546 0.044485 -13.672915
v -10.552658 0.044485 -13.662672
v -10.795806 0.539521 -13.188742
v -11.006445 0.539521 -13.588820
v -10.696931 1.083027 -13.345548
v -10.821209 1.083027 -13.581595
v -10.102847 0.539521 -13.553579
v -10.344007 0.539521 -13.171120
v -10.288083 1.083027 -13.560803
v -10.430367 1.083027 -13.335152
v -10.313487 0.539521 -13.953660
v -10.412361 1.083027 -13.796852
v -10.678925 1.083027 -13.807249
v -10.765285 0.539521 -13.971279
v -10.433191 1.666943 -13.340513
v -10.693699 1.666943 -13.350674
v -10.526730 2.279410 -13.518177
v -10.586607 2.279410 -13.520513
v -10.582562 2.279410 -13.624222
v -10.614523 2.279410 -13.573536
v -10.676101 1.666943 -13.801887
v -10.815154 1.666943 -13.581360
v -10.415593 1.666943 -13.791726
v -10.294138 1.666943 -13.561040
v -10.522685 2.279410 -13.621887
v -10.494769 2.279410 -13.568866
v -10.243704 1.083027 -13.375135
v -10.568972 1.083027 -13.203884
v -10.412169 1.666943 -13.481361
v -10.561211 1.666943 -13.402892
v -10.229378 1.083027 -13.742452
v -10.405604 1.666943 -13.649669
v -10.879914 1.083027 -13.399948
v -10.703688 1.666943 -13.492730
v -10.865588 1.083027 -13.767264
v -10.697124 1.666943 -13.661039
v -10.540320 1.083027 -13.938517
v -10.548081 1.666943 -13.739509
v -10.977351 0.369968 -13.348649
v -11.056143 0.454744 -13.590758
v -10.822332 0.454744 -13.146670
v -10.286960 0.454744 -13.995730
v -10.536030 0.369968 -14.048548
v -10.788456 0.454744 -14.015288
v -10.958734 0.369968 -13.825997
v -10.320836 0.454744 -13.127112
v -10.573263 0.369968 -13.093851
v -10.131941 0.369968 -13.793752
v -10.053149 0.454744 -13.551642
v -10.150558 0.369968 -13.316402
v -10.347494 0.945179 -13.899726
v -10.193599 1.014103 -13.761290
v -10.538745 1.014103 -13.978921
v -10.209499 1.014103 -13.353568
v -10.373710 0.945179 -13.227537
v -10.570547 1.014103 -13.163479
v -10.942735 0.945179 -13.586336
v -10.899793 1.014103 -13.788831
v -10.915693 1.014103 -13.381111
v -10.735582 0.945179 -13.914862
v -10.761798 0.945179 -13.242673
v -10.166558 0.945179 -13.556065
v -10.400297 1.618061 -13.815984
v -10.543912 1.569178 -13.846440
v -10.689461 1.618061 -13.827263
v -10.787643 1.569178 -13.718116
v -10.843810 1.618061 -13.582478
v -10.265482 1.618061 -13.559923
v -10.321649 1.569178 -13.424283
v -10.419830 1.618061 -13.315138
v -10.798378 1.569178 -13.442877
v -10.708995 1.618061 -13.326415
v -10.310914 1.569178 -13.699524
v -10.565380 1.569178 -13.295960
vn -0.0000 -1.0000 -0.0000
vn 0.7315 0.2942 0.6151
vn 0.0834 0.2944 0.9520
vn 0.7377 0.2944 0.6075
vn 0.0932 0.2942 0.9512
vn -0.6151 0.2942 0.7315
vn 0.0833 0.2944 0.9520
vn 0.0931 0.2942 0.9512
vn -0.6151 0.2943 0.7315
vn -0.6075 0.2944 0.7378
vn 0.9512 0.2942 -0.0931
vn 0.7378 0.2944 0.6075
vn 0.9520 0.2944 -0.0833
vn 0.6151 0.2942 -0.7315
vn 0.9520 0.2944 -0.0834
vn 0.6075 0.2944 -0.7377
vn 0.9512 0.2942 -0.0932
vn -0.7377 0.2944 -0.6075
vn -0.0932 0.2942 -0.9512
vn -0.0834 0.2944 -0.9520
vn -0.7315 0.2942 -0.6151
vn -0.9520 0.2944 0.0834
vn -0.6075 0.2944 0.7377
vn -0.9512 0.2942 0.0932
vn -0.0833 0.2944 -0.9520
vn 0.6151 0.2943 -0.7315
vn 0.6075 0.2944 -0.7378
vn -0.0931 0.2942 -0.9512
vn -0.7378 0.2944 -0.6075
vn -0.9512 0.2942 0.0931
vn -0.9520 0.2944 0.0833
vn -0.0926 -0.0513 -0.9944
vn -0.7685 -0.0512 -0.6377
vn -0.0908 -0.0513 -0.9945
vn -0.7686 -0.0513 -0.6377
vn -0.7674 -0.0513 -0.6391
vn -0.9944 -0.0512 0.0926
vn -0.7675 -0.0512 -0.6390
vn -0.9944 -0.0513 0.0925
vn -0.9946 -0.0512 0.0907
vn 0.0909 -0.0512 0.9945
vn 0.7674 -0.0513 0.6391
vn 0.7686 -0.0513 0.6377
vn 0.0908 -0.0512 0.9945
vn 0.0926 -0.0513 0.9944
vn 0.6377 -0.0513 -0.7686
vn 0.9944 -0.0513 -0.0926
vn 0.6391 -0.0513 -0.7674
vn 0.6377 -0.0512 -0.7685
vn 0.9945 -0.0513 -0.0908
vn 0.0908 -0.0513 0.9945
vn -0.6391 -0.0513 0.7674
vn 0.0925 -0.0513 0.9944
vn 0.0908 -0.0513 0.9946
vn -0.6377 -0.0513 0.7686
vn 0.6391 -0.0513 -0.7675
vn -0.0908 -0.0513 -0.9946
vn -0.0925 -0.0513 -0.9944
vn 0.9944 -0.0513 -0.0925
vn 0.9946 -0.0512 -0.0908
vn 0.9944 -0.0512 -0.0926
vn 0.7675 -0.0512 0.6390
vn -0.9944 -0.0513 0.0926
vn -0.6377 -0.0512 0.7686
vn -0.9945 -0.0513 0.0909
vn -0.0000 1.0000 -0.0000
vn 0.8736 0.4042 0.2710
vn 0.4261 0.4042 0.8093
vn 0.4261 0.4042 0.8094
vn -0.8094 0.4042 0.4261
vn -0.8736 0.4042 -0.2710
vn -0.8736 0.4043 -0.2710
vn -0.4261 0.4042 -0.8093
vn -0.4261 0.4043 -0.8093
vn -0.4262 0.4042 -0.8093
vn 0.8094 0.4042 -0.4261
vn 0.8093 0.4042 -0.4261
vn 0.8736 0.4042 0.2709
vn 0.8736 0.4043 0.2709
vn -0.2710 0.4042 0.8736
vn -0.8093 0.4042 0.4261
vn -0.8093 0.4042 0.4262
vn -0.8093 0.4043 0.4261
vn 0.2710 0.4042 -0.8736
vn -0.2710 0.4043 0.8736
vn -0.4261 0.4042 -0.8094
vn 0.2709 0.4042 -0.8736
vn -0.5048 0.3228 0.8006
vn -0.9458 0.3228 -0.0369
vn 0.9457 0.3228 0.0369
vn 0.4409 0.3228 0.8375
vn 0.9458 0.3228 0.0369
vn 0.5048 0.3228 -0.8006
vn -0.4410 0.3228 -0.8375
vn -0.4409 0.3228 -0.8375
vn -0.9457 0.3228 -0.0369
vn 0.3204 0.7260 0.6085
vn -0.5068 0.3115 0.8038
vn 0.4427 0.3115 0.8408
vn -0.3669 0.7260 0.5817
vn -0.4427 0.3115 -0.8408
vn -0.6872 0.7260 -0.0267
vn -0.3204 0.7260 -0.6086
vn -0.6872 0.7260 -0.0268
vn -0.9495 0.3115 -0.0371
vn 0.3668 0.7260 -0.5818
vn 0.9495 0.3115 0.0370
vn 0.5068 0.3115 -0.8038
vn 0.6872 0.7260 0.0268
vn 0.3204 0.7260 0.6086
vn -0.3668 0.7259 0.5818
vn 0.3204 0.7259 0.6086
vn -0.3668 0.7259 0.5817
vn 0.6872 0.7259 0.0268
vn -0.6872 0.7259 -0.0268
vn 0.3668 0.7259 -0.5817
vn 0.3668 0.7259 -0.5818
vn -0.3204 0.7259 -0.6086
vn 0.3668 0.7260 -0.5817
vn -0.3204 0.7260 -0.6085
vn -0.3668 0.7260 0.5818
vn -0.9495 0.3115 -0.0370
vn -0.6872 0.7260 -0.0269
vn 0.8006 0.3228 0.5048
vn -0.0369 0.3228 0.9457
vn -0.0369 0.3228 0.9458
vn 0.8375 0.3228 -0.4409
vn -0.8375 0.3228 0.4409
vn -0.8375 0.3228 0.4410
vn -0.8006 0.3228 -0.5048
vn 0.0369 0.3228 -0.9457
vn -0.4600 0.5060 0.7296
vn -0.8619 0.5060 -0.0336
vn -0.7889 0.4530 0.4153
vn 0.7889 -0.4530 -0.4153
vn 0.8619 -0.5060 0.0336
vn 0.4600 -0.5060 -0.7296
vn 0.0347 0.4529 -0.8909
vn 0.4600 0.5060 -0.7296
vn 0.0347 0.4530 -0.8909
vn -0.4018 0.5060 -0.7632
vn 0.0347 0.4530 -0.8908
vn -0.4600 -0.5060 0.7296
vn -0.0347 -0.4530 0.8909
vn 0.4018 -0.5060 0.7632
vn -0.7541 0.4530 -0.4755
vn 0.7541 -0.4530 0.4755
vn 0.4018 0.5060 0.7632
vn -0.0347 0.4529 0.8909
vn -0.0347 0.4530 0.8909
vn -0.0347 0.4530 0.8908
vn -0.4018 -0.5060 -0.7632
vn 0.0347 -0.4529 -0.8909
vn 0.4601 -0.5060 -0.7296
vn 0.0347 -0.4530 -0.8909
vn 0.0347 -0.4530 -0.8908
vn 0.8619 0.5060 0.0336
vn 0.7889 0.4530 -0.4153
vn -0.7889 -0.4530 0.4153
vn -0.8619 -0.5060 -0.0336
vn 0.7541 0.4529 0.4755
vn 0.7541 0.4530 0.4755
vn -0.7541 -0.4530 -0.4755
vn -0.7541 -0.4529 -0.4755
vn 0.0336 0.5060 -0.8619
vn 0.7632 0.5060 -0.4018
vn 0.4755 0.4529 -0.7541
vn -0.4755 -0.4529 0.7541
vn -0.7632 -0.5060 0.4018
vn -0.0336 -0.5060 0.8619
vn 0.7296 0.5060 0.4600
vn 0.4153 0.4530 0.7889
vn -0.0336 0.5061 0.8618
vn 0.4153 0.4529 0.7889
vn -0.0336 0.5060 0.8619
vn -0.7296 -0.5060 -0.4600
vn -0.4153 -0.4530 -0.7889
vn 0.0336 -0.5060 -0.8619
vn -0.4153 -0.4529 -0.7889
vn -0.7632 0.5060 0.4018
vn -0.7296 0.5060 -0.4600
vn -0.8909 0.4530 -0.0347
vn -0.7296 0.5060 -0.4601
vn 0.8909 -0.4530 0.0347
vn 0.7296 -0.5060 0.4601
vn 0.7632 -0.5060 -0.4018
vn 0.7296 -0.5060 0.4600
vn -0.4153 0.4530 -0.7889
vn 0.0336 0.5060 -0.8618
vn 0.4153 -0.4530 0.7889
vn -0.7632 0.5061 0.4018
vn -0.4755 0.4530 0.7541
vn 0.4755 -0.4530 -0.7541
vn 0.0336 -0.5061 -0.8618
vn 0.8909 0.4529 0.0347
vn 0.7296 0.5060 0.4601
vn -0.8909 -0.4529 -0.0347
vn -0.7296 -0.5060 -0.4601
vn 0.0348 0.4530 -0.8909
vn 0.4601 0.5060 -0.7296
vn -0.4601 -0.5060 0.7296
vn -0.0348 -0.4530 0.8908
vn 0.4018 -0.5061 0.7632
vn 0.4018 0.5061 0.7632
vn 0.7889 0.4529 -0.4153
vn -0.7889 -0.4529 0.4153
vn -0.4600 -0.5061 0.7296
vt 0.593750 0.025000
vt 0.593750 0.104996
vt 0.593750 0.225000
vt 0.093750 0.475000
vt 0.093750 0.275000
vt 0.093750 0.425000
vt 0.093750 0.348778
vt 0.093750 0.338765
vt 0.093750 0.344099
vt 0.093750 0.375000
vt 0.093750 0.325000
s 0
usemtl colormap.002
f 3/1/1 2/1/1 1/1/1
f 2/1/1 3/1/1 4/1/1
f 4/1/1 3/1/1 5/1/1
f 4/1/1 5/1/1 6/1/1
f 6/1/1 5/1/1 7/1/1
f 6/1/1 7/1/1 8/1/1
f 9/2/2 1/1/3 2/1/4
f 1/1/3 9/2/2 10/2/5
f 11/2/6 1/1/7 10/2/8
f 1/1/7 11/2/9 3/1/10
f 12/2/11 2/1/12 4/1/13
f 2/1/4 12/2/11 9/2/2
f 13/2/14 4/1/15 6/1/16
f 4/1/15 13/2/14 12/2/17
f 7/1/18 14/2/19 8/1/20
f 14/2/19 7/1/18 15/2/21
f 11/2/6 5/1/22 3/1/23
f 5/1/22 11/2/6 16/2/24
f 8/1/25 13/2/26 6/1/27
f 13/2/14 8/1/25 14/2/28
f 7/1/29 16/2/30 15/2/21
f 16/2/30 7/1/29 5/1/31
f 14/2/32 18/3/33 17/3/34
f 18/3/35 14/2/32 15/2/36
f 16/2/37 18/3/35 15/2/38
f 18/3/35 16/2/39 19/3/40
f 21/3/41 9/2/42 20/3/43
f 9/2/42 21/3/44 10/2/45
f 22/3/46 12/2/47 13/2/48
f 12/2/47 22/3/49 23/3/50
f 21/3/51 11/2/52 10/2/53
f 11/2/52 21/3/54 24/3/55
f 13/2/56 17/3/57 22/3/46
f 17/3/34 13/2/48 14/2/58
f 20/3/43 12/2/59 23/3/60
f 12/2/61 20/3/43 9/2/62
f 24/3/55 16/2/63 11/2/52
f 16/2/63 24/3/64 19/3/65
f 27/4/66 26/4/66 25/4/66
f 26/4/66 27/4/66 28/4/66
f 26/4/66 28/4/66 29/4/66
f 29/4/66 28/4/66 30/4/66
f 29/4/66 30/4/66 31/4/66
f 31/4/66 30/4/66 32/4/66
f 35/5/1 34/5/1 33/5/1
f 34/5/1 35/5/1 36/5/1
f 34/5/1 36/5/1 37/5/1
f 37/5/1 36/5/1 38/5/1
f 37/5/1 38/5/1 39/5/1
f 39/5/1 38/5/1 40/5/1
f 27/4/67 33/5/68 34/5/67
f 33/5/69 27/4/67 25/4/68
f 29/4/70 38/5/71 36/5/70
f 38/5/71 29/4/70 31/4/72
f 40/5/73 31/4/71 32/4/74
f 31/4/71 40/5/75 38/5/71
f 28/4/76 34/5/67 37/5/77
f 34/5/78 28/4/77 27/4/79
f 26/4/80 36/5/81 35/5/80
f 36/5/82 26/4/80 29/4/83
f 30/4/84 37/5/77 39/5/84
f 37/5/77 30/4/84 28/4/77
f 26/4/80 33/5/69 25/4/69
f 33/5/68 26/4/85 35/5/80
f 40/5/86 30/4/87 39/5/84
f 30/4/84 40/5/74 32/4/73
f 43/6/88 42/7/89 41/7/88
f 42/7/89 43/6/88 44/6/89
f 47/6/90 46/7/91 45/7/90
f 46/7/91 47/6/92 48/6/91
f 50/6/93 45/7/92 49/7/93
f 45/7/92 50/6/93 47/6/92
f 48/6/91 41/7/88 46/7/91
f 41/7/88 48/6/91 43/6/88
f 52/7/94 44/6/89 51/6/95
f 44/6/96 52/7/95 42/7/96
f 52/7/95 50/6/93 49/7/93
f 50/6/93 52/7/95 51/6/95
f 41/7/1 45/7/1 46/7/1
f 45/7/1 41/7/1 42/7/1
f 45/7/1 42/7/1 49/7/1
f 49/7/1 42/7/1 52/7/1
f 55/6/97 54/8/98 53/8/99
f 54/8/98 55/6/97 56/6/100
f 59/8/101 58/6/102 57/6/103
f 58/6/104 59/8/101 60/8/105
f 63/6/106 62/8/107 61/8/108
f 62/8/107 63/6/106 64/6/109
f 64/6/109 53/8/99 62/8/107
f 53/8/99 64/6/109 55/6/110
f 64/6/109 56/6/111 55/6/112
f 56/6/113 64/6/114 58/6/115
f 58/6/115 64/6/114 63/6/116
f 58/6/115 63/6/117 57/6/118
f 59/8/101 63/6/119 61/8/108
f 63/6/119 59/8/101 57/6/120
f 54/8/1 62/8/1 53/8/1
f 62/8/1 54/8/1 60/8/1
f 62/8/1 60/8/1 61/8/1
f 61/8/1 60/8/1 59/8/1
f 56/6/121 60/8/122 54/8/98
f 60/8/122 56/6/121 58/6/123
f 67/6/124 66/9/125 65/9/124
f 66/9/125 67/6/124 68/6/126
f 70/6/127 65/9/124 69/9/127
f 65/9/124 70/6/127 67/6/124
f 68/6/125 71/9/128 66/9/125
f 71/9/128 68/6/126 72/6/129
f 72/6/128 73/9/130 71/9/128
f 73/9/130 72/6/128 74/6/130
f 71/9/1 65/9/1 66/9/1
f 65/9/1 71/9/1 69/9/1
f 69/9/1 71/9/1 73/9/1
f 69/9/1 73/9/1 75/9/1
f 76/6/131 69/9/127 75/9/131
f 69/9/127 76/6/131 70/6/127
f 73/9/130 76/6/131 75/9/131
f 76/6/131 73/9/130 74/6/130
f 79/10/132 78/10/133 77/11/134
f 78/10/133 79/10/132 41/6/132
f 78/10/133 41/6/132 42/6/133
f 77/11/135 78/10/136 79/10/137
f 41/6/137 79/10/137 78/10/136
f 42/6/136 41/6/137 78/10/136
f 81/11/138 49/6/139 80/10/139
f 49/6/139 81/11/140 52/6/141
f 52/6/141 81/11/142 82/10/141
f 80/10/143 49/6/143 81/11/144
f 52/6/145 81/11/144 49/6/143
f 82/10/145 81/11/144 52/6/145
f 82/10/141 42/6/133 52/6/141
f 42/6/133 82/10/141 83/11/146
f 42/6/133 83/11/146 78/10/133
f 52/6/145 42/6/136 82/10/145
f 83/11/147 82/10/145 42/6/136
f 78/10/136 83/11/147 42/6/136
f 46/6/148 85/11/149 84/10/148
f 85/11/150 46/6/148 41/6/132
f 85/11/151 41/6/132 79/10/132
f 84/10/152 85/11/153 46/6/152
f 41/6/154 46/6/152 85/11/155
f 79/10/137 41/6/137 85/11/156
f 80/10/139 87/10/157 86/11/158
f 87/10/157 80/10/139 49/6/139
f 87/10/157 49/6/139 45/6/157
f 86/11/159 87/10/160 80/10/143
f 49/6/143 80/10/143 87/10/160
f 45/6/160 49/6/143 87/10/160
f 45/6/157 88/11/161 87/10/157
f 88/11/162 45/6/157 46/6/148
f 88/11/161 46/6/148 84/10/148
f 87/10/160 88/11/163 45/6/160
f 46/6/152 45/6/160 88/11/163
f 84/10/152 46/6/152 88/11/164
f 91/10/165 90/10/166 89/11/167
f 90/10/166 91/10/165 75/6/165
f 90/10/166 75/6/165 69/6/166
f 89/11/168 90/10/169 91/10/170
f 75/6/170 91/10/170 90/10/169
f 69/6/169 75/6/170 90/10/169
f 65/6/171 93/11/172 92/10/171
f 93/11/172 65/6/171 66/6/173
f 93/11/174 66/6/175 94/10/175
f 92/10/176 93/11/177 65/6/176
f 66/6/178 65/6/176 93/11/177
f 94/10/178 66/6/178 93/11/179
f 97/10/180 96/10/181 95/11/182
f 96/10/181 97/10/180 71/6/180
f 96/10/183 71/6/180 73/6/183
f 95/11/184 96/10/185 97/10/186
f 71/6/186 97/10/186 96/10/185
f 73/6/187 71/6/186 96/10/185
f 98/11/188 75/6/189 91/10/165
f 75/6/165 98/11/188 73/6/181
f 73/6/181 98/11/188 96/10/183
f 91/10/170 75/6/170 98/11/190
f 73/6/187 98/11/190 75/6/170
f 96/10/187 98/11/190 73/6/187
f 94/10/175 97/10/191 99/11/192
f 97/10/180 94/10/175 66/6/175
f 97/10/180 66/6/175 71/6/180
f 99/11/193 97/10/186 94/10/194
f 66/6/178 94/10/178 97/10/186
f 71/6/186 66/6/178 97/10/186
f 90/10/166 92/10/171 100/11/195
f 92/10/171 90/10/166 69/6/166
f 92/10/196 69/6/166 65/6/196
f 100/11/197 92/10/176 90/10/169
f 69/6/169 90/10/169 92/10/176
f 65/6/176 69/6/169 92/10/198
f 102/11/199 61/6/139 101/10/200
f 61/6/139 102/11/140 59/6/141
f 59/6/141 102/11/199 103/10/141
f 101/10/201 61/6/143 102/11/202
f 59/6/145 102/11/144 61/6/201
f 103/10/145 102/11/202 59/6/203
f 103/10/141 60/6/133 59/6/141
f 60/6/133 103/10/141 104/11/146
f 60/6/133 104/11/146 105/10/133
f 59/6/145 60/6/136 103/10/145
f 104/11/147 103/10/145 60/6/136
f 105/10/136 104/11/147 60/6/136
f 62/6/157 107/11/162 106/10/157
f 107/11/162 62/6/157 53/6/148
f 107/11/162 53/6/204 108/10/148
f 106/10/160 107/11/163 62/6/160
f 53/6/152 62/6/160 107/11/163
f 108/10/152 53/6/152 107/11/163
f 110/10/132 105/10/133 109/11/134
f 105/10/133 110/10/132 54/6/132
f 105/10/133 54/6/132 60/6/133
f 109/11/135 105/10/136 110/10/137
f 54/6/137 110/10/137 105/10/136
f 60/6/136 54/6/137 105/10/136
f 101/10/200 106/10/157 111/11/205
f 106/10/157 101/10/139 61/6/200
f 106/10/157 61/6/139 62/6/157
f 111/11/206 106/10/160 101/10/143
f 61/6/143 101/10/201 106/10/160
f 62/6/160 61/6/207 106/10/160
f 53/6/148 112/11/149 108/10/148
f 112/11/150 53/6/148 54/6/132
f 112/11/149 54/6/132 110/10/132
f 108/10/152 112/11/153 53/6/152
f 54/6/154 53/6/152 112/11/155
f 110/10/137 54/6/137 112/11/153
f 3/1/1 2/1/1 1/1/1
f 2/1/1 3/1/1 4/1/1
f 4/1/1 3/1/1 5/1/1
f 4/1/1 5/1/1 6/1/1
f 6/1/1 5/1/1 7/1/1
f 6/1/1 7/1/1 8/1/1
f 9/2/2 1/1/3 2/1/4
f 1/1/3 9/2/2 10/2/5
f 11/2/6 1/1/7 10/2/8
f 1/1/7 11/2/9 3/1/10
f 12/2/11 2/1/12 4/1/13
f 2/1/4 12/2/11 9/2/2
f 13/2/14 4/1/15 6/1/16
f 4/1/15 13/2/14 12/2/17
f 7/1/18 14/2/19 8/1/20
f 14/2/19 7/1/18 15/2/21
f 11/2/6 5/1/22 3/1/23
f 5/1/22 11/2/6 16/2/24
f 8/1/25 13/2/26 6/1/27
f 13/2/14 8/1/25 14/2/28
f 7/1/29 16/2/30 15/2/21
f 16/2/30 7/1/29 5/1/31
f 14/2/32 18/3/33 17/3/34
f 18/3/35 14/2/32 15/2/36
f 16/2/37 18/3/35 15/2/38
f 18/3/35 16/2/39 19/3/40
f 21/3/41 9/2/42 20/3/43
f 9/2/42 21/3/44 10/2/45
f 22/3/46 12/2/47 13/2/48
f 12/2/47 22/3/49 23/3/50
f 21/3/51 11/2/52 10/2/53
f 11/2/52 21/3/54 24/3/55
f 13/2/56 17/3/57 22/3/46
f 17/3/34 13/2/48 14/2/58
f 20/3/43 12/2/59 23/3/60
f 12/2/61 20/3/43 9/2/62
f 24/3/55 16/2/63 11/2/52
f 16/2/63 24/3/64 19/3/65
f 27/4/66 26/4/66 25/4/66
f 26/4/66 27/4/66 28/4/66
f 26/4/66 28/4/66 29/4/66
f 29/4/66 28/4/66 30/4/66
f 29/4/66 30/4/66 31/4/66
f 31/4/66 30/4/66 32/4/66
f 35/5/1 34/5/1 33/5/1
f 34/5/1 35/5/1 36/5/1
f 34/5/1 36/5/1 37/5/1
f 37/5/1 36/5/1 38/5/1
f 37/5/1 38/5/1 39/5/1
f 39/5/1 38/5/1 40/5/1
f 27/4/67 33/5/68 34/5/67
f 33/5/69 27/4/67 25/4/68
f 29/4/70 38/5/71 36/5/70
f 38/5/71 29/4/70 31/4/72
f 40/5/73 31/4/71 32/4/74
f 31/4/71 40/5/75 38/5/71
f 28/4/76 34/5/67 37/5/77
f 34/5/78 28/4/77 27/4/79
f 26/4/80 36/5/81 35/5/80
f 36/5/82 26/4/80 29/4/83
f 30/4/84 37/5/77 39/5/84
f 37/5/77 30/4/84 28/4/77
f 26/4/80 33/5/69 25/4/69
f 33/5/68 26/4/85 35/5/80
f 40/5/86 30/4/87 39/5/84
f 30/4/84 40/5/74 32/4/73
f 43/6/88 42/7/89 41/7/88
f 42/7/89 43/6/88 44/6/89
f 47/6/90 46/7/91 45/7/90
f 46/7/91 47/6/92 48/6/91
f 50/6/93 45/7/92 49/7/93
f 45/7/92 50/6/93 47/6/92
f 48/6/91 41/7/88 46/7/91
f 41/7/88 48/6/91 43/6/88
f 52/7/94 44/6/89 51/6/95
f 44/6/96 52/7/95 42/7/96
f 52/7/95 50/6/93 49/7/93
f 50/6/93 52/7/95 51/6/95
f 41/7/1 45/7/1 46/7/1
f 45/7/1 41/7/1 42/7/1
f 45/7/1 42/7/1 49/7/1
f 49/7/1 42/7/1 52/7/1
f 55/6/97 54/8/98 53/8/99
f 54/8/98 55/6/97 56/6/100
f 59/8/101 58/6/102 57/6/103
f 58/6/104 59/8/101 60/8/105
f 63/6/106 62/8/107 61/8/108
f 62/8/107 63/6/106 64/6/109
f 64/6/109 53/8/99 62/8/107
f 53/8/99 64/6/109 55/6/110
f 64/6/109 56/6/111 55/6/112
f 56/6/113 64/6/114 58/6/115
f 58/6/115 64/6/114 63/6/116
f 58/6/115 63/6/117 57/6/118
f 59/8/101 63/6/119 61/8/108
f 63/6/119 59/8/101 57/6/120
f 54/8/1 62/8/1 53/8/1
f 62/8/1 54/8/1 60/8/1
f 62/8/1 60/8/1 61/8/1
f 61/8/1 60/8/1 59/8/1
f 56/6/121 60/8/122 54/8/98
f 60/8/122 56/6/121 58/6/123
f 67/6/124 66/9/125 65/9/124
f 66/9/125 67/6/124 68/6/126
f 70/6/127 65/9/124 69/9/127
f 65/9/124 70/6/127 67/6/124
f 68/6/125 71/9/128 66/9/125
f 71/9/128 68/6/126 72/6/129
f 72/6/128 73/9/130 71/9/128
f 73/9/130 72/6/128 74/6/130
f 71/9/1 65/9/1 66/9/1
f 65/9/1 71/9/1 69/9/1
f 69/9/1 71/9/1 73/9/1
f 69/9/1 73/9/1 75/9/1
f 76/6/131 69/9/127 75/9/131
f 69/9/127 76/6/131 70/6/127
f 73/9/130 76/6/131 75/9/131
f 76/6/131 73/9/130 74/6/130
f 79/10/132 78/10/133 77/11/134
f 78/10/133 79/10/132 41/6/132
f 78/10/133 41/6/132 42/6/133
f 77/11/135 78/10/136 79/10/137
f 41/6/137 79/10/137 78/10/136
f 42/6/136 41/6/137 78/10/136
f 81/11/138 49/6/139 80/10/139
f 49/6/139 81/11/140 52/6/141
f 52/6/141 81/11/142 82/10/141
f 80/10/143 49/6/143 81/11/144
f 52/6/145 81/11/144 49/6/143
f 82/10/145 81/11/144 52/6/145
f 82/10/141 42/6/133 52/6/141
f 42/6/133 82/10/141 83/11/146
f 42/6/133 83/11/146 78/10/133
f 52/6/145 42/6/136 82/10/145
f 83/11/147 82/10/145 42/6/136
f 78/10/136 83/11/147 42/6/136
f 46/6/148 85/11/149 84/10/148
f 85/11/150 46/6/148 41/6/132
f 85/11/151 41/6/132 79/10/132
f 84/10/152 85/11/153 46/6/152
f 41/6/154 46/6/152 85/11/155
f 79/10/137 41/6/137 85/11/156
f 80/10/139 87/10/157 86/11/158
f 87/10/157 80/10/139 49/6/139
f 87/10/157 49/6/139 45/6/157
f 86/11/159 87/10/160 80/10/143
f 49/6/143 80/10/143 87/10/160
f 45/6/160 49/6/143 87/10/160
f 45/6/157 88/11/161 87/10/157
f 88/11/162 45/6/157 46/6/148
f 88/11/161 46/6/148 84/10/148
f 87/10/160 88/11/163 45/6/160
f 46/6/152 45/6/160 88/11/163
f 84/10/152 46/6/152 88/11/164
f 91/10/165 90/10/166 89/11/167
f 90/10/166 91/10/165 75/6/165
f 90/10/166 75/6/165 69/6/166
f 89/11/168 90/10/169 91/10/170
f 75/6/170 91/10/170 90/10/169
f 69/6/169 75/6/170 90/10/169
f 65/6/171 93/11/172 92/10/171
f 93/11/172 65/6/171 66/6/173
f 93/11/174 66/6/175 94/10/175
f 92/10/176 93/11/177 65/6/176
f 66/6/178 65/6/176 93/11/177
f 94/10/178 66/6/178 93/11/179
f 97/10/180 96/10/181 95/11/182
f 96/10/181 97/10/180 71/6/180
f 96/10/183 71/6/180 73/6/183
f 95/11/184 96/10/185 97/10/186
f 71/6/186 97/10/186 96/10/185
f 73/6/187 71/6/186 96/10/185
f 98/11/188 75/6/189 91/10/165
f 75/6/165 98/11/188 73/6/181
f 73/6/181 98/11/188 96/10/183
f 91/10/170 75/6/170 98/11/190
f 73/6/187 98/11/190 75/6/170
f 96/10/187 98/11/190 73/6/187
f 94/10/175 97/10/191 99/11/192
f 97/10/180 94/10/175 66/6/175
f 97/10/180 66/6/175 71/6/180
f 99/11/193 97/10/186 94/10/194
f 66/6/178 94/10/178 97/10/186
f 71/6/186 66/6/178 97/10/186
f 90/10/166 92/10/171 100/11/195
f 92/10/171 90/10/166 69/6/166
f 92/10/196 69/6/166 65/6/196
f 100/11/197 92/10/176 90/10/169
f 69/6/169 90/10/169 92/10/176
f 65/6/176 69/6/169 92/10/198
f 102/11/199 61/6/139 101/10/200
f 61/6/139 102/11/140 59/6/141
f 59/6/141 102/11/199 103/10/141
f 101/10/201 61/6/143 102/11/202
f 59/6/145 102/11/144 61/6/201
f 103/10/145 102/11/202 59/6/203
f 103/10/141 60/6/133 59/6/141
f 60/6/133 103/10/141 104/11/146
f 60/6/133 104/11/146 105/10/133
f 59/6/145 60/6/136 103/10/145
f 104/11/147 103/10/145 60/6/136
f 105/10/136 104/11/147 60/6/136
f 62/6/157 107/11/162 106/10/157
f 107/11/162 62/6/157 53/6/148
f 107/11/162 53/6/204 108/10/148
f 106/10/160 107/11/163 62/6/160
f 53/6/152 62/6/160 107/11/163
f 108/10/152 53/6/152 107/11/163
f 110/10/132 105/10/133 109/11/134
f 105/10/133 110/10/132 54/6/132
f 105/10/133 54/6/132 60/6/133
f 109/11/135 105/10/136 110/10/137
f 54/6/137 110/10/137 105/10/136
f 60/6/136 54/6/137 105/10/136
f 101/10/200 106/10/157 111/11/205
f 106/10/157 101/10/139 61/6/200
f 106/10/157 61/6/139 62/6/157
f 111/11/206 106/10/160 101/10/143
f 61/6/143 101/10/201 106/10/160
f 62/6/160 61/6/207 106/10/160
f 53/6/148 112/11/149 108/10/148
f 112/11/150 53/6/148 54/6/132
f 112/11/149 54/6/132 110/10/132
f 108/10/152 112/11/153 53/6/152
f 54/6/154 53/6/152 112/11/155
f 110/10/137 54/6/137 112/11/153
