# Blender 4.1.1
# www.blender.org
mtllib tree.028.mtl
o tree.028
v -7.280366 -0.382804 10.865858
v -7.076390 -0.382804 10.728025
v -7.451271 -0.382804 10.832786
v -7.043318 -0.382804 10.557120
v -7.589104 -0.382804 10.628810
v -7.181151 -0.382804 10.353145
v -7.556032 -0.382804 10.457905
v -7.352055 -0.382804 10.320072
v -7.196301 0.062918 10.660495
v -7.298288 0.062918 10.729411
v -7.383741 0.062918 10.712875
v -7.179764 0.062918 10.575043
v -7.248681 0.062918 10.473055
v -7.334133 0.062918 10.456519
v -7.436121 0.062918 10.525435
v -7.452657 0.062918 10.610888
v -7.338614 0.731552 10.422407
v -7.466099 0.731552 10.508553
v -7.486769 0.731552 10.615368
v -7.166323 0.731552 10.677378
v -7.293808 0.731552 10.763523
v -7.231798 0.731552 10.443077
v -7.145653 0.731552 10.570562
v -7.400623 0.731552 10.742853
v -7.152447 0.222058 10.727855
v -7.247081 0.222058 10.747191
v -7.099203 0.222058 10.647265
v -7.118539 0.222058 10.552631
v -7.327671 0.222058 10.693948
v -7.199129 0.222058 10.499388
v -7.347007 0.222058 10.599313
v -7.293763 0.222058 10.518724
v -7.112425 0.060318 10.787083
v -7.029024 0.060318 10.660847
v -7.260662 0.060318 10.817371
v -7.386898 0.060318 10.733969
v -7.059312 0.060318 10.512609
v -7.417186 0.060318 10.585732
v -7.185548 0.060318 10.429208
v -7.333785 0.060318 10.459496
v -7.591184 0.731552 11.134327
v -7.934436 0.731552 10.626354
v -7.481186 1.468507 10.908317
v -7.683706 1.468507 10.608610
v -6.711349 0.731552 10.539798
v -6.979641 0.731552 11.091049
v -6.962080 1.468507 10.557542
v -7.120373 1.468507 10.882782
v -7.054601 0.731552 10.031825
v -7.164600 1.468507 10.257835
v -7.525413 1.468507 10.283370
v -7.666145 0.731552 10.075103
v -7.124973 2.260255 10.875974
v -7.477590 2.260255 10.900928
v -7.277401 3.090716 10.650398
v -7.358449 3.090716 10.656134
v -7.368384 3.090716 10.515755
v -7.403941 3.090716 10.588812
v -7.520812 2.260255 10.290178
v -7.675509 2.260255 10.608030
v -7.168195 2.260255 10.265224
v -6.970276 2.260255 10.558122
v -7.287336 3.090716 10.510018
v -7.241845 3.090716 10.577340
v -6.874721 1.468507 10.801199
v -7.287707 1.468507 11.080266
v -7.117536 2.260255 10.683022
v -7.306770 2.260255 10.810894
v -6.909907 1.468507 10.304009
v -7.133658 2.260255 10.455205
v -7.735879 1.468507 10.862143
v -7.512127 2.260255 10.710948
v -7.771065 1.468507 10.364953
v -7.528250 2.260255 10.483130
v -7.358078 1.468507 10.085886
v -7.339015 2.260255 10.355258
v -7.859592 0.501650 10.945740
v -8.001706 0.616601 10.631115
v -7.620697 0.616601 11.194965
v -7.025089 0.616601 9.971188
v -7.368619 0.501649 9.936950
v -7.703902 0.616601 10.019226
v -7.905318 0.501649 10.299612
v -6.941883 0.616601 11.146926
v -7.277167 0.501649 11.229203
v -6.786194 0.501649 10.220413
v -6.644080 0.616601 10.535037
v -6.740468 0.501649 10.866540
v -7.092434 1.281595 10.109560
v -6.864478 1.375051 10.273313
v -7.361949 1.375051 10.031196
v -6.825422 1.375051 10.825193
v -7.028045 1.281595 11.019417
v -7.283837 1.375051 11.134956
v -7.848199 1.281595 10.620252
v -7.820364 1.375051 10.340960
v -7.781307 1.375051 10.892840
v -7.617741 1.281595 10.146735
v -7.553351 1.281595 11.056593
v -6.797586 1.281595 10.545900
v -7.151179 2.193974 10.230260
v -7.349258 2.127692 10.210519
v -7.542583 2.193974 10.257959
v -7.658720 2.127692 10.419631
v -7.714297 2.193974 10.610776
v -6.931488 2.193974 10.555377
v -6.987066 2.127692 10.746522
v -7.103202 2.193974 10.908193
v -7.632354 2.127692 10.792189
v -7.494607 2.193974 10.935892
v -7.013431 2.127692 10.373964
v -7.296527 2.127692 10.955634
vn -0.0000 -1.0000 -0.0000
vn 0.7944 0.2942 0.5314
vn 0.1870 0.2944 0.9372
vn 0.7998 0.2944 0.5232
vn 0.1967 0.2942 0.9353
vn -0.5313 0.2942 0.7944
vn 0.1966 0.2942 0.9353
vn -0.5231 0.2944 0.7998
vn 0.9353 0.2942 -0.1966
vn 0.7998 0.2944 0.5231
vn 0.9372 0.2944 -0.1870
vn 0.7944 0.2942 0.5313
vn 0.5314 0.2942 -0.7944
vn 0.5231 0.2944 -0.7998
vn 0.9353 0.2942 -0.1967
vn -0.7998 0.2944 -0.5232
vn -0.1967 0.2942 -0.9353
vn -0.1870 0.2944 -0.9372
vn -0.7944 0.2942 -0.5314
vn -0.5314 0.2942 0.7944
vn -0.9372 0.2944 0.1870
vn -0.9353 0.2942 0.1967
vn 0.5313 0.2942 -0.7944
vn -0.1966 0.2942 -0.9353
vn -0.7998 0.2944 -0.5231
vn -0.9353 0.2942 0.1966
vn -0.7944 0.2942 -0.5313
vn -0.2008 -0.0513 -0.9783
vn -0.8337 -0.0512 -0.5498
vn -0.1991 -0.0513 -0.9786
vn -0.8337 -0.0513 -0.5498
vn -0.2009 -0.0513 -0.9783
vn -0.8327 -0.0513 -0.5513
vn -0.9783 -0.0512 0.2008
vn -0.8328 -0.0512 -0.5513
vn -0.9783 -0.0513 0.2008
vn -0.9786 -0.0512 0.1991
vn 0.1991 -0.0512 0.9786
vn 0.8327 -0.0513 0.5513
vn 0.8337 -0.0513 0.5498
vn 0.2009 -0.0513 0.9783
vn 0.5498 -0.0513 -0.8337
vn 0.9783 -0.0513 -0.2008
vn 0.5513 -0.0513 -0.8327
vn 0.9783 -0.0513 -0.2009
vn 0.5498 -0.0512 -0.8337
vn 0.9786 -0.0513 -0.1991
vn 0.1991 -0.0513 0.9786
vn -0.5512 -0.0513 0.8328
vn 0.2008 -0.0512 0.9783
vn -0.5513 -0.0513 0.8328
vn -0.5498 -0.0513 0.8337
vn 0.5513 -0.0513 -0.8328
vn -0.1991 -0.0512 -0.9786
vn 0.5512 -0.0513 -0.8328
vn -0.2008 -0.0512 -0.9783
vn 0.9786 -0.0512 -0.1991
vn 0.9783 -0.0512 -0.2008
vn 0.8328 -0.0512 0.5513
vn -0.5513 -0.0513 0.8327
vn -0.9783 -0.0513 0.2009
vn -0.5498 -0.0512 0.8337
vn -0.9786 -0.0513 0.1991
vn -0.0000 1.0000 -0.0000
vn 0.8980 0.4042 0.1738
vn 0.5121 0.4042 0.7578
vn 0.5121 0.4043 0.7578
vn -0.7579 0.4042 0.5121
vn -0.8980 0.4042 -0.1738
vn -0.8980 0.4043 -0.1738
vn -0.5121 0.4042 -0.7579
vn -0.5121 0.4043 -0.7578
vn -0.5121 0.4042 -0.7578
vn 0.7579 0.4042 -0.5121
vn 0.8980 0.4043 0.1738
vn -0.1738 0.4042 0.8980
vn -0.7578 0.4042 0.5121
vn 0.1738 0.4042 -0.8980
vn 0.7578 0.4042 -0.5121
vn 0.7578 0.4043 -0.5121
vn -0.1737 0.4042 0.8980
vn 0.5121 0.4043 0.7579
vn 0.5121 0.4042 0.7579
vn 0.1737 0.4042 -0.8980
vn -0.5121 0.4043 -0.7579
vn -0.4142 0.3228 0.8510
vn -0.9441 0.3228 0.0668
vn 0.9441 0.3228 -0.0668
vn 0.5299 0.3228 0.7842
vn 0.4142 0.3228 -0.8510
vn -0.5299 0.3228 -0.7842
vn 0.3851 0.7260 0.5698
vn -0.4158 0.3115 0.8544
vn 0.5320 0.3115 0.7874
vn -0.3010 0.7260 0.6184
vn -0.5320 0.3115 -0.7873
vn -0.6860 0.7260 0.0486
vn -0.3850 0.7260 -0.5699
vn -0.9479 0.3115 0.0671
vn 0.3009 0.7260 -0.6184
vn 0.9479 0.3115 -0.0671
vn 0.4159 0.3115 -0.8544
vn 0.6860 0.7260 -0.0485
vn 0.6860 0.7260 -0.0486
vn 0.5320 0.3115 0.7873
vn 0.3850 0.7260 0.5699
vn 0.6860 0.7259 -0.0485
vn -0.3009 0.7260 0.6184
vn 0.3850 0.7259 0.5699
vn -0.3010 0.7259 0.6184
vn -0.6860 0.7259 0.0485
vn -0.6860 0.7260 0.0485
vn 0.3010 0.7259 -0.6184
vn 0.3009 0.7259 -0.6184
vn -0.3850 0.7259 -0.5699
vn -0.5320 0.3116 -0.7873
vn 0.3010 0.7260 -0.6184
vn 0.4158 0.3115 -0.8544
vn -0.3850 0.7260 -0.5698
vn -0.4159 0.3115 0.8544
vn 0.8510 0.3228 0.4142
vn 0.0668 0.3228 0.9441
vn 0.7842 0.3228 -0.5299
vn -0.7842 0.3228 0.5299
vn -0.8510 0.3228 -0.4142
vn -0.0668 0.3228 -0.9441
vn -0.3775 0.5060 0.7755
vn -0.8604 0.5060 0.0609
vn -0.7387 0.4530 0.4992
vn 0.7387 -0.4530 -0.4992
vn 0.8604 -0.5060 -0.0609
vn 0.3775 -0.5060 -0.7755
vn 0.3774 -0.5060 -0.7755
vn -0.0629 0.4530 -0.8893
vn 0.3774 0.5060 -0.7755
vn 0.3775 0.5060 -0.7756
vn -0.4829 0.5060 -0.7147
vn -0.0629 0.4529 -0.8893
vn -0.3775 -0.5060 0.7756
vn -0.3775 -0.5060 0.7755
vn 0.0629 -0.4530 0.8893
vn 0.4829 -0.5060 0.7147
vn 0.0629 -0.4529 0.8893
vn -0.8016 0.4530 -0.3902
vn -0.8016 0.4530 -0.3901
vn 0.8016 -0.4530 0.3902
vn 0.8016 -0.4530 0.3901
vn 0.4829 0.5060 0.7146
vn 0.0629 0.4530 0.8893
vn 0.4829 0.5060 0.7147
vn -0.3774 0.5060 0.7755
vn -0.3774 0.5061 0.7755
vn -0.4829 -0.5060 -0.7147
vn -0.0629 -0.4530 -0.8893
vn -0.4829 -0.5060 -0.7146
vn 0.3775 -0.5060 -0.7756
vn 0.3775 0.5060 -0.7755
vn 0.8604 0.5060 -0.0609
vn 0.7387 0.4530 -0.4992
vn -0.7387 -0.4530 0.4992
vn -0.8604 -0.5060 0.0609
vn -0.3774 -0.5060 0.7755
vn 0.8016 0.4530 0.3901
vn 0.8016 0.4530 0.3902
vn -0.8016 -0.4530 -0.3901
vn -0.8016 -0.4530 -0.3902
vn -0.0609 0.5060 -0.8604
vn 0.7147 0.5060 -0.4829
vn 0.3902 0.4530 -0.8016
vn -0.3902 -0.4530 0.8016
vn -0.7147 -0.5060 0.4829
vn 0.0609 -0.5060 0.8604
vn 0.7755 0.5060 0.3775
vn 0.4992 0.4530 0.7387
vn 0.7756 0.5060 0.3775
vn 0.0609 0.5060 0.8604
vn -0.7755 -0.5060 -0.3775
vn -0.4992 -0.4530 -0.7387
vn -0.7755 -0.5060 -0.3774
vn -0.0609 -0.5060 -0.8604
vn -0.7147 0.5060 0.4829
vn -0.7755 0.5060 -0.3775
vn -0.8893 0.4530 0.0629
vn -0.7756 0.5060 -0.3775
vn 0.8893 -0.4530 -0.0629
vn 0.7756 -0.5060 0.3775
vn 0.7147 -0.5060 -0.4829
vn -0.4992 0.4530 -0.7387
vn -0.7755 0.5060 -0.3774
vn 0.4992 -0.4530 0.7387
vn 0.7755 -0.5060 0.3775
vn -0.3902 0.4530 0.8016
vn 0.3902 -0.4530 -0.8016
vn 0.7755 0.5060 0.3774
vn 0.8893 0.4530 -0.0629
vn -0.8893 -0.4530 0.0629
vn -0.7756 -0.5060 -0.3775
vn -0.7387 0.4529 0.4992
vn -0.3775 0.5060 0.7756
vn 0.7387 -0.4529 -0.4992
vn 0.0629 0.4529 0.8893
vn -0.3774 0.5060 0.7756
vn -0.0629 -0.4529 -0.8893
vt 0.593750 0.025000
vt 0.593750 0.104996
vt 0.593750 0.225000
vt 0.093750 0.475000
vt 0.093750 0.275000
vt 0.093750 0.425000
vt 0.093750 0.348778
vt 0.093750 0.338765
vt 0.093750 0.344099
vt 0.093750 0.375000
vt 0.093750 0.325000
s 0
usemtl colormap.031
f 3/1/1 2/1/1 1/1/1
f 2/1/1 3/1/1 4/1/1
f 4/1/1 3/1/1 5/1/1
f 4/1/1 5/1/1 6/1/1
f 6/1/1 5/1/1 7/1/1
f 6/1/1 7/1/1 8/1/1
f 9/2/2 1/1/3 2/1/4
f 1/1/3 9/2/2 10/2/5
f 11/2/6 1/1/3 10/2/7
f 1/1/3 11/2/6 3/1/8
f 12/2/9 2/1/10 4/1/11
f 2/1/10 12/2/9 9/2/12
f 13/2/13 4/1/11 6/1/14
f 4/1/11 13/2/13 12/2/15
f 7/1/16 14/2/17 8/1/18
f 14/2/17 7/1/16 15/2/19
f 11/2/20 5/1/21 3/1/8
f 5/1/21 11/2/20 16/2/22
f 8/1/18 13/2/23 6/1/14
f 13/2/23 8/1/18 14/2/24
f 7/1/25 16/2/26 15/2/27
f 16/2/26 7/1/25 5/1/21
f 14/2/28 18/3/29 17/3/30
f 18/3/31 14/2/32 15/2/33
f 16/2/34 18/3/31 15/2/35
f 18/3/31 16/2/36 19/3/37
f 21/3/38 9/2/39 20/3/40
f 9/2/39 21/3/38 10/2/41
f 22/3/42 12/2/43 13/2/44
f 12/2/45 22/3/46 23/3/47
f 21/3/48 11/2/49 10/2/50
f 11/2/51 21/3/38 24/3/52
f 13/2/53 17/3/54 22/3/42
f 17/3/30 13/2/55 14/2/56
f 20/3/40 12/2/43 23/3/57
f 12/2/58 20/3/40 9/2/59
f 24/3/52 16/2/36 11/2/60
f 16/2/61 24/3/62 19/3/63
f 27/4/64 26/4/64 25/4/64
f 26/4/64 27/4/64 28/4/64
f 26/4/64 28/4/64 29/4/64
f 29/4/64 28/4/64 30/4/64
f 29/4/64 30/4/64 31/4/64
f 31/4/64 30/4/64 32/4/64
f 35/5/1 34/5/1 33/5/1
f 34/5/1 35/5/1 36/5/1
f 34/5/1 36/5/1 37/5/1
f 37/5/1 36/5/1 38/5/1
f 37/5/1 38/5/1 39/5/1
f 39/5/1 38/5/1 40/5/1
f 27/4/65 33/5/66 34/5/65
f 33/5/66 27/4/65 25/4/67
f 29/4/68 38/5/69 36/5/68
f 38/5/69 29/4/68 31/4/70
f 40/5/71 31/4/69 32/4/72
f 31/4/69 40/5/73 38/5/69
f 28/4/74 34/5/65 37/5/74
f 34/5/65 28/4/74 27/4/75
f 26/4/76 36/5/77 35/5/76
f 36/5/68 26/4/76 29/4/77
f 30/4/78 37/5/79 39/5/78
f 37/5/79 30/4/78 28/4/80
f 26/4/81 33/5/82 25/4/83
f 33/5/83 26/4/81 35/5/81
f 40/5/71 30/4/84 39/5/84
f 30/4/84 40/5/85 32/4/71
f 43/6/86 42/7/87 41/7/86
f 42/7/87 43/6/86 44/6/87
f 47/6/88 46/7/89 45/7/88
f 46/7/89 47/6/88 48/6/89
f 50/6/90 45/7/88 49/7/90
f 45/7/88 50/6/90 47/6/88
f 48/6/89 41/7/86 46/7/89
f 41/7/86 48/6/89 43/6/86
f 52/7/91 44/6/87 51/6/91
f 44/6/87 52/7/91 42/7/87
f 52/7/91 50/6/90 49/7/90
f 50/6/90 52/7/91 51/6/91
f 41/7/1 45/7/1 46/7/1
f 45/7/1 41/7/1 42/7/1
f 45/7/1 42/7/1 49/7/1
f 49/7/1 42/7/1 52/7/1
f 55/6/92 54/8/93 53/8/94
f 54/8/93 55/6/92 56/6/95
f 59/8/96 58/6/97 57/6/98
f 58/6/97 59/8/96 60/8/99
f 63/6/100 62/8/101 61/8/102
f 62/8/101 63/6/100 64/6/103
f 64/6/104 53/8/105 62/8/101
f 53/8/105 64/6/104 55/6/106
f 64/6/107 56/6/108 55/6/109
f 56/6/110 64/6/107 58/6/111
f 58/6/112 64/6/107 63/6/113
f 58/6/111 63/6/114 57/6/115
f 59/8/116 63/6/117 61/8/118
f 63/6/100 59/8/96 57/6/119
f 54/8/1 62/8/1 53/8/1
f 62/8/1 54/8/1 60/8/1
f 62/8/1 60/8/1 61/8/1
f 61/8/1 60/8/1 59/8/1
f 56/6/108 60/8/99 54/8/120
f 60/8/99 56/6/108 58/6/112
f 67/6/121 66/9/122 65/9/121
f 66/9/122 67/6/121 68/6/122
f 70/6/123 65/9/121 69/9/123
f 65/9/121 70/6/123 67/6/121
f 68/6/122 71/9/124 66/9/122
f 71/9/124 68/6/122 72/6/124
f 72/6/124 73/9/125 71/9/124
f 73/9/125 72/6/124 74/6/125
f 71/9/1 65/9/1 66/9/1
f 65/9/1 71/9/1 69/9/1
f 69/9/1 71/9/1 73/9/1
f 69/9/1 73/9/1 75/9/1
f 76/6/126 69/9/123 75/9/126
f 69/9/123 76/6/126 70/6/123
f 73/9/125 76/6/126 75/9/126
f 76/6/126 73/9/125 74/6/125
f 79/10/127 78/10/128 77/11/129
f 78/10/128 79/10/127 41/6/127
f 78/10/128 41/6/127 42/6/128
f 77/11/130 78/10/131 79/10/132
f 41/6/132 79/10/132 78/10/131
f 42/6/131 41/6/133 78/10/131
f 81/11/134 49/6/135 80/10/136
f 49/6/135 81/11/134 52/6/137
f 52/6/137 81/11/138 82/10/137
f 80/10/139 49/6/140 81/11/141
f 52/6/142 81/11/141 49/6/139
f 82/10/142 81/11/143 52/6/142
f 82/10/137 42/6/128 52/6/137
f 42/6/128 82/10/137 83/11/144
f 42/6/128 83/11/145 78/10/128
f 52/6/142 42/6/131 82/10/142
f 83/11/146 82/10/142 42/6/131
f 78/10/131 83/11/147 42/6/131
f 46/6/148 85/11/149 84/10/150
f 85/11/149 46/6/150 41/6/151
f 85/11/149 41/6/152 79/10/127
f 84/10/153 85/11/154 46/6/155
f 41/6/156 46/6/153 85/11/154
f 79/10/156 41/6/132 85/11/154
f 80/10/157 87/10/158 86/11/159
f 87/10/158 80/10/136 49/6/136
f 87/10/158 49/6/136 45/6/158
f 86/11/160 87/10/161 80/10/140
f 49/6/140 80/10/139 87/10/161
f 45/6/161 49/6/162 87/10/161
f 45/6/158 88/11/163 87/10/158
f 88/11/164 45/6/158 46/6/148
f 88/11/163 46/6/148 84/10/150
f 87/10/161 88/11/165 45/6/161
f 46/6/153 45/6/161 88/11/166
f 84/10/153 46/6/153 88/11/165
f 91/10/167 90/10/168 89/11/169
f 90/10/168 91/10/167 75/6/167
f 90/10/168 75/6/167 69/6/168
f 89/11/170 90/10/171 91/10/172
f 75/6/172 91/10/172 90/10/171
f 69/6/171 75/6/172 90/10/171
f 65/6/173 93/11/174 92/10/175
f 93/11/174 65/6/175 66/6/176
f 93/11/174 66/6/176 94/10/176
f 92/10/177 93/11/178 65/6/179
f 66/6/180 65/6/177 93/11/178
f 94/10/180 66/6/180 93/11/178
f 97/10/181 96/10/182 95/11/183
f 96/10/184 97/10/181 71/6/181
f 96/10/184 71/6/181 73/6/184
f 95/11/185 96/10/186 97/10/187
f 71/6/187 97/10/187 96/10/186
f 73/6/186 71/6/187 96/10/186
f 98/11/188 75/6/167 91/10/167
f 75/6/167 98/11/188 73/6/184
f 73/6/189 98/11/188 96/10/184
f 91/10/172 75/6/172 98/11/190
f 73/6/191 98/11/190 75/6/172
f 96/10/191 98/11/190 73/6/191
f 94/10/176 97/10/181 99/11/192
f 97/10/181 94/10/176 66/6/176
f 97/10/181 66/6/176 71/6/181
f 99/11/193 97/10/187 94/10/180
f 66/6/180 94/10/180 97/10/187
f 71/6/187 66/6/180 97/10/187
f 90/10/168 92/10/194 100/11/195
f 92/10/175 90/10/168 69/6/168
f 92/10/175 69/6/168 65/6/175
f 100/11/196 92/10/197 90/10/171
f 69/6/171 90/10/171 92/10/197
f 65/6/197 69/6/171 92/10/197
f 102/11/134 61/6/135 101/10/136
f 61/6/135 102/11/138 59/6/137
f 59/6/137 102/11/134 103/10/137
f 101/10/139 61/6/140 102/11/141
f 59/6/142 102/11/143 61/6/139
f 103/10/142 102/11/141 59/6/142
f 103/10/137 60/6/128 59/6/137
f 60/6/128 103/10/137 104/11/144
f 60/6/128 104/11/144 105/10/128
f 59/6/142 60/6/131 103/10/142
f 104/11/146 103/10/142 60/6/131
f 105/10/131 104/11/147 60/6/131
f 62/6/158 107/11/164 106/10/158
f 107/11/163 62/6/158 53/6/148
f 107/11/163 53/6/148 108/10/150
f 106/10/161 107/11/166 62/6/161
f 53/6/153 62/6/161 107/11/166
f 108/10/153 53/6/155 107/11/165
f 110/10/127 105/10/128 109/11/198
f 105/10/128 110/10/151 54/6/151
f 105/10/128 54/6/199 60/6/128
f 109/11/200 105/10/131 110/10/132
f 54/6/133 110/10/133 105/10/131
f 60/6/131 54/6/132 105/10/131
f 101/10/157 106/10/158 111/11/159
f 106/10/158 101/10/136 61/6/136
f 106/10/158 61/6/136 62/6/158
f 111/11/160 106/10/161 101/10/140
f 61/6/139 101/10/139 106/10/161
f 62/6/161 61/6/140 106/10/161
f 53/6/150 112/11/149 108/10/150
f 112/11/149 53/6/150 54/6/152
f 112/11/201 54/6/202 110/10/199
f 108/10/153 112/11/154 53/6/155
f 54/6/156 53/6/153 112/11/154
f 110/10/156 54/6/156 112/11/203
f 3/1/1 2/1/1 1/1/1
f 2/1/1 3/1/1 4/1/1
f 4/1/1 3/1/1 5/1/1
f 4/1/1 5/1/1 6/1/1
f 6/1/1 5/1/1 7/1/1
f 6/1/1 7/1/1 8/1/1
f 9/2/2 1/1/3 2/1/4
f 1/1/3 9/2/2 10/2/5
f 11/2/6 1/1/3 10/2/7
f 1/1/3 11/2/6 3/1/8
f 12/2/9 2/1/10 4/1/11
f 2/1/10 12/2/9 9/2/12
f 13/2/13 4/1/11 6/1/14
f 4/1/11 13/2/13 12/2/15
f 7/1/16 14/2/17 8/1/18
f 14/2/17 7/1/16 15/2/19
f 11/2/20 5/1/21 3/1/8
f 5/1/21 11/2/20 16/2/22
f 8/1/18 13/2/23 6/1/14
f 13/2/23 8/1/18 14/2/24
f 7/1/25 16/2/26 15/2/27
f 16/2/26 7/1/25 5/1/21
f 14/2/28 18/3/29 17/3/30
f 18/3/31 14/2/32 15/2/33
f 16/2/34 18/3/31 15/2/35
f 18/3/31 16/2/36 19/3/37
f 21/3/38 9/2/39 20/3/40
f 9/2/39 21/3/38 10/2/41
f 22/3/42 12/2/43 13/2/44
f 12/2/45 22/3/46 23/3/47
f 21/3/48 11/2/49 10/2/50
f 11/2/51 21/3/38 24/3/52
f 13/2/53 17/3/54 22/3/42
f 17/3/30 13/2/55 14/2/56
f 20/3/40 12/2/43 23/3/57
f 12/2/58 20/3/40 9/2/59
f 24/3/52 16/2/36 11/2/60
f 16/2/61 24/3/62 19/3/63
f 27/4/64 26/4/64 25/4/64
f 26/4/64 27/4/64 28/4/64
f 26/4/64 28/4/64 29/4/64
f 29/4/64 28/4/64 30/4/64
f 29/4/64 30/4/64 31/4/64
f 31/4/64 30/4/64 32/4/64
f 35/5/1 34/5/1 33/5/1
f 34/5/1 35/5/1 36/5/1
f 34/5/1 36/5/1 37/5/1
f 37/5/1 36/5/1 38/5/1
f 37/5/1 38/5/1 39/5/1
f 39/5/1 38/5/1 40/5/1
f 27/4/65 33/5/66 34/5/65
f 33/5/66 27/4/65 25/4/67
f 29/4/68 38/5/69 36/5/68
f 38/5/69 29/4/68 31/4/70
f 40/5/71 31/4/69 32/4/72
f 31/4/69 40/5/73 38/5/69
f 28/4/74 34/5/65 37/5/74
f 34/5/65 28/4/74 27/4/75
f 26/4/76 36/5/77 35/5/76
f 36/5/68 26/4/76 29/4/77
f 30/4/78 37/5/79 39/5/78
f 37/5/79 30/4/78 28/4/80
f 26/4/81 33/5/82 25/4/83
f 33/5/83 26/4/81 35/5/81
f 40/5/71 30/4/84 39/5/84
f 30/4/84 40/5/85 32/4/71
f 43/6/86 42/7/87 41/7/86
f 42/7/87 43/6/86 44/6/87
f 47/6/88 46/7/89 45/7/88
f 46/7/89 47/6/88 48/6/89
f 50/6/90 45/7/88 49/7/90
f 45/7/88 50/6/90 47/6/88
f 48/6/89 41/7/86 46/7/89
f 41/7/86 48/6/89 43/6/86
f 52/7/91 44/6/87 51/6/91
f 44/6/87 52/7/91 42/7/87
f 52/7/91 50/6/90 49/7/90
f 50/6/90 52/7/91 51/6/91
f 41/7/1 45/7/1 46/7/1
f 45/7/1 41/7/1 42/7/1
f 45/7/1 42/7/1 49/7/1
f 49/7/1 42/7/1 52/7/1
f 55/6/92 54/8/93 53/8/94
f 54/8/93 55/6/92 56/6/95
f 59/8/96 58/6/97 57/6/98
f 58/6/97 59/8/96 60/8/99
f 63/6/100 62/8/101 61/8/102
f 62/8/101 63/6/100 64/6/103
f 64/6/104 53/8/105 62/8/101
f 53/8/105 64/6/104 55/6/106
f 64/6/107 56/6/108 55/6/109
f 56/6/110 64/6/107 58/6/111
f 58/6/112 64/6/107 63/6/113
f 58/6/111 63/6/114 57/6/115
f 59/8/116 63/6/117 61/8/118
f 63/6/100 59/8/96 57/6/119
f 54/8/1 62/8/1 53/8/1
f 62/8/1 54/8/1 60/8/1
f 62/8/1 60/8/1 61/8/1
f 61/8/1 60/8/1 59/8/1
f 56/6/108 60/8/99 54/8/120
f 60/8/99 56/6/108 58/6/112
f 67/6/121 66/9/122 65/9/121
f 66/9/122 67/6/121 68/6/122
f 70/6/123 65/9/121 69/9/123
f 65/9/121 70/6/123 67/6/121
f 68/6/122 71/9/124 66/9/122
f 71/9/124 68/6/122 72/6/124
f 72/6/124 73/9/125 71/9/124
f 73/9/125 72/6/124 74/6/125
f 71/9/1 65/9/1 66/9/1
f 65/9/1 71/9/1 69/9/1
f 69/9/1 71/9/1 73/9/1
f 69/9/1 73/9/1 75/9/1
f 76/6/126 69/9/123 75/9/126
f 69/9/123 76/6/126 70/6/123
f 73/9/125 76/6/126 75/9/126
f 76/6/126 73/9/125 74/6/125
f 79/10/127 78/10/128 77/11/129
f 78/10/128 79/10/127 41/6/127
f 78/10/128 41/6/127 42/6/128
f 77/11/130 78/10/131 79/10/132
f 41/6/132 79/10/132 78/10/131
f 42/6/131 41/6/133 78/10/131
f 81/11/134 49/6/135 80/10/136
f 49/6/135 81/11/134 52/6/137
f 52/6/137 81/11/138 82/10/137
f 80/10/139 49/6/140 81/11/141
f 52/6/142 81/11/141 49/6/139
f 82/10/142 81/11/143 52/6/142
f 82/10/137 42/6/128 52/6/137
f 42/6/128 82/10/137 83/11/144
f 42/6/128 83/11/145 78/10/128
f 52/6/142 42/6/131 82/10/142
f 83/11/146 82/10/142 42/6/131
f 78/10/131 83/11/147 42/6/131
f 46/6/148 85/11/149 84/10/150
f 85/11/149 46/6/150 41/6/151
f 85/11/149 41/6/152 79/10/127
f 84/10/153 85/11/154 46/6/155
f 41/6/156 46/6/153 85/11/154
f 79/10/156 41/6/132 85/11/154
f 80/10/157 87/10/158 86/11/159
f 87/10/158 80/10/136 49/6/136
f 87/10/158 49/6/136 45/6/158
f 86/11/160 87/10/161 80/10/140
f 49/6/140 80/10/139 87/10/161
f 45/6/161 49/6/162 87/10/161
f 45/6/158 88/11/163 87/10/158
f 88/11/164 45/6/158 46/6/148
f 88/11/163 46/6/148 84/10/150
f 87/10/161 88/11/165 45/6/161
f 46/6/153 45/6/161 88/11/166
f 84/10/153 46/6/153 88/11/165
f 91/10/167 90/10/168 89/11/169
f 90/10/168 91/10/167 75/6/167
f 90/10/168 75/6/167 69/6/168
f 89/11/170 90/10/171 91/10/172
f 75/6/172 91/10/172 90/10/171
f 69/6/171 75/6/172 90/10/171
f 65/6/173 93/11/174 92/10/175
f 93/11/174 65/6/175 66/6/176
f 93/11/174 66/6/176 94/10/176
f 92/10/177 93/11/178 65/6/179
f 66/6/180 65/6/177 93/11/178
f 94/10/180 66/6/180 93/11/178
f 97/10/181 96/10/182 95/11/183
f 96/10/184 97/10/181 71/6/181
f 96/10/184 71/6/181 73/6/184
f 95/11/185 96/10/186 97/10/187
f 71/6/187 97/10/187 96/10/186
f 73/6/186 71/6/187 96/10/186
f 98/11/188 75/6/167 91/10/167
f 75/6/167 98/11/188 73/6/184
f 73/6/189 98/11/188 96/10/184
f 91/10/172 75/6/172 98/11/190
f 73/6/191 98/11/190 75/6/172
f 96/10/191 98/11/190 73/6/191
f 94/10/176 97/10/181 99/11/192
f 97/10/181 94/10/176 66/6/176
f 97/10/181 66/6/176 71/6/181
f 99/11/193 97/10/187 94/10/180
f 66/6/180 94/10/180 97/10/187
f 71/6/187 66/6/180 97/10/187
f 90/10/168 92/10/194 100/11/195
f 92/10/175 90/10/168 69/6/168
f 92/10/175 69/6/168 65/6/175
f 100/11/196 92/10/197 90/10/171
f 69/6/171 90/10/171 92/10/197
f 65/6/197 69/6/171 92/10/197
f 102/11/134 61/6/135 101/10/136
f 61/6/135 102/11/138 59/6/137
f 59/6/137 102/11/134 103/10/137
f 101/10/139 61/6/140 102/11/141
f 59/6/142 102/11/143 61/6/139
f 103/10/142 102/11/141 59/6/142
f 103/10/137 60/6/128 59/6/137
f 60/6/128 103/10/137 104/11/144
f 60/6/128 104/11/144 105/10/128
f 59/6/142 60/6/131 103/10/142
f 104/11/146 103/10/142 60/6/131
f 105/10/131 104/11/147 60/6/131
f 62/6/158 107/11/164 106/10/158
f 107/11/163 62/6/158 53/6/148
f 107/11/163 53/6/148 108/10/150
f 106/10/161 107/11/166 62/6/161
f 53/6/153 62/6/161 107/11/166
f 108/10/153 53/6/155 107/11/165
f 110/10/127 105/10/128 109/11/198
f 105/10/128 110/10/151 54/6/151
f 105/10/128 54/6/199 60/6/128
f 109/11/200 105/10/131 110/10/132
f 54/6/133 110/10/133 105/10/131
f 60/6/131 54/6/132 105/10/131
f 101/10/157 106/10/158 111/11/159
f 106/10/158 101/10/136 61/6/136
f 106/10/158 61/6/136 62/6/158
f 111/11/160 106/10/161 101/10/140
f 61/6/139 101/10/139 106/10/161
f 62/6/161 61/6/140 106/10/161
f 53/6/150 112/11/149 108/10/150
f 112/11/149 53/6/150 54/6/152
f 112/11/201 54/6/202 110/10/199
f 108/10/153 112/11/154 53/6/155
f 54/6/156 53/6/153 112/11/154
f 110/10/156 54/6/156 112/11/203
