# Blender 4.1.1
# www.blender.org
mtllib brick-wall-end.001.mtl
o brick-wall-end.001
v 7.881546 -4.234052 -6.794645
v 7.931082 -4.234052 -6.794645
v 7.881546 -4.234052 -5.265376
v 7.931082 -4.234052 -5.265376
v 7.644180 -3.293715 -5.248171
v 7.644180 -3.293715 -6.794645
v 7.644180 -3.102557 -5.248171
v 7.644180 -3.102557 -6.794645
v 7.900662 -3.102557 -6.794645
v 7.900662 -3.102557 -5.248171
v 7.613760 -4.234052 -6.794645
v 7.663296 -4.234052 -6.794645
v 7.613760 -4.234052 -5.265376
v 7.663296 -4.234052 -5.265376
v 7.600378 -4.272283 -6.794645
v 7.600378 -4.272283 -5.265376
v 7.663296 -3.293715 -6.794645
v 7.663296 -3.293715 -5.248171
v 7.900662 -3.293715 -6.794645
v 7.881546 -3.293715 -6.794645
v 7.900662 -3.293715 -5.248171
v 7.881546 -3.293715 -5.248171
v 7.600378 -4.444326 -5.265376
v 7.600378 -4.444326 -6.794645
v 7.944463 -4.444326 -5.265376
v 7.944463 -4.272283 -5.265376
v 7.944463 -4.444326 -6.794645
v 7.944463 -4.272283 -6.794645
v 7.963580 -4.234052 -5.265376
v 7.963580 -4.234052 -4.883058
v 7.946375 -4.195820 -5.248171
v 7.946375 -4.195820 -4.900263
v 7.581262 -4.234052 -4.883058
v 7.598466 -4.195820 -4.900263
v 7.963580 -4.444326 -5.265376
v 7.963580 -4.444326 -4.883058
v 7.581262 -4.444326 -5.265376
v 7.581262 -4.444326 -4.883058
v 7.944463 -4.444326 -4.883058
v 7.581262 -4.234052 -5.265376
v 7.581262 -2.964949 -4.883058
v 7.581262 -2.964949 -5.265376
v 7.581262 -2.869370 -4.883058
v 7.581262 -2.869370 -5.265376
v 7.598466 -4.195820 -5.248171
v 7.598466 -3.003181 -4.900263
v 7.598466 -3.003181 -5.248171
v 7.946375 -3.003181 -5.248171
v 7.946375 -3.003181 -4.900263
v 7.963580 -2.964949 -5.265376
v 7.963580 -2.964949 -4.883058
v 7.963580 -2.869370 -5.265376
v 7.963580 -2.869370 -4.883058
v 7.881546 -4.195820 -5.248171
v 7.663296 -4.195820 -5.248171
v 7.944463 -4.444326 -6.794645
v 7.613760 -4.234052 -6.794645
v 7.663296 -4.234052 -6.794645
v 7.881546 -4.234052 -6.794645
v 7.931082 -4.234052 -6.794645
v 7.944463 -4.272283 -6.794645
v 7.644180 -3.102557 -6.794645
v 7.644180 -3.293715 -6.794645
v 7.900662 -3.102557 -6.794645
v 7.663296 -3.293715 -6.794645
v 7.881546 -3.293715 -6.794645
v 7.900662 -3.293715 -6.794645
v 7.931082 -3.551211 -6.418655
v 7.931082 -3.551211 -6.149236
v 7.931082 -3.417400 -6.418655
v 7.931082 -3.417400 -6.149236
v 7.881546 -3.551211 -6.418655
v 7.881546 -3.551211 -6.149236
v 7.881546 -3.417400 -6.418655
v 7.881546 -3.417400 -6.149236
v 7.931082 -3.742370 -6.227497
v 7.931082 -3.742370 -5.958078
v 7.931082 -3.608559 -6.227497
v 7.931082 -3.608559 -5.958078
v 7.881546 -3.742370 -6.227497
v 7.881546 -3.742370 -5.958078
v 7.881546 -3.608559 -6.227497
v 7.881546 -3.608559 -5.958078
v 7.613760 -4.014675 -6.343450
v 7.613760 -4.014675 -6.612869
v 7.613760 -3.880864 -6.343450
v 7.613760 -3.880864 -6.612869
v 7.663296 -4.014675 -6.343450
v 7.663296 -4.014675 -6.612869
v 7.663296 -3.880864 -6.343450
v 7.663296 -3.880864 -6.612869
v 7.613760 -3.632358 -5.387657
v 7.613760 -3.632358 -5.657075
v 7.613760 -3.498547 -5.387657
v 7.613760 -3.498547 -5.657075
v 7.663296 -3.632358 -5.387657
v 7.663296 -3.632358 -5.657075
v 7.663296 -3.498547 -5.387657
v 7.663296 -3.498547 -5.657075
vn -0.0000 1.0000 -0.0000
vn -1.0000 -0.0000 -0.0000
vn -0.9859 0.1676 -0.0000
vn -0.9439 0.3304 -0.0000
vn -0.9438 0.3304 -0.0000
vn -0.9859 0.1676 -0.0001
vn -0.0000 -1.0000 -0.0000
vn -0.9859 0.1675 -0.0000
vn 1.0000 -0.0000 -0.0000
vn 0.9859 0.1675 -0.0000
vn 0.9119 0.4104 -0.0000
vn 0.9836 0.1801 -0.0000
vn -0.0000 0.1801 0.9836
vn -0.0000 0.4104 0.9119
vn 0.3827 -0.9239 -0.0000
vn -0.3827 -0.9239 -0.0000
vn 0.2706 -0.9239 -0.2706
vn -0.0000 0.1800 -0.9837
vn -0.0000 -0.0000 -1.0000
vn -0.0000 0.3000 -0.9539
vn -0.9837 -0.1800 -0.0000
vn -0.0000 -0.0000 1.0000
vn -0.0000 0.1800 0.9837
vn -0.9837 0.1800 -0.0000
vn 0.9836 -0.1801 -0.0000
vn 0.9119 -0.4104 -0.0000
vn -0.9836 -0.1801 -0.0000
vn -0.9119 -0.4104 -0.0000
vn -0.0000 -0.4104 0.9119
vn -0.0000 -0.1801 0.9836
vn -0.0000 -0.1800 0.9837
vn 0.9837 -0.1800 -0.0000
vn -0.0000 -0.1800 -0.9837
vn -0.0000 -0.1801 -0.9836
vn -0.0000 -0.4104 -0.9119
vn -0.9119 0.4104 -0.0000
vn -0.9836 0.1801 -0.0000
vn -0.0000 0.4104 -0.9119
vn -0.0000 0.1801 -0.9836
vn -0.0000 0.3001 -0.9539
vn 0.9439 0.3303 -0.0000
vn 0.9859 0.1676 -0.0000
vn 0.9439 0.3304 -0.0000
vn 0.9837 0.1800 -0.0000
vn -0.0000 -0.0001 -1.0000
vt 0.843750 0.051702
vt 0.843750 0.195388
vt 0.843750 0.171113
vt 0.843750 0.046847
vt 0.843750 0.025000
vt 0.843750 0.056557
vt 0.843750 0.225000
vt 0.843750 0.212863
vt 0.843750 0.208008
vt 0.843750 0.050644
vt 0.843750 0.056343
vt 0.843750 0.196507
vt 0.343750 0.051702
vt 0.343750 0.056557
vt 0.343750 0.171113
vt 0.281250 0.125000
s 0
usemtl colormap
f 3/1/1 2/1/1 1/1/1
f 2/1/1 3/1/1 4/1/1
f 7/2/2 6/3/2 5/3/2
f 6/3/2 7/2/2 8/2/2
f 7/2/1 9/2/1 8/2/1
f 9/2/1 7/2/1 10/2/1
f 13/1/1 12/1/1 11/1/1
f 12/1/1 13/1/1 14/1/1
f 16/4/3 11/1/4 15/4/3
f 11/1/5 16/4/6 13/1/5
f 18/3/7 6/3/7 17/3/7
f 6/3/7 18/3/7 5/3/7
f 21/3/7 20/3/7 19/3/7
f 20/3/7 21/3/7 22/3/7
f 16/4/8 24/5/2 23/5/2
f 24/5/2 16/4/8 15/4/8
f 27/5/9 26/4/10 25/5/9
f 26/4/10 27/5/9 28/4/10
f 31/6/11 30/1/12 29/1/12
f 30/1/12 31/6/11 32/6/11
f 30/1/13 34/6/14 33/1/13
f 34/6/14 30/1/13 32/6/14
f 36/5/7 25/5/7 35/5/7
f 25/5/7 36/5/7 23/5/7
f 24/5/7 25/5/7 23/5/7
f 25/5/7 24/5/7 27/5/7
f 23/5/7 36/5/7 37/5/7
f 37/5/7 36/5/7 38/5/7
f 38/5/15 36/5/16 39/5/17
f 40/1/18 23/5/19 37/5/19
f 23/5/19 40/1/18 16/4/19
f 16/4/19 40/1/18 13/1/20
f 43/7/2 42/8/21 41/8/21
f 42/8/21 43/7/2 44/7/2
f 39/5/22 33/1/23 38/5/22
f 33/1/23 39/5/22 30/1/23
f 30/1/23 39/5/22 36/5/22
f 46/9/2 45/6/2 34/6/2
f 45/6/2 46/9/2 47/9/2
f 33/1/24 37/5/2 38/5/2
f 37/5/2 33/1/24 40/1/24
f 50/8/25 49/9/26 48/9/26
f 49/9/26 50/8/25 51/8/25
f 43/7/1 52/7/1 44/7/1
f 52/7/1 43/7/1 53/7/1
f 21/3/19 54/6/19 22/3/19
f 54/6/19 21/3/19 31/6/19
f 31/6/19 21/3/19 48/9/19
f 10/2/19 48/9/19 21/3/19
f 7/2/19 48/9/19 10/2/19
f 7/2/19 47/9/19 48/9/19
f 47/9/19 7/2/19 45/6/19
f 5/3/19 45/6/19 7/2/19
f 45/6/19 5/3/19 55/6/19
f 55/6/19 5/3/19 18/3/19
f 41/8/27 47/9/28 46/9/28
f 47/9/28 41/8/27 42/8/27
f 46/9/29 51/8/30 41/8/30
f 51/8/30 46/9/29 49/9/29
f 51/8/31 43/7/22 41/8/31
f 43/7/22 51/8/31 53/7/22
f 32/6/22 46/9/22 34/6/22
f 46/9/22 32/6/22 49/9/22
f 52/7/9 51/8/32 50/8/32
f 51/8/32 52/7/9 53/7/9
f 48/9/9 32/6/9 31/6/9
f 32/6/9 48/9/9 49/9/9
f 52/7/19 42/8/33 44/7/19
f 42/8/33 52/7/19 50/8/33
f 50/8/34 47/9/35 42/8/34
f 47/9/35 50/8/34 48/9/35
f 34/6/36 40/1/37 33/1/37
f 40/1/37 34/6/36 45/6/36
f 45/6/38 13/1/20 40/1/39
f 13/1/40 45/6/38 55/6/38
f 13/1/20 55/6/38 14/1/38
f 31/6/38 3/1/38 54/6/38
f 3/1/38 31/6/38 4/1/40
f 4/1/20 31/6/38 29/1/39
f 2/1/41 26/4/42 28/4/42
f 26/4/42 2/1/43 4/1/43
f 9/2/9 21/3/9 19/3/9
f 21/3/9 9/2/9 10/2/9
f 29/1/18 26/4/19 4/1/20
f 26/4/19 29/1/18 25/5/19
f 25/5/19 29/1/18 35/5/19
f 29/1/44 36/5/9 35/5/9
f 36/5/9 29/1/44 30/1/44
f 15/10/19 56/5/19 24/5/19
f 56/5/19 15/10/19 57/11/19
f 56/5/19 57/11/19 58/11/19
f 56/5/19 58/11/19 59/11/19
f 56/5/19 59/11/19 60/11/19
f 56/5/19 60/11/19 61/10/19
f 64/7/19 63/12/19 62/7/19
f 63/12/45 64/7/45 65/12/45
f 65/12/19 64/7/19 66/12/19
f 66/12/19 64/7/19 67/12/19
f 1/13/9 54/14/9 3/13/9
f 54/14/9 1/13/9 20/15/9
f 54/14/9 20/15/9 22/15/9
f 55/14/2 12/13/2 14/13/2
f 12/13/2 55/14/2 17/15/2
f 17/15/2 55/14/2 18/15/2
f 20/15/19 12/13/19 17/15/19
f 12/13/19 20/15/19 1/13/19
f 70/16/9 69/16/9 68/16/9
f 69/16/9 70/16/9 71/16/9
f 69/16/7 72/16/7 68/16/7
f 72/16/7 69/16/7 73/16/7
f 70/16/19 72/16/19 74/16/19
f 72/16/19 70/16/19 68/16/19
f 75/16/1 70/16/1 74/16/1
f 70/16/1 75/16/1 71/16/1
f 69/16/22 75/16/22 73/16/22
f 75/16/22 69/16/22 71/16/22
f 78/16/9 77/16/9 76/16/9
f 77/16/9 78/16/9 79/16/9
f 77/16/7 80/16/7 76/16/7
f 80/16/7 77/16/7 81/16/7
f 78/16/19 80/16/19 82/16/19
f 80/16/19 78/16/19 76/16/19
f 83/16/1 78/16/1 82/16/1
f 78/16/1 83/16/1 79/16/1
f 77/16/22 83/16/22 81/16/22
f 83/16/22 77/16/22 79/16/22
f 86/16/2 85/16/2 84/16/2
f 85/16/2 86/16/2 87/16/2
f 85/16/7 88/16/7 84/16/7
f 88/16/7 85/16/7 89/16/7
f 86/16/22 88/16/22 90/16/22
f 88/16/22 86/16/22 84/16/22
f 91/16/1 86/16/1 90/16/1
f 86/16/1 91/16/1 87/16/1
f 85/16/19 91/16/19 89/16/19
f 91/16/19 85/16/19 87/16/19
f 94/16/2 93/16/2 92/16/2
f 93/16/2 94/16/2 95/16/2
f 93/16/7 96/16/7 92/16/7
f 96/16/7 93/16/7 97/16/7
f 94/16/22 96/16/22 98/16/22
f 96/16/22 94/16/22 92/16/22
f 99/16/1 94/16/1 98/16/1
f 94/16/1 99/16/1 95/16/1
f 93/16/19 99/16/19 97/16/19
f 99/16/19 93/16/19 95/16/19
f 3/1/1 2/1/1 1/1/1
f 2/1/1 3/1/1 4/1/1
f 7/2/2 6/3/2 5/3/2
f 6/3/2 7/2/2 8/2/2
f 7/2/1 9/2/1 8/2/1
f 9/2/1 7/2/1 10/2/1
f 13/1/1 12/1/1 11/1/1
f 12/1/1 13/1/1 14/1/1
f 16/4/3 11/1/4 15/4/3
f 11/1/5 16/4/6 13/1/5
f 18/3/7 6/3/7 17/3/7
f 6/3/7 18/3/7 5/3/7
f 21/3/7 20/3/7 19/3/7
f 20/3/7 21/3/7 22/3/7
f 16/4/8 24/5/2 23/5/2
f 24/5/2 16/4/8 15/4/8
f 27/5/9 26/4/10 25/5/9
f 26/4/10 27/5/9 28/4/10
f 31/6/11 30/1/12 29/1/12
f 30/1/12 31/6/11 32/6/11
f 30/1/13 34/6/14 33/1/13
f 34/6/14 30/1/13 32/6/14
f 36/5/7 25/5/7 35/5/7
f 25/5/7 36/5/7 23/5/7
f 24/5/7 25/5/7 23/5/7
f 25/5/7 24/5/7 27/5/7
f 23/5/7 36/5/7 37/5/7
f 37/5/7 36/5/7 38/5/7
f 38/5/15 36/5/16 39/5/17
f 40/1/18 23/5/19 37/5/19
f 23/5/19 40/1/18 16/4/19
f 16/4/19 40/1/18 13/1/20
f 43/7/2 42/8/21 41/8/21
f 42/8/21 43/7/2 44/7/2
f 39/5/22 33/1/23 38/5/22
f 33/1/23 39/5/22 30/1/23
f 30/1/23 39/5/22 36/5/22
f 46/9/2 45/6/2 34/6/2
f 45/6/2 46/9/2 47/9/2
f 33/1/24 37/5/2 38/5/2
f 37/5/2 33/1/24 40/1/24
f 50/8/25 49/9/26 48/9/26
f 49/9/26 50/8/25 51/8/25
f 43/7/1 52/7/1 44/7/1
f 52/7/1 43/7/1 53/7/1
f 21/3/19 54/6/19 22/3/19
f 54/6/19 21/3/19 31/6/19
f 31/6/19 21/3/19 48/9/19
f 10/2/19 48/9/19 21/3/19
f 7/2/19 48/9/19 10/2/19
f 7/2/19 47/9/19 48/9/19
f 47/9/19 7/2/19 45/6/19
f 5/3/19 45/6/19 7/2/19
f 45/6/19 5/3/19 55/6/19
f 55/6/19 5/3/19 18/3/19
f 41/8/27 47/9/28 46/9/28
f 47/9/28 41/8/27 42/8/27
f 46/9/29 51/8/30 41/8/30
f 51/8/30 46/9/29 49/9/29
f 51/8/31 43/7/22 41/8/31
f 43/7/22 51/8/31 53/7/22
f 32/6/22 46/9/22 34/6/22
f 46/9/22 32/6/22 49/9/22
f 52/7/9 51/8/32 50/8/32
f 51/8/32 52/7/9 53/7/9
f 48/9/9 32/6/9 31/6/9
f 32/6/9 48/9/9 49/9/9
f 52/7/19 42/8/33 44/7/19
f 42/8/33 52/7/19 50/8/33
f 50/8/34 47/9/35 42/8/34
f 47/9/35 50/8/34 48/9/35
f 34/6/36 40/1/37 33/1/37
f 40/1/37 34/6/36 45/6/36
f 45/6/38 13/1/20 40/1/39
f 13/1/40 45/6/38 55/6/38
f 13/1/20 55/6/38 14/1/38
f 31/6/38 3/1/38 54/6/38
f 3/1/38 31/6/38 4/1/40
f 4/1/20 31/6/38 29/1/39
f 2/1/41 26/4/42 28/4/42
f 26/4/42 2/1/43 4/1/43
f 9/2/9 21/3/9 19/3/9
f 21/3/9 9/2/9 10/2/9
f 29/1/18 26/4/19 4/1/20
f 26/4/19 29/1/18 25/5/19
f 25/5/19 29/1/18 35/5/19
f 29/1/44 36/5/9 35/5/9
f 36/5/9 29/1/44 30/1/44
f 15/10/19 56/5/19 24/5/19
f 56/5/19 15/10/19 57/11/19
f 56/5/19 57/11/19 58/11/19
f 56/5/19 58/11/19 59/11/19
f 56/5/19 59/11/19 60/11/19
f 56/5/19 60/11/19 61/10/19
f 64/7/19 63/12/19 62/7/19
f 63/12/45 64/7/45 65/12/45
f 65/12/19 64/7/19 66/12/19
f 66/12/19 64/7/19 67/12/19
f 1/13/9 54/14/9 3/13/9
f 54/14/9 1/13/9 20/15/9
f 54/14/9 20/15/9 22/15/9
f 55/14/2 12/13/2 14/13/2
f 12/13/2 55/14/2 17/15/2
f 17/15/2 55/14/2 18/15/2
f 20/15/19 12/13/19 17/15/19
f 12/13/19 20/15/19 1/13/19
f 70/16/9 69/16/9 68/16/9
f 69/16/9 70/16/9 71/16/9
f 69/16/7 72/16/7 68/16/7
f 72/16/7 69/16/7 73/16/7
f 70/16/19 72/16/19 74/16/19
f 72/16/19 70/16/19 68/16/19
f 75/16/1 70/16/1 74/16/1
f 70/16/1 75/16/1 71/16/1
f 69/16/22 75/16/22 73/16/22
f 75/16/22 69/16/22 71/16/22
f 78/16/9 77/16/9 76/16/9
f 77/16/9 78/16/9 79/16/9
f 77/16/7 80/16/7 76/16/7
f 80/16/7 77/16/7 81/16/7
f 78/16/19 80/16/19 82/16/19
f 80/16/19 78/16/19 76/16/19
f 83/16/1 78/16/1 82/16/1
f 78/16/1 83/16/1 79/16/1
f 77/16/22 83/16/22 81/16/22
f 83/16/22 77/16/22 79/16/22
f 86/16/2 85/16/2 84/16/2
f 85/16/2 86/16/2 87/16/2
f 85/16/7 88/16/7 84/16/7
f 88/16/7 85/16/7 89/16/7
f 86/16/22 88/16/22 90/16/22
f 88/16/22 86/16/22 84/16/22
f 91/16/1 86/16/1 90/16/1
f 86/16/1 91/16/1 87/16/1
f 85/16/19 91/16/19 89/16/19
f 91/16/19 85/16/19 87/16/19
f 94/16/2 93/16/2 92/16/2
f 93/16/2 94/16/2 95/16/2
f 93/16/7 96/16/7 92/16/7
f 96/16/7 93/16/7 97/16/7
f 94/16/22 96/16/22 98/16/22
f 96/16/22 94/16/22 92/16/22
f 99/16/1 94/16/1 98/16/1
f 94/16/1 99/16/1 95/16/1
f 93/16/19 99/16/19 97/16/19
f 99/16/19 93/16/19 95/16/19
