# Blender 4.1.1
# www.blender.org
mtllib cliff_waterfall_stone.mtl
o cliff_waterfall_stone
v -0.440654 -0.499587 -0.184586
v 0.559346 -0.499587 -0.184586
v -0.440654 0.500413 -0.184587
v 0.559346 0.500413 -0.184587
v 0.309346 0.500413 -0.050337
v 0.142680 -0.499587 -0.050337
v 0.309346 -0.499587 -0.050337
v -0.023987 -0.499587 -0.050337
v -0.190654 0.500413 -0.050337
v -0.190654 -0.499587 -0.050337
v -0.440654 -0.499587 -0.016086
v -0.440654 0.500413 -0.016087
v 0.559346 0.500413 -0.016087
v 0.392680 0.500413 -0.084587
v -0.273987 0.500413 -0.084587
v 0.392680 -0.499587 -0.084587
v 0.559346 -0.499587 -0.016086
v 0.059346 -0.499587 -0.084587
v -0.273987 -0.499587 -0.084587
vn -0.0000 -0.0000 -1.0000
vn -0.0000 -0.0000 1.0000
vn -1.0000 -0.0000 -0.0000
vn 1.0000 -0.0000 -0.0000
vn -0.0000 1.0000 -0.0000
vn -0.0000 -1.0000 -0.0000
vn -0.3801 -0.0000 0.9249
vn 0.3801 -0.0000 -0.9249
vn 0.3801 -0.0000 0.9249
vn -0.3801 -0.0000 -0.9249
vt 19.685040 39.370079
vt -19.685040 -0.000000
vt 19.685040 -0.000000
vt -19.685040 39.370079
vt 9.842520 -0.000000
vt 3.280840 -0.000000
vt 9.842520 39.370079
vt -3.280840 -0.000000
vt -9.842520 39.370079
vt -9.842520 -0.000000
vt -13.051180 -0.000000
vt -19.685040 0.000000
vt -13.051180 39.370079
vt -19.685040 -19.685040
vt -13.123360 -15.748030
vt -19.685040 -13.051180
vt 19.685040 -19.685040
vt -9.842520 -14.399610
vt 9.842520 -14.399610
vt 13.123360 -15.748030
vt 19.685040 -13.051180
vt 0.000000 -15.748030
vt 3.280840 -14.399610
vt -3.280840 -14.399610
vt -14.577550 39.370079
vt -18.124680 -0.000000
vt -14.577550 -0.000000
vt -18.124680 39.370079
vt -6.151614 39.370079
vt -13.245880 -0.000000
vt -6.151614 -0.000000
vt -13.245880 39.370079
vt 18.124680 39.370079
vt 14.577550 -0.000000
vt 18.124680 -0.000000
vt 14.577550 39.370079
vt 13.051180 39.370079
vt 19.685040 0.000000
vt 13.051180 0.000000
vt 13.245880 39.370079
vt 6.151614 -0.000000
vt 13.245880 -0.000000
vt 6.151614 39.370079
s 0
usemtl stone.044
f 3/1/1 2/2/1 1/3/1
f 2/2/1 3/1/1 4/4/1
f 1/3/2 2/2/2 3/1/2
f 4/4/2 3/1/2 2/2/2
f 7/5/1 6/6/1 5/7/1
f 8/8/1 5/7/1 6/6/1
f 9/9/1 5/7/1 8/8/1
f 8/8/1 10/10/1 9/9/1
f 11/11/3 3/4/3 1/12/3
f 3/4/3 11/11/3 12/13/3
f 1/12/4 3/4/4 11/11/4
f 12/13/4 11/11/4 3/4/4
f 4/14/5 14/15/5 13/16/5
f 14/15/5 4/14/5 3/17/5
f 14/15/5 3/17/5 5/18/5
f 5/18/5 3/17/5 9/19/5
f 9/19/5 3/17/5 15/20/5
f 15/20/5 3/17/5 12/21/5
f 13/16/6 14/15/6 4/14/6
f 3/17/6 4/14/6 14/15/6
f 5/18/6 3/17/6 14/15/6
f 9/19/6 3/17/6 5/18/6
f 15/20/6 3/17/6 9/19/6
f 12/21/6 3/17/6 15/20/6
f 2/17/6 16/20/6 1/14/6
f 16/20/6 2/17/6 17/21/6
f 1/14/6 16/20/6 7/19/6
f 1/14/6 7/19/6 18/22/6
f 18/22/6 7/19/6 6/23/6
f 1/14/6 18/22/6 8/24/6
f 8/24/6 18/22/6 6/23/6
f 1/14/6 8/24/6 10/18/6
f 1/14/6 10/18/6 19/15/6
f 1/14/6 19/15/6 11/16/6
f 1/14/5 16/20/5 2/17/5
f 17/21/5 2/17/5 16/20/5
f 7/19/5 16/20/5 1/14/5
f 18/22/5 7/19/5 1/14/5
f 6/23/5 7/19/5 18/22/5
f 8/24/5 18/22/5 1/14/5
f 6/23/5 18/22/5 8/24/5
f 10/18/5 8/24/5 1/14/5
f 19/15/5 10/18/5 1/14/5
f 11/16/5 19/15/5 1/14/5
f 9/25/7 19/26/7 10/27/7
f 19/26/7 9/25/7 15/28/7
f 10/27/8 19/26/8 9/25/8
f 15/28/8 9/25/8 19/26/8
f 15/29/9 11/30/9 19/31/9
f 11/30/9 15/29/9 12/32/9
f 19/31/10 11/30/10 15/29/10
f 12/32/10 15/29/10 11/30/10
f 14/33/9 7/34/9 16/35/9
f 7/34/9 14/33/9 5/36/9
f 16/35/10 7/34/10 14/33/10
f 5/36/10 14/33/10 7/34/10
f 13/37/4 2/38/4 4/1/4
f 2/38/4 13/37/4 17/39/4
f 4/1/3 2/38/3 13/37/3
f 17/39/3 13/37/3 2/38/3
f 13/40/7 16/41/7 17/42/7
f 16/41/7 13/40/7 14/43/7
f 17/42/8 16/41/8 13/40/8
f 14/43/8 13/40/8 16/41/8
usemtl water.001
f 5/7/2 6/6/2 7/5/2
f 6/6/2 5/7/2 8/8/2
f 8/8/2 5/7/2 9/9/2
f 9/9/2 10/10/2 8/8/2
