# Blender 4.1.1
# www.blender.org
mtllib brick-wall.007.mtl
o brick-wall.007
v 9.819297 0.182666 5.847153
v 9.755807 0.182666 5.847153
v 9.819297 0.182666 4.622142
v 9.755807 0.182666 4.622142
v 10.123521 1.387865 4.622142
v 10.123521 1.387865 5.847153
v 10.123521 1.632868 4.622142
v 10.123521 1.632868 5.847153
v 9.738657 -0.086837 5.847153
v 10.179661 -0.086837 5.847153
v 9.738657 -0.086837 4.622142
v 10.179661 -0.086837 4.622142
v 9.794796 1.632868 5.847153
v 9.794796 1.632868 4.622142
v 9.738657 0.133665 5.847153
v 9.738657 0.133665 4.622142
v 10.162510 0.182666 5.847153
v 10.099020 0.182666 5.847153
v 10.162510 0.182666 4.622142
v 10.099020 0.182666 4.622142
v 10.179661 0.133665 4.622142
v 10.179661 0.133665 5.847153
v 10.099020 1.387865 5.847153
v 10.099020 1.387865 4.622142
v 9.794796 1.387865 5.847153
v 9.819297 1.387865 5.847153
v 9.794796 1.387865 4.622142
v 9.819297 1.387865 4.622142
v 10.123521 1.387865 4.622142
v 10.123521 1.632868 4.622142
v 10.099020 1.387865 4.622142
v 9.794796 1.632868 4.622142
v 9.819297 1.387865 4.622142
v 9.794796 1.387865 4.622142
v 9.738657 -0.086837 4.622142
v 10.162510 0.182666 4.622142
v 10.099020 0.182666 4.622142
v 9.819297 0.182666 4.622142
v 9.755807 0.182666 4.622142
v 9.738657 0.133665 4.622142
v 10.123521 1.632868 5.847153
v 10.123521 1.387865 5.847153
v 9.794796 1.632868 5.847153
v 10.099020 1.387865 5.847153
v 9.819297 1.387865 5.847153
v 9.794796 1.387865 5.847153
v 9.738657 -0.086837 5.847153
v 10.162510 0.182666 5.847153
v 10.099020 0.182666 5.847153
v 9.819297 0.182666 5.847153
v 9.755807 0.182666 5.847153
v 9.738657 0.133665 5.847153
v 9.755807 0.404895 4.924222
v 9.755807 0.404895 4.751568
v 9.755807 0.576396 4.924222
v 9.755807 0.576396 4.751568
v 9.819297 0.404895 4.924222
v 9.819297 0.404895 4.751568
v 9.819297 0.576396 4.924222
v 9.819297 0.576396 4.751568
v 9.755807 0.649897 5.046723
v 9.755807 0.649897 4.874070
v 9.755807 0.821398 5.046723
v 9.755807 0.821398 4.874070
v 9.819297 0.649897 5.046723
v 9.819297 0.649897 4.874070
v 9.819297 0.821398 5.046723
v 9.819297 0.821398 4.874070
v 9.755807 0.894899 5.781729
v 9.755807 0.894899 5.609076
v 9.755807 1.066400 5.781729
v 9.755807 1.066400 5.609076
v 9.819297 0.894899 5.781729
v 9.819297 0.894899 5.609076
v 9.819297 1.066400 5.781729
v 9.819297 1.066400 5.609076
v 10.162510 0.522195 4.841280
v 10.162510 0.522195 5.013933
v 10.162510 0.693696 4.841280
v 10.162510 0.693696 5.013933
v 10.099020 0.522195 4.841280
v 10.099020 0.522195 5.013933
v 10.099020 0.693696 4.841280
v 10.099020 0.693696 5.013933
v 10.162510 1.012199 4.963781
v 10.162510 1.012199 5.136435
v 10.162510 1.183701 4.963781
v 10.162510 1.183701 5.136435
v 10.099020 1.012199 4.963781
v 10.099020 1.012199 5.136435
v 10.099020 1.183701 4.963781
v 10.099020 1.183701 5.136435
v 10.162510 0.522195 5.453786
v 10.162510 0.522195 5.626439
v 10.162510 0.693696 5.453786
v 10.162510 0.693696 5.626439
v 10.099020 0.522195 5.453786
v 10.099020 0.522195 5.626439
v 10.099020 0.693696 5.453786
v 10.099020 0.693696 5.626439
vn -0.0000 1.0000 -0.0000
vn 1.0000 -0.0000 -0.0000
vn -0.0000 -1.0000 -0.0000
vn -0.9439 0.3303 -0.0000
vn -0.9859 0.1676 0.0009
vn -0.9859 0.1676 -0.0000
vn -0.9859 0.1676 0.0024
vn 0.9439 0.3304 -0.0000
vn 0.9859 0.1676 -0.0009
vn 0.9859 0.1676 -0.0000
vn 0.9859 0.1676 -0.0024
vn -1.0000 -0.0000 -0.0000
vn 0.9859 0.1672 0.0097
vn 0.9859 0.1675 0.0038
vn 0.9859 0.1675 -0.0000
vn -0.9859 0.1672 -0.0097
vn -0.9859 0.1675 -0.0038
vn -0.9859 0.1675 -0.0000
vn -0.0000 -0.0000 -1.0000
vn -0.0000 -0.0000 1.0000
vt 0.843750 0.056343
vt 0.843750 0.225000
vt 0.843750 0.196507
vt 0.843750 0.025000
vt 0.843750 0.050644
vt 0.343750 0.196507
vt 0.343750 0.056343
vt 0.281250 0.125000
s 0
usemtl colormap.086
f 3/1/1 2/1/1 1/1/1
f 2/1/1 3/1/1 4/1/1
f 7/2/2 6/3/2 5/3/2
f 6/3/2 7/2/2 8/2/2
f 11/4/3 10/4/3 9/4/3
f 10/4/3 11/4/3 12/4/3
f 7/2/1 13/2/1 8/2/1
f 13/2/1 7/2/1 14/2/1
f 2/1/4 16/5/5 15/5/6
f 16/5/7 2/1/4 4/1/4
f 19/1/1 18/1/1 17/1/1
f 18/1/1 19/1/1 20/1/1
f 19/1/8 22/5/9 21/5/10
f 22/5/11 19/1/8 17/1/8
f 24/3/3 6/3/3 23/3/3
f 6/3/3 24/3/3 5/3/3
f 27/3/3 26/3/3 25/3/3
f 26/3/3 27/3/3 28/3/3
f 13/2/12 27/3/12 25/3/12
f 27/3/12 13/2/12 14/2/12
f 21/5/13 10/4/2 12/4/2
f 10/4/2 21/5/14 22/5/15
f 15/5/16 11/4/12 9/4/12
f 11/4/12 15/5/17 16/5/18
f 31/3/19 30/2/19 29/3/19
f 30/2/19 31/3/19 32/2/19
f 32/2/19 31/3/19 33/3/19
f 32/2/19 33/3/19 34/3/19
f 35/4/19 21/5/19 12/4/19
f 21/5/19 35/4/19 36/1/19
f 36/1/19 35/4/19 37/1/19
f 37/1/19 35/4/19 38/1/19
f 38/1/19 35/4/19 39/1/19
f 39/1/19 35/4/19 40/5/19
f 43/2/20 42/3/20 41/2/20
f 42/3/20 43/2/20 44/3/20
f 44/3/20 43/2/20 45/3/20
f 45/3/20 43/2/20 46/3/20
f 22/5/20 47/4/20 10/4/20
f 47/4/20 22/5/20 48/1/20
f 47/4/20 48/1/20 49/1/20
f 47/4/20 49/1/20 50/1/20
f 47/4/20 50/1/20 51/1/20
f 47/4/20 51/1/20 52/5/20
f 26/6/12 3/7/12 1/7/12
f 3/7/12 26/6/12 28/6/12
f 24/6/2 18/7/2 20/7/2
f 18/7/2 24/6/2 23/6/2
f 20/7/19 28/6/19 24/6/19
f 28/6/19 20/7/19 3/7/19
f 26/6/20 18/7/20 23/6/20
f 18/7/20 26/6/20 1/7/20
f 55/8/12 54/8/12 53/8/12
f 54/8/12 55/8/12 56/8/12
f 54/8/3 57/8/3 53/8/3
f 57/8/3 54/8/3 58/8/3
f 55/8/20 57/8/20 59/8/20
f 57/8/20 55/8/20 53/8/20
f 60/8/1 55/8/1 59/8/1
f 55/8/1 60/8/1 56/8/1
f 54/8/19 60/8/19 58/8/19
f 60/8/19 54/8/19 56/8/19
f 63/8/12 62/8/12 61/8/12
f 62/8/12 63/8/12 64/8/12
f 62/8/3 65/8/3 61/8/3
f 65/8/3 62/8/3 66/8/3
f 63/8/20 65/8/20 67/8/20
f 65/8/20 63/8/20 61/8/20
f 68/8/1 63/8/1 67/8/1
f 63/8/1 68/8/1 64/8/1
f 62/8/19 68/8/19 66/8/19
f 68/8/19 62/8/19 64/8/19
f 71/8/12 70/8/12 69/8/12
f 70/8/12 71/8/12 72/8/12
f 70/8/3 73/8/3 69/8/3
f 73/8/3 70/8/3 74/8/3
f 71/8/20 73/8/20 75/8/20
f 73/8/20 71/8/20 69/8/20
f 76/8/1 71/8/1 75/8/1
f 71/8/1 76/8/1 72/8/1
f 70/8/19 76/8/19 74/8/19
f 76/8/19 70/8/19 72/8/19
f 79/8/2 78/8/2 77/8/2
f 78/8/2 79/8/2 80/8/2
f 78/8/3 81/8/3 77/8/3
f 81/8/3 78/8/3 82/8/3
f 79/8/19 81/8/19 83/8/19
f 81/8/19 79/8/19 77/8/19
f 84/8/1 79/8/1 83/8/1
f 79/8/1 84/8/1 80/8/1
f 78/8/20 84/8/20 82/8/20
f 84/8/20 78/8/20 80/8/20
f 87/8/2 86/8/2 85/8/2
f 86/8/2 87/8/2 88/8/2
f 86/8/3 89/8/3 85/8/3
f 89/8/3 86/8/3 90/8/3
f 87/8/19 89/8/19 91/8/19
f 89/8/19 87/8/19 85/8/19
f 92/8/1 87/8/1 91/8/1
f 87/8/1 92/8/1 88/8/1
f 86/8/20 92/8/20 90/8/20
f 92/8/20 86/8/20 88/8/20
f 95/8/2 94/8/2 93/8/2
f 94/8/2 95/8/2 96/8/2
f 94/8/3 97/8/3 93/8/3
f 97/8/3 94/8/3 98/8/3
f 95/8/19 97/8/19 99/8/19
f 97/8/19 95/8/19 93/8/19
f 100/8/1 95/8/1 99/8/1
f 95/8/1 100/8/1 96/8/1
f 94/8/20 100/8/20 98/8/20
f 100/8/20 94/8/20 96/8/20
f 3/1/1 2/1/1 1/1/1
f 2/1/1 3/1/1 4/1/1
f 7/2/2 6/3/2 5/3/2
f 6/3/2 7/2/2 8/2/2
f 11/4/3 10/4/3 9/4/3
f 10/4/3 11/4/3 12/4/3
f 7/2/1 13/2/1 8/2/1
f 13/2/1 7/2/1 14/2/1
f 2/1/4 16/5/5 15/5/6
f 16/5/7 2/1/4 4/1/4
f 19/1/1 18/1/1 17/1/1
f 18/1/1 19/1/1 20/1/1
f 19/1/8 22/5/9 21/5/10
f 22/5/11 19/1/8 17/1/8
f 24/3/3 6/3/3 23/3/3
f 6/3/3 24/3/3 5/3/3
f 27/3/3 26/3/3 25/3/3
f 26/3/3 27/3/3 28/3/3
f 13/2/12 27/3/12 25/3/12
f 27/3/12 13/2/12 14/2/12
f 21/5/13 10/4/2 12/4/2
f 10/4/2 21/5/14 22/5/15
f 15/5/16 11/4/12 9/4/12
f 11/4/12 15/5/17 16/5/18
f 31/3/19 30/2/19 29/3/19
f 30/2/19 31/3/19 32/2/19
f 32/2/19 31/3/19 33/3/19
f 32/2/19 33/3/19 34/3/19
f 35/4/19 21/5/19 12/4/19
f 21/5/19 35/4/19 36/1/19
f 36/1/19 35/4/19 37/1/19
f 37/1/19 35/4/19 38/1/19
f 38/1/19 35/4/19 39/1/19
f 39/1/19 35/4/19 40/5/19
f 43/2/20 42/3/20 41/2/20
f 42/3/20 43/2/20 44/3/20
f 44/3/20 43/2/20 45/3/20
f 45/3/20 43/2/20 46/3/20
f 22/5/20 47/4/20 10/4/20
f 47/4/20 22/5/20 48/1/20
f 47/4/20 48/1/20 49/1/20
f 47/4/20 49/1/20 50/1/20
f 47/4/20 50/1/20 51/1/20
f 47/4/20 51/1/20 52/5/20
f 26/6/12 3/7/12 1/7/12
f 3/7/12 26/6/12 28/6/12
f 24/6/2 18/7/2 20/7/2
f 18/7/2 24/6/2 23/6/2
f 20/7/19 28/6/19 24/6/19
f 28/6/19 20/7/19 3/7/19
f 26/6/20 18/7/20 23/6/20
f 18/7/20 26/6/20 1/7/20
f 55/8/12 54/8/12 53/8/12
f 54/8/12 55/8/12 56/8/12
f 54/8/3 57/8/3 53/8/3
f 57/8/3 54/8/3 58/8/3
f 55/8/20 57/8/20 59/8/20
f 57/8/20 55/8/20 53/8/20
f 60/8/1 55/8/1 59/8/1
f 55/8/1 60/8/1 56/8/1
f 54/8/19 60/8/19 58/8/19
f 60/8/19 54/8/19 56/8/19
f 63/8/12 62/8/12 61/8/12
f 62/8/12 63/8/12 64/8/12
f 62/8/3 65/8/3 61/8/3
f 65/8/3 62/8/3 66/8/3
f 63/8/20 65/8/20 67/8/20
f 65/8/20 63/8/20 61/8/20
f 68/8/1 63/8/1 67/8/1
f 63/8/1 68/8/1 64/8/1
f 62/8/19 68/8/19 66/8/19
f 68/8/19 62/8/19 64/8/19
f 71/8/12 70/8/12 69/8/12
f 70/8/12 71/8/12 72/8/12
f 70/8/3 73/8/3 69/8/3
f 73/8/3 70/8/3 74/8/3
f 71/8/20 73/8/20 75/8/20
f 73/8/20 71/8/20 69/8/20
f 76/8/1 71/8/1 75/8/1
f 71/8/1 76/8/1 72/8/1
f 70/8/19 76/8/19 74/8/19
f 76/8/19 70/8/19 72/8/19
f 79/8/2 78/8/2 77/8/2
f 78/8/2 79/8/2 80/8/2
f 78/8/3 81/8/3 77/8/3
f 81/8/3 78/8/3 82/8/3
f 79/8/19 81/8/19 83/8/19
f 81/8/19 79/8/19 77/8/19
f 84/8/1 79/8/1 83/8/1
f 79/8/1 84/8/1 80/8/1
f 78/8/20 84/8/20 82/8/20
f 84/8/20 78/8/20 80/8/20
f 87/8/2 86/8/2 85/8/2
f 86/8/2 87/8/2 88/8/2
f 86/8/3 89/8/3 85/8/3
f 89/8/3 86/8/3 90/8/3
f 87/8/19 89/8/19 91/8/19
f 89/8/19 87/8/19 85/8/19
f 92/8/1 87/8/1 91/8/1
f 87/8/1 92/8/1 88/8/1
f 86/8/20 92/8/20 90/8/20
f 92/8/20 86/8/20 88/8/20
f 95/8/2 94/8/2 93/8/2
f 94/8/2 95/8/2 96/8/2
f 94/8/3 97/8/3 93/8/3
f 97/8/3 94/8/3 98/8/3
f 95/8/19 97/8/19 99/8/19
f 97/8/19 95/8/19 93/8/19
f 100/8/1 95/8/1 99/8/1
f 95/8/1 100/8/1 96/8/1
f 94/8/20 100/8/20 98/8/20
f 100/8/20 94/8/20 96/8/20
