# Blender 4.1.1
# www.blender.org
mtllib gravestone-bevel.mtl
o gravestone-bevel
v 9.489066 0.769840 1.096623
v 9.369461 0.724668 1.161294
v 9.409196 0.769840 1.139809
v 9.455479 0.672053 1.114784
v 9.455479 0.245152 1.114784
v 9.369461 0.147365 1.161294
v 9.903318 0.245152 0.872632
v 9.989337 0.147365 0.826121
v 9.989337 0.724668 0.826121
v 9.903318 0.672053 0.872632
v 9.803728 0.672053 0.926481
v 9.591687 0.827410 1.041134
v 9.555070 0.672053 1.060934
v 9.514566 0.878028 1.082834
v 9.628758 0.869553 1.021089
v 9.679399 0.884979 0.993707
v 9.584232 0.957227 1.045165
v 9.869732 0.769840 0.890792
v 9.949601 0.769840 0.847606
v 9.767111 0.827410 0.946281
v 9.844233 0.878028 0.904580
v 9.730039 0.869553 0.966326
v 9.774565 0.957227 0.942250
v 9.679399 0.986215 0.993707
v 9.280714 0.769840 0.902190
v 9.240978 0.724668 0.923675
v 9.360583 0.769840 0.859004
v 9.426586 0.672053 0.823315
v 9.463204 0.827410 0.803515
v 9.326996 0.672053 0.877164
v 9.386083 0.878028 0.845215
v 9.500276 0.869553 0.783470
v 9.326996 0.245152 0.877165
v 9.240978 0.147365 0.923675
v 9.860853 0.147365 0.588502
v 9.774836 0.245152 0.635013
v 9.550916 0.884979 0.756088
v 9.860853 0.724668 0.588502
v 9.774836 0.672053 0.635012
v 9.675245 0.672053 0.688862
v 9.455750 0.957227 0.807546
v 9.741249 0.769840 0.653173
v 9.821118 0.769840 0.609987
v 9.638628 0.827410 0.708662
v 9.715749 0.878028 0.666961
v 9.601556 0.869553 0.728707
v 9.646082 0.957227 0.704631
v 9.550916 0.986215 0.756088
v 9.860349 0.245152 0.793160
v 9.412508 0.245152 1.035312
v 9.860349 0.672053 0.793160
v 9.760757 0.672053 0.847010
v 9.724139 0.827410 0.866810
v 9.687069 0.869553 0.886855
v 9.636428 0.884979 0.914236
v 9.585788 0.869553 0.941618
v 9.548717 0.827410 0.961663
v 9.512098 0.672053 0.981462
v 9.412508 0.672053 1.035312
v 9.369967 0.672053 0.956636
v 9.369967 0.245152 0.956636
v 9.469558 0.672053 0.902786
v 9.506175 0.827410 0.882986
v 9.543246 0.869553 0.862942
v 9.593887 0.884979 0.835560
v 9.644527 0.869553 0.808178
v 9.681598 0.827410 0.788133
v 9.718216 0.672053 0.768334
v 9.817807 0.672053 0.714484
v 9.817807 0.245152 0.714484
v 10.050558 -0.064042 0.844371
v 9.879104 -0.064042 0.527281
v 9.351212 -0.064042 1.222515
v 9.179756 -0.064042 0.905425
v 9.179756 0.076896 0.905425
v 9.879104 0.076896 0.527281
v 10.050558 0.076896 0.844371
v 9.351212 0.076896 1.222515
vn 0.4756 -0.0000 0.8796
vn -0.4756 -0.0000 -0.8796
vn -0.3366 0.9239 0.1820
vn -0.0000 1.0000 -0.0000
vn 0.7618 0.5000 -0.4119
vn 0.8497 0.2588 -0.4594
vn 0.7618 0.4999 -0.4119
vn 0.4399 0.8660 -0.2378
vn 0.7618 0.5001 -0.4119
vn 0.4398 0.8661 -0.2378
vn 0.4398 0.8661 -0.2377
vn 0.0001 1.0000 -0.0000
vn -0.4398 0.8661 0.2378
vn -0.0001 1.0000 -0.0000
vn -0.4398 0.8661 0.2377
vn -0.7618 0.5001 0.4119
vn -0.4399 0.8660 0.2378
vn -0.7618 0.5000 0.4119
vn -0.8497 0.2588 0.4594
vn -0.7618 0.4999 0.4119
vn 0.3366 0.9239 -0.1820
vn -0.8796 -0.0000 0.4756
vn -0.0000 -1.0000 -0.0000
vn -0.8497 -0.2588 0.4594
vn -0.7618 -0.5000 0.4119
vn -0.7618 -0.4999 0.4119
vn -0.4399 -0.8660 0.2378
vn -0.7618 -0.5001 0.4119
vn -0.0001 -1.0000 -0.0000
vn -0.4398 -0.8661 0.2378
vn 0.4398 -0.8661 -0.2378
vn 0.0001 -1.0000 -0.0000
vn 0.4399 -0.8660 -0.2378
vn 0.7618 -0.5000 -0.4119
vn 0.8497 -0.2588 -0.4594
vn 0.8796 -0.0000 -0.4756
vn 0.7618 -0.4999 -0.4119
vn 0.8127 0.3827 -0.4394
vn 0.8127 0.3826 -0.4394
vn 0.3367 0.9239 -0.1820
vn 0.3366 0.9239 -0.1821
vn -0.8127 0.3827 0.4394
vn -0.8127 0.3826 0.4395
vn -0.3367 0.9239 0.1820
vn -0.3366 0.9239 0.1821
vn -0.4631 0.2282 -0.8564
vn 0.4004 0.5397 0.7406
vn 0.4631 0.2283 0.8564
vn -0.8564 0.2283 0.4631
vn -0.7405 0.5397 0.4004
vn -0.7406 0.5397 0.4004
vn -0.8564 0.2282 0.4631
vn 0.7406 0.5397 -0.4004
vn 0.8564 0.2283 -0.4630
vn 0.8564 0.2283 -0.4631
vn -0.4004 0.5397 -0.7406
vn -0.4631 0.2283 -0.8564
vn -0.4630 0.2283 -0.8564
vn 0.4631 0.2282 0.8564
vn 0.8564 0.2282 -0.4631
vn 0.3985 -0.9027 0.1624
vn 0.3984 -0.9027 0.1623
vn 0.3162 -0.9487 -0.0000
vn -0.7540 0.6569 -0.0000
vn -0.7539 0.6570 -0.0000
vn -1.0000 -0.0000 -0.0000
vt 0.843750 0.183796
vt 0.843750 0.175194
vt 0.843750 0.165174
vt 0.843750 0.083880
vt 0.843750 0.065258
vt 0.843750 0.194759
vt 0.843750 0.204398
vt 0.843750 0.202784
vt 0.843750 0.205722
vt 0.843750 0.219480
vt 0.843750 0.225000
vt 0.093750 0.025000
vt 0.093750 0.051839
vt 0.093750 0.065258
vt 0.093750 0.165174
vt 0.093750 0.083880
vt 0.093750 0.194759
vt 0.093750 0.202784
vt 0.093750 0.205722
s 0
usemtl colormap.001
f 3/1/1 2/2/1 1/1/1
f 4/3/1 1/1/1 2/2/1
f 2/2/1 5/4/1 4/3/1
f 6/5/1 5/4/1 2/2/1
f 5/4/1 6/5/1 7/4/1
f 8/5/1 7/4/1 6/5/1
f 7/4/1 8/5/1 9/2/1
f 7/4/1 9/2/1 10/3/1
f 10/3/1 9/2/1 11/3/1
f 4/3/1 12/6/1 1/1/1
f 12/6/1 4/3/1 13/3/1
f 1/1/1 12/6/1 14/7/1
f 14/7/1 12/6/1 15/8/1
f 14/7/1 15/8/1 16/9/1
f 14/7/1 16/9/1 17/10/1
f 11/3/1 9/2/1 18/1/1
f 18/1/1 9/2/1 19/1/1
f 11/3/1 18/1/1 20/6/1
f 20/6/1 18/1/1 21/7/1
f 20/6/1 21/7/1 22/8/1
f 22/8/1 21/7/1 16/9/1
f 16/9/1 21/7/1 23/10/1
f 17/10/1 16/9/1 23/10/1
f 17/10/1 23/10/1 24/11/1
f 27/1/2 26/2/2 25/1/2
f 28/3/2 26/2/2 27/1/2
f 28/3/2 27/1/2 29/6/2
f 30/3/2 26/2/2 28/3/2
f 29/6/2 27/1/2 31/7/2
f 29/6/2 31/7/2 32/8/2
f 33/4/2 26/2/2 30/3/2
f 33/4/2 34/5/2 26/2/2
f 34/5/2 33/4/2 35/5/2
f 36/4/2 35/5/2 33/4/2
f 32/8/2 31/7/2 37/9/2
f 35/5/2 36/4/2 38/2/2
f 38/2/2 36/4/2 39/3/2
f 38/2/2 39/3/2 40/3/2
f 37/9/2 31/7/2 41/10/2
f 38/2/2 40/3/2 42/1/2
f 38/2/2 42/1/2 43/1/2
f 42/1/2 40/3/2 44/6/2
f 42/1/2 44/6/2 45/7/2
f 45/7/2 44/6/2 46/8/2
f 45/7/2 46/8/2 37/9/2
f 45/7/2 37/9/2 47/10/2
f 47/10/2 37/9/2 41/10/2
f 47/10/2 41/10/2 48/11/2
f 25/1/3 1/1/4 27/1/4
f 1/1/4 25/1/3 3/1/3
f 21/7/5 42/1/6 45/7/5
f 42/1/6 21/7/7 18/1/6
f 47/10/8 21/7/9 45/7/9
f 21/7/9 47/10/8 23/10/8
f 48/11/4 23/10/10 47/10/11
f 23/10/10 48/11/12 24/11/4
f 41/10/13 24/11/14 48/11/4
f 24/11/4 41/10/13 17/10/15
f 31/7/16 17/10/17 41/10/17
f 17/10/17 31/7/18 14/7/18
f 1/1/19 31/7/20 27/1/19
f 31/7/18 1/1/19 14/7/18
f 42/1/4 19/1/21 43/1/21
f 19/1/21 42/1/4 18/1/4
f 50/4/4 7/4/4 49/4/4
f 7/4/4 50/4/4 5/4/4
f 7/4/22 51/3/22 49/4/22
f 51/3/22 7/4/22 10/3/22
f 11/3/23 51/3/23 10/3/23
f 51/3/23 11/3/23 52/3/23
f 11/3/24 53/6/25 52/3/24
f 53/6/26 11/3/24 20/6/25
f 22/8/27 53/6/28 20/6/28
f 53/6/25 22/8/27 54/8/27
f 16/9/29 54/8/30 22/8/30
f 54/8/30 16/9/29 55/9/23
f 15/8/31 55/9/32 16/9/32
f 55/9/23 15/8/31 56/8/31
f 15/8/33 57/6/34 56/8/33
f 57/6/34 15/8/33 12/6/34
f 12/6/34 58/3/35 57/6/34
f 58/3/35 12/6/34 13/3/35
f 4/3/23 58/3/23 13/3/23
f 58/3/23 4/3/23 59/3/23
f 4/3/36 50/4/36 59/3/36
f 50/4/36 4/3/36 5/4/36
f 60/3/36 33/4/36 30/3/36
f 33/4/36 60/3/36 61/4/36
f 60/3/23 28/3/23 62/3/23
f 28/3/23 60/3/23 30/3/23
f 63/6/37 28/3/35 29/6/34
f 28/3/35 63/6/34 62/3/35
f 63/6/34 32/8/33 64/8/33
f 32/8/33 63/6/34 29/6/34
f 64/8/31 37/9/32 65/9/23
f 37/9/32 64/8/31 32/8/31
f 65/9/23 46/8/30 66/8/30
f 46/8/30 65/9/29 37/9/29
f 66/8/27 44/6/25 67/6/25
f 44/6/28 66/8/27 46/8/27
f 68/3/24 44/6/25 40/3/24
f 44/6/25 68/3/24 67/6/25
f 68/3/23 39/3/23 69/3/23
f 39/3/23 68/3/23 40/3/23
f 70/4/22 39/3/22 36/4/22
f 39/3/22 70/4/22 69/3/22
f 33/4/4 70/4/4 36/4/4
f 70/4/4 33/4/4 61/4/4
f 9/2/38 35/5/36 38/2/39
f 35/5/36 9/2/38 8/5/36
f 43/1/40 9/2/38 38/2/38
f 9/2/38 43/1/40 19/1/41
f 6/5/22 26/2/42 34/5/22
f 26/2/43 6/5/22 2/2/42
f 26/2/42 3/1/44 25/1/45
f 3/1/44 26/2/42 2/2/42
f 73/12/23 72/12/23 71/12/23
f 72/12/23 73/12/23 74/12/23
f 75/13/46 72/12/2 74/12/2
f 72/12/2 75/13/46 76/13/46
f 8/14/47 78/13/48 77/13/48
f 78/13/48 8/14/47 6/14/47
f 78/13/49 34/14/50 75/13/49
f 34/14/51 78/13/49 6/14/51
f 73/12/22 75/13/52 74/12/22
f 75/13/52 73/12/22 78/13/52
f 35/14/53 77/13/54 76/13/55
f 77/13/54 35/14/53 8/14/53
f 34/14/56 76/13/57 75/13/58
f 76/13/57 34/14/56 35/14/56
f 77/13/59 73/12/1 71/12/1
f 73/12/1 77/13/59 78/13/59
f 77/13/60 72/12/36 76/13/60
f 72/12/36 77/13/60 71/12/36
f 51/15/1 50/16/1 49/16/1
f 50/16/1 51/15/1 58/15/1
f 59/15/1 50/16/1 58/15/1
f 58/15/23 51/15/23 52/15/23
f 58/15/1 52/15/1 57/17/1
f 57/17/1 52/15/1 53/17/1
f 57/17/1 53/17/1 54/18/1
f 57/17/1 54/18/1 56/18/1
f 56/18/1 54/18/1 55/19/1
f 60/15/2 70/16/2 61/16/2
f 70/16/2 60/15/2 69/15/2
f 69/15/61 60/15/62 62/15/63
f 69/15/64 62/15/65 68/15/66
f 68/15/2 62/15/2 63/17/2
f 68/15/2 63/17/2 67/17/2
f 67/17/2 63/17/2 64/18/2
f 67/17/2 64/18/2 66/18/2
f 66/18/2 64/18/2 65/19/2
f 3/1/1 2/2/1 1/1/1
f 4/3/1 1/1/1 2/2/1
f 2/2/1 5/4/1 4/3/1
f 6/5/1 5/4/1 2/2/1
f 5/4/1 6/5/1 7/4/1
f 8/5/1 7/4/1 6/5/1
f 7/4/1 8/5/1 9/2/1
f 7/4/1 9/2/1 10/3/1
f 10/3/1 9/2/1 11/3/1
f 4/3/1 12/6/1 1/1/1
f 12/6/1 4/3/1 13/3/1
f 1/1/1 12/6/1 14/7/1
f 14/7/1 12/6/1 15/8/1
f 14/7/1 15/8/1 16/9/1
f 14/7/1 16/9/1 17/10/1
f 11/3/1 9/2/1 18/1/1
f 18/1/1 9/2/1 19/1/1
f 11/3/1 18/1/1 20/6/1
f 20/6/1 18/1/1 21/7/1
f 20/6/1 21/7/1 22/8/1
f 22/8/1 21/7/1 16/9/1
f 16/9/1 21/7/1 23/10/1
f 17/10/1 16/9/1 23/10/1
f 17/10/1 23/10/1 24/11/1
f 27/1/2 26/2/2 25/1/2
f 28/3/2 26/2/2 27/1/2
f 28/3/2 27/1/2 29/6/2
f 30/3/2 26/2/2 28/3/2
f 29/6/2 27/1/2 31/7/2
f 29/6/2 31/7/2 32/8/2
f 33/4/2 26/2/2 30/3/2
f 33/4/2 34/5/2 26/2/2
f 34/5/2 33/4/2 35/5/2
f 36/4/2 35/5/2 33/4/2
f 32/8/2 31/7/2 37/9/2
f 35/5/2 36/4/2 38/2/2
f 38/2/2 36/4/2 39/3/2
f 38/2/2 39/3/2 40/3/2
f 37/9/2 31/7/2 41/10/2
f 38/2/2 40/3/2 42/1/2
f 38/2/2 42/1/2 43/1/2
f 42/1/2 40/3/2 44/6/2
f 42/1/2 44/6/2 45/7/2
f 45/7/2 44/6/2 46/8/2
f 45/7/2 46/8/2 37/9/2
f 45/7/2 37/9/2 47/10/2
f 47/10/2 37/9/2 41/10/2
f 47/10/2 41/10/2 48/11/2
f 25/1/3 1/1/4 27/1/4
f 1/1/4 25/1/3 3/1/3
f 21/7/5 42/1/6 45/7/5
f 42/1/6 21/7/7 18/1/6
f 47/10/8 21/7/9 45/7/9
f 21/7/9 47/10/8 23/10/8
f 48/11/4 23/10/10 47/10/11
f 23/10/10 48/11/12 24/11/4
f 41/10/13 24/11/14 48/11/4
f 24/11/4 41/10/13 17/10/15
f 31/7/16 17/10/17 41/10/17
f 17/10/17 31/7/18 14/7/18
f 1/1/19 31/7/20 27/1/19
f 31/7/18 1/1/19 14/7/18
f 42/1/4 19/1/21 43/1/21
f 19/1/21 42/1/4 18/1/4
f 50/4/4 7/4/4 49/4/4
f 7/4/4 50/4/4 5/4/4
f 7/4/22 51/3/22 49/4/22
f 51/3/22 7/4/22 10/3/22
f 11/3/23 51/3/23 10/3/23
f 51/3/23 11/3/23 52/3/23
f 11/3/24 53/6/25 52/3/24
f 53/6/26 11/3/24 20/6/25
f 22/8/27 53/6/28 20/6/28
f 53/6/25 22/8/27 54/8/27
f 16/9/29 54/8/30 22/8/30
f 54/8/30 16/9/29 55/9/23
f 15/8/31 55/9/32 16/9/32
f 55/9/23 15/8/31 56/8/31
f 15/8/33 57/6/34 56/8/33
f 57/6/34 15/8/33 12/6/34
f 12/6/34 58/3/35 57/6/34
f 58/3/35 12/6/34 13/3/35
f 4/3/23 58/3/23 13/3/23
f 58/3/23 4/3/23 59/3/23
f 4/3/36 50/4/36 59/3/36
f 50/4/36 4/3/36 5/4/36
f 60/3/36 33/4/36 30/3/36
f 33/4/36 60/3/36 61/4/36
f 60/3/23 28/3/23 62/3/23
f 28/3/23 60/3/23 30/3/23
f 63/6/37 28/3/35 29/6/34
f 28/3/35 63/6/34 62/3/35
f 63/6/34 32/8/33 64/8/33
f 32/8/33 63/6/34 29/6/34
f 64/8/31 37/9/32 65/9/23
f 37/9/32 64/8/31 32/8/31
f 65/9/23 46/8/30 66/8/30
f 46/8/30 65/9/29 37/9/29
f 66/8/27 44/6/25 67/6/25
f 44/6/28 66/8/27 46/8/27
f 68/3/24 44/6/25 40/3/24
f 44/6/25 68/3/24 67/6/25
f 68/3/23 39/3/23 69/3/23
f 39/3/23 68/3/23 40/3/23
f 70/4/22 39/3/22 36/4/22
f 39/3/22 70/4/22 69/3/22
f 33/4/4 70/4/4 36/4/4
f 70/4/4 33/4/4 61/4/4
f 9/2/38 35/5/36 38/2/39
f 35/5/36 9/2/38 8/5/36
f 43/1/40 9/2/38 38/2/38
f 9/2/38 43/1/40 19/1/41
f 6/5/22 26/2/42 34/5/22
f 26/2/43 6/5/22 2/2/42
f 26/2/42 3/1/44 25/1/45
f 3/1/44 26/2/42 2/2/42
f 73/12/23 72/12/23 71/12/23
f 72/12/23 73/12/23 74/12/23
f 75/13/46 72/12/2 74/12/2
f 72/12/2 75/13/46 76/13/46
f 8/14/47 78/13/48 77/13/48
f 78/13/48 8/14/47 6/14/47
f 78/13/49 34/14/50 75/13/49
f 34/14/51 78/13/49 6/14/51
f 73/12/22 75/13/52 74/12/22
f 75/13/52 73/12/22 78/13/52
f 35/14/53 77/13/54 76/13/55
f 77/13/54 35/14/53 8/14/53
f 34/14/56 76/13/57 75/13/58
f 76/13/57 34/14/56 35/14/56
f 77/13/59 73/12/1 71/12/1
f 73/12/1 77/13/59 78/13/59
f 77/13/60 72/12/36 76/13/60
f 72/12/36 77/13/60 71/12/36
f 51/15/1 50/16/1 49/16/1
f 50/16/1 51/15/1 58/15/1
f 59/15/1 50/16/1 58/15/1
f 58/15/23 51/15/23 52/15/23
f 58/15/1 52/15/1 57/17/1
f 57/17/1 52/15/1 53/17/1
f 57/17/1 53/17/1 54/18/1
f 57/17/1 54/18/1 56/18/1
f 56/18/1 54/18/1 55/19/1
f 60/15/2 70/16/2 61/16/2
f 70/16/2 60/15/2 69/15/2
f 69/15/61 60/15/62 62/15/63
f 69/15/64 62/15/65 68/15/66
f 68/15/2 62/15/2 63/17/2
f 68/15/2 63/17/2 67/17/2
f 67/17/2 63/17/2 64/18/2
f 67/17/2 64/18/2 66/18/2
f 66/18/2 64/18/2 65/19/2
