# Blender 4.1.1
# www.blender.org
mtllib gravestone-bevel.003.mtl
o gravestone-bevel.003
v 17.340239 1.043848 -11.998927
v 17.182215 0.982598 -12.093893
v 17.234715 1.043848 -12.062344
v 17.295862 0.911256 -12.025595
v 17.295862 0.332408 -12.025595
v 17.182215 0.199816 -12.093893
v 17.887562 0.332408 -11.670011
v 18.001209 0.199816 -11.601712
v 18.001209 0.982598 -11.601712
v 17.887562 0.911256 -11.670011
v 17.755980 0.911256 -11.749085
v 17.475824 1.121908 -11.917446
v 17.427444 0.911256 -11.946520
v 17.373930 1.190543 -11.978681
v 17.524805 1.179051 -11.888011
v 17.591713 1.199967 -11.847803
v 17.465975 1.297930 -11.923365
v 17.843185 1.043848 -11.696679
v 17.948709 1.043848 -11.633263
v 17.707600 1.121908 -11.778160
v 17.809494 1.190543 -11.716926
v 17.658619 1.179051 -11.807594
v 17.717449 1.297930 -11.772241
v 17.591713 1.337237 -11.847803
v 17.423384 1.043848 -12.376291
v 17.370884 0.982598 -12.407842
v 17.528908 1.043848 -12.312876
v 17.616114 0.911256 -12.260468
v 17.664494 1.121908 -12.231395
v 17.484531 0.911256 -12.339543
v 17.562599 1.190543 -12.292628
v 17.713474 1.179051 -12.201960
v 17.484531 0.332408 -12.339543
v 17.370884 0.199816 -12.407842
v 18.189878 0.199816 -11.915661
v 18.076231 0.332408 -11.983959
v 17.780382 1.199967 -12.161752
v 18.189878 0.982598 -11.915661
v 18.076231 0.911256 -11.983959
v 17.944649 0.911256 -12.063034
v 17.654644 1.297930 -12.237313
v 18.031855 1.043848 -12.010628
v 18.137379 1.043848 -11.947211
v 17.896269 1.121908 -12.092109
v 17.998163 1.190543 -12.030874
v 17.847288 1.179051 -12.121543
v 17.906118 1.297930 -12.086189
v 17.780382 1.337237 -12.161752
v 17.950661 0.332408 -11.775010
v 17.358963 0.332408 -12.130594
v 17.950661 0.911256 -11.775010
v 17.819078 0.911256 -11.854085
v 17.770699 1.121908 -11.883160
v 17.721720 1.179051 -11.912594
v 17.654812 1.199967 -11.952803
v 17.587904 1.179051 -11.993011
v 17.538925 1.121908 -12.022446
v 17.490545 0.911256 -12.051519
v 17.358963 0.911256 -12.130594
v 17.421432 0.911256 -12.234544
v 17.421432 0.332408 -12.234544
v 17.553015 0.911256 -12.155469
v 17.601395 1.121908 -12.126395
v 17.650373 1.179051 -12.096960
v 17.717281 1.199967 -12.056752
v 17.784189 1.179051 -12.016543
v 17.833168 1.121908 -11.987109
v 17.881548 0.911256 -11.958035
v 18.013130 0.911256 -11.878960
v 18.013130 0.332408 -11.878960
v 18.022160 -0.086837 -11.517663
v 18.273930 -0.086837 -11.936610
v 17.098164 -0.086837 -12.072944
v 17.349934 -0.086837 -12.491891
v 17.349934 0.104265 -12.491891
v 18.273930 0.104265 -11.936610
v 18.022160 0.104265 -11.517663
v 17.098164 0.104265 -12.072944
vn -0.5151 -0.0000 0.8571
vn -0.5151 0.0001 0.8571
vn 0.5151 -0.0000 -0.8571
vn 0.5151 -0.0002 -0.8571
vn 0.5151 -0.0001 -0.8571
vn -0.3280 0.9239 -0.1971
vn -0.0000 1.0000 -0.0000
vn 0.7423 0.4999 0.4461
vn 0.8279 0.2588 0.4976
vn 0.8279 0.2588 0.4975
vn 0.7423 0.5000 0.4461
vn 0.4286 0.8660 0.2576
vn 0.7423 0.5001 0.4461
vn 0.4285 0.8661 0.2575
vn 0.4285 0.8661 0.2576
vn 0.0001 1.0000 -0.0000
vn -0.4285 0.8661 -0.2575
vn -0.0001 1.0000 -0.0000
vn -0.4285 0.8661 -0.2576
vn -0.7423 0.5000 -0.4461
vn -0.4286 0.8660 -0.2576
vn -0.8279 0.2588 -0.4975
vn 0.3280 0.9239 0.1971
vn -0.8571 -0.0000 -0.5151
vn -0.0000 -1.0000 -0.0000
vn -0.8279 -0.2588 -0.4975
vn -0.7423 -0.5000 -0.4461
vn -0.8279 -0.2588 -0.4976
vn -0.7423 -0.4999 -0.4461
vn -0.4286 -0.8660 -0.2576
vn -0.7423 -0.5001 -0.4460
vn -0.7423 -0.5001 -0.4461
vn -0.0001 -1.0000 -0.0000
vn -0.4285 -0.8661 -0.2575
vn -0.0000 -1.0000 -0.0001
vn 0.4285 -0.8661 0.2575
vn -0.0000 -1.0000 0.0001
vn 0.4286 -0.8660 0.2576
vn 0.7423 -0.5000 0.4461
vn 0.7423 -0.5001 0.4461
vn 0.7423 -0.4999 0.4461
vn 0.8279 -0.2588 0.4976
vn 0.8571 -0.0000 0.5151
vn 0.8279 -0.2588 0.4975
vn 0.7919 0.3827 0.4759
vn 0.7919 0.3826 0.4759
vn 0.3281 0.9239 0.1970
vn -0.7919 0.3827 -0.4759
vn -0.7919 0.3826 -0.4759
vn -0.3281 0.9239 -0.1970
vn 0.5015 0.2282 -0.8345
vn -0.4337 0.5397 0.7216
vn -0.5015 0.2283 0.8345
vn -0.4336 0.5397 0.7216
vn -0.8345 0.2283 -0.5015
vn -0.7216 0.5397 -0.4336
vn -0.7216 0.5397 -0.4337
vn -0.8345 0.2282 -0.5015
vn 0.7216 0.5397 0.4336
vn 0.8345 0.2283 0.5015
vn 0.4337 0.5397 -0.7216
vn 0.5015 0.2283 -0.8345
vn 0.4336 0.5397 -0.7216
vn -0.5015 0.2282 0.8345
vn 0.8345 0.2282 0.5015
vn -0.0624 -0.9981 -0.0000
vn -0.5151 -0.0001 0.8571
vn -0.0404 0.9991 0.0152
vn -0.0404 0.9991 0.0153
vn -0.0313 0.9995 -0.0000
vt 0.843750 0.183796
vt 0.843750 0.175194
vt 0.843750 0.165174
vt 0.843750 0.083880
vt 0.843750 0.065258
vt 0.843750 0.194759
vt 0.843750 0.204398
vt 0.843750 0.202784
vt 0.843750 0.205722
vt 0.843750 0.219480
vt 0.843750 0.225000
vt 0.093750 0.025000
vt 0.093750 0.051839
vt 0.093750 0.065258
vt 0.093750 0.165174
vt 0.093750 0.083880
vt 0.093750 0.194759
vt 0.093750 0.202784
vt 0.093750 0.205722
s 0
usemtl colormap.136
f 3/1/1 2/2/1 1/1/1
f 4/3/1 1/1/1 2/2/1
f 2/2/1 5/4/1 4/3/1
f 6/5/1 5/4/1 2/2/1
f 5/4/1 6/5/1 7/4/1
f 8/5/1 7/4/1 6/5/1
f 7/4/1 8/5/1 9/2/1
f 7/4/1 9/2/1 10/3/1
f 10/3/1 9/2/1 11/3/1
f 4/3/1 12/6/1 1/1/1
f 12/6/1 4/3/1 13/3/1
f 1/1/1 12/6/1 14/7/1
f 14/7/1 12/6/1 15/8/1
f 14/7/2 15/8/2 16/9/2
f 14/7/1 16/9/1 17/10/1
f 11/3/1 9/2/1 18/1/1
f 18/1/1 9/2/1 19/1/1
f 11/3/1 18/1/1 20/6/1
f 20/6/1 18/1/1 21/7/1
f 20/6/1 21/7/1 22/8/1
f 22/8/1 21/7/1 16/9/1
f 16/9/1 21/7/1 23/10/1
f 17/10/1 16/9/1 23/10/1
f 17/10/1 23/10/1 24/11/1
f 27/1/3 26/2/3 25/1/3
f 28/3/3 26/2/3 27/1/3
f 28/3/3 27/1/3 29/6/3
f 30/3/3 26/2/3 28/3/3
f 29/6/3 27/1/3 31/7/3
f 29/6/3 31/7/3 32/8/3
f 33/4/3 26/2/3 30/3/3
f 33/4/3 34/5/3 26/2/3
f 34/5/3 33/4/3 35/5/3
f 36/4/3 35/5/3 33/4/3
f 32/8/3 31/7/3 37/9/3
f 35/5/3 36/4/3 38/2/3
f 38/2/3 36/4/3 39/3/3
f 38/2/3 39/3/3 40/3/3
f 37/9/3 31/7/3 41/10/3
f 38/2/3 40/3/3 42/1/3
f 38/2/3 42/1/3 43/1/3
f 42/1/3 40/3/3 44/6/3
f 42/1/3 44/6/3 45/7/3
f 45/7/3 44/6/3 46/8/3
f 45/7/4 46/8/4 37/9/4
f 45/7/3 37/9/3 47/10/3
f 47/10/3 37/9/3 41/10/3
f 47/10/5 41/10/5 48/11/5
f 25/1/6 1/1/7 27/1/7
f 1/1/7 25/1/6 3/1/6
f 21/7/8 42/1/9 45/7/8
f 42/1/10 21/7/11 18/1/10
f 47/10/12 21/7/13 45/7/13
f 21/7/11 47/10/12 23/10/12
f 48/11/7 23/10/14 47/10/15
f 23/10/14 48/11/7 24/11/16
f 41/10/17 24/11/7 48/11/18
f 24/11/7 41/10/17 17/10/19
f 31/7/20 17/10/21 41/10/21
f 17/10/21 31/7/20 14/7/20
f 1/1/22 31/7/20 27/1/22
f 31/7/20 1/1/22 14/7/20
f 42/1/7 19/1/23 43/1/23
f 19/1/23 42/1/7 18/1/7
f 50/4/7 7/4/7 49/4/7
f 7/4/7 50/4/7 5/4/7
f 7/4/24 51/3/24 49/4/24
f 51/3/24 7/4/24 10/3/24
f 11/3/25 51/3/25 10/3/25
f 51/3/25 11/3/25 52/3/25
f 11/3/26 53/6/27 52/3/26
f 53/6/27 11/3/28 20/6/29
f 22/8/30 53/6/31 20/6/32
f 53/6/27 22/8/30 54/8/30
f 16/9/33 54/8/34 22/8/34
f 54/8/34 16/9/35 55/9/25
f 15/8/36 55/9/37 16/9/25
f 55/9/25 15/8/36 56/8/36
f 15/8/38 57/6/39 56/8/38
f 57/6/40 15/8/38 12/6/39
f 12/6/41 58/3/42 57/6/41
f 58/3/42 12/6/41 13/3/42
f 4/3/25 58/3/25 13/3/25
f 58/3/25 4/3/25 59/3/25
f 4/3/43 50/4/43 59/3/43
f 50/4/43 4/3/43 5/4/43
f 60/3/43 33/4/43 30/3/43
f 33/4/43 60/3/43 61/4/43
f 60/3/25 28/3/25 62/3/25
f 28/3/25 60/3/25 30/3/25
f 63/6/39 28/3/42 29/6/41
f 28/3/44 63/6/39 62/3/44
f 63/6/40 32/8/38 64/8/38
f 32/8/38 63/6/40 29/6/40
f 64/8/36 37/9/25 65/9/25
f 37/9/25 64/8/36 32/8/36
f 65/9/33 46/8/34 66/8/34
f 46/8/34 65/9/25 37/9/25
f 66/8/30 44/6/27 67/6/27
f 44/6/32 66/8/30 46/8/30
f 68/3/28 44/6/27 40/3/28
f 44/6/29 68/3/28 67/6/29
f 68/3/25 39/3/25 69/3/25
f 39/3/25 68/3/25 40/3/25
f 70/4/24 39/3/24 36/4/24
f 39/3/24 70/4/24 69/3/24
f 33/4/7 70/4/7 36/4/7
f 70/4/7 33/4/7 61/4/7
f 9/2/45 35/5/43 38/2/46
f 35/5/43 9/2/45 8/5/43
f 43/1/23 9/2/45 38/2/45
f 9/2/45 43/1/23 19/1/47
f 6/5/24 26/2/48 34/5/24
f 26/2/48 6/5/24 2/2/49
f 26/2/48 3/1/6 25/1/50
f 3/1/6 26/2/48 2/2/48
f 73/12/25 72/12/25 71/12/25
f 72/12/25 73/12/25 74/12/25
f 75/13/51 72/12/3 74/12/3
f 72/12/3 75/13/51 76/13/51
f 8/14/52 78/13/53 77/13/53
f 78/13/53 8/14/54 6/14/54
f 78/13/55 34/14/56 75/13/55
f 34/14/57 78/13/55 6/14/57
f 73/12/24 75/13/58 74/12/24
f 75/13/58 73/12/24 78/13/58
f 35/14/59 77/13/60 76/13/60
f 77/13/60 35/14/59 8/14/59
f 34/14/61 76/13/62 75/13/62
f 76/13/62 34/14/63 35/14/63
f 77/13/64 73/12/1 71/12/1
f 73/12/1 77/13/64 78/13/64
f 77/13/65 72/12/43 76/13/65
f 72/12/43 77/13/65 71/12/43
f 51/15/1 50/16/1 49/16/1
f 50/16/1 51/15/1 58/15/1
f 59/15/1 50/16/1 58/15/1
f 58/15/66 51/15/66 52/15/66
f 58/15/1 52/15/1 57/17/1
f 57/17/1 52/15/1 53/17/1
f 57/17/1 53/17/1 54/18/1
f 57/17/1 54/18/1 56/18/1
f 56/18/67 54/18/67 55/19/67
f 60/15/3 70/16/3 61/16/3
f 70/16/3 60/15/3 69/15/3
f 69/15/68 60/15/69 62/15/70
f 69/15/25 62/15/25 68/15/25
f 68/15/3 62/15/3 63/17/3
f 68/15/3 63/17/3 67/17/3
f 67/17/3 63/17/3 64/18/3
f 67/17/3 64/18/3 66/18/3
f 66/18/5 64/18/5 65/19/5
f 3/1/1 2/2/1 1/1/1
f 4/3/1 1/1/1 2/2/1
f 2/2/1 5/4/1 4/3/1
f 6/5/1 5/4/1 2/2/1
f 5/4/1 6/5/1 7/4/1
f 8/5/1 7/4/1 6/5/1
f 7/4/1 8/5/1 9/2/1
f 7/4/1 9/2/1 10/3/1
f 10/3/1 9/2/1 11/3/1
f 4/3/1 12/6/1 1/1/1
f 12/6/1 4/3/1 13/3/1
f 1/1/1 12/6/1 14/7/1
f 14/7/1 12/6/1 15/8/1
f 14/7/2 15/8/2 16/9/2
f 14/7/1 16/9/1 17/10/1
f 11/3/1 9/2/1 18/1/1
f 18/1/1 9/2/1 19/1/1
f 11/3/1 18/1/1 20/6/1
f 20/6/1 18/1/1 21/7/1
f 20/6/1 21/7/1 22/8/1
f 22/8/1 21/7/1 16/9/1
f 16/9/1 21/7/1 23/10/1
f 17/10/1 16/9/1 23/10/1
f 17/10/1 23/10/1 24/11/1
f 27/1/3 26/2/3 25/1/3
f 28/3/3 26/2/3 27/1/3
f 28/3/3 27/1/3 29/6/3
f 30/3/3 26/2/3 28/3/3
f 29/6/3 27/1/3 31/7/3
f 29/6/3 31/7/3 32/8/3
f 33/4/3 26/2/3 30/3/3
f 33/4/3 34/5/3 26/2/3
f 34/5/3 33/4/3 35/5/3
f 36/4/3 35/5/3 33/4/3
f 32/8/3 31/7/3 37/9/3
f 35/5/3 36/4/3 38/2/3
f 38/2/3 36/4/3 39/3/3
f 38/2/3 39/3/3 40/3/3
f 37/9/3 31/7/3 41/10/3
f 38/2/3 40/3/3 42/1/3
f 38/2/3 42/1/3 43/1/3
f 42/1/3 40/3/3 44/6/3
f 42/1/3 44/6/3 45/7/3
f 45/7/3 44/6/3 46/8/3
f 45/7/4 46/8/4 37/9/4
f 45/7/3 37/9/3 47/10/3
f 47/10/3 37/9/3 41/10/3
f 47/10/5 41/10/5 48/11/5
f 25/1/6 1/1/7 27/1/7
f 1/1/7 25/1/6 3/1/6
f 21/7/8 42/1/9 45/7/8
f 42/1/10 21/7/11 18/1/10
f 47/10/12 21/7/13 45/7/13
f 21/7/11 47/10/12 23/10/12
f 48/11/7 23/10/14 47/10/15
f 23/10/14 48/11/7 24/11/16
f 41/10/17 24/11/7 48/11/18
f 24/11/7 41/10/17 17/10/19
f 31/7/20 17/10/21 41/10/21
f 17/10/21 31/7/20 14/7/20
f 1/1/22 31/7/20 27/1/22
f 31/7/20 1/1/22 14/7/20
f 42/1/7 19/1/23 43/1/23
f 19/1/23 42/1/7 18/1/7
f 50/4/7 7/4/7 49/4/7
f 7/4/7 50/4/7 5/4/7
f 7/4/24 51/3/24 49/4/24
f 51/3/24 7/4/24 10/3/24
f 11/3/25 51/3/25 10/3/25
f 51/3/25 11/3/25 52/3/25
f 11/3/26 53/6/27 52/3/26
f 53/6/27 11/3/28 20/6/29
f 22/8/30 53/6/31 20/6/32
f 53/6/27 22/8/30 54/8/30
f 16/9/33 54/8/34 22/8/34
f 54/8/34 16/9/35 55/9/25
f 15/8/36 55/9/37 16/9/25
f 55/9/25 15/8/36 56/8/36
f 15/8/38 57/6/39 56/8/38
f 57/6/40 15/8/38 12/6/39
f 12/6/41 58/3/42 57/6/41
f 58/3/42 12/6/41 13/3/42
f 4/3/25 58/3/25 13/3/25
f 58/3/25 4/3/25 59/3/25
f 4/3/43 50/4/43 59/3/43
f 50/4/43 4/3/43 5/4/43
f 60/3/43 33/4/43 30/3/43
f 33/4/43 60/3/43 61/4/43
f 60/3/25 28/3/25 62/3/25
f 28/3/25 60/3/25 30/3/25
f 63/6/39 28/3/42 29/6/41
f 28/3/44 63/6/39 62/3/44
f 63/6/40 32/8/38 64/8/38
f 32/8/38 63/6/40 29/6/40
f 64/8/36 37/9/25 65/9/25
f 37/9/25 64/8/36 32/8/36
f 65/9/33 46/8/34 66/8/34
f 46/8/34 65/9/25 37/9/25
f 66/8/30 44/6/27 67/6/27
f 44/6/32 66/8/30 46/8/30
f 68/3/28 44/6/27 40/3/28
f 44/6/29 68/3/28 67/6/29
f 68/3/25 39/3/25 69/3/25
f 39/3/25 68/3/25 40/3/25
f 70/4/24 39/3/24 36/4/24
f 39/3/24 70/4/24 69/3/24
f 33/4/7 70/4/7 36/4/7
f 70/4/7 33/4/7 61/4/7
f 9/2/45 35/5/43 38/2/46
f 35/5/43 9/2/45 8/5/43
f 43/1/23 9/2/45 38/2/45
f 9/2/45 43/1/23 19/1/47
f 6/5/24 26/2/48 34/5/24
f 26/2/48 6/5/24 2/2/49
f 26/2/48 3/1/6 25/1/50
f 3/1/6 26/2/48 2/2/48
f 73/12/25 72/12/25 71/12/25
f 72/12/25 73/12/25 74/12/25
f 75/13/51 72/12/3 74/12/3
f 72/12/3 75/13/51 76/13/51
f 8/14/52 78/13/53 77/13/53
f 78/13/53 8/14/54 6/14/54
f 78/13/55 34/14/56 75/13/55
f 34/14/57 78/13/55 6/14/57
f 73/12/24 75/13/58 74/12/24
f 75/13/58 73/12/24 78/13/58
f 35/14/59 77/13/60 76/13/60
f 77/13/60 35/14/59 8/14/59
f 34/14/61 76/13/62 75/13/62
f 76/13/62 34/14/63 35/14/63
f 77/13/64 73/12/1 71/12/1
f 73/12/1 77/13/64 78/13/64
f 77/13/65 72/12/43 76/13/65
f 72/12/43 77/13/65 71/12/43
f 51/15/1 50/16/1 49/16/1
f 50/16/1 51/15/1 58/15/1
f 59/15/1 50/16/1 58/15/1
f 58/15/66 51/15/66 52/15/66
f 58/15/1 52/15/1 57/17/1
f 57/17/1 52/15/1 53/17/1
f 57/17/1 53/17/1 54/18/1
f 57/17/1 54/18/1 56/18/1
f 56/18/67 54/18/67 55/19/67
f 60/15/3 70/16/3 61/16/3
f 70/16/3 60/15/3 69/15/3
f 69/15/68 60/15/69 62/15/70
f 69/15/25 62/15/25 68/15/25
f 68/15/3 62/15/3 63/17/3
f 68/15/3 63/17/3 67/17/3
f 67/17/3 63/17/3 64/18/3
f 67/17/3 64/18/3 66/18/3
f 66/18/5 64/18/5 65/19/5
