# Blender 4.1.1
# www.blender.org
mtllib tree.013.mtl
o tree.013
v -18.064489 -4.675250 -9.543039
v -18.064489 -4.675250 -9.735117
v -18.160528 -4.675250 -9.447001
v -18.160528 -4.675250 -9.831156
v -18.352604 -4.675250 -9.447001
v -18.352604 -4.675250 -9.831156
v -18.448645 -4.675250 -9.543039
v -18.448645 -4.675250 -9.735117
v -18.160528 -4.327483 -9.687098
v -18.160528 -4.327483 -9.591060
v -18.208548 -4.327483 -9.543039
v -18.208548 -4.327483 -9.735117
v -18.304586 -4.327483 -9.735117
v -18.352604 -4.327483 -9.687098
v -18.352604 -4.327483 -9.591060
v -18.304586 -4.327483 -9.543039
v -18.376616 -3.805793 -9.699102
v -18.376616 -3.805793 -9.579055
v -18.316591 -3.805793 -9.519031
v -18.136518 -3.805793 -9.699102
v -18.136518 -3.805793 -9.579055
v -18.316591 -3.805793 -9.759127
v -18.196543 -3.805793 -9.759127
v -18.196543 -3.805793 -9.519031
v -18.097824 -4.203316 -9.686022
v -18.126663 -4.203316 -9.616397
v -18.126663 -4.203316 -9.755648
v -18.196289 -4.203316 -9.784488
v -18.196289 -4.203316 -9.587557
v -18.265915 -4.203316 -9.755648
v -18.265915 -4.203316 -9.616397
v -18.294756 -4.203316 -9.686022
v -18.042051 -4.329511 -9.686022
v -18.087227 -4.329511 -9.795085
v -18.087227 -4.329511 -9.576960
v -18.196289 -4.329511 -9.531784
v -18.196289 -4.329511 -9.840260
v -18.305351 -4.329511 -9.576960
v -18.305351 -4.329511 -9.795085
v -18.350529 -4.329511 -9.686022
v -18.026709 -3.805793 -9.224825
v -18.505049 -3.805793 -9.224825
v -18.124767 -3.230796 -9.394668
v -18.406990 -3.230796 -9.394668
v -18.026709 -3.805793 -10.053332
v -17.787540 -3.805793 -9.639078
v -18.124767 -3.230796 -9.883491
v -17.983656 -3.230796 -9.639078
v -18.505049 -3.805793 -10.053332
v -18.406990 -3.230796 -9.883491
v -18.548100 -3.230796 -9.639078
v -18.744219 -3.805793 -9.639078
v -17.990067 -2.613048 -9.639078
v -18.127974 -2.613048 -9.400219
v -18.202484 -1.965096 -9.639078
v -18.234182 -1.965096 -9.584177
v -18.329273 -1.965096 -9.639078
v -18.297577 -1.965096 -9.584177
v -18.541689 -2.613048 -9.639078
v -18.403784 -2.613048 -9.400219
v -18.403784 -2.613048 -9.877938
v -18.127974 -2.613048 -9.877938
v -18.297577 -1.965096 -9.693979
v -18.234182 -1.965096 -9.693979
v -17.929087 -3.230796 -9.833526
v -17.929087 -3.230796 -9.444632
v -18.111557 -2.613048 -9.728176
v -18.111557 -2.613048 -9.549980
v -18.265879 -3.230796 -10.027972
v -18.265879 -2.613048 -9.817274
v -18.265879 -3.230796 -9.250185
v -18.265879 -2.613048 -9.460883
v -18.602671 -3.230796 -9.444632
v -18.420200 -2.613048 -9.549980
v -18.602671 -3.230796 -9.833526
v -18.420200 -2.613048 -9.728176
v -18.265879 -3.985170 -9.133689
v -18.531357 -3.895481 -9.179256
v -18.000399 -3.895481 -9.179256
v -18.531357 -3.895482 -10.098900
v -18.703560 -3.985170 -9.891773
v -18.796835 -3.895481 -9.639078
v -18.703560 -3.985170 -9.386383
v -17.734922 -3.895481 -9.639078
v -17.828197 -3.985170 -9.386383
v -18.265879 -3.985170 -10.144468
v -18.000399 -3.895482 -10.098900
v -17.828197 -3.985170 -9.891773
v -18.471323 -3.376631 -9.994916
v -18.265879 -3.303713 -10.070750
v -18.639719 -3.303713 -9.854915
v -17.892040 -3.303713 -9.854915
v -17.854992 -3.376631 -9.639078
v -17.892040 -3.303713 -9.423243
v -18.471323 -3.376631 -9.283240
v -18.639719 -3.303713 -9.423243
v -18.265879 -3.303713 -9.207406
v -18.676765 -3.376631 -9.639078
v -18.060436 -3.376631 -9.283240
v -18.060436 -3.376631 -9.994916
v -18.418953 -2.664763 -9.904213
v -18.518246 -2.716478 -9.784782
v -18.572029 -2.664763 -9.639078
v -18.518246 -2.716478 -9.493374
v -18.418953 -2.664763 -9.373944
v -18.112803 -2.664763 -9.904213
v -18.013512 -2.716478 -9.784782
v -17.959728 -2.664763 -9.639078
v -18.265879 -2.716478 -9.347670
v -18.112803 -2.664763 -9.373944
v -18.265879 -2.716478 -9.930487
v -18.013512 -2.716478 -9.493374
vn -0.0000 -1.0000 -0.0000
vn 0.8851 0.2942 -0.3607
vn 0.8813 0.2944 0.3698
vn 0.8812 0.2944 -0.3698
vn 0.8812 0.2944 0.3698
vn 0.8851 0.2942 0.3607
vn 0.3608 0.2942 0.8850
vn 0.8850 0.2942 0.3608
vn 0.3607 0.2943 0.8850
vn 0.3698 0.2944 0.8812
vn 0.3608 0.2942 -0.8850
vn 0.3698 0.2944 -0.8812
vn 0.3607 0.2942 -0.8850
vn 0.8850 0.2942 -0.3608
vn -0.3607 0.2942 -0.8851
vn -0.3698 0.2944 -0.8812
vn 0.3607 0.2942 -0.8851
vn -0.8813 0.2944 0.3698
vn -0.8851 0.2942 -0.3607
vn -0.8812 0.2944 -0.3698
vn -0.8851 0.2942 0.3607
vn 0.3607 0.2942 0.8851
vn -0.3698 0.2944 0.8813
vn -0.3698 0.2944 0.8812
vn -0.3607 0.2942 0.8851
vn -0.3607 0.2942 -0.8850
vn -0.3608 0.2943 -0.8850
vn -0.8812 0.2944 0.3698
vn -0.3608 0.2942 0.8850
vn -0.3607 0.2942 0.8850
vn -0.9230 -0.0513 -0.3813
vn -0.9223 -0.0512 0.3829
vn -0.9223 -0.0513 -0.3829
vn -0.9223 -0.0513 0.3829
vn -0.9230 -0.0513 0.3813
vn -0.3814 -0.0512 0.9230
vn -0.9223 -0.0513 0.3830
vn -0.9230 -0.0512 0.3813
vn -0.3814 -0.0513 0.9230
vn -0.3830 -0.0512 0.9223
vn 0.9223 -0.0512 0.3829
vn 0.9230 -0.0513 -0.3813
vn 0.9223 -0.0513 -0.3829
vn 0.9230 -0.0513 0.3813
vn -0.3829 -0.0513 -0.9223
vn 0.3813 -0.0513 -0.9230
vn -0.3813 -0.0513 -0.9230
vn -0.3829 -0.0512 -0.9223
vn 0.3829 -0.0513 -0.9223
vn 0.9223 -0.0513 0.3830
vn 0.3814 -0.0513 0.9230
vn 0.9230 -0.0513 0.3814
vn 0.9223 -0.0512 0.3830
vn 0.3830 -0.0512 0.9223
vn -0.3814 -0.0513 -0.9230
vn -0.9223 -0.0512 -0.3830
vn -0.3830 -0.0513 -0.9223
vn -0.9223 -0.0513 -0.3830
vn 0.9223 -0.0513 -0.3830
vn 0.3814 -0.0513 -0.9230
vn 0.3830 -0.0512 -0.9223
vn 0.3814 -0.0512 -0.9230
vn 0.9230 -0.0512 -0.3814
vn 0.3829 -0.0513 0.9223
vn -0.3813 -0.0513 0.9230
vn 0.3813 -0.0513 0.9230
vn 0.3829 -0.0512 0.9223
vn -0.3829 -0.0513 0.9223
vn -0.0000 1.0000 -0.0000
vn 0.6468 0.4042 -0.6467
vn 0.9147 0.4042 -0.0000
vn 0.6468 0.4042 -0.6468
vn 0.9146 0.4043 -0.0001
vn -0.0000 0.4042 0.9147
vn -0.6467 0.4042 0.6468
vn -0.6468 0.4042 0.6468
vn -0.6467 0.4043 0.6468
vn -0.9147 0.4042 0.0001
vn -0.9146 0.4043 0.0001
vn -0.9147 0.4042 -0.0000
vn -0.0000 0.4042 -0.9147
vn 0.6467 0.4042 -0.6468
vn 0.6467 0.4043 -0.6468
vn 0.6468 0.4042 0.6468
vn 0.6467 0.4042 0.6468
vn -0.0000 0.4042 0.9146
vn -0.6468 0.4042 -0.6468
vn -0.6467 0.4042 -0.6468
vn -0.0000 0.4043 -0.9146
vn 0.9146 0.4043 0.0001
vn 0.9147 0.4042 0.0001
vn 0.6468 0.4042 0.6467
vn -0.6468 0.4042 -0.6467
vn -0.9146 0.4043 -0.0000
vn 0.4732 0.3228 0.8197
vn -0.4732 0.3228 0.8197
vn 0.4732 0.3228 -0.8197
vn 0.9465 0.3228 -0.0000
vn 0.4732 0.3228 -0.8196
vn -0.4732 0.3228 -0.8197
vn 0.4733 0.3228 0.8197
vn -0.9465 0.3228 -0.0000
vn -0.4732 0.3228 0.8196
vn -0.4733 0.3228 -0.8197
vn -0.4732 0.3228 -0.8196
vn 0.6877 0.7260 -0.0000
vn 0.4751 0.3115 0.8229
vn 0.9503 0.3115 -0.0000
vn 0.4752 0.3116 0.8229
vn 0.6877 0.7260 -0.0001
vn 0.3439 0.7260 0.5956
vn -0.9502 0.3115 0.0001
vn -0.3438 0.7260 0.5956
vn -0.6877 0.7260 -0.0000
vn -0.9503 0.3115 -0.0000
vn -0.4752 0.3115 0.8229
vn -0.3439 0.7260 -0.5956
vn 0.4751 0.3115 -0.8229
vn -0.4751 0.3115 -0.8229
vn 0.3439 0.7260 -0.5956
vn 0.3438 0.7260 -0.5956
vn 0.9502 0.3115 -0.0000
vn 0.9502 0.3115 -0.0001
vn 0.3439 0.7259 -0.5956
vn 0.3439 0.7259 0.5956
vn 0.6877 0.7259 -0.0000
vn -0.3439 0.7259 0.5956
vn -0.3439 0.7259 -0.5956
vn -0.6877 0.7259 -0.0000
vn -0.9502 0.3116 -0.0000
vn -0.3438 0.7260 -0.5956
vn -0.4752 0.3115 -0.8229
vn -0.9502 0.3115 -0.0001
vn -0.4751 0.3115 0.8229
vn -0.3439 0.7260 0.5956
vn 0.8197 0.3228 -0.4732
vn 0.8197 0.3228 0.4732
vn -0.0000 0.3228 -0.9465
vn 0.8197 0.3228 -0.4733
vn 0.8196 0.3228 0.4732
vn -0.0000 0.3228 0.9465
vn 0.8197 0.3228 0.4733
vn -0.8196 0.3228 0.4732
vn -0.8196 0.3228 0.4733
vn -0.8197 0.3228 0.4733
vn -0.8196 0.3228 -0.4732
vn -0.8197 0.3228 -0.4732
vn -0.8197 0.3228 -0.4733
vn -0.8197 0.3228 0.4732
vn 0.4313 0.5060 0.7470
vn -0.4313 0.5060 0.7470
vn -0.0000 0.4530 0.8915
vn -0.0000 -0.4530 -0.8915
vn 0.4313 -0.5060 -0.7470
vn -0.4313 -0.5060 -0.7470
vn -0.4313 -0.5061 -0.7469
vn -0.7721 0.4529 -0.4458
vn -0.4313 0.5060 -0.7470
vn -0.4313 0.5061 -0.7469
vn -0.7721 0.4530 -0.4458
vn -0.8625 0.5060 -0.0000
vn 0.4313 -0.5060 0.7470
vn 0.7721 -0.4529 0.4458
vn 0.8625 -0.5060 -0.0000
vn 0.7721 -0.4530 0.4458
vn -0.7721 0.4530 0.4458
vn 0.7721 -0.4530 -0.4458
vn 0.4312 -0.5060 -0.7470
vn 0.8625 0.5060 -0.0000
vn 0.7721 0.4530 0.4458
vn 0.4313 0.5061 0.7469
vn 0.4312 0.5061 0.7470
vn -0.8625 -0.5060 -0.0000
vn -0.7721 -0.4530 -0.4458
vn -0.4312 -0.5060 -0.7470
vn 0.4313 0.5060 -0.7470
vn -0.0000 0.4530 -0.8915
vn -0.0000 -0.4530 0.8915
vn -0.4313 -0.5060 0.7470
vn 0.7721 0.4530 -0.4458
vn 0.8625 0.5061 -0.0000
vn -0.7721 -0.4530 0.4458
vn -0.4312 -0.5060 0.7470
vn -0.7470 0.5060 -0.4313
vn -0.0000 0.5060 -0.8625
vn -0.4458 0.4530 -0.7721
vn 0.4458 -0.4530 0.7721
vn -0.0000 -0.5060 0.8625
vn 0.7470 -0.5060 0.4313
vn 0.7470 0.5060 -0.4313
vn 0.8915 0.4530 -0.0000
vn 0.7470 0.5060 0.4313
vn -0.7470 -0.5060 0.4313
vn -0.8915 -0.4530 -0.0000
vn -0.7470 -0.5060 -0.4313
vn -0.0000 0.5060 0.8625
vn -0.7470 0.5060 0.4312
vn -0.4458 0.4530 0.7721
vn -0.7470 0.5060 0.4313
vn 0.4458 -0.4530 -0.7721
vn 0.7470 -0.5060 -0.4313
vn -0.0000 -0.5060 -0.8625
vn -0.8915 0.4530 -0.0000
vn -0.7470 0.5061 -0.4312
vn 0.7470 -0.5060 0.4312
vn 0.8915 -0.4530 -0.0000
vn 0.7470 -0.5060 -0.4312
vn 0.7470 -0.5061 -0.4312
vn 0.4458 0.4530 0.7721
vn -0.4458 -0.4530 -0.7721
vn 0.4458 0.4529 -0.7721
vn -0.4458 -0.4530 0.7721
vn -0.7721 0.4530 -0.4457
vn -0.4313 0.5060 -0.7469
vn -0.4312 0.5060 -0.7470
vn 0.4313 -0.5060 0.7469
vn 0.7721 -0.4530 0.4457
vn -0.4313 0.5060 0.7469
vn -0.7721 0.4530 0.4457
vn 0.7721 -0.4530 -0.4457
vn 0.4313 -0.5060 -0.7469
vn 0.4313 0.5061 -0.7469
vn 0.7721 0.4530 -0.4457
vn 0.7721 0.4529 -0.4458
vn -0.4313 -0.5060 0.7469
vn -0.7721 -0.4530 0.4457
vn -0.4313 -0.5061 0.7469
vn -0.7721 -0.4529 0.4458
vn -0.0000 0.4529 0.8915
vn 0.7721 0.4529 0.4458
vn 0.4312 0.5060 0.7470
vn 0.7721 0.4530 0.4457
vn 0.4313 0.5060 0.7469
vn -0.7721 -0.4529 -0.4458
vn -0.4313 -0.5060 -0.7469
vn -0.7721 -0.4530 -0.4457
vt 0.593750 0.025000
vt 0.593750 0.104996
vt 0.593750 0.225000
vt 0.093750 0.475000
vt 0.093750 0.275000
vt 0.093750 0.425000
vt 0.093750 0.348778
vt 0.093750 0.338765
vt 0.093750 0.344099
vt 0.093750 0.375000
vt 0.093750 0.325000
s 0
usemtl colormap.002
f 3/1/1 2/1/1 1/1/1
f 2/1/1 3/1/1 4/1/1
f 4/1/1 3/1/1 5/1/1
f 4/1/1 5/1/1 6/1/1
f 6/1/1 5/1/1 7/1/1
f 6/1/1 7/1/1 8/1/1
f 9/2/2 1/1/3 2/1/4
f 1/1/5 9/2/2 10/2/6
f 11/2/7 1/1/5 10/2/8
f 1/1/5 11/2/9 3/1/10
f 12/2/11 2/1/4 4/1/12
f 2/1/4 12/2/13 9/2/14
f 13/2/15 4/1/12 6/1/16
f 4/1/12 13/2/15 12/2/17
f 7/1/18 14/2/19 8/1/20
f 14/2/19 7/1/18 15/2/21
f 11/2/22 5/1/23 3/1/10
f 5/1/24 11/2/22 16/2/25
f 8/1/20 13/2/26 6/1/16
f 13/2/27 8/1/20 14/2/19
f 7/1/28 16/2/29 15/2/21
f 16/2/30 7/1/28 5/1/24
f 14/2/31 18/3/32 17/3/33
f 18/3/34 14/2/31 15/2/35
f 16/2/36 18/3/37 15/2/38
f 18/3/37 16/2/39 19/3/40
f 21/3/41 9/2/42 20/3/43
f 9/2/42 21/3/41 10/2/44
f 22/3/45 12/2/46 13/2/47
f 12/2/46 22/3/48 23/3/49
f 21/3/50 11/2/51 10/2/52
f 11/2/51 21/3/53 24/3/54
f 13/2/55 17/3/56 22/3/57
f 17/3/58 13/2/55 14/2/31
f 20/3/59 12/2/60 23/3/61
f 12/2/62 20/3/59 9/2/63
f 24/3/64 16/2/65 11/2/66
f 16/2/65 24/3/67 19/3/68
f 27/4/69 26/4/69 25/4/69
f 26/4/69 27/4/69 28/4/69
f 26/4/69 28/4/69 29/4/69
f 29/4/69 28/4/69 30/4/69
f 29/4/69 30/4/69 31/4/69
f 31/4/69 30/4/69 32/4/69
f 35/5/1 34/5/1 33/5/1
f 34/5/1 35/5/1 36/5/1
f 34/5/1 36/5/1 37/5/1
f 37/5/1 36/5/1 38/5/1
f 37/5/1 38/5/1 39/5/1
f 39/5/1 38/5/1 40/5/1
f 27/4/70 33/5/71 34/5/70
f 33/5/71 27/4/72 25/4/73
f 29/4/74 38/5/75 36/5/74
f 38/5/76 29/4/74 31/4/77
f 40/5/78 31/4/76 32/4/79
f 31/4/76 40/5/80 38/5/76
f 28/4/81 34/5/82 37/5/81
f 34/5/82 28/4/81 27/4/83
f 26/4/84 36/5/74 35/5/85
f 36/5/74 26/4/84 29/4/86
f 30/4/87 37/5/81 39/5/88
f 37/5/81 30/4/88 28/4/89
f 26/4/84 33/5/90 25/4/91
f 33/5/71 26/4/92 35/5/92
f 40/5/80 30/4/93 39/5/87
f 30/4/87 40/5/94 32/4/80
f 43/6/95 42/7/96 41/7/95
f 42/7/96 43/6/95 44/6/96
f 47/6/97 46/7/98 45/7/99
f 46/7/98 47/6/97 48/6/98
f 50/6/100 45/7/97 49/7/100
f 45/7/97 50/6/100 47/6/97
f 48/6/98 41/7/95 46/7/98
f 41/7/101 48/6/98 43/6/101
f 52/7/102 44/6/96 51/6/102
f 44/6/96 52/7/102 42/7/103
f 52/7/102 50/6/104 49/7/105
f 50/6/100 52/7/102 51/6/102
f 41/7/1 45/7/1 46/7/1
f 45/7/1 41/7/1 42/7/1
f 45/7/1 42/7/1 49/7/1
f 49/7/1 42/7/1 52/7/1
f 55/6/106 54/8/107 53/8/108
f 54/8/109 55/6/110 56/6/111
f 59/8/112 58/6/113 57/6/114
f 58/6/113 59/8/115 60/8/116
f 63/6/117 62/8/118 61/8/119
f 62/8/118 63/6/117 64/6/120
f 64/6/121 53/8/122 62/8/118
f 53/8/123 64/6/121 55/6/106
f 64/6/124 56/6/125 55/6/126
f 56/6/125 64/6/124 58/6/127
f 58/6/127 64/6/124 63/6/128
f 58/6/127 63/6/128 57/6/129
f 59/8/130 63/6/131 61/8/132
f 63/6/131 59/8/133 57/6/114
f 54/8/1 62/8/1 53/8/1
f 62/8/1 54/8/1 60/8/1
f 62/8/1 60/8/1 61/8/1
f 61/8/1 60/8/1 59/8/1
f 56/6/111 60/8/134 54/8/107
f 60/8/134 56/6/111 58/6/135
f 67/6/136 66/9/137 65/9/136
f 66/9/137 67/6/136 68/6/137
f 70/6/138 65/9/136 69/9/138
f 65/9/136 70/6/138 67/6/139
f 68/6/140 71/9/141 66/9/137
f 71/9/141 68/6/142 72/6/141
f 72/6/141 73/9/143 71/9/141
f 73/9/144 72/6/141 74/6/145
f 71/9/1 65/9/1 66/9/1
f 65/9/1 71/9/1 69/9/1
f 69/9/1 71/9/1 73/9/1
f 69/9/1 73/9/1 75/9/1
f 76/6/146 69/9/138 75/9/147
f 69/9/138 76/6/148 70/6/138
f 73/9/149 76/6/147 75/9/147
f 76/6/147 73/9/149 74/6/149
f 79/10/150 78/10/151 77/11/152
f 78/10/151 79/10/150 41/6/150
f 78/10/151 41/6/150 42/6/151
f 77/11/153 78/10/154 79/10/155
f 41/6/155 79/10/155 78/10/154
f 42/6/154 41/6/156 78/10/154
f 81/11/157 49/6/158 80/10/158
f 49/6/159 81/11/160 52/6/161
f 52/6/161 81/11/157 82/10/161
f 80/10/162 49/6/162 81/11/163
f 52/6/164 81/11/165 49/6/162
f 82/10/164 81/11/163 52/6/164
f 82/10/161 42/6/151 52/6/161
f 42/6/151 82/10/161 83/11/166
f 42/6/151 83/11/166 78/10/151
f 52/6/164 42/6/154 82/10/164
f 83/11/167 82/10/164 42/6/154
f 78/10/154 83/11/167 42/6/168
f 46/6/169 85/11/170 84/10/169
f 85/11/170 46/6/169 41/6/171
f 85/11/170 41/6/172 79/10/150
f 84/10/173 85/11/174 46/6/173
f 41/6/155 46/6/173 85/11/174
f 79/10/155 41/6/175 85/11/174
f 80/10/158 87/10/176 86/11/177
f 87/10/176 80/10/158 49/6/158
f 87/10/176 49/6/158 45/6/176
f 86/11/178 87/10/179 80/10/162
f 49/6/162 80/10/162 87/10/179
f 45/6/179 49/6/162 87/10/179
f 45/6/176 88/11/180 87/10/176
f 88/11/180 45/6/176 46/6/181
f 88/11/180 46/6/169 84/10/169
f 87/10/179 88/11/182 45/6/183
f 46/6/173 45/6/179 88/11/182
f 84/10/173 46/6/173 88/11/182
f 91/10/184 90/10/185 89/11/186
f 90/10/185 91/10/184 75/6/184
f 90/10/185 75/6/184 69/6/185
f 89/11/187 90/10/188 91/10/189
f 75/6/189 91/10/189 90/10/188
f 69/6/188 75/6/189 90/10/188
f 65/6/190 93/11/191 92/10/190
f 93/11/191 65/6/190 66/6/192
f 93/11/191 66/6/192 94/10/192
f 92/10/193 93/11/194 65/6/193
f 66/6/195 65/6/193 93/11/194
f 94/10/195 66/6/195 93/11/194
f 97/10/196 96/10/197 95/11/198
f 96/10/199 97/10/196 71/6/196
f 96/10/199 71/6/196 73/6/199
f 95/11/200 96/10/201 97/10/202
f 71/6/202 97/10/202 96/10/201
f 73/6/201 71/6/202 96/10/201
f 98/11/203 75/6/204 91/10/184
f 75/6/184 98/11/203 73/6/199
f 73/6/197 98/11/203 96/10/199
f 91/10/205 75/6/205 98/11/206
f 73/6/201 98/11/206 75/6/189
f 96/10/207 98/11/206 73/6/208
f 94/10/192 97/10/196 99/11/209
f 97/10/196 94/10/192 66/6/192
f 97/10/196 66/6/192 71/6/196
f 99/11/210 97/10/202 94/10/195
f 66/6/195 94/10/195 97/10/202
f 71/6/202 66/6/195 97/10/202
f 90/10/185 92/10/190 100/11/211
f 92/10/190 90/10/185 69/6/185
f 92/10/190 69/6/185 65/6/190
f 100/11/212 92/10/193 90/10/188
f 69/6/188 90/10/188 92/10/193
f 65/6/193 69/6/188 92/10/193
f 102/11/213 61/6/159 101/10/214
f 61/6/215 102/11/160 59/6/161
f 59/6/161 102/11/160 103/10/161
f 101/10/162 61/6/216 102/11/217
f 59/6/164 102/11/165 61/6/162
f 103/10/164 102/11/165 59/6/164
f 103/10/161 60/6/151 59/6/161
f 60/6/151 103/10/161 104/11/166
f 60/6/218 104/11/219 105/10/151
f 59/6/164 60/6/154 103/10/164
f 104/11/167 103/10/164 60/6/154
f 105/10/154 104/11/220 60/6/221
f 62/6/222 107/11/223 106/10/176
f 107/11/180 62/6/176 53/6/169
f 107/11/224 53/6/169 108/10/169
f 106/10/225 107/11/226 62/6/227
f 53/6/173 62/6/179 107/11/182
f 108/10/173 53/6/173 107/11/228
f 110/10/150 105/10/151 109/11/229
f 105/10/151 110/10/150 54/6/150
f 105/10/151 54/6/150 60/6/151
f 109/11/153 105/10/154 110/10/155
f 54/6/155 110/10/155 105/10/154
f 60/6/154 54/6/155 105/10/154
f 101/10/158 106/10/176 111/11/177
f 106/10/176 101/10/158 61/6/158
f 106/10/176 61/6/158 62/6/176
f 111/11/178 106/10/179 101/10/162
f 61/6/162 101/10/162 106/10/179
f 62/6/179 61/6/162 106/10/179
f 53/6/169 112/11/230 108/10/169
f 112/11/170 53/6/169 54/6/231
f 112/11/232 54/6/171 110/10/233
f 108/10/173 112/11/234 53/6/173
f 54/6/155 53/6/173 112/11/174
f 110/10/235 54/6/156 112/11/236
f 3/1/1 2/1/1 1/1/1
f 2/1/1 3/1/1 4/1/1
f 4/1/1 3/1/1 5/1/1
f 4/1/1 5/1/1 6/1/1
f 6/1/1 5/1/1 7/1/1
f 6/1/1 7/1/1 8/1/1
f 9/2/2 1/1/3 2/1/4
f 1/1/5 9/2/2 10/2/6
f 11/2/7 1/1/5 10/2/8
f 1/1/5 11/2/9 3/1/10
f 12/2/11 2/1/4 4/1/12
f 2/1/4 12/2/13 9/2/14
f 13/2/15 4/1/12 6/1/16
f 4/1/12 13/2/15 12/2/17
f 7/1/18 14/2/19 8/1/20
f 14/2/19 7/1/18 15/2/21
f 11/2/22 5/1/23 3/1/10
f 5/1/24 11/2/22 16/2/25
f 8/1/20 13/2/26 6/1/16
f 13/2/27 8/1/20 14/2/19
f 7/1/28 16/2/29 15/2/21
f 16/2/30 7/1/28 5/1/24
f 14/2/31 18/3/32 17/3/33
f 18/3/34 14/2/31 15/2/35
f 16/2/36 18/3/37 15/2/38
f 18/3/37 16/2/39 19/3/40
f 21/3/41 9/2/42 20/3/43
f 9/2/42 21/3/41 10/2/44
f 22/3/45 12/2/46 13/2/47
f 12/2/46 22/3/48 23/3/49
f 21/3/50 11/2/51 10/2/52
f 11/2/51 21/3/53 24/3/54
f 13/2/55 17/3/56 22/3/57
f 17/3/58 13/2/55 14/2/31
f 20/3/59 12/2/60 23/3/61
f 12/2/62 20/3/59 9/2/63
f 24/3/64 16/2/65 11/2/66
f 16/2/65 24/3/67 19/3/68
f 27/4/69 26/4/69 25/4/69
f 26/4/69 27/4/69 28/4/69
f 26/4/69 28/4/69 29/4/69
f 29/4/69 28/4/69 30/4/69
f 29/4/69 30/4/69 31/4/69
f 31/4/69 30/4/69 32/4/69
f 35/5/1 34/5/1 33/5/1
f 34/5/1 35/5/1 36/5/1
f 34/5/1 36/5/1 37/5/1
f 37/5/1 36/5/1 38/5/1
f 37/5/1 38/5/1 39/5/1
f 39/5/1 38/5/1 40/5/1
f 27/4/70 33/5/71 34/5/70
f 33/5/71 27/4/72 25/4/73
f 29/4/74 38/5/75 36/5/74
f 38/5/76 29/4/74 31/4/77
f 40/5/78 31/4/76 32/4/79
f 31/4/76 40/5/80 38/5/76
f 28/4/81 34/5/82 37/5/81
f 34/5/82 28/4/81 27/4/83
f 26/4/84 36/5/74 35/5/85
f 36/5/74 26/4/84 29/4/86
f 30/4/87 37/5/81 39/5/88
f 37/5/81 30/4/88 28/4/89
f 26/4/84 33/5/90 25/4/91
f 33/5/71 26/4/92 35/5/92
f 40/5/80 30/4/93 39/5/87
f 30/4/87 40/5/94 32/4/80
f 43/6/95 42/7/96 41/7/95
f 42/7/96 43/6/95 44/6/96
f 47/6/97 46/7/98 45/7/99
f 46/7/98 47/6/97 48/6/98
f 50/6/100 45/7/97 49/7/100
f 45/7/97 50/6/100 47/6/97
f 48/6/98 41/7/95 46/7/98
f 41/7/101 48/6/98 43/6/101
f 52/7/102 44/6/96 51/6/102
f 44/6/96 52/7/102 42/7/103
f 52/7/102 50/6/104 49/7/105
f 50/6/100 52/7/102 51/6/102
f 41/7/1 45/7/1 46/7/1
f 45/7/1 41/7/1 42/7/1
f 45/7/1 42/7/1 49/7/1
f 49/7/1 42/7/1 52/7/1
f 55/6/106 54/8/107 53/8/108
f 54/8/109 55/6/110 56/6/111
f 59/8/112 58/6/113 57/6/114
f 58/6/113 59/8/115 60/8/116
f 63/6/117 62/8/118 61/8/119
f 62/8/118 63/6/117 64/6/120
f 64/6/121 53/8/122 62/8/118
f 53/8/123 64/6/121 55/6/106
f 64/6/124 56/6/125 55/6/126
f 56/6/125 64/6/124 58/6/127
f 58/6/127 64/6/124 63/6/128
f 58/6/127 63/6/128 57/6/129
f 59/8/130 63/6/131 61/8/132
f 63/6/131 59/8/133 57/6/114
f 54/8/1 62/8/1 53/8/1
f 62/8/1 54/8/1 60/8/1
f 62/8/1 60/8/1 61/8/1
f 61/8/1 60/8/1 59/8/1
f 56/6/111 60/8/134 54/8/107
f 60/8/134 56/6/111 58/6/135
f 67/6/136 66/9/137 65/9/136
f 66/9/137 67/6/136 68/6/137
f 70/6/138 65/9/136 69/9/138
f 65/9/136 70/6/138 67/6/139
f 68/6/140 71/9/141 66/9/137
f 71/9/141 68/6/142 72/6/141
f 72/6/141 73/9/143 71/9/141
f 73/9/144 72/6/141 74/6/145
f 71/9/1 65/9/1 66/9/1
f 65/9/1 71/9/1 69/9/1
f 69/9/1 71/9/1 73/9/1
f 69/9/1 73/9/1 75/9/1
f 76/6/146 69/9/138 75/9/147
f 69/9/138 76/6/148 70/6/138
f 73/9/149 76/6/147 75/9/147
f 76/6/147 73/9/149 74/6/149
f 79/10/150 78/10/151 77/11/152
f 78/10/151 79/10/150 41/6/150
f 78/10/151 41/6/150 42/6/151
f 77/11/153 78/10/154 79/10/155
f 41/6/155 79/10/155 78/10/154
f 42/6/154 41/6/156 78/10/154
f 81/11/157 49/6/158 80/10/158
f 49/6/159 81/11/160 52/6/161
f 52/6/161 81/11/157 82/10/161
f 80/10/162 49/6/162 81/11/163
f 52/6/164 81/11/165 49/6/162
f 82/10/164 81/11/163 52/6/164
f 82/10/161 42/6/151 52/6/161
f 42/6/151 82/10/161 83/11/166
f 42/6/151 83/11/166 78/10/151
f 52/6/164 42/6/154 82/10/164
f 83/11/167 82/10/164 42/6/154
f 78/10/154 83/11/167 42/6/168
f 46/6/169 85/11/170 84/10/169
f 85/11/170 46/6/169 41/6/171
f 85/11/170 41/6/172 79/10/150
f 84/10/173 85/11/174 46/6/173
f 41/6/155 46/6/173 85/11/174
f 79/10/155 41/6/175 85/11/174
f 80/10/158 87/10/176 86/11/177
f 87/10/176 80/10/158 49/6/158
f 87/10/176 49/6/158 45/6/176
f 86/11/178 87/10/179 80/10/162
f 49/6/162 80/10/162 87/10/179
f 45/6/179 49/6/162 87/10/179
f 45/6/176 88/11/180 87/10/176
f 88/11/180 45/6/176 46/6/181
f 88/11/180 46/6/169 84/10/169
f 87/10/179 88/11/182 45/6/183
f 46/6/173 45/6/179 88/11/182
f 84/10/173 46/6/173 88/11/182
f 91/10/184 90/10/185 89/11/186
f 90/10/185 91/10/184 75/6/184
f 90/10/185 75/6/184 69/6/185
f 89/11/187 90/10/188 91/10/189
f 75/6/189 91/10/189 90/10/188
f 69/6/188 75/6/189 90/10/188
f 65/6/190 93/11/191 92/10/190
f 93/11/191 65/6/190 66/6/192
f 93/11/191 66/6/192 94/10/192
f 92/10/193 93/11/194 65/6/193
f 66/6/195 65/6/193 93/11/194
f 94/10/195 66/6/195 93/11/194
f 97/10/196 96/10/197 95/11/198
f 96/10/199 97/10/196 71/6/196
f 96/10/199 71/6/196 73/6/199
f 95/11/200 96/10/201 97/10/202
f 71/6/202 97/10/202 96/10/201
f 73/6/201 71/6/202 96/10/201
f 98/11/203 75/6/204 91/10/184
f 75/6/184 98/11/203 73/6/199
f 73/6/197 98/11/203 96/10/199
f 91/10/205 75/6/205 98/11/206
f 73/6/201 98/11/206 75/6/189
f 96/10/207 98/11/206 73/6/208
f 94/10/192 97/10/196 99/11/209
f 97/10/196 94/10/192 66/6/192
f 97/10/196 66/6/192 71/6/196
f 99/11/210 97/10/202 94/10/195
f 66/6/195 94/10/195 97/10/202
f 71/6/202 66/6/195 97/10/202
f 90/10/185 92/10/190 100/11/211
f 92/10/190 90/10/185 69/6/185
f 92/10/190 69/6/185 65/6/190
f 100/11/212 92/10/193 90/10/188
f 69/6/188 90/10/188 92/10/193
f 65/6/193 69/6/188 92/10/193
f 102/11/213 61/6/159 101/10/214
f 61/6/215 102/11/160 59/6/161
f 59/6/161 102/11/160 103/10/161
f 101/10/162 61/6/216 102/11/217
f 59/6/164 102/11/165 61/6/162
f 103/10/164 102/11/165 59/6/164
f 103/10/161 60/6/151 59/6/161
f 60/6/151 103/10/161 104/11/166
f 60/6/218 104/11/219 105/10/151
f 59/6/164 60/6/154 103/10/164
f 104/11/167 103/10/164 60/6/154
f 105/10/154 104/11/220 60/6/221
f 62/6/222 107/11/223 106/10/176
f 107/11/180 62/6/176 53/6/169
f 107/11/224 53/6/169 108/10/169
f 106/10/225 107/11/226 62/6/227
f 53/6/173 62/6/179 107/11/182
f 108/10/173 53/6/173 107/11/228
f 110/10/150 105/10/151 109/11/229
f 105/10/151 110/10/150 54/6/150
f 105/10/151 54/6/150 60/6/151
f 109/11/153 105/10/154 110/10/155
f 54/6/155 110/10/155 105/10/154
f 60/6/154 54/6/155 105/10/154
f 101/10/158 106/10/176 111/11/177
f 106/10/176 101/10/158 61/6/158
f 106/10/176 61/6/158 62/6/176
f 111/11/178 106/10/179 101/10/162
f 61/6/162 101/10/162 106/10/179
f 62/6/179 61/6/162 106/10/179
f 53/6/169 112/11/230 108/10/169
f 112/11/170 53/6/169 54/6/231
f 112/11/232 54/6/171 110/10/233
f 108/10/173 112/11/234 53/6/173
f 54/6/155 53/6/173 112/11/174
f 110/10/235 54/6/156 112/11/236
