# Blender 4.1.1
# www.blender.org
mtllib tree.013.mtl
o tree.013
v -17.075199 -0.282319 -9.020360
v -17.075199 -0.282319 -9.201919
v -17.165979 -0.282319 -8.929582
v -17.165979 -0.282319 -9.292698
v -17.347536 -0.282319 -8.929582
v -17.347536 -0.282319 -9.292698
v -17.438316 -0.282319 -9.020360
v -17.438316 -0.282319 -9.201919
v -17.165979 0.046402 -9.156528
v -17.165979 0.046402 -9.065750
v -17.211369 0.046402 -9.020360
v -17.211369 0.046402 -9.201919
v -17.302147 0.046402 -9.201919
v -17.347536 0.046402 -9.156528
v -17.347536 0.046402 -9.065750
v -17.302147 0.046402 -9.020360
v -17.370232 0.539521 -9.167876
v -17.370232 0.539521 -9.054402
v -17.313494 0.539521 -8.997666
v -17.143284 0.539521 -9.167876
v -17.143284 0.539521 -9.054402
v -17.313494 0.539521 -9.224613
v -17.200020 0.539521 -9.224613
v -17.200020 0.539521 -8.997666
v -17.106709 0.163768 -9.155512
v -17.133968 0.163768 -9.089700
v -17.133968 0.163768 -9.221325
v -17.199781 0.163768 -9.248585
v -17.199781 0.163768 -9.062440
v -17.265594 0.163768 -9.221325
v -17.265594 0.163768 -9.089700
v -17.292856 0.163768 -9.155512
v -17.053991 0.044485 -9.155512
v -17.096693 0.044485 -9.258602
v -17.096693 0.044485 -9.052423
v -17.199781 0.044485 -9.009721
v -17.199781 0.044485 -9.301303
v -17.302872 0.044485 -9.052423
v -17.302872 0.044485 -9.258602
v -17.345573 0.044485 -9.155512
v -17.039488 0.539521 -8.719573
v -17.491631 0.539521 -8.719573
v -17.132177 1.083027 -8.880114
v -17.398943 1.083027 -8.880114
v -17.039488 0.539521 -9.502707
v -16.813417 0.539521 -9.111139
v -17.132177 1.083027 -9.342166
v -16.998793 1.083027 -9.111139
v -17.491631 0.539521 -9.502707
v -17.398943 1.083027 -9.342166
v -17.532326 1.083027 -9.111139
v -17.717703 0.539521 -9.111139
v -17.004852 1.666943 -9.111139
v -17.135206 1.666943 -8.885362
v -17.205637 2.279410 -9.111139
v -17.235598 2.279410 -9.059245
v -17.325481 2.279410 -9.111139
v -17.295521 2.279410 -9.059245
v -17.526264 1.666943 -9.111139
v -17.395912 1.666943 -8.885362
v -17.395912 1.666943 -9.336918
v -17.135206 1.666943 -9.336918
v -17.295521 2.279410 -9.163033
v -17.235598 2.279410 -9.163033
v -16.947212 1.083027 -9.294937
v -16.947212 1.083027 -8.927342
v -17.119690 1.666943 -9.195357
v -17.119690 1.666943 -9.026921
v -17.265558 1.083027 -9.478735
v -17.265558 1.666943 -9.279576
v -17.265558 1.083027 -8.743544
v -17.265558 1.666943 -8.942703
v -17.583906 1.083027 -8.927342
v -17.411430 1.666943 -9.026921
v -17.583906 1.083027 -9.294937
v -17.411430 1.666943 -9.195357
v -17.265558 0.369968 -8.633428
v -17.516499 0.454744 -8.676500
v -17.014620 0.454744 -8.676500
v -17.516499 0.454744 -9.545778
v -17.679270 0.369968 -9.349996
v -17.767437 0.454744 -9.111139
v -17.679270 0.369968 -8.872283
v -16.763681 0.454744 -9.111139
v -16.851849 0.369968 -8.872283
v -17.265558 0.369968 -9.588851
v -17.014620 0.454744 -9.545778
v -16.851849 0.369968 -9.349996
v -17.459751 0.945179 -9.447490
v -17.265558 1.014103 -9.519171
v -17.618925 1.014103 -9.315155
v -16.912193 1.014103 -9.315155
v -16.877176 0.945179 -9.111139
v -16.912193 1.014103 -8.907124
v -17.459751 0.945179 -8.774790
v -17.618925 1.014103 -8.907124
v -17.265558 1.014103 -8.703109
v -17.653944 0.945179 -9.111139
v -17.071367 0.945179 -8.774790
v -17.071367 0.945179 -9.447490
v -17.410252 1.618061 -9.361753
v -17.504107 1.569178 -9.248864
v -17.554943 1.618061 -9.111139
v -17.504107 1.569178 -8.973414
v -17.410252 1.618061 -8.860526
v -17.120867 1.618061 -9.361753
v -17.027014 1.569178 -9.248864
v -16.976175 1.618061 -9.111139
v -17.265558 1.569178 -8.835690
v -17.120867 1.618061 -8.860526
v -17.265558 1.569178 -9.386589
v -17.027014 1.569178 -8.973414
vn -0.0000 -1.0000 -0.0000
vn 0.8851 0.2942 -0.3607
vn 0.8812 0.2944 0.3698
vn 0.8812 0.2944 -0.3698
vn 0.8851 0.2942 0.3607
vn 0.3608 0.2942 0.8850
vn 0.3607 0.2942 0.8850
vn 0.3698 0.2944 0.8812
vn 0.3607 0.2942 -0.8850
vn 0.3698 0.2944 -0.8812
vn 0.3608 0.2942 -0.8850
vn -0.3607 0.2942 -0.8851
vn 0.3698 0.2944 -0.8813
vn -0.3698 0.2944 -0.8812
vn 0.3607 0.2942 -0.8851
vn -0.8813 0.2944 0.3698
vn -0.8851 0.2942 -0.3607
vn -0.8812 0.2944 -0.3698
vn -0.8851 0.2942 0.3607
vn 0.3607 0.2942 0.8851
vn -0.3698 0.2944 0.8813
vn -0.3698 0.2944 0.8812
vn -0.3607 0.2942 0.8851
vn -0.3607 0.2942 -0.8850
vn -0.3608 0.2943 -0.8850
vn -0.8812 0.2944 0.3698
vn -0.3608 0.2942 0.8850
vn -0.3607 0.2942 0.8850
vn -0.9230 -0.0513 -0.3813
vn -0.9223 -0.0512 0.3829
vn -0.9223 -0.0513 -0.3829
vn -0.9223 -0.0513 0.3829
vn -0.9230 -0.0513 0.3813
vn -0.3814 -0.0512 0.9230
vn -0.9223 -0.0513 0.3830
vn -0.9230 -0.0512 0.3813
vn -0.3813 -0.0513 0.9230
vn -0.3830 -0.0512 0.9223
vn 0.9223 -0.0512 0.3829
vn 0.9230 -0.0513 -0.3813
vn 0.9223 -0.0513 -0.3829
vn 0.9230 -0.0513 0.3813
vn -0.3829 -0.0513 -0.9223
vn 0.3813 -0.0513 -0.9230
vn -0.3813 -0.0513 -0.9230
vn -0.3829 -0.0512 -0.9223
vn 0.3829 -0.0513 -0.9223
vn 0.9223 -0.0513 0.3830
vn 0.3814 -0.0513 0.9230
vn 0.3813 -0.0513 0.9230
vn 0.9223 -0.0512 0.3830
vn 0.3830 -0.0513 0.9223
vn -0.9223 -0.0512 -0.3830
vn -0.3830 -0.0513 -0.9223
vn -0.9223 -0.0513 -0.3830
vn -0.3814 -0.0513 -0.9230
vn -0.9230 -0.0512 -0.3813
vn 0.9223 -0.0513 -0.3830
vn 0.3830 -0.0512 -0.9223
vn 0.3814 -0.0512 -0.9230
vn 0.9230 -0.0512 -0.3813
vn 0.3829 -0.0513 0.9223
vn 0.3829 -0.0512 0.9223
vn -0.3829 -0.0513 0.9223
vn -0.0000 1.0000 -0.0000
vn 0.6468 0.4042 -0.6467
vn 0.9147 0.4042 -0.0000
vn 0.9147 0.4042 -0.0001
vn 0.6468 0.4042 -0.6468
vn 0.9146 0.4043 -0.0001
vn -0.0000 0.4042 0.9147
vn -0.6467 0.4042 0.6468
vn -0.6467 0.4043 0.6468
vn -0.9147 0.4042 -0.0000
vn -0.6468 0.4042 0.6467
vn -0.9146 0.4042 -0.0000
vn -0.6468 0.4042 0.6468
vn -0.0000 0.4042 -0.9147
vn 0.6467 0.4042 -0.6468
vn 0.6468 0.4042 0.6468
vn 0.6467 0.4042 0.6468
vn -0.0000 0.4043 0.9146
vn -0.6468 0.4042 -0.6468
vn -0.6467 0.4042 -0.6468
vn -0.0000 0.4043 -0.9146
vn 0.9146 0.4043 0.0001
vn 0.9147 0.4042 0.0001
vn 0.6468 0.4042 0.6467
vn -0.9147 0.4042 -0.0001
vn -0.6468 0.4042 -0.6467
vn -0.9146 0.4043 -0.0000
vn 0.4732 0.3228 0.8197
vn -0.4732 0.3228 0.8197
vn 0.4732 0.3228 -0.8197
vn 0.9465 0.3228 -0.0000
vn 0.4732 0.3228 -0.8196
vn -0.4732 0.3228 -0.8197
vn -0.9465 0.3228 -0.0000
vn 0.6877 0.7260 -0.0000
vn 0.4751 0.3115 0.8229
vn 0.9503 0.3115 -0.0000
vn 0.4752 0.3115 0.8229
vn 0.6877 0.7260 -0.0001
vn 0.3439 0.7260 0.5956
vn -0.9502 0.3115 -0.0000
vn -0.3438 0.7260 0.5956
vn -0.6877 0.7260 -0.0001
vn -0.9503 0.3115 -0.0000
vn -0.4751 0.3115 0.8229
vn -0.3439 0.7260 -0.5956
vn 0.4751 0.3115 -0.8229
vn -0.4751 0.3115 -0.8229
vn 0.3439 0.7260 -0.5956
vn 0.3438 0.7260 -0.5956
vn 0.9502 0.3115 -0.0000
vn 0.3439 0.7259 -0.5956
vn 0.3439 0.7259 0.5956
vn 0.6877 0.7259 -0.0000
vn -0.3439 0.7259 0.5956
vn -0.3439 0.7259 -0.5956
vn -0.6877 0.7259 -0.0000
vn -0.3438 0.7260 -0.5956
vn -0.3439 0.7260 -0.5955
vn -0.6877 0.7260 -0.0000
vn -0.3439 0.7260 0.5956
vn 0.8197 0.3228 -0.4732
vn 0.8197 0.3228 0.4732
vn -0.0000 0.3228 -0.9465
vn 0.8196 0.3228 -0.4732
vn -0.0000 0.3228 0.9465
vn 0.8197 0.3228 0.4733
vn -0.8197 0.3228 0.4732
vn -0.8196 0.3228 0.4733
vn -0.8197 0.3228 0.4733
vn -0.8196 0.3228 -0.4732
vn -0.8197 0.3228 -0.4732
vn 0.4313 0.5060 0.7470
vn -0.4313 0.5060 0.7470
vn -0.0000 0.4529 0.8915
vn -0.0000 -0.4530 -0.8915
vn 0.4313 -0.5060 -0.7470
vn -0.4313 -0.5060 -0.7470
vn -0.4313 -0.5060 -0.7469
vn -0.7721 0.4530 -0.4458
vn -0.4313 0.5060 -0.7469
vn -0.4313 0.5060 -0.7470
vn -0.4312 0.5060 -0.7470
vn -0.8625 0.5060 -0.0000
vn 0.4313 -0.5060 0.7470
vn 0.7721 -0.4530 0.4458
vn 0.8625 -0.5060 -0.0000
vn 0.7721 -0.4529 0.4458
vn -0.7721 0.4530 0.4458
vn 0.7721 -0.4530 -0.4458
vn 0.4313 -0.5061 -0.7469
vn 0.8625 0.5060 -0.0000
vn 0.7721 0.4530 0.4458
vn 0.4313 0.5061 0.7469
vn 0.4312 0.5060 0.7470
vn -0.8625 -0.5060 -0.0000
vn -0.7721 -0.4530 -0.4458
vn -0.4312 -0.5060 -0.7470
vn 0.4313 0.5060 -0.7470
vn -0.0000 0.4530 -0.8915
vn -0.0000 -0.4530 0.8915
vn -0.4313 -0.5060 0.7470
vn 0.4312 0.5060 -0.7470
vn 0.7721 0.4529 -0.4458
vn 0.7721 0.4530 -0.4458
vn -0.7721 -0.4529 0.4458
vn -0.4312 -0.5060 0.7470
vn -0.7721 -0.4530 0.4458
vn -0.7470 0.5060 -0.4313
vn -0.0000 0.5060 -0.8625
vn -0.4458 0.4530 -0.7721
vn 0.4458 -0.4530 0.7721
vn -0.0000 -0.5060 0.8625
vn 0.7470 -0.5060 0.4313
vn 0.7470 0.5060 -0.4313
vn 0.8915 0.4530 -0.0000
vn 0.7470 0.5060 0.4313
vn 0.7469 0.5061 0.4313
vn -0.7470 -0.5060 0.4313
vn -0.8915 -0.4530 -0.0000
vn -0.7470 -0.5060 -0.4313
vn -0.0000 0.5060 0.8625
vn -0.7470 0.5060 0.4312
vn -0.4458 0.4530 0.7721
vn -0.7470 0.5060 0.4313
vn 0.4458 -0.4530 -0.7721
vn 0.7470 -0.5060 -0.4313
vn -0.0000 -0.5060 -0.8625
vn -0.8915 0.4530 -0.0000
vn -0.7469 0.5061 -0.4313
vn 0.8915 -0.4530 -0.0000
vn 0.4458 0.4530 0.7721
vn -0.4458 -0.4530 -0.7721
vn 0.4458 0.4530 -0.7721
vn -0.4458 -0.4530 0.7721
vn -0.7721 0.4530 -0.4457
vn -0.4313 0.5061 -0.7469
vn 0.4313 -0.5061 0.7469
vn 0.7721 -0.4530 0.4457
vn 0.8625 -0.5061 -0.0000
vn -0.4313 0.5060 0.7469
vn -0.7721 0.4530 0.4457
vn 0.4312 -0.5060 -0.7470
vn 0.7721 -0.4530 -0.4457
vn -0.4312 -0.5061 0.7469
vn -0.0000 0.4530 0.8915
vn -0.0000 0.4529 -0.8915
vn -0.0000 -0.4529 0.8915
vn 0.7721 0.4529 0.4458
vn 0.4313 0.5060 0.7469
vn -0.7721 -0.4529 -0.4458
vt 0.593750 0.025000
vt 0.593750 0.104996
vt 0.593750 0.225000
vt 0.093750 0.475000
vt 0.093750 0.275000
vt 0.093750 0.425000
vt 0.093750 0.348778
vt 0.093750 0.338765
vt 0.093750 0.344099
vt 0.093750 0.375000
vt 0.093750 0.325000
s 0
usemtl colormap.002
f 3/1/1 2/1/1 1/1/1
f 2/1/1 3/1/1 4/1/1
f 4/1/1 3/1/1 5/1/1
f 4/1/1 5/1/1 6/1/1
f 6/1/1 5/1/1 7/1/1
f 6/1/1 7/1/1 8/1/1
f 9/2/2 1/1/3 2/1/4
f 1/1/3 9/2/2 10/2/5
f 11/2/6 1/1/3 10/2/5
f 1/1/3 11/2/7 3/1/8
f 12/2/9 2/1/4 4/1/10
f 2/1/4 12/2/11 9/2/2
f 13/2/12 4/1/13 6/1/14
f 4/1/10 13/2/12 12/2/15
f 7/1/16 14/2/17 8/1/18
f 14/2/17 7/1/16 15/2/19
f 11/2/20 5/1/21 3/1/8
f 5/1/22 11/2/20 16/2/23
f 8/1/18 13/2/24 6/1/14
f 13/2/25 8/1/18 14/2/17
f 7/1/26 16/2/27 15/2/19
f 16/2/28 7/1/26 5/1/22
f 14/2/29 18/3/30 17/3/31
f 18/3/32 14/2/29 15/2/33
f 16/2/34 18/3/35 15/2/36
f 18/3/35 16/2/37 19/3/38
f 21/3/39 9/2/40 20/3/41
f 9/2/40 21/3/39 10/2/42
f 22/3/43 12/2/44 13/2/45
f 12/2/44 22/3/46 23/3/47
f 21/3/48 11/2/49 10/2/42
f 11/2/50 21/3/51 24/3/52
f 13/2/45 17/3/53 22/3/54
f 17/3/55 13/2/56 14/2/57
f 20/3/58 12/2/44 23/3/59
f 12/2/60 20/3/58 9/2/61
f 24/3/62 16/2/37 11/2/50
f 16/2/37 24/3/63 19/3/64
f 27/4/65 26/4/65 25/4/65
f 26/4/65 27/4/65 28/4/65
f 26/4/65 28/4/65 29/4/65
f 29/4/65 28/4/65 30/4/65
f 29/4/65 30/4/65 31/4/65
f 31/4/65 30/4/65 32/4/65
f 35/5/1 34/5/1 33/5/1
f 34/5/1 35/5/1 36/5/1
f 34/5/1 36/5/1 37/5/1
f 37/5/1 36/5/1 38/5/1
f 37/5/1 38/5/1 39/5/1
f 39/5/1 38/5/1 40/5/1
f 27/4/66 33/5/67 34/5/66
f 33/5/68 27/4/69 25/4/70
f 29/4/71 38/5/72 36/5/71
f 38/5/72 29/4/71 31/4/73
f 40/5/74 31/4/75 32/4/76
f 31/4/77 40/5/74 38/5/75
f 28/4/78 34/5/79 37/5/78
f 34/5/79 28/4/78 27/4/79
f 26/4/80 36/5/71 35/5/80
f 36/5/71 26/4/81 29/4/82
f 30/4/83 37/5/78 39/5/84
f 37/5/78 30/4/84 28/4/85
f 26/4/80 33/5/86 25/4/87
f 33/5/67 26/4/88 35/5/88
f 40/5/89 30/4/83 39/5/83
f 30/4/90 40/5/91 32/4/74
f 43/6/92 42/7/93 41/7/92
f 42/7/93 43/6/92 44/6/93
f 47/6/94 46/7/95 45/7/96
f 46/7/95 47/6/94 48/6/95
f 50/6/97 45/7/94 49/7/97
f 45/7/94 50/6/97 47/6/94
f 48/6/95 41/7/92 46/7/95
f 41/7/92 48/6/95 43/6/92
f 52/7/98 44/6/93 51/6/98
f 44/6/93 52/7/98 42/7/93
f 52/7/98 50/6/97 49/7/97
f 50/6/97 52/7/98 51/6/98
f 41/7/1 45/7/1 46/7/1
f 45/7/1 41/7/1 42/7/1
f 45/7/1 42/7/1 49/7/1
f 49/7/1 42/7/1 52/7/1
f 55/6/99 54/8/100 53/8/101
f 54/8/102 55/6/103 56/6/104
f 59/8/105 58/6/106 57/6/107
f 58/6/106 59/8/108 60/8/109
f 63/6/110 62/8/111 61/8/112
f 62/8/111 63/6/110 64/6/113
f 64/6/114 53/8/115 62/8/111
f 53/8/115 64/6/114 55/6/99
f 64/6/116 56/6/117 55/6/118
f 56/6/117 64/6/116 58/6/119
f 58/6/119 64/6/116 63/6/120
f 58/6/119 63/6/120 57/6/121
f 59/8/105 63/6/122 61/8/112
f 63/6/123 59/8/105 57/6/124
f 54/8/1 62/8/1 53/8/1
f 62/8/1 54/8/1 60/8/1
f 62/8/1 60/8/1 61/8/1
f 61/8/1 60/8/1 59/8/1
f 56/6/104 60/8/109 54/8/100
f 60/8/109 56/6/104 58/6/125
f 67/6/126 66/9/127 65/9/126
f 66/9/127 67/6/126 68/6/127
f 70/6/128 65/9/129 69/9/128
f 65/9/126 70/6/128 67/6/126
f 68/6/127 71/9/130 66/9/127
f 71/9/130 68/6/131 72/6/130
f 72/6/130 73/9/132 71/9/130
f 73/9/133 72/6/130 74/6/134
f 71/9/1 65/9/1 66/9/1
f 65/9/1 71/9/1 69/9/1
f 69/9/1 71/9/1 73/9/1
f 69/9/1 73/9/1 75/9/1
f 76/6/135 69/9/128 75/9/135
f 69/9/128 76/6/136 70/6/128
f 73/9/132 76/6/136 75/9/136
f 76/6/136 73/9/132 74/6/132
f 79/10/137 78/10/138 77/11/139
f 78/10/138 79/10/137 41/6/137
f 78/10/138 41/6/137 42/6/138
f 77/11/140 78/10/141 79/10/142
f 41/6/142 79/10/142 78/10/141
f 42/6/141 41/6/143 78/10/141
f 81/11/144 49/6/145 80/10/146
f 49/6/147 81/11/144 52/6/148
f 52/6/148 81/11/144 82/10/148
f 80/10/149 49/6/149 81/11/150
f 52/6/151 81/11/150 49/6/149
f 82/10/151 81/11/152 52/6/151
f 82/10/148 42/6/138 52/6/148
f 42/6/138 82/10/148 83/11/153
f 42/6/138 83/11/153 78/10/138
f 52/6/151 42/6/141 82/10/151
f 83/11/154 82/10/151 42/6/141
f 78/10/141 83/11/154 42/6/155
f 46/6/156 85/11/157 84/10/156
f 85/11/157 46/6/156 41/6/158
f 85/11/157 41/6/159 79/10/159
f 84/10/160 85/11/161 46/6/160
f 41/6/142 46/6/160 85/11/161
f 79/10/142 41/6/162 85/11/161
f 80/10/146 87/10/163 86/11/164
f 87/10/163 80/10/146 49/6/146
f 87/10/163 49/6/146 45/6/163
f 86/11/165 87/10/166 80/10/149
f 49/6/149 80/10/149 87/10/166
f 45/6/166 49/6/149 87/10/166
f 45/6/167 88/11/168 87/10/163
f 88/11/169 45/6/163 46/6/156
f 88/11/169 46/6/156 84/10/156
f 87/10/166 88/11/170 45/6/171
f 46/6/160 45/6/166 88/11/172
f 84/10/160 46/6/160 88/11/172
f 91/10/173 90/10/174 89/11/175
f 90/10/174 91/10/173 75/6/173
f 90/10/174 75/6/173 69/6/174
f 89/11/176 90/10/177 91/10/178
f 75/6/178 91/10/178 90/10/177
f 69/6/177 75/6/178 90/10/177
f 65/6/179 93/11/180 92/10/179
f 93/11/180 65/6/179 66/6/181
f 93/11/180 66/6/182 94/10/181
f 92/10/183 93/11/184 65/6/183
f 66/6/185 65/6/183 93/11/184
f 94/10/185 66/6/185 93/11/184
f 97/10/186 96/10/187 95/11/188
f 96/10/189 97/10/186 71/6/186
f 96/10/189 71/6/186 73/6/189
f 95/11/190 96/10/191 97/10/192
f 71/6/192 97/10/192 96/10/191
f 73/6/191 71/6/192 96/10/191
f 98/11/193 75/6/173 91/10/173
f 75/6/194 98/11/193 73/6/189
f 73/6/189 98/11/193 96/10/189
f 91/10/178 75/6/178 98/11/195
f 73/6/191 98/11/195 75/6/178
f 96/10/191 98/11/195 73/6/191
f 94/10/181 97/10/186 99/11/196
f 97/10/186 94/10/181 66/6/181
f 97/10/186 66/6/181 71/6/186
f 99/11/197 97/10/192 94/10/185
f 66/6/185 94/10/185 97/10/192
f 71/6/192 66/6/185 97/10/192
f 90/10/174 92/10/179 100/11/198
f 92/10/179 90/10/174 69/6/174
f 92/10/179 69/6/174 65/6/179
f 100/11/199 92/10/183 90/10/177
f 69/6/177 90/10/177 92/10/183
f 65/6/183 69/6/177 92/10/183
f 102/11/200 61/6/201 101/10/145
f 61/6/147 102/11/144 59/6/148
f 59/6/148 102/11/144 103/10/148
f 101/10/149 61/6/202 102/11/203
f 59/6/151 102/11/150 61/6/149
f 103/10/151 102/11/150 59/6/204
f 103/10/148 60/6/138 59/6/148
f 60/6/138 103/10/148 104/11/153
f 60/6/205 104/11/206 105/10/138
f 59/6/151 60/6/141 103/10/151
f 104/11/154 103/10/151 60/6/207
f 105/10/141 104/11/208 60/6/155
f 62/6/163 107/11/169 106/10/163
f 107/11/168 62/6/163 53/6/156
f 107/11/168 53/6/156 108/10/156
f 106/10/171 107/11/172 62/6/209
f 53/6/160 62/6/166 107/11/170
f 108/10/160 53/6/160 107/11/170
f 110/10/137 105/10/138 109/11/210
f 105/10/138 110/10/137 54/6/137
f 105/10/138 54/6/137 60/6/138
f 109/11/140 105/10/141 110/10/142
f 54/6/142 110/10/142 105/10/141
f 60/6/141 54/6/142 105/10/141
f 101/10/146 106/10/163 111/11/211
f 106/10/163 101/10/146 61/6/146
f 106/10/163 61/6/146 62/6/163
f 111/11/212 106/10/166 101/10/149
f 61/6/149 101/10/149 106/10/166
f 62/6/166 61/6/149 106/10/166
f 53/6/156 112/11/213 108/10/156
f 112/11/157 53/6/156 54/6/137
f 112/11/157 54/6/214 110/10/137
f 108/10/160 112/11/215 53/6/160
f 54/6/142 53/6/160 112/11/161
f 110/10/142 54/6/142 112/11/161
f 3/1/1 2/1/1 1/1/1
f 2/1/1 3/1/1 4/1/1
f 4/1/1 3/1/1 5/1/1
f 4/1/1 5/1/1 6/1/1
f 6/1/1 5/1/1 7/1/1
f 6/1/1 7/1/1 8/1/1
f 9/2/2 1/1/3 2/1/4
f 1/1/3 9/2/2 10/2/5
f 11/2/6 1/1/3 10/2/5
f 1/1/3 11/2/7 3/1/8
f 12/2/9 2/1/4 4/1/10
f 2/1/4 12/2/11 9/2/2
f 13/2/12 4/1/13 6/1/14
f 4/1/10 13/2/12 12/2/15
f 7/1/16 14/2/17 8/1/18
f 14/2/17 7/1/16 15/2/19
f 11/2/20 5/1/21 3/1/8
f 5/1/22 11/2/20 16/2/23
f 8/1/18 13/2/24 6/1/14
f 13/2/25 8/1/18 14/2/17
f 7/1/26 16/2/27 15/2/19
f 16/2/28 7/1/26 5/1/22
f 14/2/29 18/3/30 17/3/31
f 18/3/32 14/2/29 15/2/33
f 16/2/34 18/3/35 15/2/36
f 18/3/35 16/2/37 19/3/38
f 21/3/39 9/2/40 20/3/41
f 9/2/40 21/3/39 10/2/42
f 22/3/43 12/2/44 13/2/45
f 12/2/44 22/3/46 23/3/47
f 21/3/48 11/2/49 10/2/42
f 11/2/50 21/3/51 24/3/52
f 13/2/45 17/3/53 22/3/54
f 17/3/55 13/2/56 14/2/57
f 20/3/58 12/2/44 23/3/59
f 12/2/60 20/3/58 9/2/61
f 24/3/62 16/2/37 11/2/50
f 16/2/37 24/3/63 19/3/64
f 27/4/65 26/4/65 25/4/65
f 26/4/65 27/4/65 28/4/65
f 26/4/65 28/4/65 29/4/65
f 29/4/65 28/4/65 30/4/65
f 29/4/65 30/4/65 31/4/65
f 31/4/65 30/4/65 32/4/65
f 35/5/1 34/5/1 33/5/1
f 34/5/1 35/5/1 36/5/1
f 34/5/1 36/5/1 37/5/1
f 37/5/1 36/5/1 38/5/1
f 37/5/1 38/5/1 39/5/1
f 39/5/1 38/5/1 40/5/1
f 27/4/66 33/5/67 34/5/66
f 33/5/68 27/4/69 25/4/70
f 29/4/71 38/5/72 36/5/71
f 38/5/72 29/4/71 31/4/73
f 40/5/74 31/4/75 32/4/76
f 31/4/77 40/5/74 38/5/75
f 28/4/78 34/5/79 37/5/78
f 34/5/79 28/4/78 27/4/79
f 26/4/80 36/5/71 35/5/80
f 36/5/71 26/4/81 29/4/82
f 30/4/83 37/5/78 39/5/84
f 37/5/78 30/4/84 28/4/85
f 26/4/80 33/5/86 25/4/87
f 33/5/67 26/4/88 35/5/88
f 40/5/89 30/4/83 39/5/83
f 30/4/90 40/5/91 32/4/74
f 43/6/92 42/7/93 41/7/92
f 42/7/93 43/6/92 44/6/93
f 47/6/94 46/7/95 45/7/96
f 46/7/95 47/6/94 48/6/95
f 50/6/97 45/7/94 49/7/97
f 45/7/94 50/6/97 47/6/94
f 48/6/95 41/7/92 46/7/95
f 41/7/92 48/6/95 43/6/92
f 52/7/98 44/6/93 51/6/98
f 44/6/93 52/7/98 42/7/93
f 52/7/98 50/6/97 49/7/97
f 50/6/97 52/7/98 51/6/98
f 41/7/1 45/7/1 46/7/1
f 45/7/1 41/7/1 42/7/1
f 45/7/1 42/7/1 49/7/1
f 49/7/1 42/7/1 52/7/1
f 55/6/99 54/8/100 53/8/101
f 54/8/102 55/6/103 56/6/104
f 59/8/105 58/6/106 57/6/107
f 58/6/106 59/8/108 60/8/109
f 63/6/110 62/8/111 61/8/112
f 62/8/111 63/6/110 64/6/113
f 64/6/114 53/8/115 62/8/111
f 53/8/115 64/6/114 55/6/99
f 64/6/116 56/6/117 55/6/118
f 56/6/117 64/6/116 58/6/119
f 58/6/119 64/6/116 63/6/120
f 58/6/119 63/6/120 57/6/121
f 59/8/105 63/6/122 61/8/112
f 63/6/123 59/8/105 57/6/124
f 54/8/1 62/8/1 53/8/1
f 62/8/1 54/8/1 60/8/1
f 62/8/1 60/8/1 61/8/1
f 61/8/1 60/8/1 59/8/1
f 56/6/104 60/8/109 54/8/100
f 60/8/109 56/6/104 58/6/125
f 67/6/126 66/9/127 65/9/126
f 66/9/127 67/6/126 68/6/127
f 70/6/128 65/9/129 69/9/128
f 65/9/126 70/6/128 67/6/126
f 68/6/127 71/9/130 66/9/127
f 71/9/130 68/6/131 72/6/130
f 72/6/130 73/9/132 71/9/130
f 73/9/133 72/6/130 74/6/134
f 71/9/1 65/9/1 66/9/1
f 65/9/1 71/9/1 69/9/1
f 69/9/1 71/9/1 73/9/1
f 69/9/1 73/9/1 75/9/1
f 76/6/135 69/9/128 75/9/135
f 69/9/128 76/6/136 70/6/128
f 73/9/132 76/6/136 75/9/136
f 76/6/136 73/9/132 74/6/132
f 79/10/137 78/10/138 77/11/139
f 78/10/138 79/10/137 41/6/137
f 78/10/138 41/6/137 42/6/138
f 77/11/140 78/10/141 79/10/142
f 41/6/142 79/10/142 78/10/141
f 42/6/141 41/6/143 78/10/141
f 81/11/144 49/6/145 80/10/146
f 49/6/147 81/11/144 52/6/148
f 52/6/148 81/11/144 82/10/148
f 80/10/149 49/6/149 81/11/150
f 52/6/151 81/11/150 49/6/149
f 82/10/151 81/11/152 52/6/151
f 82/10/148 42/6/138 52/6/148
f 42/6/138 82/10/148 83/11/153
f 42/6/138 83/11/153 78/10/138
f 52/6/151 42/6/141 82/10/151
f 83/11/154 82/10/151 42/6/141
f 78/10/141 83/11/154 42/6/155
f 46/6/156 85/11/157 84/10/156
f 85/11/157 46/6/156 41/6/158
f 85/11/157 41/6/159 79/10/159
f 84/10/160 85/11/161 46/6/160
f 41/6/142 46/6/160 85/11/161
f 79/10/142 41/6/162 85/11/161
f 80/10/146 87/10/163 86/11/164
f 87/10/163 80/10/146 49/6/146
f 87/10/163 49/6/146 45/6/163
f 86/11/165 87/10/166 80/10/149
f 49/6/149 80/10/149 87/10/166
f 45/6/166 49/6/149 87/10/166
f 45/6/167 88/11/168 87/10/163
f 88/11/169 45/6/163 46/6/156
f 88/11/169 46/6/156 84/10/156
f 87/10/166 88/11/170 45/6/171
f 46/6/160 45/6/166 88/11/172
f 84/10/160 46/6/160 88/11/172
f 91/10/173 90/10/174 89/11/175
f 90/10/174 91/10/173 75/6/173
f 90/10/174 75/6/173 69/6/174
f 89/11/176 90/10/177 91/10/178
f 75/6/178 91/10/178 90/10/177
f 69/6/177 75/6/178 90/10/177
f 65/6/179 93/11/180 92/10/179
f 93/11/180 65/6/179 66/6/181
f 93/11/180 66/6/182 94/10/181
f 92/10/183 93/11/184 65/6/183
f 66/6/185 65/6/183 93/11/184
f 94/10/185 66/6/185 93/11/184
f 97/10/186 96/10/187 95/11/188
f 96/10/189 97/10/186 71/6/186
f 96/10/189 71/6/186 73/6/189
f 95/11/190 96/10/191 97/10/192
f 71/6/192 97/10/192 96/10/191
f 73/6/191 71/6/192 96/10/191
f 98/11/193 75/6/173 91/10/173
f 75/6/194 98/11/193 73/6/189
f 73/6/189 98/11/193 96/10/189
f 91/10/178 75/6/178 98/11/195
f 73/6/191 98/11/195 75/6/178
f 96/10/191 98/11/195 73/6/191
f 94/10/181 97/10/186 99/11/196
f 97/10/186 94/10/181 66/6/181
f 97/10/186 66/6/181 71/6/186
f 99/11/197 97/10/192 94/10/185
f 66/6/185 94/10/185 97/10/192
f 71/6/192 66/6/185 97/10/192
f 90/10/174 92/10/179 100/11/198
f 92/10/179 90/10/174 69/6/174
f 92/10/179 69/6/174 65/6/179
f 100/11/199 92/10/183 90/10/177
f 69/6/177 90/10/177 92/10/183
f 65/6/183 69/6/177 92/10/183
f 102/11/200 61/6/201 101/10/145
f 61/6/147 102/11/144 59/6/148
f 59/6/148 102/11/144 103/10/148
f 101/10/149 61/6/202 102/11/203
f 59/6/151 102/11/150 61/6/149
f 103/10/151 102/11/150 59/6/204
f 103/10/148 60/6/138 59/6/148
f 60/6/138 103/10/148 104/11/153
f 60/6/205 104/11/206 105/10/138
f 59/6/151 60/6/141 103/10/151
f 104/11/154 103/10/151 60/6/207
f 105/10/141 104/11/208 60/6/155
f 62/6/163 107/11/169 106/10/163
f 107/11/168 62/6/163 53/6/156
f 107/11/168 53/6/156 108/10/156
f 106/10/171 107/11/172 62/6/209
f 53/6/160 62/6/166 107/11/170
f 108/10/160 53/6/160 107/11/170
f 110/10/137 105/10/138 109/11/210
f 105/10/138 110/10/137 54/6/137
f 105/10/138 54/6/137 60/6/138
f 109/11/140 105/10/141 110/10/142
f 54/6/142 110/10/142 105/10/141
f 60/6/141 54/6/142 105/10/141
f 101/10/146 106/10/163 111/11/211
f 106/10/163 101/10/146 61/6/146
f 106/10/163 61/6/146 62/6/163
f 111/11/212 106/10/166 101/10/149
f 61/6/149 101/10/149 106/10/166
f 62/6/166 61/6/149 106/10/166
f 53/6/156 112/11/213 108/10/156
f 112/11/157 53/6/156 54/6/137
f 112/11/157 54/6/214 110/10/137
f 108/10/160 112/11/215 53/6/160
f 54/6/142 53/6/160 112/11/161
f 110/10/142 54/6/142 112/11/161
