# Blender 4.1.1
# www.blender.org
mtllib crypt-large-roof.mtl
o crypt-large-roof
v 17.244869 1.737280 -5.110353
v 17.244869 1.737280 -3.303457
v 17.244869 1.917970 -5.110353
v 17.244869 1.917970 -3.303457
v 17.154526 1.737280 -3.213112
v 17.154526 1.917970 -3.213112
v 17.154526 1.737280 -5.200698
v 17.154526 1.917970 -5.200698
v 13.450389 1.737280 -3.303457
v 13.450389 1.917970 -3.303457
v 13.540732 1.737280 -3.213112
v 13.540732 1.917970 -3.213112
v 13.450389 1.917970 -5.110353
v 13.450389 1.737280 -5.110353
v 13.540732 1.917970 -5.200698
v 13.540732 1.737280 -5.200698
v 13.631078 1.917970 -5.020008
v 17.064180 1.917970 -5.020008
v 13.631078 1.917970 -4.718859
v 13.721423 1.917970 -4.718859
v 17.064180 1.917970 -4.718859
v 13.631078 1.917970 -3.694951
v 13.721423 1.917970 -3.694951
v 13.631078 1.917970 -3.393802
v 17.064180 1.917970 -3.393802
v 17.064180 1.917970 -3.694951
v 16.973837 1.917970 -3.694951
v 16.973837 1.917970 -4.718859
v 13.721423 2.279349 -4.176790
v 13.721423 2.279349 -4.237020
v 16.973837 2.279349 -4.237020
v 16.973837 2.279349 -4.176790
v 13.631078 2.460039 -4.297250
v 17.064180 2.460039 -4.297250
v 13.631078 2.460039 -4.116560
v 17.064180 2.460039 -4.116560
v 17.064180 2.279349 -4.237020
v 17.064180 2.279349 -4.176790
v 13.631078 2.279349 -4.176790
v 13.631078 2.279349 -4.237020
v 16.190746 2.176976 -3.739143
v 16.235918 2.258286 -3.847557
v 16.381210 2.163342 -3.720965
v 16.055229 2.149873 -3.703006
v 16.381210 2.271756 -3.865517
v 16.235918 2.366700 -3.992109
v 16.426384 2.082032 -3.612551
v 16.742592 2.271756 -3.865517
v 15.874540 2.366700 -3.992109
v 16.742592 2.163342 -3.720965
v 16.697418 2.082032 -3.612551
v 16.561901 2.054928 -3.576413
v 14.389235 2.118263 -3.660860
v 15.919712 2.176976 -3.739143
v 14.253718 2.091160 -3.624722
v 14.434408 2.199574 -3.769274
v 15.874540 2.258286 -3.847557
v 14.434408 2.307988 -3.913826
v 14.118200 2.118263 -3.660860
v 14.073029 2.199574 -3.769274
v 14.073029 2.307988 -3.913826
v 16.533085 2.128515 -4.739282
v 16.487913 2.047204 -4.847696
v 16.533085 2.236929 -4.594730
v 16.352396 2.020101 -4.883833
v 15.034754 2.341073 -4.455871
v 16.171707 2.236929 -4.594730
v 15.034754 2.232659 -4.600422
v 14.989582 2.151349 -4.708836
v 16.171707 2.128515 -4.739282
v 14.673374 2.341073 -4.455871
v 14.673374 2.232659 -4.600422
v 14.718547 2.151349 -4.708836
v 14.854064 2.124246 -4.744974
v 16.216879 2.047204 -4.847696
v 15.874540 2.330562 -3.793350
v 15.874540 2.366700 -3.992109
v 16.235918 2.258286 -3.847557
v 16.235918 2.330562 -3.793350
v 16.235918 2.366700 -3.992109
v 15.919712 2.249252 -3.684937
v 16.055229 2.222148 -3.648799
v 16.190746 2.249252 -3.684937
v 16.190746 2.176976 -3.739143
v 16.381210 2.235618 -3.666758
v 16.381210 2.271756 -3.865517
v 16.742592 2.163342 -3.720965
v 16.742592 2.235618 -3.666758
v 16.742592 2.271756 -3.865517
v 16.426384 2.154308 -3.558344
v 16.561901 2.127204 -3.522207
v 16.697418 2.154308 -3.558344
v 16.426384 2.082032 -3.612551
v 14.073029 2.271850 -3.715067
v 14.073029 2.307988 -3.913826
v 14.434408 2.199574 -3.769274
v 14.434408 2.271850 -3.715067
v 14.434408 2.307988 -3.913826
v 14.118200 2.190540 -3.606653
v 14.253718 2.163436 -3.570515
v 14.389235 2.190540 -3.606653
v 14.253718 2.091160 -3.624722
v 14.118200 2.118263 -3.660860
v 14.389235 2.118263 -3.660860
v 15.034754 2.304935 -4.654629
v 15.034754 2.232659 -4.600422
v 15.034754 2.341073 -4.455871
v 14.673374 2.304935 -4.654629
v 14.989582 2.223625 -4.763043
v 14.854064 2.196521 -4.799181
v 14.718547 2.223625 -4.763043
v 14.989582 2.151349 -4.708836
v 14.718547 2.151349 -4.708836
v 16.533085 2.200791 -4.793489
v 16.533085 2.128515 -4.739282
v 16.533085 2.236929 -4.594730
v 16.171707 2.128515 -4.739282
v 16.171707 2.200791 -4.793489
v 16.171707 2.236929 -4.594730
v 16.487913 2.119480 -4.901902
v 16.352396 2.092377 -4.938040
v 16.216879 2.119480 -4.901902
v 16.352396 2.020101 -4.883833
v 16.487913 2.047204 -4.847695
v 16.216879 2.047204 -4.847695
vn 0.9239 -0.0000 -0.3827
vn 0.9239 -0.0000 0.3827
vn 0.3827 -0.0000 0.9239
vn 0.3827 -0.0000 -0.9239
vn -0.3827 -0.0000 0.9239
vn -0.9239 -0.0000 0.3827
vn -0.3827 -0.0000 -0.9239
vn -0.9239 -0.0000 -0.3827
vn -0.0000 -1.0000 -0.0000
vn -0.0000 1.0000 -0.0000
vn -1.0000 -0.0000 -0.0000
vn 1.0000 -0.0000 -0.0000
vn -0.0000 -0.8000 0.6000
vn -0.0000 -0.8000 -0.6000
vn -0.0000 0.8000 0.6000
vn -0.0000 0.8000 -0.6000
vn -0.9871 -0.0961 0.1281
vn -0.9822 -0.1127 0.1502
vn 0.9822 -0.1127 0.1502
vn 0.9871 -0.0961 0.1281
vn -0.0000 0.9269 0.3754
vn -0.0000 0.9269 0.3753
vn -0.0000 0.9839 0.1789
vn -0.0000 -0.6000 0.8000
vn -0.7071 -0.4244 0.5656
vn -0.7071 -0.4243 0.5657
vn -0.9822 -0.1127 0.1503
vn -0.7071 -0.4242 0.5657
vn -0.9871 -0.0961 0.1282
vn 0.9871 -0.0961 0.1282
vn 0.7071 -0.4242 0.5657
vn 0.7071 -0.4242 0.5656
vn 0.9822 -0.1127 0.1503
vn 0.7071 -0.4243 0.5657
vn -0.7071 -0.4241 0.5658
vn 0.9871 -0.0961 -0.1281
vn 0.9822 -0.1127 -0.1502
vn -0.9822 -0.1127 -0.1503
vn -0.9871 -0.0961 -0.1281
vn -0.0000 0.9269 -0.3754
vn -0.0000 0.9269 -0.3753
vn -0.0000 0.9839 -0.1789
vn -0.0000 -0.6000 -0.8000
vn 0.7071 -0.4243 -0.5657
vn 0.9822 -0.1127 -0.1503
vn 0.7072 -0.4243 -0.5656
vn 0.7071 -0.4242 -0.5657
vn 0.9871 -0.0961 -0.1282
vn -0.9871 -0.0961 -0.1282
vn -0.7071 -0.4242 -0.5657
vn -0.7071 -0.4243 -0.5657
vn -0.9822 -0.1127 -0.1502
vn 0.7071 -0.4243 -0.5656
vt 0.093750 0.100000
vt 0.093750 0.075000
vt 0.093750 0.150000
vt 0.843750 0.175000
vt 0.843750 0.100000
vt 0.843750 0.150000
vt 0.843750 0.133949
vt 0.843750 0.147086
vt 0.843750 0.135836
vt 0.843750 0.132086
vt 0.843750 0.148950
vt 0.843750 0.162086
vt 0.843750 0.122699
vt 0.843750 0.118949
vt 0.843750 0.127712
vt 0.843750 0.123962
vt 0.843750 0.138962
vt 0.843750 0.153962
vt 0.843750 0.117881
vt 0.843750 0.129131
vt 0.843750 0.144131
vt 0.843750 0.114131
vt 0.843750 0.158540
vt 0.843750 0.143540
vt 0.843750 0.132290
vt 0.843750 0.128540
vt 0.781250 0.125000
s 0
usemtl colormap
f 3/1/1 2/2/2 1/2/1
f 2/2/2 3/1/1 4/1/2
f 4/1/2 5/2/3 2/2/2
f 5/2/3 4/1/2 6/1/3
f 8/1/4 1/2/1 7/2/4
f 1/2/1 8/1/4 3/1/1
f 11/2/5 10/1/6 9/2/6
f 10/1/6 11/2/5 12/1/5
f 15/1/7 14/2/8 13/1/8
f 14/2/8 15/1/7 16/2/7
f 10/1/6 14/2/8 9/2/6
f 14/2/8 10/1/6 13/1/8
f 1/2/9 16/2/9 7/2/9
f 16/2/9 1/2/9 14/2/9
f 14/2/9 1/2/9 2/2/9
f 14/2/9 2/2/9 9/2/9
f 9/2/9 2/2/9 5/2/9
f 9/2/9 5/2/9 11/2/9
f 8/1/4 16/2/7 15/1/7
f 16/2/7 8/1/4 7/2/4
f 5/2/3 12/1/5 11/2/5
f 12/1/5 5/2/3 6/1/3
f 13/1/10 8/1/10 15/1/10
f 8/1/10 13/1/10 3/1/10
f 3/1/10 13/1/10 17/1/10
f 17/1/10 13/1/10 10/1/10
f 18/1/10 3/1/10 17/1/10
f 17/1/10 10/1/10 19/1/10
f 3/1/10 18/1/10 4/1/10
f 19/1/10 10/1/10 20/1/10
f 4/1/10 18/1/10 21/1/10
f 20/1/10 10/1/10 22/1/10
f 23/1/10 20/1/10 22/1/10
f 22/1/10 10/1/10 24/1/10
f 24/1/10 10/1/10 25/1/10
f 4/1/10 25/1/10 10/1/10
f 4/1/10 10/1/10 12/1/10
f 4/1/10 12/1/10 6/1/10
f 4/1/10 26/1/10 25/1/10
f 4/1/10 21/1/10 26/1/10
f 26/1/10 21/1/10 27/1/10
f 27/1/10 21/1/10 28/1/10
f 29/3/11 20/1/11 23/1/11
f 20/1/11 29/3/11 30/3/11
f 31/3/12 27/1/12 28/1/12
f 27/1/12 31/3/12 32/3/12
f 35/4/10 34/4/10 33/4/10
f 34/4/10 35/4/10 36/4/10
f 34/4/12 21/5/12 18/5/12
f 21/5/12 34/4/12 37/6/12
f 37/6/12 34/4/12 38/6/12
f 36/4/12 38/6/12 34/4/12
f 25/5/12 38/6/12 36/4/12
f 38/6/12 25/5/12 26/5/12
f 35/4/11 22/5/11 24/5/11
f 22/5/11 35/4/11 39/6/11
f 39/6/11 35/4/11 40/6/11
f 33/4/11 40/6/11 35/4/11
f 17/5/11 40/6/11 33/4/11
f 40/6/11 17/5/11 19/5/11
f 30/6/13 19/5/13 20/5/13
f 19/5/13 30/6/13 40/6/13
f 23/5/14 39/6/14 29/6/14
f 39/6/14 23/5/14 22/5/14
f 29/6/9 40/6/9 30/6/9
f 40/6/9 29/6/9 39/6/9
f 26/5/14 32/6/14 38/6/14
f 32/6/14 26/5/14 27/5/14
f 37/6/13 28/5/13 21/5/13
f 28/5/13 37/6/13 31/6/13
f 38/6/9 31/6/9 37/6/9
f 31/6/9 38/6/9 32/6/9
f 43/7/15 42/8/15 41/9/15
f 43/7/15 41/9/15 44/10/15
f 45/11/15 42/8/15 43/7/15
f 42/8/15 45/11/15 46/12/15
f 43/7/15 44/10/15 47/13/15
f 48/11/15 46/12/15 45/11/15
f 48/11/15 36/4/15 46/12/15
f 46/12/15 36/4/15 49/12/15
f 36/4/15 48/11/15 25/5/15
f 25/5/15 48/11/15 50/7/15
f 25/5/15 50/7/15 51/13/15
f 25/5/15 51/13/15 52/14/15
f 25/5/15 52/14/15 24/5/15
f 47/13/15 24/5/15 52/14/15
f 47/13/15 44/10/15 53/15/15
f 54/9/15 53/15/15 44/10/15
f 47/13/15 53/15/15 55/16/15
f 55/16/15 24/5/15 47/13/15
f 54/9/15 56/17/15 53/15/15
f 57/8/15 56/17/15 54/9/15
f 57/8/15 58/18/15 56/17/15
f 49/12/15 58/18/15 57/8/15
f 59/15/15 24/5/15 55/16/15
f 60/17/15 24/5/15 59/15/15
f 58/18/15 49/12/15 61/18/15
f 61/18/15 24/5/15 60/17/15
f 36/4/15 61/18/15 49/12/15
f 61/18/15 35/4/15 24/5/15
f 35/4/15 61/18/15 36/4/15
f 34/4/16 63/19/16 62/20/16
f 34/4/16 62/20/16 64/21/16
f 18/5/16 63/19/16 34/4/16
f 63/19/16 18/5/16 65/22/16
f 34/4/16 64/21/16 66/23/16
f 67/21/16 66/23/16 64/21/16
f 34/4/16 66/23/16 33/4/16
f 67/21/16 68/24/16 66/23/16
f 67/21/16 69/25/16 68/24/16
f 70/20/16 69/25/16 67/21/16
f 71/23/16 33/4/16 66/23/16
f 72/24/16 33/4/16 71/23/16
f 73/25/16 33/4/16 72/24/16
f 73/25/16 17/5/16 33/4/16
f 70/20/16 74/26/16 69/25/16
f 74/26/16 17/5/16 73/25/16
f 17/5/16 74/26/16 18/5/16
f 18/5/16 74/26/16 65/22/16
f 74/26/16 70/20/16 75/19/16
f 65/22/16 74/26/16 75/19/16
f 77/27/11 57/27/17 76/27/18
f 80/27/12 79/27/19 78/27/20
f 81/27/15 79/27/21 76/27/21
f 79/27/22 81/27/15 82/27/15
f 79/27/21 82/27/15 83/27/15
f 79/27/22 77/27/23 76/27/22
f 77/27/23 79/27/22 80/27/23
f 82/27/24 54/27/25 44/27/24
f 54/27/26 82/27/24 81/27/26
f 76/27/27 54/27/26 81/27/26
f 54/27/28 76/27/27 57/27/29
f 78/27/30 83/27/31 84/27/31
f 83/27/32 78/27/30 79/27/33
f 83/27/34 44/27/24 84/27/34
f 44/27/24 83/27/34 82/27/24
f 86/27/11 43/27/17 85/27/18
f 89/27/12 88/27/19 87/27/20
f 90/27/15 88/27/21 85/27/21
f 88/27/21 90/27/15 91/27/15
f 88/27/21 91/27/15 92/27/15
f 88/27/22 86/27/23 85/27/22
f 86/27/23 88/27/22 89/27/23
f 91/27/24 93/27/26 52/27/24
f 93/27/26 91/27/24 90/27/26
f 85/27/27 93/27/26 90/27/35
f 93/27/26 85/27/27 43/27/29
f 87/27/30 92/27/31 51/27/31
f 92/27/34 87/27/30 88/27/33
f 92/27/34 52/27/24 51/27/34
f 52/27/24 92/27/34 91/27/24
f 95/27/11 60/27/17 94/27/27
f 98/27/12 97/27/19 96/27/20
f 99/27/15 97/27/21 94/27/21
f 97/27/21 99/27/15 100/27/15
f 97/27/22 100/27/15 101/27/15
f 97/27/22 95/27/23 94/27/22
f 95/27/23 97/27/22 98/27/23
f 100/27/24 103/27/26 102/27/24
f 103/27/26 100/27/24 99/27/26
f 94/27/27 103/27/26 99/27/25
f 103/27/28 94/27/27 60/27/29
f 96/27/30 101/27/31 104/27/31
f 101/27/34 96/27/30 97/27/33
f 101/27/34 102/27/24 104/27/34
f 102/27/24 101/27/34 100/27/24
f 107/27/12 106/27/36 105/27/37
f 71/27/11 108/27/38 72/27/39
f 109/27/16 108/27/40 105/27/40
f 108/27/40 109/27/16 110/27/16
f 108/27/40 110/27/16 111/27/16
f 108/27/41 107/27/42 105/27/41
f 107/27/42 108/27/41 71/27/42
f 110/27/43 112/27/44 74/27/43
f 112/27/44 110/27/43 109/27/44
f 105/27/45 112/27/46 109/27/46
f 112/27/47 105/27/45 106/27/48
f 72/27/49 111/27/50 113/27/50
f 111/27/51 72/27/49 108/27/38
f 111/27/51 74/27/43 113/27/51
f 74/27/43 111/27/51 110/27/43
f 116/27/12 115/27/36 114/27/37
f 119/27/11 118/27/52 117/27/39
f 120/27/16 118/27/41 114/27/41
f 118/27/40 120/27/16 121/27/16
f 118/27/41 121/27/16 122/27/16
f 118/27/41 116/27/42 114/27/41
f 116/27/42 118/27/41 119/27/42
f 121/27/43 124/27/44 123/27/43
f 124/27/44 121/27/43 120/27/44
f 114/27/45 124/27/44 120/27/53
f 124/27/47 114/27/45 115/27/48
f 117/27/49 122/27/50 125/27/50
f 122/27/51 117/27/49 118/27/38
f 122/27/51 123/27/43 125/27/51
f 123/27/43 122/27/51 121/27/43
f 3/1/1 2/2/2 1/2/1
f 2/2/2 3/1/1 4/1/2
f 4/1/2 5/2/3 2/2/2
f 5/2/3 4/1/2 6/1/3
f 8/1/4 1/2/1 7/2/4
f 1/2/1 8/1/4 3/1/1
f 11/2/5 10/1/6 9/2/6
f 10/1/6 11/2/5 12/1/5
f 15/1/7 14/2/8 13/1/8
f 14/2/8 15/1/7 16/2/7
f 10/1/6 14/2/8 9/2/6
f 14/2/8 10/1/6 13/1/8
f 1/2/9 16/2/9 7/2/9
f 16/2/9 1/2/9 14/2/9
f 14/2/9 1/2/9 2/2/9
f 14/2/9 2/2/9 9/2/9
f 9/2/9 2/2/9 5/2/9
f 9/2/9 5/2/9 11/2/9
f 8/1/4 16/2/7 15/1/7
f 16/2/7 8/1/4 7/2/4
f 5/2/3 12/1/5 11/2/5
f 12/1/5 5/2/3 6/1/3
f 13/1/10 8/1/10 15/1/10
f 8/1/10 13/1/10 3/1/10
f 3/1/10 13/1/10 17/1/10
f 17/1/10 13/1/10 10/1/10
f 18/1/10 3/1/10 17/1/10
f 17/1/10 10/1/10 19/1/10
f 3/1/10 18/1/10 4/1/10
f 19/1/10 10/1/10 20/1/10
f 4/1/10 18/1/10 21/1/10
f 20/1/10 10/1/10 22/1/10
f 23/1/10 20/1/10 22/1/10
f 22/1/10 10/1/10 24/1/10
f 24/1/10 10/1/10 25/1/10
f 4/1/10 25/1/10 10/1/10
f 4/1/10 10/1/10 12/1/10
f 4/1/10 12/1/10 6/1/10
f 4/1/10 26/1/10 25/1/10
f 4/1/10 21/1/10 26/1/10
f 26/1/10 21/1/10 27/1/10
f 27/1/10 21/1/10 28/1/10
f 29/3/11 20/1/11 23/1/11
f 20/1/11 29/3/11 30/3/11
f 31/3/12 27/1/12 28/1/12
f 27/1/12 31/3/12 32/3/12
f 35/4/10 34/4/10 33/4/10
f 34/4/10 35/4/10 36/4/10
f 34/4/12 21/5/12 18/5/12
f 21/5/12 34/4/12 37/6/12
f 37/6/12 34/4/12 38/6/12
f 36/4/12 38/6/12 34/4/12
f 25/5/12 38/6/12 36/4/12
f 38/6/12 25/5/12 26/5/12
f 35/4/11 22/5/11 24/5/11
f 22/5/11 35/4/11 39/6/11
f 39/6/11 35/4/11 40/6/11
f 33/4/11 40/6/11 35/4/11
f 17/5/11 40/6/11 33/4/11
f 40/6/11 17/5/11 19/5/11
f 30/6/13 19/5/13 20/5/13
f 19/5/13 30/6/13 40/6/13
f 23/5/14 39/6/14 29/6/14
f 39/6/14 23/5/14 22/5/14
f 29/6/9 40/6/9 30/6/9
f 40/6/9 29/6/9 39/6/9
f 26/5/14 32/6/14 38/6/14
f 32/6/14 26/5/14 27/5/14
f 37/6/13 28/5/13 21/5/13
f 28/5/13 37/6/13 31/6/13
f 38/6/9 31/6/9 37/6/9
f 31/6/9 38/6/9 32/6/9
f 43/7/15 42/8/15 41/9/15
f 43/7/15 41/9/15 44/10/15
f 45/11/15 42/8/15 43/7/15
f 42/8/15 45/11/15 46/12/15
f 43/7/15 44/10/15 47/13/15
f 48/11/15 46/12/15 45/11/15
f 48/11/15 36/4/15 46/12/15
f 46/12/15 36/4/15 49/12/15
f 36/4/15 48/11/15 25/5/15
f 25/5/15 48/11/15 50/7/15
f 25/5/15 50/7/15 51/13/15
f 25/5/15 51/13/15 52/14/15
f 25/5/15 52/14/15 24/5/15
f 47/13/15 24/5/15 52/14/15
f 47/13/15 44/10/15 53/15/15
f 54/9/15 53/15/15 44/10/15
f 47/13/15 53/15/15 55/16/15
f 55/16/15 24/5/15 47/13/15
f 54/9/15 56/17/15 53/15/15
f 57/8/15 56/17/15 54/9/15
f 57/8/15 58/18/15 56/17/15
f 49/12/15 58/18/15 57/8/15
f 59/15/15 24/5/15 55/16/15
f 60/17/15 24/5/15 59/15/15
f 58/18/15 49/12/15 61/18/15
f 61/18/15 24/5/15 60/17/15
f 36/4/15 61/18/15 49/12/15
f 61/18/15 35/4/15 24/5/15
f 35/4/15 61/18/15 36/4/15
f 34/4/16 63/19/16 62/20/16
f 34/4/16 62/20/16 64/21/16
f 18/5/16 63/19/16 34/4/16
f 63/19/16 18/5/16 65/22/16
f 34/4/16 64/21/16 66/23/16
f 67/21/16 66/23/16 64/21/16
f 34/4/16 66/23/16 33/4/16
f 67/21/16 68/24/16 66/23/16
f 67/21/16 69/25/16 68/24/16
f 70/20/16 69/25/16 67/21/16
f 71/23/16 33/4/16 66/23/16
f 72/24/16 33/4/16 71/23/16
f 73/25/16 33/4/16 72/24/16
f 73/25/16 17/5/16 33/4/16
f 70/20/16 74/26/16 69/25/16
f 74/26/16 17/5/16 73/25/16
f 17/5/16 74/26/16 18/5/16
f 18/5/16 74/26/16 65/22/16
f 74/26/16 70/20/16 75/19/16
f 65/22/16 74/26/16 75/19/16
f 77/27/11 57/27/17 76/27/18
f 80/27/12 79/27/19 78/27/20
f 81/27/15 79/27/21 76/27/21
f 79/27/22 81/27/15 82/27/15
f 79/27/21 82/27/15 83/27/15
f 79/27/22 77/27/23 76/27/22
f 77/27/23 79/27/22 80/27/23
f 82/27/24 54/27/25 44/27/24
f 54/27/26 82/27/24 81/27/26
f 76/27/27 54/27/26 81/27/26
f 54/27/28 76/27/27 57/27/29
f 78/27/30 83/27/31 84/27/31
f 83/27/32 78/27/30 79/27/33
f 83/27/34 44/27/24 84/27/34
f 44/27/24 83/27/34 82/27/24
f 86/27/11 43/27/17 85/27/18
f 89/27/12 88/27/19 87/27/20
f 90/27/15 88/27/21 85/27/21
f 88/27/21 90/27/15 91/27/15
f 88/27/21 91/27/15 92/27/15
f 88/27/22 86/27/23 85/27/22
f 86/27/23 88/27/22 89/27/23
f 91/27/24 93/27/26 52/27/24
f 93/27/26 91/27/24 90/27/26
f 85/27/27 93/27/26 90/27/35
f 93/27/26 85/27/27 43/27/29
f 87/27/30 92/27/31 51/27/31
f 92/27/34 87/27/30 88/27/33
f 92/27/34 52/27/24 51/27/34
f 52/27/24 92/27/34 91/27/24
f 95/27/11 60/27/17 94/27/27
f 98/27/12 97/27/19 96/27/20
f 99/27/15 97/27/21 94/27/21
f 97/27/21 99/27/15 100/27/15
f 97/27/22 100/27/15 101/27/15
f 97/27/22 95/27/23 94/27/22
f 95/27/23 97/27/22 98/27/23
f 100/27/24 103/27/26 102/27/24
f 103/27/26 100/27/24 99/27/26
f 94/27/27 103/27/26 99/27/25
f 103/27/28 94/27/27 60/27/29
f 96/27/30 101/27/31 104/27/31
f 101/27/34 96/27/30 97/27/33
f 101/27/34 102/27/24 104/27/34
f 102/27/24 101/27/34 100/27/24
f 107/27/12 106/27/36 105/27/37
f 71/27/11 108/27/38 72/27/39
f 109/27/16 108/27/40 105/27/40
f 108/27/40 109/27/16 110/27/16
f 108/27/40 110/27/16 111/27/16
f 108/27/41 107/27/42 105/27/41
f 107/27/42 108/27/41 71/27/42
f 110/27/43 112/27/44 74/27/43
f 112/27/44 110/27/43 109/27/44
f 105/27/45 112/27/46 109/27/46
f 112/27/47 105/27/45 106/27/48
f 72/27/49 111/27/50 113/27/50
f 111/27/51 72/27/49 108/27/38
f 111/27/51 74/27/43 113/27/51
f 74/27/43 111/27/51 110/27/43
f 116/27/12 115/27/36 114/27/37
f 119/27/11 118/27/52 117/27/39
f 120/27/16 118/27/41 114/27/41
f 118/27/40 120/27/16 121/27/16
f 118/27/41 121/27/16 122/27/16
f 118/27/41 116/27/42 114/27/41
f 116/27/42 118/27/41 119/27/42
f 121/27/43 124/27/44 123/27/43
f 124/27/44 121/27/43 120/27/44
f 114/27/45 124/27/44 120/27/53
f 124/27/47 114/27/45 115/27/48
f 117/27/49 122/27/50 125/27/50
f 122/27/51 117/27/49 118/27/38
f 122/27/51 123/27/43 125/27/51
f 123/27/43 122/27/51 121/27/43
