# Blender 4.1.1
# www.blender.org
mtllib tree.071.mtl
o tree.071
v 3.385998 -4.606890 5.332022
v 3.571970 -4.606890 5.380066
v 3.317034 -4.606890 5.215014
v 3.688977 -4.606890 5.311102
v 3.365078 -4.606890 5.029043
v 3.737021 -4.606890 5.125131
v 3.482086 -4.606890 4.960079
v 3.668057 -4.606890 5.008123
v 3.549499 -4.259123 5.275069
v 3.456513 -4.259123 5.251047
v 3.422031 -4.259123 5.192543
v 3.608002 -4.259123 5.240587
v 3.632025 -4.259123 5.147602
v 3.597543 -4.259123 5.089098
v 3.504557 -4.259123 5.065076
v 3.446053 -4.259123 5.099557
v 3.615171 -3.737433 5.068854
v 3.498939 -3.737433 5.038826
v 3.425810 -3.737433 5.081929
v 3.555116 -3.737433 5.301318
v 3.438884 -3.737433 5.271291
v 3.658274 -3.737433 5.141984
v 3.628246 -3.737433 5.258216
v 3.395782 -3.737433 5.198161
v 3.532773 -4.134956 5.335510
v 3.472575 -4.134956 5.290172
v 3.607399 -4.134956 5.325003
v 3.652738 -4.134956 5.264804
v 3.462067 -4.134956 5.215546
v 3.642230 -4.134956 5.190178
v 3.507406 -4.134956 5.155347
v 3.582031 -4.134956 5.144839
v 3.518823 -4.261151 5.389510
v 3.635719 -4.261151 5.373051
v 3.424527 -4.261151 5.318491
v 3.408067 -4.261151 5.201596
v 3.706737 -4.261151 5.278754
v 3.479086 -4.261151 5.107299
v 3.690278 -4.261151 5.161859
v 3.595982 -4.261151 5.090840
v 3.068448 -3.737433 5.289007
v 3.188094 -3.737433 4.825872
v 3.257419 -3.162436 5.236548
v 3.328010 -3.162436 4.963297
v 3.870620 -3.737433 5.496241
v 3.409710 -3.737433 5.624191
v 3.730703 -3.162436 5.358816
v 3.458765 -3.162436 5.434308
v 3.990266 -3.737433 5.033106
v 3.801295 -3.162436 5.085565
v 3.599949 -3.162436 4.887805
v 3.649004 -3.737433 4.697922
v 3.460369 -2.544689 5.428101
v 3.263596 -2.544689 5.234833
v 3.513500 -1.896736 5.222436
v 3.468272 -1.896736 5.178014
v 3.545214 -1.896736 5.099677
v 3.484129 -1.896736 5.116635
v 3.598345 -2.544689 4.894012
v 3.332584 -2.544689 4.967789
v 3.795118 -2.544689 5.087280
v 3.726130 -2.544689 5.354324
v 3.590441 -1.896736 5.144099
v 3.574584 -1.896736 5.205478
v 3.633381 -3.162436 5.535779
v 3.256850 -3.162436 5.438506
v 3.577022 -2.544689 5.332759
v 3.404491 -2.544689 5.288187
v 3.905889 -3.162436 5.258330
v 3.701888 -2.544689 5.205628
v 3.152825 -3.162436 5.063783
v 3.356826 -2.544689 5.116485
v 3.425332 -3.162436 4.786334
v 3.481692 -2.544689 4.989354
v 3.801865 -3.162436 4.883607
v 3.654223 -2.544689 5.033926
v 3.040032 -3.916810 5.034644
v 3.150555 -3.827122 4.789002
v 3.017748 -3.827122 5.303082
v 4.040967 -3.827122 5.019032
v 3.883496 -3.916810 4.800495
v 3.662165 -3.827122 4.646977
v 3.394171 -3.916810 4.674082
v 3.396549 -3.827122 5.675136
v 3.175218 -3.916810 5.521618
v 4.018682 -3.916810 5.287469
v 3.908159 -3.827122 5.533111
v 3.664543 -3.916810 5.648031
v 3.925271 -3.308271 5.051149
v 3.947307 -3.235354 5.269030
v 3.831840 -3.235354 4.853087
v 3.644825 -3.235354 5.576999
v 3.426583 -3.308271 5.558882
v 3.226874 -3.235354 5.469026
v 3.236217 -3.308271 4.873138
v 3.413890 -3.235354 4.745114
v 3.111407 -3.235354 5.053083
v 3.632131 -3.308271 4.763231
v 3.133443 -3.308271 5.270964
v 3.822497 -3.308271 5.448975
v 3.824352 -2.596404 5.079165
v 3.733554 -2.648118 4.953156
v 3.605934 -2.596404 4.864638
v 3.451408 -2.648118 4.880267
v 3.310939 -2.596404 4.946529
v 3.747775 -2.596404 5.375584
v 3.607305 -2.648118 5.441846
v 3.452780 -2.596404 5.457475
v 3.247211 -2.648118 5.088167
v 3.234362 -2.596404 5.242948
v 3.811502 -2.648118 5.233946
v 3.325160 -2.648118 5.368957
vn -0.0000 -1.0000 -0.0000
vn 0.1278 0.2942 0.9472
vn -0.5784 0.2944 0.7608
vn 0.1376 0.2944 0.9457
vn -0.5784 0.2944 0.7607
vn -0.5706 0.2942 0.7667
vn -0.9471 0.2942 0.1279
vn -0.5785 0.2944 0.7607
vn -0.5707 0.2942 0.7667
vn -0.9471 0.2943 0.1279
vn -0.9457 0.2944 0.1376
vn 0.7667 0.2942 0.5707
vn 0.7607 0.2944 0.5785
vn 0.1279 0.2942 0.9471
vn 0.9471 0.2942 -0.1278
vn 0.7607 0.2944 0.5784
vn 0.9457 0.2944 -0.1376
vn 0.9472 0.2942 -0.1278
vn 0.7667 0.2942 0.5706
vn -0.1376 0.2944 -0.9457
vn 0.5706 0.2942 -0.7667
vn 0.5784 0.2944 -0.7607
vn -0.1278 0.2942 -0.9472
vn -0.9471 0.2942 0.1278
vn -0.7608 0.2944 -0.5784
vn -0.7607 0.2944 -0.5784
vn -0.9472 0.2942 0.1278
vn -0.7667 0.2942 -0.5706
vn 0.5785 0.2944 -0.7607
vn 0.9471 0.2943 -0.1279
vn 0.9471 0.2942 -0.1279
vn 0.5707 0.2942 -0.7667
vn -0.7667 0.2942 -0.5707
vn -0.1279 0.2942 -0.9471
vn -0.7607 0.2944 -0.5785
vn 0.6001 -0.0513 -0.7983
vn -0.1401 -0.0512 -0.9888
vn 0.6015 -0.0513 -0.7972
vn -0.1401 -0.0513 -0.9888
vn -0.1383 -0.0513 -0.9891
vn -0.7983 -0.0512 -0.6001
vn -0.1384 -0.0512 -0.9891
vn -0.7983 -0.0513 -0.6001
vn -0.7972 -0.0512 -0.6015
vn -0.6015 -0.0512 0.7972
vn 0.1383 -0.0513 0.9891
vn 0.1401 -0.0513 0.9888
vn -0.6001 -0.0513 0.7983
vn 0.9888 -0.0513 -0.1401
vn 0.7983 -0.0513 0.6001
vn 0.9891 -0.0513 -0.1383
vn 0.9888 -0.0512 -0.1401
vn 0.7972 -0.0513 0.6015
vn -0.6015 -0.0513 0.7972
vn -0.9891 -0.0513 0.1384
vn -0.9888 -0.0513 0.1401
vn 0.9891 -0.0513 -0.1384
vn 0.6015 -0.0512 -0.7972
vn 0.7972 -0.0512 0.6015
vn 0.7983 -0.0512 0.6001
vn 0.1384 -0.0512 0.9891
vn -0.9891 -0.0513 0.1383
vn -0.9888 -0.0512 0.1401
vn -0.7972 -0.0513 -0.6015
vn -0.0000 1.0000 -0.0000
vn 0.4644 0.4042 0.7880
vn -0.2288 0.4042 0.8856
vn -0.2288 0.4043 0.8856
vn -0.8856 0.4042 -0.2288
vn -0.4645 0.4042 -0.7880
vn -0.4644 0.4042 -0.7880
vn -0.4644 0.4043 -0.7880
vn 0.2288 0.4042 -0.8856
vn 0.2287 0.4043 -0.8856
vn 0.8856 0.4042 0.2288
vn 0.4645 0.4042 0.7880
vn 0.4644 0.4043 0.7880
vn -0.7880 0.4042 0.4644
vn -0.8856 0.4043 -0.2287
vn 0.7880 0.4042 -0.4644
vn 0.8856 0.4043 0.2288
vn -0.7880 0.4042 0.4645
vn 0.7880 0.4042 -0.4645
vn 0.2288 0.4043 -0.8856
vn -0.9120 0.3228 0.2532
vn -0.6753 0.3228 -0.6632
vn 0.6752 0.3228 0.6632
vn -0.2367 0.3228 0.9164
vn 0.9120 0.3228 -0.2532
vn 0.6753 0.3228 0.6632
vn -0.2368 0.3228 0.9164
vn 0.2367 0.3228 -0.9164
vn -0.6752 0.3228 -0.6632
vn 0.2368 0.3228 -0.9164
vn -0.1720 0.7260 0.6659
vn -0.9156 0.3115 0.2542
vn -0.2377 0.3115 0.9200
vn -0.6627 0.7260 0.1839
vn 0.2377 0.3115 -0.9200
vn -0.4907 0.7260 -0.4819
vn 0.1721 0.7260 -0.6659
vn -0.6779 0.3115 -0.6659
vn 0.6627 0.7260 -0.1840
vn 0.6780 0.3115 0.6659
vn 0.9156 0.3115 -0.2542
vn 0.6779 0.3115 0.6659
vn 0.4906 0.7260 0.4820
vn 0.4907 0.7260 0.4819
vn -0.1721 0.7260 0.6659
vn 0.4906 0.7259 0.4819
vn -0.6627 0.7259 0.1840
vn -0.1721 0.7259 0.6659
vn 0.4907 0.7259 0.4819
vn -0.4906 0.7259 -0.4819
vn -0.4907 0.7259 -0.4819
vn 0.6627 0.7259 -0.1840
vn 0.1721 0.7259 -0.6659
vn 0.2377 0.3116 -0.9200
vn 0.6627 0.7260 -0.1839
vn 0.6626 0.7260 -0.1840
vn 0.1720 0.7260 -0.6658
vn -0.6627 0.7260 0.1840
vn -0.6779 0.3115 -0.6658
vn -0.4906 0.7260 -0.4819
vn 0.2532 0.3228 0.9120
vn -0.6632 0.3228 0.6752
vn 0.9164 0.3228 0.2367
vn 0.9164 0.3228 0.2368
vn -0.9164 0.3228 -0.2367
vn -0.2532 0.3228 -0.9120
vn -0.9164 0.3228 -0.2368
vn 0.6632 0.3228 -0.6752
vn -0.8311 0.5060 0.2307
vn -0.6153 0.5060 -0.6044
vn -0.8632 0.4530 -0.2230
vn -0.6154 0.5060 -0.6044
vn 0.8632 -0.4530 0.2230
vn 0.6154 -0.5060 0.6044
vn 0.8311 -0.5060 -0.2307
vn 0.6247 0.4530 -0.6360
vn 0.8311 0.5060 -0.2307
vn 0.2157 0.5060 -0.8351
vn -0.8311 -0.5060 0.2307
vn -0.6247 -0.4530 0.6360
vn -0.2157 -0.5060 0.8351
vn -0.2385 0.4530 -0.8590
vn -0.2385 0.4529 -0.8591
vn 0.6153 -0.5060 0.6044
vn 0.2385 -0.4530 0.8590
vn 0.2385 -0.4529 0.8591
vn -0.2157 0.5060 0.8351
vn -0.6247 0.4530 0.6360
vn 0.2157 -0.5060 -0.8351
vn 0.6247 -0.4530 -0.6360
vn 0.6153 0.5060 0.6044
vn 0.8632 0.4530 0.2230
vn 0.6154 0.5060 0.6044
vn -0.8632 -0.4530 -0.2230
vn -0.6154 -0.5060 -0.6044
vn 0.2385 0.4530 0.8590
vn -0.2385 -0.4530 -0.8590
vn -0.6153 -0.5060 -0.6044
vn 0.6044 0.5060 -0.6153
vn 0.8351 0.5060 0.2157
vn 0.8590 0.4530 -0.2385
vn 0.6044 0.5060 -0.6154
vn -0.8590 -0.4530 0.2385
vn -0.8351 -0.5060 -0.2157
vn -0.6044 -0.5060 0.6153
vn -0.6044 -0.5060 0.6154
vn 0.2307 0.5060 0.8311
vn -0.2230 0.4530 0.8632
vn -0.6044 0.5060 0.6153
vn -0.6044 0.5060 0.6154
vn -0.2307 -0.5060 -0.8311
vn 0.2230 -0.4530 -0.8632
vn 0.6044 -0.5060 -0.6154
vn 0.6044 -0.5060 -0.6153
vn -0.8351 0.5060 -0.2157
vn -0.2307 0.5060 -0.8311
vn -0.6360 0.4530 -0.6247
vn 0.6360 -0.4530 0.6247
vn 0.2307 -0.5060 0.8311
vn 0.8351 -0.5060 0.2157
vn 0.2230 0.4530 -0.8632
vn -0.2230 -0.4530 0.8632
vn -0.8590 0.4530 0.2385
vn 0.8590 -0.4530 -0.2385
vn 0.6360 0.4530 0.6247
vn -0.6361 -0.4530 -0.6247
vn 0.6247 0.4530 -0.6361
vn -0.6247 -0.4530 0.6361
vn 0.2385 0.4529 0.8591
vn -0.2385 -0.4529 -0.8591
vn -0.6247 0.4530 0.6361
vn 0.6247 -0.4530 -0.6361
vn 0.6247 -0.4529 -0.6361
vt 0.593750 0.025000
vt 0.593750 0.104996
vt 0.593750 0.225000
vt 0.093750 0.475000
vt 0.093750 0.275000
vt 0.093750 0.425000
vt 0.093750 0.348778
vt 0.093750 0.338765
vt 0.093750 0.344099
vt 0.093750 0.375000
vt 0.093750 0.325000
s 0
usemtl colormap.002
f 3/1/1 2/1/1 1/1/1
f 2/1/1 3/1/1 4/1/1
f 4/1/1 3/1/1 5/1/1
f 4/1/1 5/1/1 6/1/1
f 6/1/1 5/1/1 7/1/1
f 6/1/1 7/1/1 8/1/1
f 9/2/2 1/1/3 2/1/4
f 1/1/5 9/2/2 10/2/6
f 11/2/7 1/1/8 10/2/9
f 1/1/8 11/2/10 3/1/11
f 12/2/12 2/1/4 4/1/13
f 2/1/4 12/2/12 9/2/14
f 13/2/15 4/1/16 6/1/17
f 4/1/16 13/2/18 12/2/19
f 7/1/20 14/2/21 8/1/22
f 14/2/21 7/1/20 15/2/23
f 11/2/24 5/1/25 3/1/11
f 5/1/26 11/2/27 16/2/28
f 8/1/29 13/2/30 6/1/17
f 13/2/31 8/1/29 14/2/32
f 7/1/20 16/2/33 15/2/34
f 16/2/28 7/1/20 5/1/35
f 14/2/36 18/3/37 17/3/38
f 18/3/39 14/2/36 15/2/40
f 16/2/41 18/3/39 15/2/42
f 18/3/39 16/2/43 19/3/44
f 21/3/45 9/2/46 20/3/47
f 9/2/46 21/3/45 10/2/48
f 22/3/49 12/2/50 13/2/51
f 12/2/50 22/3/52 23/3/53
f 21/3/54 11/2/55 10/2/48
f 11/2/55 21/3/45 24/3/56
f 13/2/57 17/3/58 22/3/49
f 17/3/38 13/2/57 14/2/36
f 20/3/47 12/2/50 23/3/59
f 12/2/60 20/3/47 9/2/61
f 24/3/56 16/2/43 11/2/62
f 16/2/43 24/3/63 19/3/64
f 27/4/65 26/4/65 25/4/65
f 26/4/65 27/4/65 28/4/65
f 26/4/65 28/4/65 29/4/65
f 29/4/65 28/4/65 30/4/65
f 29/4/65 30/4/65 31/4/65
f 31/4/65 30/4/65 32/4/65
f 35/5/1 34/5/1 33/5/1
f 34/5/1 35/5/1 36/5/1
f 34/5/1 36/5/1 37/5/1
f 37/5/1 36/5/1 38/5/1
f 37/5/1 38/5/1 39/5/1
f 39/5/1 38/5/1 40/5/1
f 27/4/66 33/5/67 34/5/66
f 33/5/67 27/4/66 25/4/68
f 29/4/69 38/5/70 36/5/69
f 38/5/71 29/4/69 31/4/72
f 40/5/73 31/4/71 32/4/74
f 31/4/71 40/5/73 38/5/71
f 28/4/75 34/5/76 37/5/75
f 34/5/76 28/4/75 27/4/77
f 26/4/78 36/5/69 35/5/78
f 36/5/69 26/4/78 29/4/79
f 30/4/80 37/5/75 39/5/80
f 37/5/75 30/4/80 28/4/81
f 26/4/82 33/5/68 25/4/67
f 33/5/67 26/4/78 35/5/82
f 40/5/73 30/4/80 39/5/80
f 30/4/83 40/5/84 32/4/73
f 43/6/85 42/7/86 41/7/85
f 42/7/86 43/6/85 44/6/86
f 47/6/87 46/7/88 45/7/87
f 46/7/88 47/6/87 48/6/88
f 50/6/89 45/7/90 49/7/89
f 45/7/90 50/6/89 47/6/90
f 48/6/91 41/7/85 46/7/88
f 41/7/85 48/6/91 43/6/85
f 52/7/92 44/6/93 51/6/92
f 44/6/93 52/7/92 42/7/93
f 52/7/94 50/6/89 49/7/89
f 50/6/89 52/7/92 51/6/94
f 41/7/1 45/7/1 46/7/1
f 45/7/1 41/7/1 42/7/1
f 45/7/1 42/7/1 49/7/1
f 49/7/1 42/7/1 52/7/1
f 55/6/95 54/8/96 53/8/97
f 54/8/96 55/6/95 56/6/98
f 59/8/99 58/6/100 57/6/101
f 58/6/100 59/8/99 60/8/102
f 63/6/103 62/8/104 61/8/105
f 62/8/106 63/6/103 64/6/107
f 64/6/108 53/8/97 62/8/106
f 53/8/97 64/6/108 55/6/109
f 64/6/110 56/6/111 55/6/112
f 56/6/111 64/6/113 58/6/114
f 58/6/115 64/6/110 63/6/116
f 58/6/114 63/6/116 57/6/117
f 59/8/118 63/6/119 61/8/105
f 63/6/120 59/8/99 57/6/121
f 54/8/1 62/8/1 53/8/1
f 62/8/1 54/8/1 60/8/1
f 62/8/1 60/8/1 61/8/1
f 61/8/1 60/8/1 59/8/1
f 56/6/122 60/8/102 54/8/96
f 60/8/123 56/6/122 58/6/124
f 67/6/125 66/9/126 65/9/125
f 66/9/126 67/6/125 68/6/126
f 70/6/127 65/9/125 69/9/127
f 65/9/125 70/6/128 67/6/125
f 68/6/126 71/9/129 66/9/126
f 71/9/129 68/6/126 72/6/129
f 72/6/129 73/9/130 71/9/129
f 73/9/130 72/6/131 74/6/130
f 71/9/1 65/9/1 66/9/1
f 65/9/1 71/9/1 69/9/1
f 69/9/1 71/9/1 73/9/1
f 69/9/1 73/9/1 75/9/1
f 76/6/132 69/9/127 75/9/132
f 69/9/127 76/6/132 70/6/127
f 73/9/130 76/6/132 75/9/132
f 76/6/132 73/9/130 74/6/130
f 79/10/133 78/10/134 77/11/135
f 78/10/136 79/10/133 41/6/133
f 78/10/136 41/6/133 42/6/136
f 77/11/137 78/10/138 79/10/139
f 41/6/139 79/10/139 78/10/138
f 42/6/138 41/6/139 78/10/138
f 81/11/140 49/6/141 80/10/141
f 49/6/141 81/11/140 52/6/142
f 52/6/142 81/11/140 82/10/142
f 80/10/143 49/6/143 81/11/144
f 52/6/145 81/11/144 49/6/143
f 82/10/145 81/11/144 52/6/145
f 82/10/142 42/6/136 52/6/142
f 42/6/136 82/10/142 83/11/146
f 42/6/134 83/11/147 78/10/136
f 52/6/145 42/6/148 82/10/145
f 83/11/149 82/10/145 42/6/148
f 78/10/138 83/11/150 42/6/148
f 46/6/151 85/11/152 84/10/151
f 85/11/152 46/6/151 41/6/133
f 85/11/152 41/6/133 79/10/133
f 84/10/153 85/11/154 46/6/153
f 41/6/139 46/6/153 85/11/154
f 79/10/139 41/6/139 85/11/154
f 80/10/141 87/10/155 86/11/156
f 87/10/157 80/10/141 49/6/141
f 87/10/157 49/6/141 45/6/157
f 86/11/158 87/10/159 80/10/143
f 49/6/143 80/10/143 87/10/159
f 45/6/159 49/6/143 87/10/159
f 45/6/155 88/11/160 87/10/157
f 88/11/160 45/6/157 46/6/151
f 88/11/160 46/6/151 84/10/151
f 87/10/159 88/11/161 45/6/162
f 46/6/153 45/6/159 88/11/161
f 84/10/153 46/6/153 88/11/161
f 91/10/163 90/10/164 89/11/165
f 90/10/164 91/10/166 75/6/166
f 90/10/164 75/6/166 69/6/164
f 89/11/167 90/10/168 91/10/169
f 75/6/170 91/10/170 90/10/168
f 69/6/168 75/6/169 90/10/168
f 65/6/171 93/11/172 92/10/171
f 93/11/172 65/6/171 66/6/173
f 93/11/172 66/6/173 94/10/174
f 92/10/175 93/11/176 65/6/175
f 66/6/177 65/6/175 93/11/176
f 94/10/177 66/6/178 93/11/176
f 97/10/179 96/10/180 95/11/181
f 96/10/180 97/10/179 71/6/179
f 96/10/180 71/6/179 73/6/180
f 95/11/182 96/10/183 97/10/184
f 71/6/184 97/10/184 96/10/183
f 73/6/183 71/6/184 96/10/183
f 98/11/185 75/6/163 91/10/166
f 75/6/163 98/11/185 73/6/180
f 73/6/180 98/11/185 96/10/180
f 91/10/170 75/6/169 98/11/186
f 73/6/183 98/11/186 75/6/170
f 96/10/183 98/11/186 73/6/183
f 94/10/173 97/10/179 99/11/187
f 97/10/179 94/10/174 66/6/174
f 97/10/179 66/6/174 71/6/179
f 99/11/188 97/10/184 94/10/178
f 66/6/177 94/10/177 97/10/184
f 71/6/184 66/6/178 97/10/184
f 90/10/164 92/10/171 100/11/189
f 92/10/171 90/10/164 69/6/164
f 92/10/171 69/6/164 65/6/171
f 100/11/190 92/10/175 90/10/168
f 69/6/168 90/10/168 92/10/175
f 65/6/175 69/6/168 92/10/175
f 102/11/140 61/6/141 101/10/141
f 61/6/141 102/11/140 59/6/142
f 59/6/142 102/11/191 103/10/142
f 101/10/143 61/6/143 102/11/144
f 59/6/145 102/11/144 61/6/143
f 103/10/145 102/11/192 59/6/145
f 103/10/142 60/6/136 59/6/142
f 60/6/136 103/10/142 104/11/146
f 60/6/134 104/11/146 105/10/136
f 59/6/145 60/6/148 103/10/145
f 104/11/149 103/10/145 60/6/148
f 105/10/148 104/11/149 60/6/148
f 62/6/155 107/11/160 106/10/157
f 107/11/160 62/6/157 53/6/151
f 107/11/193 53/6/151 108/10/151
f 106/10/162 107/11/161 62/6/162
f 53/6/153 62/6/162 107/11/161
f 108/10/153 53/6/153 107/11/194
f 110/10/133 105/10/134 109/11/135
f 105/10/136 110/10/133 54/6/133
f 105/10/136 54/6/133 60/6/136
f 109/11/137 105/10/138 110/10/139
f 54/6/139 110/10/139 105/10/138
f 60/6/138 54/6/139 105/10/138
f 101/10/141 106/10/155 111/11/156
f 106/10/157 101/10/141 61/6/141
f 106/10/157 61/6/141 62/6/157
f 111/11/158 106/10/159 101/10/143
f 61/6/143 101/10/143 106/10/159
f 62/6/159 61/6/143 106/10/159
f 53/6/151 112/11/195 108/10/151
f 112/11/152 53/6/151 54/6/133
f 112/11/152 54/6/133 110/10/133
f 108/10/153 112/11/196 53/6/153
f 54/6/139 53/6/153 112/11/154
f 110/10/139 54/6/139 112/11/197
f 3/1/1 2/1/1 1/1/1
f 2/1/1 3/1/1 4/1/1
f 4/1/1 3/1/1 5/1/1
f 4/1/1 5/1/1 6/1/1
f 6/1/1 5/1/1 7/1/1
f 6/1/1 7/1/1 8/1/1
f 9/2/2 1/1/3 2/1/4
f 1/1/5 9/2/2 10/2/6
f 11/2/7 1/1/8 10/2/9
f 1/1/8 11/2/10 3/1/11
f 12/2/12 2/1/4 4/1/13
f 2/1/4 12/2/12 9/2/14
f 13/2/15 4/1/16 6/1/17
f 4/1/16 13/2/18 12/2/19
f 7/1/20 14/2/21 8/1/22
f 14/2/21 7/1/20 15/2/23
f 11/2/24 5/1/25 3/1/11
f 5/1/26 11/2/27 16/2/28
f 8/1/29 13/2/30 6/1/17
f 13/2/31 8/1/29 14/2/32
f 7/1/20 16/2/33 15/2/34
f 16/2/28 7/1/20 5/1/35
f 14/2/36 18/3/37 17/3/38
f 18/3/39 14/2/36 15/2/40
f 16/2/41 18/3/39 15/2/42
f 18/3/39 16/2/43 19/3/44
f 21/3/45 9/2/46 20/3/47
f 9/2/46 21/3/45 10/2/48
f 22/3/49 12/2/50 13/2/51
f 12/2/50 22/3/52 23/3/53
f 21/3/54 11/2/55 10/2/48
f 11/2/55 21/3/45 24/3/56
f 13/2/57 17/3/58 22/3/49
f 17/3/38 13/2/57 14/2/36
f 20/3/47 12/2/50 23/3/59
f 12/2/60 20/3/47 9/2/61
f 24/3/56 16/2/43 11/2/62
f 16/2/43 24/3/63 19/3/64
f 27/4/65 26/4/65 25/4/65
f 26/4/65 27/4/65 28/4/65
f 26/4/65 28/4/65 29/4/65
f 29/4/65 28/4/65 30/4/65
f 29/4/65 30/4/65 31/4/65
f 31/4/65 30/4/65 32/4/65
f 35/5/1 34/5/1 33/5/1
f 34/5/1 35/5/1 36/5/1
f 34/5/1 36/5/1 37/5/1
f 37/5/1 36/5/1 38/5/1
f 37/5/1 38/5/1 39/5/1
f 39/5/1 38/5/1 40/5/1
f 27/4/66 33/5/67 34/5/66
f 33/5/67 27/4/66 25/4/68
f 29/4/69 38/5/70 36/5/69
f 38/5/71 29/4/69 31/4/72
f 40/5/73 31/4/71 32/4/74
f 31/4/71 40/5/73 38/5/71
f 28/4/75 34/5/76 37/5/75
f 34/5/76 28/4/75 27/4/77
f 26/4/78 36/5/69 35/5/78
f 36/5/69 26/4/78 29/4/79
f 30/4/80 37/5/75 39/5/80
f 37/5/75 30/4/80 28/4/81
f 26/4/82 33/5/68 25/4/67
f 33/5/67 26/4/78 35/5/82
f 40/5/73 30/4/80 39/5/80
f 30/4/83 40/5/84 32/4/73
f 43/6/85 42/7/86 41/7/85
f 42/7/86 43/6/85 44/6/86
f 47/6/87 46/7/88 45/7/87
f 46/7/88 47/6/87 48/6/88
f 50/6/89 45/7/90 49/7/89
f 45/7/90 50/6/89 47/6/90
f 48/6/91 41/7/85 46/7/88
f 41/7/85 48/6/91 43/6/85
f 52/7/92 44/6/93 51/6/92
f 44/6/93 52/7/92 42/7/93
f 52/7/94 50/6/89 49/7/89
f 50/6/89 52/7/92 51/6/94
f 41/7/1 45/7/1 46/7/1
f 45/7/1 41/7/1 42/7/1
f 45/7/1 42/7/1 49/7/1
f 49/7/1 42/7/1 52/7/1
f 55/6/95 54/8/96 53/8/97
f 54/8/96 55/6/95 56/6/98
f 59/8/99 58/6/100 57/6/101
f 58/6/100 59/8/99 60/8/102
f 63/6/103 62/8/104 61/8/105
f 62/8/106 63/6/103 64/6/107
f 64/6/108 53/8/97 62/8/106
f 53/8/97 64/6/108 55/6/109
f 64/6/110 56/6/111 55/6/112
f 56/6/111 64/6/113 58/6/114
f 58/6/115 64/6/110 63/6/116
f 58/6/114 63/6/116 57/6/117
f 59/8/118 63/6/119 61/8/105
f 63/6/120 59/8/99 57/6/121
f 54/8/1 62/8/1 53/8/1
f 62/8/1 54/8/1 60/8/1
f 62/8/1 60/8/1 61/8/1
f 61/8/1 60/8/1 59/8/1
f 56/6/122 60/8/102 54/8/96
f 60/8/123 56/6/122 58/6/124
f 67/6/125 66/9/126 65/9/125
f 66/9/126 67/6/125 68/6/126
f 70/6/127 65/9/125 69/9/127
f 65/9/125 70/6/128 67/6/125
f 68/6/126 71/9/129 66/9/126
f 71/9/129 68/6/126 72/6/129
f 72/6/129 73/9/130 71/9/129
f 73/9/130 72/6/131 74/6/130
f 71/9/1 65/9/1 66/9/1
f 65/9/1 71/9/1 69/9/1
f 69/9/1 71/9/1 73/9/1
f 69/9/1 73/9/1 75/9/1
f 76/6/132 69/9/127 75/9/132
f 69/9/127 76/6/132 70/6/127
f 73/9/130 76/6/132 75/9/132
f 76/6/132 73/9/130 74/6/130
f 79/10/133 78/10/134 77/11/135
f 78/10/136 79/10/133 41/6/133
f 78/10/136 41/6/133 42/6/136
f 77/11/137 78/10/138 79/10/139
f 41/6/139 79/10/139 78/10/138
f 42/6/138 41/6/139 78/10/138
f 81/11/140 49/6/141 80/10/141
f 49/6/141 81/11/140 52/6/142
f 52/6/142 81/11/140 82/10/142
f 80/10/143 49/6/143 81/11/144
f 52/6/145 81/11/144 49/6/143
f 82/10/145 81/11/144 52/6/145
f 82/10/142 42/6/136 52/6/142
f 42/6/136 82/10/142 83/11/146
f 42/6/134 83/11/147 78/10/136
f 52/6/145 42/6/148 82/10/145
f 83/11/149 82/10/145 42/6/148
f 78/10/138 83/11/150 42/6/148
f 46/6/151 85/11/152 84/10/151
f 85/11/152 46/6/151 41/6/133
f 85/11/152 41/6/133 79/10/133
f 84/10/153 85/11/154 46/6/153
f 41/6/139 46/6/153 85/11/154
f 79/10/139 41/6/139 85/11/154
f 80/10/141 87/10/155 86/11/156
f 87/10/157 80/10/141 49/6/141
f 87/10/157 49/6/141 45/6/157
f 86/11/158 87/10/159 80/10/143
f 49/6/143 80/10/143 87/10/159
f 45/6/159 49/6/143 87/10/159
f 45/6/155 88/11/160 87/10/157
f 88/11/160 45/6/157 46/6/151
f 88/11/160 46/6/151 84/10/151
f 87/10/159 88/11/161 45/6/162
f 46/6/153 45/6/159 88/11/161
f 84/10/153 46/6/153 88/11/161
f 91/10/163 90/10/164 89/11/165
f 90/10/164 91/10/166 75/6/166
f 90/10/164 75/6/166 69/6/164
f 89/11/167 90/10/168 91/10/169
f 75/6/170 91/10/170 90/10/168
f 69/6/168 75/6/169 90/10/168
f 65/6/171 93/11/172 92/10/171
f 93/11/172 65/6/171 66/6/173
f 93/11/172 66/6/173 94/10/174
f 92/10/175 93/11/176 65/6/175
f 66/6/177 65/6/175 93/11/176
f 94/10/177 66/6/178 93/11/176
f 97/10/179 96/10/180 95/11/181
f 96/10/180 97/10/179 71/6/179
f 96/10/180 71/6/179 73/6/180
f 95/11/182 96/10/183 97/10/184
f 71/6/184 97/10/184 96/10/183
f 73/6/183 71/6/184 96/10/183
f 98/11/185 75/6/163 91/10/166
f 75/6/163 98/11/185 73/6/180
f 73/6/180 98/11/185 96/10/180
f 91/10/170 75/6/169 98/11/186
f 73/6/183 98/11/186 75/6/170
f 96/10/183 98/11/186 73/6/183
f 94/10/173 97/10/179 99/11/187
f 97/10/179 94/10/174 66/6/174
f 97/10/179 66/6/174 71/6/179
f 99/11/188 97/10/184 94/10/178
f 66/6/177 94/10/177 97/10/184
f 71/6/184 66/6/178 97/10/184
f 90/10/164 92/10/171 100/11/189
f 92/10/171 90/10/164 69/6/164
f 92/10/171 69/6/164 65/6/171
f 100/11/190 92/10/175 90/10/168
f 69/6/168 90/10/168 92/10/175
f 65/6/175 69/6/168 92/10/175
f 102/11/140 61/6/141 101/10/141
f 61/6/141 102/11/140 59/6/142
f 59/6/142 102/11/191 103/10/142
f 101/10/143 61/6/143 102/11/144
f 59/6/145 102/11/144 61/6/143
f 103/10/145 102/11/192 59/6/145
f 103/10/142 60/6/136 59/6/142
f 60/6/136 103/10/142 104/11/146
f 60/6/134 104/11/146 105/10/136
f 59/6/145 60/6/148 103/10/145
f 104/11/149 103/10/145 60/6/148
f 105/10/148 104/11/149 60/6/148
f 62/6/155 107/11/160 106/10/157
f 107/11/160 62/6/157 53/6/151
f 107/11/193 53/6/151 108/10/151
f 106/10/162 107/11/161 62/6/162
f 53/6/153 62/6/162 107/11/161
f 108/10/153 53/6/153 107/11/194
f 110/10/133 105/10/134 109/11/135
f 105/10/136 110/10/133 54/6/133
f 105/10/136 54/6/133 60/6/136
f 109/11/137 105/10/138 110/10/139
f 54/6/139 110/10/139 105/10/138
f 60/6/138 54/6/139 105/10/138
f 101/10/141 106/10/155 111/11/156
f 106/10/157 101/10/141 61/6/141
f 106/10/157 61/6/141 62/6/157
f 111/11/158 106/10/159 101/10/143
f 61/6/143 101/10/143 106/10/159
f 62/6/159 61/6/143 106/10/159
f 53/6/151 112/11/195 108/10/151
f 112/11/152 53/6/151 54/6/133
f 112/11/152 54/6/133 110/10/133
f 108/10/153 112/11/196 53/6/153
f 54/6/139 53/6/153 112/11/154
f 110/10/139 54/6/139 112/11/197
