# Blender 4.1.1
# www.blender.org
mtllib tree.005.mtl
o tree.005
v -23.152491 -0.382804 2.160054
v -23.152491 -0.382804 1.913875
v -23.275581 -0.382804 2.283144
v -23.275581 -0.382804 1.790785
v -23.521759 -0.382804 2.283144
v -23.521759 -0.382804 1.790785
v -23.644850 -0.382804 2.160054
v -23.644850 -0.382804 1.913875
v -23.275581 0.062918 1.975420
v -23.275581 0.062918 2.098509
v -23.337126 0.062918 2.160054
v -23.337126 0.062918 1.913875
v -23.460215 0.062918 1.913875
v -23.521759 0.062918 1.975420
v -23.521759 0.062918 2.098509
v -23.460215 0.062918 2.160054
v -23.552532 0.731552 1.960033
v -23.552532 0.731552 2.113895
v -23.475601 0.731552 2.190826
v -23.244808 0.731552 1.960033
v -23.244808 0.731552 2.113895
v -23.475601 0.731552 1.883102
v -23.321739 0.731552 1.883102
v -23.321739 0.731552 2.190826
v -23.195215 0.222058 1.976798
v -23.232178 0.222058 2.066035
v -23.232178 0.222058 1.887561
v -23.321415 0.222058 1.850598
v -23.321415 0.222058 2.102998
v -23.410652 0.222058 1.887561
v -23.410652 0.222058 2.066035
v -23.447617 0.222058 1.976798
v -23.123734 0.060318 1.976798
v -23.181633 0.060318 1.837016
v -23.181633 0.060318 2.116580
v -23.321415 0.060318 2.174480
v -23.321415 0.060318 1.779116
v -23.461197 0.060318 2.116580
v -23.461197 0.060318 1.837016
v -23.519098 0.060318 1.976798
v -23.104069 0.731552 2.567901
v -23.717142 0.731552 2.567901
v -23.229748 1.468507 2.350219
v -23.591463 1.468507 2.350219
v -23.104069 0.731552 1.506028
v -22.797533 0.731552 2.036964
v -23.229748 1.468507 1.723710
v -23.048889 1.468507 2.036964
v -23.717142 0.731552 1.506028
v -23.591463 1.468507 1.723710
v -23.772320 1.468507 2.036964
v -24.023678 0.731552 2.036964
v -23.057106 2.260255 2.036964
v -23.233856 2.260255 2.343103
v -23.329355 3.090716 2.036964
v -23.369980 3.090716 2.107329
v -23.491856 3.090716 2.036964
v -23.451231 3.090716 2.107329
v -23.764103 2.260255 2.036964
v -23.587355 2.260255 2.343103
v -23.587355 2.260255 1.730825
v -23.233856 2.260255 1.730825
v -23.451231 3.090716 1.966599
v -23.369980 3.090716 1.966599
v -22.978949 1.468507 1.787748
v -22.978949 1.468507 2.286181
v -23.212816 2.260255 1.922770
v -23.212816 2.260255 2.151158
v -23.410604 1.468507 1.538531
v -23.410604 2.260255 1.808577
v -23.410604 1.468507 2.535398
v -23.410604 2.260255 2.265352
v -23.842260 1.468507 2.286181
v -23.608395 2.260255 2.151158
v -23.842260 1.468507 1.787748
v -23.608395 2.260255 1.922770
v -23.410604 0.501649 2.684707
v -23.750860 0.616601 2.626304
v -23.070349 0.616601 2.626304
v -23.750860 0.616601 1.447625
v -23.971567 0.501649 1.713093
v -24.091116 0.616601 2.036964
v -23.971567 0.501649 2.360836
v -22.730095 0.616601 2.036964
v -22.849644 0.501649 2.360836
v -23.410604 0.501649 1.389222
v -23.070349 0.616601 1.447625
v -22.849644 0.501649 1.713093
v -23.673916 1.281595 1.580898
v -23.410604 1.375051 1.483703
v -23.889744 1.375051 1.760334
v -22.931467 1.375051 1.760334
v -22.883986 1.281595 2.036964
v -22.931467 1.375051 2.313595
v -23.673916 1.281595 2.493031
v -23.889744 1.375051 2.313595
v -23.410604 1.375051 2.590225
v -23.937225 1.281595 2.036964
v -23.147295 1.281595 2.493031
v -23.147295 1.281595 1.580898
v -23.606796 2.193974 1.697150
v -23.734056 2.127692 1.850219
v -23.802988 2.193974 2.036964
v -23.734056 2.127692 2.223709
v -23.606796 2.193974 2.376778
v -23.214413 2.193974 1.697150
v -23.087154 2.127692 1.850219
v -23.018221 2.193974 2.036964
v -23.410604 2.127692 2.410454
v -23.214413 2.193974 2.376778
v -23.410604 2.127692 1.663475
v -23.087154 2.127692 2.223709
vn -0.0000 -1.0000 -0.0000
vn 0.8851 0.2942 -0.3607
vn 0.8813 0.2944 0.3698
vn 0.8812 0.2944 -0.3698
vn 0.8812 0.2944 0.3698
vn 0.8851 0.2942 0.3607
vn 0.3607 0.2942 0.8850
vn 0.8850 0.2942 0.3608
vn 0.3698 0.2944 0.8812
vn 0.3607 0.2942 -0.8850
vn 0.3698 0.2944 -0.8812
vn 0.8850 0.2942 -0.3608
vn -0.3607 0.2942 -0.8851
vn 0.3698 0.2944 -0.8813
vn -0.3698 0.2944 -0.8812
vn 0.3607 0.2942 -0.8851
vn -0.8813 0.2944 0.3698
vn -0.8851 0.2942 -0.3607
vn -0.8812 0.2944 -0.3698
vn -0.8851 0.2942 0.3607
vn 0.3607 0.2942 0.8851
vn -0.3698 0.2944 0.8813
vn -0.3698 0.2944 0.8812
vn -0.3607 0.2942 0.8851
vn -0.3607 0.2942 -0.8850
vn -0.3608 0.2942 -0.8850
vn -0.8850 0.2942 -0.3607
vn -0.8812 0.2944 0.3698
vn -0.3608 0.2942 0.8850
vn -0.8850 0.2942 0.3607
vn -0.3607 0.2942 0.8850
vn -0.9230 -0.0513 -0.3813
vn -0.9223 -0.0512 0.3829
vn -0.9223 -0.0513 -0.3829
vn -0.9223 -0.0513 0.3829
vn -0.9230 -0.0513 0.3813
vn -0.3814 -0.0512 0.9230
vn -0.9223 -0.0513 0.3830
vn -0.9230 -0.0512 0.3813
vn -0.3813 -0.0513 0.9230
vn -0.3830 -0.0512 0.9223
vn 0.9223 -0.0512 0.3829
vn 0.9230 -0.0513 -0.3813
vn 0.9223 -0.0513 -0.3829
vn 0.9230 -0.0513 0.3813
vn -0.3829 -0.0513 -0.9223
vn 0.3813 -0.0513 -0.9230
vn -0.3813 -0.0513 -0.9230
vn -0.3829 -0.0512 -0.9223
vn 0.3829 -0.0513 -0.9223
vn 0.9223 -0.0513 0.3830
vn 0.3814 -0.0513 0.9230
vn 0.3813 -0.0513 0.9230
vn 0.9223 -0.0512 0.3830
vn 0.3830 -0.0513 0.9223
vn -0.9223 -0.0512 -0.3830
vn -0.3830 -0.0513 -0.9223
vn -0.9223 -0.0513 -0.3830
vn -0.3814 -0.0513 -0.9230
vn 0.9223 -0.0513 -0.3830
vn 0.3830 -0.0512 -0.9223
vn 0.3814 -0.0512 -0.9230
vn 0.9230 -0.0512 -0.3813
vn 0.3829 -0.0513 0.9223
vn 0.3829 -0.0512 0.9223
vn -0.3829 -0.0513 0.9223
vn -0.0000 1.0000 -0.0000
vn 0.6468 0.4042 -0.6468
vn 0.9147 0.4042 -0.0000
vn 0.6468 0.4042 -0.6467
vn 0.9146 0.4043 -0.0000
vn -0.0000 0.4042 0.9147
vn -0.6467 0.4042 0.6468
vn -0.6468 0.4042 0.6468
vn -0.6467 0.4043 0.6468
vn -0.9147 0.4042 -0.0000
vn -0.9146 0.4043 -0.0000
vn -0.6468 0.4042 0.6467
vn -0.0000 0.4042 -0.9147
vn 0.6467 0.4042 -0.6468
vn 0.6467 0.4043 -0.6468
vn 0.6468 0.4042 0.6468
vn 0.6467 0.4042 0.6468
vn -0.0000 0.4043 0.9146
vn -0.6468 0.4042 -0.6468
vn -0.6467 0.4042 -0.6468
vn -0.0000 0.4043 -0.9146
vn 0.6468 0.4042 0.6467
vn -0.6468 0.4042 -0.6467
vn 0.4732 0.3228 0.8197
vn -0.4732 0.3228 0.8197
vn 0.4732 0.3228 -0.8196
vn 0.9465 0.3228 -0.0000
vn 0.4732 0.3228 -0.8197
vn -0.4732 0.3228 -0.8197
vn 0.4733 0.3228 0.8197
vn -0.9465 0.3228 -0.0000
vn -0.4733 0.3228 0.8197
vn -0.4733 0.3228 -0.8197
vn 0.6877 0.7260 -0.0000
vn 0.4751 0.3115 0.8229
vn 0.9503 0.3115 -0.0000
vn 0.3438 0.7260 0.5956
vn -0.9502 0.3115 0.0001
vn -0.3438 0.7260 0.5956
vn -0.6877 0.7260 -0.0000
vn -0.9503 0.3115 -0.0000
vn -0.4752 0.3115 0.8229
vn -0.3439 0.7260 -0.5956
vn 0.4751 0.3115 -0.8229
vn -0.4751 0.3115 -0.8229
vn 0.3439 0.7260 -0.5956
vn 0.3438 0.7260 -0.5956
vn 0.9502 0.3115 -0.0000
vn 0.6877 0.7260 0.0001
vn 0.3439 0.7259 -0.5956
vn 0.3439 0.7259 0.5956
vn 0.6877 0.7259 -0.0000
vn -0.3439 0.7259 0.5956
vn -0.3439 0.7259 -0.5956
vn -0.6877 0.7259 -0.0000
vn -0.9502 0.3115 -0.0000
vn -0.3438 0.7260 -0.5956
vn -0.4752 0.3115 -0.8229
vn -0.9502 0.3115 -0.0001
vn 0.3439 0.7260 0.5956
vn -0.4751 0.3115 0.8229
vn -0.3439 0.7260 0.5956
vn 0.8197 0.3228 -0.4732
vn 0.8197 0.3228 0.4732
vn -0.0000 0.3228 -0.9465
vn 0.8196 0.3228 -0.4732
vn 0.8197 0.3228 -0.4733
vn 0.8196 0.3228 0.4732
vn -0.0000 0.3228 0.9465
vn 0.8197 0.3228 0.4733
vn -0.8196 0.3228 0.4732
vn -0.8197 0.3228 0.4732
vn -0.8196 0.3228 -0.4732
vn -0.8197 0.3228 -0.4732
vn 0.4313 0.5060 0.7470
vn -0.4313 0.5060 0.7470
vn -0.0000 0.4530 0.8915
vn -0.0000 -0.4530 -0.8915
vn 0.4313 -0.5060 -0.7470
vn -0.4313 -0.5060 -0.7470
vn -0.7721 0.4530 -0.4458
vn -0.4313 0.5060 -0.7470
vn -0.8625 0.5060 -0.0000
vn 0.4313 -0.5060 0.7470
vn 0.7721 -0.4530 0.4458
vn 0.8625 -0.5060 -0.0000
vn -0.7721 0.4530 0.4458
vn 0.7721 -0.4530 -0.4458
vn 0.8625 0.5060 -0.0000
vn 0.7721 0.4530 0.4458
vn 0.4313 0.5060 0.7469
vn -0.8625 -0.5060 -0.0000
vn -0.7721 -0.4530 -0.4458
vn 0.4313 0.5060 -0.7470
vn -0.0000 0.4530 -0.8915
vn -0.0000 -0.4530 0.8915
vn -0.4313 -0.5060 0.7470
vn 0.7721 0.4530 -0.4458
vn -0.7721 -0.4530 0.4458
vn -0.7470 0.5060 -0.4313
vn -0.0000 0.5060 -0.8625
vn -0.4458 0.4530 -0.7721
vn 0.4458 -0.4530 0.7721
vn -0.0000 -0.5060 0.8625
vn 0.7470 -0.5060 0.4313
vn 0.7470 0.5060 -0.4313
vn 0.8915 0.4530 -0.0000
vn 0.7470 0.5060 0.4313
vn -0.7470 -0.5060 0.4313
vn -0.8915 -0.4530 -0.0000
vn -0.7470 -0.5060 -0.4313
vn -0.0000 0.5060 0.8625
vn -0.7470 0.5060 0.4313
vn -0.4458 0.4530 0.7721
vn 0.4458 -0.4530 -0.7721
vn 0.7470 -0.5060 -0.4313
vn -0.0000 -0.5060 -0.8625
vn -0.8915 0.4530 -0.0000
vn -0.7469 0.5060 -0.4313
vn 0.8915 -0.4530 -0.0000
vn 0.4458 0.4530 0.7721
vn -0.4458 -0.4530 -0.7721
vn 0.4458 0.4530 -0.7721
vn -0.4458 -0.4530 0.7721
vn -0.7721 0.4529 -0.4458
vn -0.4312 0.5060 -0.7470
vn 0.4312 -0.5060 0.7470
vn 0.7721 -0.4529 0.4458
vn -0.7721 0.4529 0.4458
vn 0.4312 -0.5060 -0.7470
vn 0.7721 -0.4529 -0.4458
vn -0.4312 -0.5060 0.7470
vn 0.4312 0.5060 0.7470
vt 0.593750 0.025000
vt 0.593750 0.104996
vt 0.593750 0.225000
vt 0.093750 0.475000
vt 0.093750 0.275000
vt 0.093750 0.425000
vt 0.093750 0.348778
vt 0.093750 0.338765
vt 0.093750 0.344099
vt 0.093750 0.375000
vt 0.093750 0.325000
s 0
usemtl colormap.008
f 3/1/1 2/1/1 1/1/1
f 2/1/1 3/1/1 4/1/1
f 4/1/1 3/1/1 5/1/1
f 4/1/1 5/1/1 6/1/1
f 6/1/1 5/1/1 7/1/1
f 6/1/1 7/1/1 8/1/1
f 9/2/2 1/1/3 2/1/4
f 1/1/5 9/2/2 10/2/6
f 11/2/7 1/1/5 10/2/8
f 1/1/5 11/2/7 3/1/9
f 12/2/10 2/1/4 4/1/11
f 2/1/4 12/2/10 9/2/12
f 13/2/13 4/1/14 6/1/15
f 4/1/11 13/2/13 12/2/16
f 7/1/17 14/2/18 8/1/19
f 14/2/18 7/1/17 15/2/20
f 11/2/21 5/1/22 3/1/9
f 5/1/23 11/2/21 16/2/24
f 8/1/19 13/2/25 6/1/15
f 13/2/26 8/1/19 14/2/27
f 7/1/28 16/2/29 15/2/30
f 16/2/31 7/1/28 5/1/23
f 14/2/32 18/3/33 17/3/34
f 18/3/35 14/2/32 15/2/36
f 16/2/37 18/3/38 15/2/39
f 18/3/38 16/2/40 19/3/41
f 21/3/42 9/2/43 20/3/44
f 9/2/43 21/3/42 10/2/45
f 22/3/46 12/2/47 13/2/48
f 12/2/47 22/3/49 23/3/50
f 21/3/51 11/2/52 10/2/45
f 11/2/53 21/3/54 24/3/55
f 13/2/48 17/3/56 22/3/57
f 17/3/58 13/2/59 14/2/32
f 20/3/60 12/2/47 23/3/61
f 12/2/62 20/3/60 9/2/63
f 24/3/64 16/2/40 11/2/53
f 16/2/40 24/3/65 19/3/66
f 27/4/67 26/4/67 25/4/67
f 26/4/67 27/4/67 28/4/67
f 26/4/67 28/4/67 29/4/67
f 29/4/67 28/4/67 30/4/67
f 29/4/67 30/4/67 31/4/67
f 31/4/67 30/4/67 32/4/67
f 35/5/1 34/5/1 33/5/1
f 34/5/1 35/5/1 36/5/1
f 34/5/1 36/5/1 37/5/1
f 37/5/1 36/5/1 38/5/1
f 37/5/1 38/5/1 39/5/1
f 39/5/1 38/5/1 40/5/1
f 27/4/68 33/5/69 34/5/70
f 33/5/69 27/4/68 25/4/71
f 29/4/72 38/5/73 36/5/72
f 38/5/74 29/4/72 31/4/75
f 40/5/76 31/4/74 32/4/77
f 31/4/78 40/5/76 38/5/78
f 28/4/79 34/5/80 37/5/79
f 34/5/80 28/4/79 27/4/81
f 26/4/82 36/5/72 35/5/83
f 36/5/72 26/4/83 29/4/84
f 30/4/85 37/5/79 39/5/86
f 37/5/79 30/4/85 28/4/87
f 26/4/82 33/5/71 25/4/69
f 33/5/69 26/4/88 35/5/88
f 40/5/76 30/4/89 39/5/89
f 30/4/85 40/5/77 32/4/76
f 43/6/90 42/7/91 41/7/90
f 42/7/91 43/6/90 44/6/91
f 47/6/92 46/7/93 45/7/92
f 46/7/93 47/6/94 48/6/93
f 50/6/95 45/7/94 49/7/95
f 45/7/94 50/6/95 47/6/94
f 48/6/93 41/7/90 46/7/93
f 41/7/96 48/6/93 43/6/96
f 52/7/97 44/6/98 51/6/97
f 44/6/91 52/7/97 42/7/91
f 52/7/97 50/6/95 49/7/95
f 50/6/99 52/7/97 51/6/97
f 41/7/1 45/7/1 46/7/1
f 45/7/1 41/7/1 42/7/1
f 45/7/1 42/7/1 49/7/1
f 49/7/1 42/7/1 52/7/1
f 55/6/100 54/8/101 53/8/102
f 54/8/101 55/6/100 56/6/103
f 59/8/104 58/6/105 57/6/106
f 58/6/105 59/8/107 60/8/108
f 63/6/109 62/8/110 61/8/111
f 62/8/110 63/6/109 64/6/112
f 64/6/113 53/8/114 62/8/110
f 53/8/114 64/6/113 55/6/115
f 64/6/116 56/6/117 55/6/118
f 56/6/117 64/6/116 58/6/119
f 58/6/119 64/6/116 63/6/120
f 58/6/119 63/6/120 57/6/121
f 59/8/122 63/6/123 61/8/124
f 63/6/123 59/8/125 57/6/106
f 54/8/1 62/8/1 53/8/1
f 62/8/1 54/8/1 60/8/1
f 62/8/1 60/8/1 61/8/1
f 61/8/1 60/8/1 59/8/1
f 56/6/126 60/8/127 54/8/101
f 60/8/127 56/6/126 58/6/128
f 67/6/129 66/9/130 65/9/129
f 66/9/130 67/6/129 68/6/130
f 70/6/131 65/9/132 69/9/131
f 65/9/129 70/6/131 67/6/133
f 68/6/134 71/9/135 66/9/130
f 71/9/135 68/6/136 72/6/135
f 72/6/135 73/9/137 71/9/135
f 73/9/138 72/6/135 74/6/138
f 71/9/1 65/9/1 66/9/1
f 65/9/1 71/9/1 69/9/1
f 69/9/1 71/9/1 73/9/1
f 69/9/1 73/9/1 75/9/1
f 76/6/139 69/9/131 75/9/140
f 69/9/131 76/6/140 70/6/131
f 73/9/138 76/6/140 75/9/140
f 76/6/140 73/9/138 74/6/138
f 79/10/141 78/10/142 77/11/143
f 78/10/142 79/10/141 41/6/141
f 78/10/142 41/6/141 42/6/142
f 77/11/144 78/10/145 79/10/146
f 41/6/146 79/10/146 78/10/145
f 42/6/145 41/6/146 78/10/145
f 81/11/147 49/6/148 80/10/148
f 49/6/148 81/11/147 52/6/149
f 52/6/149 81/11/147 82/10/149
f 80/10/150 49/6/150 81/11/151
f 52/6/152 81/11/151 49/6/150
f 82/10/152 81/11/151 52/6/152
f 82/10/149 42/6/142 52/6/149
f 42/6/142 82/10/149 83/11/153
f 42/6/142 83/11/153 78/10/142
f 52/6/152 42/6/145 82/10/152
f 83/11/154 82/10/152 42/6/145
f 78/10/145 83/11/154 42/6/145
f 46/6/155 85/11/156 84/10/155
f 85/11/156 46/6/155 41/6/141
f 85/11/156 41/6/157 79/10/141
f 84/10/158 85/11/159 46/6/158
f 41/6/146 46/6/158 85/11/159
f 79/10/146 41/6/146 85/11/159
f 80/10/148 87/10/160 86/11/161
f 87/10/160 80/10/148 49/6/148
f 87/10/160 49/6/148 45/6/160
f 86/11/162 87/10/163 80/10/150
f 49/6/150 80/10/150 87/10/163
f 45/6/163 49/6/150 87/10/163
f 45/6/160 88/11/164 87/10/160
f 88/11/164 45/6/160 46/6/155
f 88/11/164 46/6/155 84/10/155
f 87/10/163 88/11/165 45/6/163
f 46/6/158 45/6/163 88/11/165
f 84/10/158 46/6/158 88/11/165
f 91/10/166 90/10/167 89/11/168
f 90/10/167 91/10/166 75/6/166
f 90/10/167 75/6/166 69/6/167
f 89/11/169 90/10/170 91/10/171
f 75/6/171 91/10/171 90/10/170
f 69/6/170 75/6/171 90/10/170
f 65/6/172 93/11/173 92/10/172
f 93/11/173 65/6/172 66/6/174
f 93/11/173 66/6/174 94/10/174
f 92/10/175 93/11/176 65/6/175
f 66/6/177 65/6/175 93/11/176
f 94/10/177 66/6/177 93/11/176
f 97/10/178 96/10/179 95/11/180
f 96/10/179 97/10/178 71/6/178
f 96/10/179 71/6/178 73/6/179
f 95/11/181 96/10/182 97/10/183
f 71/6/183 97/10/183 96/10/182
f 73/6/182 71/6/183 96/10/182
f 98/11/184 75/6/185 91/10/166
f 75/6/166 98/11/184 73/6/179
f 73/6/179 98/11/184 96/10/179
f 91/10/171 75/6/171 98/11/186
f 73/6/182 98/11/186 75/6/171
f 96/10/182 98/11/186 73/6/182
f 94/10/174 97/10/178 99/11/187
f 97/10/178 94/10/174 66/6/174
f 97/10/178 66/6/174 71/6/178
f 99/11/188 97/10/183 94/10/177
f 66/6/177 94/10/177 97/10/183
f 71/6/183 66/6/177 97/10/183
f 90/10/167 92/10/172 100/11/189
f 92/10/172 90/10/167 69/6/167
f 92/10/172 69/6/167 65/6/172
f 100/11/190 92/10/175 90/10/170
f 69/6/170 90/10/170 92/10/175
f 65/6/175 69/6/170 92/10/175
f 102/11/191 61/6/192 101/10/148
f 61/6/148 102/11/147 59/6/149
f 59/6/149 102/11/147 103/10/149
f 101/10/150 61/6/193 102/11/194
f 59/6/152 102/11/151 61/6/150
f 103/10/152 102/11/151 59/6/152
f 103/10/149 60/6/142 59/6/149
f 60/6/142 103/10/149 104/11/153
f 60/6/142 104/11/195 105/10/142
f 59/6/152 60/6/145 103/10/152
f 104/11/154 103/10/152 60/6/145
f 105/10/196 104/11/197 60/6/196
f 62/6/160 107/11/164 106/10/160
f 107/11/164 62/6/160 53/6/155
f 107/11/164 53/6/155 108/10/155
f 106/10/163 107/11/165 62/6/198
f 53/6/158 62/6/163 107/11/165
f 108/10/158 53/6/158 107/11/165
f 110/10/141 105/10/142 109/11/143
f 105/10/142 110/10/141 54/6/141
f 105/10/142 54/6/141 60/6/142
f 109/11/144 105/10/145 110/10/146
f 54/6/146 110/10/146 105/10/145
f 60/6/145 54/6/146 105/10/145
f 101/10/148 106/10/160 111/11/161
f 106/10/160 101/10/148 61/6/148
f 106/10/160 61/6/148 62/6/160
f 111/11/162 106/10/163 101/10/150
f 61/6/150 101/10/150 106/10/163
f 62/6/163 61/6/150 106/10/163
f 53/6/155 112/11/156 108/10/155
f 112/11/156 53/6/155 54/6/141
f 112/11/156 54/6/199 110/10/141
f 108/10/158 112/11/159 53/6/158
f 54/6/146 53/6/158 112/11/159
f 110/10/146 54/6/146 112/11/159
f 3/1/1 2/1/1 1/1/1
f 2/1/1 3/1/1 4/1/1
f 4/1/1 3/1/1 5/1/1
f 4/1/1 5/1/1 6/1/1
f 6/1/1 5/1/1 7/1/1
f 6/1/1 7/1/1 8/1/1
f 9/2/2 1/1/3 2/1/4
f 1/1/5 9/2/2 10/2/6
f 11/2/7 1/1/5 10/2/8
f 1/1/5 11/2/7 3/1/9
f 12/2/10 2/1/4 4/1/11
f 2/1/4 12/2/10 9/2/12
f 13/2/13 4/1/14 6/1/15
f 4/1/11 13/2/13 12/2/16
f 7/1/17 14/2/18 8/1/19
f 14/2/18 7/1/17 15/2/20
f 11/2/21 5/1/22 3/1/9
f 5/1/23 11/2/21 16/2/24
f 8/1/19 13/2/25 6/1/15
f 13/2/26 8/1/19 14/2/27
f 7/1/28 16/2/29 15/2/30
f 16/2/31 7/1/28 5/1/23
f 14/2/32 18/3/33 17/3/34
f 18/3/35 14/2/32 15/2/36
f 16/2/37 18/3/38 15/2/39
f 18/3/38 16/2/40 19/3/41
f 21/3/42 9/2/43 20/3/44
f 9/2/43 21/3/42 10/2/45
f 22/3/46 12/2/47 13/2/48
f 12/2/47 22/3/49 23/3/50
f 21/3/51 11/2/52 10/2/45
f 11/2/53 21/3/54 24/3/55
f 13/2/48 17/3/56 22/3/57
f 17/3/58 13/2/59 14/2/32
f 20/3/60 12/2/47 23/3/61
f 12/2/62 20/3/60 9/2/63
f 24/3/64 16/2/40 11/2/53
f 16/2/40 24/3/65 19/3/66
f 27/4/67 26/4/67 25/4/67
f 26/4/67 27/4/67 28/4/67
f 26/4/67 28/4/67 29/4/67
f 29/4/67 28/4/67 30/4/67
f 29/4/67 30/4/67 31/4/67
f 31/4/67 30/4/67 32/4/67
f 35/5/1 34/5/1 33/5/1
f 34/5/1 35/5/1 36/5/1
f 34/5/1 36/5/1 37/5/1
f 37/5/1 36/5/1 38/5/1
f 37/5/1 38/5/1 39/5/1
f 39/5/1 38/5/1 40/5/1
f 27/4/68 33/5/69 34/5/70
f 33/5/69 27/4/68 25/4/71
f 29/4/72 38/5/73 36/5/72
f 38/5/74 29/4/72 31/4/75
f 40/5/76 31/4/74 32/4/77
f 31/4/78 40/5/76 38/5/78
f 28/4/79 34/5/80 37/5/79
f 34/5/80 28/4/79 27/4/81
f 26/4/82 36/5/72 35/5/83
f 36/5/72 26/4/83 29/4/84
f 30/4/85 37/5/79 39/5/86
f 37/5/79 30/4/85 28/4/87
f 26/4/82 33/5/71 25/4/69
f 33/5/69 26/4/88 35/5/88
f 40/5/76 30/4/89 39/5/89
f 30/4/85 40/5/77 32/4/76
f 43/6/90 42/7/91 41/7/90
f 42/7/91 43/6/90 44/6/91
f 47/6/92 46/7/93 45/7/92
f 46/7/93 47/6/94 48/6/93
f 50/6/95 45/7/94 49/7/95
f 45/7/94 50/6/95 47/6/94
f 48/6/93 41/7/90 46/7/93
f 41/7/96 48/6/93 43/6/96
f 52/7/97 44/6/98 51/6/97
f 44/6/91 52/7/97 42/7/91
f 52/7/97 50/6/95 49/7/95
f 50/6/99 52/7/97 51/6/97
f 41/7/1 45/7/1 46/7/1
f 45/7/1 41/7/1 42/7/1
f 45/7/1 42/7/1 49/7/1
f 49/7/1 42/7/1 52/7/1
f 55/6/100 54/8/101 53/8/102
f 54/8/101 55/6/100 56/6/103
f 59/8/104 58/6/105 57/6/106
f 58/6/105 59/8/107 60/8/108
f 63/6/109 62/8/110 61/8/111
f 62/8/110 63/6/109 64/6/112
f 64/6/113 53/8/114 62/8/110
f 53/8/114 64/6/113 55/6/115
f 64/6/116 56/6/117 55/6/118
f 56/6/117 64/6/116 58/6/119
f 58/6/119 64/6/116 63/6/120
f 58/6/119 63/6/120 57/6/121
f 59/8/122 63/6/123 61/8/124
f 63/6/123 59/8/125 57/6/106
f 54/8/1 62/8/1 53/8/1
f 62/8/1 54/8/1 60/8/1
f 62/8/1 60/8/1 61/8/1
f 61/8/1 60/8/1 59/8/1
f 56/6/126 60/8/127 54/8/101
f 60/8/127 56/6/126 58/6/128
f 67/6/129 66/9/130 65/9/129
f 66/9/130 67/6/129 68/6/130
f 70/6/131 65/9/132 69/9/131
f 65/9/129 70/6/131 67/6/133
f 68/6/134 71/9/135 66/9/130
f 71/9/135 68/6/136 72/6/135
f 72/6/135 73/9/137 71/9/135
f 73/9/138 72/6/135 74/6/138
f 71/9/1 65/9/1 66/9/1
f 65/9/1 71/9/1 69/9/1
f 69/9/1 71/9/1 73/9/1
f 69/9/1 73/9/1 75/9/1
f 76/6/139 69/9/131 75/9/140
f 69/9/131 76/6/140 70/6/131
f 73/9/138 76/6/140 75/9/140
f 76/6/140 73/9/138 74/6/138
f 79/10/141 78/10/142 77/11/143
f 78/10/142 79/10/141 41/6/141
f 78/10/142 41/6/141 42/6/142
f 77/11/144 78/10/145 79/10/146
f 41/6/146 79/10/146 78/10/145
f 42/6/145 41/6/146 78/10/145
f 81/11/147 49/6/148 80/10/148
f 49/6/148 81/11/147 52/6/149
f 52/6/149 81/11/147 82/10/149
f 80/10/150 49/6/150 81/11/151
f 52/6/152 81/11/151 49/6/150
f 82/10/152 81/11/151 52/6/152
f 82/10/149 42/6/142 52/6/149
f 42/6/142 82/10/149 83/11/153
f 42/6/142 83/11/153 78/10/142
f 52/6/152 42/6/145 82/10/152
f 83/11/154 82/10/152 42/6/145
f 78/10/145 83/11/154 42/6/145
f 46/6/155 85/11/156 84/10/155
f 85/11/156 46/6/155 41/6/141
f 85/11/156 41/6/157 79/10/141
f 84/10/158 85/11/159 46/6/158
f 41/6/146 46/6/158 85/11/159
f 79/10/146 41/6/146 85/11/159
f 80/10/148 87/10/160 86/11/161
f 87/10/160 80/10/148 49/6/148
f 87/10/160 49/6/148 45/6/160
f 86/11/162 87/10/163 80/10/150
f 49/6/150 80/10/150 87/10/163
f 45/6/163 49/6/150 87/10/163
f 45/6/160 88/11/164 87/10/160
f 88/11/164 45/6/160 46/6/155
f 88/11/164 46/6/155 84/10/155
f 87/10/163 88/11/165 45/6/163
f 46/6/158 45/6/163 88/11/165
f 84/10/158 46/6/158 88/11/165
f 91/10/166 90/10/167 89/11/168
f 90/10/167 91/10/166 75/6/166
f 90/10/167 75/6/166 69/6/167
f 89/11/169 90/10/170 91/10/171
f 75/6/171 91/10/171 90/10/170
f 69/6/170 75/6/171 90/10/170
f 65/6/172 93/11/173 92/10/172
f 93/11/173 65/6/172 66/6/174
f 93/11/173 66/6/174 94/10/174
f 92/10/175 93/11/176 65/6/175
f 66/6/177 65/6/175 93/11/176
f 94/10/177 66/6/177 93/11/176
f 97/10/178 96/10/179 95/11/180
f 96/10/179 97/10/178 71/6/178
f 96/10/179 71/6/178 73/6/179
f 95/11/181 96/10/182 97/10/183
f 71/6/183 97/10/183 96/10/182
f 73/6/182 71/6/183 96/10/182
f 98/11/184 75/6/185 91/10/166
f 75/6/166 98/11/184 73/6/179
f 73/6/179 98/11/184 96/10/179
f 91/10/171 75/6/171 98/11/186
f 73/6/182 98/11/186 75/6/171
f 96/10/182 98/11/186 73/6/182
f 94/10/174 97/10/178 99/11/187
f 97/10/178 94/10/174 66/6/174
f 97/10/178 66/6/174 71/6/178
f 99/11/188 97/10/183 94/10/177
f 66/6/177 94/10/177 97/10/183
f 71/6/183 66/6/177 97/10/183
f 90/10/167 92/10/172 100/11/189
f 92/10/172 90/10/167 69/6/167
f 92/10/172 69/6/167 65/6/172
f 100/11/190 92/10/175 90/10/170
f 69/6/170 90/10/170 92/10/175
f 65/6/175 69/6/170 92/10/175
f 102/11/191 61/6/192 101/10/148
f 61/6/148 102/11/147 59/6/149
f 59/6/149 102/11/147 103/10/149
f 101/10/150 61/6/193 102/11/194
f 59/6/152 102/11/151 61/6/150
f 103/10/152 102/11/151 59/6/152
f 103/10/149 60/6/142 59/6/149
f 60/6/142 103/10/149 104/11/153
f 60/6/142 104/11/195 105/10/142
f 59/6/152 60/6/145 103/10/152
f 104/11/154 103/10/152 60/6/145
f 105/10/196 104/11/197 60/6/196
f 62/6/160 107/11/164 106/10/160
f 107/11/164 62/6/160 53/6/155
f 107/11/164 53/6/155 108/10/155
f 106/10/163 107/11/165 62/6/198
f 53/6/158 62/6/163 107/11/165
f 108/10/158 53/6/158 107/11/165
f 110/10/141 105/10/142 109/11/143
f 105/10/142 110/10/141 54/6/141
f 105/10/142 54/6/141 60/6/142
f 109/11/144 105/10/145 110/10/146
f 54/6/146 110/10/146 105/10/145
f 60/6/145 54/6/146 105/10/145
f 101/10/148 106/10/160 111/11/161
f 106/10/160 101/10/148 61/6/148
f 106/10/160 61/6/148 62/6/160
f 111/11/162 106/10/163 101/10/150
f 61/6/150 101/10/150 106/10/163
f 62/6/163 61/6/150 106/10/163
f 53/6/155 112/11/156 108/10/155
f 112/11/156 53/6/155 54/6/141
f 112/11/156 54/6/199 110/10/141
f 108/10/158 112/11/159 53/6/158
f 54/6/146 53/6/158 112/11/159
f 110/10/146 54/6/146 112/11/159
