# Blender 4.1.1
# www.blender.org
mtllib brick-wall.011.mtl
o brick-wall.011
v 15.179760 -4.234052 -15.930385
v 15.179760 -4.234052 -15.880848
v 13.268174 -4.234052 -15.930385
v 13.268174 -4.234052 -15.880848
v 13.268174 -3.293715 -16.167751
v 15.179760 -3.293715 -16.167751
v 13.268174 -3.102557 -16.167751
v 15.179760 -3.102557 -16.167751
v 15.179760 -4.444326 -15.867466
v 15.179760 -4.444326 -16.211552
v 13.268174 -4.444326 -15.867466
v 13.268174 -4.444326 -16.211552
v 15.179760 -3.102557 -15.911269
v 13.268174 -3.102557 -15.911269
v 15.179760 -4.272283 -15.867466
v 13.268174 -4.272283 -15.867466
v 15.179760 -4.234052 -16.198172
v 15.179760 -4.234052 -16.148634
v 13.268174 -4.234052 -16.198172
v 13.268174 -4.234052 -16.148634
v 13.268174 -4.272284 -16.211552
v 15.179760 -4.272284 -16.211552
v 15.179760 -3.293715 -16.148634
v 13.268174 -3.293715 -16.148634
v 15.179760 -3.293715 -15.911269
v 15.179760 -3.293715 -15.930385
v 13.268174 -3.293715 -15.911269
v 13.268174 -3.293715 -15.930385
v 13.268174 -3.293715 -16.167751
v 13.268174 -3.102557 -16.167751
v 13.268174 -3.293715 -16.148634
v 13.268174 -3.102557 -15.911269
v 13.268174 -3.293715 -15.930385
v 13.268174 -3.293715 -15.911269
v 13.268174 -4.444326 -15.867466
v 13.268174 -4.234052 -16.198172
v 13.268174 -4.234052 -16.148634
v 13.268174 -4.234052 -15.930385
v 13.268174 -4.234052 -15.880848
v 13.268174 -4.272283 -15.867466
v 15.179760 -3.102557 -16.167751
v 15.179760 -3.293715 -16.167751
v 15.179760 -3.102557 -15.911269
v 15.179760 -3.293715 -16.148634
v 15.179760 -3.293715 -15.930385
v 15.179760 -3.293715 -15.911269
v 15.179760 -4.444326 -15.867466
v 15.179760 -4.234052 -16.198172
v 15.179760 -4.234052 -16.148634
v 15.179760 -4.234052 -15.930385
v 15.179760 -4.234052 -15.880848
v 15.179760 -4.272283 -15.867466
v 13.739558 -4.060661 -15.880848
v 13.470140 -4.060661 -15.880848
v 13.739558 -3.926850 -15.880848
v 13.470140 -3.926850 -15.880848
v 13.739558 -4.060661 -15.930385
v 13.470140 -4.060661 -15.930385
v 13.739558 -3.926850 -15.930385
v 13.470140 -3.926850 -15.930385
v 13.930717 -3.869503 -15.880848
v 13.661297 -3.869503 -15.880848
v 13.930717 -3.735692 -15.880848
v 13.661297 -3.735692 -15.880848
v 13.930717 -3.869503 -15.930385
v 13.661297 -3.869503 -15.930385
v 13.930717 -3.735692 -15.930385
v 13.661297 -3.735692 -15.930385
v 15.077668 -3.678344 -15.880848
v 14.808249 -3.678344 -15.880848
v 15.077668 -3.544533 -15.880848
v 14.808249 -3.544533 -15.880848
v 15.077668 -3.678344 -15.930385
v 14.808249 -3.678344 -15.930385
v 15.077668 -3.544533 -15.930385
v 14.808249 -3.544533 -15.930385
v 13.610130 -3.969140 -16.198172
v 13.879550 -3.969140 -16.198172
v 13.610130 -3.835329 -16.198172
v 13.879550 -3.835329 -16.198172
v 13.610130 -3.969140 -16.148634
v 13.879550 -3.969140 -16.148634
v 13.610130 -3.835329 -16.148634
v 13.879550 -3.835329 -16.148634
v 13.801290 -3.586823 -16.198172
v 14.070709 -3.586823 -16.198172
v 13.801290 -3.453012 -16.198172
v 14.070709 -3.453012 -16.198172
v 13.801290 -3.586823 -16.148634
v 14.070709 -3.586823 -16.148634
v 13.801290 -3.453012 -16.148634
v 14.070709 -3.453012 -16.148634
v 14.565925 -3.969140 -16.198172
v 14.835342 -3.969140 -16.198172
v 14.565925 -3.835329 -16.198172
v 14.835342 -3.835329 -16.198172
v 14.565925 -3.969140 -16.148634
v 14.835342 -3.969140 -16.148634
v 14.565925 -3.835329 -16.148634
v 14.835342 -3.835329 -16.148634
vn -0.0000 1.0000 -0.0000
vn -0.0000 -0.0000 -1.0000
vn -0.0000 -1.0000 -0.0000
vn -0.0000 0.3303 0.9439
vn -0.0000 0.1676 0.9859
vn -0.0000 0.3304 0.9438
vn -0.0000 0.3304 -0.9438
vn -0.0000 0.1676 -0.9859
vn -0.0000 0.1675 -0.9859
vn -0.0000 0.3303 -0.9439
vn -0.0000 -0.0000 1.0000
vn -0.0000 0.1675 0.9859
vn -1.0000 -0.0000 -0.0000
vn 1.0000 -0.0000 -0.0000
vn 1.0000 -0.0000 -0.0001
vt 0.843750 0.056343
vt 0.843750 0.225000
vt 0.843750 0.196507
vt 0.843750 0.025000
vt 0.843750 0.050644
vt 0.343750 0.196507
vt 0.343750 0.056343
vt 0.281250 0.125000
s 0
usemtl colormap.001
f 3/1/1 2/1/1 1/1/1
f 2/1/1 3/1/1 4/1/1
f 7/2/2 6/3/2 5/3/2
f 6/3/2 7/2/2 8/2/2
f 11/4/3 10/4/3 9/4/3
f 10/4/3 11/4/3 12/4/3
f 7/2/1 13/2/1 8/2/1
f 13/2/1 7/2/1 14/2/1
f 2/1/4 16/5/5 15/5/5
f 16/5/5 2/1/6 4/1/6
f 19/1/1 18/1/1 17/1/1
f 18/1/1 19/1/1 20/1/1
f 19/1/7 22/5/8 21/5/8
f 22/5/9 19/1/10 17/1/10
f 24/3/3 6/3/3 23/3/3
f 6/3/3 24/3/3 5/3/3
f 27/3/3 26/3/3 25/3/3
f 26/3/3 27/3/3 28/3/3
f 13/2/11 27/3/11 25/3/11
f 27/3/11 13/2/11 14/2/11
f 21/5/9 10/4/2 12/4/2
f 10/4/2 21/5/9 22/5/9
f 15/5/12 11/4/11 9/4/11
f 11/4/11 15/5/12 16/5/12
f 31/3/13 30/2/13 29/3/13
f 30/2/13 31/3/13 32/2/13
f 32/2/13 31/3/13 33/3/13
f 32/2/13 33/3/13 34/3/13
f 35/4/13 21/5/13 12/4/13
f 21/5/13 35/4/13 36/1/13
f 36/1/13 35/4/13 37/1/13
f 37/1/13 35/4/13 38/1/13
f 38/1/13 35/4/13 39/1/13
f 39/1/13 35/4/13 40/5/13
f 43/2/14 42/3/14 41/2/14
f 42/3/14 43/2/14 44/3/14
f 44/3/14 43/2/14 45/3/14
f 45/3/14 43/2/14 46/3/14
f 22/5/14 47/4/14 10/4/14
f 47/4/14 22/5/14 48/1/14
f 47/4/14 48/1/14 49/1/14
f 47/4/14 49/1/14 50/1/14
f 47/4/14 50/1/14 51/1/14
f 47/4/15 51/1/15 52/5/15
f 26/6/11 3/7/11 1/7/11
f 3/7/11 26/6/11 28/6/11
f 24/6/2 18/7/2 20/7/2
f 18/7/2 24/6/2 23/6/2
f 20/7/13 28/6/13 24/6/13
f 28/6/13 20/7/13 3/7/13
f 26/6/14 18/7/14 23/6/14
f 18/7/14 26/6/14 1/7/14
f 55/8/11 54/8/11 53/8/11
f 54/8/11 55/8/11 56/8/11
f 54/8/3 57/8/3 53/8/3
f 57/8/3 54/8/3 58/8/3
f 55/8/14 57/8/14 59/8/14
f 57/8/14 55/8/14 53/8/14
f 60/8/1 55/8/1 59/8/1
f 55/8/1 60/8/1 56/8/1
f 54/8/13 60/8/13 58/8/13
f 60/8/13 54/8/13 56/8/13
f 63/8/11 62/8/11 61/8/11
f 62/8/11 63/8/11 64/8/11
f 62/8/3 65/8/3 61/8/3
f 65/8/3 62/8/3 66/8/3
f 63/8/14 65/8/14 67/8/14
f 65/8/14 63/8/14 61/8/14
f 68/8/1 63/8/1 67/8/1
f 63/8/1 68/8/1 64/8/1
f 62/8/13 68/8/13 66/8/13
f 68/8/13 62/8/13 64/8/13
f 71/8/11 70/8/11 69/8/11
f 70/8/11 71/8/11 72/8/11
f 70/8/3 73/8/3 69/8/3
f 73/8/3 70/8/3 74/8/3
f 71/8/14 73/8/14 75/8/14
f 73/8/14 71/8/14 69/8/14
f 76/8/1 71/8/1 75/8/1
f 71/8/1 76/8/1 72/8/1
f 70/8/13 76/8/13 74/8/13
f 76/8/13 70/8/13 72/8/13
f 79/8/2 78/8/2 77/8/2
f 78/8/2 79/8/2 80/8/2
f 78/8/3 81/8/3 77/8/3
f 81/8/3 78/8/3 82/8/3
f 79/8/13 81/8/13 83/8/13
f 81/8/13 79/8/13 77/8/13
f 84/8/1 79/8/1 83/8/1
f 79/8/1 84/8/1 80/8/1
f 78/8/14 84/8/14 82/8/14
f 84/8/14 78/8/14 80/8/14
f 87/8/2 86/8/2 85/8/2
f 86/8/2 87/8/2 88/8/2
f 86/8/3 89/8/3 85/8/3
f 89/8/3 86/8/3 90/8/3
f 87/8/13 89/8/13 91/8/13
f 89/8/13 87/8/13 85/8/13
f 92/8/1 87/8/1 91/8/1
f 87/8/1 92/8/1 88/8/1
f 86/8/14 92/8/14 90/8/14
f 92/8/14 86/8/14 88/8/14
f 95/8/2 94/8/2 93/8/2
f 94/8/2 95/8/2 96/8/2
f 94/8/3 97/8/3 93/8/3
f 97/8/3 94/8/3 98/8/3
f 95/8/13 97/8/13 99/8/13
f 97/8/13 95/8/13 93/8/13
f 100/8/1 95/8/1 99/8/1
f 95/8/1 100/8/1 96/8/1
f 94/8/14 100/8/14 98/8/14
f 100/8/14 94/8/14 96/8/14
f 3/1/1 2/1/1 1/1/1
f 2/1/1 3/1/1 4/1/1
f 7/2/2 6/3/2 5/3/2
f 6/3/2 7/2/2 8/2/2
f 11/4/3 10/4/3 9/4/3
f 10/4/3 11/4/3 12/4/3
f 7/2/1 13/2/1 8/2/1
f 13/2/1 7/2/1 14/2/1
f 2/1/4 16/5/5 15/5/5
f 16/5/5 2/1/6 4/1/6
f 19/1/1 18/1/1 17/1/1
f 18/1/1 19/1/1 20/1/1
f 19/1/7 22/5/8 21/5/8
f 22/5/9 19/1/10 17/1/10
f 24/3/3 6/3/3 23/3/3
f 6/3/3 24/3/3 5/3/3
f 27/3/3 26/3/3 25/3/3
f 26/3/3 27/3/3 28/3/3
f 13/2/11 27/3/11 25/3/11
f 27/3/11 13/2/11 14/2/11
f 21/5/9 10/4/2 12/4/2
f 10/4/2 21/5/9 22/5/9
f 15/5/12 11/4/11 9/4/11
f 11/4/11 15/5/12 16/5/12
f 31/3/13 30/2/13 29/3/13
f 30/2/13 31/3/13 32/2/13
f 32/2/13 31/3/13 33/3/13
f 32/2/13 33/3/13 34/3/13
f 35/4/13 21/5/13 12/4/13
f 21/5/13 35/4/13 36/1/13
f 36/1/13 35/4/13 37/1/13
f 37/1/13 35/4/13 38/1/13
f 38/1/13 35/4/13 39/1/13
f 39/1/13 35/4/13 40/5/13
f 43/2/14 42/3/14 41/2/14
f 42/3/14 43/2/14 44/3/14
f 44/3/14 43/2/14 45/3/14
f 45/3/14 43/2/14 46/3/14
f 22/5/14 47/4/14 10/4/14
f 47/4/14 22/5/14 48/1/14
f 47/4/14 48/1/14 49/1/14
f 47/4/14 49/1/14 50/1/14
f 47/4/14 50/1/14 51/1/14
f 47/4/15 51/1/15 52/5/15
f 26/6/11 3/7/11 1/7/11
f 3/7/11 26/6/11 28/6/11
f 24/6/2 18/7/2 20/7/2
f 18/7/2 24/6/2 23/6/2
f 20/7/13 28/6/13 24/6/13
f 28/6/13 20/7/13 3/7/13
f 26/6/14 18/7/14 23/6/14
f 18/7/14 26/6/14 1/7/14
f 55/8/11 54/8/11 53/8/11
f 54/8/11 55/8/11 56/8/11
f 54/8/3 57/8/3 53/8/3
f 57/8/3 54/8/3 58/8/3
f 55/8/14 57/8/14 59/8/14
f 57/8/14 55/8/14 53/8/14
f 60/8/1 55/8/1 59/8/1
f 55/8/1 60/8/1 56/8/1
f 54/8/13 60/8/13 58/8/13
f 60/8/13 54/8/13 56/8/13
f 63/8/11 62/8/11 61/8/11
f 62/8/11 63/8/11 64/8/11
f 62/8/3 65/8/3 61/8/3
f 65/8/3 62/8/3 66/8/3
f 63/8/14 65/8/14 67/8/14
f 65/8/14 63/8/14 61/8/14
f 68/8/1 63/8/1 67/8/1
f 63/8/1 68/8/1 64/8/1
f 62/8/13 68/8/13 66/8/13
f 68/8/13 62/8/13 64/8/13
f 71/8/11 70/8/11 69/8/11
f 70/8/11 71/8/11 72/8/11
f 70/8/3 73/8/3 69/8/3
f 73/8/3 70/8/3 74/8/3
f 71/8/14 73/8/14 75/8/14
f 73/8/14 71/8/14 69/8/14
f 76/8/1 71/8/1 75/8/1
f 71/8/1 76/8/1 72/8/1
f 70/8/13 76/8/13 74/8/13
f 76/8/13 70/8/13 72/8/13
f 79/8/2 78/8/2 77/8/2
f 78/8/2 79/8/2 80/8/2
f 78/8/3 81/8/3 77/8/3
f 81/8/3 78/8/3 82/8/3
f 79/8/13 81/8/13 83/8/13
f 81/8/13 79/8/13 77/8/13
f 84/8/1 79/8/1 83/8/1
f 79/8/1 84/8/1 80/8/1
f 78/8/14 84/8/14 82/8/14
f 84/8/14 78/8/14 80/8/14
f 87/8/2 86/8/2 85/8/2
f 86/8/2 87/8/2 88/8/2
f 86/8/3 89/8/3 85/8/3
f 89/8/3 86/8/3 90/8/3
f 87/8/13 89/8/13 91/8/13
f 89/8/13 87/8/13 85/8/13
f 92/8/1 87/8/1 91/8/1
f 87/8/1 92/8/1 88/8/1
f 86/8/14 92/8/14 90/8/14
f 92/8/14 86/8/14 88/8/14
f 95/8/2 94/8/2 93/8/2
f 94/8/2 95/8/2 96/8/2
f 94/8/3 97/8/3 93/8/3
f 97/8/3 94/8/3 98/8/3
f 95/8/13 97/8/13 99/8/13
f 97/8/13 95/8/13 93/8/13
f 100/8/1 95/8/1 99/8/1
f 95/8/1 100/8/1 96/8/1
f 94/8/14 100/8/14 98/8/14
f 100/8/14 94/8/14 96/8/14
