# Blender 4.1.1
# www.blender.org
mtllib tree.073.mtl
o tree.072
v 8.384905 -0.295190 -21.683764
v 8.583065 -0.295190 -21.829836
v 8.212790 -0.295190 -21.709808
v 8.609109 -0.295190 -22.001951
v 8.066718 -0.295190 -21.907969
v 8.463037 -0.295190 -22.200111
v 8.092762 -0.295190 -22.080084
v 8.290922 -0.295190 -22.226156
v 8.460489 0.150532 -21.892399
v 8.361409 0.150532 -21.819363
v 8.275352 0.150532 -21.832384
v 8.473512 0.150532 -21.978456
v 8.400476 0.150532 -22.077536
v 8.314418 0.150532 -22.090557
v 8.215338 0.150532 -22.017521
v 8.202315 0.150532 -21.931463
v 8.308543 0.819166 -22.124456
v 8.184693 0.819166 -22.033163
v 8.168416 0.819166 -21.925591
v 8.491133 0.819166 -21.876757
v 8.367283 0.819166 -21.785463
v 8.416116 0.819166 -22.108179
v 8.507411 0.819166 -21.984329
v 8.259711 0.819166 -21.801741
v 8.507065 0.309673 -21.826891
v 8.413301 0.309673 -21.803696
v 8.556963 0.309673 -21.909594
v 8.533767 0.309673 -22.003355
v 8.330600 0.309673 -21.853594
v 8.451064 0.309673 -22.053255
v 8.307404 0.309673 -21.947355
v 8.357302 0.309673 -22.030058
v 8.549479 0.147933 -21.769352
v 8.627640 0.147933 -21.898899
v 8.402607 0.147933 -21.733017
v 8.273061 0.147933 -21.811178
v 8.591306 0.147933 -22.045771
v 8.236726 0.147933 -21.958050
v 8.461760 0.147933 -22.123932
v 8.314888 0.147933 -22.087597
v 8.085344 0.819166 -21.402790
v 7.721574 0.819166 -21.896276
v 8.185993 1.556122 -21.633116
v 7.971367 1.556122 -21.924274
v 8.940089 0.819166 -22.032856
v 8.694602 0.819166 -21.471079
v 8.690296 1.556122 -22.004858
v 8.545458 1.556122 -21.673407
v 8.576320 0.819166 -22.526344
v 8.475671 1.556122 -22.296019
v 8.116206 1.556122 -22.255726
v 7.967062 0.819166 -22.458054
v 8.540582 2.347869 -21.680021
v 8.189283 2.347869 -21.640644
v 8.379043 3.178330 -21.899164
v 8.298297 3.178330 -21.890114
v 8.282621 3.178330 -22.029968
v 8.250087 3.178330 -21.955517
v 8.121081 2.347869 -22.249113
v 7.979533 2.347869 -21.925190
v 8.472381 2.347869 -22.288488
v 8.682131 2.347869 -22.003942
v 8.363366 3.178330 -22.039019
v 8.411576 3.178330 -21.973618
v 8.787561 1.556122 -21.764984
v 8.386353 1.556122 -21.469236
v 8.540111 2.347869 -21.873116
v 8.356272 2.347869 -21.737600
v 8.732041 1.556122 -22.260315
v 8.514670 2.347869 -22.100082
v 7.929623 1.556122 -21.668819
v 8.146994 2.347869 -21.829052
v 7.874102 1.556122 -22.164150
v 8.121553 2.347869 -22.056019
v 8.275311 1.556122 -22.459898
v 8.305391 2.347869 -22.191532
v 7.809437 0.589264 -21.580225
v 7.654556 0.704215 -21.888765
v 8.058340 0.704215 -21.340994
v 8.603323 0.704215 -22.588140
v 8.258679 0.589264 -22.608278
v 7.927047 0.704215 -22.512337
v 7.737285 0.589264 -22.223938
v 8.734616 0.704215 -21.416796
v 8.402984 0.589264 -21.320856
v 8.852226 0.589264 -22.348907
v 9.007108 0.704215 -22.040369
v 8.924378 0.589264 -21.705196
v 8.541702 1.369209 -22.447124
v 8.776175 1.462665 -22.292847
v 8.269204 1.462665 -22.514385
v 8.837802 1.462665 -21.743029
v 8.643305 1.369209 -21.540668
v 8.392460 1.462665 -21.414749
v 7.807489 1.369209 -21.905907
v 7.823862 1.462665 -22.186104
v 7.885489 1.462665 -21.636286
v 8.018359 1.369209 -22.388464
v 8.119962 1.369209 -21.482008
v 8.854175 1.369209 -22.023228
v 8.487951 2.281588 -22.324120
v 8.289228 2.215307 -22.335732
v 8.098009 2.281588 -22.280413
v 7.988592 2.215307 -22.114120
v 7.940890 2.281588 -21.920858
v 8.720774 2.281588 -22.008274
v 8.673072 2.215307 -21.815014
v 8.563655 2.281588 -21.648722
v 8.030195 2.215307 -21.742954
v 8.173713 2.281588 -21.605013
v 8.631469 2.215307 -22.186178
v 8.372435 2.215307 -21.593401
vn -0.0000 -1.0000 -0.0000
vn 0.8155 0.2942 0.4984
vn 0.2253 0.2944 0.9288
vn 0.8205 0.2944 0.4900
vn 0.2253 0.2944 0.9287
vn 0.2349 0.2942 0.9264
vn -0.4983 0.2942 0.8155
vn 0.2252 0.2944 0.9288
vn 0.2348 0.2942 0.9265
vn -0.4984 0.2943 0.8155
vn -0.4899 0.2944 0.8206
vn 0.9265 0.2942 -0.2348
vn 0.8205 0.2944 0.4899
vn 0.9288 0.2944 -0.2252
vn 0.8206 0.2944 0.4899
vn 0.8155 0.2942 0.4983
vn 0.4984 0.2942 -0.8155
vn 0.9288 0.2944 -0.2253
vn 0.4900 0.2944 -0.8205
vn 0.9264 0.2942 -0.2349
vn -0.8205 0.2944 -0.4900
vn -0.2349 0.2942 -0.9264
vn -0.2253 0.2944 -0.9287
vn -0.8155 0.2942 -0.4984
vn -0.4984 0.2942 0.8155
vn -0.9288 0.2944 0.2253
vn -0.4900 0.2944 0.8205
vn -0.9287 0.2944 0.2253
vn -0.9264 0.2942 0.2349
vn -0.2252 0.2944 -0.9288
vn 0.4984 0.2943 -0.8155
vn 0.4899 0.2944 -0.8206
vn 0.4983 0.2942 -0.8155
vn -0.2348 0.2942 -0.9265
vn -0.8206 0.2944 -0.4899
vn -0.9265 0.2942 0.2348
vn -0.8155 0.2942 -0.4983
vn -0.9265 0.2942 0.2347
vn -0.8205 0.2944 -0.4899
vn -0.9288 0.2944 0.2252
vn -0.2407 -0.0513 -0.9692
vn -0.8555 -0.0512 -0.5152
vn -0.2390 -0.0513 -0.9697
vn -0.8555 -0.0513 -0.5152
vn -0.2408 -0.0513 -0.9692
vn -0.8546 -0.0513 -0.5167
vn -0.9693 -0.0512 0.2407
vn -0.8546 -0.0512 -0.5167
vn -0.8556 -0.0513 -0.5152
vn -0.9692 -0.0513 0.2407
vn -0.9697 -0.0512 0.2390
vn 0.2390 -0.0512 0.9697
vn 0.8546 -0.0513 0.5167
vn 0.8555 -0.0513 0.5152
vn 0.2407 -0.0513 0.9692
vn 0.5152 -0.0513 -0.8555
vn 0.9692 -0.0513 -0.2408
vn 0.5167 -0.0513 -0.8546
vn 0.5152 -0.0512 -0.8555
vn 0.9697 -0.0513 -0.2390
vn 0.2390 -0.0513 0.9697
vn -0.5167 -0.0513 0.8546
vn -0.5167 -0.0512 0.8546
vn -0.5152 -0.0512 0.8556
vn 0.5152 -0.0513 -0.8556
vn -0.2407 -0.0512 -0.9692
vn 0.8556 -0.0513 0.5152
vn 0.9692 -0.0513 -0.2407
vn 0.9697 -0.0512 -0.2390
vn 0.9693 -0.0512 -0.2407
vn 0.8546 -0.0512 0.5167
vn -0.5152 -0.0513 0.8555
vn -0.9692 -0.0513 0.2408
vn -0.5152 -0.0512 0.8555
vn -0.9697 -0.0513 0.2390
vn -0.0000 1.0000 -0.0000
vn 0.9044 0.4042 0.1369
vn 0.5427 0.4042 0.7362
vn 0.5427 0.4043 0.7362
vn -0.7363 0.4042 0.5427
vn -0.9044 0.4042 -0.1368
vn -0.5427 0.4042 -0.7362
vn -0.9044 0.4042 -0.1369
vn -0.5427 0.4043 -0.7362
vn 0.7363 0.4042 -0.5427
vn 0.9044 0.4042 0.1368
vn -0.1369 0.4042 0.9044
vn -0.7362 0.4042 0.5427
vn -0.1369 0.4043 0.9043
vn 0.1369 0.4042 -0.9044
vn 0.7362 0.4042 -0.5427
vn 0.7362 0.4043 -0.5427
vn -0.1368 0.4042 0.9044
vn 0.5427 0.4043 0.7363
vn 0.5427 0.4042 0.7363
vn -0.5427 0.4042 -0.7363
vn 0.1368 0.4042 -0.9044
vn -0.3790 0.3228 0.8673
vn -0.9406 0.3228 0.1054
vn 0.9406 0.3228 -0.1054
vn 0.5616 0.3228 0.7618
vn 0.5616 0.3228 0.7619
vn 0.3790 0.3228 -0.8673
vn -0.5616 0.3228 -0.7618
vn -0.5616 0.3228 -0.7619
vn 0.4081 0.7260 0.5536
vn -0.3805 0.3115 0.8707
vn 0.5638 0.3115 0.7649
vn -0.2754 0.7260 0.6302
vn -0.5638 0.3115 -0.7649
vn -0.6834 0.7260 0.0767
vn -0.4080 0.7260 -0.5536
vn -0.6834 0.7260 0.0766
vn -0.9443 0.3115 0.1058
vn 0.2753 0.7260 -0.6302
vn 0.9443 0.3115 -0.1059
vn 0.3805 0.3115 -0.8707
vn 0.6835 0.7260 -0.0766
vn 0.6834 0.7260 -0.0766
vn 0.9443 0.3115 -0.1058
vn 0.6835 0.7260 -0.0767
vn 0.4080 0.7260 0.5536
vn 0.6835 0.7259 -0.0766
vn 0.4081 0.7259 0.5536
vn -0.2754 0.7259 0.6302
vn -0.6835 0.7259 0.0766
vn 0.2754 0.7259 -0.6302
vn -0.6835 0.7260 0.0766
vn -0.4080 0.7259 -0.5536
vn -0.5638 0.3116 -0.7649
vn 0.2754 0.7260 -0.6302
vn 0.3805 0.3115 -0.8708
vn -0.9443 0.3115 0.1059
vn -0.2753 0.7260 0.6302
vn 0.8673 0.3228 0.3790
vn 0.1054 0.3228 0.9406
vn 0.7618 0.3228 -0.5616
vn 0.7619 0.3228 -0.5616
vn -0.7618 0.3228 0.5616
vn -0.8673 0.3228 -0.3790
vn -0.7619 0.3228 0.5616
vn -0.1054 0.3228 -0.9406
vn -0.3454 0.5060 0.7904
vn -0.8571 0.5060 0.0961
vn -0.7176 0.4530 0.5290
vn -0.8572 0.5060 0.0961
vn 0.7176 -0.4530 -0.5290
vn 0.8572 -0.5060 -0.0961
vn 0.3454 -0.5060 -0.7903
vn 0.3454 -0.5060 -0.7904
vn -0.0993 0.4530 -0.8860
vn 0.3454 0.5061 -0.7903
vn 0.3454 0.5060 -0.7904
vn 0.3454 0.5060 -0.7903
vn -0.5118 0.5060 -0.6943
vn -0.3454 -0.5060 0.7904
vn -0.3454 -0.5060 0.7903
vn 0.0993 -0.4530 0.8860
vn 0.5118 -0.5060 0.6943
vn -0.8169 0.4530 -0.3570
vn 0.8571 -0.5060 -0.0961
vn 0.8169 -0.4530 0.3570
vn 0.5118 0.5060 0.6943
vn 0.0993 0.4529 0.8860
vn 0.0993 0.4530 0.8860
vn -0.3454 0.5060 0.7903
vn -0.3454 0.5061 0.7903
vn -0.5118 -0.5060 -0.6943
vn -0.0993 -0.4529 -0.8860
vn -0.0993 -0.4530 -0.8860
vn 0.8571 0.5060 -0.0961
vn 0.7176 0.4530 -0.5290
vn 0.8572 0.5060 -0.0961
vn -0.7176 -0.4530 0.5290
vn -0.8572 -0.5060 0.0961
vn 0.8169 0.4530 0.3570
vn -0.8169 -0.4530 -0.3570
vn -0.8571 -0.5060 0.0961
vn -0.0961 0.5060 -0.8572
vn 0.6943 0.5060 -0.5118
vn 0.3570 0.4530 -0.8169
vn -0.0961 0.5060 -0.8571
vn -0.3570 -0.4530 0.8169
vn -0.6943 -0.5060 0.5118
vn 0.0961 -0.5060 0.8572
vn 0.0961 -0.5061 0.8571
vn 0.7904 0.5060 0.3454
vn 0.5290 0.4530 0.7176
vn 0.0961 0.5061 0.8571
vn 0.5290 0.4529 0.7176
vn 0.0961 0.5060 0.8571
vn 0.0961 0.5060 0.8572
vn -0.7904 -0.5060 -0.3454
vn -0.5290 -0.4530 -0.7176
vn -0.0961 -0.5060 -0.8572
vn -0.5290 -0.4529 -0.7176
vn -0.6943 0.5060 0.5118
vn -0.7903 0.5060 -0.3454
vn -0.8860 0.4530 0.0993
vn -0.7904 0.5060 -0.3454
vn 0.8860 -0.4530 -0.0993
vn 0.7904 -0.5060 0.3454
vn 0.6943 -0.5060 -0.5118
vn -0.5290 0.4529 -0.7176
vn -0.5290 0.4530 -0.7176
vn 0.5290 -0.4529 0.7176
vn 0.5290 -0.4530 0.7176
vn 0.7903 -0.5060 0.3454
vn 0.7903 -0.5061 0.3454
vn -0.3570 0.4529 0.8169
vn 0.3570 -0.4529 -0.8170
vn -0.0961 -0.5060 -0.8571
vn 0.7903 0.5060 0.3454
vn 0.8860 0.4530 -0.0993
vn -0.8860 -0.4530 0.0993
vn -0.0993 0.4529 -0.8860
vn -0.5118 0.5059 -0.6943
vn 0.0993 -0.4529 0.8860
vn 0.5118 0.5061 0.6943
vn 0.8169 0.4529 0.3570
vn -0.8169 -0.4529 -0.3570
vt 0.593750 0.025000
vt 0.593750 0.104996
vt 0.593750 0.225000
vt 0.093750 0.475000
vt 0.093750 0.275000
vt 0.093750 0.425000
vt 0.093750 0.348778
vt 0.093750 0.338765
vt 0.093750 0.344099
vt 0.093750 0.375000
vt 0.093750 0.325000
s 0
usemtl colormap.088
f 3/1/1 2/1/1 1/1/1
f 2/1/1 3/1/1 4/1/1
f 4/1/1 3/1/1 5/1/1
f 4/1/1 5/1/1 6/1/1
f 6/1/1 5/1/1 7/1/1
f 6/1/1 7/1/1 8/1/1
f 9/2/2 1/1/3 2/1/4
f 1/1/5 9/2/2 10/2/6
f 11/2/7 1/1/8 10/2/9
f 1/1/8 11/2/10 3/1/11
f 12/2/12 2/1/13 4/1/14
f 2/1/15 12/2/12 9/2/16
f 13/2/17 4/1/18 6/1/19
f 4/1/18 13/2/17 12/2/20
f 7/1/21 14/2/22 8/1/23
f 14/2/22 7/1/21 15/2/24
f 11/2/25 5/1/26 3/1/27
f 5/1/28 11/2/25 16/2/29
f 8/1/30 13/2/31 6/1/32
f 13/2/33 8/1/30 14/2/34
f 7/1/35 16/2/36 15/2/37
f 16/2/38 7/1/39 5/1/40
f 14/2/41 18/3/42 17/3/43
f 18/3/44 14/2/45 15/2/46
f 16/2/47 18/3/44 15/2/48
f 18/3/49 16/2/50 19/3/51
f 21/3/52 9/2/53 20/3/54
f 9/2/53 21/3/52 10/2/55
f 22/3/56 12/2/57 13/2/58
f 12/2/57 22/3/59 23/3/60
f 21/3/61 11/2/62 10/2/55
f 11/2/63 21/3/52 24/3/64
f 13/2/58 17/3/43 22/3/65
f 17/3/43 13/2/58 14/2/66
f 20/3/67 12/2/68 23/3/69
f 12/2/70 20/3/54 9/2/71
f 24/3/72 16/2/73 11/2/62
f 16/2/73 24/3/74 19/3/75
f 27/4/76 26/4/76 25/4/76
f 26/4/76 27/4/76 28/4/76
f 26/4/76 28/4/76 29/4/76
f 29/4/76 28/4/76 30/4/76
f 29/4/76 30/4/76 31/4/76
f 31/4/76 30/4/76 32/4/76
f 35/5/1 34/5/1 33/5/1
f 34/5/1 35/5/1 36/5/1
f 34/5/1 36/5/1 37/5/1
f 37/5/1 36/5/1 38/5/1
f 37/5/1 38/5/1 39/5/1
f 39/5/1 38/5/1 40/5/1
f 27/4/77 33/5/78 34/5/77
f 33/5/78 27/4/77 25/4/79
f 29/4/80 38/5/81 36/5/80
f 38/5/81 29/4/80 31/4/81
f 40/5/82 31/4/83 32/4/84
f 31/4/83 40/5/82 38/5/83
f 28/4/85 34/5/86 37/5/85
f 34/5/86 28/4/85 27/4/86
f 26/4/87 36/5/88 35/5/89
f 36/5/88 26/4/87 29/4/88
f 30/4/90 37/5/91 39/5/90
f 37/5/91 30/4/90 28/4/92
f 26/4/93 33/5/94 25/4/95
f 33/5/95 26/4/93 35/5/93
f 40/5/96 30/4/97 39/5/97
f 30/4/97 40/5/84 32/4/96
f 43/6/98 42/7/99 41/7/98
f 42/7/99 43/6/98 44/6/99
f 47/6/100 46/7/101 45/7/100
f 46/7/102 47/6/100 48/6/101
f 50/6/103 45/7/100 49/7/103
f 45/7/100 50/6/103 47/6/100
f 48/6/102 41/7/98 46/7/102
f 41/7/98 48/6/102 43/6/98
f 52/7/104 44/6/99 51/6/104
f 44/6/99 52/7/104 42/7/99
f 52/7/105 50/6/103 49/7/103
f 50/6/103 52/7/104 51/6/105
f 41/7/1 45/7/1 46/7/1
f 45/7/1 41/7/1 42/7/1
f 45/7/1 42/7/1 49/7/1
f 49/7/1 42/7/1 52/7/1
f 55/6/106 54/8/107 53/8/108
f 54/8/107 55/6/106 56/6/109
f 59/8/110 58/6/111 57/6/112
f 58/6/113 59/8/110 60/8/114
f 63/6/115 62/8/116 61/8/117
f 62/8/116 63/6/115 64/6/118
f 64/6/119 53/8/108 62/8/120
f 53/8/108 64/6/121 55/6/122
f 64/6/123 56/6/109 55/6/124
f 56/6/125 64/6/123 58/6/126
f 58/6/126 64/6/118 63/6/127
f 58/6/128 63/6/127 57/6/129
f 59/8/130 63/6/131 61/8/132
f 63/6/115 59/8/110 57/6/112
f 54/8/1 62/8/1 53/8/1
f 62/8/1 54/8/1 60/8/1
f 62/8/1 60/8/1 61/8/1
f 61/8/1 60/8/1 59/8/1
f 56/6/109 60/8/133 54/8/107
f 60/8/133 56/6/134 58/6/128
f 67/6/135 66/9/136 65/9/135
f 66/9/136 67/6/135 68/6/136
f 70/6/137 65/9/135 69/9/138
f 65/9/135 70/6/138 67/6/135
f 68/6/136 71/9/139 66/9/136
f 71/9/139 68/6/136 72/6/139
f 72/6/139 73/9/140 71/9/141
f 73/9/140 72/6/141 74/6/140
f 71/9/1 65/9/1 66/9/1
f 65/9/1 71/9/1 69/9/1
f 69/9/1 71/9/1 73/9/1
f 69/9/1 73/9/1 75/9/1
f 76/6/142 69/9/137 75/9/142
f 69/9/137 76/6/142 70/6/137
f 73/9/140 76/6/142 75/9/142
f 76/6/142 73/9/140 74/6/140
f 79/10/143 78/10/144 77/11/145
f 78/10/146 79/10/143 41/6/143
f 78/10/146 41/6/143 42/6/146
f 77/11/147 78/10/148 79/10/149
f 41/6/150 79/10/150 78/10/148
f 42/6/148 41/6/150 78/10/148
f 81/11/151 49/6/152 80/10/153
f 49/6/154 81/11/151 52/6/155
f 52/6/155 81/11/151 82/10/155
f 80/10/156 49/6/157 81/11/158
f 52/6/159 81/11/158 49/6/156
f 82/10/159 81/11/158 52/6/159
f 82/10/155 42/6/146 52/6/155
f 42/6/146 82/10/155 83/11/160
f 42/6/146 83/11/160 78/10/146
f 52/6/159 42/6/161 82/10/159
f 83/11/162 82/10/159 42/6/148
f 78/10/148 83/11/162 42/6/161
f 46/6/163 85/11/164 84/10/163
f 85/11/165 46/6/163 41/6/166
f 85/11/165 41/6/167 79/10/143
f 84/10/168 85/11/169 46/6/168
f 41/6/150 46/6/168 85/11/170
f 79/10/150 41/6/149 85/11/170
f 80/10/153 87/10/171 86/11/172
f 87/10/173 80/10/153 49/6/153
f 87/10/173 49/6/153 45/6/173
f 86/11/174 87/10/175 80/10/156
f 49/6/156 80/10/156 87/10/175
f 45/6/175 49/6/156 87/10/175
f 45/6/171 88/11/176 87/10/173
f 88/11/176 45/6/173 46/6/163
f 88/11/176 46/6/163 84/10/163
f 87/10/175 88/11/177 45/6/178
f 46/6/168 45/6/175 88/11/177
f 84/10/168 46/6/168 88/11/177
f 91/10/179 90/10/180 89/11/181
f 90/10/180 91/10/179 75/6/179
f 90/10/180 75/6/182 69/6/180
f 89/11/183 90/10/184 91/10/185
f 75/6/185 91/10/185 90/10/184
f 69/6/184 75/6/186 90/10/184
f 65/6/187 93/11/188 92/10/187
f 93/11/188 65/6/187 66/6/189
f 93/11/190 66/6/191 94/10/192
f 92/10/193 93/11/194 65/6/193
f 66/6/195 65/6/193 93/11/194
f 94/10/195 66/6/195 93/11/196
f 97/10/197 96/10/198 95/11/199
f 96/10/200 97/10/197 71/6/197
f 96/10/200 71/6/197 73/6/200
f 95/11/201 96/10/202 97/10/203
f 71/6/203 97/10/203 96/10/202
f 73/6/202 71/6/203 96/10/202
f 98/11/204 75/6/182 91/10/179
f 75/6/182 98/11/205 73/6/200
f 73/6/198 98/11/205 96/10/200
f 91/10/185 75/6/185 98/11/206
f 73/6/202 98/11/207 75/6/185
f 96/10/208 98/11/207 73/6/209
f 94/10/192 97/10/197 99/11/210
f 97/10/197 94/10/192 66/6/192
f 97/10/197 66/6/192 71/6/197
f 99/11/211 97/10/203 94/10/195
f 66/6/212 94/10/212 97/10/203
f 71/6/203 66/6/212 97/10/203
f 90/10/180 92/10/213 100/11/214
f 92/10/187 90/10/180 69/6/180
f 92/10/187 69/6/180 65/6/187
f 100/11/215 92/10/193 90/10/184
f 69/6/184 90/10/184 92/10/193
f 65/6/193 69/6/184 92/10/193
f 102/11/216 61/6/153 101/10/153
f 61/6/154 102/11/151 59/6/155
f 59/6/155 102/11/216 103/10/217
f 101/10/156 61/6/156 102/11/218
f 59/6/159 102/11/158 61/6/156
f 103/10/159 102/11/218 59/6/159
f 103/10/155 60/6/146 59/6/155
f 60/6/146 103/10/155 104/11/160
f 60/6/144 104/11/160 105/10/146
f 59/6/159 60/6/161 103/10/159
f 104/11/162 103/10/159 60/6/148
f 105/10/161 104/11/162 60/6/161
f 62/6/173 107/11/176 106/10/173
f 107/11/176 62/6/173 53/6/219
f 107/11/220 53/6/163 108/10/163
f 106/10/175 107/11/177 62/6/178
f 53/6/168 62/6/175 107/11/177
f 108/10/168 53/6/168 107/11/221
f 110/10/143 105/10/144 109/11/145
f 105/10/146 110/10/143 54/6/143
f 105/10/146 54/6/143 60/6/146
f 109/11/147 105/10/148 110/10/149
f 54/6/150 110/10/150 105/10/148
f 60/6/148 54/6/149 105/10/148
f 101/10/153 106/10/171 111/11/172
f 106/10/173 101/10/153 61/6/153
f 106/10/173 61/6/153 62/6/173
f 111/11/174 106/10/175 101/10/157
f 61/6/157 101/10/156 106/10/175
f 62/6/175 61/6/156 106/10/175
f 53/6/163 112/11/164 108/10/163
f 112/11/164 53/6/163 54/6/143
f 112/11/165 54/6/167 110/10/166
f 108/10/168 112/11/170 53/6/168
f 54/6/150 53/6/168 112/11/170
f 110/10/149 54/6/149 112/11/170
f 3/1/1 2/1/1 1/1/1
f 2/1/1 3/1/1 4/1/1
f 4/1/1 3/1/1 5/1/1
f 4/1/1 5/1/1 6/1/1
f 6/1/1 5/1/1 7/1/1
f 6/1/1 7/1/1 8/1/1
f 9/2/2 1/1/3 2/1/4
f 1/1/5 9/2/2 10/2/6
f 11/2/7 1/1/8 10/2/9
f 1/1/8 11/2/10 3/1/11
f 12/2/12 2/1/13 4/1/14
f 2/1/15 12/2/12 9/2/16
f 13/2/17 4/1/18 6/1/19
f 4/1/18 13/2/17 12/2/20
f 7/1/21 14/2/22 8/1/23
f 14/2/22 7/1/21 15/2/24
f 11/2/25 5/1/26 3/1/27
f 5/1/28 11/2/25 16/2/29
f 8/1/30 13/2/31 6/1/32
f 13/2/33 8/1/30 14/2/34
f 7/1/35 16/2/36 15/2/37
f 16/2/38 7/1/39 5/1/40
f 14/2/41 18/3/42 17/3/43
f 18/3/44 14/2/45 15/2/46
f 16/2/47 18/3/44 15/2/48
f 18/3/49 16/2/50 19/3/51
f 21/3/52 9/2/53 20/3/54
f 9/2/53 21/3/52 10/2/55
f 22/3/56 12/2/57 13/2/58
f 12/2/57 22/3/59 23/3/60
f 21/3/61 11/2/62 10/2/55
f 11/2/63 21/3/52 24/3/64
f 13/2/58 17/3/43 22/3/65
f 17/3/43 13/2/58 14/2/66
f 20/3/67 12/2/68 23/3/69
f 12/2/70 20/3/54 9/2/71
f 24/3/72 16/2/73 11/2/62
f 16/2/73 24/3/74 19/3/75
f 27/4/76 26/4/76 25/4/76
f 26/4/76 27/4/76 28/4/76
f 26/4/76 28/4/76 29/4/76
f 29/4/76 28/4/76 30/4/76
f 29/4/76 30/4/76 31/4/76
f 31/4/76 30/4/76 32/4/76
f 35/5/1 34/5/1 33/5/1
f 34/5/1 35/5/1 36/5/1
f 34/5/1 36/5/1 37/5/1
f 37/5/1 36/5/1 38/5/1
f 37/5/1 38/5/1 39/5/1
f 39/5/1 38/5/1 40/5/1
f 27/4/77 33/5/78 34/5/77
f 33/5/78 27/4/77 25/4/79
f 29/4/80 38/5/81 36/5/80
f 38/5/81 29/4/80 31/4/81
f 40/5/82 31/4/83 32/4/84
f 31/4/83 40/5/82 38/5/83
f 28/4/85 34/5/86 37/5/85
f 34/5/86 28/4/85 27/4/86
f 26/4/87 36/5/88 35/5/89
f 36/5/88 26/4/87 29/4/88
f 30/4/90 37/5/91 39/5/90
f 37/5/91 30/4/90 28/4/92
f 26/4/93 33/5/94 25/4/95
f 33/5/95 26/4/93 35/5/93
f 40/5/96 30/4/97 39/5/97
f 30/4/97 40/5/84 32/4/96
f 43/6/98 42/7/99 41/7/98
f 42/7/99 43/6/98 44/6/99
f 47/6/100 46/7/101 45/7/100
f 46/7/102 47/6/100 48/6/101
f 50/6/103 45/7/100 49/7/103
f 45/7/100 50/6/103 47/6/100
f 48/6/102 41/7/98 46/7/102
f 41/7/98 48/6/102 43/6/98
f 52/7/104 44/6/99 51/6/104
f 44/6/99 52/7/104 42/7/99
f 52/7/105 50/6/103 49/7/103
f 50/6/103 52/7/104 51/6/105
f 41/7/1 45/7/1 46/7/1
f 45/7/1 41/7/1 42/7/1
f 45/7/1 42/7/1 49/7/1
f 49/7/1 42/7/1 52/7/1
f 55/6/106 54/8/107 53/8/108
f 54/8/107 55/6/106 56/6/109
f 59/8/110 58/6/111 57/6/112
f 58/6/113 59/8/110 60/8/114
f 63/6/115 62/8/116 61/8/117
f 62/8/116 63/6/115 64/6/118
f 64/6/119 53/8/108 62/8/120
f 53/8/108 64/6/121 55/6/122
f 64/6/123 56/6/109 55/6/124
f 56/6/125 64/6/123 58/6/126
f 58/6/126 64/6/118 63/6/127
f 58/6/128 63/6/127 57/6/129
f 59/8/130 63/6/131 61/8/132
f 63/6/115 59/8/110 57/6/112
f 54/8/1 62/8/1 53/8/1
f 62/8/1 54/8/1 60/8/1
f 62/8/1 60/8/1 61/8/1
f 61/8/1 60/8/1 59/8/1
f 56/6/109 60/8/133 54/8/107
f 60/8/133 56/6/134 58/6/128
f 67/6/135 66/9/136 65/9/135
f 66/9/136 67/6/135 68/6/136
f 70/6/137 65/9/135 69/9/138
f 65/9/135 70/6/138 67/6/135
f 68/6/136 71/9/139 66/9/136
f 71/9/139 68/6/136 72/6/139
f 72/6/139 73/9/140 71/9/141
f 73/9/140 72/6/141 74/6/140
f 71/9/1 65/9/1 66/9/1
f 65/9/1 71/9/1 69/9/1
f 69/9/1 71/9/1 73/9/1
f 69/9/1 73/9/1 75/9/1
f 76/6/142 69/9/137 75/9/142
f 69/9/137 76/6/142 70/6/137
f 73/9/140 76/6/142 75/9/142
f 76/6/142 73/9/140 74/6/140
f 79/10/143 78/10/144 77/11/145
f 78/10/146 79/10/143 41/6/143
f 78/10/146 41/6/143 42/6/146
f 77/11/147 78/10/148 79/10/149
f 41/6/150 79/10/150 78/10/148
f 42/6/148 41/6/150 78/10/148
f 81/11/151 49/6/152 80/10/153
f 49/6/154 81/11/151 52/6/155
f 52/6/155 81/11/151 82/10/155
f 80/10/156 49/6/157 81/11/158
f 52/6/159 81/11/158 49/6/156
f 82/10/159 81/11/158 52/6/159
f 82/10/155 42/6/146 52/6/155
f 42/6/146 82/10/155 83/11/160
f 42/6/146 83/11/160 78/10/146
f 52/6/159 42/6/161 82/10/159
f 83/11/162 82/10/159 42/6/148
f 78/10/148 83/11/162 42/6/161
f 46/6/163 85/11/164 84/10/163
f 85/11/165 46/6/163 41/6/166
f 85/11/165 41/6/167 79/10/143
f 84/10/168 85/11/169 46/6/168
f 41/6/150 46/6/168 85/11/170
f 79/10/150 41/6/149 85/11/170
f 80/10/153 87/10/171 86/11/172
f 87/10/173 80/10/153 49/6/153
f 87/10/173 49/6/153 45/6/173
f 86/11/174 87/10/175 80/10/156
f 49/6/156 80/10/156 87/10/175
f 45/6/175 49/6/156 87/10/175
f 45/6/171 88/11/176 87/10/173
f 88/11/176 45/6/173 46/6/163
f 88/11/176 46/6/163 84/10/163
f 87/10/175 88/11/177 45/6/178
f 46/6/168 45/6/175 88/11/177
f 84/10/168 46/6/168 88/11/177
f 91/10/179 90/10/180 89/11/181
f 90/10/180 91/10/179 75/6/179
f 90/10/180 75/6/182 69/6/180
f 89/11/183 90/10/184 91/10/185
f 75/6/185 91/10/185 90/10/184
f 69/6/184 75/6/186 90/10/184
f 65/6/187 93/11/188 92/10/187
f 93/11/188 65/6/187 66/6/189
f 93/11/190 66/6/191 94/10/192
f 92/10/193 93/11/194 65/6/193
f 66/6/195 65/6/193 93/11/194
f 94/10/195 66/6/195 93/11/196
f 97/10/197 96/10/198 95/11/199
f 96/10/200 97/10/197 71/6/197
f 96/10/200 71/6/197 73/6/200
f 95/11/201 96/10/202 97/10/203
f 71/6/203 97/10/203 96/10/202
f 73/6/202 71/6/203 96/10/202
f 98/11/204 75/6/182 91/10/179
f 75/6/182 98/11/205 73/6/200
f 73/6/198 98/11/205 96/10/200
f 91/10/185 75/6/185 98/11/206
f 73/6/202 98/11/207 75/6/185
f 96/10/208 98/11/207 73/6/209
f 94/10/192 97/10/197 99/11/210
f 97/10/197 94/10/192 66/6/192
f 97/10/197 66/6/192 71/6/197
f 99/11/211 97/10/203 94/10/195
f 66/6/212 94/10/212 97/10/203
f 71/6/203 66/6/212 97/10/203
f 90/10/180 92/10/213 100/11/214
f 92/10/187 90/10/180 69/6/180
f 92/10/187 69/6/180 65/6/187
f 100/11/215 92/10/193 90/10/184
f 69/6/184 90/10/184 92/10/193
f 65/6/193 69/6/184 92/10/193
f 102/11/216 61/6/153 101/10/153
f 61/6/154 102/11/151 59/6/155
f 59/6/155 102/11/216 103/10/217
f 101/10/156 61/6/156 102/11/218
f 59/6/159 102/11/158 61/6/156
f 103/10/159 102/11/218 59/6/159
f 103/10/155 60/6/146 59/6/155
f 60/6/146 103/10/155 104/11/160
f 60/6/144 104/11/160 105/10/146
f 59/6/159 60/6/161 103/10/159
f 104/11/162 103/10/159 60/6/148
f 105/10/161 104/11/162 60/6/161
f 62/6/173 107/11/176 106/10/173
f 107/11/176 62/6/173 53/6/219
f 107/11/220 53/6/163 108/10/163
f 106/10/175 107/11/177 62/6/178
f 53/6/168 62/6/175 107/11/177
f 108/10/168 53/6/168 107/11/221
f 110/10/143 105/10/144 109/11/145
f 105/10/146 110/10/143 54/6/143
f 105/10/146 54/6/143 60/6/146
f 109/11/147 105/10/148 110/10/149
f 54/6/150 110/10/150 105/10/148
f 60/6/148 54/6/149 105/10/148
f 101/10/153 106/10/171 111/11/172
f 106/10/173 101/10/153 61/6/153
f 106/10/173 61/6/153 62/6/173
f 111/11/174 106/10/175 101/10/157
f 61/6/157 101/10/156 106/10/175
f 62/6/175 61/6/156 106/10/175
f 53/6/163 112/11/164 108/10/163
f 112/11/164 53/6/163 54/6/143
f 112/11/165 54/6/167 110/10/166
f 108/10/168 112/11/170 53/6/168
f 54/6/150 53/6/168 112/11/170
f 110/10/149 54/6/149 112/11/170
